<?xml version="1.0" encoding="UTF-8" standalone="no"?>
<svg
   fill="none"
   viewBox="0 0 48 48"
   height="256"
   width="256"
   version="1.1"
   id="svg4"
   sodipodi:docname="laptop.svg"
   inkscape:version="1.2.1 (9c6d41e410, 2022-07-14)"
   xmlns:inkscape="http://www.inkscape.org/namespaces/inkscape"
   xmlns:sodipodi="http://sodipodi.sourceforge.net/DTD/sodipodi-0.dtd"
   xmlns="http://www.w3.org/2000/svg"
   xmlns:svg="http://www.w3.org/2000/svg">
  <defs
     id="defs8" />
  <sodipodi:namedview
     id="namedview6"
     pagecolor="#ffffff"
     bordercolor="#666666"
     borderopacity="1.0"
     inkscape:showpageshadow="2"
     inkscape:pageopacity="0.0"
     inkscape:pagecheckerboard="0"
     inkscape:deskcolor="#d1d1d1"
     showgrid="false"
     inkscape:zoom="1.6191406"
     inkscape:cx="226.66345"
     inkscape:cy="120.74307"
     inkscape:current-layer="svg4"
     inkscape:window-width="1920"
     inkscape:window-height="730"
     inkscape:window-x="-6"
     inkscape:window-y="-6"
     inkscape:window-maximized="1" />
  <path
     fill="#fff01c"
     d="m 13.0267,3.0194 c 2.0234,-0.1622 3.9897,0.70149 5.3182,2.25694 L 20.484,7.7809 c 0.8358,0.97855 2.0497,1.54082 3.3267,1.54082 h 15.6556 c 3.4343,0 6.2943,2.67048 6.4093,6.14958 0.076,2.3 0.1244,5.0559 0.1244,8.3447 0,8.3948 -0.3154,13.3172 -0.6001,16.0504 -0.201,1.9303 -1.4695,3.4358 -3.347,3.8184 C 39.1115,44.2842 33.5911,45 24,45 14.4089,45 8.88851,44.2842 5.94709,43.6848 4.06964,43.3022 2.80114,41.7967 2.60009,39.8664 2.3154,37.1332 2,32.2108 2,23.816 2,15.4213 2.3154,10.4988 2.60009,7.76562 2.80114,5.83531 4.07157,4.32933 5.94903,3.94684 7.50913,3.62901 9.79423,3.27853 13.0267,3.0194 Z"
     id="path2"
     sodipodi:nodetypes="cccsscscssccsccc"
     style="fill:#fff01c;fill-opacity:1" />
  <path
     fill="#e7c323"
     d="m 13.0267,3.0194 c 2.0234,-0.1622 3.9897,0.70149 5.3182,2.25694 L 20.484,7.7809 c 0.8358,0.97855 2.0497,1.54082 3.3267,1.54082 L 7.3371547,9.3055949 C 4.2939408,9.2748882 3.0936416,10.460815 2.2388602,12.572585 2.2891482,11.297708 2.4058749,9.9881674 2.4110081,9.925893 2.4631187,9.293705 2.5572746,8.1766733 2.60009,7.76562 2.80114,5.83531 4.07157,4.32933 5.94903,3.94684 7.50913,3.62901 9.79423,3.27853 13.0267,3.0194 Z"
     id="path971"
     style="fill:#e7c323;fill-opacity:1"
     sodipodi:nodetypes="scccccsccs" />
  <path
     id="path1002"
     style="fill:#606668;fill-opacity:1;stroke-width:0.81"
     d="m 24,12.825806 c -6.562532,0 -10.400748,0.445016 -12.491089,0.829101 -1.397863,0.256851 -2.357656,1.343746 -2.506348,2.757202 -0.19154,1.820798 -0.392578,3.473193 -0.392578,8.683594 0,3.605866 0.09654,5.474879 0.219361,7.35022 h 9.850342 c 0.572669,0 1.080717,0.367299 1.260131,0.911133 0.179496,0.543833 0.687463,0.911132 1.260132,0.911132 h 5.600098 c 0.572669,0 1.080717,-0.367299 1.260132,-0.911132 0.179414,-0.543834 0.687828,-0.911133 1.260498,-0.911133 h 9.849975 c 0.12282,-1.875341 0.219361,-3.744354 0.219361,-7.35022 0,-5.210401 -0.201014,-6.862796 -0.392578,-8.683594 C 38.848721,14.998653 37.888904,13.911758 36.491089,13.654907 34.400721,13.270822 30.562532,12.825806 24,12.825806 Z"
     sodipodi:nodetypes="scsscscsssscsscs" />
  <path
     fill="#828480"
     d="m 23.999997,41.985791 c -7.389549,0 -11.832002,-0.271836 -14.342241,-0.518562 C 7.895464,41.29397 6.59645,39.997403 6.429582,38.234519 6.380072,37.711502 6.329882,37.103111 6.281652,36.398978 6.218262,35.473634 6.95835,34.695791 7.885897,34.695791 h 10.043636 c 0.57267,0 1.080783,0.367416 1.260198,0.91125 v 0 c 0.179496,0.543834 0.687528,0.91125 1.260198,0.91125 h 7.100217 c 0.57267,0 1.080783,-0.367416 1.260198,-0.91125 v 0 c 0.179415,-0.543834 0.687528,-0.91125 1.260198,-0.91125 h 10.043517 c 0.927612,0 1.667709,0.777843 1.604286,1.703187 -0.04819,0.704133 -0.09842,1.312524 -0.147906,1.835541 -0.16686,1.762884 -1.465938,3.059451 -3.228174,3.23271 -2.510271,0.246726 -6.952719,0.518562 -14.342268,0.518562 z"
     id="path1005"
     style="fill:#828480;fill-opacity:1;stroke-width:0.81" />
</svg>
