<?xml version="1.0" encoding="UTF-8" standalone="no"?>
<svg
   fill="none"
   viewBox="0 0 48 48"
   height="256"
   width="256"
   version="1.1"
   id="svg4"
   sodipodi:docname="library.svg"
   inkscape:version="1.2.1 (9c6d41e410, 2022-07-14)"
   xmlns:inkscape="http://www.inkscape.org/namespaces/inkscape"
   xmlns:sodipodi="http://sodipodi.sourceforge.net/DTD/sodipodi-0.dtd"
   xmlns="http://www.w3.org/2000/svg"
   xmlns:svg="http://www.w3.org/2000/svg">
  <defs
     id="defs8" />
  <sodipodi:namedview
     id="namedview6"
     pagecolor="#ffffff"
     bordercolor="#666666"
     borderopacity="1.0"
     inkscape:showpageshadow="2"
     inkscape:pageopacity="0.0"
     inkscape:pagecheckerboard="0"
     inkscape:deskcolor="#d1d1d1"
     showgrid="false"
     inkscape:zoom="2"
     inkscape:cx="260.5"
     inkscape:cy="121.25"
     inkscape:current-layer="svg4"
     inkscape:window-width="1920"
     inkscape:window-height="730"
     inkscape:window-x="-6"
     inkscape:window-y="-6"
     inkscape:window-maximized="1" />
  <path
     id="path2"
     style="fill:#fff01c;fill-opacity:1"
     d="m 13.59375,3.0007324 c -0.188211,-0.00255 -0.377201,0.00347 -0.566895,0.018677 C 9.7943924,3.2785386 7.5091935,3.6291921 5.9490967,3.9470215 4.0716405,4.3295107 2.8011473,5.8351969 2.6000977,7.7655029 2.3154081,10.498677 1.9998779,15.42148 1.9998779,23.816162 c 0,8.394784 0.3155302,13.317099 0.6002198,16.050293 0.2010496,1.930296 1.4697217,3.435882 3.3471679,3.818482 C 8.8886798,44.284335 14.40892,45 24,45 c 9.59108,0 15.11134,-0.715665 18.052734,-1.315063 1.877496,-0.3826 3.14617,-1.888186 3.347168,-3.818482 0.2847,-2.733194 0.60022,-7.655509 0.60022,-16.050293 0,-3.288794 -0.04851,-6.044853 -0.124512,-8.344849 -0.115,-3.479092 -2.975131,-6.1494136 -6.409423,-6.1494136 H 23.810669 c -1.276998,0 -2.490862,-0.5624676 -3.32666,-1.5410156 L 18.344971,5.2763672 C 17.14102,3.8667434 15.413125,3.0253984 13.59375,3.0007324 Z"
     sodipodi:nodetypes="scccsccsscscssccs" />
  <path
     fill="#e7c323"
     d="m 13.0267,3.0194 c 2.0234,-0.1622 3.9897,0.70149 5.3182,2.25694 L 20.484,7.7809 c 0.8358,0.97855 2.0497,1.54082 3.3267,1.54082 L 7.3371547,9.3055949 C 4.2939408,9.2748882 3.0936416,10.460815 2.2388602,12.572585 2.2891482,11.297708 2.4058749,9.9881674 2.4110081,9.925893 2.4631187,9.293705 2.5572746,8.1766733 2.60009,7.76562 2.80114,5.83531 4.07157,4.32933 5.94903,3.94684 7.50913,3.62901 9.79423,3.27853 13.0267,3.0194 Z"
     id="path971"
     style="fill:#e7c323;fill-opacity:1"
     sodipodi:nodetypes="scccccsccs" />
  <path
     id="rect287"
     style="fill:#bb852e;fill-opacity:1;stroke-width:5.25;stroke-linejoin:round"
     d="m 15.038452,15.551147 c 0.102601,-5e-4 0.203931,-3.5e-5 0.304321,0.0015 2.526139,0.03898 4.679062,1.023303 6.647828,2.127686 v 17.964844 c -3.656704,-2.060896 -5.560626,-2.562894 -9.810059,-2.085938 -0.508901,0.05712 -0.959839,-0.329455 -0.959839,-0.811157 V 17.25769 c 0,-0.805962 0.634045,-1.493193 1.487183,-1.572143 0.839088,-0.07766 1.612362,-0.1307 2.330566,-0.1344 z m 18.524048,0 c 0.718204,0.0037 1.491478,0.05674 2.330566,0.1344 0.85314,0.07895 1.487183,0.766181 1.487183,1.572143 v 15.490357 c 0,0.481702 -0.450936,0.868277 -0.959839,0.811157 -4.249433,-0.476956 -6.153356,0.02504 -9.810058,2.085938 V 17.680298 c 1.968766,-1.104383 4.121688,-2.088706 6.647827,-2.127686 0.100392,-0.0016 0.20172,-0.002 0.304321,-0.0015 z m -10.071899,1.378785 c 0.555132,0.289376 1.111604,0.287983 1.620117,0 v 20.964843 c 3.65648,-2.060756 6.299179,-3.394537 12.810058,-2.835571 0.510219,0.04382 0.959839,-0.329454 0.959839,-0.811157 V 17.883545 c 0.60658,0.134192 1.194448,0.29025 1.755249,0.470215 0.918206,0.294674 1.484619,1.181329 1.484619,2.14563 v 17.708496 c 0,1.192883 -1.26137,2.018705 -2.390991,1.635498 -3.379385,-1.146323 -9.733749,-2.635255 -15.047973,-0.06336 -0.240246,0.116235 -0.521843,0.116235 -0.762085,0 C 18.605206,37.208139 12.251223,38.697071 8.871826,39.843384 7.742163,40.226591 6.480469,39.400769 6.480469,38.207886 V 20.49939 c 0,-0.964301 0.566383,-1.850956 1.484619,-2.14563 0.560878,-0.17999 1.14895,-0.336011 1.755615,-0.470215 v 16.364502 c 0,0.481703 0.449623,0.854977 0.959839,0.811157 6.511146,-0.558988 9.153351,0.775042 12.810059,2.835938 z"
     sodipodi:nodetypes="ccccsssscssssscccscccsscsssccccssscsccc" />
</svg>
