<?xml version="1.0" encoding="UTF-8" standalone="no"?>
<svg
   fill="none"
   viewBox="0 0 48 48"
   height="256"
   width="256"
   version="1.1"
   id="svg4"
   sodipodi:docname="move.svg"
   inkscape:version="1.2.1 (9c6d41e410, 2022-07-14)"
   xmlns:inkscape="http://www.inkscape.org/namespaces/inkscape"
   xmlns:sodipodi="http://sodipodi.sourceforge.net/DTD/sodipodi-0.dtd"
   xmlns="http://www.w3.org/2000/svg"
   xmlns:svg="http://www.w3.org/2000/svg">
  <defs
     id="defs8">
    <inkscape:path-effect
       effect="bend_path"
       id="path-effect1569"
       is_visible="true"
       lpeversion="1"
       bendpath="m -63.84988,23.679439 c 12.489917,-6.237804 31.46809,-5.952838 43.999999,0"
       prop_scale="1"
       scale_y_rel="false"
       vertical="false"
       hide_knot="false"
       bendpath-nodetypes="cc" />
    <inkscape:path-effect
       effect="bend_path"
       id="path-effect1563"
       is_visible="true"
       lpeversion="1"
       bendpath="m -63.84988,23.679439 c 12.677916,-23.5179626 43.070953,-21.1825022 43.999999,0"
       prop_scale="1"
       scale_y_rel="false"
       vertical="false"
       hide_knot="false"
       bendpath-nodetypes="cc" />
    <inkscape:path-effect
       effect="bend_path"
       id="path-effect1346"
       is_visible="true"
       lpeversion="1"
       bendpath="M 25.793131,20.089719 H 44.61459"
       prop_scale="1"
       scale_y_rel="false"
       vertical="true"
       hide_knot="false" />
  </defs>
  <sodipodi:namedview
     id="namedview6"
     pagecolor="#ffffff"
     bordercolor="#666666"
     borderopacity="1.0"
     inkscape:showpageshadow="2"
     inkscape:pageopacity="0.0"
     inkscape:pagecheckerboard="0"
     inkscape:deskcolor="#d1d1d1"
     showgrid="false"
     inkscape:zoom="1.6191406"
     inkscape:cx="145.13872"
     inkscape:cy="97.891437"
     inkscape:current-layer="svg4"
     inkscape:window-width="1920"
     inkscape:window-height="730"
     inkscape:window-x="-6"
     inkscape:window-y="-6"
     inkscape:window-maximized="1" />
  <path
     fill="#fff01c"
     d="m 8.270025,0.0145515 c 1.51755,-0.12165 2.992275,0.5261175 3.98865,1.692705 l 1.604325,1.87842 c 0.62685,0.7339125 1.537275,1.155615 2.495025,1.155615 h 11.7417 c 2.575725,0 4.720725,2.00286 4.806975,4.612185 C 32.9637,11.078477 33,13.145402 33,15.612001 c 0,6.2961 -0.23655,9.987901 -0.450075,12.0378 -0.15075,1.447725 -1.102125,2.57685 -2.51025,2.8638 -2.20605,0.44955 -6.34635,0.9864 -13.539675,0.9864 -7.193325,0 -11.3336175,-0.53685 -13.5396825,-0.986399 C 1.55223,30.226651 0.600855,29.097526 0.4500675,27.649801 0.23655,25.599902 0,21.908101 0,15.612001 0,9.3159765 0.23655,5.6241015 0.4500675,3.5742165 0.600855,2.126484 1.5536775,0.996999 2.9617725,0.7101315 4.1318475,0.471759 5.8456725,0.208899 8.270025,0.0145515 Z"
     id="path2"
     sodipodi:nodetypes="cccsscscssccsccc"
     style="stroke-width:0.75;fill:#fff01c;fill-opacity:1" />
  <path
     fill="#e7c323"
     d="m 8.270025,0.0145515 c 1.51755,-0.12165 2.992275,0.5261175 3.98865,1.692705 l 1.604325,1.87842 c 0.62685,0.7339125 1.537275,1.155615 2.495025,1.155615 L 4.002866,4.7291977 C 1.7204556,4.7061676 0.8202312,5.5956128 0.17914515,7.1794402 0.21686115,6.2232825 0.30440618,5.241127 0.30825608,5.1944212 0.34733902,4.7202802 0.41795595,3.8825065 0.4500675,3.5742165 0.600855,2.126484 1.5536775,0.996999 2.9617725,0.7101315 4.1318475,0.471759 5.8456725,0.208899 8.270025,0.0145515 Z"
     id="path971"
     style="fill:#e7c323;fill-opacity:1;stroke-width:0.75"
     sodipodi:nodetypes="scccccsccs" />
  <path
     fill="#fff01c"
     d="m 23.270025,16.51455 c 1.51755,-0.12165 2.992275,0.526117 3.98865,1.692705 l 1.604325,1.87842 c 0.62685,0.733912 1.537275,1.155615 2.495025,1.155615 h 11.7417 c 2.575725,0 4.720725,2.00286 4.806975,4.612185 C 47.9637,27.578475 48,29.6454 48,32.112 c 0,6.2961 -0.23655,9.9879 -0.450075,12.0378 -0.15075,1.447725 -1.102125,2.57685 -2.51025,2.8638 C 42.833625,47.46315 38.693325,48 31.5,48 24.306675,48 20.166382,47.46315 17.960318,47.0136 16.55223,46.72665 15.600855,45.597525 15.450067,44.1498 15.23655,42.0999 15,38.4081 15,32.112 c 0,-6.296025 0.23655,-9.9879 0.450067,-12.037785 0.150788,-1.447732 1.10361,-2.577218 2.511705,-2.864085 1.170075,-0.238373 2.8839,-0.501233 5.308253,-0.69558 z"
     id="path1327"
     sodipodi:nodetypes="cccsscscssccsccc"
     style="stroke-width:0.75;fill:#fff01c;fill-opacity:1" />
  <path
     fill="#e7c323"
     d="m 23.270025,16.51455 c 1.51755,-0.12165 2.992275,0.526117 3.98865,1.692705 l 1.604325,1.87842 c 0.62685,0.733912 1.537275,1.155615 2.495025,1.155615 L 19.002866,21.2292 c -2.28241,-0.02303 -3.182635,0.866415 -3.823721,2.450243 0.03772,-0.956158 0.125261,-1.938313 0.129111,-1.985019 0.03908,-0.474141 0.1097,-1.311915 0.141811,-1.620205 0.150788,-1.447732 1.10361,-2.577218 2.511705,-2.864085 1.170075,-0.238373 2.8839,-0.501233 5.308253,-0.69558 z"
     id="path1329"
     style="fill:#e7c323;fill-opacity:1;stroke-width:0.75"
     sodipodi:nodetypes="scccccsccs" />
  <g
     id="g1975"
     transform="matrix(0.75,0,0,0.75,-19.283227,22.894307)"
     style="fill:#606668;fill-opacity:1">
    <path
       id="path2787"
       d="m 55.745247,-28.431218 c -1.762783,-0.03306 -3.501428,0.16675 -5.200738,0.548846 -3.028791,0.902908 -1.456687,6.298238 0.879052,5.855438 4.228897,-0.86408 7.958837,-0.328589 11.824357,1.63258 3.470542,1.723131 5.492422,5.626808 6.423264,9.34592 1.04628,3.479168 7.021973,2.689211 6.855058,-0.05654 -0.148046,-2.907564 -1.307115,-5.704402 -2.79961,-8.17588 -3.714867,-6.08338 -11.021745,-9.242719 -17.981383,-9.15036 z"
       style="fill:#606668;fill-opacity:1"
       sodipodi:nodetypes="cccccccc" />
    <path
       fill="#606668"
       fill-rule="evenodd"
       d="m 69.344449,-11.635685 h 7.8122 c 1.3789,0.0314 2.5058,0.0783 3.4219,0.1313 1.902901,0.1101 2.715601,1.9092 1.526501,3.3988 -0.7154,0.8961 -1.648701,2.0058 -2.854701,3.3465 -1.9133,2.1269 -3.3689,3.3819 -4.367,4.1125 -1.0008,0.7325 -2.2652,0.7326 -3.266,10e-5 -0.9981,-0.7305 -2.4538,-1.9855 -4.367,-4.1126 -1.2054,-1.3403 -2.1384,-2.4498 -2.8537,-3.3458 -1.1894,-1.4899 -0.3765,-3.2895 1.5267,-3.3996 0.916,-0.0529 2.0426,-0.0998 3.4211,-0.1312 z"
       clip-rule="evenodd"
       id="path141-5"
       sodipodi:nodetypes="ccscccccccc"
       style="fill:#606668;fill-opacity:1" />
  </g>
</svg>
