<?xml version="1.0" encoding="UTF-8" standalone="no"?>
<svg
   fill="none"
   viewBox="0 0 48 48"
   height="256"
   width="256"
   version="1.1"
   id="svg4"
   sodipodi:docname="root.svg"
   inkscape:version="1.2.1 (9c6d41e410, 2022-07-14)"
   xmlns:inkscape="http://www.inkscape.org/namespaces/inkscape"
   xmlns:sodipodi="http://sodipodi.sourceforge.net/DTD/sodipodi-0.dtd"
   xmlns="http://www.w3.org/2000/svg"
   xmlns:svg="http://www.w3.org/2000/svg">
  <defs
     id="defs8" />
  <sodipodi:namedview
     id="namedview6"
     pagecolor="#ffffff"
     bordercolor="#666666"
     borderopacity="1.0"
     inkscape:showpageshadow="2"
     inkscape:pageopacity="0.0"
     inkscape:pagecheckerboard="0"
     inkscape:deskcolor="#d1d1d1"
     showgrid="false"
     inkscape:zoom="1.4142136"
     inkscape:cx="162.63456"
     inkscape:cy="112.78353"
     inkscape:current-layer="svg4"
     inkscape:window-width="1920"
     inkscape:window-height="730"
     inkscape:window-x="-6"
     inkscape:window-y="-6"
     inkscape:window-maximized="1" />
  <path
     fill="#fff01c"
     d="m 13.0267,3.0194 c 2.0234,-0.1622 3.9897,0.70149 5.3182,2.25694 L 20.484,7.7809 c 0.8358,0.97855 2.0497,1.54082 3.3267,1.54082 h 15.6556 c 3.4343,0 6.2943,2.67048 6.4093,6.14958 0.076,2.3 0.1244,5.0559 0.1244,8.3447 0,8.3948 -0.3154,13.3172 -0.6001,16.0504 -0.201,1.9303 -1.4695,3.4358 -3.347,3.8184 C 39.1115,44.2842 33.5911,45 24,45 14.4089,45 8.88851,44.2842 5.94709,43.6848 4.06964,43.3022 2.80114,41.7967 2.60009,39.8664 2.3154,37.1332 2,32.2108 2,23.816 2,15.4213 2.3154,10.4988 2.60009,7.76562 2.80114,5.83531 4.07157,4.32933 5.94903,3.94684 7.50913,3.62901 9.79423,3.27853 13.0267,3.0194 Z"
     id="path2"
     sodipodi:nodetypes="cccsscscssccsccc"
     style="fill:#fff01c;fill-opacity:1" />
  <path
     fill="#e7c323"
     d="m 13.0267,3.0194 c 2.0234,-0.1622 3.9897,0.70149 5.3182,2.25694 L 20.484,7.7809 c 0.8358,0.97855 2.0497,1.54082 3.3267,1.54082 L 7.3371547,9.3055949 C 4.2939408,9.2748882 3.0936416,10.460815 2.2388602,12.572585 2.2891482,11.297708 2.4058749,9.9881674 2.4110081,9.925893 2.4631187,9.293705 2.5572746,8.1766733 2.60009,7.76562 2.80114,5.83531 4.07157,4.32933 5.94903,3.94684 7.50913,3.62901 9.79423,3.27853 13.0267,3.0194 Z"
     id="path971"
     style="fill:#e7c323;fill-opacity:1"
     sodipodi:nodetypes="scccccsccs" />
  <path
     style="color:#000000;fill:#77c32f;stroke-linecap:round;stroke-linejoin:round;-inkscape-stroke:none;fill-opacity:1"
     d="m 30.324219,11.517578 c -0.848446,0.01041 -1.720516,0.435529 -2.117188,1.304688 -0.396671,0.869158 -0.359595,2.043022 0.146485,3.61914 6.65e-4,6.68e-4 0.0013,0.0013 0.002,0.002 0.555015,1.700186 1.130208,2.5979 1.351562,3.253907 0.221355,0.656006 0.224804,1.121313 -0.376953,2.474609 -0.03458,0.07676 -0.05255,0.159955 -0.05273,0.244141 0.03351,0.14926 0.122984,0.279982 0.25,0.365234 -0.146031,0.41936 0.20021,0.845827 0.640625,0.789062 0.01112,-0.0015 0.02209,-0.0043 0.0332,-0.0059 0.07976,0.09287 0.186114,0.159007 0.304687,0.189453 1.475304,-0.226347 1.93429,-0.101589 2.517578,0.28125 0.583289,0.382839 1.308646,1.165514 2.820313,2.136719 6.65e-4,6.68e-4 0.0013,0.0013 0.002,0.002 1.619923,1.029821 2.899922,1.328033 3.898438,0.966797 0.998516,-0.361236 1.47088,-1.367886 1.521484,-2.365234 0.0506,-0.997349 -0.250804,-2.073578 -0.845703,-2.960938 -0.392129,-0.584905 -0.976994,-1.007537 -1.638672,-1.300781 0.436831,-0.50746 0.747837,-1.065249 0.785156,-1.65625 0.05712,-0.904493 -0.303836,-1.77384 -0.876953,-2.458985 -0.573117,-0.685144 -1.372031,-1.203651 -2.283203,-1.361328 -0.589445,-0.102002 -1.210924,0.04035 -1.816406,0.306641 -0.07184,-0.901589 -0.390414,-1.753729 -1.011719,-2.375 -0.890894,-0.890846 -2.098621,-1.46534 -3.253906,-1.451172 z"
     id="path7221-9-4-2"
     sodipodi:nodetypes="csccsccccccsccssscssscscc" />
  <path
     id="path9535"
     style="color:#000000;fill:#ff9d24;stroke-linecap:round;stroke-linejoin:round;fill-opacity:1"
     d="m 25.234131,20.350342 c -0.174896,2.65e-4 -0.350657,0.0063 -0.526978,0.01868 -0.953132,0.06691 -1.92276,0.313043 -2.856811,0.759887 1.973171,0.904436 4.138358,2.783461 4.594848,5.620972 a 0.59741998,0.59741998 0 0 1 -0.495849,0.683716 0.59741998,0.59741998 0 0 1 -0.683716,-0.494019 c -0.433096,-2.692068 -2.939473,-4.470304 -4.715698,-5.036499 -0.601527,0.434581 -1.175738,0.965863 -1.706543,1.600342 0.785835,0.266699 1.698273,0.714557 2.543335,1.352051 1.083268,0.817186 2.062142,1.966063 2.336059,3.461059 A 0.59741998,0.59741998 0 0 1 23.244141,29.0116 0.59741998,0.59741998 0 0 1 22.548706,28.531131 c -0.201541,-1.099967 -0.953712,-2.021618 -1.88269,-2.722412 -0.866657,-0.653782 -1.880503,-1.09627 -2.581787,-1.286865 -0.274303,0.398745 -0.677638,0.999131 -1.150635,1.728881 0.59043,0.148129 1.339326,0.386734 2.040893,0.880005 0.762575,0.536167 1.45186,1.394266 1.746094,2.654297 a 0.59741998,0.59741998 0 0 1 -0.445312,0.718872 0.59741998,0.59741998 0 0 1 -0.716675,-0.445312 C 19.32806,29.071353 18.850733,28.503703 18.287109,28.107422 17.723489,27.711138 17.059275,27.508878 16.504028,27.376831 A 0.59741998,0.59741998 0 0 1 16.283569,27.2677 c -0.301945,0.478902 -0.6188,0.991247 -0.939331,1.522705 0.355941,0.05572 0.755045,0.17336 1.161621,0.389283 0.662496,0.351832 1.328375,0.980402 1.740235,1.961059 a 0.59741998,0.59741998 0 0 1 -0.320435,0.781128 0.59741998,0.59741998 0 0 1 -0.781128,-0.318237 C 16.836243,30.869583 16.392312,30.47366 15.94519,30.236206 15.498071,29.998757 15.031688,29.935237 14.769653,29.943237 a 0.59741998,0.59741998 0 0 1 -0.101806,-0.01025 c -0.255141,0.439978 -0.507747,0.886243 -0.751831,1.33191 0.208585,0.06611 0.431291,0.158057 0.65625,0.287841 0.477844,0.275683 0.962509,0.737413 1.208862,1.42566 a 0.59741998,0.59741998 0 0 1 -0.361084,0.763916 0.59741998,0.59741998 0 0 1 -0.763916,-0.35962 c -0.140062,-0.391296 -0.389525,-0.628415 -0.681519,-0.796875 -0.21214,-0.122389 -0.446875,-0.196874 -0.635009,-0.237304 -0.331996,0.644593 -0.635973,1.275838 -0.894288,1.87207 -0.742759,1.714426 -1.089174,3.113575 -1.041137,4.263794 0.04804,1.150219 0.573647,2.090796 1.464844,2.5448 0.891191,0.453999 2.027727,0.46141 3.357421,0.168091 1.3297,-0.293324 2.873689,-0.903611 4.607666,-1.816407 1.757265,-0.9251 5.341704,-2.558113 9.058594,-5.066528 2.545621,-1.718023 3.463545,-3.948275 3.300659,-6.068115 -0.16288,-2.11984 -1.310273,-4.100529 -2.670044,-5.627197 -1.283784,-1.441295 -3.225423,-2.271807 -5.289184,-2.268677 z" />
</svg>
