<?xml version="1.0" encoding="UTF-8" standalone="no"?>
<svg
   fill="none"
   viewBox="0 0 48 48"
   height="256"
   width="256"
   version="1.1"
   id="svg4"
   sodipodi:docname="root_import.svg"
   inkscape:version="1.2.1 (9c6d41e410, 2022-07-14)"
   xmlns:inkscape="http://www.inkscape.org/namespaces/inkscape"
   xmlns:sodipodi="http://sodipodi.sourceforge.net/DTD/sodipodi-0.dtd"
   xmlns="http://www.w3.org/2000/svg"
   xmlns:svg="http://www.w3.org/2000/svg">
  <defs
     id="defs8" />
  <sodipodi:namedview
     id="namedview6"
     pagecolor="#ffffff"
     bordercolor="#666666"
     borderopacity="1.0"
     inkscape:showpageshadow="2"
     inkscape:pageopacity="0.0"
     inkscape:pagecheckerboard="0"
     inkscape:deskcolor="#d1d1d1"
     showgrid="false"
     inkscape:zoom="2"
     inkscape:cx="147.5"
     inkscape:cy="120.75"
     inkscape:current-layer="svg4"
     inkscape:window-width="1920"
     inkscape:window-height="730"
     inkscape:window-x="-6"
     inkscape:window-y="-6"
     inkscape:window-maximized="1" />
  <path
     fill="#fff01c"
     d="m 13.0267,3.0194 c 2.0234,-0.1622 3.9897,0.70149 5.3182,2.25694 L 20.484,7.7809 c 0.8358,0.97855 2.0497,1.54082 3.3267,1.54082 h 15.6556 c 3.4343,0 6.2943,2.67048 6.4093,6.14958 0.076,2.3 0.1244,5.0559 0.1244,8.3447 0,8.3948 -0.3154,13.3172 -0.6001,16.0504 -0.201,1.9303 -1.4695,3.4358 -3.347,3.8184 C 39.1115,44.2842 33.5911,45 24,45 14.4089,45 8.88851,44.2842 5.94709,43.6848 4.06964,43.3022 2.80114,41.7967 2.60009,39.8664 2.3154,37.1332 2,32.2108 2,23.816 2,15.4213 2.3154,10.4988 2.60009,7.76562 2.80114,5.83531 4.07157,4.32933 5.94903,3.94684 7.50913,3.62901 9.79423,3.27853 13.0267,3.0194 Z"
     id="path2"
     sodipodi:nodetypes="cccsscscssccsccc"
     style="fill:#fff01c;fill-opacity:1" />
  <path
     fill="#e7c323"
     d="m 13.0267,3.0194 c 2.0234,-0.1622 3.9897,0.70149 5.3182,2.25694 L 20.484,7.7809 c 0.8358,0.97855 2.0497,1.54082 3.3267,1.54082 L 7.3371547,9.3055949 C 4.2939408,9.2748882 3.0936416,10.460815 2.2388602,12.572585 2.2891482,11.297708 2.4058749,9.9881674 2.4110081,9.925893 2.4631187,9.293705 2.5572746,8.1766733 2.60009,7.76562 2.80114,5.83531 4.07157,4.32933 5.94903,3.94684 7.50913,3.62901 9.79423,3.27853 13.0267,3.0194 Z"
     id="path971"
     style="fill:#e7c323;fill-opacity:1"
     sodipodi:nodetypes="scccccsccs" />
  <path
     style="color:#000000;fill:#77c32f;fill-opacity:1;stroke-width:0.81;stroke-linecap:round;stroke-linejoin:round;-inkscape-stroke:none"
     d="m 34.597834,16.091084 c -0.687241,0.0084 -1.393618,0.352779 -1.714922,1.056798 -0.321304,0.704018 -0.291272,1.654848 0.118653,2.931503 5.38e-4,5.41e-4 0.0011,0.0011 0.0016,0.0016 0.449562,1.377151 0.915468,2.104299 1.094765,2.635665 0.179297,0.531365 0.182091,0.908263 -0.305332,2.004433 -0.02801,0.06218 -0.04257,0.129564 -0.04271,0.197754 0.02714,0.120901 0.09962,0.226786 0.2025,0.29584 -0.118285,0.339681 0.16217,0.68512 0.518906,0.63914 0.009,-0.0012 0.01789,-0.0035 0.02689,-0.0048 0.06461,0.07522 0.150752,0.128796 0.246796,0.153457 1.194997,-0.183341 1.566775,-0.08229 2.039239,0.227813 0.472464,0.310099 1.060003,0.944066 2.284453,1.730742 5.39e-4,5.41e-4 0.0011,0.0011 0.0016,0.0016 1.312138,0.834155 2.348937,1.075707 3.157735,0.783105 0.808798,-0.292601 1.191413,-1.107987 1.232402,-1.915839 0.04099,-0.807853 -0.203151,-1.679598 -0.685019,-2.39836 -0.317625,-0.473773 -0.791366,-0.816105 -1.327325,-1.053632 0.353833,-0.411043 0.605748,-0.862852 0.635977,-1.341563 0.04627,-0.732639 -0.246108,-1.43681 -0.710332,-1.991778 -0.464225,-0.554966 -1.111345,-0.974957 -1.849395,-1.102675 -0.47745,-0.08262 -0.980848,0.03268 -1.471289,0.248379 -0.05819,-0.730287 -0.316235,-1.420521 -0.819492,-1.92375 C 36.51191,16.54493 35.533651,16.07959 34.59787,16.091066 Z"
     id="path7221-9-4-2"
     sodipodi:nodetypes="csccsccccccsccssscssscscc" />
  <path
     id="path9535"
     style="color:#000000;fill:#ff9d24;fill-opacity:1;stroke-width:0.81;stroke-linecap:round;stroke-linejoin:round"
     d="m 30.474863,23.245623 c -0.141666,2.15e-4 -0.284032,0.0051 -0.426852,0.01513 -0.772037,0.0542 -1.557436,0.253565 -2.314017,0.615509 1.598268,0.732593 3.35207,2.254603 3.721827,4.552987 a 0.48391018,0.48391018 0 0 1 -0.401638,0.55381 0.48391018,0.48391018 0 0 1 -0.55381,-0.400156 C 30.149565,26.402329 28.1194,24.961958 26.680658,24.50334 c -0.487237,0.352011 -0.952348,0.782349 -1.3823,1.296277 0.636526,0.216027 1.375601,0.578791 2.060101,1.095162 0.877447,0.66192 1.670335,1.592511 1.892208,2.803457 a 0.48391018,0.48391018 0 0 1 -0.387696,0.563006 0.48391018,0.48391018 0 0 1 -0.563302,-0.38918 c -0.163249,-0.890973 -0.772507,-1.63751 -1.524979,-2.205153 -0.701992,-0.529564 -1.523208,-0.887979 -2.091248,-1.042361 -0.222185,0.322984 -0.548887,0.809296 -0.932014,1.400394 0.478248,0.119984 1.084854,0.313254 1.653123,0.712804 0.617686,0.434295 1.176007,1.129355 1.414336,2.14998 a 0.48391018,0.48391018 0 0 1 -0.360702,0.582287 0.48391018,0.48391018 0 0 1 -0.580507,-0.360703 c -0.186733,-0.799668 -0.573368,-1.259464 -1.029903,-1.580452 -0.456532,-0.32099 -0.994546,-0.484821 -1.444296,-0.591779 a 0.48391018,0.48391018 0 0 1 -0.178571,-0.0884 c -0.244576,0.387911 -0.501228,0.80291 -0.760858,1.233391 0.288312,0.04513 0.611586,0.140422 0.940913,0.31532 0.536621,0.284984 1.075983,0.794125 1.40959,1.588457 a 0.48391018,0.48391018 0 0 1 -0.259552,0.632714 0.48391018,0.48391018 0 0 1 -0.632714,-0.257772 c -0.249713,-0.594584 -0.609298,-0.915282 -0.971466,-1.10762 -0.362167,-0.192334 -0.739937,-0.243785 -0.952185,-0.237305 a 0.48391018,0.48391018 0 0 1 -0.08246,-0.0083 c -0.206664,0.356382 -0.411275,0.717857 -0.608983,1.078847 0.168954,0.05355 0.349345,0.128026 0.531562,0.233151 0.387054,0.223303 0.779632,0.597305 0.979178,1.154785 a 0.48391018,0.48391018 0 0 1 -0.292478,0.618772 0.48391018,0.48391018 0 0 1 -0.618772,-0.291293 c -0.11345,-0.316949 -0.315515,-0.509016 -0.55203,-0.645468 -0.171833,-0.09913 -0.361969,-0.159468 -0.514357,-0.192217 -0.268917,0.522121 -0.515138,1.033429 -0.724374,1.516377 -0.601634,1.388685 -0.88223,2.521996 -0.843321,3.453673 0.03891,0.931678 0.464655,1.693545 1.186524,2.061288 0.721865,0.367739 1.642459,0.373742 2.719511,0.136154 1.077057,-0.237592 2.327688,-0.731925 3.73221,-1.47129 1.423384,-0.749331 4.32678,-2.072071 7.337461,-4.103887 2.061953,-1.391599 2.805471,-3.198103 2.673534,-4.915173 -0.131933,-1.717071 -1.061322,-3.321429 -2.162736,-4.55803 -1.039865,-1.167449 -2.612593,-1.840164 -4.284239,-1.837628 z" />
  <path
     fill="#606668"
     fill-rule="evenodd"
     d="m 11.0411,27.906326 -8.1759,-0.315 c -1.4587,-0.0562 -2.717,-0.9466 -2.8238,-2.4024 C 0.0157,24.837826 0,24.442526 0,24.000326 c 0,-0.4423 0.0157,-0.8376 0.0414,-1.1887 0.1068,-1.4559 1.3652,-2.3463 2.8239,-2.4025 l 8.1758,-0.315 c 0.0314,-1.3789 0.0783,-2.5058 0.1313,-3.4219 0.1101,-1.9029 1.9092,-2.7156 3.3988,-1.5265 0.8961,0.7154 2.0058,1.6487 3.3465,2.8547 2.1269,1.9133 3.3819,3.3689 4.1125,4.367 0.7325,1.0008 0.7326,2.2652 10e-5,3.266 -0.7305,0.9981 -1.9855,2.4538 -4.1126,4.367 -1.3403,1.2054 -2.4498,2.1384 -3.3458,2.8537 -1.4899,1.1894 -3.2895,0.3765 -3.3996,-1.5267 -0.0529,-0.916 -0.0998,-2.0426 -0.1312,-3.4211 z"
     clip-rule="evenodd"
     id="path141"
     style="fill:#606668;fill-opacity:1" />
</svg>
