<?xml version="1.0" encoding="UTF-8" standalone="no"?>
<svg
   fill="none"
   viewBox="0 0 48 48"
   height="256"
   width="256"
   version="1.1"
   id="svg4"
   sodipodi:docname="tree.svg"
   inkscape:version="1.2.1 (9c6d41e410, 2022-07-14)"
   xmlns:inkscape="http://www.inkscape.org/namespaces/inkscape"
   xmlns:sodipodi="http://sodipodi.sourceforge.net/DTD/sodipodi-0.dtd"
   xmlns="http://www.w3.org/2000/svg"
   xmlns:svg="http://www.w3.org/2000/svg">
  <defs
     id="defs8" />
  <sodipodi:namedview
     id="namedview6"
     pagecolor="#ffffff"
     bordercolor="#666666"
     borderopacity="1.0"
     inkscape:showpageshadow="2"
     inkscape:pageopacity="0.0"
     inkscape:pagecheckerboard="0"
     inkscape:deskcolor="#d1d1d1"
     showgrid="false"
     inkscape:zoom="1.6191406"
     inkscape:cx="167.68155"
     inkscape:cy="120.74307"
     inkscape:current-layer="svg4"
     inkscape:window-width="1920"
     inkscape:window-height="730"
     inkscape:window-x="-6"
     inkscape:window-y="-6"
     inkscape:window-maximized="1" />
  <path
     fill="#fff01c"
     d="m 13.0267,3.0194 c 2.0234,-0.1622 3.9897,0.70149 5.3182,2.25694 L 20.484,7.7809 c 0.8358,0.97855 2.0497,1.54082 3.3267,1.54082 h 15.6556 c 3.4343,0 6.2943,2.67048 6.4093,6.14958 0.076,2.3 0.1244,5.0559 0.1244,8.3447 0,8.3948 -0.3154,13.3172 -0.6001,16.0504 -0.201,1.9303 -1.4695,3.4358 -3.347,3.8184 C 39.1115,44.2842 33.5911,45 24,45 14.4089,45 8.88851,44.2842 5.94709,43.6848 4.06964,43.3022 2.80114,41.7967 2.60009,39.8664 2.3154,37.1332 2,32.2108 2,23.816 2,15.4213 2.3154,10.4988 2.60009,7.76562 2.80114,5.83531 4.07157,4.32933 5.94903,3.94684 7.50913,3.62901 9.79423,3.27853 13.0267,3.0194 Z"
     id="path2"
     sodipodi:nodetypes="cccsscscssccsccc"
     style="fill:#fff01c;fill-opacity:1" />
  <path
     fill="#e7c323"
     d="m 13.0267,3.0194 c 2.0234,-0.1622 3.9897,0.70149 5.3182,2.25694 L 20.484,7.7809 c 0.8358,0.97855 2.0497,1.54082 3.3267,1.54082 L 7.3371547,9.3055949 C 4.2939408,9.2748882 3.0936416,10.460815 2.2388602,12.572585 2.2891482,11.297708 2.4058749,9.9881674 2.4110081,9.925893 2.4631187,9.293705 2.5572746,8.1766733 2.60009,7.76562 2.80114,5.83531 4.07157,4.32933 5.94903,3.94684 7.50913,3.62901 9.79423,3.27853 13.0267,3.0194 Z"
     id="path971"
     style="fill:#e7c323;fill-opacity:1"
     sodipodi:nodetypes="scccccsccs" />
  <g
     id="g7438"
     transform="matrix(0.7125,0,0,0.7125,-33.154674,7.2266483)"
     style="stroke-width:1.40351">
    <g
       id="path6379"
       style="fill:#77c32f;fill-opacity:1;stroke-width:1.40351"
       transform="matrix(1.0432542,0,0,1.010135,54.98865,3.4850337)">
      <path
         style="color:#000000;fill:#77c32f;fill-opacity:1;fill-rule:evenodd;stroke-width:1.40351;stroke-linecap:round;stroke-linejoin:round"
         d="m 24.208984,33.878906 c -4.657661,5.28e-4 -9.315052,0.935381 -13.11914,2.828125 -3.8040885,1.892744 -6.7667062,4.76256 -7.9218752,8.611328 -0.086212,0.285329 0.1277129,0.572852 0.4257812,0.572266 h 41.234375 c 0.298068,5.85e-4 0.511993,-0.286937 0.425781,-0.572266 -1.155783,-3.850795 -4.119386,-6.720787 -7.923828,-8.613281 -3.804442,-1.892494 -8.463432,-2.8267 -13.121094,-2.826172 z"
         id="path10725"
         sodipodi:nodetypes="ssccccss" />
    </g>
    <path
       style="color:#000000;fill:#bb852e;fill-opacity:1;fill-rule:evenodd;stroke-width:1.44079;stroke-linejoin:round"
       d="m 77.145576,14.099344 -1.801244,0.74379 c -0.171345,0.06992 -0.282879,0.232301 -0.283227,0.412341 v 12.800304 l -8.767817,-4.346343 c -0.307991,-0.152981 -0.674126,0.06337 -0.674449,0.39853 v 1.874274 c 3.45e-4,0.168216 0.0979,0.322095 0.252664,0.39853 l 9.189602,4.557444 V 45.05051 c 6.76e-4,0.389988 0.479686,0.593283 0.776328,0.329478 l 0.984163,-0.874003 1.791056,-0.651063 1.899049,1.242939 c 0.188934,0.12434 0.44329,0.0967 0.599055,-0.0651 l 0.806893,-0.836518 1.784942,0.909517 c 0.308725,0.159013 0.681106,-0.05797 0.680561,-0.396557 v -14.63315 l 5.295737,-1.288317 c 0.348367,-0.08533 0.467992,-0.505613 0.213949,-0.751683 -0.766456,-0.745426 -1.155247,-1.468753 -1.194037,-2.191913 -0.01449,-0.282981 -0.29305,-0.48217 -0.576642,-0.412341 l -3.739007,0.911489 v -1.38894 l 6.283977,-8.986649 c 0.214134,-0.304481 -0.02127,-0.715217 -0.401409,-0.700387 l -3.144026,0.114429 c -0.133447,0.0048 -0.258229,0.06527 -0.342318,0.165725 l -6.133193,7.370829 -2.879138,-8.546689 c -0.08482,-0.249479 -0.37194,-0.375266 -0.621469,-0.272262 z"
       id="path6401-5"
       sodipodi:nodetypes="cccccccccccccccccccccccccccccccc" />
    <g
       id="path6497"
       style="fill:#606668;fill-opacity:1;stroke-width:1.40351"
       transform="matrix(1.0432542,0,0,1.010135,54.98865,3.4850337)">
      <path
         style="color:#000000;fill:#606668;fill-opacity:1;fill-rule:evenodd;stroke-width:1.24586;stroke-linecap:round;stroke-linejoin:round"
         d="m 24.623959,29.686872 a 0.91592413,1.7712605 0 0 1 -0.915924,1.771261 0.91592413,1.7712605 0 0 1 -0.915925,-1.771261 0.91592413,1.7712605 0 0 1 0.915925,-1.77126 0.91592413,1.7712605 0 0 1 0.915924,1.77126 z"
         id="path10654" />
      <path
         style="color:#000000;fill:#606668;fill-opacity:1;fill-rule:evenodd;stroke-width:1.40351;stroke-linecap:round;stroke-linejoin:round"
         d="m 23.708984,27.472656 c -0.484859,-1e-6 -0.83491,0.35546 -1.042968,0.757813 -0.208059,0.402353 -0.31836,0.905893 -0.31836,1.457031 0,0.551138 0.110301,1.052725 0.31836,1.455078 0.208058,0.402353 0.558109,0.759767 1.042968,0.759766 0.484859,0 0.832958,-0.357413 1.041016,-0.759766 0.208058,-0.402353 0.318359,-0.90394 0.318359,-1.455078 0,-0.551137 -0.110301,-1.054678 -0.318359,-1.457031 -0.208058,-0.402353 -0.556157,-0.757813 -1.041016,-0.757813 z"
         id="path10656"
         sodipodi:nodetypes="sssssssss" />
    </g>
    <path
       style="color:#000000;fill:#77c32f;fill-opacity:1;fill-rule:evenodd;stroke-width:1.44079;stroke-linecap:round;stroke-linejoin:round"
       d="m 72.901243,5.8407001 c -4.590861,-4.11e-5 -8.360428,3.3414271 -8.360297,7.4990689 6.95e-4,0.354625 0.06582,0.705002 0.122256,1.055512 -3.59967,0.409648 -6.415035,3.095724 -6.416421,6.435665 0.0014,2.217693 1.320112,4.208499 3.349824,5.411719 -0.105695,0.375657 -0.203749,0.755507 -0.20376,1.144294 7.6e-5,2.606022 2.361954,4.687721 5.214234,4.687657 2.852278,6.4e-5 5.212119,-2.081635 5.212195,-4.687657 -1.54e-4,-0.821306 -0.341331,-1.590789 -0.790591,-2.296479 0.450439,-0.467643 0.755683,-1.014703 1.041217,-1.570445 0.459636,2.713622 2.965319,4.809966 6.078178,4.80998 3.192106,-1.4e-5 5.765459,-2.197242 6.123005,-5.01319 0.767208,1.087867 2.028283,1.792603 3.470043,2.032107 0.442378,3.28912 3.506398,5.786609 7.194787,5.79052 4.011328,1.13e-4 7.310907,-2.921501 7.310927,-6.561931 -1.5e-4,-3.335776 -2.810159,-5.992838 -6.385855,-6.415936 0.702202,-1.202563 1.140886,-2.517777 1.14106,-3.884679 8e-6,-4.6746872 -4.239454,-8.4361502 -9.409664,-8.4362059 -3.058946,0.00155 -5.870099,1.3737745 -7.628796,3.6025517 C 78.446077,7.2340952 75.809801,5.8409546 72.901243,5.8407001 Z"
       id="path6769"
       sodipodi:nodetypes="cccccccccccccccccccc" />
  </g>
</svg>
