<?xml version="1.0" encoding="UTF-8" standalone="no"?>
<svg
   fill="none"
   viewBox="0 0 48 48"
   height="256"
   width="256"
   version="1.1"
   id="svg6"
   sodipodi:docname="arduino_uno.svg"
   inkscape:version="1.2.1 (9c6d41e410, 2022-07-14)"
   xmlns:inkscape="http://www.inkscape.org/namespaces/inkscape"
   xmlns:sodipodi="http://sodipodi.sourceforge.net/DTD/sodipodi-0.dtd"
   xmlns="http://www.w3.org/2000/svg"
   xmlns:svg="http://www.w3.org/2000/svg">
  <defs
     id="defs10" />
  <sodipodi:namedview
     id="namedview8"
     pagecolor="#ffffff"
     bordercolor="#666666"
     borderopacity="1.0"
     inkscape:showpageshadow="2"
     inkscape:pageopacity="0.0"
     inkscape:pagecheckerboard="true"
     inkscape:deskcolor="#d1d1d1"
     showgrid="true"
     inkscape:zoom="0.8095703"
     inkscape:cx="-109.93486"
     inkscape:cy="40.144753"
     inkscape:current-layer="svg6"
     showguides="false"
     inkscape:window-width="1920"
     inkscape:window-height="730"
     inkscape:window-x="-6"
     inkscape:window-y="-6"
     inkscape:window-maximized="1">
    <inkscape:grid
       type="xygrid"
       id="grid239"
       units="px"
       spacingx="1.5"
       spacingy="1.5" />
  </sodipodi:namedview>
  <path
     id="rect897"
     style="fill:#4e9a06;fill-opacity:1;stroke:none;stroke-width:0.363088;stroke-linejoin:round;stroke-opacity:0.580986"
     d="m 34.545776,2.295961 c 5.120294,0.2698197 9.013548,4.1634678 9.283448,9.283814 0.167099,3.171297 0.295898,7.281215 0.295898,12.42041 0,5.139095 -0.128799,9.24948 -0.295898,12.420776 -0.2698,5.120295 -4.163154,9.013648 -9.283448,9.283448 H 13.45459 C 8.334265,45.434609 4.440586,41.541256 4.170776,36.420961 4.003667,33.249665 3.875244,29.13938 3.875244,24.000185 c 0,-5.139195 0.128423,-9.249113 0.295532,-12.42041 0.26981,-5.1203362 4.163479,-9.0140043 9.283814,-9.283814 z"
     sodipodi:nodetypes="ccssccssscc" />
  <path
     style="fill:#2e3436;fill-opacity:1;stroke-width:0.425197;stroke-linejoin:round;stroke-opacity:0.580986"
     d="m 30.75,1.5 h 9 C 41.25,1.5 42,3 42,4.5 V 12 c 0,1.5 -0.75,3 -2.25,3 h -9 C 29.25,15 28.5,13.5 28.5,12 V 4.5 c 0,-1.5 0.75,-3 2.25,-3 z"
     id="path450"
     sodipodi:nodetypes="ccccccccc" />
  <path
     style="fill:#2e3436;fill-opacity:1;stroke-width:0.425197;stroke-linejoin:round;stroke-opacity:0.580986"
     d="m 19.5,40.5 h 9 c 1.5,0 3,1.5 3,3 0.143298,1.520471 -1.5,3 -3,3 h -9 c -1.5,0 -3,-1.5 -3,-3 0,-1.5 1.5,-3 3,-3 z"
     id="path3515"
     sodipodi:nodetypes="ccccccc" />
  <path
     id="path1058-3"
     style="fill:#fce94f;stroke-width:0.318898;stroke-linejoin:round;stroke-opacity:0.580986;fill-opacity:1"
     d="M 20.625,43.5 A 1.125,1.125 0 0 1 19.5,44.625 1.125,1.125 0 0 1 18.375,43.5 1.125,1.125 0 0 1 19.5,42.375 1.125,1.125 0 0 1 20.625,43.5 Z" />
  <path
     id="path2-4"
     style="fill:#2e3436;fill-opacity:1;stroke-width:0.246037"
     d="m 14.314819,18.409424 c -0.629121,0.04574 -1.109655,0.526281 -1.155395,1.155395 -0.0053,0.07218 -0.01062,0.149533 -0.01575,0.229615 -0.350244,0.0031 -0.754762,0.01456 -0.98877,0.02197 -0.125271,0.004 -0.241398,0.06235 -0.273559,0.183472 -0.02402,0.09045 -0.04431,0.221852 -0.04431,0.408691 0,0.186842 0.0203,0.318616 0.04431,0.409058 0.03216,0.121146 0.148288,0.179513 0.273559,0.183472 0.221834,0.007 0.596632,0.01749 0.933472,0.02124 -0.0078,0.265309 -0.01374,0.552902 -0.01721,0.864258 -0.332328,0.0039 -0.698211,0.01435 -0.91626,0.02124 -0.125271,0.004 -0.241399,0.06235 -0.273559,0.183472 -0.02401,0.09044 -0.04431,0.221851 -0.04431,0.408691 0,0.18684 0.0203,0.318615 0.04431,0.409058 0.03216,0.121144 0.148288,0.17951 0.273559,0.183471 0.218058,0.0069 0.583915,0.01696 0.91626,0.02087 0.0035,0.311357 0.0094,0.598951 0.01721,0.864258 -0.06067,6.85e-4 -0.122927,0.0019 -0.184937,0.0029 -0.01409,2.39e-4 -0.02765,4.77e-4 -0.04175,7.32e-4 -0.04831,8.77e-4 -0.09484,0.0019 -0.142456,0.0029 -0.216892,0.0047 -0.42262,0.01016 -0.564331,0.01465 -0.125271,0.004 -0.241398,0.06235 -0.273559,0.183472 -0.02402,0.09045 -0.04431,0.222218 -0.04431,0.409058 0,0.186841 0.0203,0.318249 0.04431,0.408691 0.02412,0.09086 0.09536,0.146523 0.182373,0.170288 1.12e-4,3.1e-5 2.54e-4,-3.1e-5 3.66e-4,0 0.02891,0.0079 0.05962,0.0122 0.09082,0.01318 0.172151,0.0054 0.436342,0.01308 0.703491,0.01794 0.06566,0.0012 0.13015,0.0021 0.194825,0.0029 0.01161,1.44e-4 0.02362,2.38e-4 0.03516,3.66e-4 -0.0078,0.265309 -0.01374,0.552902 -0.01721,0.864258 -0.332328,0.0039 -0.698211,0.01435 -0.91626,0.02124 -0.125271,0.004 -0.241399,0.06235 -0.273559,0.183472 -0.02401,0.09044 -0.04431,0.221851 -0.04431,0.408691 0,0.18684 0.0203,0.318615 0.04431,0.409058 0.03216,0.121145 0.148288,0.17951 0.273559,0.183471 0.218058,0.0069 0.583915,0.01696 0.91626,0.02087 0.0035,0.311357 0.0094,0.599318 0.01721,0.864624 -0.0099,1.12e-4 -0.02012,2.44e-4 -0.03003,3.67e-4 -0.06761,8.18e-4 -0.13491,0.0017 -0.203614,0.0029 -0.04597,8.43e-4 -0.09018,0.002 -0.135498,0.0029 -0.216892,0.0047 -0.42262,0.01053 -0.564331,0.01502 -0.125271,0.004 -0.241398,0.06235 -0.273559,0.183471 -0.02402,0.09045 -0.04431,0.221852 -0.04431,0.408692 0,0.140131 0.01165,0.249341 0.02747,0.333252 0.0026,0.01398 0.0052,0.02693 0.0081,0.03955 v 3.66e-4 c 0.0028,0.01262 0.0058,0.02422 0.0088,0.03552 0.002,0.0076 0.0043,0.01489 0.007,0.02197 0.0026,0.0071 0.0055,0.01391 0.0088,0.02051 v 3.66e-4 c 0.03249,0.06599 0.09411,0.107637 0.166626,0.127441 h 3.66e-4 c 0.02891,0.0079 0.05962,0.0122 0.09082,0.01318 0.110917,0.0035 0.260184,0.0081 0.423706,0.01209 0.04675,0.0011 0.09205,0.0019 0.140625,0.0029 0.04761,0.001 0.09415,0.0021 0.142456,0.0029 0.01396,2.53e-4 0.02742,4.95e-4 0.04138,7.33e-4 0.06213,0.0011 0.124518,0.0023 0.185303,0.0029 -0.0078,0.265309 -0.01374,0.552902 -0.01721,0.864258 -0.332328,0.0039 -0.698211,0.01398 -0.91626,0.02087 -0.125271,0.004 -0.241399,0.06235 -0.273559,0.183472 -0.02401,0.09044 -0.04431,0.222218 -0.04431,0.409057 0,0.18684 0.0203,0.318249 0.04431,0.408692 0.03216,0.121145 0.148288,0.179511 0.273559,0.183472 0.218058,0.0069 0.583915,0.01733 0.91626,0.02124 0.0035,0.311356 0.0094,0.598951 0.01721,0.864258 -0.33684,0.0038 -0.711639,0.01422 -0.933472,0.02124 -0.125271,0.004 -0.241395,0.06233 -0.273559,0.183471 -0.02402,0.09045 -0.04431,0.221851 -0.04431,0.408692 0,0.18684 0.0203,0.318615 0.04431,0.409058 0.03217,0.121124 0.148286,0.179509 0.273559,0.183471 0.234006,0.0074 0.638892,0.01849 0.989136,0.02161 0.0051,0.08008 0.01013,0.157801 0.01538,0.22998 0.04574,0.629119 0.526275,1.109658 1.155395,1.155396 h 5.870728 c 0.629116,-0.04574 1.109657,-0.526276 1.155395,-1.155396 0.0053,-0.0727 0.01021,-0.150732 0.01538,-0.231445 0.11178,0.0017 0.221459,0.0026 0.322266,0.0026 0.304077,0 0.536397,-0.0091 0.682617,-0.01721 0.115562,-0.0064 0.221705,-0.06225 0.253418,-0.173584 0.02583,-0.09069 0.04834,-0.226649 0.04834,-0.424438 1e-6,-0.19779 -0.02251,-0.333382 -0.04834,-0.424072 -0.03171,-0.111304 -0.137854,-0.167212 -0.253418,-0.173584 -0.146222,-0.008 -0.37854,-0.01721 -0.682617,-0.01721 -0.084,0 -0.174571,5.82e-4 -0.266968,0.0018 0.0078,-0.265462 0.01373,-0.55342 0.01721,-0.86499 0.08635,9.97e-4 0.171003,0.0018 0.249756,0.0018 0.304077,0 0.536397,-0.0088 0.682617,-0.01685 0.115563,-0.0064 0.221708,-0.06265 0.253418,-0.17395 0.02585,-0.09069 0.04834,-0.226284 0.04834,-0.424073 0,-0.19779 -0.02251,-0.33375 -0.04834,-0.424438 -0.03171,-0.111331 -0.137859,-0.167231 -0.253418,-0.173584 -0.146223,-0.008 -0.37854,-0.01721 -0.682617,-0.01721 -0.07875,7e-6 -0.163414,7.82e-4 -0.249756,0.0018 -0.0034,-0.311572 -0.0094,-0.599162 -0.01721,-0.864624 0.0924,0.0011 0.182965,0.0018 0.266968,0.0018 0.304077,0 0.536397,-0.0091 0.682617,-0.01721 0.115563,-0.0064 0.221703,-0.06228 0.253418,-0.173584 0.02583,-0.09069 0.04834,-0.226647 0.04834,-0.424438 0,-0.197789 -0.02251,-0.333749 -0.04834,-0.424439 -0.03171,-0.111331 -0.137853,-0.167238 -0.253418,-0.173584 -0.146223,-0.008 -0.37854,-0.01721 -0.682617,-0.01721 -0.084,0 -0.174571,9.49e-4 -0.266968,0.0022 0.0078,-0.265462 0.01373,-0.55342 0.01721,-0.864991 0.08635,9.97e-4 0.171003,0.0018 0.249756,0.0018 0.304077,0 0.536397,-0.0092 0.682617,-0.01721 0.115563,-0.0064 0.221708,-0.06228 0.253418,-0.173584 0.02585,-0.09069 0.04834,-0.226284 0.04834,-0.424073 0,-0.19779 -0.02251,-0.33375 -0.04834,-0.424438 -0.03171,-0.111331 -0.137859,-0.167231 -0.253418,-0.173584 -0.146223,-0.008 -0.37854,-0.01721 -0.682617,-0.01721 -0.07875,7e-6 -0.163414,7.82e-4 -0.249756,0.0018 -0.0034,-0.311572 -0.0094,-0.599528 -0.01721,-0.86499 0.0924,0.0011 0.182965,0.0018 0.266968,0.0018 0.228057,0 0.415753,-0.005 0.557007,-0.01099 0.04708,-0.002 0.08905,-0.0038 0.12561,-0.0059 0.02167,-0.0012 0.04315,-0.0044 0.06372,-0.0092 0.02057,-0.0047 0.04035,-0.01109 0.05896,-0.01941 0.01241,-0.0055 0.0243,-0.01187 0.03552,-0.01904 0.01122,-0.0072 0.02171,-0.01535 0.03149,-0.02417 0.005,-0.0045 0.0097,-0.009 0.01428,-0.01392 0.0045,-0.0048 0.0088,-0.0098 0.01282,-0.01502 0.0041,-0.0053 0.0077,-0.01071 0.01135,-0.01648 0.0036,-0.0057 0.0068,-0.01148 0.0099,-0.01758 0.0062,-0.01219 0.01142,-0.02491 0.01538,-0.03882 3.1e-5,-1.07e-4 -3e-5,-2.59e-4 0,-3.66e-4 0.0032,-0.01134 0.0064,-0.02311 0.0095,-0.03589 0.02161,-0.08947 0.03882,-0.215116 0.03882,-0.388183 0,-0.148555 -0.01276,-0.262114 -0.03003,-0.347901 -0.0029,-0.01429 -0.0057,-0.0275 -0.0088,-0.04028 -0.0031,-0.01278 -0.0063,-0.02492 -0.0095,-0.03626 -0.01189,-0.04175 -0.03436,-0.0757 -0.06372,-0.102173 -0.0098,-0.0088 -0.02027,-0.017 -0.03149,-0.02417 -0.0449,-0.02869 -0.100421,-0.04407 -0.158203,-0.04724 -0.146223,-0.008 -0.37854,-0.01721 -0.682617,-0.01721 -0.084,0 -0.174571,5.82e-4 -0.266968,0.0018 0.0078,-0.265461 0.01373,-0.553053 0.01721,-0.864624 0.08635,9.97e-4 0.171003,0.0018 0.249756,0.0018 0.304077,0 0.536397,-0.0092 0.682617,-0.01721 0.115563,-0.0064 0.221708,-0.06228 0.253418,-0.173584 0.02585,-0.09069 0.04834,-0.226649 0.04834,-0.424438 0,-0.197791 -0.02251,-0.333384 -0.04834,-0.424072 -0.03171,-0.111331 -0.137859,-0.167597 -0.253418,-0.17395 -0.146223,-0.008 -0.37854,-0.01685 -0.682617,-0.01685 -0.07875,7e-6 -0.163414,7.82e-4 -0.249756,0.0018 -0.0034,-0.311572 -0.0094,-0.599529 -0.01721,-0.86499 0.0924,0.0011 0.182965,0.0018 0.266968,0.0018 0.304077,0 0.536397,-0.0091 0.682617,-0.01721 0.115563,-0.0064 0.221703,-0.06228 0.253418,-0.173584 0.02583,-0.09069 0.04834,-0.226648 0.04834,-0.424439 0,-0.197788 -0.02251,-0.333382 -0.04834,-0.424072 -0.03171,-0.111331 -0.137853,-0.167238 -0.253418,-0.173584 -0.146223,-0.008 -0.37854,-0.01721 -0.682617,-0.01721 -0.100805,0 -0.210486,9.39e-4 -0.322266,0.0026 -0.0052,-0.08071 -0.01009,-0.158747 -0.01538,-0.231446 -0.04574,-0.629115 -0.526279,-1.109656 -1.155395,-1.155395 z" />
  <path
     id="path3539"
     style="fill:#fce94f;stroke-width:0.318898;stroke-linejoin:round;stroke-opacity:0.580986;fill-opacity:1"
     d="M 23.625,43.5 A 1.125,1.125 0 0 1 22.5,44.625 1.125,1.125 0 0 1 21.375,43.5 1.125,1.125 0 0 1 22.5,42.375 1.125,1.125 0 0 1 23.625,43.5 Z" />
  <path
     id="path3541"
     style="fill:#fce94f;stroke-width:0.318898;stroke-linejoin:round;stroke-opacity:0.580986;fill-opacity:1"
     d="M 26.625,43.5 A 1.125,1.125 0 0 1 25.5,44.625 1.125,1.125 0 0 1 24.375,43.5 1.125,1.125 0 0 1 25.5,42.375 1.125,1.125 0 0 1 26.625,43.5 Z" />
  <path
     id="path3543"
     style="fill:#fce94f;stroke-width:0.318898;stroke-linejoin:round;stroke-opacity:0.580986;fill-opacity:1"
     d="M 29.625,43.5 A 1.125,1.125 0 0 1 28.5,44.625 1.125,1.125 0 0 1 27.375,43.5 1.125,1.125 0 0 1 28.5,42.375 1.125,1.125 0 0 1 29.625,43.5 Z" />
  <path
     style="fill:#2e3436;fill-opacity:1;stroke-width:0.425197;stroke-linejoin:round;stroke-opacity:0.580986"
     d="m 8.25,1.5 h 5.25 c 1.5,0 2.25,1.5 2.25,3 v 5.625 c 0,1.5 -0.75,3 -2.25,3 H 8.25 c -1.5,0 -2.25,-1.5 -2.25,-3 V 4.5 C 6,3 6.75,1.5 8.25,1.5 Z"
     id="path393"
     sodipodi:nodetypes="ccccccccc" />
  <path
     id="path40-4"
     style="fill:#8ae234;fill-opacity:1;stroke:none;stroke-width:0.0180463"
     d="m 29.026688,27.076028 c -1.223415,0 -2.372203,0.453559 -3.234903,1.279807 -0.873042,0.834476 -1.354112,1.950693 -1.354112,3.144064 0,1.191874 0.481115,2.309661 1.352875,3.142623 0.863529,0.826121 2.011393,1.281044 3.234284,1.281044 a 4.9791441,4.9774494 0 0 0 0.70643,-0.0501 c 1.966088,-0.280262 3.281239,-1.694001 4.020284,-2.779582 0.736717,1.0856 2.052076,2.49791 4.019047,2.778552 0.23464,0.03491 0.473021,0.05154 0.706018,0.05154 1.222964,0 2.370068,-0.455354 3.234284,-1.281457 0.872573,-0.832961 1.351433,-1.95075 1.351433,-3.142622 0,-1.193372 -0.480078,-2.309589 -1.352669,-3.144066 -0.862684,-0.825074 -2.011394,-1.279806 -3.234285,-1.279806 -0.23316,0 -0.470553,0.01648 -0.705195,0.0501 -1.966808,0.280714 -3.281979,1.692771 -4.01884,2.778551 -0.739097,-1.08578 -2.054141,-2.498252 -4.020284,-2.778551 -0.233845,-0.03347 -0.471208,-0.0501 -0.704368,-0.0501 z m 9.448686,1.567394 c 1.665369,0 3.01949,1.280954 3.01949,2.856477 0,1.575525 -1.354383,2.856685 -3.018253,2.856685 -0.159032,0 -0.322267,-0.01233 -0.484421,-0.03463 -1.852304,-0.265215 -2.985574,-2.09028 -3.369716,-2.821639 0.38416,-0.732875 1.517275,-2.557673 3.369922,-2.822258 0.160639,-0.02331 0.323929,-0.03464 0.482978,-0.03464 z m -9.448686,4.11e-4 c 0.159177,0 0.322962,0.01126 0.483185,0.03546 1.852359,0.2637 2.986198,2.090261 3.36951,2.82164 -0.384359,0.732406 -1.517133,2.556253 -3.36951,2.821432 -0.162119,0.02227 -0.325475,0.03463 -0.485247,0.03463 -1.664574,0 -3.018665,-1.281432 -3.018665,-2.856685 0,-1.575578 1.354637,-2.856479 3.020727,-2.85648 z m 8.863464,1.490293 v 0.933673 h -0.93215 v 0.887496 h 0.93215 v 0.933469 h 0.890717 v -0.933469 h 0.932562 v -0.887496 h -0.932562 v -0.933673 z m -10.127288,0.933673 v 0.887496 h 2.754811 v -0.887496 z" />
</svg>
