<?xml version="1.0" encoding="UTF-8" standalone="no"?>
<svg
   fill="none"
   viewBox="0 0 48 48"
   height="256"
   width="256"
   version="1.1"
   id="svg6"
   sodipodi:docname="atmosic.svg"
   inkscape:version="1.2.1 (9c6d41e410, 2022-07-14)"
   xmlns:inkscape="http://www.inkscape.org/namespaces/inkscape"
   xmlns:sodipodi="http://sodipodi.sourceforge.net/DTD/sodipodi-0.dtd"
   xmlns="http://www.w3.org/2000/svg"
   xmlns:svg="http://www.w3.org/2000/svg">
  <defs
     id="defs10" />
  <sodipodi:namedview
     id="namedview8"
     pagecolor="#ffffff"
     bordercolor="#666666"
     borderopacity="1.0"
     inkscape:showpageshadow="2"
     inkscape:pageopacity="0.0"
     inkscape:pagecheckerboard="true"
     inkscape:deskcolor="#d1d1d1"
     showgrid="true"
     inkscape:zoom="1.1449053"
     inkscape:cx="-34.937387"
     inkscape:cy="137.56596"
     inkscape:current-layer="svg6"
     showguides="false"
     inkscape:window-width="1920"
     inkscape:window-height="730"
     inkscape:window-x="-6"
     inkscape:window-y="-6"
     inkscape:window-maximized="1">
    <inkscape:grid
       type="xygrid"
       id="grid239"
       units="px"
       spacingx="1.5"
       spacingy="1.5" />
  </sodipodi:namedview>
  <path
     id="rect897"
     style="fill:#a40000;fill-opacity:1;stroke:none;stroke-width:0.363088;stroke-linejoin:round;stroke-opacity:0.580986"
     d="m 2.295959,15.329592 c 0.2698197,-5.120294 4.1634678,-9.013548 9.283814,-9.283448 3.171297,-0.167099 7.281215,-0.295898 12.42041,-0.295898 5.139095,0 9.24948,0.128799 12.420776,0.295898 5.120295,0.2698 9.013648,4.163154 9.283448,9.283448 v 17.341186 c -0.2698,5.120325 -4.163153,9.014004 -9.283448,9.283814 -3.171296,0.167109 -7.281581,0.295532 -12.420776,0.295532 -5.139195,0 -9.249113,-0.128423 -12.42041,-0.295532 -5.1203362,-0.26981 -9.0140043,-4.163479 -9.283814,-9.283814 z"
     sodipodi:nodetypes="ccssccssscc" />
  <path
     id="path2-4"
     style="fill:#2e3436;fill-opacity:1;stroke-width:0.246037"
     d="m 23.462201,24.591306 c 0,0.18684 0.02021,0.318385 0.04422,0.408828 0.03217,0.121125 0.148286,0.179512 0.273559,0.183474 0.234006,0.0074 0.638663,0.01871 0.988906,0.02183 0.0051,0.08008 0.01027,0.157709 0.01552,0.229888 0.04574,0.62912 0.526229,1.109611 1.155349,1.155349 0.07218,0.0053 0.149676,0.01039 0.229751,0.01552 0.0031,0.350242 0.01457,0.7549 0.02197,0.988907 0.004,0.125271 0.06221,0.241397 0.183334,0.27356 0.09044,0.02401 0.222125,0.04408 0.408966,0.04408 0.186841,0 0.318385,-0.02007 0.40883,-0.04408 0.12115,-0.03217 0.179512,-0.148287 0.183473,-0.273559 0.007,-0.221817 0.01753,-0.596604 0.02128,-0.933426 0.265269,0.0078 0.55291,0.0137 0.864213,0.01717 0.0039,0.332327 0.01425,0.698209 0.02115,0.916259 0.004,0.125271 0.06235,0.241397 0.183473,0.273559 0.09044,0.02401 0.221987,0.04408 0.408828,0.04408 0.186841,0 0.318522,-0.02007 0.408966,-0.04408 0.12115,-0.03217 0.179374,-0.148289 0.183334,-0.273561 0.0069,-0.218047 0.01723,-0.583929 0.02115,-0.91626 0.311287,-0.0035 0.598951,-0.0094 0.864213,-0.01717 0.0038,0.336823 0.01441,0.711609 0.02143,0.933426 0.004,0.125271 0.06233,0.241395 0.183473,0.273559 0.09044,0.02401 0.221988,0.04408 0.408828,0.04408 0.186841,-2e-6 0.318388,-0.02007 0.408829,-0.04408 0.121126,-0.03216 0.179512,-0.148288 0.183474,-0.273559 0.0074,-0.234007 0.01871,-0.638666 0.02183,-0.988908 0.08008,-0.0051 0.157713,-0.01028 0.229891,-0.01552 0.629117,-0.04574 1.109611,-0.526228 1.155349,-1.155349 0.0053,-0.0727 0.01049,-0.150824 0.01566,-0.231537 0.11178,0.0017 0.221505,0.0026 0.322312,0.0026 0.304077,0 0.536305,-0.0091 0.682525,-0.01717 0.115561,-0.0064 0.22152,-0.06225 0.253233,-0.173585 0.02583,-0.09069 0.04834,-0.226558 0.04834,-0.424347 2e-6,-0.19779 -0.02251,-0.333657 -0.04834,-0.424347 -0.03171,-0.111304 -0.13767,-0.167213 -0.253234,-0.173585 -0.146222,-0.008 -0.378448,-0.01717 -0.682525,-0.01717 -0.084,0 -0.174572,7.51e-4 -0.266969,0.002 0.0078,-0.265462 0.01369,-0.553326 0.01717,-0.864897 0.08634,9.97e-4 0.171049,0.0018 0.249802,0.0018 0.304077,0 0.536305,-0.009 0.682525,-0.01703 0.115563,-0.0064 0.221522,-0.06242 0.253232,-0.173724 0.02585,-0.09069 0.04834,-0.22642 0.04834,-0.424209 0,-0.197791 -0.02251,-0.333659 -0.04834,-0.424347 -0.03171,-0.111331 -0.137673,-0.167373 -0.253234,-0.173726 -0.146222,-0.008 -0.378447,-0.01703 -0.682524,-0.01703 -0.07875,7e-6 -0.16346,7.51e-4 -0.249803,0.0018 -0.0034,-0.311572 -0.0094,-0.599437 -0.01717,-0.864899 0.0924,0.0011 0.182966,0.0019 0.26697,0.0019 0.304077,0 0.536305,-0.0091 0.682525,-0.01717 0.115563,-0.0064 0.221519,-0.06228 0.253234,-0.173586 0.02583,-0.09069 0.04834,-0.226557 0.04834,-0.424348 0,-0.197789 -0.02251,-0.333656 -0.04834,-0.424346 -0.03171,-0.111331 -0.137668,-0.167238 -0.253233,-0.173584 -0.146223,-0.008 -0.378449,-0.01717 -0.682526,-0.01717 -0.100805,0 -0.210532,9.75e-4 -0.322312,0.0026 -0.0052,-0.08071 -0.01037,-0.158838 -0.01566,-0.231537 -0.04574,-0.629116 -0.526232,-1.10961 -1.155349,-1.155349 -0.0727,-0.0053 -0.150826,-0.01048 -0.231537,-0.01566 0.0017,-0.111779 0.0026,-0.221506 0.0026,-0.322312 -1e-6,-0.304076 -0.0091,-0.536305 -0.01717,-0.682526 -0.0064,-0.115562 -0.06225,-0.221521 -0.173584,-0.253234 -0.09069,-0.02583 -0.226557,-0.04834 -0.424346,-0.04834 -0.197791,-10e-7 -0.33366,0.02251 -0.424348,0.04834 -0.111305,0.03171 -0.167353,0.137669 -0.173724,0.253231 -0.008,0.146223 -0.01703,0.37845 -0.01703,0.682527 0,0.084 7.51e-4,0.174571 0.0019,0.266968 -0.26545,-0.0078 -0.553342,-0.0137 -0.864898,-0.01717 9.97e-4,-0.08634 0.0018,-0.171049 0.0018,-0.249801 0,-0.304077 -0.009,-0.536305 -0.01703,-0.682524 -0.0064,-0.115564 -0.06242,-0.221523 -0.173725,-0.253233 -0.09069,-0.02584 -0.226558,-0.04834 -0.424348,-0.04834 -0.197787,0 -0.333656,0.02251 -0.424346,0.04834 -0.111331,0.03171 -0.167232,0.137675 -0.173586,0.253234 -0.008,0.146223 -0.01717,0.378447 -0.01717,0.682525 8e-6,0.07875 7.51e-4,0.163461 0.0018,0.249802 -0.311486,0.0035 -0.599362,0.0094 -0.864762,0.01717 0.0012,-0.09241 0.0019,-0.182965 0.0019,-0.266968 0,-0.304077 -0.0091,-0.536306 -0.01717,-0.682526 -0.0064,-0.115563 -0.06227,-0.221521 -0.173584,-0.253233 -0.09069,-0.02583 -0.226558,-0.04834 -0.424347,-0.04834 -0.19779,0 -0.333658,0.02251 -0.424347,0.04834 -0.111331,0.03171 -0.167372,0.137674 -0.173717,0.253239 -0.008,0.146222 -0.01703,0.378448 -0.01703,0.682525 0,0.100805 9.75e-4,0.210534 0.0026,0.322312 -0.08076,0.0052 -0.158804,0.01037 -0.231537,0.01566 -0.629123,0.04574 -1.109611,0.526233 -1.155351,1.155348 -0.0053,0.07218 -0.01039,0.149807 -0.01552,0.229889 -0.350244,0.0031 -0.754901,0.01443 -0.988909,0.02184 -0.125271,0.004 -0.241397,0.06235 -0.273558,0.183472 -0.02402,0.09045 -0.04422,0.221989 -0.04422,0.408829 0,0.186842 0.02021,0.318387 0.04422,0.408829 0.03216,0.121146 0.148287,0.179514 0.273558,0.183473 0.221834,0.007 0.596586,0.01753 0.933427,0.02128 -0.0078,0.265309 -0.0137,0.552993 -0.01717,0.864349 -0.332329,0.0039 -0.698211,0.01412 -0.91626,0.02101 -0.125271,0.004 -0.241397,0.06235 -0.273558,0.183473 -0.02401,0.09044 -0.04422,0.221989 -0.04422,0.408829 0,0.18684 0.02021,0.318523 0.04422,0.408966 0.03216,0.121145 0.148287,0.179512 0.273558,0.183473 0.218058,0.0069 0.583914,0.0171 0.91626,0.02101 0.0035,0.311357 0.0094,0.599042 0.01717,0.864349 -0.336841,0.0038 -0.711593,0.01426 -0.933425,0.02128 -0.125272,0.004 -0.241396,0.06233 -0.273559,0.183473 -0.02402,0.09045 -0.04422,0.221988 -0.04422,0.408829 z" />
  <path
     style="fill:#2e3436;fill-opacity:1;stroke-width:0.425197;stroke-linejoin:round;stroke-opacity:0.580986"
     d="m 37.5,12.75 h -27 c -1.5,0 -3,-1.5 -3,-3 0,-1.5 1.5,-3 3,-3 h 27 c 1.5,0 3,1.5 3,3 0,1.5 -1.5,3 -3,3 z"
     id="path1936"
     sodipodi:nodetypes="ccccccc" />
  <path
     id="path1938"
     style="fill:#fce94f;stroke-width:0.318898;stroke-linejoin:round;stroke-opacity:0.580986;fill-opacity:1"
     d="m 18.375,9.75 c 0,-0.62132 0.50368,-1.125 1.125,-1.125 0.62132,0 1.125,0.50368 1.125,1.125 0,0.62132 -0.50368,1.125 -1.125,1.125 -0.62132,0 -1.125,-0.50368 -1.125,-1.125 z"
     sodipodi:nodetypes="sssss" />
  <path
     id="path1940"
     style="fill:#fce94f;stroke-width:0.318898;stroke-linejoin:round;stroke-opacity:0.580986;fill-opacity:1"
     d="m 15.375,9.75 c 0,-0.62132 0.50368,-1.125 1.125,-1.125 0.62132,0 1.125,0.50368 1.125,1.125 0,0.62132 -0.50368,1.125 -1.125,1.125 -0.62132,0 -1.125,-0.50368 -1.125,-1.125 z"
     sodipodi:nodetypes="sssss" />
  <path
     id="path1942"
     style="fill:#fce94f;stroke-width:0.318898;stroke-linejoin:round;stroke-opacity:0.580986;fill-opacity:1"
     d="m 12.375,9.75 c 0,-0.62132 0.50368,-1.125 1.125,-1.125 0.62132,0 1.125,0.50368 1.125,1.125 0,0.62132 -0.50368,1.125 -1.125,1.125 -0.62132,0 -1.125,-0.50368 -1.125,-1.125 z"
     sodipodi:nodetypes="sssss" />
  <path
     id="path1944"
     style="fill:#fce94f;stroke-width:0.318898;stroke-linejoin:round;stroke-opacity:0.580986;fill-opacity:1"
     d="m 9.375,9.75 c 0,-0.62132 0.50368,-1.125 1.125,-1.125 0.62132,0 1.125,0.50368 1.125,1.125 0,0.62132 -0.50368,1.125 -1.125,1.125 -0.62132,0 -1.125,-0.50368 -1.125,-1.125 z"
     sodipodi:nodetypes="sssss" />
  <path
     id="path1946"
     style="fill:#fce94f;stroke-width:0.318898;stroke-linejoin:round;stroke-opacity:0.580986;fill-opacity:1"
     d="m 27.375,9.75 c 0,-0.62132 0.50368,-1.125 1.125,-1.125 0.62132,0 1.125,0.50368 1.125,1.125 0,0.62132 -0.50368,1.125 -1.125,1.125 -0.62132,0 -1.125,-0.50368 -1.125,-1.125 z"
     sodipodi:nodetypes="sssss" />
  <path
     id="path1948"
     style="fill:#fce94f;stroke-width:0.318898;stroke-linejoin:round;stroke-opacity:0.580986;fill-opacity:1"
     d="m 24.375,9.75 c 0,-0.62132 0.50368,-1.125 1.125,-1.125 0.62132,0 1.125,0.50368 1.125,1.125 0,0.62132 -0.50368,1.125 -1.125,1.125 -0.62132,0 -1.125,-0.50368 -1.125,-1.125 z"
     sodipodi:nodetypes="sssss" />
  <path
     id="path1950"
     style="fill:#fce94f;stroke-width:0.318898;stroke-linejoin:round;stroke-opacity:0.580986;fill-opacity:1"
     d="m 21.375,9.75 c 0,-0.62132 0.50368,-1.125 1.125,-1.125 0.62132,0 1.125,0.50368 1.125,1.125 0,0.62132 -0.50368,1.125 -1.125,1.125 -0.62132,0 -1.125,-0.50368 -1.125,-1.125 z"
     sodipodi:nodetypes="sssss" />
  <path
     id="path9788"
     style="fill:#fce94f;stroke-width:0.318898;stroke-linejoin:round;stroke-opacity:0.580986;fill-opacity:1"
     d="m 30.375,9.75 c 0,-0.62132 0.50368,-1.125 1.125,-1.125 0.62132,0 1.125,0.50368 1.125,1.125 0,0.62132 -0.50368,1.125 -1.125,1.125 -0.62132,0 -1.125,-0.50368 -1.125,-1.125 z"
     sodipodi:nodetypes="sssss" />
  <path
     id="path9792"
     style="fill:#fce94f;stroke-width:0.318898;stroke-linejoin:round;stroke-opacity:0.580986;fill-opacity:1"
     d="m 33.375,9.75 c 0,-0.62132 0.50368,-1.125 1.125,-1.125 0.62132,0 1.125,0.50368 1.125,1.125 0,0.62132 -0.50368,1.125 -1.125,1.125 -0.62132,0 -1.125,-0.50368 -1.125,-1.125 z"
     sodipodi:nodetypes="sssss" />
  <path
     id="path9794"
     style="fill:#fce94f;stroke-width:0.318898;stroke-linejoin:round;stroke-opacity:0.580986;fill-opacity:1"
     d="m 36.375,9.75 c 0,-0.62132 0.50368,-1.125 1.125,-1.125 0.62132,0 1.125,0.50368 1.125,1.125 0,0.62132 -0.50368,1.125 -1.125,1.125 -0.62132,0 -1.125,-0.50368 -1.125,-1.125 z"
     sodipodi:nodetypes="sssss" />
  <path
     style="fill:#edd400;stroke:#0000ff;stroke-width:0;fill-opacity:1"
     d="m 30.9375,40.5 h 4.125 c 0.375,0 0.75,0.375 0.75,0.75 v 0.375 c 0,0.375 -0.375,0.75 -0.75,0.75 -0.375,0 -0.375,0 -0.375,0.375 v 2.625 c 0,0.375 -0.375,0.75 -0.75,0.75 h -1.875 c -0.375,0 -0.75,-0.375 -0.75,-0.75 V 42.75 c 0,-0.375 0,-0.375 -0.375,-0.375 -0.375,0 -0.75,-0.375 -0.75,-0.75 V 41.25 c 0,-0.375 0.375,-0.75 0.75,-0.75 z"
     id="path9874"
     sodipodi:nodetypes="ccccccccccccccc" />
  <path
     style="fill:#edd400;stroke:#0000ff;stroke-width:0;fill-opacity:1"
     d="m 23.4375,40.5 h 4.125 c 0.375,0 0.75,0.375 0.75,0.75 v 0.375 c 0,0.375 -0.375,0.75 -0.75,0.75 -0.375,0 -0.375,0 -0.375,0.375 v 2.625 c 0,0.375 -0.375,0.75 -0.75,0.75 h -1.875 c -0.375,0 -0.75,-0.375 -0.75,-0.75 V 42.75 c 0,-0.375 0,-0.375 -0.375,-0.375 -0.375,0 -0.75,-0.375 -0.75,-0.75 V 41.25 c 0,-0.375 0.375,-0.75 0.75,-0.75 z"
     id="path9925"
     sodipodi:nodetypes="ccccccccccccccc" />
  <path
     id="path9927"
     style="fill:#2e3436;stroke:#0000ff;stroke-width:0;fill-opacity:1"
     d="m 0.09980879,15.215416 v 6.58845 c 0,0.549037 0.54903751,1.098075 1.09807521,1.098075 h 0.5490373 c 0.5490377,0 0.5490377,0 0.5490377,0.549037 v 1.098075 c 0,0.549038 0,0.549038 -0.5490377,0.549038 H 1.197884 c -0.5490376,0 -1.09807521,0.549037 -1.09807521,1.098075 v 6.58845 c 0,0.549037 0.54903761,1.098075 1.09807521,1.098075 h 2.1961498 c 0.5490375,0 1.098075,-0.549038 1.098075,-1.098075 v -0.227872 c 0.023235,8.5e-5 0.047627,0 0.070233,0 0.4451979,0 0.7848032,-0.01291 0.9988837,-0.02466 0.169196,-0.0094 0.3246027,-0.09172 0.3710294,-0.254683 0.037847,-0.13278 0.070774,-0.3313 0.070774,-0.620883 0,-0.289586 -0.032957,-0.488643 -0.070774,-0.621419 -0.046427,-0.163007 -0.2018365,-0.24485 -0.3710294,-0.254153 -0.2140835,-0.01174 -0.5536858,-0.02519 -0.9988837,-0.02519 -0.022605,3e-6 -0.046998,4.4e-4 -0.070233,5.5e-4 v -1.261615 c 0.023235,7.4e-5 0.047612,5.47e-4 0.070233,5.47e-4 0.4451979,0 0.7848032,-0.01332 0.9988837,-0.02519 0.169196,-0.0094 0.3245954,-0.09119 0.3710294,-0.254142 0.037817,-0.132781 0.070774,-0.331836 0.070774,-0.62142 v -0.0032 c 0,-0.01727 -3.089e-4,-0.03324 -5.489e-4,-0.04985 -2.68e-4,-0.01855 -5.491e-4,-0.03694 -0.00102,-0.0547 -9.37e-5,-0.0032 -4.392e-4,-0.0058 -5.491e-4,-0.0091 -0.00102,-0.03005 -0.00205,-0.05902 -0.00366,-0.08687 -8.785e-4,-0.0145 -0.00219,-0.02786 -0.00322,-0.04183 -0.0011,-0.01469 -0.0019,-0.02937 -0.00322,-0.04343 -0.00132,-0.01436 -0.00278,-0.02757 -0.00439,-0.04128 -1.025e-4,-9.52e-4 -4.392e-4,-0.0017 -5.49e-4,-0.0027 -0.013177,-0.120613 -0.032385,-0.217071 -0.053629,-0.291642 -0.046427,-0.162962 -0.201832,-0.244815 -0.3710294,-0.254146 -0.2140835,-0.01174 -0.5536858,-0.02519 -0.9988836,-0.02519 -0.022619,0 -0.046997,4.77e-4 -0.070233,5.51e-4 v -1.261608 c 0.023235,8.5e-5 0.047627,5.5e-4 0.070233,5.5e-4 0.4451978,0 0.784803,-0.01346 0.9988836,-0.02519 0.1691959,-0.0093 0.3246028,-0.09119 0.3710294,-0.254145 0.037847,-0.132781 0.070774,-0.331301 0.070774,-0.620884 0,-0.289586 -0.032957,-0.488644 -0.070774,-0.621421 -0.046427,-0.162999 -0.2018365,-0.245378 -0.3710294,-0.254679 -0.2140835,-0.01174 -0.5536858,-0.02466 -0.9988836,-0.02466 -0.022605,3e-6 -0.046997,-8e-5 -0.070233,0 v -1.26107 c 0.023235,7.4e-5 0.047612,0 0.070233,0 0.2225989,0 0.4186213,-0.0032 0.5860324,-0.008 0.083703,-0.0025 0.1600085,-0.0051 0.2289442,-0.0081 0.06893,-0.0029 0.1303928,-0.0062 0.183907,-0.0091 0.021155,-0.0012 0.042209,-0.0035 0.062722,-0.007 0.041053,-0.0069 0.080554,-0.01807 0.1168788,-0.03432 0.01817,-0.0081 0.035577,-0.01739 0.052005,-0.02786 0.040951,-0.02618 0.076221,-0.06001 0.1024144,-0.101321 8.2e-5,-1.29e-4 -8.19e-5,-4.04e-4 0,-5.5e-4 0.015725,-0.0249 0.028287,-0.05256 0.036999,-0.0831 0.037817,-0.132781 0.070774,-0.331298 0.070774,-0.620884 0,-0.289582 -0.032957,-0.48864 -0.070774,-0.62142 -0.031932,-0.112286 -0.1153854,-0.186203 -0.2193071,-0.224347 -0.018887,-0.0069 -0.038359,-0.01265 -0.058432,-0.01716 -0.030117,-0.0069 -0.06158,-0.01113 -0.093292,-0.01291 -0.053514,-0.0029 -0.1149609,-0.0062 -0.1839057,-0.0091 -0.06893,-0.0029 -0.1452388,-0.0056 -0.2289442,-0.0081 -0.167411,-0.0048 -0.363435,-0.008 -0.5860338,-0.008 -0.022619,0 -0.046997,-7.4e-5 -0.070248,0 v -1.26107 c 0.023235,8.2e-5 0.047627,5.48e-4 0.070248,5.48e-4 0.4451992,0 0.7848029,-0.01346 0.9988837,-0.02519 0.1691957,-0.0094 0.3246026,-0.09119 0.3710292,-0.254143 0.037847,-0.132781 0.070774,-0.331839 0.070774,-0.621422 0,-0.289585 -0.032957,-0.488108 -0.070774,-0.620884 -0.046427,-0.163 -0.2018365,-0.245378 -0.3710292,-0.25468 -0.2140836,-0.01174 -0.5536846,-0.02466 -0.9988837,-0.02466 -0.022605,3e-6 -0.046997,-8e-5 -0.070248,0 v -1.261174 c 0.023235,7.5e-5 0.047612,0 0.070248,0 0.4451992,0 0.7848029,-0.01332 0.9988837,-0.02519 0.1691958,-0.0093 0.3245953,-0.09119 0.3710292,-0.254144 0.037817,-0.13278 0.070774,-0.331834 0.070774,-0.62142 0,-0.289582 -0.032957,-0.488105 -0.070774,-0.620884 -0.046427,-0.163 -0.2018304,-0.244853 -0.3710292,-0.254145 -0.2140851,-0.01174 -0.5536846,-0.02519 -0.9988837,-0.02519 -0.022532,0 -0.04713,4.72e-4 -0.070248,5.36e-4 l 3.74e-5,-0.228436 c 0,-0.549037 -0.5490375,-1.098075 -1.098075,-1.098075 h -2.196148 c -0.5490377,0 -1.09807521,0.549038 -1.09807521,1.098075 z"
     sodipodi:nodetypes="ccccccccccccccsccsscsccsccssssccccscccsccsccssccccsccssccsccsscccccsccsccssccccsccsscsccccc" />
</svg>
