<?xml version="1.0" encoding="UTF-8" standalone="no"?>
<svg
   fill="none"
   viewBox="0 0 48 48"
   height="256"
   width="256"
   version="1.1"
   id="svg6"
   sodipodi:docname="ch32v00x.svg"
   inkscape:version="1.2.1 (9c6d41e410, 2022-07-14)"
   xmlns:inkscape="http://www.inkscape.org/namespaces/inkscape"
   xmlns:sodipodi="http://sodipodi.sourceforge.net/DTD/sodipodi-0.dtd"
   xmlns="http://www.w3.org/2000/svg"
   xmlns:svg="http://www.w3.org/2000/svg">
  <defs
     id="defs10" />
  <sodipodi:namedview
     id="namedview8"
     pagecolor="#ffffff"
     bordercolor="#666666"
     borderopacity="1.0"
     inkscape:showpageshadow="2"
     inkscape:pageopacity="0.0"
     inkscape:pagecheckerboard="true"
     inkscape:deskcolor="#d1d1d1"
     showgrid="true"
     inkscape:zoom="0.8095703"
     inkscape:cx="532.38119"
     inkscape:cy="37.674307"
     inkscape:current-layer="svg6"
     showguides="false"
     inkscape:window-width="1920"
     inkscape:window-height="730"
     inkscape:window-x="-6"
     inkscape:window-y="-6"
     inkscape:window-maximized="1">
    <inkscape:grid
       type="xygrid"
       id="grid239"
       units="px"
       spacingx="1.5"
       spacingy="1.5" />
  </sodipodi:namedview>
  <path
     id="rect897"
     style="fill:#4e9a06;fill-opacity:1;stroke:none;stroke-width:0.363088;stroke-linejoin:round;stroke-opacity:0.580986"
     d="m 35.799046,3 c 5.120294,0.2698197 9.013548,4.1634678 9.283448,9.283814 V 38.716552 C 44.812694,43.836847 40.91934,47.7302 35.799046,48 H 12.200954 C 7.0806288,47.7302 3.1869498,43.836847 2.9171398,38.716552 V 12.283814 C 3.1869498,7.1634778 7.0806188,3.2698097 12.200954,3 Z"
     sodipodi:nodetypes="ccccccccc" />
  <path
     id="path2-4"
     style="fill:#2e3436;fill-opacity:1;stroke-width:0.246037"
     d="m 17.657593,25.754493 v 3.66e-4 c -0.18684,0 -0.318615,0.01994 -0.409058,0.04395 -0.121124,0.03217 -0.179511,0.148286 -0.183472,0.273559 -0.0074,0.234007 -0.01849,0.638892 -0.02161,0.989136 -0.08008,0.0051 -0.157802,0.01013 -0.22998,0.01538 -0.62912,0.04574 -1.109658,0.526277 -1.155396,1.155395 v 5.870728 c 0.04574,0.629116 0.526275,1.109657 1.155396,1.155395 0.0727,0.0053 0.150732,0.01021 0.231445,0.01538 -0.0017,0.11178 -0.0026,0.221825 -0.0026,0.322632 0,0.304077 0.0091,0.536031 0.01721,0.682251 0.0064,0.115563 0.06225,0.221705 0.173584,0.253418 0.09069,0.02583 0.22665,0.04834 0.424439,0.04834 0.19779,10e-7 0.333748,-0.02251 0.424438,-0.04834 0.111304,-0.03171 0.167212,-0.137855 0.173584,-0.253418 0.008,-0.146223 0.01685,-0.378174 0.01685,-0.682251 0,-0.08401 -5.82e-4,-0.174571 -0.0018,-0.266968 0.265462,0.0078 0.553418,0.01337 0.86499,0.01685 -9.98e-4,0.08634 -0.0018,0.171369 -0.0018,0.250122 0,0.304078 0.0088,0.536032 0.01685,0.682251 0.0064,0.115563 0.06264,0.221708 0.17395,0.253418 0.09069,0.02585 0.226283,0.04834 0.424072,0.04834 0.19779,0 0.333751,-0.02251 0.424439,-0.04834 0.111332,-0.03171 0.16723,-0.137858 0.173584,-0.253418 0.008,-0.146222 0.01721,-0.378173 0.01721,-0.682251 -7e-6,-0.07875 -7.81e-4,-0.16378 -0.0018,-0.250122 0.311571,-0.0034 0.599528,-0.0091 0.86499,-0.01685 -0.0011,0.0924 -0.0022,0.182965 -0.0022,0.266968 0,0.304077 0.0091,0.536031 0.01721,0.682251 0.0064,0.115562 0.06228,0.221703 0.173584,0.253418 0.09069,0.02583 0.226649,0.04834 0.424439,0.04834 0.01204,0 0.0232,-2.04e-4 0.03479,-3.66e-4 0.01159,1.62e-4 0.02275,3.66e-4 0.03479,3.66e-4 0.19779,10e-7 0.333382,-0.02251 0.424072,-0.04834 0.111304,-0.03171 0.167212,-0.137855 0.173584,-0.253418 0.008,-0.146223 0.01721,-0.378174 0.01721,-0.682251 0,-0.08401 -5.82e-4,-0.174571 -0.0018,-0.266968 0.265462,0.0078 0.553052,0.01337 0.864624,0.01685 -9.98e-4,0.08634 -0.0015,0.171369 -0.0015,0.250122 0,0.304078 0.0088,0.536032 0.01685,0.682251 0.0064,0.115563 0.06228,0.221708 0.173584,0.253418 0.09069,0.02585 0.22665,0.04834 0.424438,0.04834 0.02472,0 0.04822,-4.33e-4 0.07105,-0.0011 0.15975,-0.0047 0.274042,-0.02464 0.353394,-0.04724 0.111332,-0.03171 0.16723,-0.137858 0.173584,-0.253418 0.008,-0.146222 0.01685,-0.378173 0.01685,-0.682251 -7e-6,-0.07875 -4.15e-4,-0.16378 -0.0015,-0.250122 0.311571,-0.0034 0.599162,-0.0091 0.864624,-0.01685 -0.0011,0.0924 -0.0018,0.182965 -0.0018,0.266968 0,0.304077 0.0091,0.536031 0.01721,0.682251 0.0064,0.115562 0.06228,0.221703 0.173584,0.253418 0.09069,0.02583 0.226648,0.04834 0.424438,0.04834 0.01211,0 0.02314,-2.02e-4 0.03479,-3.66e-4 0.01153,1.6e-4 0.02245,3.66e-4 0.03442,3.66e-4 0.19779,10e-7 0.333749,-0.02251 0.424438,-0.04834 0.111304,-0.03171 0.167212,-0.137855 0.173584,-0.253418 0.008,-0.146223 0.01721,-0.378174 0.01721,-0.682251 0,-0.08401 -9.48e-4,-0.174571 -0.0022,-0.266968 0.265462,0.0078 0.553419,0.01337 0.86499,0.01685 -9.98e-4,0.08634 -0.0018,0.171369 -0.0018,0.250122 0,0.304078 0.0092,0.536032 0.01721,0.682251 0.0064,0.115563 0.06228,0.221708 0.173584,0.253418 0.09069,0.02585 0.226284,0.04834 0.424072,0.04834 0.19779,0 0.333751,-0.02251 0.424439,-0.04834 0.111332,-0.03171 0.167596,-0.137858 0.17395,-0.253418 0.008,-0.146222 0.01685,-0.378173 0.01685,-0.682251 -7e-6,-0.07875 -7.81e-4,-0.16378 -0.0018,-0.250122 0.311571,-0.0034 0.599528,-0.0091 0.86499,-0.01685 -0.0011,0.0924 -0.0018,0.182965 -0.0018,0.266968 0,0.304077 0.0091,0.536031 0.01721,0.682251 0.0064,0.115562 0.06228,0.221703 0.173584,0.253418 0.09069,0.02583 0.226282,0.04834 0.424072,0.04834 0.197789,0 0.33375,-0.02251 0.424439,-0.04834 0.11133,-0.03171 0.167238,-0.137852 0.173584,-0.253418 0.008,-0.146222 0.01721,-0.378175 0.01721,-0.682251 0,-0.100806 -9.39e-4,-0.210853 -0.0026,-0.322632 0.08071,-0.0052 0.158747,-0.01009 0.231445,-0.01538 0.629116,-0.04574 1.109657,-0.526278 1.155396,-1.155395 v -5.870728 c -0.04574,-0.629122 -0.526281,-1.109656 -1.155396,-1.155395 -0.07218,-0.0053 -0.149898,-0.01025 -0.22998,-0.01538 -0.0031,-0.350244 -0.0142,-0.755128 -0.02161,-0.989136 -0.004,-0.125271 -0.06235,-0.241399 -0.183471,-0.273559 -0.09045,-0.02402 -0.222218,-0.04431 -0.409058,-0.04431 -0.186841,0 -0.318249,0.0203 -0.408691,0.04431 -0.121146,0.03216 -0.179512,0.148288 -0.183472,0.273559 -0.007,0.221835 -0.01749,0.596631 -0.02124,0.933472 -0.265308,-0.0078 -0.552902,-0.01374 -0.864258,-0.01721 -0.0039,-0.332329 -0.01435,-0.69821 -0.02124,-0.91626 -0.004,-0.125271 -0.06235,-0.241399 -0.183472,-0.273559 -0.09044,-0.02401 -0.221852,-0.04431 -0.408691,-0.04431 -0.18684,0 -0.318615,0.0203 -0.409058,0.04431 -0.121145,0.03216 -0.179511,0.148288 -0.183472,0.273559 -0.0069,0.218058 -0.01696,0.583914 -0.02087,0.91626 -0.311355,0.0035 -0.59895,0.0094 -0.864258,0.01721 -0.0038,-0.336841 -0.01459,-0.711638 -0.02161,-0.933472 -0.004,-0.125271 -0.06233,-0.241396 -0.183472,-0.273559 -0.09045,-0.02402 -0.22185,-0.04431 -0.408691,-0.04431 v 3.66e-4 c -0.0098,0 -0.01873,2.58e-4 -0.0282,3.67e-4 -0.01358,-2.27e-4 -0.0268,-7.33e-4 -0.04102,-7.33e-4 -0.02335,0 -0.04609,4.99e-4 -0.06775,0.0011 -0.151584,0.0042 -0.262172,0.0222 -0.341309,0.04321 -0.121145,0.03216 -0.179511,0.148288 -0.183471,0.273559 -0.007,0.221835 -0.01749,0.596631 -0.02124,0.933472 -0.265308,-0.0078 -0.552903,-0.01374 -0.864258,-0.01721 -0.0039,-0.332329 -0.01398,-0.69821 -0.02087,-0.91626 -0.004,-0.125271 -0.06235,-0.241399 -0.183472,-0.273559 -0.09044,-0.02401 -0.222218,-0.04431 -0.409058,-0.04431 -0.02335,0 -0.04572,4.99e-4 -0.06738,0.0011 -0.15161,0.0042 -0.262538,0.0222 -0.341675,0.04321 -0.121145,0.03216 -0.179511,0.148288 -0.183472,0.273559 -0.0069,0.218058 -0.01696,0.583914 -0.02087,0.91626 -0.311356,0.0035 -0.59895,0.0094 -0.864258,0.01721 -0.0038,-0.336841 -0.01422,-0.711638 -0.02124,-0.933472 -0.004,-0.125271 -0.06233,-0.241396 -0.183472,-0.273559 -0.09045,-0.02402 -0.222216,-0.04431 -0.409057,-0.04431 v 3.66e-4 c -0.0098,0 -0.01872,2.58e-4 -0.0282,3.67e-4 -0.01358,-2.27e-4 -0.0268,-7.33e-4 -0.04102,-7.33e-4 -0.186841,0 -0.31825,0.0203 -0.408692,0.04431 -0.121145,0.03216 -0.179511,0.148288 -0.183471,0.273559 -0.007,0.221835 -0.01749,0.596631 -0.02124,0.933472 -0.265308,-0.0078 -0.553269,-0.01374 -0.864624,-0.01721 -0.0039,-0.332329 -0.01398,-0.69821 -0.02087,-0.91626 -0.004,-0.125271 -0.06235,-0.241399 -0.183472,-0.273559 -0.09044,-0.02401 -0.221852,-0.04431 -0.408692,-0.04431 -0.186839,0 -0.318614,0.0203 -0.409057,0.04431 -0.121145,0.03216 -0.179511,0.148288 -0.183472,0.273559 -0.0069,0.218058 -0.01733,0.583914 -0.02124,0.91626 -0.311356,0.0035 -0.59895,0.0094 -0.864258,0.01721 -0.0038,-0.336841 -0.01422,-0.711638 -0.02124,-0.933472 -0.004,-0.125271 -0.06233,-0.241396 -0.183472,-0.273559 -0.09045,-0.02402 -0.22185,-0.04431 -0.408691,-0.04431 z" />
  <path
     style="fill:#2e3436;fill-opacity:1;stroke-width:0.425197;stroke-linejoin:round;stroke-opacity:0.580986"
     d="m 19.5,0 h 9 c 1.5,0 3,1.5 3,3 v 7.499999 c 0,1.5 -1.5,2.999999 -3,2.999999 h -9 c -1.5,0 -3,-1.499999 -3,-2.999999 V 3 c 0,-1.5 1.5,-3 3,-3 z"
     id="path450"
     sodipodi:nodetypes="ccccccccc" />
  <path
     id="path1058"
     style="fill:#fce94f;fill-opacity:1;stroke-width:0.425197;stroke-linejoin:round;stroke-opacity:0.580986"
     d="M 22.5,4.5 A 1.5,1.5 0 0 1 21,5.9999999 1.5,1.5 0 0 1 19.5,4.5 1.5,1.5 0 0 1 21,3 1.5,1.5 0 0 1 22.5,4.5 Z" />
  <path
     id="path1061"
     style="fill:#fce94f;fill-opacity:1;stroke-width:0.425197;stroke-linejoin:round;stroke-opacity:0.580986"
     d="M 28.5,4.5 A 1.5,1.5 0 0 1 27,5.9999999 1.5,1.5 0 0 1 25.5,4.5 1.5,1.5 0 0 1 27,3 1.5,1.5 0 0 1 28.5,4.5 Z" />
  <g
     id="g697"
     transform="rotate(-90,41.061021,6.3129921)">
    <path
       style="fill:#2e3436;fill-opacity:1;stroke-width:0.425197;stroke-linejoin:round;stroke-opacity:0.580986"
       d="M 24.75,7.5 H 12 C 10.5,7.5 9,6 9,4.5 9,3 10.5,1.5 12,1.5 h 12.75 c 1.5,0 3,1.5 3,3 0,1.5 -1.5,3 -3,3 z"
       id="path685"
       sodipodi:nodetypes="ccccccc" />
    <path
       id="path687"
       style="fill:#fce94f;fill-opacity:1;stroke-width:0.318898;stroke-linejoin:round;stroke-opacity:0.580986"
       d="m 22.875,4.5 c 0,-0.62132 0.50368,-1.125 1.125,-1.125 0.62132,0 1.125,0.50368 1.125,1.125 0,0.62132 -0.50368,1.125 -1.125,1.125 -0.62132,0 -1.125,-0.50368 -1.125,-1.125 z"
       sodipodi:nodetypes="sssss" />
    <path
       id="path689"
       style="fill:#fce94f;fill-opacity:1;stroke-width:0.318898;stroke-linejoin:round;stroke-opacity:0.580986"
       d="m 19.875,4.5 c 0,-0.62132 0.50368,-1.125 1.125,-1.125 0.62132,0 1.125,0.50368 1.125,1.125 0,0.62132 -0.50368,1.125 -1.125,1.125 -0.62132,0 -1.125,-0.50368 -1.125,-1.125 z"
       sodipodi:nodetypes="sssss" />
    <path
       id="path691"
       style="fill:#fce94f;fill-opacity:1;stroke-width:0.318898;stroke-linejoin:round;stroke-opacity:0.580986"
       d="m 16.875,4.5 c 0,-0.62132 0.50368,-1.125 1.125,-1.125 0.62132,0 1.125,0.50368 1.125,1.125 0,0.62132 -0.50368,1.125 -1.125,1.125 -0.62132,0 -1.125,-0.50368 -1.125,-1.125 z"
       sodipodi:nodetypes="sssss" />
    <path
       id="path693"
       style="fill:#fce94f;fill-opacity:1;stroke-width:0.318898;stroke-linejoin:round;stroke-opacity:0.580986"
       d="m 13.875,4.5 c 0,-0.62132 0.50368,-1.125 1.125,-1.125 0.62132,0 1.125,0.50368 1.125,1.125 0,0.62132 -0.50368,1.125 -1.125,1.125 -0.62132,0 -1.125,-0.50368 -1.125,-1.125 z"
       sodipodi:nodetypes="sssss" />
    <path
       id="path695"
       style="fill:#fce94f;fill-opacity:1;stroke-width:0.318898;stroke-linejoin:round;stroke-opacity:0.580986"
       d="m 10.875,4.5 c 0,-0.62132 0.50368,-1.125 1.125,-1.125 0.62132,0 1.125,0.50368 1.125,1.125 0,0.62132 -0.50368,1.125 -1.125,1.125 -0.62132,0 -1.125,-0.50368 -1.125,-1.125 z"
       sodipodi:nodetypes="sssss" />
  </g>
  <g
     id="g443"
     transform="rotate(-90,25.8248,21.549214)">
    <path
       style="fill:#2e3436;fill-opacity:1;stroke-width:0.425197;stroke-linejoin:round;stroke-opacity:0.580986"
       d="M 24.75,7.5 H 12 C 10.5,7.5 9,6 9,4.5 9,3 10.5,1.5 12,1.5 h 12.75 c 1.5,0 3,1.5 3,3 0,1.5 -1.5,3 -3,3 z"
       id="path431"
       sodipodi:nodetypes="ccccccc" />
    <path
       id="path433"
       style="fill:#fce94f;fill-opacity:1;stroke-width:0.318898;stroke-linejoin:round;stroke-opacity:0.580986"
       d="m 22.875,4.5 c 0,-0.62132 0.50368,-1.125 1.125,-1.125 0.62132,0 1.125,0.50368 1.125,1.125 0,0.62132 -0.50368,1.125 -1.125,1.125 -0.62132,0 -1.125,-0.50368 -1.125,-1.125 z"
       sodipodi:nodetypes="sssss" />
    <path
       id="path435"
       style="fill:#fce94f;fill-opacity:1;stroke-width:0.318898;stroke-linejoin:round;stroke-opacity:0.580986"
       d="m 19.875,4.5 c 0,-0.62132 0.50368,-1.125 1.125,-1.125 0.62132,0 1.125,0.50368 1.125,1.125 0,0.62132 -0.50368,1.125 -1.125,1.125 -0.62132,0 -1.125,-0.50368 -1.125,-1.125 z"
       sodipodi:nodetypes="sssss" />
    <path
       id="path437"
       style="fill:#fce94f;fill-opacity:1;stroke-width:0.318898;stroke-linejoin:round;stroke-opacity:0.580986"
       d="m 16.875,4.5 c 0,-0.62132 0.50368,-1.125 1.125,-1.125 0.62132,0 1.125,0.50368 1.125,1.125 0,0.62132 -0.50368,1.125 -1.125,1.125 -0.62132,0 -1.125,-0.50368 -1.125,-1.125 z"
       sodipodi:nodetypes="sssss" />
    <path
       id="path439"
       style="fill:#fce94f;fill-opacity:1;stroke-width:0.318898;stroke-linejoin:round;stroke-opacity:0.580986"
       d="m 13.875,4.5 c 0,-0.62132 0.50368,-1.125 1.125,-1.125 0.62132,0 1.125,0.50368 1.125,1.125 0,0.62132 -0.50368,1.125 -1.125,1.125 -0.62132,0 -1.125,-0.50368 -1.125,-1.125 z"
       sodipodi:nodetypes="sssss" />
    <path
       id="path441"
       style="fill:#fce94f;fill-opacity:1;stroke-width:0.318898;stroke-linejoin:round;stroke-opacity:0.580986"
       d="m 10.875,4.5 c 0,-0.62132 0.50368,-1.125 1.125,-1.125 0.62132,0 1.125,0.50368 1.125,1.125 0,0.62132 -0.50368,1.125 -1.125,1.125 -0.62132,0 -1.125,-0.50368 -1.125,-1.125 z"
       sodipodi:nodetypes="sssss" />
  </g>
  <path
     style="fill:#2e3436;fill-opacity:1;stroke-width:0.425197;stroke-linejoin:round;stroke-opacity:0.580986"
     d="m 9,6.708661 h 2.82874 c 1.5,0 3,0.791339 3,2.291339 0,1.5 -1.5,2.291339 -3,2.291339 H 9 C 7.5,11.291339 6,10.5 6,9 6,7.5 7.5,6.708661 9,6.708661 Z"
     id="path431-8"
     sodipodi:nodetypes="ccccccc" />
  <path
     style="fill:#ffffff;fill-opacity:1;stroke-width:0.425197;stroke-linejoin:round;stroke-opacity:0.580986"
     d="M 9.0000002,8.1259838 H 11.828739 V 9.8740162 H 9.0000002 Z"
     id="path498"
     sodipodi:nodetypes="ccccc" />
  <path
     style="fill:#2e3436;fill-opacity:1;stroke-width:0.425197;stroke-linejoin:round;stroke-opacity:0.580986"
     d="m 35.929134,6.708661 h 2.82874 c 1.5,0 3,0.791339 3,2.291339 0,1.5 -1.5,2.291339 -3,2.291339 h -2.82874 c -1.5,0 -3,-0.791339 -3,-2.291339 0,-1.5 1.5,-2.291339 3,-2.291339 z"
     id="path1055"
     sodipodi:nodetypes="ccccccc" />
  <path
     style="fill:#ffffff;fill-opacity:1;stroke-width:0.425197;stroke-linejoin:round;stroke-opacity:0.580986"
     d="m 35.929134,8.1259838 h 2.828739 v 1.7480324 h -2.828739 z"
     id="path1057"
     sodipodi:nodetypes="ccccc" />
</svg>
