<?xml version="1.0" encoding="UTF-8" standalone="no"?>
<svg
   fill="none"
   viewBox="0 0 48 48"
   height="256"
   width="256"
   version="1.1"
   id="svg6"
   sodipodi:docname="ch32v30x.svg"
   inkscape:version="1.2.1 (9c6d41e410, 2022-07-14)"
   xmlns:inkscape="http://www.inkscape.org/namespaces/inkscape"
   xmlns:sodipodi="http://sodipodi.sourceforge.net/DTD/sodipodi-0.dtd"
   xmlns="http://www.w3.org/2000/svg"
   xmlns:svg="http://www.w3.org/2000/svg">
  <defs
     id="defs10" />
  <sodipodi:namedview
     id="namedview8"
     pagecolor="#ffffff"
     bordercolor="#666666"
     borderopacity="1.0"
     inkscape:showpageshadow="2"
     inkscape:pageopacity="0.0"
     inkscape:pagecheckerboard="true"
     inkscape:deskcolor="#d1d1d1"
     showgrid="true"
     inkscape:zoom="0.8095703"
     inkscape:cx="-356.36189"
     inkscape:cy="119.19904"
     inkscape:current-layer="svg6"
     showguides="false"
     inkscape:window-width="2560"
     inkscape:window-height="1351"
     inkscape:window-x="-9"
     inkscape:window-y="-9"
     inkscape:window-maximized="1">
    <inkscape:grid
       type="xygrid"
       id="grid239"
       units="px"
       spacingx="1.5"
       spacingy="1.5" />
  </sodipodi:namedview>
  <path
     id="rect897"
     style="fill:#565952;fill-opacity:1;stroke:none;stroke-width:0.363088;stroke-linejoin:round;stroke-opacity:0.580986"
     d="m 34.545776,0 c 5.120294,0.2698197 9.013548,4.1634678 9.283448,9.283814 V 16.5 H 36 V 21 h 7.829224 V 38.716552 C 43.559424,43.836847 39.66607,47.7302 34.545776,48 H 13.45459 C 8.334265,47.7302 4.440586,43.836847 4.170776,38.716552 V 21 H 12 V 16.5 H 4.170776 V 9.283814 C 4.440586,4.1634778 8.334255,0.2698097 13.45459,0 Z"
     sodipodi:nodetypes="ccccccccccccccccc" />
  <path
     id="path2-4"
     style="fill:#2e3436;fill-opacity:1;stroke-width:0.246037"
     d="m 18.587201,33.966306 c 0,0.18684 0.02021,0.318385 0.04422,0.408828 0.03217,0.121125 0.148286,0.179512 0.273559,0.183474 0.234006,0.0074 0.638663,0.01871 0.988906,0.02183 0.0051,0.08008 0.01027,0.157709 0.01552,0.229888 0.04574,0.62912 0.526229,1.109611 1.155349,1.155349 0.07218,0.0053 0.149676,0.01039 0.229751,0.01552 0.0031,0.350242 0.01457,0.7549 0.02197,0.988907 0.004,0.125271 0.06221,0.241397 0.183334,0.27356 0.09044,0.02401 0.222125,0.04408 0.408966,0.04408 0.186841,0 0.318385,-0.02007 0.40883,-0.04408 0.12115,-0.03217 0.179512,-0.148287 0.183473,-0.273559 0.007,-0.221817 0.01753,-0.596604 0.02128,-0.933426 0.265269,0.0078 0.55291,0.0137 0.864213,0.01717 0.0039,0.332327 0.01425,0.698209 0.02115,0.916259 0.004,0.125271 0.06235,0.241397 0.183473,0.273559 0.09044,0.02401 0.221987,0.04408 0.408828,0.04408 0.186841,0 0.318522,-0.02007 0.408966,-0.04408 0.12115,-0.03217 0.179374,-0.148289 0.183334,-0.273561 0.0069,-0.218047 0.01723,-0.583929 0.02115,-0.91626 0.311287,-0.0035 0.598951,-0.0094 0.864213,-0.01717 0.0038,0.336823 0.01441,0.711609 0.02143,0.933426 0.004,0.125271 0.06233,0.241395 0.183473,0.273559 0.09044,0.02401 0.221988,0.04408 0.408828,0.04408 0.186841,-2e-6 0.318388,-0.02007 0.408829,-0.04408 0.121126,-0.03216 0.179512,-0.148288 0.183474,-0.273559 0.0074,-0.234007 0.01871,-0.638666 0.02183,-0.988908 0.08008,-0.0051 0.157713,-0.01028 0.229891,-0.01552 0.629117,-0.04574 1.109611,-0.526228 1.155349,-1.155349 0.0053,-0.0727 0.01049,-0.150824 0.01566,-0.231537 0.11178,0.0017 0.221505,0.0026 0.322312,0.0026 0.304077,0 0.536305,-0.0091 0.682525,-0.01717 0.115561,-0.0064 0.22152,-0.06225 0.253233,-0.173585 0.02583,-0.09069 0.04834,-0.226558 0.04834,-0.424347 2e-6,-0.19779 -0.02251,-0.333657 -0.04834,-0.424347 -0.03171,-0.111304 -0.13767,-0.167213 -0.253234,-0.173585 -0.146222,-0.008 -0.378448,-0.01717 -0.682525,-0.01717 -0.084,0 -0.174572,7.51e-4 -0.266969,0.002 0.0078,-0.265462 0.01369,-0.553326 0.01717,-0.864897 0.08634,9.97e-4 0.171049,0.0018 0.249802,0.0018 0.304077,0 0.536305,-0.009 0.682525,-0.01703 0.115563,-0.0064 0.221522,-0.06242 0.253232,-0.173724 0.02585,-0.09069 0.04834,-0.22642 0.04834,-0.424209 0,-0.197791 -0.02251,-0.333659 -0.04834,-0.424347 -0.03171,-0.111331 -0.137673,-0.167373 -0.253234,-0.173726 -0.146222,-0.008 -0.378447,-0.01703 -0.682524,-0.01703 -0.07875,7e-6 -0.16346,7.51e-4 -0.249803,0.0018 -0.0034,-0.311572 -0.0094,-0.599437 -0.01717,-0.864899 0.0924,0.0011 0.182966,0.0019 0.26697,0.0019 0.304077,0 0.536305,-0.0091 0.682525,-0.01717 0.115563,-0.0064 0.221519,-0.06228 0.253234,-0.173586 0.02583,-0.09069 0.04834,-0.226557 0.04834,-0.424348 0,-0.197789 -0.02251,-0.333656 -0.04834,-0.424346 -0.03171,-0.111331 -0.137668,-0.167238 -0.253233,-0.173584 -0.146223,-0.008 -0.378449,-0.01717 -0.682526,-0.01717 -0.100805,0 -0.210532,9.75e-4 -0.322312,0.0026 -0.0052,-0.08071 -0.01037,-0.158838 -0.01566,-0.231537 -0.04574,-0.629116 -0.526232,-1.10961 -1.155349,-1.155349 -0.0727,-0.0053 -0.150826,-0.01048 -0.231537,-0.01566 0.0017,-0.111779 0.0026,-0.221506 0.0026,-0.322312 -1e-6,-0.304076 -0.0091,-0.536305 -0.01717,-0.682526 -0.0064,-0.115562 -0.06225,-0.221521 -0.173584,-0.253234 -0.09069,-0.02583 -0.226557,-0.04834 -0.424346,-0.04834 -0.197791,-10e-7 -0.33366,0.02251 -0.424348,0.04834 -0.111305,0.03171 -0.167353,0.137669 -0.173724,0.253231 -0.008,0.146223 -0.01703,0.37845 -0.01703,0.682527 0,0.084 7.51e-4,0.174571 0.0019,0.266968 -0.26545,-0.0078 -0.553342,-0.0137 -0.864898,-0.01717 9.97e-4,-0.08634 0.0018,-0.171049 0.0018,-0.249801 0,-0.304077 -0.009,-0.536305 -0.01703,-0.682524 -0.0064,-0.115564 -0.06242,-0.221523 -0.173725,-0.253233 -0.09069,-0.02584 -0.226558,-0.04834 -0.424348,-0.04834 -0.197787,0 -0.333656,0.02251 -0.424346,0.04834 -0.111331,0.03171 -0.167232,0.137675 -0.173586,0.253234 -0.008,0.146223 -0.01717,0.378447 -0.01717,0.682525 8e-6,0.07875 7.51e-4,0.163461 0.0018,0.249802 -0.311486,0.0035 -0.599362,0.0094 -0.864762,0.01717 0.0012,-0.09241 0.0019,-0.182965 0.0019,-0.266968 0,-0.304077 -0.0091,-0.536306 -0.01717,-0.682526 -0.0064,-0.115563 -0.06227,-0.221521 -0.173584,-0.253233 -0.09069,-0.02583 -0.226558,-0.04834 -0.424347,-0.04834 -0.19779,0 -0.333658,0.02251 -0.424347,0.04834 -0.111331,0.03171 -0.167372,0.137674 -0.173717,0.253239 -0.008,0.146222 -0.01703,0.378448 -0.01703,0.682525 0,0.100805 9.75e-4,0.210534 0.0026,0.322312 -0.08076,0.0052 -0.158804,0.01037 -0.231537,0.01566 -0.629123,0.04574 -1.109611,0.526233 -1.155351,1.155348 -0.0053,0.07218 -0.01039,0.149807 -0.01552,0.229889 -0.350244,0.0031 -0.754901,0.01443 -0.988909,0.02184 -0.125271,0.004 -0.241397,0.06235 -0.273558,0.183472 -0.02402,0.09045 -0.04422,0.221989 -0.04422,0.408829 0,0.186842 0.02021,0.318387 0.04422,0.408829 0.03216,0.121146 0.148287,0.179514 0.273558,0.183473 0.221834,0.007 0.596586,0.01753 0.933427,0.02128 -0.0078,0.265309 -0.0137,0.552993 -0.01717,0.864349 -0.332329,0.0039 -0.698211,0.01412 -0.91626,0.02101 -0.125271,0.004 -0.241397,0.06235 -0.273558,0.183473 -0.02401,0.09044 -0.04422,0.221989 -0.04422,0.408829 0,0.18684 0.02021,0.318523 0.04422,0.408966 0.03216,0.121145 0.148287,0.179512 0.273558,0.183473 0.218058,0.0069 0.583914,0.0171 0.91626,0.02101 0.0035,0.311357 0.0094,0.599042 0.01717,0.864349 -0.336841,0.0038 -0.711593,0.01426 -0.933425,0.02128 -0.125272,0.004 -0.241396,0.06233 -0.273559,0.183473 -0.02402,0.09045 -0.04422,0.221988 -0.04422,0.408829 z" />
  <path
     style="fill:#2e3436;fill-opacity:1;stroke-width:0.425197;stroke-linejoin:round;stroke-opacity:0.580986"
     d="m 19.5,0 h 9 c 1.5,0 3,1.5 3,3 v 7.5 c 0,1.5 -1.5,3 -3,3 h -9 c -1.5,0 -3,-1.5 -3,-3 V 3 c 0,-1.5 1.5,-3 3,-3 z"
     id="path450"
     sodipodi:nodetypes="ccccccccc" />
  <path
     id="path1058"
     style="fill:#fce94f;fill-opacity:1;stroke-width:0.425197;stroke-linejoin:round;stroke-opacity:0.580986"
     d="M 22.5,3 A 1.5,1.5 0 0 1 21,4.5 1.5,1.5 0 0 1 19.5,3 1.5,1.5 0 0 1 21,1.5 1.5,1.5 0 0 1 22.5,3 Z" />
  <path
     id="path1061"
     style="fill:#fce94f;fill-opacity:1;stroke-width:0.425197;stroke-linejoin:round;stroke-opacity:0.580986"
     d="M 28.5,3 A 1.5,1.5 0 0 1 27,4.5 1.5,1.5 0 0 1 25.5,3 1.5,1.5 0 0 1 27,1.5 1.5,1.5 0 0 1 28.5,3 Z" />
  <path
     style="fill:#2e3436;fill-opacity:1;stroke-width:0.425197;stroke-linejoin:round;stroke-opacity:0.580986"
     d="m 7.5,43.5 v -18 c 0,-1.5 1.5,-3 3,-3 1.5,0 3,1.5 3,3 v 18 c 0,1.5 -1.5,3 -3,3 -1.5,0 -3,-1.5 -3,-3 z"
     id="path601"
     sodipodi:nodetypes="ccccccc" />
  <path
     id="path603"
     style="fill:#fce94f;stroke-width:0.318898;stroke-linejoin:round;stroke-opacity:0.580986;fill-opacity:1"
     d="m 10.5,33.375 c 0.62132,0 1.125,0.50368 1.125,1.125 0,0.62132 -0.50368,1.125 -1.125,1.125 -0.62132,0 -1.125,-0.50368 -1.125,-1.125 0,-0.62132 0.50368,-1.125 1.125,-1.125 z"
     sodipodi:nodetypes="sssss" />
  <path
     id="path605"
     style="fill:#fce94f;stroke-width:0.318898;stroke-linejoin:round;stroke-opacity:0.580986;fill-opacity:1"
     d="m 10.5,30.375 c 0.62132,0 1.125,0.50368 1.125,1.125 0,0.62132 -0.50368,1.125 -1.125,1.125 -0.62132,0 -1.125,-0.50368 -1.125,-1.125 0,-0.62132 0.50368,-1.125 1.125,-1.125 z"
     sodipodi:nodetypes="sssss" />
  <path
     id="path607"
     style="fill:#fce94f;stroke-width:0.318898;stroke-linejoin:round;stroke-opacity:0.580986;fill-opacity:1"
     d="m 10.5,27.375 c 0.62132,0 1.125,0.50368 1.125,1.125 0,0.62132 -0.50368,1.125 -1.125,1.125 -0.62132,0 -1.125,-0.50368 -1.125,-1.125 0,-0.62132 0.50368,-1.125 1.125,-1.125 z"
     sodipodi:nodetypes="sssss" />
  <path
     id="path609"
     style="fill:#fce94f;stroke-width:0.318898;stroke-linejoin:round;stroke-opacity:0.580986;fill-opacity:1"
     d="m 10.5,24.375 c 0.62132,0 1.125,0.50368 1.125,1.125 0,0.62132 -0.50368,1.125 -1.125,1.125 -0.62132,0 -1.125,-0.50368 -1.125,-1.125 0,-0.62132 0.50368,-1.125 1.125,-1.125 z"
     sodipodi:nodetypes="sssss" />
  <path
     id="path611"
     style="fill:#fce94f;stroke-width:0.318898;stroke-linejoin:round;stroke-opacity:0.580986;fill-opacity:1"
     d="m 10.5,42.375 c 0.62132,0 1.125,0.50368 1.125,1.125 0,0.62132 -0.50368,1.125 -1.125,1.125 -0.62132,0 -1.125,-0.50368 -1.125,-1.125 0,-0.62132 0.50368,-1.125 1.125,-1.125 z"
     sodipodi:nodetypes="sssss" />
  <path
     id="path613"
     style="fill:#fce94f;stroke-width:0.318898;stroke-linejoin:round;stroke-opacity:0.580986;fill-opacity:1"
     d="m 10.5,39.375 c 0.62132,0 1.125,0.50368 1.125,1.125 0,0.62132 -0.50368,1.125 -1.125,1.125 -0.62132,0 -1.125,-0.50368 -1.125,-1.125 0,-0.62132 0.50368,-1.125 1.125,-1.125 z"
     sodipodi:nodetypes="sssss" />
  <path
     id="path615"
     style="fill:#fce94f;stroke-width:0.318898;stroke-linejoin:round;stroke-opacity:0.580986;fill-opacity:1"
     d="m 10.5,36.375 c 0.62132,0 1.125,0.50368 1.125,1.125 0,0.62132 -0.50368,1.125 -1.125,1.125 -0.62132,0 -1.125,-0.50368 -1.125,-1.125 0,-0.62132 0.50368,-1.125 1.125,-1.125 z"
     sodipodi:nodetypes="sssss" />
  <path
     style="fill:#2e3436;fill-opacity:1;stroke-width:0.425197;stroke-linejoin:round;stroke-opacity:0.580986"
     d="m 34.5,43.5 v -18 c 0,-1.5 1.5,-3 3,-3 1.5,0 3,1.5 3,3 v 18 c 0,1.5 -1.5,3 -3,3 -1.5,0 -3,-1.5 -3,-3 z"
     id="path1936"
     sodipodi:nodetypes="ccccccc" />
  <path
     id="path1938"
     style="fill:#fce94f;stroke-width:0.318898;stroke-linejoin:round;stroke-opacity:0.580986;fill-opacity:1"
     d="m 37.5,33.375 c 0.62132,0 1.125,0.50368 1.125,1.125 0,0.62132 -0.50368,1.125 -1.125,1.125 -0.62132,0 -1.125,-0.50368 -1.125,-1.125 0,-0.62132 0.50368,-1.125 1.125,-1.125 z"
     sodipodi:nodetypes="sssss" />
  <path
     id="path1940"
     style="fill:#fce94f;stroke-width:0.318898;stroke-linejoin:round;stroke-opacity:0.580986;fill-opacity:1"
     d="m 37.5,30.375 c 0.62132,0 1.125,0.50368 1.125,1.125 0,0.62132 -0.50368,1.125 -1.125,1.125 -0.62132,0 -1.125,-0.50368 -1.125,-1.125 0,-0.62132 0.50368,-1.125 1.125,-1.125 z"
     sodipodi:nodetypes="sssss" />
  <path
     id="path1942"
     style="fill:#fce94f;stroke-width:0.318898;stroke-linejoin:round;stroke-opacity:0.580986;fill-opacity:1"
     d="m 37.5,27.375 c 0.62132,0 1.125,0.50368 1.125,1.125 0,0.62132 -0.50368,1.125 -1.125,1.125 -0.62132,0 -1.125,-0.50368 -1.125,-1.125 0,-0.62132 0.50368,-1.125 1.125,-1.125 z"
     sodipodi:nodetypes="sssss" />
  <path
     id="path1944"
     style="fill:#fce94f;stroke-width:0.318898;stroke-linejoin:round;stroke-opacity:0.580986;fill-opacity:1"
     d="m 37.5,24.375 c 0.62132,0 1.125,0.50368 1.125,1.125 0,0.62132 -0.50368,1.125 -1.125,1.125 -0.62132,0 -1.125,-0.50368 -1.125,-1.125 0,-0.62132 0.50368,-1.125 1.125,-1.125 z"
     sodipodi:nodetypes="sssss" />
  <path
     id="path1946"
     style="fill:#fce94f;stroke-width:0.318898;stroke-linejoin:round;stroke-opacity:0.580986;fill-opacity:1"
     d="m 37.5,42.375 c 0.62132,0 1.125,0.50368 1.125,1.125 0,0.62132 -0.50368,1.125 -1.125,1.125 -0.62132,0 -1.125,-0.50368 -1.125,-1.125 0,-0.62132 0.50368,-1.125 1.125,-1.125 z"
     sodipodi:nodetypes="sssss" />
  <path
     id="path1948"
     style="fill:#fce94f;stroke-width:0.318898;stroke-linejoin:round;stroke-opacity:0.580986;fill-opacity:1"
     d="m 37.5,39.375 c 0.62132,0 1.125,0.50368 1.125,1.125 0,0.62132 -0.50368,1.125 -1.125,1.125 -0.62132,0 -1.125,-0.50368 -1.125,-1.125 0,-0.62132 0.50368,-1.125 1.125,-1.125 z"
     sodipodi:nodetypes="sssss" />
  <path
     id="path1950"
     style="fill:#fce94f;stroke-width:0.318898;stroke-linejoin:round;stroke-opacity:0.580986;fill-opacity:1"
     d="m 37.5,36.375 c 0.62132,0 1.125,0.50368 1.125,1.125 0,0.62132 -0.50368,1.125 -1.125,1.125 -0.62132,0 -1.125,-0.50368 -1.125,-1.125 0,-0.62132 0.50368,-1.125 1.125,-1.125 z"
     sodipodi:nodetypes="sssss" />
  <path
     style="fill:#ffffff;fill-opacity:1;stroke-width:0.417335"
     d="M 33,11.680663 V 8.622069 h 0.35841 0.35841 v 2.003906 c 0,2.240165 0.013,2.279499 0.435389,1.31797 l 0.300987,-0.685157 0.415834,3.75e-4 0.415835,3.75e-4 0.313609,0.711524 0.313608,0.711523 0.02433,-2.030273 0.02433,-2.0302733 h 0.401277 0.401276 V 9.1916982 9.7613567 L 37.054511,9.439094 C 37.52352,8.9200675 38.056064,8.6946452 38.936164,8.6426007 l 0.784022,-0.046361 V 9.9275 11.25876 h 1.120031 1.120032 V 9.9404007 8.6220415 h 0.403211 0.403212 v 3.0585935 3.058594 H 42.36346 41.960249 V 13.42087 12.10251 h -1.120032 -1.120031 v 1.331585 1.331586 l -0.739217,-0.04589 c -0.833861,-0.05177 -1.606572,-0.395382 -1.993108,-0.886315 l -0.224554,-0.285203 v 0.595479 0.595478 h -0.409382 -0.40938 l -0.502387,-1.265625 c -0.276312,-0.696093 -0.532421,-1.265625 -0.56913,-1.265625 -0.0367,0 -0.298227,0.569532 -0.581151,1.265625 L 33.77747,14.73923 H 33.388735 33 Z m 6.003369,-0.06111 V 9.4490593 l -0.291208,0.074215 C 36.757407,10.021448 36.444793,12.422601 38.194418,13.5 c 0.846561,0.521302 0.808951,0.608729 0.808951,-1.880451 z"
     id="path309"
     sodipodi:nodetypes="ccccsscccccccccccsscccccccccccccccccccsscccccsssccccscsss" />
</svg>
