<?xml version="1.0" encoding="UTF-8" standalone="no"?>
<!-- Generator: Adobe Illustrator 16.0.0, SVG Export Plug-In . SVG Version: 6.00 Build 0)  -->

<svg
   version="1.1"
   id="Ebene_1"
   x="0px"
   y="0px"
   width="256"
   height="256"
   viewBox="0 0 256 256.00001"
   enable-background="new 0 0 230.057 151.2"
   xml:space="preserve"
   sodipodi:docname="demedukit.svg"
   inkscape:version="1.3.2 (091e20e, 2023-11-25, custom)"
   xmlns:inkscape="http://www.inkscape.org/namespaces/inkscape"
   xmlns:sodipodi="http://sodipodi.sourceforge.net/DTD/sodipodi-0.dtd"
   xmlns="http://www.w3.org/2000/svg"
   xmlns:svg="http://www.w3.org/2000/svg"><defs
   id="defs499" /><sodipodi:namedview
   id="namedview499"
   pagecolor="#ffffff"
   bordercolor="#111111"
   borderopacity="1"
   inkscape:showpageshadow="0"
   inkscape:pageopacity="0"
   inkscape:pagecheckerboard="1"
   inkscape:deskcolor="#d1d1d1"
   inkscape:zoom="2.3554464"
   inkscape:cx="182.13108"
   inkscape:cy="107.62291"
   inkscape:window-width="3840"
   inkscape:window-height="1494"
   inkscape:window-x="-11"
   inkscape:window-y="-11"
   inkscape:window-maximized="1"
   inkscape:current-layer="Ebene_1"
   inkscape:document-units="in"
   showgrid="true"><inkscape:grid
     id="grid499"
     units="in"
     originx="0"
     originy="0"
     spacingx="9.6000002"
     spacingy="9.6000002"
     empcolor="#0099e5"
     empopacity="0.30196078"
     color="#0099e5"
     opacity="0.14901961"
     empspacing="5"
     dotted="false"
     gridanglex="30"
     gridanglez="30"
     visible="true" /></sodipodi:namedview>
<desc
   id="desc1">Fritzing breadboard generated by brd2svg</desc>



<g
   id="_x30_.1.0.2.2.2"
   transform="translate(271.72795,90.250767)">
					<title
   id="0.1.0.2.2.2.0">package:CHIP-LED0805</title>
				</g><g
   id="g10"
   transform="matrix(3.0433246,0,0,3.0433246,-23.827877,-3.8910619)"
   style="fill:#4dadeb;fill-opacity:1;stroke:none;stroke-width:1.00942;stroke-dasharray:none;stroke-opacity:1">
		
		
		
	</g><g
   id="g11"
   transform="matrix(3.0433246,0,0,-3.0433246,-23.827877,192.86744)"
   style="fill:#4dadeb;fill-opacity:1;stroke:none;stroke-width:1.00942;stroke-dasharray:none;stroke-opacity:1">
		
		
		
	</g><g
   id="g12"
   transform="matrix(-3.0433246,0,0,3.0433246,401.78064,-3.8910619)"
   style="fill:#4dadeb;fill-opacity:1;stroke:none;stroke-width:1.00942;stroke-dasharray:none;stroke-opacity:1">
		
		
		
	</g><g
   id="g13"
   transform="matrix(-3.0433246,0,0,-3.0433246,401.78064,192.86744)"
   style="fill:#4dadeb;fill-opacity:1;stroke:none;stroke-width:1.00942;stroke-dasharray:none;stroke-opacity:1">
		
		
		
	</g><path
   id="path1"
   style="fill:#275f83;fill-opacity:1;stroke-width:0.679645"
   d="m 200.2167,9.8723291 c 0,-1.0268465 -0.89337,-1.8594715 -1.99513,-1.8594715 H 69.172324 c -1.101056,0 -1.995129,0.832625 -1.995129,1.8594715 V 254.14053 c 0,1.02685 0.894073,1.85947 1.995129,1.85947 h 62.011126 v -14.92957 h 3.37975 V 256 h 47.916 v -14.92957 h 3.37975 V 256 h 12.36262 c 1.10176,0 1.99513,-0.83262 1.99513,-1.85947 z m -2.20413,4.4391399 a 4.5549559,4.2452447 0 0 1 -4.554,4.24564 4.5549559,4.2452447 0 0 1 -4.55537,-4.24564 4.5549559,4.2452447 0 0 1 4.55537,-4.244354 4.5549559,4.2452447 0 0 1 4.554,4.244354 z m 0,235.389921 a 4.5549559,4.2452447 0 0 1 -4.554,4.24435 4.5549559,4.2452447 0 0 1 -4.55537,-4.24435 4.5549559,4.2452447 0 0 1 4.55537,-4.24563 4.5549559,4.2452447 0 0 1 4.554,4.24563 z M 78.4907,14.311469 a 4.5549559,4.2452447 0 0 1 -4.55538,4.24564 4.5549559,4.2452447 0 0 1 -4.554,-4.24564 4.5549559,4.2452447 0 0 1 4.554,-4.244354 4.5549559,4.2452447 0 0 1 4.55538,4.244354 z m 0,235.389921 a 4.5549559,4.2452447 0 0 1 -4.55538,4.24435 4.5549559,4.2452447 0 0 1 -4.554,-4.24435 4.5549559,4.2452447 0 0 1 4.554,-4.24563 4.5549559,4.2452447 0 0 1 4.55538,4.24563 z" /><path
   id="connector0pad"
   style="fill:none;stroke:#f7bd13;stroke-width:2.08786;stroke-dasharray:none;stroke-opacity:1"
   d="m 193.45831,18.556968 a 4.5549558,4.2452446 0 0 1 -4.55496,-4.245245 4.5549558,4.2452446 0 0 1 4.55496,-4.245245 4.5549558,4.2452446 0 0 1 4.55495,4.245245 4.5549558,4.2452446 0 0 1 -4.55495,4.245245 z" /><path
   id="connector0pad-4"
   style="fill:none;stroke:#f7bd13;stroke-width:2.08786;stroke-dasharray:none;stroke-opacity:1"
   d="m 73.935727,18.556968 a 4.5549558,4.2452446 0 0 0 4.554956,-4.245245 4.5549558,4.2452446 0 0 0 -4.554956,-4.245245 4.5549558,4.2452446 0 0 0 -4.554956,4.245245 4.5549558,4.2452446 0 0 0 4.554956,4.245245 z" /><path
   id="connector0pad-5"
   style="fill:none;stroke:#f7bd13;stroke-width:2.08786;stroke-dasharray:none;stroke-opacity:1"
   d="m 193.45831,245.45565 a 4.5549558,4.2452446 0 0 0 -4.55496,4.24524 4.5549558,4.2452446 0 0 0 4.55496,4.24524 4.5549558,4.2452446 0 0 0 4.55495,-4.24524 4.5549558,4.2452446 0 0 0 -4.55495,-4.24524 z" /><path
   id="connector0pad-6"
   style="fill:none;stroke:#f7bd13;stroke-width:2.08786;stroke-dasharray:none;stroke-opacity:1"
   d="m 73.935727,245.45565 a 4.5549558,4.2452446 0 0 1 4.554956,4.24524 4.5549558,4.2452446 0 0 1 -4.554956,4.24524 4.5549558,4.2452446 0 0 1 -4.554956,-4.24524 4.5549558,4.2452446 0 0 1 4.554956,-4.24524 z" /><path
   id="path164"
   style="fill:#333333;fill-opacity:1;stroke:none;stroke-width:0.38999;stroke-linecap:round;stroke-linejoin:round;stroke-dasharray:none;stroke-opacity:1"
   d="m 148.9567,145.75629 a 14.876399,13.857508 0 0 0 -14.87613,-13.8575 14.876399,13.857508 0 0 0 -14.87612,13.8575 14.876399,13.857508 0 0 0 14.87612,13.85751 14.876399,13.857508 0 0 0 14.87613,-13.85751 z m -10.1695,0 a 4.7069859,4.3846027 0 0 1 -4.70663,4.38516 4.7069859,4.3846027 0 0 1 -4.70662,-4.38516 4.7069859,4.3846027 0 0 1 4.70662,-4.38515 4.7069859,4.3846027 0 0 1 4.70663,4.38515 z" /><path
   id="path164-0"
   style="fill:#333333;fill-opacity:1;stroke:none;stroke-width:0.744333;stroke-linecap:round;stroke-linejoin:round;stroke-dasharray:none;stroke-opacity:1"
   d="m 147.50057,103.48391 c -0.03,-10.8586 -7.17651,-20.597436 -18.02349,-24.561372 v -7.343042 c 0,-0.730931 -0.632,-1.319954 -1.41625,-1.319954 H 110.1707 c -0.78426,0 -1.41488,0.589023 -1.41488,1.319954 v 7.343042 c -10.847519,3.963523 -17.994632,13.702457 -18.024869,24.561372 -1.2e-4,14.6108 12.708489,26.45529 28.385499,26.45545 15.67647,-6.6e-4 28.38424,-11.84515 28.38412,-26.45545 z"
   sodipodi:nodetypes="ccsssscccc" /><path
   id="path164-8"
   style="fill:#bbbbbb;fill-opacity:1;stroke:none;stroke-width:0.667015;stroke-linecap:round;stroke-linejoin:round;stroke-dasharray:none;stroke-opacity:1"
   d="m 144.55913,103.77175 c 0,-13.089536 -11.39125,-23.700811 -25.44323,-23.701027 -14.05199,2.16e-4 -25.443229,10.611491 -25.443229,23.701027 0,13.08955 11.391239,23.70082 25.443229,23.70103 14.05198,-2.1e-4 25.44323,-10.61148 25.44323,-23.70103 z"
   sodipodi:nodetypes="scscs" /><rect
   fill="#1a1a1a"
   x="-182.47957"
   width="47.916698"
   height="62.98867"
   id="rect40"
   y="-255.99973"
   transform="scale(-1)"
   style="stroke-width:0.172608" /><rect
   fill="#999999"
   stroke="#ffffff"
   stroke-width="0.453081"
   x="-179.97646"
   y="-238.33624"
   width="43.268063"
   height="43.658813"
   rx="0.71517456"
   ry="0.66654676"
   id="rect41"
   transform="scale(-1)" /><path
   fill="none"
   stroke="#4d4d4d"
   stroke-width="1.54109"
   d="m 142.60859,240.00264 v 14.33075 h 11.97917 v -7.33202 h 6.43658 v 7.33202 h 6.25777 v -7.33202 h 6.61537 v 7.33202 h 5.5426 v -11.83121 m -30.9313,11.83121 v -14.33075"
   id="path100" /><path
   id="rect142-3"
   style="fill:#333333;stroke-width:1.04414"
   class="body"
   d="m 111.97833,212.45384 v 17.12398 H 93.041162 v -17.12398 z"
   sodipodi:nodetypes="ccccc" /><rect
   style="fill:#333333;fill-opacity:1;stroke:none;stroke-width:0.673167;stroke-linecap:round;stroke-linejoin:round;stroke-dasharray:none;stroke-opacity:1"
   id="rect707"
   width="24.676626"
   height="11.426047"
   x="98.020195"
   y="-82.307907"
   transform="rotate(90)" /><rect
   style="fill:#333333;fill-opacity:1;stroke:none;stroke-width:0.673167;stroke-linecap:round;stroke-linejoin:round;stroke-dasharray:none;stroke-opacity:1"
   id="rect708"
   width="24.676626"
   height="11.426047"
   x="70.741638"
   y="-82.307907"
   transform="rotate(90)" /><path
   style="fill:#2e3436;fill-opacity:1;stroke-width:0.726247;stroke-linejoin:round;stroke-opacity:0.580986"
   d="m 165.10627,0.226436 h 15.50044 c 2.5834,0 5.16681,2.5408384 5.16681,5.0816768 V 18.012305 c 0,2.540839 -2.58341,5.081677 -5.16681,5.081677 h -15.50044 c -2.5834,0 -5.16681,-2.540838 -5.16681,-5.081677 V 5.3081128 c 0,-2.5408384 2.58341,-5.0816768 5.16681,-5.0816768 z"
   id="path450"
   sodipodi:nodetypes="ccccccccc" /><path
   id="path1058"
   style="fill:#fce94f;fill-opacity:1;stroke-width:0.726247;stroke-linejoin:round;stroke-opacity:0.580986"
   d="m 170.27308,5.3081128 a 2.583406,2.5408384 0 0 1 -2.5834,2.5408384 2.583406,2.5408384 0 0 1 -2.58341,-2.5408384 2.583406,2.5408384 0 0 1 2.58341,-2.5408384 2.583406,2.5408384 0 0 1 2.5834,2.5408384 z" /><path
   id="path1061"
   style="fill:#fce94f;fill-opacity:1;stroke-width:0.726247;stroke-linejoin:round;stroke-opacity:0.580986"
   d="m 180.60671,5.3081128 a 2.583406,2.5408384 0 0 1 -2.58341,2.5408384 2.583406,2.5408384 0 0 1 -2.5834,-2.5408384 2.583406,2.5408384 0 0 1 2.5834,-2.5408384 2.583406,2.5408384 0 0 1 2.58341,2.5408384 z" /><path
   style="fill:#2e3436;fill-opacity:1;stroke-width:0.726247;stroke-linejoin:round;stroke-opacity:0.580986"
   d="m 85.253242,-2e-6 h 15.500438 c 2.5834,0 5.16681,2.5408384 5.16681,5.0816768 V 17.785867 c 0,2.540839 -2.58341,5.081677 -5.16681,5.081677 H 85.253242 c -2.583406,0 -5.166812,-2.540838 -5.166812,-5.081677 V 5.0816748 C 80.08643,2.5408364 82.669836,-2e-6 85.253242,-2e-6 Z"
   id="path450-7"
   sodipodi:nodetypes="ccccccccc" /><path
   id="path1058-2"
   style="fill:#fce94f;fill-opacity:1;stroke-width:0.726247;stroke-linejoin:round;stroke-opacity:0.580986"
   d="M 90.420054,5.0816748 A 2.583406,2.5408384 0 0 1 87.836648,7.6225132 2.583406,2.5408384 0 0 1 85.253242,5.0816748 2.583406,2.5408384 0 0 1 87.836648,2.5408364 2.583406,2.5408384 0 0 1 90.420054,5.0816748 Z" /><path
   id="path1061-8"
   style="fill:#fce94f;fill-opacity:1;stroke-width:0.726247;stroke-linejoin:round;stroke-opacity:0.580986"
   d="M 100.75368,5.0816748 A 2.583406,2.5408384 0 0 1 98.170272,7.6225132 2.583406,2.5408384 0 0 1 95.586866,5.0816748 2.583406,2.5408384 0 0 1 98.170272,2.5408364 2.583406,2.5408384 0 0 1 100.75368,5.0816748 Z" /><path
   id="path14"
   style="fill:#333333;stroke-width:1.04414"
   class="body"
   d="M 111.97833,38.862996 V 55.986972 H 93.041162 V 38.862996 Z"
   sodipodi:nodetypes="ccccc" /><path
   style="fill:#2e3436;fill-opacity:1;stroke-width:1.54124;stroke-linejoin:round;stroke-opacity:0.580986"
   d="m 181.41297,158.62563 v -52.49056 c 0,-5.24906 2.816,-10.498114 8.448,-10.498114 5.76321,-0.146868 8.448,5.249054 8.448,10.498114 v 52.49056 c 0,5.24906 -2.816,10.49811 -8.448,10.49811 -5.632,0 -8.448,-5.24905 -8.448,-10.49811 z"
   id="path900"
   sodipodi:nodetypes="ccccccc" /><path
   id="path902"
   style="fill:#fce94f;fill-opacity:1;stroke-width:1.15593;stroke-linejoin:round;stroke-opacity:0.580986"
   d="m 189.86097,154.68884 a 4.224,3.936792 0 0 1 4.224,3.93679 4.224,3.936792 0 0 1 -4.224,3.93679 4.224,3.936792 0 0 1 -4.224,-3.93679 4.224,3.936792 0 0 1 4.224,-3.93679 z" /><path
   id="path904"
   style="fill:#fce94f;fill-opacity:1;stroke-width:1.15593;stroke-linejoin:round;stroke-opacity:0.580986"
   d="m 189.86097,144.19072 a 4.224,3.936792 0 0 1 4.224,3.9368 4.224,3.936792 0 0 1 -4.224,3.93679 4.224,3.936792 0 0 1 -4.224,-3.93679 4.224,3.936792 0 0 1 4.224,-3.9368 z" /><path
   id="path906"
   style="fill:#fce94f;fill-opacity:1;stroke-width:1.15593;stroke-linejoin:round;stroke-opacity:0.580986"
   d="m 189.86097,133.69261 a 4.224,3.936792 0 0 1 4.224,3.93679 4.224,3.936792 0 0 1 -4.224,3.9368 4.224,3.936792 0 0 1 -4.224,-3.9368 4.224,3.936792 0 0 1 4.224,-3.93679 z" /><path
   id="path908"
   style="fill:#fce94f;fill-opacity:1;stroke-width:1.15593;stroke-linejoin:round;stroke-opacity:0.580986"
   d="m 189.86097,123.1945 a 4.224,3.936792 0 0 1 4.224,3.93679 4.224,3.936792 0 0 1 -4.224,3.93679 4.224,3.936792 0 0 1 -4.224,-3.93679 4.224,3.936792 0 0 1 4.224,-3.93679 z" /><path
   id="path910"
   style="fill:#fce94f;fill-opacity:1;stroke-width:1.15593;stroke-linejoin:round;stroke-opacity:0.580986"
   d="m 189.86097,112.69639 a 4.224,3.936792 0 0 1 4.224,3.93679 4.224,3.936792 0 0 1 -4.224,3.93679 4.224,3.936792 0 0 1 -4.224,-3.93679 4.224,3.936792 0 0 1 4.224,-3.93679 z" /><path
   id="path912"
   style="fill:#fce94f;fill-opacity:1;stroke-width:1.15593;stroke-linejoin:round;stroke-opacity:0.580986"
   d="m 189.86097,102.19828 a 4.224,3.936792 0 0 1 4.224,3.93679 4.224,3.936792 0 0 1 -4.224,3.93679 4.224,3.936792 0 0 1 -4.224,-3.93679 4.224,3.936792 0 0 1 4.224,-3.93679 z" /></svg>
