<?xml version="1.0" encoding="UTF-8" standalone="no"?>
<svg
   fill="none"
   viewBox="0 0 48 48"
   height="256"
   width="256"
   version="1.1"
   id="svg6"
   sodipodi:docname="gd32start.svg"
   inkscape:version="1.2.1 (9c6d41e410, 2022-07-14)"
   xmlns:inkscape="http://www.inkscape.org/namespaces/inkscape"
   xmlns:sodipodi="http://sodipodi.sourceforge.net/DTD/sodipodi-0.dtd"
   xmlns="http://www.w3.org/2000/svg"
   xmlns:svg="http://www.w3.org/2000/svg">
  <defs
     id="defs10" />
  <sodipodi:namedview
     id="namedview8"
     pagecolor="#ffffff"
     bordercolor="#666666"
     borderopacity="1.0"
     inkscape:showpageshadow="2"
     inkscape:pageopacity="0.0"
     inkscape:pagecheckerboard="true"
     inkscape:deskcolor="#d1d1d1"
     showgrid="true"
     inkscape:zoom="0.40478514"
     inkscape:cx="-412.56455"
     inkscape:cy="-132.16888"
     inkscape:current-layer="svg6"
     showguides="false"
     inkscape:window-width="1920"
     inkscape:window-height="730"
     inkscape:window-x="-6"
     inkscape:window-y="-6"
     inkscape:window-maximized="1">
    <inkscape:grid
       type="xygrid"
       id="grid239"
       units="px"
       spacingx="1.5"
       spacingy="1.5" />
  </sodipodi:namedview>
  <path
     id="rect897"
     style="fill:#babdb6;fill-opacity:1;stroke:none;stroke-width:0.363088;stroke-linejoin:round;stroke-opacity:0.580986"
     d="m 34.545776,2.295961 c 5.120294,0.2698197 9.013548,4.1634678 9.283448,9.283814 0.167099,3.171297 0.295898,7.281215 0.295898,12.42041 0,5.139095 -0.128799,9.24948 -0.295898,12.420776 -0.2698,5.120295 -4.163154,9.013648 -9.283448,9.283448 H 13.45459 C 8.334265,45.434609 4.440586,41.541256 4.170776,36.420961 4.003667,33.249665 3.875244,29.13938 3.875244,24.000185 c 0,-5.139195 0.128423,-9.249113 0.295532,-12.42041 0.26981,-5.1203362 4.163479,-9.0140043 9.283814,-9.283814 z"
     sodipodi:nodetypes="ccssccssscc" />
  <path
     id="path2-4"
     style="fill:#2e3436;fill-opacity:1;stroke-width:0.246037"
     d="m 18.587201,31.716306 c 0,0.18684 0.02021,0.318385 0.04422,0.408828 0.03217,0.121125 0.148286,0.179512 0.273559,0.183474 0.234006,0.0074 0.638663,0.01871 0.988906,0.02183 0.0051,0.08008 0.01027,0.157709 0.01552,0.229888 0.04574,0.62912 0.526229,1.109611 1.155349,1.155349 0.07218,0.0053 0.149676,0.01039 0.229751,0.01552 0.0031,0.350242 0.01457,0.7549 0.02197,0.988907 0.004,0.125271 0.06221,0.241397 0.183334,0.27356 0.09044,0.02401 0.222125,0.04408 0.408966,0.04408 0.186841,0 0.318385,-0.02007 0.40883,-0.04408 0.12115,-0.03217 0.179512,-0.148287 0.183473,-0.273559 0.007,-0.221817 0.01753,-0.596604 0.02128,-0.933426 0.265269,0.0078 0.55291,0.0137 0.864213,0.01717 0.0039,0.332327 0.01425,0.698209 0.02115,0.916259 0.004,0.125271 0.06235,0.241397 0.183473,0.273559 0.09044,0.02401 0.221987,0.04408 0.408828,0.04408 0.186841,0 0.318522,-0.02007 0.408966,-0.04408 0.12115,-0.03217 0.179374,-0.148289 0.183334,-0.273561 0.0069,-0.218047 0.01723,-0.583929 0.02115,-0.91626 0.311287,-0.0035 0.598951,-0.0094 0.864213,-0.01717 0.0038,0.336823 0.01441,0.711609 0.02143,0.933426 0.004,0.125271 0.06233,0.241395 0.183473,0.273559 0.09044,0.02401 0.221988,0.04408 0.408828,0.04408 0.186841,-2e-6 0.318388,-0.02007 0.408829,-0.04408 0.121126,-0.03216 0.179512,-0.148288 0.183474,-0.273559 0.0074,-0.234007 0.01871,-0.638666 0.02183,-0.988908 0.08008,-0.0051 0.157713,-0.01028 0.229891,-0.01552 0.629117,-0.04574 1.109611,-0.526228 1.155349,-1.155349 0.0053,-0.0727 0.01049,-0.150824 0.01566,-0.231537 0.11178,0.0017 0.221505,0.0026 0.322312,0.0026 0.304077,0 0.536305,-0.0091 0.682525,-0.01717 0.115561,-0.0064 0.22152,-0.06225 0.253233,-0.173585 0.02583,-0.09069 0.04834,-0.226558 0.04834,-0.424347 2e-6,-0.19779 -0.02251,-0.333657 -0.04834,-0.424347 -0.03171,-0.111304 -0.13767,-0.167213 -0.253234,-0.173585 -0.146222,-0.008 -0.378448,-0.01717 -0.682525,-0.01717 -0.084,0 -0.174572,7.51e-4 -0.266969,0.002 0.0078,-0.265462 0.01369,-0.553326 0.01717,-0.864897 0.08634,9.97e-4 0.171049,0.0018 0.249802,0.0018 0.304077,0 0.536305,-0.009 0.682525,-0.01703 0.115563,-0.0064 0.221522,-0.06242 0.253232,-0.173724 0.02585,-0.09069 0.04834,-0.22642 0.04834,-0.424209 0,-0.197791 -0.02251,-0.333659 -0.04834,-0.424347 -0.03171,-0.111331 -0.137673,-0.167373 -0.253234,-0.173726 -0.146222,-0.008 -0.378447,-0.01703 -0.682524,-0.01703 -0.07875,7e-6 -0.16346,7.51e-4 -0.249803,0.0018 -0.0034,-0.311572 -0.0094,-0.599437 -0.01717,-0.864899 0.0924,0.0011 0.182966,0.0019 0.26697,0.0019 0.304077,0 0.536305,-0.0091 0.682525,-0.01717 0.115563,-0.0064 0.221519,-0.06228 0.253234,-0.173586 0.02583,-0.09069 0.04834,-0.226557 0.04834,-0.424348 0,-0.197789 -0.02251,-0.333656 -0.04834,-0.424346 -0.03171,-0.111331 -0.137668,-0.167238 -0.253233,-0.173584 -0.146223,-0.008 -0.378449,-0.01717 -0.682526,-0.01717 -0.100805,0 -0.210532,9.75e-4 -0.322312,0.0026 -0.0052,-0.08071 -0.01037,-0.158838 -0.01566,-0.231537 -0.04574,-0.629116 -0.526232,-1.10961 -1.155349,-1.155349 -0.0727,-0.0053 -0.150826,-0.01048 -0.231537,-0.01566 0.0017,-0.111779 0.0026,-0.221506 0.0026,-0.322312 -1e-6,-0.304076 -0.0091,-0.536305 -0.01717,-0.682526 -0.0064,-0.115562 -0.06225,-0.221521 -0.173584,-0.253234 -0.09069,-0.02583 -0.226557,-0.04834 -0.424346,-0.04834 -0.197791,-10e-7 -0.33366,0.02251 -0.424348,0.04834 -0.111305,0.03171 -0.167353,0.137669 -0.173724,0.253231 -0.008,0.146223 -0.01703,0.37845 -0.01703,0.682527 0,0.084 7.51e-4,0.174571 0.0019,0.266968 -0.26545,-0.0078 -0.553342,-0.0137 -0.864898,-0.01717 9.97e-4,-0.08634 0.0018,-0.171049 0.0018,-0.249801 0,-0.304077 -0.009,-0.536305 -0.01703,-0.682524 -0.0064,-0.115564 -0.06242,-0.221523 -0.173725,-0.253233 -0.09069,-0.02584 -0.226558,-0.04834 -0.424348,-0.04834 -0.197787,0 -0.333656,0.02251 -0.424346,0.04834 -0.111331,0.03171 -0.167232,0.137675 -0.173586,0.253234 -0.008,0.146223 -0.01717,0.378447 -0.01717,0.682525 8e-6,0.07875 7.51e-4,0.163461 0.0018,0.249802 -0.311486,0.0035 -0.599362,0.0094 -0.864762,0.01717 0.0012,-0.09241 0.0019,-0.182965 0.0019,-0.266968 0,-0.304077 -0.0091,-0.536306 -0.01717,-0.682526 -0.0064,-0.115563 -0.06227,-0.221521 -0.173584,-0.253233 -0.09069,-0.02583 -0.226558,-0.04834 -0.424347,-0.04834 -0.19779,0 -0.333658,0.02251 -0.424347,0.04834 -0.111331,0.03171 -0.167372,0.137674 -0.173717,0.253239 -0.008,0.146222 -0.01703,0.378448 -0.01703,0.682525 0,0.100805 9.75e-4,0.210534 0.0026,0.322312 -0.08076,0.0052 -0.158804,0.01037 -0.231537,0.01566 -0.629123,0.04574 -1.109611,0.526233 -1.155351,1.155348 -0.0053,0.07218 -0.01039,0.149807 -0.01552,0.229889 -0.350244,0.0031 -0.754901,0.01443 -0.988909,0.02184 -0.125271,0.004 -0.241397,0.06235 -0.273558,0.183472 -0.02402,0.09045 -0.04422,0.221989 -0.04422,0.408829 0,0.186842 0.02021,0.318387 0.04422,0.408829 0.03216,0.121146 0.148287,0.179514 0.273558,0.183473 0.221834,0.007 0.596586,0.01753 0.933427,0.02128 -0.0078,0.265309 -0.0137,0.552993 -0.01717,0.864349 -0.332329,0.0039 -0.698211,0.01412 -0.91626,0.02101 -0.125271,0.004 -0.241397,0.06235 -0.273558,0.183473 -0.02401,0.09044 -0.04422,0.221989 -0.04422,0.408829 0,0.18684 0.02021,0.318523 0.04422,0.408966 0.03216,0.121145 0.148287,0.179512 0.273558,0.183473 0.218058,0.0069 0.583914,0.0171 0.91626,0.02101 0.0035,0.311357 0.0094,0.599042 0.01717,0.864349 -0.336841,0.0038 -0.711593,0.01426 -0.933425,0.02128 -0.125272,0.004 -0.241396,0.06233 -0.273559,0.183473 -0.02402,0.09045 -0.04422,0.221988 -0.04422,0.408829 z" />
  <path
     style="fill:#2e3436;fill-opacity:1;stroke-width:0.425197;stroke-linejoin:round;stroke-opacity:0.580986"
     d="m 34.5,24.375 v -12 c 0,-1.5 1.5,-3 3,-3 1.5,0 3,1.5 3,3 v 12 c 0,1.5 -1.5,3 -3,3 -1.5,0 -3,-1.5 -3,-3 z"
     id="path1936"
     sodipodi:nodetypes="ccccccc" />
  <path
     id="path1938"
     style="fill:#fce94f;stroke-width:0.318898;stroke-linejoin:round;stroke-opacity:0.580986;fill-opacity:1"
     d="m 37.5,20.25 c 0.62132,0 1.125,0.50368 1.125,1.125 0,0.62132 -0.50368,1.125 -1.125,1.125 -0.62132,0 -1.125,-0.50368 -1.125,-1.125 0,-0.62132 0.50368,-1.125 1.125,-1.125 z"
     sodipodi:nodetypes="sssss" />
  <path
     id="path1940"
     style="fill:#fce94f;stroke-width:0.318898;stroke-linejoin:round;stroke-opacity:0.580986;fill-opacity:1"
     d="m 37.5,17.25 c 0.62132,0 1.125,0.50368 1.125,1.125 0,0.62132 -0.50368,1.125 -1.125,1.125 -0.62132,0 -1.125,-0.50368 -1.125,-1.125 0,-0.62132 0.50368,-1.125 1.125,-1.125 z"
     sodipodi:nodetypes="sssss" />
  <path
     id="path1942"
     style="fill:#fce94f;stroke-width:0.318898;stroke-linejoin:round;stroke-opacity:0.580986;fill-opacity:1"
     d="m 37.5,14.25 c 0.62132,0 1.125,0.50368 1.125,1.125 0,0.62132 -0.50368,1.125 -1.125,1.125 -0.62132,0 -1.125,-0.50368 -1.125,-1.125 0,-0.62132 0.50368,-1.125 1.125,-1.125 z"
     sodipodi:nodetypes="sssss" />
  <path
     id="path1944"
     style="fill:#fce94f;stroke-width:0.318898;stroke-linejoin:round;stroke-opacity:0.580986;fill-opacity:1"
     d="m 37.5,11.25 c 0.62132,0 1.125,0.50368 1.125,1.125 0,0.62132 -0.50368,1.125 -1.125,1.125 -0.62132,0 -1.125,-0.50368 -1.125,-1.125 0,-0.62132 0.50368,-1.125 1.125,-1.125 z"
     sodipodi:nodetypes="sssss" />
  <path
     id="path1950"
     style="fill:#fce94f;stroke-width:0.318898;stroke-linejoin:round;stroke-opacity:0.580986;fill-opacity:1"
     d="m 37.5,23.25 c 0.62132,0 1.125,0.50368 1.125,1.125 0,0.62132 -0.50368,1.125 -1.125,1.125 -0.62132,0 -1.125,-0.50368 -1.125,-1.125 0,-0.62132 0.50368,-1.125 1.125,-1.125 z"
     sodipodi:nodetypes="sssss" />
  <path
     style="fill:#2e3436;fill-opacity:1;stroke-width:0.425197;stroke-linejoin:round;stroke-opacity:0.580986"
     d="m 34.504374,39.004374 v -6 c 0,-1.5 1.5,-3 3,-3 1.495626,-0.0044 3,1.5 3,3 v 6 c 0,1.5 -1.5,3 -3,3 -1.5,0 -3,-1.5 -3,-3 z"
     id="path3515"
     sodipodi:nodetypes="ccccccc" />
  <path
     id="path1058-3"
     style="fill:#fce94f;stroke-width:0.318898;stroke-linejoin:round;stroke-opacity:0.580986;fill-opacity:1"
     d="m 37.504374,37.879374 a 1.125,1.125 0 0 1 1.125,1.125 1.125,1.125 0 0 1 -1.125,1.125 1.125,1.125 0 0 1 -1.125,-1.125 1.125,1.125 0 0 1 1.125,-1.125 z" />
  <path
     id="path3539"
     style="fill:#fce94f;stroke-width:0.318898;stroke-linejoin:round;stroke-opacity:0.580986;fill-opacity:1"
     d="m 37.504374,34.879374 a 1.125,1.125 0 0 1 1.125,1.125 1.125,1.125 0 0 1 -1.125,1.125 1.125,1.125 0 0 1 -1.125,-1.125 1.125,1.125 0 0 1 1.125,-1.125 z" />
  <path
     id="path3541"
     style="fill:#fce94f;stroke-width:0.318898;stroke-linejoin:round;stroke-opacity:0.580986;fill-opacity:1"
     d="m 37.504374,31.879374 a 1.125,1.125 0 0 1 1.125,1.125 1.125,1.125 0 0 1 -1.125,1.125 1.125,1.125 0 0 1 -1.125,-1.125 1.125,1.125 0 0 1 1.125,-1.125 z" />
  <path
     style="fill:#2e3436;fill-opacity:1;stroke-width:0.425197;stroke-linejoin:round;stroke-opacity:0.580986"
     d="m 7.5,24.375 v -12 c 0,-1.5 1.5,-3 3,-3 1.5,0 3,1.5 3,3 v 12 c 0,1.5 -1.5,3 -3,3 -1.5,0 -3,-1.5 -3,-3 z"
     id="path4497"
     sodipodi:nodetypes="ccccccc" />
  <path
     id="path4499"
     style="fill:#fce94f;stroke-width:0.318898;stroke-linejoin:round;stroke-opacity:0.580986;fill-opacity:1"
     d="m 10.5,20.25 c 0.62132,0 1.125,0.50368 1.125,1.125 0,0.62132 -0.50368,1.125 -1.125,1.125 -0.62132,0 -1.125,-0.50368 -1.125,-1.125 0,-0.62132 0.50368,-1.125 1.125,-1.125 z"
     sodipodi:nodetypes="sssss" />
  <path
     id="path4501"
     style="fill:#fce94f;stroke-width:0.318898;stroke-linejoin:round;stroke-opacity:0.580986;fill-opacity:1"
     d="m 10.5,17.25 c 0.62132,0 1.125,0.50368 1.125,1.125 0,0.62132 -0.50368,1.125 -1.125,1.125 -0.62132,0 -1.125,-0.50368 -1.125,-1.125 0,-0.62132 0.50368,-1.125 1.125,-1.125 z"
     sodipodi:nodetypes="sssss" />
  <path
     id="path4503"
     style="fill:#fce94f;stroke-width:0.318898;stroke-linejoin:round;stroke-opacity:0.580986;fill-opacity:1"
     d="m 10.5,14.25 c 0.62132,0 1.125,0.50368 1.125,1.125 0,0.62132 -0.50368,1.125 -1.125,1.125 -0.62132,0 -1.125,-0.50368 -1.125,-1.125 0,-0.62132 0.50368,-1.125 1.125,-1.125 z"
     sodipodi:nodetypes="sssss" />
  <path
     id="path4505"
     style="fill:#fce94f;stroke-width:0.318898;stroke-linejoin:round;stroke-opacity:0.580986;fill-opacity:1"
     d="m 10.5,11.25 c 0.62132,0 1.125,0.50368 1.125,1.125 0,0.62132 -0.50368,1.125 -1.125,1.125 -0.62132,0 -1.125,-0.50368 -1.125,-1.125 0,-0.62132 0.50368,-1.125 1.125,-1.125 z"
     sodipodi:nodetypes="sssss" />
  <path
     id="path4507"
     style="fill:#fce94f;stroke-width:0.318898;stroke-linejoin:round;stroke-opacity:0.580986;fill-opacity:1"
     d="m 10.5,23.25 c 0.62132,0 1.125,0.50368 1.125,1.125 0,0.62132 -0.50368,1.125 -1.125,1.125 -0.62132,0 -1.125,-0.50368 -1.125,-1.125 0,-0.62132 0.50368,-1.125 1.125,-1.125 z"
     sodipodi:nodetypes="sssss" />
  <path
     style="fill:#2e3436;fill-opacity:1;stroke-width:0.425197;stroke-linejoin:round;stroke-opacity:0.580986"
     d="m 7.504374,39.004374 v -6 c 0,-1.5 1.5,-3 3,-3 1.495626,-0.0044 3,1.5 3,3 v 6 c 0,1.5 -1.5,3 -3,3 -1.5,0 -3,-1.5 -3,-3 z"
     id="path4511"
     sodipodi:nodetypes="ccccccc" />
  <path
     id="path4513"
     style="fill:#fce94f;stroke-width:0.318898;stroke-linejoin:round;stroke-opacity:0.580986;fill-opacity:1"
     d="m 10.504374,37.879374 a 1.125,1.125 0 0 1 1.125,1.125 1.125,1.125 0 0 1 -1.125,1.125 1.125,1.125 0 0 1 -1.125,-1.125 1.125,1.125 0 0 1 1.125,-1.125 z" />
  <path
     id="path4515"
     style="fill:#fce94f;stroke-width:0.318898;stroke-linejoin:round;stroke-opacity:0.580986;fill-opacity:1"
     d="m 10.504374,34.879374 a 1.125,1.125 0 0 1 1.125,1.125 1.125,1.125 0 0 1 -1.125,1.125 1.125,1.125 0 0 1 -1.125,-1.125 1.125,1.125 0 0 1 1.125,-1.125 z" />
  <path
     id="path4517"
     style="fill:#fce94f;stroke-width:0.318898;stroke-linejoin:round;stroke-opacity:0.580986;fill-opacity:1"
     d="m 10.504374,31.879374 a 1.125,1.125 0 0 1 1.125,1.125 1.125,1.125 0 0 1 -1.125,1.125 1.125,1.125 0 0 1 -1.125,-1.125 1.125,1.125 0 0 1 1.125,-1.125 z" />
  <path
     id="rect346"
     style="fill:#2e3436;stroke-width:2.8125;stroke-linejoin:round;fill-opacity:1"
     d="m 16.076851,5.1255831 c -0.100478,4.875e-4 -0.226693,0.00974 -0.391662,0.023618 -0.38057,0.031725 -0.864238,0.1372838 -1.075287,0.2337345 -0.211011,0.096787 -0.439397,0.175506 -0.507294,0.175506 -0.178725,0 -0.684903,0.400089 -1.095062,0.8654483 -0.321587,0.3650827 -0.339265,0.437175 -0.191712,0.7775572 0.14215,0.3273315 0.231738,0.376539 0.707795,0.3847965 0.299789,0.0051 0.635023,0.030142 0.743224,0.056032 0.108903,0.025125 0.550278,0.1046828 0.980805,0.1763303 0.430272,0.071648 0.835043,0.1797502 0.898132,0.2408752 0.0626,0.06069 0.09775,0.4735238 0.07635,0.9173589 l -0.03873,0.806945 -0.880828,-0.0423 c -0.77349,-0.03678 -0.898349,-0.01104 -1.023377,0.212311 -0.338539,0.603962 0.0023,1.112256 0.533387,0.79541 0.372744,-0.222322 0.52647,-0.187859 1.69931,0.380402 0.906121,0.439491 1.126919,0.501977 1.334289,0.378479 0.364184,-0.21699 0.638918,-0.183365 1.363679,0.167816 0.357198,0.173062 0.784575,0.314758 0.949767,0.314758 0.165136,0 0.339957,0.06146 0.388917,0.137878 C 20.653759,12.291085 21.936371,12.206509 22.5,12 c 0.205661,-0.07515 0.432989,-0.102033 0.505371,-0.05987 0.28698,0.169396 1.246247,1.235191 1.455414,1.617737 0.239559,0.437444 1.20651,1.333465 1.439209,1.333465 0.343639,0 3.40651,1.544776 3.884491,1.959138 0.619075,0.536777 1.892148,1.276076 2.332947,1.354888 l -0.0014,5.5e-4 c 0.401626,0.07193 0.545137,0.04278 0.603149,-0.122498 0.07381,-0.211737 -0.347144,-0.542724 -0.690216,-0.542724 -0.537998,0 -1.783356,-1.258776 -1.783356,-1.802583 0,-0.322086 -0.491204,-0.692124 -0.835235,-0.628967 -0.58993,0.10769 -0.863747,-0.315225 -0.865997,-1.343353 -0.0028,-0.823924 0.01823,-0.891815 0.275207,-0.891815 0.153124,0 0.491772,0.156176 0.753112,0.346893 1.296705,0.947723 2.163229,1.058968 3.775452,0.48587 0.508012,-0.180628 1.172861,-0.328216 1.477662,-0.328216 0.629487,0 0.830868,-0.183406 0.524597,-0.475708 -0.182681,-0.174826 -0.277666,-0.177951 -0.774811,-0.02829 -0.311749,0.094 -0.626266,0.20991 -0.698731,0.257355 -0.290097,0.190409 -1.807975,0.624572 -2.183532,0.624572 -0.849997,0 -1.884646,-0.743289 -2.426056,-1.74298 -0.110495,-0.204023 -0.385449,-0.519432 -0.61139,-0.700928 -1.107186,-0.860629 -2.57505,-1.080426 -3.956726,-1.115661 -0.689932,-0.0241 -1.314009,-0.07518 -1.386474,-0.115632 -0.07268,-0.04043 -0.297336,-0.110732 -0.498779,-0.157104 -0.656463,-0.149961 -1.601271,-0.80991 -2.208252,-1.5422059 -0.821521,-0.9912007 -1.183739,-1.309845 -1.487824,-1.309845 -0.410368,0 -2.226832,-1.1561182 -2.496918,-1.5894472 -0.174539,-0.279669 -0.242662,-0.3585555 -0.544098,-0.3570555 z" />
</svg>
