<?xml version="1.0" encoding="UTF-8" standalone="no"?>
<svg
   fill="none"
   viewBox="0 0 48 48"
   height="256"
   width="256"
   version="1.1"
   id="svg6"
   sodipodi:docname="hpmicro_evk.svg"
   inkscape:version="1.2.1 (9c6d41e410, 2022-07-14)"
   xmlns:inkscape="http://www.inkscape.org/namespaces/inkscape"
   xmlns:sodipodi="http://sodipodi.sourceforge.net/DTD/sodipodi-0.dtd"
   xmlns="http://www.w3.org/2000/svg"
   xmlns:svg="http://www.w3.org/2000/svg">
  <defs
     id="defs10" />
  <sodipodi:namedview
     id="namedview8"
     pagecolor="#ffffff"
     bordercolor="#666666"
     borderopacity="1.0"
     inkscape:showpageshadow="2"
     inkscape:pageopacity="0.0"
     inkscape:pagecheckerboard="true"
     inkscape:deskcolor="#d1d1d1"
     showgrid="true"
     inkscape:zoom="4.5796212"
     inkscape:cx="123.48183"
     inkscape:cy="235.39065"
     inkscape:current-layer="svg6"
     showguides="false"
     inkscape:window-width="2560"
     inkscape:window-height="1334"
     inkscape:window-x="-11"
     inkscape:window-y="-11"
     inkscape:window-maximized="1">
    <inkscape:grid
       type="xygrid"
       id="grid239"
       units="px"
       spacingx="1.5"
       spacingy="1.5" />
  </sodipodi:namedview>
  <path
     id="rect897"
     style="fill:#888a85;fill-opacity:1;stroke:none;stroke-width:0.363088;stroke-linejoin:round;stroke-opacity:0.580986"
     d="M 13.45459,45.704039 C 8.334296,45.434219 4.441042,41.540571 4.171142,36.420225 4.004043,33.248928 3.875244,29.13901 3.875244,23.999815 c 0,-5.139095 0.128799,-9.24948 0.295898,-12.420776 0.2698,-5.120295 4.163154,-9.013648 9.283448,-9.283448 h 21.091186 c 5.120325,0.2698 9.014004,4.163153 9.283814,9.283448 0.167109,3.171296 0.295532,7.281581 0.295532,12.420776 0,5.139195 -0.128423,9.249113 -0.295532,12.42041 -0.26981,5.120336 -4.163479,9.014004 -9.283814,9.283814 z"
     sodipodi:nodetypes="ccssccssscc" />
  <path
     id="path2-4"
     style="fill:#2e3436;fill-opacity:1;stroke-width:0.307546"
     d="m 17.234167,26.613942 c 0,0.23355 0.02526,0.397981 0.05528,0.511034 0.04022,0.151403 0.185357,0.22439 0.341952,0.229339 0.292508,0.0093 0.798329,0.02339 1.236133,0.02729 0.0064,0.100105 0.01284,0.197137 0.0194,0.287361 0.05718,0.786399 0.657787,1.387013 1.444186,1.444185 0.09023,0.0066 0.187097,0.01299 0.28719,0.0194 0.0039,0.437801 0.01821,0.943624 0.02746,1.236133 0.005,0.156589 0.07776,0.301746 0.229166,0.34195 0.113047,0.03002 0.277657,0.0551 0.511209,0.0551 0.23355,0 0.397982,-0.02509 0.511036,-0.0551 0.151438,-0.04021 0.224391,-0.185359 0.229338,-0.341952 0.0088,-0.277272 0.02191,-0.745754 0.0266,-1.166783 0.331586,0.0098 0.691136,0.01713 1.080265,0.02146 0.0049,0.415411 0.01781,0.872763 0.02644,1.145327 0.005,0.156587 0.07794,0.301745 0.229337,0.341951 0.113046,0.03002 0.277483,0.0551 0.511036,0.0551 0.233548,-1e-6 0.398151,-0.02509 0.511207,-0.0551 0.151437,-0.04021 0.224213,-0.185365 0.229166,-0.34195 0.0086,-0.272561 0.02154,-0.729913 0.02644,-1.145326 0.389109,-0.0044 0.74869,-0.01175 1.080266,-0.02146 0.0047,0.42103 0.01801,0.889511 0.02679,1.166783 0.005,0.156589 0.07791,0.301744 0.229337,0.341951 0.113047,0.03002 0.277485,0.0551 0.511035,0.0551 0.233551,-10e-7 0.397984,-0.02509 0.511036,-0.0551 0.151409,-0.0402 0.224391,-0.185358 0.229338,-0.341951 0.0092,-0.292509 0.02339,-0.798332 0.02729,-1.236136 0.100105,-0.0064 0.197139,-0.01285 0.287362,-0.0194 0.786396,-0.05718 1.387013,-0.657785 1.444186,-1.444185 0.0066,-0.09087 0.01311,-0.18853 0.01957,-0.289422 0.139725,0.0021 0.276881,0.0032 0.402891,0.0032 0.380095,0 0.670381,-0.01138 0.853155,-0.02146 0.144455,-0.008 0.2769,-0.07781 0.316542,-0.216981 0.03228,-0.113361 0.06043,-0.283197 0.06043,-0.530433 1e-6,-0.247238 -0.02814,-0.417072 -0.06043,-0.530434 -0.03964,-0.13913 -0.17209,-0.209015 -0.316543,-0.216982 -0.182778,-0.01 -0.473059,-0.02146 -0.853156,-0.02146 -0.105005,0 -0.218214,9.39e-4 -0.333711,0.0025 0.0098,-0.331828 0.01711,-0.691658 0.02146,-1.081122 0.107933,0.0012 0.213812,0.0022 0.312253,0.0023 0.380096,-1e-6 0.670382,-0.01125 0.853156,-0.02129 0.144455,-0.008 0.276902,-0.07803 0.316536,-0.21716 0.03231,-0.113356 0.06043,-0.283026 0.06043,-0.530262 0,-0.247238 -0.02814,-0.417072 -0.06042,-0.530433 -0.03964,-0.139168 -0.172091,-0.209213 -0.316537,-0.217159 -0.182779,-0.01 -0.47306,-0.02129 -0.853156,-0.02129 -0.09844,9e-6 -0.204325,9.37e-4 -0.312252,0.0023 -0.0043,-0.389466 -0.01175,-0.749296 -0.02146,-1.081124 0.115499,0.0014 0.228707,0.0024 0.33371,0.0024 0.380096,0 0.670382,-0.01138 0.853156,-0.02146 0.144455,-0.008 0.2769,-0.07785 0.316544,-0.216982 0.03229,-0.113362 0.06042,-0.283198 0.06042,-0.530434 1e-6,-0.247237 -0.02814,-0.417072 -0.06043,-0.530433 -0.03963,-0.139167 -0.172083,-0.209051 -0.316541,-0.216981 -0.182779,-0.01 -0.473061,-0.02146 -0.853157,-0.02146 -0.126006,0 -0.263166,0.0012 -0.40289,0.0032 -0.0065,-0.10089 -0.01296,-0.198548 -0.01957,-0.289422 -0.05717,-0.786394 -0.65779,-1.387012 -1.444186,-1.444185 -0.09088,-0.0066 -0.188533,-0.0131 -0.289422,-0.01958 0.0021,-0.139725 0.0033,-0.276881 0.0033,-0.402889 0,-0.380096 -0.01138,-0.670382 -0.02146,-0.853157 -0.008,-0.144455 -0.07781,-0.276901 -0.216982,-0.316542 -0.113354,-0.03229 -0.283196,-0.06043 -0.530433,-0.06043 -0.247236,-1e-6 -0.417072,0.02814 -0.530433,0.06043 -0.139131,0.03964 -0.209192,0.172083 -0.217159,0.316536 -0.01,0.182778 -0.02129,0.473061 -0.02129,0.853157 0,0.105006 9.39e-4,0.218214 0.0024,0.33371 -0.331812,-0.0098 -0.691677,-0.01713 -1.081122,-0.02146 0.0012,-0.107933 0.0023,-0.213811 0.0022,-0.312252 0,-0.380097 -0.01125,-0.670381 -0.02129,-0.853156 -0.008,-0.144455 -0.07803,-0.276902 -0.21716,-0.316536 -0.113363,-0.0323 -0.283197,-0.06043 -0.530434,-0.06043 -0.247236,0 -0.417072,0.02814 -0.530435,0.06042 -0.13916,0.03964 -0.209043,0.17209 -0.216981,0.316542 -0.01,0.182778 -0.02146,0.47306 -0.02146,0.853157 7e-6,0.09844 9.38e-4,0.204325 0.0022,0.312252 -0.389356,0.0044 -0.7492,0.01175 -1.08095,0.02146 0.0015,-0.115506 0.0024,-0.228705 0.0024,-0.333709 0,-0.380097 -0.01138,-0.670383 -0.02146,-0.853158 -0.008,-0.144455 -0.07784,-0.276901 -0.21698,-0.316541 -0.113355,-0.03229 -0.283199,-0.06043 -0.530434,-0.06042 -0.247238,-10e-7 -0.417073,0.02814 -0.530435,0.06042 -0.139167,0.03964 -0.209215,0.172092 -0.217144,0.316549 -0.01,0.182779 -0.02129,0.473061 -0.02129,0.853158 0,0.126006 0.0012,0.263166 0.0033,0.40289 -0.100946,0.0065 -0.198504,0.01296 -0.289421,0.01957 -0.786404,0.05718 -1.387014,0.657791 -1.444189,1.444186 -0.0066,0.09023 -0.01299,0.187258 -0.0194,0.287361 -0.437805,0.0039 -0.943626,0.01804 -1.236135,0.0273 -0.156589,0.005 -0.301747,0.07794 -0.341951,0.229337 -0.03003,0.113055 -0.05528,0.277485 -0.05528,0.511035 0,0.233552 0.02526,0.397984 0.05528,0.511036 0.0402,0.151433 0.185359,0.224392 0.341952,0.229339 0.277292,0.0087 0.745732,0.02191 1.166782,0.0266 -0.0097,0.331636 -0.01712,0.691241 -0.02146,1.080436 -0.41541,0.0049 -0.872762,0.01765 -1.145324,0.02626 -0.156589,0.005 -0.301748,0.07794 -0.341952,0.229337 -0.03002,0.113048 -0.05528,0.277485 -0.05528,0.511037 0,0.23355 0.02526,0.398154 0.05528,0.511206 0.0402,0.151432 0.185358,0.224391 0.341951,0.229338 0.272573,0.0086 0.729894,0.02138 1.145325,0.02626 0.0044,0.389195 0.01175,0.748801 0.02146,1.080436 -0.42105,0.0048 -0.88949,0.01783 -1.166782,0.0266 -0.156588,0.005 -0.301743,0.07791 -0.341951,0.229337 -0.03003,0.113056 -0.05528,0.277486 -0.05527,0.511037 z" />
  <g
     id="g3064"
     transform="matrix(-0.5625,0,0,-0.5625,47.385088,58.125)"
     style="stroke-width:1.77777">
    <path
       style="fill:#2e3436;fill-opacity:1;stroke-width:0.755905;stroke-linejoin:round;stroke-opacity:0.580986"
       d="m 57,18 h 9 c 1.5,0 3,1.5 3,3 v 7.5 c 0,1.5 -1.5,3 -3,3 h -9 c -1.5,0 -3,-1.5 -3,-3 V 21 c 0,-1.5 1.5,-3 3,-3 z"
       id="path450-5"
       sodipodi:nodetypes="ccccccccc" />
    <path
       id="path1058"
       style="fill:#fce94f;fill-opacity:1;stroke-width:0.755905;stroke-linejoin:round;stroke-opacity:0.580986"
       d="M 60,21 A 1.5,1.5 0 0 1 58.5,22.5 1.5,1.5 0 0 1 57,21 1.5,1.5 0 0 1 58.5,19.5 1.5,1.5 0 0 1 60,21 Z" />
    <path
       id="path1061"
       style="fill:#fce94f;fill-opacity:1;stroke-width:0.755905;stroke-linejoin:round;stroke-opacity:0.580986"
       d="M 66,21 A 1.5,1.5 0 0 1 64.5,22.5 1.5,1.5 0 0 1 63,21 1.5,1.5 0 0 1 64.5,19.5 1.5,1.5 0 0 1 66,21 Z" />
  </g>
  <path
     style="fill:#2e3436;fill-opacity:1;stroke-width:0.425197;stroke-linejoin:round;stroke-opacity:0.580986"
     d="m 3.8903742,29.625 v -18 c 0,-1.5 1.5,-2.9999998 3,-2.9999998 1.5,0 3,1.4999998 3,2.9999998 v 18 c 0,1.5 -1.5,3 -3,3 -1.5,0 -3,-1.5 -3,-3 z"
     id="path1128"
     sodipodi:nodetypes="ccccccc" />
  <path
     id="path1130"
     style="fill:#fce94f;stroke-width:0.318898;stroke-linejoin:round;stroke-opacity:0.580986;fill-opacity:1"
     d="m 6.8903742,19.5 c 0.62132,0 1.125,0.50368 1.125,1.125 0,0.62132 -0.50368,1.125 -1.125,1.125 -0.62132,0 -1.125,-0.50368 -1.125,-1.125 0,-0.62132 0.50368,-1.125 1.125,-1.125 z"
     sodipodi:nodetypes="sssss" />
  <path
     id="path1132"
     style="fill:#fce94f;stroke-width:0.318898;stroke-linejoin:round;stroke-opacity:0.580986;fill-opacity:1"
     d="m 6.8903742,16.5 c 0.62132,0 1.125,0.50368 1.125,1.125 0,0.62132 -0.50368,1.125 -1.125,1.125 -0.62132,0 -1.125,-0.50368 -1.125,-1.125 0,-0.62132 0.50368,-1.125 1.125,-1.125 z"
     sodipodi:nodetypes="sssss" />
  <path
     id="path1134"
     style="fill:#fce94f;stroke-width:0.318898;stroke-linejoin:round;stroke-opacity:0.580986;fill-opacity:1"
     d="m 6.8903742,13.5 c 0.62132,0 1.125,0.50368 1.125,1.125 0,0.62132 -0.50368,1.125 -1.125,1.125 -0.62132,0 -1.125,-0.50368 -1.125,-1.125 0,-0.62132 0.50368,-1.125 1.125,-1.125 z"
     sodipodi:nodetypes="sssss" />
  <path
     id="path1136"
     style="fill:#fce94f;stroke-width:0.318898;stroke-linejoin:round;stroke-opacity:0.580986;fill-opacity:1"
     d="m 6.8903742,10.5 c 0.62132,0 1.125,0.50368 1.125,1.125 0,0.62132 -0.50368,1.125 -1.125,1.125 -0.62132,0 -1.125,-0.50368 -1.125,-1.125 0,-0.62132 0.50368,-1.125 1.125,-1.125 z"
     sodipodi:nodetypes="sssss" />
  <path
     id="path1138"
     style="fill:#fce94f;stroke-width:0.318898;stroke-linejoin:round;stroke-opacity:0.580986;fill-opacity:1"
     d="m 6.8903742,28.5 c 0.62132,0 1.125,0.50368 1.125,1.125 0,0.62132 -0.50368,1.125 -1.125,1.125 -0.62132,0 -1.125,-0.50368 -1.125,-1.125 0,-0.62132 0.50368,-1.125 1.125,-1.125 z"
     sodipodi:nodetypes="sssss" />
  <path
     id="path1140"
     style="fill:#fce94f;stroke-width:0.318898;stroke-linejoin:round;stroke-opacity:0.580986;fill-opacity:1"
     d="m 6.8903742,25.5 c 0.62132,0 1.125,0.50368 1.125,1.125 0,0.62132 -0.50368,1.125 -1.125,1.125 -0.62132,0 -1.125,-0.50368 -1.125,-1.125 0,-0.62132 0.50368,-1.125 1.125,-1.125 z"
     sodipodi:nodetypes="sssss" />
  <path
     id="path1142"
     style="fill:#fce94f;stroke-width:0.318898;stroke-linejoin:round;stroke-opacity:0.580986;fill-opacity:1"
     d="m 6.8903742,22.5 c 0.62132,0 1.125,0.50368 1.125,1.125 0,0.62132 -0.50368,1.125 -1.125,1.125 -0.62132,0 -1.125,-0.50368 -1.125,-1.125 0,-0.62132 0.50368,-1.125 1.125,-1.125 z"
     sodipodi:nodetypes="sssss" />
  <path
     style="fill:#2e3436;fill-opacity:1;stroke-width:0.425197;stroke-linejoin:round;stroke-opacity:0.580986"
     d="m 38.125122,29.625 v -18 c 0,-1.5 1.5,-3 3,-3 1.5,0 3,1.5 3,3 v 18 c 0,1.5 -1.5,3 -3,3 -1.5,0 -3,-1.5 -3,-3 z"
     id="path3509"
     sodipodi:nodetypes="ccccccc" />
  <path
     id="path3511"
     style="fill:#fce94f;stroke-width:0.318898;stroke-linejoin:round;stroke-opacity:0.580986;fill-opacity:1"
     d="m 41.125122,19.5 c 0.62132,0 1.125,0.50368 1.125,1.125 0,0.62132 -0.50368,1.125 -1.125,1.125 -0.62132,0 -1.125,-0.50368 -1.125,-1.125 0,-0.62132 0.50368,-1.125 1.125,-1.125 z"
     sodipodi:nodetypes="sssss" />
  <path
     id="path3513"
     style="fill:#fce94f;stroke-width:0.318898;stroke-linejoin:round;stroke-opacity:0.580986;fill-opacity:1"
     d="m 41.125122,16.5 c 0.62132,0 1.125,0.50368 1.125,1.125 0,0.62132 -0.50368,1.125 -1.125,1.125 -0.62132,0 -1.125,-0.50368 -1.125,-1.125 0,-0.62132 0.50368,-1.125 1.125,-1.125 z"
     sodipodi:nodetypes="sssss" />
  <path
     id="path3515"
     style="fill:#fce94f;stroke-width:0.318898;stroke-linejoin:round;stroke-opacity:0.580986;fill-opacity:1"
     d="m 41.125122,13.5 c 0.62132,0 1.125,0.50368 1.125,1.125 0,0.62132 -0.50368,1.125 -1.125,1.125 -0.62132,0 -1.125,-0.50368 -1.125,-1.125 0,-0.62132 0.50368,-1.125 1.125,-1.125 z"
     sodipodi:nodetypes="sssss" />
  <path
     id="path3517"
     style="fill:#fce94f;stroke-width:0.318898;stroke-linejoin:round;stroke-opacity:0.580986;fill-opacity:1"
     d="m 41.125122,10.5 c 0.62132,0 1.125,0.50368 1.125,1.125 0,0.62132 -0.50368,1.125 -1.125,1.125 -0.62132,0 -1.125,-0.50368 -1.125,-1.125 0,-0.62132 0.50368,-1.125 1.125,-1.125 z"
     sodipodi:nodetypes="sssss" />
  <path
     id="path3519"
     style="fill:#fce94f;stroke-width:0.318898;stroke-linejoin:round;stroke-opacity:0.580986;fill-opacity:1"
     d="m 41.125122,28.5 c 0.62132,0 1.125,0.50368 1.125,1.125 0,0.62132 -0.50368,1.125 -1.125,1.125 -0.62132,0 -1.125,-0.50368 -1.125,-1.125 0,-0.62132 0.50368,-1.125 1.125,-1.125 z"
     sodipodi:nodetypes="sssss" />
  <path
     id="path3521"
     style="fill:#fce94f;stroke-width:0.318898;stroke-linejoin:round;stroke-opacity:0.580986;fill-opacity:1"
     d="m 41.125122,25.5 c 0.62132,0 1.125,0.50368 1.125,1.125 0,0.62132 -0.50368,1.125 -1.125,1.125 -0.62132,0 -1.125,-0.50368 -1.125,-1.125 0,-0.62132 0.50368,-1.125 1.125,-1.125 z"
     sodipodi:nodetypes="sssss" />
  <path
     id="path3523"
     style="fill:#fce94f;stroke-width:0.318898;stroke-linejoin:round;stroke-opacity:0.580986;fill-opacity:1"
     d="m 41.125122,22.5 c 0.62132,0 1.125,0.50368 1.125,1.125 0,0.62132 -0.50368,1.125 -1.125,1.125 -0.62132,0 -1.125,-0.50368 -1.125,-1.125 0,-0.62132 0.50368,-1.125 1.125,-1.125 z"
     sodipodi:nodetypes="sssss" />
  <g
     id="g1008"
     transform="matrix(0.5625,0,0,0.5625,-23.022988,14.557094)"
     style="stroke-width:1.77777">
    <path
       id="path406"
       style="fill:#00469b;stroke-width:0.333333"
       class="cls-1"
       d="m 80.680975,-9.050052 c -0.212353,-0.0033 -0.419361,0.098271 -0.588135,0.288574 -0.185308,0.2172194 -0.318751,0.5161836 -0.380859,0.853271 l -2.146362,9.781861 h 1.679077 l 0.95874,-4.457153 c 0.126997,-0.6 0.25397,-1.160626 0.353027,-1.6875 0.09906,-0.526875 0.209682,-1.036744 0.31128,-1.552369 0.174409,0.60125 0.361226,1.213316 0.561035,1.835816 0.199808,0.622499 0.426792,1.319083 0.680786,2.090332 l 0.980347,3 c 0.05313,0.1744473 0.122934,0.3367436 0.207275,0.481933 0.06566,0.109564 0.143271,0.2021489 0.229614,0.273926 0.08116,0.064725 0.169221,0.1084486 0.260376,0.129273 0.09761,0.021219 0.196139,0.031867 0.2948,0.03186 0.09476,-3.606e-4 0.189377,-0.011009 0.283081,-0.03186 0.0915,-0.02086 0.17992,-0.064576 0.261475,-0.129273 0.0876,-0.072563 0.16694,-0.1649988 0.235107,-0.273926 0.08728,-0.1433256 0.158823,-0.3059381 0.212036,-0.481933 0.316223,-0.937499 0.620918,-1.874972 0.918091,-2.782471 l 2.190674,-7.003052 c -0.01852,-0.027063 -0.03796,-0.052729 -0.05823,-0.0769 -0.171594,-0.1920296 -0.381621,-0.2942084 -0.596923,-0.290405 -0.202772,-0.00929 -0.402502,0.074517 -0.571656,0.239868 -0.161009,0.1653422 -0.291842,0.3868773 -0.380859,0.644897 l -1.101196,3.232544 c -0.289554,0.83625 -0.544554,1.584376 -0.761719,2.25 -0.217165,0.665625 -0.417882,1.290016 -0.599487,1.890015 -0.189649,-0.611249 -0.393252,-1.24628 -0.61084,-1.905029 -0.217589,-0.65875 -0.471685,-1.408751 -0.762085,-2.25 l -1.099732,-3.21753 c -0.09159,-0.2628226 -0.226619,-0.4872795 -0.392576,-0.652591 -0.168797,-0.1590802 -0.365976,-0.2399416 -0.566162,-0.232178 z m -13.813476,0.166626 v 4.125 h -4.968384 -1.721924 v 6.641235 h 1.721924 V -2.61536 h 4.968384 v 4.489014 h 1.710571 v -8.625 h 5.841797 c 0.545241,0 0.981048,0.131177 1.307007,0.393677 0.327651,0.262499 0.48999,0.699375 0.48999,1.3125 0.01687,0.537061 -0.182236,1.0383437 -0.507935,1.278808 -0.399966,0.2942659 -0.843604,0.4354292 -1.290161,0.410523 h -3.869751 v 5.229492 h 1.710571 v -3.121948 h 2.268311 c 0.483475,0.00884 0.965493,-0.080126 1.432617,-0.264405 0.38939,-0.1503379 0.756882,-0.4045168 1.084351,-0.75 0.288279,-0.3105561 0.521767,-0.718878 0.680786,-1.190551 0.160029,-0.4884019 0.240539,-1.0252594 0.235107,-1.567749 0.0045,-0.547645 -0.07589,-1.0895578 -0.235107,-1.584229 -0.158305,-0.4811799 -0.391612,-0.9001031 -0.680786,-1.222412 -0.325219,-0.3582822 -0.693009,-0.6234732 -1.084351,-0.78186 -0.46643,-0.1903816 -0.948727,-0.2826001 -1.432617,-0.273926 z m 21.701294,2.311889 -0.999756,3.009522 1.16455,5.396118 h 1.679078 z m 7.994384,0.427735 c -0.380297,-0.00596 -0.757722,0.09779 -1.111084,0.30542 -0.671893,0.3882232 -1.206096,1.1672805 -1.477295,2.154419 -0.282753,1.0539161 -0.282753,2.2273339 0,3.28125 0.13463,0.48874941 0.335093,0.93203567 0.589234,1.302978 0.25471,0.3694346 0.557074,0.659594 0.88916,0.853272 0.353345,0.2077557 0.730771,0.3116285 1.111084,0.305786 0.421601,0.013201 0.840023,-0.1104382 1.225708,-0.362183 0.358062,-0.2481467 0.675603,-0.6075351 0.930908,-1.053589 l -0.914429,-1.222412 c -0.141887,0.2865235 -0.321658,0.5275878 -0.528442,0.708618 -0.201924,0.16298482 -0.429083,0.24564593 -0.65918,0.239869 -0.193544,0.003413 -0.38518,-0.0567549 -0.561035,-0.176148 -0.170295,-0.1166558 -0.322502,-0.28382151 -0.447143,-0.491089 -0.132261,-0.22229125 -0.232556,-0.4819365 -0.2948,-0.763183 -0.07025,-0.3170652 -0.104886,-0.6489644 -0.102539,-0.982544 -0.0024,-0.3304656 0.03229,-0.6592347 0.102539,-0.973023 0.06367,-0.2799623 0.163402,-0.5391112 0.293701,-0.763183 0.123275,-0.2111691 0.275573,-0.3811938 0.446777,-0.49878 0.175869,-0.120102 0.367641,-0.1808982 0.561402,-0.177978 0.230852,-0.00547 0.458478,0.08052 0.659179,0.249023 0.206019,0.1855653 0.385423,0.4289169 0.528077,0.716309 l 0.914428,-1.237427 c -0.254942,-0.4466156 -0.572573,-0.8061058 -0.930908,-1.053589 -0.385592,-0.2515411 -0.803883,-0.3750528 -1.225342,-0.361816 z m 5.931883,0 c -0.3534,-0.011992 -0.70304,0.1092592 -1.01587,0.352295 -0.25596,0.1989075 -0.48735,0.4601415 -0.68444,0.772705 v -0.900147 h -1.416143 v 7.768067 h 1.416143 v -5.355103 c 0.10086,-0.1684099 0.2235,-0.3053681 0.36071,-0.402832 0.14459,-0.1074253 0.29831,-0.1856415 0.45703,-0.232544 0.15416,-0.047882 0.31122,-0.072423 0.46875,-0.07324 0.13923,-0.00293 0.27818,0.01908 0.41382,0.06555 z m 2.86377,0 c -0.39614,-0.010052 -0.78932,0.1023394 -1.15429,0.329956 -0.33333,0.2077755 -0.63542,0.5111157 -0.8888,0.892456 -0.24647,0.3734185 -0.43919,0.8166484 -0.56653,1.302978 -0.26252,1.0149144 -0.26252,2.1370636 0,3.151978 0.12734,0.48632962 0.32006,0.92955955 0.56653,1.302978 0.25305,0.3819194 0.55523,0.685344 0.8888,0.892457 0.74473,0.4399683 1.57558,0.4399683 2.32031,0 0.33357,-0.2071147 0.63575,-0.5105392 0.88879,-0.892457 0.24692,-0.37331993 0.44012,-0.8165371 0.56799,-1.302978 0.13184,-0.50277423 0.19819,-1.0377811 0.19556,-1.576904 0.004,-0.5388803 -0.0631,-1.0737521 -0.19702,-1.575074 -0.13022,-0.4841622 -0.32259,-0.9266022 -0.56653,-1.302978 -0.25189,-0.3839469 -0.55437,-0.687671 -0.88879,-0.892456 -0.36928,-0.2266773 -0.76615,-0.3389821 -1.16602,-0.329956 z m -13.86804,0.224853 v 7.769898 h 1.416137 v -7.769898 z m 13.87756,1.463013 c 0.38237,-7.54e-5 0.74558,0.2471046 0.9939,0.676392 0.4791,1.0528698 0.4791,2.4290632 0,3.481933 -0.24185,0.44740905 -0.61472,0.69571632 -1.00195,0.667237 -0.38244,0.0274281 -0.75003,-0.22145183 -0.98548,-0.667237 -0.47262,-1.0557692 -0.47262,-2.4261638 0,-3.481933 0.24824,-0.4291423 0.61129,-0.6763076 0.99353,-0.676392 z"
       sodipodi:nodetypes="ccccccscscccccccccccccccccscscccccccccccccccscccccccccccccccccccccccccccccccccccccccccccccccccccccccccccccccccccccccccccccccccscccccs" />
    <path
       class="cls-2"
       d="m 92.792598,-7.229603 a 0.84199108,1.243125 0 1 1 0.245105,-0.8775 0.80897182,1.194375 0 0 1 -0.245105,0.8775 z"
       id="path402"
       style="fill:#f5a200;stroke-width:0.333333" />
    <path
       id="rect404"
       style="fill:#f5a200;stroke-width:0.333333"
       class="cls-2"
       d="m 60.177191,-8.888979 h 1.722081 v 2.985001 h -1.722081 z" />
  </g>
  <path
     style="fill:#2e3436;fill-opacity:1;stroke-width:0.425197;stroke-linejoin:round;stroke-opacity:0.580986"
     d="m 24.322588,48 h -5.0625 c -0.84375,0 -1.6875,-0.84375 -1.6875,-1.6875 v -4.21875 c 0,-0.84375 0.84375,-1.6875 1.6875,-1.6875 h 5.0625 c 0.84375,0 1.6875,0.84375 1.6875,1.6875 v 4.21875 c 0,0.84375 -0.84375,1.6875 -1.6875,1.6875 z"
     id="path1010"
     sodipodi:nodetypes="ccccccccc" />
  <path
     style="fill:#2e3436;fill-opacity:1;stroke-width:0.239173;stroke-linejoin:round;stroke-opacity:0.580986"
     d="M 28.031896,40.539539 H 39.55078 c 0.47461,0 0.949219,0.47461 0.949219,0.949219 v 5.562023 C 40.499999,47.525391 40.02539,48 39.55078,48 h -4.259442 v -1.5 h -3 V 48 h -4.259442 c -0.474609,0 -0.949219,-0.474609 -0.949219,-0.949219 v -5.562023 c 0,-0.474609 0.47461,-0.949219 0.949219,-0.949219 z"
     id="path1010-4"
     sodipodi:nodetypes="ccccccccccccc" />
  <path
     id="path1012"
     style="fill:#fce94f;fill-opacity:1;stroke-width:0.425197;stroke-linejoin:round;stroke-opacity:0.580986"
     d="m 22.635088,46.3125 c 0,-0.46599 0.37776,-0.84375 0.84375,-0.84375 0.46599,0 0.84375,0.37776 0.84375,0.84375 0,0.46599 -0.37776,0.84375 -0.84375,0.84375 -0.46599,0 -0.84375,-0.37776 -0.84375,-0.84375 z"
     sodipodi:nodetypes="sssss" />
  <path
     id="path1014"
     style="fill:#fce94f;fill-opacity:1;stroke-width:0.425197;stroke-linejoin:round;stroke-opacity:0.580986"
     d="m 19.260088,46.3125 c 0,-0.46599 0.37776,-0.84375 0.84375,-0.84375 0.46599,0 0.84375,0.37776 0.84375,0.84375 0,0.46599 -0.37776,0.84375 -0.84375,0.84375 -0.46599,0 -0.84375,-0.37776 -0.84375,-0.84375 z"
     sodipodi:nodetypes="sssss" />
  <path
     style="fill:#edd400;fill-opacity:1;stroke:#0000ff;stroke-width:0"
     d="m 38.0625,5.625 h -4.125 c -0.375,0 -0.75,-0.375 -0.75,-0.75 V 4.5 c 0,-0.375 0.375,-0.75 0.75,-0.75 0.375,0 0.375,0 0.375,-0.375 V 0.75 c 0,-0.375 0.375,-0.75 0.75,-0.75 h 1.875 c 0.375,0 0.75,0.375 0.75,0.75 v 2.625 c 0,0.375 0,0.375 0.375,0.375 0.375,0 0.75,0.375 0.75,0.75 v 0.375 c 0,0.375 -0.375,0.75 -0.75,0.75 z"
     id="path9874"
     sodipodi:nodetypes="ccccccccccccccc" />
  <path
     style="fill:#edd400;fill-opacity:1;stroke:#0000ff;stroke-width:0"
     d="m 30.5625,5.625 h -4.125 c -0.375,0 -0.75,-0.375 -0.75,-0.75 V 4.5 c 0,-0.375 0.375,-0.75 0.75,-0.75 0.375,0 0.375,0 0.375,-0.375 V 0.75 c 0,-0.375 0.375,-0.75 0.75,-0.75 h 1.875 c 0.375,0 0.75,0.375 0.75,0.75 v 2.625 c 0,0.375 0,0.375 0.375,0.375 0.375,0 0.75,0.375 0.75,0.75 v 0.375 c 0,0.375 -0.375,0.75 -0.75,0.75 z"
     id="path9925"
     sodipodi:nodetypes="ccccccccccccccc" />
</svg>
