<?xml version="1.0" encoding="UTF-8" standalone="no"?>
<svg
   fill="none"
   viewBox="0 0 48 48"
   height="256"
   width="256"
   version="1.1"
   id="svg6"
   sodipodi:docname="lana-tny.svg"
   inkscape:version="1.3.2 (091e20e, 2023-11-25, custom)"
   xmlns:inkscape="http://www.inkscape.org/namespaces/inkscape"
   xmlns:sodipodi="http://sodipodi.sourceforge.net/DTD/sodipodi-0.dtd"
   xmlns="http://www.w3.org/2000/svg"
   xmlns:svg="http://www.w3.org/2000/svg">
  <defs
     id="defs10" />
  <sodipodi:namedview
     id="namedview8"
     pagecolor="#ffffff"
     bordercolor="#666666"
     borderopacity="1.0"
     inkscape:showpageshadow="2"
     inkscape:pageopacity="0.0"
     inkscape:pagecheckerboard="true"
     inkscape:deskcolor="#d1d1d1"
     showgrid="true"
     inkscape:zoom="1.6191406"
     inkscape:cx="113.02292"
     inkscape:cy="156.56454"
     inkscape:current-layer="svg6"
     showguides="false"
     inkscape:window-width="3840"
     inkscape:window-height="1494"
     inkscape:window-x="-11"
     inkscape:window-y="-11"
     inkscape:window-maximized="1">
    <inkscape:grid
       type="xygrid"
       id="grid239"
       units="px"
       spacingx="1.5"
       spacingy="1.5"
       originx="0"
       originy="0"
       visible="true" />
  </sodipodi:namedview>
  <path
     id="rect897"
     style="fill:#babdb6;fill-opacity:1;stroke:none;stroke-width:0.363088;stroke-linejoin:round;stroke-opacity:0.580986"
     d="M 13.45459,45.704039 C 8.334296,45.434219 4.441042,41.540571 4.171142,36.420225 4.004043,33.248928 3.875244,29.13901 3.875244,23.999815 c 0,-5.139095 0.128799,-9.24948 0.295898,-12.420776 0.2698,-5.120295 4.163154,-9.013648 9.283448,-9.283448 h 21.091186 c 5.120325,0.2698 9.014004,4.163153 9.283814,9.283448 0.167109,3.171296 0.295532,7.281581 0.295532,12.420776 0,5.139195 -0.128423,9.249113 -0.295532,12.42041 -0.26981,5.120336 -4.163479,9.014004 -9.283814,9.283814 z"
     sodipodi:nodetypes="ccssccssscc" />
  <path
     id="path2-4"
     style="fill:#2e3436;fill-opacity:1;stroke-width:0.384432"
     d="m 32.457876,16.584454 c 0,-0.291938 -0.03157,-0.497478 -0.0691,-0.638794 -0.05026,-0.189259 -0.231696,-0.280487 -0.427436,-0.286679 -0.365634,-0.0115 -0.99791,-0.02924 -1.545165,-0.03411 -0.008,-0.125125 -0.01605,-0.246421 -0.02425,-0.3592 -0.07147,-0.983 -0.822233,-1.733768 -1.805233,-1.805234 -0.112787,-0.0083 -0.233869,-0.01624 -0.358986,-0.02425 -0.0049,-0.547252 -0.02276,-1.179531 -0.03433,-1.545166 -0.0062,-0.195736 -0.0972,-0.377184 -0.286459,-0.427437 -0.141312,-0.03751 -0.34707,-0.06888 -0.63901,-0.06888 -0.291939,0 -0.497476,0.03136 -0.638796,0.06888 -0.189298,0.05026 -0.280488,0.231697 -0.286676,0.427435 -0.01087,0.34659 -0.02739,0.932193 -0.03325,1.458478 -0.414484,-0.01225 -0.863923,-0.02141 -1.350334,-0.02683 -0.0061,-0.51926 -0.02226,-1.090951 -0.03305,-1.431653 -0.0062,-0.195737 -0.09742,-0.377184 -0.286676,-0.427437 -0.141313,-0.03751 -0.346855,-0.06887 -0.638794,-0.06887 -0.29194,0 -0.497691,0.03136 -0.63901,0.06887 -0.189296,0.05026 -0.280271,0.231702 -0.286459,0.427439 -0.01075,0.340699 -0.02693,0.912389 -0.03305,1.431656 -0.486386,0.0055 -0.935861,0.01469 -1.350332,0.02682 -0.0059,-0.526286 -0.02251,-1.11189 -0.03349,-1.458478 -0.0062,-0.195737 -0.09739,-0.37718 -0.286676,-0.427437 -0.141313,-0.03751 -0.346856,-0.06887 -0.638794,-0.06887 -0.291939,4e-6 -0.497481,0.03136 -0.638795,0.06887 -0.18926,0.05025 -0.280487,0.2317 -0.286679,0.427437 -0.01162,0.365636 -0.02924,0.997916 -0.03411,1.545168 -0.125125,0.008 -0.246426,0.01606 -0.359205,0.02425 -0.982995,0.07147 -1.733768,0.822232 -1.805233,1.805233 -0.0083,0.1136 -0.01639,0.235662 -0.02446,0.361777 -0.174656,-0.0026 -0.346101,-0.004 -0.503613,-0.004 -0.47512,0 -0.837976,0.01421 -1.066445,0.02682 -0.180565,0.01 -0.346125,0.09726 -0.395677,0.271227 -0.04036,0.141703 -0.07554,0.353997 -0.07554,0.663042 -2e-6,0.309048 0.03517,0.521339 0.07554,0.663043 0.04955,0.173912 0.21511,0.26127 0.395679,0.271226 0.228471,0.0125 0.591325,0.02683 1.066445,0.02683 0.13125,0 0.272768,-0.0012 0.417138,-0.0031 -0.01225,0.414784 -0.02139,0.864571 -0.02683,1.351401 -0.134906,-0.0015 -0.267263,-0.0029 -0.390316,-0.0029 -0.47512,0 -0.837976,0.01406 -1.066445,0.02661 -0.180567,0.01 -0.346127,0.09754 -0.395675,0.271443 -0.04039,0.141704 -0.07554,0.353782 -0.07554,0.662828 0,0.309047 0.03518,0.521341 0.07554,0.663041 0.04955,0.173955 0.215114,0.261521 0.395679,0.271448 0.228471,0.0125 0.591322,0.02661 1.066444,0.02661 0.12305,-10e-6 0.255406,-0.0012 0.390316,-0.0029 0.0054,0.486831 0.01469,0.936621 0.02683,1.351405 -0.144375,-0.0018 -0.285885,-0.003 -0.417141,-0.003 -0.47512,0 -0.837977,0.01422 -1.066445,0.02682 -0.180568,0.01 -0.346124,0.09731 -0.395678,0.271228 -0.04036,0.141703 -0.07552,0.353995 -0.07552,0.663043 0,0.309045 0.03517,0.521338 0.07552,0.663042 0.04955,0.173953 0.215106,0.261308 0.395676,0.271225 0.228474,0.0125 0.591327,0.02682 1.066447,0.02682 0.157508,0 0.328956,-0.0015 0.503612,-0.0041 0.0081,0.12611 0.0162,0.248185 0.02446,0.361776 0.07147,0.982994 0.822237,1.733766 1.805233,1.805234 0.1136,0.0083 0.235665,0.01638 0.361777,0.02446 -0.0026,0.174654 -0.0041,0.346103 -0.0041,0.503613 1e-6,0.475118 0.01422,0.837976 0.02682,1.066446 0.01,0.180566 0.09726,0.346126 0.271225,0.395679 0.141703,0.04036 0.353996,0.07552 0.663041,0.07552 0.309049,10e-7 0.521344,-0.03517 0.663044,-0.07552 0.173913,-0.04955 0.261488,-0.215109 0.271443,-0.395674 0.0125,-0.228474 0.02661,-0.591329 0.02661,-1.066449 0,-0.13125 -0.0012,-0.272767 -0.003,-0.417137 0.414766,0.01225 0.864597,0.02141 1.351404,0.02682 -0.0015,0.134906 -0.0029,0.267263 -0.0029,0.390313 0,0.47512 0.01406,0.837977 0.02661,1.066444 0.01,0.180569 0.09754,0.34613 0.271446,0.395676 0.141703,0.04037 0.353997,0.07554 0.663044,0.07554 0.309041,0 0.521338,-0.03517 0.66304,-0.07554 0.173955,-0.04955 0.2613,-0.215117 0.271229,-0.395677 0.0125,-0.228474 0.02683,-0.591324 0.02683,-1.066446 -1.3e-5,-0.12305 -0.0012,-0.255408 -0.0029,-0.390315 0.486697,-0.0055 0.936504,-0.01469 1.351191,-0.02683 -0.0019,0.144391 -0.003,0.285883 -0.003,0.417137 0,0.475121 0.01422,0.837979 0.02682,1.066448 0.01,0.180567 0.0973,0.346126 0.271225,0.395676 0.141704,0.04036 0.353998,0.07553 0.663043,0.07553 0.309046,0 0.52134,-0.03518 0.663042,-0.07553 0.173954,-0.04955 0.261519,-0.215115 0.271433,-0.395686 0.0125,-0.228472 0.02661,-0.591325 0.02661,-1.066445 0,-0.157508 -0.0015,-0.328959 -0.0041,-0.503613 0.126188,-0.0081 0.248131,-0.0162 0.361778,-0.02446 0.983003,-0.07147 1.733766,-0.822239 1.805235,-1.805232 0.0083,-0.112787 0.01624,-0.234073 0.02425,-0.359201 0.547256,-0.0049 1.179533,-0.02255 1.545171,-0.03412 0.195735,-0.0063 0.377182,-0.09743 0.427434,-0.286675 0.03753,-0.141329 0.0691,-0.346857 0.0691,-0.638795 0,-0.291941 -0.03158,-0.49748 -0.0691,-0.638796 -0.05025,-0.18929 -0.231699,-0.28049 -0.427434,-0.286676 -0.346616,-0.01087 -0.932166,-0.02739 -1.45848,-0.03325 0.01225,-0.414545 0.02141,-0.864052 0.02682,-1.350545 0.519265,-0.0061 1.090955,-0.02206 1.431656,-0.03282 0.195736,-0.0063 0.377184,-0.09743 0.427435,-0.286677 0.03751,-0.141312 0.06909,-0.346857 0.06909,-0.638795 0,-0.291937 -0.03158,-0.497692 -0.06909,-0.63901 -0.05025,-0.189288 -0.231699,-0.280487 -0.427435,-0.286676 -0.340715,-0.01075 -0.912365,-0.02671 -1.431656,-0.03282 -0.0055,-0.486496 -0.01469,-0.936004 -0.02682,-1.350546 0.526314,-0.006 1.111864,-0.02229 1.458476,-0.03325 0.195738,-0.0063 0.377181,-0.09739 0.427436,-0.286676 0.03754,-0.141328 0.0691,-0.346857 0.0691,-0.638795 z" />
  <path
     style="fill:#2e3436;fill-opacity:1;stroke-width:0.425197;stroke-linejoin:round;stroke-opacity:0.580986"
     d="m 31.500366,48 h -15 c -1.5,0 -3,-1.5 -3,-3 v -9.795961 c 0,-1.5 1.5,-3 3,-3 h 15 c 1.5,0 3,1.5 3,3 V 45 c 0,1.5 -1.5,3 -3,3 z"
     id="path450"
     sodipodi:nodetypes="ccccccccc" />
  <path
     style="fill:#2e3436;fill-opacity:1;stroke-width:0.425197;stroke-linejoin:round;stroke-opacity:0.580986"
     d="m 34.500366,7.5 h -9 c -1.5,0 -3,-1.5 -3,-3 v 0 c 0,-1.5 1.5,-3 3,-3 h 4.5 V 0 h 1.5 v 1.5 h 3 c 1.5,0 3,1.5 3,3 v 0 c 0,1.5 -1.5,3 -3,3 z"
     id="path450-5"
     sodipodi:nodetypes="ccccccccccccc" />
  <path
     id="path1058"
     style="fill:#fce94f;fill-opacity:1;stroke-width:0.830463;stroke-linejoin:round;stroke-opacity:0.580986"
     d="M 25.570679,43.5 A 2.9296875,2.9296875 0 0 1 28.500366,40.570312 2.9296875,2.9296875 0 0 1 31.430054,43.5 2.9296875,2.9296875 0 0 1 28.500366,46.429687 2.9296875,2.9296875 0 0 1 25.570679,43.5 Z" />
  <path
     id="path1061"
     style="fill:#fce94f;fill-opacity:1;stroke-width:0.830463;stroke-linejoin:round;stroke-opacity:0.580986"
     d="M 16.570678,43.5 A 2.9296875,2.9296875 0 0 1 19.500365,40.570312 2.9296875,2.9296875 0 0 1 22.430053,43.5 2.9296875,2.9296875 0 0 1 19.500365,46.429687 2.9296875,2.9296875 0 0 1 16.570678,43.5 Z" />
  <path
     id="path603"
     style="fill:#fce94f;fill-opacity:1;stroke-width:0.498278;stroke-linejoin:round;stroke-opacity:0.580986"
     d="m 40.500366,13.757813 c -0.970813,0 -1.757813,-0.787 -1.757813,-1.757813 0,-0.970812 0.787,-1.757812 1.757813,-1.757812 0.970812,0 1.757812,0.787 1.757812,1.757812 0,0.970813 -0.787,1.757813 -1.757812,1.757813 z"
     sodipodi:nodetypes="sssss" />
  <path
     id="path605"
     style="fill:#fce94f;fill-opacity:1;stroke-width:0.498278;stroke-linejoin:round;stroke-opacity:0.580986"
     d="m 40.500366,31.757813 c -0.970813,0 -1.757813,-0.787 -1.757813,-1.757813 0,-0.970812 0.787,-1.757812 1.757813,-1.757812 0.970812,0 1.757812,0.787 1.757812,1.757812 0,0.970813 -0.787,1.757813 -1.757812,1.757813 z"
     sodipodi:nodetypes="sssss" />
  <path
     id="path609"
     style="fill:#fce94f;fill-opacity:1;stroke-width:0.498278;stroke-linejoin:round;stroke-opacity:0.580986"
     d="m 40.500366,37.757812 c -0.970813,0 -1.757813,-0.786999 -1.757813,-1.757812 0,-0.970813 0.787,-1.757813 1.757813,-1.757813 0.970812,0 1.757812,0.787 1.757812,1.757813 0,0.970813 -0.787,1.757812 -1.757812,1.757812 z"
     sodipodi:nodetypes="sssss" />
  <path
     id="path611"
     style="fill:#fce94f;fill-opacity:1;stroke-width:0.498278;stroke-linejoin:round;stroke-opacity:0.580986"
     d="m 40.500366,19.757813 c -0.970813,0 -1.757813,-0.787 -1.757813,-1.757813 0,-0.970812 0.787,-1.757812 1.757813,-1.757812 0.970812,0 1.757812,0.787 1.757812,1.757812 0,0.970813 -0.787,1.757813 -1.757812,1.757813 z"
     sodipodi:nodetypes="sssss" />
  <path
     id="path615"
     style="fill:#fce94f;fill-opacity:1;stroke-width:0.498278;stroke-linejoin:round;stroke-opacity:0.580986"
     d="m 40.500366,25.757813 c -0.970813,0 -1.757813,-0.787 -1.757813,-1.757813 0,-0.970812 0.787,-1.757812 1.757813,-1.757812 0.970812,0 1.757812,0.787 1.757812,1.757812 0,0.970813 -0.787,1.757813 -1.757812,1.757813 z"
     sodipodi:nodetypes="sssss" />
  <path
     id="path603-0"
     style="fill:#fce94f;fill-opacity:1;stroke-width:0.498278;stroke-linejoin:round;stroke-opacity:0.580986"
     d="m 7.500366,13.757813 c -0.970812,0 -1.757812,-0.787 -1.757812,-1.757813 0,-0.970812 0.787,-1.757812 1.757812,-1.757812 0.970813,0 1.757813,0.787 1.757813,1.757812 0,0.970813 -0.787,1.757813 -1.757813,1.757813 z"
     sodipodi:nodetypes="sssss" />
  <path
     id="path605-5"
     style="fill:#fce94f;fill-opacity:1;stroke-width:0.498278;stroke-linejoin:round;stroke-opacity:0.580986"
     d="m 7.500366,31.757814 c -0.970812,0 -1.757812,-0.787 -1.757812,-1.757813 0,-0.970812 0.787,-1.757812 1.757812,-1.757812 0.970813,0 1.757813,0.787 1.757813,1.757812 0,0.970813 -0.787,1.757813 -1.757813,1.757813 z"
     sodipodi:nodetypes="sssss" />
  <path
     id="path609-8"
     style="fill:#fce94f;fill-opacity:1;stroke-width:0.498278;stroke-linejoin:round;stroke-opacity:0.580986"
     d="m 7.500366,37.757812 c -0.970812,0 -1.757812,-0.786999 -1.757812,-1.757812 0,-0.970813 0.787,-1.757813 1.757812,-1.757813 0.970813,0 1.757813,0.787 1.757813,1.757813 0,0.970813 -0.787,1.757812 -1.757813,1.757812 z"
     sodipodi:nodetypes="sssss" />
  <path
     id="path611-6"
     style="fill:#fce94f;fill-opacity:1;stroke-width:0.498278;stroke-linejoin:round;stroke-opacity:0.580986"
     d="m 7.500366,19.757813 c -0.970812,0 -1.757812,-0.787 -1.757812,-1.757813 0,-0.970812 0.787,-1.757812 1.757812,-1.757812 0.970813,0 1.757813,0.787 1.757813,1.757812 0,0.970813 -0.787,1.757813 -1.757813,1.757813 z"
     sodipodi:nodetypes="sssss" />
  <path
     id="path615-2"
     style="fill:#fce94f;fill-opacity:1;stroke-width:0.498278;stroke-linejoin:round;stroke-opacity:0.580986"
     d="m 7.500366,25.757814 c -0.970812,0 -1.757812,-0.787 -1.757812,-1.757813 0,-0.970812 0.787,-1.757812 1.757812,-1.757812 0.970813,0 1.757813,0.787 1.757813,1.757812 0,0.970813 -0.787,1.757813 -1.757813,1.757813 z"
     sodipodi:nodetypes="sssss" />
</svg>
