<?xml version="1.0" encoding="UTF-8" standalone="no"?>
<svg
   fill="none"
   viewBox="0 0 48 48"
   height="256"
   width="256"
   version="1.1"
   id="svg6"
   sodipodi:docname="nations-tech.svg"
   inkscape:version="1.2.1 (9c6d41e410, 2022-07-14)"
   xmlns:inkscape="http://www.inkscape.org/namespaces/inkscape"
   xmlns:sodipodi="http://sodipodi.sourceforge.net/DTD/sodipodi-0.dtd"
   xmlns="http://www.w3.org/2000/svg"
   xmlns:svg="http://www.w3.org/2000/svg">
  <defs
     id="defs10" />
  <sodipodi:namedview
     id="namedview8"
     pagecolor="#ffffff"
     bordercolor="#666666"
     borderopacity="1.0"
     inkscape:showpageshadow="2"
     inkscape:pageopacity="0.0"
     inkscape:pagecheckerboard="true"
     inkscape:deskcolor="#d1d1d1"
     showgrid="true"
     inkscape:zoom="1.1449053"
     inkscape:cx="241.50469"
     inkscape:cy="337.14579"
     inkscape:current-layer="svg6"
     showguides="false"
     inkscape:window-width="3840"
     inkscape:window-height="1494"
     inkscape:window-x="-11"
     inkscape:window-y="-11"
     inkscape:window-maximized="1">
    <inkscape:grid
       type="xygrid"
       id="grid239"
       units="px"
       spacingx="1.5"
       spacingy="1.5" />
  </sodipodi:namedview>
  <path
     id="rect897"
     style="fill:#3465a4;fill-opacity:1;stroke:none;stroke-width:0.363088;stroke-linejoin:round;stroke-opacity:0.580986"
     d="M 13.45459,45.704039 C 8.334296,45.434219 4.441042,41.540571 4.171142,36.420225 4.004043,33.248928 3.875244,29.13901 3.875244,23.999815 c 0,-5.139095 0.128799,-9.24948 0.295898,-12.420776 0.2698,-5.120295 4.163154,-9.013648 9.283448,-9.283448 h 21.091186 c 5.120325,0.2698 9.014004,4.163153 9.283814,9.283448 0.167109,3.171296 0.295532,7.281581 0.295532,12.420776 0,5.139195 -0.128423,9.249113 -0.295532,12.42041 -0.26981,5.120336 -4.163479,9.014004 -9.283814,9.283814 z"
     sodipodi:nodetypes="ccssccssscc" />
  <path
     id="path2-4"
     style="fill:#2e3436;fill-opacity:1;stroke-width:0.307546"
     d="m 17.233984,26.614126 c 0,0.23355 0.02526,0.397981 0.05528,0.511034 0.04022,0.151403 0.185357,0.22439 0.341952,0.229339 0.292508,0.0093 0.798329,0.02339 1.236133,0.02729 0.0064,0.100105 0.01284,0.197137 0.0194,0.287361 0.05718,0.786399 0.657787,1.387013 1.444186,1.444185 0.09023,0.0066 0.187097,0.01299 0.28719,0.0194 0.0039,0.437801 0.01821,0.943624 0.02746,1.236133 0.005,0.156589 0.07776,0.301746 0.229166,0.34195 0.113047,0.03002 0.277657,0.0551 0.511209,0.0551 0.23355,0 0.397982,-0.02509 0.511036,-0.0551 0.151438,-0.04021 0.224391,-0.185359 0.229338,-0.341952 0.0088,-0.277272 0.02191,-0.745754 0.0266,-1.166782 0.331586,0.0098 0.691136,0.01713 1.080265,0.02146 0.0049,0.41541 0.01781,0.872763 0.02644,1.145325 0.005,0.156588 0.07794,0.301746 0.229337,0.341952 0.113046,0.03002 0.277483,0.0551 0.511036,0.0551 0.233548,-10e-7 0.398151,-0.02509 0.511207,-0.0551 0.151437,-0.04021 0.224213,-0.185366 0.229166,-0.341951 0.0086,-0.27256 0.02154,-0.729914 0.02644,-1.145326 0.389109,-0.0044 0.74869,-0.01175 1.080266,-0.02146 0.0047,0.421028 0.01801,0.88951 0.02679,1.166782 0.005,0.15659 0.07791,0.301744 0.229337,0.341951 0.113047,0.03002 0.277485,0.0551 0.511035,0.0551 0.233551,-2e-6 0.397984,-0.02509 0.511036,-0.0551 0.151409,-0.0402 0.224391,-0.185359 0.229338,-0.341952 0.0092,-0.292508 0.02339,-0.798331 0.02729,-1.236134 0.100105,-0.0064 0.197139,-0.01285 0.287362,-0.0194 0.786396,-0.05718 1.387013,-0.657784 1.444186,-1.444185 0.0066,-0.09087 0.01311,-0.18853 0.01957,-0.289422 0.139725,0.0021 0.276881,0.0032 0.402891,0.0032 0.380095,0 0.670381,-0.01138 0.853155,-0.02146 0.144455,-0.008 0.2769,-0.07781 0.316542,-0.216982 0.03228,-0.113362 0.06043,-0.283198 0.06043,-0.530433 1e-6,-0.247239 -0.02814,-0.417072 -0.06043,-0.530433 -0.03964,-0.139131 -0.17209,-0.209016 -0.316543,-0.216983 -0.182778,-0.01 -0.473059,-0.02146 -0.853156,-0.02146 -0.105005,0 -0.218214,9.38e-4 -0.333711,0.0025 0.0098,-0.331829 0.01711,-0.691658 0.02146,-1.081122 0.107933,0.0012 0.213812,0.0022 0.312253,0.0023 0.380096,0 0.670382,-0.01125 0.853156,-0.02129 0.144455,-0.008 0.276902,-0.07803 0.316536,-0.21716 0.03231,-0.113355 0.06043,-0.283026 0.06043,-0.530262 0,-0.247237 -0.02814,-0.417072 -0.06042,-0.530432 -0.03964,-0.139169 -0.172091,-0.209215 -0.316537,-0.21716 -0.182779,-0.01 -0.47306,-0.02129 -0.853156,-0.02129 -0.09844,8e-6 -0.204325,9.37e-4 -0.312252,0.0023 -0.0043,-0.389465 -0.01175,-0.749296 -0.02146,-1.081123 0.115499,0.0014 0.228707,0.0024 0.33371,0.0024 0.380096,0 0.670382,-0.01138 0.853156,-0.02146 0.144455,-0.008 0.2769,-0.07785 0.316544,-0.216983 0.03229,-0.113361 0.06042,-0.283197 0.06042,-0.530434 1e-6,-0.247236 -0.02814,-0.417071 -0.06043,-0.530432 -0.03963,-0.139167 -0.172083,-0.209051 -0.316541,-0.216981 -0.182779,-0.01 -0.473061,-0.02146 -0.853157,-0.02146 -0.126006,0 -0.263166,0.0012 -0.40289,0.0032 -0.0065,-0.10089 -0.01296,-0.198547 -0.01957,-0.289421 -0.05717,-0.786395 -0.65779,-1.387012 -1.444186,-1.444186 -0.09088,-0.0066 -0.188533,-0.0131 -0.289422,-0.01958 0.0021,-0.139723 0.0033,-0.27688 0.0033,-0.402888 0,-0.380096 -0.01138,-0.670382 -0.02146,-0.853157 -0.008,-0.144455 -0.07781,-0.276901 -0.216982,-0.316542 -0.113354,-0.03229 -0.283196,-0.06043 -0.530433,-0.06043 -0.247236,-10e-7 -0.417072,0.02814 -0.530433,0.06043 -0.139131,0.03964 -0.209192,0.172083 -0.217159,0.316536 -0.01,0.182778 -0.02129,0.47306 -0.02129,0.853156 0,0.105007 9.39e-4,0.218215 0.0024,0.333711 -0.331812,-0.0098 -0.691677,-0.01713 -1.081122,-0.02146 0.0012,-0.107933 0.0023,-0.213811 0.0022,-0.312253 0,-0.380097 -0.01125,-0.670381 -0.02129,-0.853156 -0.008,-0.144454 -0.07803,-0.276901 -0.21716,-0.316535 -0.113363,-0.0323 -0.283197,-0.06043 -0.530434,-0.06043 -0.247236,0 -0.417072,0.02814 -0.530435,0.06042 -0.13916,0.03964 -0.209043,0.17209 -0.216981,0.316542 -0.01,0.182777 -0.02146,0.47306 -0.02146,0.853156 7e-6,0.09844 9.38e-4,0.204326 0.0022,0.312253 -0.389356,0.0044 -0.7492,0.01175 -1.08095,0.02146 0.0015,-0.115507 0.0024,-0.228705 0.0024,-0.33371 0,-0.380097 -0.01138,-0.670382 -0.02146,-0.853158 -0.008,-0.144455 -0.07784,-0.276901 -0.21698,-0.316541 -0.113355,-0.03229 -0.283199,-0.06043 -0.530434,-0.06042 -0.247238,-1e-6 -0.417073,0.02814 -0.530435,0.06042 -0.139167,0.03964 -0.209215,0.172092 -0.217144,0.316549 -0.01,0.182779 -0.02129,0.473061 -0.02129,0.853158 0,0.126007 0.0012,0.263166 0.0033,0.40289 -0.100946,0.0065 -0.198504,0.01296 -0.289421,0.01957 -0.786404,0.05718 -1.387014,0.657791 -1.444189,1.444185 -0.0066,0.09023 -0.01299,0.187258 -0.0194,0.287363 -0.437805,0.0039 -0.943626,0.01804 -1.236135,0.0273 -0.156589,0.005 -0.301747,0.07794 -0.341951,0.229337 -0.03003,0.113055 -0.05528,0.277485 -0.05528,0.511035 0,0.233552 0.02526,0.397984 0.05528,0.511036 0.0402,0.151433 0.185359,0.224392 0.341952,0.229339 0.277292,0.0087 0.745732,0.02191 1.166782,0.0266 -0.0097,0.331635 -0.01712,0.691242 -0.02146,1.080436 -0.41541,0.0049 -0.872762,0.01765 -1.145324,0.02626 -0.156589,0.005 -0.301748,0.07794 -0.341952,0.229338 -0.03002,0.113047 -0.05528,0.277485 -0.05528,0.511035 0,0.23355 0.02526,0.398155 0.05528,0.511207 0.0402,0.151432 0.185358,0.224392 0.341951,0.229338 0.272573,0.0086 0.729894,0.02138 1.145325,0.02626 0.0044,0.389195 0.01175,0.748801 0.02146,1.080436 -0.42105,0.0048 -0.88949,0.01783 -1.166782,0.0266 -0.156588,0.005 -0.301743,0.07791 -0.341951,0.229337 -0.03003,0.113056 -0.05528,0.277486 -0.05527,0.511037 z" />
  <g
     id="g3072"
     transform="translate(-46.5,-18)">
    <path
       style="fill:#2e3436;fill-opacity:1;stroke-width:0.425197;stroke-linejoin:round;stroke-opacity:0.580986"
       d="m 57,18 h 9 c 1.5,0 3,1.5 3,3 v 7.5 c 0,1.5 -1.5,3 -3,3 h -9 c -1.5,0 -3,-1.5 -3,-3 V 21 c 0,-1.5 1.5,-3 3,-3 z"
       id="path3066"
       sodipodi:nodetypes="ccccccccc" />
    <path
       id="path3068"
       style="fill:#fce94f;fill-opacity:1;stroke-width:0.425197;stroke-linejoin:round;stroke-opacity:0.580986"
       d="M 60,21 A 1.5,1.5 0 0 1 58.5,22.5 1.5,1.5 0 0 1 57,21 1.5,1.5 0 0 1 58.5,19.5 1.5,1.5 0 0 1 60,21 Z" />
    <path
       id="path3070"
       style="fill:#fce94f;fill-opacity:1;stroke-width:0.425197;stroke-linejoin:round;stroke-opacity:0.580986"
       d="M 66,21 A 1.5,1.5 0 0 1 64.5,22.5 1.5,1.5 0 0 1 63,21 1.5,1.5 0 0 1 64.5,19.5 1.5,1.5 0 0 1 66,21 Z" />
  </g>
  <path
     style="fill:#2e3436;fill-opacity:1;stroke-width:0.425197;stroke-linejoin:round;stroke-opacity:0.580986"
     d="M 3,33 V 15 c 0,-1.5 1.5,-3 3,-3 1.5,0 3,1.5 3,3 V 33 C 9,34.5 7.5,36 6,36 4.5,36 3,34.5 3,33 Z"
     id="path3509"
     sodipodi:nodetypes="ccccccc" />
  <path
     id="path3511"
     style="fill:#fce94f;fill-opacity:1;stroke-width:0.318898;stroke-linejoin:round;stroke-opacity:0.580986"
     d="m 6,22.875 c 0.62132,0 1.125,0.50368 1.125,1.125 0,0.62132 -0.50368,1.125 -1.125,1.125 -0.62132,0 -1.125,-0.50368 -1.125,-1.125 0,-0.62132 0.50368,-1.125 1.125,-1.125 z"
     sodipodi:nodetypes="sssss" />
  <path
     id="path3513"
     style="fill:#fce94f;fill-opacity:1;stroke-width:0.318898;stroke-linejoin:round;stroke-opacity:0.580986"
     d="m 6,19.875 c 0.62132,0 1.125,0.50368 1.125,1.125 0,0.62132 -0.50368,1.125 -1.125,1.125 -0.62132,0 -1.125,-0.50368 -1.125,-1.125 0,-0.62132 0.50368,-1.125 1.125,-1.125 z"
     sodipodi:nodetypes="sssss" />
  <path
     id="path3515"
     style="fill:#fce94f;fill-opacity:1;stroke-width:0.318898;stroke-linejoin:round;stroke-opacity:0.580986"
     d="m 6,16.875 c 0.62132,0 1.125,0.50368 1.125,1.125 0,0.62132 -0.50368,1.125 -1.125,1.125 -0.62132,0 -1.125,-0.50368 -1.125,-1.125 0,-0.62132 0.50368,-1.125 1.125,-1.125 z"
     sodipodi:nodetypes="sssss" />
  <path
     id="path3517"
     style="fill:#fce94f;fill-opacity:1;stroke-width:0.318898;stroke-linejoin:round;stroke-opacity:0.580986"
     d="m 6,13.875 c 0.62132,0 1.125,0.50368 1.125,1.125 0,0.62132 -0.50368,1.125 -1.125,1.125 -0.62132,0 -1.125,-0.50368 -1.125,-1.125 0,-0.62132 0.50368,-1.125 1.125,-1.125 z"
     sodipodi:nodetypes="sssss" />
  <path
     id="path3519"
     style="fill:#fce94f;fill-opacity:1;stroke-width:0.318898;stroke-linejoin:round;stroke-opacity:0.580986"
     d="m 6,31.875 c 0.62132,0 1.125,0.50368 1.125,1.125 0,0.62132 -0.50368,1.125 -1.125,1.125 -0.62132,0 -1.125,-0.50368 -1.125,-1.125 0,-0.62132 0.50368,-1.125 1.125,-1.125 z"
     sodipodi:nodetypes="sssss" />
  <path
     id="path3521"
     style="fill:#fce94f;fill-opacity:1;stroke-width:0.318898;stroke-linejoin:round;stroke-opacity:0.580986"
     d="m 6,28.875 c 0.62132,0 1.125,0.50368 1.125,1.125 0,0.62132 -0.50368,1.125 -1.125,1.125 -0.62132,0 -1.125,-0.50368 -1.125,-1.125 0,-0.62132 0.50368,-1.125 1.125,-1.125 z"
     sodipodi:nodetypes="sssss" />
  <path
     id="path3523"
     style="fill:#fce94f;fill-opacity:1;stroke-width:0.318898;stroke-linejoin:round;stroke-opacity:0.580986"
     d="m 6,25.875 c 0.62132,0 1.125,0.50368 1.125,1.125 0,0.62132 -0.50368,1.125 -1.125,1.125 -0.62132,0 -1.125,-0.50368 -1.125,-1.125 0,-0.62132 0.50368,-1.125 1.125,-1.125 z"
     sodipodi:nodetypes="sssss" />
  <path
     style="fill:#2e3436;fill-opacity:1;stroke-width:0.425197;stroke-linejoin:round;stroke-opacity:0.580986"
     d="M 39,33 V 15 c 0,-1.5 1.5,-3 3,-3 1.5,0 3,1.5 3,3 v 18 c 0,1.5 -1.5,3 -3,3 -1.5,0 -3,-1.5 -3,-3 z"
     id="path632"
     sodipodi:nodetypes="ccccccc" />
  <path
     id="path634"
     style="fill:#fce94f;fill-opacity:1;stroke-width:0.318898;stroke-linejoin:round;stroke-opacity:0.580986"
     d="m 42,22.875 c 0.62132,0 1.125,0.50368 1.125,1.125 0,0.62132 -0.50368,1.125 -1.125,1.125 -0.62132,0 -1.125,-0.50368 -1.125,-1.125 0,-0.62132 0.50368,-1.125 1.125,-1.125 z"
     sodipodi:nodetypes="sssss" />
  <path
     id="path636"
     style="fill:#fce94f;fill-opacity:1;stroke-width:0.318898;stroke-linejoin:round;stroke-opacity:0.580986"
     d="m 42,19.875 c 0.62132,0 1.125,0.50368 1.125,1.125 0,0.62132 -0.50368,1.125 -1.125,1.125 -0.62132,0 -1.125,-0.50368 -1.125,-1.125 0,-0.62132 0.50368,-1.125 1.125,-1.125 z"
     sodipodi:nodetypes="sssss" />
  <path
     id="path638"
     style="fill:#fce94f;fill-opacity:1;stroke-width:0.318898;stroke-linejoin:round;stroke-opacity:0.580986"
     d="m 42,16.875 c 0.62132,0 1.125,0.50368 1.125,1.125 0,0.62132 -0.50368,1.125 -1.125,1.125 -0.62132,0 -1.125,-0.50368 -1.125,-1.125 0,-0.62132 0.50368,-1.125 1.125,-1.125 z"
     sodipodi:nodetypes="sssss" />
  <path
     id="path640"
     style="fill:#fce94f;fill-opacity:1;stroke-width:0.318898;stroke-linejoin:round;stroke-opacity:0.580986"
     d="m 42,13.875 c 0.62132,0 1.125,0.50368 1.125,1.125 0,0.62132 -0.50368,1.125 -1.125,1.125 -0.62132,0 -1.125,-0.50368 -1.125,-1.125 0,-0.62132 0.50368,-1.125 1.125,-1.125 z"
     sodipodi:nodetypes="sssss" />
  <path
     id="path642"
     style="fill:#fce94f;fill-opacity:1;stroke-width:0.318898;stroke-linejoin:round;stroke-opacity:0.580986"
     d="m 42,31.875 c 0.62132,0 1.125,0.50368 1.125,1.125 0,0.62132 -0.50368,1.125 -1.125,1.125 -0.62132,0 -1.125,-0.50368 -1.125,-1.125 0,-0.62132 0.50368,-1.125 1.125,-1.125 z"
     sodipodi:nodetypes="sssss" />
  <path
     id="path644"
     style="fill:#fce94f;fill-opacity:1;stroke-width:0.318898;stroke-linejoin:round;stroke-opacity:0.580986"
     d="m 42,28.875 c 0.62132,0 1.125,0.50368 1.125,1.125 0,0.62132 -0.50368,1.125 -1.125,1.125 -0.62132,0 -1.125,-0.50368 -1.125,-1.125 0,-0.62132 0.50368,-1.125 1.125,-1.125 z"
     sodipodi:nodetypes="sssss" />
  <path
     id="path646"
     style="fill:#fce94f;fill-opacity:1;stroke-width:0.318898;stroke-linejoin:round;stroke-opacity:0.580986"
     d="m 42,25.875 c 0.62132,0 1.125,0.50368 1.125,1.125 0,0.62132 -0.50368,1.125 -1.125,1.125 -0.62132,0 -1.125,-0.50368 -1.125,-1.125 0,-0.62132 0.50368,-1.125 1.125,-1.125 z"
     sodipodi:nodetypes="sssss" />
  <rect
     style="fill:#888a85;stroke:none;stroke-width:2.25;stroke-linejoin:round;fill-opacity:1"
     id="rect709"
     width="7.5"
     height="6"
     x="12"
     y="39"
     ry="1.5" />
  <rect
     style="fill:#555753;fill-opacity:1;stroke:none;stroke-width:2.25;stroke-linejoin:round"
     id="rect2821"
     width="4.5"
     height="3"
     x="13.5"
     y="40.5"
     ry="1.5" />
  <rect
     style="fill:#888a85;fill-opacity:1;stroke:none;stroke-width:2.25;stroke-linejoin:round"
     id="rect3551"
     width="7.5"
     height="6"
     x="21"
     y="39"
     ry="1.5" />
  <rect
     style="fill:#555753;fill-opacity:1;stroke:none;stroke-width:2.25;stroke-linejoin:round"
     id="rect3553"
     width="4.5"
     height="3"
     x="22.5"
     y="40.5"
     ry="1.5" />
  <rect
     style="fill:#888a85;fill-opacity:1;stroke:none;stroke-width:2.25;stroke-linejoin:round"
     id="rect3555"
     width="7.5"
     height="6"
     x="30"
     y="39"
     ry="1.5" />
  <rect
     style="fill:#555753;fill-opacity:1;stroke:none;stroke-width:2.25;stroke-linejoin:round"
     id="rect3557"
     width="4.5"
     height="3"
     x="31.5"
     y="40.5"
     ry="1.5" />
  <g
     id="g3597"
     transform="translate(-28.5,-18)">
    <path
       style="fill:#2e3436;fill-opacity:1;stroke-width:0.425197;stroke-linejoin:round;stroke-opacity:0.580986"
       d="m 57,18 h 9 c 1.5,0 3,1.5 3,3 v 7.5 c 0,1.5 -1.5,3 -3,3 h -9 c -1.5,0 -3,-1.5 -3,-3 V 21 c 0,-1.5 1.5,-3 3,-3 z"
       id="path3591"
       sodipodi:nodetypes="ccccccccc" />
    <path
       id="path3593"
       style="fill:#fce94f;fill-opacity:1;stroke-width:0.425197;stroke-linejoin:round;stroke-opacity:0.580986"
       d="M 60,21 A 1.5,1.5 0 0 1 58.5,22.5 1.5,1.5 0 0 1 57,21 1.5,1.5 0 0 1 58.5,19.5 1.5,1.5 0 0 1 60,21 Z" />
    <path
       id="path3595"
       style="fill:#fce94f;fill-opacity:1;stroke-width:0.425197;stroke-linejoin:round;stroke-opacity:0.580986"
       d="M 66,21 A 1.5,1.5 0 0 1 64.5,22.5 1.5,1.5 0 0 1 63,21 1.5,1.5 0 0 1 64.5,19.5 1.5,1.5 0 0 1 66,21 Z" />
  </g>
</svg>
