<?xml version="1.0" encoding="UTF-8" standalone="no"?>
<svg
   fill="none"
   viewBox="0 0 48 48"
   height="256"
   width="256"
   version="1.1"
   id="svg12"
   sodipodi:docname="arrow_up.svg"
   inkscape:version="1.1.1 (3bf5ae0d25, 2021-09-20)"
   xmlns:inkscape="http://www.inkscape.org/namespaces/inkscape"
   xmlns:sodipodi="http://sodipodi.sourceforge.net/DTD/sodipodi-0.dtd"
   xmlns="http://www.w3.org/2000/svg"
   xmlns:svg="http://www.w3.org/2000/svg">
  <defs
     id="defs16" />
  <sodipodi:namedview
     id="namedview14"
     pagecolor="#ffffff"
     bordercolor="#666666"
     borderopacity="1.0"
     inkscape:pageshadow="2"
     inkscape:pageopacity="0.0"
     inkscape:pagecheckerboard="0"
     showgrid="false"
     inkscape:zoom="1"
     inkscape:cx="600.5"
     inkscape:cy="30"
     inkscape:window-width="3440"
     inkscape:window-height="1330"
     inkscape:window-x="-12"
     inkscape:window-y="-12"
     inkscape:window-maximized="1"
     inkscape:current-layer="svg12"
     inkscape:snap-bbox="true"
     inkscape:snap-page="true"
     inkscape:bbox-paths="true"
     inkscape:bbox-nodes="true"
     inkscape:snap-bbox-edge-midpoints="true"
     inkscape:snap-bbox-midpoints="true"
     inkscape:object-paths="true"
     inkscape:snap-intersection-paths="true"
     inkscape:snap-smooth-nodes="true"
     inkscape:snap-midpoints="true"
     inkscape:snap-object-midpoints="true"
     inkscape:snap-center="true"
     inkscape:snap-text-baseline="true" />
  <path
     fill="#77c32f"
     d="m 21.330671,47.999675 5.339188,2.6e-4 c 2.657176,0.0174 2.753021,-3.461651 2.810441,-14.245575 0,-5.684741 -0.0497,-10.106035 -0.118436,-13.502236 1.651429,-0.04519 3.053774,-0.110093 4.24071,-0.184611 3.204312,-0.201487 4.700332,-3.4123 2.994572,-6.212088 -3.921029,-6.4353881 -7.575434,-10.4921331 -9.92745,-12.7466611 -1.542206,-1.47818002 -3.797192,-1.47843702 -5.339293,-2.59e-4 -2.352149,2.254526 -6.006552,6.311013 -9.927688,12.7471811 -1.705548,2.799527 -0.2095,6.01034 2.994757,6.211827 1.309442,0.0823 2.881357,0.152674 4.760734,0.197853 -0.06868,3.394644 -0.118194,7.811781 -0.118194,13.488994 -0.07898,10.92073 -0.328344,14.211911 2.290657,14.245315 z"
     id="path10"
     sodipodi:nodetypes="ccccccccccccc"
     style="stroke-width:1" />
</svg>
