<?xml version="1.0" encoding="UTF-8" standalone="no"?>
<svg
   fill="none"
   viewBox="0 0 48 48"
   height="256"
   width="256"
   version="1.1"
   id="svg12"
   sodipodi:docname="arrow_right.svg"
   inkscape:version="1.1.1 (3bf5ae0d25, 2021-09-20)"
   xmlns:inkscape="http://www.inkscape.org/namespaces/inkscape"
   xmlns:sodipodi="http://sodipodi.sourceforge.net/DTD/sodipodi-0.dtd"
   xmlns="http://www.w3.org/2000/svg"
   xmlns:svg="http://www.w3.org/2000/svg">
  <defs
     id="defs16" />
  <sodipodi:namedview
     id="namedview14"
     pagecolor="#ffffff"
     bordercolor="#666666"
     borderopacity="1.0"
     inkscape:pageshadow="2"
     inkscape:pageopacity="0.0"
     inkscape:pagecheckerboard="0"
     showgrid="false"
     inkscape:zoom="1"
     inkscape:cx="600.5"
     inkscape:cy="30"
     inkscape:window-width="3440"
     inkscape:window-height="1330"
     inkscape:window-x="-12"
     inkscape:window-y="-12"
     inkscape:window-maximized="1"
     inkscape:current-layer="svg12"
     inkscape:snap-bbox="true"
     inkscape:snap-page="true"
     inkscape:bbox-paths="true"
     inkscape:bbox-nodes="true"
     inkscape:snap-bbox-edge-midpoints="true"
     inkscape:snap-bbox-midpoints="true"
     inkscape:object-paths="true"
     inkscape:snap-intersection-paths="true"
     inkscape:snap-smooth-nodes="true"
     inkscape:snap-midpoints="true"
     inkscape:snap-object-midpoints="true"
     inkscape:snap-center="true"
     inkscape:snap-text-baseline="true" />
  <path
     fill="#77c32f"
     d="M 3.2462358e-4,21.330671 6.4978926e-5,26.669859 C -0.01733146,29.327035 3.4617159,29.42288 14.24564,29.4803 c 5.684741,0 10.106035,-0.0497 13.502236,-0.118436 0.04519,1.651429 0.110093,3.053774 0.184611,4.24071 0.201487,3.204312 3.4123,4.700332 6.212088,2.994572 6.435388,-3.921029 10.492133,-7.575434 12.746661,-9.92745 1.47818,-1.542206 1.478437,-3.797192 2.59e-4,-5.339293 -2.254526,-2.352149 -6.311013,-6.006552 -12.747181,-9.927688 -2.799527,-1.705548 -6.01034,-0.2095 -6.211827,2.994757 -0.0823,1.309442 -0.152674,2.881357 -0.197853,4.760734 C 24.33999,19.089525 19.922853,19.040012 14.24564,19.040012 3.3249097,18.961035 0.0337284,18.711668 3.2462358e-4,21.330669 Z"
     id="path10"
     sodipodi:nodetypes="ccccccccccccc"
     style="stroke-width:1" />
</svg>
