<?xml version="1.0" encoding="UTF-8" standalone="no"?>
<svg
   fill="none"
   viewBox="0 0 48 48"
   height="256"
   width="256"
   version="1.1"
   id="svg6"
   sodipodi:docname="ada.svg"
   inkscape:version="1.2.1 (9c6d41e410, 2022-07-14)"
   xml:space="preserve"
   xmlns:inkscape="http://www.inkscape.org/namespaces/inkscape"
   xmlns:sodipodi="http://sodipodi.sourceforge.net/DTD/sodipodi-0.dtd"
   xmlns="http://www.w3.org/2000/svg"
   xmlns:svg="http://www.w3.org/2000/svg"><defs
     id="defs10">
		
		
		
		
		
		
		
		
		
		
		
		
		
		
		
		
		
		
		
		
		
		
		
		
		
		
		
		
		
		
		
		
		
		
		
		
		
		
		
		
		
	</defs><sodipodi:namedview
     id="namedview8"
     pagecolor="#ffffff"
     bordercolor="#666666"
     borderopacity="1.0"
     inkscape:showpageshadow="2"
     inkscape:pageopacity="0.0"
     inkscape:pagecheckerboard="true"
     inkscape:deskcolor="#d1d1d1"
     showgrid="true"
     inkscape:zoom="1.6191406"
     inkscape:cx="138.345"
     inkscape:cy="128.1544"
     inkscape:current-layer="svg6"
     showguides="false"
     inkscape:window-width="1920"
     inkscape:window-height="730"
     inkscape:window-x="-6"
     inkscape:window-y="-6"
     inkscape:window-maximized="1"><inkscape:grid
       type="xygrid"
       id="grid239"
       units="px"
       spacingx="1.5"
       spacingy="1.5" /></sodipodi:namedview><path
     fill="#edf1e9"
     d="m 23.999962,46.000062 c 4.083201,0 6.815001,-0.3009 8.0707,-0.4782 0.525301,-0.0743 1.0169,-0.2779 1.440801,-0.5969 1.013299,-0.7624 3.157699,-2.4813 6.044999,-5.3686 2.8872,-2.8872 4.6061,-5.0316 5.3685,-6.0449 0.3191,-0.424 0.5227,-0.9155 0.5969,-1.4409 0.1773,-1.2555 0.4782,-3.9873 0.4782,-8.0705 0,-4.0832 -0.3009,-6.815 -0.4782,-8.0706 -0.0742,-0.5253 -0.2778,-1.0169 -0.5969,-1.4409 -0.7624,-1.0132 -2.4813,-3.1576 -5.3685,-6.0448595 -2.8873,-2.8872 -5.0317,-4.60613 -6.0449,-5.36857 -0.424,-0.31903 -0.915599,-0.52263 -1.440999,-0.59684 -1.2556,-0.17735 -3.9874,-0.47823 -8.070501,-0.47823 -4.0831,0 -6.8149,0.30088 -8.070499,0.47823 -0.525401,0.07421 -1.017001,0.2778 -1.440901,0.59684 -1.013299,0.76242 -3.157699,2.48134 -6.0449395,5.36857 -2.88725,2.8872605 -4.60617,5.0316595 -5.36859,6.0449595 -0.31902,0.4239 -0.52261,0.9154 -0.59683,1.4408 -0.17735,1.2556 -0.47824,3.9874 -0.47824,8.0706 0,4.0832 0.30089,6.815 0.47824,8.0706 0.07422,0.5253 0.27781,1.0168 0.59683,1.4408 0.76242,1.0133 2.48133,3.1577 5.36855,6.0449 2.8871795,2.8872 5.0316795,4.6062 6.0449795,5.3686 0.4239,0.319 0.9155,0.5226 1.4409,0.5969 1.2555,0.1773 3.9873,0.4782 8.0704,0.4782 z"
     id="path3678"
     style="fill:#edf1e9;fill-opacity:1" /><path
     id="path4"
     style="fill:#606668;fill-opacity:1;stroke:#000000;stroke-width:0.0151875"
     d="m 32.147152,5.4530252 c -0.124833,-0.016085 -0.280208,0.4308471 -0.464227,1.8299161 -0.740709,5.6316557 2.782266,10.2812967 5.779258,13.6930737 2.330458,1.572999 2.38835,4.107654 2.231554,7.504761 0.03854,-0.187684 0.07584,-0.372128 0.11183,-0.553514 1.115625,-5.622941 0.941308,-8.300531 -4.447387,-13.05769 -2.183337,-1.864157 -2.846172,-7.6679075 -2.846172,-7.6679075 0,0 -0.126539,-1.7179297 -0.364856,-1.7486393 z M 30.339483,9.483349 c -0.175942,0.022893 -0.26555,1.075061 0.08662,3.569359 0.268503,1.901753 1.718766,3.692786 2.253208,4.297588 0.04111,0.04652 0.07688,0.08607 0.106195,0.118059 0.05864,0.06399 0.09166,0.09789 0.09166,0.09789 1.69178,0.790402 3.405619,3.384855 3.405619,3.384855 0.633896,-0.192991 0.842432,-0.0048 0.842432,-0.0048 -1.874552,-2.346017 -1.320035,-1.778789 -3.558094,-4.341434 -2.130211,-2.43911 -2.931306,-6.369555 -2.931306,-6.369555 C 30.547356,9.7418248 30.431643,9.4713603 30.339483,9.483352 Z M 7.2841454,12.058698 c -0.1927656,0.02249 -0.3113973,0.946532 -0.3868065,1.953017 -0.1238085,1.65167 0.5291559,4.489574 1.4330241,5.687304 1.772987,3.626165 6.687276,7.906446 13.464965,6.616649 2.106625,-0.601106 3.940591,0.377911 5.255706,1.499765 1.264843,1.28884 1.708004,1.509793 2.574162,0.999645 -0.898204,-0.869953 -1.859722,-1.88666 -1.839705,-3.227046 0.06311,-0.973214 0.417989,-1.927116 1.042361,-2.446908 -0.616429,-2.163048 -4.070548,-2.267526 -5.609586,-2.112902 -1.993054,0.134667 -3.994182,1.163131 -5.774217,1.359459 C 12.501313,21.982828 8.9181683,18.580612 7.7543063,13.342813 7.5615551,12.400453 7.4077145,12.04428 7.2841454,12.058698 Z m 22.6685306,1.571551 c -0.06109,-4.23e-4 -0.106794,0.166239 -0.149798,0.530079 -0.0587,0.49701 0.301624,2.789197 1.309329,2.89393 0.585222,0.06081 1.17374,0.234539 1.311702,0.277053 0.01971,0.0061 0.03026,0.0095 0.03026,0.0095 0,0 -0.02987,-0.0334 -0.08247,-0.09314 -0.368146,-0.4182 -1.850895,-2.123217 -2.013233,-2.640015 -0.19451,-0.619335 -0.316507,-0.976781 -0.405792,-0.977398 z m 0.708355,3.672586 c -3.172984,0.111734 -3.317519,1.718383 -3.317519,1.718383 0,0 0.0041,-0.0068 0.01246,-0.01898 0.124527,-0.182373 1.201503,-1.568817 3.783526,0.747806 2.388247,2.668381 4.706643,1.131647 4.706643,1.131647 -0.635913,-0.82866 -2.510059,-3.419595 -5.185106,-3.578851 z m -7.258261,1.195423 c -1.885343,0.0015 -3.941419,0.379411 -6.152123,1.301023 0.116919,-0.02787 0.233436,-0.05506 0.349727,-0.08158 3.60503,-0.821946 6.905029,-0.980978 9.683218,0.142085 -0.377285,-0.433389 -0.489264,-0.637898 -0.402528,-0.617288 0.246388,0.05859 0.369898,-0.211201 0.369898,-0.211201 -1.187514,-0.33481 -2.4724,-0.534188 -3.848192,-0.533046 z m 5.098195,0.178274 c -0.310033,-0.0011 -0.707915,0.165739 -1.029309,0.85845 0,0 0.213148,0.20425 0.519994,0.199633 0.0047,-7e-5 0.0093,-4.26e-4 0.01394,-5.93e-4 0.02346,-8.37e-4 0.04732,-0.0027 0.07178,-0.0062 0.0049,-6.97e-4 0.0099,-0.0015 0.01483,-0.0023 0.142985,-0.02353 0.301772,-0.09578 0.466007,-0.25184 0.0057,-0.0054 0.01123,-0.01074 0.01691,-0.01632 0.141902,-0.139553 0.287519,-0.342324 0.430708,-0.630637 0,7e-6 -0.213623,-0.149116 -0.504866,-0.150095 z m 1.070837,0.488255 c -0.305382,0.0035 -0.62992,0.144575 -0.944472,0.52563 -10e-6,-1.1e-5 -0.188153,0.22061 -0.646656,0.260739 -0.03987,0.0035 -0.08176,0.0054 -0.125771,0.0059 -0.07702,8.69e-4 -0.160477,-0.0032 -0.250653,-0.01364 -0.01288,-0.0015 -0.0257,-0.0032 -0.03886,-0.005 -0.07895,-0.0106 -0.163074,-0.02596 -0.252137,-0.04717 0,0 -0.270765,1.176588 1.302507,2.086501 1.097615,0.634806 0.480245,0.808912 0.480245,0.808912 0,0 0.509578,0.09227 1.365985,-0.686997 1.216366,-1.106818 0.598008,-1.983867 0.598008,-1.983867 0,0 -0.676752,-0.96039 -1.488197,-0.950999 z m 1.94056,1.294497 c 0,0 0.163719,1.69043 -2.119428,2.447798 0.512569,-0.147755 2.688277,-0.60532 5.033232,1.398319 0,0 0.280862,-2.104115 1.559389,-3.183444 -0.139798,0.04047 -1.989689,1.257991 -4.201777,-0.440793 -0.01798,-0.01382 -0.03596,-0.02762 -0.05398,-0.04182 -0.07213,-0.0568 -0.144607,-0.116879 -0.21743,-0.180055 z M 8.5543199,22.457983 c -0.4587291,0.0018 0.022059,2.201027 2.1004421,4.326954 2.928709,2.995625 7.425208,3.939295 8.860365,3.992058 3.965861,0.145784 8.114633,-2.059211 8.114633,-2.059211 -3.695373,-3.36787 -6.333662,-1.764657 -6.333662,-1.764657 -0.993357,0.368143 -2.05914,0.528769 -3.17217,0.496857 -0.05059,-0.0014 -0.101387,-0.0031 -0.152173,-0.0053 -2.082178,-0.09206 -4.324159,-0.851275 -6.562067,-2.182609 0,0 -1.086682,-0.465285 -2.2635902,-2.238971 C 8.8847819,22.629217 8.6827643,22.45748 8.5543199,22.457983 Z m 20.8359441,0.449988 c -0.07259,0.021 -0.11094,0.03559 -0.11094,0.03559 0.03754,-0.01153 0.07465,-0.02358 0.11094,-0.03559 z m 10.252157,5.794388 c 0,0 -0.93797,2.632578 -1.800253,3.363794 0,0 0.215179,0.05125 0.424478,0.375832 0.0052,0.0081 0.0105,0.01646 0.01572,0.02492 0.120095,0.194572 0.236616,0.481394 0.307013,0.902647 0.561769,-1.375878 1.05304,-4.66719 1.05304,-4.66719 z m -9.829161,0.240568 c -0.677468,0.557411 -1.368359,0.325404 -1.368359,0.325404 0.961567,1.943572 1.742968,2.357577 4.424546,3.529611 1.635085,0.74765 2.171039,1.17721 1.789575,1.858095 0,0 0.03184,-0.01699 0.08929,-0.04954 0.402094,-0.227823 2.062218,-1.21731 2.892744,-2.467968 0,0 -5.150875,-0.912728 -7.827792,-3.195605 z m -1.938482,0.132594 c -1.870038,0.869383 -4.32621,2.24846 -8.108703,2.36919 -0.140091,0.0045 -0.281896,0.0071 -0.425664,0.008 -0.575074,0.0037 -1.179958,-0.02144 -1.816864,-0.08158 -1.054011,-0.211486 -1.948541,-0.3539 -3.202724,-0.949812 -1.936267,-1.1929 -0.725061,0.351568 -0.548173,0.535716 1.834587,1.910099 4.7867,2.374946 6.896667,2.47746 3.154698,0.284523 7.57687,-1.709094 7.205461,-4.35899 z m 0.364262,0.385323 c 0,0 0.08336,2.274228 -3.157042,3.766915 -1.858477,0.856122 -0.371774,0.772945 1.066092,0.335787 0.0282,-0.0085 0.05612,-0.01726 0.08424,-0.0261 0.337565,-0.106074 0.668919,-0.231167 0.949515,-0.367527 1.5391,-0.747967 1.874125,-1.799142 1.653421,-2.662262 -0.168506,-0.658909 -0.427512,-0.864424 -0.596229,-1.04681 z m 9.524521,2.93101 c -0.584309,3.287118 -4.832173,6.888397 -11.365116,7.333012 -2.320327,0.157933 -3.214291,-0.370493 -3.214291,-0.370493 0.997697,3.08663 5.35656,2.370971 5.35656,2.370971 2.201607,-0.440483 4.110923,-1.179042 5.951601,-2.70824 4.189741,-3.48056 3.271246,-6.62525 3.271246,-6.62525 z m 0.326294,0.153655 c 0.289867,2.268827 -0.921712,4.368682 -2.925077,6.413752 -1.800006,1.837519 -6.320285,3.833563 -9.375613,3.45219 2.323564,1.818656 5.383555,0.840652 5.383555,0.840652 7.669755,-1.965701 7.949641,-9.702611 6.917135,-10.706594 z m -0.740095,0.309979 c 0,0 -2.683942,3.189126 -7.576545,4.333776 -3.178118,0.743505 -4.183681,0.582881 -4.183681,0.582881 0,0 0.579992,1.398523 2.427626,1.370137 3.192941,-0.04912 8.377353,-2.88094 9.3326,-6.286794 z"
     sodipodi:nodetypes="sccccccssssscccccsssccccccccccscccccccccsccccssccccccccccscscccccccccscccscccccccccccscsccccccccsccccccccccscccscsscccccccccccccccsccccccccccccccccc" /><path
     id="path2301"
     style="fill:#507ab7;fill-opacity:1;stroke:#000000;stroke-width:0.0151875"
     d="m 36.842234,21.163782 c 0.68284,-0.512132 -1.445264,0.878651 -1.781864,1.676558 -0.37141,0.880403 -0.47194,1.600916 -0.47194,1.600916 0.0241,-0.04792 0.048,-0.09476 0.0718,-0.140306 2.964224,-5.66906 3.404184,6.897784 3.253454,7.368311 0.0535,-0.07425 1.00103,-1.400706 1.40187,-2.818586 0.80868,-4.57921 -0.69602,-7.069732 -2.20011,-7.65723 -0.0939,-0.02006 -0.34383,0.02332 -0.27319,-0.02966 z m 1.07143,10.505479 c -0.002,0.0022 -0.01,0.01394 -0.01,0.01394 0.004,6.6e-4 0.007,-0.0044 0.01,-0.01394 z M 30.36381,23.036116 c -0.47626,0.0017 -0.94277,0.07619 -1.464174,0.479949 -1.88272,2.313224 -0.44864,5.021217 3.774334,6.853656 0.0862,0.0374 0.17343,0.07429 0.26193,0.11094 1.22968,0.509323 2.68332,0.946072 4.347724,1.281446 -0.002,-6.58e-4 -0.004,-0.0011 -0.007,-0.0018 -0.1161,-0.03704 -0.32389,-0.175066 -0.59267,-0.388884 -0.0384,-0.03055 -0.0782,-0.06254 -0.11895,-0.09611 -2.243624,-1.846165 -7.975368,-8.150972 -2.226814,-6.715723 0,0 -0.61829,-0.604715 -1.60003,-1.050666 -0.49083,-0.222967 -1.12262,-0.440983 -1.71334,-0.454439 -0.22652,-0.0051 -0.445,-0.01919 -0.66148,-0.0184 z m 6.919814,8.725991 c 0.0138,0.004 0.0267,0.0067 0.0377,0.0077 -0.0127,-0.0025 -0.025,-0.0051 -0.0377,-0.0077 z M 35.94818,23.465638 c -0.35775,-0.0036 -0.78321,0.417581 -1.28945,1.442812 -2.74409,-1.004104 -3.76053,1.242281 3.132134,7.065451 -0.11479,-2.534925 -0.5044,-8.494643 -1.842684,-8.508263 z"
     sodipodi:nodetypes="sscccccsscccccscccsccscccccccccc" /></svg>
