<?xml version="1.0" encoding="UTF-8" standalone="no"?>
<svg
   fill="none"
   viewBox="0 0 48 48"
   height="256"
   width="256"
   version="1.1"
   id="svg6"
   sodipodi:docname="c.svg"
   inkscape:version="1.2.1 (9c6d41e410, 2022-07-14)"
   xmlns:inkscape="http://www.inkscape.org/namespaces/inkscape"
   xmlns:sodipodi="http://sodipodi.sourceforge.net/DTD/sodipodi-0.dtd"
   xmlns="http://www.w3.org/2000/svg"
   xmlns:svg="http://www.w3.org/2000/svg">
  <defs
     id="defs10" />
  <sodipodi:namedview
     id="namedview8"
     pagecolor="#ffffff"
     bordercolor="#666666"
     borderopacity="1.0"
     inkscape:showpageshadow="2"
     inkscape:pageopacity="0.0"
     inkscape:pagecheckerboard="true"
     inkscape:deskcolor="#d1d1d1"
     showgrid="true"
     inkscape:zoom="1.1449053"
     inkscape:cx="71.621644"
     inkscape:cy="103.50201"
     inkscape:current-layer="svg6"
     showguides="false"
     inkscape:window-width="1920"
     inkscape:window-height="730"
     inkscape:window-x="-6"
     inkscape:window-y="-6"
     inkscape:window-maximized="1">
    <inkscape:grid
       type="xygrid"
       id="grid239"
       units="px"
       spacingx="1.5"
       spacingy="1.5" />
  </sodipodi:namedview>
  <path
     fill="#edf1e9"
     d="m 23.999962,46.000062 c 4.083201,0 6.815001,-0.3009 8.0707,-0.4782 0.525301,-0.0743 1.0169,-0.2779 1.440801,-0.5969 1.013299,-0.7624 3.157699,-2.4813 6.044999,-5.3686 2.8872,-2.8872 4.6061,-5.0316 5.3685,-6.0449 0.3191,-0.424 0.5227,-0.9155 0.5969,-1.4409 0.1773,-1.2555 0.4782,-3.9873 0.4782,-8.0705 0,-4.0832 -0.3009,-6.815 -0.4782,-8.0706 -0.0742,-0.5253 -0.2778,-1.0169 -0.5969,-1.4409 -0.7624,-1.0132 -2.4813,-3.1576 -5.3685,-6.0448595 -2.8873,-2.8872 -5.0317,-4.60613 -6.0449,-5.36857 -0.424,-0.31903 -0.915599,-0.52263 -1.440999,-0.59684 -1.2556,-0.17735 -3.9874,-0.47823 -8.070501,-0.47823 -4.0831,0 -6.8149,0.30088 -8.070499,0.47823 -0.525401,0.07421 -1.017001,0.2778 -1.440901,0.59684 -1.013299,0.76242 -3.157699,2.48134 -6.0449395,5.36857 -2.88725,2.8872605 -4.60617,5.0316595 -5.36859,6.0449595 -0.31902,0.4239 -0.52261,0.9154 -0.59683,1.4408 -0.17735,1.2556 -0.47824,3.9874 -0.47824,8.0706 0,4.0832 0.30089,6.815 0.47824,8.0706 0.07422,0.5253 0.27781,1.0168 0.59683,1.4408 0.76242,1.0133 2.48133,3.1577 5.36855,6.0449 2.8871795,2.8872 5.0316795,4.6062 6.0449795,5.3686 0.4239,0.319 0.9155,0.5226 1.4409,0.5969 1.2555,0.1773 3.9873,0.4782 8.0704,0.4782 z"
     id="path3678"
     style="fill:#edf1e9;fill-opacity:1" />
  <path
     id="path2363"
     style="fill:#606668;fill-opacity:1;stroke-width:0.757112"
     d="m 24.000062,13.406576 c -5.86318,0 -10.62341,4.738946 -10.62341,10.576172 0,5.837228 4.76023,10.576172 10.62341,10.576172 3.647407,0 6.867395,-1.834043 8.780513,-4.625429 0.201693,-0.311219 0.190103,-0.856314 -0.215461,-1.089734 l -3.311162,-1.813832 c -0.471233,-0.15511 -0.800185,-0.10319 -1.068917,0.206921 -0.972504,1.237647 -2.486022,2.033988 -4.184973,2.033988 -2.93122,0 -5.31152,-2.369847 -5.31152,-5.288086 0,-2.918995 2.37954,-5.288086 5.31152,-5.288086 1.522996,0 2.89726,0.639563 3.866205,1.663512 0.33544,0.36717 1.170318,0.55168 1.587469,0.346243 l 2.998338,-1.705582 c 0.385349,-0.22793 0.352557,-0.947499 0.152358,-1.21524 -1.93101,-2.651058 -5.066524,-4.377019 -8.60437,-4.377019 z"
     sodipodi:nodetypes="sssccccsssccccs" />
</svg>
