<?xml version="1.0" encoding="UTF-8" standalone="no"?>
<svg
   fill="none"
   viewBox="0 0 48 48"
   height="256"
   width="256"
   version="1.1"
   id="svg6"
   sodipodi:docname="chinese.svg"
   inkscape:version="1.2.1 (9c6d41e410, 2022-07-14)"
   xmlns:inkscape="http://www.inkscape.org/namespaces/inkscape"
   xmlns:sodipodi="http://sodipodi.sourceforge.net/DTD/sodipodi-0.dtd"
   xmlns="http://www.w3.org/2000/svg"
   xmlns:svg="http://www.w3.org/2000/svg">
  <g
     aria-label="简"
     id="text296"
     style="font-size:52.0678px;font-family:Inconsolata;-inkscape-font-specification:'Inconsolata, Normal';fill:#6091d0;stroke-width:0.35433;fill-opacity:1">
    <path
       d="m 19.932203,30.711866 v 6.305085 h 8.338984 V 30.711866 Z M 8.9491519,20.338984 q 0,21.966102 0.2033899,26.237289 L 6.1016942,48.000002 Q 6.305084,38.644069 6.305084,29.288137 q 0,-9.559323 -0.2033898,-12.81356 l 4.4745768,2.033898 z m 1.0169492,-8.338983 q 4.6779659,2.440678 5.2881359,3.661017 0.813559,1.016949 0.813559,1.830508 0,0.61017 -0.406779,1.423729 -0.40678,0.813559 -1.220339,1.220339 -0.81356,0.40678 -1.01695,-1.016949 Q 13.016949,17.898306 12.203389,16.271187 11.38983,14.644068 9.5593214,12.81356 Z M 31.525424,42.305086 q 3.661017,0.40678 5.084746,0.40678 1.627119,0.20339 2.440678,0 0.813559,-0.20339 0.813559,-1.423729 V 16.271187 H 24.610169 q -1.627118,0 -3.864406,0.61017 l -1.830509,-1.830509 h 20.745764 l 1.830508,-1.830508 2.847458,2.847457 -1.830509,1.220339 v 25.42373 q 0,1.423729 -0.610169,2.440678 -0.61017,1.220339 -3.254238,2.237288 -0.813559,-3.050847 -7.118644,-4.271186 z M 17.084745,41.491527 q 0.20339,-6.711865 0.20339,-12.61017 0,-5.898305 -0.20339,-8.542373 l 2.847458,1.830508 h 8.542373 l 1.220339,-2.033898 3.254238,2.847458 -2.033899,1.627118 q 0,12.000001 0.40678,14.440679 l -3.050847,1.220339 V 38.23729 h -8.338984 v 2.033898 z m 2.847458,-18.101696 v 6.101696 h 8.338984 V 23.389831 Z M 14.237288,3.0508476 12.610169,3.6610171 10.576271,6.1016952 h 8.949153 L 21.762712,3.864407 25.016949,7.3220342 H 14.033898 q 3.050847,1.4237289 3.457627,2.4406781 0.61017,1.0169487 0.61017,1.4237287 0,0.40678 -0.40678,1.220339 -0.40678,0.81356 -1.220339,1.016949 -0.813559,0.20339 -1.016949,-1.220339 -0.40678,-1.220339 -1.016949,-2.2372879 -0.40678,-1.220339 -1.627119,-2.6440679 H 9.7627113 Q 8.3389824,8.5423733 6.5084739,10.576272 4.4745755,12.81356 1.8305076,14.847458 L 1.4237279,14.237289 Q 4.0677958,11.389831 6.5084739,7.5254241 9.1525418,3.6610171 10.372881,4.4703484e-8 Z M 33.152543,2.8474578 31.322034,3.6610171 29.491526,6.1016952 h 11.59322 L 43.322035,3.864407 46.576272,7.3220342 H 33.152543 q 3.661017,1.8305086 3.864407,2.6440679 0.406779,0.6101699 0.406779,1.0169489 0,0.40678 -0.20339,1.01695 Q 37.01695,12.40678 36.40678,12.81356 36,13.22034 35.796611,13.22034 q -0.40678,0 -0.81356,-0.61017 -0.20339,-0.813559 -0.610169,-2.237288 -0.40678,-1.2203392 -2.033899,-3.0508478 H 28.881356 Q 25.830509,10.576272 22.372881,13.423729 L 21.762712,12.81356 q 3.050847,-3.4576274 4.881356,-6.9152546 2.033898,-3.6610171 2.847458,-5.69491552 z"
       style="stroke-width:0.354331;fill:#6091d0;fill-opacity:1"
       id="path906" />
  </g>
  <defs
     id="defs10" />
  <sodipodi:namedview
     id="namedview8"
     pagecolor="#ffffff"
     bordercolor="#666666"
     borderopacity="1.0"
     inkscape:showpageshadow="2"
     inkscape:pageopacity="0.0"
     inkscape:pagecheckerboard="true"
     inkscape:deskcolor="#d1d1d1"
     showgrid="true"
     inkscape:zoom="1.6191406"
     inkscape:cx="-99.435466"
     inkscape:cy="92.332933"
     inkscape:current-layer="svg6"
     showguides="false"
     inkscape:window-width="1920"
     inkscape:window-height="730"
     inkscape:window-x="-6"
     inkscape:window-y="-6"
     inkscape:window-maximized="1">
    <inkscape:grid
       type="xygrid"
       id="grid239"
       units="px"
       spacingx="1.5"
       spacingy="1.5" />
  </sodipodi:namedview>
</svg>
