<?xml version="1.0" encoding="UTF-8" standalone="no"?>
<svg
   fill="none"
   viewBox="0 0 48 48"
   height="256"
   width="256"
   version="1.1"
   id="svg6"
   sodipodi:docname="cmake.svg"
   inkscape:version="1.2.1 (9c6d41e410, 2022-07-14)"
   xmlns:inkscape="http://www.inkscape.org/namespaces/inkscape"
   xmlns:sodipodi="http://sodipodi.sourceforge.net/DTD/sodipodi-0.dtd"
   xmlns="http://www.w3.org/2000/svg"
   xmlns:svg="http://www.w3.org/2000/svg">
  <defs
     id="defs10" />
  <sodipodi:namedview
     id="namedview8"
     pagecolor="#ffffff"
     bordercolor="#666666"
     borderopacity="1.0"
     inkscape:showpageshadow="2"
     inkscape:pageopacity="0.0"
     inkscape:pagecheckerboard="true"
     inkscape:deskcolor="#d1d1d1"
     showgrid="true"
     inkscape:zoom="1.4142136"
     inkscape:cx="196.57569"
     inkscape:cy="117.73328"
     inkscape:current-layer="svg6"
     showguides="false"
     inkscape:window-width="1920"
     inkscape:window-height="730"
     inkscape:window-x="-6"
     inkscape:window-y="-6"
     inkscape:window-maximized="1">
    <inkscape:grid
       type="xygrid"
       id="grid239"
       units="px"
       spacingx="1.5"
       spacingy="1.5" />
  </sodipodi:namedview>
  <path
     fill="#edf1e9"
     d="m 23.999962,46.000062 c 4.083201,0 6.815001,-0.3009 8.0707,-0.4782 0.525301,-0.0743 1.0169,-0.2779 1.440801,-0.5969 1.013299,-0.7624 3.157699,-2.4813 6.044999,-5.3686 2.8872,-2.8872 4.6061,-5.0316 5.3685,-6.0449 0.3191,-0.424 0.5227,-0.9155 0.5969,-1.4409 0.1773,-1.2555 0.4782,-3.9873 0.4782,-8.0705 0,-4.0832 -0.3009,-6.815 -0.4782,-8.0706 -0.0742,-0.5253 -0.2778,-1.0169 -0.5969,-1.4409 -0.7624,-1.0132 -2.4813,-3.1576 -5.3685,-6.0448595 -2.8873,-2.8872 -5.0317,-4.60613 -6.0449,-5.36857 -0.424,-0.31903 -0.915599,-0.52263 -1.440999,-0.59684 -1.2556,-0.17735 -3.9874,-0.47823 -8.070501,-0.47823 -4.0831,0 -6.8149,0.30088 -8.070499,0.47823 -0.525401,0.07421 -1.017001,0.2778 -1.440901,0.59684 -1.013299,0.76242 -3.157699,2.48134 -6.0449395,5.36857 -2.88725,2.8872605 -4.60617,5.0316595 -5.36859,6.0449595 -0.31902,0.4239 -0.52261,0.9154 -0.59683,1.4408 -0.17735,1.2556 -0.47824,3.9874 -0.47824,8.0706 0,4.0832 0.30089,6.815 0.47824,8.0706 0.07422,0.5253 0.27781,1.0168 0.59683,1.4408 0.76242,1.0133 2.48133,3.1577 5.36855,6.0449 2.8871795,2.8872 5.0316795,4.6062 6.0449795,5.3686 0.4239,0.319 0.9155,0.5226 1.4409,0.5969 1.2555,0.1773 3.9873,0.4782 8.0704,0.4782 z"
     id="path3678"
     style="fill:#edf1e9;fill-opacity:1" />
  <path
     id="path12610"
     style="fill:#507ab7;fill-opacity:1;stroke:none;stroke-width:0.041003;stroke-linecap:round;stroke-linejoin:round;stroke-miterlimit:4;stroke-dasharray:none;stroke-opacity:0.26361;paint-order:markers fill stroke;stop-color:#000000"
     d="M 23.245384,11.240541 9.6296583,33.636171 24.508804,23.156679 Z m -13.6182887,22.399658 -0.00183,0.0033 h 0.00403 z"
     sodipodi:nodetypes="cccccccc" />
  <path
     id="path291"
     style="fill:#d63232;fill-opacity:1;stroke:none;stroke-width:0.041003;stroke-linecap:round;stroke-linejoin:round;stroke-miterlimit:4;stroke-dasharray:none;stroke-opacity:0.26361;paint-order:markers fill stroke;stop-color:#000000"
     d="m 24.049944,9.9221818 1.4198,13.4029542 0.02967,0.280517 0.21093,1.992188 0.30762,2.901855 11.70154,3.895752 z"
     sodipodi:nodetypes="ccccccc" />
  <path
     id="path293"
     style="fill:#77c32f;fill-opacity:1;stroke:none;stroke-width:0.041003;stroke-linecap:round;stroke-linejoin:round;stroke-miterlimit:4;stroke-dasharray:none;stroke-opacity:0.26361;paint-order:markers fill stroke;stop-color:#000000"
     d="m 19.993424,27.483095 -8.746944,6.159668 27.217164,-0.0099 z"
     sodipodi:nodetypes="cccc" />
</svg>
