<?xml version="1.0" encoding="UTF-8" standalone="no"?>
<svg
   fill="none"
   viewBox="0 0 48 48"
   height="256"
   width="256"
   version="1.1"
   id="svg6"
   sodipodi:docname="coffeescript.svg"
   inkscape:version="1.2.1 (9c6d41e410, 2022-07-14)"
   xml:space="preserve"
   xmlns:inkscape="http://www.inkscape.org/namespaces/inkscape"
   xmlns:sodipodi="http://sodipodi.sourceforge.net/DTD/sodipodi-0.dtd"
   xmlns="http://www.w3.org/2000/svg"
   xmlns:svg="http://www.w3.org/2000/svg"><defs
     id="defs10" /><sodipodi:namedview
     id="namedview8"
     pagecolor="#ffffff"
     bordercolor="#666666"
     borderopacity="1.0"
     inkscape:showpageshadow="2"
     inkscape:pageopacity="0.0"
     inkscape:pagecheckerboard="true"
     inkscape:deskcolor="#d1d1d1"
     showgrid="true"
     inkscape:zoom="1.6191406"
     inkscape:cx="86.774428"
     inkscape:cy="93.568156"
     inkscape:current-layer="svg6"
     showguides="false"
     inkscape:window-width="1920"
     inkscape:window-height="730"
     inkscape:window-x="-6"
     inkscape:window-y="-6"
     inkscape:window-maximized="1"><inkscape:grid
       type="xygrid"
       id="grid239"
       units="px"
       spacingx="1.5"
       spacingy="1.5" /></sodipodi:namedview><path
     fill="#edf1e9"
     d="m 23.999962,46.000062 c 4.083201,0 6.815001,-0.3009 8.0707,-0.4782 0.525301,-0.0743 1.0169,-0.2779 1.440801,-0.5969 1.013299,-0.7624 3.157699,-2.4813 6.044999,-5.3686 2.8872,-2.8872 4.6061,-5.0316 5.3685,-6.0449 0.3191,-0.424 0.5227,-0.9155 0.5969,-1.4409 0.1773,-1.2555 0.4782,-3.9873 0.4782,-8.0705 0,-4.0832 -0.3009,-6.815 -0.4782,-8.0706 -0.0742,-0.5253 -0.2778,-1.0169 -0.5969,-1.4409 -0.7624,-1.0132 -2.4813,-3.1576 -5.3685,-6.0448595 -2.8873,-2.8872 -5.0317,-4.60613 -6.0449,-5.36857 -0.424,-0.31903 -0.915599,-0.52263 -1.440999,-0.59684 -1.2556,-0.17735 -3.9874,-0.47823 -8.070501,-0.47823 -4.0831,0 -6.8149,0.30088 -8.070499,0.47823 -0.525401,0.07421 -1.017001,0.2778 -1.440901,0.59684 -1.013299,0.76242 -3.157699,2.48134 -6.0449395,5.36857 -2.88725,2.8872605 -4.60617,5.0316595 -5.36859,6.0449595 -0.31902,0.4239 -0.52261,0.9154 -0.59683,1.4408 -0.17735,1.2556 -0.47824,3.9874 -0.47824,8.0706 0,4.0832 0.30089,6.815 0.47824,8.0706 0.07422,0.5253 0.27781,1.0168 0.59683,1.4408 0.76242,1.0133 2.48133,3.1577 5.36855,6.0449 2.8871795,2.8872 5.0316795,4.6062 6.0449795,5.3686 0.4239,0.319 0.9155,0.5226 1.4409,0.5969 1.2555,0.1773 3.9873,0.4782 8.0704,0.4782 z"
     id="path3678"
     style="fill:#edf1e9;fill-opacity:1" /><g
     aria-label="+"
     id="text7875"
     style="font-size:12.5px;line-height:1.25;font-family:'Arial Rounded MT Bold';-inkscape-font-specification:'Arial Rounded MT Bold, Normal';word-spacing:0px;fill:#507ab7;stroke-width:0.1875" /><g
     aria-label="+"
     id="text8242"
     style="font-size:12.5px;line-height:1.25;font-family:'Arial Rounded MT Bold';-inkscape-font-specification:'Arial Rounded MT Bold, Normal';word-spacing:0px;fill:#507ab7;stroke-width:0.1875" /><path
     style="fill:#606668;stroke-width:1;fill-opacity:1"
     d="m 22.780808,38.591451 c -1.08018,-0.114069 -1.28843,-0.142925 -2.03906,-0.282542 -1.89364,-0.352216 -3.5098,-1.058972 -4.29582,-1.878588 -0.34601,-0.360801 -0.49714,-0.59771 -0.57663,-0.903937 -0.0685,-0.263959 -0.31425,-1.028809 -0.3765,-1.171875 -0.21541,-0.495085 -0.49604,-1.058279 -0.67952,-1.363728 -0.25295,-0.421091 -1.14923,-1.755619 -1.60264,-2.386272 -0.38962,-0.541929 -1.32827,-1.934772 -1.32827,-1.970999 0,-0.01525 -0.0633,-0.119711 -0.14062,-0.232126 -0.0773,-0.112416 -0.14063,-0.216864 -0.14063,-0.232108 0,-0.01524 -0.0508,-0.106364 -0.11291,-0.202491 -0.28173,-0.436087 -1.29334,-2.442659 -1.29334,-2.565401 0,-0.0621 -0.2856402,-0.632496 -0.3158602,-0.63075 -0.0844,0.0049 -0.54818,0.666662 -0.75412,1.076062 -0.63188,1.256157 -0.77694,2.550503 -0.43601,3.890625 0.27052,1.063327 1.01028,2.118433 1.9981802,2.849966 0.31447,0.232863 1.39032,0.806284 1.51275,0.806284 0.0323,0 0.0955,0.01992 0.14023,0.04425 0.11006,0.05984 0.62724,0.210062 0.97202,0.28234 0.41166,0.0863 0.51672,0.121471 0.5063,0.169487 -0.005,0.02362 -0.0684,0.05742 -0.14062,0.07509 -0.0722,0.01768 -0.21568,0.05486 -0.3188,0.08264 -0.78563,0.211601 -1.42648,0.294155 -2.29688,0.295879 -1.01606,0.002 -1.5657602,-0.0949 -2.2143302,-0.390402 -0.10929,-0.04979 -0.20987,-0.09053 -0.2235,-0.09053 -0.0137,0 -0.15748,-0.08061 -0.31965,-0.179127 -0.95927,-0.582779 -1.65786,-1.554788 -1.95999,-2.727123 -0.17284,-0.670673 -0.23711,-1.866065 -0.13252,-2.464838 0.18768,-1.074424 0.34443,-1.564512 0.77519,-2.423656 0.50598,-1.009182 1.34205,-1.962512 2.188,-2.494876 0.12241,-0.07704 0.22261,-0.155644 0.22265,-0.174682 5e-5,-0.01903 -0.0947,-0.324897 -0.21059,-0.679688 -0.279,-0.854258 -0.27699,-0.847717 -0.44245,-1.441947 -0.079,-0.283594 -0.16275,-0.578906 -0.1862,-0.65625 -0.0638,-0.210378 -0.35733,-1.431228 -0.4486,-1.865739 -0.0246,-0.116981 -0.0181,-0.126242 0.0598,-0.08459 0.048,0.02572 0.11668,0.08207 0.15248,0.125201 0.17221,0.207502 1.58023,1.004815 1.7744602,1.004815 0.0289,0 0.0891,0.01941 0.13385,0.04313 0.0958,0.05077 0.52722,0.210209 0.76108,0.281278 0.0902,0.02742 0.26953,0.084 0.39844,0.125722 0.30451,0.09857 0.97315,0.275058 1.5,0.395938 0.49528,0.113636 0.61669,0.13993 0.84375,0.182728 0.1289,0.0243 0.33984,0.06693 0.46875,0.09474 0.1289,0.02781 0.36093,0.07136 0.51562,0.09677 0.15469,0.02542 0.39727,0.06614 0.53906,0.09051 0.2468,0.04241 0.60515,0.09701 1.26563,0.19286 3.60465,0.523113 8.85657,0.697095 12.53906,0.415385 2.13861,-0.163603 3.30976,-0.311935 5.15625,-0.653062 0.97317,-0.179788 2.87417,-0.699185 3.42188,-0.934935 0.0516,-0.02219 0.16758,-0.06729 0.25781,-0.10022 0.27551,-0.100532 0.75386,-0.317698 1.14844,-0.521375 0.38774,-0.200148 1.30595,-0.794912 1.35852,-0.879965 0.0732,-0.118503 0.12475,-0.03797 0.0966,0.150964 -0.0465,0.311525 -0.19782,1.082984 -0.25976,1.324219 -0.0199,0.07734 -0.063,0.267187 -0.0958,0.421875 -0.0747,0.352258 -0.3239,1.333239 -0.51196,2.015625 -0.20973,0.761019 -0.64432,1.976596 -1.01914,2.850624 -0.10411,0.242762 -0.78125,1.598258 -0.8942,1.790001 -0.0456,0.07734 -0.14446,0.246093 -0.21978,0.375 -0.16951,0.290128 -0.8401,1.301293 -1.01032,1.523437 -0.87879,1.146879 -1.88128,2.562587 -2.26331,3.196225 -0.21145,0.350697 -0.55853,1.01951 -0.70093,1.35065 -0.0388,0.09023 -0.1152,0.264028 -0.16976,0.386208 -0.0546,0.12218 -0.0992,0.243755 -0.0992,0.270167 0,0.02641 -0.0203,0.08465 -0.0452,0.129417 -0.0488,0.0878 -0.27908,0.781651 -0.38304,1.154135 -0.12532,0.449023 -0.83306,1.134603 -1.69071,1.637783 -0.32139,0.188557 -0.7562,0.406665 -0.8107,0.406665 -0.0134,0 -0.11388,0.04091 -0.22317,0.09092 -0.41267,0.188823 -1.44483,0.488918 -2.09715,0.609739 -0.16757,0.03104 -0.39961,0.0742 -0.51562,0.09592 -0.29208,0.05467 -0.91118,0.130796 -1.52344,0.187325 -0.60265,0.05564 -2.64435,0.05259 -3.1875,-0.0048 z m -0.82031,-19.219767 c -1.98162,-0.09879 -3.58936,-0.240888 -5.29688,-0.468147 -0.57706,-0.0768 -0.99901,-0.142495 -1.79297,-0.279137 -0.2815,-0.04845 -0.45809,-0.0813 -1.01953,-0.189644 -0.41581,-0.08024 -1.77233,-0.398122 -1.96875,-0.461343 -0.0644,-0.02075 -0.21211,-0.06445 -0.32812,-0.09711 -1.48327,-0.417626 -2.7012602,-1.001486 -3.2336902,-1.550118 -0.2258,-0.232681 -0.37569,-0.549063 -0.37569,-0.793036 0,-0.547283 0.6728,-1.190746 1.80469,-1.726016 0.23203,-0.109726 0.4608402,-0.221003 0.5084702,-0.24728 0.13049,-0.072 0.14693,-0.0145 0.0309,0.107963 -0.3489002,0.368139 -0.5130002,0.794694 -0.4222502,1.097598 0.1638902,0.547014 0.7427402,1.000061 1.9454102,1.522601 0.3092,0.134344 1.39807,0.461652 2.01562,0.605886 0.77597,0.181232 1.00858,0.229567 1.57031,0.326293 0.16758,0.02886 0.41016,0.0711 0.53907,0.09388 0.1289,0.02278 0.41367,0.06517 0.63281,0.09419 0.21914,0.02903 0.53555,0.07194 0.70312,0.09536 1.87535,0.262084 4.58451,0.422044 7.14844,0.422073 1.94134,2.2e-5 4.23732,-0.09662 5.67188,-0.238744 1.40167,-0.138864 1.92126,-0.198769 2.46094,-0.283724 0.89453,-0.140818 1.36052,-0.219947 1.61718,-0.274614 0.10313,-0.02196 0.31407,-0.06608 0.46875,-0.09802 0.2412,-0.04982 0.81527,-0.191018 1.3125,-0.322827 0.1777,-0.0471 0.85995,-0.273749 0.98438,-0.327011 0.0516,-0.02207 0.17812,-0.07605 0.28125,-0.119953 0.62025,-0.264056 0.99337,-0.488863 1.2838,-0.773485 0.48621,-0.476488 0.58675,-0.867394 0.35682,-1.387308 -0.0645,-0.14574 -0.11718,-0.274006 -0.11718,-0.285036 0,-0.03933 0.54316,0.277404 0.77343,0.451018 0.53911,0.406458 0.81112,0.749843 0.91179,1.151014 0.053,0.211109 0.0489,0.260651 -0.0413,0.499073 -0.10354,0.273683 -0.34268,0.560397 -0.69196,0.829606 -0.19695,0.1518 -0.99866,0.577808 -1.35037,0.71755 -0.33775,0.134194 -0.7001,0.266474 -0.86719,0.316577 -0.0902,0.02706 -0.29063,0.08902 -0.44531,0.137698 -0.15469,0.04868 -0.37618,0.11385 -0.49219,0.144831 -0.11602,0.03098 -0.27422,0.07357 -0.35156,0.09464 -0.28979,0.07895 -0.80077,0.193396 -1.26563,0.283458 -0.15469,0.02997 -0.36563,0.07246 -0.46875,0.09443 -0.40604,0.08648 -1.48072,0.261412 -2.27344,0.370059 -3.14961,0.431675 -7.20599,0.616955 -10.21875,0.466754 z m 5.29687,-3.84342 c -0.71797,-0.116044 -1.17041,-0.245078 -1.49918,-0.427553 -0.75593,-0.419571 -0.867,-0.910547 -0.28795,-1.272764 0.0935,-0.05847 0.22268,-0.121321 0.28713,-0.139675 0.40142,-0.11431 0.6239,-0.170334 0.63189,-0.159124 0.005,0.0071 0.0759,0.111655 0.1575,0.232403 0.18694,0.276686 0.33031,0.378511 0.70712,0.50221 0.85113,0.279412 2.32843,-0.09523 2.95312,-0.748905 0.17387,-0.181938 0.23168,-0.435021 0.13774,-0.602948 -0.0845,-0.151127 -0.5374,-0.3798 -0.93285,-0.471061 -0.37387,-0.08628 -1.6989,-0.08997 -2.17795,-0.0061 -0.84697,0.148335 -2.03279,0.465481 -2.50782,0.670713 -0.0645,0.02785 -0.15937,0.06675 -0.21093,0.08645 -0.42253,0.161456 -0.93844,0.410675 -1.28907,0.622697 -0.16757,0.101335 -0.38906,0.234659 -0.49218,0.296276 -1.41615,0.846149 -3.21922,1.294295 -4.60547,1.144674 -1.18318,-0.127702 -1.99292,-0.447622 -2.56207,-1.012238 -0.51707,-0.512957 -0.71456,-1.17706 -0.49934,-1.679149 0.18108,-0.422448 0.73484,-0.799799 1.38563,-0.944213 0.33448,-0.07422 1.04384,-0.163781 1.28497,-0.162228 0.46072,0.003 1.27689,0.140361 1.60048,0.269424 0.16538,0.06596 0.41923,0.286167 0.41923,0.363663 0,0.188525 -0.29502,0.492742 -0.43601,0.449601 -0.72489,-0.221805 -1.99104,-0.190086 -2.79072,0.06991 -0.51396,0.167104 -0.66222,0.483903 -0.38427,0.821108 0.27636,0.335271 0.72696,0.458088 1.68913,0.460397 0.73116,0.0018 1.10882,-0.05562 1.72497,-0.262087 0.45825,-0.153552 1.22404,-0.53213 1.56351,-0.772943 0.0684,-0.04854 0.13847,-0.08826 0.15562,-0.08826 0.0172,0 0.12317,-0.06328 0.23559,-0.140625 0.11241,-0.07734 0.21425,-0.140625 0.22631,-0.140625 0.0121,0 0.16507,-0.08697 0.34004,-0.193265 1.50138,-0.912121 3.37377,-1.402572 5.34307,-1.399557 0.5687,9e-4 1.49527,0.08897 1.9187,0.18243 0.10313,0.02276 0.26133,0.05643 0.35157,0.07481 0.28596,0.05826 0.99736,0.310513 1.28906,0.457088 1.24188,0.624033 1.73286,1.443822 1.42549,2.380129 -0.2584,0.787108 -0.86011,1.199159 -2.08174,1.425577 -0.77282,0.143235 -2.49344,0.206971 -3.07032,0.113732 z"
     id="path303" /></svg>
