<?xml version="1.0" encoding="UTF-8" standalone="no"?>
<svg
   fill="none"
   viewBox="0 0 48 48"
   height="256"
   width="256"
   version="1.1"
   id="svg6"
   sodipodi:docname="css.svg"
   inkscape:version="1.2.1 (9c6d41e410, 2022-07-14)"
   xmlns:inkscape="http://www.inkscape.org/namespaces/inkscape"
   xmlns:sodipodi="http://sodipodi.sourceforge.net/DTD/sodipodi-0.dtd"
   xmlns="http://www.w3.org/2000/svg"
   xmlns:svg="http://www.w3.org/2000/svg">
  <defs
     id="defs10" />
  <sodipodi:namedview
     id="namedview8"
     pagecolor="#ffffff"
     bordercolor="#666666"
     borderopacity="1.0"
     inkscape:showpageshadow="2"
     inkscape:pageopacity="0.0"
     inkscape:pagecheckerboard="true"
     inkscape:deskcolor="#d1d1d1"
     showgrid="true"
     inkscape:zoom="1.6191406"
     inkscape:cx="108.69964"
     inkscape:cy="106.538"
     inkscape:current-layer="svg6"
     showguides="false"
     inkscape:window-width="1920"
     inkscape:window-height="730"
     inkscape:window-x="-6"
     inkscape:window-y="-6"
     inkscape:window-maximized="1">
    <inkscape:grid
       type="xygrid"
       id="grid239"
       units="px"
       spacingx="1.5"
       spacingy="1.5" />
  </sodipodi:namedview>
  <path
     fill="#edf1e9"
     d="m 23.999962,46.000062 c 4.083201,0 6.815001,-0.3009 8.0707,-0.4782 0.525301,-0.0743 1.0169,-0.2779 1.440801,-0.5969 1.013299,-0.7624 3.157699,-2.4813 6.044999,-5.3686 2.8872,-2.8872 4.6061,-5.0316 5.3685,-6.0449 0.3191,-0.424 0.5227,-0.9155 0.5969,-1.4409 0.1773,-1.2555 0.4782,-3.9873 0.4782,-8.0705 0,-4.0832 -0.3009,-6.815 -0.4782,-8.0706 -0.0742,-0.5253 -0.2778,-1.0169 -0.5969,-1.4409 -0.7624,-1.0132 -2.4813,-3.1576 -5.3685,-6.0448595 -2.8873,-2.8872 -5.0317,-4.60613 -6.0449,-5.36857 -0.424,-0.31903 -0.915599,-0.52263 -1.440999,-0.59684 -1.2556,-0.17735 -3.9874,-0.47823 -8.070501,-0.47823 -4.0831,0 -6.8149,0.30088 -8.070499,0.47823 -0.525401,0.07421 -1.017001,0.2778 -1.440901,0.59684 -1.013299,0.76242 -3.157699,2.48134 -6.0449395,5.36857 -2.88725,2.8872605 -4.60617,5.0316595 -5.36859,6.0449595 -0.31902,0.4239 -0.52261,0.9154 -0.59683,1.4408 -0.17735,1.2556 -0.47824,3.9874 -0.47824,8.0706 0,4.0832 0.30089,6.815 0.47824,8.0706 0.07422,0.5253 0.27781,1.0168 0.59683,1.4408 0.76242,1.0133 2.48133,3.1577 5.36855,6.0449 2.8871795,2.8872 5.0316795,4.6062 6.0449795,5.3686 0.4239,0.319 0.9155,0.5226 1.4409,0.5969 1.2555,0.1773 3.9873,0.4782 8.0704,0.4782 z"
     id="path3678"
     style="fill:#edf1e9;fill-opacity:1" />
  <g
     aria-label="CSS"
     transform="scale(0.89073766,1.122665)"
     id="text2444"
     style="font-size:19.3987px;line-height:1.25;font-family:'Arial Rounded MT Bold';-inkscape-font-specification:'Arial Rounded MT Bold, Normal';fill:#606668;stroke-width:1.75417;fill-opacity:1">
    <path
       d="m 19.19116,23.935211 q 0,0.663041 -0.331521,1.439747 -0.322048,0.767234 -1.022978,1.515524 -0.70093,0.738817 -1.790212,1.202946 -1.089283,0.464129 -2.538502,0.464129 -1.098755,0 -1.998597,-0.208384 Q 10.609508,28.140788 9.8706906,27.705075 9.1413449,27.25989 8.5256635,26.540017 7.9762862,25.886447 7.5879333,25.081325 7.1995805,24.266732 7.000668,23.347945 6.8112276,22.429159 6.8112276,21.396709 q 0,-1.676548 0.4830731,-3.002631 0.4925451,-1.326083 1.4018592,-2.263813 0.9093141,-0.947202 2.1312051,-1.439748 1.221891,-0.492545 2.604806,-0.492545 1.68602,0 3.002631,0.672514 1.316611,0.672513 2.01754,1.667076 0.70093,0.98509 0.70093,1.865988 0,0.483073 -0.340993,0.852482 -0.340993,0.369409 -0.824066,0.369409 -0.539905,0 -0.814594,-0.255745 -0.265216,-0.255744 -0.596737,-0.880898 -0.549377,-1.03245 -1.297667,-1.543939 -0.738818,-0.511489 -1.8281,-0.511489 -1.73338,0 -2.765831,1.316611 -1.0229779,1.316611 -1.0229779,3.741448 0,1.619716 0.4546569,2.699526 0.454657,1.070339 1.288195,1.600772 0.833538,0.530433 1.951237,0.530433 1.212418,0 2.045956,-0.596737 0.84301,-0.606209 1.269251,-1.771268 0.179969,-0.549377 0.445185,-0.89037 0.265217,-0.350465 0.852482,-0.350465 0.502017,0 0.861954,0.350465 0.359937,0.350465 0.359937,0.871426 z"
       id="path290"
       style="fill:#606668;fill-opacity:1" />
    <path
       d="m 32.272022,24.153067 q 0,1.259779 -0.65357,2.263814 -0.644097,1.004034 -1.894404,1.572355 -1.250307,0.568321 -2.964743,0.568321 -2.055428,0 -3.390984,-0.776705 -0.947202,-0.55885 -1.543939,-1.487108 -0.587265,-0.93773 -0.587265,-1.818628 0,-0.511489 0.350464,-0.871426 0.359937,-0.369409 0.909314,-0.369409 0.445185,0 0.74829,0.284161 0.312577,0.28416 0.530433,0.84301 0.265217,0.663041 0.568322,1.108226 0.312576,0.445185 0.871426,0.738818 0.558849,0.284161 1.468163,0.284161 1.250307,0 2.027013,-0.577794 0.786178,-0.587265 0.786178,-1.458691 0,-0.691458 -0.426241,-1.117699 -0.416769,-0.435713 -1.089283,-0.663041 -0.663041,-0.227329 -1.78074,-0.483073 -1.496579,-0.350465 -2.510086,-0.814594 -1.004034,-0.473601 -1.600772,-1.278723 -0.587265,-0.814594 -0.587265,-2.017541 0,-1.146114 0.625154,-2.036484 0.625153,-0.89037 1.809156,-1.363972 1.184002,-0.483073 2.784774,-0.483073 1.278723,0 2.206981,0.322049 0.93773,0.312577 1.553412,0.84301 0.615681,0.520961 0.899842,1.098755 0.284161,0.577793 0.284161,1.12717 0,0.502017 -0.359937,0.909314 -0.350465,0.397825 -0.880898,0.397825 -0.483073,0 -0.738818,-0.2368 -0.246273,-0.246273 -0.539905,-0.79565 -0.378881,-0.786178 -0.909314,-1.221891 -0.530434,-0.445185 -1.704964,-0.445185 -1.089283,0 -1.761796,0.483073 -0.663042,0.473601 -0.663042,1.146115 0,0.416769 0.227329,0.719873 0.227328,0.303105 0.625153,0.520962 0.397825,0.217856 0.805122,0.340992 0.407297,0.123137 1.345027,0.359937 1.174531,0.274689 2.121733,0.60621 0.956674,0.33152 1.619716,0.805121 0.672513,0.473602 1.041922,1.202947 0.378881,0.719874 0.378881,1.771268 z"
       id="path292"
       style="fill:#606668;fill-opacity:1" />
    <path
       d="m 45.210804,24.153067 q 0,1.259779 -0.65357,2.263814 -0.644097,1.004034 -1.894404,1.572355 -1.250307,0.568321 -2.964743,0.568321 -2.055429,0 -3.390984,-0.776705 -0.947202,-0.55885 -1.543939,-1.487108 -0.587266,-0.93773 -0.587266,-1.818628 0,-0.511489 0.350465,-0.871426 0.359937,-0.369409 0.909314,-0.369409 0.445185,0 0.74829,0.284161 0.312577,0.28416 0.530433,0.84301 0.265217,0.663041 0.568321,1.108226 0.312577,0.445185 0.871426,0.738818 0.55885,0.284161 1.468164,0.284161 1.250307,0 2.027012,-0.577794 0.786178,-0.587265 0.786178,-1.458691 0,-0.691458 -0.426241,-1.117699 -0.416769,-0.435713 -1.089282,-0.663041 -0.663042,-0.227329 -1.78074,-0.483073 -1.49658,-0.350465 -2.510086,-0.814594 -1.004034,-0.473601 -1.600772,-1.278723 -0.587265,-0.814594 -0.587265,-2.017541 0,-1.146114 0.625153,-2.036484 0.625154,-0.89037 1.809156,-1.363972 1.184003,-0.483073 2.784775,-0.483073 1.278723,0 2.206981,0.322049 0.93773,0.312577 1.553412,0.84301 0.615681,0.520961 0.899842,1.098755 0.28416,0.577793 0.28416,1.12717 0,0.502017 -0.359937,0.909314 -0.350464,0.397825 -0.880898,0.397825 -0.483073,0 -0.738817,-0.2368 -0.246273,-0.246273 -0.539906,-0.79565 -0.37888,-0.786178 -0.909314,-1.221891 -0.530433,-0.445185 -1.704964,-0.445185 -1.089282,0 -1.761796,0.483073 -0.663041,0.473601 -0.663041,1.146115 0,0.416769 0.227328,0.719873 0.227329,0.303105 0.625154,0.520962 0.397825,0.217856 0.805122,0.340992 0.407297,0.123137 1.345027,0.359937 1.17453,0.274689 2.121733,0.60621 0.956674,0.33152 1.619715,0.805121 0.672514,0.473602 1.041923,1.202947 0.378881,0.719874 0.378881,1.771268 z"
       id="path294"
       style="fill:#606668;fill-opacity:1" />
  </g>
</svg>
