<?xml version="1.0" encoding="UTF-8" standalone="no"?>
<svg
   fill="none"
   viewBox="0 0 48 48"
   height="256"
   width="256"
   version="1.1"
   id="svg6"
   sodipodi:docname="html.svg"
   inkscape:version="1.2.1 (9c6d41e410, 2022-07-14)"
   xmlns:inkscape="http://www.inkscape.org/namespaces/inkscape"
   xmlns:sodipodi="http://sodipodi.sourceforge.net/DTD/sodipodi-0.dtd"
   xmlns="http://www.w3.org/2000/svg"
   xmlns:svg="http://www.w3.org/2000/svg">
  <defs
     id="defs10" />
  <sodipodi:namedview
     id="namedview8"
     pagecolor="#ffffff"
     bordercolor="#666666"
     borderopacity="1.0"
     inkscape:showpageshadow="2"
     inkscape:pageopacity="0.0"
     inkscape:pagecheckerboard="true"
     inkscape:deskcolor="#d1d1d1"
     showgrid="true"
     inkscape:zoom="0.57245265"
     inkscape:cx="97.824685"
     inkscape:cy="-51.532646"
     inkscape:current-layer="svg6"
     showguides="false"
     inkscape:window-width="1920"
     inkscape:window-height="730"
     inkscape:window-x="-6"
     inkscape:window-y="-6"
     inkscape:window-maximized="1">
    <inkscape:grid
       type="xygrid"
       id="grid239"
       units="px"
       spacingx="1.5"
       spacingy="1.5" />
  </sodipodi:namedview>
  <path
     fill="#edf1e9"
     d="m 23.999962,46.000062 c 4.083201,0 6.815001,-0.3009 8.0707,-0.4782 0.525301,-0.0743 1.0169,-0.2779 1.440801,-0.5969 1.013299,-0.7624 3.157699,-2.4813 6.044999,-5.3686 2.8872,-2.8872 4.6061,-5.0316 5.3685,-6.0449 0.3191,-0.424 0.5227,-0.9155 0.5969,-1.4409 0.1773,-1.2555 0.4782,-3.9873 0.4782,-8.0705 0,-4.0832 -0.3009,-6.815 -0.4782,-8.0706 -0.0742,-0.5253 -0.2778,-1.0169 -0.5969,-1.4409 -0.7624,-1.0132 -2.4813,-3.1576 -5.3685,-6.0448595 -2.8873,-2.8872 -5.0317,-4.60613 -6.0449,-5.36857 -0.424,-0.31903 -0.915599,-0.52263 -1.440999,-0.59684 -1.2556,-0.17735 -3.9874,-0.47823 -8.070501,-0.47823 -4.0831,0 -6.8149,0.30088 -8.070499,0.47823 -0.525401,0.07421 -1.017001,0.2778 -1.440901,0.59684 -1.013299,0.76242 -3.157699,2.48134 -6.0449395,5.36857 -2.88725,2.8872605 -4.60617,5.0316595 -5.36859,6.0449595 -0.31902,0.4239 -0.52261,0.9154 -0.59683,1.4408 -0.17735,1.2556 -0.47824,3.9874 -0.47824,8.0706 0,4.0832 0.30089,6.815 0.47824,8.0706 0.07422,0.5253 0.27781,1.0168 0.59683,1.4408 0.76242,1.0133 2.48133,3.1577 5.36855,6.0449 2.8871795,2.8872 5.0316795,4.6062 6.0449795,5.3686 0.4239,0.319 0.9155,0.5226 1.4409,0.5969 1.2555,0.1773 3.9873,0.4782 8.0704,0.4782 z"
     id="path3678"
     style="fill:#edf1e9;fill-opacity:1" />
  <path
     id="path2743"
     style="color:#000000;fill:#606668;fill-opacity:1;stroke-width:4.4585;stroke-linecap:round;stroke-linejoin:round;-inkscape-stroke:none;paint-order:markers fill stroke"
     d="m 32.611596,12.733619 c -0.597744,-9.3e-5 -1.171039,0.237287 -1.59375,0.659913 -0.880106,0.880101 -0.880106,2.307032 0,3.187133 l 7.419434,7.419068 -7.419434,7.419433 c -0.880107,0.880101 -0.880107,2.307033 0,3.187134 0.880101,0.880107 2.307033,0.880107 3.187134,0 l 9.012817,-9.012817 c 0.879982,-0.880153 0.879982,-2.306981 0,-3.187134 L 34.20498,13.393532 c -0.422622,-0.422536 -0.995767,-0.659909 -1.593384,-0.659913 z"
     sodipodi:nodetypes="cccccsccccc" />
  <path
     id="path13535"
     style="color:#000000;fill:#606668;fill-opacity:1;stroke-width:4.4585;stroke-linecap:round;stroke-linejoin:round;-inkscape-stroke:none;paint-order:markers fill stroke"
     d="m 15.391186,12.73285 c 0.597745,-9.3e-5 1.171039,0.237287 1.593751,0.659913 0.880107,0.880101 0.880107,2.307032 0,3.187133 l -7.419433,7.419068 7.419433,7.419433 c 0.880107,0.880101 0.880107,2.307033 0,3.187134 -0.880101,0.880107 -2.307033,0.880107 -3.187133,0 L 4.7849865,25.592714 c -0.879982,-0.880153 -0.879982,-2.306981 0,-3.187134 l 9.0128175,-9.012817 c 0.422621,-0.422536 0.995765,-0.659909 1.593382,-0.659913 z"
     sodipodi:nodetypes="cccccsccccc" />
  <path
     id="path13533-9"
     style="color:#000000;fill:#606668;fill-opacity:1;stroke-width:4.4585;stroke-linecap:round;stroke-linejoin:round;-inkscape-stroke:none;paint-order:markers fill stroke"
     d="m 19.300564,32.841232 c -0.322593,1.200069 0.387051,2.434811 1.586385,2.760129 1.20338,0.32348 2.440881,-0.39097 2.762403,-1.594875 l 5.050289,-18.847935 c 0.323273,-1.203288 -0.391202,-2.440564 -1.594969,-2.76205 -1.201169,-0.317918 -2.433029,0.396392 -2.753819,1.596796 z"
     sodipodi:nodetypes="ccccccc" />
</svg>
