<?xml version="1.0" encoding="UTF-8" standalone="no"?>
<svg
   fill="none"
   viewBox="0 0 48 48"
   height="256"
   width="256"
   version="1.1"
   id="svg6"
   sodipodi:docname="java.svg"
   inkscape:version="1.2.1 (9c6d41e410, 2022-07-14)"
   xml:space="preserve"
   xmlns:inkscape="http://www.inkscape.org/namespaces/inkscape"
   xmlns:sodipodi="http://sodipodi.sourceforge.net/DTD/sodipodi-0.dtd"
   xmlns="http://www.w3.org/2000/svg"
   xmlns:svg="http://www.w3.org/2000/svg"><defs
     id="defs10" /><sodipodi:namedview
     id="namedview8"
     pagecolor="#ffffff"
     bordercolor="#666666"
     borderopacity="1.0"
     inkscape:showpageshadow="2"
     inkscape:pageopacity="0.0"
     inkscape:pagecheckerboard="true"
     inkscape:deskcolor="#d1d1d1"
     showgrid="true"
     inkscape:zoom="1.6191406"
     inkscape:cx="120.43426"
     inkscape:cy="92.332933"
     inkscape:current-layer="svg6"
     showguides="false"
     inkscape:window-width="1920"
     inkscape:window-height="730"
     inkscape:window-x="-6"
     inkscape:window-y="-6"
     inkscape:window-maximized="1"><inkscape:grid
       type="xygrid"
       id="grid239"
       units="px"
       spacingx="1.5"
       spacingy="1.5" /></sodipodi:namedview><path
     fill="#edf1e9"
     d="m 23.999962,46.000062 c 4.083201,0 6.815001,-0.3009 8.0707,-0.4782 0.525301,-0.0743 1.0169,-0.2779 1.440801,-0.5969 1.013299,-0.7624 3.157699,-2.4813 6.044999,-5.3686 2.8872,-2.8872 4.6061,-5.0316 5.3685,-6.0449 0.3191,-0.424 0.5227,-0.9155 0.5969,-1.4409 0.1773,-1.2555 0.4782,-3.9873 0.4782,-8.0705 0,-4.0832 -0.3009,-6.815 -0.4782,-8.0706 -0.0742,-0.5253 -0.2778,-1.0169 -0.5969,-1.4409 -0.7624,-1.0132 -2.4813,-3.1576 -5.3685,-6.0448595 -2.8873,-2.8872 -5.0317,-4.60613 -6.0449,-5.36857 -0.424,-0.31903 -0.915599,-0.52263 -1.440999,-0.59684 -1.2556,-0.17735 -3.9874,-0.47823 -8.070501,-0.47823 -4.0831,0 -6.8149,0.30088 -8.070499,0.47823 -0.525401,0.07421 -1.017001,0.2778 -1.440901,0.59684 -1.013299,0.76242 -3.157699,2.48134 -6.0449395,5.36857 -2.88725,2.8872605 -4.60617,5.0316595 -5.36859,6.0449595 -0.31902,0.4239 -0.52261,0.9154 -0.59683,1.4408 -0.17735,1.2556 -0.47824,3.9874 -0.47824,8.0706 0,4.0832 0.30089,6.815 0.47824,8.0706 0.07422,0.5253 0.27781,1.0168 0.59683,1.4408 0.76242,1.0133 2.48133,3.1577 5.36855,6.0449 2.8871795,2.8872 5.0316795,4.6062 6.0449795,5.3686 0.4239,0.319 0.9155,0.5226 1.4409,0.5969 1.2555,0.1773 3.9873,0.4782 8.0704,0.4782 z"
     id="path3678"
     style="fill:#edf1e9;fill-opacity:1" /><g
     id="g3044"
     transform="matrix(0.42113673,0,0,0.42113673,-18.179377,18.492272)"
     style="stroke-width:2.37451"><path
       style="fill:#95c2f2;fill-opacity:1;stroke-width:2.37451"
       d="m 97.194723,58.807608 c -5.83725,-0.320589 -9.79912,-0.740401 -15,-1.589452 -3.77063,-0.615563 -4.37734,-0.805436 -4.46217,-1.396455 -0.12323,-0.858615 -0.0344,-0.86484 8.90262,-0.624077 13.29563,0.358185 26.536287,0.03838 31.747047,-0.766806 5.17721,-0.799995 11.24003,-3.001518 13.79279,-5.008423 1.27915,-1.005624 1.33793,-1.032365 1.76584,-0.803355 0.93022,0.497841 0.0549,2.565345 -1.84472,4.357384 -1.93136,1.821954 -5.02226,3.268571 -8.71779,4.080146 -1.35254,0.297032 -6.85618,1.07443 -9.21487,1.301612 -5.25516,0.506168 -12.46075,0.697011 -16.968747,0.449426 z M 85.100973,54.05112 c -13.06215,-0.499095 -19.61709,-2.180046 -20.82393,-5.340088 -1.22955,-3.21955 2.43728,-5.015854 11.70988,-5.736434 2.76051,-0.21452 3.05869,-0.207954 3.3402,0.07356 0.24652,0.246519 0.26791,0.399528 0.10563,0.755692 -0.17155,0.376504 -0.46209,0.497946 -1.85144,0.773869 -2.07537,0.412162 -5.58366,1.546068 -6.11519,1.976475 -0.39989,0.323816 -0.39404,0.329973 0.70353,0.740627 1.97984,0.740756 6.02163,1.427836 11.71257,1.99107 4.13251,0.408995 14.84335,0.567883 19.535147,0.289792 8.7442,-0.518285 17.22481,-1.758624 21.90235,-3.203351 2.31711,-0.715671 2.69426,-0.979487 2.54416,-1.779611 -0.16155,-0.86112 0.0285,-1.221606 0.64398,-1.221606 0.59522,0 1.60237,1.004318 1.80107,1.796014 0.2295,0.914385 -0.0514,1.964726 -0.70878,2.650213 -1.98421,2.069068 -9.04162,4.172949 -17.81632,5.311211 -6.66754,0.864921 -17.966877,1.255598 -26.682857,0.922567 z m 11.34375,-8.928872 c -8.95059,-0.453244 -13.8239,-1.852886 -15.01445,-4.312234 -0.4567,-0.943423 -0.42032,-2.002343 0.0959,-2.790146 0.68013,-1.038011 2.9094,-1.961254 4.73566,-1.961254 0.68953,0 0.81652,0.0627 0.91405,0.451286 0.0623,0.248207 0.0215,0.622774 -0.0907,0.832371 -0.25569,0.477755 -0.22709,0.493725 1.53689,0.858084 3.86645,0.798636 10.78524,1.008831 14.197667,0.431329 1.08282,-0.183249 3.00085,-0.506869 4.26229,-0.719153 l 2.29354,-0.38597 2.39396,1.45446 c 2.94341,1.788279 3.08241,1.903719 3.01221,2.501606 -0.047,0.400603 -0.26678,0.555713 -1.40575,0.992263 -4.8054,1.841833 -11.66326,2.914122 -16.931247,2.647358 z m -6.46875,-10.50732 c -1.75114,-0.159115 -5.54851,-0.877255 -6.9375,-1.311986 -3.15277,-0.98677 -4.59375,-2.110885 -4.59375,-3.583626 0,-1.448085 1.40265,-2.54307 4.37943,-3.41883 1.58615,-0.466641 2.03759,-0.394 2.14796,0.345626 0.0429,0.287443 -0.1459,0.522068 -0.70313,0.873829 -0.80654,0.509151 -0.97678,0.946852 -0.43363,1.114959 1.25709,0.389076 3.45871,0.68121 6.52531,0.865849 5.79568,0.348954 12.393497,-0.177394 18.822237,-1.501562 l 2.70693,-0.557563 1.23057,0.84147 c 2.51179,1.717573 3.10557,2.237318 3.10557,2.71836 0,0.655802 -0.41736,0.801291 -4.78125,1.666701 -7.30565,1.448797 -12.906957,2.095548 -17.718747,2.045885 -1.65,-0.01702 -3.3375,-0.06163 -3.75,-0.09911 z m 29.531247,-0.956743 c -0.35242,-0.11691 -0.55591,-0.414165 -0.55963,-0.817506 -0.002,-0.181909 0.83637,-0.923231 2.01276,-1.780459 3.91983,-2.856364 7.39669,-6.671154 7.94348,-8.715559 0.77824,-2.909733 -1.87471,-4.971958 -7.10651,-5.524123 -1.88447,-0.198887 -2.04512,-1.101292 -0.33102,-1.859351 2.25663,-0.997987 3.64392,-1.298679 6.00967,-1.302579 2.08807,-0.0035 2.32715,0.03408 3.3219,0.521317 2.17953,1.067561 3.52309,2.997971 4.18361,6.010982 0.26728,1.219226 0.28833,1.688803 0.12095,2.698884 -0.63211,3.814684 -4.1107,6.945897 -10.37019,9.334609 -2.08277,0.794811 -4.85664,1.555986 -5.22502,1.433785 z M 85.944723,25.447666 c -7.4222,-0.6216 -11.17774,-1.599603 -13.18861,-3.434519 -0.74561,-0.680374 -1.0615,-1.366714 -1.06068,-2.304597 0.001,-1.498012 1.03337,-2.497554 3.45919,-3.350163 2.37221,-0.833764 7.13742,-1.48165 10.92413,-1.485265 1.8857,-0.0019 2.12275,0.0353 2.2962,0.35941 0.3882,0.725351 -0.0631,1.070814 -1.86773,1.42983 -2.14495,0.426712 -6.5625,2.101685 -6.5625,2.488261 0,0.49696 4.72538,0.962459 11.16203,1.099575 8.2576,0.175907 17.573927,-0.378598 23.337967,-1.389069 3.75186,-0.657724 4.08968,-0.690249 4.40978,-0.424588 0.74646,0.619509 -0.0713,1.382867 -3.00353,2.803768 -4.12568,1.999217 -9.0508,3.279956 -15.1875,3.949393 -1.838067,0.200511 -13.056967,0.397136 -14.718747,0.257964 z"
       id="path252" /><path
       style="fill:#fd3131;fill-opacity:1;stroke-width:2.37451"
       d="m 103.13222,18.496113 c -0.2345,-0.2345 -0.12541,-0.875799 0.35196,-2.069032 0.73463,-1.836287 1.10399,-3.934022 0.8553,-4.857578 -0.12084,-0.44877 -0.86942,-1.635429 -1.8299,-2.900791 -2.791057,-3.677018 -3.700097,-6.083228 -3.713217,-9.828848 -0.008,-2.245672 -0.006,-2.252811 0.72154,-3.711133 1.215097,-2.4340126 4.112477,-5.136137 8.083067,-7.538357 2.96708,-1.795086 9.09965,-4.78176 9.81845,-4.78176 0.271,0 0.7753,0.547732 0.7753,0.842064 0,0.139028 -1.32372,1.335345 -2.94161,2.658482 -6.81914,5.5768203 -9.26179,8.529838 -9.28602,11.226244 -0.0106,1.182534 0.3485,2.007105 2.06705,4.746043 1.44632,2.30509 1.9365,3.426752 2.29595,5.253821 0.59077,3.002845 -0.93762,6.288167 -4.45739,9.581294 -1.1849,1.108606 -1.74065,1.504552 -2.11179,1.504552 -0.27703,0 -0.55994,-0.05625 -0.62869,-0.125001 z m -5.894367,-3.444729 c -0.62587,-0.251393 -5.82211,-5.502784 -6.91768,-6.991103 -4.26458,-5.793397 -5.2792,-10.922647 -3.03884,-15.3623358 1.47229,-2.9175972 4.01959,-5.9213272 7.16175,-8.4450022 0.94621,-0.759971 3.23914,-2.471625 5.09539,-3.803673 4.247107,-3.047732 5.982187,-4.720427 6.888307,-6.640656 1.36647,-2.895764 1.95453,-5.898688 1.72635,-8.815565 -0.10637,-1.359715 -0.0786,-1.642479 0.18237,-1.859095 0.56378,-0.467893 1.11923,0.01985 1.94313,1.706277 1.09076,2.232624 1.55161,4.009935 1.67418,6.456509 0.12898,2.574589 -0.22208,4.388625 -1.26623,6.543124 -1.43009,2.950812 -3.90636,5.616669 -9.70415,10.447119 -6.645157,5.53644 -7.537947,6.651951 -7.537417,9.41782 5.7e-4,3.192864 1.6176,9.112033 3.81699,13.972563 1.08574,2.399429 1.22358,2.952893 0.83272,3.343748 -0.25885,0.258859 -0.28543,0.259798 -0.85687,0.03027 z"
       id="path250" /></g></svg>
