<?xml version="1.0" encoding="UTF-8" standalone="no"?>
<svg
   fill="none"
   viewBox="0 0 48 48"
   height="256"
   width="256"
   version="1.1"
   id="svg6"
   sodipodi:docname="json.svg"
   inkscape:version="1.2.1 (9c6d41e410, 2022-07-14)"
   xmlns:inkscape="http://www.inkscape.org/namespaces/inkscape"
   xmlns:sodipodi="http://sodipodi.sourceforge.net/DTD/sodipodi-0.dtd"
   xmlns="http://www.w3.org/2000/svg"
   xmlns:svg="http://www.w3.org/2000/svg">
  <defs
     id="defs10" />
  <sodipodi:namedview
     id="namedview8"
     pagecolor="#ffffff"
     bordercolor="#666666"
     borderopacity="1.0"
     inkscape:showpageshadow="2"
     inkscape:pageopacity="0.0"
     inkscape:pagecheckerboard="true"
     inkscape:deskcolor="#d1d1d1"
     showgrid="true"
     inkscape:zoom="1.1449053"
     inkscape:cx="106.55903"
     inkscape:cy="29.260062"
     inkscape:current-layer="svg6"
     showguides="false"
     inkscape:window-width="1920"
     inkscape:window-height="730"
     inkscape:window-x="-6"
     inkscape:window-y="-6"
     inkscape:window-maximized="1">
    <inkscape:grid
       type="xygrid"
       id="grid239"
       units="px"
       spacingx="1.5"
       spacingy="1.5" />
  </sodipodi:namedview>
  <path
     fill="#edf1e9"
     d="m 23.999962,46.000062 c 4.083201,0 6.815001,-0.3009 8.0707,-0.4782 0.525301,-0.0743 1.0169,-0.2779 1.440801,-0.5969 1.013299,-0.7624 3.157699,-2.4813 6.044999,-5.3686 2.8872,-2.8872 4.6061,-5.0316 5.3685,-6.0449 0.3191,-0.424 0.5227,-0.9155 0.5969,-1.4409 0.1773,-1.2555 0.4782,-3.9873 0.4782,-8.0705 0,-4.0832 -0.3009,-6.815 -0.4782,-8.0706 -0.0742,-0.5253 -0.2778,-1.0169 -0.5969,-1.4409 -0.7624,-1.0132 -2.4813,-3.1576 -5.3685,-6.0448595 -2.8873,-2.8872 -5.0317,-4.60613 -6.0449,-5.36857 -0.424,-0.31903 -0.915599,-0.52263 -1.440999,-0.59684 -1.2556,-0.17735 -3.9874,-0.47823 -8.070501,-0.47823 -4.0831,0 -6.8149,0.30088 -8.070499,0.47823 -0.525401,0.07421 -1.017001,0.2778 -1.440901,0.59684 -1.013299,0.76242 -3.157699,2.48134 -6.0449395,5.36857 -2.88725,2.8872605 -4.60617,5.0316595 -5.36859,6.0449595 -0.31902,0.4239 -0.52261,0.9154 -0.59683,1.4408 -0.17735,1.2556 -0.47824,3.9874 -0.47824,8.0706 0,4.0832 0.30089,6.815 0.47824,8.0706 0.07422,0.5253 0.27781,1.0168 0.59683,1.4408 0.76242,1.0133 2.48133,3.1577 5.36855,6.0449 2.8871795,2.8872 5.0316795,4.6062 6.0449795,5.3686 0.4239,0.319 0.9155,0.5226 1.4409,0.5969 1.2555,0.1773 3.9873,0.4782 8.0704,0.4782 z"
     id="path3678"
     style="fill:#edf1e9;fill-opacity:1" />
  <g
     aria-label="{;}"
     id="text13720"
     style="font-size:30px;line-height:1.25;font-family:'Arial Rounded MT Bold';-inkscape-font-specification:'Arial Rounded MT Bold, Normal';word-spacing:0px;fill:#606668;stroke-width:0.1875">
    <path
       d="m 12.918519,24.007387 q 1.04004,0.644531 1.625977,1.450195 0.585938,0.791016 0.820313,2.036133 0.234375,1.230469 0.234375,3.164063 0,1.450195 0.05859,2.138672 0.07324,0.688476 0.263672,1.040039 0.205078,0.366211 0.483399,0.46875 0.27832,0.117187 0.952148,0.219726 0.556641,0.07324 0.922852,0.541992 0.366211,0.46875 0.366211,1.230469 0,1.772461 -2.153321,1.772461 -1.333008,0 -2.387695,-0.55664 -1.040039,-0.556641 -1.611328,-1.582032 -0.571289,-1.010742 -0.585938,-2.329101 -0.04394,-2.226563 -0.08789,-3.574219 -0.04395,-1.347656 -0.131836,-1.743164 -0.219727,-0.981445 -0.65918,-1.479492 Q 10.604066,26.307192 9.9009414,25.882387 9.2124648,25.442934 8.9194961,25.10602 8.6265273,24.754457 8.6265273,24.007387 q 0,-1.083984 0.8496094,-1.625976 1.0546873,-0.65918 1.4941403,-1.113282 0.454102,-0.46875 0.629883,-1.186523 0.19043,-0.732422 0.219727,-1.582031 0.0293,-0.864258 0.08789,-4.13086 0.04395,-2.021484 1.274414,-3.222656 1.245118,-1.2158203 3.310547,-1.2158203 2.153321,0 2.153321,1.7431643 0,0.791015 -0.366211,1.245117 -0.351563,0.454102 -0.922852,0.527344 -0.849609,0.117187 -1.186523,0.351562 -0.336914,0.234375 -0.439454,0.908203 -0.102539,0.673828 -0.131835,2.607422 -0.0293,1.889649 -0.234375,3.105469 -0.19043,1.201172 -0.776368,2.050781 -0.571289,0.84961 -1.669922,1.538086 z"
       id="path1577" />
    <path
       d="m 23.802309,32.166567 q -0.966797,0 -1.669922,-0.585938 -0.703125,-0.600586 -0.703125,-1.669922 0,-0.922851 0.688476,-1.552734 0.688477,-0.629883 1.625977,-0.629883 0.703125,0 1.274414,0.38086 0.571289,0.380859 0.893555,1.127929 0.322265,0.732422 0.322265,1.816407 0,1.450195 -0.615234,2.709961 -0.615235,1.274414 -1.508789,2.006835 -0.878907,0.747071 -1.59668,0.747071 -0.454102,0 -0.732422,-0.307617 -0.27832,-0.292969 -0.27832,-0.688477 0,-0.600586 0.585937,-0.966797 1.713868,-0.9375 1.713868,-2.387695 z M 21.795473,18.060122 q 0,-1.04004 0.644531,-1.611329 0.65918,-0.571289 1.582031,-0.571289 0.893555,0 1.538086,0.585938 0.644531,0.571289 0.644531,1.59668 0,0.83496 -0.688476,1.523437 -0.673828,0.673828 -1.494141,0.673828 -0.615234,0 -1.12793,-0.292969 -0.498046,-0.292968 -0.805664,-0.776367 -0.292968,-0.498047 -0.292968,-1.127929 z"
       id="path1579" />
    <path
       d="M 35.081605,24.007387 Q 34.29059,23.50934 33.792543,22.967348 33.294496,22.425356 32.97223,21.648989 q -0.322265,-0.776367 -0.454101,-1.831055 -0.131836,-1.069336 -0.131836,-2.504883 0,-1.391601 -0.05859,-2.124023 -0.05859,-0.747071 -0.234375,-1.083985 -0.175781,-0.336914 -0.498047,-0.454101 -0.307617,-0.131836 -0.952148,-0.205078 -0.541992,-0.07324 -0.922852,-0.527344 -0.366211,-0.454102 -0.366211,-1.245117 0,-1.7431643 2.124024,-1.7431643 1.362304,0 2.387695,0.5566403 1.040039,0.541993 1.625977,1.567383 0.600586,1.010742 0.615234,2.314453 0.08789,4.863282 0.205078,5.34668 0.234375,0.966797 0.688477,1.479492 0.454101,0.498047 1.098633,0.893555 0.644531,0.380859 0.952148,0.761719 0.322266,0.380859 0.322266,1.157226 0,1.098633 -0.834961,1.611328 -1.025391,0.629883 -1.494141,1.113282 -0.454102,0.46875 -0.644531,1.186523 -0.175781,0.703125 -0.219727,2.124023 -0.0293,1.420899 -0.07324,3.559571 -0.04395,2.021484 -1.303711,3.237304 -1.245117,1.230469 -3.325195,1.230469 -1.025391,0 -1.582031,-0.454101 -0.541993,-0.454102 -0.541993,-1.31836 0,-0.483398 0.175782,-0.893554 0.175781,-0.395508 0.454101,-0.615235 0.292969,-0.219726 0.65918,-0.263672 0.65918,-0.08789 0.981445,-0.219726 0.322266,-0.131836 0.483399,-0.498047 0.175781,-0.366211 0.219726,-1.083985 0.05859,-0.703125 0.05859,-2.065429 0.0293,-2.021485 0.234375,-3.164063 0.205078,-1.142578 0.776367,-1.96289 0.571289,-0.820313 1.68457,-1.523438 z"
       id="path1581" />
  </g>
</svg>
