<?xml version="1.0" encoding="UTF-8" standalone="no"?>
<svg
   fill="none"
   viewBox="0 0 48 48"
   height="256"
   width="256"
   version="1.1"
   id="svg6"
   sodipodi:docname="makefile.svg"
   inkscape:version="1.2.1 (9c6d41e410, 2022-07-14)"
   xmlns:inkscape="http://www.inkscape.org/namespaces/inkscape"
   xmlns:sodipodi="http://sodipodi.sourceforge.net/DTD/sodipodi-0.dtd"
   xmlns="http://www.w3.org/2000/svg"
   xmlns:svg="http://www.w3.org/2000/svg">
  <defs
     id="defs10" />
  <sodipodi:namedview
     id="namedview8"
     pagecolor="#ffffff"
     bordercolor="#666666"
     borderopacity="1.0"
     inkscape:showpageshadow="2"
     inkscape:pageopacity="0.0"
     inkscape:pagecheckerboard="true"
     inkscape:deskcolor="#d1d1d1"
     showgrid="true"
     inkscape:zoom="0.8095703"
     inkscape:cx="79.054283"
     inkscape:cy="54.967431"
     inkscape:current-layer="svg6"
     showguides="false"
     inkscape:window-width="1920"
     inkscape:window-height="730"
     inkscape:window-x="-6"
     inkscape:window-y="-6"
     inkscape:window-maximized="1">
    <inkscape:grid
       type="xygrid"
       id="grid239"
       units="px"
       spacingx="1.5"
       spacingy="1.5" />
  </sodipodi:namedview>
  <path
     fill="#edf1e9"
     d="m 23.999962,46.000062 c 4.083201,0 6.815001,-0.3009 8.0707,-0.4782 0.525301,-0.0743 1.0169,-0.2779 1.440801,-0.5969 1.013299,-0.7624 3.157699,-2.4813 6.044999,-5.3686 2.8872,-2.8872 4.6061,-5.0316 5.3685,-6.0449 0.3191,-0.424 0.5227,-0.9155 0.5969,-1.4409 0.1773,-1.2555 0.4782,-3.9873 0.4782,-8.0705 0,-4.0832 -0.3009,-6.815 -0.4782,-8.0706 -0.0742,-0.5253 -0.2778,-1.0169 -0.5969,-1.4409 -0.7624,-1.0132 -2.4813,-3.1576 -5.3685,-6.0448595 -2.8873,-2.8872 -5.0317,-4.60613 -6.0449,-5.36857 -0.424,-0.31903 -0.915599,-0.52263 -1.440999,-0.59684 -1.2556,-0.17735 -3.9874,-0.47823 -8.070501,-0.47823 -4.0831,0 -6.8149,0.30088 -8.070499,0.47823 -0.525401,0.07421 -1.017001,0.2778 -1.440901,0.59684 -1.013299,0.76242 -3.157699,2.48134 -6.0449395,5.36857 -2.88725,2.8872605 -4.60617,5.0316595 -5.36859,6.0449595 -0.31902,0.4239 -0.52261,0.9154 -0.59683,1.4408 -0.17735,1.2556 -0.47824,3.9874 -0.47824,8.0706 0,4.0832 0.30089,6.815 0.47824,8.0706 0.07422,0.5253 0.27781,1.0168 0.59683,1.4408 0.76242,1.0133 2.48133,3.1577 5.36855,6.0449 2.8871795,2.8872 5.0316795,4.6062 6.0449795,5.3686 0.4239,0.319 0.9155,0.5226 1.4409,0.5969 1.2555,0.1773 3.9873,0.4782 8.0704,0.4782 z"
     id="path3678"
     style="fill:#edf1e9;fill-opacity:1" />
  <path
     id="path27868"
     style="fill:#606668;fill-opacity:1;stroke-width:0.0911858"
     d="M 24 16.403687 C 23.256845 16.410987 22.504675 16.438813 22.257935 16.487183 C 20.461463 17.058763 19.103898 17.872103 18.45813 19.307739 C 18.355713 19.386149 18.012205 20.436423 18.011719 20.651001 C 15.762813 22.396671 7.3884783 21.144642 9.9814453 24.65332 C 10.603203 25.145765 11.582965 25.637874 12.309814 25.822632 C 12.617597 25.900872 13.25112 25.960692 13.77063 25.960693 C 15.272353 25.960693 16.450544 25.543184 17.629395 24.593262 L 18.173218 24.155273 C 18.143198 24.670902 18.429104 24.992369 18.069946 25.301147 C 16.202666 25.635304 16.633825 32.656189 18.268066 32.710693 C 18.668881 35.891028 18.61473 39.369281 19.727783 40.935059 C 20.074085 41.318366 20.398258 41.516677 20.97583 41.699341 C 21.227236 41.778841 22.11016 41.814043 24 41.82019 C 25.889841 41.81409 26.772763 41.778844 27.02417 41.699341 C 27.601741 41.516677 27.925915 41.318366 28.272217 40.935059 C 29.385269 39.369281 29.33112 35.891028 29.731934 32.710693 C 31.366175 32.656193 31.797336 25.635304 29.930054 25.301147 C 29.619542 24.63981 29.780186 25.002171 29.826782 24.155273 L 30.370605 24.593262 C 31.549456 25.543184 32.728013 25.960693 34.229736 25.960693 C 34.749245 25.960692 35.382769 25.900872 35.690552 25.822632 C 36.4174 25.637874 37.396794 25.145765 38.018555 24.65332 C 40.611521 21.144642 32.237187 22.396671 29.988281 20.651001 C 29.987795 20.436423 29.644287 19.386145 29.54187 19.307739 C 28.896102 17.872103 27.538903 17.058763 25.742432 16.487183 C 25.495691 16.438813 24.743155 16.411007 24 16.403687 z M 19.677246 25.564453 A 1.6293066 3.1658852 0 0 1 21.306519 28.730347 A 1.6293066 3.1658852 0 0 1 19.677246 31.89624 A 1.6293066 3.1658852 0 0 1 18.047974 28.730347 A 1.6293066 3.1658852 0 0 1 19.677246 25.564453 z M 28.374756 25.564453 A 1.6293066 3.1658852 0 0 1 30.004028 28.730347 A 1.6293066 3.1658852 0 0 1 28.374756 31.89624 A 1.6293066 3.1658852 0 0 1 26.745483 28.730347 A 1.6293066 3.1658852 0 0 1 28.374756 25.564453 z " />
  <path
     id="path27881"
     style="fill:#606668;fill-opacity:1;stroke-width:0.0911858"
     d="m 16.68122,6.1801133 c 0.778467,0.4062487 -1.58285,2.3198654 -2.247745,3.0099521 -1.167606,1.4834716 -3.494917,3.4500246 -4.106348,5.2669956 -0.196373,1.933935 2.081157,0.234538 2.90888,-0.135601 1.544972,-0.799102 3.212263,-1.867998 5.031226,-1.348381 1.708892,0.329707 2.943698,1.690233 3.663662,3.200234 0.677062,1.016531 1.191416,2.452075 0.305743,3.515047 -1.018778,1.31106 -3.630133,1.338577 -4.179485,-0.242976 -0.445004,-0.963079 -0.612947,-2.402661 -2.362021,-1.495376 -1.804001,0.935777 -3.16035,2.303224 -5.322198,1.792988 C 7.8008225,19.307055 6.0171793,16.536786 6.6282118,14.01051 7.0317248,12.032714 10.59944,9.6279988 12.099309,8.4805824 13.519132,7.5574539 14.962032,6.4213474 16.68122,6.1801133 Z"
     sodipodi:nodetypes="ccscssssscccc" />
  <path
     id="path27961"
     style="fill:#606668;fill-opacity:1;stroke-width:0.0911858"
     d="m 31.318904,6.1801133 c -0.778466,0.4062487 1.582851,2.3198654 2.247745,3.0099521 1.167607,1.4834716 3.494917,3.4500246 4.106349,5.2669956 0.196373,1.933935 -2.081157,0.234538 -2.908881,-0.135601 -1.544971,-0.799102 -3.212263,-1.867998 -5.031225,-1.348381 -1.708892,0.329707 -2.943698,1.690233 -3.663663,3.200234 -0.677061,1.016531 -1.191415,2.452075 -0.305743,3.515047 1.018779,1.31106 3.630133,1.338577 4.179486,-0.242976 0.445004,-0.963079 0.612947,-2.402661 2.362021,-1.495376 1.804001,0.935777 3.16035,2.303224 5.322198,1.792988 2.572111,-0.435941 4.355755,-3.20621 3.744722,-5.732486 C 40.9684,12.032714 37.400684,9.6279988 35.900816,8.4805824 34.480993,7.5574539 33.038093,6.4213474 31.318904,6.1801133 Z"
     sodipodi:nodetypes="ccscssssscccc" />
  <ellipse
     style="fill:#606668;fill-opacity:1;stroke:none;stroke-width:0.0171582;stroke-linejoin:round;stroke-dasharray:none;stroke-opacity:1"
     id="path28137"
     cx="19.820404"
     cy="28.897268"
     rx="0.5994634"
     ry="1.4892904" />
  <ellipse
     style="fill:#606668;fill-opacity:1;stroke:none;stroke-width:0.0171582;stroke-linejoin:round;stroke-dasharray:none;stroke-opacity:1"
     id="ellipse28139"
     cx="28.056349"
     cy="28.897268"
     rx="0.5994634"
     ry="1.4892904" />
</svg>
