<?xml version="1.0" encoding="UTF-8" standalone="no"?>
<svg
   fill="none"
   viewBox="0 0 48 48"
   height="256"
   width="256"
   version="1.1"
   id="svg6"
   sodipodi:docname="matlab.svg"
   inkscape:version="1.2.1 (9c6d41e410, 2022-07-14)"
   xml:space="preserve"
   xmlns:inkscape="http://www.inkscape.org/namespaces/inkscape"
   xmlns:sodipodi="http://sodipodi.sourceforge.net/DTD/sodipodi-0.dtd"
   xmlns="http://www.w3.org/2000/svg"
   xmlns:svg="http://www.w3.org/2000/svg"><defs
     id="defs10" /><sodipodi:namedview
     id="namedview8"
     pagecolor="#ffffff"
     bordercolor="#666666"
     borderopacity="1.0"
     inkscape:showpageshadow="2"
     inkscape:pageopacity="0.0"
     inkscape:pagecheckerboard="true"
     inkscape:deskcolor="#d1d1d1"
     showgrid="true"
     inkscape:zoom="1.1449053"
     inkscape:cx="89.963773"
     inkscape:cy="2.1835867"
     inkscape:current-layer="svg6"
     showguides="false"
     inkscape:window-width="1920"
     inkscape:window-height="730"
     inkscape:window-x="-6"
     inkscape:window-y="-6"
     inkscape:window-maximized="1"><inkscape:grid
       type="xygrid"
       id="grid239"
       units="px"
       spacingx="1.5"
       spacingy="1.5" /></sodipodi:namedview><path
     fill="#edf1e9"
     d="m 23.999962,46.000062 c 4.083201,0 6.815001,-0.3009 8.0707,-0.4782 0.525301,-0.0743 1.0169,-0.2779 1.440801,-0.5969 1.013299,-0.7624 3.157699,-2.4813 6.044999,-5.3686 2.8872,-2.8872 4.6061,-5.0316 5.3685,-6.0449 0.3191,-0.424 0.5227,-0.9155 0.5969,-1.4409 0.1773,-1.2555 0.4782,-3.9873 0.4782,-8.0705 0,-4.0832 -0.3009,-6.815 -0.4782,-8.0706 -0.0742,-0.5253 -0.2778,-1.0169 -0.5969,-1.4409 -0.7624,-1.0132 -2.4813,-3.1576 -5.3685,-6.0448595 -2.8873,-2.8872 -5.0317,-4.60613 -6.0449,-5.36857 -0.424,-0.31903 -0.915599,-0.52263 -1.440999,-0.59684 -1.2556,-0.17735 -3.9874,-0.47823 -8.070501,-0.47823 -4.0831,0 -6.8149,0.30088 -8.070499,0.47823 -0.525401,0.07421 -1.017001,0.2778 -1.440901,0.59684 -1.013299,0.76242 -3.157699,2.48134 -6.0449395,5.36857 -2.88725,2.8872605 -4.60617,5.0316595 -5.36859,6.0449595 -0.31902,0.4239 -0.52261,0.9154 -0.59683,1.4408 -0.17735,1.2556 -0.47824,3.9874 -0.47824,8.0706 0,4.0832 0.30089,6.815 0.47824,8.0706 0.07422,0.5253 0.27781,1.0168 0.59683,1.4408 0.76242,1.0133 2.48133,3.1577 5.36855,6.0449 2.8871795,2.8872 5.0316795,4.6062 6.0449795,5.3686 0.4239,0.319 0.9155,0.5226 1.4409,0.5969 1.2555,0.1773 3.9873,0.4782 8.0704,0.4782 z"
     id="path3678"
     style="fill:#edf1e9;fill-opacity:1" /><path
     style="fill:#8b6495;fill-opacity:1;stroke-width:1"
     d="m 17.554252,24.393327 c -0.50574,-0.253012 -1.171511,-0.683633 -1.479482,-0.956938 -0.327789,-0.290888 -2.189758,-0.499759 -2.142432,-1.112735 1.142839,-1.782382 8.14167,-7.677519 10.800897,-6.981967 0.244797,0.114339 -0.272737,0.854613 -0.989,2.210947 -1.3661,2.586878 -4.710662,7.300714 -5.093446,7.300714 -0.09736,0 -0.590799,-0.207011 -1.096537,-0.460021 z"
     id="path303"
     sodipodi:nodetypes="scccsss" /><path
     style="fill:#d63232;fill-opacity:1;stroke-width:1"
     d="m 21.159708,43.074018 c -0.137519,-0.147615 -0.677533,-1.221605 -1.200021,-2.386649 -1.937569,-4.320359 -2.691002,-5.628266 -4.106706,-7.128995 -0.475811,-0.504377 -5.286869,-1.469062 -5.286869,-1.543256 0,-0.07419 3.553064,-2.512391 4.092608,-3.016268 1.852417,-1.729954 4.280542,-3.974734 6.702496,-7.622357 1.790409,-2.696473 2.542913,-4.073416 4.384415,-8.022638 2.783101,-5.9685345 3.719092,-7.6491089 5.349796,-7.6735341 1.376393,-0.020616 2.45368,0.4913875 3.601377,2.6002745 0.732931,1.346764 1.220249,2.4770386 2.834308,6.5738306 0.709767,1.80153 1.528019,3.865102 1.818332,4.585713 0.873971,2.169354 4.834114,12.576305 4.928014,12.950452 0.0558,0.222556 0.0341,0.34811 -0.0603,0.34811 -0.0812,0 -0.84506,-0.35216 -1.697452,-0.782576 -1.778474,-0.898043 -2.730961,-1.183375 -3.942957,-1.181174 -2.373488,0.0043 -4.484788,1.255713 -7.387288,4.378585 -3.966451,4.267602 -5.918345,6.015422 -8.248299,7.385922 -1.422398,0.836664 -1.483059,0.854867 -1.781471,0.53456 z"
     id="path329"
     sodipodi:nodetypes="csssssssssscssssscc" /><path
     style="fill:#77c32f;fill-opacity:1;stroke-width:1"
     d="M 9.4195128,31.779238 C 9.1312688,31.613576 7.4613498,30.520053 5.7085838,29.349189 3.1632608,27.648891 2.5511836,27.184853 2.6680536,27.044038 2.9767858,26.672036 13.217053,22.283602 13.948454,22.262806 c 1.043686,0.07134 5.076544,2.175474 4.933483,2.557917 -0.314268,0.59415 -3.307535,3.58824 -4.642629,4.662156 -1.009666,0.812145 -3.565532,2.520168 -3.812074,2.51229 -0.02719,-8.39e-4 -0.7194762,-0.05026 -1.0077212,-0.215931 z"
     id="path427"
     sodipodi:nodetypes="sscccscs" /></svg>
