<?xml version="1.0" encoding="UTF-8" standalone="no"?>
<svg
   fill="none"
   viewBox="0 0 48 48"
   height="256"
   width="256"
   version="1.1"
   id="svg6"
   sodipodi:docname="nim.svg"
   inkscape:version="1.2.1 (9c6d41e410, 2022-07-14)"
   xml:space="preserve"
   xmlns:inkscape="http://www.inkscape.org/namespaces/inkscape"
   xmlns:sodipodi="http://sodipodi.sourceforge.net/DTD/sodipodi-0.dtd"
   xmlns="http://www.w3.org/2000/svg"
   xmlns:svg="http://www.w3.org/2000/svg"><defs
     id="defs10" /><sodipodi:namedview
     id="namedview8"
     pagecolor="#ffffff"
     bordercolor="#666666"
     borderopacity="1.0"
     inkscape:showpageshadow="2"
     inkscape:pageopacity="0.0"
     inkscape:pagecheckerboard="true"
     inkscape:deskcolor="#d1d1d1"
     showgrid="true"
     inkscape:zoom="0.8095703"
     inkscape:cx="127.22799"
     inkscape:cy="16.675513"
     inkscape:current-layer="svg6"
     showguides="false"
     inkscape:window-width="1920"
     inkscape:window-height="730"
     inkscape:window-x="-6"
     inkscape:window-y="-6"
     inkscape:window-maximized="1"><inkscape:grid
       type="xygrid"
       id="grid239"
       units="px"
       spacingx="1.5"
       spacingy="1.5" /></sodipodi:namedview><path
     fill="#edf1e9"
     d="m 23.999962,46.000062 c 4.083201,0 6.815001,-0.3009 8.0707,-0.4782 0.525301,-0.0743 1.0169,-0.2779 1.440801,-0.5969 1.013299,-0.7624 3.157699,-2.4813 6.044999,-5.3686 2.8872,-2.8872 4.6061,-5.0316 5.3685,-6.0449 0.3191,-0.424 0.5227,-0.9155 0.5969,-1.4409 0.1773,-1.2555 0.4782,-3.9873 0.4782,-8.0705 0,-4.0832 -0.3009,-6.815 -0.4782,-8.0706 -0.0742,-0.5253 -0.2778,-1.0169 -0.5969,-1.4409 -0.7624,-1.0132 -2.4813,-3.1576 -5.3685,-6.0448595 -2.8873,-2.8872 -5.0317,-4.60613 -6.0449,-5.36857 -0.424,-0.31903 -0.915599,-0.52263 -1.440999,-0.59684 -1.2556,-0.17735 -3.9874,-0.47823 -8.070501,-0.47823 -4.0831,0 -6.8149,0.30088 -8.070499,0.47823 -0.525401,0.07421 -1.017001,0.2778 -1.440901,0.59684 -1.013299,0.76242 -3.157699,2.48134 -6.0449395,5.36857 -2.88725,2.8872605 -4.60617,5.0316595 -5.36859,6.0449595 -0.31902,0.4239 -0.52261,0.9154 -0.59683,1.4408 -0.17735,1.2556 -0.47824,3.9874 -0.47824,8.0706 0,4.0832 0.30089,6.815 0.47824,8.0706 0.07422,0.5253 0.27781,1.0168 0.59683,1.4408 0.76242,1.0133 2.48133,3.1577 5.36855,6.0449 2.8871795,2.8872 5.0316795,4.6062 6.0449795,5.3686 0.4239,0.319 0.9155,0.5226 1.4409,0.5969 1.2555,0.1773 3.9873,0.4782 8.0704,0.4782 z"
     id="path3678"
     style="fill:#edf1e9;fill-opacity:1" /><path
     style="fill:#e7c323;fill-opacity:1;stroke-width:0.1875"
     d="m 20.922986,36.378927 c -3.6683,-0.569845 -6.75329,-1.983421 -9.05581,-4.149462 L 10.406627,30.855482 9.0330165,27.519363 c -0.755486,-1.834865 -1.494425,-3.631432 -1.642086,-3.99237 -0.241608,-0.590576 -0.111759,-0.504808 1.297532,0.85705 2.4636345,2.380717 3.6226835,3.075795 6.2264735,3.733989 l 1.70514,0.431033 3.68449,-1.844001 3.68449,-1.844002 3.62493,1.880919 3.62493,1.880917 1.12425,-0.221182 c 2.62681,-0.516793 5.09392,-1.93836 7.32504,-4.220745 l 1.35219,-1.383253 -1.74821,4.067762 -1.74821,4.067763 -1.31064,1.228761 c -3.71745,3.485211 -9.59663,5.104509 -15.31035,4.216923 z M 9.0035295,22.58643 c -0.796517,-0.837058 -1.366146,-1.722172 -2.20812,-3.43107 -0.624079,-1.266652 -1.13469,-2.35642 -1.13469,-2.421707 0,-0.06529 0.485156,0.05491 1.078125,0.267111 l 1.078125,0.385814 1.280299,-0.867293 c 0.704164,-0.47701 1.3500485,-0.867292 1.4353085,-0.867292 0.0853,0 0.55073,-0.675 1.03439,-1.5 0.483669,-0.825 0.936969,-1.5 1.007349,-1.5 0.0704,0 0.6937,0.4073 1.38517,0.905112 l 1.2572,0.905111 1.28386,-0.326039 c 0.70612,-0.179322 2.07868,-0.388062 3.05014,-0.463867 l 1.76628,-0.137829 1.3907,-1.083841 1.39069,-1.083841 1.27594,1.133989 1.27594,1.133988 2.20837,0.153503 c 1.2146,0.08443 2.61666,0.24503 3.11569,0.356897 0.89869,0.201455 0.91834,0.195621 2.0625,-0.612536 0.63535,-0.448761 1.24768,-0.869644 1.36073,-0.935296 0.12174,-0.07069 0.54092,0.48912 1.02787,1.37268 0.64273,1.1662 1.03316,1.637265 1.78778,2.156992 0.531,0.365718 1.10858,0.823081 1.28349,1.016361 0.31037,0.342944 0.34914,0.34084 1.6078,-0.08726 l 1.28976,-0.438677 -0.37234,0.970401 c -1.07086,2.790878 -2.36218,4.773284 -3.75555,5.765455 l -0.55672,0.396418 -0.8019,-0.73917 c -1.59373,-1.469046 -4.00127,-2.519317 -7.47157,-3.25942 -1.59177,-0.339474 -2.57505,-0.414685 -5.58793,-0.427423 -3.91862,-0.01657 -5.39046,0.161178 -7.96875,0.962339 -2.01273,0.625423 -3.52898,1.453837 -4.637879,2.533935 -0.5051,0.491985 -0.97377,0.894517 -1.04149,0.894517 -0.0677,0 -0.6061805,-0.507628 -1.1965675,-1.128062 z"
     id="path249" /></svg>
