<?xml version="1.0" encoding="UTF-8" standalone="no"?>
<svg
   fill="none"
   viewBox="0 0 48 48"
   height="256"
   width="256"
   version="1.1"
   id="svg6"
   sodipodi:docname="oberon.svg"
   inkscape:version="1.2.1 (9c6d41e410, 2022-07-14)"
   xml:space="preserve"
   xmlns:inkscape="http://www.inkscape.org/namespaces/inkscape"
   xmlns:sodipodi="http://sodipodi.sourceforge.net/DTD/sodipodi-0.dtd"
   xmlns="http://www.w3.org/2000/svg"
   xmlns:svg="http://www.w3.org/2000/svg"><defs
     id="defs10" /><sodipodi:namedview
     id="namedview8"
     pagecolor="#ffffff"
     bordercolor="#666666"
     borderopacity="1.0"
     inkscape:showpageshadow="2"
     inkscape:pageopacity="0.0"
     inkscape:pagecheckerboard="true"
     inkscape:deskcolor="#d1d1d1"
     showgrid="true"
     inkscape:zoom="1.1449053"
     inkscape:cx="39.304561"
     inkscape:cy="40.614713"
     inkscape:current-layer="svg6"
     showguides="false"
     inkscape:window-width="1920"
     inkscape:window-height="730"
     inkscape:window-x="-6"
     inkscape:window-y="-6"
     inkscape:window-maximized="1"><inkscape:grid
       type="xygrid"
       id="grid239"
       units="px"
       spacingx="1.5"
       spacingy="1.5" /></sodipodi:namedview><path
     fill="#edf1e9"
     d="m 23.999962,46.000062 c 4.083201,0 6.815001,-0.3009 8.0707,-0.4782 0.525301,-0.0743 1.0169,-0.2779 1.440801,-0.5969 1.013299,-0.7624 3.157699,-2.4813 6.044999,-5.3686 2.8872,-2.8872 4.6061,-5.0316 5.3685,-6.0449 0.3191,-0.424 0.5227,-0.9155 0.5969,-1.4409 0.1773,-1.2555 0.4782,-3.9873 0.4782,-8.0705 0,-4.0832 -0.3009,-6.815 -0.4782,-8.0706 -0.0742,-0.5253 -0.2778,-1.0169 -0.5969,-1.4409 -0.7624,-1.0132 -2.4813,-3.1576 -5.3685,-6.0448595 -2.8873,-2.8872 -5.0317,-4.60613 -6.0449,-5.36857 -0.424,-0.31903 -0.915599,-0.52263 -1.440999,-0.59684 -1.2556,-0.17735 -3.9874,-0.47823 -8.070501,-0.47823 -4.0831,0 -6.8149,0.30088 -8.070499,0.47823 -0.525401,0.07421 -1.017001,0.2778 -1.440901,0.59684 -1.013299,0.76242 -3.157699,2.48134 -6.0449395,5.36857 -2.88725,2.8872605 -4.60617,5.0316595 -5.36859,6.0449595 -0.31902,0.4239 -0.52261,0.9154 -0.59683,1.4408 -0.17735,1.2556 -0.47824,3.9874 -0.47824,8.0706 0,4.0832 0.30089,6.815 0.47824,8.0706 0.07422,0.5253 0.27781,1.0168 0.59683,1.4408 0.76242,1.0133 2.48133,3.1577 5.36855,6.0449 2.8871795,2.8872 5.0316795,4.6062 6.0449795,5.3686 0.4239,0.319 0.9155,0.5226 1.4409,0.5969 1.2555,0.1773 3.9873,0.4782 8.0704,0.4782 z"
     id="path3678"
     style="fill:#edf1e9;fill-opacity:1" /><path
     style="fill:#000000;stroke-width:0.999997"
     d="m 33.466366,35.994853 c 0.988103,-1.200089 2.082486,-2.994551 3.146378,-5.159123 0.636425,-1.294855 0.854311,-1.909785 0.979479,-2.76432 0.224482,-1.532562 -0.333125,-2.820734 -1.533601,-3.542892 -0.113459,-0.06826 -0.38513,-0.195564 -0.603713,-0.282915 l -0.397424,-0.158819 -0.0042,-0.964343 c -0.0044,-1.026816 -0.03988,-1.463869 -0.191554,-2.362394 -0.08155,-0.483095 -0.29724,-1.405255 -0.385055,-1.646263 -0.02311,-0.06341 0.02012,-0.08361 0.276695,-0.129226 1.342189,-0.238669 2.787212,-0.375857 4.296557,-0.407908 2.192032,-0.04655 3.206399,0.118787 4.186865,0.682431 0.851933,0.489754 1.359912,1.228292 1.585706,2.305406 0.123231,0.587861 0.122382,1.677977 -0.0019,2.419769 -0.177367,1.058785 -0.481439,2.057521 -0.954387,3.134718 -0.5124,1.167055 -0.914739,1.849238 -1.878677,3.185378 -2.030969,2.815176 -3.390755,4.457479 -4.820045,5.821479 l -0.506901,0.48373 c -5.409574,5.977569 -7.257173,5.158724 -3.700394,0 z M 6.1116131,36.497287 c 0.043383,-0.134664 0.398838,-0.728553 0.6709735,-1.121056 0.5054014,-0.728944 1.5661394,-1.94381 2.451551,-2.807764 0.4943889,-0.482411 1.3537744,-1.240134 2.0133404,-1.775173 l 0.607789,-0.493037 0.254305,0.452251 c 0.139869,0.248739 0.377014,0.629707 0.52699,0.846595 0.149979,0.216888 0.26028,0.409573 0.245116,0.428191 -0.01517,0.01862 -1.455515,0.985995 -3.2007794,2.149728 -1.7452646,1.163733 -3.2682615,2.180287 -3.3844379,2.259012 -0.1674714,0.11349 -0.2057649,0.126175 -0.1848476,0.06125 z m 13.9114649,-2.02371 c -4.976199,-0.522504 -7.914238,-3.597635 -8.575051,-8.975173 -0.09512,-0.774071 -0.09633,-2.531759 -0.0022,-3.249417 0.155677,-1.187258 0.424215,-2.216276 0.846997,-3.245621 1.533852,-3.734444 4.836705,-6.271324 9.055729,-6.955593 2.797772,-0.453762 5.817654,0.14468 7.983417,1.582051 0.83789,0.55609 1.403863,1.060128 2.096846,1.867386 1.348171,1.570487 2.184248,3.438083 2.565636,5.731019 0.07282,0.437849 0.08534,0.670828 0.08603,1.602571 0.0012,1.538226 -0.119459,2.503496 -0.470962,3.768955 -1.099433,3.958105 -4.026145,6.632249 -8.28933,7.573988 -1.145934,0.253138 -1.711414,0.307655 -3.369109,0.324809 -0.846173,0.0088 -1.713767,-0.0025 -1.927988,-0.02497 z m 3.364661,-3.134967 c 2.775663,-0.420797 4.872215,-1.934097 5.835247,-4.211907 0.184271,-0.435843 0.415545,-1.290071 0.503653,-1.860264 0.05812,-0.376161 0.07141,-0.692132 0.07021,-1.670153 -0.0019,-1.587066 -0.09632,-2.40793 -0.39422,-3.428832 -0.850305,-2.913936 -2.900742,-4.548064 -6.146768,-4.898764 -1.824935,-0.197165 -3.513509,0.293645 -4.836277,1.40574 -0.403392,0.339146 -1.087141,1.130892 -1.363778,1.579186 -0.655861,1.062831 -1.080267,2.283538 -1.306129,3.756789 -0.07424,0.484265 -0.08669,0.728051 -0.08689,1.701864 -1.95e-4,1.006625 0.0098,1.191018 0.08723,1.612117 0.279523,1.519575 0.812953,2.688437 1.721005,3.771096 0.940471,1.121316 2.066021,1.832698 3.414107,2.157821 0.870801,0.210015 1.531451,0.232535 2.5026,0.0853 z m -5.394667,-3.137804 c -0.129847,-0.159477 -0.298644,-0.383904 -0.375101,-0.498726 -0.156954,-0.235716 -0.496612,-0.879204 -0.496612,-0.940843 0,-0.04929 1.663228,-1.018324 2.78712,-1.623854 1.591108,-0.857254 3.611659,-1.857461 5.392221,-2.669238 0.831729,-0.379195 3.05211,-1.347007 3.259965,-1.420943 0.07423,-0.0264 0.09109,-0.0062 0.126949,0.152452 0.130349,0.576593 0.25762,2.90549 0.167157,3.058767 -0.01915,0.03246 -0.384102,0.152538 -0.810984,0.266832 -2.710771,0.725786 -5.695884,1.916313 -9.198523,3.668564 -0.326465,0.16332 -0.598643,0.296945 -0.604838,0.296945 -0.0062,0 -0.117505,-0.130481 -0.247354,-0.289956 z"
     id="path301"
     sodipodi:nodetypes="csssscssssssscssccccsssscsssssssssssssscsssssssscsssssccsssssssssscssssss" /></svg>
