<?xml version="1.0" encoding="UTF-8" standalone="no"?>
<svg
   fill="none"
   viewBox="0 0 48 48"
   height="256"
   width="256"
   version="1.1"
   id="svg6"
   sodipodi:docname="pascal.svg"
   inkscape:version="1.2.1 (9c6d41e410, 2022-07-14)"
   xml:space="preserve"
   xmlns:inkscape="http://www.inkscape.org/namespaces/inkscape"
   xmlns:sodipodi="http://sodipodi.sourceforge.net/DTD/sodipodi-0.dtd"
   xmlns="http://www.w3.org/2000/svg"
   xmlns:svg="http://www.w3.org/2000/svg"><defs
     id="defs10" /><sodipodi:namedview
     id="namedview8"
     pagecolor="#ffffff"
     bordercolor="#666666"
     borderopacity="1.0"
     inkscape:showpageshadow="2"
     inkscape:pageopacity="0.0"
     inkscape:pagecheckerboard="true"
     inkscape:deskcolor="#d1d1d1"
     showgrid="true"
     inkscape:zoom="1.1449053"
     inkscape:cx="186.91502"
     inkscape:cy="75.5521"
     inkscape:current-layer="svg6"
     showguides="false"
     inkscape:window-width="1920"
     inkscape:window-height="730"
     inkscape:window-x="-6"
     inkscape:window-y="-6"
     inkscape:window-maximized="1"><inkscape:grid
       type="xygrid"
       id="grid239"
       units="px"
       spacingx="1.5"
       spacingy="1.5" /></sodipodi:namedview><path
     fill="#edf1e9"
     d="m 23.999962,46.000062 c 4.083201,0 6.815001,-0.3009 8.0707,-0.4782 0.525301,-0.0743 1.0169,-0.2779 1.440801,-0.5969 1.013299,-0.7624 3.157699,-2.4813 6.044999,-5.3686 2.8872,-2.8872 4.6061,-5.0316 5.3685,-6.0449 0.3191,-0.424 0.5227,-0.9155 0.5969,-1.4409 0.1773,-1.2555 0.4782,-3.9873 0.4782,-8.0705 0,-4.0832 -0.3009,-6.815 -0.4782,-8.0706 -0.0742,-0.5253 -0.2778,-1.0169 -0.5969,-1.4409 -0.7624,-1.0132 -2.4813,-3.1576 -5.3685,-6.0448595 -2.8873,-2.8872 -5.0317,-4.60613 -6.0449,-5.36857 -0.424,-0.31903 -0.915599,-0.52263 -1.440999,-0.59684 -1.2556,-0.17735 -3.9874,-0.47823 -8.070501,-0.47823 -4.0831,0 -6.8149,0.30088 -8.070499,0.47823 -0.525401,0.07421 -1.017001,0.2778 -1.440901,0.59684 -1.013299,0.76242 -3.157699,2.48134 -6.0449395,5.36857 -2.88725,2.8872605 -4.60617,5.0316595 -5.36859,6.0449595 -0.31902,0.4239 -0.52261,0.9154 -0.59683,1.4408 -0.17735,1.2556 -0.47824,3.9874 -0.47824,8.0706 0,4.0832 0.30089,6.815 0.47824,8.0706 0.07422,0.5253 0.27781,1.0168 0.59683,1.4408 0.76242,1.0133 2.48133,3.1577 5.36855,6.0449 2.8871795,2.8872 5.0316795,4.6062 6.0449795,5.3686 0.4239,0.319 0.9155,0.5226 1.4409,0.5969 1.2555,0.1773 3.9873,0.4782 8.0704,0.4782 z"
     id="path3678"
     style="fill:#edf1e9;fill-opacity:1" /><path
     style="fill:#606668;fill-opacity:1;stroke-width:0.999999"
     d="M 21.926497,43.089766 C 20.8054,42.927839 18.598653,41.865079 18.235951,41.31242 18.05311,41.033807 17.952175,40.451434 17.890138,39.316984 17.785834,37.409933 17.527484,36.798389 16.396595,35.781624 14.834153,34.376852 13.876499,34.199215 11.640526,34.899418 L 10.077024,35.389032 8.9919155,34.844455 C 7.6498264,34.170906 7.2716212,33.731696 6.2978959,31.715924 5.5774171,30.224416 5.5274563,30.045378 5.5257877,28.948815 5.5233577,27.557398 5.5734967,27.488763 7.3561447,26.428735 8.6787776,25.642241 9.128198,25.102061 9.4871251,23.867385 9.8077393,22.764521 9.8078204,20.721616 9.487279,19.945611 9.3345698,19.575892 8.7327478,18.855204 7.9497046,18.104339 6.6720187,16.879157 6.6630601,16.865285 6.6630601,16.112401 c 0,-0.973932 0.7270722,-2.461266 1.8940474,-3.874568 1.6911665,-2.048126 2.4807705,-2.2390535 4.5638875,-1.103548 1.141647,0.622312 1.430801,0.71639 2.20188,0.71639 1.358216,0 3.200051,-0.733218 4.32668,-1.722413 0.713391,-0.6263673 0.943796,-1.0981315 1.20626,-2.4699102 0.300275,-1.5693977 0.57045,-2.0286864 1.412494,-2.4011603 0.622355,-0.2752971 0.911534,-0.3007465 2.609059,-0.2296139 2.232028,0.09353 3.303236,0.3779414 4.069958,1.0805897 0.528606,0.4844294 0.543656,0.5303531 0.681137,2.0785969 0.07736,0.8707726 0.17385,1.809152 0.214504,2.0852878 0.110112,0.747989 1.571473,2.138811 2.97735,2.833629 1.420157,0.701881 2.297638,0.736724 3.838055,0.152406 2.019063,-0.765881 2.963312,-0.275643 4.239621,2.201137 0.767054,1.488532 1.092164,2.537785 1.237056,3.992498 0.130726,1.312386 -0.0032,1.51966 -1.567487,2.428661 -1.794499,1.042669 -2.418693,2.05884 -2.698734,4.393434 -0.161603,1.347189 0.07533,1.842353 1.551296,3.241775 l 1.283404,1.216856 0.147955,1.191739 c 0.174385,1.404643 0.07671,1.795404 -0.780362,3.121442 -1.094189,1.692917 -2.25031,2.745295 -3.01593,2.745295 -0.165936,0 -1.000487,-0.341718 -1.854543,-0.759375 -1.09883,-0.537351 -1.734405,-0.758848 -2.173814,-0.757572 -1.415977,0.0041 -3.619849,0.900827 -4.828312,1.964559 -0.783578,0.689736 -1.229265,1.603117 -1.486059,3.045513 -0.221778,1.245721 -0.461676,1.615327 -1.177497,1.814118 -0.663066,0.184139 -2.301842,0.180324 -3.608469,-0.0084 z m 2.12625,-1.497528 c 0.881078,-0.203319 1.362542,-0.821669 1.660792,-2.13297 0.137044,-0.602543 0.378318,-1.34868 0.536163,-1.658079 0.845948,-1.658203 3.98699,-3.212254 6.06012,-2.998287 0.508097,0.05244 1.312014,0.320052 2.106146,0.701106 1.490246,0.715068 2.035044,0.760885 2.807339,0.236098 0.654779,-0.444933 1.780242,-1.986913 2.156033,-2.95394 0.405575,-1.043664 0.238092,-1.519648 -1.007348,-2.862856 -1.510593,-1.629174 -1.7143,-2.130043 -1.710817,-4.206449 0.0049,-2.726341 0.619326,-3.979189 2.501053,-5.097097 1.374133,-0.816358 1.672715,-1.193648 1.672715,-2.11367 0,-1.405267 -1.102945,-3.729217 -1.986792,-4.186274 -0.572484,-0.296044 -0.99136,-0.279987 -2.61012,0.100052 -1.680434,0.394519 -2.388974,0.322758 -3.832159,-0.388122 -1.46465,-0.721453 -2.761071,-1.814188 -3.306639,-2.78712 C 28.727484,10.581682 28.629855,10.192165 28.541014,9.0176233 28.471111,8.0930569 28.343576,7.4570894 28.177235,7.2032144 27.42323,6.0524522 23.773686,5.4610502 22.641711,6.306192 22.212954,6.626304 22.079247,6.9253398 21.556295,8.7336632 21.112107,10.269657 20.157652,11.29812 18.376121,12.160428 c -1.157992,0.560501 -1.455691,0.639479 -2.599622,0.689654 -1.275134,0.05593 -1.310215,0.04765 -2.707093,-0.638434 -1.953857,-0.959653 -2.279849,-0.942375 -3.3619041,0.178182 -1.0904463,1.129256 -1.8294417,2.508988 -1.8294417,3.41566 0,0.741593 0.5390793,1.659142 1.247481,2.123304 1.0723428,0.702627 1.7702878,2.731159 1.5797028,4.591324 -0.235508,2.298742 -0.8903928,3.457626 -2.6576751,4.703067 -0.6783993,0.47808 -1.3122,1.016389 -1.4084604,1.19624 -0.3086181,0.576661 -0.1853523,1.520565 0.3332178,2.551534 1.2308598,2.447097 2.0770425,2.904309 4.3010027,2.323945 1.69669,-0.44277 3.193003,-0.04501 5.189167,1.379422 1.642211,1.171857 2.349964,2.495504 2.351131,4.397132 6.56e-4,1.071545 0.341601,1.763829 1.048739,2.129507 0.877627,0.453836 3.043065,0.656035 4.190381,0.391273 z m -6.290824,-7.838657 c 0.0073,-0.176927 0.04325,-0.212914 0.09176,-0.09176 0.0439,0.109633 0.03848,0.240626 -0.01199,0.291093 -0.05046,0.05046 -0.08636,-0.03924 -0.07979,-0.199335 z m -0.36369,-0.424799 c -0.04423,-0.115303 0.116526,-0.439937 0.357266,-0.721406 0.518157,-0.605811 0.565202,-0.497544 0.143225,0.329599 -0.338337,0.663201 -0.382944,0.69812 -0.500491,0.391807 z m 12.825264,-0.06161 c 0.03791,-0.254568 -0.02811,-0.486817 -0.133715,-0.470143 -0.347093,0.0548 -0.368185,-0.04678 -0.05524,-0.265986 0.29676,-0.207859 0.375597,-0.214004 0.487094,-0.03796 0.204306,0.322595 0.16247,0.69958 -0.08833,0.795817 -0.124295,0.0477 -0.218716,0.03793 -0.209822,-0.02172 z m -12.86139,-0.547578 c 0.08027,-0.25318 0.06099,-0.262333 -0.162162,-0.07713 -0.228048,0.189264 -0.241478,0.172542 -0.135173,-0.168361 0.114461,-0.367044 0.10901,-0.370444 -0.180257,-0.112384 -0.367716,0.32805 -0.550606,0.185968 -0.319367,-0.248112 0.154426,-0.289901 0.146383,-0.301116 -0.08129,-0.113311 -0.460534,0.379903 -0.298526,-0.183623 0.186332,-0.648144 0.427259,-0.409347 0.451632,-0.414064 0.91125,-0.176389 0.572646,0.29613 0.582244,0.442558 0.08019,1.223593 -0.214796,0.334125 -0.349572,0.478231 -0.299497,0.320238 z m 13.397189,-0.217725 c -0.138882,-0.153472 -0.21235,-0.319213 -0.163247,-0.368313 0.04909,-0.0491 -0.04471,-0.160994 -0.20851,-0.248648 -0.163783,-0.08765 -0.333097,-0.294415 -0.376262,-0.459471 -0.06148,-0.235037 0.01677,-0.321015 0.360718,-0.396564 0.24155,-0.05306 0.43919,-0.161782 0.43919,-0.241615 0,-0.08216 0.148294,-0.06734 0.341722,0.03416 0.331712,0.174068 0.333923,0.170531 0.07557,-0.120888 -0.146367,-0.165114 -0.225819,-0.340502 -0.176563,-0.389755 0.293082,-0.293083 0.321683,-1.254013 0.06358,-2.135187 -0.151454,-0.516992 -0.359867,-1.315878 -0.463158,-1.7753 -0.103283,-0.459421 -0.475932,-1.34789 -0.828104,-1.974375 -1.008442,-1.793935 -1.066397,-2.058615 -1.038849,-4.744372 0.02219,-2.16353 0.05581,-2.440927 0.354261,-2.923848 0.200313,-0.324114 0.488763,-0.566342 0.734857,-0.617108 0.222815,-0.04596 0.610983,-0.184546 0.862593,-0.307963 0.334166,-0.163909 0.743548,-0.200859 1.51875,-0.137084 2.607423,0.21451 3.294408,0.480837 3.813351,1.478344 0.199089,0.382686 0.193995,0.417656 -0.06083,0.417656 -0.152976,0 -0.509733,-0.170859 -0.792779,-0.379687 -0.283054,-0.208828 -0.627353,-0.379688 -0.76511,-0.379688 -0.137756,0 -0.539622,0.342924 -0.893041,0.762053 -0.687779,0.815663 -1.430079,1.274475 -2.337312,1.444672 -0.310278,0.0582 -0.603644,0.169749 -0.65192,0.247868 -0.05289,0.08553 -0.165378,0.07764 -0.282828,-0.01984 -0.265178,-0.220078 -0.653548,-0.04734 -0.789167,0.350994 -0.06132,0.180229 -0.102724,0.806095 -0.09192,1.390813 0.01847,0.99981 0.08389,1.189754 1.098303,3.189375 0.59326,1.169438 1.076255,2.232183 1.073323,2.361657 -0.0032,0.129472 0.05832,0.300333 0.136031,0.379687 0.07776,0.07935 0.176791,0.691031 0.220093,1.359281 0.04333,0.66825 0.119492,1.582592 0.169315,2.031869 0.08638,0.778886 0.07549,0.812922 -0.234074,0.73197 -0.30064,-0.07861 -0.30686,-0.06524 -0.08409,0.180928 0.204371,0.22583 0.209782,0.30794 0.03596,0.545676 -0.13949,0.190771 -0.296217,0.244959 -0.492367,0.170236 -0.230817,-0.08792 -0.250184,-0.07177 -0.0979,0.08164 0.104417,0.105187 0.189848,0.259593 0.189848,0.343123 0,0.08438 -0.081,0.07088 -0.18225,-0.03037 -0.265543,-0.265537 -0.496636,-0.22345 -0.27033,0.04923 0.280309,0.337755 0.0912,0.428139 -0.206809,0.09884 z M 32.011953,18.05731 c 0.59569,-0.424169 0.775891,-1.040548 0.387285,-1.324703 -0.432378,-0.316162 -0.919107,-0.244642 -1.194401,0.175504 -0.300664,0.458881 -0.559435,0.480119 -0.925215,0.07593 -0.151186,-0.167062 -0.373207,-0.30375 -0.493379,-0.30375 -0.120172,0 -0.254235,0.136688 -0.297926,0.30375 -0.04366,0.167063 -0.153673,0.30375 -0.244417,0.30375 -0.09074,0 0.105178,0.279124 0.435366,0.620276 0.549998,0.568249 0.65333,0.61453 1.231954,0.551782 0.347376,-0.03767 0.842708,-0.218817 1.100733,-0.402546 z M 23.70013,31.922683 C 23.589719,31.803178 23.52922,31.62234 23.565702,31.520819 23.676988,31.211065 23.397554,30.840006 22.79958,30.503473 22.486442,30.327249 22.080016,29.953402 21.896406,29.672701 21.712787,29.392 21.288501,29.008305 20.953541,28.820048 20.34174,28.476196 20.02806,27.934528 20.02806,27.221911 c 0,-0.45409 0.24419,-0.596902 0.436484,-0.255275 0.137425,0.244153 0.200548,0.221465 0.683924,-0.245836 l 0.532526,-0.514813 1.284757,0.269615 c 1.192482,0.250249 1.369638,0.252524 2.466612,0.03168 1.08502,-0.218437 1.220039,-0.217591 1.647686,0.01032 0.256203,0.136542 0.619602,0.243722 0.807546,0.238173 0.275351,-0.0081 0.341715,0.07244 0.341715,0.414826 0,0.70793 -0.260472,1.170814 -0.932983,1.657977 -1.18507,0.858458 -2.590023,2.286659 -2.494443,2.535724 0.06286,0.163786 0.02106,0.207247 -0.139912,0.145479 -0.126246,-0.04845 -0.229537,-0.02758 -0.229537,0.04637 0,0.07395 0.06618,0.157234 0.147007,0.185079 0.0941,0.0324 0.0931,0.132612 -0.0024,0.278436 -0.128871,0.196004 -0.174094,0.186342 -0.323903,-0.0692 -0.150944,-0.257468 -0.18596,-0.264626 -0.263007,-0.05376 -0.07687,0.21027 -0.116097,0.213792 -0.289624,0.02596 z m -7.94256,-0.30801 c -0.0099,-0.15314 -0.0086,-0.356091 0.0024,-0.451 0.01134,-0.09491 -0.08512,-0.213162 -0.21444,-0.262785 -0.206671,-0.07931 -0.199155,-0.160714 0.06213,-0.672909 0.310076,-0.607798 0.775089,-1.100014 0.775089,-0.820428 0,0.08735 0.171623,0.36278 0.381389,0.612066 l 0.38138,0.453247 -0.495291,0.647575 c -0.56073,0.733146 -0.866586,0.902427 -0.892968,0.494234 z M 15.6905,28.207096 c 0.06213,-0.534317 0.123808,-1.171938 0.137019,-1.416937 0.0132,-0.245 0.160688,-0.595537 0.32775,-0.778971 0.68292,-0.749851 1.335237,-1.774327 1.752273,-2.751978 0.363618,-0.852422 0.442026,-1.250261 0.443565,-2.250474 0.0024,-1.536353 -0.188528,-1.948373 -0.924526,-1.995457 -1.64477,-0.105221 -3.128885,-0.962232 -3.940505,-2.275459 -0.362839,-0.587092 -0.435107,-0.603801 -1.148126,-0.265451 -0.614928,0.2918 -0.776401,0.197951 -0.542538,-0.315319 0.222361,-0.488029 1.027882,-0.707751 3.06892,-0.837105 1.436778,-0.09106 1.66988,-0.06825 2.354062,0.230331 1.208788,0.527524 1.558376,1.008204 1.764456,2.426101 0.09671,0.665423 0.183505,2.029984 0.192877,3.032359 0.01879,2.006854 0.09652,1.769191 -1.295052,3.958671 -0.394308,0.620399 -0.606828,1.149023 -0.650884,1.619009 -0.03596,0.383811 -0.172862,0.905617 -0.304187,1.159568 -0.131326,0.253952 -0.239817,0.550555 -0.241097,0.659117 -0.004,0.341146 -0.213524,0.549223 -0.66778,0.663235 l -0.439247,0.110245 z m 1.785515,-10.40839 c 0.681461,-0.472253 0.714339,-0.691822 0.183117,-1.223039 l -0.394576,-0.394575 -0.346291,0.43429 c -0.313397,0.393038 -0.38411,0.417056 -0.744487,0.252859 -0.612846,-0.279231 -0.504622,-0.545053 0.171339,-0.420838 0.4536,0.08336 0.531846,0.06611 0.384402,-0.0847 -0.109058,-0.111549 -0.60831,-0.194412 -1.215,-0.201662 -0.991148,-0.01185 -1.031268,0.002 -1.066859,0.367378 -0.04512,0.462893 0.166042,0.750319 0.933938,1.271431 0.745824,0.506127 1.362906,0.505788 2.094417,-0.0012 z m 6.470231,-0.43497 c -0.219502,-0.938791 -0.190325,-6.081354 0.03062,-5.391561 0.06691,0.208827 0.12841,0.689113 0.136736,1.067301 0.0084,0.378186 0.116665,0.832572 0.240765,1.009744 0.196384,0.280378 0.197057,0.333095 0.0049,0.406716 -0.16989,0.06519 -0.230324,0.460425 -0.263598,1.724005 -0.02754,1.046782 -0.08168,1.474716 -0.149705,1.183795 z"
     id="path425" /></svg>
