<?xml version="1.0" encoding="UTF-8" standalone="no"?>
<svg
   fill="none"
   viewBox="0 0 48 48"
   height="256"
   width="256"
   version="1.1"
   id="svg6"
   sodipodi:docname="postscript.svg"
   inkscape:version="1.2.1 (9c6d41e410, 2022-07-14)"
   xml:space="preserve"
   xmlns:inkscape="http://www.inkscape.org/namespaces/inkscape"
   xmlns:sodipodi="http://sodipodi.sourceforge.net/DTD/sodipodi-0.dtd"
   xmlns="http://www.w3.org/2000/svg"
   xmlns:svg="http://www.w3.org/2000/svg"><defs
     id="defs10" /><sodipodi:namedview
     id="namedview8"
     pagecolor="#ffffff"
     bordercolor="#666666"
     borderopacity="1.0"
     inkscape:showpageshadow="2"
     inkscape:pageopacity="0.0"
     inkscape:pagecheckerboard="true"
     inkscape:deskcolor="#d1d1d1"
     showgrid="true"
     inkscape:zoom="1.1449053"
     inkscape:cx="261.15697"
     inkscape:cy="102.62858"
     inkscape:current-layer="svg6"
     showguides="false"
     inkscape:window-width="1920"
     inkscape:window-height="730"
     inkscape:window-x="-6"
     inkscape:window-y="-6"
     inkscape:window-maximized="1"><inkscape:grid
       type="xygrid"
       id="grid239"
       units="px"
       spacingx="1.5"
       spacingy="1.5" /></sodipodi:namedview><path
     fill="#edf1e9"
     d="m 23.999962,46.000062 c 4.083201,0 6.815001,-0.3009 8.0707,-0.4782 0.525301,-0.0743 1.0169,-0.2779 1.440801,-0.5969 1.013299,-0.7624 3.157699,-2.4813 6.044999,-5.3686 2.8872,-2.8872 4.6061,-5.0316 5.3685,-6.0449 0.3191,-0.424 0.5227,-0.9155 0.5969,-1.4409 0.1773,-1.2555 0.4782,-3.9873 0.4782,-8.0705 0,-4.0832 -0.3009,-6.815 -0.4782,-8.0706 -0.0742,-0.5253 -0.2778,-1.0169 -0.5969,-1.4409 -0.7624,-1.0132 -2.4813,-3.1576 -5.3685,-6.0448595 -2.8873,-2.8872 -5.0317,-4.60613 -6.0449,-5.36857 -0.424,-0.31903 -0.915599,-0.52263 -1.440999,-0.59684 -1.2556,-0.17735 -3.9874,-0.47823 -8.070501,-0.47823 -4.0831,0 -6.8149,0.30088 -8.070499,0.47823 -0.525401,0.07421 -1.017001,0.2778 -1.440901,0.59684 -1.013299,0.76242 -3.157699,2.48134 -6.0449395,5.36857 -2.88725,2.8872605 -4.60617,5.0316595 -5.36859,6.0449595 -0.31902,0.4239 -0.52261,0.9154 -0.59683,1.4408 -0.17735,1.2556 -0.47824,3.9874 -0.47824,8.0706 0,4.0832 0.30089,6.815 0.47824,8.0706 0.07422,0.5253 0.27781,1.0168 0.59683,1.4408 0.76242,1.0133 2.48133,3.1577 5.36855,6.0449 2.8871795,2.8872 5.0316795,4.6062 6.0449795,5.3686 0.4239,0.319 0.9155,0.5226 1.4409,0.5969 1.2555,0.1773 3.9873,0.4782 8.0704,0.4782 z"
     id="path3678"
     style="fill:#edf1e9;fill-opacity:1" /><path
     style="fill:#fd3131;fill-opacity:1;stroke-width:0.999999"
     d="m 20.031687,37.172762 c -0.78704,-0.02634 -1.446382,-0.06327 -1.465202,-0.08209 -0.01883,-0.01883 0.140993,-0.09975 0.355148,-0.179842 0.847553,-0.316963 2.014333,-1.251658 2.740539,-2.195419 0.731019,-0.950011 1.074884,-1.610961 2.459856,-4.728149 0.563395,-1.268044 1.921259,-4.302434 3.01748,-6.743094 1.096225,-2.440659 2.506549,-5.580717 3.134057,-6.977906 0.627508,-1.397189 1.161789,-2.563258 1.187291,-2.591264 0.09253,-0.101621 5.268692,0.321603 5.822686,0.476086 0.433185,0.120795 0.873271,0.376238 1.230872,0.714442 0.736003,0.696081 0.941874,1.236489 1.11793,2.934524 0.324063,3.12562 0.441239,6.595928 0.332021,9.833447 -0.115221,3.415511 -0.349685,6.117858 -0.593631,6.841999 -0.322934,0.958613 -1.043707,1.682919 -2.016133,2.026012 -0.438914,0.154857 -3.914645,0.438055 -7.402684,0.603158 -1.833788,0.0868 -8.079499,0.129675 -9.92023,0.0681 z M 13.102042,36.805974 C 12.403145,36.748347 11.409772,36.580068 11.031793,36.455271 10.062773,36.135327 9.3807075,35.467328 9.0415628,34.506094 8.7705551,33.737976 8.4405514,28.701187 8.440644,25.334319 c 6.17e-5,-3.196207 0.3005091,-8.042694 0.554017,-8.9375 0.2938104,-1.037058 1.002109,-1.815264 1.987884,-2.184091 0.3941,-0.147452 1.94207,-0.308689 4.65984,-0.485371 0.866611,-0.05634 1.75082,-0.117578 1.96491,-0.136087 l 0.38925,-0.03365 1.774661,-2.038164 c 0.976066,-1.120989 1.848616,-2.1177492 1.939007,-2.2150221 0.160702,-0.1729406 0.180442,-0.176837 0.890929,-0.1758747 0.399622,5.39e-4 0.75993,0.022246 0.800682,0.048236 0.04754,0.030316 -2.30827,2.8936108 -6.572312,7.9881248 -3.655523,4.367482 -6.636954,7.950329 -6.625399,7.961884 0.01156,0.01156 0.190931,-0.03623 0.398618,-0.106196 2.000383,-0.673882 5.705421,0.07298 8.108204,1.63445 0.727754,0.472935 1.772463,1.514166 2.127073,2.119987 0.565607,0.966296 0.771017,2.109395 0.596381,3.318857 -0.364327,2.523198 -2.08134,4.052868 -5.148879,4.587076 -0.597743,0.104097 -2.521077,0.17962 -3.183468,0.125001 z m 9.228843,-5.805048 c 0,-2.104411 -0.850918,-4.004079 -2.570778,-5.739237 -1.378702,-1.390968 -3.06985,-2.432506 -4.567011,-2.812714 -0.251086,-0.06376 -0.451635,-0.142456 -0.44566,-0.174873 0.006,-0.03242 2.648033,-3.183318 5.871234,-7.002007 3.223206,-3.818688 5.903781,-6.9958798 5.95684,-7.060425 0.09299,-0.113119 0.11272,-0.1118087 0.546657,0.036285 0.515515,0.1759379 1.03044,0.4258688 1.235201,0.5995331 l 0.140657,0.1192998 -5.246919,6.2629426 c -4.34795,5.189895 -5.228781,6.273096 -5.141055,6.32219 0.260666,0.145875 1.082353,0.854748 1.498069,1.29239 1.506631,1.58609 2.540879,3.483615 2.952119,5.416228 0.16997,0.798775 0.156308,2.156324 -0.02929,2.910142 -0.08056,0.327191 -0.158528,0.594889 -0.173266,0.594889 -0.01475,0 -0.02679,-0.344087 -0.02679,-0.764643 z"
     id="path301"
     sodipodi:nodetypes="ssssssssssssssssssscsssscsssssscsssssssssssssscssssssss" /></svg>
