<?xml version="1.0" encoding="UTF-8" standalone="no"?>
<svg
   fill="none"
   viewBox="0 0 48 48"
   height="256"
   width="256"
   version="1.1"
   id="svg6"
   sodipodi:docname="routeros.svg"
   inkscape:version="1.2.1 (9c6d41e410, 2022-07-14)"
   xml:space="preserve"
   xmlns:inkscape="http://www.inkscape.org/namespaces/inkscape"
   xmlns:sodipodi="http://sodipodi.sourceforge.net/DTD/sodipodi-0.dtd"
   xmlns="http://www.w3.org/2000/svg"
   xmlns:svg="http://www.w3.org/2000/svg"><defs
     id="defs10" /><sodipodi:namedview
     id="namedview8"
     pagecolor="#ffffff"
     bordercolor="#666666"
     borderopacity="1.0"
     inkscape:showpageshadow="2"
     inkscape:pageopacity="0.0"
     inkscape:pagecheckerboard="true"
     inkscape:deskcolor="#d1d1d1"
     showgrid="true"
     inkscape:zoom="1.1449053"
     inkscape:cx="226.21958"
     inkscape:cy="45.855321"
     inkscape:current-layer="svg6"
     showguides="false"
     inkscape:window-width="1920"
     inkscape:window-height="730"
     inkscape:window-x="-6"
     inkscape:window-y="-6"
     inkscape:window-maximized="1"><inkscape:grid
       type="xygrid"
       id="grid239"
       units="px"
       spacingx="1.5"
       spacingy="1.5" /></sodipodi:namedview><path
     fill="#edf1e9"
     d="m 23.999962,46.000062 c 4.083201,0 6.815001,-0.3009 8.0707,-0.4782 0.525301,-0.0743 1.0169,-0.2779 1.440801,-0.5969 1.013299,-0.7624 3.157699,-2.4813 6.044999,-5.3686 2.8872,-2.8872 4.6061,-5.0316 5.3685,-6.0449 0.3191,-0.424 0.5227,-0.9155 0.5969,-1.4409 0.1773,-1.2555 0.4782,-3.9873 0.4782,-8.0705 0,-4.0832 -0.3009,-6.815 -0.4782,-8.0706 -0.0742,-0.5253 -0.2778,-1.0169 -0.5969,-1.4409 -0.7624,-1.0132 -2.4813,-3.1576 -5.3685,-6.0448595 -2.8873,-2.8872 -5.0317,-4.60613 -6.0449,-5.36857 -0.424,-0.31903 -0.915599,-0.52263 -1.440999,-0.59684 -1.2556,-0.17735 -3.9874,-0.47823 -8.070501,-0.47823 -4.0831,0 -6.8149,0.30088 -8.070499,0.47823 -0.525401,0.07421 -1.017001,0.2778 -1.440901,0.59684 -1.013299,0.76242 -3.157699,2.48134 -6.0449395,5.36857 -2.88725,2.8872605 -4.60617,5.0316595 -5.36859,6.0449595 -0.31902,0.4239 -0.52261,0.9154 -0.59683,1.4408 -0.17735,1.2556 -0.47824,3.9874 -0.47824,8.0706 0,4.0832 0.30089,6.815 0.47824,8.0706 0.07422,0.5253 0.27781,1.0168 0.59683,1.4408 0.76242,1.0133 2.48133,3.1577 5.36855,6.0449 2.8871795,2.8872 5.0316795,4.6062 6.0449795,5.3686 0.4239,0.319 0.9155,0.5226 1.4409,0.5969 1.2555,0.1773 3.9873,0.4782 8.0704,0.4782 z"
     id="path3678"
     style="fill:#edf1e9;fill-opacity:1" /><path
     style="fill:#6091d0;fill-opacity:1;stroke-width:0.999999"
     d="M 22.665451,41.575196 C 21.215796,41.470731 19.465253,41.110074 18.067013,40.627802 15.00553,39.571857 12.240469,37.691341 10.198869,35.276678 10.082949,35.13958 9.9297618,34.959226 9.8584547,34.875897 9.6076589,34.582831 9.2151689,34.042398 8.8593989,33.500267 7.3004117,31.12465 6.3474026,28.536702 5.9855774,25.696266 5.4987251,21.874319 6.3655331,17.711167 8.3441354,14.368441 c 0.797949,-1.348085 1.5620894,-2.338551 2.6962276,-3.49481 1.489297,-1.5183479 2.952933,-2.5887062 4.811806,-3.5188877 2.139226,-1.070469 4.359512,-1.6829757 6.771094,-1.867932 1.000498,-0.076734 1.635826,-0.07659 2.658518,6.75e-4 2.82204,0.212976 5.574123,1.0929915 8.004303,2.5594893 2.877624,1.736505 5.223609,4.2538264 6.73704,7.2290654 0.897237,1.763877 1.555812,3.824836 1.813176,5.674219 0.263232,1.89155 0.214146,4.174882 -0.127422,5.927344 -0.03618,0.185625 -0.151812,0.679219 -0.256959,1.096875 -1.500318,5.959366 -5.946876,10.743899 -11.800278,12.697198 -2.25558,0.752693 -4.697515,1.068537 -6.986191,0.903609 z m 6.967011,-6.831309 c 1.348101,-0.135112 2.456451,-0.435883 3.661857,-0.993712 l 0.356202,-0.164847 -0.820269,-0.05045 C 31.373467,33.445268 30.43987,33.287543 29.120137,32.908082 24.917068,31.699581 20.970881,28.959479 17.913761,25.126741 16.189532,22.96506 14.842797,20.391096 14.13926,17.912678 c -0.282334,-0.994606 -0.524108,-2.37203 -0.567189,-3.231359 -0.01269,-0.253023 -0.03326,-0.543614 -0.04573,-0.645752 l -0.02267,-0.185706 -0.182106,0.396644 c -0.334773,0.729172 -0.647798,1.799875 -0.808776,2.766426 -0.06242,0.374814 -0.07572,0.695241 -0.07409,1.785685 0.0018,1.237216 0.0097,1.374026 0.113221,1.982813 0.576377,3.388241 2.201184,6.470147 4.760312,9.029276 0.881739,0.881739 1.775529,1.617519 2.743249,2.258278 0.657635,0.435443 1.560254,0.956664 2.040438,1.178264 0.689492,0.318191 0.839603,0.38239 1.328906,0.568341 1.061523,0.403414 1.959851,0.64308 3.087182,0.823624 0.903168,0.144646 2.265642,0.190352 3.120453,0.104681 z m 2.548017,-5.926689 c 0.950553,-0.121007 1.838115,-0.367553 2.550591,-0.708495 l 0.358596,-0.171599 -0.590625,-0.02983 c -4.361256,-0.220339 -8.860176,-2.773787 -12.071872,-6.851624 -1.887636,-2.396698 -3.183378,-5.436706 -3.389526,-7.952344 -0.02567,-0.313241 -0.05715,-0.654959 -0.06997,-0.759375 l -0.02329,-0.189843 -0.10027,0.197007 c -0.506004,0.994171 -0.827078,2.699373 -0.761141,4.042369 0.08267,1.68362 0.502468,3.271355 1.272929,4.814283 0.779713,1.561458 1.635148,2.700572 3.02778,4.031846 1.82735,1.746841 4.192505,2.98927 6.567713,3.450057 0.985293,0.191145 2.316519,0.243732 3.229092,0.127557 z"
     id="path302"
     sodipodi:nodetypes="csscsssssscssssssccsscsssssscssccsssssssscsssscssssss" /></svg>
