<?xml version="1.0" encoding="UTF-8" standalone="no"?>
<svg
   fill="none"
   viewBox="0 0 48 48"
   height="256"
   width="256"
   version="1.1"
   id="svg6"
   sodipodi:docname="sql.svg"
   inkscape:version="1.2.1 (9c6d41e410, 2022-07-14)"
   xml:space="preserve"
   xmlns:inkscape="http://www.inkscape.org/namespaces/inkscape"
   xmlns:sodipodi="http://sodipodi.sourceforge.net/DTD/sodipodi-0.dtd"
   xmlns="http://www.w3.org/2000/svg"
   xmlns:svg="http://www.w3.org/2000/svg"><defs
     id="defs10" /><sodipodi:namedview
     id="namedview8"
     pagecolor="#ffffff"
     bordercolor="#666666"
     borderopacity="1.0"
     inkscape:showpageshadow="2"
     inkscape:pageopacity="0.0"
     inkscape:pagecheckerboard="true"
     inkscape:deskcolor="#d1d1d1"
     showgrid="true"
     inkscape:zoom="1.1449053"
     inkscape:cx="126.64803"
     inkscape:cy="66.817754"
     inkscape:current-layer="svg6"
     showguides="false"
     inkscape:window-width="1920"
     inkscape:window-height="730"
     inkscape:window-x="-6"
     inkscape:window-y="-6"
     inkscape:window-maximized="1"><inkscape:grid
       type="xygrid"
       id="grid239"
       units="px"
       spacingx="1.5"
       spacingy="1.5" /></sodipodi:namedview><path
     fill="#edf1e9"
     d="m 23.999962,46.000062 c 4.083201,0 6.815001,-0.3009 8.0707,-0.4782 0.525301,-0.0743 1.0169,-0.2779 1.440801,-0.5969 1.013299,-0.7624 3.157699,-2.4813 6.044999,-5.3686 2.8872,-2.8872 4.6061,-5.0316 5.3685,-6.0449 0.3191,-0.424 0.5227,-0.9155 0.5969,-1.4409 0.1773,-1.2555 0.4782,-3.9873 0.4782,-8.0705 0,-4.0832 -0.3009,-6.815 -0.4782,-8.0706 -0.0742,-0.5253 -0.2778,-1.0169 -0.5969,-1.4409 -0.7624,-1.0132 -2.4813,-3.1576 -5.3685,-6.0448595 -2.8873,-2.8872 -5.0317,-4.60613 -6.0449,-5.36857 -0.424,-0.31903 -0.915599,-0.52263 -1.440999,-0.59684 -1.2556,-0.17735 -3.9874,-0.47823 -8.070501,-0.47823 -4.0831,0 -6.8149,0.30088 -8.070499,0.47823 -0.525401,0.07421 -1.017001,0.2778 -1.440901,0.59684 -1.013299,0.76242 -3.157699,2.48134 -6.0449395,5.36857 -2.88725,2.8872605 -4.60617,5.0316595 -5.36859,6.0449595 -0.31902,0.4239 -0.52261,0.9154 -0.59683,1.4408 -0.17735,1.2556 -0.47824,3.9874 -0.47824,8.0706 0,4.0832 0.30089,6.815 0.47824,8.0706 0.07422,0.5253 0.27781,1.0168 0.59683,1.4408 0.76242,1.0133 2.48133,3.1577 5.36855,6.0449 2.8871795,2.8872 5.0316795,4.6062 6.0449795,5.3686 0.4239,0.319 0.9155,0.5226 1.4409,0.5969 1.2555,0.1773 3.9873,0.4782 8.0704,0.4782 z"
     id="path3678"
     style="fill:#edf1e9;fill-opacity:1" /><g
     id="g414"
     style="fill:#606668;fill-opacity:1;stroke-width:4.70175"
     transform="matrix(0.20784677,0,0,0.21763952,77.607379,15.336063)"><path
       id="path309"
       style="fill:#606668;fill-opacity:1;stroke-width:4.70175"
       d="m -310.93506,-13.528198 c -18.78364,0.34024 -35.90762,1.106301 -39.05536,9.3005175 -3.22841,8.4042202 -3.97233,21.9255785 6.17757,26.6183305 19.09099,5.08908 39.23863,6.287595 58.59978,2.367429 13.81832,-2.797878 17.62455,-10.012964 15.17926,-19.9265642 1.4974,-19.0172438 -24.31996,-18.3251338 -40.90125,-18.3597128 z m -3.80447,2.172367 c 10.01302,0.18244 41.9212,-1.19416 36.75215,6.7143982 -4.32177,6.6122378 -30.93129,3.1567987 -46.32776,2.9046809 -3.94169,-0.064545 -20.55093,-0.7854285 -19.47134,-4.7792916 2.14877,-6.3442605 22.22964,-4.9469925 29.04695,-4.8397875 z m 41.92886,35.093262 c -13.45309,8.315111 -27.60072,7.558335 -42.81583,7.831345 -10.24098,-0.325874 -23.2016,-2.375173 -32.58547,-6.706231 -3.47646,8.836268 -5.07448,23.763493 4.55923,29.036531 13.70426,5.114235 28.16543,4.947074 42.58419,4.87759 8.65031,-0.345233 18.09007,-2.493522 26.06154,-6.046691 6.67354,-7.934297 2.95143,-19.80906 2.37535,-28.789895 z m -0.18494,32.815062 c -16.51638,8.88643 -40.31753,7.021724 -53.02616,6.505142 -7.7963,-0.316906 -21.81818,-8.315433 -24.34995,-1.066854 -1.78201,13.066642 -0.51188,27.458375 12.68865,26.744026 24.26019,-0.135528 40.6923,3.789395 60.2321,-1.560302 9.86344,-5.820502 5.98826,-21.888175 4.45536,-30.622012 z"
       sodipodi:nodetypes="cssscccsscccssccssccsccsc" /><path
       id="path410"
       style="fill:#606668;fill-opacity:1;stroke-width:4.70175"
       d="m -244.1702,19.804835 c -1.57165,0.0723 1.15777,0.17663 0,0 z m 36,0 c -1.57165,0.0723 1.15777,0.17663 0,0 z m -40.28796,3.6e-4 c -1.21828,0.14276 1.2534,0.12638 0,0 z m 36,0 c -1.21828,0.14276 1.2534,0.12638 0,0 z m -34.05469,0.0289 c -6.67958,-0.4547 -13.49444,4.43545 -14.30388,11.26579 -1.68715,7.00557 0.44476,14.81542 5.93982,19.59952 3.40661,3.78271 7.39711,7.0895 10.55931,11.0506 2.57873,3.38337 3.57915,13.58439 -2.97884,11.52032 -3.41686,-3.39291 0.57786,-9.24263 -2.36135,-12.4972 -3.90432,0.1177 -7.88848,0.14334 -11.83126,0.15782 2.09518,0.0339 8.83693,0.1115 3.09725,0.11178 -5.28426,-1.22049 -2.24308,5.10644 -2.88703,8.05625 -0.0535,6.03057 2.1765,13.01916 8.35034,15.30137 6.37403,2.05433 14.83657,2.31891 19.46274,-3.37688 4.41525,-6.51546 4.4167,-15.12018 2.52524,-22.49427 -2.75382,-9.57109 -14.10048,-13.50424 -17.55958,-21.29364 -3.3679,-5.24902 6.30127,-7.98555 5.20739,-1.40492 -0.29436,5.45264 6.22895,2.19188 9.58205,3.06331 6.06663,1.15475 2.9769,-6.12224 2.40145,-9.28163 -1.38979,-6.13186 -7.95932,-9.93652 -13.60188,-9.71191 l -0.70969,-0.0327 -0.89208,-0.0336 z m 36.28418,3.7e-4 c -6.28052,-0.33276 -13.28449,3.07664 -14.9271,9.55423 -1.78687,5.91824 -0.46652,12.16815 -0.90254,18.23528 0.10259,8.62041 -0.34156,17.28315 0.25543,25.8767 1.03525,6.05954 5.96507,11.61314 12.37575,11.85013 5.18158,-0.59489 9.92928,1.11302 13.61963,4.70889 3.48427,3.70214 6.23362,-2.22498 6.69044,-5.16961 -0.57313,-2.99734 -6.06388,-3.37285 -3.34217,-7.27281 2.8874,-4.04507 1.79085,-9.02856 2.08245,-13.66061 -0.0506,-9.36431 0.0294,-18.72807 0.0232,-28.09243 -0.0449,6.3508 -0.0786,12.70169 -0.1363,19.05239 -0.39589,-8.53254 0.78657,-17.21894 -0.98664,-25.63608 -1.81528,-5.88668 -7.8729,-9.59877 -13.90223,-9.42818 z m 3.58301,0.15967 c -0.90283,0.14081 0.90319,0.14091 0,0 z m -34.70288,0.1864 c -0.89883,-0.0451 0.49088,0.33509 0,0 z m 65.88963,11.85603 c 0.24448,-4.28483 2.70201,-12.80541 -3.8375,-11.49282 -3.60853,-0.51079 -10.32965,-1.23445 -8.69604,4.36524 -0.0211,19.96299 -0.11679,39.92618 -0.003,59.88907 8.71515,0.43412 17.44267,0.1542 26.16357,0.23437 v -10.89221 c -4.09101,-1.15285 -13.5625,2.96123 -13.38351,-3.48246 -0.5699,-11.81285 -0.53632,-23.49038 -0.24352,-38.62119 z m -80.45567,-9.53425 c -1.94539,1.34501 -1.94102,2.29019 0,0 z m 34.4209,0.84264 c -1.49832,0.66218 -0.11468,0.93499 0,0 z m 15.79911,28.73106 c -0.0647,19.06666 1.53366,21.5072 -4.33943,21.53898 -5.91771,0.11947 -3.72046,-5.6959 -3.7761,-21.78216 0.43374,-14.61796 -2.14491,-19.76447 3.41002,-19.92209 7.82018,-0.0498 4.86928,4.03544 4.70551,20.16527 z m -38.66496,-19.97488 c 0.6707,0.60932 0.83456,0.75819 0,0 z m 49.79444,0.95581 c -0.37811,0.53366 0.54467,0.89539 0,0 z m -42.49842,4.0774 c -1.24174,0.82487 -0.27444,0.1823 0,0 z m -24.2362,0.99462 c -0.31138,0.51754 0.34336,1.11743 0,0 z m 35.0874,3.14685 c -0.0458,7.4211 -0.0483,14.8425 8e-5,22.2636 0.0574,-7.42105 0.0575,-14.84255 -8e-5,-22.2636 z m -22.64612,19.97276 c 0.0755,2.14497 0.003,6.27951 0.008,1.74525 -0.002,-0.58175 -0.005,-1.1635 -0.008,-1.74525 z m 19.06677,2.52466 c -0.42338,1.08014 0.50522,1.39658 0,0 z m 35.0354,1.87244 c -0.42225,1.21905 -0.7331,2.0262 0,0 z m -66.53869,4.05542 c -0.24029,0.60454 0.21214,1.53162 0,0 z m 0.17431,2.29321 c -0.30549,0.3638 0.36853,1.0024 0,0 z m 35.40235,1.85925 c -0.30799,0.4459 0.52164,0.53833 0,0 z m 0.54089,2.06726 c -0.18073,1.44149 0.71112,0.92068 0,0 z m 3.62549,5.83045 c 1.03104,1.25058 1.07871,0.87285 0,0 z m -34.96875,0.46875 c 0.32264,0.83682 0.88819,0.37742 0,0 z m 36.59473,0.75805 0.0146,0.003 z m 4.63989,2.07752 c -0.89893,-0.0451 0.49135,0.3354 0,0 z m 4.49158,0.56067 c -1.95319,0.0683 1.42258,0.16781 0,0 z"
       sodipodi:nodetypes="sssssssscsssscssssscccsscssccscsccsccsccscssccccccscccccsscccccssssccccssscscccccccccccccccsscsccccc" /></g></svg>
