<?xml version="1.0" encoding="UTF-8" standalone="no"?>
<svg
   fill="none"
   viewBox="0 0 48 48"
   height="256"
   width="256"
   version="1.1"
   id="svg6"
   sodipodi:docname="tcl.svg"
   inkscape:version="1.2.1 (9c6d41e410, 2022-07-14)"
   xmlns:inkscape="http://www.inkscape.org/namespaces/inkscape"
   xmlns:sodipodi="http://sodipodi.sourceforge.net/DTD/sodipodi-0.dtd"
   xmlns="http://www.w3.org/2000/svg"
   xmlns:svg="http://www.w3.org/2000/svg">
  <defs
     id="defs10" />
  <sodipodi:namedview
     id="namedview8"
     pagecolor="#ffffff"
     bordercolor="#666666"
     borderopacity="1.0"
     inkscape:showpageshadow="2"
     inkscape:pageopacity="0.0"
     inkscape:pagecheckerboard="true"
     inkscape:deskcolor="#d1d1d1"
     showgrid="true"
     inkscape:zoom="2.2898106"
     inkscape:cx="157.65496"
     inkscape:cy="122.49921"
     inkscape:current-layer="svg6"
     showguides="false"
     inkscape:window-width="1920"
     inkscape:window-height="730"
     inkscape:window-x="-6"
     inkscape:window-y="-6"
     inkscape:window-maximized="1">
    <inkscape:grid
       type="xygrid"
       id="grid239"
       units="px"
       spacingx="1.5"
       spacingy="1.5" />
  </sodipodi:namedview>
  <path
     fill="#edf1e9"
     d="m 23.999962,46.000062 c 4.083201,0 6.815001,-0.3009 8.0707,-0.4782 0.525301,-0.0743 1.0169,-0.2779 1.440801,-0.5969 1.013299,-0.7624 3.157699,-2.4813 6.044999,-5.3686 2.8872,-2.8872 4.6061,-5.0316 5.3685,-6.0449 0.3191,-0.424 0.5227,-0.9155 0.5969,-1.4409 0.1773,-1.2555 0.4782,-3.9873 0.4782,-8.0705 0,-4.0832 -0.3009,-6.815 -0.4782,-8.0706 -0.0742,-0.5253 -0.2778,-1.0169 -0.5969,-1.4409 -0.7624,-1.0132 -2.4813,-3.1576 -5.3685,-6.0448595 -2.8873,-2.8872 -5.0317,-4.60613 -6.0449,-5.36857 -0.424,-0.31903 -0.915599,-0.52263 -1.440999,-0.59684 -1.2556,-0.17735 -3.9874,-0.47823 -8.070501,-0.47823 -4.0831,0 -6.8149,0.30088 -8.070499,0.47823 -0.525401,0.07421 -1.017001,0.2778 -1.440901,0.59684 -1.013299,0.76242 -3.157699,2.48134 -6.0449395,5.36857 -2.88725,2.8872605 -4.60617,5.0316595 -5.36859,6.0449595 -0.31902,0.4239 -0.52261,0.9154 -0.59683,1.4408 -0.17735,1.2556 -0.47824,3.9874 -0.47824,8.0706 0,4.0832 0.30089,6.815 0.47824,8.0706 0.07422,0.5253 0.27781,1.0168 0.59683,1.4408 0.76242,1.0133 2.48133,3.1577 5.36855,6.0449 2.8871795,2.8872 5.0316795,4.6062 6.0449795,5.3686 0.4239,0.319 0.9155,0.5226 1.4409,0.5969 1.2555,0.1773 3.9873,0.4782 8.0704,0.4782 z"
     id="path3678"
     style="fill:#edf1e9;fill-opacity:1" />
  <path
     id="path11081-6-8"
     style="color:#000000;fill:#e7c323;fill-opacity:1;stroke-width:2.35795;stroke-linecap:round;stroke-linejoin:round"
     d="m 32.594151,5.9058592 c -0.01067,-1.876e-4 -0.02122,7.428e-4 -0.03194,0.00173 L 29.260159,6.202048 c -0.124488,0.011047 -0.22851,0.099705 -0.25819,0.2210538 l -0.239193,0.967129 -1.110466,0.059592 c -0.177013,0.011132 -0.302859,0.1769081 -0.266826,0.3505818 l 0.147666,0.6769926 h -0.815155 c -0.161759,-0.00181 -0.294646,0.128375 -0.295315,0.2901377 v 1.1691867 l -1.970521,-0.063899 c -0.126006,-0.00528 -0.241548,0.070114 -0.285818,0.1882274 l -0.414485,1.132914 -0.39117,-0.13298 c -0.117103,-0.03936 -0.246862,-6.1e-4 -0.322952,0.09672 L 21.64231,12.92099 c -0.03822,0.04717 -0.06021,0.105171 -0.0639,0.165783 l -0.06044,1.188183 -1.271078,0.382532 c -0.111599,0.03271 -0.19308,0.128947 -0.207242,0.244372 l -0.404985,3.296864 -1.095788,-0.174427 c -0.16208,-0.0238 -0.311923,0.09038 -0.331589,0.25301 l -0.451614,3.937588 -0.543143,-0.455933 c -0.192165,-0.161813 -0.485639,-0.02079 -0.479249,0.230561 l 0.138167,6.543652 -1.358295,-0.511196 c -0.214383,-0.07955 -0.432711,0.107558 -0.386849,0.331583 l 0.511195,2.569797 c 0.01101,0.0498 0.03475,0.09614 0.06908,0.133833 l 4.112015,4.687975 -0.07338,5.908975 c -0.0023,0.132209 0.08434,0.249744 0.211551,0.285818 l 0.511197,0.142471 c 0.185149,0.05405 0.370812,-0.08345 0.373032,-0.27632 l 0.07425,-5.830393 5.940926,-6.37872 c 0.05712,-0.06059 0.08507,-0.142413 0.07774,-0.225375 l -0.345402,-3.509289 1.239127,-0.368718 c 0.127084,-0.03821 0.212303,-0.157507 0.207245,-0.290138 l -0.06477,-1.786591 0.99044,-0.432622 c 0.103279,-0.04495 0.171699,-0.145618 0.175296,-0.258186 l 0.0639,-1.999017 0.686487,0.147669 c 0.177139,0.03648 0.344097,-0.09554 0.349722,-0.276323 l 0.133834,-3.416894 1.073338,0.170089 c 0.183276,0.02883 0.346168,-0.118701 0.335902,-0.303957 l -0.197747,-3.209654 0.870414,0.207243 c 0.180589,0.04016 0.351826,-0.0965 0.354042,-0.281503 l 0.07425,-7.5617254 c 0.0025,-0.1623274 -0.127418,-0.293415 -0.285823,-0.2961808 z m -5.019565,6.6334518 c 0.208658,0.0068 0.342568,0.266933 0.225374,0.441255 -0.944565,1.526024 -1.870504,3.064541 -2.732997,4.638754 -2.300404,4.168749 -4.170258,8.79825 -4.004942,13.641669 0.396457,0.33523 1.307349,0.844484 1.307349,1.353118 0,0.478869 -1.488655,2.551661 -1.949795,2.551661 -0.420878,0 -2.153585,-2.158244 -2.153585,-2.592246 0,-0.460072 0.566661,-0.900069 0.985258,-1.312533 0.702332,-6.041385 3.424202,-11.772837 6.798385,-16.759789 0.537046,-0.608191 0.835452,-1.577119 1.524953,-1.961889 z" />
</svg>
