<?xml version="1.0" encoding="UTF-8" standalone="no"?>
<svg
   fill="none"
   viewBox="0 0 48 48"
   height="256"
   width="256"
   version="1.1"
   id="svg6"
   sodipodi:docname="tex.svg"
   inkscape:version="1.2.1 (9c6d41e410, 2022-07-14)"
   xmlns:inkscape="http://www.inkscape.org/namespaces/inkscape"
   xmlns:sodipodi="http://sodipodi.sourceforge.net/DTD/sodipodi-0.dtd"
   xmlns="http://www.w3.org/2000/svg"
   xmlns:svg="http://www.w3.org/2000/svg">
  <defs
     id="defs10" />
  <sodipodi:namedview
     id="namedview8"
     pagecolor="#ffffff"
     bordercolor="#666666"
     borderopacity="1.0"
     inkscape:showpageshadow="2"
     inkscape:pageopacity="0.0"
     inkscape:pagecheckerboard="true"
     inkscape:deskcolor="#d1d1d1"
     showgrid="true"
     inkscape:zoom="1.1449053"
     inkscape:cx="-134.94566"
     inkscape:cy="65.944319"
     inkscape:current-layer="svg6"
     showguides="false"
     inkscape:window-width="1920"
     inkscape:window-height="730"
     inkscape:window-x="-6"
     inkscape:window-y="-6"
     inkscape:window-maximized="1">
    <inkscape:grid
       type="xygrid"
       id="grid239"
       units="px"
       spacingx="1.5"
       spacingy="1.5" />
  </sodipodi:namedview>
  <path
     fill="#edf1e9"
     d="m 23.999962,46.000062 c 4.083201,0 6.815001,-0.3009 8.0707,-0.4782 0.525301,-0.0743 1.0169,-0.2779 1.440801,-0.5969 1.013299,-0.7624 3.157699,-2.4813 6.044999,-5.3686 2.8872,-2.8872 4.6061,-5.0316 5.3685,-6.0449 0.3191,-0.424 0.5227,-0.9155 0.5969,-1.4409 0.1773,-1.2555 0.4782,-3.9873 0.4782,-8.0705 0,-4.0832 -0.3009,-6.815 -0.4782,-8.0706 -0.0742,-0.5253 -0.2778,-1.0169 -0.5969,-1.4409 -0.7624,-1.0132 -2.4813,-3.1576 -5.3685,-6.0448595 -2.8873,-2.8872 -5.0317,-4.60613 -6.0449,-5.36857 -0.424,-0.31903 -0.915599,-0.52263 -1.440999,-0.59684 -1.2556,-0.17735 -3.9874,-0.47823 -8.070501,-0.47823 -4.0831,0 -6.8149,0.30088 -8.070499,0.47823 -0.525401,0.07421 -1.017001,0.2778 -1.440901,0.59684 -1.013299,0.76242 -3.157699,2.48134 -6.0449395,5.36857 -2.88725,2.8872605 -4.60617,5.0316595 -5.36859,6.0449595 -0.31902,0.4239 -0.52261,0.9154 -0.59683,1.4408 -0.17735,1.2556 -0.47824,3.9874 -0.47824,8.0706 0,4.0832 0.30089,6.815 0.47824,8.0706 0.07422,0.5253 0.27781,1.0168 0.59683,1.4408 0.76242,1.0133 2.48133,3.1577 5.36855,6.0449 2.8871795,2.8872 5.0316795,4.6062 6.0449795,5.3686 0.4239,0.319 0.9155,0.5226 1.4409,0.5969 1.2555,0.1773 3.9873,0.4782 8.0704,0.4782 z"
     id="path3678"
     style="fill:#edf1e9;fill-opacity:1" />
  <g
     aria-label="YAML"
     transform="scale(0.8996104,1.1115923)"
     id="text2558"
     style="font-size:16.7183px;font-family:'Arial Rounded MT Bold';-inkscape-font-specification:'Arial Rounded MT Bold, Normal';fill:#606668;stroke-width:0.35433">
    <path
       d="m 18.8544,16.357321 h -3.516766 v 11.695303 q 0,1.010298 -0.445024,1.504466 -0.445022,0.483186 -1.150546,0.483186 -0.716379,0 -1.172256,-0.494168 -0.445023,-0.494167 -0.445023,-1.493484 V 16.357321 H 8.608019 q -0.8249204,0 -1.2265265,-0.36239 -0.401606,-0.373371 -0.401606,-0.977353 0,-0.625947 0.4124603,-0.988336 0.4233144,-0.362389 1.2156722,-0.362389 H 18.8544 q 0.835775,0 1.237381,0.373371 0.412461,0.373371 0.412461,0.977354 0,0.603982 -0.412461,0.977353 -0.412461,0.36239 -1.237381,0.36239 z"
       style="font-size:22.3594px;stroke-width:0.354331"
       id="path3958" />
    <path
       d="m 30.596094,21.246999 h -7.261471 v 2.976513 h 6.686198 q 0.738086,0 1.096275,0.256312 0.369044,0.248042 0.369044,0.661447 0,0.413404 -0.358189,0.677983 -0.358189,0.256311 -1.10713,0.256311 h -6.686198 v 3.447793 h 7.511119 q 0.759795,0 1.139692,0.272848 0.390752,0.264579 0.390752,0.711055 0,0.429942 -0.390752,0.702789 -0.379897,0.264578 -1.139692,0.264578 h -8.759355 q -1.052858,0 -1.519589,-0.355528 Q 20.11092,30.763572 20.11092,29.969835 V 20.8584 q 0,-0.529159 0.20623,-0.859882 0.20623,-0.338992 0.640399,-0.487818 0.445023,-0.157093 1.128838,-0.157093 h 8.509707 q 0.77065,0 1.139693,0.264579 0.379898,0.25631 0.379898,0.677983 0,0.429941 -0.379898,0.69452 -0.369043,0.25631 -1.139693,0.25631 z"
       style="font-size:22.3594px;stroke-width:0.354331"
       id="path3960" />
    <path
       d="m 34.225825,26.437765 3.560183,-5.260141 -2.995763,-4.678122 q -0.423315,-0.680853 -0.640399,-1.164038 -0.20623,-0.494169 -0.20623,-0.94441 0,-0.461224 0.401606,-0.823613 0.41246,-0.373371 0.998587,-0.373371 0.672962,0 1.042005,0.406316 0.379898,0.395333 1.042006,1.482502 l 2.387927,3.909417 2.550741,-3.909417 q 0.314773,-0.494167 0.531857,-0.845575 0.227939,-0.351408 0.434168,-0.58202 0.206231,-0.230612 0.455878,-0.340427 0.260501,-0.120796 0.596982,-0.120796 0.607836,0 0.987733,0.373371 0.390753,0.362389 0.390753,0.867539 0,0.735761 -0.835775,1.998633 l -3.13687,4.744011 3.375663,5.260141 q 0.455877,0.691834 0.662107,1.153058 0.20623,0.450242 0.20623,0.856558 0,0.384352 -0.184522,0.702816 -0.184521,0.318463 -0.521002,0.505149 -0.336481,0.186685 -0.759796,0.186685 -0.455877,0 -0.770649,-0.197667 -0.314772,-0.186685 -0.510148,-0.472205 -0.195376,-0.285518 -0.727233,-1.109132 l -2.800388,-4.45849 -2.974055,4.590268 q -0.347336,0.549076 -0.499294,0.768705 -0.141105,0.219631 -0.347336,0.42828 -0.20623,0.208648 -0.488439,0.329445 -0.28221,0.120796 -0.662107,0.120796 -0.586128,0 -0.97688,-0.36239 -0.379898,-0.362389 -0.379898,-1.054224 0,-0.812632 0.792358,-1.987652 z"
       style="font-size:22.3594px;stroke-width:0.354331"
       id="path3962" />
  </g>
</svg>
