<?xml version="1.0" encoding="UTF-8" standalone="no"?>
<svg
   fill="none"
   viewBox="0 0 48 48"
   height="256"
   width="256"
   version="1.1"
   id="svg6"
   sodipodi:docname="taiwanese.svg"
   inkscape:version="1.2.1 (9c6d41e410, 2022-07-14)"
   xmlns:inkscape="http://www.inkscape.org/namespaces/inkscape"
   xmlns:sodipodi="http://sodipodi.sourceforge.net/DTD/sodipodi-0.dtd"
   xmlns="http://www.w3.org/2000/svg"
   xmlns:svg="http://www.w3.org/2000/svg">
  <g
     aria-label="繁"
     id="text289"
     style="font-size:52.7382px;font-family:Inconsolata;-inkscape-font-specification:'Inconsolata, Normal';fill:#6091d0;stroke-width:0.35433;fill-opacity:1">
    <path
       d="M 27.708155,12.978543 25.236052,10.506439 Q 28.532189,7.622319 31.828327,8.6426735e-7 L 35.330473,1.2360525 q 0.824034,0.8240343 -0.618026,1.0300429 l -1.44206,2.4721032 H 46.660946 V 8.0343362 H 43.1588 q -1.648069,5.9742498 -4.738198,9.2703868 3.090129,2.472103 8.652361,4.944206 l -2.060086,3.296138 q -3.502146,-1.236052 -8.85837,-5.768241 -4.32618,3.502146 -9.682404,5.150215 L 25.44206,21.218886 h -3.090129 l -0.412017,2.884121 1.648069,1.236051 q 0.618026,1.236052 -0.618026,0.824035 l -4.120172,3.914163 4.120172,2.472103 8.240344,-7.622318 2.88412,2.678112 q 0.206009,1.030043 -1.030043,0.618026 l -7.828326,6.592275 11.536481,-0.206009 -4.120172,-2.88412 2.88412,-1.854077 q 6.798284,3.914163 9.888413,7.210301 l -3.296137,2.266094 -2.472104,-2.472103 -13.18455,0.618026 V 48.000004 H 22.351931 V 37.905583 L 5.4592262,38.523609 q -0.6180258,1.854077 -1.030043,0 L 3.8111574,34.815454 H 20.085837 l -9.270387,-5.768241 2.266094,-2.472103 2.884121,1.648069 2.88412,-2.884121 h -2.88412 l -0.618026,-2.472103 h 3.502146 l 0.412017,-1.648069 H 8.1373379 L 7.5193121,24.927041 4.2231746,24.515024 5.6652348,15.862663 H 1.1330456 V 13.39056 H 5.8712434 L 6.4892692,9.0643792 3.3991402,11.536482 0.927037,8.652362 Q 5.8712434,5.1502158 8.3433465,0.20600946 L 12.051501,1.4420611 Q 12.875536,2.2660954 11.433476,2.472104 L 10.609441,3.502147 H 26.472103 V 5.9742502 H 9.3733895 L 6.9012863,8.4463534 H 23.793991 L 23.175966,13.39056 h 4.738197 v 2.472103 h -4.944206 l -0.412017,2.88412 h 3.708155 v 2.266095 q 5.76824,-2.060086 7.622318,-3.914163 -1.44206,-1.236052 -4.120172,-6.386267 z M 2.5751058,43.879832 Q 10.197424,41.819746 15.14163,38.729617 l 2.266095,3.090129 q 0.412017,1.030043 -1.030043,0.824035 -6.7982839,3.914163 -11.9484988,5.150215 z M 19.879828,15.862663 h -3.914163 l -0.412018,2.88412 h 3.914164 z m 12.772533,22.248929 q 5.974249,3.296137 13.18455,5.150214 l -1.648068,3.708155 Q 36.566524,44.909875 30.798284,41.201721 Z M 32.240344,8.0343362 q 2.060086,4.7381978 3.914163,6.7982838 1.854078,-1.854077 3.502146,-6.7982838 z M 12.875536,15.862663 H 8.9613723 l -0.4120172,2.88412 H 12.463519 Z M 13.69957,10.918457 H 9.5793981 L 9.1673809,13.39056 h 4.1201721 z m 6.798284,0 h -3.708155 l -0.412017,2.472103 h 3.708155 z"
       style="stroke-width:0.354331;fill:#6091d0;fill-opacity:1"
       id="path395" />
  </g>
  <defs
     id="defs10" />
  <sodipodi:namedview
     id="namedview8"
     pagecolor="#ffffff"
     bordercolor="#666666"
     borderopacity="1.0"
     inkscape:showpageshadow="2"
     inkscape:pageopacity="0.0"
     inkscape:pagecheckerboard="true"
     inkscape:deskcolor="#d1d1d1"
     showgrid="true"
     inkscape:zoom="1.1449053"
     inkscape:cx="11.354651"
     inkscape:cy="102.62858"
     inkscape:current-layer="svg6"
     showguides="false"
     inkscape:window-width="1920"
     inkscape:window-height="730"
     inkscape:window-x="-6"
     inkscape:window-y="-6"
     inkscape:window-maximized="1">
    <inkscape:grid
       type="xygrid"
       id="grid239"
       units="px"
       spacingx="1.5"
       spacingy="1.5" />
  </sodipodi:namedview>
</svg>
