<?xml version="1.0" encoding="UTF-8" standalone="no"?>
<svg
   fill="none"
   viewBox="0 0 48 48"
   height="256"
   width="256"
   version="1.1"
   id="svg6"
   sodipodi:docname="txt.svg"
   inkscape:version="1.2.1 (9c6d41e410, 2022-07-14)"
   xmlns:inkscape="http://www.inkscape.org/namespaces/inkscape"
   xmlns:sodipodi="http://sodipodi.sourceforge.net/DTD/sodipodi-0.dtd"
   xmlns="http://www.w3.org/2000/svg"
   xmlns:svg="http://www.w3.org/2000/svg">
  <defs
     id="defs10" />
  <sodipodi:namedview
     id="namedview8"
     pagecolor="#ffffff"
     bordercolor="#666666"
     borderopacity="1.0"
     inkscape:showpageshadow="2"
     inkscape:pageopacity="0.0"
     inkscape:pagecheckerboard="true"
     inkscape:deskcolor="#d1d1d1"
     showgrid="true"
     inkscape:zoom="1.1449053"
     inkscape:cx="145.86359"
     inkscape:cy="31.880366"
     inkscape:current-layer="svg6"
     showguides="false"
     inkscape:window-width="1920"
     inkscape:window-height="730"
     inkscape:window-x="-6"
     inkscape:window-y="-6"
     inkscape:window-maximized="1">
    <inkscape:grid
       type="xygrid"
       id="grid239"
       units="px"
       spacingx="1.5"
       spacingy="1.5" />
  </sodipodi:namedview>
  <path
     fill="#edf1e9"
     d="m 23.999962,46.000062 c 4.083201,0 6.815001,-0.3009 8.0707,-0.4782 0.525301,-0.0743 1.0169,-0.2779 1.440801,-0.5969 1.013299,-0.7624 3.157699,-2.4813 6.044999,-5.3686 2.8872,-2.8872 4.6061,-5.0316 5.3685,-6.0449 0.3191,-0.424 0.5227,-0.9155 0.5969,-1.4409 0.1773,-1.2555 0.4782,-3.9873 0.4782,-8.0705 0,-4.0832 -0.3009,-6.815 -0.4782,-8.0706 -0.0742,-0.5253 -0.2778,-1.0169 -0.5969,-1.4409 -0.7624,-1.0132 -2.4813,-3.1576 -5.3685,-6.0448595 -2.8873,-2.8872 -5.0317,-4.60613 -6.0449,-5.36857 -0.424,-0.31903 -0.915599,-0.52263 -1.440999,-0.59684 -1.2556,-0.17735 -3.9874,-0.47823 -8.070501,-0.47823 -4.0831,0 -6.8149,0.30088 -8.070499,0.47823 -0.525401,0.07421 -1.017001,0.2778 -1.440901,0.59684 -1.013299,0.76242 -3.157699,2.48134 -6.0449395,5.36857 -2.88725,2.8872605 -4.60617,5.0316595 -5.36859,6.0449595 -0.31902,0.4239 -0.52261,0.9154 -0.59683,1.4408 -0.17735,1.2556 -0.47824,3.9874 -0.47824,8.0706 0,4.0832 0.30089,6.815 0.47824,8.0706 0.07422,0.5253 0.27781,1.0168 0.59683,1.4408 0.76242,1.0133 2.48133,3.1577 5.36855,6.0449 2.8871795,2.8872 5.0316795,4.6062 6.0449795,5.3686 0.4239,0.319 0.9155,0.5226 1.4409,0.5969 1.2555,0.1773 3.9873,0.4782 8.0704,0.4782 z"
     id="path3678"
     style="fill:#edf1e9;fill-opacity:1" />
  <path
     id="path14092"
     style="fill:#bb852e;fill-opacity:1;stroke-width:0.61875"
     d="m 30.070574,10.382639 c -1.425619,-0.01379 -2.874492,0.675826 -3.998914,1.800257 L 11.174931,27.079222 c -0.336549,0.336537 -0.567488,0.763226 -0.623181,1.235888 -0.135061,1.146481 -0.311283,3.706178 0.02094,7.995411 0.04613,0.595607 0.521459,1.070952 1.117054,1.117053 4.289208,0.332269 6.848588,0.155556 7.995006,0.02055 0.472725,-0.05569 0.89929,-0.286241 1.23589,-0.622778 L 35.817372,21.928615 c 1.799075,-1.799137 2.484637,-4.429334 0.957935,-6.464649 -0.515973,-0.687854 -1.164555,-1.449784 -1.977097,-2.262308 -0.812541,-0.812535 -1.574038,-1.460746 -2.261901,-1.976697 -0.763266,-0.57251 -1.610364,-0.834044 -2.465735,-0.842322 z M 11.775152,28.164451 c 1.152368,0.783028 2.410551,1.484063 4.493591,3.567078 2.083262,2.083324 2.784514,3.341701 3.56748,4.493995 -0.286171,0.213218 -0.618147,0.356138 -0.976465,0.3984 -0.907694,0.106898 -2.702399,0.239496 -5.53894,0.125281 -0.293427,-0.922878 -1.146138,-1.790472 -2.069349,-2.069349 -0.114203,-2.836555 0.01834,-4.631198 0.125281,-5.53894 0.04221,-0.358256 0.185156,-0.690294 0.398402,-0.976465 z" />
</svg>
