<?xml version="1.0" encoding="UTF-8" standalone="no"?>
<!-- Created with Inkscape (http://www.inkscape.org/) -->

<svg
   width="1000"
   height="200"
   viewBox="0 0 264.58333 52.916667"
   version="1.1"
   id="svg1996"
   inkscape:version="1.2.1 (9c6d41e410, 2022-07-14)"
   sodipodi:docname="home_screen_dark.svg"
   xmlns:inkscape="http://www.inkscape.org/namespaces/inkscape"
   xmlns:sodipodi="http://sodipodi.sourceforge.net/DTD/sodipodi-0.dtd"
   xmlns="http://www.w3.org/2000/svg"
   xmlns:svg="http://www.w3.org/2000/svg">
  <sodipodi:namedview
     id="namedview1998"
     pagecolor="#ffffff"
     bordercolor="#666666"
     borderopacity="1.0"
     inkscape:showpageshadow="2"
     inkscape:pageopacity="0.0"
     inkscape:pagecheckerboard="true"
     inkscape:deskcolor="#d1d1d1"
     inkscape:document-units="mm"
     showgrid="true"
     inkscape:zoom="0.69166115"
     inkscape:cx="255.90566"
     inkscape:cy="136.6276"
     inkscape:current-layer="layer1">
    <inkscape:grid
       type="xygrid"
       id="grid2517"
       units="px"
       spacingx="1.3229167"
       spacingy="1.3229167"
       originx="0"
       originy="0" />
  </sodipodi:namedview>
  <defs
     id="defs1993" />
  <g
     inkscape:label="Layer 1"
     inkscape:groupmode="layer"
     id="layer1">
    <path
       id="path2093-8-1"
       style="color:#000000;-inkscape-font-specification:'Neuropol, Normal';fill:#a6cfff;fill-opacity:1;stroke-width:1.12889;stroke-linecap:round;stroke-linejoin:round"
       d="m 169.07322,16.426986 c -0.2538,-0.01128 -0.5148,0.04629 -0.75035,0.190104 -0.31404,0.191572 -0.54856,0.546044 -0.63045,1.014984 a 0.34329784,0.34329784 0 0 0 -0.008,0.05193 c -0.0304,1.465975 -0.0208,3.922889 -0.0208,5.32892 v 16.933335 c 0,0.513192 0.0774,0.932236 0.39896,1.19064 a 0.34329784,0.34329784 0 0 0 0.008,0.0124 c 0.28064,0.211 0.64701,0.28528 1.07693,0.28528 0.4298,0 0.79402,-0.07452 1.07488,-0.28528 0.33464,-0.2522 0.42581,-0.682636 0.42581,-1.19888 l -0.0475,-22.28912 c 0.0248,-0.343408 -0.1738,-0.620098 -0.41134,-0.816525 -0.23752,-0.196428 -0.53975,-0.33336 -0.86611,-0.388564 v 0 c -0.0816,-0.01356 -0.16552,-0.02256 -0.25012,-0.02484 z m -9.41546,0 c -0.2538,-0.01128 -0.51478,0.04629 -0.75033,0.190216 -0.31408,0.191572 -0.55062,0.543786 -0.63252,1.012839 a 0.34329784,0.34329784 0 0 0 -0.004,0.05418 c -0.0304,1.465749 -0.0236,3.922437 -0.0228,5.32892 l 0.008,13.923716 c -0.01,1.500068 0.41232,2.622748 1.07694,3.369284 0.66498,0.746984 1.56333,1.104053 2.44325,1.114101 a 0.34329784,0.34329784 0 0 0 0.002,0 l 4.08657,0.0224 a 0.34329784,0.34329784 0 0 0 0.005,0 c 0.21252,-2.24e-4 0.38596,-0.1394 0.4775,-0.27284 0.0916,-0.13332 0.14148,-0.27692 0.18188,-0.436204 0.0808,-0.31856 0.10948,-0.701152 0.10544,-1.0852 -0.004,-0.384048 -0.0426,-0.765725 -0.11988,-1.078992 -0.0388,-0.156688 -0.0849,-0.29272 -0.16124,-0.421753 -0.0763,-0.129032 -0.21272,-0.289672 -0.44235,-0.29972 a 0.34329784,0.34329784 0 0 0 -0.0164,0 h -3.07164 c -0.32952,0 -0.59869,-0.01356 -0.79376,-0.06209 -0.19508,-0.04741 -0.31148,-0.113792 -0.42374,-0.256256 -0.22452,-0.284932 -0.40282,-1.003582 -0.39688,-2.472267 l 0.0248,-9.570494 h 2.91248 c 0.17884,0 0.35356,-0.03272 0.5085,-0.117744 0.15348,-0.08467 0.27492,-0.230068 0.33692,-0.39274 0.1096,-0.27816 0.15296,-0.615696 0.15296,-1.043884 0,-0.424462 -0.04,-0.762113 -0.15092,-1.041851 -0.0592,-0.166396 -0.17672,-0.318796 -0.33072,-0.411255 -0.15632,-0.0937 -0.33464,-0.128244 -0.51678,-0.128244 h -2.88354 c 0.002,-0.12316 0.0124,-0.20004 0.0124,-0.369936 -8e-4,-0.347812 -0.009,-0.786948 -0.0188,-1.269209 -0.02,-0.953573 -0.0532,-2.084042 -0.0703,-3.05308 -1.9e-4,-0.01128 1.8e-4,-0.02256 0,-0.03272 a 0.34329784,0.34329784 0 0 0 -0.0352,-0.035 c -0.0112,-0.303332 -0.15708,-0.566702 -0.37412,-0.746196 -0.23752,-0.196428 -0.5418,-0.33336 -0.86816,-0.388564 v 0 c -0.0816,-0.01356 -0.16552,-0.02256 -0.25012,-0.02484 z m -48.84869,0.694606 c -0.4296,0 -0.79586,0.07564 -1.07694,0.287303 a 0.34329784,0.34329784 0 0 0 -0.008,0.01128 c -0.32156,0.258288 -0.39892,0.67722 -0.39892,1.190639 V 36.66965 c 0,1.4767 0.46442,2.656276 1.4056,3.431259 0.94118,0.774868 2.30776,1.132841 4.06383,1.132841 h 4.25814 c 1.75609,0 3.12266,-0.35796 4.06384,-1.132841 0.94117,-0.774983 1.40559,-1.954559 1.40559,-3.431259 v -5.264792 c 0,-1.4767 -0.46442,-2.656388 -1.40559,-3.431371 -0.94104,-0.774982 -2.30762,-1.132727 -4.06371,-1.132727 h -6.74067 v -8.22689 c 0,-0.516355 -0.093,-0.944768 -0.42788,-1.196848 -0.28156,-0.21302 -0.64561,-0.287304 -1.07486,-0.287304 z m 89.58627,4.1113 c -0.46823,0 -0.86535,0.08805 -1.1741,0.305928 -0.36652,0.260884 -0.48369,0.726778 -0.48369,1.2919 v 17.053221 c 0,0.566028 0.11588,1.033388 0.48369,1.294048 0.30876,0.219 0.70587,0.30592 1.1741,0.30592 0.48021,0 0.88547,-0.08468 1.19682,-0.30592 0.3678,-0.26068 0.48162,-0.72802 0.48162,-1.294048 v -17.05322 c 0,-0.565122 -0.11512,-1.031015 -0.48162,-1.2919 -0.31136,-0.220812 -0.71661,-0.305928 -1.19682,-0.305929 z m 4.97334,0.107244 c -0.3822,0 -0.74483,0.151836 -0.96326,0.444443 -0.2184,0.292496 -0.2956,0.674624 -0.2956,1.126519 v 16.867295 c 0,0.459908 0.0785,0.845988 0.2956,1.143 0.21712,0.29712 0.57941,0.452685 0.96326,0.452685 h 11.29853 c 2.01438,0 3.5753,-0.418933 4.64468,-1.318769 1.06936,-0.899951 1.59784,-2.264665 1.59784,-3.98735 v -9.421593 c 0,-1.722685 -0.52848,-3.083335 -1.59784,-3.983285 -1.06938,-0.899951 -2.6303,-1.322945 -4.64468,-1.322945 z m 25.47027,0 c -2.01436,0 -3.57736,0.422994 -4.64674,1.322945 -1.06937,0.89995 -1.59577,2.2606 -1.59577,3.983284 v 9.421594 c 0,1.722685 0.5264,3.087399 1.59577,3.98735 1.06938,0.899836 2.63238,1.318769 4.64674,1.318769 h 9.60355 c 0.40641,0 0.79676,-0.22668 0.93638,-0.593233 0.13348,-0.318 0.18396,-0.706232 0.18396,-1.190639 0,-0.498405 -0.0471,-0.881888 -0.18604,-1.192672 -0.14056,-0.364968 -0.52902,-0.589054 -0.93432,-0.589054 h -9.525 c -1.12905,0 -1.90489,-0.20862 -2.3399,-0.543673 -0.47044,-0.36226 -0.66559,-0.734342 -0.66559,-1.196848 v -2.778082 h 12.59044 c 0.40112,0 0.79004,-0.206136 0.93432,-0.562299 h 0.002 c 0.13576,-0.321396 0.18396,-0.720796 0.18396,-1.223716 0,-0.497502 -0.0494,-0.879744 -0.18808,-1.190527 -0.14056,-0.364744 -0.52687,-0.593344 -0.93225,-0.593344 h -12.59044 v -3.073625 c 0,-0.483616 0.19192,-0.847796 0.65731,-1.19064 a 0.34329784,0.34329784 0 0 0 0.008,0 c 0.43502,-0.33494 1.21086,-0.54164 2.3399,-0.54164 h 9.58082 c 0.39144,0 0.77354,-0.211328 0.9157,-0.562187 h 0.002 c 0.13572,-0.321396 0.18396,-0.718877 0.18396,-1.221684 0,-0.497614 -0.0496,-0.881888 -0.18808,-1.192671 -0.13868,-0.359892 -0.51772,-0.593231 -0.91364,-0.593231 h -9.65936 z M 77.504652,22.948351 c -1.835624,0 -3.265744,0.384612 -4.245736,1.209266 -0.98,0.824766 -1.461408,2.07614 -1.461408,3.648343 v 8.563752 c 0,1.572203 0.481408,2.821658 1.461408,3.646309 0.979992,0.824768 2.410112,1.209269 4.245736,1.209269 h 8.731246 c 0.37748,0 0.74733,-0.2162 0.8785,-0.560157 0.12328,-0.29496 0.16948,-0.651932 0.16948,-1.093554 0,-0.453813 -0.0449,-0.804107 -0.17364,-1.093441 -0.1328,-0.341264 -0.49867,-0.558124 -0.87436,-0.558124 h -8.658906 c -1.022696,0 -1.723688,-0.189992 -2.110472,-0.487792 -0.4222,-0.325233 -0.591144,-0.651708 -0.591144,-1.06251 v -2.494845 h 11.414292 c 0.37256,0 0.74533,-0.194844 0.88056,-0.531255 0.1256,-0.29848 0.16948,-0.664013 0.16948,-1.122454 0,-0.4537 -0.045,-0.804108 -0.17364,-1.093442 -0.1322,-0.342164 -0.50005,-0.560154 -0.87643,-0.560154 H 74.875356 V 27.80596 c 0,-0.430106 0.16788,-0.75105 0.584976,-1.058333 a 0.34329784,0.34329784 0 0 0 0.0064,0 c 0.38668,-0.2978 1.087672,-0.487793 2.110464,-0.487793 h 8.187612 c 0.3638,0 0.7262,-0.201396 0.8599,-0.531255 3e-5,-1.13e-4 0.004,1.13e-4 0.004,0 0.12612,-0.298816 0.16948,-0.663335 0.16948,-1.122454 0,-0.45483 -0.0464,-0.805688 -0.17572,-1.095474 -0.13088,-0.336296 -0.48822,-0.558123 -0.85576,-0.558123 H 77.5047 Z m 129.941418,1.961671 h 9.14259 c 1.12906,0 1.90491,0.206476 2.3399,0.541528 0.003,0 0.007,0.01128 0.01,0.01128 0.47867,0.343972 0.67386,0.707587 0.67386,1.188493 v 9.421707 c 0,0.45991 -0.19648,0.829508 -0.68005,1.192672 h -0.004 c -0.43495,0.335064 -1.21081,0.543682 -2.33986,0.543682 h -9.1426 z M 93.057188,26.832406 c -1.52747,0 -2.76429,0.363504 -3.66282,1.124374 a 0.34329784,0.34329784 0 0 0 -0.002,0 c -0.89698,0.771031 -1.33326,1.949139 -1.33326,3.437579 v 8.44183 c 0,0.51342 0.0772,0.932464 0.39896,1.19064 a 0.34329784,0.34329784 0 0 0 0.008,0.0112 c 0.28108,0.212 0.6473,0.28732 1.07694,0.28732 0.42964,0 0.7938,-0.07564 1.07487,-0.28732 0.335,-0.25208 0.42788,-0.68038 0.42788,-1.196848 v -8.441742 c 0,-0.407754 0.14524,-0.709619 0.49196,-0.996357 0.30364,-0.251176 0.94202,-0.429994 1.91823,-0.429994 h 1.01493 c 0.48536,0 0.87394,0.04629 1.15341,0.130276 a 0.34329784,0.34329784 0 0 0 0.0164,0 c 0.30312,0.07225 0.52899,0.17746 0.68419,0.29972 0.16212,0.127792 0.26248,0.265852 0.32452,0.432026 a 0.34329784,0.34329784 0 0 0 0.004,0.01128 c 0.0675,0.16798 0.10128,0.349164 0.10128,0.551914 v 8.441941 c 0,0.481248 0.0791,0.878616 0.35968,1.14718 a 0.34329784,0.34329784 0 0 0 0.008,0.0112 c 0.27728,0.24756 0.66052,0.32872 1.11622,0.32872 0.42963,0 0.79379,-0.07336 1.07486,-0.28528 0.335,-0.25208 0.42788,-0.682412 0.42788,-1.19888 v -8.441714 c 0,-0.202748 0.0336,-0.383936 0.10128,-0.551913 a 0.34329784,0.34329784 0 0 0 0.004,-0.01128 c 0.0621,-0.166172 0.162402,-0.304236 0.324522,-0.432026 0.1578,-0.124292 0.37712,-0.227584 0.66766,-0.29972 a 0.34329784,0.34329784 0 0 0 0.0124,0 c 0.29444,-0.08467 0.68871,-0.132304 1.17409,-0.132304 h 1.01493 c 0.9762,0 1.61457,0.178816 1.91822,0.429994 0.34672,0.286736 0.49196,0.588603 0.49196,0.996357 v 8.441834 c 0,0.516464 0.0908,0.946796 0.42582,1.19888 0.28108,0.212 0.64522,0.28528 1.07486,0.28528 0.42693,0 0.78697,-0.07336 1.0604,-0.29148 0.33184,-0.2524 0.42581,-0.678236 0.42581,-1.192668 v -8.441857 c 0,-1.488101 -0.44405,-2.667338 -1.35185,-3.437579 -0.88711,-0.762565 -2.1207,-1.126519 -3.64817,-1.126519 h -1.79214 c -1.45364,0 -2.584022,0.407981 -3.406512,1.159595 -0.81272,-0.75105 -1.93628,-1.159595 -3.38791,-1.159595 h -1.79427 z m 37.639042,0 c -1.75608,0 -3.12268,0.357744 -4.06384,1.132728 -0.94118,0.774982 -1.4056,1.954558 -1.4056,3.431257 v 5.264799 c 0,1.4767 0.46442,2.656389 1.4056,3.431371 0.94116,0.774868 2.30776,1.132729 4.06384,1.132729 h 7.71839 c 0.18232,0 0.36264,-0.034 0.51883,-0.12812 0.15388,-0.09256 0.26952,-0.2452 0.32868,-0.411368 0.11016,-0.27908 0.15088,-0.617052 0.15088,-1.041852 0,-0.421979 -0.04,-0.747437 -0.15504,-1.019048 -0.0598,-0.164028 -0.17232,-0.317784 -0.32452,-0.409223 -0.15632,-0.0937 -0.33672,-0.12824 -0.51883,-0.12824 h -7.64605 c -0.97424,0 -1.63878,-0.173512 -2.00091,-0.440266 -0.3954,-0.308084 -0.55397,-0.610626 -0.55397,-0.985982 v -0.894984 h 10.70942 c 0.50315,0 0.91534,-0.07338 1.1617,-0.403125 0.21952,-0.293848 0.26664,-0.674737 0.26664,-1.17619 v -2.790501 c 0,-1.48844 -0.43419,-2.666548 -1.33118,-3.437466 -0.89424,-0.779385 -2.28367,-1.126519 -4.13825,-1.126519 z m 16.26153,0 c -1.75609,0 -3.12266,0.357744 -4.06383,1.132728 -0.94118,0.774982 -1.4056,1.954558 -1.4056,3.431257 v 5.264799 c 0,1.4767 0.46442,2.656389 1.4056,3.431371 0.94117,0.774868 2.30774,1.132729 4.06383,1.132729 h 7.7184 c 0.18232,0 0.36264,-0.034 0.51883,-0.12812 0.15388,-0.09256 0.26952,-0.2452 0.32864,-0.411368 0.1102,-0.27908 0.15092,-0.617052 0.15092,-1.041852 0,-0.421979 -0.04,-0.747437 -0.15504,-1.019048 -0.0598,-0.164028 -0.17232,-0.317784 -0.32452,-0.409223 -0.15632,-0.0937 -0.33672,-0.12824 -0.51883,-0.12824 h -7.64605 c -0.97424,0 -1.63877,-0.173512 -2.00091,-0.440266 -0.39536,-0.308072 -0.55397,-0.610616 -0.55397,-0.985972 v -0.894994 h 10.70943 c 0.50314,0 0.91532,-0.07338 1.16168,-0.403125 0.21948,-0.293848 0.26664,-0.674737 0.26664,-1.17619 v -2.790501 c 0,-1.48844 -0.43419,-2.666548 -1.33119,-3.437466 -0.89424,-0.779385 -2.28366,-1.126519 -4.13824,-1.126519 z m 32.52515,0 c -1.75608,0 -3.12267,0.357744 -4.06384,1.132728 -0.94116,0.774982 -1.40559,1.954558 -1.40559,3.431257 v 5.264799 c 0,1.4767 0.46443,2.656389 1.40559,3.431371 0.94117,0.774868 2.30776,1.132729 4.06384,1.132729 h 7.7184 c 0.18232,0 0.36264,-0.034 0.51883,-0.12812 0.15388,-0.09256 0.26952,-0.2452 0.32868,-0.411368 0.1102,-0.27908 0.15092,-0.617052 0.15092,-1.041852 0,-0.421979 -0.04,-0.747437 -0.15504,-1.019048 -0.0597,-0.164028 -0.17232,-0.317784 -0.32452,-0.409223 -0.15632,-0.0937 -0.33668,-0.12824 -0.51883,-0.12824 h -7.64605 c -0.97423,0 -1.63878,-0.173512 -2.00091,-0.440266 -0.39536,-0.308072 -0.55397,-0.610616 -0.55397,-0.985972 v -0.894994 h 10.70943 c 0.50314,0 0.91532,-0.07338 1.16168,-0.403125 0.21948,-0.293848 0.26664,-0.674737 0.26664,-1.17619 v -2.790501 c 0,-1.48844 -0.43419,-2.666548 -1.33118,-3.437466 -0.89424,-0.779385 -2.28367,-1.126519 -4.13825,-1.126519 z m -32.4528,3.13357 v 0 h 4.0411 c 0.99234,0 1.66964,0.161204 2.01538,0.398948 h 0.002 c 0.37796,0.253096 0.53742,0.551914 0.53743,1.025257 v 1.281517 h -9.15097 v -1.281516 c 0,-0.396692 0.1558,-0.694492 0.54983,-0.986084 0.36172,-0.267772 1.02883,-0.440267 2.00505,-0.440267 z m 32.52515,0 v 0 h 4.0411 c 0.99234,0 1.66964,0.161204 2.01539,0.398948 h 0.002 c 0.37796,0.253096 0.53741,0.551914 0.53742,1.025257 v 1.281517 h -9.15086 v -1.281516 c 0,-0.396692 0.1558,-0.694492 0.54984,-0.986084 0.36172,-0.267772 1.02883,-0.440267 2.00504,-0.440267 z m -48.78669,0 v 0 h 4.0411 c 0.99233,0 1.66964,0.161204 2.01538,0.398948 h 0.002 c 0.37796,0.253096 0.53742,0.551914 0.53744,1.025257 v 1.281517 h -9.15102 v -1.281516 c 0,-0.396692 0.1558,-0.694379 0.54983,-0.985971 0.36172,-0.267772 1.02882,-0.440267 2.00505,-0.440267 z m -18.45675,0 h 6.66833 c 0.97622,0 1.64332,0.172496 2.00504,0.440267 0.39404,0.291592 0.54984,0.58928 0.54984,0.985971 v 5.2648 c 0,0.375356 -0.1586,0.677898 -0.55397,0.985972 -0.36216,0.266756 -1.02666,0.440266 -2.00091,0.440266 h -4.11344 c -0.97425,0 -1.63877,-0.173512 -2.00092,-0.440266 -0.39536,-0.308072 -0.55397,-0.610616 -0.55397,-0.985972 z" />
    <g
       id="g4207"
       transform="matrix(1.0330039,0,0,1.0330039,-45.471319,2.0006885)">
      <path
         id="path3805"
         style="fill:#1575e5;fill-opacity:1;stroke-width:1.27033;stroke-linecap:round;stroke-linejoin:round"
         d="m 93.903616,29.392925 c 0,6.918726 -6.218893,12.527462 -13.890287,12.527462 -7.671394,0 -13.890288,-5.608735 -13.890288,-12.527462 0,-6.918727 7.145311,-12.295858 14.816705,-12.295858 7.671394,0 12.96387,5.377132 12.96387,12.295858 z"
         sodipodi:nodetypes="sssss" />
      <path
         id="path3729"
         style="color:#000000;fill:#a6cfff;stroke-linecap:round"
         d="m 67.903564,5.2598877 c -0.348496,0.00417 -0.692889,0.049399 -1.030517,0.1384277 -1.350513,0.3561154 -2.515188,1.3661537 -3.478638,2.8908692 a 0.68224001,0.68224001 0 0 0 0.210938,0.9411621 0.68224001,0.68224001 0 0 0 0.941528,-0.2127686 c 0.844564,-1.3365721 1.751811,-2.0578098 2.673706,-2.3009033 0.921895,-0.2430935 1.940383,-0.04818 3.132935,0.7148438 1.875018,1.1996831 4.046047,3.8319824 6.269897,7.8900144 0.800238,0.317072 1.547307,0.748305 2.210816,1.281738 C 76.225833,11.347466 73.636703,7.9125463 71.089966,6.2830811 70.384224,5.8315302 69.667629,5.5218438 68.958984,5.3690186 68.604663,5.2926059 68.252061,5.2557175 67.903564,5.2598877 Z" />
      <path
         id="path3731"
         style="color:#000000;fill:#a6cfff;stroke-linecap:round"
         d="m 88.86145,4.7479248 a 0.68224001,0.68224001 0 0 0 -0.492187,0.1757813 c -1.831347,1.6599722 -2.117617,4.7162636 -2.140869,7.6680909 -0.01061,1.34721 0.04985,2.691917 0.10913,3.879272 0.145391,-0.0622 0.293033,-0.120884 0.443482,-0.175415 0.301484,-0.109275 0.60562,-0.199858 0.910766,-0.272827 -0.0563,-1.080285 -0.109223,-2.245344 -0.09998,-3.419311 0.02238,-2.8413426 0.485347,-5.5713403 1.69519,-6.6679691 A 0.68224001,0.68224001 0 0 0 89.333862,4.9705811 0.68224001,0.68224001 0 0 0 88.86145,4.7479248 Z" />
      <path
         style="color:#000000;fill:#1575e5;stroke-width:0.998312;stroke-linecap:round"
         d="m 89.061947,2.1200219 c -1.228885,0.3936342 -1.884646,1.6669954 -1.395147,2.8505875 0.4895,1.183591 1.921886,1.7880818 3.150771,1.3944476 1.228884,-0.3936338 1.884645,-1.666996 1.395146,-2.8505871 -0.489499,-1.183592 -1.921886,-1.7880818 -3.15077,-1.394448 z"
         id="path3735"
         sodipodi:nodetypes="sssss" />
      <path
         style="color:#000000;fill:#1575e5;stroke-width:0.998312;stroke-linecap:round"
         d="m 63.539411,8.1635028 c 1.22888,-0.3936337 2.661272,0.2108596 3.150771,1.3944477 0.489498,1.1835885 -0.166266,2.4569545 -1.395147,2.8505875 -1.228881,0.393632 -2.661273,-0.210859 -3.15077,-1.394448 -0.489498,-1.1835884 0.166266,-2.4569545 1.395146,-2.8505872 z"
         id="path3737"
         sodipodi:nodetypes="sssss" />
      <ellipse
         transform="matrix(-0.9456025,0.32532433,0.3593372,0.93320779,0,0)"
         inkscape:export-ydpi="928.942"
         inkscape:export-xdpi="928.942"
         inkscape:export-filename="C:\Users\Kristof\Dropbox (Personal)\EMBEDOFFICE\embedoffice_com\homepage\chip_bee_01.png"
         ry="6.6704621"
         rx="7.1852145"
         cy="45.243824"
         cx="-60.215687"
         id="ellipse3739"
         style="fill:#a6cfff;fill-opacity:1;stroke:none;stroke-width:1.36492;stroke-linecap:round;stroke-linejoin:miter;stroke-miterlimit:4;stroke-dasharray:none;stroke-dashoffset:0;stroke-opacity:1" />
      <path
         id="path3741"
         style="fill:#1575e5;fill-opacity:1;stroke:none;stroke-width:1.12154;stroke-linecap:butt;stroke-linejoin:round;stroke-miterlimit:4;stroke-dasharray:none;stroke-dashoffset:0;stroke-opacity:1"
         d="M 72.705688,20.789428 A 1.9544187,2.1085299 84.248667 0 0 72,20.912476 a 1.9544187,2.1085299 84.248667 0 0 -1.279541,2.515869 1.9544187,2.1085299 84.248667 0 0 2.691284,1.149902 1.9544187,2.1085299 84.248667 0 0 1.279541,-2.516235 1.9544187,2.1085299 84.248667 0 0 -1.985596,-1.272584 z m -0.172851,0.641603 a 0.52701415,0.67244094 74.333387 0 1 0.530639,0.320068 0.52701415,0.67244094 74.333387 0 1 -0.445312,0.711182 0.52701415,0.67244094 74.333387 0 1 -0.825073,-0.273926 0.52701415,0.67244094 74.333387 0 1 0.445679,-0.711182 0.52701415,0.67244094 74.333387 0 1 0.294067,-0.04614 z" />
      <ellipse
         style="fill:#a6cfff;fill-opacity:1;stroke:none;stroke-width:1.36448;stroke-linecap:round;stroke-linejoin:miter;stroke-miterlimit:4;stroke-dasharray:none;stroke-dashoffset:0;stroke-opacity:1"
         id="ellipse3743"
         cx="-75.914833"
         cy="52.84726"
         rx="6.874567"
         ry="6.6420555"
         inkscape:export-filename="C:\Users\Kristof\Dropbox (Personal)\EMBEDOFFICE\embedoffice_com\homepage\chip_bee_01.png"
         inkscape:export-xdpi="928.942"
         inkscape:export-ydpi="928.942"
         transform="matrix(-0.94014925,0.34076295,0.34328077,0.93923283,0,0)" />
      <path
         id="path3745"
         style="fill:#1575e5;fill-opacity:1;stroke:none;stroke-width:1.09505;stroke-linecap:butt;stroke-linejoin:round;stroke-miterlimit:4;stroke-dasharray:none;stroke-dashoffset:0;stroke-opacity:1"
         d="m 89.492798,21.596191 a 1.9555847,2.0088901 72.859524 0 0 -0.686279,0.123414 1.9555847,2.0088901 72.859524 0 0 -1.217286,2.521362 1.9555847,2.0088901 72.859524 0 0 2.559815,1.152466 1.9555847,2.0088901 72.859524 0 0 1.217285,-2.521363 1.9555847,2.0088901 72.859524 0 0 -1.873535,-1.275879 z m -0.179444,0.643433 a 0.52566048,0.64269735 70.386868 0 1 0.504639,0.320801 0.52566048,0.64269735 70.386868 0 1 -0.423706,0.712646 0.52566048,0.64269735 70.386868 0 1 -0.78479,-0.274658 0.52566048,0.64269735 70.386868 0 1 0.424072,-0.712647 0.52566048,0.64269735 70.386868 0 1 0.279785,-0.04614 z" />
      <path
         style="color:#000000;fill:#a6cfff;fill-opacity:1;stroke-linecap:round;stroke-linejoin:round"
         d="m 77.357422,33.226562 c -0.309582,-0.155325 -0.686464,-0.03028 -0.841797,0.279297 -0.195235,0.387497 -0.137407,0.734979 -0.04883,1.085938 0.08858,0.350959 0.246769,0.716691 0.460937,1.089844 0.428336,0.746304 1.08146,1.522192 1.929688,2.060546 0.848228,0.538355 1.938688,0.824515 3.054687,0.457032 1.116,-0.367483 2.180592,-1.335148 3.146485,-3.060547 0.351529,-0.628294 -0.459819,-1.257008 -0.980469,-0.759766 -0.330627,0.316678 -0.808752,0.471921 -1.433594,0.488281 -0.624841,0.01636 -1.366372,-0.1181 -2.08789,-0.326171 -1.443036,-0.416143 -2.77991,-1.104054 -3.199219,-1.314454 z"
         id="path3747"
         sodipodi:nodetypes="scssssccssss" />
      <path
         id="path3749"
         style="fill:#a6cfff;fill-opacity:1;stroke:none;stroke-width:1.25417;stroke-linecap:round;stroke-linejoin:miter;stroke-miterlimit:4;stroke-dasharray:none;stroke-dashoffset:0;stroke-opacity:1"
         d="m 69.690589,39.65549 c -1.490741,0.758045 -2.953797,1.646787 -4.345464,2.627303 -0.777763,0.547917 0.393762,2.346807 -0.164088,2.982129 L 89.883634,45.10959 c -0.474048,-1.455864 -1.118913,-2.772385 -1.935926,-3.902693 -0.788995,0.438104 -1.61683,0.810255 -2.470073,1.113206 -5.101804,1.811429 -11.264968,1.138001 -15.787046,-2.664613 z" />
      <path
         id="path3751"
         style="fill:#1575e5;fill-opacity:1;stroke:none;stroke-width:1.15272;stroke-linecap:round;stroke-linejoin:round;stroke-miterlimit:4;stroke-dasharray:none;stroke-dashoffset:0;stroke-opacity:1"
         d="m 66.295767,35.641628 c -3.603612,1.622765 -7.64185,4.694436 -10.450586,8.648668 -0.227708,0.320632 -0.447619,0.660062 -0.658253,0.992138 l 10.016952,0.01942 c 1.415986,-2.006927 2.977543,-3.885229 4.638233,-5.520726 -1.345778,-1.10212 -2.551003,-2.476514 -3.546346,-4.139497 z" />
    </g>
  </g>
</svg>
