<?xml version="1.0" encoding="UTF-8" standalone="no"?>
<!-- Created with Inkscape (http://www.inkscape.org/) -->

<svg
   width="512"
   height="102.4"
   viewBox="0 0 135.46666 27.093334"
   version="1.1"
   id="svg1996"
   inkscape:version="1.2.1 (9c6d41e410, 2022-07-14)"
   sodipodi:docname="splash_screen.svg"
   xmlns:inkscape="http://www.inkscape.org/namespaces/inkscape"
   xmlns:sodipodi="http://sodipodi.sourceforge.net/DTD/sodipodi-0.dtd"
   xmlns="http://www.w3.org/2000/svg"
   xmlns:svg="http://www.w3.org/2000/svg">
  <sodipodi:namedview
     id="namedview1998"
     pagecolor="#ffffff"
     bordercolor="#666666"
     borderopacity="1.0"
     inkscape:showpageshadow="2"
     inkscape:pageopacity="0.0"
     inkscape:pagecheckerboard="true"
     inkscape:deskcolor="#d1d1d1"
     inkscape:document-units="mm"
     showgrid="true"
     inkscape:zoom="1.3833223"
     inkscape:cx="239.27902"
     inkscape:cy="52.410057"
     inkscape:current-layer="layer1">
    <inkscape:grid
       type="xygrid"
       id="grid2517"
       units="px"
       spacingx="1.3229167"
       spacingy="1.3229167"
       originx="0"
       originy="0" />
  </sodipodi:namedview>
  <defs
     id="defs1993" />
  <g
     inkscape:label="Layer 1"
     inkscape:groupmode="layer"
     id="layer1">
    <rect
       style="fill:#ffffff;stroke:none;stroke-width:2.11667;stroke-linecap:round;stroke-linejoin:round;fill-opacity:1"
       id="rect4126"
       width="135.46666"
       height="27.093334"
       x="0"
       y="0" />
    <path
       id="path2093-8-1"
       style="color:#000000;-inkscape-font-specification:'Neuropol, Normal';fill:#1575e5;fill-opacity:1;stroke-width:0.564445;stroke-linecap:round;stroke-linejoin:round"
       d="m 85.856166,8.4235011 c -0.1269,-0.0056 -0.2574,0.02315 -0.37518,0.09505 -0.15702,0.09579 -0.27428,0.273022 -0.31522,0.507492 a 0.17164892,0.17164892 0 0 0 -0.004,0.02596 c -0.0152,0.7329877 -0.0104,1.9614449 -0.0104,2.6644599 v 8.466668 c 0,0.256596 0.0387,0.466118 0.19948,0.59532 a 0.17164892,0.17164892 0 0 0 0.004,0.0062 c 0.14032,0.1055 0.3235,0.14264 0.53846,0.14264 0.2149,0 0.39701,-0.03726 0.53744,-0.14264 0.16732,-0.1261 0.21291,-0.341318 0.21291,-0.59944 l -0.0238,-11.1445599 c 0.0124,-0.171704 -0.0869,-0.310049 -0.20567,-0.408263 -0.11876,-0.09821 -0.26988,-0.16668 -0.43306,-0.194282 v 0 c -0.0408,-0.0068 -0.0828,-0.01128 -0.12506,-0.01242 z m -4.70773,0 c -0.1269,-0.0056 -0.25739,0.02315 -0.37517,0.09511 -0.15704,0.09579 -0.27531,0.271893 -0.31626,0.50642 a 0.17164892,0.17164892 0 0 0 -0.002,0.02709 c -0.0152,0.7328737 -0.0118,1.9612179 -0.0114,2.6644599 l 0.004,6.961858 c -0.005,0.750034 0.20616,1.311374 0.53847,1.684642 0.33249,0.373492 0.78167,0.552026 1.22163,0.55705 a 0.17164892,0.17164892 0 0 0 0.001,0 l 2.04328,0.0112 a 0.17164892,0.17164892 0 0 0 0.002,0 c 0.10626,-1.12e-4 0.19298,-0.0697 0.23875,-0.13642 0.0458,-0.06666 0.0707,-0.13846 0.0909,-0.218102 0.0404,-0.15928 0.0547,-0.350576 0.0527,-0.5426 -0.002,-0.192024 -0.0213,-0.382862 -0.0599,-0.539496 -0.0194,-0.07834 -0.0424,-0.14636 -0.0806,-0.210876 -0.0382,-0.06452 -0.10636,-0.144836 -0.22117,-0.14986 a 0.17164892,0.17164892 0 0 0 -0.008,0 h -1.53582 c -0.16476,0 -0.29935,-0.0068 -0.39688,-0.03105 -0.0975,-0.0237 -0.15574,-0.0569 -0.21187,-0.128128 -0.11226,-0.142466 -0.20141,-0.501791 -0.19844,-1.236134 l 0.0124,-4.785247 h 1.45624 c 0.0894,0 0.17678,-0.01636 0.25425,-0.05887 0.0767,-0.04234 0.13746,-0.115034 0.16846,-0.19637 0.0548,-0.13908 0.0765,-0.307848 0.0765,-0.521942 0,-0.212231 -0.02,-0.381056 -0.0755,-0.520925 -0.0296,-0.0832 -0.0884,-0.159398 -0.16536,-0.205628 -0.0782,-0.04685 -0.16732,-0.06412 -0.25839,-0.06412 h -1.44177 c 0.001,-0.06158 0.006,-0.10002 0.006,-0.184968 -4e-4,-0.173906 -0.005,-0.393474 -0.009,-0.634604 -0.01,-0.476787 -0.0266,-1.0420209 -0.0351,-1.5265399 -1e-4,-0.0056 9e-5,-0.01128 0,-0.01636 a 0.17164892,0.17164892 0 0 0 -0.0176,-0.0175 c -0.006,-0.151666 -0.0785,-0.283351 -0.18706,-0.373098 -0.11876,-0.09821 -0.2709,-0.16668 -0.43408,-0.194282 v 0 c -0.0408,-0.0068 -0.0828,-0.01128 -0.12506,-0.01242 z m -24.42435,0.347303 c -0.2148,0 -0.39793,0.03782 -0.53847,0.143652 a 0.17164892,0.17164892 0 0 0 -0.004,0.0056 c -0.16078,0.129144 -0.19946,0.33861 -0.19946,0.595319 v 9.0294179 c 0,0.73835 0.23221,1.328138 0.7028,1.71563 0.47059,0.387434 1.15388,0.56642 2.03192,0.56642 h 2.12907 c 0.87804,0 1.56133,-0.17898 2.03192,-0.56642 0.47058,-0.387492 0.70279,-0.97728 0.70279,-1.71563 v -2.632396 c 0,-0.73835 -0.23221,-1.328194 -0.70279,-1.715685 -0.47052,-0.387491 -1.15381,-0.566364 -2.03186,-0.566364 h -3.37033 V 9.5169031 c 0,-0.258177 -0.0465,-0.472384 -0.21394,-0.598424 -0.14078,-0.10651 -0.32281,-0.143652 -0.53743,-0.143652 z m 44.793144,2.0556499 c -0.23412,0 -0.43268,0.04403 -0.58705,0.152964 -0.18326,0.130442 -0.24185,0.363389 -0.24185,0.64595 v 8.526611 c 0,0.283014 0.0579,0.516694 0.24185,0.647024 0.15438,0.1095 0.35293,0.15296 0.58705,0.15296 0.2401,0 0.44273,-0.04234 0.59841,-0.15296 0.1839,-0.13034 0.24081,-0.36401 0.24081,-0.647024 v -8.52661 c 0,-0.282561 -0.0576,-0.515508 -0.24081,-0.64595 -0.15568,-0.110406 -0.35831,-0.152964 -0.59841,-0.152965 z m 2.48666,0.05362 c -0.1911,0 -0.37242,0.07592 -0.48163,0.222222 -0.1092,0.146248 -0.1478,0.337312 -0.1478,0.563259 v 8.433648 c 0,0.229954 0.0392,0.422994 0.1478,0.5715 0.10856,0.14856 0.2897,0.226342 0.48163,0.226342 h 5.64926 c 1.00719,0 1.78765,-0.209466 2.32234,-0.659384 0.53468,-0.449976 0.79892,-1.132333 0.79892,-1.993675 v -4.710797 c 0,-0.861342 -0.26424,-1.541667 -0.79892,-1.991642 -0.53469,-0.449976 -1.31515,-0.661473 -2.32234,-0.661473 z m 12.73513,0 c -1.00718,0 -1.78868,0.211497 -2.32337,0.661473 -0.53468,0.449975 -0.79788,1.1303 -0.79788,1.991642 v 4.710797 c 0,0.861342 0.2632,1.543699 0.79788,1.993675 0.53469,0.449918 1.31619,0.659384 2.32337,0.659384 h 4.80178 c 0.2032,0 0.39838,-0.11334 0.46819,-0.296616 0.0667,-0.159 0.092,-0.353116 0.092,-0.59532 0,-0.249202 -0.0236,-0.440944 -0.093,-0.596336 -0.0703,-0.182484 -0.26451,-0.294527 -0.46716,-0.294527 h -4.7625 c -0.56453,0 -0.95245,-0.10431 -1.16995,-0.271836 -0.23522,-0.18113 -0.3328,-0.367171 -0.3328,-0.598424 v -1.389041 h 6.29522 c 0.20056,0 0.39502,-0.103068 0.46716,-0.28115 h 0.001 c 0.0679,-0.160698 0.092,-0.360398 0.092,-0.611858 0,-0.248751 -0.0247,-0.439872 -0.094,-0.595263 -0.0703,-0.182372 -0.26343,-0.296672 -0.46612,-0.296672 h -6.29522 v -1.536813 c 0,-0.241808 0.096,-0.423898 0.32865,-0.59532 a 0.17164892,0.17164892 0 0 0 0.004,0 c 0.21751,-0.16747 0.60543,-0.27082 1.16995,-0.27082 h 4.79041 c 0.19572,0 0.38677,-0.105664 0.45785,-0.281093 h 10e-4 c 0.0679,-0.160698 0.092,-0.359439 0.092,-0.610842 0,-0.248807 -0.0248,-0.440944 -0.094,-0.596336 -0.0693,-0.179946 -0.25886,-0.296615 -0.45682,-0.296615 h -4.82968 z m -76.667144,0.804108 c -0.91781,0 -1.63287,0.192306 -2.122866,0.604633 -0.49,0.412383 -0.730704,1.03807 -0.730704,1.824171 v 4.281876 c 0,0.786102 0.240704,1.410829 0.730704,1.823155 0.489996,0.412384 1.205056,0.604634 2.122866,0.604634 h 4.36562 c 0.18874,0 0.37367,-0.1081 0.43925,-0.280078 0.0616,-0.14748 0.0847,-0.325966 0.0847,-0.546777 0,-0.226907 -0.0225,-0.402054 -0.0868,-0.546721 -0.0664,-0.170632 -0.24933,-0.279062 -0.43718,-0.279062 h -4.32945 c -0.51135,0 -0.86184,-0.095 -1.05523,-0.243896 -0.2111,-0.162616 -0.29558,-0.325854 -0.29558,-0.531255 v -1.24742 h 5.70715 c 0.18628,0 0.37266,-0.09742 0.44028,-0.265628 0.0628,-0.14924 0.0847,-0.332006 0.0847,-0.561227 0,-0.22685 -0.0225,-0.402054 -0.0868,-0.546721 -0.0661,-0.171082 -0.25003,-0.280077 -0.43822,-0.280077 h -5.70713 v -1.380801 c 0,-0.215053 0.0839,-0.375525 0.29249,-0.529166 a 0.17164892,0.17164892 0 0 0 0.003,0 c 0.19334,-0.1489 0.54384,-0.243897 1.05523,-0.243897 h 4.09381 c 0.1819,0 0.3631,-0.100698 0.42995,-0.265627 10e-6,-5.7e-5 0.002,5.6e-5 0.002,0 0.0631,-0.149408 0.0847,-0.331668 0.0847,-0.561227 0,-0.227415 -0.0232,-0.402844 -0.0879,-0.547737 -0.0654,-0.168148 -0.24411,-0.279062 -0.42788,-0.279062 h -4.131 z m 64.970704,0.980835 h 4.5713 c 0.56453,0 0.95245,0.103238 1.16995,0.270764 0.001,0 0.004,0.0056 0.005,0.0056 0.23933,0.171986 0.33693,0.353794 0.33693,0.594247 v 4.710853 c 0,0.229955 -0.0982,0.414754 -0.34003,0.596336 h -0.002 c -0.21747,0.167532 -0.6054,0.271841 -1.16993,0.271841 h -4.5713 z m -57.194434,0.961192 c -0.76374,0 -1.38215,0.181752 -1.83141,0.562187 a 0.17164892,0.17164892 0 0 0 -0.001,0 c -0.44849,0.385516 -0.66663,0.97457 -0.66663,1.71879 v 4.220915 c 0,0.25671 0.0386,0.466232 0.19948,0.59532 a 0.17164892,0.17164892 0 0 0 0.004,0.0056 c 0.14054,0.106 0.32365,0.14366 0.53847,0.14366 0.21482,0 0.3969,-0.03782 0.53743,-0.14366 0.1675,-0.12604 0.21394,-0.34019 0.21394,-0.598424 v -4.220871 c 0,-0.203877 0.0726,-0.35481 0.24598,-0.498179 0.15182,-0.125588 0.47101,-0.214997 0.95912,-0.214997 h 0.50746 c 0.24268,0 0.43697,0.02314 0.57671,0.06514 a 0.17164892,0.17164892 0 0 0 0.008,0 c 0.15156,0.03613 0.26449,0.08873 0.34209,0.14986 0.0811,0.0639 0.13124,0.132926 0.16226,0.216013 a 0.17164892,0.17164892 0 0 0 0.002,0.0056 c 0.0337,0.08399 0.0506,0.174582 0.0506,0.275957 v 4.220971 c 0,0.240624 0.0396,0.439308 0.17984,0.57359 a 0.17164892,0.17164892 0 0 0 0.004,0.0056 c 0.13864,0.12378 0.33026,0.16436 0.55811,0.16436 0.21482,0 0.3969,-0.03668 0.53743,-0.14264 0.1675,-0.12604 0.21394,-0.341206 0.21394,-0.59944 v -4.220857 c 0,-0.101374 0.0168,-0.191968 0.0506,-0.275957 a 0.17164892,0.17164892 0 0 0 0.002,-0.0056 c 0.031,-0.08309 0.0812,-0.152118 0.16227,-0.216013 0.0789,-0.06215 0.18856,-0.113792 0.33383,-0.14986 a 0.17164892,0.17164892 0 0 0 0.006,0 c 0.14722,-0.04233 0.34435,-0.06615 0.58704,-0.06615 h 0.50747 c 0.4881,0 0.80728,0.08941 0.95911,0.214997 0.17336,0.143368 0.24598,0.294302 0.24598,0.498179 v 4.220917 c 0,0.258232 0.0454,0.473398 0.21291,0.59944 0.14054,0.106 0.32261,0.14264 0.53743,0.14264 0.21346,0 0.39348,-0.03668 0.5302,-0.14574 0.16592,-0.1262 0.2129,-0.339118 0.2129,-0.596334 v -4.220931 c 0,-0.74405 -0.22202,-1.333669 -0.67592,-1.718789 -0.44356,-0.381283 -1.06035,-0.56326 -1.82409,-0.56326 h -0.89607 c -0.72682,0 -1.29201,0.203991 -1.70326,0.579798 -0.40636,-0.375525 -0.96814,-0.579798 -1.69395,-0.579798 h -0.89714 z m 18.81952,0 c -0.87804,0 -1.56134,0.178872 -2.03192,0.566364 -0.47059,0.387491 -0.7028,0.977279 -0.7028,1.715629 v 2.632399 c 0,0.73835 0.23221,1.328195 0.7028,1.715686 0.47058,0.387434 1.15388,0.566364 2.03192,0.566364 h 3.8592 c 0.0912,0 0.18132,-0.017 0.25941,-0.06406 0.0769,-0.04628 0.13476,-0.1226 0.16434,-0.205684 0.0551,-0.13954 0.0754,-0.308526 0.0754,-0.520926 0,-0.210989 -0.02,-0.373718 -0.0775,-0.509524 -0.0299,-0.08201 -0.0862,-0.158892 -0.16226,-0.204611 -0.0782,-0.04685 -0.16836,-0.06412 -0.25941,-0.06412 h -3.82303 c -0.48712,0 -0.81939,-0.08676 -1.00045,-0.220133 -0.1977,-0.154042 -0.27699,-0.305313 -0.27699,-0.492991 v -0.44749 h 5.35471 c 0.25158,0 0.45767,-0.03669 0.58085,-0.201563 0.10976,-0.146924 0.13332,-0.337368 0.13332,-0.588095 v -1.39525 c 0,-0.74422 -0.21709,-1.333274 -0.66559,-1.718733 -0.44712,-0.389693 -1.14183,-0.56326 -2.06912,-0.56326 z m 8.13077,0 c -0.87805,0 -1.56133,0.178872 -2.03192,0.566364 -0.47059,0.387491 -0.7028,0.977279 -0.7028,1.715629 v 2.632399 c 0,0.73835 0.23221,1.328195 0.7028,1.715686 0.47059,0.387434 1.15387,0.566364 2.03192,0.566364 h 3.8592 c 0.0912,0 0.18132,-0.017 0.25941,-0.06406 0.0769,-0.04628 0.13476,-0.1226 0.16432,-0.205684 0.0551,-0.13954 0.0755,-0.308526 0.0755,-0.520926 0,-0.210989 -0.02,-0.373718 -0.0775,-0.509524 -0.0299,-0.08201 -0.0862,-0.158892 -0.16226,-0.204611 -0.0782,-0.04685 -0.16836,-0.06412 -0.25941,-0.06412 h -3.82303 c -0.48712,0 -0.81938,-0.08676 -1.00045,-0.220133 -0.19768,-0.154036 -0.27699,-0.305308 -0.27699,-0.492986 v -0.447495 h 5.35472 c 0.25157,0 0.45766,-0.03669 0.58084,-0.201563 0.10974,-0.146924 0.13332,-0.337368 0.13332,-0.588095 v -1.39525 c 0,-0.74422 -0.2171,-1.333274 -0.6656,-1.718733 -0.44712,-0.389693 -1.14183,-0.56326 -2.06912,-0.56326 z m 16.26257,0 c -0.87804,0 -1.56133,0.178872 -2.03192,0.566364 -0.47058,0.387491 -0.70279,0.977279 -0.70279,1.715629 v 2.632399 c 0,0.73835 0.23221,1.328195 0.70279,1.715686 0.47059,0.387434 1.15388,0.566364 2.03192,0.566364 h 3.8592 c 0.0912,0 0.18132,-0.017 0.25942,-0.06406 0.0769,-0.04628 0.13476,-0.1226 0.16434,-0.205684 0.0551,-0.13954 0.0755,-0.308526 0.0755,-0.520926 0,-0.210989 -0.02,-0.373718 -0.0775,-0.509524 -0.0298,-0.08201 -0.0862,-0.158892 -0.16226,-0.204611 -0.0782,-0.04685 -0.16834,-0.06412 -0.25942,-0.06412 h -3.82302 c -0.48712,0 -0.81939,-0.08676 -1.00046,-0.220133 -0.19768,-0.154036 -0.27698,-0.305308 -0.27698,-0.492986 v -0.447495 h 5.35471 c 0.25157,0 0.45766,-0.03669 0.58084,-0.201563 0.10974,-0.146924 0.13332,-0.337368 0.13332,-0.588095 v -1.39525 c 0,-0.74422 -0.21709,-1.333274 -0.66559,-1.718733 -0.44712,-0.389693 -1.14183,-0.56326 -2.06912,-0.56326 z m -16.2264,1.566785 v 0 h 2.02055 c 0.49617,0 0.83482,0.0806 1.00769,0.199474 h 10e-4 c 0.18898,0.126548 0.26871,0.275957 0.26872,0.512629 v 0.640758 h -4.57549 v -0.640758 c 0,-0.198346 0.0779,-0.347246 0.27492,-0.493042 0.18086,-0.133886 0.51441,-0.220133 1.00252,-0.220133 z m 16.26258,0 v 0 h 2.02055 c 0.49617,0 0.83482,0.0806 1.00769,0.199474 h 10e-4 c 0.18898,0.126548 0.26871,0.275957 0.26871,0.512629 v 0.640758 h -4.57543 v -0.640758 c 0,-0.198346 0.0779,-0.347246 0.27492,-0.493042 0.18086,-0.133886 0.51442,-0.220133 1.00252,-0.220133 z m -24.39335,0 v 0 h 2.02055 c 0.49617,0 0.83482,0.0806 1.00769,0.199474 h 10e-4 c 0.18898,0.126548 0.26871,0.275957 0.26872,0.512629 v 0.640758 h -4.57551 v -0.640758 c 0,-0.198346 0.0779,-0.347189 0.27492,-0.492985 0.18086,-0.133886 0.51441,-0.220134 1.00252,-0.220134 z m -9.22837,0 h 3.33416 c 0.48811,0 0.82166,0.08625 1.00252,0.220134 0.19702,0.145796 0.27492,0.29464 0.27492,0.492985 v 2.6324 c 0,0.187678 -0.0793,0.338949 -0.27698,0.492986 -0.18108,0.133378 -0.51333,0.220133 -1.00046,0.220133 h -2.05672 c -0.48712,0 -0.81938,-0.08676 -1.00046,-0.220133 -0.19768,-0.154036 -0.27698,-0.305308 -0.27698,-0.492986 z" />
    <g
       id="g4207"
       transform="matrix(0.51650195,0,0,0.51650195,-21.416108,1.2103521)">
      <path
         id="path3805"
         style="fill:#1575e5;fill-opacity:1;stroke-width:1.27033;stroke-linecap:round;stroke-linejoin:round"
         d="m 93.903616,29.392925 c 0,6.918726 -6.218893,12.527462 -13.890287,12.527462 -7.671394,0 -13.890288,-5.608735 -13.890288,-12.527462 0,-6.918727 7.145311,-12.295858 14.816705,-12.295858 7.671394,0 12.96387,5.377132 12.96387,12.295858 z"
         sodipodi:nodetypes="sssss" />
      <path
         id="path3729"
         style="color:#000000;fill:#a6cfff;stroke-linecap:round"
         d="m 67.903564,5.2598877 c -0.348496,0.00417 -0.692889,0.049399 -1.030517,0.1384277 -1.350513,0.3561154 -2.515188,1.3661537 -3.478638,2.8908692 a 0.68224001,0.68224001 0 0 0 0.210938,0.9411621 0.68224001,0.68224001 0 0 0 0.941528,-0.2127686 c 0.844564,-1.3365721 1.751811,-2.0578098 2.673706,-2.3009033 0.921895,-0.2430935 1.940383,-0.04818 3.132935,0.7148438 1.875018,1.1996831 4.046047,3.8319824 6.269897,7.8900144 0.800238,0.317072 1.547307,0.748305 2.210816,1.281738 C 76.225833,11.347466 73.636703,7.9125463 71.089966,6.2830811 70.384224,5.8315302 69.667629,5.5218438 68.958984,5.3690186 68.604663,5.2926059 68.252061,5.2557175 67.903564,5.2598877 Z" />
      <path
         id="path3731"
         style="color:#000000;fill:#a6cfff;stroke-linecap:round"
         d="m 88.86145,4.7479248 a 0.68224001,0.68224001 0 0 0 -0.492187,0.1757813 c -1.831347,1.6599722 -2.117617,4.7162636 -2.140869,7.6680909 -0.01061,1.34721 0.04985,2.691917 0.10913,3.879272 0.145391,-0.0622 0.293033,-0.120884 0.443482,-0.175415 0.301484,-0.109275 0.60562,-0.199858 0.910766,-0.272827 -0.0563,-1.080285 -0.109223,-2.245344 -0.09998,-3.419311 0.02238,-2.8413426 0.485347,-5.5713403 1.69519,-6.6679691 A 0.68224001,0.68224001 0 0 0 89.333862,4.9705811 0.68224001,0.68224001 0 0 0 88.86145,4.7479248 Z" />
      <path
         style="color:#000000;fill:#1575e5;stroke-width:0.998312;stroke-linecap:round"
         d="m 89.061947,2.1200219 c -1.228885,0.3936342 -1.884646,1.6669954 -1.395147,2.8505875 0.4895,1.183591 1.921886,1.7880818 3.150771,1.3944476 1.228884,-0.3936338 1.884645,-1.666996 1.395146,-2.8505871 -0.489499,-1.183592 -1.921886,-1.7880818 -3.15077,-1.394448 z"
         id="path3735"
         sodipodi:nodetypes="sssss" />
      <path
         style="color:#000000;fill:#1575e5;stroke-width:0.998312;stroke-linecap:round"
         d="m 63.539411,8.1635028 c 1.22888,-0.3936337 2.661272,0.2108596 3.150771,1.3944477 0.489498,1.1835885 -0.166266,2.4569545 -1.395147,2.8505875 -1.228881,0.393632 -2.661273,-0.210859 -3.15077,-1.394448 -0.489498,-1.1835884 0.166266,-2.4569545 1.395146,-2.8505872 z"
         id="path3737"
         sodipodi:nodetypes="sssss" />
      <ellipse
         transform="matrix(-0.9456025,0.32532433,0.3593372,0.93320779,0,0)"
         inkscape:export-ydpi="928.942"
         inkscape:export-xdpi="928.942"
         inkscape:export-filename="C:\Users\Kristof\Dropbox (Personal)\EMBEDOFFICE\embedoffice_com\homepage\chip_bee_01.png"
         ry="6.6704621"
         rx="7.1852145"
         cy="45.243824"
         cx="-60.215687"
         id="ellipse3739"
         style="fill:#a6cfff;fill-opacity:1;stroke:none;stroke-width:1.36492;stroke-linecap:round;stroke-linejoin:miter;stroke-miterlimit:4;stroke-dasharray:none;stroke-dashoffset:0;stroke-opacity:1" />
      <path
         id="path3741"
         style="fill:#1575e5;fill-opacity:1;stroke:none;stroke-width:1.12154;stroke-linecap:butt;stroke-linejoin:round;stroke-miterlimit:4;stroke-dasharray:none;stroke-dashoffset:0;stroke-opacity:1"
         d="M 72.705688,20.789428 A 1.9544187,2.1085299 84.248667 0 0 72,20.912476 a 1.9544187,2.1085299 84.248667 0 0 -1.279541,2.515869 1.9544187,2.1085299 84.248667 0 0 2.691284,1.149902 1.9544187,2.1085299 84.248667 0 0 1.279541,-2.516235 1.9544187,2.1085299 84.248667 0 0 -1.985596,-1.272584 z m -0.172851,0.641603 a 0.52701415,0.67244094 74.333387 0 1 0.530639,0.320068 0.52701415,0.67244094 74.333387 0 1 -0.445312,0.711182 0.52701415,0.67244094 74.333387 0 1 -0.825073,-0.273926 0.52701415,0.67244094 74.333387 0 1 0.445679,-0.711182 0.52701415,0.67244094 74.333387 0 1 0.294067,-0.04614 z" />
      <ellipse
         style="fill:#a6cfff;fill-opacity:1;stroke:none;stroke-width:1.36448;stroke-linecap:round;stroke-linejoin:miter;stroke-miterlimit:4;stroke-dasharray:none;stroke-dashoffset:0;stroke-opacity:1"
         id="ellipse3743"
         cx="-75.914833"
         cy="52.84726"
         rx="6.874567"
         ry="6.6420555"
         inkscape:export-filename="C:\Users\Kristof\Dropbox (Personal)\EMBEDOFFICE\embedoffice_com\homepage\chip_bee_01.png"
         inkscape:export-xdpi="928.942"
         inkscape:export-ydpi="928.942"
         transform="matrix(-0.94014925,0.34076295,0.34328077,0.93923283,0,0)" />
      <path
         id="path3745"
         style="fill:#1575e5;fill-opacity:1;stroke:none;stroke-width:1.09505;stroke-linecap:butt;stroke-linejoin:round;stroke-miterlimit:4;stroke-dasharray:none;stroke-dashoffset:0;stroke-opacity:1"
         d="m 89.492798,21.596191 a 1.9555847,2.0088901 72.859524 0 0 -0.686279,0.123414 1.9555847,2.0088901 72.859524 0 0 -1.217286,2.521362 1.9555847,2.0088901 72.859524 0 0 2.559815,1.152466 1.9555847,2.0088901 72.859524 0 0 1.217285,-2.521363 1.9555847,2.0088901 72.859524 0 0 -1.873535,-1.275879 z m -0.179444,0.643433 a 0.52566048,0.64269735 70.386868 0 1 0.504639,0.320801 0.52566048,0.64269735 70.386868 0 1 -0.423706,0.712646 0.52566048,0.64269735 70.386868 0 1 -0.78479,-0.274658 0.52566048,0.64269735 70.386868 0 1 0.424072,-0.712647 0.52566048,0.64269735 70.386868 0 1 0.279785,-0.04614 z" />
      <path
         style="color:#000000;fill:#a6cfff;fill-opacity:1;stroke-linecap:round;stroke-linejoin:round"
         d="m 77.357422,33.226562 c -0.309582,-0.155325 -0.686464,-0.03028 -0.841797,0.279297 -0.195235,0.387497 -0.137407,0.734979 -0.04883,1.085938 0.08858,0.350959 0.246769,0.716691 0.460937,1.089844 0.428336,0.746304 1.08146,1.522192 1.929688,2.060546 0.848228,0.538355 1.938688,0.824515 3.054687,0.457032 1.116,-0.367483 2.180592,-1.335148 3.146485,-3.060547 0.351529,-0.628294 -0.459819,-1.257008 -0.980469,-0.759766 -0.330627,0.316678 -0.808752,0.471921 -1.433594,0.488281 -0.624841,0.01636 -1.366372,-0.1181 -2.08789,-0.326171 -1.443036,-0.416143 -2.77991,-1.104054 -3.199219,-1.314454 z"
         id="path3747"
         sodipodi:nodetypes="scssssccssss" />
      <path
         id="path3749"
         style="fill:#a6cfff;fill-opacity:1;stroke:none;stroke-width:1.25417;stroke-linecap:round;stroke-linejoin:miter;stroke-miterlimit:4;stroke-dasharray:none;stroke-dashoffset:0;stroke-opacity:1"
         d="m 69.690589,39.65549 c -1.490741,0.758045 -2.953797,1.646787 -4.345464,2.627303 -0.777763,0.547917 0.393762,2.346807 -0.164088,2.982129 L 89.883634,45.10959 c -0.474048,-1.455864 -1.118913,-2.772385 -1.935926,-3.902693 -0.788995,0.438104 -1.61683,0.810255 -2.470073,1.113206 -5.101804,1.811429 -11.264968,1.138001 -15.787046,-2.664613 z" />
      <path
         id="path3751"
         style="fill:#1575e5;fill-opacity:1;stroke:none;stroke-width:1.15272;stroke-linecap:round;stroke-linejoin:round;stroke-miterlimit:4;stroke-dasharray:none;stroke-dashoffset:0;stroke-opacity:1"
         d="m 66.295767,35.641628 c -3.603612,1.622765 -7.64185,4.694436 -10.450586,8.648668 -0.227708,0.320632 -0.447619,0.660062 -0.658253,0.992138 l 10.016952,0.01942 c 1.415986,-2.006927 2.977543,-3.885229 4.638233,-5.520726 -1.345778,-1.10212 -2.551003,-2.476514 -3.546346,-4.139497 z" />
    </g>
  </g>
</svg>
