<?xml version="1.0" encoding="UTF-8" standalone="no"?>
<svg
   fill="none"
   viewBox="0 0 48 48"
   height="256"
   width="256"
   version="1.1"
   id="svg6"
   sodipodi:docname="arm.svg"
   inkscape:version="1.2.1 (9c6d41e410, 2022-07-14)"
   xmlns:inkscape="http://www.inkscape.org/namespaces/inkscape"
   xmlns:sodipodi="http://sodipodi.sourceforge.net/DTD/sodipodi-0.dtd"
   xmlns="http://www.w3.org/2000/svg"
   xmlns:svg="http://www.w3.org/2000/svg">
  <defs
     id="defs10" />
  <sodipodi:namedview
     id="namedview8"
     pagecolor="#ffffff"
     bordercolor="#666666"
     borderopacity="1.0"
     inkscape:showpageshadow="2"
     inkscape:pageopacity="0.0"
     inkscape:pagecheckerboard="true"
     inkscape:deskcolor="#d1d1d1"
     showgrid="true"
     inkscape:zoom="1.1449053"
     inkscape:cx="-15.721824"
     inkscape:cy="82.539578"
     inkscape:current-layer="svg6"
     showguides="false"
     inkscape:window-width="2560"
     inkscape:window-height="1351"
     inkscape:window-x="-9"
     inkscape:window-y="-9"
     inkscape:window-maximized="1">
    <inkscape:grid
       type="xygrid"
       id="grid239"
       units="px"
       spacingx="1.5"
       spacingy="1.5" />
  </sodipodi:namedview>
  <path
     id="path8755-4"
     style="fill:#1a8ca8;fill-opacity:1;stroke-width:2.03168"
     d="M 44.590576 17.56311 A 1.4088804 1.6057133 0 0 0 43.182129 19.168945 A 1.4088804 1.6057133 0 0 0 44.590576 20.774414 A 1.4088804 1.6057133 0 0 0 45.999756 19.168945 A 1.4088804 1.6057133 0 0 0 44.590576 17.56311 z M 16.833984 17.625 L 16.792603 32.48291 L 19.999878 32.483276 L 19.985962 26.522827 L 20.7052 26.522827 C 21.197508 26.522953 21.527486 26.600197 21.751465 26.767456 C 22.24056 27.132698 22.781358 28.21094 23.615845 30.405029 L 24.403198 32.475586 L 27.687744 32.471558 C 27.888228 32.471492 26.138407 27.883803 25.515015 26.793823 C 25.259162 26.346473 24.941105 25.903644 24.807861 25.809814 C 24.471708 25.573095 24.501084 25.471645 24.994263 25.168945 C 25.949706 24.582519 26.587646 23.244654 26.587646 21.826538 C 26.587646 20.310627 25.675368 18.786302 24.35376 18.074707 L 23.581055 17.658691 L 20.253662 17.668213 L 16.833984 17.625 z M 39.511963 17.686157 L 38.534546 18.999023 C 38.080605 19.632767 37.610836 20.273369 37.490479 20.422485 C 37.370122 20.571602 36.891004 21.227254 36.425903 21.879639 C 35.960802 22.532023 35.546077 23.065796 35.504517 23.065796 C 35.462955 23.065796 35.247102 22.806619 35.02478 22.489746 C 34.802457 22.172873 34.011396 21.090275 33.266602 20.08374 C 32.52181 19.077203 31.810329 18.114154 31.685669 17.94397 C 31.601667 17.829293 31.543817 17.718455 31.416138 17.714355 L 28.787842 17.711426 L 28.75708 25.057251 L 28.726318 32.403076 L 29.173462 32.450684 C 29.419344 32.476914 30.102274 32.495898 30.69104 32.492798 L 31.761475 32.487305 L 31.792969 27.97998 C 31.810207 25.500918 31.868211 23.472656 31.922241 23.472656 C 32.050534 23.472656 32.450557 23.986013 33.955811 26.082275 C 35.328004 27.993233 35.56809 28.147218 36.065552 27.436523 C 37.020559 26.072166 38.918552 23.551023 39.017212 23.515503 C 39.095142 23.487447 39.128215 24.990254 39.113525 27.875244 C 39.100985 30.33507 39.137842 32.311215 39.197021 32.352905 C 39.285752 32.415405 41.664178 32.481084 42.140259 32.434204 C 42.258884 32.422514 42.283677 30.897495 42.259277 25.065308 L 42.228516 17.711426 L 39.511963 17.686157 z M 6.9909668 17.689453 L 5.4638672 21.870483 C 4.7705781 23.907308 3.9207816 26.397393 3.5753174 27.403931 C 3.2298532 28.410466 2.7212637 29.892032 2.4455566 30.696533 C 2.1698496 31.501033 1.9711001 32.238245 2.00354 32.334595 C 2.0478516 32.466198 2.4338543 32.505734 3.555542 32.493164 C 4.3767569 32.483962 5.0912415 32.428088 5.1430664 32.369019 C 5.1948919 32.309953 5.4259327 31.671795 5.6564941 30.95105 L 6.0754395 29.640747 L 11.745483 29.640747 L 12.218628 30.996094 C 12.478956 31.741676 12.708071 32.370508 12.727661 32.393188 C 12.747246 32.415868 13.495926 32.446348 14.391357 32.460938 L 16.019531 32.487305 L 15.953979 32.14856 C 15.918023 31.962165 14.691212 28.637648 13.227539 24.76062 L 10.566284 17.711426 L 6.9909668 17.689453 z M 44.590576 17.917603 A 1.0978544 1.2512343 0 0 1 45.688843 19.168945 A 1.0978544 1.2512343 0 0 1 45.378662 20.039795 C 45.359234 19.942335 45.17671 19.470031 45.106934 19.348022 C 45.074954 19.292109 45.035337 19.236706 45.018677 19.224976 C 44.976657 19.195386 44.980098 19.182615 45.041748 19.144775 C 45.161178 19.071473 45.240967 18.904194 45.240967 18.726929 C 45.240967 18.53744 45.127116 18.347129 44.961914 18.258179 L 44.865234 18.206177 L 44.449219 18.207275 L 44.021851 18.201782 L 44.016724 20.059204 L 44.417725 20.059204 L 44.415894 19.314331 L 44.505981 19.314331 C 44.56752 19.314341 44.608719 19.323817 44.636719 19.344727 C 44.697856 19.390383 44.765317 19.525299 44.869629 19.799561 L 44.96814 20.058105 L 45.363647 20.057739 A 1.0978544 1.2512343 0 0 1 44.590576 20.420288 A 1.0978544 1.2512343 0 0 1 43.493042 19.168945 A 1.0978544 1.2512343 0 0 1 44.590576 17.917603 z M 44.553955 18.545288 C 44.560225 18.545184 44.566548 18.545312 44.572632 18.545288 C 44.755155 18.544577 44.832275 18.605007 44.832275 18.746338 C 44.832275 18.845804 44.792912 18.915138 44.719482 18.944458 L 44.719116 18.944458 C 44.691261 18.955588 44.613721 18.965336 44.546631 18.965698 L 44.41626 18.966797 L 44.415894 18.551514 L 44.534912 18.546021 C 44.54147 18.545727 44.547686 18.545392 44.553955 18.545288 z M 21.240967 20.372314 C 22.701134 20.366631 23.31665 20.85189 23.31665 21.982544 C 23.31665 22.778233 23.000596 23.3322 22.413208 23.566772 C 22.190368 23.655762 21.568967 23.732062 21.032227 23.735962 L 19.990356 23.743652 L 19.985962 20.422485 L 20.937744 20.380005 C 21.042666 20.375309 21.143622 20.372693 21.240967 20.372314 z M 8.7279053 21.435791 C 8.7542857 21.429256 8.7923622 21.446991 8.8249512 21.484131 C 8.9703162 21.649805 10.740014 26.79254 10.687134 26.89563 L 7.0341797 26.885742 C 6.9405558 26.885487 8.5695747 21.642976 8.7059326 21.450439 C 8.7114331 21.442674 8.7191118 21.437969 8.7279053 21.435791 z " />
  <rect
     y="1.9998795"
     x="1.9999546"
     height="43.999771"
     width="43.999771"
     id="rect15767-50-21"
     style="fill:none;fill-opacity:1;stroke:#000000;stroke-width:0;stroke-linecap:round;stroke-linejoin:round;stroke-miterlimit:10;stroke-dasharray:none;stroke-dashoffset:0;stroke-opacity:1" />
</svg>
