<?xml version="1.0" encoding="UTF-8" standalone="no"?>
<svg
   fill="none"
   viewBox="0 0 48 48"
   height="256"
   width="256"
   version="1.1"
   id="svg6"
   sodipodi:docname="atmosic.svg"
   inkscape:version="1.2.1 (9c6d41e410, 2022-07-14)"
   xmlns:inkscape="http://www.inkscape.org/namespaces/inkscape"
   xmlns:sodipodi="http://sodipodi.sourceforge.net/DTD/sodipodi-0.dtd"
   xmlns="http://www.w3.org/2000/svg"
   xmlns:svg="http://www.w3.org/2000/svg">
  <defs
     id="defs10" />
  <sodipodi:namedview
     id="namedview8"
     pagecolor="#ffffff"
     bordercolor="#666666"
     borderopacity="1.0"
     inkscape:showpageshadow="2"
     inkscape:pageopacity="0.0"
     inkscape:pagecheckerboard="true"
     inkscape:deskcolor="#d1d1d1"
     showgrid="true"
     inkscape:zoom="1.6191406"
     inkscape:cx="99.435466"
     inkscape:cy="118.89023"
     inkscape:current-layer="svg6"
     showguides="false"
     inkscape:window-width="1920"
     inkscape:window-height="730"
     inkscape:window-x="-6"
     inkscape:window-y="-6"
     inkscape:window-maximized="1">
    <inkscape:grid
       type="xygrid"
       id="grid239"
       units="px"
       spacingx="1.5"
       spacingy="1.5" />
  </sodipodi:namedview>
  <rect
     y="1.9998795"
     x="1.9999546"
     height="43.999771"
     width="43.999771"
     id="rect15767-50-21"
     style="fill:none;fill-opacity:1;stroke:#000000;stroke-width:0;stroke-linecap:round;stroke-linejoin:round;stroke-miterlimit:10;stroke-dasharray:none;stroke-dashoffset:0;stroke-opacity:1" />
  <path
     id="path4379"
     style="fill:#204a87;fill-opacity:1;stroke-width:0.0309285"
     d="m 4.4915553,17.982705 -1.7766016,4.519746 c -0.9771887,2.485811 -1.78122396,4.531735 -1.78681086,4.546473 -0.00581,0.01718 0.26123286,0.02544 0.59288526,0.02544 h 0.6031466 l 0.1538842,-0.394389 c 0.083249,-0.21705 0.2965505,-0.76665 0.471733,-1.221642 l 0.3188166,-0.827368 h 1.9369684 1.9371923 l 0.288735,0.75003 c 0.1586036,0.412569 0.3713964,0.96223 0.4723907,1.221642 l 0.1844084,0.471672 H 8.442854 c 0.4575215,0 0.5545485,-0.0083 0.5545485,-0.04359 0,-0.02544 0.01498,-0.04932 0.03569,-0.05559 0.01994,-0.0045 0.02596,-0.03819 0.01238,-0.08023 -0.01186,-0.03818 -0.03243,-0.0628 -0.04321,-0.05527 -0.01125,0.0083 -0.8004238,-1.982587 -1.7516785,-4.422284 L 5.5218957,17.981136 H 5.008376 Z m 6.6834357,1.237139 c -0.02438,0 -0.276494,0.05737 -0.556783,0.127288 l -0.509572,0.127289 v 0.769344 0.769345 H 9.6292735 9.1498545 v 0.525746 0.525802 h 0.479419 0.4793625 v 1.717826 c 0,1.851125 0.0094,1.992425 0.167644,2.345191 0.221082,0.494937 0.694802,0.855172 1.286096,0.977859 0.217899,0.04496 0.728035,0.01265 0.966255,-0.0608 0.287384,-0.0895 0.608838,-0.237302 0.629154,-0.289281 0.0089,-0.02544 -0.04699,-0.187916 -0.128455,-0.364434 -0.08139,-0.176587 -0.16929,-0.379184 -0.200596,-0.450296 l -0.05508,-0.129133 -0.226434,0.113692 c -0.211076,0.105966 -0.245443,0.113682 -0.504579,0.113682 -0.321722,-2.56e-4 -0.471534,-0.05988 -0.627885,-0.249549 C 11.228591,25.564768 11.22259,25.49341 11.22259,23.694257 v -1.629546 h 0.927745 0.928149 v -0.52575 -0.52577 h -0.928281 -0.927754 v -0.896926 c 0,-0.782053 -0.0056,-0.896906 -0.046,-0.896906 z m -6.1695418,0.433554 c 0.011313,8.7e-5 1.3264575,3.379813 1.4754218,3.793386 l 0.038018,0.10325 H 5.0048915 3.4912253 l 0.060541,-0.162622 c 0.4569568,-1.204066 1.4419314,-3.734143 1.4536722,-3.73406 z m 37.6777128,1.236585 c -0.476686,0 -0.745563,0.05614 -1.395521,0.293505 -0.350362,0.12808 -0.873581,0.570632 -1.14331,0.968278 -0.180489,0.266033 -0.357382,0.647017 -0.454808,0.980619 -0.101871,0.344171 -0.134068,0.976591 -0.07647,1.379155 0.196243,1.338571 1.234828,2.380872 2.586573,2.594036 0.509903,0.08023 1.274418,-0.02544 1.755906,-0.243243 0.438497,-0.198452 1.164399,-0.757351 1.164399,-0.896504 0,-0.04462 -0.308291,-0.365255 -0.613276,-0.638007 l -0.102949,-0.09229 -0.06726,0.08093 c -0.108306,0.128748 -0.502148,0.418913 -0.710644,0.521036 -0.326689,0.160002 -0.661849,0.227611 -1.04034,0.209429 -0.540693,-0.02532 -0.910507,-0.185422 -1.307451,-0.564151 -0.458301,-0.437199 -0.67868,-1.230254 -0.536584,-1.930895 0.0842,-0.414658 0.261171,-0.739796 0.574346,-1.055343 0.40114,-0.403697 0.788959,-0.563972 1.362606,-0.562718 0.525533,10e-4 1.066693,0.207343 1.447831,0.552561 l 0.188343,0.170649 0.371895,-0.331908 c 0.204819,-0.182915 0.371848,-0.348801 0.371848,-0.369477 0,-0.09761 -0.607608,-0.59158 -0.867684,-0.705355 -0.579407,-0.253775 -1.024992,-0.360224 -1.507043,-0.360224 z m -9.278574,0.0084 c -0.325167,0.01694 -0.591767,0.08027 -0.902221,0.212386 -0.358973,0.152902 -0.507395,0.25296 -0.707171,0.477177 -0.562667,0.63147 -0.537533,1.5513 0.05999,2.142161 0.350811,0.34754 0.821652,0.552467 1.777203,0.773448 0.831044,0.192119 1.167872,0.387214 1.268921,0.734674 0.04271,0.154675 0.04271,0.173082 -0.01023,0.298108 -0.184409,0.415103 -0.958483,0.649672 -1.661191,0.502687 -0.406778,-0.08523 -1.012061,-0.453693 -1.281489,-0.780409 -0.108339,-0.129134 -0.04753,-0.15878 -0.535528,0.265211 -0.184408,0.158779 -0.332801,0.303617 -0.332801,0.321351 0,0.06377 0.285726,0.365679 0.535198,0.565301 0.404859,0.323887 0.959855,0.581454 1.428833,0.662782 0.101783,0.01718 0.220374,0.03817 0.26303,0.04568 0.152401,0.02544 0.823422,-0.0083 1.036005,-0.05527 0.760386,-0.166083 1.304841,-0.536041 1.55111,-1.054598 0.102938,-0.216617 0.115652,-0.271937 0.128588,-0.554065 0.02385,-0.55818 -0.101783,-0.911513 -0.450767,-1.253867 -0.34181,-0.335314 -0.78398,-0.531891 -1.642674,-0.72976 -0.861403,-0.198459 -0.975809,-0.237303 -1.199147,-0.404116 -0.440431,-0.330223 -0.232614,-0.907652 0.394707,-1.098211 0.286759,-0.08739 0.77789,-0.07312 1.07892,0.02947 0.248196,0.08533 0.555218,0.263904 0.752067,0.437491 l 0.15071,0.130836 0.124555,-0.120483 c 0.06802,-0.0664 0.237611,-0.244087 0.37622,-0.395256 l 0.251747,-0.274469 -0.15386,-0.139743 c -0.479332,-0.435007 -1.197505,-0.707642 -1.947789,-0.739485 -0.124529,-0.0042 -0.240283,-0.0042 -0.348842,-5.46e-4 z m -6.269879,0.0084 c -0.442176,0 -0.527196,0.0084 -0.797589,0.08371 -1.349517,0.372447 -2.271243,1.499079 -2.333653,2.852469 -0.02358,0.542199 0.07251,1.012635 0.307155,1.484598 0.443139,0.889711 1.282293,1.524557 2.246976,1.699104 1.19708,0.216647 2.443007,-0.282497 3.138055,-1.256345 1.264328,-1.77146 0.371354,-4.190382 -1.763784,-4.779797 -0.270333,-0.0748 -0.35522,-0.08371 -0.797577,-0.08371 z m 18.294131,0.01272 v 0.07724 c 0,0.07222 0.0098,0.07724 0.153836,0.07724 h 0.153886 v 0.479447 0.479346 h 0.07735 0.07976 v -0.479255 -0.479442 h 0.153931 c 0.142721,0 0.153884,-0.0042 0.153884,-0.07724 v -0.07733 h -0.386515 z m 0.896835,0 v 0.556749 4e-5 0.556768 h 0.07819 0.07899 l 2.2e-4,-0.409592 3.15e-4,-0.409591 0.176414,0.289686 c 0.200596,0.329788 0.163922,0.334021 0.397884,-0.04236 l 0.134037,-0.21662 1.95e-4,0.394395 2.95e-4,0.394403 h 0.07822 0.07978 V 21.47658 20.919836 h -0.07403 c -0.06123,0 -0.105116,0.05004 -0.236916,0.264339 -0.08953,0.1453 -0.171132,0.269422 -0.182379,0.276173 -0.01078,0.0042 -0.0966,-0.112267 -0.188072,-0.263905 C 46.523052,20.95702 46.488536,20.92027 46.414923,20.92027 Z m -29.253265,5.5e-4 c -0.620543,0.0011 -1.142357,0.257599 -1.484604,0.730095 l -0.144185,0.198458 -0.0084,-0.387218 -0.0077,-0.387215 h -0.50919 -0.509345 v 3.0001 3.00005 h 0.556801 0.556791 v -2.103821 -2.103903 l 0.127145,-0.198886 c 0.237611,-0.376678 0.598563,-0.637074 0.961426,-0.694432 0.221861,-0.03369 0.549432,0.0084 0.748901,0.105745 0.186202,0.08785 0.412714,0.312503 0.511188,0.505346 0.152402,0.296447 0.155592,0.379636 0.155592,2.502786 l 2.47e-4,1.987191 h 0.556795 0.556787 v -2.082416 -2.082032 l 0.116608,-0.193825 c 0.15543,-0.257989 0.395789,-0.496955 0.617523,-0.615129 0.591091,-0.315009 1.397114,-0.06801 1.650728,0.505558 0.144199,0.322626 0.150712,0.438245 0.150712,2.511188 l 5.07e-4,1.956194 h 0.558144 0.558133 l -0.0091,-2.219102 -0.0097,-2.2191 -0.08687,-0.277437 c -0.113,-0.364443 -0.245228,-0.606478 -0.453599,-0.832321 -0.219249,-0.237765 -0.473902,-0.401163 -0.786336,-0.504612 -0.22322,-0.07364 -0.297871,-0.0831 -0.698367,-0.08481 -0.39078,-0.0021 -0.47639,0.0084 -0.664956,0.07045 -0.409532,0.136712 -0.75232,0.393551 -1.003933,0.751592 l -0.147464,0.21071 -0.112064,-0.181174 c -0.338281,-0.54647 -0.988707,-0.869781 -1.747686,-0.86849 z m 20.160279,0.123227 v 2.969126 2.969147 h 0.556794 0.556789 v -2.968982 -2.969102 h -0.556789 z m -10.098086,0.855405 c 0.347696,0 0.43418,0.0084 0.639172,0.07846 0.676162,0.223804 1.169418,0.700824 1.397544,1.351101 0.08229,0.237239 0.09263,0.306917 0.09555,0.637597 0.0019,0.329368 -0.0075,0.401986 -0.08955,0.645034 -0.217472,0.663316 -0.738988,1.167967 -1.425816,1.37957 -0.243423,0.07505 -0.743936,0.107701 -0.981718,0.06406 -0.78228,-0.143189 -1.412824,-0.677827 -1.674093,-1.420197 -0.0842,-0.242392 -0.09256,-0.301926 -0.09256,-0.653193 0,-0.351338 0.0077,-0.410879 0.09256,-0.653099 0.229665,-0.651323 0.721972,-1.127232 1.397819,-1.35113 0.204927,-0.06793 0.291556,-0.07846 0.639182,-0.07846 z" />
</svg>
