<?xml version="1.0" encoding="UTF-8" standalone="no"?>
<svg
   fill="none"
   viewBox="0 0 48 48"
   height="256"
   width="256"
   version="1.1"
   id="svg6"
   sodipodi:docname="dangerous_prototypes.svg"
   inkscape:version="1.2.1 (9c6d41e410, 2022-07-14)"
   xmlns:inkscape="http://www.inkscape.org/namespaces/inkscape"
   xmlns:sodipodi="http://sodipodi.sourceforge.net/DTD/sodipodi-0.dtd"
   xmlns="http://www.w3.org/2000/svg"
   xmlns:svg="http://www.w3.org/2000/svg">
  <defs
     id="defs10" />
  <sodipodi:namedview
     id="namedview8"
     pagecolor="#ffffff"
     bordercolor="#666666"
     borderopacity="1.0"
     inkscape:showpageshadow="2"
     inkscape:pageopacity="0.0"
     inkscape:pagecheckerboard="true"
     inkscape:deskcolor="#d1d1d1"
     showgrid="true"
     inkscape:zoom="3.2382812"
     inkscape:cx="149.1532"
     inkscape:cy="166.60073"
     inkscape:current-layer="svg6"
     showguides="false"
     inkscape:window-width="2560"
     inkscape:window-height="1351"
     inkscape:window-x="-9"
     inkscape:window-y="-9"
     inkscape:window-maximized="1">
    <inkscape:grid
       type="xygrid"
       id="grid239"
       units="px"
       spacingx="1.5"
       spacingy="1.5" />
  </sodipodi:namedview>
  <path
     style="fill:#ffa53a;fill-opacity:1;stroke:none;stroke-width:0.375;stroke-linecap:round;stroke-linejoin:round"
     d="m 27,3 19.5,36 c 1.5,3 0,6 -1.5,6 H 3 C 1.5,45 0,42 1.5,39 L 21,3 c 1.5,-3 4.5,-3 6,0 z"
     id="path37559"
     sodipodi:nodetypes="ccccccc" />
  <path
     id="path38083"
     style="fill:#150b00;fill-opacity:1;stroke:none;stroke-width:0.375;stroke-linecap:round;stroke-linejoin:round"
     d="m 24,7.799927 c -0.899992,0 -1.800154,0.599935 -2.400146,1.799927 L 6,37.200073 C 4.8000096,39.600057 6.0000828,42 7.2000732,42 H 40.799927 C 41.999919,42 43.199992,39.600057 42,37.200073 L 26.400146,9.599854 C 25.800154,8.399862 24.899992,7.799927 24,7.799927 Z m 0,7.812011 c 0.575992,0 1.151889,0.384108 1.535889,1.1521 l 9.984008,17.663818 C 36.287897,35.963847 35.519945,37.5 34.751953,37.5 H 23.002075 v 0.765747 c 0.270718,0.243831 0.57605,0.484816 0.57605,0.874878 v 1.097534 c 0,0.728556 -0.597494,1.326416 -1.32605,1.326416 -0.728556,0 -1.328247,-0.59786 -1.328247,-1.326416 v -1.097534 c 0,-0.39062 0.306946,-0.631063 0.578247,-0.874878 V 37.5 h -2.25 v 0.765747 c 0.270718,0.243831 0.57605,0.484816 0.57605,0.874878 v 1.097534 c 0,0.728555 -0.597495,1.326416 -1.32605,1.326416 -0.728555,0 -1.328247,-0.597861 -1.328247,-1.326416 v -1.097534 c 0,-0.39062 0.306946,-0.631063 0.578247,-0.874878 V 37.5 h -2.25 v 0.765747 c 0.270718,0.243831 0.57605,0.484816 0.57605,0.874878 v 1.097534 c 0,0.728554 -0.597496,1.326416 -1.32605,1.326416 -0.728554,0 -1.328247,-0.597862 -1.328247,-1.326416 v -1.097534 c 0,-0.39062 0.306946,-0.631063 0.578247,-0.874878 V 37.5 h -0.754028 c -0.558949,0 -1.117187,-0.813894 -1.083985,-1.848999 l -0.411987,0.411621 v 2.203125 c 0.270718,0.243831 0.57605,0.484816 0.57605,0.874878 v 1.097534 c 0,0.728553 -0.597497,1.326416 -1.32605,1.326416 -0.728553,0 -1.3282469,-0.597863 -1.3282469,-1.326416 v -1.097534 c 0,-0.39062 0.3069494,-0.631063 0.5782469,-0.874878 v -2.513672 c 4.23e-4,-0.197524 0.07933,-0.387296 0.218628,-0.527344 -2e-6,-7e-4 -2e-6,-0.0015 0,-0.0022 l 2.500122,-2.501953 C 13.111209,32.580554 13.301769,32.502092 13.5,32.501953 h 0.0018 c 0.02174,-6e-6 0.04366,0.0011 0.06519,0.0029 l 3.558471,-6.295532 -0.671997,-0.387818 c -0.346522,0.11253 -0.708095,0.256554 -1.045898,0.06152 L 14.456909,25.334106 C 13.825959,24.969827 13.6074,24.153411 13.97168,23.522461 14.335959,22.89151 15.153107,22.671121 15.784058,23.0354 l 0.950683,0.548951 c 0.338287,0.195309 0.39325,0.581005 0.46875,0.937866 l 0.659912,0.381225 0.864258,-1.52893 -0.666138,-0.384522 c -0.346521,0.11253 -0.708094,0.256553 -1.045898,0.06152 l -0.950684,-0.54858 c -0.630949,-0.36428 -0.849509,-1.180694 -0.485229,-1.811646 0.36428,-0.630949 1.181426,-0.85134 1.812378,-0.48706 l 0.950683,0.548584 c 0.338286,0.195308 0.393252,0.581371 0.46875,0.938232 l 0.654419,0.377564 0.872681,-1.543946 -0.669067,-0.386352 c -0.346523,0.11253 -0.708095,0.256554 -1.045899,0.06152 l -0.950683,-0.548584 c -0.630951,-0.36428 -0.849507,-1.180696 -0.48523,-1.811645 0.36428,-0.630951 1.181429,-0.851341 1.812378,-0.487061 l 0.950684,0.548584 c 0.338283,0.19531 0.39325,0.581374 0.46875,0.938232 l 0.656982,0.379395 1.387573,-2.454712 c 0.384,-0.767992 0.959897,-1.1521 1.535889,-1.1521 z" />
  <text
     xml:space="preserve"
     style="font-style:normal;font-variant:normal;font-weight:normal;font-stretch:normal;font-size:25px;font-family:Inconsolata;-inkscape-font-specification:'Inconsolata, Normal';font-variant-ligatures:normal;font-variant-caps:normal;font-variant-numeric:normal;font-variant-east-asian:normal;fill:#150b00;fill-opacity:1;stroke:none;stroke-width:0.375;stroke-linecap:round;stroke-linejoin:round"
     x="18.012501"
     y="35.212502"
     id="text38143"><tspan
       sodipodi:role="line"
       id="tspan38141"
       style="font-style:normal;font-variant:normal;font-weight:normal;font-stretch:normal;font-size:25px;font-family:Inconsolata;-inkscape-font-specification:'Inconsolata, Normal';font-variant-ligatures:normal;font-variant-caps:normal;font-variant-numeric:normal;font-variant-east-asian:normal;stroke-width:0.375"
       x="18.012501"
       y="35.212502">!</tspan></text>
  <g
     id="path39975"
     style="fill:#ffa53a;fill-opacity:1;stroke:none"
     transform="translate(-0.9375,-18.75)" />
  <path
     id="path40056"
     style="fill:#150b00;fill-opacity:1;stroke:none;stroke-width:0.375;stroke-linecap:round;stroke-linejoin:round"
     d="m 13.333374,32.918335 c -0.01417,0.0071 -0.02854,0.01381 -0.04175,0.02271 -0.01972,0.01328 -0.03823,0.02839 -0.0553,0.04541 l -2.500122,2.501953 c -0.01742,0.01752 -0.03303,0.03648 -0.04651,0.05676 -0.01348,0.02028 -0.02479,0.04205 -0.03406,0.06445 -0.0093,0.0224 -0.01644,0.0457 -0.02124,0.06958 -0.0048,0.02388 -0.0073,0.04817 -0.0073,0.07288 v 2.686524 c -0.02127,0.0091 -0.04219,0.01878 -0.06262,0.0293 -0.02044,0.01052 -0.04053,0.02177 -0.06006,0.03369 -0.01953,0.01192 -0.03856,0.02446 -0.05713,0.03772 -0.01857,0.01326 -0.03667,0.02722 -0.0542,0.04175 -0.01753,0.01453 -0.03447,0.02967 -0.0509,0.04541 -0.01643,0.01574 -0.03234,0.03219 -0.04761,0.04907 -0.01527,0.01688 -0.02991,0.03442 -0.04395,0.05237 -0.01404,0.01795 -0.02754,0.03634 -0.04028,0.0553 -0.01274,0.01896 -0.02451,0.03833 -0.03589,0.05823 -0.01138,0.0199 -0.02228,0.04038 -0.03223,0.06116 -0.01,0.02078 -0.01901,0.04177 -0.02747,0.06335 -0.0085,0.02159 -0.01617,0.04359 -0.02307,0.06592 -0.0069,0.02233 -0.01304,0.0451 -0.01831,0.06812 -0.0053,0.02301 -0.0096,0.04632 -0.01318,0.06995 -0.0036,0.02362 -0.0062,0.04761 -0.0081,0.07178 -0.0018,0.02417 -0.0029,0.04859 -0.0029,0.07324 v 0.922486 c 0,0.03296 0.0015,0.06534 0.0048,0.09741 0.0032,0.03208 0.0083,0.06381 0.01465,0.09485 0.0063,0.03104 0.01383,0.06171 0.02307,0.09155 0.0092,0.02984 0.02022,0.05904 0.03223,0.08752 0.01201,0.02849 0.0253,0.05615 0.03992,0.08313 0.01462,0.02698 0.03054,0.05306 0.04761,0.07837 0.01707,0.02531 0.0352,0.04976 0.05457,0.07324 0.01937,0.02348 0.03965,0.04625 0.06116,0.06775 0.0215,0.0215 0.04427,0.04179 0.06775,0.06116 0.02348,0.01936 0.04793,0.0375 0.07324,0.05457 0.02531,0.01707 0.05139,0.03299 0.07837,0.04761 0.02698,0.01462 0.05464,0.02791 0.08313,0.03992 0.02849,0.01201 0.05768,0.02298 0.08752,0.03223 0.02984,0.0092 0.06052,0.01675 0.09155,0.02307 0.03104,0.0063 0.06277,0.01141 0.09485,0.01465 0.03208,0.0032 0.06445,0.0048 0.09741,0.0048 h 0.0011 c 0.03296,0 0.0657,-0.0015 0.09778,-0.0048 0.03208,-0.0032 0.06344,-0.0083 0.09448,-0.01465 0.03104,-0.0063 0.06171,-0.01383 0.09155,-0.02307 0.02984,-0.0092 0.05904,-0.02022 0.08752,-0.03223 0.02849,-0.01201 0.05615,-0.0253 0.08313,-0.03992 0.02698,-0.01462 0.05306,-0.03054 0.07837,-0.04761 0.02531,-0.01707 0.04976,-0.0352 0.07324,-0.05457 0.02348,-0.01937 0.04625,-0.03965 0.06775,-0.06116 0.0215,-0.0215 0.04179,-0.04426 0.06116,-0.06775 0.01936,-0.02349 0.0375,-0.04793 0.05457,-0.07324 0.01707,-0.02531 0.03299,-0.05139 0.04761,-0.07837 0.01462,-0.02698 0.02791,-0.05464 0.03992,-0.08313 0.01201,-0.02849 0.02299,-0.05768 0.03223,-0.08752 0.0092,-0.02984 0.01675,-0.06052 0.02307,-0.09155 0.0063,-0.03104 0.01141,-0.06277 0.01465,-0.09485 0.0032,-0.03208 0.0048,-0.06445 0.0048,-0.09741 v -0.922486 c 0,-0.02463 -7.45e-4,-0.04909 -0.0026,-0.07324 -0.0018,-0.02415 -0.0049,-0.04817 -0.0084,-0.07178 -0.0036,-0.02361 -0.0079,-0.04658 -0.01318,-0.06958 -0.0053,-0.02299 -0.01143,-0.0458 -0.01831,-0.06811 -0.0069,-0.02232 -0.01427,-0.04434 -0.02271,-0.06592 -0.0084,-0.02157 -0.01791,-0.04259 -0.02783,-0.06336 -0.0099,-0.02077 -0.02051,-0.04127 -0.03186,-0.06116 -0.01135,-0.01989 -0.02318,-0.03928 -0.03589,-0.05823 -0.01271,-0.01895 -0.02628,-0.03735 -0.04028,-0.0553 -0.01401,-0.01794 -0.02871,-0.0355 -0.04395,-0.05237 -0.01524,-0.01687 -0.03084,-0.03334 -0.04724,-0.04907 -0.0164,-0.01573 -0.0334,-0.03088 -0.0509,-0.04541 -0.0175,-0.01453 -0.03566,-0.02812 -0.0542,-0.04138 -0.01854,-0.01326 -0.03763,-0.02616 -0.05713,-0.03809 -0.01951,-0.01193 -0.03928,-0.02316 -0.05969,-0.03369 -0.02041,-0.01053 -0.04138,-0.02024 -0.06262,-0.0293 v -2.530884 l 0.875977,-0.875977 c 0.05138,-0.19905 0.125766,-0.401679 0.227051,-0.604248 z m -2.346313,6.341675 a 0.48618925,0.51689589 0 0 1 0.05859,0.0037 0.48618925,0.51689589 0 0 1 0.05786,0.01135 0.48618925,0.51689589 0 0 1 0.05603,0.01868 0.48618925,0.51689589 0 0 1 0.05347,0.02564 0.48618925,0.51689589 0 0 1 0.05017,0.03223 0.48618925,0.51689589 0 0 1 0.04614,0.03845 0.48618925,0.51689589 0 0 1 0.04138,0.04431 0.48618925,0.51689589 0 0 1 0.03626,0.04907 0.48618925,0.51689589 0 0 1 0.0304,0.05347 0.48618925,0.51689589 0 0 1 0.02417,0.05676 0.48618925,0.51689589 0 0 1 0.01758,0.05969 0.48618925,0.51689589 0 0 1 0.01025,0.06152 0.48618925,0.51689589 0 0 1 0.0037,0.06226 0.48618925,0.51689589 0 0 1 -0.0238,0.159668 0.48618925,0.51689589 0 0 1 -0.06921,0.14392 0.48618925,0.51689589 0 0 1 -0.1073,0.114258 0.48618925,0.51689589 0 0 1 -0.135498,0.07361 0.48618925,0.51689589 0 0 1 -0.150146,0.02527 0.48618925,0.51689589 0 0 1 -0.150147,-0.02527 0.48618925,0.51689589 0 0 1 -0.135498,-0.07324 0.48618925,0.51689589 0 0 1 -0.107666,-0.114257 0.48618925,0.51689589 0 0 1 -0.06921,-0.144287 0.48618925,0.51689589 0 0 1 -0.0238,-0.159668 0.48618925,0.51689589 0 0 1 0.0238,-0.159668 0.48618925,0.51689589 0 0 1 0.06885,-0.144287 0.48618925,0.51689589 0 0 1 0.107666,-0.114258 0.48618925,0.51689589 0 0 1 0.135864,-0.07361 0.48618925,0.51689589 0 0 1 0.150147,-0.02527 z" />
  <path
     id="path40063"
     style="fill:#150b00;fill-opacity:1;stroke:none;stroke-width:0.375;stroke-linecap:round;stroke-linejoin:round"
     d="m 14.377075,37.5 v 0.938599 c -0.02127,0.0091 -0.04219,0.01878 -0.06262,0.0293 -0.02044,0.01052 -0.04053,0.02177 -0.06006,0.03369 -0.01953,0.01192 -0.03856,0.02446 -0.05713,0.03772 -0.01857,0.01326 -0.03667,0.02722 -0.0542,0.04175 -0.01753,0.01453 -0.03447,0.02967 -0.0509,0.04541 -0.01643,0.01574 -0.03234,0.03219 -0.04761,0.04907 -0.01527,0.01688 -0.02991,0.03442 -0.04395,0.05237 -0.01404,0.01795 -0.02754,0.03634 -0.04028,0.0553 -0.01274,0.01896 -0.02451,0.03833 -0.03589,0.05823 -0.01138,0.0199 -0.02228,0.04038 -0.03223,0.06116 -0.01,0.02078 -0.01901,0.04177 -0.02747,0.06335 -0.0085,0.02159 -0.01617,0.04359 -0.02307,0.06592 -0.0069,0.02233 -0.01304,0.0451 -0.01831,0.06812 -0.0053,0.02301 -0.0096,0.04632 -0.01318,0.06995 -0.0036,0.02362 -0.0062,0.04761 -0.0081,0.07178 -0.0018,0.02417 -0.0029,0.04859 -0.0029,0.07324 v 0.922486 c 0,0.03296 0.0015,0.06534 0.0048,0.09741 0.0032,0.03208 0.0083,0.06381 0.01465,0.09485 0.0063,0.03104 0.01383,0.06171 0.02307,0.09155 0.0092,0.02984 0.02022,0.05904 0.03223,0.08752 0.01201,0.02849 0.0253,0.05615 0.03992,0.08313 0.01462,0.02698 0.03054,0.05306 0.04761,0.07837 0.01707,0.02531 0.0352,0.04976 0.05457,0.07324 0.01937,0.02348 0.03965,0.04625 0.06116,0.06775 0.0215,0.0215 0.04427,0.04179 0.06775,0.06116 0.02348,0.01936 0.04793,0.0375 0.07324,0.05457 0.02531,0.01707 0.05139,0.03299 0.07837,0.04761 0.02698,0.01462 0.05464,0.02791 0.08313,0.03992 0.02849,0.01201 0.05768,0.02298 0.08752,0.03223 0.02984,0.0092 0.06052,0.01675 0.09155,0.02307 0.03104,0.0063 0.06277,0.01141 0.09485,0.01465 0.03208,0.0032 0.06445,0.0048 0.09741,0.0048 h 0.0011 c 0.03296,0 0.0657,-0.0015 0.09778,-0.0048 0.03208,-0.0032 0.06344,-0.0083 0.09448,-0.01465 0.03104,-0.0063 0.06171,-0.01383 0.09155,-0.02307 0.02984,-0.0092 0.05904,-0.02022 0.08752,-0.03223 0.02849,-0.01201 0.05615,-0.0253 0.08313,-0.03992 0.02698,-0.01462 0.05306,-0.03054 0.07837,-0.04761 0.02531,-0.01707 0.04976,-0.0352 0.07324,-0.05457 0.02348,-0.01937 0.04625,-0.03965 0.06775,-0.06116 0.0215,-0.0215 0.04179,-0.04426 0.06116,-0.06775 0.01936,-0.02349 0.0375,-0.04793 0.05457,-0.07324 0.01707,-0.02531 0.03299,-0.05139 0.04761,-0.07837 0.01462,-0.02698 0.02791,-0.05464 0.03992,-0.08313 0.01201,-0.02849 0.02299,-0.05768 0.03223,-0.08752 0.0092,-0.02984 0.01675,-0.06052 0.02307,-0.09155 0.0063,-0.03104 0.01141,-0.06277 0.01465,-0.09485 0.0032,-0.03208 0.0048,-0.06445 0.0048,-0.09741 v -0.922486 c 0,-0.02463 -7.45e-4,-0.04909 -0.0026,-0.07324 -0.0018,-0.02415 -0.0049,-0.04817 -0.0084,-0.07178 -0.0036,-0.02361 -0.0079,-0.04658 -0.01318,-0.06958 -0.0053,-0.02299 -0.01143,-0.0458 -0.01831,-0.06811 -0.0069,-0.02232 -0.01427,-0.04434 -0.02271,-0.06592 -0.0084,-0.02157 -0.01791,-0.04259 -0.02783,-0.06336 -0.0099,-0.02077 -0.02051,-0.04127 -0.03186,-0.06116 -0.01135,-0.01989 -0.02318,-0.03928 -0.03589,-0.05823 -0.01271,-0.01895 -0.02628,-0.03735 -0.04028,-0.0553 -0.01401,-0.01794 -0.02871,-0.0355 -0.04395,-0.05237 -0.01524,-0.01687 -0.03084,-0.03334 -0.04724,-0.04907 -0.0164,-0.01573 -0.0334,-0.03088 -0.0509,-0.04541 -0.0175,-0.01453 -0.03566,-0.02812 -0.0542,-0.04138 -0.01854,-0.01326 -0.03763,-0.02616 -0.05713,-0.03809 -0.01951,-0.01193 -0.03928,-0.02316 -0.05969,-0.03369 -0.02041,-0.01053 -0.04138,-0.02024 -0.06262,-0.0293 V 37.5 Z m 0.359986,1.76001 a 0.48618925,0.51689589 0 0 1 0.05859,0.0037 0.48618925,0.51689589 0 0 1 0.05786,0.01135 0.48618925,0.51689589 0 0 1 0.05603,0.01868 0.48618925,0.51689589 0 0 1 0.05347,0.02564 0.48618925,0.51689589 0 0 1 0.05017,0.03223 0.48618925,0.51689589 0 0 1 0.04614,0.03845 0.48618925,0.51689589 0 0 1 0.04138,0.04431 0.48618925,0.51689589 0 0 1 0.03626,0.04907 0.48618925,0.51689589 0 0 1 0.0304,0.05347 0.48618925,0.51689589 0 0 1 0.02417,0.05676 0.48618925,0.51689589 0 0 1 0.01758,0.05969 0.48618925,0.51689589 0 0 1 0.01025,0.06152 0.48618925,0.51689589 0 0 1 0.0037,0.06226 0.48618925,0.51689589 0 0 1 -0.0238,0.159668 0.48618925,0.51689589 0 0 1 -0.06921,0.14392 0.48618925,0.51689589 0 0 1 -0.1073,0.114258 0.48618925,0.51689589 0 0 1 -0.135498,0.07361 0.48618925,0.51689589 0 0 1 -0.150146,0.02527 0.48618925,0.51689589 0 0 1 -0.150147,-0.02527 0.48618925,0.51689589 0 0 1 -0.135498,-0.07324 0.48618925,0.51689589 0 0 1 -0.107666,-0.114257 0.48618925,0.51689589 0 0 1 -0.06921,-0.144287 0.48618925,0.51689589 0 0 1 -0.0238,-0.159668 0.48618925,0.51689589 0 0 1 0.0238,-0.159668 0.48618925,0.51689589 0 0 1 0.06885,-0.144287 0.48618925,0.51689589 0 0 1 0.107666,-0.114258 0.48618925,0.51689589 0 0 1 0.135864,-0.07361 0.48618925,0.51689589 0 0 1 0.150147,-0.02527 z" />
  <g
     id="g40074"
     style="fill:#ffa53a;fill-opacity:1;stroke:none"
     transform="translate(6.5625,18.75)" />
  <path
     id="path40076"
     style="fill:#150b00;fill-opacity:1;stroke:none;stroke-width:0.375;stroke-linecap:round;stroke-linejoin:round"
     d="m 18.127075,37.5 v 0.938599 c -0.02127,0.0091 -0.04219,0.01878 -0.06262,0.0293 -0.02044,0.01052 -0.04053,0.02177 -0.06006,0.03369 -0.01953,0.01192 -0.03856,0.02446 -0.05713,0.03772 -0.01857,0.01326 -0.03667,0.02722 -0.0542,0.04175 -0.01753,0.01453 -0.03447,0.02967 -0.0509,0.04541 -0.01643,0.01574 -0.03234,0.03219 -0.04761,0.04907 -0.01527,0.01688 -0.02991,0.03442 -0.04395,0.05237 -0.01404,0.01795 -0.02754,0.03634 -0.04028,0.0553 -0.01274,0.01896 -0.02451,0.03833 -0.03589,0.05823 -0.01138,0.0199 -0.02228,0.04038 -0.03223,0.06116 -0.01,0.02078 -0.01901,0.04177 -0.02747,0.06335 -0.0085,0.02159 -0.01617,0.04359 -0.02307,0.06592 -0.0069,0.02233 -0.01304,0.0451 -0.01831,0.06812 -0.0053,0.02301 -0.0096,0.04632 -0.01318,0.06995 -0.0036,0.02362 -0.0062,0.04761 -0.0081,0.07178 -0.0018,0.02417 -0.0029,0.04859 -0.0029,0.07324 v 0.922486 c 0,0.03296 0.0015,0.06534 0.0048,0.09741 0.0032,0.03208 0.0083,0.06381 0.01465,0.09485 0.0063,0.03104 0.01383,0.06171 0.02307,0.09155 0.0092,0.02984 0.02022,0.05904 0.03223,0.08752 0.01201,0.02849 0.0253,0.05615 0.03992,0.08313 0.01462,0.02698 0.03054,0.05306 0.04761,0.07837 0.01707,0.02531 0.0352,0.04976 0.05457,0.07324 0.01937,0.02348 0.03965,0.04625 0.06116,0.06775 0.0215,0.0215 0.04427,0.04179 0.06775,0.06116 0.02348,0.01936 0.04793,0.0375 0.07324,0.05457 0.02531,0.01707 0.05139,0.03299 0.07837,0.04761 0.02698,0.01462 0.05464,0.02791 0.08313,0.03992 0.02849,0.01201 0.05768,0.02298 0.08752,0.03223 0.02984,0.0092 0.06052,0.01675 0.09155,0.02307 0.03104,0.0063 0.06277,0.01141 0.09485,0.01465 0.03208,0.0032 0.06445,0.0048 0.09741,0.0048 h 0.0011 c 0.03296,0 0.0657,-0.0015 0.09778,-0.0048 0.03208,-0.0032 0.06344,-0.0083 0.09448,-0.01465 0.03104,-0.0063 0.06171,-0.01383 0.09155,-0.02307 0.02984,-0.0092 0.05904,-0.02022 0.08752,-0.03223 0.02849,-0.01201 0.05615,-0.0253 0.08313,-0.03992 0.02698,-0.01462 0.05306,-0.03054 0.07837,-0.04761 0.02531,-0.01707 0.04976,-0.0352 0.07324,-0.05457 0.02348,-0.01937 0.04625,-0.03965 0.06775,-0.06116 0.0215,-0.0215 0.04179,-0.04426 0.06116,-0.06775 0.01936,-0.02349 0.0375,-0.04793 0.05457,-0.07324 0.01707,-0.02531 0.03299,-0.05139 0.04761,-0.07837 0.01462,-0.02698 0.02791,-0.05464 0.03992,-0.08313 0.01201,-0.02849 0.02299,-0.05768 0.03223,-0.08752 0.0092,-0.02984 0.01675,-0.06052 0.02307,-0.09155 0.0063,-0.03104 0.01141,-0.06277 0.01465,-0.09485 0.0032,-0.03208 0.0048,-0.06445 0.0048,-0.09741 v -0.922486 c 0,-0.02463 -7.45e-4,-0.04909 -0.0026,-0.07324 -0.0018,-0.02415 -0.0049,-0.04817 -0.0084,-0.07178 -0.0036,-0.02361 -0.0079,-0.04658 -0.01318,-0.06958 -0.0053,-0.02299 -0.01143,-0.0458 -0.01831,-0.06811 -0.0069,-0.02232 -0.01427,-0.04434 -0.02271,-0.06592 -0.0084,-0.02157 -0.01791,-0.04259 -0.02783,-0.06336 -0.0099,-0.02077 -0.02051,-0.04127 -0.03186,-0.06116 -0.01135,-0.01989 -0.02318,-0.03928 -0.03589,-0.05823 -0.01271,-0.01895 -0.02628,-0.03735 -0.04028,-0.0553 -0.01401,-0.01794 -0.02871,-0.0355 -0.04395,-0.05237 -0.01524,-0.01687 -0.03084,-0.03334 -0.04724,-0.04907 -0.0164,-0.01573 -0.0334,-0.03088 -0.0509,-0.04541 -0.0175,-0.01453 -0.03566,-0.02812 -0.0542,-0.04138 -0.01854,-0.01326 -0.03763,-0.02616 -0.05713,-0.03809 -0.01951,-0.01193 -0.03928,-0.02316 -0.05969,-0.03369 -0.02041,-0.01053 -0.04138,-0.02024 -0.06262,-0.0293 V 37.5 Z m 0.359986,1.76001 a 0.48618925,0.51689589 0 0 1 0.05859,0.0037 0.48618925,0.51689589 0 0 1 0.05786,0.01135 0.48618925,0.51689589 0 0 1 0.05603,0.01868 0.48618925,0.51689589 0 0 1 0.05347,0.02564 0.48618925,0.51689589 0 0 1 0.05017,0.03223 0.48618925,0.51689589 0 0 1 0.04614,0.03845 0.48618925,0.51689589 0 0 1 0.04138,0.04431 0.48618925,0.51689589 0 0 1 0.03626,0.04907 0.48618925,0.51689589 0 0 1 0.0304,0.05347 0.48618925,0.51689589 0 0 1 0.02417,0.05676 0.48618925,0.51689589 0 0 1 0.01758,0.05969 0.48618925,0.51689589 0 0 1 0.01025,0.06152 0.48618925,0.51689589 0 0 1 0.0037,0.06226 0.48618925,0.51689589 0 0 1 -0.0238,0.159668 0.48618925,0.51689589 0 0 1 -0.06921,0.14392 0.48618925,0.51689589 0 0 1 -0.1073,0.114258 0.48618925,0.51689589 0 0 1 -0.135498,0.07361 0.48618925,0.51689589 0 0 1 -0.150146,0.02527 0.48618925,0.51689589 0 0 1 -0.150147,-0.02527 0.48618925,0.51689589 0 0 1 -0.135498,-0.07324 0.48618925,0.51689589 0 0 1 -0.107666,-0.114257 0.48618925,0.51689589 0 0 1 -0.06921,-0.144287 0.48618925,0.51689589 0 0 1 -0.0238,-0.159668 0.48618925,0.51689589 0 0 1 0.0238,-0.159668 0.48618925,0.51689589 0 0 1 0.06885,-0.144287 0.48618925,0.51689589 0 0 1 0.107666,-0.114258 0.48618925,0.51689589 0 0 1 0.135864,-0.07361 0.48618925,0.51689589 0 0 1 0.150147,-0.02527 z" />
  <g
     id="g40080"
     style="fill:#ffa53a;fill-opacity:1;stroke:none"
     transform="translate(10.3125,18.75)" />
  <path
     id="path40082"
     style="fill:#150b00;fill-opacity:1;stroke:none;stroke-width:0.375;stroke-linecap:round;stroke-linejoin:round"
     d="m 21.877075,37.5 v 0.938599 c -0.02127,0.0091 -0.04219,0.01878 -0.06262,0.0293 -0.02044,0.01052 -0.04053,0.02177 -0.06006,0.03369 -0.01953,0.01192 -0.03856,0.02446 -0.05713,0.03772 -0.01857,0.01326 -0.03667,0.02722 -0.0542,0.04175 -0.01753,0.01453 -0.03447,0.02967 -0.0509,0.04541 -0.01643,0.01574 -0.03234,0.03219 -0.04761,0.04907 -0.01527,0.01688 -0.02991,0.03442 -0.04395,0.05237 -0.01404,0.01795 -0.02754,0.03634 -0.04028,0.0553 -0.01274,0.01896 -0.02451,0.03833 -0.03589,0.05823 -0.01138,0.0199 -0.02228,0.04038 -0.03223,0.06116 -0.01,0.02078 -0.01901,0.04177 -0.02747,0.06335 -0.0085,0.02159 -0.01617,0.04359 -0.02307,0.06592 -0.0069,0.02233 -0.01304,0.0451 -0.01831,0.06812 -0.0053,0.02301 -0.0096,0.04632 -0.01318,0.06995 -0.0036,0.02362 -0.0062,0.04761 -0.0081,0.07178 -0.0018,0.02417 -0.0029,0.04859 -0.0029,0.07324 v 0.922486 c 0,0.03296 0.0015,0.06534 0.0048,0.09741 0.0032,0.03208 0.0083,0.06381 0.01465,0.09485 0.0063,0.03104 0.01383,0.06171 0.02307,0.09155 0.0092,0.02984 0.02022,0.05904 0.03223,0.08752 0.01201,0.02849 0.0253,0.05615 0.03992,0.08313 0.01462,0.02698 0.03054,0.05306 0.04761,0.07837 0.01707,0.02531 0.0352,0.04976 0.05457,0.07324 0.01937,0.02348 0.03965,0.04625 0.06116,0.06775 0.0215,0.0215 0.04427,0.04179 0.06775,0.06116 0.02348,0.01936 0.04793,0.0375 0.07324,0.05457 0.02531,0.01707 0.05139,0.03299 0.07837,0.04761 0.02698,0.01462 0.05464,0.02791 0.08313,0.03992 0.02849,0.01201 0.05768,0.02298 0.08752,0.03223 0.02984,0.0092 0.06052,0.01675 0.09155,0.02307 0.03104,0.0063 0.06277,0.01141 0.09485,0.01465 0.03208,0.0032 0.06445,0.0048 0.09741,0.0048 h 0.0011 c 0.03296,0 0.0657,-0.0015 0.09778,-0.0048 0.03208,-0.0032 0.06344,-0.0083 0.09448,-0.01465 0.03104,-0.0063 0.06171,-0.01383 0.09155,-0.02307 0.02984,-0.0092 0.05904,-0.02022 0.08752,-0.03223 0.02849,-0.01201 0.05615,-0.0253 0.08313,-0.03992 0.02698,-0.01462 0.05306,-0.03054 0.07837,-0.04761 0.02531,-0.01707 0.04976,-0.0352 0.07324,-0.05457 0.02348,-0.01937 0.04625,-0.03965 0.06775,-0.06116 0.0215,-0.0215 0.04179,-0.04426 0.06116,-0.06775 0.01936,-0.02349 0.0375,-0.04793 0.05457,-0.07324 0.01707,-0.02531 0.03299,-0.05139 0.04761,-0.07837 0.01462,-0.02698 0.02791,-0.05464 0.03992,-0.08313 0.01201,-0.02849 0.02299,-0.05768 0.03223,-0.08752 0.0092,-0.02984 0.01675,-0.06052 0.02307,-0.09155 0.0063,-0.03104 0.01141,-0.06277 0.01465,-0.09485 0.0032,-0.03208 0.0048,-0.06445 0.0048,-0.09741 v -0.922486 c 0,-0.02463 -7.45e-4,-0.04909 -0.0026,-0.07324 -0.0018,-0.02415 -0.0049,-0.04817 -0.0084,-0.07178 -0.0036,-0.02361 -0.0079,-0.04658 -0.01318,-0.06958 -0.0053,-0.02299 -0.01143,-0.0458 -0.01831,-0.06811 -0.0069,-0.02232 -0.01427,-0.04434 -0.02271,-0.06592 -0.0084,-0.02157 -0.01791,-0.04259 -0.02783,-0.06336 -0.0099,-0.02077 -0.02051,-0.04127 -0.03186,-0.06116 -0.01135,-0.01989 -0.02318,-0.03928 -0.03589,-0.05823 -0.01271,-0.01895 -0.02628,-0.03735 -0.04028,-0.0553 -0.01401,-0.01794 -0.02871,-0.0355 -0.04395,-0.05237 -0.01524,-0.01687 -0.03084,-0.03334 -0.04724,-0.04907 -0.0164,-0.01573 -0.0334,-0.03088 -0.0509,-0.04541 -0.0175,-0.01453 -0.03566,-0.02812 -0.0542,-0.04138 -0.01854,-0.01326 -0.03763,-0.02616 -0.05713,-0.03809 -0.01951,-0.01193 -0.03928,-0.02316 -0.05969,-0.03369 -0.02041,-0.01053 -0.04138,-0.02024 -0.06262,-0.0293 V 37.5 Z m 0.359986,1.76001 a 0.48618925,0.51689589 0 0 1 0.05859,0.0037 0.48618925,0.51689589 0 0 1 0.05786,0.01135 0.48618925,0.51689589 0 0 1 0.05603,0.01868 0.48618925,0.51689589 0 0 1 0.05347,0.02564 0.48618925,0.51689589 0 0 1 0.05017,0.03223 0.48618925,0.51689589 0 0 1 0.04614,0.03845 0.48618925,0.51689589 0 0 1 0.04138,0.04431 0.48618925,0.51689589 0 0 1 0.03626,0.04907 0.48618925,0.51689589 0 0 1 0.0304,0.05347 0.48618925,0.51689589 0 0 1 0.02417,0.05676 0.48618925,0.51689589 0 0 1 0.01758,0.05969 0.48618925,0.51689589 0 0 1 0.01025,0.06152 0.48618925,0.51689589 0 0 1 0.0037,0.06226 0.48618925,0.51689589 0 0 1 -0.0238,0.159668 0.48618925,0.51689589 0 0 1 -0.06921,0.14392 0.48618925,0.51689589 0 0 1 -0.1073,0.114258 0.48618925,0.51689589 0 0 1 -0.135498,0.07361 0.48618925,0.51689589 0 0 1 -0.150146,0.02527 0.48618925,0.51689589 0 0 1 -0.150147,-0.02527 0.48618925,0.51689589 0 0 1 -0.135498,-0.07324 0.48618925,0.51689589 0 0 1 -0.107666,-0.114257 0.48618925,0.51689589 0 0 1 -0.06921,-0.144287 0.48618925,0.51689589 0 0 1 -0.0238,-0.159668 0.48618925,0.51689589 0 0 1 0.0238,-0.159668 0.48618925,0.51689589 0 0 1 0.06885,-0.144287 0.48618925,0.51689589 0 0 1 0.107666,-0.114258 0.48618925,0.51689589 0 0 1 0.135864,-0.07361 0.48618925,0.51689589 0 0 1 0.150147,-0.02527 z" />
  <path
     id="path40082-5"
     style="fill:#150b00;fill-opacity:1;stroke:none;stroke-width:0.375;stroke-linecap:round;stroke-linejoin:round"
     d="m 17.678898,25.230095 -0.812851,-0.469299 c 0.0028,-0.02297 0.0048,-0.04593 0.0059,-0.06888 0.0011,-0.02296 0.0014,-0.04599 8.54e-4,-0.06886 -5.58e-4,-0.02287 -0.0019,-0.04562 -0.0041,-0.06834 -0.0022,-0.02271 -0.0052,-0.04537 -0.0091,-0.06781 -0.0038,-0.02245 -0.0085,-0.04469 -0.01388,-0.06678 -0.0054,-0.0221 -0.01171,-0.0441 -0.01869,-0.06577 -0.007,-0.02166 -0.01485,-0.04311 -0.02338,-0.06425 -0.0085,-0.02113 -0.0177,-0.04202 -0.02775,-0.06253 -0.01005,-0.02051 -0.02094,-0.04039 -0.03248,-0.0602 -0.01154,-0.0198 -0.02383,-0.03948 -0.03685,-0.05849 -0.013,-0.01905 -0.02667,-0.03735 -0.04113,-0.05546 -0.01445,-0.01816 -0.02967,-0.0358 -0.04555,-0.05294 -0.01589,-0.01714 -0.03254,-0.03384 -0.04984,-0.04992 -0.01728,-0.01609 -0.03531,-0.03147 -0.05399,-0.04639 -0.01866,-0.01493 -0.03813,-0.02917 -0.05811,-0.04291 -0.02003,-0.01364 -0.04063,-0.02681 -0.06198,-0.03913 l -0.798896,-0.461243 c -0.02854,-0.01648 -0.05734,-0.03137 -0.08676,-0.04455 -0.02938,-0.01327 -0.05941,-0.02472 -0.08947,-0.03474 -0.03003,-0.01006 -0.06036,-0.01888 -0.09082,-0.0258 -0.03044,-0.007 -0.06124,-0.01201 -0.09191,-0.01585 -0.03068,-0.0038 -0.06128,-0.0062 -0.09195,-0.007 -0.03068,-8.29e-4 -0.06122,-8.2e-5 -0.09168,0.002 -0.03045,0.0021 -0.06069,0.0056 -0.09071,0.01064 -0.03002,0.005 -0.05988,0.01121 -0.08925,0.01909 -0.02937,0.0079 -0.05833,0.01744 -0.08684,0.02809 -0.02851,0.01065 -0.05644,0.02276 -0.08388,0.03614 -0.02744,0.01338 -0.05426,0.02801 -0.08042,0.04407 -0.02615,0.01605 -0.05149,0.03336 -0.07614,0.05203 -0.02465,0.01867 -0.04874,0.03846 -0.07167,0.05968 -0.02289,0.02124 -0.04477,0.04404 -0.06575,0.06775 -0.02098,0.02373 -0.04127,0.04866 -0.06011,0.07482 -0.01881,0.02618 -0.03638,0.05342 -0.05286,0.08196 l -5.5e-4,9.52e-4 c -0.01648,0.02855 -0.03155,0.05765 -0.04473,0.08708 -0.01327,0.02938 -0.02453,0.05909 -0.03455,0.08915 -0.01006,0.03003 -0.01888,0.06036 -0.02579,0.09082 -0.007,0.03044 -0.01201,0.06124 -0.01585,0.09191 -0.0038,0.03068 -0.0062,0.06128 -0.007,0.09195 -8.28e-4,0.03068 -8.1e-5,0.06122 0.002,0.09168 0.0021,0.03045 0.0056,0.06069 0.01064,0.09071 0.005,0.03002 0.01121,0.05988 0.01909,0.08925 0.0079,0.02937 0.01744,0.05832 0.02809,0.08684 0.01066,0.02851 0.02276,0.05644 0.03614,0.08388 0.01338,0.02744 0.02801,0.05427 0.04406,0.08042 0.01606,0.02615 0.03336,0.05149 0.05203,0.07614 0.01867,0.02465 0.03846,0.04875 0.05968,0.07167 0.02124,0.02289 0.04404,0.04477 0.06775,0.06575 0.02373,0.02098 0.04866,0.04127 0.07482,0.06011 0.02618,0.01881 0.05341,0.03638 0.08196,0.05286 l 0.798896,0.461243 c 0.02133,0.01231 0.04289,0.0239 0.06473,0.03437 0.02182,0.01052 0.04417,0.01984 0.06636,0.02861 0.02225,0.0087 0.04429,0.01645 0.06685,0.02338 0.02256,0.0069 0.04538,0.013 0.06814,0.0182 0.02278,0.0052 0.04553,0.0098 0.06844,0.01329 0.02288,0.0035 0.04584,0.0058 0.06879,0.0076 0.02294,0.0018 0.046,0.0029 0.0689,0.003 0.0229,1.16e-4 0.04561,-4.34e-4 0.06837,-0.002 0.02277,-0.0015 0.04549,-0.0041 0.06803,-0.0072 0.02254,-0.0032 0.0451,-0.0071 0.06733,-0.01188 0.02223,-0.0048 0.04429,-0.01004 0.06612,-0.01638 0.02182,-0.0063 0.04344,-0.01349 0.06478,-0.02138 0.02133,-0.0079 0.04218,-0.01682 0.06294,-0.02625 0.02075,-0.0094 0.04147,-0.01951 0.06155,-0.03043 0.02009,-0.01093 0.0397,-0.02244 0.05902,-0.03485 0.01932,-0.01241 0.03822,-0.02572 0.05668,-0.03958 l 0.813171,0.469484 z m -1.704206,-0.568248 a 0.51689589,0.48618925 30 0 1 -0.0325,0.04889 0.51689589,0.48618925 30 0 1 -0.03876,0.04443 0.51689589,0.48618925 30 0 1 -0.04419,0.03918 0.51689589,0.48618925 30 0 1 -0.04894,0.03349 0.51689589,0.48618925 30 0 1 -0.053,0.02733 0.51689589,0.48618925 30 0 1 -0.05637,0.02073 0.51689589,0.48618925 30 0 1 -0.05906,0.01368 0.51689589,0.48618925 30 0 1 -0.06063,0.0069 0.51689589,0.48618925 30 0 1 -0.06151,-4.08e-4 0.51689589,0.48618925 30 0 1 -0.06124,-0.0074 0.51689589,0.48618925 30 0 1 -0.06048,-0.01462 0.51689589,0.48618925 30 0 1 -0.0584,-0.02188 0.51689589,0.48618925 30 0 1 -0.05577,-0.02792 0.51689589,0.48618925 30 0 1 -0.126377,-0.100446 0.51689589,0.48618925 30 0 1 -0.09003,-0.131897 0.51689589,0.48618925 30 0 1 -0.0453,-0.150054 0.51689589,0.48618925 30 0 1 0.004,-0.15415 0.51689589,0.48618925 30 0 1 0.05319,-0.142665 0.51689589,0.48618925 30 0 1 0.09696,-0.117396 0.51689589,0.48618925 30 0 1 0.131177,-0.08073 0.51689589,0.48618925 30 0 1 0.152782,-0.03611 0.51689589,0.48618925 30 0 1 0.159561,0.01221 0.51689589,0.48618925 30 0 1 0.150177,0.05922 0.51689589,0.48618925 30 0 1 0.126377,0.100445 0.51689589,0.48618925 30 0 1 0.09053,0.13177 0.51689589,0.48618925 30 0 1 0.04512,0.15037 0.51689589,0.48618925 30 0 1 -0.0042,0.154467 0.51689589,0.48618925 30 0 1 -0.05319,0.142666 z" />
  <path
     id="path40125"
     style="fill:#150b00;fill-opacity:1;stroke:none;stroke-width:0.375;stroke-linecap:round;stroke-linejoin:round"
     d="m 19.287095,22.398793 -0.812851,-0.4693 c 0.0028,-0.02297 0.0048,-0.04593 0.0059,-0.06888 0.0011,-0.02296 0.0014,-0.04599 8.53e-4,-0.06886 -5.58e-4,-0.02287 -0.0019,-0.04562 -0.0041,-0.06834 -0.0022,-0.02271 -0.0052,-0.04537 -0.0091,-0.06781 -0.0038,-0.02245 -0.0085,-0.04469 -0.01388,-0.06679 -0.0054,-0.0221 -0.01171,-0.0441 -0.01869,-0.06577 -0.007,-0.02166 -0.01485,-0.04311 -0.02338,-0.06425 -0.0085,-0.02113 -0.0177,-0.04202 -0.02775,-0.06253 -0.01005,-0.02051 -0.02094,-0.04039 -0.03248,-0.0602 -0.01154,-0.01981 -0.02383,-0.03949 -0.03685,-0.05849 -0.013,-0.01905 -0.02667,-0.03735 -0.04113,-0.05546 -0.01445,-0.01816 -0.02967,-0.0358 -0.04555,-0.05294 -0.01589,-0.01714 -0.03254,-0.03384 -0.04984,-0.04992 -0.01728,-0.01609 -0.03532,-0.03147 -0.05399,-0.04639 -0.01865,-0.01493 -0.03813,-0.02917 -0.05811,-0.0429 -0.02003,-0.01364 -0.04063,-0.02681 -0.06198,-0.03913 L 17.205271,20.52959 c -0.02854,-0.01648 -0.05734,-0.03137 -0.08676,-0.04455 -0.02938,-0.01327 -0.05941,-0.02472 -0.08947,-0.03474 -0.03003,-0.01006 -0.06036,-0.01888 -0.09082,-0.0258 -0.03044,-0.007 -0.06124,-0.01201 -0.09191,-0.01585 -0.03068,-0.0038 -0.06128,-0.0062 -0.09195,-0.007 -0.03068,-8.29e-4 -0.06122,-8.1e-5 -0.09168,0.002 -0.03045,0.0021 -0.06069,0.0056 -0.09071,0.01064 -0.03002,0.005 -0.05988,0.01121 -0.08925,0.01909 -0.02937,0.0079 -0.05833,0.01744 -0.08684,0.02809 -0.02851,0.01065 -0.05644,0.02276 -0.08388,0.03614 -0.02744,0.01338 -0.05426,0.02801 -0.08042,0.04406 -0.02615,0.01606 -0.05149,0.03336 -0.07614,0.05203 -0.02465,0.01867 -0.04874,0.03846 -0.07167,0.05968 -0.02289,0.02124 -0.04477,0.04404 -0.06575,0.06775 -0.02098,0.02373 -0.04127,0.04866 -0.06011,0.07482 -0.01881,0.02618 -0.03638,0.05342 -0.05286,0.08196 l -5.5e-4,9.53e-4 c -0.01648,0.02854 -0.03155,0.05765 -0.04473,0.08708 -0.01327,0.02938 -0.02453,0.05909 -0.03455,0.08915 -0.01006,0.03003 -0.01888,0.06036 -0.0258,0.09082 -0.007,0.03044 -0.01201,0.06124 -0.01585,0.09191 -0.0038,0.03068 -0.0062,0.06128 -0.007,0.09195 -8.29e-4,0.03067 -8.2e-5,0.06122 0.002,0.09167 0.0021,0.03045 0.0056,0.06069 0.01064,0.09071 0.005,0.03002 0.01121,0.05988 0.01909,0.08925 0.0079,0.02937 0.01743,0.05832 0.02809,0.08684 0.01066,0.02851 0.02276,0.05644 0.03614,0.08388 0.01338,0.02744 0.02801,0.05427 0.04407,0.08042 0.01606,0.02615 0.03336,0.05149 0.05203,0.07614 0.01867,0.02465 0.03846,0.04875 0.05968,0.07167 0.02124,0.02289 0.04404,0.04477 0.06775,0.06575 0.02373,0.02098 0.04866,0.04127 0.07482,0.06011 0.02618,0.01881 0.05342,0.03638 0.08196,0.05286 l 0.798896,0.461243 c 0.02133,0.01232 0.04289,0.0239 0.06473,0.03437 0.02181,0.01052 0.04417,0.01984 0.06636,0.02861 0.02225,0.0087 0.04429,0.01645 0.06685,0.02338 0.02256,0.0069 0.04538,0.013 0.06814,0.0182 0.02278,0.0052 0.04554,0.0098 0.06844,0.01329 0.02288,0.0035 0.04584,0.0058 0.06879,0.0076 0.02294,0.0018 0.046,0.0029 0.0689,0.003 0.0229,1.15e-4 0.04561,-4.35e-4 0.06837,-0.002 0.02277,-0.0015 0.04549,-0.0041 0.06803,-0.0072 0.02254,-0.0032 0.0451,-0.0071 0.06733,-0.01188 0.02223,-0.0048 0.04429,-0.01004 0.06611,-0.01638 0.02182,-0.0063 0.04344,-0.01349 0.06478,-0.02138 0.02133,-0.0079 0.04218,-0.01682 0.06294,-0.02625 0.02075,-0.0094 0.04147,-0.01951 0.06155,-0.03043 0.02009,-0.01093 0.0397,-0.02244 0.05902,-0.03485 0.01932,-0.01241 0.03822,-0.02572 0.05668,-0.03958 l 0.813171,0.469484 z m -1.704207,-0.568248 a 0.51689589,0.48618925 30 0 1 -0.0325,0.04889 0.51689589,0.48618925 30 0 1 -0.03876,0.04443 0.51689589,0.48618925 30 0 1 -0.04419,0.03918 0.51689589,0.48618925 30 0 1 -0.04894,0.03349 0.51689589,0.48618925 30 0 1 -0.053,0.02733 0.51689589,0.48618925 30 0 1 -0.05637,0.02073 0.51689589,0.48618925 30 0 1 -0.05906,0.01368 0.51689589,0.48618925 30 0 1 -0.06063,0.0069 0.51689589,0.48618925 30 0 1 -0.06151,-4.08e-4 0.51689589,0.48618925 30 0 1 -0.06124,-0.0074 0.51689589,0.48618925 30 0 1 -0.06048,-0.01462 0.51689589,0.48618925 30 0 1 -0.0584,-0.02188 0.51689589,0.48618925 30 0 1 -0.05577,-0.02793 0.51689589,0.48618925 30 0 1 -0.126377,-0.100445 0.51689589,0.48618925 30 0 1 -0.09003,-0.131898 0.51689589,0.48618925 30 0 1 -0.0453,-0.150054 0.51689589,0.48618925 30 0 1 0.004,-0.154149 0.51689589,0.48618925 30 0 1 0.05319,-0.142666 0.51689589,0.48618925 30 0 1 0.09696,-0.117396 0.51689589,0.48618925 30 0 1 0.131176,-0.08072 0.51689589,0.48618925 30 0 1 0.152783,-0.03611 0.51689589,0.48618925 30 0 1 0.159561,0.01221 0.51689589,0.48618925 30 0 1 0.150177,0.05922 0.51689589,0.48618925 30 0 1 0.126376,0.100446 0.51689589,0.48618925 30 0 1 0.09053,0.131769 0.51689589,0.48618925 30 0 1 0.04512,0.15037 0.51689589,0.48618925 30 0 1 -0.0042,0.154467 0.51689589,0.48618925 30 0 1 -0.05319,0.142666 z" />
  <path
     id="path40133"
     style="fill:#150b00;fill-opacity:1;stroke:none;stroke-width:0.375;stroke-linecap:round;stroke-linejoin:round"
     d="m 20.894978,19.547139 -0.812851,-0.4693 c 0.0028,-0.02297 0.0048,-0.04593 0.0059,-0.06888 0.0011,-0.02296 0.0014,-0.04599 8.53e-4,-0.06886 -5.58e-4,-0.02287 -0.0019,-0.04562 -0.0041,-0.06834 -0.0022,-0.02271 -0.0052,-0.04537 -0.0091,-0.06781 -0.0038,-0.02245 -0.0085,-0.04469 -0.01388,-0.06679 -0.0054,-0.0221 -0.01171,-0.0441 -0.01869,-0.06577 -0.007,-0.02167 -0.01485,-0.04311 -0.02338,-0.06425 -0.0085,-0.02113 -0.0177,-0.04202 -0.02775,-0.06253 -0.01005,-0.02051 -0.02094,-0.04039 -0.03248,-0.0602 -0.01154,-0.01981 -0.02383,-0.03948 -0.03685,-0.05849 -0.013,-0.01905 -0.02667,-0.03735 -0.04113,-0.05547 -0.01445,-0.01816 -0.02967,-0.0358 -0.04555,-0.05294 -0.01589,-0.01714 -0.03254,-0.03384 -0.04984,-0.04992 -0.01728,-0.01609 -0.03532,-0.03147 -0.05399,-0.04639 -0.01865,-0.01493 -0.03813,-0.02917 -0.05811,-0.0429 -0.02003,-0.01364 -0.04063,-0.02681 -0.06198,-0.03913 l -0.798896,-0.461243 c -0.02854,-0.01648 -0.05734,-0.03137 -0.08676,-0.04455 -0.02938,-0.01327 -0.05941,-0.02472 -0.08947,-0.03474 -0.03003,-0.01006 -0.06036,-0.01888 -0.09082,-0.0258 -0.03044,-0.007 -0.06124,-0.01201 -0.09191,-0.01585 -0.03068,-0.0038 -0.06128,-0.0062 -0.09195,-0.007 -0.03068,-8.29e-4 -0.06122,-8.2e-5 -0.09168,0.002 -0.03045,0.0021 -0.06069,0.0056 -0.09071,0.01064 -0.03002,0.005 -0.05988,0.01121 -0.08925,0.01909 -0.02937,0.0079 -0.05833,0.01744 -0.08684,0.02809 -0.02851,0.01065 -0.05644,0.02276 -0.08388,0.03614 -0.02744,0.01338 -0.05427,0.02801 -0.08042,0.04406 -0.02615,0.01606 -0.05149,0.03336 -0.07614,0.05203 -0.02465,0.01867 -0.04874,0.03846 -0.07167,0.05968 -0.02289,0.02124 -0.04477,0.04404 -0.06575,0.06775 -0.02098,0.02373 -0.04127,0.04866 -0.06011,0.07482 -0.01881,0.02618 -0.03638,0.05341 -0.05286,0.08196 l -5.5e-4,9.53e-4 c -0.01648,0.02854 -0.03155,0.05765 -0.04473,0.08708 -0.01327,0.02938 -0.02453,0.05909 -0.03455,0.08915 -0.01006,0.03003 -0.01888,0.06036 -0.0258,0.09082 -0.007,0.03044 -0.01201,0.06124 -0.01585,0.09191 -0.0038,0.03068 -0.0062,0.06128 -0.007,0.09195 -8.29e-4,0.03067 -8.2e-5,0.06122 0.002,0.09167 0.0021,0.03045 0.0056,0.06069 0.01064,0.09071 0.005,0.03002 0.01121,0.05988 0.01909,0.08925 0.0079,0.02937 0.01744,0.05832 0.02809,0.08684 0.01066,0.02851 0.02276,0.05644 0.03614,0.08388 0.01338,0.02744 0.02801,0.05427 0.04407,0.08042 0.01605,0.02615 0.03336,0.05149 0.05203,0.07614 0.01867,0.02465 0.03846,0.04875 0.05968,0.07167 0.02124,0.02289 0.04404,0.04476 0.06775,0.06575 0.02373,0.02098 0.04866,0.04127 0.07482,0.06011 0.02618,0.01881 0.05342,0.03638 0.08196,0.05286 l 0.798896,0.461243 c 0.02133,0.01231 0.04289,0.0239 0.06473,0.03437 0.02181,0.01052 0.04417,0.01984 0.06636,0.02862 0.02225,0.0087 0.04429,0.01645 0.06685,0.02337 0.02256,0.0069 0.04538,0.013 0.06814,0.0182 0.02278,0.0052 0.04554,0.0098 0.06844,0.01329 0.02288,0.0035 0.04584,0.0058 0.06879,0.0076 0.02294,0.0018 0.046,0.0029 0.0689,0.003 0.0229,1.16e-4 0.04561,-4.34e-4 0.06837,-0.002 0.02277,-0.0015 0.04549,-0.0041 0.06803,-0.0072 0.02254,-0.0032 0.0451,-0.0071 0.06733,-0.01188 0.02223,-0.0048 0.04429,-0.01004 0.06611,-0.01638 0.02182,-0.0063 0.04344,-0.01348 0.06478,-0.02138 0.02133,-0.0079 0.04218,-0.01682 0.06294,-0.02625 0.02075,-0.0094 0.04147,-0.01951 0.06155,-0.03043 0.02009,-0.01093 0.0397,-0.02244 0.05902,-0.03485 0.01932,-0.01241 0.03822,-0.02572 0.05669,-0.03958 l 0.813171,0.469485 z m -1.704207,-0.568248 a 0.51689589,0.48618925 30 0 1 -0.0325,0.04889 0.51689589,0.48618925 30 0 1 -0.03876,0.04443 0.51689589,0.48618925 30 0 1 -0.04419,0.03918 0.51689589,0.48618925 30 0 1 -0.04894,0.03349 0.51689589,0.48618925 30 0 1 -0.053,0.02733 0.51689589,0.48618925 30 0 1 -0.05637,0.02073 0.51689589,0.48618925 30 0 1 -0.05906,0.01368 0.51689589,0.48618925 30 0 1 -0.06063,0.0069 0.51689589,0.48618925 30 0 1 -0.06151,-4.08e-4 0.51689589,0.48618925 30 0 1 -0.06124,-0.0074 0.51689589,0.48618925 30 0 1 -0.06048,-0.01462 0.51689589,0.48618925 30 0 1 -0.0584,-0.02188 0.51689589,0.48618925 30 0 1 -0.05577,-0.02793 0.51689589,0.48618925 30 0 1 -0.126377,-0.100445 0.51689589,0.48618925 30 0 1 -0.09003,-0.131898 0.51689589,0.48618925 30 0 1 -0.0453,-0.150053 0.51689589,0.48618925 30 0 1 0.004,-0.15415 0.51689589,0.48618925 30 0 1 0.05319,-0.142665 0.51689589,0.48618925 30 0 1 0.09696,-0.117396 0.51689589,0.48618925 30 0 1 0.131176,-0.08073 0.51689589,0.48618925 30 0 1 0.152783,-0.03611 0.51689589,0.48618925 30 0 1 0.159561,0.01221 0.51689589,0.48618925 30 0 1 0.150177,0.05922 0.51689589,0.48618925 30 0 1 0.126376,0.100446 0.51689589,0.48618925 30 0 1 0.09053,0.131769 0.51689589,0.48618925 30 0 1 0.04512,0.150371 0.51689589,0.48618925 30 0 1 -0.0042,0.154466 0.51689589,0.48618925 30 0 1 -0.05319,0.142667 z" />
</svg>
