<?xml version="1.0" encoding="UTF-8" standalone="no"?>
<svg
   fill="none"
   viewBox="0 0 48 48"
   height="256"
   width="256"
   version="1.1"
   id="svg6"
   sodipodi:docname="designnest.svg"
   inkscape:version="1.4 (86a8ad7, 2024-10-11)"
   xml:space="preserve"
   xmlns:inkscape="http://www.inkscape.org/namespaces/inkscape"
   xmlns:sodipodi="http://sodipodi.sourceforge.net/DTD/sodipodi-0.dtd"
   xmlns="http://www.w3.org/2000/svg"
   xmlns:svg="http://www.w3.org/2000/svg"><defs
     id="defs10" /><sodipodi:namedview
     id="namedview8"
     pagecolor="#ffffff"
     bordercolor="#666666"
     borderopacity="1.0"
     inkscape:showpageshadow="2"
     inkscape:pageopacity="0.0"
     inkscape:pagecheckerboard="true"
     inkscape:deskcolor="#d1d1d1"
     showgrid="true"
     inkscape:zoom="2.2898106"
     inkscape:cx="43.453376"
     inkscape:cy="104.5938"
     inkscape:current-layer="svg6"
     showguides="false"
     inkscape:window-width="2560"
     inkscape:window-height="1334"
     inkscape:window-x="-11"
     inkscape:window-y="-11"
     inkscape:window-maximized="1"><inkscape:grid
       type="xygrid"
       id="grid239"
       units="px"
       spacingx="1.5"
       spacingy="1.5"
       originx="0"
       originy="0" /></sodipodi:namedview><path
     style="fill:#51225f;stroke-width:0.290092"
     d="m 31.226381,47.563722 c 0.133599,-0.219391 0.242498,-0.427346 0.242001,-0.462119 -5.71e-4,-0.03477 -0.213344,-0.191067 -0.47299,-0.347313 -0.259646,-0.156249 -0.849124,-0.511185 -1.309952,-0.788746 -0.460824,-0.277561 -0.886514,-0.531845 -0.945974,-0.565075 -0.05946,-0.03323 -0.28646,-0.168717 -0.504439,-0.301079 l -0.396329,-0.240656 1.774446,-1.797203 1.774442,-1.797203 h 2.150918 2.150916 l -0.01539,-0.560985 -0.01539,-0.560988 -1.558431,-0.02734 -1.558431,-0.02734 0.42326,-0.412971 0.423257,-0.412973 1.135174,-0.343512 c 2.487095,-0.752606 3.465353,-1.054199 3.588182,-1.106216 0.07074,-0.02996 0.139889,-0.04305 0.15367,-0.0291 0.02532,0.02564 -0.08237,0.726307 -0.368793,2.399369 -0.08621,0.503553 -0.156739,0.937804 -0.156739,0.964997 0,0.06784 1.026625,0.250076 1.078619,0.191471 0.02296,-0.02587 0.182524,-0.909008 0.354632,-1.962566 0.172109,-1.053558 0.328688,-1.934017 0.347946,-1.956578 0.03774,-0.0442 0.904536,-0.311684 1.016193,-0.313582 0.05137,-8.65e-4 0.06757,0.215338 0.06757,0.901901 v 0.903052 h 0.566469 0.566466 l 0.01462,-1.10561 0.01465,-1.105608 0.486503,-0.145222 c 0.267578,-0.07987 0.626372,-0.187497 0.797324,-0.239168 0.170949,-0.05167 0.311129,-0.122985 0.311503,-0.158473 0.0011,-0.107009 -0.28555,-1.02235 -0.320025,-1.021797 -0.01762,2.89e-4 -0.310895,0.08468 -0.65174,0.187535 -0.340844,0.102858 -0.635057,0.177419 -0.653803,0.165689 -0.01873,-0.01174 -0.03844,-1.235194 -0.04377,-2.71881 -0.0053,-1.483615 -0.0241,-2.802697 -0.04173,-2.931298 l -0.03204,-0.233812 -0.980007,0.01488 -0.980008,0.01488 -0.174817,1.008012 -0.174818,1.00801 -3.261976,3.306722 -3.261972,3.306721 -0.806786,0.242102 c -0.93987,0.282037 -2.310153,0.7012 -4.027533,1.232004 l -1.220682,0.377284 H 23.339126 19.947689 L 18.748808,39.39561 c -0.659385,-0.395671 -1.409254,-0.845142 -1.666372,-0.998826 -0.257118,-0.153688 -1.30549,-0.782303 -2.329717,-1.396926 l -1.86223,-1.117497 -0.685777,-1.071717 C 11.827535,34.2212 11.06954,33.040348 10.520279,32.186534 9.9710169,31.332713 9.4383148,30.495339 9.3364908,30.325701 9.1641869,30.03864 9.1210574,29.858653 8.7140706,27.728321 l -0.4372872,-2.288944 0.014789,-2.007386 0.014789,-2.007385 0.1988361,-0.656764 C 8.6145572,20.406622 8.8177959,19.71702 8.956839,19.235393 9.0958821,18.753767 9.410778,17.663136 9.6566096,16.811769 l 0.4469654,-1.54794 1.155513,-1.136586 c 0.635532,-0.625123 1.909595,-1.879159 2.831245,-2.786746 l 1.675731,-1.6501609 2.920938,-0.9884818 2.920937,-0.988485 2.766298,-0.00115 2.766298,-0.00115 1.204882,0.4322643 c 0.662687,0.2377426 2.016164,0.7245594 3.007729,1.0818126 l 1.802845,0.6495508 1.926516,1.991839 c 2.083841,2.154506 2.655875,2.761026 2.735726,2.900677 0.02829,0.04948 0.36169,0.8042 0.740879,1.67715 l 0.689435,1.587179 1.728187,0.01445 1.728187,0.01445 0.05694,-0.288089 c 0.108557,-0.549256 0.653761,-3.90726 0.653761,-4.026625 0,-0.06597 0.03041,-0.119785 0.06757,-0.119586 0.03716,1.98e-4 0.979759,0.330492 2.094661,0.733984 1.680022,0.608018 2.034813,0.719825 2.072195,0.653016 0.02478,-0.04434 0.11369,-0.286063 0.197525,-0.537171 L 48,14.019403 47.234887,13.744785 c -2.431252,-0.872643 -3.513081,-1.268485 -3.539305,-1.295036 -0.03509,-0.03552 0.09008,-0.854149 0.529818,-3.46524 0.178969,-1.0626643 0.325393,-1.9506499 0.325393,-1.9733037 0,-0.02265 -0.18852,-0.072866 -0.418929,-0.1115827 -0.230415,-0.038717 -0.481142,-0.082592 -0.55717,-0.097499 -0.134809,-0.026446 -0.13982,-0.016463 -0.202075,0.4017847 -0.17821,1.1972629 -0.787346,4.7581927 -0.820345,4.7956397 -0.02087,0.02367 -0.266918,-0.03925 -0.546786,-0.139835 l -0.508848,-0.18289 -0.01522,-0.64007 -0.01522,-0.640071 h -0.565887 -0.565869 v 0.416861 c 0,0.405256 -0.0034,0.415974 -0.121625,0.384984 -0.0669,-0.01754 -0.817335,-0.281723 -1.667644,-0.587097 L 36.999163,10.05621 36.504571,8.9111497 C 36.232549,8.2813658 36.009965,7.7484153 36.009945,7.7268122 c -2.3e-5,-0.0216 0.723651,-0.031288 1.608158,-0.021514 0.88451,0.00978 1.711582,0.00205 1.83794,-0.017046 l 0.229736,-0.0348 V 7.1095036 6.5655543 h -2.074531 c -1.655681,0 -2.086524,-0.014623 -2.133936,-0.072475 C 35.404392,6.4041248 34.172733,3.6047202 34.172354,3.5270908 34.172205,3.4964767 34.708927,3.2908777 35.365063,3.0702021 36.115607,2.81778 36.549568,2.645594 36.535192,2.6059284 36.52263,2.5712484 36.444648,2.333532 36.361916,2.0776685 36.279184,1.821805 36.20705,1.6066638 36.201619,1.5995766 c -0.0054,-0.00709 -0.554906,0.1714737 -1.221061,0.3967962 -0.666154,0.2253226 -1.236872,0.4096776 -1.268261,0.4096776 -0.03139,0 -0.08417,-0.067728 -0.117287,-0.1505098 C 33.457591,1.9120794 32.830134,0.48180849 32.806282,0.45766 c -0.03185,-0.0322515 -1.013061,0.41856284 -1.011613,0.46478442 5.71e-4,0.0183018 0.180085,0.43962598 0.398912,0.93630288 0.218826,0.4966768 0.382549,0.9184126 0.363834,0.9371873 -0.0187,0.018769 -0.812436,0.2966324 -1.763822,0.61746 L 29.063808,3.9967177 28.603015,3.5023992 c -0.25344,-0.271874 -0.485182,-0.4943153 -0.514983,-0.4943153 -0.0298,0 -0.223068,0.1723086 -0.429478,0.3829078 l -0.375291,0.3829109 0.29249,0.2998666 c 0.16087,0.1649235 0.281753,0.3094175 0.26863,0.3210932 -0.01312,0.011675 -0.773653,0.2735437 -1.690065,0.5819249 L 24.488113,5.5374826 22.922036,4.9722951 C 22.060695,4.6614415 21.329745,4.390703 21.297706,4.3706526 21.243443,4.3366994 21.532395,4.0415119 23.942019,1.6692753 24.39541,1.2229182 24.765769,0.84281837 24.765037,0.82460997 24.764181,0.80639561 24.60011,0.61342686 24.400159,0.39577243 L 24.036607,0 23.685244,0.33699862 C 23.491995,0.52234613 22.607455,1.3900303 21.719601,2.2651811 20.831748,3.1403348 20.062939,3.8637734 20.011132,3.8728222 19.959327,3.8818707 19.433011,3.7137832 18.841537,3.4992929 18.250065,3.2848026 17.291792,2.94013 16.712043,2.7333574 16.132293,2.5265848 15.420134,2.2699536 15.129467,2.1630675 l -0.528484,-0.1943437 -0.04568,0.1228674 c -0.173686,0.4671867 -0.330522,0.9338187 -0.317852,0.94569 0.0083,0.00776 0.331277,0.1303898 0.717775,0.2725221 0.686772,0.2525564 1.192685,0.4345296 3.099714,1.1149484 0.515615,0.1839668 0.964518,0.3514036 0.997562,0.3720817 0.03593,0.022477 -0.297364,0.3850473 -0.829369,0.9021802 l -0.88945,0.8645872 -2.337913,8.652e-4 c -1.659791,5.769e-4 -2.337916,-0.016434 -2.337916,-0.05903 0,-0.032996 0.03892,-0.1955433 0.08649,-0.3612199 0.04757,-0.1656739 0.06582,-0.320489 0.04054,-0.3440274 -0.04692,-0.043697 -0.86946,-0.3020035 -0.961695,-0.3020035 -0.02797,0 -0.125268,0.2339714 -0.216223,0.5199382 l -0.16537,0.5199379 -2.4479095,0.014245 -2.4479133,0.014245 0.015395,0.5604268 0.015395,0.5604268 H 8.83341 c 1.572713,0 2.256839,0.017836 2.25683,0.058799 -2.9e-5,0.099142 -0.706806,2.5112311 -0.74656,2.5478551 -0.04166,0.03838 -1.8397081,0.649799 -1.9109117,0.649799 -0.024936,0 -0.045335,-0.54183 -0.045335,-1.2040668 V 8.5357252 H 7.8198508 7.2522645 l -2.9e-6,1.4093042 -2.8e-6,1.4093076 -2.7298165,0.922583 c -1.5013998,0.507422 -2.7298164,0.950652 -2.7298164,0.984959 0,0.08605 0.2752926,0.928967 0.3197251,0.97896 0.019806,0.0223 1.1658561,-0.34098 2.5467703,-0.80727 1.3809146,-0.466291 2.5332149,-0.847801 2.5606693,-0.847801 0.030222,0 0.03651,0.775496 0.015943,1.965592 l -0.033984,1.965592 -0.2580783,0.246882 C 6.801728,16.89962 6.6794666,17.004513 6.6719765,16.996932 6.6568705,16.981632 6.2047499,14.663296 6.1452739,14.296089 6.1185469,14.131064 6.0814969,14.063472 6.0177514,14.063443 c -0.078558,-3.8e-5 -0.9905047,0.168368 -1.0199313,0.188348 -0.010176,0.0069 0.2753964,1.528138 0.5814446,3.097409 l 0.1231205,0.631296 -1.0224132,1.014271 c -1.2977869,1.28745 -1.5740078,1.54336 -1.6288392,1.509051 -0.024331,-0.01524 -0.3809797,-0.556314 -0.7925248,-1.202404 l -0.748271,-1.17471 -0.4775883,0.301652 -0.47759119,0.301653 0.17824873,0.280112 c 0.0980357,0.154059 0.47376836,0.741276 0.83496216,1.304922 0.3611909,0.563646 0.6567134,1.041079 0.6567134,1.06096 0,0.01988 -0.5006434,0.531549 -1.112541,1.137036 L 0,23.613935 0.39629984,24.009237 0.79260257,24.404539 1.8196633,23.396301 c 0.5648848,-0.554527 1.039224,-1.009049 1.0540888,-1.010047 0.014875,-8.65e-4 0.2459524,0.343561 0.5135304,0.765679 0.2675778,0.422118 0.6570103,1.031238 0.8654064,1.353604 0.2083958,0.322363 0.6036665,0.937182 0.8783797,1.366265 l 0.4994787,0.78015 -0.3033296,1.053315 C 4.4702182,30.681206 4.4551227,30.72896 4.3735433,30.722439 4.3045333,30.71693 3.1972165,30.064543 1.0772764,28.780433 L 0.55111285,28.461719 0.27995153,28.926528 c -0.14913643,0.255649 -0.27036851,0.482528 -0.26939983,0.50418 8.6489e-4,0.02166 0.27462378,0.203415 0.60812662,0.40392 1.86951008,1.123942 2.28491248,1.373526 2.85717198,1.716622 0.3460208,0.207456 0.6207454,0.402833 0.6105022,0.434173 -0.010236,0.03134 -0.1308813,0.45104 -0.268088,0.932665 -0.1372038,0.481627 -0.4065806,1.414718 -0.5986158,2.07354 -0.1920349,0.658822 -0.3423391,1.20437 -0.3340102,1.212328 0.00833,0.008 0.2462293,0.08756 0.5286718,0.176886 l 0.5135304,0.162412 0.097254,-0.307499 c 0.053491,-0.169127 0.3159455,-1.057593 0.583232,-1.974371 0.2672865,-0.916778 0.4960797,-1.677103 0.5084303,-1.689609 0.024103,-0.0244 0.3431811,0.153024 0.8652046,0.481079 0.1783844,0.112103 0.5009579,0.307459 0.7168295,0.434121 l 0.392497,0.230302 -0.036461,3.308383 -0.036461,3.308386 h 0.5764283 0.5764282 l 0.00605,-2.339723 c 0.00608,-2.351814 0.027966,-3.514388 0.066891,-3.553793 0.018969,-0.01921 0.6838337,0.361179 0.6838337,0.391232 0,0.007 0.086536,0.45357 0.1923004,0.99243 0.105765,0.538862 0.2381023,1.226036 0.2940808,1.527052 0.3911682,2.103398 0.6080025,3.181022 0.6484285,3.222553 0.05083,0.05221 1.081418,-0.115869 1.081565,-0.176398 7.2e-5,-0.02855 -0.648049,-3.404916 -0.863007,-4.495814 -0.02661,-0.135073 -0.04141,-0.252664 -0.03287,-0.261308 0.0085,-0.0086 0.365615,0.197433 0.793507,0.457948 0.427891,0.260512 0.832131,0.498771 0.898313,0.52946 0.07044,0.03267 0.569108,0.755536 1.202741,1.743495 0.595329,0.928229 1.082413,1.700347 1.082413,1.715818 0,0.01546 -0.352715,0.02815 -0.783809,0.02815 h -0.783807 v 0.574668 0.574668 l 1.175716,2.88e-4 1.175713,2.89e-4 0.08885,0.150163 c 0.04887,0.08259 0.333702,0.529713 0.632961,0.993617 0.299261,0.463901 0.534123,0.85982 0.521914,0.879819 -0.0122,0.01999 -0.340607,0.131098 -0.729771,0.246887 -0.436166,0.129774 -0.698623,0.234155 -0.684232,0.272129 0.01283,0.03388 0.07701,0.257455 0.142598,0.496834 0.06559,0.239379 0.138807,0.456191 0.16271,0.481806 0.0239,0.02564 0.405211,-0.06674 0.847359,-0.205238 0.442144,-0.138499 0.843443,-0.251813 0.891774,-0.251813 0.0551,0 0.364506,0.433755 0.829608,1.163019 0.407953,0.639661 0.747196,1.16945 0.753873,1.177316 0.01142,0.01341 0.821202,-0.508751 0.906071,-0.584264 0.02159,-0.01921 -0.260581,-0.502224 -0.627039,-1.073373 -0.408538,-0.636731 -0.643288,-1.051608 -0.606835,-1.072476 0.06263,-0.03585 3.657175,-1.140668 3.843634,-1.181374 0.07114,-0.01552 0.647067,0.30011 1.675731,0.918385 0.862039,0.518124 1.731536,1.039174 1.93222,1.157887 0.200681,0.11871 0.364377,0.244493 0.363769,0.279519 -5.71e-4,0.03502 -0.450907,0.518445 -1.000656,1.07427 l -0.999551,1.010588 0.391621,0.39917 0.39162,0.399169 1.13997,-1.153255 1.139969,-1.153261 1.94212,1.172799 c 1.068167,0.645041 1.960523,1.156255 1.983013,1.136036 0.0225,-0.02022 0.150195,-0.21627 0.283791,-0.435661 z m -6.041692,-4.291185 c -0.855088,-0.515517 -1.547207,-0.960082 -1.538042,-0.987921 0.0092,-0.02783 0.733107,-0.268484 1.608762,-0.53477 l 1.592101,-0.484159 1.445995,-5.77e-4 c 0.795296,-2.89e-4 1.445994,0.01682 1.445994,0.03816 0,0.08235 -2.840012,2.916326 -2.917832,2.911634 -0.04525,-0.0026 -0.781886,-0.426749 -1.636978,-0.942267 z m -8.279207,-1.128678 c -0.284778,-0.445107 -0.517774,-0.825091 -0.517774,-0.844409 0,-0.01933 0.73432,-0.03512 1.631823,-0.03512 h 1.63182 l 0.528305,0.314701 c 0.29057,0.173084 0.529254,0.327989 0.530413,0.344233 0.0011,0.01627 -0.624268,0.219501 -1.389831,0.451675 -0.765566,0.232177 -1.505575,0.457255 -1.644462,0.500176 l -0.252523,0.07803 z m 5.13106,-0.75858 -0.162168,-0.09359 0.258396,-0.01676 c 0.142119,-0.0092 0.361044,-0.0092 0.486502,0 l 0.228107,0.01676 -0.305627,0.09578 c -0.360583,0.113003 -0.305189,0.113242 -0.50521,-0.002 z m -7.054286,-2.236501 c -0.341904,-0.531164 -0.630363,-0.988555 -0.641024,-1.016426 -0.0203,-0.05303 0.195019,0.05895 0.69508,0.361536 0.16352,0.09894 0.78381,0.4708 1.378424,0.826351 0.594614,0.355548 1.129098,0.679822 1.18774,0.720605 0.09136,0.06353 -0.04408,0.07411 -0.945977,0.07391 l -1.052601,-2.31e-4 z m 15.838358,0.911483 c 0.104802,-0.06857 0.162167,-0.06857 0.162167,0 0,0.0301 -0.05473,0.05435 -0.121624,0.05389 -0.09835,-5.77e-4 -0.10611,-0.01096 -0.04054,-0.05389 z m 6.189324,-4.482817 c 1.070263,-1.086684 1.951362,-1.957219 1.957997,-1.934526 0.02527,0.08653 -0.453076,2.808294 -0.501527,2.853556 -0.0383,0.03578 -2.489785,0.799499 -3.294301,1.026282 -0.05946,0.01676 0.767563,-0.858629 1.837831,-1.945312 z M 39.74121,36.0239 c 8.57e-4,-0.05268 0.142904,-0.940728 0.315872,-1.973448 0.432901,-2.584671 0.465547,-2.593554 0.511839,-0.139252 0.01973,1.046054 0.01762,1.919328 -0.0047,1.940617 -0.0343,0.03271 -0.739288,0.267861 -0.803054,0.267861 -0.01173,0 -0.0207,-0.0431 -0.01996,-0.09578 z M 10.281023,34.310396 9.9312807,34.097414 9.844826,33.633706 C 9.797277,33.378669 9.777967,33.182265 9.801919,33.197252 c 0.058389,0.03654 0.866417,1.288085 0.845374,1.309388 -0.0091,0.0092 -0.173914,-0.07911 -0.36627,-0.196244 z M 8.3739339,33.177474 8.225279,33.08416 v -0.87213 c 0,-0.479674 0.00998,-0.86187 0.022199,-0.849326 0.026638,0.02734 0.3561977,1.724485 0.3561977,1.834262 0,0.09906 -0.047278,0.09504 -0.2297359,-0.0195 z M 6.2792145,31.906593 C 5.877881,31.666413 5.5278211,31.436465 5.5013064,31.395598 5.4703,31.347806 5.5132692,31.11794 5.6217688,30.751365 c 0.092768,-0.313458 0.3034275,-1.03787 0.468132,-1.609801 0.1647016,-0.571932 0.3123071,-1.075655 0.3280079,-1.119386 0.041457,-0.115468 0.662093,0.860962 0.6767154,1.064654 0.030113,0.419489 -0.0092,3.256455 -0.045116,3.256455 -0.022313,0 -0.3689604,-0.19651 -0.7702936,-0.436694 z m 0.7097629,-5.21769 -0.1281598,-0.208716 0.1281598,-0.448048 0.1281572,-0.448047 0.016146,0.344212 c 0.00888,0.189314 0.00888,0.484858 0,0.656763 L 7.1171346,26.89762 Z M 5.890494,24.971621 C 5.8147927,24.856956 5.5264746,24.406025 5.2497868,23.969548 4.9730988,23.533074 4.5199004,22.824371 4.2426821,22.394652 3.9654607,21.96493 3.7386452,21.591424 3.7386452,21.564634 c 0,-0.06315 2.1354648,-2.152303 2.1942139,-2.146622 0.024534,0.0023 0.074297,0.159278 0.1105883,0.34868 0.097779,0.510308 0.5025117,2.650124 0.5688574,3.007526 0.054797,0.295193 0.044265,0.355633 -0.2241023,1.286162 -0.1548795,0.537026 -0.2992531,1.008655 -0.3208322,1.048066 -0.02756,0.05033 -0.080202,0.0096 -0.1768763,-0.136825 z m 1.2107639,-5.65415 C 6.9259036,18.425437 6.9239893,18.391055 7.042993,18.27057 7.10359,18.20921 7.1640376,18.170015 7.1773167,18.18346 c 0.01329,0.01346 0.017328,0.354142 0.00899,0.757103 l -0.015135,0.732656 z M 40.236082,17.465009 c -0.06896,-0.160956 -0.115683,-0.302473 -0.10382,-0.314481 0.01185,-0.012 0.07611,0.03694 0.142767,0.108786 0.08696,0.09372 0.116288,0.18256 0.103817,0.314482 l -0.01739,0.183861 z m -31.8988916,-0.3472 c -0.00203,-0.081 0.020525,-0.162501 0.050256,-0.181106 0.064535,-0.04038 0.064535,0.06687 0,0.218921 -0.041483,0.09774 -0.046863,0.09369 -0.050256,-0.03781 z M 41.588058,17.004043 c -0.07231,-0.08822 -0.156594,-4.089779 -0.08615,-4.090552 0.02684,-2.89e-4 0.238427,0.06741 0.470204,0.15046 0.361541,0.129546 0.417707,0.166558 0.395323,0.260505 -0.01436,0.06023 -0.148525,0.848366 -0.298167,1.751416 -0.32563,1.965093 -0.331883,1.997656 -0.383568,1.997656 -0.02238,0 -0.06631,-0.03127 -0.09764,-0.06949 z m -2.065134,-2.154664 c -0.558938,-0.57865 -0.859306,-0.931983 -0.900813,-1.059669 -0.03425,-0.105354 -0.247146,-0.607378 -0.473099,-1.115603 -0.22595,-0.508227 -0.424559,-0.979465 -0.441344,-1.047196 -0.02835,-0.114356 0.06332,-0.08907 1.284607,0.354375 l 1.315136,0.477517 0.04077,0.952789 c 0.02244,0.524033 0.03459,1.257238 0.02701,1.629343 l -0.01376,0.676554 z M 8.3333906,14.60274 c 0,-0.437595 0.015769,-1.164565 0.035048,-1.615491 l 0.035051,-0.819866 0.7590679,-0.25476 c 0.4174897,-0.140121 0.7682385,-0.245477 0.7794476,-0.234132 0.011215,0.01136 -0.093065,0.410971 -0.2317136,0.888053 -0.1386483,0.477082 -0.3271429,1.138335 -0.4188764,1.469452 -0.175784,0.634492 -0.1703984,0.626135 -0.7562482,1.173757 l -0.2017768,0.188611 z m 2.4342354,-1.607259 c 8.56e-4,-0.02975 0.117415,-0.446319 0.258813,-0.925707 l 0.25709,-0.871619 0.942756,-0.318767 c 0.518516,-0.175321 0.967608,-0.318326 0.997983,-0.317789 0.03038,5.77e-4 -0.127208,0.175811 -0.350189,0.389505 -0.222981,0.21369 -0.788541,0.773265 -1.256797,1.243496 -0.468259,0.470234 -0.850605,0.830628 -0.849656,0.800881 z m 25.270899,-1.776543 c -0.205685,-0.209858 -0.361379,-0.394307 -0.34599,-0.409888 0.06557,-0.06639 0.471331,0.154646 0.534369,0.291101 0.122721,0.26566 0.217133,0.500346 0.201276,0.500346 -0.0086,0 -0.183974,-0.171701 -0.389655,-0.381559 z M 11.697908,9.7625832 c 0.01675,-0.057757 0.153856,-0.533371 0.304702,-1.0569197 0.150846,-0.5235487 0.283445,-0.9612045 0.294666,-0.9725621 0.05064,-0.051271 3.821998,-0.042445 3.808021,0.0089 -0.0082,0.0301 -0.221661,0.2547046 -0.474371,0.4991202 l -0.459474,0.4443926 -1.675731,0.5624963 c -0.92165,0.3093736 -1.710047,0.5753366 -1.751988,0.5910319 -0.05438,0.020345 -0.06753,-0.00147 -0.04583,-0.076471 z M 34.61838,9.199909 33.794373,8.8913467 33.229265,8.320508 C 32.918459,8.0065458 32.675564,7.7309881 32.689497,7.7081589 c 0.01393,-0.022826 0.09172,-0.033518 0.172859,-0.02376 0.08114,0.00978 0.538204,0.020579 1.015705,0.023994 l 0.868185,0.00625 0.375098,0.8566973 C 35.57547,9.6085276 35.5419,9.5220247 35.487433,9.5146018 35.462679,9.5112157 35.071585,9.3696088 34.61838,9.1999009 Z M 30.930847,7.8742502 C 30.522379,7.727503 30.472497,7.6599145 30.772663,7.6599145 c 0.200491,0 0.271625,0.029251 0.399314,0.1641912 0.17944,0.1896323 0.158975,0.1938883 -0.24113,0.050145 z M 17.739103,7.7752337 c 0,-0.052643 0.131464,-0.116408 0.234159,-0.1135765 0.03473,8.653e-4 0.01594,0.0379 -0.04178,0.082095 -0.119116,0.09122 -0.192379,0.1032082 -0.192379,0.031481 z m 1.309783,-1.2750822 c 0.01179,-0.035836 0.301845,-0.3311461 0.64455,-0.6562441 l 0.623095,-0.5910876 0.454588,0.1596491 c 1.440007,0.5057314 1.959747,0.708835 1.887065,0.737426 -0.0446,0.017542 -0.335196,0.1181885 -0.645779,0.2236559 l -0.564691,0.1917574 h -1.210142 c -0.911848,0 -1.204851,-0.016054 -1.188686,-0.065157 z M 26.81021,6.3825061 c -0.258358,-0.096524 -0.484839,-0.1907825 -0.503287,-0.209461 -0.01845,-0.018681 0.520931,-0.2212885 1.198618,-0.450245 l 1.232163,-0.4162832 0.581981,0.5874153 c 0.320088,0.3230782 0.581981,0.6063069 0.581981,0.6293957 0,0.023089 -0.589884,0.040337 -1.310854,0.038329 l -1.310855,-0.00365 z M 30.771018,5.7590682 C 30.352335,5.3156357 30.009777,4.9363417 30.009777,4.9161948 c 0,-0.020141 0.683551,-0.2685461 1.518999,-0.5520024 l 1.519002,-0.515373 0.130841,0.2773209 c 0.331814,0.7032918 1.029869,2.3613253 1.009641,2.3981218 -0.01242,0.022564 -0.615089,0.041046 -1.33928,0.041046 h -1.316721 z m 7.01557,22.7725628 c 0.822652,-0.273588 1.345558,-0.828962 1.56425,-1.661376 0.06246,-0.237746 0.08432,-0.867556 0.104006,-2.996484 l 0.02492,-2.695469 h -0.360591 -0.36059 l 0.01764,0.437971 c 0.0097,0.240886 0.0087,0.437915 -0.0023,0.437842 -0.01091,-6.9e-5 -0.165011,-0.136239 -0.342484,-0.302598 -1.083282,-1.015444 -2.633265,-0.971065 -3.696907,0.105847 -0.930811,0.942429 -1.07235,2.391265 -0.344924,3.530779 0.265296,0.415586 0.799765,0.823953 1.341249,1.024794 0.92576,0.343377 2.056968,0.11447 2.748205,-0.556115 0.139107,-0.134949 0.26392,-0.245365 0.277365,-0.245365 0.01342,0 0.01313,0.252446 -5.71e-4,0.560988 -0.03721,0.832318 -0.225068,1.200004 -0.805875,1.577357 -0.334427,0.217283 -0.932002,0.34459 -1.426534,0.303912 -0.756505,-0.06223 -1.271862,-0.310133 -1.608669,-0.773828 l -0.175172,-0.24117 -0.364876,-0.002 c -0.200685,-0.0012 -0.364879,0.0088 -0.364879,0.0223 0,0.01343 0.0834,0.168509 0.185333,0.344597 0.210661,0.363926 0.61828,0.773478 0.928647,0.933048 0.784998,0.403598 1.809954,0.478699 2.662701,0.195106 z M 36.17214,25.86848 c -0.638172,-0.148411 -1.117706,-0.536757 -1.398673,-1.132707 -0.124508,-0.264092 -0.141685,-0.368147 -0.140009,-0.84832 0.0023,-0.697072 0.128551,-1.047112 0.539032,-1.496012 0.32141,-0.351494 0.726115,-0.581134 1.190602,-0.675579 0.359523,-0.07311 0.95693,0.0094 1.308053,0.180613 0.757344,0.369326 1.21046,1.231239 1.129592,2.1487 -0.0718,0.814612 -0.595956,1.524734 -1.293877,1.752949 -0.374863,0.122579 -0.974286,0.154173 -1.33472,0.07036 z m -11.077742,0.749385 c 0.667985,-0.200664 1.14803,-0.560383 1.5187,-1.138035 0.114062,-0.177752 0.207384,-0.341412 0.207384,-0.363692 0,-0.02227 -0.120647,-0.104382 -0.268105,-0.182449 L 26.284271,24.791752 26.1175,25.037169 c -0.518887,0.763585 -1.37106,1.15572 -2.189004,1.007291 -0.935158,-0.169701 -1.540623,-0.8378 -1.669593,-1.842307 l -0.03689,-0.287335 h 2.407347 c 2.257392,0 2.407228,-0.006 2.405461,-0.09578 -0.0049,-0.247956 -0.160169,-0.955416 -0.259733,-1.183307 -0.625027,-1.430607 -2.366509,-2.029339 -3.777686,-1.29879 -1.18694,0.614465 -1.767672,2.206081 -1.290536,3.536977 0.229046,0.638891 0.771006,1.297829 1.286381,1.564034 0.52028,0.268739 1.52039,0.354372 2.101152,0.17991 z m -2.736211,-3.455588 c 0.246722,-1.029785 1.361728,-1.682876 2.408174,-1.410535 0.761016,0.198056 1.253968,0.675783 1.483724,1.437901 l 0.03712,0.123141 h -1.98254 -1.98254 z m 7.684141,3.412694 c 0.587725,-0.277079 0.90632,-0.778084 0.908536,-1.428721 0.0023,-0.657073 -0.287109,-1.073269 -1.046372,-1.505084 -1.033184,-0.587599 -1.272096,-0.834776 -1.231667,-1.274265 0.04168,-0.453035 0.400827,-0.730079 0.881349,-0.679867 0.318661,0.0333 0.535026,0.13255 0.797384,0.36578 l 0.181076,0.160968 0.205294,-0.212861 c 0.119548,-0.123957 0.192827,-0.24575 0.175448,-0.2916 -0.04945,-0.130484 -0.694283,-0.528071 -1.007656,-0.621302 -0.961744,-0.286119 -1.854763,0.381057 -1.85529,1.386084 -2.86e-4,0.617051 0.358726,1.09686 1.131142,1.511569 0.868176,0.466122 1.152539,0.748387 1.152539,1.144024 0,0.251398 -0.09409,0.453159 -0.305996,0.656154 -0.415654,0.39818 -1.080121,0.346696 -1.610486,-0.124779 l -0.206655,-0.18371 -0.206969,0.243309 -0.206969,0.243306 0.119851,0.130109 c 0.520854,0.56543 1.48392,0.783327 2.125441,0.480886 z m -12.168085,-0.08267 c 0.508096,-0.108512 0.835545,-0.233524 1.147523,-0.438105 0.690635,-0.452881 1.223818,-1.288162 1.398754,-2.19127 0.105984,-0.547149 0.07968,-1.482345 -0.05626,-2.000491 -0.29379,-1.119762 -1.085516,-1.994845 -2.1161,-2.338902 -0.58006,-0.193649 -1.260262,-0.260788 -2.64213,-0.260788 h -1.164331 v 3.673385 3.673388 l 1.581134,-0.02975 c 0.869622,-0.01635 1.702759,-0.05572 1.851411,-0.08747 z m -2.729819,-3.562879 v -2.970881 l 0.959492,0.03223 c 0.527717,0.01772 1.129767,0.06073 1.33788,0.09556 1.090308,0.182466 1.93641,0.952526 2.222101,2.022391 0.140133,0.524775 0.130152,1.393093 -0.02177,1.894767 -0.218198,0.720484 -0.693151,1.289936 -1.317091,1.579152 -0.4534,0.210161 -0.727779,0.249141 -2.004886,0.284819 l -1.175716,0.03285 z m 17.622201,0.958032 v -2.709151 h -0.351363 -0.351363 v 2.672664 c 0,1.469966 0.01619,2.689083 0.03604,2.70915 0.01984,0.02005 0.177933,0.03649 0.351363,0.03649 h 0.315326 z m 8.873507,0.998829 0.01867,-1.710323 0.172203,-0.368048 c 0.410952,-0.878323 1.282014,-1.313419 2.129862,-1.06387 0.347263,0.102213 0.583026,0.324871 0.762835,0.720423 0.120379,0.264816 0.125267,0.335505 0.151423,2.189213 l 0.02701,1.915561 0.343126,0.01644 0.343129,0.01643 -0.0253,-1.904626 c -0.02592,-1.953093 -0.05753,-2.267324 -0.26858,-2.670854 -0.406283,-0.776809 -1.377837,-1.18256 -2.233108,-0.932611 -0.47375,0.138452 -0.79848,0.336602 -1.132279,0.690922 l -0.29737,0.315658 V 21.63945 21.178306 H 41.28039 40.929027 v 2.70915 2.709151 h 0.346198 0.346201 z m -8.871023,-4.95309 c 0.118866,-0.10754 0.175095,-0.216478 0.196962,-0.381583 0.02789,-0.210418 0.01356,-0.248338 -0.160097,-0.424161 -0.144859,-0.146663 -0.235737,-0.193086 -0.378015,-0.193086 -0.387677,0 -0.658224,0.416689 -0.507572,0.781745 0.159147,0.385642 0.551492,0.485996 0.848722,0.217085 z"
     id="path1"
     sodipodi:nodetypes="scsssscccccccccccsssssssssscccccsscssssscccccccsscccssscsssscccssscsscccccsscssscccsssssscssssssssscccccssscsssccccssssssssssssssscssscssscssscscsssssscssssssccssssscccccssssscccccsssssccsssssscssscccsssscccscssscssscscssssssscssssscccccsssssssssssssscccccssssssssssssssssscscccccsssscssccscccssscsssscsccsscsccsssssscscsccssssssssssssscssssccsssscssssssssccccssccsssscssssscsssccsssscscsscsssssssssssscsccssscssssscscscscsscssssscsssscssccccsscccssscsssssccssscssscssssscssscsssscscscscssccccssssssscsssccsssccsscsscssssssscssscsssssssssscccsscsssscssscsssscccssssssssccccsscccsscssccccccsssccccsssscccssssccccccccccssssss" /></svg>
