<?xml version="1.0" encoding="UTF-8" standalone="no"?>
<svg
   fill="none"
   viewBox="0 0 48 48"
   height="256"
   width="256"
   version="1.1"
   id="svg6"
   sodipodi:docname="evebot.svg"
   inkscape:version="1.4 (86a8ad7, 2024-10-11)"
   xml:space="preserve"
   xmlns:inkscape="http://www.inkscape.org/namespaces/inkscape"
   xmlns:sodipodi="http://sodipodi.sourceforge.net/DTD/sodipodi-0.dtd"
   xmlns="http://www.w3.org/2000/svg"
   xmlns:svg="http://www.w3.org/2000/svg"><defs
     id="defs10" /><sodipodi:namedview
     id="namedview8"
     pagecolor="#ffffff"
     bordercolor="#666666"
     borderopacity="1.0"
     inkscape:showpageshadow="2"
     inkscape:pageopacity="0.0"
     inkscape:pagecheckerboard="true"
     inkscape:deskcolor="#d1d1d1"
     showgrid="true"
     inkscape:zoom="2.2898106"
     inkscape:cx="35.592463"
     inkscape:cy="112.67307"
     inkscape:current-layer="svg6"
     showguides="false"
     inkscape:window-width="1352"
     inkscape:window-height="1321"
     inkscape:window-x="-9"
     inkscape:window-y="0"
     inkscape:window-maximized="0"><inkscape:grid
       type="xygrid"
       id="grid239"
       units="px"
       spacingx="1.5"
       spacingy="1.5"
       originx="0"
       originy="0" /></sodipodi:namedview><path
     style="fill:#3465a4;fill-opacity:1;stroke-width:3.2"
     d="m 14.196857,41.993181 c -4.615351,-2.64375 -8.8640486,-5.373661 -9.4415494,-6.06647 -0.911168,-1.093098 -1.05,-2.634759 -1.05,-11.659722 0,-9.943235 0.059296,-10.465603 1.35,-11.891911 C 5.79781,11.55457 10.25444,8.6756545 14.958937,5.9774881 c 6.193069,-3.5519072 8.925296,-4.812474 9.900384,-4.5677412 1.393987,0.3498692 17.068345,9.1979361 18.714813,10.5643811 0.780774,0.647984 0.931174,2.583719 0.931174,11.984663 0,8.06687 -0.210368,11.476201 -0.75,12.154256 C 42.34886,37.880295 26.131439,46.8 24.324751,46.8 23.252409,46.8 19.37933,44.961792 14.196857,41.993181 Z M 31.096268,30.479527 c 4.51584,-4.428525 5.444822,-5.623725 4.696573,-6.042468 -1.314733,-0.73576 -1.539139,-0.595817 -6.10113,3.80474 -2.247523,2.16799 -4.451958,4.158764 -4.898749,4.423942 -0.563046,0.334179 -2.25687,-0.953907 -5.519289,-4.19719 -4.057834,-4.034036 -4.881079,-4.601632 -5.96968,-4.115885 -1.163101,0.518989 -0.816807,1.000761 4.388467,6.105392 C 20.800623,33.506125 23.821404,36 24.405308,36 c 0.583904,0 3.594835,-2.484214 6.69096,-5.520473 z M 26.63791,24.168781 c 2.207209,-2.184179 3.467398,-3.928685 3.467398,-4.8 C 30.105308,18.615952 29.89606,18 29.64029,18 c -0.837488,0 -9.181632,8.753347 -8.752867,9.182115 0.992938,0.992938 2.500039,0.2032 5.750487,-3.013334 z m -4.723933,-5.52424 c 3.665536,-3.842931 3.570317,-3.679965 3.00735,-5.147034 -0.305984,-0.797337 -1.281174,-0.10944 -4.799997,3.385914 -2.428812,2.412598 -4.416022,4.595805 -4.416022,4.851562 0,0.255744 0.633901,0.465017 1.408669,0.465017 0.938208,0 2.541286,-1.18743 4.8,-3.555459 z"
     id="path1"
     sodipodi:nodetypes="sssssssssssssssssssssssssscssss" /></svg>
