<?xml version="1.0" encoding="UTF-8" standalone="no"?>
<svg
   fill="none"
   viewBox="0 0 48 48"
   height="256"
   width="256"
   version="1.1"
   id="svg6"
   sodipodi:docname="fermionic.svg"
   inkscape:version="1.3.2 (091e20e, 2023-11-25, custom)"
   xml:space="preserve"
   xmlns:inkscape="http://www.inkscape.org/namespaces/inkscape"
   xmlns:sodipodi="http://sodipodi.sourceforge.net/DTD/sodipodi-0.dtd"
   xmlns="http://www.w3.org/2000/svg"
   xmlns:svg="http://www.w3.org/2000/svg"><defs
     id="defs10" /><sodipodi:namedview
     id="namedview8"
     pagecolor="#ffffff"
     bordercolor="#666666"
     borderopacity="1.0"
     inkscape:showpageshadow="2"
     inkscape:pageopacity="0.0"
     inkscape:pagecheckerboard="true"
     inkscape:deskcolor="#d1d1d1"
     showgrid="true"
     inkscape:zoom="3.2382812"
     inkscape:cx="86.620026"
     inkscape:cy="73.495779"
     inkscape:current-layer="svg6"
     showguides="true"
     inkscape:window-width="3840"
     inkscape:window-height="1476"
     inkscape:window-x="-12"
     inkscape:window-y="-12"
     inkscape:window-maximized="1"><inkscape:grid
       type="xygrid"
       id="grid239"
       units="px"
       spacingx="1.5"
       spacingy="1.5"
       originx="0"
       originy="0"
       visible="true" /></sodipodi:namedview><g
     id="g3"
     transform="matrix(0.35654596,0,0,0.59627231,10.168053,19.417767)"><path
       style="fill:#f0836c"
       d="m -24.018211,28.179269 c 6.299169,-3.004273 8.585448,-5.156305 16.222825,-15.270249 3.684107,-4.8787491 6.815839,-8.870453 6.959404,-8.870453 0.470394,0 8.692771,11.186605 8.692771,11.826579 0,0.343197 -1.7020149,2.533613 -3.782255,4.867591 -2.571265,2.884894 -5.367998,5.024253 -8.734963,6.681805 -4.670243,2.299153 -5.491809,2.45169 -14.405245,2.674564 l -9.452537,0.236355 z m 67.3125,1.270213 c -1.340625,-0.387092 -2.4375,-0.81512 -2.4375,-0.951174 0,-0.136054 1.864445,-1.485293 4.143211,-2.998308 3.020591,-2.00556 5.925248,-5.140228 10.720107,-11.569002 l 6.576897,-8.8180653 4.558868,6.0663473 4.558869,6.066348 -2.716476,3.05338 C 61.673838,28.19462 51.562296,31.836783 43.294289,29.449482 Z m -5.10395,-16.164527 c -0.565595,-5.2814455 -0.05763,-20.2723048 0.713036,-21.0429743 0.956816,-0.9568159 1.329457,0.6442058 1.736011,7.45862967 0.460146,7.71268293 -0.292778,18.58795663 -1.286891,18.58795663 -0.344473,0 -0.867444,-2.251625 -1.162156,-5.003612 z m -6.577002,-0.65383 c -1.054202,-6.3839814 -0.243791,-18.8158779 1.08948,-16.7128624 0.781605,1.2328546 0.760689,16.2029024 -0.02545,18.2128624 -0.461561,1.1801 -0.669978,0.886287 -1.064032,-1.5 z m 14.284718,1.157442 c -0.735322,-2.647411 -0.646869,-16.6721984 0.112706,-17.8703044 1.384946,-2.1845245 2.109858,10.4755575 0.958831,16.7453044 -0.501246,2.730332 -0.597566,2.831458 -1.071537,1.125 z M 24.895793,10.327571 C 24.122454,9.554232 24.228562,-0.29365905 25.015474,-0.77999701 25.777844,-1.2511679 26.630819,2.407658 26.554075,5.819817 c -0.06473,2.8780849 -0.931578,5.234458 -1.658282,4.507754 z M 52.435277,8.1794039 C 51.784083,4.7082434 52.724543,-1.878942 53.660255,-0.40060414 54.55981,1.0206107 54.547095,9.832426 53.644684,10.390147 53.253026,10.632205 52.708793,9.63737 52.435277,8.1794039 Z M 75.566953,-0.90637439 70.98206,-7.0073521 75.231925,-11.198704 c 6.159179,-6.074378 11.24572,-8.186418 20.731869,-8.608312 10.313746,-0.458701 11.454756,-0.124746 6.767996,1.980883 -6.546054,2.940956 -9.352679,5.449501 -16.047937,14.3435508 L 80.151846,5.1946033 Z M 12.145148,-2.4893796 7.8085081,-8.230461 11.020148,-11.511192 c 1.766403,-1.804402 5.376083,-4.348562 8.021512,-5.653687 4.177224,-2.060839 5.607623,-2.376152 10.875,-2.397255 3.335821,-0.01336 6.72716,0.245635 7.536309,0.575554 1.290912,0.526351 1.061163,0.831335 -1.875,2.488998 -4.528574,2.556687 -7.439011,5.466584 -13.226106,13.223649 -2.692745,3.609375 -5.115089,6.5542054 -5.382987,6.5440675 -0.267898,-0.010138 -2.438575,-2.6019193 -4.823728,-5.7595141 z"
       id="path2" /><path
       style="fill:#3e688e"
       d="M 26.40764,29.472528 C 22.542842,28.561993 18.184162,26.24968 14.904292,23.369916 13.394981,22.044723 6.5990923,13.586083 -0.197683,4.5729376 -13.200556,-12.670063 -16.426464,-15.856965 -23.268211,-18.218634 c -4.827937,-1.666533 -3.230468,-2.022224 7.15954,-1.594139 6.885254,0.283684 8.567587,0.627621 12.760648,2.608795 2.656397,1.255118 6.011062,3.45073 7.454812,4.879139 1.44375,1.428409 8.265694,9.9976496 15.159876,19.0427567 13.04172,17.1106243 15.579101,19.5983823 22.5474,22.1064483 l 3.917724,1.410087 -8.25,-0.04828 c -4.5375,-0.02655 -9.520867,-0.347694 -11.074149,-0.713644 z m 62.715437,0.03642 C 84.35089,28.564456 79.088353,25.535816 75.272643,21.537896 73.370113,19.544515 66.677569,11.101752 60.400324,2.7762006 48.376398,-13.171209 44.809069,-16.587136 37.785024,-18.879277 c -3.150611,-1.028132 -2.835415,-1.066138 6.821765,-0.822573 16.364306,0.412726 17.999518,1.581435 36.364761,25.990417 12.288035,16.331852 14.624825,18.68785 21.57274,21.750061 1.95937,0.863572 3.5625,1.723087 3.5625,1.910035 0,0.570226 -13.668959,0.216335 -16.983713,-0.439711 z"
       id="path1"
       sodipodi:nodetypes="ssssssssscsssssssssssss" /></g></svg>
