<?xml version="1.0" encoding="UTF-8" standalone="no"?>
<svg
   fill="none"
   viewBox="0 0 48 48"
   height="256"
   width="256"
   version="1.1"
   id="svg6"
   sodipodi:docname="geehy.svg"
   inkscape:version="1.3 (0e150ed6c4, 2023-07-21)"
   xml:space="preserve"
   xmlns:inkscape="http://www.inkscape.org/namespaces/inkscape"
   xmlns:sodipodi="http://sodipodi.sourceforge.net/DTD/sodipodi-0.dtd"
   xmlns="http://www.w3.org/2000/svg"
   xmlns:svg="http://www.w3.org/2000/svg"><defs
     id="defs10" /><sodipodi:namedview
     id="namedview8"
     pagecolor="#ffffff"
     bordercolor="#666666"
     borderopacity="1.0"
     inkscape:showpageshadow="2"
     inkscape:pageopacity="0.0"
     inkscape:pagecheckerboard="true"
     inkscape:deskcolor="#d1d1d1"
     showgrid="true"
     inkscape:zoom="3.2382812"
     inkscape:cx="140.04343"
     inkscape:cy="106.6924"
     inkscape:current-layer="svg6"
     showguides="false"
     inkscape:window-width="3840"
     inkscape:window-height="1494"
     inkscape:window-x="-11"
     inkscape:window-y="-11"
     inkscape:window-maximized="1"><inkscape:grid
       type="xygrid"
       id="grid239"
       units="px"
       spacingx="1.5"
       spacingy="1.5"
       originx="0"
       originy="0"
       visible="true" /></sodipodi:namedview><path
     id="rect2"
     style="fill:#84f1d2;stroke-width:0.35433;stroke-linecap:round;stroke-linejoin:round"
     d="m 6,0 h 36 c 3.324,0 6,2.676 6,6 v 36 c 0,3.324 -2.676,6 -6,6 H 6 C 2.676,48 0,45.324 0,42 V 6 C 0,2.676 2.676,0 6,0 Z" /><path
     style="font-style:italic;font-size:50px;font-family:'Source Sans Pro';-inkscape-font-specification:'Source Sans Pro, Italic';text-align:end;text-anchor:end;fill:#204a87;fill-opacity:1;stroke-width:0.354331;stroke-linecap:round;stroke-linejoin:round"
     d="M 11.811791,33.85404 C 6.8213132,27.978154 11.575612,18.685626 14.201357,15.30989 19.965676,7.791212 34.290854,8.5644215 38.229861,14.267678 c 0.14442,0.275399 0.09211,0.561151 -0.130133,0.855848 l -1.671891,2.671623 c -0.332122,0.401996 -0.664244,0.310709 -0.996366,0.0011 -3.870454,-4.402785 -14.505183,-3.885918 -18.351164,2.229687 -2.227825,3.804136 -2.947074,9.586448 -0.544813,11.63456 1.934879,1.649632 4.908114,2.976716 8.174891,2.402689 3.584732,-0.629896 5.379264,-3.623446 5.421715,-6.227441 0.01694,-0.629259 -0.320456,-0.804956 -0.783429,-0.819921 l -4.617748,0.0219 c -0.429918,-0.0246 -0.693071,-0.231855 -0.717973,-0.700048 l 0.193786,-3.373248 c 0.01943,-0.519588 0.398174,-0.648607 0.85725,-0.690315 l 10.161515,-0.04818 c 0.701696,0.0094 1.191002,0.698689 1.087131,1.586022 -0.361708,4.161108 -0.86442,9.853345 -3.632144,12.058079 -5.719724,4.766436 -16.852352,2.574124 -20.868697,-2.015984 z"
     id="text2"
     aria-label="G"
     sodipodi:nodetypes="cccccccssccccccccccc" /></svg>
