<?xml version="1.0" encoding="UTF-8" standalone="no"?>
<svg
   fill="none"
   viewBox="0 0 48 48"
   height="256"
   width="256"
   version="1.1"
   id="svg6"
   sodipodi:docname="giga.svg"
   inkscape:version="1.2.1 (9c6d41e410, 2022-07-14)"
   xmlns:inkscape="http://www.inkscape.org/namespaces/inkscape"
   xmlns:sodipodi="http://sodipodi.sourceforge.net/DTD/sodipodi-0.dtd"
   xmlns="http://www.w3.org/2000/svg"
   xmlns:svg="http://www.w3.org/2000/svg">
  <defs
     id="defs10" />
  <sodipodi:namedview
     id="namedview8"
     pagecolor="#ffffff"
     bordercolor="#666666"
     borderopacity="1.0"
     inkscape:showpageshadow="2"
     inkscape:pageopacity="0.0"
     inkscape:pagecheckerboard="true"
     inkscape:deskcolor="#d1d1d1"
     showgrid="true"
     inkscape:zoom="1.1449053"
     inkscape:cx="73.368514"
     inkscape:cy="71.184927"
     inkscape:current-layer="svg6"
     inkscape:window-width="1920"
     inkscape:window-height="730"
     inkscape:window-x="-6"
     inkscape:window-y="-6"
     inkscape:window-maximized="1">
    <inkscape:grid
       type="xygrid"
       id="grid239"
       units="px"
       spacingx="1.5"
       spacingy="1.5" />
  </sodipodi:namedview>
  <path
     sodipodi:nodetypes="cssccssscsccsscssscssscc"
     inkscape:connector-curvature="0"
     id="path1151-5"
     d="M 20.110003,45.76371 C 14.72341,44.780582 9.548472,41.559159 6.272972,37.150099 4.523303,34.794917 3.139922,31.734684 2.403282,28.589797 2.151432,27.514593 2.088054,26.578847 2.089573,23.958033 2.091373,20.928668 2.127803,20.530227 2.559421,18.825726 3.606579,14.690369 5.509302,11.337807 8.490547,8.3751899 10.746622,6.1332102 13.534924,4.3442961 16.34759,3.3342788 22.580403,1.0960996 29.543255,1.6976766 35.160994,4.9597206 c 3.470196,2.0150375 5.156266,4.7609837 5.145886,8.3806424 -0.008,2.683616 -0.73001,4.436937 -2.61112,6.338187 -2.04255,2.064407 -3.710724,2.766531 -8.370251,3.522982 -1.423925,0.222766 -2.438993,0.424292 -3.293943,0.608258 -0.02187,0.31245 0.0041,0.732334 0.05217,1.133969 0.54469,4.5515 3.956569,8.069199 8.535108,8.84254 0.321199,0.05425 0.85881,0.139087 0.999249,0.108657 0.226486,-0.340558 0.465296,-0.775588 1.043587,-2.028733 0.77501,-1.679432 1.24401,-3.149178 1.5561,-4.87649 0.43633,-2.414948 0.55762,-2.724483 1.39495,-3.560071 1.56342,-1.560148 3.68264,-1.56195 5.24317,-0.0045 1.08315,1.081038 1.30988,1.915323 1.04128,3.831593 -1.1504,8.207439 -7.20127,15.305299 -15.196598,17.826105 -0.761987,0.240243 -2.034868,0.549837 -2.828624,0.687987 -1.77418,0.30879 -6.052438,0.30483 -7.761958,-0.0072 z"
     style="fill:#729fcf;fill-opacity:1;stroke:none;stroke-width:0.168592" />
  <path
     sodipodi:nodetypes="cscscsscsccsscccssssccsccsssscc"
     inkscape:connector-curvature="0"
     id="path1149-4"
     d="m 20.897442,45.869927 c -1.874892,-0.188132 -4.22416,-0.991747 -5.604661,-1.60192 -1.444932,-0.638652 -2.338018,-1.142422 -2.225096,-1.255126 0.0458,-0.04571 0.751489,0.05328 1.568205,0.219964 1.949168,0.397817 5.481092,0.255873 7.495808,-0.135604 1.741812,-0.338447 3.985253,-1.101885 5.522574,-1.879328 2.532732,-1.280831 5.46766,-3.819345 7.152423,-6.186368 0.35811,-0.503131 0.649694,-0.888054 0.784145,-1.126644 0.288407,0.02324 0.82268,0.04243 1.78185,-0.05885 2.95576,-0.312103 5.81489,-2.096165 7.29291,-4.394979 0.30909,-0.480736 0.91073,-1.651792 1.28183,-2.645318 0.011,0.339602 -0.52982,3.049599 -0.95216,4.284486 -2.07142,6.056579 -6.69027,10.996873 -12.636567,13.389944 -2.632881,1.059595 -4.620786,1.445357 -7.672584,1.514915 -1.246156,-0.0392 -2.552311,0.03749 -3.788677,-0.125177 z M 7.705483,38.9095 C 5.059679,35.986616 3.156369,32.219705 2.316583,28.337155 1.892558,26.376782 1.896734,21.752358 2.316043,19.831553 3.784524,13.104592 7.935005,7.6494464 13.577072,4.589323 c 1.952095,-1.0587703 3.784227,-1.3488251 5.295051,-1.3454172 4.513677,0.010181 8.542538,3.1884985 9.702596,7.6542542 0.328087,1.262992 0.331496,3.560044 0.0073,4.93225 -0.136649,0.578428 -0.667121,1.713214 -1.078561,2.530845 -0.825899,1.641262 -1.265314,2.82638 -1.435107,4.282702 -0.06178,0.529881 -0.04716,1.167726 -0.04716,1.167726 0,0 -0.953224,0.302342 -1.742161,0.554073 -1.819724,0.580633 -4.917931,2.069558 -6.672085,3.206447 -3.940893,2.55414 -7.259923,6.143422 -8.688802,10.407444 -0.302662,0.903194 -0.413573,1.610591 -0.478507,1.610591 -0.06493,0 -0.395353,-0.306331 -0.734266,-0.680738 z"
     style="fill:#3465a4;fill-opacity:1;stroke:none;stroke-width:0.168592" />
</svg>
