<?xml version="1.0" encoding="UTF-8" standalone="no"?>
<svg
   fill="none"
   viewBox="0 0 48 48"
   height="256"
   width="256"
   version="1.1"
   id="svg6"
   sodipodi:docname="git - Copy.svg"
   inkscape:version="1.4 (86a8ad7, 2024-10-11)"
   xml:space="preserve"
   xmlns:inkscape="http://www.inkscape.org/namespaces/inkscape"
   xmlns:sodipodi="http://sodipodi.sourceforge.net/DTD/sodipodi-0.dtd"
   xmlns="http://www.w3.org/2000/svg"
   xmlns:svg="http://www.w3.org/2000/svg"><defs
     id="defs10" /><sodipodi:namedview
     id="namedview8"
     pagecolor="#ffffff"
     bordercolor="#666666"
     borderopacity="1.0"
     inkscape:showpageshadow="2"
     inkscape:pageopacity="0.0"
     inkscape:pagecheckerboard="true"
     inkscape:deskcolor="#d1d1d1"
     showgrid="true"
     inkscape:zoom="3.2382812"
     inkscape:cx="168.45356"
     inkscape:cy="110.86128"
     inkscape:current-layer="svg6"
     showguides="false"
     inkscape:window-width="3840"
     inkscape:window-height="1476"
     inkscape:window-x="-12"
     inkscape:window-y="-12"
     inkscape:window-maximized="1"><inkscape:grid
       type="xygrid"
       id="grid239"
       units="px"
       spacingx="1.5"
       spacingy="1.5"
       originx="0"
       originy="0" /></sodipodi:namedview><path
     style="fill:#2e3436;stroke-width:0.379857;fill-opacity:1"
     d="M 16.497275,47.949212 C 16.028247,47.859122 14.112166,47.04727 13.011151,46.472128 7.2428824,43.458931 2.7225904,37.844187 0.93109051,31.467257 -0.50916601,26.340584 -0.2697487,20.596332 1.5883125,15.698852 4.6329303,7.6738505 11.695517,1.7484397 19.880832,0.35168565 29.477852,-1.285964 38.806477,2.8756209 44.128751,11.168906 c 3.407877,5.310234 4.632216,11.884221 3.407915,18.298529 -0.890534,4.665634 -3.1948,9.044807 -6.603192,12.549124 -2.321363,2.386691 -5.046909,4.216718 -8.163162,5.481031 -1.450809,0.588616 -1.961823,0.622468 -2.413803,0.159903 l -0.306891,-0.314079 -0.05519,-4.348002 c -0.05098,-4.01647 -0.07021,-4.404214 -0.252218,-5.085196 -0.237421,-0.888331 -0.449001,-1.329689 -0.946685,-1.974802 l -0.376323,-0.487794 0.768302,-0.11018 c 2.977745,-0.427033 5.196555,-1.358828 6.958187,-2.922109 1.392597,-1.235797 2.465913,-3.407012 2.91258,-5.891874 0.234073,-1.302182 0.287988,-3.919032 0.10312,-5.005108 -0.2727,-1.602066 -0.917538,-3.071123 -1.878772,-4.280171 l -0.419881,-0.52813 0.184384,-0.607001 c 0.403073,-1.326934 0.400033,-2.923784 -0.0086,-4.539168 -0.295858,-1.169465 -0.402269,-1.380026 -0.731518,-1.447496 -0.930834,-0.1907469 -3.410309,0.736159 -5.458023,2.04038 -0.881153,0.56122 -0.719183,0.546252 -2.253485,0.208249 -2.991889,-0.659107 -6.822596,-0.62148 -9.584967,0.09415 -0.395604,0.102484 -0.806796,0.186334 -0.91377,0.186334 -0.106974,0 -0.488022,-0.192775 -0.846774,-0.428387 -1.608005,-1.056065 -3.964246,-2.022942 -5.072481,-2.081477 -0.755658,-0.03991 -0.796698,-0.02004 -0.965054,0.467199 -0.626048,1.811855 -0.74884,3.83365 -0.32195,5.300962 l 0.234813,0.807099 -0.404607,0.508972 c -0.9546706,1.200916 -1.613769,2.703724 -1.8852266,4.298487 -0.1829173,1.074611 -0.1319481,3.699825 0.096482,4.9692 0.3241302,1.801197 1.1005856,3.73345 1.9589886,4.875041 1.609225,2.140112 4.562368,3.593857 8.155781,4.014853 l 0.536577,0.06286 -0.365353,0.473581 c -0.476118,0.617152 -0.817691,1.368459 -1.001685,2.203256 l -0.148231,0.672542 -0.764019,0.256028 c -0.665287,0.22294 -0.927704,0.257226 -2.030554,0.2653 -1.260758,0.0092 -1.269422,0.0078 -1.901449,-0.317166 -0.811945,-0.417454 -1.514102,-1.111646 -2.156869,-2.132408 -0.975543,-1.54923 -2.3701024,-2.546034 -3.7023008,-2.646335 -0.6914424,-0.05206 -1.0789747,0.07752 -1.1357866,0.379776 -0.035912,0.191057 0.7203535,0.978323 1.4017167,1.459176 0.6161002,0.434799 1.4930152,1.705619 2.003515,2.903485 0.2427417,0.569592 0.6039977,1.257387 0.8027807,1.528434 0.411301,0.560812 1.260627,1.180461 2.013708,1.469159 1.046847,0.401312 3.249814,0.57901 4.57448,0.368991 l 0.820899,-0.13015 0.02345,1.687231 c 0.04911,3.533075 0.02841,3.666088 -0.619857,3.981277 -0.322358,0.156732 -0.464645,0.170437 -0.900452,0.08673 z"
     id="path1" /></svg>
