<?xml version="1.0" encoding="UTF-8" standalone="no"?>
<svg
   fill="none"
   viewBox="0 0 48 48"
   height="256"
   width="256"
   version="1.1"
   id="svg6"
   sodipodi:docname="hpmicro.svg"
   inkscape:version="1.2.1 (9c6d41e410, 2022-07-14)"
   xmlns:inkscape="http://www.inkscape.org/namespaces/inkscape"
   xmlns:sodipodi="http://sodipodi.sourceforge.net/DTD/sodipodi-0.dtd"
   xmlns="http://www.w3.org/2000/svg"
   xmlns:svg="http://www.w3.org/2000/svg">
  <defs
     id="defs10" />
  <sodipodi:namedview
     id="namedview8"
     pagecolor="#ffffff"
     bordercolor="#666666"
     borderopacity="1.0"
     inkscape:showpageshadow="2"
     inkscape:pageopacity="0.0"
     inkscape:pagecheckerboard="true"
     inkscape:deskcolor="#d1d1d1"
     showgrid="true"
     inkscape:zoom="4.5796212"
     inkscape:cx="130.46931"
     inkscape:cy="144.55344"
     inkscape:current-layer="svg6"
     inkscape:window-width="2560"
     inkscape:window-height="1334"
     inkscape:window-x="-11"
     inkscape:window-y="-11"
     inkscape:window-maximized="1">
    <inkscape:grid
       type="xygrid"
       id="grid239"
       units="px"
       spacingx="1.5"
       spacingy="1.5" />
  </sodipodi:namedview>
  <path
     id="path406"
     style="fill:#00469b;stroke-width:0.1875"
     class="cls-1"
     d="M 32.155884 0.00073242188 C 30.434483 -0.014635454 28.714084 0.16759985 27.022339 0.54528809 C 25.803161 0.80740675 24.599481 1.151786 23.418091 1.5765381 C 22.238299 1.9904088 21.081049 2.4796929 19.952271 3.0421143 C 15.454695 5.2751392 11.40957 8.4924905 8.0592041 12.501709 C 11.627806 8.8395191 15.778999 5.945781 20.300903 3.9675293 C 21.417884 3.4756399 22.558368 3.0520718 23.717285 2.6993408 C 24.867739 2.3418294 26.037059 2.0631817 27.218262 1.8643799 C 28.395765 1.6676389 29.582801 1.549481 30.773071 1.5109863 C 31.956099 1.4825894 33.139424 1.5564813 34.312134 1.7318115 C 36.640146 2.0849846 38.909139 2.8935478 40.845703 4.265625 C 42.783302 5.6218533 44.311539 7.5898315 45.234375 9.916626 C 46.133437 12.189295 46.41982 14.73907 46.189087 17.253662 L 48 17.253662 C 48 14.465572 47.879241 11.671818 46.817871 9.1307373 C 45.726169 6.4854162 43.948171 4.2616223 41.711426 2.7436523 C 39.509122 1.230306 36.994969 0.44801592 34.501465 0.14428711 C 33.72116 0.055648154 32.938339 0.0077178198 32.155884 0.00073242188 z M 20.503784 17.242676 A 0.95247859 1.40625 0 0 0 19.915649 17.53125 A 1.1099551 1.63875 0 0 0 19.53479 18.384521 L 17.388428 28.166382 L 19.067505 28.166382 L 20.026245 23.709229 C 20.153242 23.109229 20.280215 22.548603 20.379272 22.021729 C 20.478332 21.494854 20.588954 20.984985 20.690552 20.46936 C 20.864961 21.07061 21.051778 21.682676 21.251587 22.305176 C 21.451395 22.927675 21.678379 23.624259 21.932373 24.395508 L 22.91272 27.395508 A 1.3550595 2.000625 0 0 0 23.119995 27.877441 A 0.88898002 1.3125 0 0 0 23.349609 28.151367 A 0.80770185 1.1925 0 0 0 23.609985 28.28064 A 2.0230645 2.986875 0 0 0 23.904785 28.3125 A 1.9328966 2.85375 0 0 0 24.187866 28.28064 A 0.81532167 1.20375 0 0 0 24.449341 28.151367 A 0.95882845 1.415625 0 0 0 24.684448 27.877441 A 1.2509219 1.846875 0 0 0 24.896484 27.395508 C 25.212707 26.458009 25.517402 25.520536 25.814575 24.613037 L 28.005249 17.609985 A 0.77468259 1.14375 0 0 0 27.947021 17.533081 A 0.96898822 1.430625 0 0 0 27.350098 17.242676 A 0.98041796 1.4475 0 0 0 26.778442 17.482544 A 1.1899633 1.756875 0 0 0 26.397583 18.127441 L 25.296387 21.359985 C 25.006833 22.196235 24.751833 22.944361 24.534668 23.609985 C 24.317503 24.27561 24.116786 24.900001 23.935181 25.5 C 23.745532 24.888751 23.541929 24.25372 23.324341 23.594971 C 23.106752 22.936221 22.852656 22.18622 22.562256 21.344971 L 21.462524 18.127441 A 1.1899633 1.756875 0 0 0 21.069946 17.474854 A 1.0032775 1.48125 0 0 0 20.503784 17.242676 z M 6.6903076 17.409302 L 6.6903076 21.534302 L 1.7219238 21.534302 L 0 21.534302 L 0 28.175537 L 1.7219238 28.175537 L 1.7219238 23.677368 L 6.6903076 23.677368 L 6.6903076 28.166382 L 8.4008789 28.166382 L 8.4008789 19.541382 L 14.242676 19.541382 C 14.787917 19.541382 15.223724 19.672559 15.549683 19.935059 C 15.877334 20.197558 16.039673 20.634434 16.039673 21.247559 A 0.92072931 1.359375 0 0 1 15.531738 22.526367 A 2.6669401 3.9375 0 0 1 14.241577 22.93689 L 10.371826 22.93689 L 10.371826 28.166382 L 12.082397 28.166382 L 12.082397 25.044434 L 14.350708 25.044434 A 5.295781 7.81875 0 0 0 15.783325 24.780029 A 3.3019258 4.875 0 0 0 16.867676 24.030029 A 2.22626 3.286875 0 0 0 17.548462 22.839478 A 2.358337 3.481875 0 0 0 17.783569 21.271729 A 2.4307254 3.58875 0 0 0 17.548462 19.6875 A 2.2922985 3.384375 0 0 0 16.867676 18.465088 A 3.249857 4.798125 0 0 0 15.783325 17.683228 A 5.1421144 7.591875 0 0 0 14.350708 17.409302 L 6.6903076 17.409302 z M 28.391602 19.721191 L 27.391846 22.730713 L 28.556396 28.126831 L 30.235474 28.126831 L 28.391602 19.721191 z M 36.385986 20.148926 A 2.9209343 4.3125 0 0 0 35.274902 20.454346 A 2.6275709 3.879375 0 0 0 33.797607 22.608765 A 3.0174522 4.455 0 0 0 33.797607 25.890015 A 2.6390007 3.89625 0 0 0 34.386841 27.192993 A 2.6669401 3.9375 0 0 0 35.276001 28.046265 A 2.9209343 4.3125 0 0 0 36.387085 28.352051 A 2.8802953 4.2525 0 0 0 37.612793 27.989868 A 2.7469483 4.055625 0 0 0 38.543701 26.936279 L 37.629272 25.713867 A 1.77796 2.625 0 0 1 37.10083 26.422485 A 1.3271202 1.959375 0 0 1 36.44165 26.662354 A 1.3055307 1.9275 0 0 1 35.880615 26.486206 A 1.3677593 2.019375 0 0 1 35.433472 25.995117 A 1.4795167 2.184375 0 0 1 35.138672 25.231934 A 2.0713234 3.058125 0 0 1 35.036133 24.24939 A 2.0319543 3 0 0 1 35.138672 23.276367 A 1.5519051 2.29125 0 0 1 35.432373 22.513184 A 1.3309301 1.965 0 0 1 35.87915 22.014404 A 1.3055307 1.9275 0 0 1 36.440552 21.836426 A 1.291561 1.906875 0 0 1 37.099731 22.085449 A 1.8478085 2.728125 0 0 1 37.627808 22.801758 L 38.542236 21.564331 A 2.7304386 4.03125 0 0 0 37.611328 20.510742 A 2.8802953 4.2525 0 0 0 36.385986 20.148926 z M 42.317871 20.148926 A 2.0789433 3.069375 0 0 0 41.302002 20.501221 A 2.5716922 3.796875 0 0 0 40.617554 21.273926 L 40.617554 20.373779 L 39.201416 20.373779 L 39.201416 28.141846 L 40.617554 28.141846 L 40.617554 22.786743 A 1.1429743 1.6875 0 0 1 40.978271 22.383911 A 1.8046294 2.664375 0 0 1 41.435303 22.151367 A 2.3164279 3.42 0 0 1 41.904053 22.078125 A 1.7220813 2.5425 0 0 1 42.317871 22.143677 L 42.317871 20.148926 z M 45.181641 20.148926 A 2.8409261 4.194375 0 0 0 44.027344 20.478882 A 2.7355185 4.03875 0 0 0 43.13855 21.371338 A 2.6161412 3.8625 0 0 0 42.572021 22.674316 A 2.9920528 4.4175 0 0 0 42.572021 25.826294 A 2.6161412 3.8625 0 0 0 43.13855 27.129272 A 2.7164689 4.010625 0 0 0 44.027344 28.021729 A 3.1228598 4.610625 0 0 0 46.347656 28.021729 A 2.7164689 4.010625 0 0 0 47.23645 27.129272 A 2.6199511 3.868125 0 0 0 47.804443 25.826294 A 2.9006148 4.2825 0 0 0 48 24.24939 A 2.8269565 4.17375 0 0 0 47.802979 22.674316 A 2.7380585 4.0425 0 0 0 47.23645 21.371338 A 2.6517004 3.915 0 0 0 46.347656 20.478882 A 2.9209343 4.3125 0 0 0 45.181641 20.148926 z M 31.313599 20.373779 L 31.313599 28.143677 L 32.729736 28.143677 L 32.729736 20.373779 L 31.313599 20.373779 z M 45.191162 21.836792 A 1.3068006 1.929375 0 0 1 46.185059 22.513184 A 2.1145025 3.121875 0 0 1 46.185059 25.995117 A 1.2052029 1.779375 0 0 1 45.183105 26.662354 A 1.1772635 1.738125 0 0 1 44.197632 25.995117 A 2.1386319 3.1575 0 0 1 44.197632 22.513184 A 1.3068006 1.929375 0 0 1 45.191162 21.836792 z M 45.522217 30.954346 A 38.310222 39.077744 0 0 1 38.983521 37.786743 A 40.544165 41.356445 0 0 1 25.160889 45.309814 A 31.511945 32.143269 0 0 1 17.417358 46.635132 C 14.801155 46.738872 12.156998 46.44736 9.6793213 45.587036 C 7.2016439 44.726711 4.9064387 43.297771 3.1915283 41.256958 C 1.4766181 39.216146 0.37173921 36.635127 0 33.923584 A 14.67144 14.965374 0 0 0 0.79943848 37.96582 A 13.466793 13.736593 0 0 0 2.7513428 41.621704 C 4.4083879 43.86463 6.7737604 45.524561 9.3391113 46.549438 C 11.904463 47.574315 14.69235 47.992846 17.440063 48 C 20.187778 48.0072 22.933999 47.574349 25.592285 46.875 C 26.917921 46.507738 28.223754 46.075483 29.509644 45.578247 C 30.784428 45.061337 32.039661 44.492254 33.261841 43.851929 C 34.484022 43.211604 35.67837 42.523097 36.826904 41.757568 C 37.414323 41.399845 37.968324 40.977809 38.538208 40.587891 C 39.088802 40.169354 39.655217 39.770449 40.186523 39.335815 A 39.407906 40.19742 0 0 0 46.108154 33.481567 C 46.77974 32.673113 47.405568 31.825402 48 30.954346 L 45.522217 30.954346 z " />
  <path
     class="cls-2"
     d="m 32.615407,19.063125 a 0.84199108,1.243125 0 1 1 0.245105,-0.8775 0.80897182,1.194375 0 0 1 -0.245105,0.8775 z"
     id="path402"
     style="fill:#f5a200;stroke-width:0.1875" />
  <path
     id="rect404"
     style="fill:#f5a200;stroke-width:0.1875"
     class="cls-2"
     d="M 7.9030436e-8,17.403749 H 1.7220814 V 20.38875 H 7.9030436e-8 Z" />
</svg>
