<?xml version="1.0" encoding="UTF-8" standalone="no"?>
<svg
   fill="none"
   viewBox="0 0 48 48"
   height="256"
   width="256"
   version="1.1"
   id="svg6"
   sodipodi:docname="infineon.svg"
   inkscape:version="1.2.1 (9c6d41e410, 2022-07-14)"
   xmlns:inkscape="http://www.inkscape.org/namespaces/inkscape"
   xmlns:sodipodi="http://sodipodi.sourceforge.net/DTD/sodipodi-0.dtd"
   xmlns="http://www.w3.org/2000/svg"
   xmlns:svg="http://www.w3.org/2000/svg">
  <defs
     id="defs10" />
  <sodipodi:namedview
     id="namedview8"
     pagecolor="#ffffff"
     bordercolor="#666666"
     borderopacity="1.0"
     inkscape:showpageshadow="2"
     inkscape:pageopacity="0.0"
     inkscape:pagecheckerboard="true"
     inkscape:deskcolor="#d1d1d1"
     showgrid="true"
     inkscape:zoom="1.6191406"
     inkscape:cx="80.289507"
     inkscape:cy="126.91918"
     inkscape:current-layer="svg6"
     showguides="false"
     inkscape:window-width="1920"
     inkscape:window-height="730"
     inkscape:window-x="-6"
     inkscape:window-y="-6"
     inkscape:window-maximized="1">
    <inkscape:grid
       type="xygrid"
       id="grid239"
       units="px"
       spacingx="1.5"
       spacingy="1.5" />
  </sodipodi:namedview>
  <path
     id="rect3386"
     style="fill:#3465a4;fill-opacity:1;stroke-width:0.9375;stroke-linecap:round;stroke-linejoin:round"
     d="m 18.647095,6.1149902 c 0.573652,-0.00326 1.152215,0.1497919 1.659301,0.4790039 1.566626,1.0170885 1.793352,3.2096453 0.464722,4.4930419 -0.565389,0.546141 -1.13441,0.777625 -1.991089,0.810059 -0.524524,0.01986 -0.847277,-0.01121 -1.124633,-0.108399 -1.733674,-0.607532 -2.535353,-2.5160345 -1.713501,-4.0788571 0.532203,-1.0120359 1.610045,-1.58862 2.7052,-1.5948487 z m 21.44165,4.3073728 c 0.76244,-0.0057 1.560658,0.154548 2.162476,0.470948 0.230719,0.121297 0.419311,0.24769 0.419311,0.280883 0,0.0538 -0.443883,1.26196 -0.681152,1.85376 l -0.09082,0.226685 -0.411622,-0.175782 c -0.240279,-0.102667 -0.605658,-0.178568 -0.878173,-0.182373 -0.428584,-0.006 -0.48976,0.0179 -0.750733,0.292969 -0.37925,0.399746 -0.476806,0.885487 -0.476806,2.375244 v 1.20813 h 1.341796 c 0.737921,0 1.341797,0.01584 1.341797,0.03516 0,0.03358 -0.385828,1.809722 -0.478271,2.201661 -0.04311,0.182758 -0.07513,0.187866 -1.124634,0.187866 h -1.080688 v 5.936645 5.936646 h -1.413575 c -0.777594,0 -1.439697,-0.02537 -1.471435,-0.05603 -0.03174,-0.03066 -0.05786,-2.701863 -0.05786,-5.93628 V 19.19751 h -0.478637 -0.478272 l 0.02417,-1.191284 0.0238,-1.191651 0.444214,-0.0249 0.444214,-0.0249 0.04468,-1.605469 c 0.0292,-1.052815 0.08905,-1.754241 0.173584,-2.037232 0.357934,-1.198251 0.9413,-1.94998 1.847901,-2.381103 0.440335,-0.209397 1.011727,-0.314158 1.604736,-0.318604 z m -20.078613,3.507569 c 0.148051,0 0.154907,0.388294 0.154907,8.570434 v 8.570435 h -1.428223 -1.428222 v -8.396485 -8.396484 l 0.238037,-0.04651 c 0.3226,-0.0631 2.269967,-0.301391 2.463501,-0.301391 z m 5.772217,2.534179 c 0.125884,0.03363 0.323599,0.622776 0.407959,1.237061 l 0.05603,0.40686 0.477539,-0.421509 c 0.785827,-0.693751 1.952093,-1.16455 2.885376,-1.16455 0.223023,0 0.669688,0.07875 0.992432,0.175048 0.486172,0.145051 0.671799,0.257329 1.082885,0.654419 0.40177,0.388092 0.534416,0.58958 0.697266,1.05835 l 0.20105,0.57898 0.02747,6.041015 0.02783,6.041016 h -1.428223 -1.428589 l -0.02564,-5.455811 c -0.023,-4.87922 -0.04092,-5.488095 -0.169922,-5.762695 -0.419634,-0.893218 -1.645286,-0.792914 -2.731933,0.223755 l -0.456299,0.427002 v 5.283691 5.284058 h -1.377319 -1.37732 l -0.04065,-6.08313 c -0.03749,-5.614092 -0.05375,-6.15029 -0.212036,-6.960571 -0.09433,-0.482863 -0.166225,-0.885078 -0.159668,-0.893921 0.0066,-0.0088 0.553246,-0.153713 1.215088,-0.3219 0.661842,-0.168186 1.252557,-0.324216 1.3125,-0.346435 0.0077,-0.0029 0.01578,-0.003 0.02417,-7.33e-4 z"
     sodipodi:nodetypes="sssscsssssccccsscsssscccsssccccccccsssssccccccsscccssscccccccccccccccscsss" />
  <path
     id="rect3383"
     style="fill:#cc0000;fill-opacity:1;stroke-width:0.9375;stroke-linecap:round;stroke-linejoin:round"
     d="m 45.999756,1.9998779 v 0.9100342 c -3.490792,0.4553131 -7.413223,1.1192005 -10.859619,1.9522705 -2.938875,0.710391 -9.120319,2.6670149 -11.44336,3.6221924 -0.461748,0.1898592 -0.859226,0.3453369 -0.8833,0.3453369 -0.02407,0 -0.06822,-0.1410249 -0.09814,-0.3134765 C 22.578076,7.7251258 22.300026,7.1079431 21.798706,6.4819336 L 21.559204,6.1831055 22.009277,6.0380859 C 29.209753,3.7149063 37.408564,2.3202013 45.999756,1.9998779 Z M 14.5177,9.1029053 l 0.0542,0.4467773 c 0.10034,0.8246684 0.545562,1.6667184 1.210694,2.2899174 0.171785,0.160953 0.312969,0.316666 0.313476,0.346069 5.54e-4,0.0294 -0.397218,0.31182 -0.883667,0.627319 -1.747013,1.133079 -3.594329,2.651868 -4.635498,3.811524 -2.1361193,2.37921 -3.0735328,4.711901 -2.7985837,6.963867 0.6013069,4.924986 4.5748497,9.216396 11.6510007,12.583374 10.722752,4.459938 18.445848,5.375445 26.570435,6.135132 v 3.047973 C 39.509649,44.816409 32.782792,43.961985 27.255981,42.64563 14.488141,39.555249 5.634342,34.254674 2.8967285,28.062378 0.03298092,21.584773 4.1229031,14.621991 13.814209,9.4764404 Z"
     sodipodi:nodetypes="ccssssccccccsccssccccscc" />
</svg>
