<?xml version="1.0" encoding="UTF-8" standalone="no"?>
<svg
   fill="none"
   viewBox="0 0 48 48"
   height="256"
   width="256"
   version="1.1"
   id="svg6"
   sodipodi:docname="instagram.svg"
   inkscape:version="1.2.1 (9c6d41e410, 2022-07-14)"
   xml:space="preserve"
   xmlns:inkscape="http://www.inkscape.org/namespaces/inkscape"
   xmlns:sodipodi="http://sodipodi.sourceforge.net/DTD/sodipodi-0.dtd"
   xmlns="http://www.w3.org/2000/svg"
   xmlns:svg="http://www.w3.org/2000/svg"><defs
     id="defs10" /><sodipodi:namedview
     id="namedview8"
     pagecolor="#ffffff"
     bordercolor="#666666"
     borderopacity="1.0"
     inkscape:showpageshadow="2"
     inkscape:pageopacity="0.0"
     inkscape:pagecheckerboard="true"
     inkscape:deskcolor="#d1d1d1"
     showgrid="true"
     inkscape:zoom="1.1449053"
     inkscape:cx="222.28913"
     inkscape:cy="72.495079"
     inkscape:current-layer="svg6"
     showguides="false"
     inkscape:window-width="2560"
     inkscape:window-height="1316"
     inkscape:window-x="-12"
     inkscape:window-y="-12"
     inkscape:window-maximized="1"><inkscape:grid
       type="xygrid"
       id="grid239"
       units="px"
       spacingx="1.5"
       spacingy="1.5" /></sodipodi:namedview><path
     id="rect908"
     style="fill:#204a87;fill-opacity:1;stroke:none;stroke-width:0.35433;stroke-linecap:round;stroke-linejoin:round"
     d="M 4.5 0 C 2.007005 0 0 2.007005 0 4.5 L 0 43.5 C 0 45.992996 2.007005 48 4.5 48 L 43.5 48 C 45.992996 48 48 45.992996 48 43.5 L 48 4.5 C 48 2.007005 45.992996 0 43.5 0 L 4.5 0 z M 24 7.5 C 31.036172 7.496498 32.111381 7.5345904 33.1875 7.8266602 C 36.929896 8.8423801 39.029366 10.892316 40.064575 14.541138 C 40.371295 15.622086 40.40625 16.576995 40.40625 23.901123 C 40.40625 31.131191 40.368494 32.195768 40.073364 33.276123 C 39.022455 37.123215 36.594252 39.393026 32.749146 40.122437 C 31.585187 40.343237 29.732818 40.395541 23.842896 40.373291 C 15.846342 40.343081 15.797848 40.340777 14.25 39.907104 C 11.036015 39.006619 8.8891641 36.811187 7.935791 33.450439 C 7.6283153 32.366572 7.59375 31.41331 7.59375 23.994873 C 7.59375 16.672639 7.6313182 15.607816 7.927002 14.526123 C 8.909308 10.932565 11.143225 8.7434922 14.765625 7.8248291 C 15.860694 7.5471144 17.105143 7.5034 24 7.5 z M 22.673584 10.426392 C 18.03501 10.435885 15.101972 10.701911 13.972778 11.218872 C 12.840558 11.737221 11.787816 12.757932 11.262817 13.846069 C 10.719843 14.971461 10.500181 17.90011 10.5 24.021973 C 10.499808 30.404846 10.702404 32.796846 11.358032 34.153931 C 12.199421 35.895529 13.771787 36.9316 15.987305 37.203735 C 16.733322 37.29537 20.718754 37.348471 24.84375 37.322021 C 31.277883 37.280764 32.482323 37.229231 33.319702 36.958008 C 35.25144 36.332325 36.721888 34.731159 37.131958 32.807373 C 37.437028 31.376138 37.5838 20.309838 37.33667 17.367554 C 37.09855 14.532555 36.765299 13.543521 35.66272 12.401001 C 34.134871 10.817788 33.068712 10.600258 26.15625 10.460815 C 24.905345 10.435581 23.744024 10.424201 22.673584 10.426392 z M 32.775879 13.12207 C 33.649097 13.149896 34.628252 13.926889 34.7948 14.814697 C 34.94036 15.590567 34.485435 16.489853 33.756226 16.866943 C 33.023486 17.245864 32.466043 17.224351 31.753784 16.790039 C 31.091355 16.386115 30.668018 15.387321 30.850708 14.659424 C 30.993818 14.089237 31.810737 13.303069 32.410767 13.157959 C 32.528499 13.129487 32.651133 13.118095 32.775879 13.12207 z M 23.888306 15.500977 C 27.722322 15.458714 31.202822 18.044357 32.172363 21.838623 C 33.263612 26.109201 30.776274 30.69682 26.684326 31.960693 C 24.180583 32.734023 21.231091 32.326819 19.198975 30.927246 C 14.75465 27.866322 14.274738 21.459982 18.216431 17.810669 C 19.569318 16.558133 20.969386 15.866443 22.689331 15.60022 C 23.091127 15.538028 23.491683 15.505349 23.888306 15.500977 z M 24 18.56543 C 21.658223 18.56543 19.963159 19.657034 18.984009 21.795776 C 18.346395 23.18851 18.432525 25.295228 19.179199 26.569336 C 19.773316 27.583115 20.795442 28.513848 21.831665 28.984497 C 23.031784 29.529591 25.165822 29.468853 26.398682 28.854492 C 28.436002 27.839256 29.560496 25.848022 29.395386 23.548096 C 29.291656 22.10304 28.841688 21.11551 27.815186 20.078979 C 26.730168 18.983361 25.676473 18.56543 24 18.56543 z " /></svg>
