<?xml version="1.0" encoding="UTF-8" standalone="no"?>
<svg
   fill="none"
   viewBox="0 0 48 48"
   height="256"
   width="256"
   version="1.1"
   id="svg6"
   sodipodi:docname="linkedin.svg"
   inkscape:version="1.2.1 (9c6d41e410, 2022-07-14)"
   xml:space="preserve"
   xmlns:inkscape="http://www.inkscape.org/namespaces/inkscape"
   xmlns:sodipodi="http://sodipodi.sourceforge.net/DTD/sodipodi-0.dtd"
   xmlns="http://www.w3.org/2000/svg"
   xmlns:svg="http://www.w3.org/2000/svg"><defs
     id="defs10" /><sodipodi:namedview
     id="namedview8"
     pagecolor="#ffffff"
     bordercolor="#666666"
     borderopacity="1.0"
     inkscape:showpageshadow="2"
     inkscape:pageopacity="0.0"
     inkscape:pagecheckerboard="true"
     inkscape:deskcolor="#d1d1d1"
     showgrid="true"
     inkscape:zoom="1.6191406"
     inkscape:cx="74.422196"
     inkscape:cy="186.5187"
     inkscape:current-layer="svg6"
     showguides="false"
     inkscape:window-width="2560"
     inkscape:window-height="1316"
     inkscape:window-x="-12"
     inkscape:window-y="-12"
     inkscape:window-maximized="1"><inkscape:grid
       type="xygrid"
       id="grid239"
       units="px"
       spacingx="1.5"
       spacingy="1.5" /></sodipodi:namedview><path
     id="rect908"
     style="fill:#204a87;fill-opacity:1;stroke:none;stroke-width:0.35433;stroke-linecap:round;stroke-linejoin:round"
     d="M 4.5 0 C 2.0070025 0 0 2.0070025 0 4.5 L 0 43.5 C 0 45.992998 2.0070025 48 4.5 48 L 43.5 48 C 45.992998 48 48 45.992998 48 43.5 L 48 4.5 C 48 2.0070025 45.992998 0 43.5 0 L 4.5 0 z M 10.777588 6.8287354 C 11.83938 6.8048896 12.920042 7.2223165 13.78894 8.0866699 C 14.763234 9.0558659 15.107533 10.006744 14.991211 11.404175 C 14.880913 12.729255 14.061411 13.92778 12.858765 14.523193 C 11.844688 15.025252 10.867592 15.184475 10.024292 14.984985 C 6.982619 14.26545 5.8091829 10.566954 7.8779297 8.2196045 C 8.6726208 7.3178904 9.7157954 6.8525811 10.777588 6.8287354 z M 32.832642 17.721313 C 36.345054 17.684088 38.633645 18.806206 39.802734 21.133301 C 40.025665 21.57703 40.402098 22.583566 40.63916 23.370117 C 41.047382 24.724343 41.074053 25.230896 41.148193 32.920898 L 41.226562 41.041992 L 37.697388 41.041992 L 34.167847 41.041992 L 34.161255 34.963257 C 34.152126 26.815269 33.85267 25.170787 32.215576 24.276123 C 31.675802 23.98113 31.224408 23.91515 30.067749 23.96228 C 28.223878 24.03743 27.503972 24.492956 26.772583 26.046753 L 26.26062 27.134399 L 26.19873 34.088013 L 26.136475 41.041992 L 22.53772 41.041992 L 18.938965 41.041992 L 18.938965 29.663086 L 18.938965 18.28418 L 22.355713 18.28418 L 25.772461 18.28418 L 25.772461 19.781616 L 25.772461 21.279419 L 26.757202 20.178955 C 28.210933 18.554013 29.717439 17.869278 32.114136 17.744385 C 32.359208 17.731614 32.598481 17.723795 32.832642 17.721313 z M 7.4197998 18.28418 L 10.93396 18.28418 L 14.448486 18.28418 L 14.448486 29.663086 L 14.448486 41.041992 L 10.93396 41.041992 L 7.4197998 41.041992 L 7.4197998 29.663086 L 7.4197998 18.28418 z " /></svg>
