<?xml version="1.0" encoding="UTF-8" standalone="no"?>
<svg
   fill="none"
   viewBox="0 0 48 48"
   height="256"
   width="256"
   version="1.1"
   id="svg6"
   sodipodi:docname="linux.svg"
   inkscape:version="1.2.1 (9c6d41e410, 2022-07-14)"
   xml:space="preserve"
   xmlns:inkscape="http://www.inkscape.org/namespaces/inkscape"
   xmlns:sodipodi="http://sodipodi.sourceforge.net/DTD/sodipodi-0.dtd"
   xmlns="http://www.w3.org/2000/svg"
   xmlns:svg="http://www.w3.org/2000/svg"><defs
     id="defs10" /><sodipodi:namedview
     id="namedview8"
     pagecolor="#ffffff"
     bordercolor="#666666"
     borderopacity="1.0"
     inkscape:showpageshadow="2"
     inkscape:pageopacity="0.0"
     inkscape:pagecheckerboard="true"
     inkscape:deskcolor="#d1d1d1"
     showgrid="true"
     inkscape:zoom="1.6191406"
     inkscape:cx="143.9035"
     inkscape:cy="104.06755"
     inkscape:current-layer="svg6"
     showguides="false"
     inkscape:window-width="1920"
     inkscape:window-height="730"
     inkscape:window-x="-6"
     inkscape:window-y="-6"
     inkscape:window-maximized="1"><inkscape:grid
       type="xygrid"
       id="grid239"
       units="px"
       spacingx="1.5"
       spacingy="1.5" /></sodipodi:namedview><path
     id="rect4632"
     style="fill:#2e3436;fill-opacity:1;stroke-width:0.9375;stroke-linecap:round;stroke-linejoin:round"
     d="m 25.93396,2.9121094 c 1.594805,-0.026977 3.250573,0.2362659 4.951538,0.7921142 6.17286,2.1060556 9.176229,6.7415014 10.295654,13.2806394 0.800062,3.172055 1.264344,4.414447 3.491822,9.34314 0.547968,1.212486 1.071959,2.460814 1.16455,2.774414 0.205509,0.696043 0.217914,1.680337 0.02673,2.137939 -0.311232,0.744874 -1.307683,1.297427 -2.467163,1.368165 -0.315301,0.01924 -0.595482,0.09431 -0.643799,0.172485 -0.04703,0.07611 -0.116394,0.450354 -0.154175,0.831665 -0.213851,2.158298 -1.190798,4.504348 -2.561279,6.150146 -0.287559,0.345328 -0.507148,0.653502 -0.487793,0.684815 0.01937,0.03129 0.44965,0.268509 0.956177,0.526977 2.423356,1.236584 2.300579,2.211445 -0.359253,2.854615 -0.805402,0.194753 -1.268819,0.223011 -3.956543,0.241699 -2.711996,0.01887 -3.141508,0.04561 -3.936402,0.244629 -3.461062,0.866611 -8.013329,1.053452 -11.915039,0.489258 -1.394952,-0.201718 -1.846661,-0.19299 -2.77771,0.05456 -0.924438,0.245819 -2.755581,0.341523 -3.888427,0.202881 -1.091159,-0.133542 -2.767383,-0.498905 -3.433594,-0.748169 -2.3815102,-0.891033 -2.2226823,-1.748937 0.517822,-2.79419 l 1.020996,-0.389282 -0.974853,-0.94519 C 10.266919,39.665545 9.6253821,38.939983 9.3775635,38.573364 8.7749313,37.681843 7.6253633,34.109526 7.5574951,33.603516 c -0.06609,-0.492719 -0.026617,-0.524819 1.8585205,-1.50293 1.8377794,-0.953524 3.4689184,-1.786597 4.0444334,-2.133179 0.305232,-0.155798 -0.125313,-0.382722 -0.783691,0 -1.19477,0.694526 -4.0985316,2.186033 -5.2910158,2.717652 C 5.8705818,33.360528 4.6767779,33.686162 3.6049805,33.715942 2.8423474,33.737102 2.457571,33.534079 2.2305908,32.990845 1.7597505,31.863964 1.9781002,30.797155 3.1765137,28.367798 4.1980853,26.296921 5.2336614,24.702343 7.0198975,22.450928 9.1968162,19.707072 10.299705,19.690822 11.170898,17.157349 12.950915,11.980964 15.056313,8.383993 17.575195,6.2160645 20.066609,4.0717729 22.889332,2.9636102 25.93396,2.9121094 Z"
     sodipodi:nodetypes="sccsscsssscssccscsccccssccsscsscsss" /><path
     id="rect4635"
     style="fill:#eeeeec;fill-opacity:1;stroke-width:0.9375;stroke-linecap:round;stroke-linejoin:round"
     d="m 24.13916,11.366821 c 3.787691,4.2e-5 6.858159,2.567483 6.858032,5.734497 -1.15e-4,3.166872 -3.070512,5.734089 -6.858032,5.734131 -3.78752,-4.2e-5 -6.857917,-2.567259 -6.858032,-5.734131 -1.27e-4,-3.167014 3.070341,-5.734455 6.858032,-5.734497 z m 13.831421,4.092041 c 1.336849,-7e-5 2.420627,0.980414 2.420654,2.189942 -2.8e-5,1.209528 -1.083806,2.190011 -2.420654,2.189941 -1.336705,-1.13e-4 -2.42026,-0.980543 -2.420288,-2.189941 2.7e-5,-1.209399 1.083582,-2.189829 2.420288,-2.189942 z m -4.396728,4.789673 c 0.0422,-8.22e-4 0.08359,0.0018 0.124877,0.0084 0.637567,0.101952 1.369766,0.752358 2.500489,1.822632 0.578764,0.547828 1.318045,1.167185 1.713135,1.482422 0.552452,0.440793 0.63208,0.779658 0.63208,0.986938 0,0.738337 -1.597998,2.653471 -2.880616,3.568726 -0.948979,0.6772 -1.070095,0.677269 -2.296875,0.0062 -0.571336,-0.312516 -1.835727,-1.227554 -2.563476,-1.46997 -2.246462,-0.748316 -5.858442,-1.359094 -5.920532,-1.520874 -0.08281,-0.215795 0.417043,-0.600038 1.572876,-1.209229 0.536924,-0.282993 2.649618,-0.994017 3.743774,-1.650146 1.969717,-1.18117 2.741166,-2.012816 3.374268,-2.025147 z m 4.867309,5.711792 c 0.101007,0 0.440929,0.225334 0.755493,0.500611 2.094417,1.832771 3.01403,3.909008 2.893067,6.532836 -0.06553,1.42147 -0.306883,2.359962 -0.9646,3.751465 -1.777919,3.761436 -5.329783,6.312119 -10.199707,7.324951 -0.453043,0.09422 -1.319664,0.239675 -1.925903,0.323365 -1.368665,0.188891 -4.964043,0.271555 -6.298462,0.144653 -3.150981,-0.299659 -5.474535,-0.882979 -7.35315,-1.845703 -0.960115,-0.492027 -2.000997,-1.339178 -2.259521,-1.839111 -0.812498,-1.571199 -0.02268,-4.554968 1.920044,-7.253174 1.757127,-2.440434 5.359685,-4.925225 9.170654,-6.325562 2.42158,-0.889805 2.907216,-0.903531 5.222534,-0.146484 1.985737,0.649282 3.173033,1.126941 4.199707,1.689331 0.636123,0.348448 0.836302,0.411115 1.151368,0.359985 0.812778,-0.131897 2.575975,-1.632084 3.22998,-2.748047 0.159373,-0.271957 0.352024,-0.469116 0.458496,-0.469116 z"
     sodipodi:nodetypes="ccccccccccscssscsccsssscscscssssssssss" /><path
     id="path4575"
     style="fill:#2e3436;stroke-width:1.64251;stroke-linecap:round;stroke-linejoin:round;fill-opacity:1"
     d="m 25.497973,17.582619 a 1.6300589,3.8510091 0 0 1 -1.630059,3.851009 1.6300589,3.8510091 0 0 1 -1.630059,-3.851009 1.6300589,3.8510091 0 0 1 1.630059,-3.851009 1.6300589,3.8510091 0 0 1 1.630059,3.851009 z" /><path
     id="path4577"
     style="fill:#2e3436;stroke-width:1.19704;stroke-linecap:round;stroke-linejoin:round;fill-opacity:1"
     d="m 38.617897,17.973253 a 0.7712062,1.2836698 0 0 1 -0.771206,1.28367 0.7712062,1.2836698 0 0 1 -0.771206,-1.28367 0.7712062,1.2836698 0 0 1 0.771206,-1.28367 0.7712062,1.2836698 0 0 1 0.771206,1.28367 z" /></svg>
