<?xml version="1.0" encoding="UTF-8" standalone="no"?>
<svg
   fill="none"
   viewBox="0 0 48 48"
   height="256"
   width="256"
   version="1.1"
   id="svg6"
   sodipodi:docname="lvgl.svg"
   inkscape:version="1.3 (0e150ed6c4, 2023-07-21)"
   xmlns:inkscape="http://www.inkscape.org/namespaces/inkscape"
   xmlns:sodipodi="http://sodipodi.sourceforge.net/DTD/sodipodi-0.dtd"
   xmlns="http://www.w3.org/2000/svg"
   xmlns:svg="http://www.w3.org/2000/svg">
  <defs
     id="defs10" />
  <sodipodi:namedview
     id="namedview8"
     pagecolor="#ffffff"
     bordercolor="#666666"
     borderopacity="1.0"
     inkscape:showpageshadow="2"
     inkscape:pageopacity="0.0"
     inkscape:pagecheckerboard="true"
     inkscape:deskcolor="#d1d1d1"
     showgrid="true"
     inkscape:zoom="2.2898106"
     inkscape:cx="284.52135"
     inkscape:cy="109.39769"
     inkscape:current-layer="svg6"
     showguides="false"
     inkscape:window-width="3840"
     inkscape:window-height="1494"
     inkscape:window-x="-11"
     inkscape:window-y="-11"
     inkscape:window-maximized="1">
    <inkscape:grid
       type="xygrid"
       id="grid239"
       units="px"
       spacingx="1.5"
       spacingy="1.5"
       originx="0"
       originy="0"
       visible="true" />
  </sodipodi:namedview>
  <path
     style="fill:#cc0000;stroke-width:1;fill-opacity:1"
     d="m 3,31.5 c -1.5,0 -3,-1.5 -3,-3 v -9 c 0,-1.5 1.5,-3 3,-3 h 9 c 1.5,0 3,1.5 3,3 v 9 c 0,1.5 -1.5,3 -3,3 z"
     id="path2"
     sodipodi:nodetypes="ccccccccc" />
  <path
     id="path1"
     style="fill:#2e3436;stroke-width:1;fill-opacity:1"
     d="M 3,0 C 1.500003,0 0,1.500003 0,3 v 9 c 0,1.499998 1.500003,3 3,3 h 10.5 c 1.499998,0 3,1.500002 3,3 v 10.5 c 0,1.499997 1.500002,3 3,3 H 30 c 1.499997,0 3,1.500003 3,3 V 45 c 0,1.499997 1.500003,3 3,3 h 9 c 1.499997,0 3,-1.500003 3,-3 V 3 C 48,1.500003 46.499997,0 45,0 Z m 39.75,2.9586614 c 1.242641,0 2.25,1.0073593 2.25,2.25 0,1.2426407 -1.007359,2.25 -2.25,2.25 -1.242641,0 -2.25,-1.0073593 -2.25,-2.25 0,-1.2426407 1.007359,-2.25 2.25,-2.25 z"
     sodipodi:nodetypes="ssssssssssssssssssssss" />
  <path
     style="fill:#cc0000;stroke-width:1;fill-opacity:1"
     d="M 3,48 C 1.4999999,48 0,46.5 0,45 v -9 c 0,-1.5 1.5,-3 3,-3 h 9 c 1.5,0 3,1.5 3,3 v 9 c 0,1.5 -1.5,3 -3,3 z"
     id="path3"
     sodipodi:nodetypes="ccccccccc" />
  <path
     style="fill:#cc0000;stroke-width:1;fill-opacity:1"
     d="m 19.5,48 c -1.5,0 -3,-1.5 -3,-3 v -9 c 0,-1.5 1.5,-3 3,-3 h 9 c 1.5,0 3,1.5 3,3 v 9 c 0,1.5 -1.5,3 -3,3 z"
     id="path4"
     sodipodi:nodetypes="ccccccccc" />
</svg>
