<?xml version="1.0" encoding="UTF-8" standalone="no"?>
<svg
   fill="none"
   viewBox="0 0 48 48"
   height="256"
   width="256"
   version="1.1"
   id="svg6"
   sodipodi:docname="microchip-atmel.svg"
   inkscape:version="1.2.1 (9c6d41e410, 2022-07-14)"
   xmlns:inkscape="http://www.inkscape.org/namespaces/inkscape"
   xmlns:sodipodi="http://sodipodi.sourceforge.net/DTD/sodipodi-0.dtd"
   xmlns="http://www.w3.org/2000/svg"
   xmlns:svg="http://www.w3.org/2000/svg">
  <defs
     id="defs10" />
  <sodipodi:namedview
     id="namedview8"
     pagecolor="#ffffff"
     bordercolor="#666666"
     borderopacity="1.0"
     inkscape:showpageshadow="2"
     inkscape:pageopacity="0.0"
     inkscape:pagecheckerboard="true"
     inkscape:deskcolor="#d1d1d1"
     showgrid="true"
     inkscape:zoom="1.6191406"
     inkscape:cx="-4.3232811"
     inkscape:cy="108.39083"
     inkscape:current-layer="svg6"
     inkscape:window-width="1920"
     inkscape:window-height="730"
     inkscape:window-x="-6"
     inkscape:window-y="-6"
     inkscape:window-maximized="1">
    <inkscape:grid
       type="xygrid"
       id="grid239"
       units="px"
       spacingx="1.5"
       spacingy="1.5" />
  </sodipodi:namedview>
  <path
     id="rect350"
     style="fill:#3465a4;stroke-width:5.30186;stroke-linejoin:round;fill-opacity:1"
     d="M 17.592401,2.0000834 11.459025,9.3429467 C 8.0856679,13.381626 4.5804176,17.578125 3.6698529,18.668309 2.7594989,19.758498 2.0140595,20.66563 2.0140595,20.686017 h -0.013997 c 0,0.0204 0.7195819,0.03625 1.5993591,0.03625 h 1.5993577 l 0.1284038,-0.144455 c 0.070621,-0.07915 1.1521795,-1.363472 2.4034399,-2.853888 l 2.274516,-2.709435 2.755516,-0.01244 2.755514,-0.01244 v -1.313037 -1.313038 h -1.62421 c -0.893234,0 -1.623694,-0.01202 -1.623694,-0.02433 0,-0.01357 1.284365,-1.553452 2.85389,-3.4218711 l 2.853371,-3.3970189 0.02847,7.588799 0.029,7.588797 h 1.360671 1.36119 l 0.01657,-9.348661 0.01244,-9.3491818 h -1.595735 z m 6.62939,0 v 2.5551437 2.5551423 h -0.716579 -0.716061 v 1.4088231 1.4093406 h 0.716061 0.716579 v 2.8114329 c 0,3.073275 0.01159,3.230217 0.281144,4.025578 0.308478,0.909789 0.82975,1.725607 1.531532,2.39619 0.788757,0.75357 1.707458,1.23443 2.796418,1.463188 l -5.18e-4,5.19e-4 c 0.339876,0.07341 0.64205,0.09032 1.444548,0.09371 l 1.015327,0.0031 v -1.385006 -1.385006 l -0.871907,-10e-4 c -0.975603,-8.15e-4 -1.282557,-0.05098 -1.77229,-0.289945 -0.634499,-0.309299 -1.108902,-0.789485 -1.402093,-1.419696 -0.287479,-0.61717 -0.299782,-0.776183 -0.299782,-3.690589 V 9.9285317 h 2.149219 2.149218 V 8.5191911 7.1103679 H 29.093389 26.94417 V 4.5552271 2.0000834 h -1.361189 z"
     sodipodi:nodetypes="cccccsccccccccsscccccccccccccccccccscccccccccccsccccccccccc" />
  <path
     inkscape:export-ydpi="1300"
     inkscape:export-xdpi="1300"
     inkscape:export-filename="/home/kristof/EMBEETLE_IDE/embeetle/beetle_core/resources/icons/logo/microchip.png"
     id="path197-0"
     style="fill:#a40000;fill-opacity:1;fill-rule:evenodd;stroke:none;stroke-width:0.0739003"
     d="m 33.030234,40.936148 c 0,0 0.952517,1.776471 2.030093,0 L 37.148152,37.70991 31.000141,27.275681 c 0,0 -0.952517,-1.398717 -2.087839,0 l -2.14553,3.154772 z m 0.837065,5.063977 c 3.223134,0 6.148026,-1.265991 8.29357,-3.287506 l -7.341066,-12.210701 2.27063,-3.297703 c 0.952517,-1.327251 1.962752,0 1.962752,0 l 6.273098,10.505695 c 0.298231,-0.888236 0.471468,-1.898986 0.529147,-2.848482 L 38.754915,22.967221 c -1.491298,-0.63303 -3.155779,-1.010751 -4.887616,-1.010751 -6.244244,0 -12.055525,5.084385 -12.055525,12.026926 0,1.072018 0.17317,2.144022 0.413722,3.093518 l 3.521418,-5.12523 2.453437,3.991966 c 0.586891,0.949496 0,1.76626 0,1.76626 l -3.107683,4.553489 c 2.347608,2.491151 5.493765,3.736726 8.774645,3.736726"
     sodipodi:nodetypes="cccccccccccccccsscccccc" />
</svg>
