<?xml version="1.0" encoding="UTF-8" standalone="no"?>
<svg
   fill="none"
   viewBox="0 0 48 48"
   height="256"
   width="256"
   version="1.1"
   id="svg6"
   sodipodi:docname="msys2.svg"
   inkscape:version="1.2.1 (9c6d41e410, 2022-07-14)"
   xmlns:inkscape="http://www.inkscape.org/namespaces/inkscape"
   xmlns:sodipodi="http://sodipodi.sourceforge.net/DTD/sodipodi-0.dtd"
   xmlns="http://www.w3.org/2000/svg"
   xmlns:svg="http://www.w3.org/2000/svg">
  <defs
     id="defs10" />
  <sodipodi:namedview
     id="namedview8"
     pagecolor="#ffffff"
     bordercolor="#666666"
     borderopacity="1.0"
     inkscape:showpageshadow="2"
     inkscape:pageopacity="0.0"
     inkscape:pagecheckerboard="true"
     inkscape:deskcolor="#d1d1d1"
     showgrid="true"
     inkscape:zoom="0.8095703"
     inkscape:cx="9.8817854"
     inkscape:cy="24.086852"
     inkscape:current-layer="svg6"
     showguides="false"
     inkscape:window-width="1920"
     inkscape:window-height="730"
     inkscape:window-x="-6"
     inkscape:window-y="-6"
     inkscape:window-maximized="1">
    <inkscape:grid
       type="xygrid"
       id="grid239"
       units="px"
       spacingx="1.5"
       spacingy="1.5" />
  </sodipodi:namedview>
  <path
     id="rect897"
     style="fill:#5c3566;fill-opacity:1;stroke:none;stroke-width:0.363086;stroke-linejoin:round;stroke-opacity:0.580986"
     d="m 23.99963,1.999875 c 5.139094,0 9.249479,0.1287875 12.420775,0.295896 5.120293,0.2698175 9.013547,4.1634329 9.283447,9.283736 0.167099,3.17127 0.295898,7.281154 0.295898,12.420306 0,5.139051 -0.128799,9.249402 -0.295898,12.420671 -0.2698,5.120252 -4.163154,9.013573 -9.283447,9.28337 -3.171296,0.167098 -7.281581,0.295896 -12.420775,0.295896 -5.139095,0 -9.249113,-0.128798 -12.42041,-0.295896 C 6.4588957,45.434057 2.565217,41.540736 2.295407,36.420484 2.128298,33.249215 1.999875,29.138964 1.999875,23.999813 c 0,-5.139152 0.128423,-9.249036 0.295532,-12.420306 C 2.565217,6.4592139 6.4588857,2.5655785 11.57922,2.295771 14.750517,2.1286625 18.860435,1.999875 23.99963,1.999875 Z"
     sodipodi:nodetypes="sscssssssssss" />
  <path
     id="rect5516"
     style="fill:#ad7fa8;fill-opacity:1;stroke-width:0.9375;stroke-linecap:round;stroke-linejoin:round"
     d="m 16.798828,6.7452393 c 0.693117,-0.00975 1.367815,0.076266 1.864014,0.2856445 1.520337,0.6415296 2.169994,2.5615461 3.359619,9.9290772 0.126995,0.786498 0.347155,2.149473 0.488892,3.028931 0.141734,0.879459 0.332216,1.720012 0.423706,1.868042 0.310724,0.502763 0.358257,0.40786 2.943237,-5.887207 1.275007,-3.104956 3.111913,-6.8132498 3.751099,-7.5728764 0.320569,-0.3809777 0.882136,-0.8473469 1.24768,-1.036377 0.716316,-0.3704215 3.600109,-0.5352853 4.067871,-0.2325439 0.180039,0.1165256 0.275025,0.75203 0.275025,1.8405762 0,1.6194501 0.01298,1.6588621 0.495117,1.5212401 1.020977,-0.291424 2.576629,-0.401114 3.571289,-0.251953 0.819915,0.122954 1.24313,0.36301 2.087769,1.183228 0.877217,0.851853 1.102008,1.237229 1.305908,2.239013 0.380379,1.868884 -0.150951,3.590723 -1.988526,6.442749 -0.752161,1.167399 -0.951111,2.407653 -0.404297,2.520996 0.185508,0.03845 0.74589,-0.279468 1.245118,-0.706787 1.079525,-0.924036 1.265277,-0.948569 1.738037,-0.227051 0.748505,1.142363 0.311775,4.273863 -0.812622,5.82605 -0.75666,1.044535 -1.415486,1.145491 -2.177857,0.333985 -0.396702,-0.422272 -0.737865,-0.550049 -1.468506,-0.550049 -1.062169,0 -1.165053,0.209303 -0.511596,1.040039 0.741072,0.942122 0.578745,1.762345 -0.565796,2.859009 -1.671312,1.601396 -3.057994,1.818647 -4.75232,0.74414 -2.561171,-1.624244 -3.654857,-4.520595 -3.893554,-10.310669 -0.07612,-1.8465 -0.216502,-3.38079 -0.312012,-3.40979 -0.09551,-0.029 -0.818136,1.432193 -1.605835,3.247193 -0.787705,1.814999 -1.783677,4.110514 -2.213379,5.100952 -1.734809,3.998634 -2.797345,5.888752 -3.432495,6.106567 -0.482746,0.165547 -0.727919,0.116895 -1.209961,-0.2406 -1.909628,-1.416233 -3.20748,-4.98928 -3.903808,-10.746827 -0.190242,-1.572997 -0.398074,-3.280792 -0.461792,-3.795044 -0.127356,-1.027878 -0.42787,-1.206671 -0.740113,-0.440185 -0.110906,0.272251 -0.544968,1.336856 -0.964599,2.365356 -0.419633,1.028497 -1.014493,2.513428 -1.322022,3.299927 -2.302141,5.887692 -3.7207334,8.055055 -5.9666747,9.117554 -1.1411188,0.539835 -2.3000018,0.724536 -2.6088867,0.415649 -0.3277695,-0.327769 -0.098085,-1.107914 0.824707,-2.801147 1.0878992,-1.996186 2.9006847,-5.611065 3.8499756,-7.677246 0.3449443,-0.750789 1.0212318,-2.206242 1.5029298,-3.234742 0.481695,-1.028495 1.192155,-2.61252 1.578735,-3.520019 0.386582,-0.907499 0.791674,-1.848331 0.900147,-2.090332 1.336678,-2.9821 1.595944,-4.2245502 0.986938,-4.7299806 -0.1815,-0.1506306 -0.329956,-0.4646395 -0.329956,-0.697998 0,-0.6506681 1.613936,-1.1350416 3.138794,-1.1564941 z m 21.254151,4.3905027 c -1.420941,0.0049 -1.872556,0.105739 -2.96045,0.66211 -1.662532,0.850251 -2.783997,2.252514 -2.689087,3.362182 0.0365,0.426791 0.173367,0.810838 0.303955,0.853638 0.130591,0.0428 0.614398,-0.221937 1.075196,-0.588135 1.663852,-1.322262 3.200424,-0.596331 3.194824,1.509155 -0.0036,1.361306 -1.090162,3.80342 -2.927856,6.581543 -0.800237,1.209751 -1.482902,2.33304 -1.517212,2.49646 -0.04985,0.237477 0.720524,0.319307 3.837158,0.407227 3.675234,0.103672 3.927838,0.13845 4.393799,0.60498 0.271916,0.272248 0.562676,0.495118 0.645996,0.495118 0.531808,0 1.611968,-3.635252 1.363037,-4.587159 -0.160167,-0.612474 -0.412175,-0.596546 -1.212525,0.07691 -0.408405,0.343651 -0.926363,0.550048 -1.380249,0.550048 -0.600048,0 -0.773853,-0.115115 -1.000122,-0.661376 C 38.799911,21.982165 39.036607,21.06116 40.05249,19.5 c 1.910731,-2.93632 2.357482,-5.163317 1.360108,-6.7771 -0.793729,-1.284273 -1.449012,-1.593658 -3.359619,-1.587158 z M 35.440063,15.75 c -0.483055,0 -0.558906,0.107112 -0.621826,0.880005 -0.0394,0.483999 -0.0086,1.300693 0.06848,1.814941 0.07707,0.514249 0.230465,0.934937 0.340942,0.934937 0.440882,0 0.893519,-1.357975 0.828369,-2.485474 C 35.994987,15.838017 35.947768,15.75 35.440063,15.75 Z m -8.360961,17.460571 c 1.784016,-0.0085 2.247828,0.373398 2.15625,1.775757 -0.0858,1.313785 -0.66954,1.496432 -1.145142,0.358154 -0.274176,-0.656194 -0.437508,-0.784423 -0.999023,-0.784423 -1.073509,0 -0.838445,0.661063 0.758789,2.134643 1.423698,1.313448 1.430053,1.324857 1.430053,2.518433 0,0.659388 -0.118836,1.317447 -0.264038,1.462646 -0.156735,0.156739 -0.911713,0.264038 -1.857788,0.264038 -1.397305,0 -1.635486,-0.06015 -1.935791,-0.488891 -0.374151,-0.53418 -0.444127,-1.430346 -0.147949,-1.897705 0.284864,-0.449501 0.980156,-0.209417 1.120972,0.387085 0.170053,0.720357 0.768208,1.0808 1.269653,0.765014 0.707239,-0.445385 0.533825,-0.927778 -0.835693,-2.327636 -1.500635,-1.53388 -1.833002,-2.156566 -1.6344,-3.060791 0.196749,-0.895789 0.579654,-1.099124 2.084107,-1.106324 z m 3.947021,0.0293 c 0.615306,0 0.880628,0.474881 1.198975,2.14563 0.496016,2.603185 0.761528,2.626543 1.341064,0.11792 0.440131,-1.905179 0.636482,-2.26355 1.240723,-2.26355 0.638839,0 0.566981,0.64204 -0.566529,5.059937 -0.170747,0.665498 -0.475368,1.903244 -0.676757,2.750244 -0.537346,2.259933 -0.543645,2.278388 -0.903809,2.63855 -0.408886,0.408888 -0.87588,0.427404 -1.024292,0.04065 -0.06134,-0.159846 0.02856,-0.828083 0.199951,-1.484985 0.171411,-0.656907 0.254178,-1.491495 0.183838,-1.854492 -0.257302,-1.327764 -0.827493,-3.777883 -1.222778,-5.255127 -0.433298,-1.619295 -0.399636,-1.894776 0.229614,-1.894776 z m 7.53186,0 c 1.109432,0 1.515952,0.09111 1.79773,0.402466 0.488976,0.540329 0.493276,2.141104 0.0062,2.328003 -0.454617,0.174455 -0.915734,-0.203037 -1.003784,-0.821411 -0.08975,-0.630302 -1.363659,-0.816885 -1.58789,-0.232544 -0.108172,0.281893 0.254886,0.754641 1.403686,1.827026 1.525066,1.423635 1.549874,1.464244 1.547974,2.557617 -0.001,0.611049 -0.120669,1.229557 -0.265869,1.374756 -0.391805,0.391808 -3.56988,0.351603 -3.90271,-0.04944 -0.143211,-0.172557 -0.229535,-0.742068 -0.191895,-1.265259 0.06078,-0.844762 0.129024,-0.95105 0.608643,-0.95105 0.389129,0 0.575039,0.147898 0.665039,0.529175 0.168094,0.712057 0.768678,1.081724 1.256836,0.773804 0.689134,-0.434698 0.552401,-0.754321 -1.012573,-2.368286 -1.40719,-1.451243 -1.559327,-1.694528 -1.559327,-2.492432 0,-1.274312 0.469046,-1.612427 2.237915,-1.612427 z"
     sodipodi:nodetypes="sssscssssscsssssssssssssssssssssssssssssssssscsssscssssssssssscsssssssssscssssssssssssssssssccssscsssscsssscssss" />
</svg>
