<?xml version="1.0" encoding="UTF-8" standalone="no"?>
<svg
   fill="none"
   viewBox="0 0 48 48"
   height="256"
   width="256"
   version="1.1"
   id="svg6"
   sodipodi:docname="nations-tech.svg"
   inkscape:version="1.2.1 (9c6d41e410, 2022-07-14)"
   xml:space="preserve"
   xmlns:inkscape="http://www.inkscape.org/namespaces/inkscape"
   xmlns:sodipodi="http://sodipodi.sourceforge.net/DTD/sodipodi-0.dtd"
   xmlns="http://www.w3.org/2000/svg"
   xmlns:svg="http://www.w3.org/2000/svg"><defs
     id="defs10" /><sodipodi:namedview
     id="namedview8"
     pagecolor="#ffffff"
     bordercolor="#666666"
     borderopacity="1.0"
     inkscape:showpageshadow="2"
     inkscape:pageopacity="0.0"
     inkscape:pagecheckerboard="true"
     inkscape:deskcolor="#d1d1d1"
     showgrid="true"
     inkscape:zoom="3.2382812"
     inkscape:cx="192.23161"
     inkscape:cy="115.80217"
     inkscape:current-layer="svg6"
     showguides="false"
     inkscape:window-width="3840"
     inkscape:window-height="1494"
     inkscape:window-x="-11"
     inkscape:window-y="-11"
     inkscape:window-maximized="1"><inkscape:grid
       type="xygrid"
       id="grid239"
       units="px"
       spacingx="1.5"
       spacingy="1.5" /></sodipodi:namedview><path
     id="path363"
     style="fill:#3465a4;fill-opacity:1;stroke:none;stroke-width:0.708662;stroke-linecap:round;stroke-linejoin:round"
     d="M 21,1.5 10.5,12 C 9,13.5 9,15 10.5,16.5 L 20.848389,26.848389 C 21.45153,26.437584 22.137582,26.140728 22.875,25.989258 v -3.97815 c -2.559202,-0.525022 -4.5,-2.802813 -4.5,-5.511108 0,-3.093264 2.531736,-5.625 5.625,-5.625 3.093264,0 5.625,2.531736 5.625,5.625 0,1.165492 -0.359937,2.250946 -0.973389,3.151611 L 39,30 c 1.5,1.5 3,1.5 4.5,0 l 3,-3 c 1.5,-1.5 1.5,-4.5 0,-6 L 27,1.5 C 25.5,0 22.5,0 21,1.5 Z m 3,11.625 c -1.877278,0 -3.375,1.497722 -3.375,3.375 0,1.877278 1.497722,3.375 3.375,3.375 1.877278,0 3.375,-1.497722 3.375,-3.375 0,-1.877278 -1.497722,-3.375 -3.375,-3.375 z M 4.5,18 1.5,21 C 0,22.5 0,25.5 1.5,27 L 21,46.5 c 1.5,1.5 4.5,1.5 6,0 L 37.5,36 c 1.5,-1.5 1.5,-3 0,-4.5 L 27.151611,21.151611 c -0.60314,0.410805 -1.289193,0.707661 -2.026611,0.859131 v 3.97815 c 2.559203,0.525022 4.5,2.80281 4.5,5.511108 0,3.093267 -2.531733,5.625 -5.625,5.625 -3.093267,0 -5.625,-2.531733 -5.625,-5.625 0,-1.165493 0.359937,-2.250945 0.973389,-3.151611 L 9,18 C 7.5,16.5 6,16.5 4.5,18 Z M 24,28.125 c -1.87728,0 -3.375,1.49772 -3.375,3.375 0,1.87728 1.49772,3.375 3.375,3.375 1.87728,0 3.375,-1.49772 3.375,-3.375 0,-1.87728 -1.49772,-3.375 -3.375,-3.375 z"
     sodipodi:nodetypes="ccccccssscccccccsssssccccccccccssscccsssss" /></svg>
