<?xml version="1.0" encoding="UTF-8" standalone="no"?>
<svg
   fill="none"
   viewBox="0 0 48 48"
   height="256"
   width="256"
   version="1.1"
   id="svg6"
   sodipodi:docname="norton.svg"
   inkscape:version="1.2.1 (9c6d41e410, 2022-07-14)"
   xmlns:inkscape="http://www.inkscape.org/namespaces/inkscape"
   xmlns:sodipodi="http://sodipodi.sourceforge.net/DTD/sodipodi-0.dtd"
   xmlns="http://www.w3.org/2000/svg"
   xmlns:svg="http://www.w3.org/2000/svg">
  <defs
     id="defs10" />
  <sodipodi:namedview
     id="namedview8"
     pagecolor="#ffffff"
     bordercolor="#666666"
     borderopacity="1.0"
     inkscape:showpageshadow="2"
     inkscape:pageopacity="0.0"
     inkscape:pagecheckerboard="true"
     inkscape:deskcolor="#d1d1d1"
     showgrid="true"
     inkscape:zoom="2.2898106"
     inkscape:cx="120.9707"
     inkscape:cy="75.770459"
     inkscape:current-layer="svg6"
     showguides="false"
     inkscape:window-width="1920"
     inkscape:window-height="730"
     inkscape:window-x="-6"
     inkscape:window-y="-6"
     inkscape:window-maximized="1">
    <inkscape:grid
       type="xygrid"
       id="grid239"
       units="px"
       spacingx="1.5"
       spacingy="1.5" />
  </sodipodi:namedview>
  <g
     id="g1454"
     inkscape:export-filename="..\..\..\..\Downloads\norton.png"
     inkscape:export-xdpi="1300.4691"
     inkscape:export-ydpi="1300.4691"
     transform="matrix(2.4835152,0,0,2.4835152,-701.98861,-393.9937)"
     style="stroke-width:0.080531">
    <g
       id="g1426"
       transform="matrix(0.03596493,0,0,0.03596493,248.55692,174.31235)"
       style="stroke-width:0.080531">
      <path
         style="fill:#c4a000;stroke-width:0.0754978;fill-opacity:1"
         d="m 1198.3669,78.85307 c -27.7565,-1.80446 -54.1002,-8.91576 -79.6875,-21.51106 -21.4794,-10.57322 -38.3615,-22.5861 -55.6872,-39.62547 -39.387,-38.73605 -61.6305,-89.17785 -63.55317,-144.11989 -2.04337,-58.39108 18.93707,-113.27349 59.59037,-155.88134 26.2885,-27.55245 63.9353,-49.43762 100.9949,-58.71125 19.912,-4.9827 29.7524,-6.13977 52.4051,-6.16201 27.7267,-0.0272 45.9909,2.79518 69.2058,10.69453 18.6189,6.33546 31.2788,12.52024 48.8983,23.88855 l 10.2916,6.64027 -6.3072,0.27721 -6.3073,0.27721 v 6.98841 6.98842 h -8.4375 -8.4375 v 12.1875 12.1875 h -7.5 -7.5 v 6.49911 6.49909 l -4.9218,-3.31857 c -22.3019,-15.03702 -55.8359,-23.94671 -84.6626,-22.49407 -65.7577,3.31367 -120.4113,48.5802 -135.9319,112.58473 -10.344,42.65688 0.2219,89.26657 28.0986,123.95266 21.2001,26.37855 50.5948,44.48982 84.601,52.12608 7.9277,1.7802 12.0539,2.07449 29.3792,2.0954 22.6185,0.0273 30.6454,-1.21899 49.0008,-7.60812 40.7667,-14.18996 74.3853,-47.50908 88.7834,-87.99256 5.7673,-16.21623 7.6309,-26.46802 8.1802,-45 0.4243,-14.31503 0.2085,-18.58164 -1.4226,-28.125 -3.2834,-19.21051 -10.6227,-38.61667 -20.2097,-53.4375 l -4.2451,-6.5625 5.5815,-0.27911 5.5815,-0.27911 v -8.35485 -8.35485 l 7.7344,-0.27229 7.7344,-0.27229 0.2723,-7.73437 0.2723,-7.73438 h 6.0558 6.0558 v -9.30038 -9.30038 l 6.0232,-0.64503 c 3.3127,-0.35476 6.5823,-0.42165 7.2656,-0.14863 0.6834,0.27302 -0.6046,0.5297 -2.862,0.5704 l -4.1046,0.074 2.4665,3.04688 c 1.3566,1.67578 5.7562,7.89844 9.7771,13.82812 41.2367,60.81376 47.8813,138.90766 17.5587,206.3698 -16.8399,37.46582 -46.8529,71.85617 -81.452,93.33167 -38.7843,24.07324 -82.8818,35.08828 -128.5787,32.1175 z m -14.0918,-254.24079 -5.5957,-5.85938 5.8594,5.59566 c 5.4429,5.19788 6.2884,6.12309 5.5957,6.12309 -0.1451,0 -2.7818,-2.63672 -5.8594,-5.85937 z m -55.8715,-4.21875 c -1.1661,-1.48694 -1.133,-1.5201 0.3539,-0.35397 1.5617,1.22472 2.0583,1.99459 1.2867,1.99459 -0.1947,0 -0.9329,-0.73828 -1.6406,-1.64062 z m 187.094,-12.89063 0.057,-7.5 6.2935,-0.27642 6.2935,-0.27642 0.3279,-8.62983 0.3279,-8.62983 -0.059,8.90625 -0.059,8.90625 -6.2909,0.27636 -6.2909,0.27636 -0.3284,7.22364 -0.3284,7.22364 0.057,-7.5 z m -30,-51.5625 0.057,-7.5 4.6875,-0.0731 4.6875,-0.0731 -4.416,0.35523 -4.416,0.35524 -0.3283,7.21792 -0.3283,7.21792 0.057,-7.5 z m 42.713,0.46875 v -7.5 h 7.9688 7.9687 v 7.5 7.5 h -7.9687 -7.9688 z m 0.9375,-40.3125 v -7.5 h 7.5 7.5 v 7.5 7.5 h -7.5 -7.5 z m 60.2344,0.25456 c 1.9336,-0.20226 5.0977,-0.20226 7.0313,0 1.9335,0.20227 0.3515,0.36774 -3.5157,0.36774 -3.8672,0 -5.4492,-0.16547 -3.5156,-0.36774 z m -5.538,-25.09831 c 0,-4.125 0.1682,-5.69588 0.3663,-3.49085 0.198,2.20504 0.1952,5.58004 -0.01,7.5 -0.2014,1.91997 -0.3635,0.11585 -0.3601,-4.00915 z m -7.6095,-23.65262 7.2431,-0.32873 0.2569,-15.66558 0.2569,-15.66557 7.5,-0.0675 7.5,-0.0675 -7.2432,0.34091 -7.2431,0.34091 -0.2569,15.6641 -0.2568,15.66409 -7.5,0.0568 -7.5,0.0568 z m 30.96,-3.7e-4 7.2656,-0.32909 v -7.46208 -7.46209 h -7.5 -7.5 v -7.96875 -7.96875 h 7.9914 7.9915 l -0.2571,15.70313 -0.257,15.70312 -7.5,0.0568 -7.5,0.0568 z m -50.5967,-15.00601 c 2.4648,-0.19376 6.2616,-0.19143 8.4375,0.005 2.1758,0.19662 0.1592,0.35515 -4.4814,0.35229 -4.6406,-0.003 -6.4209,-0.16372 -3.9561,-0.35748 z m 73.2003,-24.62225 c 0,-4.89844 0.158,-6.90234 0.3511,-4.45312 0.1932,2.44921 0.1932,6.45703 0,8.90625 -0.1931,2.44921 -0.3511,0.44531 -0.3511,-4.45313 z m 16.5349,-0.23437 v -8.67188 l 8.4396,0.30091 8.4397,0.30091 v 8.37096 8.37097 h -8.4375 -8.4375 v -8.67187 z m 0,-32.8125 v -8.20313 h 8.4375 8.4375 v 7.90222 7.90221 l -8.4396,0.30091 -8.4397,0.30091 v -8.20312 z"
         id="path1373"
         sodipodi:nodetypes="ssssssssscccccccccccccssssssssssscccccccccccccssscscssssscsssssssccccccccccccccccccccccccccccccccccccccccccsssscscccccccccccccccccccccccccccccccssssssssscccccccccccccccccccc" />
      <path
         style="fill:#2e3436;stroke-width:0.0754978;fill-opacity:1"
         d="m 1215.2223,-46.52968 c -5.9662,-2.06301 -10.1211,-5.01584 -12.4877,-8.87482 -1.022,-1.66655 -4.4561,-9.35823 -7.6312,-17.0926 -7.8859,-19.20991 -20.9903,-45.64634 -28.9068,-58.31608 -8.4818,-13.5743 -19.8354,-28.72709 -32.5206,-43.40267 -10.7956,-12.48938 -13.5369,-17.09142 -13.5697,-22.78093 -0.044,-7.5959 5.794,-12.631 13.4537,-11.60361 5.4535,0.73147 21.5205,8.97324 30.7278,15.76224 13.8088,10.18189 33.0172,30.10246 47.788,49.5598 3.3272,4.38281 6.3986,8.09814 6.8254,8.2563 0.4267,0.15815 5.5159,-9.33404 11.3093,-21.09375 12.1628,-24.68905 23.3252,-45.39243 35.4107,-65.67817 l 8.5175,-14.29688 h 5.9422 5.9422 v -7.45101 -7.451 l 4.9219,-0.28337 4.9219,-0.28337 0.2723,-7.73437 0.2723,-7.73438 h 7.462 7.4621 v -12.1875 -12.1875 h 8.4375 8.4375 v -7.03125 -7.03125 h 7.0313 7.0312 v -5.625 -5.625 h 13.125 13.125 v -7.46209 -7.46208 l -7.7343,-0.27229 -7.7344,-0.27229 -0.2738,-7.26562 -0.2738,-7.26563 h 8.0081 8.0082 v 7.53791 7.53792 l 7.7344,-0.27229 7.7344,-0.27229 0.2568,-15.66409 0.2569,-15.6641 7.2431,-0.2734 7.2432,-0.27341 0.2709,-8.20312 0.2708,-8.20313 h 14.927 14.927 l 0.2709,-8.20312 0.2709,-8.20313 8.2031,-0.27087 8.2031,-0.27088 v 8.474 8.474 h -8.4375 -8.4375 v 8.4375 8.4375 h -15 -15 v 15.97541 15.97542 l 7.7344,-0.27229 7.7344,-0.27229 0.2723,-7.73437 0.2723,-7.73438 h 8.3995 8.3996 v 7.96875 7.96875 h -8.4375 -8.4375 v 7.5 7.5 h -7.9687 -7.9688 v 16.40625 16.40625 h -6.5625 -6.5625 v 6.5625 6.5625 h -2.6816 c -1.4749,0 -4.639,0.26828 -7.0313,0.59617 l -4.3496,0.59619 v 9.24756 9.24758 h -6.0558 -6.0558 l -0.2723,7.73437 -0.2723,7.73438 -7.7344,0.27229 -7.7344,0.27228 v 8.36168 8.36167 l -7.7343,0.27229 -7.7344,0.27229 -0.269,8.62983 -0.269,8.62983 -6.2935,0.27642 -6.2935,0.27642 -0.2723,7.73437 -0.2723,7.73438 h -6.0558 -6.0559 v 8.50045 8.50046 l -8.3127,13.29642 c -4.5719,7.31303 -10.5054,17.19943 -13.1855,21.96977 -8.1169,14.44744 -23.8726,47.55796 -30.5796,64.26277 -6.8522,17.06634 -8.9293,19.88317 -16.2868,22.08754 -5.1494,1.54279 -13.8679,1.26344 -19.3112,-0.61874 z m 128.9258,-197.06117 v -7.5 h -7.9687 -7.9688 v 7.5 7.5 h 7.9688 7.9687 z m 0,-40.3125 v -7.5 h -7.5 -7.5 v 7.5 7.5 h 7.5 7.5 z m 39.8438,-24.84375 v -7.5 l -7.7344,-0.27229 -7.7344,-0.27229 v 8.04458 8.04457 l 7.7344,-0.27228 7.7344,-0.27229 z m 15.4687,-15.46875 v -7.5 h -7.5 -7.5 v 7.5 7.5 h 7.5 7.5 z"
         id="path1371"
         sodipodi:nodetypes="sssssssssssscccccccccccccccccccccccccccccccccccccccccccccccccccccccccccccccccccccccccccccsscccccccccccccccccccccccssssscccccccccccccccccccccccccccccccccccc" />
    </g>
    <rect
       y="159.44899"
       x="283.46457"
       height="17.716375"
       width="17.715044"
       id="rect3571-1-3-0"
       style="fill:none;fill-opacity:1;stroke:#000000;stroke-width:0;stroke-linecap:butt;stroke-linejoin:round;stroke-miterlimit:4;stroke-dasharray:none;stroke-dashoffset:0;stroke-opacity:0.767857" />
  </g>
</svg>
