<?xml version="1.0" encoding="UTF-8" standalone="no"?>
<svg
   fill="none"
   viewBox="0 0 48 48"
   height="256"
   width="256"
   version="1.1"
   id="svg6"
   sodipodi:docname="okystar.svg"
   inkscape:version="1.4 (86a8ad7, 2024-10-11)"
   xml:space="preserve"
   xmlns:inkscape="http://www.inkscape.org/namespaces/inkscape"
   xmlns:sodipodi="http://sodipodi.sourceforge.net/DTD/sodipodi-0.dtd"
   xmlns="http://www.w3.org/2000/svg"
   xmlns:svg="http://www.w3.org/2000/svg"><defs
     id="defs10" /><sodipodi:namedview
     id="namedview8"
     pagecolor="#ffffff"
     bordercolor="#666666"
     borderopacity="1.0"
     inkscape:showpageshadow="2"
     inkscape:pageopacity="0.0"
     inkscape:pagecheckerboard="true"
     inkscape:deskcolor="#d1d1d1"
     showgrid="true"
     inkscape:zoom="2.2898106"
     inkscape:cx="167.91782"
     inkscape:cy="91.929001"
     inkscape:current-layer="svg6"
     showguides="false"
     inkscape:window-width="2560"
     inkscape:window-height="1334"
     inkscape:window-x="-11"
     inkscape:window-y="-11"
     inkscape:window-maximized="1"><inkscape:grid
       type="xygrid"
       id="grid239"
       units="px"
       spacingx="1.5"
       spacingy="1.5"
       originx="0"
       originy="0" /></sodipodi:namedview><path
     style="fill:#afcf2d;stroke-width:3.39078"
     d="M 16.2551,46.549188 C 13.863748,45.73814 11.32047,44.49056 10.603367,43.776793 l -1.3038171,-1.29776 2.2755051,-1.074781 c 1.369596,-0.646896 3.855949,-3.071932 6.245338,-6.091319 2.183407,-2.759096 4.276237,-5.015102 4.650731,-5.013344 0.374498,0.0018 2.114725,1.080767 3.86717,2.397801 2.415591,1.815409 3.789169,3.571741 5.678883,7.261319 2.915071,5.69155 2.712256,6.361276 -2.246964,7.419896 -4.836218,1.03236 -8.730347,0.793381 -13.515113,-0.829417 z m 20.863919,-3.65354 c 1.118644,-3.706016 1.13367,-6.713201 0.04423,-8.846966 -1.911728,-3.74418 -5.193983,-7.269187 -7.899184,-8.483396 -1.433922,-0.643604 -2.607132,-1.539421 -2.607132,-1.990705 0,-0.451288 1.935657,-1.833085 4.301463,-3.07066 2.365804,-1.237578 6.112019,-3.822022 8.324925,-5.743218 2.212905,-1.921191 4.403745,-3.493076 4.868538,-3.493076 0.46479,0 1.519616,1.355799 2.34406,3.012888 1.285049,2.582892 1.4997,3.963408 1.503996,9.672956 0.0045,6.059865 -0.156712,6.974461 -1.789449,10.148675 -1.78651,3.473141 -6.034129,8.383035 -8.335516,9.635162 -1.070735,0.582564 -1.15687,0.486662 -0.75592,-0.84166 z M 4.7082888,38.216448 C 0.44609496,32.654394 -1.1042191,24.573358 0.80961844,17.894574 1.404205,15.819626 2.356143,13.765152 2.9250354,13.329077 3.493928,12.893002 5.6381966,12.536212 7.6900785,12.536212 c 3.1600135,0 3.9820365,0.250165 5.3738395,1.635513 1.549216,1.54202 1.625129,1.913685 1.327907,6.501494 -0.173401,2.67629 -0.809468,6.293141 -1.41352,8.037444 C 11.341032,33.438575 8.1596071,39.681529 7.2009226,40.047703 6.735537,40.225439 5.6194731,39.405518 4.7082888,38.216448 Z M 22.581515,14.394434 C 22.001395,10.783424 20.539583,8.8574862 17.746747,8.0246183 15.063144,7.2243276 12.666513,7.7765847 7.3799994,10.413468 3.7091532,12.244458 3.2843752,11.254674 6.282414,7.8559678 12.871922,0.38580556 24.875018,-2.1626586 33.963412,1.9788093 c 3.17587,1.4472043 9.262106,6.2998372 9.262106,7.3847947 0,0.2593664 -1.744213,0.667999 -3.876025,0.908066 -4.498256,0.506555 -5.877767,1.038024 -11.1683,4.302687 -2.140813,1.321046 -4.183202,2.4019 -4.538644,2.4019 -0.355442,0 -0.832906,-1.16182 -1.061034,-2.581823 z"
     id="path2"
     sodipodi:nodetypes="sscssssssssssssssscssssssssssssssssssssss" /></svg>
