<?xml version="1.0" encoding="UTF-8" standalone="no"?>
<svg
   fill="none"
   viewBox="0 0 48 48"
   height="256"
   width="256"
   version="1.1"
   id="svg6"
   sodipodi:docname="pio.svg"
   inkscape:version="1.2.1 (9c6d41e410, 2022-07-14)"
   xmlns:inkscape="http://www.inkscape.org/namespaces/inkscape"
   xmlns:sodipodi="http://sodipodi.sourceforge.net/DTD/sodipodi-0.dtd"
   xmlns="http://www.w3.org/2000/svg"
   xmlns:svg="http://www.w3.org/2000/svg">
  <defs
     id="defs10" />
  <sodipodi:namedview
     id="namedview8"
     pagecolor="#ffffff"
     bordercolor="#666666"
     borderopacity="1.0"
     inkscape:showpageshadow="2"
     inkscape:pageopacity="0.0"
     inkscape:pagecheckerboard="true"
     inkscape:deskcolor="#d1d1d1"
     showgrid="true"
     inkscape:zoom="1.6191406"
     inkscape:cx="72.260556"
     inkscape:cy="102.83233"
     inkscape:current-layer="svg6"
     showguides="false"
     inkscape:window-width="1920"
     inkscape:window-height="730"
     inkscape:window-x="-6"
     inkscape:window-y="-6"
     inkscape:window-maximized="1">
    <inkscape:grid
       type="xygrid"
       id="grid239"
       units="px"
       spacingx="1.5"
       spacingy="1.5" />
  </sodipodi:namedview>
  <path
     id="rect6079"
     style="fill:#f57900;fill-opacity:1;stroke-width:0.9375;stroke-linecap:round;stroke-linejoin:round"
     d="m 23.999634,1.9998779 c 5.876383,0 11.401408,2.2882474 15.55664,6.4434815 4.155234,4.1552336 6.443482,9.6798906 6.443482,15.5562746 0,5.876383 -2.288248,11.401406 -6.443482,15.55664 -4.155232,4.155232 -9.680257,6.443482 -15.55664,6.443482 -5.876384,0 -11.401041,-2.28825 -15.5562746,-6.443482 C 4.2881253,35.40104 1.9998779,29.876017 1.9998779,23.999634 1.9998779,18.12325 4.2881253,12.598593 8.4433594,8.4433594 12.598593,4.2881253 18.12325,1.9998779 23.999634,1.9998779 Z"
     sodipodi:nodetypes="sssssssss" />
  <path
     id="rect6082"
     style="fill:#eeeeec;fill-opacity:1;stroke-width:0.890625;stroke-linecap:round;stroke-linejoin:round"
     d="m 23.999643,4.1797577 c 10.946332,0 19.820233,8.8735523 19.820233,19.8198853 0,10.946332 -8.874064,19.820233 -19.820233,19.820233 -10.946333,0 -19.8198853,-8.873901 -19.8198853,-19.820233 0,-10.946333 8.8735523,-19.8198853 19.8198853,-19.8198853 z"
     sodipodi:nodetypes="sssss" />
  <path
     id="rect6076"
     style="fill:#f57900;fill-opacity:1;stroke-width:0.9375;stroke-linecap:round;stroke-linejoin:round"
     d="m 17.608521,7.9790039 c 0.979683,0 1.773559,0.7938769 1.773559,1.7735596 0,0.6292315 -0.328543,1.1807315 -0.82251,1.4956055 l 0.863526,3.248657 c 2.488222,-0.666704 4.594116,-0.65625 4.594116,-0.65625 v 3.66e-4 c 0,0 2.094824,-0.04814 4.576172,0.582642 l 0.86792,-3.127075 c -0.515108,-0.310577 -0.860962,-0.873656 -0.860962,-1.5190432 0,-0.9796827 0.793876,-1.7735596 1.773559,-1.7735596 0.979683,1e-7 1.773926,0.7938769 1.773926,1.7735596 0,0.9258862 -0.709512,1.6850892 -1.614258,1.7658692 L 29.64917,14.72937 c 3.357047,1.095182 6.970459,3.535722 6.970459,8.971069 -0.02509,7.586012 -10.262521,14.655762 -12.602417,14.655762 l -0.0026,-7.32e-4 c -2.344502,-0.0048 -12.501502,-6.921655 -12.576416,-14.65503 0,-5.351817 3.656941,-7.797969 7.027222,-8.91687 l -0.865723,-3.257812 c -0.975386,-0.0048 -1.76477,-0.796605 -1.76477,-1.7731935 0,-0.9796827 0.794048,-1.7735596 1.77356,-1.7735596 z M 16.736572,18.616333 c -1.338219,-0.0091 -2.820247,0.940192 -3.287842,2.831909 -1.302923,4.428153 6.361564,10.628964 7.760743,8.876587 1.99645,-3.189614 1.15276,-10.613511 -4.063477,-11.674805 -0.134078,-0.02146 -0.270987,-0.03275 -0.409424,-0.03369 z m 14.920899,3.66e-4 c -0.138426,9.52e-4 -0.274996,0.01221 -0.409058,0.03369 -5.21621,1.061151 -6.060506,8.484969 -4.063843,11.674438 1.398712,1.752944 9.063893,-4.448076 7.760742,-8.876587 -0.467437,-1.891717 -1.949725,-2.840744 -3.287841,-2.831543 z m -1.341797,4.875733 c 0.892115,5.1e-5 1.615305,0.723241 1.615356,1.615356 1.52e-4,0.892259 -0.723097,1.615672 -1.615356,1.615723 -0.892402,1.52e-4 -1.615875,-0.723321 -1.615723,-1.615723 5.1e-5,-0.892259 0.723464,-1.615508 1.615723,-1.615356 z m -12.340576,0.0498 c 0.892116,5.1e-5 1.615305,0.723241 1.615356,1.615357 1.51e-4,0.892258 -0.723098,1.615671 -1.615356,1.615722 -0.892402,1.52e-4 -1.615874,-0.72332 -1.615723,-1.615722 2.53e-4,-0.892116 0.723607,-1.615142 1.615723,-1.61499 z m 12.823242,0.62439 c -0.54455,-3.62e-4 -0.54455,0.815922 0,0.816284 0.543828,-3.61e-4 0.543828,-0.816645 0,-0.816284 z m -13.306275,0.05017 c -0.554195,-0.01035 -0.554195,0.826264 0,0.815918 0.533885,-0.01 0.533885,-0.805951 0,-0.815918 z"
     sodipodi:nodetypes="ssccccccsssccccccccssscccsscccsccccccccccccccsss" />
</svg>
