<?xml version="1.0" encoding="UTF-8" standalone="no"?>
<svg
   fill="none"
   viewBox="0 0 48 48"
   height="256"
   width="256"
   version="1.1"
   id="svg6"
   sodipodi:docname="segger.svg"
   inkscape:version="1.3 (0e150ed6c4, 2023-07-21)"
   xmlns:inkscape="http://www.inkscape.org/namespaces/inkscape"
   xmlns:sodipodi="http://sodipodi.sourceforge.net/DTD/sodipodi-0.dtd"
   xmlns="http://www.w3.org/2000/svg"
   xmlns:svg="http://www.w3.org/2000/svg">
  <defs
     id="defs10" />
  <sodipodi:namedview
     id="namedview8"
     pagecolor="#ffffff"
     bordercolor="#666666"
     borderopacity="1.0"
     inkscape:showpageshadow="2"
     inkscape:pageopacity="0.0"
     inkscape:pagecheckerboard="true"
     inkscape:deskcolor="#d1d1d1"
     showgrid="true"
     inkscape:zoom="2.2898106"
     inkscape:cx="112.018"
     inkscape:cy="70.093134"
     inkscape:current-layer="svg6"
     showguides="false"
     inkscape:window-width="3840"
     inkscape:window-height="1494"
     inkscape:window-x="-11"
     inkscape:window-y="-11"
     inkscape:window-maximized="1">
    <inkscape:grid
       type="xygrid"
       id="grid239"
       units="px"
       spacingx="1.5"
       spacingy="1.5"
       originx="0"
       originy="0"
       visible="true" />
  </sodipodi:namedview>
  <g
     id="g1"
     transform="matrix(0.63999998,0,0,0.64,-37.899959,9.68208)"
     style="stroke-width:1.5625">
    <path
       fill="#ffffff"
       d="m 62.239503,0 h 69.063157 c 1.19906,0 2.18325,1.0477501 2.18325,2.333625 v 31.261126 c 0,1.286062 -0.98419,2.333812 -2.18325,2.333812 H 62.239503 c -1.20656,0 -2.19094,-1.04775 -2.19094,-2.333812 V 2.333625 C 60.048563,1.0477501 61.032943,0 62.239503,0 Z"
       id="path39-5"
       style="stroke-width:0.292969" />
    <path
       d="M 131.25413,36.71025 H 62.190938 c -1.63875,0 -2.97225,-1.397625 -2.97225,-3.1155 V 2.333625 c 0,-1.7176875 1.3335,-3.115125 2.97225,-3.115125 h 69.063192 c 1.63481,0 2.96456,1.3974375 2.96456,3.115125 V 33.59475 c 0,1.717875 -1.32975,3.1155 -2.96456,3.1155 z M 62.190938,0.781125 c -0.777187,0 -1.409625,0.6965625 -1.409625,1.5525 V 33.59475 c 0,0.856125 0.632438,1.552688 1.409625,1.552688 h 69.063192 c 0.77306,0 1.40193,-0.696563 1.40193,-1.552688 V 2.333625 c 0,-0.8559375 -0.62887,-1.5525 -1.40193,-1.5525 z"
       id="path40"
       style="fill:#000000;fill-opacity:1;stroke-width:0.292969" />
    <polygon
       fill="#1c63b7"
       points="20.848,66.657 45.869,99.978 20.848,133.299 "
       id="polygon40"
       transform="matrix(0.1875,0,0,0.1875,59.218688,-0.7815)"
       style="fill:#1c63b7;fill-opacity:1;stroke-width:1.5625" />
    <path
       fill="#1c63b7"
       d="M 128.75381,19.2105 H 78.758251 c -0.354,0 -0.668438,0.17025 -0.869063,0.432188 l -0.0041,-0.0034 -7.811437,10.153124 0.0054,0.0039 c -0.14175,0.183188 -0.227438,0.412312 -0.227438,0.662812 0,0.602813 0.491813,1.095375 1.087313,1.095375 0.354188,0 0.668438,-0.17025 0.86925,-0.431812 l 0.0041,0.003 7.48125,-9.724125 h 49.460244 c 0.60357,0 1.09538,-0.492188 1.09538,-1.095563 -1.9e-4,-0.603375 -0.492,-1.095562 -1.09538,-1.095562 z"
       id="path41"
       style="fill:#1c63b7;fill-opacity:1;stroke-width:0.292969" />
    <path
       fill="#1c63b7"
       d="M 128.75381,14.527125 H 79.293563 l -7.48125,-9.7243125 -0.0041,0.00319 C 71.607588,4.5442525 71.292963,4.37419 70.938963,4.37419 c -0.5955,0 -1.087313,0.492 -1.087313,1.0955625 0,0.2503125 0.08569,0.479625 0.227438,0.6628125 l -0.0054,0.00394 7.811437,10.152937 0.0041,-0.0034 c 0.200437,0.26175 0.515063,0.432 0.869063,0.432 h 49.995552 c 0.60375,0 1.09576,-0.492 1.09576,-1.09575 -5.6e-4,-0.603 -0.49237,-1.095188 -1.09576,-1.095188 z"
       id="path42"
       style="fill:#1c63b7;fill-opacity:1;stroke-width:0.292969" />
    <path
       fill="#1c63b7"
       d="m 74.440126,18.657188 c 0.15825,-0.188813 0.253874,-0.430875 0.253874,-0.692813 0,-0.261937 -0.09562,-0.504 -0.253874,-0.692812 L 65.09625,4.8105 65.096063,4.8106875 C 64.895813,4.546125 64.579313,4.374 64.223063,4.374 c -0.603187,0 -1.095375,0.492 -1.095375,1.0955625 0,0.2728125 0.101437,0.5205 0.267563,0.711 l 8.841562,11.7838125 -8.841938,11.784563 c -0.166124,0.190499 -0.267187,0.438 -0.267187,0.710812 0,0.602812 0.492188,1.095375 1.095375,1.095375 0.356063,0 0.67275,-0.1725 0.873,-0.436875 l 1.87e-4,3.75e-4 z"
       id="path43"
       style="fill:#1c63b7;fill-opacity:1;stroke-width:0.292969" />
    <path
       d="m 85.783876,25.87875 c 0,0.206625 -0.07163,0.365437 -0.214501,0.4845 -0.143062,0.119062 -0.333374,0.182812 -0.571687,0.182812 -0.3015,0 -0.603187,-0.159 -0.889125,-0.4845 C 84.029253,25.982062 83.973751,25.92675 83.934,25.87875 83.783063,25.727812 83.592563,25.617 83.362313,25.537875 83.132063,25.46625 82.854188,25.4265 82.536938,25.4265 c -0.4605,0 -0.8175,0.0795 -1.07175,0.230062 -0.254063,0.159188 -0.381,0.3735 -0.381,0.651375 0,0.388688 0.492187,0.674813 1.476562,0.873188 0.238125,0.04763 0.420563,0.08756 0.547688,0.111375 0.61125,0.12675 1.0635,0.238312 1.349437,0.317062 0.28575,0.0795 0.531938,0.166875 0.738376,0.261938 0.357,0.174937 0.619312,0.396937 0.793687,0.667125 0.166875,0.277687 0.253875,0.61125 0.253875,1.008187 0,0.72225 -0.3015,1.293563 -0.905062,1.714688 -0.595126,0.428625 -1.420688,0.635437 -2.460751,0.635437 -0.563437,0 -1.039687,-0.04781 -1.444687,-0.151312 C 81.028688,31.642688 80.63175,31.476 80.250376,31.245562 79.996501,31.094437 79.790063,30.9045 79.631063,30.682125 c -0.15075,-0.222375 -0.222,-0.428813 -0.222,-0.643125 0,-0.214688 0.07125,-0.38925 0.214313,-0.532125 0.15075,-0.135 0.341249,-0.206437 0.579375,-0.206437 0.309562,0 0.603562,0.174937 0.865312,0.516 0.103125,0.135 0.182813,0.23025 0.246187,0.3015 0.174563,0.174749 0.381,0.30975 0.635063,0.396937 0.246188,0.08756 0.547875,0.127125 0.897,0.127125 0.547688,0 0.960563,-0.0795 1.2465,-0.238312 0.277688,-0.158625 0.420375,-0.396938 0.420375,-0.7065 0,-0.436688 -0.722438,-0.793875 -2.167125,-1.071938 -0.0555,-0.0081 -0.09525,-0.01575 -0.126937,-0.02381 -1.111501,-0.2145 -1.865813,-0.484124 -2.254501,-0.801562 -0.396937,-0.3255 -0.587624,-0.785813 -0.587624,-1.397063 0,-0.690749 0.285937,-1.230562 0.857437,-1.611562 0.571688,-0.389062 1.37325,-0.579563 2.397187,-0.579563 0.476438,0 0.897001,0.04763 1.286063,0.135 0.388875,0.09506 0.738375,0.23025 1.047938,0.420563 0.246,0.142875 0.444375,0.3255 0.5955,0.531937 0.151125,0.206813 0.22275,0.397125 0.22275,0.579563 z"
       id="path44"
       style="fill:#000000;fill-opacity:1;stroke-width:0.292969" />
    <path
       d="m 93.237751,30.35625 c 0.317437,0 0.563624,0.05513 0.722625,0.1665 0.158812,0.111 0.238125,0.277688 0.238125,0.50025 0,0.222375 -0.07931,0.388875 -0.246188,0.499875 C 93.793501,31.63425 93.555376,31.698 93.237751,31.698 h -4.540688 c -0.404812,0 -0.682687,-0.0795 -0.8415,-0.246187 -0.158625,-0.159 -0.23025,-0.460313 -0.23025,-0.897188 v -5.001 c 0,-0.45225 0.07162,-0.753937 0.23025,-0.912937 0.159,-0.158813 0.436688,-0.238313 0.8415,-0.238313 h 4.3185 c 0.309375,0 0.5475,0.0555 0.714375,0.159188 0.159,0.111375 0.238312,0.269625 0.238312,0.484125 0,0.206437 -0.07931,0.357187 -0.238312,0.468375 -0.166875,0.102937 -0.404813,0.159 -0.714375,0.159 h -3.644062 v 1.547812 h 3.270937 c 0.31725,0 0.555563,0.0555 0.714188,0.158813 0.150937,0.103312 0.230437,0.26175 0.230437,0.476437 0,0.198563 -0.0795,0.348938 -0.238312,0.460313 -0.166688,0.103312 -0.39675,0.158625 -0.706313,0.158625 h -3.270937 v 1.88175 h 3.86625 z"
       id="path45"
       style="fill:#000000;fill-opacity:1;stroke-width:0.292969" />
    <path
       d="m 101.40657,28.998938 h -1.31794 c -0.222382,0 -0.404632,-0.06394 -0.539632,-0.182813 -0.14325,-0.119437 -0.21487,-0.269812 -0.21487,-0.468562 0,-0.183 0.0716,-0.333 0.20662,-0.436688 0.13519,-0.111 0.31763,-0.166688 0.547882,-0.166688 h 1.89731 c 0.38081,0 0.65119,0.05569 0.80156,0.159001 0.15094,0.103312 0.23025,0.277499 0.23025,0.53175 v 2.786437 c 0,0.222375 -0.0474,0.388875 -0.15056,0.500063 -0.1035,0.103312 -0.25425,0.158812 -0.46837,0.158812 -0.17494,0 -0.30957,-0.04763 -0.42094,-0.127125 -0.11119,-0.08756 -0.1905,-0.20625 -0.23006,-0.373313 L 101.61263,30.8325 c -0.32531,0.364875 -0.69094,0.635062 -1.09594,0.809625 -0.39637,0.166688 -0.872812,0.253875 -1.420314,0.253875 -1.206938,0 -2.183625,-0.348937 -2.921813,-1.056 -0.746062,-0.706687 -1.119187,-1.643062 -1.119187,-2.793937 0,-1.167188 0.372937,-2.103938 1.111312,-2.7945 0.746063,-0.690375 1.7385,-1.039688 2.97675,-1.039688 0.405,0 0.77794,0.03187 1.127252,0.103313 0.35738,0.06338 0.68269,0.158812 0.98438,0.285562 0.42881,0.190688 0.75393,0.405 0.99243,0.643125 0.23025,0.238125 0.34894,0.484125 0.34894,0.7305 0,0.20625 -0.0793,0.380812 -0.23025,0.523688 -0.14269,0.135187 -0.32531,0.20625 -0.5475,0.20625 -0.19106,0 -0.34931,-0.0315 -0.49237,-0.102938 -0.13519,-0.06337 -0.30188,-0.198563 -0.50007,-0.405 -0.23831,-0.253875 -0.47625,-0.436312 -0.71475,-0.539813 -0.253872,-0.103312 -0.547502,-0.158625 -0.889122,-0.158625 -0.722252,0 -1.28569,0.230063 -1.706815,0.675 -0.412687,0.452251 -0.619312,1.071563 -0.619312,1.865438 0,0.785625 0.2145,1.405125 0.643125,1.857375 0.428812,0.45225 1.024125,0.674625 1.761942,0.674625 0.564,0 1.024502,-0.1425 1.405502,-0.420375 0.37425,-0.27825 0.60431,-0.666937 0.69975,-1.151062 z"
       id="path46"
       style="fill:#000000;fill-opacity:1;stroke-width:0.292969" />
    <path
       d="m 110.69438,28.998938 h -1.31794 c -0.22238,0 -0.40463,-0.06394 -0.5475,-0.182813 -0.13519,-0.119437 -0.20662,-0.269812 -0.20662,-0.468562 0,-0.183 0.0714,-0.333 0.19856,-0.436688 0.13481,-0.111 0.32512,-0.166688 0.55556,-0.166688 h 1.90519 c 0.38081,0 0.64331,0.05569 0.80175,0.159001 0.15075,0.103312 0.22219,0.277499 0.22219,0.53175 v 2.786437 c 0,0.222375 -0.0474,0.388875 -0.14307,0.500063 -0.10331,0.103312 -0.26175,0.158812 -0.47587,0.158812 -0.16725,0 -0.30975,-0.04763 -0.42075,-0.127125 -0.10313,-0.08756 -0.183,-0.20625 -0.22257,-0.373313 L 110.90813,30.8325 c -0.32513,0.364875 -0.69038,0.635062 -1.09538,0.809625 -0.40481,0.166688 -0.88931,0.253875 -1.42893,0.253875 -1.20675,0 -2.18344,-0.348937 -2.9295,-1.056 -0.73819,-0.706687 -1.11113,-1.643062 -1.11113,-2.793937 0,-1.167188 0.37294,-2.103938 1.11113,-2.7945 0.73837,-0.690375 1.73081,-1.039688 2.97712,-1.039688 0.39713,0 0.77775,0.03187 1.13494,0.103313 0.34969,0.06338 0.68306,0.158812 0.98475,0.285562 0.42075,0.190688 0.75394,0.405 0.98437,0.643125 0.23832,0.238125 0.34894,0.484125 0.34894,0.7305 0,0.20625 -0.0714,0.380812 -0.22237,0.523688 -0.15057,0.135187 -0.33319,0.20625 -0.55557,0.20625 -0.18281,0 -0.34125,-0.0315 -0.48412,-0.102938 -0.13519,-0.06337 -0.30169,-0.198563 -0.50794,-0.405 -0.23044,-0.253875 -0.46837,-0.436312 -0.72262,-0.539813 -0.246,-0.103312 -0.5475,-0.158625 -0.88894,-0.158625 -0.71456,0 -1.28569,0.230063 -1.69894,0.675 -0.41269,0.452251 -0.61894,1.071563 -0.61894,1.865438 0,0.785625 0.21413,1.405125 0.64294,1.857375 0.42844,0.45225 1.01588,0.674625 1.76231,0.674625 0.55557,0 1.02394,-0.1425 1.40475,-0.420375 0.38157,-0.27825 0.61144,-0.666937 0.69938,-1.151062 z"
       id="path47"
       style="fill:#000000;fill-opacity:1;stroke-width:0.292969" />
    <path
       d="m 119.62482,30.35625 c 0.31743,0 0.56343,0.05513 0.72262,0.1665 0.15881,0.111 0.23831,0.277688 0.23831,0.50025 0,0.222375 -0.0795,0.388875 -0.24619,0.499875 -0.159,0.111375 -0.39693,0.175125 -0.71456,0.175125 h -4.54087 c -0.405,0 -0.69094,-0.0795 -0.8415,-0.246187 -0.15844,-0.159 -0.23832,-0.460313 -0.23832,-0.897188 v -5.001 c 0,-0.45225 0.0799,-0.753937 0.23832,-0.912937 0.15112,-0.158813 0.4365,-0.238313 0.8415,-0.238313 h 4.31043 c 0.31725,0 0.55557,0.0555 0.72244,0.159188 0.15919,0.111375 0.23832,0.269625 0.23832,0.484125 0,0.206437 -0.0791,0.357187 -0.23832,0.468375 -0.16687,0.102937 -0.40481,0.159 -0.72244,0.159 h -3.64387 v 1.547812 h 3.27862 c 0.31707,0 0.55557,0.0555 0.70669,0.158813 0.15844,0.103312 0.23831,0.26175 0.23831,0.476437 0,0.198563 -0.0799,0.348938 -0.23831,0.460313 -0.16687,0.103312 -0.39675,0.158625 -0.70669,0.158625 h -3.27862 v 1.88175 h 3.87412 z"
       id="path48"
       style="fill:#000000;fill-opacity:1;stroke-width:0.292969" />
    <path
       d="m 123.58613,25.656375 v 1.936875 h 2.07994 c 0.45225,0 0.78581,-0.07912 0.99187,-0.238125 0.21431,-0.151312 0.32588,-0.396563 0.32588,-0.730313 0,-0.317624 -0.10313,-0.555937 -0.31744,-0.722625 -0.20663,-0.167062 -0.51638,-0.246375 -0.921,-0.246375 h -2.15925 z m 0,5.327063 c 0,0.269624 -0.0714,0.468 -0.22238,0.603187 -0.14325,0.135188 -0.36525,0.198938 -0.66712,0.198938 -0.29381,0 -0.516,-0.07163 -0.65906,-0.198938 -0.15094,-0.135187 -0.22238,-0.333187 -0.22238,-0.603187 V 25.55325 c 0,-0.451875 0.0791,-0.753938 0.23025,-0.912563 0.15919,-0.159 0.43669,-0.238312 0.84169,-0.238312 h 3.096 c 0.94444,0 1.63519,0.167062 2.08781,0.507938 0.45244,0.34125 0.68269,0.865312 0.68269,1.563937 0,0.444563 -0.11119,0.817875 -0.33319,1.111688 -0.222,0.3015 -0.53981,0.499875 -0.95269,0.61125 0.32569,0.08756 0.5715,0.238312 0.73838,0.4365 0.16669,0.19875 0.26962,0.460312 0.30112,0.79425 0.0161,0.134437 0.0321,0.309 0.0399,0.523687 0.008,0.222563 0.0156,0.364875 0.0396,0.444375 0.0159,0.08738 0.0476,0.2145 0.0877,0.372938 0.0396,0.167062 0.0634,0.285937 0.0634,0.349312 0,0.206625 -0.0795,0.37275 -0.23831,0.492188 -0.15863,0.126937 -0.37294,0.182437 -0.64313,0.182437 -0.37294,0 -0.63506,-0.08719 -0.79369,-0.269812 -0.15056,-0.17475 -0.26193,-0.63525 -0.32531,-1.372875 -0.0396,-0.587813 -0.159,-0.944625 -0.33337,-1.087688 -0.17457,-0.134812 -0.49182,-0.206625 -0.94425,-0.206625 h -1.8735 v 2.127563 z"
       id="path49"
       style="fill:#000000;fill-opacity:1;stroke-width:0.292969" />
    <path
       d="M 61.621125,44.114438 V 40.199813 H 60.207 V 39.34875 h 3.798188 v 0.851063 H 62.601 v 3.914625 z"
       id="path50"
       style="fill:#000000;fill-opacity:1;stroke-width:0.292969" />
    <path
       d="M 64.509938,44.114438 V 39.34875 h 0.935063 v 1.636687 c 0.127124,-0.159375 0.278812,-0.279187 0.454312,-0.359999 0.175688,-0.08156 0.372563,-0.121313 0.590437,-0.121313 0.207,0 0.394313,0.03525 0.561563,0.106313 0.167062,0.07162 0.302625,0.1725 0.406125,0.304312 0.07088,0.08888 0.121312,0.189938 0.150563,0.303938 0.02869,0.114562 0.0435,0.29775 0.0435,0.550312 v 0.06506 2.280562 H 66.716627 V 42.27356 c 0,-0.435188 -0.03994,-0.708563 -0.12,-0.819563 -0.07969,-0.111375 -0.222938,-0.167062 -0.430126,-0.167062 -0.221999,0 -0.397875,0.06638 -0.527437,0.198937 -0.129187,0.132938 -0.194062,0.313688 -0.194062,0.542438 V 44.115 Z"
       id="path51"
       style="fill:#000000;fill-opacity:1;stroke-width:0.292969" />
    <path
       d="m 70.647001,43.047 h 0.938249 c -0.09469,0.371063 -0.285937,0.661312 -0.574312,0.871312 -0.287813,0.210188 -0.638438,0.315563 -1.052813,0.315563 -0.50925,0 -0.912187,-0.170625 -1.210312,-0.51225 -0.297563,-0.342187 -0.44625,-0.805313 -0.44625,-1.389938 0,-0.575437 0.146625,-1.029562 0.439875,-1.362187 0.29325,-0.332063 0.6945,-0.498 1.203563,-0.498 0.53925,0 0.955687,0.1635 1.248937,0.489937 0.293063,0.327 0.439875,0.792375 0.439875,1.395938 0,0.06675 -5.62e-4,0.117187 -0.0019,0.150937 -9.38e-4,0.03319 -0.0038,0.06506 -0.0077,0.09488 h -2.348625 c 0.01275,0.276563 0.08044,0.484125 0.202124,0.62475 0.121688,0.139875 0.297,0.210188 0.525563,0.210188 0.161625,0 0.294563,-0.03187 0.398062,-0.09562 0.1035,-0.06319 0.18525,-0.162188 0.245626,-0.2955 z m -1.371375,-1.061625 h 1.3845 c -0.0086,-0.237375 -0.07163,-0.417938 -0.189188,-0.541688 -0.117563,-0.123749 -0.286313,-0.186375 -0.506062,-0.186375 -0.205126,0 -0.366376,0.06263 -0.484126,0.187875 -0.117562,0.125251 -0.185812,0.305063 -0.205124,0.540188 z"
       id="path52"
       style="fill:#000000;fill-opacity:1;stroke-width:0.292969" />
    <path
       d="M 74.219063,44.114438 V 39.34875 h 3.461438 v 0.828375 h -2.494313 v 1.015687 h 2.280563 v 0.815813 h -2.280563 v 1.226062 h 2.610938 v 0.879751 z"
       id="path53"
       style="fill:#000000;fill-opacity:1;stroke-width:0.292969" />
    <path
       d="m 78.4635,44.114438 v -3.516376 h 0.893063 v 0.387188 c 0.131625,-0.161062 0.27825,-0.2835 0.440062,-0.364875 0.161813,-0.08212 0.340876,-0.122812 0.536813,-0.122812 0.222375,0 0.412125,0.04181 0.569625,0.124312 0.1575,0.08288 0.294375,0.214125 0.410812,0.393188 0.123,-0.172126 0.2685,-0.301313 0.436688,-0.387563 0.168188,-0.08662 0.355875,-0.129375 0.562875,-0.129375 0.354,0 0.634312,0.102938 0.841125,0.310313 0.207,0.207 0.3105,0.489 0.3105,0.847312 v 2.459063 H 82.53675 v -2.264625 c 0,-0.170625 -0.04594,-0.302438 -0.137625,-0.396188 -0.0915,-0.09413 -0.219187,-0.141 -0.383249,-0.141 -0.183376,0 -0.329063,0.06 -0.436688,0.179813 -0.107812,0.119812 -0.161625,0.283125 -0.161625,0.490312 v 2.131688 h -0.91875 V 41.856 c 0,-0.172313 -0.045,-0.306188 -0.134437,-0.40125 -0.08963,-0.09488 -0.215063,-0.1425 -0.377063,-0.1425 -0.183375,0 -0.328312,0.06038 -0.434812,0.181313 -0.106688,0.121125 -0.160126,0.285562 -0.160126,0.495187 v 2.125688 z"
       id="path54"
       style="fill:#000000;fill-opacity:1;stroke-width:0.292969" />
    <path
       d="m 84.293438,39.34875 h 0.915563 v 1.685437 c 0.116624,-0.182999 0.2625,-0.322124 0.438374,-0.415874 0.175875,-0.09338 0.375751,-0.140251 0.6,-0.140251 0.425063,0 0.7725,0.175313 1.041938,0.525375 0.269625,0.350438 0.40425,0.806438 0.40425,1.367438 0,0.556125 -0.134625,1.005938 -0.40425,1.348875 -0.269438,0.34275 -0.621187,0.514125 -1.054688,0.514125 -0.226312,0 -0.423375,-0.04762 -0.59025,-0.142875 -0.167437,-0.0945 -0.318562,-0.245625 -0.454687,-0.452625 v 0.475688 h -0.896062 z m 2.465438,2.982937 c 0,-0.32325 -0.06806,-0.577312 -0.204001,-0.761812 -0.135749,-0.184125 -0.322499,-0.276563 -0.559499,-0.276563 -0.250313,0 -0.443626,0.08981 -0.581063,0.270188 -0.136875,0.180187 -0.205312,0.436125 -0.205312,0.768188 0,0.357937 0.06544,0.63 0.19575,0.815437 0.130312,0.185438 0.321,0.27825 0.571124,0.27825 0.25425,0 0.448501,-0.09356 0.582188,-0.27975 0.133687,-0.18675 0.200813,-0.45825 0.200813,-0.813938 z"
       id="path55"
       style="fill:#000000;fill-opacity:1;stroke-width:0.292969" />
    <path
       d="m 90.501938,43.047 h 0.93825 c -0.09506,0.371063 -0.285937,0.661312 -0.574313,0.871312 -0.287812,0.210188 -0.638812,0.315563 -1.052999,0.315563 -0.509063,0 -0.912188,-0.170625 -1.209938,-0.51225 -0.29775,-0.342187 -0.44625,-0.805313 -0.44625,-1.389938 0,-0.575437 0.14625,-1.029562 0.439875,-1.362187 0.29325,-0.332063 0.6945,-0.498 1.203562,-0.498 0.539063,0 0.9555,0.1635 1.248563,0.489937 0.293437,0.327 0.44025,0.792375 0.44025,1.395938 0,0.06675 -5.62e-4,0.117187 -0.0017,0.150937 -0.0011,0.03319 -0.0037,0.06506 -0.0079,0.09488 h -2.348813 c 0.01275,0.276563 0.08044,0.484125 0.201937,0.62475 0.121688,0.139875 0.297188,0.210188 0.525938,0.210188 0.161437,0 0.294375,-0.03187 0.397875,-0.09562 0.1035,-0.06319 0.185063,-0.162188 0.245625,-0.2955 z m -1.371563,-1.061625 h 1.384688 c -0.009,-0.237375 -0.07181,-0.417938 -0.189563,-0.541688 -0.117375,-0.123749 -0.285937,-0.186375 -0.506062,-0.186375 -0.204937,0 -0.366188,0.06263 -0.483563,0.187875 -0.11775,0.125251 -0.186,0.305063 -0.2055,0.540188 z"
       id="path56"
       style="fill:#000000;fill-opacity:1;stroke-width:0.292969" />
    <path
       d="m 95.342063,39.34875 v 4.765688 h -0.89325 v -0.475876 c -0.13575,0.205125 -0.288188,0.3555 -0.4575,0.4515 -0.169313,0.09563 -0.368625,0.144 -0.597188,0.144 -0.4335,0 -0.7845,-0.171375 -1.053,-0.514125 -0.2685,-0.34275 -0.402562,-0.792937 -0.402562,-1.348687 0,-0.561 0.13425,-1.017 0.402562,-1.367438 0.268688,-0.350062 0.615188,-0.525562 1.040063,-0.525562 0.2265,0 0.428812,0.04763 0.60675,0.1425 0.17775,0.09506 0.325125,0.2325 0.441375,0.413812 v -1.685437 z m -2.462438,2.982937 c 0,0.355688 0.06694,0.627563 0.200625,0.813938 0.133688,0.186187 0.326625,0.27975 0.579188,0.27975 0.250312,0 0.441187,-0.09281 0.572812,-0.27825 0.131438,-0.18525 0.197251,-0.457125 0.197251,-0.815438 0,-0.332062 -0.069,-0.588 -0.207001,-0.768187 -0.138,-0.180563 -0.33225,-0.270188 -0.582375,-0.270188 -0.234937,0 -0.420375,0.09206 -0.5565,0.276563 -0.13575,0.184312 -0.204,0.438562 -0.204,0.761812 z"
       id="path57"
       style="fill:#000000;fill-opacity:1;stroke-width:0.292969" />
    <path
       d="m 99.418308,39.34875 v 4.765688 H 98.52525 v -0.475876 c -0.136125,0.205125 -0.28875,0.3555 -0.457875,0.4515 -0.169312,0.09563 -0.368437,0.144 -0.596999,0.144 -0.433688,0 -0.784501,-0.171375 -1.053188,-0.514125 -0.2685,-0.34275 -0.402562,-0.792937 -0.402562,-1.348687 0,-0.561 0.13425,-1.017 0.402562,-1.367438 0.268875,-0.350062 0.615563,-0.525562 1.04025,-0.525562 0.226688,0 0.428813,0.04763 0.606375,0.1425 0.178125,0.09506 0.325125,0.2325 0.441562,0.413812 v -1.685437 z m -2.46187,2.982937 c 0,0.355688 0.06675,0.627563 0.200625,0.813938 0.1335,0.186187 0.326625,0.27975 0.579,0.27975 0.250312,0 0.441375,-0.09281 0.572812,-0.27825 0.131438,-0.18525 0.197438,-0.457125 0.197438,-0.815438 0,-0.332062 -0.069,-0.588 -0.207,-0.768187 -0.138375,-0.180563 -0.332063,-0.270188 -0.582,-0.270188 -0.234937,0 -0.420563,0.09206 -0.556875,0.276563 -0.135937,0.184312 -0.204,0.438562 -0.204,0.761812 z"
       id="path58"
       style="fill:#000000;fill-opacity:1;stroke-width:0.292969" />
    <path
       d="m 102.4305,43.047 h 0.93825 c -0.0951,0.371063 -0.28631,0.661312 -0.5745,0.871312 -0.28762,0.210188 -0.63825,0.315563 -1.05262,0.315563 -0.50925,0 -0.91219,-0.170625 -1.21013,-0.51225 -0.29775,-0.342187 -0.44606,-0.805313 -0.44606,-1.389938 0,-0.575437 0.14606,-1.029562 0.43987,-1.362187 0.29307,-0.332063 0.69432,-0.498 1.20338,-0.498 0.53944,0 0.95588,0.1635 1.24856,0.489937 0.29344,0.327 0.44044,0.792375 0.44044,1.395938 0,0.06675 -7.5e-4,0.117187 -0.002,0.150937 -9.3e-4,0.03319 -0.004,0.06506 -0.008,0.09488 h -2.34862 c 0.0127,0.276563 0.0804,0.484125 0.20212,0.62475 0.1215,0.139875 0.297,0.210188 0.52594,0.210188 0.16144,0 0.29437,-0.03187 0.39769,-0.09562 0.10293,-0.06319 0.18468,-0.162188 0.24543,-0.2955 z m -1.37193,-1.061625 h 1.38487 c -0.009,-0.237375 -0.072,-0.417938 -0.18956,-0.541688 -0.11757,-0.123749 -0.28613,-0.186375 -0.50607,-0.186375 -0.20512,0 -0.36618,0.06263 -0.48375,0.187875 -0.11775,0.125251 -0.18599,0.305063 -0.20549,0.540188 z"
       id="path59"
       style="fill:#000000;fill-opacity:1;stroke-width:0.292969" />
    <path
       d="m 107.27025,39.34875 v 4.765688 h -0.89287 v -0.475876 c -0.1365,0.205125 -0.28856,0.3555 -0.45806,0.4515 -0.16913,0.09563 -0.36844,0.144 -0.59719,0.144 -0.43332,0 -0.78432,-0.171375 -1.05263,-0.514125 -0.26869,-0.34275 -0.40275,-0.792937 -0.40275,-1.348687 0,-0.561 0.13444,-1.017 0.40275,-1.367438 0.26869,-0.350062 0.615,-0.525562 1.04006,-0.525562 0.22632,0 0.42844,0.04763 0.60675,0.1425 0.17757,0.09506 0.32457,0.2325 0.44138,0.413812 v -1.685437 z m -2.46187,2.982937 c 0,0.355688 0.0669,0.627563 0.20043,0.813938 0.13369,0.186187 0.32682,0.27975 0.579,0.27975 0.25032,0 0.44138,-0.09281 0.57301,-0.27825 0.13143,-0.18525 0.19762,-0.457125 0.19762,-0.815438 0,-0.332062 -0.0694,-0.588 -0.207,-0.768187 -0.138,-0.180563 -0.33206,-0.270188 -0.58219,-0.270188 -0.2355,0 -0.42037,0.09206 -0.55668,0.276563 -0.13632,0.184312 -0.20419,0.438562 -0.20419,0.761812 z"
       id="path60"
       style="fill:#000000;fill-opacity:1;stroke-width:0.292969" />
    <path
       d="M 110.07863,44.114438 V 39.34875 h 3.46125 v 0.828375 h -2.49431 v 1.015687 h 2.28 v 0.815813 h -2.28 v 1.226062 h 2.61093 v 0.879751 z"
       id="path61"
       style="fill:#000000;fill-opacity:1;stroke-width:0.292969" />
    <path
       d="m 113.88638,44.114438 1.18406,-1.795688 -1.1325,-1.720688 h 1.07419 l 0.62156,1.0575 0.61744,-1.0575 h 1.03875 l -1.10625,1.707375 1.17431,1.808625 h -1.09988 l -0.65025,-1.113375 -0.64031,1.113375 z"
       id="path62"
       style="fill:#000000;fill-opacity:1;stroke-width:0.292969" />
    <path
       d="M 117.76182,45.524813 V 40.59825 h 0.89643 v 0.475125 c 0.13631,-0.206813 0.28744,-0.35775 0.45413,-0.452813 0.168,-0.09488 0.36469,-0.1425 0.59044,-0.1425 0.43368,0 0.78562,0.171001 1.05468,0.512625 0.26963,0.341813 0.40519,0.791063 0.40519,1.347563 0,0.563063 -0.13556,1.019438 -0.40519,1.370625 -0.26906,0.35025 -0.6165,0.525563 -1.04137,0.525563 -0.22406,0 -0.4245,-0.04762 -0.60038,-0.142875 -0.17587,-0.0945 -0.32175,-0.232125 -0.438,-0.413813 V 45.525 h -0.91593 z m 2.46581,-3.14775 c 0,-0.353626 -0.0666,-0.623813 -0.20025,-0.810188 -0.13369,-0.186375 -0.32813,-0.27975 -0.58275,-0.27975 -0.24919,0 -0.44006,0.09263 -0.57094,0.278063 -0.13012,0.185062 -0.19519,0.456187 -0.19519,0.811875 0,0.332062 0.0682,0.588937 0.2055,0.769874 0.13669,0.181313 0.33056,0.271501 0.58069,0.271501 0.23756,0 0.42431,-0.09244 0.55969,-0.278063 0.13556,-0.185062 0.20325,-0.439687 0.20325,-0.763312 z"
       id="path63"
       style="fill:#000000;fill-opacity:1;stroke-width:0.292969" />
    <path
       d="m 123.97107,43.047 h 0.93825 c -0.0949,0.371063 -0.28575,0.661312 -0.57432,0.871312 -0.28725,0.210188 -0.63825,0.315563 -1.05281,0.315563 -0.50925,0 -0.91275,-0.170625 -1.21031,-0.51225 -0.297,-0.342187 -0.44588,-0.805313 -0.44588,-1.389938 0,-0.575437 0.14625,-1.029562 0.43988,-1.362187 0.29344,-0.332063 0.69469,-0.498 1.20375,-0.498 0.53869,0 0.95494,0.1635 1.24837,0.489937 0.29325,0.327 0.43988,0.792375 0.43988,1.395938 0,0.06675 0,0.117187 -0.002,0.150937 -9.3e-4,0.03319 -0.003,0.06506 -0.007,0.09488 h -2.34881 c 0.0127,0.276563 0.0804,0.484125 0.20212,0.62475 0.1215,0.139875 0.297,0.210188 0.52613,0.210188 0.16125,0 0.29456,-0.03187 0.39769,-0.09562 0.10237,-0.06319 0.18431,-0.162188 0.24525,-0.2955 z m -1.37194,-1.061625 h 1.38468 c -0.008,-0.237375 -0.0722,-0.417938 -0.18975,-0.541688 -0.11756,-0.123749 -0.28556,-0.186375 -0.5055,-0.186375 -0.20606,0 -0.36618,0.06263 -0.48375,0.187875 -0.11775,0.125251 -0.18618,0.305063 -0.20568,0.540188 z"
       id="path64"
       style="fill:#000000;fill-opacity:1;stroke-width:0.292969" />
    <path
       d="m 125.57925,44.114438 v -3.516376 h 0.87338 V 41.199 c 0.12281,-0.241125 0.26644,-0.418687 0.42975,-0.53175 0.16406,-0.11325 0.35962,-0.169687 0.58631,-0.169687 0.0362,0 0.0652,7.49e-4 0.0853,0.0015 0.0201,0.0015 0.0369,0.003 0.0499,0.0049 l 0.004,0.954188 h -0.31388 c -0.25612,0 -0.44925,0.06656 -0.57862,0.200625 -0.12919,0.133687 -0.19444,0.332062 -0.19444,0.595125 v 1.860563 z"
       id="path65"
       style="fill:#000000;fill-opacity:1;stroke-width:0.292969" />
    <path
       d="m 129.68456,44.140313 c -0.0864,0.0022 -0.18975,0.0058 -0.30862,0.01163 -0.12019,0.0056 -0.19631,0.0079 -0.22838,0.0079 -0.36037,0 -0.60618,-0.06731 -0.73912,-0.201938 -0.13256,-0.135187 -0.19894,-0.400687 -0.19894,-0.797812 v -1.902376 h -0.46612 V 40.59825 h 0.46612 v -0.961313 h 0.93113 v 0.961313 h 0.54393 v 0.659437 h -0.54393 v 1.947938 c 0,0.093 0.0214,0.15375 0.0617,0.183188 0.0407,0.02869 0.12544,0.04331 0.25219,0.04331 h 0.23025 v 0.708188 z"
       id="path66"
       style="fill:#000000;fill-opacity:1;stroke-width:0.292969" />
    <path
       d="m 130.0305,42.969 h 0.93825 c 0.009,0.179063 0.0735,0.312375 0.19425,0.399938 0.12113,0.087 0.30206,0.130312 0.54375,0.130312 0.18282,0 0.32438,-0.03037 0.42563,-0.09225 0.0996,-0.06094 0.14962,-0.147937 0.14962,-0.260063 0,-0.159749 -0.18694,-0.279375 -0.56231,-0.359249 -0.153,-0.03187 -0.27506,-0.06037 -0.36506,-0.08344 -0.4575,-0.117187 -0.77494,-0.254625 -0.95325,-0.414562 -0.17794,-0.159938 -0.26663,-0.375375 -0.26663,-0.64725 0,-0.359813 0.12919,-0.645188 0.39,-0.855563 0.25969,-0.210187 0.61125,-0.315562 1.05544,-0.315562 0.47025,0 0.83981,0.105375 1.10794,0.314062 0.26906,0.20925 0.41175,0.503625 0.42881,0.883313 h -0.91519 c -0.007,-0.149063 -0.0639,-0.264375 -0.17025,-0.3465 -0.10594,-0.08212 -0.255,-0.123188 -0.44475,-0.123188 -0.17925,0 -0.312,0.02737 -0.39919,0.08156 -0.0879,0.05381 -0.13106,0.134437 -0.13106,0.242437 0,0.14025 0.23344,0.264 0.70219,0.371813 0.10725,0.02381 0.19275,0.04294 0.255,0.0585 0.468,0.11025 0.78769,0.242812 0.95944,0.398062 0.17175,0.15525 0.25706,0.37425 0.25706,0.656625 0,0.399188 -0.14063,0.703125 -0.42225,0.912188 -0.28163,0.20925 -0.69131,0.313875 -1.22813,0.313875 -0.48487,0 -0.86437,-0.109125 -1.13868,-0.326625 -0.27394,-0.217875 -0.41063,-0.517875 -0.41063,-0.899438 z"
       id="path67"
       style="fill:#000000;fill-opacity:1;stroke-width:0.292969" />
  </g>
</svg>
