<?xml version="1.0" encoding="UTF-8" standalone="no"?>
<svg
   fill="none"
   viewBox="0 0 48 48"
   height="256"
   width="256"
   version="1.1"
   id="svg6"
   sodipodi:docname="silicon_labs.svg"
   inkscape:version="1.2.1 (9c6d41e410, 2022-07-14)"
   xmlns:inkscape="http://www.inkscape.org/namespaces/inkscape"
   xmlns:sodipodi="http://sodipodi.sourceforge.net/DTD/sodipodi-0.dtd"
   xmlns="http://www.w3.org/2000/svg"
   xmlns:svg="http://www.w3.org/2000/svg">
  <defs
     id="defs10" />
  <sodipodi:namedview
     id="namedview8"
     pagecolor="#ffffff"
     bordercolor="#666666"
     borderopacity="1.0"
     inkscape:showpageshadow="2"
     inkscape:pageopacity="0.0"
     inkscape:pagecheckerboard="true"
     inkscape:deskcolor="#d1d1d1"
     showgrid="true"
     inkscape:zoom="1.6191406"
     inkscape:cx="122.28709"
     inkscape:cy="138.6538"
     inkscape:current-layer="svg6"
     showguides="false"
     inkscape:window-width="1920"
     inkscape:window-height="730"
     inkscape:window-x="-6"
     inkscape:window-y="-6"
     inkscape:window-maximized="1">
    <inkscape:grid
       type="xygrid"
       id="grid239"
       units="px"
       spacingx="1.5"
       spacingy="1.5" />
  </sodipodi:namedview>
  <path
     id="rect8234"
     style="fill:#cc0000;stroke-width:0.9375;stroke-linecap:round;stroke-linejoin:round;fill-opacity:1"
     d="m 24.456665,11.610352 c 0.02092,2.5e-4 0.04019,0.0043 0.0531,0.01208 0.02608,0.01565 -0.0047,0.0279 -0.06775,0.02673 -0.06358,-0.0012 -0.08461,-0.01388 -0.04761,-0.02893 l 3.66e-4,3.66e-4 c 0.01863,-0.0068 0.04096,-0.0105 0.06189,-0.01025 z m -0.2146,0.06518 c 0.05957,0.0044 -0.0844,0.05495 -0.473144,0.148682 -4.555058,1.098598 -7.852358,2.531787 -10.636231,4.623047 -1.28302,0.963804 -1.912881,1.57697 -2.545166,2.478149 -0.6831459,0.973704 -1.0128336,1.774745 -1.0521236,2.55542 -0.03676,0.729984 0.1185645,1.307634 0.5123286,1.903564 0.572183,0.86609 1.528234,1.532553 2.947999,2.055176 1.21127,0.445905 1.993984,0.639889 3.132934,0.776734 3.169442,0.380798 6.744717,0.220151 10.252442,-0.460694 0.797637,-0.154848 2.515178,-0.569295 2.707031,-0.65332 l 0.115356,-0.05054 -0.09595,-0.05823 c -0.0529,-0.03204 -0.206478,-0.125772 -0.341309,-0.208374 -0.777943,-0.475583 -1.826256,-0.66957 -4.246215,-0.785522 -1.622248,-0.07771 -2.433884,-0.150739 -2.937745,-0.264405 -0.772926,-0.174369 -1.624327,-0.565145 -2.336059,-1.072265 -0.402706,-0.286954 -0.782332,-0.825041 -0.968994,-1.373657 -0.236185,-0.694445 -0.162688,-1.483606 0.216797,-2.319214 0.41937,-0.923635 1.424117,-2.046878 2.663452,-2.977661 3.487433,-2.619159 8.045322,-3.5305 11.867065,-2.373047 1.342352,0.406535 2.06774,0.841243 2.495728,1.495971 0.304878,0.466386 0.422241,0.802927 0.422241,1.209229 0,0.720357 -0.240151,1.085977 -1.295654,1.973877 -0.08966,0.07538 -0.162715,0.149874 -0.162964,0.165893 -1.49e-4,0.01565 0.885275,0.230889 1.967651,0.477173 l 1.968018,0.44751 0.287841,-0.140625 c 0.15845,-0.07754 0.581801,-0.274221 0.940796,-0.437256 1.238267,-0.562245 1.775382,-0.957925 2.236451,-1.647217 0.369748,-0.552812 0.566503,-1.142688 0.566528,-1.69812 0,-1.065343 -0.537888,-2.03684 -1.55127,-2.802246 -0.181795,-0.137092 -0.315343,-0.250475 -0.297363,-0.251587 0.01739,-0.0011 0.207986,0.07507 0.422241,0.16919 1.813057,0.796046 3.123279,1.823579 4.003418,3.140259 0.46574,0.696709 0.682202,1.17766 0.850342,1.888916 0.14553,0.615028 0.167535,1.670509 0.0498,2.357299 -0.36551,2.130784 -1.785039,4.431471 -3.918824,6.351929 -1.733708,1.560378 -3.365624,2.741651 -5.222167,3.780029 -0.653817,0.365666 -3.063579,1.575096 -3.532471,1.772828 -0.218055,0.09197 -0.02544,-0.04298 0.423706,-0.296265 1.635806,-0.923186 2.817021,-1.782218 3.812622,-2.772949 1.436801,-1.429778 2.111881,-2.782583 2.05481,-4.117676 -0.03278,-0.767242 -0.422954,-1.591584 -1.045899,-2.209717 -0.929117,-0.921896 -2.097408,-1.448401 -4.230469,-1.90686 -2.649115,-0.569374 -5.604743,-0.666206 -8.733032,-0.286011 -1.458507,0.1773 -3.386285,0.548923 -4.981933,0.960205 -0.788648,0.203253 -0.771502,0.166535 -0.256714,0.556274 0.835462,0.632562 1.770438,0.873886 3.818115,0.986207 1.408911,0.07734 1.791694,0.109578 2.495727,0.209838 2.319774,0.330555 3.898721,1.294677 4.343995,2.652832 0.111262,0.339557 0.118682,0.401685 0.102539,0.822144 -0.03651,0.949002 -0.390486,1.673882 -1.295288,2.652466 -0.552389,0.597395 -1.0506,1.022 -1.675782,1.428222 -2.323026,1.509336 -5.794578,2.501159 -8.752075,2.500123 -2.899257,-9.96e-4 -5.291249,-0.981497 -5.958252,-2.441895 -0.104309,-0.228411 -0.12769,-0.334787 -0.127441,-0.576416 1.98e-4,-0.425127 0.08939,-0.600692 0.576782,-1.13855 0.233949,-0.257856 0.419686,-0.476266 0.413452,-0.485229 -0.0075,-0.0097 -0.827131,-0.307061 -1.824097,-0.662476 l -1.812744,-0.646362 -0.442749,0.319702 c -0.759789,0.548596 -1.5766359,1.310484 -2.3825681,2.222168 -0.6918143,0.78259 -0.9369059,1.260269 -0.9719238,1.894043 -0.03055,0.548675 0.043685,0.795559 0.3929443,1.313965 0.4837185,0.717643 1.0864653,1.169719 2.383667,1.788574 0.7085786,0.338054 0.7184596,0.363793 0.076538,0.195923 H 9.6584473 C 6.2805876,33.951384 4.1649789,32.66716 2.9567871,30.766113 1.8889162,29.085879 1.7275336,27.436642 2.4287109,25.369263 2.9651554,23.787618 3.9532732,22.313608 5.5305176,20.74292 c 0.8339221,-0.83045 1.2906676,-1.22973 2.2840576,-1.996582 4.2188108,-3.25674 9.6030168,-5.640542 15.6796878,-6.942261 0.425194,-0.0911 0.688232,-0.132911 0.747802,-0.12854 z"
     sodipodi:nodetypes="sccccsscccccccccccccscccccssccccccccccccccscccsccscccccccccccccccccscccccccsccs" />
</svg>
