<?xml version="1.0" encoding="UTF-8" standalone="no"?>
<svg
   fill="none"
   viewBox="0 0 48 48"
   height="256"
   width="256"
   version="1.1"
   id="svg6"
   sodipodi:docname="synwit.svg"
   inkscape:version="1.3 (0e150ed6c4, 2023-07-21)"
   xml:space="preserve"
   xmlns:inkscape="http://www.inkscape.org/namespaces/inkscape"
   xmlns:sodipodi="http://sodipodi.sourceforge.net/DTD/sodipodi-0.dtd"
   xmlns="http://www.w3.org/2000/svg"
   xmlns:svg="http://www.w3.org/2000/svg"><defs
     id="defs10" /><sodipodi:namedview
     id="namedview8"
     pagecolor="#ffffff"
     bordercolor="#666666"
     borderopacity="1.0"
     inkscape:showpageshadow="2"
     inkscape:pageopacity="0.0"
     inkscape:pagecheckerboard="true"
     inkscape:deskcolor="#d1d1d1"
     showgrid="true"
     inkscape:zoom="1.6191406"
     inkscape:cx="327.02534"
     inkscape:cy="-4.0144753"
     inkscape:current-layer="svg6"
     showguides="false"
     inkscape:window-width="3840"
     inkscape:window-height="1494"
     inkscape:window-x="-11"
     inkscape:window-y="-11"
     inkscape:window-maximized="1"><inkscape:grid
       type="xygrid"
       id="grid239"
       units="px"
       spacingx="1.5"
       spacingy="1.5"
       originx="0"
       originy="0"
       visible="true" /></sodipodi:namedview><path
     style="font-variation-settings:'wdth' 75, 'wght' 300;fill:none;stroke:#204a87;stroke-width:3.18898;stroke-linecap:round;stroke-linejoin:round;stroke-dasharray:none;stroke-opacity:1"
     d="M 7.9001312,17.284362 H 4.1457865 c -3.31312558,0 -3.37558106,5.760364 0,5.760364 h 7.1145955 c 2.996888,0 2.96664,6.009611 0,6.009611 H 1.5944901"
     id="path5"
     sodipodi:nodetypes="cccccc" /><path
     style="font-variation-settings:'wdth' 75, 'wght' 300;fill:none;stroke:#204a87;stroke-width:3.18898;stroke-linecap:round;stroke-linejoin:round;stroke-dasharray:none;stroke-opacity:1"
     d="m 17.026721,16.671861 5.724423,5.641774 c 0.564117,0.482051 1.215695,0.525158 1.760035,0 l 5.510493,-5.622189"
     id="path6"
     sodipodi:nodetypes="cccc" /><path
     style="font-variation-settings:'wdth' 75, 'wght' 300;fill:none;stroke:#204a87;stroke-width:3.18898;stroke-linecap:round;stroke-linejoin:round;stroke-dasharray:none;stroke-opacity:1"
     d="M 33.865228,29.518082 V 19.295938 c 0,-0.97174 0.937002,-2.075762 2.038719,-2.075762 h 8.499515 c 1.055948,0 2.002048,0.979332 2.002048,1.703692 v 10.613798"
     id="path7"
     sodipodi:nodetypes="cccccc" /><path
     style="font-variation-settings:'wdth' 75, 'wght' 300;fill:none;stroke:#70b3de;stroke-width:3.18898;stroke-linecap:round;stroke-linejoin:round;stroke-dasharray:none;stroke-opacity:1"
     d="m 23.568194,26.561099 v 3.622794"
     id="path12" /><path
     style="color:#000000;fill:#70b3de;stroke-width:0.708659;stroke-linecap:round;stroke-linejoin:round;-inkscape-stroke:none"
     d="m 40.189895,33.780071 c -0.176756,-5.56e-4 -0.341726,0.09457 -0.438053,0.252761 C 34.837498,42.089306 28.691228,45.352966 22.562115,45.023293 16.433002,44.693626 10.258237,40.717058 5.4242233,34.014392 l 0.010145,0.03255 c -0.2897878,-0.431606 -0.9273748,-0.2248 -0.9431839,0.305929 v 0.0011 c 0.00417,0.106722 0.036895,0.209922 0.094521,0.297242 l -0.011183,0.0034 c 0.00417,0.0068 0.018161,0.02449 0.022376,0.03144 5.203e-4,0.0022 0.00156,0.0045 0.00208,0.0065 0.00417,0.0059 0.00896,0.01038 0.013218,0.01627 1.2206593,2.003522 6.2756816,8.828078 13.6050186,11.863755 3.686675,1.526947 7.955554,2.059954 12.503282,0.438272 4.547728,-1.621682 9.350129,-5.379053 14.176217,-12.324811 0.253965,-0.365643 0.01076,-0.884231 -0.415693,-0.886308 z"
     id="path13"
     sodipodi:nodetypes="ccsccsscccccssscc" /><path
     style="color:#000000;fill:#70b3de;stroke-width:0.708659;stroke-linecap:round;stroke-linejoin:round;-inkscape-stroke:none"
     d="M 25.344814,0.02760497 C 23.248239,-0.09380545 21.043669,0.17792688 18.769721,0.98876873 14.22182,2.6104534 9.4202512,6.3678237 4.593979,13.313577 c -0.2539745,0.365643 -0.01072,0.88423 0.4157089,0.886308 l 4.2902267,0.01955 C 9.4766779,14.21999 9.6416542,14.124865 9.7379848,13.966667 14.652517,5.910194 20.799021,2.6465335 26.928367,2.9762066 33.057714,3.3058797 39.233735,7.2813584 44.067932,13.984025 l -0.01013,-0.03038 c 0.290823,0.430029 0.926967,0.222019 0.942199,-0.308089 -0.0041,-0.106349 -0.0371,-0.209149 -0.09452,-0.296163 l 0.01213,-0.0044 c -0.0048,-0.0075 -0.01973,-0.02705 -0.02441,-0.03472 -3.43e-4,-0.0011 -5.21e-4,-0.0022 -10e-4,-0.0033 -0.0026,-0.0033 -0.0058,-0.0056 -0.0081,-0.0087 C 43.668392,11.300668 38.608743,4.4649133 31.273449,1.4268866 29.430041,0.66341018 27.441364,0.14886044 25.344783,0.02744947 Z"
     id="path14"
     sodipodi:nodetypes="csccccsccccccccscc" /></svg>
