<?xml version="1.0" encoding="UTF-8" standalone="no"?>
<svg
   fill="none"
   viewBox="0 0 48 48"
   height="256"
   width="256"
   version="1.1"
   id="svg6"
   sodipodi:docname="troublemaker.svg"
   inkscape:version="1.4 (86a8ad7, 2024-10-11)"
   xmlns:inkscape="http://www.inkscape.org/namespaces/inkscape"
   xmlns:sodipodi="http://sodipodi.sourceforge.net/DTD/sodipodi-0.dtd"
   xmlns="http://www.w3.org/2000/svg"
   xmlns:svg="http://www.w3.org/2000/svg">
  <defs
     id="defs10" />
  <sodipodi:namedview
     id="namedview8"
     pagecolor="#ffffff"
     bordercolor="#666666"
     borderopacity="1.0"
     inkscape:showpageshadow="2"
     inkscape:pageopacity="0.0"
     inkscape:pagecheckerboard="true"
     inkscape:deskcolor="#d1d1d1"
     showgrid="true"
     inkscape:zoom="1.6191406"
     inkscape:cx="20.689988"
     inkscape:cy="17.293125"
     inkscape:current-layer="svg6"
     showguides="false"
     inkscape:window-width="1352"
     inkscape:window-height="1321"
     inkscape:window-x="-9"
     inkscape:window-y="0"
     inkscape:window-maximized="0">
    <inkscape:grid
       type="xygrid"
       id="grid239"
       units="px"
       spacingx="1.5"
       spacingy="1.5"
       originx="0"
       originy="0"
       visible="true" />
  </sodipodi:namedview>
  <path
     style="fill:#ef2929;stroke-width:1;fill-opacity:1"
     d="M 10.00615,47.846756 C 9.9136493,47.762467 9.8379869,47.193557 9.8379869,46.582498 v -1.111014 h 6.0541401 6.054141 v 1.264258 1.264259 h -5.88597 c -3.237284,0 -5.961647,-0.06897 -6.054142,-0.153236 z m 15.219437,-1.111014 v -1.264258 h 5.928014 5.928013 v 1.264258 1.264259 H 31.153601 25.225587 Z M 10.090236,43.974296 c 0,-0.540802 0.58389,-1.86969 1.767475,-4.022641 l 1.767475,-3.215051 h 3.878038 3.878037 l 0.162174,2.700917 c 0.0892,1.485504 0.227465,3.295693 0.307268,4.022642 l 0.145095,1.321724 h -5.952784 -5.95278 z M 25.321179,42.5407 c 0.09058,-1.232652 0.234319,-3.042841 0.319391,-4.022641 l 0.154672,-1.781455 h 3.818363 3.818361 l 1.824823,3.335075 c 1.042494,1.90528 1.824821,3.629842 1.824821,4.022641 v 0.687567 H 31.119036 25.156463 Z M 2.9307238,42.088953 c -0.085745,-0.07813 -0.1559023,-0.486868 -0.1559023,-0.908288 0,-0.717028 0.054649,-0.766217 0.8513642,-0.766217 0.7537173,0 0.8696468,0.0833 1.0107755,0.72631 0.087681,0.399471 0.1302513,0.74665 0.094599,0.771511 -0.2173959,0.1516 -1.6717599,0.294295 -1.8008274,0.176684 z m 2.0467965,-1.042376 c -0.068665,-0.410883 -0.1099441,-0.7592 -0.091695,-0.774035 0.018149,-0.01489 0.4461052,-0.09493 0.9508124,-0.177971 0.9014966,-0.148348 0.9194887,-0.136625 1.0223345,0.666128 0.1264799,0.987267 0.084717,1.032943 -0.9443713,1.032943 -0.722569,0 -0.8260039,-0.08245 -0.9370814,-0.747061 z m 2.270303,-0.229866 c -0.068665,-0.410883 -0.095627,-0.777344 -0.059893,-0.814357 0.035733,-0.03701 0.4624516,-0.12607 0.9482592,-0.197911 0.856178,-0.126615 0.8864712,-0.10574 0.9871835,0.680368 0.095002,0.741507 0.040917,0.822464 -0.6313043,0.944974 C 7.3957783,41.62958 7.3825899,41.623083 7.2478173,40.816711 Z M 1.4200708,38.97779 C 0.83698302,38.057907 0.25679708,36.514339 0.2536633,35.874609 0.25259249,35.655933 1.2794704,35.587277 4.551218,35.587277 h 4.2989604 l -0.073666,1.781456 -0.073686,1.781457 -2.7748146,0.38733 C 1.9921037,40.086927 2.1343094,40.104585 1.4200708,38.97779 Z M 14.12633,34.093154 v -1.953855 h 3.531583 3.531583 v 1.953855 1.953853 H 17.657913 14.12633 Z m 11.856026,0 v -1.953855 h 3.531582 3.531583 v 1.953855 1.953853 H 29.513938 25.982356 Z M 0.25225774,34.208098 v -0.91947 H 4.5406068 8.8289559 v 0.919461 0.91946 H 4.5406068 0.25225774 Z M 1.150181,30.94972 c 0.3750306,-1.004767 0.6156113,-2.172572 0.6156113,-2.988248 v -1.33893 h 3.5315828 3.5315808 v 2.988249 2.988247 H 4.6817618 0.5345677 Z m 11.729651,0.209836 C 12.472937,31.063174 11.905851,30.713054 11.619641,30.381495 11.119029,29.80156 11.099259,29.504069 11.099259,22.551219 V 15.32378 l 0.737364,-0.671912 0.737363,-0.671913 h 4.324753 c 4.002973,0 4.314532,-0.02993 4.187384,-0.402266 -0.07557,-0.221244 -0.05251,-0.525091 0.0512,-0.675215 0.267193,-0.386762 1.455326,-0.761443 2.414574,-0.761443 0.961564,0 1.421437,-0.349526 1.421437,-1.080365 0,-0.618822 -0.543268,-0.695764 -1.041201,-0.147467 -0.190405,0.209675 -0.79446,0.564344 -1.342325,0.788156 -1.13013,0.461672 -1.904825,0.262534 -1.904825,-0.489645 0,-0.399713 -0.358062,-0.289856 -3.023191,0.927548 -1.662755,0.75953 -3.127349,1.380964 -3.25465,1.380964 -0.333662,0 -0.735245,-1.177631 -0.92628,-2.716286 -0.510711,-4.1134049 2.832056,-8.2334305 7.304008,-9.00233 3.360015,-0.577717 6.372764,0.3333685 8.667244,2.6210587 0.727709,0.7255525 1.323106,1.4469907 1.323106,1.6031951 0,0.2997754 -2.930863,1.6821564 -3.147636,1.4846245 -0.06952,-0.06336 -0.195548,-0.4300825 -0.280009,-0.81492 C 27.21635,6.0976967 27.280215,5.9749732 27.786395,5.8523618 28.868346,5.590281 29.052355,5.3778885 28.774476,4.711885 28.548612,4.1705398 28.446322,4.1274245 27.865383,4.3286921 26.805955,4.6957344 26.542544,4.6011628 26.23139,3.7420486 25.983853,3.0585769 25.849747,2.9525314 25.391997,3.0782888 24.551368,3.3092317 24.428562,3.5095933 24.711705,4.188212 c 0.384262,0.9209747 0.347285,0.9954488 -0.641986,1.2929565 -0.808565,0.2431647 -0.886012,0.3356635 -0.736264,0.8793497 0.21668,0.7866929 0.194944,0.7757242 0.990676,0.5000416 1.027614,-0.3560186 1.336222,-0.290955 1.503676,0.3170119 0.08383,0.3043197 0.217852,0.708733 0.297847,0.8986959 0.0904,0.2146893 -0.03787,0.3984061 -0.339026,0.4855025 -0.266462,0.077068 -0.601774,0.3747105 -0.745139,0.6614334 -0.206517,0.4130224 -0.159793,0.6348251 0.224912,1.0677485 0.329148,0.3704 0.438342,0.742405 0.338955,1.15475 -0.105328,0.436982 -0.003,0.726767 0.363366,1.02888 0.353661,0.291649 0.464193,0.586831 0.360593,0.962969 l -0.149388,0.542402 h 4.208973 4.208973 l 0.737363,0.671912 0.737362,0.671914 v 7.245619 7.245618 l -0.608549,0.644949 -0.60855,0.644946 -10.617926,0.114944 c -5.839858,0.06321 -10.950839,0.03608 -11.357733,-0.06029 z m 13.636684,-3.340045 c 3.913377,-1.862912 4.703278,-6.502192 1.5901,-9.339038 -4.048771,-3.689394 -10.968379,-1.093458 -10.947676,4.107093 0.01775,4.458863 5.059708,7.277886 9.357576,5.231945 z m -6.785981,-1.720959 -1.062672,-0.986675 1.387596,-1.248724 1.387597,-1.248721 -1.38968,-1.279683 -1.38968,-1.279683 1.082784,-0.968346 1.082781,-0.968346 1.370359,1.264428 1.370359,1.26443 1.404333,-1.26633 1.404332,-1.266326 1.062672,0.986671 1.062669,0.986673 -1.387594,1.248724 -1.387594,1.248724 1.38968,1.279682 1.389679,1.279682 -1.082783,0.968348 -1.082784,0.968346 -1.370359,-1.26443 -1.370357,-1.26443 -1.404335,1.26633 -1.404332,1.266328 z m 5.538253,-12.499023 c 1.081468,-0.891842 -0.0052,-1.077554 -1.17835,-0.201363 l -0.75677,0.565253 0.736906,0.0083 c 0.405297,0.0046 0.944495,-0.162921 1.198214,-0.37216 z m -2.199243,-0.346068 c 0.759434,-0.315309 0.865709,-0.741378 0.137989,-0.553256 -0.277483,0.07174 -0.731542,0.189113 -1.009023,0.260846 -0.581639,0.15037 -0.68253,0.559173 -0.13799,0.559173 0.201578,0 0.655643,-0.12005 1.009024,-0.266763 z m -0.40113,-2.275002 c 0.466554,-0.259192 0.800718,-0.514599 0.742585,-0.567573 -0.243445,-0.221836 -1.969249,0.397374 -1.969249,0.706556 0,0.445623 0.219022,0.420808 1.226664,-0.138977 z m -4.571252,-0.616453 0.729076,0.634559 0.56378,-0.54685 L 19.9538,9.902864 19.168857,9.3010016 18.383911,8.6991391 19.042337,7.912518 19.700767,7.1258986 19.13169,6.7626804 C 18.595996,6.4207728 18.52127,6.4355581 17.857863,7.0147262 l -0.70475,0.6152622 -0.784511,-0.5285297 -0.78451,-0.5285316 -0.539689,0.491936 -0.539689,0.4919377 0.819137,0.5842896 0.81914,0.5842914 -0.659126,0.7874536 -0.659125,0.7874536 0.573782,0.423379 c 0.5666,0.418081 0.582516,0.414496 1.271675,-0.286422 L 17.36809,9.727444 Z m 5.993275,-0.7494924 c 0.197301,-0.2909163 -0.136631,-0.2909163 -0.630639,0 -0.326088,0.1920301 -0.319431,0.2233115 0.04817,0.2263453 0.234608,0.00202 0.496716,-0.099928 0.582464,-0.2263453 z M 9.6460805e-7,24.807832 C 9.6460805e-7,22.451695 1.723434,19.507325 3.9744522,18.017753 5.3147883,17.130809 7.8815596,16.278606 9.2126376,16.278606 h 0.8775984 v 4.712235 4.712239 H 5.0451183 9.6460805e-7 Z M 37.081614,20.990841 v -4.712235 h 5.045117 5.045119 v 0.6413 c 0,0.352717 -0.171509,1.241308 -0.38112,1.974646 -0.938701,3.284022 -3.522966,5.554593 -7.35799,6.464825 -2.560151,0.607648 -2.351126,0.996029 -2.351126,-4.368536 z m 1.26128,-8.728391 V 9.1527833 h 4.148636 4.148635 l -0.523511,1.3217237 c -0.287932,0.726951 -0.593986,2.09752 -0.680118,3.045717 l -0.156608,1.723989 -3.468518,0.06395 -3.468519,0.06395 z m -7.265409,-0.65382 c 0.116805,-0.977345 0.188348,-0.967913 -1.875979,-0.247353 -1.907952,0.66598 -2.329932,-0.312609 -0.547936,-1.270688 0.930427,-0.5002385 1.077877,-0.8125646 0.481984,-1.0209327 -0.208111,-0.072769 -0.378384,-0.3533008 -0.378384,-0.6234008 0,-0.4343055 0.116663,-0.4809472 1.009024,-0.4034009 0.946488,0.082251 1.009024,0.050112 1.009024,-0.5186306 0,-0.5980053 0.01513,-0.6031561 1.105457,-0.3758039 1.434942,0.2992167 1.900049,1.1041184 1.689505,2.9238219 -0.09629,0.832298 -0.220832,1.158971 -0.364483,0.956097 -0.167558,-0.236641 -0.452026,-0.103273 -1.225629,0.574662 l -1.00742,0.882827 z M 38.469022,8.2377513 C 39.394151,7.881426 44.762061,6.4227262 45.721379,6.2669646 L 46.66734,6.1133787 v 1.1749079 1.1749058 l -4.351416,-0.015619 c -2.6161,-0.00937 -4.150218,-0.093056 -3.846902,-0.2098768 z M 33.95928,7.6011841 C 33.665741,6.6877049 32.786285,1.7268234 32.899581,1.6235833 33.32428,1.236583 36.576459,0.82313614 40.48707,0.65899517 c 2.497332,-0.10481622 4.739352,-0.26477112 4.982266,-0.35544335 0.349081,-0.13030351 0.54621,0.0450944 0.940421,0.83673598 0.274315,0.550879 0.501251,0.8671597 0.504298,0.7028496 0.003,-0.1643173 -0.173105,-0.6135409 -0.391445,-0.99829013 -0.482444,-0.85013015 -0.292243,-1.11026319 0.396502,-0.54228408 0.917524,0.75664641 1.447021,3.84035221 0.784351,4.56794821 -0.167598,0.1840273 -0.885187,0.4073405 -1.594623,0.4962524 -0.709437,0.088902 -2.77538,0.609029 -4.590981,1.1558171 -2.920444,0.8795242 -5.73547,1.473937 -7.004868,1.47913 -0.233448,9.556e-4 -0.482617,-0.1792753 -0.553711,-0.4005268 z m 5.932176,-4.2120908 c 2.96366,-1.273636 5.501989,-2.42669351 5.64073,-2.56234814 0.175363,-0.17148398 0.118956,-0.20394318 -0.185102,-0.10652511 -0.240546,0.0770685 -1.943274,0.20054547 -3.783838,0.27439825 -1.840563,0.0738528 -4.40575,0.2957014 -5.700412,0.4929962 -2.193203,0.3342234 -2.345155,0.39235 -2.225381,0.8512921 0.0707,0.2709178 0.264996,1.1390729 0.431768,1.9292351 0.166773,0.7901622 0.33259,1.436658 0.368489,1.436658 0.03589,0 2.490084,-1.0420667 5.453746,-2.3157027 z m 7.200458,1.1232753 C 47.011393,4.3289953 46.951618,4.3834623 46.9395,4.6512537 c -0.0109,0.2423157 0.04867,0.3780807 0.132484,0.3016975 0.08383,-0.076388 0.09279,-0.2746409 0.01997,-0.4405754 z m 0.0016,-1.9682197 c -0.06344,-0.221246 -0.115361,-0.040225 -0.115361,0.4022633 0,0.4424901 0.05191,0.6235093 0.115361,0.4022652 0.06344,-0.2212459 0.06344,-0.5832844 0,-0.8045285 z"
     id="path1" />
</svg>
