<?xml version="1.0" encoding="UTF-8" standalone="no"?>
<svg
   fill="none"
   viewBox="0 0 48 48"
   height="256"
   width="256"
   version="1.1"
   id="svg6"
   sodipodi:docname="vm.svg"
   inkscape:version="1.2.1 (9c6d41e410, 2022-07-14)"
   xmlns:inkscape="http://www.inkscape.org/namespaces/inkscape"
   xmlns:sodipodi="http://sodipodi.sourceforge.net/DTD/sodipodi-0.dtd"
   xmlns="http://www.w3.org/2000/svg"
   xmlns:svg="http://www.w3.org/2000/svg">
  <defs
     id="defs10" />
  <sodipodi:namedview
     id="namedview8"
     pagecolor="#ffffff"
     bordercolor="#666666"
     borderopacity="1.0"
     inkscape:showpageshadow="2"
     inkscape:pageopacity="0.0"
     inkscape:pagecheckerboard="true"
     inkscape:deskcolor="#d1d1d1"
     showgrid="true"
     inkscape:zoom="1.6191406"
     inkscape:cx="168.60796"
     inkscape:cy="92.950544"
     inkscape:current-layer="svg6"
     showguides="false"
     inkscape:window-width="1920"
     inkscape:window-height="730"
     inkscape:window-x="-6"
     inkscape:window-y="-6"
     inkscape:window-maximized="1">
    <inkscape:grid
       type="xygrid"
       id="grid239"
       units="px"
       spacingx="1.5"
       spacingy="1.5" />
  </sodipodi:namedview>
  <path
     id="rect13258"
     style="fill:#2e3436;fill-opacity:1;stroke:none;stroke-width:0.990936;stroke-linecap:round;stroke-linejoin:round;stroke-opacity:1"
     d="M 24.048003,2.0000617 41.41609,9.494015 c 0.512368,0.4447912 0.560702,1.18482 0.441663,2.031419 l -0.999064,16.311346 -6.506114,4.720494 c 0.645654,1.195054 1.006419,2.526337 1.006419,3.935873 0,5.309427 -5.119782,9.506791 -11.296669,9.506791 -6.176886,0 -11.296669,-4.197364 -11.296669,-9.506791 0,-1.407023 0.359834,-2.735886 1.003323,-3.929293 L 7.1873831,27.760525 6.1325783,11.634978 C 6.045376,10.89424 6.0375066,10.132122 6.5765641,9.6140107 Z"
     sodipodi:nodetypes="cccccsssccccc" />
  <path
     id="rect13261"
     style="fill:#729fcf;fill-opacity:1;stroke:none;stroke-width:0.990936;stroke-linecap:round;stroke-linejoin:round;stroke-opacity:1"
     d="M 24.048003,2.0000617 C 18.224196,4.5379434 12.40037,7.0761282 6.5765638,9.6140107 L 24.035616,19.455243 41.41609,9.494015 C 35.626689,6.9960424 29.83735,4.4980307 24.048003,2.0000617 Z m -0.01781,2.7440408 c 0.08424,1.015e-4 0.167478,0.01763 0.244638,0.051482 l 10.219026,4.4940491 c 0.453723,0.2016583 0.489712,0.8318054 0.06193,1.0838364 L 24.38863,16.323343 c -0.189213,0.110615 -0.423232,0.111485 -0.613143,0.0019 L 13.414013,10.371502 c -0.436463,-0.24932 -0.40144,-0.8897926 0.05961,-1.0900293 L 23.785554,4.7955519 c 0.07716,-0.033852 0.160395,-0.051381 0.244637,-0.051482 z m -7.73e-4,1.2777654 -1.950905,0.8484889 0.483081,0.2353474 c 0.383433,0.1873505 0.461219,0.7002593 0.150576,0.9928712 l -0.390178,0.3673428 2.12432,-0.9080996 c 0.570913,-0.2421479 1.097331,0.4225635 0.730815,0.9228088 L 24.572115,9.304343 25.697369,8.8770017 c 0.518537,-0.1987516 1.011595,0.3418904 0.76604,0.8399733 l -0.838425,1.696978 2.107675,1.538273 5.173769,-3.0266122 z m -3.422213,1.4887264 -5.53337,2.4068901 9.002807,5.1733816 2.505984,-1.465887 -2.091029,-1.527436 c -0.239061,-0.174778 -0.31821,-0.49593 -0.187733,-0.761781 l 0.377795,-0.76604 -1.606013,0.608884 c -0.567378,0.213546 -1.065464,-0.441038 -0.708364,-0.930939 l 0.505919,-0.689396 -3.228671,1.378794 C 19.017795,11.204508 18.490375,10.399743 18.985714,9.9318068 L 21.2339,7.8156168 Z M 41.85775,11.525434 c -5.542994,3.17648 -11.086107,6.353147 -16.629144,9.529629 -0.0054,6.043983 -0.0095,12.088202 -0.01432,18.132192 5.214798,-3.783431 10.429648,-7.567046 15.644402,-11.350475 0.333058,-5.437041 0.665993,-10.874312 0.999064,-16.311346 z m -35.7251722,0.109544 1.054805,16.125547 c 5.2161602,3.806819 10.4325412,7.613716 15.6486582,11.420536 0.0053,-6.039855 0.0095,-12.079951 0.01432,-18.119805 C 17.277786,17.919182 11.705158,14.777051 6.1325778,11.634978 Z m 32.4392172,4.069418 c 0.03699,0 0.07431,0.0033 0.111092,0.01004 0.304807,0.05563 0.519316,0.330653 0.499339,0.639851 l -0.650301,10.130406 c -0.0085,0.01901 -0.0172,0.03763 -0.02671,0.05575 -0.01987,0.117467 -0.07367,0.226294 -0.154833,0.313539 -0.01459,0.02022 -0.03059,0.03979 -0.04761,0.05806 -0.0085,0.01062 -0.0172,0.02093 -0.02671,0.03097 L 28.14568,34.124973 c -0.406955,0.286711 -0.96719,-0.0077 -0.961905,-0.505533 l 0.128123,-10.828304 c 0.0021,-0.210423 0.113238,-0.404683 0.293023,-0.514048 l 10.650625,-6.484437 c 0.09598,-0.05825 0.205348,-0.08822 0.316249,-0.08826 z m -29.5643412,0.07819 c 0.109769,0 0.219275,0.02951 0.316635,0.08864 l 10.6486902,6.484443 c 0.179785,0.109369 0.290909,0.303626 0.293023,0.514049 l 0.13006,10.82791 c 0.0063,0.499683 -0.556976,0.795396 -0.964227,0.50592 L 9.3035728,27.019258 c -0.140115,-0.106517 -0.227449,-0.268431 -0.239605,-0.443986 -0.0053,-0.0048 -0.01097,-0.0092 -0.01626,-0.01432 L 8.3974088,16.432889 c -0.01469,-0.227197 0.0982,-0.44379 0.293023,-0.56166 0.09735,-0.05913 0.207253,-0.08864 0.317022,-0.08864 z" />
</svg>
