<?xml version="1.0" encoding="UTF-8" standalone="no"?>
<svg
   fill="none"
   viewBox="0 0 48 48"
   height="256"
   width="256"
   version="1.1"
   id="svg6"
   sodipodi:docname="windows.svg"
   inkscape:version="1.2.1 (9c6d41e410, 2022-07-14)"
   xmlns:inkscape="http://www.inkscape.org/namespaces/inkscape"
   xmlns:sodipodi="http://sodipodi.sourceforge.net/DTD/sodipodi-0.dtd"
   xmlns="http://www.w3.org/2000/svg"
   xmlns:svg="http://www.w3.org/2000/svg">
  <defs
     id="defs10" />
  <sodipodi:namedview
     id="namedview8"
     pagecolor="#ffffff"
     bordercolor="#666666"
     borderopacity="1.0"
     inkscape:showpageshadow="2"
     inkscape:pageopacity="0.0"
     inkscape:pagecheckerboard="true"
     inkscape:deskcolor="#d1d1d1"
     showgrid="true"
     inkscape:zoom="1.1449053"
     inkscape:cx="156.34481"
     inkscape:cy="106.12231"
     inkscape:current-layer="svg6"
     showguides="false">
    <inkscape:grid
       type="xygrid"
       id="grid239"
       units="px"
       spacingx="1.5"
       spacingy="1.5" />
  </sodipodi:namedview>
  <path
     id="rect13928"
     style="fill:#204a87;fill-opacity:1;stroke:none;stroke-width:0.9375;stroke-linecap:round;stroke-linejoin:round"
     d="M 45.99939,1.9998779 V 12.423706 22.847534 l -1.526368,0.02673 c -0.839612,0.0149 -5.667756,0.05592 -10.729248,0.09119 -5.061491,0.03527 -9.733595,0.0709 -10.382446,0.0791 -0.648499,0.0075 -1.188866,0.0048 -1.201538,-0.0077 3e-6,3e-6 -3e-6,0.0011 0,0.0011 l -3.66e-4,-0.0011 h 3.66e-4 c -0.01242,-0.01409 -0.02234,-3.963229 -0.02234,-8.779541 0,-6.9678362 0.01,-8.7628704 0.0542,-8.7784422 0.0298,-0.00993 5.335277,-0.7867749 11.790162,-1.7244873 C 40.436696,2.8166573 45.781353,2.0383901 45.858765,2.0247803 Z M 19.972046,5.793457 v 8.634522 8.634887 l -1.331543,0.02673 c -0.732422,0.0149 -4.147558,0.03654 -7.589356,0.04871 -3.4418221,0.01242 -6.8720099,0.03382 -7.622314,0.04797 -0.7502792,0.0149 -1.3785056,0.0096 -1.3963623,-0.0077 -0.017385,-0.01739 -0.032593,-3.39103 -0.032593,-7.495239 0,-6.0640001 0.01008,-7.4619145 0.05603,-7.4619145 0.045697,0 17.1275318,-2.3128122 17.7322998,-2.4008789 z m -17.9710694,19.166016 4.0166015,0.02856 c 2.2091886,0.0149 6.2528919,0.04148 8.9860839,0.05713 l 4.969483,0.02856 v 8.649903 8.649536 l -0.119019,-0.0051 c -0.06557,-0.0025 -4.104536,-0.554952 -8.975464,-1.227173 l -7.32e-4,3.66e-4 c -4.8709293,-0.672246 -8.8611052,-1.22387 -8.8670657,-1.225708 -0.00497,-0.0017 -0.00989,-3.367827 -0.00989,-7.479858 z m 20.1364744,0.215698 3.19043,0.02856 c 1.754625,0.0149 7.123677,0.02856 11.931152,0.02856 h 8.740723 v 10.383545 10.383911 l -0.09741,-0.0051 c -0.05364,-0.0023 -5.398252,-0.750794 -11.876953,-1.663696 v 0.0011 C 27.546689,43.419129 22.221428,42.663944 22.19165,42.653687 c -0.04297,-0.0149 -0.0542,-1.803544 -0.0542,-8.74878 z"
     sodipodi:nodetypes="ccccscscccscccccccccccssccccccccccccscccscccccccsc" />
</svg>
