<?xml version="1.0" encoding="UTF-8" standalone="no"?>
<svg
   fill="none"
   viewBox="0 0 48 48"
   height="256"
   width="256"
   version="1.1"
   id="svg6"
   sodipodi:docname="arduino_uno_smd.svg"
   inkscape:version="1.2.1 (9c6d41e410, 2022-07-14)"
   xmlns:inkscape="http://www.inkscape.org/namespaces/inkscape"
   xmlns:sodipodi="http://sodipodi.sourceforge.net/DTD/sodipodi-0.dtd"
   xmlns="http://www.w3.org/2000/svg"
   xmlns:svg="http://www.w3.org/2000/svg">
  <defs
     id="defs10" />
  <sodipodi:namedview
     id="namedview8"
     pagecolor="#ffffff"
     bordercolor="#666666"
     borderopacity="1.0"
     inkscape:showpageshadow="2"
     inkscape:pageopacity="0.0"
     inkscape:pagecheckerboard="true"
     inkscape:deskcolor="#d1d1d1"
     showgrid="true"
     inkscape:zoom="1.6191406"
     inkscape:cx="78.436672"
     inkscape:cy="88.627263"
     inkscape:current-layer="svg6"
     showguides="false"
     inkscape:window-width="1920"
     inkscape:window-height="730"
     inkscape:window-x="-6"
     inkscape:window-y="-6"
     inkscape:window-maximized="1">
    <inkscape:grid
       type="xygrid"
       id="grid239"
       units="px"
       spacingx="1.5"
       spacingy="1.5" />
  </sodipodi:namedview>
  <path
     id="rect897"
     style="fill:#77c32f;fill-opacity:1;stroke:none;stroke-width:0.363088;stroke-linejoin:round;stroke-opacity:0.580986"
     d="m 34.545776,2.295961 c 5.120294,0.2698197 9.013548,4.1634678 9.283448,9.283814 0.167099,3.171297 0.295898,7.281215 0.295898,12.42041 0,5.139095 -0.128799,9.24948 -0.295898,12.420776 -0.2698,5.120295 -4.163154,9.013648 -9.283448,9.283448 H 13.45459 C 8.334265,45.434609 4.440586,41.541256 4.170776,36.420961 4.003667,33.249665 3.875244,29.13938 3.875244,24.000185 c 0,-5.139195 0.128423,-9.249113 0.295532,-12.42041 0.26981,-5.1203362 4.163479,-9.0140043 9.283814,-9.283814 z"
     sodipodi:nodetypes="ccssccssscc" />
  <path
     style="fill:#606668;fill-opacity:1;stroke-width:0.425197;stroke-linejoin:round;stroke-opacity:0.580986"
     d="m 30.75,1.5 h 9 C 41.25,1.5 42,3 42,4.5 V 12 c 0,1.5 -0.75,3 -2.25,3 h -9 C 29.25,15 28.5,13.5 28.5,12 V 4.5 c 0,-1.5 0.75,-3 2.25,-3 z"
     id="path450"
     sodipodi:nodetypes="ccccccccc" />
  <path
     style="fill:#606668;fill-opacity:1;stroke-width:0.425197;stroke-linejoin:round;stroke-opacity:0.580986"
     d="m 19.5,40.5 h 9 c 1.5,0 3,1.5 3,3 0.143298,1.520471 -1.5,3 -3,3 h -9 c -1.5,0 -3,-1.5 -3,-3 0,-1.5 1.5,-3 3,-3 z"
     id="path3515"
     sodipodi:nodetypes="ccccccc" />
  <path
     id="path1058-3"
     style="fill:#ffff68;stroke-width:0.318898;stroke-linejoin:round;stroke-opacity:0.580986;fill-opacity:1"
     d="M 20.625,43.5 A 1.125,1.125 0 0 1 19.5,44.625 1.125,1.125 0 0 1 18.375,43.5 1.125,1.125 0 0 1 19.5,42.375 1.125,1.125 0 0 1 20.625,43.5 Z" />
  <path
     id="path3539"
     style="fill:#ffff68;stroke-width:0.318898;stroke-linejoin:round;stroke-opacity:0.580986;fill-opacity:1"
     d="M 23.625,43.5 A 1.125,1.125 0 0 1 22.5,44.625 1.125,1.125 0 0 1 21.375,43.5 1.125,1.125 0 0 1 22.5,42.375 1.125,1.125 0 0 1 23.625,43.5 Z" />
  <path
     id="path3541"
     style="fill:#ffff68;stroke-width:0.318898;stroke-linejoin:round;stroke-opacity:0.580986;fill-opacity:1"
     d="M 26.625,43.5 A 1.125,1.125 0 0 1 25.5,44.625 1.125,1.125 0 0 1 24.375,43.5 1.125,1.125 0 0 1 25.5,42.375 1.125,1.125 0 0 1 26.625,43.5 Z" />
  <path
     id="path3543"
     style="fill:#ffff68;stroke-width:0.318898;stroke-linejoin:round;stroke-opacity:0.580986;fill-opacity:1"
     d="M 29.625,43.5 A 1.125,1.125 0 0 1 28.5,44.625 1.125,1.125 0 0 1 27.375,43.5 1.125,1.125 0 0 1 28.5,42.375 1.125,1.125 0 0 1 29.625,43.5 Z" />
  <path
     style="fill:#606668;fill-opacity:1;stroke-width:0.425197;stroke-linejoin:round;stroke-opacity:0.580986"
     d="m 8.25,1.5 h 5.25 c 1.5,0 2.25,1.5 2.25,3 v 5.625 c 0,1.5 -0.75,3 -2.25,3 H 8.25 c -1.5,0 -2.25,-1.5 -2.25,-3 V 4.5 C 6,3 6.75,1.5 8.25,1.5 Z"
     id="path393"
     sodipodi:nodetypes="ccccccccc" />
  <path
     id="path2-4"
     style="fill:#606668;fill-opacity:1;stroke-width:0.246037"
     d="m 9.691247,20.151319 c -0.132116,0.132116 -0.210842,0.239423 -0.257817,0.320353 -0.0629,0.108396 -0.02208,0.231788 0.0637,0.323171 0.160235,0.1707 0.438373,0.464833 0.683826,0.714699 -0.05302,0.06023 -0.104255,0.118779 -0.151581,0.17353 -0.412512,0.477198 -0.412513,1.156714 0,1.63391 0.04729,0.05479 0.09849,0.113186 0.151484,0.173434 -0.245466,0.24985 -0.523492,0.544097 -0.683727,0.714798 -0.08575,0.09141 -0.126705,0.214682 -0.0638,0.323072 0.04697,0.08093 0.125897,0.188236 0.258014,0.320352 0.132116,0.132116 0.239324,0.210941 0.320255,0.257917 0.108412,0.06292 0.231789,0.02208 0.32317,-0.0637 0.161799,-0.151899 0.434258,-0.409467 0.675079,-0.644985 0.182058,0.193089 0.381279,0.400653 0.598949,0.623232 -0.232233,0.237749 -0.483632,0.503785 -0.632938,0.662849 -0.08575,0.09141 -0.126605,0.214781 -0.0637,0.323169 0.04697,0.08093 0.125799,0.188138 0.257916,0.320255 0.132116,0.132115 0.23942,0.211037 0.320352,0.258013 0.108412,0.06292 0.231692,0.02198 0.323072,-0.0638 0.159063,-0.149304 0.425085,-0.400717 0.662849,-0.632938 0.222588,0.217638 0.43017,0.416876 0.623232,0.598949 -0.235483,0.240856 -0.492994,0.513372 -0.644879,0.675185 -0.08575,0.09141 -0.126618,0.214766 -0.0637,0.32317 0.04697,0.08093 0.1258,0.188138 0.257916,0.320254 0.132117,0.132116 0.239326,0.210942 0.320255,0.257916 0.108388,0.06291 0.231789,0.02208 0.323171,-0.0637 0.1707,-0.160236 0.464834,-0.438375 0.714699,-0.683827 0.06023,0.05302 0.118788,0.10425 0.173531,0.151582 0.477196,0.41251 1.156713,0.412514 1.63391,0 0.05515,-0.04766 0.114068,-0.09923 0.174795,-0.152648 0.07784,0.08024 0.154789,0.158466 0.22607,0.229748 0.215015,0.215015 0.38566,0.37279 0.494759,0.470477 0.08624,0.07719 0.200656,0.112621 0.301806,0.05632 0.08239,-0.04586 0.194382,-0.126019 0.33424,-0.265877 0.139859,-0.139858 0.220015,-0.251848 0.265877,-0.33424 0.05628,-0.101128 0.02089,-0.215585 -0.05632,-0.301807 -0.09774,-0.10905 -0.255462,-0.279744 -0.470477,-0.494759 -0.0594,-0.0594 -0.123972,-0.12291 -0.19019,-0.187361 0.193225,-0.182195 0.400941,-0.38158 0.623716,-0.599434 0.06035,0.06176 0.119677,0.122222 0.175364,0.177909 0.215015,0.215015 0.385589,0.372861 0.49466,0.470576 0.08624,0.07719 0.200777,0.112502 0.301904,0.05622 0.0824,-0.04585 0.194285,-0.125921 0.334143,-0.265779 0.139859,-0.139859 0.220015,-0.251849 0.265877,-0.33424 0.0563,-0.101146 0.021,-0.215699 -0.05622,-0.301905 -0.09774,-0.10905 -0.255561,-0.279645 -0.470576,-0.49466 -0.05569,-0.05568 -0.116114,-0.115053 -0.17791,-0.175363 0.217911,-0.222719 0.417219,-0.430513 0.599435,-0.623717 0.06456,0.06611 0.128033,0.13072 0.187432,0.190119 0.215015,0.215015 0.38566,0.37279 0.494759,0.470477 0.08624,0.07719 0.200677,0.112599 0.301808,0.05632 0.08239,-0.04586 0.194381,-0.126019 0.33424,-0.265877 0.139858,-0.139858 0.220014,-0.251848 0.265876,-0.33424 0.0563,-0.101146 0.02091,-0.215602 -0.05632,-0.301806 -0.09774,-0.10905 -0.255463,-0.279745 -0.470477,-0.49476 -0.07128,-0.07128 -0.149559,-0.148179 -0.229748,-0.22607 0.05339,-0.06075 0.104983,-0.119649 0.152648,-0.174795 0.412509,-0.477195 0.412511,-1.156715 0,-1.63391 -0.04766,-0.05515 -0.09924,-0.114061 -0.152648,-0.174795 0.08024,-0.07784 0.158466,-0.154789 0.229748,-0.22607 0.215014,-0.215015 0.37279,-0.38566 0.470477,-0.49476 0.07719,-0.08624 0.112621,-0.200656 0.05632,-0.301806 -0.04586,-0.08239 -0.126019,-0.194382 -0.265877,-0.33424 -0.139858,-0.139859 -0.251849,-0.220015 -0.33424,-0.265877 -0.101128,-0.05628 -0.215682,-0.02099 -0.301903,0.05622 -0.10905,0.09774 -0.279646,0.255562 -0.494661,0.470577 -0.0594,0.0594 -0.12291,0.123971 -0.187431,0.190118 -0.182186,-0.193217 -0.381584,-0.400959 -0.599434,-0.623716 0.06176,-0.06035 0.122223,-0.119677 0.177909,-0.175364 0.215015,-0.215015 0.372861,-0.385589 0.470576,-0.49466 0.07719,-0.08624 0.112502,-0.200777 0.05622,-0.301904 -0.04586,-0.0824 -0.126019,-0.194382 -0.265878,-0.33424 -0.139857,-0.139858 -0.251848,-0.220015 -0.33424,-0.265878 -0.101145,-0.0563 -0.215601,-0.0209 -0.301806,0.05632 -0.10905,0.09774 -0.279744,0.255462 -0.494759,0.470477 -0.05568,0.05569 -0.115054,0.116115 -0.175364,0.177909 -0.222728,-0.217778 -0.430459,-0.417165 -0.623619,-0.599337 0.06619,-0.06449 0.130719,-0.128032 0.190118,-0.187431 0.215015,-0.215015 0.372791,-0.385661 0.470478,-0.49476 0.07719,-0.08624 0.112607,-0.20067 0.05632,-0.301805 -0.04586,-0.08239 -0.126019,-0.194383 -0.265877,-0.33424 -0.139859,-0.139859 -0.251849,-0.220015 -0.33424,-0.265878 -0.101146,-0.0563 -0.2157,-0.021 -0.301903,0.05623 -0.10905,0.09774 -0.279646,0.255561 -0.494661,0.470576 -0.07128,0.07128 -0.14818,0.149559 -0.22607,0.229748 -0.06078,-0.05343 -0.119624,-0.104958 -0.174795,-0.152648 -0.4772,-0.412514 -1.156716,-0.41251 -1.633911,-1e-6 -0.05479,0.04729 -0.113279,0.09858 -0.17353,0.151582 -0.249852,-0.245468 -0.543999,-0.523592 -0.714707,-0.683821 -0.09141,-0.08575 -0.214782,-0.126605 -0.323169,-0.0637 -0.08094,0.04697 -0.188238,0.125701 -0.320354,0.257817 -0.132117,0.132117 -0.210843,0.239424 -0.257818,0.320354 -0.06292,0.108406 -0.02208,0.23179 0.0637,0.32317 0.151911,0.16181 0.409455,0.434245 0.644985,0.675079 -0.193117,0.182086 -0.400712,0.381338 -0.623328,0.599046 -0.237749,-0.232234 -0.503693,-0.483725 -0.662749,-0.633037 -0.09141,-0.08575 -0.214783,-0.126606 -0.32317,-0.0637 -0.08093,0.04697 -0.188238,0.125701 -0.320354,0.257817 -0.132116,0.132116 -0.210939,0.239521 -0.257914,0.320451 -0.06292,0.108405 -0.02208,0.231789 0.0637,0.32317 0.149311,0.159069 0.400798,0.424981 0.633037,0.662749 -0.217687,0.222637 -0.416939,0.430233 -0.599046,0.623328 -0.240869,-0.235495 -0.513255,-0.493088 -0.675079,-0.644984 -0.09141,-0.08575 -0.214766,-0.126618 -0.32317,-0.0637 -0.08094,0.04697 -0.188238,0.125701 -0.320354,0.257818 z" />
  <path
     id="path40-4"
     style="fill:#a9ff53;fill-opacity:1;stroke:none;stroke-width:0.0180463"
     d="m 29.026688,27.076028 c -1.223415,0 -2.372203,0.453559 -3.234903,1.279807 -0.873042,0.834476 -1.354112,1.950693 -1.354112,3.144064 0,1.191874 0.481115,2.309661 1.352875,3.142623 0.863529,0.826121 2.011393,1.281044 3.234284,1.281044 a 4.9791441,4.9774494 0 0 0 0.70643,-0.0501 c 1.966088,-0.280262 3.281239,-1.694001 4.020284,-2.779582 0.736717,1.0856 2.052076,2.49791 4.019047,2.778552 0.23464,0.03491 0.473021,0.05154 0.706018,0.05154 1.222964,0 2.370068,-0.455354 3.234284,-1.281457 0.872573,-0.832961 1.351433,-1.95075 1.351433,-3.142622 0,-1.193372 -0.480078,-2.309589 -1.352669,-3.144066 -0.862684,-0.825074 -2.011394,-1.279806 -3.234285,-1.279806 -0.23316,0 -0.470553,0.01648 -0.705195,0.0501 -1.966808,0.280714 -3.281979,1.692771 -4.01884,2.778551 -0.739097,-1.08578 -2.054141,-2.498252 -4.020284,-2.778551 -0.233845,-0.03347 -0.471208,-0.0501 -0.704368,-0.0501 z m 9.448686,1.567394 c 1.665369,0 3.01949,1.280954 3.01949,2.856477 0,1.575525 -1.354383,2.856685 -3.018253,2.856685 -0.159032,0 -0.322267,-0.01233 -0.484421,-0.03463 -1.852304,-0.265215 -2.985574,-2.09028 -3.369716,-2.821639 0.38416,-0.732875 1.517275,-2.557673 3.369922,-2.822258 0.160639,-0.02331 0.323929,-0.03464 0.482978,-0.03464 z m -9.448686,4.11e-4 c 0.159177,0 0.322962,0.01126 0.483185,0.03546 1.852359,0.2637 2.986198,2.090261 3.36951,2.82164 -0.384359,0.732406 -1.517133,2.556253 -3.36951,2.821432 -0.162119,0.02227 -0.325475,0.03463 -0.485247,0.03463 -1.664574,0 -3.018665,-1.281432 -3.018665,-2.856685 0,-1.575578 1.354637,-2.856479 3.020727,-2.85648 z m 8.863464,1.490293 v 0.933673 h -0.93215 v 0.887496 h 0.93215 v 0.933469 h 0.890717 v -0.933469 h 0.932562 v -0.887496 h -0.932562 v -0.933673 z m -10.127288,0.933673 v 0.887496 h 2.754811 v -0.887496 z" />
</svg>
