<?xml version="1.0" encoding="UTF-8" standalone="no"?>
<svg
   fill="none"
   viewBox="0 0 48 48"
   height="256"
   width="256"
   version="1.1"
   id="svg6"
   sodipodi:docname="arduino_nano.svg"
   inkscape:version="1.2.1 (9c6d41e410, 2022-07-14)"
   xmlns:inkscape="http://www.inkscape.org/namespaces/inkscape"
   xmlns:sodipodi="http://sodipodi.sourceforge.net/DTD/sodipodi-0.dtd"
   xmlns="http://www.w3.org/2000/svg"
   xmlns:svg="http://www.w3.org/2000/svg">
  <defs
     id="defs10" />
  <sodipodi:namedview
     id="namedview8"
     pagecolor="#ffffff"
     bordercolor="#666666"
     borderopacity="1.0"
     inkscape:showpageshadow="2"
     inkscape:pageopacity="0.0"
     inkscape:pagecheckerboard="true"
     inkscape:deskcolor="#d1d1d1"
     showgrid="true"
     inkscape:zoom="1.6191406"
     inkscape:cx="143.9035"
     inkscape:cy="126.91918"
     inkscape:current-layer="svg6"
     showguides="false"
     inkscape:window-width="1920"
     inkscape:window-height="730"
     inkscape:window-x="-6"
     inkscape:window-y="-6"
     inkscape:window-maximized="1">
    <inkscape:grid
       type="xygrid"
       id="grid239"
       units="px"
       spacingx="1.5"
       spacingy="1.5" />
  </sodipodi:namedview>
  <path
     id="rect897"
     style="fill:#77c32f;fill-opacity:1;stroke:none;stroke-width:0.363088;stroke-linejoin:round;stroke-opacity:0.580986"
     d="m 27.045776,2.295961 c 5.120294,0.2698197 9.013548,4.1634678 9.283448,9.283814 0.167099,3.171297 0.295898,7.281215 0.295898,12.42041 0,5.139095 -0.128799,9.24948 -0.295898,12.420776 -0.2698,5.120295 -4.163154,9.013648 -9.283448,9.283448 l -6.091186,0 c -5.120325,-0.2698 -9.014004,-4.163153 -9.283814,-9.283448 -0.167109,-3.171296 -0.295532,-7.281581 -0.295532,-12.420776 0,-5.139195 0.128423,-9.249113 0.295532,-12.42041 0.26981,-5.1203362 4.163479,-9.0140043 9.283814,-9.283814 z"
     sodipodi:nodetypes="ccssccssscc" />
  <path
     style="fill:#606668;fill-opacity:1;stroke-width:0.425197;stroke-linejoin:round;stroke-opacity:0.580986"
     d="m 19.5,1.5 h 9 c 1.5,0 3,1.5 3,3 V 12 c 0,1.5 -1.5,3 -3,3 h -9 c -1.5,0 -3,-1.5 -3,-3 V 4.5 c 0,-1.5 1.5,-3 3,-3 z"
     id="path450"
     sodipodi:nodetypes="ccccccccc" />
  <path
     id="path1058"
     style="fill:#ffff68;stroke-width:0.425197;stroke-linejoin:round;stroke-opacity:0.580986;fill-opacity:1"
     d="M 22.5,4.5 A 1.5,1.5 0 0 1 21,6 1.5,1.5 0 0 1 19.5,4.5 1.5,1.5 0 0 1 21,3 1.5,1.5 0 0 1 22.5,4.5 Z" />
  <path
     id="path1061"
     style="fill:#ffff68;stroke-width:0.425197;stroke-linejoin:round;stroke-opacity:0.580986;fill-opacity:1"
     d="M 28.5,4.5 A 1.5,1.5 0 0 1 27,6 1.5,1.5 0 0 1 25.5,4.5 1.5,1.5 0 0 1 27,3 1.5,1.5 0 0 1 28.5,4.5 Z" />
  <path
     id="path2-4"
     style="fill:#606668;fill-opacity:1;stroke-width:0.246037"
     d="m 18.693799,20.151345 c -0.132116,0.132116 -0.210842,0.239423 -0.257817,0.320353 -0.0629,0.108396 -0.02208,0.231788 0.0637,0.323171 0.160235,0.1707 0.438373,0.464833 0.683826,0.714699 -0.05302,0.06023 -0.104255,0.118779 -0.151581,0.17353 -0.412512,0.477198 -0.412513,1.156714 0,1.63391 0.04729,0.05479 0.09849,0.113186 0.151484,0.173434 -0.245466,0.24985 -0.523492,0.544097 -0.683727,0.714798 -0.08575,0.09141 -0.126705,0.214682 -0.0638,0.323072 0.04697,0.08093 0.125897,0.188236 0.258014,0.320352 0.132116,0.132116 0.239324,0.210941 0.320255,0.257917 0.108412,0.06292 0.231789,0.02208 0.32317,-0.0637 0.161799,-0.151899 0.434258,-0.409467 0.675079,-0.644985 0.182058,0.193089 0.381279,0.400653 0.598949,0.623232 -0.232233,0.237749 -0.483632,0.503785 -0.632938,0.662849 -0.08575,0.09141 -0.126605,0.214781 -0.0637,0.323169 0.04697,0.08093 0.125799,0.188138 0.257916,0.320255 0.132116,0.132115 0.23942,0.211037 0.320352,0.258013 0.108412,0.06292 0.231692,0.02198 0.323072,-0.0638 0.159063,-0.149304 0.425085,-0.400717 0.662849,-0.632938 0.222588,0.217638 0.43017,0.416876 0.623232,0.598949 -0.235483,0.240856 -0.492994,0.513372 -0.644879,0.675185 -0.08575,0.09141 -0.126618,0.214766 -0.0637,0.32317 0.04697,0.08093 0.1258,0.188138 0.257916,0.320254 0.132117,0.132116 0.239326,0.210942 0.320255,0.257916 0.108388,0.06291 0.231789,0.02208 0.323171,-0.0637 0.1707,-0.160236 0.464834,-0.438375 0.714699,-0.683827 0.06023,0.05302 0.118788,0.10425 0.173531,0.151582 0.477196,0.41251 1.156713,0.412514 1.63391,0 0.05515,-0.04766 0.114068,-0.09923 0.174795,-0.152648 0.07784,0.08024 0.154789,0.158466 0.22607,0.229748 0.215015,0.215015 0.38566,0.37279 0.494759,0.470477 0.08624,0.07719 0.200656,0.112621 0.301806,0.05632 0.08239,-0.04586 0.194382,-0.126019 0.33424,-0.265877 0.139859,-0.139858 0.220015,-0.251848 0.265877,-0.33424 0.05628,-0.101128 0.02089,-0.215585 -0.05632,-0.301807 -0.09774,-0.10905 -0.255462,-0.279744 -0.470477,-0.494759 -0.0594,-0.0594 -0.123972,-0.12291 -0.19019,-0.187361 0.193225,-0.182195 0.400941,-0.38158 0.623716,-0.599434 0.06035,0.06176 0.119677,0.122222 0.175364,0.177909 0.215015,0.215015 0.385589,0.372861 0.49466,0.470576 0.08624,0.07719 0.200777,0.112502 0.301904,0.05622 0.0824,-0.04585 0.194285,-0.125921 0.334143,-0.265779 0.139859,-0.139859 0.220015,-0.251849 0.265877,-0.33424 0.0563,-0.101146 0.021,-0.2157 -0.05622,-0.301905 -0.09774,-0.10905 -0.255561,-0.279645 -0.470576,-0.49466 -0.05569,-0.05568 -0.116114,-0.115053 -0.17791,-0.175363 0.217911,-0.222719 0.417219,-0.430513 0.599435,-0.623717 0.06456,0.06611 0.128033,0.13072 0.187432,0.190119 0.215015,0.215015 0.38566,0.37279 0.494759,0.470477 0.08624,0.07719 0.200677,0.112599 0.301808,0.05632 0.08239,-0.04586 0.194381,-0.126019 0.33424,-0.265877 0.139858,-0.139858 0.220014,-0.251848 0.265876,-0.33424 0.0563,-0.101146 0.02091,-0.215602 -0.05632,-0.301806 -0.09774,-0.10905 -0.255463,-0.279745 -0.470477,-0.49476 -0.07128,-0.07128 -0.149559,-0.148179 -0.229748,-0.22607 0.05339,-0.06075 0.104983,-0.119649 0.152648,-0.174795 0.412509,-0.477195 0.412511,-1.156715 0,-1.63391 -0.04766,-0.05515 -0.09924,-0.114061 -0.152648,-0.174795 0.08024,-0.07784 0.158466,-0.154789 0.229748,-0.22607 0.215014,-0.215015 0.37279,-0.38566 0.470477,-0.49476 0.07719,-0.08624 0.112621,-0.200656 0.05632,-0.301806 -0.04586,-0.08239 -0.126019,-0.194382 -0.265877,-0.33424 -0.139858,-0.139859 -0.251849,-0.220015 -0.33424,-0.265877 -0.101128,-0.05628 -0.215682,-0.02099 -0.301903,0.05622 -0.10905,0.09774 -0.279646,0.255562 -0.494661,0.470577 -0.0594,0.0594 -0.12291,0.123971 -0.187431,0.190118 -0.182186,-0.193217 -0.381584,-0.400959 -0.599434,-0.623716 0.06176,-0.06035 0.122223,-0.119677 0.177909,-0.175364 0.215015,-0.215015 0.372861,-0.385589 0.470576,-0.49466 0.07719,-0.08624 0.112502,-0.200777 0.05622,-0.301904 -0.04586,-0.0824 -0.126019,-0.194382 -0.265878,-0.33424 -0.139857,-0.139858 -0.251848,-0.220015 -0.33424,-0.265878 -0.101145,-0.0563 -0.215601,-0.0209 -0.301806,0.05632 -0.10905,0.09774 -0.279744,0.255462 -0.494759,0.470477 -0.05568,0.05569 -0.115054,0.116115 -0.175364,0.177909 -0.222728,-0.217778 -0.430459,-0.417165 -0.623619,-0.599337 0.06619,-0.06449 0.130719,-0.128032 0.190118,-0.187431 0.215015,-0.215015 0.372791,-0.385661 0.470478,-0.49476 0.07719,-0.08624 0.112607,-0.20067 0.05632,-0.301805 -0.04586,-0.08239 -0.126019,-0.194383 -0.265877,-0.33424 -0.139859,-0.139859 -0.251849,-0.220015 -0.33424,-0.265878 -0.101146,-0.0563 -0.2157,-0.021 -0.301903,0.05623 -0.10905,0.09774 -0.279646,0.255561 -0.494661,0.470576 -0.07128,0.07128 -0.14818,0.149559 -0.22607,0.229748 -0.06078,-0.05343 -0.119624,-0.104958 -0.174795,-0.152648 -0.4772,-0.412514 -1.156716,-0.41251 -1.633911,-1e-6 -0.05479,0.04729 -0.113279,0.09858 -0.17353,0.151582 -0.249852,-0.245468 -0.543999,-0.523592 -0.714707,-0.683821 -0.09141,-0.08575 -0.214782,-0.126605 -0.323169,-0.0637 -0.08094,0.04697 -0.188238,0.125701 -0.320354,0.257817 -0.132117,0.132117 -0.210843,0.239424 -0.257818,0.320354 -0.06292,0.108406 -0.02208,0.23179 0.0637,0.32317 0.151911,0.16181 0.409455,0.434245 0.644985,0.675079 -0.193117,0.182086 -0.400712,0.381338 -0.623328,0.599046 -0.237749,-0.232234 -0.503693,-0.483725 -0.662749,-0.633037 -0.09141,-0.08575 -0.214783,-0.126606 -0.32317,-0.0637 -0.08093,0.04697 -0.188238,0.125701 -0.320354,0.257817 -0.132116,0.132116 -0.210939,0.239521 -0.257914,0.320451 -0.06292,0.108405 -0.02208,0.231789 0.0637,0.32317 0.149311,0.159069 0.400798,0.424981 0.633037,0.662749 -0.217687,0.222637 -0.416939,0.430233 -0.599046,0.623328 -0.240869,-0.235495 -0.513255,-0.493088 -0.675079,-0.644984 -0.09141,-0.08575 -0.214766,-0.126618 -0.32317,-0.0637 -0.08094,0.04697 -0.188238,0.125701 -0.320354,0.257818 z" />
  <path
     style="fill:#606668;fill-opacity:1;stroke-width:0.425197;stroke-linejoin:round;stroke-opacity:0.580986"
     d="m 19.5,40.5 h 9 c 1.5,0 3,1.5 3,3 0.143298,1.520471 -1.5,3 -3,3 h -9 c -1.5,0 -3,-1.5 -3,-3 0,-1.5 1.5,-3 3,-3 z"
     id="path3515"
     sodipodi:nodetypes="ccccccc" />
  <path
     id="path1058-3"
     style="fill:#ffff68;stroke-width:0.318898;stroke-linejoin:round;stroke-opacity:0.580986;fill-opacity:1"
     d="M 20.625,43.5 A 1.125,1.125 0 0 1 19.5,44.625 1.125,1.125 0 0 1 18.375,43.5 1.125,1.125 0 0 1 19.5,42.375 1.125,1.125 0 0 1 20.625,43.5 Z" />
  <path
     id="path3539"
     style="fill:#ffff68;stroke-width:0.318898;stroke-linejoin:round;stroke-opacity:0.580986;fill-opacity:1"
     d="M 23.625,43.5 A 1.125,1.125 0 0 1 22.5,44.625 1.125,1.125 0 0 1 21.375,43.5 1.125,1.125 0 0 1 22.5,42.375 1.125,1.125 0 0 1 23.625,43.5 Z" />
  <path
     id="path3541"
     style="fill:#ffff68;stroke-width:0.318898;stroke-linejoin:round;stroke-opacity:0.580986;fill-opacity:1"
     d="M 26.625,43.5 A 1.125,1.125 0 0 1 25.5,44.625 1.125,1.125 0 0 1 24.375,43.5 1.125,1.125 0 0 1 25.5,42.375 1.125,1.125 0 0 1 26.625,43.5 Z" />
  <path
     id="path3543"
     style="fill:#ffff68;stroke-width:0.318898;stroke-linejoin:round;stroke-opacity:0.580986;fill-opacity:1"
     d="M 29.625,43.5 A 1.125,1.125 0 0 1 28.5,44.625 1.125,1.125 0 0 1 27.375,43.5 1.125,1.125 0 0 1 28.5,42.375 1.125,1.125 0 0 1 29.625,43.5 Z" />
  <path
     id="path40-4"
     style="fill:#a9ff53;fill-opacity:1;stroke:none;stroke-width:0.010151"
     d="m 21.343136,32.011526 c -0.688171,0 -1.334364,0.255127 -1.819633,0.719892 -0.491086,0.469392 -0.761688,1.097265 -0.761688,1.768536 0,0.670428 0.270628,1.299183 0.760993,1.767725 0.485736,0.464692 1.131409,0.720588 1.819284,0.720588 a 2.8007686,2.7998153 0 0 0 0.397368,-0.02819 c 1.105925,-0.157648 1.845697,-0.952876 2.26141,-1.563515 0.414403,0.61065 1.154293,1.405074 2.260714,1.562935 0.131985,0.01964 0.266074,0.02899 0.397135,0.02899 0.687917,0 1.333163,-0.256137 1.819284,-0.72082 0.490822,-0.46854 0.760182,-1.097297 0.760182,-1.767725 0,-0.671271 -0.270044,-1.299144 -0.760877,-1.768537 -0.48526,-0.464104 -1.13141,-0.719891 -1.819285,-0.719891 -0.131153,0 -0.264687,0.0093 -0.396672,0.02819 -1.10633,0.157902 -1.846113,0.952184 -2.260598,1.562935 -0.415741,-0.610751 -1.155454,-1.405267 -2.26141,-1.562935 -0.131537,-0.01882 -0.265054,-0.02819 -0.396207,-0.02819 z m 5.314887,0.88166 c 0.936769,0 1.698461,0.720536 1.698461,1.606768 0,0.886232 -0.76184,1.606884 -1.697766,1.606884 -0.08946,0 -0.181276,-0.0069 -0.272487,-0.01948 -1.041921,-0.149183 -1.679386,-1.175784 -1.895466,-1.587173 0.21609,-0.412242 0.853467,-1.43869 1.895581,-1.587519 0.09036,-0.01311 0.18221,-0.01948 0.271677,-0.01948 z m -5.314887,2.3e-4 c 0.08954,0 0.181667,0.0063 0.271792,0.01995 1.041952,0.14833 1.679737,1.17577 1.89535,1.587172 -0.216203,0.411978 -0.853388,1.437893 -1.89535,1.587056 -0.09119,0.01253 -0.183079,0.01948 -0.272951,0.01948 -0.936323,0 -1.697999,-0.720805 -1.697999,-1.606884 0,-0.886263 0.761983,-1.60677 1.699158,-1.606772 z m 4.985699,0.838291 v 0.52519 h -0.524334 v 0.499217 h 0.524334 v 0.525076 h 0.501028 v -0.525076 h 0.524567 v -0.499217 h -0.524567 v -0.52519 z m -5.6966,0.52519 v 0.499217 h 1.549582 v -0.499217 z" />
</svg>
