<?xml version="1.0" encoding="UTF-8" standalone="no"?>
<svg
   fill="none"
   viewBox="0 0 48 48"
   height="256"
   width="256"
   version="1.1"
   id="svg6"
   sodipodi:docname="beetle_board.svg"
   inkscape:version="1.3.2 (091e20e, 2023-11-25, custom)"
   xmlns:inkscape="http://www.inkscape.org/namespaces/inkscape"
   xmlns:sodipodi="http://sodipodi.sourceforge.net/DTD/sodipodi-0.dtd"
   xmlns="http://www.w3.org/2000/svg"
   xmlns:svg="http://www.w3.org/2000/svg">
  <defs
     id="defs10" />
  <sodipodi:namedview
     id="namedview8"
     pagecolor="#ffffff"
     bordercolor="#666666"
     borderopacity="1.0"
     inkscape:showpageshadow="2"
     inkscape:pageopacity="0.0"
     inkscape:pagecheckerboard="true"
     inkscape:deskcolor="#d1d1d1"
     showgrid="true"
     inkscape:zoom="1.6191406"
     inkscape:cx="167.06393"
     inkscape:cy="168.91677"
     inkscape:current-layer="svg6"
     showguides="false"
     inkscape:window-width="3840"
     inkscape:window-height="1494"
     inkscape:window-x="-11"
     inkscape:window-y="-11"
     inkscape:window-maximized="1">
    <inkscape:grid
       type="xygrid"
       id="grid239"
       units="px"
       spacingx="1.5"
       spacingy="1.5"
       originx="0"
       originy="0"
       visible="true" />
  </sodipodi:namedview>
  <path
     id="rect897"
     style="fill:#77c32f;fill-opacity:1;stroke:none;stroke-width:0.363088;stroke-linejoin:round;stroke-opacity:0.580986"
     d="M 13.5 1.5 C 10.500012 1.5 7.5 4.500012 7.5 7.5 C 7.5 10.499988 10.5 12.000012 10.5 15 L 10.5 33 C 10.5 35.999988 7.5 37.500012 7.5 40.5 C 7.5 43.499988 10.500012 46.5 13.5 46.5 C 16.499988 46.5 16.500012 45 19.5 45 L 28.5 45 C 31.499988 45 31.500012 46.5 34.5 46.5 C 37.499988 46.5 40.5 43.499988 40.5 40.5 C 40.5 37.500012 37.5 35.999988 37.5 33 L 37.5 15 C 37.5 12.000012 40.5 10.499988 40.5 7.5 C 40.5 4.500012 37.499988 1.5 34.5 1.5 C 31.500012 1.5 31.499988 3 28.5 3 L 19.5 3 C 16.500012 3 16.499988 1.5 13.5 1.5 z M 12 4.5 A 1.5 1.5 0 0 1 13.5 6 A 1.5 1.5 0 0 1 12 7.5 A 1.5 1.5 0 0 1 10.5 6 A 1.5 1.5 0 0 1 12 4.5 z M 36 4.5 A 1.5 1.5 0 0 1 37.5 6 A 1.5 1.5 0 0 1 36 7.5 A 1.5 1.5 0 0 1 34.5 6 A 1.5 1.5 0 0 1 36 4.5 z M 12 40.5 A 1.5 1.5 0 0 1 13.5 42 A 1.5 1.5 0 0 1 12 43.5 A 1.5 1.5 0 0 1 10.5 42 A 1.5 1.5 0 0 1 12 40.5 z M 36 40.5 A 1.5 1.5 0 0 1 37.5 42 A 1.5 1.5 0 0 1 36 43.5 A 1.5 1.5 0 0 1 34.5 42 A 1.5 1.5 0 0 1 36 40.5 z " />
  <path
     id="path2-4"
     style="fill:#606668;fill-opacity:1;stroke-width:0.246037"
     d="m 20.018428,25.238494 c -0.09909,0.09909 -0.158131,0.179568 -0.193363,0.240265 -0.04717,0.0813 -0.01656,0.173841 0.04778,0.242378 0.120176,0.128025 0.328779,0.348625 0.512869,0.536025 -0.03976,0.04517 -0.07819,0.08908 -0.113686,0.130147 -0.309384,0.357899 -0.309384,0.867536 0,1.225433 0.03547,0.04109 0.07387,0.08489 0.113613,0.130075 -0.184099,0.187388 -0.392619,0.408073 -0.512795,0.536099 -0.06431,0.06856 -0.09503,0.161011 -0.04785,0.242304 0.03523,0.0607 0.09442,0.141177 0.19351,0.240264 0.09909,0.09909 0.179493,0.158205 0.240192,0.193437 0.08131,0.04719 0.173841,0.01656 0.242377,-0.04778 0.121349,-0.113924 0.325694,-0.3071 0.506309,-0.483738 0.136544,0.144816 0.28596,0.300489 0.449212,0.467424 -0.174175,0.178311 -0.362724,0.377838 -0.474703,0.497136 -0.06431,0.06856 -0.09495,0.161086 -0.04777,0.242377 0.03523,0.0607 0.09435,0.141104 0.193437,0.240191 0.09909,0.09909 0.179565,0.158278 0.240264,0.19351 0.08131,0.04719 0.173769,0.01648 0.242304,-0.04785 0.119297,-0.111978 0.318814,-0.300538 0.497137,-0.474703 0.166941,0.163228 0.322627,0.312657 0.467424,0.449211 -0.176613,0.180642 -0.369746,0.385029 -0.48366,0.506389 -0.06431,0.06856 -0.09496,0.161075 -0.04778,0.242378 0.03523,0.0607 0.09435,0.141103 0.193437,0.24019 0.09909,0.09909 0.179495,0.158207 0.240192,0.193437 0.08129,0.04718 0.173841,0.01656 0.242378,-0.04778 0.128025,-0.120177 0.348625,-0.328781 0.536024,-0.51287 0.04517,0.03976 0.08909,0.07819 0.130148,0.113686 0.357897,0.309383 0.867535,0.309386 1.225433,0 0.04136,-0.03574 0.08555,-0.07442 0.131096,-0.114486 0.05838,0.06018 0.116092,0.11885 0.169553,0.172311 0.161261,0.161262 0.289245,0.279593 0.371069,0.352858 0.06468,0.05789 0.150492,0.08447 0.226354,0.04224 0.06179,-0.03439 0.145787,-0.09451 0.25068,-0.199408 0.104895,-0.104893 0.165012,-0.188886 0.199408,-0.25068 0.04221,-0.07585 0.01567,-0.161688 -0.04224,-0.226355 -0.07331,-0.08179 -0.191597,-0.209808 -0.352858,-0.371069 -0.04455,-0.04455 -0.09298,-0.09218 -0.142642,-0.140521 0.144919,-0.136646 0.300706,-0.286185 0.467787,-0.449575 0.04526,0.04632 0.08976,0.09167 0.131523,0.133431 0.161261,0.161262 0.289192,0.279646 0.370995,0.352932 0.06468,0.05789 0.150583,0.08438 0.226428,0.04217 0.0618,-0.03439 0.145713,-0.09444 0.250607,-0.199334 0.104894,-0.104894 0.165011,-0.188887 0.199408,-0.25068 0.04223,-0.07586 0.01575,-0.161774 -0.04216,-0.226429 -0.07331,-0.08179 -0.191671,-0.209733 -0.352932,-0.370995 -0.04177,-0.04176 -0.08709,-0.08629 -0.133433,-0.131522 0.163434,-0.167039 0.312914,-0.322885 0.449577,-0.467788 0.04842,0.04958 0.09602,0.09804 0.140574,0.14259 0.161261,0.161261 0.289245,0.279592 0.371069,0.352857 0.06468,0.05789 0.150507,0.08445 0.226356,0.04224 0.06179,-0.03439 0.145785,-0.09451 0.25068,-0.199407 0.104893,-0.104894 0.16501,-0.188886 0.199407,-0.25068 0.04223,-0.07586 0.01568,-0.161702 -0.04224,-0.226355 -0.0733,-0.08179 -0.191597,-0.209809 -0.352858,-0.37107 -0.05346,-0.05346 -0.112169,-0.111134 -0.172311,-0.169552 0.04004,-0.04556 0.07874,-0.08974 0.114486,-0.131097 0.309382,-0.357896 0.309383,-0.867536 0,-1.225432 -0.03574,-0.04136 -0.07443,-0.08555 -0.114486,-0.131096 0.06018,-0.05838 0.11885,-0.116092 0.172311,-0.169553 0.161261,-0.161261 0.279592,-0.289245 0.352858,-0.37107 0.05789,-0.06468 0.08447,-0.150492 0.04224,-0.226354 -0.03439,-0.06179 -0.09451,-0.145787 -0.199408,-0.25068 -0.104894,-0.104895 -0.188887,-0.165012 -0.25068,-0.199408 -0.07585,-0.04221 -0.161762,-0.01574 -0.226427,0.04217 -0.08179,0.0733 -0.209735,0.191671 -0.370996,0.352933 -0.04455,0.04455 -0.09218,0.09298 -0.140573,0.142588 -0.13664,-0.144913 -0.286188,-0.300719 -0.449576,-0.467787 0.04632,-0.04526 0.09167,-0.08976 0.133432,-0.131523 0.161261,-0.161261 0.279646,-0.289192 0.352932,-0.370995 0.05789,-0.06468 0.08438,-0.150583 0.04217,-0.226428 -0.03439,-0.0618 -0.09451,-0.145786 -0.199409,-0.25068 -0.104892,-0.104893 -0.188885,-0.165011 -0.25068,-0.199408 -0.07586,-0.04222 -0.1617,-0.01567 -0.226354,0.04224 -0.08179,0.07331 -0.209808,0.191596 -0.371069,0.352857 -0.04176,0.04177 -0.08629,0.08709 -0.131523,0.133432 -0.167046,-0.163333 -0.322844,-0.312874 -0.467714,-0.449503 0.04964,-0.04837 0.09804,-0.09602 0.142588,-0.140573 0.161261,-0.161261 0.279593,-0.289246 0.352859,-0.37107 0.05789,-0.06468 0.08446,-0.150502 0.04224,-0.226354 -0.03439,-0.06179 -0.09451,-0.145787 -0.199408,-0.25068 -0.104894,-0.104894 -0.188887,-0.165011 -0.25068,-0.199408 -0.07586,-0.04223 -0.161775,-0.01575 -0.226427,0.04217 -0.08179,0.0733 -0.209735,0.191671 -0.370996,0.352932 -0.05346,0.05346 -0.111135,0.11217 -0.169553,0.172311 -0.04558,-0.04007 -0.08972,-0.07872 -0.131096,-0.114486 -0.3579,-0.309385 -0.867537,-0.309382 -1.225433,0 -0.04109,0.03547 -0.08496,0.07393 -0.130148,0.113686 -0.187389,-0.184101 -0.407999,-0.392694 -0.53603,-0.512866 -0.06856,-0.06431 -0.161086,-0.09495 -0.242377,-0.04778 -0.06071,0.03523 -0.141178,0.09428 -0.240265,0.193363 -0.09909,0.09909 -0.158132,0.179568 -0.193364,0.240266 -0.04719,0.0813 -0.01656,0.173842 0.04777,0.242377 0.113934,0.121358 0.307092,0.325684 0.483739,0.506309 -0.144838,0.136565 -0.300534,0.286004 -0.467496,0.449285 -0.178312,-0.174176 -0.37777,-0.362794 -0.497062,-0.474778 -0.06856,-0.06431 -0.161087,-0.09495 -0.242377,-0.04778 -0.0607,0.03523 -0.141179,0.09428 -0.240266,0.193363 -0.09909,0.09909 -0.158204,0.179641 -0.193435,0.240338 -0.04719,0.0813 -0.01656,0.173842 0.04777,0.242378 0.111983,0.119301 0.300598,0.318735 0.474778,0.497061 -0.163266,0.166978 -0.312705,0.322675 -0.449285,0.467496 -0.180652,-0.176621 -0.384941,-0.369816 -0.506309,-0.483738 -0.06856,-0.06431 -0.161075,-0.09496 -0.242378,-0.04778 -0.0607,0.03523 -0.141178,0.09428 -0.240265,0.193364 z" />
  <g
     id="g683"
     transform="rotate(-90,28.5,18)">
    <path
       style="fill:#606668;fill-opacity:1;stroke-width:0.425197;stroke-linejoin:round;stroke-opacity:0.580986"
       d="M 24.75,7.5 H 12 C 10.5,7.5 9,6 9,4.5 9,3 10.5,1.5 12,1.5 h 12.75 c 1.5,0 3,1.5 3,3 0,1.5 -1.5,3 -3,3 z"
       id="path623"
       sodipodi:nodetypes="ccccccc" />
    <path
       id="path627"
       style="fill:#ffff68;fill-opacity:1;stroke-width:0.318898;stroke-linejoin:round;stroke-opacity:0.580986"
       d="m 22.875,4.5 c 0,-0.62132 0.50368,-1.125 1.125,-1.125 0.62132,0 1.125,0.50368 1.125,1.125 0,0.62132 -0.50368,1.125 -1.125,1.125 -0.62132,0 -1.125,-0.50368 -1.125,-1.125 z"
       sodipodi:nodetypes="sssss" />
    <path
       id="path629"
       style="fill:#ffff68;fill-opacity:1;stroke-width:0.318898;stroke-linejoin:round;stroke-opacity:0.580986"
       d="m 19.875,4.5 c 0,-0.62132 0.50368,-1.125 1.125,-1.125 0.62132,0 1.125,0.50368 1.125,1.125 0,0.62132 -0.50368,1.125 -1.125,1.125 -0.62132,0 -1.125,-0.50368 -1.125,-1.125 z"
       sodipodi:nodetypes="sssss" />
    <path
       id="path631"
       style="fill:#ffff68;fill-opacity:1;stroke-width:0.318898;stroke-linejoin:round;stroke-opacity:0.580986"
       d="m 16.875,4.5 c 0,-0.62132 0.50368,-1.125 1.125,-1.125 0.62132,0 1.125,0.50368 1.125,1.125 0,0.62132 -0.50368,1.125 -1.125,1.125 -0.62132,0 -1.125,-0.50368 -1.125,-1.125 z"
       sodipodi:nodetypes="sssss" />
    <path
       id="path639"
       style="fill:#ffff68;fill-opacity:1;stroke-width:0.318898;stroke-linejoin:round;stroke-opacity:0.580986"
       d="m 13.875,4.5 c 0,-0.62132 0.50368,-1.125 1.125,-1.125 0.62132,0 1.125,0.50368 1.125,1.125 0,0.62132 -0.50368,1.125 -1.125,1.125 -0.62132,0 -1.125,-0.50368 -1.125,-1.125 z"
       sodipodi:nodetypes="sssss" />
    <path
       id="path641"
       style="fill:#ffff68;fill-opacity:1;stroke-width:0.318898;stroke-linejoin:round;stroke-opacity:0.580986"
       d="m 10.875,4.5 c 0,-0.62132 0.50368,-1.125 1.125,-1.125 0.62132,0 1.125,0.50368 1.125,1.125 0,0.62132 -0.50368,1.125 -1.125,1.125 -0.62132,0 -1.125,-0.50368 -1.125,-1.125 z"
       sodipodi:nodetypes="sssss" />
  </g>
  <path
     id="path1058-4"
     style="fill:#ffff68;fill-opacity:1;stroke-width:0.425198;stroke-linejoin:round;stroke-opacity:0.580986"
     d="M 12 3 A 3 3 0 0 0 9 6 A 3 3 0 0 0 12 9 A 3 3 0 0 0 15 6 A 3 3 0 0 0 12 3 z M 12 4.5 A 1.5 1.5 0 0 1 13.5 6 A 1.5 1.5 0 0 1 12 7.5 A 1.5 1.5 0 0 1 10.5 6 A 1.5 1.5 0 0 1 12 4.5 z " />
  <g
     id="g3"
     transform="matrix(0.75,0,0,0.75,6.6607684,0.65545841)"
     style="stroke-width:1.33333">
    <path
       style="fill:#606668;fill-opacity:1;stroke-width:0.566929;stroke-linejoin:round;stroke-opacity:0.580986"
       d="m 18.618969,-0.87394454 h 9.00001 c 1.5,0 3,1.5 3,3.00000004 v 7.5 c 0,1.4999995 -1.5,2.9999995 -3,2.9999995 h -9.00001 c -1.5,0 -2.999997,-1.5 -2.999997,-2.9999995 v -7.5 c 0,-1.50000004 1.499997,-3.00000004 2.999997,-3.00000004 z"
       id="path450"
       sodipodi:nodetypes="ccccccccc" />
    <path
       id="path1058"
       style="fill:#ffff68;fill-opacity:1;stroke-width:0.566929;stroke-linejoin:round;stroke-opacity:0.580986"
       d="m 21.618979,2.1260555 a 1.5,1.5 0 0 1 -1.50001,1.5 1.5,1.5 0 0 1 -1.5,-1.5 1.5,1.5 0 0 1 1.5,-1.50000004 1.5,1.5 0 0 1 1.50001,1.50000004 z" />
    <path
       id="path1061"
       style="fill:#ffff68;fill-opacity:1;stroke-width:0.566929;stroke-linejoin:round;stroke-opacity:0.580986"
       d="m 27.618979,2.1260555 a 1.5,1.5 0 0 1 -1.5,1.5 1.5,1.5 0 0 1 -1.5,-1.5 1.5,1.5 0 0 1 1.5,-1.50000004 1.5,1.5 0 0 1 1.5,1.50000004 z" />
  </g>
  <path
     style="fill:#ffffff;fill-opacity:1;stroke-width:0.708661"
     d="m 20.517751,42.938936 c 0.170853,-0.271645 0.505906,-0.686064 0.918124,-1.135581 l 0.107129,-0.116822 -0.05669,-0.06096 c -0.03118,-0.03352 -0.115601,-0.124094 -0.187625,-0.2012 -0.17905,-0.19172 -0.243081,-0.269839 -0.397106,-0.484523 -0.02697,-0.0376 -0.05486,-0.07055 -0.06191,-0.07333 -0.03234,-0.0125 -0.489729,0.242747 -0.756692,0.422101 -0.201088,0.135102 -0.459903,0.333005 -0.604401,0.462169 -0.136993,0.122447 -0.391635,0.370043 -0.508469,0.494392 -0.182611,0.194359 -0.498138,0.595292 -0.586189,0.744857 -0.0046,0.0076 0.206504,0.0098 1.044909,0.0097 l 1.050685,-3e-5 z m 3.208603,0.0452 c 1.840372,-0.01482 2.332947,-0.02507 2.361567,-0.0488 0.02554,-0.02117 -0.02364,-0.149518 -0.167373,-0.436803 -0.142922,-0.28567 -0.208606,-0.39386 -0.239129,-0.39386 -0.0083,0 -0.109996,0.04036 -0.226088,0.08965 -0.312645,0.132817 -0.472649,0.189137 -0.680719,0.23963 -0.229507,0.05575 -0.374515,0.07427 -0.689016,0.08822 -0.511538,0.0227 -0.920989,-0.02727 -1.328979,-0.16207 -0.175463,-0.05803 -0.269598,-0.100233 -0.622645,-0.279376 -0.16978,-0.08613 -0.316531,-0.15665 -0.326112,-0.15665 -0.01225,0 -0.03747,0.02289 -0.0845,0.07656 -0.167684,0.19135 -0.482958,0.580336 -0.647556,0.798952 -0.123237,0.163695 -0.130995,0.17511 -0.125204,0.184475 0.0063,0.0105 1.498513,0.0105 2.775759,5.6e-5 z m 0.396533,-0.754106 c 0.247007,-0.0086 0.380185,-0.02507 0.549653,-0.06658 0.502774,-0.123147 0.985644,-0.360467 1.336361,-0.656775 0.178174,-0.150524 0.382186,-0.36984 0.510227,-0.548475 0.209628,-0.29248 0.373601,-0.673802 0.449752,-1.045904 0.01638,-0.08006 0.02875,-0.179032 0.02239,-0.179032 -0.0022,0 -0.05611,0.02298 -0.120104,0.05119 -0.222361,0.09779 -0.4436,0.165188 -0.608544,0.185367 -0.112092,0.01378 -0.424789,0.01387 -0.51039,1.24e-4 -0.175685,-0.0281 -0.381777,-0.09248 -0.54974,-0.172009 -0.27444,-0.129881 -0.547457,-0.359499 -0.696769,-0.585996 -0.0851,-0.129104 -0.211713,-0.415037 -0.262011,-0.591723 -0.01384,-0.0486 -0.02789,-0.08832 -0.0312,-0.08832 -0.0031,0 -0.03866,0.05917 -0.07852,0.131517 -0.03986,0.07238 -0.08673,0.154495 -0.104139,0.182567 -0.190475,0.306831 -0.501682,0.564828 -0.876656,0.726768 -0.110391,0.04767 -0.311862,0.112335 -0.379839,0.121921 -0.03858,0.0056 -0.191151,0.0096 -0.38574,0.01 -0.400598,9.51e-4 -0.455854,-0.0055 -0.667431,-0.08479 -0.154468,-0.05755 -0.429861,-0.198956 -0.520296,-0.267123 -0.02477,-0.01871 -0.09988,-0.08111 -0.16687,-0.138729 -0.122089,-0.104979 -0.157527,-0.132229 -0.171997,-0.132229 -0.0187,0 -0.02589,0.06848 -0.02968,0.282681 -0.0046,0.255625 0.0088,0.412615 0.05273,0.620318 0.117796,0.55724 0.423029,1.069113 0.875118,1.467558 0.152825,0.134695 0.35695,0.279355 0.542928,0.384771 0.266523,0.151065 0.735927,0.312576 1.074736,0.369793 0.186185,0.03143 0.365076,0.03703 0.746106,0.02335 z m -0.178002,-0.808118 c -0.151581,-0.02792 -0.299739,-0.112139 -0.455425,-0.258812 -0.208711,-0.196614 -0.345568,-0.439026 -0.357602,-0.633424 -0.0068,-0.106755 0.0215,-0.171655 0.08948,-0.206507 0.03061,-0.01566 0.05573,-0.0097 0.197048,0.04727 0.409688,0.165004 0.544002,0.212916 0.710417,0.253411 0.157299,0.03828 0.221177,0.04693 0.351356,0.04727 0.133729,4.77e-4 0.160813,-0.0057 0.302306,-0.07207 0.07736,-0.0361 0.10206,-0.04406 0.138002,-0.04466 0.03632,-4.74e-4 0.04867,0.0038 0.07238,0.02117 0.06675,0.05089 0.05292,0.131877 -0.05121,0.299821 -0.157379,0.253846 -0.429335,0.48815 -0.620467,0.53457 -0.05752,0.01395 -0.320001,0.02222 -0.376294,0.01192 z m 2.282969,-1.86167 c 0.239959,-0.02289 0.439239,-0.09022 0.642896,-0.217344 0.283987,-0.17722 0.504905,-0.45441 0.619776,-0.777632 0.05123,-0.14416 0.07248,-0.36889 0.05224,-0.552329 -0.0373,-0.337733 -0.19066,-0.640518 -0.435794,-0.860387 -0.174139,-0.156182 -0.388671,-0.266666 -0.620582,-0.319593 -0.119994,-0.02744 -0.214736,-0.03638 -0.382164,-0.03618 -0.264196,2.39e-4 -0.425897,0.03696 -0.643884,0.145938 -0.171756,0.08595 -0.271124,0.157255 -0.397815,0.285662 -0.408475,0.41402 -0.523433,0.966113 -0.310048,1.48904 0.0815,0.199745 0.187968,0.343528 0.371095,0.501191 0.220378,0.189735 0.447156,0.290162 0.777833,0.344467 0.04119,0.0067 0.244376,0.0047 0.326464,-0.0027 z m -0.307128,-0.996959 c -0.148453,-0.02688 -0.272657,-0.147429 -0.31321,-0.303934 -0.0163,-0.06287 -0.0176,-0.23363 -0.0019,-0.227543 0.0057,0.0027 0.03513,0.01986 0.0651,0.03905 0.128275,0.08224 0.239237,0.131557 0.295046,0.131183 0.03568,-2.37e-4 0.08819,-0.02564 0.116809,-0.05642 0.05352,-0.05766 0.07863,-0.128783 0.102764,-0.290838 0.01438,-0.09677 0.0194,-0.115826 0.0305,-0.115826 0.03035,0 0.166054,0.168178 0.199594,0.247342 0.06862,0.161989 0.03642,0.326443 -0.09171,0.468476 -0.0372,0.04123 -0.117977,0.09032 -0.165632,0.100674 -0.05608,0.01225 -0.189463,0.01661 -0.237511,0.0076 z m -3.438797,0.745655 c 0.145018,-0.0096 0.222354,-0.02573 0.38069,-0.07987 0.253941,-0.0868 0.415797,-0.190429 0.602032,-0.385475 0.137941,-0.144462 0.213699,-0.260001 0.27724,-0.422832 0.07121,-0.18246 0.09724,-0.320678 0.09513,-0.505236 -0.0017,-0.127791 -0.01554,-0.226716 -0.04834,-0.339366 -0.112603,-0.386545 -0.448555,-0.738551 -0.837897,-0.877935 -0.245508,-0.08795 -0.551102,-0.119387 -0.798767,-0.08235 -0.50636,0.07579 -0.944592,0.396013 -1.144516,0.836349 -0.08263,0.181948 -0.117162,0.343715 -0.116604,0.545891 4.53e-4,0.166069 0.02605,0.293203 0.09223,0.457953 0.08561,0.213144 0.177087,0.34099 0.3601,0.503355 0.18932,0.167969 0.385408,0.263916 0.683133,0.334267 0.08057,0.01898 0.111318,0.0223 0.212143,0.02289 0.06485,2.39e-4 0.174388,-0.0037 0.243417,-0.0076 z m -0.341704,-0.928345 c -0.06122,-0.0225 -0.09274,-0.03837 -0.146477,-0.07379 -0.07032,-0.04635 -0.13354,-0.163607 -0.167544,-0.310731 -0.01897,-0.08216 -0.01866,-0.11839 10e-4,-0.122128 0.0071,-0.002 0.0619,0.01681 0.121704,0.04045 0.129868,0.05128 0.184938,0.06363 0.253943,0.05697 0.169938,-0.01625 0.233802,-0.07644 0.292277,-0.27553 0.01277,-0.04331 0.02502,-0.0849 0.02734,-0.09248 0.0066,-0.02138 0.01998,-0.01653 0.05465,0.01966 0.04264,0.04445 0.0917,0.119012 0.126979,0.192842 0.02686,0.05631 0.02872,0.06495 0.02734,0.12713 -0.0038,0.168663 -0.07269,0.300069 -0.201444,0.383955 -0.07685,0.05005 -0.124092,0.06352 -0.239372,0.06829 -0.09111,0.0038 -0.103803,0.002 -0.150536,-0.01473 z m 6.261098,-0.689672 c 0.09219,-0.02125 0.15297,-0.05043 0.218538,-0.104591 0.0622,-0.05138 0.103656,-0.104359 0.144926,-0.185084 l 0.0301,-0.05888 v -0.125634 -0.125638 l -0.02958,-0.05766 c -0.07039,-0.137129 -0.185213,-0.238629 -0.325361,-0.287595 -0.05567,-0.01947 -0.203189,-0.03564 -0.324972,-0.03564 -0.06936,0 -0.06847,4.76e-4 -0.13472,-0.08244 -0.07727,-0.09679 -0.3632,-0.372337 -0.461336,-0.444589 -0.420044,-0.309271 -0.852926,-0.405889 -1.232784,-0.275167 -0.271995,0.09363 -0.606663,0.313964 -0.917748,0.604278 -0.04913,0.04587 -0.08593,0.08451 -0.08171,0.08595 0.0043,9.5e-4 0.100947,-0.04446 0.214984,-0.101881 0.211057,-0.106314 0.360029,-0.170088 0.483843,-0.207143 0.06344,-0.01898 0.08363,-0.02098 0.250671,-0.02458 0.280581,-0.0055 0.53536,0.01634 0.660581,0.0583 0.07484,0.02498 0.20193,0.08736 0.264889,0.130019 0.178324,0.120748 0.389075,0.319641 0.548051,0.517238 l 0.02908,0.03609 1.22e-4,0.128743 c 2.37e-4,0.202804 0.01634,0.253459 0.114373,0.359346 0.08431,0.09108 0.175223,0.151656 0.272735,0.181777 0.116748,0.03598 0.170501,0.03891 0.275282,0.01473 z m -4.029078,-0.202457 c 0.101923,-0.193525 0.181338,-0.308501 0.338751,-0.490534 0.135484,-0.156677 0.156334,-0.185006 0.145652,-0.197883 -0.0096,-0.01158 -0.08771,-0.02982 -0.180187,-0.04228 -0.120736,-0.01634 -0.826027,-0.04396 -0.845309,-0.03324 -0.0089,0.0047 -0.0069,0.01167 0.01069,0.03477 0.01203,0.01567 0.04855,0.06335 0.0812,0.105874 0.07121,0.0928 0.131676,0.189219 0.199594,0.318425 0.05877,0.111814 0.09373,0.199392 0.133916,0.335482 0.01591,0.05394 0.03072,0.101 0.03288,0.104591 0.0048,0.0086 0.02163,-0.01927 0.08273,-0.135243 z m -0.755823,-0.92605 c 0,-0.02793 -0.100348,-0.232775 -0.21421,-0.437145 -0.338744,-0.608086 -0.654194,-1.051621 -1.007487,-1.416545 -0.337448,-0.348566 -0.652648,-0.542851 -0.976929,-0.602159 -0.08962,-0.01641 -0.272929,-0.01861 -0.341534,-0.0047 -0.178567,0.03778 -0.350032,0.120956 -0.488542,0.23699 -0.06617,0.05547 -0.111189,0.101913 -0.223713,0.231038 -0.08356,0.0959 -0.119556,0.129198 -0.228342,0.211217 -0.115837,0.08736 -0.18925,0.187095 -0.219304,0.297958 -0.03242,0.119668 -0.0024,0.271989 0.07359,0.37292 0.114016,0.151503 0.254857,0.225977 0.44409,0.234865 0.100601,0.0047 0.162685,-0.0047 0.237835,-0.03504 0.100894,-0.04111 0.182807,-0.11104 0.24173,-0.206413 0.04177,-0.06762 0.05699,-0.115729 0.06209,-0.196298 0.0082,-0.128648 -0.02505,-0.219145 -0.124846,-0.34058 -0.09563,-0.116362 -0.124004,-0.154893 -0.124004,-0.168387 0,-0.01785 0.08757,-0.09981 0.153545,-0.143781 0.101378,-0.06762 0.212991,-0.103215 0.352917,-0.112649 0.135996,-0.0096 0.229848,0.01634 0.385388,0.104758 0.163916,0.09326 0.285572,0.189082 0.454788,0.358418 0.276342,0.276516 0.518884,0.61272 0.875569,1.213694 0.07819,0.131745 0.08355,0.1387 0.117492,0.152441 0.0723,0.02936 0.313526,0.145955 0.412467,0.19949 0.09331,0.05052 0.137411,0.06629 0.137411,0.0493 z"
     id="path9"
     sodipodi:nodetypes="sscssssssssccsssssssssssssssssssssssscssssssssssssssssssssssssssssssssssssssssssssssscssssssssssccssssssssscssssssssssssssscsssscsscccssssssssssssssccssccsssssssssssssssssssssssssssssssssss" />
  <path
     id="path2"
     style="fill:#ffff68;fill-opacity:1;stroke-width:0.425198;stroke-linejoin:round;stroke-opacity:0.580986"
     d="m 36,3 a 3,3 0 0 0 -3,3 3,3 0 0 0 3,3 3,3 0 0 0 3,-3 3,3 0 0 0 -3,-3 z m 0,1.5 A 1.5,1.5 0 0 1 37.5,6 1.5,1.5 0 0 1 36,7.5 1.5,1.5 0 0 1 34.5,6 1.5,1.5 0 0 1 36,4.5 Z" />
  <path
     id="path1058-4-7"
     style="fill:#ffff68;fill-opacity:1;stroke-width:0.425198;stroke-linejoin:round;stroke-opacity:0.580986"
     d="m 12,39 a 3,3 0 0 0 -3,3 3,3 0 0 0 3,3 3,3 0 0 0 3,-3 3,3 0 0 0 -3,-3 z m 0,1.5 A 1.5,1.5 0 0 1 13.5,42 1.5,1.5 0 0 1 12,43.5 1.5,1.5 0 0 1 10.5,42 1.5,1.5 0 0 1 12,40.5 Z" />
  <path
     id="path2-5"
     style="fill:#ffff68;fill-opacity:1;stroke-width:0.425198;stroke-linejoin:round;stroke-opacity:0.580986"
     d="m 36,39 a 3,3 0 0 0 -3,3 3,3 0 0 0 3,3 3,3 0 0 0 3,-3 3,3 0 0 0 -3,-3 z m 0,1.5 A 1.5,1.5 0 0 1 37.5,42 1.5,1.5 0 0 1 36,43.5 1.5,1.5 0 0 1 34.5,42 1.5,1.5 0 0 1 36,40.5 Z" />
  <g
     id="g8"
     transform="rotate(-90,37.5,9)">
    <path
       style="fill:#606668;fill-opacity:1;stroke-width:0.425197;stroke-linejoin:round;stroke-opacity:0.580986"
       d="M 24.75,7.5 H 12 C 10.5,7.5 9,6 9,4.5 9,3 10.5,1.5 12,1.5 h 12.75 c 1.5,0 3,1.5 3,3 0,1.5 -1.5,3 -3,3 z"
       id="path3"
       sodipodi:nodetypes="ccccccc" />
    <path
       id="path4"
       style="fill:#ffff68;fill-opacity:1;stroke-width:0.318898;stroke-linejoin:round;stroke-opacity:0.580986"
       d="m 22.875,4.5 c 0,-0.62132 0.50368,-1.125 1.125,-1.125 0.62132,0 1.125,0.50368 1.125,1.125 0,0.62132 -0.50368,1.125 -1.125,1.125 -0.62132,0 -1.125,-0.50368 -1.125,-1.125 z"
       sodipodi:nodetypes="sssss" />
    <path
       id="path5"
       style="fill:#ffff68;fill-opacity:1;stroke-width:0.318898;stroke-linejoin:round;stroke-opacity:0.580986"
       d="m 19.875,4.5 c 0,-0.62132 0.50368,-1.125 1.125,-1.125 0.62132,0 1.125,0.50368 1.125,1.125 0,0.62132 -0.50368,1.125 -1.125,1.125 -0.62132,0 -1.125,-0.50368 -1.125,-1.125 z"
       sodipodi:nodetypes="sssss" />
    <path
       id="path6"
       style="fill:#ffff68;fill-opacity:1;stroke-width:0.318898;stroke-linejoin:round;stroke-opacity:0.580986"
       d="m 16.875,4.5 c 0,-0.62132 0.50368,-1.125 1.125,-1.125 0.62132,0 1.125,0.50368 1.125,1.125 0,0.62132 -0.50368,1.125 -1.125,1.125 -0.62132,0 -1.125,-0.50368 -1.125,-1.125 z"
       sodipodi:nodetypes="sssss" />
    <path
       id="path7"
       style="fill:#ffff68;fill-opacity:1;stroke-width:0.318898;stroke-linejoin:round;stroke-opacity:0.580986"
       d="m 13.875,4.5 c 0,-0.62132 0.50368,-1.125 1.125,-1.125 0.62132,0 1.125,0.50368 1.125,1.125 0,0.62132 -0.50368,1.125 -1.125,1.125 -0.62132,0 -1.125,-0.50368 -1.125,-1.125 z"
       sodipodi:nodetypes="sssss" />
    <path
       id="path8"
       style="fill:#ffff68;fill-opacity:1;stroke-width:0.318898;stroke-linejoin:round;stroke-opacity:0.580986"
       d="m 10.875,4.5 c 0,-0.62132 0.50368,-1.125 1.125,-1.125 0.62132,0 1.125,0.50368 1.125,1.125 0,0.62132 -0.50368,1.125 -1.125,1.125 -0.62132,0 -1.125,-0.50368 -1.125,-1.125 z"
       sodipodi:nodetypes="sssss" />
  </g>
</svg>
