<?xml version="1.0" encoding="UTF-8" standalone="no"?>
<svg
   fill="none"
   viewBox="0 0 48 48"
   height="256"
   width="256"
   version="1.1"
   id="svg6"
   sodipodi:docname="blue_pill.svg"
   inkscape:version="1.2.1 (9c6d41e410, 2022-07-14)"
   xmlns:inkscape="http://www.inkscape.org/namespaces/inkscape"
   xmlns:sodipodi="http://sodipodi.sourceforge.net/DTD/sodipodi-0.dtd"
   xmlns="http://www.w3.org/2000/svg"
   xmlns:svg="http://www.w3.org/2000/svg">
  <defs
     id="defs10" />
  <sodipodi:namedview
     id="namedview8"
     pagecolor="#ffffff"
     bordercolor="#666666"
     borderopacity="1.0"
     inkscape:showpageshadow="2"
     inkscape:pageopacity="0.0"
     inkscape:pagecheckerboard="true"
     inkscape:deskcolor="#d1d1d1"
     showgrid="true"
     inkscape:zoom="2.2898106"
     inkscape:cx="73.150155"
     inkscape:cy="124.02773"
     inkscape:current-layer="svg6"
     showguides="false"
     inkscape:window-width="2560"
     inkscape:window-height="1334"
     inkscape:window-x="-11"
     inkscape:window-y="-11"
     inkscape:window-maximized="1">
    <inkscape:grid
       type="xygrid"
       id="grid239"
       units="px"
       spacingx="1.5"
       spacingy="1.5" />
  </sodipodi:namedview>
  <path
     id="rect897"
     style="fill:#6091d0;fill-opacity:1;stroke:none;stroke-width:0.363088;stroke-linejoin:round;stroke-opacity:0.580986"
     d="m 27.045776,2.295961 c 5.120294,0.2698197 9.013548,4.1634678 9.283448,9.283814 0.167099,3.171297 0.295898,7.281215 0.295898,12.42041 0,5.139095 -0.128799,9.24948 -0.295898,12.420776 -0.2698,5.120295 -4.163154,9.013648 -9.283448,9.283448 l -6.091186,0 c -5.120325,-0.2698 -9.014004,-4.163153 -9.283814,-9.283448 -0.167109,-3.171296 -0.295532,-7.281581 -0.295532,-12.420776 0,-5.139195 0.128423,-9.249113 0.295532,-12.42041 0.26981,-5.1203362 4.163479,-9.0140043 9.283814,-9.283814 z"
     sodipodi:nodetypes="ccssccssscc" />
  <g
     id="g29117">
    <path
       style="fill:#606668;fill-opacity:1;stroke-width:0.425197;stroke-linejoin:round;stroke-opacity:0.580986"
       d="m 19.5,1.5 h 9 c 1.5,0 3,1.5 3,3 V 12 c 0,1.5 -1.5,3 -3,3 h -9 c -1.5,0 -3,-1.5 -3,-3 V 4.5 c 0,-1.5 1.5,-3 3,-3 z"
       id="path450"
       sodipodi:nodetypes="ccccccccc" />
    <path
       id="path1058"
       style="fill:#ffff68;stroke-width:0.425197;stroke-linejoin:round;stroke-opacity:0.580986;fill-opacity:1"
       d="M 22.5,4.5 A 1.5,1.5 0 0 1 21,6 1.5,1.5 0 0 1 19.5,4.5 1.5,1.5 0 0 1 21,3 1.5,1.5 0 0 1 22.5,4.5 Z" />
    <path
       id="path1061"
       style="fill:#ffff68;stroke-width:0.425197;stroke-linejoin:round;stroke-opacity:0.580986;fill-opacity:1"
       d="M 28.5,4.5 A 1.5,1.5 0 0 1 27,6 1.5,1.5 0 0 1 25.5,4.5 1.5,1.5 0 0 1 27,3 1.5,1.5 0 0 1 28.5,4.5 Z" />
  </g>
  <path
     id="path2-4"
     style="fill:#606668;fill-opacity:1;stroke-width:0.246037"
     d="m 18.693799,23.694655 c -0.132116,0.132116 -0.210842,0.239423 -0.257817,0.320353 -0.0629,0.108396 -0.02208,0.231788 0.0637,0.323171 0.160235,0.1707 0.438373,0.464833 0.683826,0.714699 -0.05302,0.06023 -0.104255,0.118779 -0.151581,0.17353 -0.412512,0.477198 -0.412513,1.156714 0,1.63391 0.04729,0.05479 0.09849,0.113186 0.151484,0.173434 -0.245466,0.24985 -0.523492,0.544097 -0.683727,0.714798 -0.08575,0.09141 -0.126705,0.214682 -0.0638,0.323072 0.04697,0.08093 0.125897,0.188236 0.258014,0.320352 0.132116,0.132116 0.239324,0.210941 0.320255,0.257917 0.108412,0.06292 0.231789,0.02208 0.32317,-0.0637 0.161799,-0.151899 0.434258,-0.409467 0.675079,-0.644985 0.182058,0.193089 0.381279,0.400653 0.598949,0.623232 -0.232233,0.237749 -0.483632,0.503785 -0.632938,0.662849 -0.08575,0.09141 -0.126605,0.214781 -0.0637,0.323169 0.04697,0.08093 0.125799,0.188138 0.257916,0.320255 0.132116,0.132115 0.23942,0.211037 0.320352,0.258013 0.108412,0.06292 0.231692,0.02198 0.323072,-0.0638 0.159063,-0.149304 0.425085,-0.400717 0.662849,-0.632938 0.222588,0.217638 0.43017,0.416876 0.623232,0.598949 -0.235483,0.240856 -0.492994,0.513372 -0.644879,0.675185 -0.08575,0.09141 -0.126618,0.214766 -0.0637,0.32317 0.04697,0.08093 0.1258,0.188138 0.257916,0.320254 0.132117,0.132116 0.239326,0.210942 0.320255,0.257916 0.108388,0.06291 0.231789,0.02208 0.323171,-0.0637 0.1707,-0.160236 0.464834,-0.438375 0.714699,-0.683827 0.06023,0.05302 0.118788,0.10425 0.173531,0.151582 0.477196,0.41251 1.156713,0.412514 1.63391,0 0.05515,-0.04766 0.114068,-0.09923 0.174795,-0.152648 0.07784,0.08024 0.154789,0.158466 0.22607,0.229748 0.215015,0.215015 0.38566,0.37279 0.494759,0.470477 0.08624,0.07719 0.200656,0.112621 0.301806,0.05632 0.08239,-0.04586 0.194382,-0.126019 0.33424,-0.265877 0.139859,-0.139858 0.220015,-0.251848 0.265877,-0.33424 0.05628,-0.101128 0.02089,-0.215585 -0.05632,-0.301807 -0.09774,-0.10905 -0.255462,-0.279744 -0.470477,-0.494759 -0.0594,-0.0594 -0.123972,-0.12291 -0.19019,-0.187361 0.193225,-0.182195 0.400941,-0.38158 0.623716,-0.599434 0.06035,0.06176 0.119677,0.122222 0.175364,0.177909 0.215015,0.215015 0.385589,0.372861 0.49466,0.470576 0.08624,0.07719 0.200777,0.112502 0.301904,0.05622 0.0824,-0.04585 0.194285,-0.125921 0.334143,-0.265779 0.139859,-0.139859 0.220015,-0.251849 0.265877,-0.33424 0.0563,-0.101146 0.021,-0.2157 -0.05622,-0.301905 -0.09774,-0.10905 -0.255561,-0.279645 -0.470576,-0.49466 -0.05569,-0.05568 -0.116114,-0.115053 -0.17791,-0.175363 0.217911,-0.222719 0.417219,-0.430513 0.599435,-0.623717 0.06456,0.06611 0.128033,0.13072 0.187432,0.190119 0.215015,0.215015 0.38566,0.37279 0.494759,0.470477 0.08624,0.07719 0.200677,0.112599 0.301808,0.05632 0.08239,-0.04586 0.194381,-0.126019 0.33424,-0.265877 0.139858,-0.139858 0.220014,-0.251848 0.265876,-0.33424 0.0563,-0.101146 0.02091,-0.215602 -0.05632,-0.301806 -0.09774,-0.10905 -0.255463,-0.279745 -0.470477,-0.49476 -0.07128,-0.07128 -0.149559,-0.148179 -0.229748,-0.22607 0.05339,-0.06075 0.104983,-0.119649 0.152648,-0.174795 0.412509,-0.477195 0.412511,-1.156715 0,-1.63391 -0.04766,-0.05515 -0.09924,-0.114061 -0.152648,-0.174795 0.08024,-0.07784 0.158466,-0.154789 0.229748,-0.22607 0.215014,-0.215015 0.37279,-0.38566 0.470477,-0.49476 0.07719,-0.08624 0.112621,-0.200656 0.05632,-0.301806 -0.04586,-0.08239 -0.126019,-0.194382 -0.265877,-0.33424 -0.139858,-0.139859 -0.251849,-0.220015 -0.33424,-0.265877 -0.101128,-0.05628 -0.215682,-0.02099 -0.301903,0.05622 -0.10905,0.09774 -0.279646,0.255562 -0.494661,0.470577 -0.0594,0.0594 -0.12291,0.123971 -0.187431,0.190118 -0.182186,-0.193217 -0.381584,-0.400959 -0.599434,-0.623716 0.06176,-0.06035 0.122223,-0.119677 0.177909,-0.175364 0.215015,-0.215015 0.372861,-0.385589 0.470576,-0.49466 0.07719,-0.08624 0.112502,-0.200777 0.05622,-0.301904 -0.04586,-0.0824 -0.126019,-0.194382 -0.265878,-0.33424 -0.139857,-0.139858 -0.251848,-0.220015 -0.33424,-0.265878 -0.101145,-0.0563 -0.215601,-0.0209 -0.301806,0.05632 -0.10905,0.09774 -0.279744,0.255462 -0.494759,0.470477 -0.05568,0.05569 -0.115054,0.116115 -0.175364,0.177909 -0.222728,-0.217778 -0.430459,-0.417165 -0.623619,-0.599337 0.06619,-0.06449 0.130719,-0.128032 0.190118,-0.187431 0.215015,-0.215015 0.372791,-0.385661 0.470478,-0.49476 0.07719,-0.08624 0.112607,-0.20067 0.05632,-0.301805 -0.04586,-0.08239 -0.126019,-0.194383 -0.265877,-0.33424 -0.139859,-0.139859 -0.251849,-0.220015 -0.33424,-0.265878 -0.101146,-0.0563 -0.2157,-0.021 -0.301903,0.05623 -0.10905,0.09774 -0.279646,0.255561 -0.494661,0.470576 -0.07128,0.07128 -0.14818,0.149559 -0.22607,0.229748 -0.06078,-0.05343 -0.119624,-0.104958 -0.174795,-0.152648 -0.4772,-0.412514 -1.156716,-0.41251 -1.633911,-1e-6 -0.05479,0.04729 -0.113279,0.09858 -0.17353,0.151582 -0.249852,-0.245468 -0.543999,-0.523592 -0.714707,-0.683821 -0.09141,-0.08575 -0.214782,-0.126605 -0.323169,-0.0637 -0.08094,0.04697 -0.188238,0.125701 -0.320354,0.257817 -0.132117,0.132117 -0.210843,0.239424 -0.257818,0.320354 -0.06292,0.108406 -0.02208,0.23179 0.0637,0.32317 0.151911,0.16181 0.409455,0.434245 0.644985,0.675079 -0.193117,0.182086 -0.400712,0.381338 -0.623328,0.599046 -0.237749,-0.232234 -0.503693,-0.483725 -0.662749,-0.633037 -0.09141,-0.08575 -0.214783,-0.126606 -0.32317,-0.0637 -0.08093,0.04697 -0.188238,0.125701 -0.320354,0.257817 -0.132116,0.132116 -0.210939,0.239521 -0.257914,0.320451 -0.06292,0.108405 -0.02208,0.231789 0.0637,0.32317 0.149311,0.159069 0.400798,0.424981 0.633037,0.662749 -0.217687,0.222637 -0.416939,0.430233 -0.599046,0.623328 -0.240869,-0.235495 -0.513255,-0.493088 -0.675079,-0.644984 -0.09141,-0.08575 -0.214766,-0.126618 -0.32317,-0.0637 -0.08094,0.04697 -0.188238,0.125701 -0.320354,0.257818 z" />
  <path
     style="fill:#606668;fill-opacity:1;stroke-width:0.425197;stroke-linejoin:round;stroke-opacity:0.580986"
     d="m 19.5,40.5 h 9 c 1.5,0 3,1.5 3,3 0.143298,1.520471 -1.5,3 -3,3 h -9 c -1.5,0 -3,-1.5 -3,-3 0,-1.5 1.5,-3 3,-3 z"
     id="path3515"
     sodipodi:nodetypes="ccccccc" />
  <path
     id="path1058-3"
     style="fill:#ffff68;fill-opacity:1;stroke-width:0.318898;stroke-linejoin:round;stroke-opacity:0.580986"
     d="m 19.5,42.375 c -0.62132,0 -1.125,0.50368 -1.125,1.125 v 3.375 c 0,0.62132 0.50368,1.125 1.125,1.125 0.62132,0 1.125,-0.50368 1.125,-1.125 V 43.5 c 0,-0.62132 -0.50368,-1.125 -1.125,-1.125 z"
     sodipodi:nodetypes="sssssss" />
  <path
     id="path29108"
     style="fill:#ffff68;fill-opacity:1;stroke-width:0.318898;stroke-linejoin:round;stroke-opacity:0.580986"
     d="m 22.5,42.375 c -0.62132,0 -1.125,0.50368 -1.125,1.125 v 3.375 c 0,0.62132 0.50368,1.125 1.125,1.125 0.62132,0 1.125,-0.50368 1.125,-1.125 V 43.5 c 0,-0.62132 -0.50368,-1.125 -1.125,-1.125 z"
     sodipodi:nodetypes="sssssss" />
  <path
     id="path29110"
     style="fill:#ffff68;fill-opacity:1;stroke-width:0.318898;stroke-linejoin:round;stroke-opacity:0.580986"
     d="m 25.5,42.375 c -0.62132,0 -1.125,0.50368 -1.125,1.125 v 3.375 c 0,0.62132 0.50368,1.125 1.125,1.125 0.62132,0 1.125,-0.50368 1.125,-1.125 V 43.5 c 0,-0.62132 -0.50368,-1.125 -1.125,-1.125 z"
     sodipodi:nodetypes="sssssss" />
  <path
     id="path29112"
     style="fill:#ffff68;fill-opacity:1;stroke-width:0.318898;stroke-linejoin:round;stroke-opacity:0.580986"
     d="m 28.5,42.375 c -0.62132,0 -1.125,0.50368 -1.125,1.125 v 3.375 c 0,0.62132 0.50368,1.125 1.125,1.125 0.62132,0 1.125,-0.50368 1.125,-1.125 V 43.5 c 0,-0.62132 -0.50368,-1.125 -1.125,-1.125 z"
     sodipodi:nodetypes="sssssss" />
</svg>
