<?xml version="1.0" encoding="UTF-8" standalone="no"?>
<svg
   fill="none"
   viewBox="0 0 48 48"
   height="256"
   width="256"
   version="1.1"
   id="svg6"
   sodipodi:docname="ch32v20x.svg"
   inkscape:version="1.2.1 (9c6d41e410, 2022-07-14)"
   xmlns:inkscape="http://www.inkscape.org/namespaces/inkscape"
   xmlns:sodipodi="http://sodipodi.sourceforge.net/DTD/sodipodi-0.dtd"
   xmlns="http://www.w3.org/2000/svg"
   xmlns:svg="http://www.w3.org/2000/svg">
  <defs
     id="defs10" />
  <sodipodi:namedview
     id="namedview8"
     pagecolor="#ffffff"
     bordercolor="#666666"
     borderopacity="1.0"
     inkscape:showpageshadow="2"
     inkscape:pageopacity="0.0"
     inkscape:pagecheckerboard="true"
     inkscape:deskcolor="#d1d1d1"
     showgrid="true"
     inkscape:zoom="1.1449053"
     inkscape:cx="129.70505"
     inkscape:cy="281.24597"
     inkscape:current-layer="svg6"
     showguides="false"
     inkscape:window-width="2560"
     inkscape:window-height="1316"
     inkscape:window-x="-12"
     inkscape:window-y="-12"
     inkscape:window-maximized="1">
    <inkscape:grid
       type="xygrid"
       id="grid239"
       units="px"
       spacingx="1.5"
       spacingy="1.5" />
  </sodipodi:namedview>
  <path
     id="rect897"
     style="fill:#77c32f;fill-opacity:1;stroke:none;stroke-width:0.363088;stroke-linejoin:round;stroke-opacity:0.580986"
     d="m 35.799046,2.2913386 c 5.120294,0.2698197 9.013548,4.1634678 9.283448,9.2838144 v 26.432738 c -0.2698,5.120295 -4.163154,9.013648 -9.283448,9.283448 H 12.200954 C 7.0806288,47.021539 3.1869498,43.128186 2.9171398,38.007891 V 11.575153 c 0.26981,-5.1203366 4.163479,-9.0140047 9.2838142,-9.2838144 z"
     sodipodi:nodetypes="ccccccccc" />
  <path
     style="fill:#606668;fill-opacity:1;stroke-width:0.425197;stroke-linejoin:round;stroke-opacity:0.580986"
     d="m 12.41339,0 h 9 c 1.5,0 3,1.5 3,3 v 7.499999 c 0,1.5 -1.5,2.999999 -3,2.999999 h -9 c -1.5,0 -3.0000004,-1.499999 -3.0000004,-2.999999 V 3 c 0,-1.5 1.5000004,-3 3.0000004,-3 z"
     id="path450"
     sodipodi:nodetypes="ccccccccc" />
  <path
     id="path1058"
     style="fill:#ffff68;fill-opacity:1;stroke-width:0.425197;stroke-linejoin:round;stroke-opacity:0.580986"
     d="m 15.41339,4.5 a 1.5,1.5 0 0 1 -1.5,1.4999999 1.5,1.5 0 0 1 -1.5,-1.4999999 1.5,1.5 0 0 1 1.5,-1.5 1.5,1.5 0 0 1 1.5,1.5 z" />
  <path
     id="path1061"
     style="fill:#ffff68;fill-opacity:1;stroke-width:0.425197;stroke-linejoin:round;stroke-opacity:0.580986"
     d="m 21.41339,4.5 a 1.5,1.5 0 0 1 -1.5,1.4999999 1.5,1.5 0 0 1 -1.5,-1.4999999 1.5,1.5 0 0 1 1.5,-1.5 1.5,1.5 0 0 1 1.5,1.5 z" />
  <path
     style="fill:#606668;fill-opacity:1;stroke-width:0.425197;stroke-linejoin:round;stroke-opacity:0.580986"
     d="m 12.543307,48 h 9 c 1.5,0 3,-1.5 3,-3 v -7.499999 c 0,-1.5 -1.5,-2.999999 -3,-2.999999 h -9 c -1.5,0 -3.0000003,1.499999 -3.0000003,2.999999 V 45 c 0,1.5 1.5000003,3 3.0000003,3 z"
     id="path450-5"
     sodipodi:nodetypes="ccccccccc" />
  <path
     id="path1058-1"
     style="fill:#ffff68;fill-opacity:1;stroke-width:0.425197;stroke-linejoin:round;stroke-opacity:0.580986"
     d="m 15.543307,43.5 a 1.5,1.5 0 0 0 -1.5,-1.5 1.5,1.5 0 0 0 -1.5,1.5 1.5,1.5 0 0 0 1.5,1.5 1.5,1.5 0 0 0 1.5,-1.5 z" />
  <path
     id="path1061-2"
     style="fill:#ffff68;fill-opacity:1;stroke-width:0.425197;stroke-linejoin:round;stroke-opacity:0.580986"
     d="m 21.543307,43.5 a 1.5,1.5 0 0 0 -1.5,-1.5 1.5,1.5 0 0 0 -1.5,1.5 1.5,1.5 0 0 0 1.5,1.5 1.5,1.5 0 0 0 1.5,-1.5 z" />
  <g
     id="g697"
     transform="rotate(-90,38.580704,3.8326772)">
    <path
       style="fill:#606668;fill-opacity:1;stroke-width:0.425197;stroke-linejoin:round;stroke-opacity:0.580986"
       d="M 24.75,7.5 H 12 C 10.5,7.5 9,6 9,4.5 9,3 10.5,1.5 12,1.5 h 12.75 c 1.5,0 3,1.5 3,3 0,1.5 -1.5,3 -3,3 z"
       id="path685"
       sodipodi:nodetypes="ccccccc" />
    <path
       id="path687"
       style="fill:#ffff68;fill-opacity:1;stroke-width:0.318898;stroke-linejoin:round;stroke-opacity:0.580986"
       d="m 22.875,4.5 c 0,-0.62132 0.50368,-1.125 1.125,-1.125 0.62132,0 1.125,0.50368 1.125,1.125 0,0.62132 -0.50368,1.125 -1.125,1.125 -0.62132,0 -1.125,-0.50368 -1.125,-1.125 z"
       sodipodi:nodetypes="sssss" />
    <path
       id="path689"
       style="fill:#ffff68;fill-opacity:1;stroke-width:0.318898;stroke-linejoin:round;stroke-opacity:0.580986"
       d="m 19.875,4.5 c 0,-0.62132 0.50368,-1.125 1.125,-1.125 0.62132,0 1.125,0.50368 1.125,1.125 0,0.62132 -0.50368,1.125 -1.125,1.125 -0.62132,0 -1.125,-0.50368 -1.125,-1.125 z"
       sodipodi:nodetypes="sssss" />
    <path
       id="path691"
       style="fill:#ffff68;fill-opacity:1;stroke-width:0.318898;stroke-linejoin:round;stroke-opacity:0.580986"
       d="m 16.875,4.5 c 0,-0.62132 0.50368,-1.125 1.125,-1.125 0.62132,0 1.125,0.50368 1.125,1.125 0,0.62132 -0.50368,1.125 -1.125,1.125 -0.62132,0 -1.125,-0.50368 -1.125,-1.125 z"
       sodipodi:nodetypes="sssss" />
    <path
       id="path693"
       style="fill:#ffff68;fill-opacity:1;stroke-width:0.318898;stroke-linejoin:round;stroke-opacity:0.580986"
       d="m 13.875,4.5 c 0,-0.62132 0.50368,-1.125 1.125,-1.125 0.62132,0 1.125,0.50368 1.125,1.125 0,0.62132 -0.50368,1.125 -1.125,1.125 -0.62132,0 -1.125,-0.50368 -1.125,-1.125 z"
       sodipodi:nodetypes="sssss" />
    <path
       id="path695"
       style="fill:#ffff68;fill-opacity:1;stroke-width:0.318898;stroke-linejoin:round;stroke-opacity:0.580986"
       d="m 10.875,4.5 c 0,-0.62132 0.50368,-1.125 1.125,-1.125 0.62132,0 1.125,0.50368 1.125,1.125 0,0.62132 -0.50368,1.125 -1.125,1.125 -0.62132,0 -1.125,-0.50368 -1.125,-1.125 z"
       sodipodi:nodetypes="sssss" />
  </g>
  <g
     id="g443"
     transform="rotate(-90,23.344483,19.068897)">
    <path
       style="fill:#606668;fill-opacity:1;stroke-width:0.425197;stroke-linejoin:round;stroke-opacity:0.580986"
       d="M 24.75,7.5 H 12 C 10.5,7.5 9,6 9,4.5 9,3 10.5,1.5 12,1.5 h 12.75 c 1.5,0 3,1.5 3,3 0,1.5 -1.5,3 -3,3 z"
       id="path431"
       sodipodi:nodetypes="ccccccc" />
    <path
       id="path433"
       style="fill:#ffff68;fill-opacity:1;stroke-width:0.318898;stroke-linejoin:round;stroke-opacity:0.580986"
       d="m 22.875,4.5 c 0,-0.62132 0.50368,-1.125 1.125,-1.125 0.62132,0 1.125,0.50368 1.125,1.125 0,0.62132 -0.50368,1.125 -1.125,1.125 -0.62132,0 -1.125,-0.50368 -1.125,-1.125 z"
       sodipodi:nodetypes="sssss" />
    <path
       id="path435"
       style="fill:#ffff68;fill-opacity:1;stroke-width:0.318898;stroke-linejoin:round;stroke-opacity:0.580986"
       d="m 19.875,4.5 c 0,-0.62132 0.50368,-1.125 1.125,-1.125 0.62132,0 1.125,0.50368 1.125,1.125 0,0.62132 -0.50368,1.125 -1.125,1.125 -0.62132,0 -1.125,-0.50368 -1.125,-1.125 z"
       sodipodi:nodetypes="sssss" />
    <path
       id="path437"
       style="fill:#ffff68;fill-opacity:1;stroke-width:0.318898;stroke-linejoin:round;stroke-opacity:0.580986"
       d="m 16.875,4.5 c 0,-0.62132 0.50368,-1.125 1.125,-1.125 0.62132,0 1.125,0.50368 1.125,1.125 0,0.62132 -0.50368,1.125 -1.125,1.125 -0.62132,0 -1.125,-0.50368 -1.125,-1.125 z"
       sodipodi:nodetypes="sssss" />
    <path
       id="path439"
       style="fill:#ffff68;fill-opacity:1;stroke-width:0.318898;stroke-linejoin:round;stroke-opacity:0.580986"
       d="m 13.875,4.5 c 0,-0.62132 0.50368,-1.125 1.125,-1.125 0.62132,0 1.125,0.50368 1.125,1.125 0,0.62132 -0.50368,1.125 -1.125,1.125 -0.62132,0 -1.125,-0.50368 -1.125,-1.125 z"
       sodipodi:nodetypes="sssss" />
    <path
       id="path441"
       style="fill:#ffff68;fill-opacity:1;stroke-width:0.318898;stroke-linejoin:round;stroke-opacity:0.580986"
       d="m 10.875,4.5 c 0,-0.62132 0.50368,-1.125 1.125,-1.125 0.62132,0 1.125,0.50368 1.125,1.125 0,0.62132 -0.50368,1.125 -1.125,1.125 -0.62132,0 -1.125,-0.50368 -1.125,-1.125 z"
       sodipodi:nodetypes="sssss" />
  </g>
  <path
     style="fill:#606668;fill-opacity:1;stroke-width:0.425197;stroke-linejoin:round;stroke-opacity:0.580986"
     d="m 35.929134,5.9999996 h 2.82874 c 1.5,0 3,0.791339 3,2.291339 0,1.5 -1.5,2.2913394 -3,2.2913394 h -2.82874 c -1.5,0 -3,-0.7913394 -3,-2.2913394 0,-1.5 1.5,-2.291339 3,-2.291339 z"
     id="path1055"
     sodipodi:nodetypes="ccccccc" />
  <path
     style="fill:#ffffff;fill-opacity:1;stroke-width:0.425197;stroke-linejoin:round;stroke-opacity:0.580986"
     d="m 35.929134,7.4173224 h 2.828739 v 1.7480324 h -2.828739 z"
     id="path1057"
     sodipodi:nodetypes="ccccc" />
  <path
     style="fill:#606668;fill-opacity:1;stroke-width:0.425197;stroke-linejoin:round;stroke-opacity:0.580986"
     d="m 32.38582,48 h 4.748031 c 1.5,0 3,-1.5 3,-3 v -3.956692 c 0,-1.5 -1.5,-2.999999 -3,-2.999999 H 32.38582 c -1.5,0 -3,1.499999 -3,2.999999 V 45 c 0,1.5 1.5,3 3,3 z"
     id="path347"
     sodipodi:nodetypes="ccccccccc" />
  <path
     id="path349"
     style="fill:#ffff68;fill-opacity:1;stroke-width:0.425197;stroke-linejoin:round;stroke-opacity:0.580986"
     d="m 33.968497,43.5 a 1.5,1.5 0 0 0 -1.5,-1.5 1.5,1.5 0 0 0 -1.5,1.5 1.5,1.5 0 0 0 1.5,1.5 1.5,1.5 0 0 0 1.5,-1.5 z" />
  <path
     id="path351"
     style="fill:#ffff68;fill-opacity:1;stroke-width:0.425197;stroke-linejoin:round;stroke-opacity:0.580986"
     d="m 38.551174,43.5 c 0,-0.828427 -0.671573,-1.5 -1.5,-1.5 -0.828427,0 -1.5,0.671573 -1.5,1.5 0,0.828427 0.671573,1.5 1.5,1.5 0.828427,0 1.5,-0.671573 1.5,-1.5 z"
     sodipodi:nodetypes="sssss" />
  <path
     id="path408"
     style="fill:#606668;fill-opacity:1;stroke-width:0.246037"
     d="m 20.857815,17.53949 c -0.197789,0 -0.33375,0.02251 -0.424439,0.04834 -0.11133,0.03171 -0.167238,0.137852 -0.173584,0.253418 -0.008,0.146221 -0.01721,0.378175 -0.01721,0.682251 0,0.100806 9.03e-4,0.210853 0.0026,0.322631 h -0.230347 c -0.629121,0.04574 -1.109656,0.526282 -1.155395,1.155396 -2.96e-4,0.004 -4.4e-4,0.0088 -7.33e-4,0.01282 -6.5e-5,8.69e-4 -3.03e-4,0.0017 -3.66e-4,0.0026 v 0.0011 c -0.0049,0.06773 -0.0095,0.139158 -0.01428,0.213501 -0.350244,0.0031 -0.755128,0.0142 -0.989136,0.02161 -0.125271,0.004 -0.2414,0.06235 -0.27356,0.183472 -0.02402,0.09045 -0.04431,0.222217 -0.04431,0.409057 0,0.186841 0.0203,0.31825 0.04431,0.408692 0.03216,0.121145 0.148289,0.179511 0.27356,0.183471 0.221835,0.007 0.596631,0.01749 0.933472,0.02124 v 0.829468 c -0.336841,0.0038 -0.711638,0.01459 -0.933472,0.02161 -0.125271,0.004 -0.241397,0.06233 -0.27356,0.183471 -0.02402,0.09045 -0.04431,0.221851 -0.04431,0.408692 h 3.66e-4 c 0,0.0098 2.57e-4,0.01873 3.66e-4,0.0282 -2.27e-4,0.01358 -7.32e-4,0.0268 -7.32e-4,0.04102 0,0.02335 4.98e-4,0.04609 0.0011,0.06775 0.0042,0.151584 0.0222,0.262171 0.04321,0.341308 0.03216,0.121145 0.148289,0.179512 0.27356,0.183472 0.221835,0.007 0.596631,0.01749 0.933472,0.02124 -0.0078,0.265308 -0.01374,0.552903 -0.01721,0.864258 -0.332329,0.0039 -0.69821,0.01398 -0.91626,0.02087 -0.125271,0.004 -0.2414,0.06235 -0.27356,0.183472 -0.02401,0.09044 -0.04431,0.222218 -0.04431,0.409057 0,0.02335 4.98e-4,0.04572 0.0011,0.06738 0.0042,0.15161 0.0222,0.262538 0.04321,0.341675 0.03216,0.121145 0.148289,0.179511 0.27356,0.183472 0.218058,0.0069 0.583914,0.01696 0.91626,0.02087 l 0.01721,0.864257 c -0.336841,0.0038 -0.711638,0.01422 -0.933472,0.02124 -0.125271,0.004 -0.241397,0.06233 -0.27356,0.183471 -0.02402,0.09045 -0.04431,0.221851 -0.04431,0.408692 v 3.66e-4 h 3.66e-4 c 0,0.18684 0.01994,0.318615 0.04395,0.409058 0.03217,0.121123 0.148287,0.17951 0.27356,0.183471 0.234007,0.0074 0.638892,0.01849 0.989136,0.02161 0.0047,0.07434 0.0094,0.145772 0.01428,0.213501 v 7.32e-4 c 4.4e-5,6.09e-4 -4.5e-5,0.0012 0,0.0018 3.16e-4,0.0044 7.81e-4,0.0095 0.0011,0.01392 0.04574,0.62912 0.526278,1.109658 1.155395,1.155396 h 0.228882 c 0.0031,0.350161 0.0142,0.754841 0.02161,0.988769 0.004,0.125271 0.06235,0.2414 0.183472,0.27356 0.09045,0.02402 0.222218,0.04431 0.409058,0.04431 0.18684,0 0.318249,-0.0203 0.408691,-0.04431 0.121146,-0.03216 0.179512,-0.148289 0.183472,-0.27356 0.007,-0.221835 0.01749,-0.596631 0.02124,-0.933471 h 0.829102 c 0.0038,0.33684 0.01459,0.711637 0.02161,0.933471 0.004,0.125271 0.06233,0.241397 0.183472,0.27356 0.09045,0.02402 0.22185,0.04431 0.408691,0.04431 v -3.66e-4 c 0.0098,0 0.01873,-2.57e-4 0.0282,-3.66e-4 0.01358,2.27e-4 0.0268,7.32e-4 0.04102,7.32e-4 0.02335,0 0.04609,-4.97e-4 0.06775,-0.0011 0.151584,-0.0042 0.262172,-0.0222 0.341309,-0.04321 0.121144,-0.03216 0.179511,-0.148289 0.183471,-0.27356 0.007,-0.221835 0.01749,-0.596631 0.02124,-0.933471 0.265308,0.0078 0.552904,0.01374 0.864258,0.01721 0.0039,0.332329 0.01398,0.69821 0.02087,0.91626 0.004,0.125271 0.06235,0.2414 0.183472,0.27356 0.09044,0.02401 0.222218,0.04431 0.409058,0.04431 0.02335,0 0.04572,-4.97e-4 0.06738,-0.0011 0.15161,-0.0042 0.262538,-0.0222 0.341675,-0.04321 0.121145,-0.03216 0.179511,-0.148289 0.183472,-0.27356 0.0069,-0.218058 0.01696,-0.583914 0.02087,-0.91626 l 0.864624,-0.01721 c 0.0038,0.33684 0.01422,0.711637 0.02124,0.933471 0.004,0.125271 0.06233,0.241397 0.183472,0.27356 0.09045,0.02402 0.22185,0.04431 0.408691,0.04431 v -3.66e-4 c 0.18684,0 0.318615,-0.01994 0.409058,-0.04395 0.121124,-0.03217 0.179512,-0.148287 0.183472,-0.27356 0.0074,-0.233927 0.01848,-0.638608 0.02161,-0.988769 h 0.228882 c 0.614646,-0.04469 1.086922,-0.504724 1.151001,-1.112549 0.0015,-0.01431 0.0033,-0.02838 0.0044,-0.04285 3.19e-4,-0.0044 7.83e-4,-0.0095 0.0011,-0.01392 5.8e-5,-8.08e-4 -5.8e-5,-0.0018 0,-0.0026 0.0049,-0.06822 0.0095,-0.14 0.01428,-0.214966 0.11178,0.0017 0.221825,0.0026 0.322632,0.0026 0.304077,0 0.536031,-0.0091 0.682251,-0.01721 0.115563,-0.0064 0.221705,-0.06225 0.253418,-0.173584 0.02583,-0.09069 0.04834,-0.226649 0.04834,-0.424438 1e-6,-0.19779 -0.02251,-0.333749 -0.04834,-0.424438 -0.03171,-0.111304 -0.137855,-0.167212 -0.253418,-0.173584 -0.146223,-0.008 -0.378174,-0.01685 -0.682251,-0.01685 -0.08401,0 -0.174571,6.13e-4 -0.266968,0.0018 l 0.01685,-0.86499 c 0.08634,9.98e-4 0.171369,0.0015 0.250122,0.0015 0.304078,0 0.536032,-0.0088 0.682251,-0.01685 0.115563,-0.0064 0.221708,-0.06228 0.253418,-0.173584 0.02585,-0.09069 0.04834,-0.226651 0.04834,-0.424439 0,-0.02472 -4.32e-4,-0.04821 -0.0011,-0.07104 -0.0047,-0.159749 -0.02464,-0.274041 -0.04724,-0.353393 -0.03171,-0.111332 -0.137858,-0.16723 -0.253418,-0.173584 -0.146222,-0.008 -0.378173,-0.01685 -0.682251,-0.01685 -0.07875,7e-6 -0.16378,3.8e-4 -0.250122,0.0015 -0.0034,-0.311571 -0.0091,-0.599162 -0.01685,-0.864624 0.0924,0.0011 0.182965,0.0018 0.266968,0.0018 0.304077,0 0.536031,-0.0091 0.682251,-0.01721 0.115562,-0.0064 0.221703,-0.06228 0.253418,-0.173584 0.02583,-0.09069 0.04834,-0.226649 0.04834,-0.424438 0,-0.01211 -2.02e-4,-0.02314 -3.66e-4,-0.03479 1.6e-4,-0.01153 3.66e-4,-0.02245 3.66e-4,-0.03442 1e-6,-0.19779 -0.02251,-0.33375 -0.04834,-0.424439 -0.03171,-0.111304 -0.137855,-0.167212 -0.253418,-0.173584 -0.146223,-0.008 -0.378174,-0.01721 -0.682251,-0.01721 -0.08401,0 -0.174571,9.46e-4 -0.266968,0.0022 v -0.830567 c 0.0924,0.0011 0.182965,0.0018 0.266968,0.0018 0.304077,0 0.536031,-0.0091 0.682251,-0.01721 0.115562,-0.0064 0.221703,-0.06228 0.253418,-0.173584 0.02583,-0.09069 0.04834,-0.226282 0.04834,-0.424072 0,-0.197789 -0.02251,-0.333749 -0.04834,-0.424438 -0.03171,-0.11133 -0.137852,-0.167238 -0.253418,-0.173584 -0.146222,-0.008 -0.378175,-0.01721 -0.682251,-0.01721 -0.100806,0 -0.210853,9.02e-4 -0.322632,0.0026 -0.0048,-0.07496 -0.0094,-0.14675 -0.01428,-0.214966 -8.3e-5,-0.0012 -2.83e-4,-0.0025 -3.66e-4,-0.0037 -2.91e-4,-0.0041 -4.4e-4,-0.0088 -7.33e-4,-0.01282 -0.0011,-0.01447 -0.0029,-0.02854 -0.0044,-0.04285 -0.06408,-0.607821 -0.536354,-1.067862 -1.151001,-1.112549 h -0.230347 c 0.0017,-0.111779 0.0026,-0.221824 0.0026,-0.322631 0,-0.304077 -0.0091,-0.536032 -0.01721,-0.682251 -0.0064,-0.115563 -0.06225,-0.221705 -0.173584,-0.253418 -0.09069,-0.02583 -0.22665,-0.04834 -0.424439,-0.04834 -0.19779,-1e-6 -0.333748,0.02251 -0.424438,0.04834 -0.111304,0.03171 -0.167212,0.137855 -0.173584,0.253418 -0.008,0.146222 -0.01685,0.378174 -0.01685,0.682251 0,0.08401 6.13e-4,0.17457 0.0018,0.266967 l -0.86499,-0.01685 c 9.98e-4,-0.08634 0.0018,-0.171369 0.0018,-0.250122 0,-0.304078 -0.0092,-0.536033 -0.01721,-0.682251 -0.0064,-0.115563 -0.06228,-0.221708 -0.173584,-0.253418 -0.09069,-0.02585 -0.226651,-0.04834 -0.424438,-0.04834 -0.02472,0 -0.04821,4.31e-4 -0.07104,0.0011 -0.15975,0.0047 -0.274042,0.02464 -0.353394,0.04724 -0.111332,0.03171 -0.16723,0.137858 -0.173584,0.253418 -0.008,0.146221 -0.01685,0.378173 -0.01685,0.682251 7e-6,0.07875 7.47e-4,0.16378 0.0018,0.250122 -0.311571,0.0034 -0.599163,0.0091 -0.864625,0.01685 0.0011,-0.0924 0.0015,-0.182964 0.0015,-0.266967 0,-0.304077 -0.0091,-0.536032 -0.01721,-0.682251 -0.0064,-0.115562 -0.06228,-0.221703 -0.173584,-0.253418 -0.09069,-0.02583 -0.226648,-0.04834 -0.424438,-0.04834 -0.01211,0 -0.02314,2.02e-4 -0.03479,3.66e-4 -0.01153,-1.6e-4 -0.02245,-3.66e-4 -0.03442,-3.66e-4 -0.19779,-1e-6 -0.333749,0.02251 -0.424438,0.04834 -0.111304,0.03171 -0.167212,0.137855 -0.173584,0.253418 -0.008,0.146222 -0.01721,0.378174 -0.01721,0.682251 0,0.08401 0.0013,0.17457 0.0026,0.266967 h -0.830566 c 0.0011,-0.0924 0.0018,-0.182964 0.0018,-0.266967 0,-0.304077 -0.0091,-0.536032 -0.01721,-0.682251 -0.0064,-0.115562 -0.06228,-0.221703 -0.173584,-0.253418 -0.09069,-0.02583 -0.226283,-0.04834 -0.424072,-0.04834 z" />
</svg>
