<?xml version="1.0" encoding="UTF-8" standalone="no"?>
<svg
   fill="none"
   viewBox="0 0 48 48"
   height="256"
   width="256"
   version="1.1"
   id="svg6"
   sodipodi:docname="frdm.svg"
   inkscape:version="1.2.1 (9c6d41e410, 2022-07-14)"
   xmlns:inkscape="http://www.inkscape.org/namespaces/inkscape"
   xmlns:sodipodi="http://sodipodi.sourceforge.net/DTD/sodipodi-0.dtd"
   xmlns="http://www.w3.org/2000/svg"
   xmlns:svg="http://www.w3.org/2000/svg">
  <defs
     id="defs10" />
  <sodipodi:namedview
     id="namedview8"
     pagecolor="#ffffff"
     bordercolor="#666666"
     borderopacity="1.0"
     inkscape:showpageshadow="2"
     inkscape:pageopacity="0.0"
     inkscape:pagecheckerboard="true"
     inkscape:deskcolor="#d1d1d1"
     showgrid="true"
     inkscape:zoom="0.8095703"
     inkscape:cx="-92.641738"
     inkscape:cy="26.557298"
     inkscape:current-layer="svg6"
     showguides="false"
     inkscape:window-width="1920"
     inkscape:window-height="730"
     inkscape:window-x="-6"
     inkscape:window-y="-6"
     inkscape:window-maximized="1">
    <inkscape:grid
       type="xygrid"
       id="grid239"
       units="px"
       spacingx="1.5"
       spacingy="1.5" />
  </sodipodi:namedview>
  <path
     id="rect897"
     style="fill:#77c32f;fill-opacity:1;stroke:none;stroke-width:0.363088;stroke-linejoin:round;stroke-opacity:0.580986"
     d="M 13.45459,45.704039 C 8.334296,45.434219 4.441042,41.540571 4.171142,36.420225 4.004043,33.248928 3.875244,29.13901 3.875244,23.999815 c 0,-5.139095 0.128799,-9.24948 0.295898,-12.420776 0.2698,-5.120295 4.163154,-9.013648 9.283448,-9.283448 h 21.091186 c 5.120325,0.2698 9.014004,4.163153 9.283814,9.283448 0.167109,3.171296 0.295532,7.281581 0.295532,12.420776 0,5.139195 -0.128423,9.249113 -0.295532,12.42041 -0.26981,5.120336 -4.163479,9.014004 -9.283814,9.283814 z"
     sodipodi:nodetypes="ccssccssscc" />
  <path
     id="path2-4"
     style="fill:#606668;fill-opacity:1;stroke-width:0.307546"
     d="m 17.364059,19.564149 c -0.165145,0.165145 -0.263553,0.299278 -0.322271,0.400441 -0.07862,0.135495 -0.0276,0.289735 0.07963,0.403964 0.200293,0.213375 0.547966,0.581041 0.854782,0.893373 -0.06628,0.07529 -0.130319,0.148474 -0.189476,0.216913 -0.51564,0.596497 -0.515641,1.445892 0,2.042387 0.05911,0.06849 0.123112,0.141483 0.189355,0.216793 -0.306833,0.312312 -0.654365,0.680121 -0.854659,0.893497 -0.107187,0.114263 -0.158381,0.268353 -0.07975,0.40384 0.05871,0.101163 0.157371,0.235295 0.322518,0.40044 0.165145,0.165145 0.299155,0.263677 0.400318,0.322397 0.135515,0.07865 0.289737,0.0276 0.403963,-0.07963 0.202249,-0.189874 0.542822,-0.511834 0.843849,-0.806232 0.227572,0.241362 0.476598,0.500817 0.748686,0.77904 -0.290291,0.297187 -0.60454,0.629732 -0.791173,0.828562 -0.107187,0.114262 -0.158256,0.268476 -0.07963,0.403961 0.05871,0.101162 0.157249,0.235172 0.322395,0.400319 0.165145,0.165143 0.299275,0.263796 0.40044,0.322516 0.135515,0.07865 0.289615,0.02747 0.40384,-0.07975 0.198829,-0.18663 0.531357,-0.500896 0.828562,-0.791173 0.278235,0.272048 0.537712,0.521095 0.77904,0.748687 -0.294354,0.30107 -0.616243,0.641715 -0.806099,0.843981 -0.107188,0.114262 -0.158273,0.268457 -0.07963,0.403962 0.05871,0.101163 0.15725,0.235173 0.322395,0.400318 0.165146,0.165145 0.299157,0.263677 0.400319,0.322395 0.135485,0.07864 0.289736,0.0276 0.403963,-0.07963 0.213375,-0.200295 0.581043,-0.547969 0.893374,-0.854784 0.07529,0.06628 0.148485,0.130313 0.216914,0.189478 0.596495,0.515637 1.445891,0.515642 2.042387,0 0.06894,-0.05957 0.142585,-0.124038 0.218494,-0.19081 0.0973,0.1003 0.193486,0.198082 0.282588,0.287185 0.268768,0.268768 0.482075,0.465987 0.618448,0.588096 0.1078,0.09649 0.25082,0.140776 0.377258,0.0704 0.102987,-0.05733 0.242977,-0.157524 0.4178,-0.332346 0.174824,-0.174823 0.275019,-0.31481 0.332346,-0.4178 0.07035,-0.12641 0.02611,-0.269482 -0.0704,-0.377259 -0.122175,-0.136313 -0.319327,-0.34968 -0.588096,-0.618449 -0.07425,-0.07425 -0.154965,-0.153637 -0.237738,-0.234201 0.241532,-0.227744 0.501177,-0.476975 0.779645,-0.749293 0.07544,0.0772 0.149597,0.152778 0.219205,0.222387 0.268769,0.268768 0.481987,0.466076 0.618325,0.58822 0.1078,0.09649 0.250972,0.140627 0.37738,0.07027 0.103,-0.05731 0.242857,-0.157402 0.417679,-0.332224 0.174824,-0.174824 0.275019,-0.314811 0.332346,-0.4178 0.07038,-0.126433 0.02625,-0.269624 -0.07027,-0.377381 -0.122175,-0.136313 -0.319451,-0.349557 -0.58822,-0.618325 -0.06961,-0.0696 -0.145142,-0.143817 -0.222387,-0.219204 0.272389,-0.278399 0.521524,-0.538141 0.749294,-0.779646 0.0807,0.08264 0.160041,0.1634 0.23429,0.237648 0.268768,0.268769 0.482075,0.465988 0.618448,0.588097 0.1078,0.09649 0.250847,0.140748 0.37726,0.0704 0.102988,-0.05733 0.242977,-0.157524 0.4178,-0.332347 0.174823,-0.174822 0.275018,-0.31481 0.332345,-0.4178 0.07038,-0.126432 0.02614,-0.269502 -0.0704,-0.377257 -0.122175,-0.136313 -0.319328,-0.349681 -0.588096,-0.61845 -0.0891,-0.0891 -0.186949,-0.185224 -0.287185,-0.282588 0.06674,-0.07594 0.131229,-0.149561 0.19081,-0.218493 0.515636,-0.596494 0.515639,-1.445894 0,-2.042388 -0.05958,-0.06894 -0.12405,-0.142576 -0.19081,-0.218494 0.1003,-0.0973 0.198083,-0.193486 0.287185,-0.282587 0.268768,-0.268769 0.465988,-0.482075 0.588096,-0.61845 0.09649,-0.1078 0.140777,-0.25082 0.0704,-0.377258 -0.05732,-0.102987 -0.157523,-0.242977 -0.332346,-0.4178 -0.174822,-0.174823 -0.314811,-0.275018 -0.4178,-0.332346 -0.12641,-0.07035 -0.269602,-0.02624 -0.377379,0.07027 -0.136312,0.122175 -0.349557,0.319453 -0.618326,0.588221 -0.07425,0.07425 -0.153637,0.154964 -0.234289,0.237648 -0.227732,-0.241521 -0.47698,-0.501199 -0.749292,-0.779645 0.0772,-0.07544 0.152779,-0.149596 0.222386,-0.219205 0.268769,-0.268769 0.466076,-0.481986 0.58822,-0.618325 0.09649,-0.1078 0.140628,-0.250971 0.07027,-0.37738 -0.05732,-0.103 -0.157524,-0.242978 -0.332347,-0.4178 -0.174822,-0.174823 -0.31481,-0.275019 -0.4178,-0.332348 -0.126432,-0.07037 -0.269502,-0.02613 -0.377258,0.0704 -0.136312,0.122175 -0.34968,0.319328 -0.618449,0.588097 -0.0696,0.06961 -0.143817,0.145143 -0.219205,0.222386 -0.27841,-0.272223 -0.538073,-0.521456 -0.779523,-0.749171 0.08274,-0.08061 0.163398,-0.16004 0.237647,-0.234289 0.268769,-0.268769 0.465989,-0.482076 0.588098,-0.61845 0.09649,-0.1078 0.140758,-0.250838 0.0704,-0.377256 -0.05732,-0.102988 -0.157524,-0.242979 -0.332347,-0.4178 -0.174823,-0.174824 -0.314811,-0.275019 -0.4178,-0.332348 -0.126432,-0.07038 -0.269625,-0.02625 -0.377378,0.07029 -0.136313,0.122175 -0.349558,0.319451 -0.618327,0.58822 -0.0891,0.0891 -0.185225,0.186948 -0.282587,0.287185 -0.07597,-0.06679 -0.14953,-0.131198 -0.218494,-0.19081 -0.5965,-0.515643 -1.445895,-0.515638 -2.042389,-2e-6 -0.06849,0.05911 -0.141598,0.123225 -0.216912,0.189478 -0.312315,-0.306835 -0.679999,-0.65449 -0.893384,-0.854776 -0.114262,-0.107188 -0.268477,-0.158257 -0.403961,-0.07963 -0.101175,0.05871 -0.235298,0.157126 -0.400443,0.322271 -0.165146,0.165146 -0.263553,0.29928 -0.322272,0.400442 -0.07865,0.135508 -0.0276,0.289738 0.07963,0.403963 0.189889,0.202262 0.511819,0.542806 0.806231,0.843849 -0.241396,0.227607 -0.50089,0.476672 -0.77916,0.748807 -0.297186,-0.290292 -0.629616,-0.604656 -0.828436,-0.791296 -0.114263,-0.107188 -0.268479,-0.158258 -0.403963,-0.07963 -0.101162,0.05871 -0.235297,0.157126 -0.400442,0.322271 -0.165145,0.165145 -0.263674,0.299401 -0.322393,0.400564 -0.07865,0.135506 -0.0276,0.289736 0.07963,0.403962 0.186639,0.198837 0.500998,0.531227 0.791297,0.828437 -0.272109,0.278296 -0.521174,0.537791 -0.748808,0.77916 -0.301086,-0.294369 -0.641569,-0.61636 -0.843849,-0.80623 -0.114262,-0.107188 -0.268457,-0.158273 -0.403962,-0.07963 -0.101175,0.05871 -0.235298,0.157126 -0.400443,0.322272 z" />
  <g
     id="g3064"
     transform="rotate(180,38.25,32.25)">
    <path
       style="fill:#606668;fill-opacity:1;stroke-width:0.425197;stroke-linejoin:round;stroke-opacity:0.580986"
       d="m 57,18 h 9 c 1.5,0 3,1.5 3,3 v 7.5 c 0,1.5 -1.5,3 -3,3 h -9 c -1.5,0 -3,-1.5 -3,-3 V 21 c 0,-1.5 1.5,-3 3,-3 z"
       id="path450-5"
       sodipodi:nodetypes="ccccccccc" />
    <path
       id="path1058"
       style="fill:#ffff68;stroke-width:0.425197;stroke-linejoin:round;stroke-opacity:0.580986;fill-opacity:1"
       d="M 60,21 A 1.5,1.5 0 0 1 58.5,22.5 1.5,1.5 0 0 1 57,21 1.5,1.5 0 0 1 58.5,19.5 1.5,1.5 0 0 1 60,21 Z" />
    <path
       id="path1061"
       style="fill:#ffff68;stroke-width:0.425197;stroke-linejoin:round;stroke-opacity:0.580986;fill-opacity:1"
       d="M 66,21 A 1.5,1.5 0 0 1 64.5,22.5 1.5,1.5 0 0 1 63,21 1.5,1.5 0 0 1 64.5,19.5 1.5,1.5 0 0 1 66,21 Z" />
  </g>
  <g
     id="g3072"
     transform="rotate(180,47.25,32.25)">
    <path
       style="fill:#606668;fill-opacity:1;stroke-width:0.425197;stroke-linejoin:round;stroke-opacity:0.580986"
       d="m 57,18 h 9 c 1.5,0 3,1.5 3,3 v 7.5 c 0,1.5 -1.5,3 -3,3 h -9 c -1.5,0 -3,-1.5 -3,-3 V 21 c 0,-1.5 1.5,-3 3,-3 z"
       id="path3066"
       sodipodi:nodetypes="ccccccccc" />
    <path
       id="path3068"
       style="fill:#ffff68;stroke-width:0.425197;stroke-linejoin:round;stroke-opacity:0.580986;fill-opacity:1"
       d="M 60,21 A 1.5,1.5 0 0 1 58.5,22.5 1.5,1.5 0 0 1 57,21 1.5,1.5 0 0 1 58.5,19.5 1.5,1.5 0 0 1 60,21 Z" />
    <path
       id="path3070"
       style="fill:#ffff68;stroke-width:0.425197;stroke-linejoin:round;stroke-opacity:0.580986;fill-opacity:1"
       d="M 66,21 A 1.5,1.5 0 0 1 64.5,22.5 1.5,1.5 0 0 1 63,21 1.5,1.5 0 0 1 64.5,19.5 1.5,1.5 0 0 1 66,21 Z" />
  </g>
  <path
     style="fill:#606668;fill-opacity:1;stroke-width:0.425197;stroke-linejoin:round;stroke-opacity:0.580986"
     d="m 3.8903742,29.625 v -18 c 0,-1.5 1.5,-2.9999998 3,-2.9999998 1.5,0 3,1.4999998 3,2.9999998 v 18 c 0,1.5 -1.5,3 -3,3 -1.5,0 -3,-1.5 -3,-3 z"
     id="path1128"
     sodipodi:nodetypes="ccccccc" />
  <path
     id="path1130"
     style="fill:#ffff68;stroke-width:0.318898;stroke-linejoin:round;stroke-opacity:0.580986;fill-opacity:1"
     d="m 6.8903742,19.5 c 0.62132,0 1.125,0.50368 1.125,1.125 0,0.62132 -0.50368,1.125 -1.125,1.125 -0.62132,0 -1.125,-0.50368 -1.125,-1.125 0,-0.62132 0.50368,-1.125 1.125,-1.125 z"
     sodipodi:nodetypes="sssss" />
  <path
     id="path1132"
     style="fill:#ffff68;stroke-width:0.318898;stroke-linejoin:round;stroke-opacity:0.580986;fill-opacity:1"
     d="m 6.8903742,16.5 c 0.62132,0 1.125,0.50368 1.125,1.125 0,0.62132 -0.50368,1.125 -1.125,1.125 -0.62132,0 -1.125,-0.50368 -1.125,-1.125 0,-0.62132 0.50368,-1.125 1.125,-1.125 z"
     sodipodi:nodetypes="sssss" />
  <path
     id="path1134"
     style="fill:#ffff68;stroke-width:0.318898;stroke-linejoin:round;stroke-opacity:0.580986;fill-opacity:1"
     d="m 6.8903742,13.5 c 0.62132,0 1.125,0.50368 1.125,1.125 0,0.62132 -0.50368,1.125 -1.125,1.125 -0.62132,0 -1.125,-0.50368 -1.125,-1.125 0,-0.62132 0.50368,-1.125 1.125,-1.125 z"
     sodipodi:nodetypes="sssss" />
  <path
     id="path1136"
     style="fill:#ffff68;stroke-width:0.318898;stroke-linejoin:round;stroke-opacity:0.580986;fill-opacity:1"
     d="m 6.8903742,10.5 c 0.62132,0 1.125,0.50368 1.125,1.125 0,0.62132 -0.50368,1.125 -1.125,1.125 -0.62132,0 -1.125,-0.50368 -1.125,-1.125 0,-0.62132 0.50368,-1.125 1.125,-1.125 z"
     sodipodi:nodetypes="sssss" />
  <path
     id="path1138"
     style="fill:#ffff68;stroke-width:0.318898;stroke-linejoin:round;stroke-opacity:0.580986;fill-opacity:1"
     d="m 6.8903742,28.5 c 0.62132,0 1.125,0.50368 1.125,1.125 0,0.62132 -0.50368,1.125 -1.125,1.125 -0.62132,0 -1.125,-0.50368 -1.125,-1.125 0,-0.62132 0.50368,-1.125 1.125,-1.125 z"
     sodipodi:nodetypes="sssss" />
  <path
     id="path1140"
     style="fill:#ffff68;stroke-width:0.318898;stroke-linejoin:round;stroke-opacity:0.580986;fill-opacity:1"
     d="m 6.8903742,25.5 c 0.62132,0 1.125,0.50368 1.125,1.125 0,0.62132 -0.50368,1.125 -1.125,1.125 -0.62132,0 -1.125,-0.50368 -1.125,-1.125 0,-0.62132 0.50368,-1.125 1.125,-1.125 z"
     sodipodi:nodetypes="sssss" />
  <path
     id="path1142"
     style="fill:#ffff68;stroke-width:0.318898;stroke-linejoin:round;stroke-opacity:0.580986;fill-opacity:1"
     d="m 6.8903742,22.5 c 0.62132,0 1.125,0.50368 1.125,1.125 0,0.62132 -0.50368,1.125 -1.125,1.125 -0.62132,0 -1.125,-0.50368 -1.125,-1.125 0,-0.62132 0.50368,-1.125 1.125,-1.125 z"
     sodipodi:nodetypes="sssss" />
  <path
     style="fill:#606668;fill-opacity:1;stroke-width:0.425197;stroke-linejoin:round;stroke-opacity:0.580986"
     d="m 38.125122,29.625 v -18 c 0,-1.5 1.5,-3 3,-3 1.5,0 3,1.5 3,3 v 18 c 0,1.5 -1.5,3 -3,3 -1.5,0 -3,-1.5 -3,-3 z"
     id="path3509"
     sodipodi:nodetypes="ccccccc" />
  <path
     id="path3511"
     style="fill:#ffff68;stroke-width:0.318898;stroke-linejoin:round;stroke-opacity:0.580986;fill-opacity:1"
     d="m 41.125122,19.5 c 0.62132,0 1.125,0.50368 1.125,1.125 0,0.62132 -0.50368,1.125 -1.125,1.125 -0.62132,0 -1.125,-0.50368 -1.125,-1.125 0,-0.62132 0.50368,-1.125 1.125,-1.125 z"
     sodipodi:nodetypes="sssss" />
  <path
     id="path3513"
     style="fill:#ffff68;stroke-width:0.318898;stroke-linejoin:round;stroke-opacity:0.580986;fill-opacity:1"
     d="m 41.125122,16.5 c 0.62132,0 1.125,0.50368 1.125,1.125 0,0.62132 -0.50368,1.125 -1.125,1.125 -0.62132,0 -1.125,-0.50368 -1.125,-1.125 0,-0.62132 0.50368,-1.125 1.125,-1.125 z"
     sodipodi:nodetypes="sssss" />
  <path
     id="path3515"
     style="fill:#ffff68;stroke-width:0.318898;stroke-linejoin:round;stroke-opacity:0.580986;fill-opacity:1"
     d="m 41.125122,13.5 c 0.62132,0 1.125,0.50368 1.125,1.125 0,0.62132 -0.50368,1.125 -1.125,1.125 -0.62132,0 -1.125,-0.50368 -1.125,-1.125 0,-0.62132 0.50368,-1.125 1.125,-1.125 z"
     sodipodi:nodetypes="sssss" />
  <path
     id="path3517"
     style="fill:#ffff68;stroke-width:0.318898;stroke-linejoin:round;stroke-opacity:0.580986;fill-opacity:1"
     d="m 41.125122,10.5 c 0.62132,0 1.125,0.50368 1.125,1.125 0,0.62132 -0.50368,1.125 -1.125,1.125 -0.62132,0 -1.125,-0.50368 -1.125,-1.125 0,-0.62132 0.50368,-1.125 1.125,-1.125 z"
     sodipodi:nodetypes="sssss" />
  <path
     id="path3519"
     style="fill:#ffff68;stroke-width:0.318898;stroke-linejoin:round;stroke-opacity:0.580986;fill-opacity:1"
     d="m 41.125122,28.5 c 0.62132,0 1.125,0.50368 1.125,1.125 0,0.62132 -0.50368,1.125 -1.125,1.125 -0.62132,0 -1.125,-0.50368 -1.125,-1.125 0,-0.62132 0.50368,-1.125 1.125,-1.125 z"
     sodipodi:nodetypes="sssss" />
  <path
     id="path3521"
     style="fill:#ffff68;stroke-width:0.318898;stroke-linejoin:round;stroke-opacity:0.580986;fill-opacity:1"
     d="m 41.125122,25.5 c 0.62132,0 1.125,0.50368 1.125,1.125 0,0.62132 -0.50368,1.125 -1.125,1.125 -0.62132,0 -1.125,-0.50368 -1.125,-1.125 0,-0.62132 0.50368,-1.125 1.125,-1.125 z"
     sodipodi:nodetypes="sssss" />
  <path
     id="path3523"
     style="fill:#ffff68;stroke-width:0.318898;stroke-linejoin:round;stroke-opacity:0.580986;fill-opacity:1"
     d="m 41.125122,22.5 c 0.62132,0 1.125,0.50368 1.125,1.125 0,0.62132 -0.50368,1.125 -1.125,1.125 -0.62132,0 -1.125,-0.50368 -1.125,-1.125 0,-0.62132 0.50368,-1.125 1.125,-1.125 z"
     sodipodi:nodetypes="sssss" />
  <g
     id="g480"
     transform="matrix(0.75,0,0,0.75,6.5200535,2.7533663)"
     style="stroke-width:1.33333">
    <path
       style="fill:#a9ff53;fill-opacity:1;stroke-width:1.33333"
       d="m 29.592576,13.885442 c -0.06302,-0.101775 -0.816781,-1.333226 -1.675022,-2.736559 -1.160237,-1.897138 -1.555163,-2.562493 -1.53987,-2.594321 0.01131,-0.02354 0.772868,-1.273198 1.692351,-2.77701 l 1.671785,-2.734203 2.794816,0.0091 c 2.01456,0.0066 2.85182,0.0177 2.999004,0.03996 0.7924,0.119801 1.341539,0.307417 1.801556,0.61551 0.251503,0.168441 0.601092,0.539399 0.75701,0.803283 0.221225,0.374413 0.371992,0.8262 0.456201,1.367042 0.05439,0.349342 0.08052,2.30103 0.03683,2.750772 -0.145971,1.50247 -0.837342,2.507384 -1.98669,2.887677 -0.511731,0.169319 -0.390281,0.163727 -3.776768,0.173896 l -3.069193,0.0092 v 1.185349 c 0,0.712785 -0.0094,1.185348 -0.02371,1.185348 -0.01304,0 -0.07527,-0.08327 -0.138295,-0.185045 z m 5.120816,-5.01752 C 35.020689,8.743891 35.27414,8.419454 35.384643,8.00867 35.439553,7.80454 35.463793,6.984088 35.422713,6.719737 35.351503,6.261435 35.11901,6.001519 34.651735,5.85783 34.529396,5.82021 34.259454,5.8148 32.134638,5.80742 l -2.38006,-0.0083 v 1.571312 1.571313 l 2.405584,-0.0071 2.405584,-0.0071 z"
       id="path311"
       sodipodi:nodetypes="sssscccssscsccsssscscsccccccc" />
    <path
       style="fill:#ffcd5c;fill-opacity:1;stroke-width:1.33333"
       d="M 7.9830884,8.557424 V 3.044362 h 1.6949301 1.6949305 l 2.867384,3.342366 2.867385,3.342366 0.01843,-2.353333 c 0.01014,-1.294333 0.02162,-2.786102 0.02552,-3.315042 l 0.0071,-0.961708 1.671785,2.733696 c 0.919482,1.503532 1.670515,2.746952 1.668963,2.763155 -0.0016,0.0162 -0.752307,1.254621 -1.668344,2.752042 -1.145132,1.871919 -1.678919,2.722583 -1.708403,2.722583 -0.02535,0 -1.206221,-1.356245 -2.887591,-3.31642 l -2.844707,-3.316419 -0.0065,3.316419 -0.0065,3.31642 H 9.6802605 7.9830474 Z"
       id="path309" />
    <path
       style="fill:#95f438;fill-opacity:1;stroke-width:1.33333"
       d="m 17.19705,14.055703 c 0,-0.0083 0.742626,-1.228712 1.650282,-2.712021 0.907654,-1.483309 1.654922,-2.714605 1.660593,-2.736213 0.0057,-0.02161 -0.428515,-0.756683 -0.964861,-1.6335 C 18.459522,5.202594 17.17063,3.093034 17.15386,3.063504 c -0.006,-0.01053 0.888552,-0.01878 1.987846,-0.01835 l 1.998715,7.89e-4 1.147022,1.849059 c 0.630862,1.016982 1.153454,1.842718 1.161317,1.834968 0.0079,-0.0078 0.526029,-0.837313 1.151481,-1.843474 l 1.137188,-1.829383 1.995815,-0.0065 c 1.097697,-0.0036 1.995814,-5.31e-4 1.995814,0.0068 0,0.0073 -0.759767,1.255257 -1.688371,2.773156 -1.332606,2.178282 -1.682992,2.768447 -1.662843,2.800775 0.01404,0.02253 0.752573,1.229712 1.641183,2.682633 0.888612,1.452922 1.63247,2.667519 1.653018,2.699104 l 0.03736,0.05743 h -2.002422 -2.002421 l -1.12189,-1.805784 c -0.61704,-0.99318 -1.131961,-1.804134 -1.14427,-1.802119 -0.01231,0.002 -0.524587,0.811746 -1.138398,1.799402 l -1.11602,1.795739 -1.993467,0.0065 c -1.096408,0.0036 -1.993468,-2.59e-4 -1.993468,-0.0086 z"
       id="path307" />
  </g>
</svg>
