<?xml version="1.0" encoding="UTF-8" standalone="no"?>
<svg
   fill="none"
   viewBox="0 0 48 48"
   height="256"
   width="256"
   version="1.1"
   id="svg6"
   sodipodi:docname="nucleo_cut.svg"
   inkscape:version="1.2.1 (9c6d41e410, 2022-07-14)"
   xmlns:inkscape="http://www.inkscape.org/namespaces/inkscape"
   xmlns:sodipodi="http://sodipodi.sourceforge.net/DTD/sodipodi-0.dtd"
   xmlns="http://www.w3.org/2000/svg"
   xmlns:svg="http://www.w3.org/2000/svg">
  <defs
     id="defs10" />
  <sodipodi:namedview
     id="namedview8"
     pagecolor="#ffffff"
     bordercolor="#666666"
     borderopacity="1.0"
     inkscape:showpageshadow="2"
     inkscape:pageopacity="0.0"
     inkscape:pagecheckerboard="true"
     inkscape:deskcolor="#d1d1d1"
     showgrid="true"
     inkscape:zoom="1.6191406"
     inkscape:cx="91.406515"
     inkscape:cy="118.89023"
     inkscape:current-layer="svg6"
     showguides="false"
     inkscape:window-width="1920"
     inkscape:window-height="730"
     inkscape:window-x="-6"
     inkscape:window-y="-6"
     inkscape:window-maximized="1">
    <inkscape:grid
       type="xygrid"
       id="grid239"
       units="px"
       spacingx="1.5"
       spacingy="1.5" />
  </sodipodi:namedview>
  <path
     id="rect897"
     style="fill:#d8dbd4;fill-opacity:1;stroke:none;stroke-width:0.363088;stroke-linejoin:round;stroke-opacity:0.580986"
     d="m 30.420776,0 c 5.120294,0.2698197 9.013548,4.1634678 9.283448,9.283814 V 16.5 H 31.875 V 21 h 7.829224 V 38.716552 C 39.434424,43.836847 35.54107,47.7302 30.420776,48 H 9.32959 C 4.209265,47.7302 0.315586,43.836847 0.045776,38.716552 V 21 H 7.875 V 16.5 H 0.045776 V 9.283814 C 0.315586,4.1634778 4.209255,0.2698097 9.32959,0 Z"
     sodipodi:nodetypes="ccccccccccccccccc" />
  <path
     id="path2-4"
     style="fill:#606668;fill-opacity:1;stroke-width:0.246037"
     d="m 14.462201,33.966306 c 0,0.18684 0.02021,0.318385 0.04422,0.408828 0.03217,0.121125 0.148286,0.179512 0.273559,0.183474 0.234006,0.0074 0.638663,0.01871 0.988906,0.02183 0.0051,0.08008 0.01027,0.157709 0.01552,0.229888 0.04574,0.62912 0.526229,1.109611 1.155349,1.155349 0.07218,0.0053 0.149676,0.01039 0.229751,0.01552 0.0031,0.350242 0.01457,0.7549 0.02197,0.988907 0.004,0.125271 0.06221,0.241397 0.183334,0.27356 0.09044,0.02401 0.222125,0.04408 0.408966,0.04408 0.186841,0 0.318385,-0.02007 0.40883,-0.04408 0.12115,-0.03217 0.179512,-0.148287 0.183473,-0.273559 0.007,-0.221817 0.01753,-0.596604 0.02128,-0.933426 0.265269,0.0078 0.55291,0.0137 0.864213,0.01717 0.0039,0.332327 0.01425,0.698209 0.02115,0.916259 0.004,0.125271 0.06235,0.241397 0.183473,0.273559 0.09044,0.02401 0.221987,0.04408 0.408828,0.04408 0.186841,0 0.318522,-0.02007 0.408966,-0.04408 0.12115,-0.03217 0.179374,-0.148289 0.183334,-0.273561 0.0069,-0.218047 0.01723,-0.583929 0.02115,-0.91626 0.311287,-0.0035 0.598951,-0.0094 0.864213,-0.01717 0.0038,0.336823 0.01441,0.711609 0.02143,0.933426 0.004,0.125271 0.06233,0.241395 0.183473,0.273559 0.09044,0.02401 0.221988,0.04408 0.408828,0.04408 0.186841,-2e-6 0.318388,-0.02007 0.408829,-0.04408 0.121126,-0.03216 0.179512,-0.148288 0.183474,-0.273559 0.0074,-0.234007 0.01871,-0.638666 0.02183,-0.988908 0.08008,-0.0051 0.157713,-0.01028 0.229891,-0.01552 0.629117,-0.04574 1.109611,-0.526228 1.155349,-1.155349 0.0053,-0.0727 0.01049,-0.150824 0.01566,-0.231537 0.11178,0.0017 0.221505,0.0026 0.322312,0.0026 0.304077,0 0.536305,-0.0091 0.682525,-0.01717 0.115561,-0.0064 0.22152,-0.06225 0.253233,-0.173585 0.02583,-0.09069 0.04834,-0.226558 0.04834,-0.424347 2e-6,-0.19779 -0.02251,-0.333657 -0.04834,-0.424347 -0.03171,-0.111304 -0.13767,-0.167213 -0.253234,-0.173585 -0.146222,-0.008 -0.378448,-0.01717 -0.682525,-0.01717 -0.084,0 -0.174572,7.51e-4 -0.266969,0.002 0.0078,-0.265462 0.01369,-0.553326 0.01717,-0.864897 0.08634,9.97e-4 0.171049,0.0018 0.249802,0.0018 0.304077,0 0.536305,-0.009 0.682525,-0.01703 0.115563,-0.0064 0.221522,-0.06242 0.253232,-0.173724 0.02585,-0.09069 0.04834,-0.22642 0.04834,-0.424209 0,-0.197791 -0.02251,-0.333659 -0.04834,-0.424347 -0.03171,-0.111331 -0.137673,-0.167373 -0.253234,-0.173726 -0.146222,-0.008 -0.378447,-0.01703 -0.682524,-0.01703 -0.07875,7e-6 -0.16346,7.51e-4 -0.249803,0.0018 -0.0034,-0.311572 -0.0094,-0.599437 -0.01717,-0.864899 0.0924,0.0011 0.182966,0.0019 0.26697,0.0019 0.304077,0 0.536305,-0.0091 0.682525,-0.01717 0.115563,-0.0064 0.221519,-0.06228 0.253234,-0.173586 0.02583,-0.09069 0.04834,-0.226557 0.04834,-0.424348 0,-0.197789 -0.02251,-0.333656 -0.04834,-0.424346 -0.03171,-0.111331 -0.137668,-0.167238 -0.253233,-0.173584 -0.146223,-0.008 -0.378449,-0.01717 -0.682526,-0.01717 -0.100805,0 -0.210532,9.75e-4 -0.322312,0.0026 -0.0052,-0.08071 -0.01037,-0.158838 -0.01566,-0.231537 -0.04574,-0.629116 -0.526232,-1.10961 -1.155349,-1.155349 -0.0727,-0.0053 -0.150826,-0.01048 -0.231537,-0.01566 0.0017,-0.111779 0.0026,-0.221506 0.0026,-0.322312 -1e-6,-0.304076 -0.0091,-0.536305 -0.01717,-0.682526 -0.0064,-0.115562 -0.06225,-0.221521 -0.173584,-0.253234 -0.09069,-0.02583 -0.226557,-0.04834 -0.424346,-0.04834 -0.197791,-10e-7 -0.33366,0.02251 -0.424348,0.04834 -0.111305,0.03171 -0.167353,0.137669 -0.173724,0.253231 -0.008,0.146223 -0.01703,0.37845 -0.01703,0.682527 0,0.084 7.51e-4,0.174571 0.0019,0.266968 -0.26545,-0.0078 -0.553342,-0.0137 -0.864898,-0.01717 9.97e-4,-0.08634 0.0018,-0.171049 0.0018,-0.249801 0,-0.304077 -0.009,-0.536305 -0.01703,-0.682524 -0.0064,-0.115564 -0.06242,-0.221523 -0.173725,-0.253233 -0.09069,-0.02584 -0.226558,-0.04834 -0.424348,-0.04834 -0.197787,0 -0.333656,0.02251 -0.424346,0.04834 -0.111331,0.03171 -0.167232,0.137675 -0.173586,0.253234 -0.008,0.146223 -0.01717,0.378447 -0.01717,0.682525 8e-6,0.07875 7.51e-4,0.163461 0.0018,0.249802 -0.311486,0.0035 -0.599362,0.0094 -0.864762,0.01717 0.0012,-0.09241 0.0019,-0.182965 0.0019,-0.266968 0,-0.304077 -0.0091,-0.536306 -0.01717,-0.682526 -0.0064,-0.115563 -0.06227,-0.221521 -0.173584,-0.253233 -0.09069,-0.02583 -0.226558,-0.04834 -0.424347,-0.04834 -0.19779,0 -0.333658,0.02251 -0.424347,0.04834 -0.111331,0.03171 -0.167372,0.137674 -0.173717,0.253239 -0.008,0.146222 -0.01703,0.378448 -0.01703,0.682525 0,0.100805 9.75e-4,0.210534 0.0026,0.322312 -0.08076,0.0052 -0.158804,0.01037 -0.231537,0.01566 -0.629123,0.04574 -1.109611,0.526233 -1.155351,1.155348 -0.0053,0.07218 -0.01039,0.149807 -0.01552,0.229889 -0.350244,0.0031 -0.754901,0.01443 -0.988909,0.02184 -0.125271,0.004 -0.241397,0.06235 -0.273558,0.183472 -0.02402,0.09045 -0.04422,0.221989 -0.04422,0.408829 0,0.186842 0.02021,0.318387 0.04422,0.408829 0.03216,0.121146 0.148287,0.179514 0.273558,0.183473 0.221834,0.007 0.596586,0.01753 0.933427,0.02128 -0.0078,0.265309 -0.0137,0.552993 -0.01717,0.864349 -0.332329,0.0039 -0.698211,0.01412 -0.91626,0.02101 -0.125271,0.004 -0.241397,0.06235 -0.273558,0.183473 -0.02401,0.09044 -0.04422,0.221989 -0.04422,0.408829 0,0.18684 0.02021,0.318523 0.04422,0.408966 0.03216,0.121145 0.148287,0.179512 0.273558,0.183473 0.218058,0.0069 0.583914,0.0171 0.91626,0.02101 0.0035,0.311357 0.0094,0.599042 0.01717,0.864349 -0.336841,0.0038 -0.711593,0.01426 -0.933425,0.02128 -0.125272,0.004 -0.241396,0.06233 -0.273559,0.183473 -0.02402,0.09045 -0.04422,0.221988 -0.04422,0.408829 z" />
  <path
     style="fill:#606668;fill-opacity:1;stroke-width:0.425197;stroke-linejoin:round;stroke-opacity:0.580986"
     d="m 25.875,0 h 9 c 1.5,0 3,1.5 3,3 v 7.5 c 0,1.5 -1.5,3 -3,3 h -9 c -1.5,0 -3,-1.5 -3,-3 V 3 c 0,-1.5 1.5,-3 3,-3 z"
     id="path450"
     sodipodi:nodetypes="ccccccccc" />
  <path
     id="path1058"
     style="fill:#ffff68;stroke-width:0.425197;stroke-linejoin:round;stroke-opacity:0.580986;fill-opacity:1"
     d="m 28.875,3 a 1.5,1.5 0 0 1 -1.5,1.5 1.5,1.5 0 0 1 -1.5,-1.5 1.5,1.5 0 0 1 1.5,-1.5 1.5,1.5 0 0 1 1.5,1.5 z" />
  <path
     id="path1061"
     style="fill:#ffff68;stroke-width:0.425197;stroke-linejoin:round;stroke-opacity:0.580986;fill-opacity:1"
     d="m 34.875,3 a 1.5,1.5 0 0 1 -1.5,1.5 1.5,1.5 0 0 1 -1.5,-1.5 1.5,1.5 0 0 1 1.5,-1.5 1.5,1.5 0 0 1 1.5,1.5 z" />
  <path
     style="fill:#606668;fill-opacity:1;stroke-width:0.425197;stroke-linejoin:round;stroke-opacity:0.580986"
     d="m 3.375,43.5 v -18 c 0,-1.5 1.5,-3 3,-3 1.5,0 3,1.5 3,3 v 18 c 0,1.5 -1.5,3 -3,3 -1.5,0 -3,-1.5 -3,-3 z"
     id="path601"
     sodipodi:nodetypes="ccccccc" />
  <path
     id="path603"
     style="fill:#ffff68;stroke-width:0.318898;stroke-linejoin:round;stroke-opacity:0.580986;fill-opacity:1"
     d="m 6.375,33.375 c 0.62132,0 1.125,0.50368 1.125,1.125 0,0.62132 -0.50368,1.125 -1.125,1.125 -0.62132,0 -1.125,-0.50368 -1.125,-1.125 0,-0.62132 0.50368,-1.125 1.125,-1.125 z"
     sodipodi:nodetypes="sssss" />
  <path
     id="path605"
     style="fill:#ffff68;stroke-width:0.318898;stroke-linejoin:round;stroke-opacity:0.580986;fill-opacity:1"
     d="m 6.375,30.375 c 0.62132,0 1.125,0.50368 1.125,1.125 0,0.62132 -0.50368,1.125 -1.125,1.125 -0.62132,0 -1.125,-0.50368 -1.125,-1.125 0,-0.62132 0.50368,-1.125 1.125,-1.125 z"
     sodipodi:nodetypes="sssss" />
  <path
     id="path607"
     style="fill:#ffff68;stroke-width:0.318898;stroke-linejoin:round;stroke-opacity:0.580986;fill-opacity:1"
     d="m 6.375,27.375 c 0.62132,0 1.125,0.50368 1.125,1.125 0,0.62132 -0.50368,1.125 -1.125,1.125 -0.62132,0 -1.125,-0.50368 -1.125,-1.125 0,-0.62132 0.50368,-1.125 1.125,-1.125 z"
     sodipodi:nodetypes="sssss" />
  <path
     id="path609"
     style="fill:#ffff68;stroke-width:0.318898;stroke-linejoin:round;stroke-opacity:0.580986;fill-opacity:1"
     d="m 6.375,24.375 c 0.62132,0 1.125,0.50368 1.125,1.125 0,0.62132 -0.50368,1.125 -1.125,1.125 -0.62132,0 -1.125,-0.50368 -1.125,-1.125 0,-0.62132 0.50368,-1.125 1.125,-1.125 z"
     sodipodi:nodetypes="sssss" />
  <path
     id="path611"
     style="fill:#ffff68;stroke-width:0.318898;stroke-linejoin:round;stroke-opacity:0.580986;fill-opacity:1"
     d="m 6.375,42.375 c 0.62132,0 1.125,0.50368 1.125,1.125 0,0.62132 -0.50368,1.125 -1.125,1.125 -0.62132,0 -1.125,-0.50368 -1.125,-1.125 0,-0.62132 0.50368,-1.125 1.125,-1.125 z"
     sodipodi:nodetypes="sssss" />
  <path
     id="path613"
     style="fill:#ffff68;stroke-width:0.318898;stroke-linejoin:round;stroke-opacity:0.580986;fill-opacity:1"
     d="m 6.375,39.375 c 0.62132,0 1.125,0.50368 1.125,1.125 0,0.62132 -0.50368,1.125 -1.125,1.125 -0.62132,0 -1.125,-0.50368 -1.125,-1.125 0,-0.62132 0.50368,-1.125 1.125,-1.125 z"
     sodipodi:nodetypes="sssss" />
  <path
     id="path615"
     style="fill:#ffff68;stroke-width:0.318898;stroke-linejoin:round;stroke-opacity:0.580986;fill-opacity:1"
     d="m 6.375,36.375 c 0.62132,0 1.125,0.50368 1.125,1.125 0,0.62132 -0.50368,1.125 -1.125,1.125 -0.62132,0 -1.125,-0.50368 -1.125,-1.125 0,-0.62132 0.50368,-1.125 1.125,-1.125 z"
     sodipodi:nodetypes="sssss" />
  <path
     style="fill:#606668;fill-opacity:1;stroke-width:0.425197;stroke-linejoin:round;stroke-opacity:0.580986"
     d="m 30.375,43.5 v -18 c 0,-1.5 1.5,-3 3,-3 1.5,0 3,1.5 3,3 v 18 c 0,1.5 -1.5,3 -3,3 -1.5,0 -3,-1.5 -3,-3 z"
     id="path1936"
     sodipodi:nodetypes="ccccccc" />
  <path
     id="path1938"
     style="fill:#ffff68;stroke-width:0.318898;stroke-linejoin:round;stroke-opacity:0.580986;fill-opacity:1"
     d="m 33.375,33.375 c 0.62132,0 1.125,0.50368 1.125,1.125 0,0.62132 -0.50368,1.125 -1.125,1.125 -0.62132,0 -1.125,-0.50368 -1.125,-1.125 0,-0.62132 0.50368,-1.125 1.125,-1.125 z"
     sodipodi:nodetypes="sssss" />
  <path
     id="path1940"
     style="fill:#ffff68;stroke-width:0.318898;stroke-linejoin:round;stroke-opacity:0.580986;fill-opacity:1"
     d="m 33.375,30.375 c 0.62132,0 1.125,0.50368 1.125,1.125 0,0.62132 -0.50368,1.125 -1.125,1.125 -0.62132,0 -1.125,-0.50368 -1.125,-1.125 0,-0.62132 0.50368,-1.125 1.125,-1.125 z"
     sodipodi:nodetypes="sssss" />
  <path
     id="path1942"
     style="fill:#ffff68;stroke-width:0.318898;stroke-linejoin:round;stroke-opacity:0.580986;fill-opacity:1"
     d="m 33.375,27.375 c 0.62132,0 1.125,0.50368 1.125,1.125 0,0.62132 -0.50368,1.125 -1.125,1.125 -0.62132,0 -1.125,-0.50368 -1.125,-1.125 0,-0.62132 0.50368,-1.125 1.125,-1.125 z"
     sodipodi:nodetypes="sssss" />
  <path
     id="path1944"
     style="fill:#ffff68;stroke-width:0.318898;stroke-linejoin:round;stroke-opacity:0.580986;fill-opacity:1"
     d="m 33.375,24.375 c 0.62132,0 1.125,0.50368 1.125,1.125 0,0.62132 -0.50368,1.125 -1.125,1.125 -0.62132,0 -1.125,-0.50368 -1.125,-1.125 0,-0.62132 0.50368,-1.125 1.125,-1.125 z"
     sodipodi:nodetypes="sssss" />
  <path
     id="path1946"
     style="fill:#ffff68;stroke-width:0.318898;stroke-linejoin:round;stroke-opacity:0.580986;fill-opacity:1"
     d="m 33.375,42.375 c 0.62132,0 1.125,0.50368 1.125,1.125 0,0.62132 -0.50368,1.125 -1.125,1.125 -0.62132,0 -1.125,-0.50368 -1.125,-1.125 0,-0.62132 0.50368,-1.125 1.125,-1.125 z"
     sodipodi:nodetypes="sssss" />
  <path
     id="path1948"
     style="fill:#ffff68;stroke-width:0.318898;stroke-linejoin:round;stroke-opacity:0.580986;fill-opacity:1"
     d="m 33.375,39.375 c 0.62132,0 1.125,0.50368 1.125,1.125 0,0.62132 -0.50368,1.125 -1.125,1.125 -0.62132,0 -1.125,-0.50368 -1.125,-1.125 0,-0.62132 0.50368,-1.125 1.125,-1.125 z"
     sodipodi:nodetypes="sssss" />
  <path
     id="path1950"
     style="fill:#ffff68;stroke-width:0.318898;stroke-linejoin:round;stroke-opacity:0.580986;fill-opacity:1"
     d="m 33.375,36.375 c 0.62132,0 1.125,0.50368 1.125,1.125 0,0.62132 -0.50368,1.125 -1.125,1.125 -0.62132,0 -1.125,-0.50368 -1.125,-1.125 0,-0.62132 0.50368,-1.125 1.125,-1.125 z"
     sodipodi:nodetypes="sssss" />
  <path
     id="rect346"
     style="fill:#6091d0;stroke-width:2.10938;stroke-linejoin:round;fill-opacity:1"
     d="M 5.2759632,2.3096622 C 3.8746566,2.4576154 3.0677746,5.0675367 2.2830826,7.3896713 c -0.0017,0.01246 -0.0083,0.02427 -0.01319,0.03667 -0.285405,0.8433147 -0.56801,1.6500797 -0.876297,2.2797307 -0.06571,0.135396 -0.249508,0.438501 -0.134925,0.441032 1.452552,0.03199 2.993343,0.05855 4.3814836,0.03131 C 6.299624,10.165144 7.003233,10.272584 7.163683,9.884255 7.201563,9.73091 7.091403,9.528613 6.94121,9.320451 6.89817,9.260681 6.85815,9.209391 6.806284,9.148858 6.696124,9.018545 6.609315,8.932808 6.482669,8.811852 6.416979,8.747442 6.358727,8.674141 6.293772,8.615746 L 6.247012,8.603186 C 6.105202,8.479089 5.933266,8.308402 5.8492422,8.241661 3.6799446,6.5165664 4.4107052,4.0730929 6.321174,3.6580967 h 10.704254 c 0.157343,0 8.25e-4,-0.1750883 0.316818,-0.8210908 0.06935,-0.1414192 0.260021,-0.5271379 0.154907,-0.5271379 z m 8.8033448,3.1129762 c -0.181916,0.00681 -0.274252,0.4444346 -0.357193,0.7047039 l -0.633636,1.685234 -1.253678,3.3640827 c -0.104869,0.234949 -0.379568,0.702547 -0.161704,0.704909 h 1.260475 c 0.140104,-0.0073 0.437207,-0.148748 0.741371,-0.367698 0.304144,-0.218971 0.616679,-0.516709 0.781952,-0.833451 l 1.253883,-3.3826207 0.478524,-1.2930219 c 0.09405,-0.2581318 0.15734,-0.5819321 0,-0.5819321 z m -7.758544,0.055412 c -0.262283,0 -0.399695,0.3352027 0,0.8210908 0.682052,0.8809321 2.357203,2.0513708 2.433402,3.2293618 -0.0166,0.469834 -0.09088,0.979829 -0.330413,1.378922 -0.40045,0.667041 -1.0961,1.02935 -0.997627,1.02935 h 2.096397 c 0.209871,0 0.392214,0.06386 0.545883,-0.34916 l 2.103195,-5.5336063 c 0.09637,-0.2220014 0.185764,-0.5759584 0.08116,-0.5759584 z" />
  <g
     id="g2901"
     transform="matrix(-0.33275,0,0,-0.33275,62.141834,24.240375)">
    <path
       id="rect2170"
       style="fill:#606668;fill-opacity:1;stroke:none;stroke-width:0.75;stroke-linejoin:round"
       d="m 51.071411,-2.7861328 c 4.733895,0 8.571533,3.8376679 8.571533,8.5715332 0,2.3927976 -0.980547,4.5564296 -2.561645,6.1113286 0.934999,0.408599 1.861976,0.813523 2.779175,1.213623 7.558192,-4.433196 16.668641,-9.4672856 19.067138,-9.4672856 2.576698,0 5.668629,2.0316646 7.344727,3.2973633 0.584999,0.4417995 0.455604,1.3189987 -0.217896,1.6083984 C 83.180046,9.7836269 76.272138,12.756304 67.650146,16.5 c 8.621992,3.743696 15.5299,6.716373 18.404297,7.951172 0.6735,0.2894 0.802895,1.166599 0.217896,1.608398 -1.676098,1.265699 -4.768029,3.297364 -7.344727,3.297364 -2.398497,0 -11.508946,-5.03409 -19.067138,-9.467286 -0.917199,0.4001 -1.844176,0.805024 -2.779175,1.213623 1.581098,1.554899 2.561645,3.718531 2.561645,6.111329 0,4.733895 -3.837638,8.571533 -8.571533,8.571533 -4.733835,0 -8.571533,-3.837638 -8.571533,-8.571533 0,-4.589596 3.607596,-8.336547 8.141601,-8.560547 0.9003,-0.5541 2.112008,-1.295954 3.531006,-2.154053 -1.418998,-0.858099 -2.630706,-1.599953 -3.531006,-2.154053 -4.534005,-0.224 -8.141601,-3.970951 -8.141601,-8.5605466 0,-4.7338653 3.837698,-8.5715332 8.571533,-8.5715332 z"
       sodipodi:nodetypes="ssccscccccsccssscccss" />
    <ellipse
       style="fill:#d8dbd4;fill-opacity:1;stroke-width:1.875;stroke-linejoin:round"
       id="path420"
       cx="59.8606"
       cy="16.5"
       rx="3.191257"
       ry="2.3606558" />
  </g>
</svg>
