<?xml version="1.0" encoding="UTF-8" standalone="no"?>
<svg
   fill="none"
   viewBox="0 0 48 48"
   height="256"
   width="256"
   version="1.1"
   id="svg9056"
   sodipodi:docname="declaration.svg"
   inkscape:version="1.2.1 (9c6d41e410, 2022-07-14)"
   xmlns:inkscape="http://www.inkscape.org/namespaces/inkscape"
   xmlns:sodipodi="http://sodipodi.sourceforge.net/DTD/sodipodi-0.dtd"
   xmlns="http://www.w3.org/2000/svg"
   xmlns:svg="http://www.w3.org/2000/svg">
  <defs
     id="defs9060" />
  <sodipodi:namedview
     id="namedview9058"
     pagecolor="#ffffff"
     bordercolor="#111111"
     borderopacity="1"
     inkscape:showpageshadow="0"
     inkscape:pageopacity="0"
     inkscape:pagecheckerboard="1"
     inkscape:deskcolor="#d1d1d1"
     showgrid="false"
     inkscape:zoom="2.1445312"
     inkscape:cx="76.007286"
     inkscape:cy="128.4663"
     inkscape:window-width="1920"
     inkscape:window-height="730"
     inkscape:window-x="-6"
     inkscape:window-y="-6"
     inkscape:window-maximized="1"
     inkscape:current-layer="svg9056" />
  <path
     fill="#edf1e9"
     d="M45.4899 8.07591C45.2557 5.53661 43.2598 3.65019 40.7156 3.47698C37.3499 3.24784 31.8866 3 24 3C16.1134 2.99999 10.6501 3.24783 7.28436 3.47698C4.74016 3.65019 2.74435 5.53659 2.5101 8.0759C2.25284 10.8645 2 15.1048 2 21C2 26.8952 2.25284 31.1355 2.51009 33.9241C2.74434 36.4634 4.74016 38.3498 7.28436 38.523C10.6501 38.7522 16.1134 39 24 39C31.8866 39 37.3499 38.7522 40.7156 38.523C43.2598 38.3498 45.2557 36.4634 45.4899 33.9241C45.7472 31.1355 46 26.8952 46 21C46 15.1048 45.7472 10.8645 45.4899 8.07591Z"
     id="path9048"
     style="fill:#edf1e9;fill-opacity:1" />
  <path
     fill="#d63232"
     fill-rule="evenodd"
     d="M25.3216 33.7663C24.5155 33.1145 24 32.1174 24 31C24 29.8826 24.5155 28.8855 25.3216 28.2337C25.2125 27.2028 25.553 26.1333 26.3432 25.3431C27.1333 24.553 28.2028 24.2125 29.2337 24.3216C29.8855 23.5155 30.8826 23 32 23C33.1174 23 34.1145 23.5155 34.7663 24.3216C35.7972 24.2125 36.8667 24.553 37.6569 25.3431C38.447 26.1333 38.7875 27.2028 38.6784 28.2337C39.4845 28.8855 40 29.8826 40 31C40 32.1174 39.4845 33.1145 38.6784 33.7663C38.7875 34.7972 38.447 35.8667 37.6569 36.6569C37.228 37.0857 36.7168 37.3822 36.1741 37.5461C36.1667 39.4656 36.1099 41.6886 35.9568 44.0485C35.9039 44.8626 34.9461 45.2553 34.3283 44.7224L32.4899 43.1368C32.2084 42.894 31.7916 42.894 31.5102 43.1368L29.6717 44.7224C29.0539 45.2553 28.0961 44.8626 28.0433 44.0485C27.8901 41.6886 27.8333 39.4656 27.8259 37.5461C27.2833 37.3822 26.7721 37.0857 26.3432 36.6569C25.553 35.8667 25.2125 34.7972 25.3216 33.7663ZM32 34C33.6569 34 35 32.6569 35 31C35 29.3431 33.6569 28 32 28C30.3431 28 29 29.3431 29 31C29 32.6569 30.3431 34 32 34Z"
     clip-rule="evenodd"
     id="path9050"
     style="fill:#d63232;fill-opacity:1" />
  <path
     fill="#606668"
     d="M10.0453 13.7702C10.1276 12.7324 10.9949 12.1038 12.0357 12.0803C13.6733 12.0432 16.7141 12 22.0001 12C27.2855 12 30.3262 12.0431 31.9639 12.0802C33.0051 12.1038 33.8725 12.7327 33.9548 13.7708C33.9823 14.1188 34 14.5325 34 15.0213C34 15.4938 33.9835 15.8961 33.9575 16.2366C33.8768 17.2942 32.9873 17.9299 31.9268 17.946C30.2804 17.9711 27.2458 18 22.0001 18C16.7538 18 13.7191 17.9711 12.0729 17.946C11.0127 17.9299 10.1234 17.2945 10.0426 16.2372C10.0165 15.8965 10 15.494 10 15.0213C10 14.5322 10.0177 14.1183 10.0453 13.7702Z"
     id="path9052"
     style="fill:#606668;fill-opacity:1" />
  <path
     fill="#606668"
     d="M10.0074 24.2106C10.0317 22.9571 10.9791 22.0597 12.2325 22.0291C12.9267 22.0121 13.8318 22 15 22C16.1682 22 17.0731 22.0121 17.7673 22.0291C19.0208 22.0597 19.9683 22.9573 19.9926 24.2109C19.9973 24.4547 20 24.7241 20 25.0213C20 25.2798 19.9979 25.5173 19.9943 25.7352C19.9726 27.036 18.9697 27.9614 17.669 27.9818C16.9883 27.9925 16.1138 28 15 28C13.8861 28 13.0115 27.9925 12.3308 27.9818C11.0302 27.9614 10.0275 27.0361 10.0057 25.7356C10.0021 25.5176 10 25.2799 10 25.0213C10 24.724 10.0027 24.4545 10.0074 24.2106Z"
     id="path9054"
     style="fill:#606668;fill-opacity:1" />
</svg>
