<?xml version="1.0" encoding="UTF-8" standalone="no"?>
<svg
   fill="none"
   viewBox="0 0 48 48"
   height="256"
   width="256"
   version="1.1"
   id="svg6"
   sodipodi:docname="burger_white_press.svg"
   inkscape:version="1.2.1 (9c6d41e410, 2022-07-14)"
   xmlns:inkscape="http://www.inkscape.org/namespaces/inkscape"
   xmlns:sodipodi="http://sodipodi.sourceforge.net/DTD/sodipodi-0.dtd"
   xmlns="http://www.w3.org/2000/svg"
   xmlns:svg="http://www.w3.org/2000/svg">
  <path
     id="path589"
     d="m 24.000184,8.699945 c -9.392481,0 -13.867125,0.1357507 -15.9221561,0.2406005 -1.0387339,0.05292 -1.887222,0.6705398 -1.9986328,1.7046385 -0.047061,0.43686 -0.079102,0.981762 -0.079102,1.654871 0,0.673109 0.032041,1.217681 0.079102,1.654541 0.1114108,1.034098 0.9598989,1.652048 1.9986328,1.704968 2.0550311,0.10485 6.5296751,0.240271 15.9221561,0.240271 9.392481,0 13.867097,-0.135421 15.922156,-0.240271 1.038689,-0.05292 1.887212,-0.67087 1.998632,-1.704968 0.04707,-0.43686 0.0791,-0.981432 0.0791,-1.654541 0,-0.673109 -0.03203,-1.218011 -0.0791,-1.654871 C 41.809552,9.6110853 40.961029,8.9934655 39.92234,8.9405455 37.867281,8.8356957 33.392665,8.699945 24.000184,8.699945 Z m 0,11.70011 c -9.392481,0 -13.867125,0.135421 -15.9221561,0.240271 -1.0387339,0.05292 -1.887222,0.670869 -1.9986328,1.704968 -0.047061,0.436859 -0.079102,0.981431 -0.079102,1.654541 0,0.673109 0.032041,1.218011 0.079102,1.654871 0.1114108,1.034099 0.9598989,1.651718 1.9986328,1.704638 2.0550311,0.10485 6.5296751,0.240601 15.9221561,0.240601 9.392481,0 13.867097,-0.135751 15.922156,-0.240601 1.038689,-0.05292 1.887212,-0.670539 1.998632,-1.704638 0.04707,-0.43686 0.0791,-0.981762 0.0791,-1.654871 0,-0.67311 -0.03203,-1.217682 -0.0791,-1.654541 -0.11142,-1.034099 -0.959943,-1.652049 -1.998632,-1.704968 -2.055059,-0.10485 -6.529675,-0.240271 -15.922156,-0.240271 z m 0,11.69978 c -9.392481,0 -13.867125,0.135751 -15.9221561,0.240601 -1.0387339,0.05292 -1.887222,0.670539 -1.9986328,1.704639 -0.047061,0.436859 -0.079102,0.98176 -0.079102,1.65487 0,0.673109 0.032041,1.218011 0.079102,1.654871 0.1114108,1.034099 0.9598989,1.651718 1.9986328,1.704638 2.0550311,0.10485 6.5296751,0.240601 15.9221561,0.240601 9.392481,0 13.867097,-0.135751 15.922156,-0.240601 1.038689,-0.05292 1.887212,-0.670539 1.998632,-1.704638 0.04707,-0.43686 0.0791,-0.981762 0.0791,-1.654871 0,-0.67311 -0.03203,-1.218011 -0.0791,-1.65487 -0.11142,-1.0341 -0.959943,-1.651719 -1.998632,-1.704639 -2.055059,-0.10485 -6.529675,-0.240601 -15.922156,-0.240601 z"
     style="fill:#edf1e9;fill-opacity:1;stroke-width:0.9" />
  <defs
     id="defs10" />
  <sodipodi:namedview
     id="namedview8"
     pagecolor="#ffffff"
     bordercolor="#666666"
     borderopacity="1.0"
     inkscape:showpageshadow="2"
     inkscape:pageopacity="0.0"
     inkscape:pagecheckerboard="true"
     inkscape:deskcolor="#d1d1d1"
     showgrid="true"
     inkscape:zoom="1.6191406"
     inkscape:cx="-24.086852"
     inkscape:cy="73.186973"
     inkscape:current-layer="svg6"
     showguides="false"
     inkscape:window-width="1920"
     inkscape:window-height="730"
     inkscape:window-x="-6"
     inkscape:window-y="-6"
     inkscape:window-maximized="1">
    <inkscape:grid
       type="xygrid"
       id="grid239"
       units="px"
       spacingx="1.5"
       spacingy="1.5" />
  </sodipodi:namedview>
</svg>
