<?xml version="1.0" encoding="UTF-8" standalone="no"?>
<svg
   fill="none"
   viewBox="0 0 48 48"
   height="256"
   width="256"
   version="1.1"
   id="svg6"
   sodipodi:docname="burger_hover.svg"
   inkscape:version="1.2.1 (9c6d41e410, 2022-07-14)"
   xmlns:inkscape="http://www.inkscape.org/namespaces/inkscape"
   xmlns:sodipodi="http://sodipodi.sourceforge.net/DTD/sodipodi-0.dtd"
   xmlns="http://www.w3.org/2000/svg"
   xmlns:svg="http://www.w3.org/2000/svg">
  <path
     id="rect2039"
     style="fill:#828480;stroke-width:1.3125;stroke-linecap:round;stroke-linejoin:round;stroke-opacity:0.814302;fill-opacity:1"
     d="m 24.000366,4.4498291 c 12.001492,0 17.718943,0.1736426 20.344849,0.3076172 1.327213,0.06762 2.411219,0.8568754 2.553589,2.1782226 0.06014,0.5582089 0.101074,1.254419 0.101074,2.114502 0,0.8600829 -0.04093,1.5559261 -0.101074,2.1141361 -0.14237,1.321346 -1.226376,2.110969 -2.553589,2.178589 -2.625906,0.133974 -8.343357,0.306884 -20.344849,0.306884 -12.001491,0 -17.7193444,-0.17291 -20.3452146,-0.306884 C 2.3278816,13.275276 1.2439207,12.485653 1.1015625,11.164307 1.0414289,10.606097 1.0004883,9.9102538 1.0004883,9.0501709 c 0,-0.860083 0.04094,-1.5562931 0.1010742,-2.114502 C 1.2439207,5.6143217 2.3278816,4.8250662 3.6551514,4.7574463 6.2810216,4.6234717 11.998875,4.4498291 24.000366,4.4498291 Z m 0,14.9501949 c 12.001492,0 17.718943,0.17291 20.344849,0.306885 1.327213,0.06762 2.411219,0.857241 2.553589,2.178589 0.06014,0.558208 0.101074,1.254052 0.101074,2.114136 0,0.860082 -0.04093,1.556659 -0.101074,2.114868 -0.14237,1.321348 -1.226376,2.110236 -2.553589,2.177856 -2.625906,0.133975 -8.343357,0.307618 -20.344849,0.307618 -12.001491,0 -17.7193444,-0.173643 -20.3452146,-0.307618 C 2.3278816,28.224738 1.2439207,27.43585 1.1015625,26.114502 1.0414289,25.556293 1.0004883,24.859716 1.0004883,23.999634 c 0,-0.860084 0.04094,-1.555928 0.1010742,-2.114136 0.1423582,-1.321348 1.2263191,-2.110969 2.5535889,-2.178589 2.6258702,-0.133975 8.3437236,-0.306885 20.3452146,-0.306885 z m 0,14.94983 c 12.001492,0 17.718943,0.173276 20.344849,0.30725 1.327213,0.06762 2.411219,0.856875 2.553589,2.178223 0.06014,0.558209 0.101074,1.254418 0.101074,2.114502 0,0.860083 -0.04093,1.556293 -0.101074,2.114502 -0.14237,1.321347 -1.226376,2.110603 -2.553589,2.178223 -2.625906,0.133975 -8.343357,0.307617 -20.344849,0.307617 -12.001491,0 -17.7193444,-0.173642 -20.3452146,-0.307617 -1.3272698,-0.06762 -2.4112307,-0.856876 -2.5535889,-2.178223 -0.060134,-0.558209 -0.1010742,-1.254419 -0.1010742,-2.114502 0,-0.860084 0.04094,-1.556293 0.1010742,-2.114502 0.1423582,-1.321348 1.2263191,-2.110603 2.5535889,-2.178223 2.6258702,-0.133974 8.3437236,-0.30725 20.3452146,-0.30725 z"
     sodipodi:nodetypes="scssccsccsccsscssccsccsccsscssscscssccs" />
  <defs
     id="defs10" />
  <sodipodi:namedview
     id="namedview8"
     pagecolor="#ffffff"
     bordercolor="#666666"
     borderopacity="1.0"
     inkscape:showpageshadow="2"
     inkscape:pageopacity="0.0"
     inkscape:pagecheckerboard="true"
     inkscape:deskcolor="#d1d1d1"
     showgrid="true"
     inkscape:zoom="1.1449053"
     inkscape:cx="-46.292038"
     inkscape:cy="76.425535"
     inkscape:current-layer="svg6"
     showguides="false"
     inkscape:window-width="1920"
     inkscape:window-height="730"
     inkscape:window-x="-6"
     inkscape:window-y="-6"
     inkscape:window-maximized="1">
    <inkscape:grid
       type="xygrid"
       id="grid239"
       units="px"
       spacingx="1.5"
       spacingy="1.5" />
  </sodipodi:namedview>
</svg>
