<?xml version="1.0" encoding="UTF-8" standalone="no"?>
<svg
   fill="none"
   viewBox="0 0 48 48"
   height="256"
   width="256"
   version="1.1"
   id="svg6"
   sodipodi:docname="burger_white_hover.svg"
   inkscape:version="1.2.1 (9c6d41e410, 2022-07-14)"
   xmlns:inkscape="http://www.inkscape.org/namespaces/inkscape"
   xmlns:sodipodi="http://sodipodi.sourceforge.net/DTD/sodipodi-0.dtd"
   xmlns="http://www.w3.org/2000/svg"
   xmlns:svg="http://www.w3.org/2000/svg">
  <path
     id="path589"
     d="m 24.000184,4.4499297 c -12.001503,0 -17.7191042,0.1734593 -20.3449771,0.307434 -1.3272711,0.06762 -2.4114502,0.8568009 -2.5538085,2.1781495 -0.060134,0.5582094 -0.1010747,1.2544731 -0.1010747,2.114557 0,0.8600838 0.040941,1.5559258 0.1010747,2.1141358 0.1423583,1.321348 1.2265374,2.11095 2.5538085,2.17857 2.6258729,0.133975 8.3434741,0.307014 20.3449771,0.307014 12.001504,0 17.719069,-0.173039 20.344977,-0.307014 1.327214,-0.06762 2.411438,-0.857222 2.553808,-2.17857 0.06014,-0.55821 0.101074,-1.254052 0.101074,-2.1141358 0,-0.8600839 -0.04093,-1.5563476 -0.101074,-2.114557 C 46.756599,5.6141646 45.672375,4.8249837 44.345161,4.7573637 41.719253,4.623389 36.001688,4.4499297 24.000184,4.4499297 Z m 0,14.9501403 c -12.001503,0 -17.7191042,0.173038 -20.3449771,0.307013 -1.3272711,0.06762 -2.4114502,0.857222 -2.5538085,2.178571 -0.060134,0.558209 -0.1010747,1.254051 -0.1010747,2.114136 0,0.860083 0.040941,1.556346 0.1010747,2.114556 0.1423583,1.321349 1.2265374,2.11053 2.5538085,2.17815 2.6258729,0.133975 8.3434741,0.307434 20.3449771,0.307434 12.001504,0 17.719069,-0.173459 20.344977,-0.307434 1.327214,-0.06762 2.411438,-0.856801 2.553808,-2.17815 0.06014,-0.55821 0.101074,-1.254473 0.101074,-2.114556 0,-0.860085 -0.04093,-1.555927 -0.101074,-2.114136 -0.14237,-1.321349 -1.226594,-2.110952 -2.553808,-2.178571 C 41.719253,19.573108 36.001688,19.40007 24.000184,19.40007 Z m 0,14.94972 c -12.001503,0 -17.7191042,0.173459 -20.3449771,0.307434 -1.3272711,0.06762 -2.4114502,0.8568 -2.5538085,2.178149 -0.060134,0.558209 -0.1010747,1.254472 -0.1010747,2.114557 0,0.860084 0.040941,1.556347 0.1010747,2.114557 0.1423583,1.321348 1.2265374,2.110529 2.5538085,2.178149 2.6258729,0.133975 8.3434741,0.307434 20.3449771,0.307434 12.001504,0 17.719069,-0.173459 20.344977,-0.307434 1.327214,-0.06762 2.411438,-0.856801 2.553808,-2.178149 0.06014,-0.55821 0.101074,-1.254473 0.101074,-2.114557 0,-0.860085 -0.04093,-1.556348 -0.101074,-2.114557 -0.14237,-1.321349 -1.226594,-2.110529 -2.553808,-2.178149 C 41.719253,34.523249 36.001688,34.34979 24.000184,34.34979 Z"
     style="fill:#edf1e9;fill-opacity:1;stroke-width:1.15" />
  <defs
     id="defs10" />
  <sodipodi:namedview
     id="namedview8"
     pagecolor="#ffffff"
     bordercolor="#666666"
     borderopacity="1.0"
     inkscape:showpageshadow="2"
     inkscape:pageopacity="0.0"
     inkscape:pagecheckerboard="true"
     inkscape:deskcolor="#d1d1d1"
     showgrid="true"
     inkscape:zoom="1.6191406"
     inkscape:cx="-35.821472"
     inkscape:cy="68.863692"
     inkscape:current-layer="svg6"
     showguides="false"
     inkscape:window-width="1920"
     inkscape:window-height="730"
     inkscape:window-x="-6"
     inkscape:window-y="-6"
     inkscape:window-maximized="1">
    <inkscape:grid
       type="xygrid"
       id="grid239"
       units="px"
       spacingx="1.5"
       spacingy="1.5" />
  </sodipodi:namedview>
</svg>
