<?xml version="1.0" encoding="UTF-8" standalone="no"?>
<svg
   fill="none"
   viewBox="0 0 48 48"
   height="256"
   width="256"
   version="1.1"
   id="svg6"
   sodipodi:docname="burger_white.svg"
   inkscape:version="1.2.1 (9c6d41e410, 2022-07-14)"
   xmlns:inkscape="http://www.inkscape.org/namespaces/inkscape"
   xmlns:sodipodi="http://sodipodi.sourceforge.net/DTD/sodipodi-0.dtd"
   xmlns="http://www.w3.org/2000/svg"
   xmlns:svg="http://www.w3.org/2000/svg">
  <path
     id="path589"
     d="m 24.000184,6.9999389 c -10.43609,0 -15.4079168,0.1508341 -17.6912845,0.2673339 -1.1541488,0.0588 -2.0969133,0.7450442 -2.2207031,1.894043 -0.05229,0.4853995 -0.087891,1.0908462 -0.087891,1.8387452 0,0.747899 0.035601,1.352979 0.087891,1.838379 0.1237898,1.148998 1.0665543,1.835609 2.2207031,1.894409 2.2833677,0.1165 7.2551945,0.266968 17.6912845,0.266968 10.43609,0 15.407886,-0.150468 17.691284,-0.266968 1.154099,-0.0588 2.096903,-0.745411 2.220703,-1.894409 0.0523,-0.4854 0.08789,-1.09048 0.08789,-1.838379 0,-0.747899 -0.03559,-1.3533457 -0.08789,-1.8387452 C 43.788371,8.012317 42.845567,7.3260728 41.691468,7.2672728 39.40807,7.150773 34.436274,6.9999389 24.000184,6.9999389 Z m 0,13.0001221 c -10.43609,0 -15.4079168,0.150468 -17.6912845,0.266968 -1.1541488,0.0588 -2.0969133,0.74541 -2.2207031,1.894409 -0.05229,0.485399 -0.087891,1.090479 -0.087891,1.838379 0,0.747899 0.035601,1.353345 0.087891,1.838745 0.1237898,1.148999 1.0665543,1.835243 2.2207031,1.894043 2.2833677,0.1165 7.2551945,0.267334 17.6912845,0.267334 10.43609,0 15.407886,-0.150834 17.691284,-0.267334 1.154099,-0.0588 2.096903,-0.745044 2.220703,-1.894043 0.0523,-0.4854 0.08789,-1.090846 0.08789,-1.838745 0,-0.7479 -0.03559,-1.35298 -0.08789,-1.838379 -0.1238,-1.148999 -1.066604,-1.83561 -2.220703,-1.894409 -2.283398,-0.1165 -7.255194,-0.266968 -17.691284,-0.266968 z m 0,12.999756 c -10.43609,0 -15.4079168,0.150834 -17.6912845,0.267334 -1.1541488,0.0588 -2.0969133,0.745044 -2.2207031,1.894043 -0.05229,0.485399 -0.087891,1.090845 -0.087891,1.838745 0,0.747899 0.035601,1.353345 0.087891,1.838745 0.1237898,1.148999 1.0665543,1.835243 2.2207031,1.894043 2.2833677,0.1165 7.2551945,0.267334 17.6912845,0.267334 10.43609,0 15.407886,-0.150834 17.691284,-0.267334 1.154099,-0.0588 2.096903,-0.745044 2.220703,-1.894043 0.0523,-0.4854 0.08789,-1.090846 0.08789,-1.838745 0,-0.7479 -0.03559,-1.353346 -0.08789,-1.838745 -0.1238,-1.148999 -1.066604,-1.835243 -2.220703,-1.894043 -2.283398,-0.1165 -7.255194,-0.267334 -17.691284,-0.267334 z"
     style="fill:#edf1e9;fill-opacity:1" />
  <defs
     id="defs10" />
  <sodipodi:namedview
     id="namedview8"
     pagecolor="#ffffff"
     bordercolor="#666666"
     borderopacity="1.0"
     inkscape:showpageshadow="2"
     inkscape:pageopacity="0.0"
     inkscape:pagecheckerboard="true"
     inkscape:deskcolor="#d1d1d1"
     showgrid="true"
     inkscape:zoom="1.1449053"
     inkscape:cx="-96.95125"
     inkscape:cy="21.39915"
     inkscape:current-layer="svg6"
     showguides="false"
     inkscape:window-width="1920"
     inkscape:window-height="730"
     inkscape:window-x="-6"
     inkscape:window-y="-6"
     inkscape:window-maximized="1">
    <inkscape:grid
       type="xygrid"
       id="grid239"
       units="px"
       spacingx="1.5"
       spacingy="1.5" />
  </sodipodi:namedview>
</svg>
