<?xml version="1.0" encoding="UTF-8" standalone="no"?>
<svg
   fill="none"
   viewBox="0 0 48 48"
   height="256"
   width="256"
   version="1.1"
   id="svg308"
   sodipodi:docname="close_white_hover.svg"
   inkscape:version="1.2.1 (9c6d41e410, 2022-07-14)"
   xmlns:inkscape="http://www.inkscape.org/namespaces/inkscape"
   xmlns:sodipodi="http://sodipodi.sourceforge.net/DTD/sodipodi-0.dtd"
   xmlns="http://www.w3.org/2000/svg"
   xmlns:svg="http://www.w3.org/2000/svg">
  <defs
     id="defs312" />
  <sodipodi:namedview
     id="namedview310"
     pagecolor="#ffffff"
     bordercolor="#666666"
     borderopacity="1.0"
     inkscape:showpageshadow="2"
     inkscape:pageopacity="0.0"
     inkscape:pagecheckerboard="true"
     inkscape:deskcolor="#d1d1d1"
     showgrid="false"
     inkscape:zoom="1.6191406"
     inkscape:cx="80.289507"
     inkscape:cy="143.9035"
     inkscape:current-layer="svg308"
     inkscape:window-width="2560"
     inkscape:window-height="1316"
     inkscape:window-x="2548"
     inkscape:window-y="-12"
     inkscape:window-maximized="1" />
  <path
     id="rect285"
     style="fill:#ffffff;stroke-width:1.3125;stroke-linecap:round;stroke-linejoin:round;stroke-opacity:0.814302;fill-opacity:1"
     d="M 7.8618164,0.00109863 C 8.7504167,0.02363143 9.639347,0.40707665 10.364502,1.071167 11.820614,2.4044576 20.543167,10.98816 24,14.374878 27.456833,10.98816 36.179386,2.4044576 37.635498,1.071167 c 1.289165,-1.18060507 3.09609,-1.47429404 4.497803,-0.42993165 0.769824,0.57374145 1.707059,1.36318755 2.784668,2.44079585 1.077608,1.0776084 1.867053,2.0148437 2.440796,2.784668 1.044361,1.4017123 0.750674,3.2086383 -0.429932,4.4978028 C 45.595543,11.820614 37.011839,20.543167 33.625122,24 c 3.386717,3.456833 11.970421,12.179386 13.303711,13.635498 1.180606,1.289165 1.474293,3.09609 0.429932,4.497803 -0.573743,0.769824 -1.363188,1.707059 -2.440796,2.784668 -1.077609,1.077608 -2.014844,1.867053 -2.784668,2.440796 -1.401713,1.044361 -3.208638,0.750674 -4.497803,-0.429932 C 36.179386,45.595543 27.456833,37.011839 24,33.625122 20.543167,37.011839 11.820614,45.595543 10.364502,46.928833 9.0753375,48.109439 7.2684115,48.403126 5.8666992,47.358765 5.0968749,46.785022 4.1596396,45.995577 3.0820312,44.917969 2.0044229,43.84036 1.2149768,42.903125 0.64123535,42.133301 -0.40312704,40.731588 -0.10943807,38.924663 1.071167,37.635498 2.4044576,36.179386 10.98816,27.456833 14.374878,24 10.98816,20.543167 2.4044576,11.820614 1.071167,10.364502 -0.10943807,9.0753375 -0.40312704,7.2684115 0.64123535,5.8666992 1.2149768,5.0968749 2.0044229,4.1596396 3.0820312,3.0820312 4.1596396,2.0044229 5.0968749,1.2149768 5.8666992,0.64123535 6.4799483,0.1843268 7.1706828,-0.01642688 7.8618164,0.00109863 Z"
     sodipodi:nodetypes="sccccscccccscccccscccccscs" />
</svg>
