<?xml version="1.0" encoding="UTF-8" standalone="no"?>
<svg
   fill="none"
   viewBox="0 0 48 48"
   height="256"
   width="256"
   version="1.1"
   id="svg308"
   sodipodi:docname="close.svg"
   inkscape:version="1.2.1 (9c6d41e410, 2022-07-14)"
   xmlns:inkscape="http://www.inkscape.org/namespaces/inkscape"
   xmlns:sodipodi="http://sodipodi.sourceforge.net/DTD/sodipodi-0.dtd"
   xmlns="http://www.w3.org/2000/svg"
   xmlns:svg="http://www.w3.org/2000/svg">
  <defs
     id="defs312" />
  <sodipodi:namedview
     id="namedview310"
     pagecolor="#ffffff"
     bordercolor="#666666"
     borderopacity="1.0"
     inkscape:showpageshadow="2"
     inkscape:pageopacity="0.0"
     inkscape:pagecheckerboard="true"
     inkscape:deskcolor="#d1d1d1"
     showgrid="false"
     inkscape:zoom="3.2382812"
     inkscape:cx="47.556092"
     inkscape:cy="151.77805"
     inkscape:current-layer="svg308"
     inkscape:window-width="1920"
     inkscape:window-height="730"
     inkscape:window-x="-6"
     inkscape:window-y="-6"
     inkscape:window-maximized="1" />
  <path
     fill="#d63232"
     fill-rule="evenodd"
     d="M 42.872426,43.162318 C 41.58752,44.119652 39.930938,43.850482 38.749201,42.768258 37.414428,41.546072 27.168864,31.427725 24.000093,28.323227 20.831323,31.427725 10.585759,41.546072 9.250986,42.768258 8.069249,43.850482 6.4126673,44.119652 5.1277613,43.162318 L 4.8378693,42.872426 C 3.8805348,41.58752 4.1497054,39.930938 5.2319293,38.749201 6.4541153,37.414428 16.572462,27.168864 19.67696,24.000093 16.572462,20.831323 6.4541153,10.585759 5.2319293,9.250986 4.1497054,8.069249 3.8805348,6.4126673 4.8378693,5.1277613 l 0.289892,-0.289892 C 6.4126673,3.8805348 8.069249,4.1497054 9.250986,5.2319293 10.585759,6.4541153 20.831323,16.572462 24.000093,19.67696 27.168864,16.572462 37.414428,6.4541153 38.749201,5.2319293 39.930938,4.1497054 41.58752,3.8805348 42.872426,4.8378693 l 0.289892,0.289892 c 0.957334,1.284906 0.688164,2.9414877 -0.39406,4.1232247 -1.222186,1.334773 -11.340533,11.580337 -14.445031,14.749107 3.104498,3.168771 13.222845,13.414335 14.445031,14.749108 1.082224,1.181737 1.351394,2.838319 0.39406,4.123225 z"
     clip-rule="evenodd"
     id="path132"
     sodipodi:nodetypes="ccccccccccccccccccccc"
     style="stroke-width:1.56717;fill:#d63232;fill-opacity:1" />
</svg>
