<?xml version="1.0" encoding="UTF-8" standalone="no"?>
<svg
   fill="none"
   viewBox="0 0 48 48"
   height="256"
   width="256"
   version="1.1"
   id="svg308"
   sodipodi:docname="close_press.svg"
   inkscape:version="1.2.1 (9c6d41e410, 2022-07-14)"
   xmlns:inkscape="http://www.inkscape.org/namespaces/inkscape"
   xmlns:sodipodi="http://sodipodi.sourceforge.net/DTD/sodipodi-0.dtd"
   xmlns="http://www.w3.org/2000/svg"
   xmlns:svg="http://www.w3.org/2000/svg">
  <defs
     id="defs312" />
  <sodipodi:namedview
     id="namedview310"
     pagecolor="#ffffff"
     bordercolor="#666666"
     borderopacity="1.0"
     inkscape:showpageshadow="2"
     inkscape:pageopacity="0.0"
     inkscape:pagecheckerboard="0"
     inkscape:deskcolor="#d1d1d1"
     showgrid="false"
     inkscape:zoom="1.6191406"
     inkscape:cx="-36.439084"
     inkscape:cy="168.91677"
     inkscape:current-layer="svg308"
     inkscape:window-width="1920"
     inkscape:window-height="730"
     inkscape:window-x="-6"
     inkscape:window-y="-6"
     inkscape:window-maximized="1" />
  <path
     fill="#d63232"
     fill-rule="evenodd"
     d="m 38.960193,43.271096 c -1.156416,0.8616 -2.647339,0.619347 -3.710903,-0.354654 C 34.047995,41.816474 26.851987,34.734962 24.000093,31.940914 21.1482,34.734962 13.952192,41.816474 12.750897,42.916442 11.687333,43.890443 10.19641,44.132696 9.0399945,43.271096 8.4048879,42.797758 7.6318509,42.146394 6.7428219,41.257365 5.8537929,40.368336 5.2024296,39.595299 4.7290917,38.960193 3.8674907,37.803777 4.1097442,36.312854 5.0837457,35.24929 6.1837131,34.047995 13.265225,26.851987 16.059273,24.000093 13.265225,21.1482 6.1837131,13.952192 5.0837457,12.750897 4.1097442,11.687333 3.8674907,10.19641 4.7290917,9.0399945 5.2024296,8.4048879 5.8537929,7.6318509 6.7428219,6.7428219 7.6318509,5.8537929 8.4048879,5.2024296 9.0399945,4.7290917 10.19641,3.8674907 11.687333,4.1097442 12.750897,5.0837457 13.952192,6.1837131 21.1482,13.265225 24.000093,16.059273 26.851987,13.265225 34.047995,6.1837131 35.24929,5.0837457 c 1.063564,-0.9740015 2.554487,-1.216255 3.710903,-0.354654 0.635106,0.4733379 1.408143,1.1247012 2.297172,2.0137302 0.889029,0.889029 1.540393,1.662066 2.013731,2.2971726 0.8616,1.1564155 0.619347,2.6473385 -0.354654,3.7109025 -1.099968,1.201295 -8.18148,8.397303 -10.975528,11.249196 2.794048,2.851894 9.87556,10.047902 10.975528,11.249197 0.974001,1.063564 1.216254,2.554487 0.354654,3.710903 -0.473338,0.635106 -1.124702,1.408143 -2.013731,2.297172 -0.889029,0.889029 -1.662066,1.540393 -2.297172,2.013731 z"
     clip-rule="evenodd"
     id="path132"
     sodipodi:nodetypes="cccccscccccscccccscccccsc"
     style="stroke-width:1.41045;fill:#d63232;fill-opacity:1" />
</svg>
