<?xml version="1.0" encoding="UTF-8" standalone="no"?>
<svg
   fill="none"
   viewBox="0 0 48 48"
   height="256"
   width="256"
   version="1.1"
   id="svg308"
   sodipodi:docname="close_white_press.svg"
   inkscape:version="1.2.1 (9c6d41e410, 2022-07-14)"
   xmlns:inkscape="http://www.inkscape.org/namespaces/inkscape"
   xmlns:sodipodi="http://sodipodi.sourceforge.net/DTD/sodipodi-0.dtd"
   xmlns="http://www.w3.org/2000/svg"
   xmlns:svg="http://www.w3.org/2000/svg">
  <defs
     id="defs312" />
  <sodipodi:namedview
     id="namedview310"
     pagecolor="#ffffff"
     bordercolor="#666666"
     borderopacity="1.0"
     inkscape:showpageshadow="2"
     inkscape:pageopacity="0.0"
     inkscape:pagecheckerboard="true"
     inkscape:deskcolor="#d1d1d1"
     showgrid="false"
     inkscape:zoom="2.2898106"
     inkscape:cx="37.557692"
     inkscape:cy="165.51587"
     inkscape:current-layer="svg308"
     inkscape:window-width="2560"
     inkscape:window-height="1316"
     inkscape:window-x="2548"
     inkscape:window-y="-12"
     inkscape:window-maximized="1" />
  <path
     id="rect285"
     style="fill:#ffffff;stroke-width:1.3125;stroke-linecap:round;stroke-linejoin:round;stroke-opacity:0.814302;fill-opacity:1"
     d="m 10.686035,4.2008057 c 0.733096,0.01859 1.466443,0.3350592 2.064697,0.8829345 C 13.952026,6.1837065 21.14811,13.265403 24,16.059448 26.851891,13.265403 34.047974,6.1837065 35.249268,5.0837402 c 1.063563,-0.9740005 2.5544,-1.2160923 3.710815,-0.3544922 0.635105,0.4733375 1.408213,1.1243997 2.297241,2.0134278 0.889028,0.8890281 1.540457,1.6621352 2.013794,2.2972412 0.861599,1.156414 0.619142,2.647252 -0.354858,3.710815 C 41.816293,13.952026 34.734963,21.14811 31.940918,24 c 2.794045,2.851891 9.875375,10.047974 10.975342,11.249268 0.974,1.063563 1.216457,2.5544 0.354858,3.710815 -0.473337,0.635105 -1.124766,1.408213 -2.013794,2.297241 -0.889028,0.889028 -1.662136,1.540457 -2.297241,2.013794 C 37.803668,44.132717 36.312831,43.89026 35.249268,42.91626 34.047974,41.816293 26.851891,34.734963 24,31.940918 21.14811,34.734963 13.952026,41.816293 12.750732,42.91626 11.687169,43.89026 10.196331,44.132717 9.039917,43.271118 8.404811,42.797781 7.6317039,42.146352 6.7426758,41.257324 5.8536477,40.368296 5.2025855,39.595188 4.729248,38.960083 3.8676479,37.803668 4.1097397,36.312831 5.0837402,35.249268 6.1837065,34.047974 13.265403,26.851891 16.059448,24 13.265403,21.14811 6.1837065,13.952026 5.0837402,12.750732 4.1097397,11.687169 3.8676479,10.196331 4.729248,9.039917 5.2025855,8.404811 5.8536477,7.6317039 6.7426758,6.7426758 7.6317039,5.8536477 8.404811,5.2025855 9.039917,4.729248 9.5458483,4.352298 10.115849,4.1863471 10.686035,4.2008057 Z"
     sodipodi:nodetypes="sccccscccccscccccscccccscs" />
</svg>
