<?xml version="1.0" encoding="UTF-8" standalone="no"?>
<svg
   fill="none"
   viewBox="0 0 48 48"
   height="256"
   width="256"
   version="1.1"
   id="svg308"
   sodipodi:docname="plus.svg"
   inkscape:version="1.2.1 (9c6d41e410, 2022-07-14)"
   xmlns:inkscape="http://www.inkscape.org/namespaces/inkscape"
   xmlns:sodipodi="http://sodipodi.sourceforge.net/DTD/sodipodi-0.dtd"
   xmlns="http://www.w3.org/2000/svg"
   xmlns:svg="http://www.w3.org/2000/svg">
  <defs
     id="defs312" />
  <sodipodi:namedview
     id="namedview310"
     pagecolor="#ffffff"
     bordercolor="#666666"
     borderopacity="1.0"
     inkscape:showpageshadow="2"
     inkscape:pageopacity="0.0"
     inkscape:pagecheckerboard="0"
     inkscape:deskcolor="#d1d1d1"
     showgrid="false"
     inkscape:zoom="1.1449053"
     inkscape:cx="-182.54785"
     inkscape:cy="136.69253"
     inkscape:current-layer="svg308"
     inkscape:window-width="1920"
     inkscape:window-height="730"
     inkscape:window-x="-6"
     inkscape:window-y="-6"
     inkscape:window-maximized="1" />
  <path
     fill="#77c32f"
     fill-rule="evenodd"
     d="m 45.422615,26.697862 c -0.184502,1.262922 -1.269163,2.044368 -2.544319,2.10042 -1.440183,0.0634 -10.375386,0.135066 -13.908747,0.171267 -0.03621,3.533361 -0.107855,12.468564 -0.171268,13.908747 -0.05605,1.275156 -0.837497,2.359817 -2.100419,2.544319 C 26.004172,45.523854 25.11275,45.6 24,45.6 22.88725,45.6 21.995828,45.523846 21.302137,45.422615 20.039215,45.238113 19.257769,44.153452 19.201719,42.878296 19.138306,41.438113 19.066652,32.50291 19.030451,28.969549 15.49709,28.933348 6.5618877,28.861694 5.121704,28.798281 3.8465488,28.74223 2.7618865,27.960784 2.5773848,26.697862 2.4761462,26.004172 2.4,25.11275 2.4,24 2.4,22.88725 2.4761463,21.995828 2.5773848,21.302137 2.7618865,20.039215 3.8465488,19.257769 5.121704,19.201719 6.5618877,19.138306 15.49709,19.066653 19.030451,19.030451 19.066652,15.49709 19.138306,6.5618879 19.201719,5.1217041 19.257772,3.8465489 20.039215,2.7618864 21.302137,2.5773848 21.995828,2.4761462 22.88725,2.4 24,2.4 c 1.11275,0 2.004172,0.076146 2.697862,0.1773848 1.262922,0.184502 2.044368,1.269164 2.100419,2.5443192 0.0634,1.4401837 0.135066,10.375386 0.171268,13.908747 3.533361,0.03621 12.468564,0.107855 13.908747,0.171268 1.275156,0.05605 2.359817,0.837496 2.544319,2.100418 C 45.523854,21.995828 45.6,22.88725 45.6,24 c 0,1.11275 -0.07615,2.004172 -0.177385,2.697862 z"
     clip-rule="evenodd"
     id="path132"
     sodipodi:nodetypes="cccccscccccscccccscccccsc"
     style="stroke-width:1.24832;fill:#77c32f;fill-opacity:1" />
</svg>
