<?xml version="1.0" encoding="UTF-8" standalone="no"?>
<svg
   fill="none"
   viewBox="0 0 48 48"
   height="256"
   width="256"
   version="1.1"
   id="svg308"
   sodipodi:docname="window_insert.svg"
   inkscape:version="1.2.1 (9c6d41e410, 2022-07-14)"
   xmlns:inkscape="http://www.inkscape.org/namespaces/inkscape"
   xmlns:sodipodi="http://sodipodi.sourceforge.net/DTD/sodipodi-0.dtd"
   xmlns="http://www.w3.org/2000/svg"
   xmlns:svg="http://www.w3.org/2000/svg">
  <defs
     id="defs312" />
  <sodipodi:namedview
     id="namedview310"
     pagecolor="#ffffff"
     bordercolor="#666666"
     borderopacity="1.0"
     inkscape:showpageshadow="2"
     inkscape:pageopacity="0.0"
     inkscape:pagecheckerboard="0"
     inkscape:deskcolor="#d1d1d1"
     showgrid="false"
     inkscape:zoom="1.1449053"
     inkscape:cx="-20.088998"
     inkscape:cy="31.880366"
     inkscape:current-layer="svg308"
     inkscape:window-width="1920"
     inkscape:window-height="730"
     inkscape:window-x="-6"
     inkscape:window-y="-6"
     inkscape:window-maximized="1" />
  <path
     fill="#606668"
     d="m 35.919157,9.455678 c 4.044873,0.238982 5.777036,4.110214 3.570504,7.508545 -1.331302,2.050533 -2.965455,4.50748 -4.871913,7.264992 -2.319243,3.354392 -4.50405,5.80889 -6.281787,7.541542 -2.485371,2.422155 -6.186555,2.422155 -8.671925,0 -1.777739,-1.732653 -3.962545,-4.18715 -6.281788,-7.541542 C 11.47579,21.471703 9.8416364,19.014755 8.5103341,16.964223 6.3038023,13.56589 8.0359657,9.69466 12.081002,9.455678 14.946161,9.286611 18.814616,9.162627 23.999998,9.162627 c 5.185383,0 9.053837,0.123983 11.919159,0.293051 z"
     id="path4"
     style="stroke-width:1.6335;fill:#606668;fill-opacity:1" />
  <path
     id="rect1979"
     style="fill:#828480;stroke:none;stroke-width:1.875;stroke-linecap:round;stroke-linejoin:round;fill-opacity:1"
     d="m 6.1237796,34.567899 c 0.06869,-1.114099 0.866165,-1.93685 1.981934,-1.96875 0.262379,-0.0074 0.559167,-0.01172 0.894287,-0.01172 0.335119,0 0.631907,0.0043 0.894287,0.01172 1.1157894,0.0319 1.9132344,0.854651 1.9819344,1.96875 0.0344,0.558099 0.06699,1.26798 0.09009,2.15918 2.401997,-0.0714 6.218797,-0.139893 12.033691,-0.139893 5.814894,0 9.631694,0.06849 12.03369,0.139893 0.0231,-0.8912 0.05569,-1.601081 0.09009,-2.15918 0.0687,-1.114099 0.866135,-1.93685 1.981934,-1.96875 0.2624,-0.0074 0.559188,-0.01172 0.894288,-0.01172 0.335099,0 0.631886,0.0043 0.894286,0.01172 1.1158,0.0319 1.913234,0.854651 1.981935,1.96875 0.116451,2.710491 0.21671,4.730672 0.119682,7.226748 0.0011,0.209469 -0.347857,0.665016 -0.59308,0.663775 L 36.033689,42.44766 C 33.631694,42.51906 29.814894,42.587191 24,42.587191 c -5.814894,0 -9.631694,-0.06813 -12.033691,-0.139526 l -5.4155764,0.01458 C 6.3502643,42.466694 6.0204781,42.123357 5.9985892,41.951362 5.851894,39.559669 5.9704381,37.117375 6.1237796,34.567899 Z"
     sodipodi:nodetypes="ccscccscccscccccscccc" />
</svg>
