<?xml version="1.0" encoding="UTF-8" standalone="no"?>
<svg
   fill="none"
   viewBox="0 0 48 48"
   height="256"
   width="256"
   version="1.1"
   id="svg6"
   sodipodi:docname="red_lightlock.svg"
   inkscape:version="1.2.1 (9c6d41e410, 2022-07-14)"
   xmlns:inkscape="http://www.inkscape.org/namespaces/inkscape"
   xmlns:sodipodi="http://sodipodi.sourceforge.net/DTD/sodipodi-0.dtd"
   xmlns="http://www.w3.org/2000/svg"
   xmlns:svg="http://www.w3.org/2000/svg">
  <defs
     id="defs10" />
  <sodipodi:namedview
     id="namedview8"
     pagecolor="#ffffff"
     bordercolor="#666666"
     borderopacity="1.0"
     inkscape:showpageshadow="2"
     inkscape:pageopacity="0.0"
     inkscape:pagecheckerboard="0"
     inkscape:deskcolor="#d1d1d1"
     showgrid="false"
     inkscape:zoom="1.6191406"
     inkscape:cx="150.38842"
     inkscape:cy="140.50664"
     inkscape:current-layer="svg6"
     inkscape:window-width="1920"
     inkscape:window-height="730"
     inkscape:window-x="-6"
     inkscape:window-y="-6"
     inkscape:window-maximized="1" />
  <path
     fill="#ef2929"
     d="m 45.41872,7.3041225 c -0.2122,-2.55493 -2.1678,-4.51057 -4.7228,-4.72272 -3.3673,-0.27961 -8.8246,-0.58134 -16.6959,-0.58134 -7.8712,-1e-5 -13.3286,0.30173 -16.69593,0.58133 -2.55493,0.21215 -4.51058,2.16779 -4.72272,4.72272 -0.27961,3.3673505 -0.58135,8.8246505 -0.58135,16.6959505 0,7.8712 0.30174,13.3286 0.58134,16.6959 0.21215,2.555 2.16779,4.5106 4.72272,4.7228 3.36734,0.2796 8.82464,0.5813 16.69594,0.5813 7.8712,0 13.3286,-0.3017 16.6959,-0.5813 2.555,-0.2122 4.5106,-2.1678 4.7228,-4.7228 0.2796,-3.3673 0.5813,-8.8247 0.5813,-16.6959 0,-7.8712 -0.3017,-13.3286 -0.5813,-16.6959405 z"
     id="path135-9"
     style="fill:#ef2929;fill-opacity:1" />
  <path
     fill="#a40000"
     fill-rule="evenodd"
     d="m 34.606622,37.663064 c -0.81989,0.610869 -1.876944,0.439113 -2.631003,-0.251447 -0.85171,-0.779869 -5.953627,-5.80061 -7.975599,-7.78157 -2.021972,1.98096 -7.123889,7.001701 -7.975599,7.78157 -0.754059,0.69056 -1.811113,0.862316 -2.631003,0.251447 -0.450286,-0.335593 -0.998364,-0.797405 -1.628679,-1.42772 -0.630315,-0.630315 -1.092127,-1.178393 -1.42772,-1.628679 -0.6108692,-0.81989 -0.4391132,-1.876944 0.251447,-2.631003 0.779869,-0.85171 5.80061,-5.953627 7.78157,-7.975599 -1.98096,-2.021972 -7.001701,-7.123889 -7.78157,-7.975599 -0.6905602,-0.754059 -0.8623162,-1.811113 -0.251447,-2.631003 0.335593,-0.450286 0.797405,-0.998364 1.42772,-1.628679 0.630315,-0.630315 1.178393,-1.092127 1.628679,-1.42772 0.81989,-0.6108693 1.876944,-0.4391133 2.631003,0.251447 0.85171,0.779869 5.953627,5.80061 7.975599,7.78157 2.021972,-1.98096 7.123889,-7.001701 7.975599,-7.78157 0.754059,-0.6905603 1.811113,-0.8623163 2.631003,-0.251447 0.450286,0.335593 0.998364,0.797405 1.628679,1.42772 0.630315,0.630315 1.092127,1.178393 1.42772,1.628679 0.610869,0.81989 0.439113,1.876944 -0.251447,2.631003 -0.779869,0.85171 -5.80061,5.953627 -7.78157,7.975599 1.98096,2.021972 7.001701,7.123889 7.78157,7.975599 0.69056,0.754059 0.862316,1.811113 0.251447,2.631003 -0.335593,0.450286 -0.797405,0.998364 -1.42772,1.628679 -0.630315,0.630315 -1.178393,1.092127 -1.628679,1.42772 z"
     clip-rule="evenodd"
     id="path132"
     sodipodi:nodetypes="cccccscccccscccccscccccsc"
     style="fill:#a40000;fill-opacity:1" />
  <g
     id="g294"
     transform="matrix(1.2,0,0,1.2,-9.6,21.27)"
     style="stroke-width:0.833333">
    <path
       fill="#888a85"
       fill-rule="evenodd"
       d="M 31.094085,5.69754 C 31.280537,2.4981514 33.905494,4.3750001e-8 37.080795,4.3750001e-8 h 1.58841 C 41.844506,4.3750001e-8 44.469463,2.4981514 44.655915,5.69754 l 0.303699,5.210933 c 0.05306,0.910136 -0.634938,1.69133 -1.536671,1.744891 -0.901732,0.05351 -1.675738,-0.640912 -1.728793,-1.551048 L 41.390451,5.8913832 C 41.305704,4.4371294 40.112524,3.3016157 38.669205,3.3016157 h -1.58841 c -1.443319,0 -2.636499,1.1355137 -2.721246,2.5897675 L 34.05585,11.102316 c -0.05306,0.910136 -0.827061,1.604559 -1.728793,1.551048 -0.901733,-0.05356 -1.589726,-0.834755 -1.536671,-1.744891 z"
       clip-rule="evenodd"
       id="path135"
       style="fill:#888a85;fill-opacity:1;stroke-width:0.421875" />
    <path
       fill="#babdb6"
       d="m 27.927851,19.881349 c 0.12114,1.260208 1.137204,2.161029 2.401483,2.227095 1.559159,0.08151 4.028899,0.166556 7.545666,0.166556 3.516767,0 5.986508,-0.08505 7.545656,-0.166556 1.264309,-0.06607 2.280353,-0.966887 2.401498,-2.227095 C 47.918291,18.881201 48,17.499949 48,15.69375 48,13.887551 47.918291,12.506299 47.822154,11.506151 47.701009,10.245943 46.684965,9.3451219 45.420656,9.2790563 43.861508,9.19755 41.391767,9.1125 37.875,9.1125 c -3.516767,0 -5.986507,0.08505 -7.545661,0.1665563 -1.264284,0.066066 -2.280348,0.9668867 -2.401488,2.2270947 -0.09614,1.000148 -0.177851,2.3814 -0.177851,4.187599 0,1.806199 0.08171,3.187451 0.177851,4.187599 z"
       id="path137"
       style="fill:#babdb6;fill-opacity:1;stroke-width:0.421875" />
    <path
       fill="#888a85"
       fill-rule="evenodd"
       d="M 38.792983,15.98049 C 39.449994,15.645758 39.9,14.962928 39.9,14.175 c 0,-1.118357 -0.906643,-2.025 -2.025,-2.025 -1.118357,0 -2.025,0.906643 -2.025,2.025 0,0.787928 0.450006,1.470758 1.107017,1.80549 l -0.449094,2.245573 c -0.08956,0.447728 0.141547,0.889178 0.593071,0.956863 0.212524,0.03184 0.470509,0.05457 0.774006,0.05457 0.303497,0 0.561482,-0.02273 0.774006,-0.05457 0.451524,-0.06768 0.682627,-0.509135 0.593072,-0.956863 z"
       clip-rule="evenodd"
       id="path139"
       style="fill:#888a85;fill-opacity:1;stroke-width:0.421875" />
  </g>
</svg>
