<?xml version="1.0" encoding="UTF-8" standalone="no"?>
<svg
   fill="none"
   viewBox="0 0 48 48"
   height="256"
   width="256"
   version="1.1"
   id="svg6"
   sodipodi:docname="red_lock.svg"
   inkscape:version="1.2.1 (9c6d41e410, 2022-07-14)"
   xmlns:inkscape="http://www.inkscape.org/namespaces/inkscape"
   xmlns:sodipodi="http://sodipodi.sourceforge.net/DTD/sodipodi-0.dtd"
   xmlns="http://www.w3.org/2000/svg"
   xmlns:svg="http://www.w3.org/2000/svg">
  <defs
     id="defs10" />
  <sodipodi:namedview
     id="namedview8"
     pagecolor="#ffffff"
     bordercolor="#666666"
     borderopacity="1.0"
     inkscape:showpageshadow="2"
     inkscape:pageopacity="0.0"
     inkscape:pagecheckerboard="0"
     inkscape:deskcolor="#d1d1d1"
     showgrid="false"
     inkscape:zoom="1.1449053"
     inkscape:cx="201.32669"
     inkscape:cy="134.94566"
     inkscape:current-layer="svg6"
     inkscape:window-width="1920"
     inkscape:window-height="730"
     inkscape:window-x="-6"
     inkscape:window-y="-6"
     inkscape:window-maximized="1" />
  <path
     fill="#ef2929"
     d="m 45.41872,7.3041225 c -0.2122,-2.55493 -2.1678,-4.51057 -4.7228,-4.72272 -3.3673,-0.27961 -8.8246,-0.58134 -16.6959,-0.58134 -7.8712,-1e-5 -13.3286,0.30173 -16.69593,0.58133 -2.55493,0.21215 -4.51058,2.16779 -4.72272,4.72272 -0.27961,3.3673505 -0.58135,8.8246505 -0.58135,16.6959505 0,7.8712 0.30174,13.3286 0.58134,16.6959 0.21215,2.555 2.16779,4.5106 4.72272,4.7228 3.36734,0.2796 8.82464,0.5813 16.69594,0.5813 7.8712,0 13.3286,-0.3017 16.6959,-0.5813 2.555,-0.2122 4.5106,-2.1678 4.7228,-4.7228 0.2796,-3.3673 0.5813,-8.8247 0.5813,-16.6959 0,-7.8712 -0.3017,-13.3286 -0.5813,-16.6959405 z"
     id="path135-9"
     style="fill:#ef2929;fill-opacity:1" />
  <path
     fill="#a40000"
     fill-rule="evenodd"
     d="m 34.606622,37.663064 c -0.81989,0.610869 -1.876944,0.439113 -2.631003,-0.251447 -0.85171,-0.779869 -5.953627,-5.80061 -7.975599,-7.78157 -2.021972,1.98096 -7.123889,7.001701 -7.975599,7.78157 -0.754059,0.69056 -1.811113,0.862316 -2.631003,0.251447 -0.450286,-0.335593 -0.998364,-0.797405 -1.628679,-1.42772 -0.630315,-0.630315 -1.092127,-1.178393 -1.42772,-1.628679 -0.6108692,-0.81989 -0.4391132,-1.876944 0.251447,-2.631003 0.779869,-0.85171 5.80061,-5.953627 7.78157,-7.975599 -1.98096,-2.021972 -7.001701,-7.123889 -7.78157,-7.975599 -0.6905602,-0.754059 -0.8623162,-1.811113 -0.251447,-2.631003 0.335593,-0.450286 0.797405,-0.998364 1.42772,-1.628679 0.630315,-0.630315 1.178393,-1.092127 1.628679,-1.42772 0.81989,-0.6108693 1.876944,-0.4391133 2.631003,0.251447 0.85171,0.779869 5.953627,5.80061 7.975599,7.78157 2.021972,-1.98096 7.123889,-7.001701 7.975599,-7.78157 0.754059,-0.6905603 1.811113,-0.8623163 2.631003,-0.251447 0.450286,0.335593 0.998364,0.797405 1.628679,1.42772 0.630315,0.630315 1.092127,1.178393 1.42772,1.628679 0.610869,0.81989 0.439113,1.876944 -0.251447,2.631003 -0.779869,0.85171 -5.80061,5.953627 -7.78157,7.975599 1.98096,2.021972 7.001701,7.123889 7.78157,7.975599 0.69056,0.754059 0.862316,1.811113 0.251447,2.631003 -0.335593,0.450286 -0.797405,0.998364 -1.42772,1.628679 -0.630315,0.630315 -1.178393,1.092127 -1.628679,1.42772 z"
     clip-rule="evenodd"
     id="path132"
     sodipodi:nodetypes="cccccscccccscccccscccccsc"
     style="fill:#a40000;fill-opacity:1" />
  <g
     id="g3586"
     transform="matrix(1.08,0,0,1.08,-3.84,21.27)"
     style="stroke-width:0.833333">
    <path
       id="rect1001"
       style="fill:#8f5902;fill-opacity:1;stroke-width:1.25;stroke-linecap:round;stroke-linejoin:round"
       d="m 35.867432,4.3750001e-8 h 1.765136 c 3.528109,0 6.444687,2.775815956249999 6.651856,6.33068795625 l 0.33728,5.789795 c 0.05895,1.011262 -0.705351,1.879208 -1.707275,1.938721 -1.001924,0.05946 -1.861827,-0.712127 -1.920777,-1.723389 L 40.656006,6.546021 C 40.561846,4.930185 39.236254,3.668335 37.632568,3.668335 h -1.765136 c -1.603686,0 -2.929276,1.26185 -3.023438,2.877686 l -0.337646,5.789794 c -0.05895,1.011262 -0.918853,1.782845 -1.920777,1.723389 -1.001924,-0.05951 -1.766225,-0.927459 -1.707275,-1.938721 l 0.33728,-5.789795 C 29.422745,2.775816 32.339323,4.3750003e-8 35.867432,4.3750001e-8 Z"
       sodipodi:nodetypes="sscccccsscccccs" />
    <path
       id="rect899"
       style="fill:#fce94f;fill-opacity:1;stroke-width:1.25;stroke-linecap:round;stroke-linejoin:round"
       d="m 36.75,10.125 c 3.907515,0 6.651648,0.09437 8.384033,0.184937 1.404787,0.07341 2.533607,1.074622 2.668213,2.474853 C 47.909064,13.896063 48,15.430615 48,17.4375 c 0,2.006885 -0.09094,3.541436 -0.197754,4.65271 -0.134606,1.400231 -1.263426,2.401444 -2.668213,2.474853 C 43.401648,24.655623 40.657515,24.75 36.75,24.75 32.842485,24.75 30.098364,24.65563 28.365967,24.565063 26.961214,24.491653 25.832354,23.490441 25.697754,22.09021 25.590932,20.978936 25.5,19.444385 25.5,17.4375 c 0,-2.006885 0.09093,-3.541437 0.197754,-4.65271 0.1346,-1.400231 1.263454,-2.401444 2.668213,-2.474853 C 30.098358,10.219377 32.842485,10.125 36.75,10.125 Z"
       sodipodi:nodetypes="scssscscssscs" />
    <path
       id="rect1056"
       style="fill:#8f5902;fill-opacity:1;stroke-width:1.25;stroke-linecap:round;stroke-linejoin:round"
       d="m 36.75,13.5 c 1.242618,0 2.25,1.007382 2.25,2.25 0,0.875474 -0.50009,1.634179 -1.230103,2.006104 l 0.499146,2.494995 c 0.09951,0.497474 -0.157486,0.9879 -0.65918,1.06311 -0.236136,0.03538 -0.522644,0.06079 -0.859863,0.06079 -0.337219,0 -0.623727,-0.02541 -0.859863,-0.06079 -0.501694,-0.07521 -0.75869,-0.565636 -0.65918,-1.06311 l 0.499146,-2.494995 C 35.00009,17.384179 34.5,16.625474 34.5,15.75 c 0,-1.242618 1.007382,-2.25 2.25,-2.25 z"
       sodipodi:nodetypes="sscccscccss" />
  </g>
</svg>
