<?xml version="1.0" encoding="UTF-8" standalone="no"?>
<svg
   fill="none"
   viewBox="0 0 48 48"
   height="256"
   width="256"
   version="1.1"
   id="svg12"
   sodipodi:docname="arrow_down.svg"
   inkscape:version="1.1.1 (3bf5ae0d25, 2021-09-20)"
   xmlns:inkscape="http://www.inkscape.org/namespaces/inkscape"
   xmlns:sodipodi="http://sodipodi.sourceforge.net/DTD/sodipodi-0.dtd"
   xmlns="http://www.w3.org/2000/svg"
   xmlns:svg="http://www.w3.org/2000/svg">
  <defs
     id="defs16" />
  <sodipodi:namedview
     id="namedview14"
     pagecolor="#ffffff"
     bordercolor="#666666"
     borderopacity="1.0"
     inkscape:pageshadow="2"
     inkscape:pageopacity="0.0"
     inkscape:pagecheckerboard="0"
     showgrid="false"
     inkscape:zoom="1"
     inkscape:cx="600.5"
     inkscape:cy="30"
     inkscape:window-width="3440"
     inkscape:window-height="1330"
     inkscape:window-x="-12"
     inkscape:window-y="-12"
     inkscape:window-maximized="1"
     inkscape:current-layer="svg12"
     inkscape:snap-bbox="true"
     inkscape:snap-page="true"
     inkscape:bbox-paths="true"
     inkscape:bbox-nodes="true"
     inkscape:snap-bbox-edge-midpoints="true"
     inkscape:snap-bbox-midpoints="true"
     inkscape:object-paths="true"
     inkscape:snap-intersection-paths="true"
     inkscape:snap-smooth-nodes="true"
     inkscape:snap-midpoints="true"
     inkscape:snap-object-midpoints="true"
     inkscape:snap-center="true"
     inkscape:snap-text-baseline="true" />
  <path
     fill="#204a87"
     d="m 21.330671,3.25011e-4 5.339188,-2.6e-4 C 29.327035,-0.01733499 29.42288,3.461716 29.4803,14.24564 c 0,5.684741 -0.0497,10.106035 -0.118436,13.502236 1.651429,0.04519 3.053774,0.110093 4.24071,0.184611 3.204312,0.201487 4.700332,3.4123 2.994572,6.212088 -3.921029,6.435388 -7.575434,10.492133 -9.92745,12.746661 -1.542206,1.47818 -3.797192,1.478437 -5.339293,2.59e-4 -2.352149,-2.254526 -6.006552,-6.311013 -9.927688,-12.747181 -1.705548,-2.799527 -0.2095,-6.01034 2.994757,-6.211827 1.309442,-0.0823 2.881357,-0.152674 4.760734,-0.197853 C 19.089526,24.33999 19.040012,19.922853 19.040012,14.24564 18.961032,3.32491 18.711668,0.03372901 21.330669,3.25011e-4 Z"
     id="path10"
     sodipodi:nodetypes="ccccccccccccc"
     style="stroke-width:1" />
</svg>
