<?xml version="1.0" encoding="UTF-8" standalone="no"?>
<svg
   fill="none"
   viewBox="0 0 48 48"
   height="256"
   width="256"
   version="1.1"
   id="svg6"
   sodipodi:docname="cancel.svg"
   inkscape:version="1.2.1 (9c6d41e410, 2022-07-14)"
   xmlns:inkscape="http://www.inkscape.org/namespaces/inkscape"
   xmlns:sodipodi="http://sodipodi.sourceforge.net/DTD/sodipodi-0.dtd"
   xmlns="http://www.w3.org/2000/svg"
   xmlns:svg="http://www.w3.org/2000/svg">
  <defs
     id="defs10" />
  <sodipodi:namedview
     id="namedview8"
     pagecolor="#ffffff"
     bordercolor="#666666"
     borderopacity="1.0"
     inkscape:showpageshadow="2"
     inkscape:pageopacity="0.0"
     inkscape:pagecheckerboard="0"
     inkscape:deskcolor="#d1d1d1"
     showgrid="false"
     inkscape:zoom="0.8095703"
     inkscape:cx="203.81182"
     inkscape:cy="143.9035"
     inkscape:current-layer="svg6"
     inkscape:window-width="958"
     inkscape:window-height="722"
     inkscape:window-x="954"
     inkscape:window-y="0"
     inkscape:window-maximized="0" />
  <circle
     cx="24"
     cy="24"
     r="22"
     fill="#fcaf3e"
     id="circle2"
     style="fill:#fcaf3e;fill-opacity:1" />
  <path
     id="path6380"
     style="fill:#cc0000;fill-opacity:1;stroke:none;stroke-width:0.813568;stroke-linecap:round;stroke-linejoin:round;stroke-miterlimit:4;stroke-dasharray:none;stroke-dashoffset:0;stroke-opacity:1"
     d="m 14.179058,14.16456 c -3.832305,3.769952 -5.427717,9.72344 -2.764812,15.613405 0.358506,0.533489 1.229003,0.667597 1.68965,0.187739 l 9.755174,-9.755174 7.094977,-7.094977 c 0.511355,-0.490882 0.32616,-1.447451 -0.297274,-1.753611 l -0.08312,-0.04221 C 23.575572,8.9456502 17.850866,10.552494 14.179058,14.16456 Z m 3.923096,20.799402 c -0.479858,0.460647 -0.34575,1.331144 0.187739,1.68965 5.889964,2.662904 11.843453,1.067492 15.613404,-2.764813 3.612066,-3.671807 5.218913,-9.39651 2.844828,-15.394591 l -0.04221,-0.08312 c -0.30616,-0.623434 -1.262732,-0.808631 -1.753611,-0.297274 l -7.094977,7.094977 z" />
</svg>
