<?xml version="1.0" encoding="UTF-8" standalone="no"?>
<svg
   fill="none"
   viewBox="0 0 48 48"
   height="256"
   width="256"
   version="1.1"
   id="svg6"
   sodipodi:docname="help.svg"
   inkscape:version="1.2.1 (9c6d41e410, 2022-07-14)"
   xmlns:inkscape="http://www.inkscape.org/namespaces/inkscape"
   xmlns:sodipodi="http://sodipodi.sourceforge.net/DTD/sodipodi-0.dtd"
   xmlns="http://www.w3.org/2000/svg"
   xmlns:svg="http://www.w3.org/2000/svg">
  <defs
     id="defs10" />
  <sodipodi:namedview
     id="namedview8"
     pagecolor="#ffffff"
     bordercolor="#666666"
     borderopacity="1.0"
     inkscape:showpageshadow="2"
     inkscape:pageopacity="0.0"
     inkscape:pagecheckerboard="0"
     inkscape:deskcolor="#d1d1d1"
     showgrid="false"
     inkscape:zoom="1.5164126"
     inkscape:cx="45.172402"
     inkscape:cy="113.75532"
     inkscape:current-layer="svg6" />
  <path
     id="rect899"
     style="fill:#fce94f;fill-opacity:1;stroke-width:1.5;stroke-linecap:round;stroke-linejoin:round"
     d="M 24,1.9998779 C 36.150288,1.9998779 46.000122,11.849712 46.000122,24 46.000122,36.150288 36.150288,46.000122 24,46.000122 11.849712,46.000122 1.9998779,36.150288 1.9998779,24 1.9998779,11.849712 11.849712,1.9998779 24,1.9998779 Z"
     sodipodi:nodetypes="sssss" />
  <path
     id="rect286"
     style="fill:#c4a000;stroke-width:1.5;stroke-linecap:round;stroke-linejoin:round"
     d="m 25.084717,11.200562 c 2.081455,-0.01524 3.76798,0.469923 5.059204,1.455322 1.612898,1.210299 2.545153,2.972257 2.796753,5.286255 0.1233,1.133399 0.05416,2.14436 -0.207642,3.032959 -0.2407,0.862399 -0.65698,1.648266 -1.248779,2.357666 -0.5682,0.706899 -1.309434,1.361058 -2.223633,1.962158 -0.914199,0.601099 -1.961956,1.181002 -3.143555,1.739502 l -0.264038,0.123047 v 0.966797 c 0,0.828499 -0.6716,1.5 -1.5,1.5 h -2.529419 c -0.828499,0 -1.5,-0.671501 -1.5,-1.5 v -3.031861 h 0.0015 c -0.0139,-0.569899 0.160782,-1.021647 0.523682,-1.355346 0.412699,-0.3793 0.947138,-0.736235 1.603638,-1.070435 L 24.49292,21.65625 c 0.680099,-0.3368 1.208395,-0.752515 1.584595,-1.247314 0.373699,-0.5185 0.523008,-1.120255 0.448608,-1.805054 -0.0668,-0.6139 -0.364389,-1.154948 -0.893188,-1.623047 -0.5051,-0.4707 -1.288842,-0.648071 -2.351441,-0.532471 -0.968099,0.1053 -1.800361,0.362872 -2.49646,0.773072 -0.3194,0.176699 -0.629143,0.372436 -0.929443,0.587036 -0.6565,0.469099 -1.56418,0.674237 -2.106079,0.07654 -0.4015,-0.4429 -0.656129,-1.000778 -0.726929,-1.651978 -0.0745,-0.684799 0.03702,-1.306014 0.334717,-1.864013 0.321299,-0.5605 0.781149,-1.052597 1.380249,-1.476197 0.598999,-0.423499 1.314629,-0.764029 2.146728,-1.021728 0.8295,-0.2814 1.728312,-0.474778 2.696411,-0.580078 0.522412,-0.05681 1.023693,-0.08694 1.504029,-0.09045 z M 23.02478,31.97937 c 1.068799,0 1.900097,0.308648 2.493897,0.926148 0.617499,0.617599 0.926147,1.425252 0.926147,2.422851 0,0.997499 -0.308648,1.804986 -0.926147,2.422485 -0.5938,0.6176 -1.425098,0.926514 -2.493897,0.926514 -1.068799,0 -1.911919,-0.308914 -2.529419,-0.926514 -0.593799,-0.617499 -0.890625,-1.424986 -0.890625,-2.422485 0,-0.997599 0.296826,-1.805252 0.890625,-2.422851 0.6175,-0.6175 1.46062,-0.926148 2.529419,-0.926148 z"
     sodipodi:nodetypes="sccccsccsssscccccccccccccccccsscscscscs" />
</svg>
