<?xml version="1.0" encoding="UTF-8" standalone="no"?>
<svg
   fill="none"
   viewBox="0 0 48 48"
   height="256"
   width="256"
   version="1.1"
   id="svg2626"
   sodipodi:docname="info.svg"
   inkscape:version="1.2.1 (9c6d41e410, 2022-07-14)"
   xmlns:inkscape="http://www.inkscape.org/namespaces/inkscape"
   xmlns:sodipodi="http://sodipodi.sourceforge.net/DTD/sodipodi-0.dtd"
   xmlns="http://www.w3.org/2000/svg"
   xmlns:svg="http://www.w3.org/2000/svg">
  <defs
     id="defs2630" />
  <sodipodi:namedview
     id="namedview2628"
     pagecolor="#ffffff"
     bordercolor="#666666"
     borderopacity="1.0"
     inkscape:showpageshadow="2"
     inkscape:pageopacity="0.0"
     inkscape:pagecheckerboard="0"
     inkscape:deskcolor="#d1d1d1"
     showgrid="false"
     inkscape:zoom="0.80957031"
     inkscape:cx="139.58022"
     inkscape:cy="79.671894"
     inkscape:current-layer="svg2626"
     inkscape:window-width="1920"
     inkscape:window-height="730"
     inkscape:window-x="-6"
     inkscape:window-y="-6"
     inkscape:window-maximized="1" />
  <path
     fill="#fce94f"
     d="M24 2C36.1503 2 46 11.8497 46 24C46 36.1503 36.1503 46 24 46C11.8497 46 2 36.1503 2 24C2 11.8497 11.8497 2 24 2Z"
     id="path2622"
     style="fill:#fce94f;fill-opacity:1" />
  <g
     id="g2902"
     transform="translate(0,-0.5625)"
     style="fill:#c4a000;fill-opacity:1">
    <path
       fill="#c4a000"
       fill-rule="evenodd"
       d="m 21.7793,21.7959 c -1.2014,0.3429 -1.7372,1.5752 -1.6552,2.8219 l 0.2317,12.1503 c 0.1216,0.8423 0.6101,1.5777 1.4464,1.7354 0.3764,0.071 1.6032,0.1215 2.1978,0.1215 0.5946,0 1.8214,-0.0505 2.1978,-0.1215 0.8363,-0.1577 1.3248,-0.8931 1.4464,-1.7354 l 0.2317,-12.1503 c 0.082,-1.2467 -0.4538,-2.479 -1.6552,-2.8219 C 25.6284,21.6268 24.8881,21.5 24,21.5 c -0.8881,0 -1.6284,0.1268 -2.2207,0.2959 z"
       clip-rule="evenodd"
       id="path2751"
       sodipodi:nodetypes="ccccsccccsc"
       style="fill:#c4a000;fill-opacity:1" />
    <path
       fill="#c4a000"
       fill-rule="evenodd"
       d="m 24,10.5 c 2.2091,0 4,1.7909 4,4 0,2.2091 -1.7909,4 -4,4 -2.2091,0 -4,-1.7909 -4,-4 0,-2.2091 1.7909,-4 4,-4 z"
       clip-rule="evenodd"
       id="path2898"
       sodipodi:nodetypes="sssss"
       style="fill:#c4a000;fill-opacity:1" />
  </g>
</svg>
