<svg xmlns="http://www.w3.org/2000/svg" fill="none" viewBox="0 0 48 48" height="256" width="256"><path fill="#729fcf" fill-rule="evenodd" d="M46 24C46 11.8497 36.1503 2 24 2C11.8497 2 2 11.8497 2 24C2 27.9083 3.01912 31.5786 4.80612 34.7595C3.88346 37.3695 3.00598 40.4316 2.43619 43.338C2.17784 44.6558 3.33548 45.7679 4.64509 45.4708C7.43667 44.8375 10.4171 43.9514 13.0088 43.0619C16.2427 44.9306 19.9965 46 24 46C36.1503 46 46 36.1503 46 24Z" clip-rule="evenodd"></path><path fill="#204a87" d="M32.8981 16.1234C34.0634 16.1706 34.9498 16.985 34.9871 18.1507C34.9952 18.4044 35 18.6869 35 19C35 19.3184 34.995 19.6048 34.9867 19.8614C34.949 21.0158 34.0734 21.8218 32.9194 21.8708C31.3938 21.9355 28.6956 22 24 22C19.3261 22 16.6313 21.9386 15.1019 21.8766C13.9366 21.8294 13.0502 21.015 13.0129 19.8493C13.0048 19.5956 13 19.3131 13 19C13 18.6869 13.0048 18.4044 13.0129 18.1507C13.0502 16.985 13.9366 16.1706 15.1019 16.1234C16.6313 16.0614 19.3261 16 24 16C28.6739 16 31.3687 16.0614 32.8981 16.1234Z"></path><path fill="#204a87" d="M24.9893 26.0869C26.1463 26.1402 26.9677 26.9835 26.9916 28.1415C26.9969 28.3976 27 28.6831 27 29C27 29.3242 26.9967 29.6153 26.9912 29.8755C26.967 31.0196 26.159 31.8529 25.016 31.9083C23.9841 31.9583 22.4031 32 20 32C17.6175 32 16.0431 31.9606 15.0107 31.9131C13.8537 31.8598 13.0323 31.0165 13.0084 29.8585C13.0031 29.6024 13 29.3169 13 29C13 28.6831 13.0031 28.3976 13.0084 28.1415C13.0323 26.9835 13.8537 26.1402 15.0107 26.0869C16.0431 26.0394 17.6175 26 20 26C22.3825 26 23.9569 26.0394 24.9893 26.0869Z"></path></svg>