<?xml version="1.0" encoding="UTF-8" standalone="no"?>
<svg
   fill="none"
   viewBox="0 0 48 48"
   height="256"
   width="256"
   version="1.1"
   id="svg6"
   sodipodi:docname="avrdude.svg"
   inkscape:version="1.2.1 (9c6d41e410, 2022-07-14)"
   xmlns:inkscape="http://www.inkscape.org/namespaces/inkscape"
   xmlns:sodipodi="http://sodipodi.sourceforge.net/DTD/sodipodi-0.dtd"
   xmlns="http://www.w3.org/2000/svg"
   xmlns:svg="http://www.w3.org/2000/svg">
  <defs
     id="defs10" />
  <sodipodi:namedview
     id="namedview8"
     pagecolor="#ffffff"
     bordercolor="#666666"
     borderopacity="1.0"
     inkscape:showpageshadow="2"
     inkscape:pageopacity="0.0"
     inkscape:pagecheckerboard="true"
     inkscape:deskcolor="#d1d1d1"
     showgrid="true"
     inkscape:zoom="1.6191406"
     inkscape:cx="-78.436672"
     inkscape:cy="162.74065"
     inkscape:current-layer="svg6"
     showguides="false"
     inkscape:window-width="1920"
     inkscape:window-height="730"
     inkscape:window-x="-6"
     inkscape:window-y="-6"
     inkscape:window-maximized="1">
    <inkscape:grid
       type="xygrid"
       id="grid239"
       units="px"
       spacingx="1.5"
       spacingy="1.5" />
  </sodipodi:namedview>
  <path
     id="rect617"
     style="fill:#606668;stroke-width:0.1875;stroke-linecap:round;stroke-linejoin:round;fill-opacity:1"
     d="m 23.999996,1.999878 c 7.179693,0 13.000122,5.820429 13.000122,13.000122 0,4.379796 -2.166011,8.253733 -5.485108,10.609131 5.651795,2.538997 9.8851,7.85458 11.117798,14.297973 0.4471,2.336898 -1.072761,4.447599 -3.407959,4.903199 -2.963897,0.578199 -7.843361,1.189819 -15.224853,1.189819 -7.381393,0 -12.260947,-0.61162 -15.2248548,-1.189819 -2.3352,-0.4556 -3.85502,-2.566301 -3.40796,-4.903199 C 6.5998912,33.463711 10.833181,28.148128 16.484981,25.609131 13.165784,23.253733 10.999871,19.379796 10.999871,15 c 0,-7.179693 5.820432,-13.000122 13.000125,-13.000122 z"
     sodipodi:nodetypes="sscccscccss" />
  <path
     style="fill:#edf1e9;fill-opacity:1;stroke:none;stroke-width:0.149625;stroke-miterlimit:4;stroke-dasharray:none;stroke-opacity:1"
     d="m 21.68337,39.013195 c -1.343826,-3.007555 -2.445613,-5.474183 -2.4485,-5.481393 -0.0021,-0.0073 0.58871,-0.013 1.314448,-0.01269 l 1.319618,4.72e-4 1.128595,2.689693 c 0.817489,1.948149 1.132372,2.682943 1.142334,2.665214 0.0063,-0.01332 0.544993,-1.221512 1.194427,-2.684568 0.649404,-1.463053 1.183292,-2.662653 1.186433,-2.66578 0.0022,-0.0032 0.604193,-0.0037 1.335736,-0.0016 l 1.329994,0.0037 -2.494156,5.404737 c -1.371713,2.972601 -2.510174,5.437491 -2.529877,5.47753 l -0.03489,0.07281 z m -10.114307,3.354868 c 0.0032,-0.0146 0.81533,-2.012082 1.799191,-4.438221 l 1.788881,-4.411162 h 1.354074 1.354041 l 1.989265,4.411162 c 1.094108,2.42614 1.993959,4.423375 1.999669,4.438313 0.0096,0.0257 -0.05616,0.02697 -1.309214,0.02347 l -1.319682,-0.0037 -0.35508,-0.769342 -0.355111,-0.769341 H 16.662733 14.8104 l -0.02539,0.04255 c -0.0096,0.02347 -0.144671,0.338271 -0.295688,0.699751 -0.150382,0.361468 -0.287758,0.690282 -0.304571,0.730683 l -0.03172,0.07347 h -1.298808 c -1.230499,0 -1.298172,-0.0014 -1.2884,-0.02697 z M 17.7761,39.072159 c -0.05616,-0.148257 -1.259276,-3.03278 -1.264986,-3.032719 -0.0032,0 -1.045949,2.796414 -1.126026,3.027023 -0.0063,0.01586 0.240483,0.01968 1.194776,0.01968 0.687126,0 1.199154,-0.0061 1.196236,-0.01396 z m 8.755285,3.314906 c 0,-0.007 2.294279,-5.185496 3.545243,-8.002387 0.187183,-0.421011 0.349717,-0.788092 0.361615,-0.815735 l 0.01586,-0.05025 h 1.791989 c 1.136718,0 1.85062,0.0057 1.952145,0.01618 0.913904,0.09248 1.624729,0.55222 1.968641,1.273386 0.241754,0.507622 0.328746,1.155105 0.224938,1.68539 -0.07013,0.357665 -0.22811,0.73302 -0.429065,1.014631 -0.212247,0.298385 -0.589757,0.636565 -0.940965,0.843467 -0.388901,0.228999 -0.937351,0.440069 -1.347825,0.518544 -0.05902,0.01137 -0.09677,0.02602 -0.09677,0.03842 0,0.01586 1.165208,3.334781 1.214257,3.459265 0.0063,0.0257 -0.0606,0.02697 -1.35785,0.02697 h -1.368541 l -0.0063,-0.04255 c -0.0063,-0.02315 -0.194799,-0.737332 -0.419356,-1.586532 -0.224621,-0.84921 -0.408728,-1.546988 -0.408728,-1.550608 0,-0.0035 -0.140548,-0.0045 -0.312503,-0.0023 l -0.312187,0.0041 -0.706763,1.585078 -0.706701,1.585081 -1.331421,0.0037 c -0.73224,0.0021 -1.331389,2.4e-4 -1.331389,-0.0041 z m 6.216651,-5.076605 c 0.214152,-0.04819 0.329096,-0.08798 0.502543,-0.17424 0.430398,-0.213676 0.663046,-0.560471 0.683984,-1.019568 0.0096,-0.293976 -0.04632,-0.471691 -0.215421,-0.637597 -0.09645,-0.09458 -0.307744,-0.209046 -0.448607,-0.24223 -0.04536,-0.01078 -0.256982,-0.01682 -0.557366,-0.01682 h -0.484744 l -0.466344,1.039962 c -0.256347,0.571981 -0.471103,1.052617 -0.476909,1.068081 -0.0063,0.02697 0.01269,0.02792 0.652514,0.02189 0.608032,-0.0051 0.675387,-0.0086 0.810096,-0.03924 z"
     id="path5188"
     sodipodi:nodetypes="ssscssssscsscssscccssscccccssscsssssssssscsssssssssscsssscccsssssssscssss" />
</svg>
