<?xml version="1.0" encoding="UTF-8" standalone="no"?>
<svg
   fill="none"
   viewBox="0 0 48 48"
   height="256"
   width="256"
   version="1.1"
   id="svg6"
   sodipodi:docname="bossac.svg"
   inkscape:version="1.2.1 (9c6d41e410, 2022-07-14)"
   xmlns:inkscape="http://www.inkscape.org/namespaces/inkscape"
   xmlns:sodipodi="http://sodipodi.sourceforge.net/DTD/sodipodi-0.dtd"
   xmlns="http://www.w3.org/2000/svg"
   xmlns:svg="http://www.w3.org/2000/svg">
  <defs
     id="defs10">
    <inkscape:path-effect
       effect="attach_path"
       id="path-effect12784"
       lpeversion="1" />
    <inkscape:path-effect
       effect="attach_path"
       id="path-effect12782"
       lpeversion="1" />
    <inkscape:path-effect
       effect="attach_path"
       id="path-effect12780"
       lpeversion="1" />
    <inkscape:path-effect
       effect="attach_path"
       id="path-effect12778"
       lpeversion="1" />
    <inkscape:path-effect
       effect="attach_path"
       id="path-effect12776"
       lpeversion="1" />
    <inkscape:path-effect
       effect="attach_path"
       id="path-effect12774"
       lpeversion="1" />
  </defs>
  <sodipodi:namedview
     id="namedview8"
     pagecolor="#ffffff"
     bordercolor="#666666"
     borderopacity="1.0"
     inkscape:showpageshadow="2"
     inkscape:pageopacity="0.0"
     inkscape:pagecheckerboard="true"
     inkscape:deskcolor="#d1d1d1"
     showgrid="true"
     inkscape:zoom="1.4142136"
     inkscape:cx="-27.577163"
     inkscape:cy="109.9551"
     inkscape:current-layer="svg6"
     showguides="false"
     inkscape:window-width="1920"
     inkscape:window-height="730"
     inkscape:window-x="-6"
     inkscape:window-y="-6"
     inkscape:window-maximized="1">
    <inkscape:grid
       type="xygrid"
       id="grid239"
       units="px"
       spacingx="1.5"
       spacingy="1.5" />
  </sodipodi:namedview>
  <path
     id="path9564"
     style="color:#000000;fill:#606668;fill-opacity:1;stroke-width:1.1534;stroke-linecap:round;stroke-linejoin:round;-inkscape-stroke:none;paint-order:markers fill stroke"
     d="m 44.190308,19.463379 c -0.03232,0.0012 -0.06403,0.01076 -0.09155,0.02856 L 24.087158,32.129517 3.7880859,19.753784 C 3.3391061,19.500461 2.9961037,19.632196 2.9890137,20.129517 v 4.456254 c -0.00167,0.1958 0.1858732,0.538253 0.3524128,0.653658 L 23.818119,37.725978 c 0.113134,0.06241 0.436629,0.06216 0.538124,-0.0035 l 19.93404,-12.589442 c 0.05213,-0.03346 0.08372,-0.09149 0.0835,-0.153443 l 0.0022,-5.334228 c 5.6e-4,-0.0897 -0.06338,-0.180176 -0.153077,-0.180176 -0.0108,-0.0015 -0.02182,-0.0022 -0.03259,-0.0018 z"
     sodipodi:nodetypes="sccccccccccccss" />
  <path
     style="color:#000000;fill:#adafaa;fill-opacity:1;stroke-width:1.1534;stroke-linecap:round;stroke-linejoin:round;-inkscape-stroke:none;paint-order:markers fill stroke"
     d="M 24.843529,6.1264638 44.27178,18.940011 c 0.301865,0.204627 0.210917,0.665554 -0.05225,0.83017 l -19.62096,12.46368 c -0.208461,0.162319 -0.7926,0.161092 -0.993398,0.0278 L 3.2847172,19.865088 C 2.863276,19.566629 3.0355014,19.130071 3.3377671,18.90704 L 22.976851,6.1174284 c 0.62236,-0.3394108 1.244578,-0.316719 1.866678,0.00903 z"
     id="path9545"
     sodipodi:nodetypes="cccccccccc" />
  <path
     style="color:#000000;fill:#606668;fill-opacity:1;stroke-linecap:round;stroke-linejoin:round;paint-order:markers fill stroke"
     d="m 11.753906,24.5625 a 0.15716622,0.15716622 0 0 0 -0.109375,0.0293 l -4.9140623,3.609375 -1.2890625,0.865234 a 0.15716622,0.15716622 0 0 0 -0.070312,0.140625 l 0.074219,1.101563 a 0.15716622,0.15716622 0 0 0 0.056641,0.111328 l 2.8476563,2.371094 a 0.15716622,0.15716622 0 0 0 0.017578,0.01172 c 0.1706532,0.107513 0.3660123,0.171117 0.5761719,0.150391 0.2101596,-0.02073 0.4228981,-0.123249 0.6386719,-0.3125 a 0.15716622,0.15716622 0 0 0 0.00977,-0.0078 l 1.5976557,-1.636718 a 0.15716622,0.15716622 0 0 0 0.04492,-0.109375 l -0.01758,-3.777344 c 0.01092,-0.224129 0.06357,-0.334448 0.150391,-0.421875 0.08682,-0.08743 0.22811,-0.154835 0.423828,-0.232422 a 0.15716622,0.15716622 0 0 0 0.09961,-0.146484 l 0.0039,-1.589844 A 0.15716622,0.15716622 0 0 0 11.753906,24.5625"
     id="path9674"
     inkscape:path-effect="#path-effect12784"
     inkscape:original-d="m 11.753906,24.5625 a 0.15716622,0.15716622 0 0 0 -0.109375,0.0293 l -4.9140623,3.609375 -1.2890625,0.865234 a 0.15716622,0.15716622 0 0 0 -0.070312,0.140625 l 0.074219,1.101563 a 0.15716622,0.15716622 0 0 0 0.056641,0.111328 l 2.8476563,2.371094 a 0.15716622,0.15716622 0 0 0 0.017578,0.01172 c 0.1706532,0.107513 0.3660123,0.171117 0.5761719,0.150391 0.2101596,-0.02073 0.4228981,-0.123249 0.6386719,-0.3125 a 0.15716622,0.15716622 0 0 0 0.00977,-0.0078 l 1.5976557,-1.636718 a 0.15716622,0.15716622 0 0 0 0.04492,-0.109375 l -0.01758,-3.777344 c 0.01092,-0.224129 0.06357,-0.334448 0.150391,-0.421875 0.08682,-0.08743 0.22811,-0.154835 0.423828,-0.232422 a 0.15716622,0.15716622 0 0 0 0.09961,-0.146484 l 0.0039,-1.589844 A 0.15716622,0.15716622 0 0 0 11.753906,24.5625 Z m -0.173828,0.466797 -0.0039,1.189453 c -0.159289,0.06705 -0.314347,0.12994 -0.431641,0.248047 -0.143892,0.144889 -0.228792,0.351988 -0.242187,0.626953 a 0.15716622,0.15716622 0 0 0 0,0.0078 l 0.01758,3.722657 -1.54493,1.58009 c -0.181753,0.159412 -0.3328389,0.223502 -0.4628906,0.236328 -0.1280099,0.01262 -0.2462489,-0.02289 -0.3730469,-0.101563 l -2.7851563,-2.318359 -0.0625,-0.943359 1.2167969,-0.816407 a 0.15716622,0.15716622 0 0 0 0.00586,-0.0039 z"
     class="UnoptimicedTransforms"
     transform="matrix(1.1533962,0,0,1.1533962,-4.194724,-2.5807839)" />
  <path
     style="color:#000000;fill:#edf1e9;fill-opacity:1;stroke-width:1.1534;stroke-linecap:round;stroke-linejoin:round;paint-order:markers fill stroke"
     d="m 5.3793653,23.309807 a 0.18127492,0.18127492 0 0 0 -0.1712067,0.0023 c -0.3217064,0.180051 -0.7361344,0.423197 -1.0768038,0.727631 -0.3406694,0.304433 -0.6228374,0.68651 -0.6037314,1.144385 l -0.036044,4.814078 -1.4102068,0.946145 A 0.18127492,0.18127492 0 0 0 2.0678546,31.2372 l 3.5322759,2.795635 a 0.18127492,0.18127492 0 0 0 0.00231,0.0023 c 0.352885,0.270423 0.7329832,0.227245 1.0272434,0.08785 a 0.18127492,0.18127492 0 0 0 0.045052,-0.02928 l 1.324604,-1.196197 a 0.18127492,0.18127492 0 0 0 0.060774,-0.133019 l 0.040549,-4.636112 a 0.18127492,0.18127492 0 0 0 0,-0.0023 0.18127492,0.18127492 0 0 0 0,-0.0113 C 8.0742499,27.727254 8.2809895,27.402426 8.5827468,27.062754 8.8845041,26.723081 9.2732978,26.39074 9.537903,25.98595 A 0.18127492,0.18127492 0 0 0 9.477084,25.731392 l -4.0886995,-2.417176 0.087854,0.137416 a 0.18127492,0.18127492 0 0 0 -0.096862,-0.141921 l -8e-6,9.3e-5"
     id="path9627" />
  <path
     style="color:#000000;fill:#606668;fill-opacity:1;stroke-linecap:round;stroke-linejoin:round;paint-order:markers fill stroke"
     d="m 16.697266,27.697266 a 0.15716622,0.15716622 0 0 0 -0.109375,0.0293 l -4.914063,3.609375 -1.289062,0.865235 a 0.15716622,0.15716622 0 0 0 -0.06836,0.140625 l 0.07227,1.101562 a 0.15716622,0.15716622 0 0 0 0.05664,0.111328 l 2.847656,2.371094 a 0.15716622,0.15716622 0 0 0 0.01758,0.01172 c 0.170653,0.107512 0.367968,0.171117 0.578125,0.150391 0.210157,-0.02073 0.422914,-0.123247 0.638672,-0.3125 a 0.15716622,0.15716622 0 0 0 0.0078,-0.0078 l 1.59961,-1.636719 a 0.15716622,0.15716622 0 0 0 0.04492,-0.109375 l -0.01953,-3.777343 c 0.01092,-0.224129 0.06357,-0.334449 0.150391,-0.421875 0.08683,-0.08743 0.22811,-0.154836 0.423828,-0.232422 a 0.15716622,0.15716622 0 0 0 0.09961,-0.146485 l 0.0039,-1.589843 a 0.15716622,0.15716622 0 0 0 -0.140625,-0.15625 l 1.3e-5,-1.8e-5"
     id="path9747"
     inkscape:path-effect="#path-effect12782"
     inkscape:original-d="m 16.697266,27.697266 a 0.15716622,0.15716622 0 0 0 -0.109375,0.0293 l -4.914063,3.609375 -1.289062,0.865235 a 0.15716622,0.15716622 0 0 0 -0.06836,0.140625 l 0.07227,1.101562 a 0.15716622,0.15716622 0 0 0 0.05664,0.111328 l 2.847656,2.371094 a 0.15716622,0.15716622 0 0 0 0.01758,0.01172 c 0.170653,0.107512 0.367968,0.171117 0.578125,0.150391 0.210157,-0.02073 0.422914,-0.123247 0.638672,-0.3125 a 0.15716622,0.15716622 0 0 0 0.0078,-0.0078 l 1.59961,-1.636719 a 0.15716622,0.15716622 0 0 0 0.04492,-0.109375 l -0.01953,-3.777343 c 0.01092,-0.224129 0.06357,-0.334449 0.150391,-0.421875 0.08683,-0.08743 0.22811,-0.154836 0.423828,-0.232422 a 0.15716622,0.15716622 0 0 0 0.09961,-0.146485 l 0.0039,-1.589843 a 0.15716622,0.15716622 0 0 0 -0.140625,-0.15625 z m -0.173829,0.464843 -0.0039,1.191407 c -0.158762,0.0669 -0.314671,0.130266 -0.43164,0.248046 -0.143893,0.14489 -0.226839,0.351989 -0.240235,0.626954 a 0.15716622,0.15716622 0 0 0 -0.002,0.0078 l 0.01953,3.720703 -1.548828,1.583985 c -0.1797,0.156493 -0.33003,0.221657 -0.458984,0.234375 -0.129423,0.01276 -0.248547,-0.02299 -0.376953,-0.103516 h -0.002 l -2.779297,-2.316406 -0.06445,-0.94336 1.216797,-0.816406 a 0.15716622,0.15716622 0 0 0 0.0059,-0.0039 z"
     class="UnoptimicedTransforms"
     transform="matrix(1.1533962,0,0,1.1533962,-4.194724,-2.5807839)" />
  <path
     style="color:#000000;fill:#edf1e9;fill-opacity:1;stroke-width:1.1534;stroke-linecap:round;stroke-linejoin:round;paint-order:markers fill stroke"
     d="m 11.081018,26.925433 a 0.18127492,0.18127492 0 0 0 -0.171208,0.0023 c -0.321705,0.180051 -0.736134,0.423199 -1.0768037,0.727632 -0.3406683,0.304433 -0.6228374,0.684257 -0.6037302,1.142132 l -0.036044,4.81633 -1.4102068,0.946146 a 0.18127492,0.18127492 0 0 0 -0.011303,0.292854 l 3.5322757,2.795634 a 0.18127492,0.18127492 0 0 0 0.0023,0.0023 c 0.352886,0.270424 0.732983,0.227246 1.027244,0.08785 a 0.18127492,0.18127492 0 0 0 0.0428,-0.02929 l 1.326857,-1.196199 a 0.18127492,0.18127492 0 0 0 0.05857,-0.13291 l 0.0428,-4.636112 a 0.18127492,0.18127492 0 0 0 0,-0.0023 0.18127492,0.18127492 0 0 0 0,-0.0113 c -0.02641,-0.387523 0.178072,-0.712351 0.47983,-1.052024 0.301757,-0.339672 0.690551,-0.672013 0.955156,-1.076803 a 0.18127492,0.18127492 0 0 0 -0.05857,-0.254558 l -4.0887,-2.417177 0.08785,0.137417 a 0.18127492,0.18127492 0 0 0 -0.09912,-0.141922 l -1e-5,-1.3e-5"
     id="path9749" />
  <path
     style="color:#000000;fill:#606668;fill-opacity:1;stroke-linecap:round;stroke-linejoin:round;paint-order:markers fill stroke"
     d="m 21.951172,30.728516 a 0.15716622,0.15716622 0 0 0 -0.109375,0.0293 l -4.914063,3.611329 -1.289062,0.863281 A 0.15716622,0.15716622 0 0 0 15.570313,35.375 l 0.07226,1.101562 a 0.15716622,0.15716622 0 0 0 0.05664,0.111329 l 2.847656,2.36914 a 0.15716622,0.15716622 0 0 0 0.01758,0.01172 c 0.170653,0.107512 0.366015,0.17307 0.576172,0.152344 0.210157,-0.02073 0.424867,-0.123247 0.640625,-0.3125 a 0.15716622,0.15716622 0 0 0 0.0078,-0.0098 l 1.59961,-1.634766 a 0.15716622,0.15716622 0 0 0 0.04492,-0.111328 l -0.01953,-3.77539 c 0.01092,-0.224129 0.06357,-0.334449 0.150391,-0.421875 0.08683,-0.08743 0.22811,-0.156789 0.423828,-0.234375 a 0.15716622,0.15716622 0 0 0 0.09961,-0.144532 l 0.0039,-1.591796 a 0.15716622,0.15716622 0 0 0 -0.140625,-0.15625 l 2.2e-5,3.3e-5"
     id="path9760"
     inkscape:path-effect="#path-effect12780"
     inkscape:original-d="m 21.951172,30.728516 a 0.15716622,0.15716622 0 0 0 -0.109375,0.0293 l -4.914063,3.611329 -1.289062,0.863281 A 0.15716622,0.15716622 0 0 0 15.570313,35.375 l 0.07226,1.101562 a 0.15716622,0.15716622 0 0 0 0.05664,0.111329 l 2.847656,2.36914 a 0.15716622,0.15716622 0 0 0 0.01758,0.01172 c 0.170653,0.107512 0.366015,0.17307 0.576172,0.152344 0.210157,-0.02073 0.424867,-0.123247 0.640625,-0.3125 a 0.15716622,0.15716622 0 0 0 0.0078,-0.0098 l 1.59961,-1.634766 a 0.15716622,0.15716622 0 0 0 0.04492,-0.111328 l -0.01953,-3.77539 c 0.01092,-0.224129 0.06357,-0.334449 0.150391,-0.421875 0.08683,-0.08743 0.22811,-0.156789 0.423828,-0.234375 a 0.15716622,0.15716622 0 0 0 0.09961,-0.144532 l 0.0039,-1.591796 a 0.15716622,0.15716622 0 0 0 -0.140625,-0.15625 z m -0.173828,0.466796 -0.0039,1.191407 c -0.158692,0.06688 -0.314713,0.128356 -0.43164,0.246093 -0.143893,0.14489 -0.228792,0.353942 -0.242188,0.628907 a 0.15716622,0.15716622 0 0 0 0,0.0078 l 0.01953,3.720703 -1.548829,1.583985 c -0.179699,0.156493 -0.33003,0.221657 -0.458984,0.234375 -0.130046,0.01282 -0.249789,-0.02412 -0.378906,-0.105469 l -2.78125,-2.314453 -0.0625,-0.945313 1.216797,-0.814453 a 0.15716622,0.15716622 0 0 0 0.0059,-0.0039 z"
     class="UnoptimicedTransforms"
     transform="matrix(1.1533962,0,0,1.1533962,-4.194724,-2.5807839)" />
  <path
     style="color:#000000;fill:#edf1e9;fill-opacity:1;stroke-width:1.1534;stroke-linecap:round;stroke-linejoin:round;paint-order:markers fill stroke"
     d="m 17.140853,30.423918 a 0.18127492,0.18127492 0 0 0 -0.171208,0.0023 c -0.321705,0.180051 -0.736134,0.420946 -1.076802,0.725379 -0.34067,0.304433 -0.622839,0.686509 -0.603732,1.144385 l -0.03604,4.81633 -1.410207,0.943893 a 0.18127492,0.18127492 0 0 0 -0.0113,0.292854 l 3.530023,2.795634 a 0.18127492,0.18127492 0 0 0 0.0023,0.0023 c 0.352886,0.270424 0.735236,0.229499 1.029496,0.09011 a 0.18127492,0.18127492 0 0 0 0.0428,-0.02929 l 1.324603,-1.196199 a 0.18127492,0.18127492 0 0 0 0.06082,-0.13291 l 0.0428,-4.636112 a 0.18127492,0.18127492 0 0 0 0,-0.0068 0.18127492,0.18127492 0 0 0 0,-0.0068 c -0.02641,-0.387523 0.178074,-0.712351 0.479832,-1.052023 0.301757,-0.339673 0.690549,-0.674266 0.955156,-1.079056 a 0.18127492,0.18127492 0 0 0 -0.06082,-0.254558 l -4.088699,-2.414924 0.08785,0.135163 a 0.18127492,0.18127492 0 0 0 -0.09686,-0.139669 l -1.9e-5,-2.1e-5"
     id="path9762" />
  <path
     style="color:#000000;fill:#606668;fill-opacity:1;stroke-linecap:round;stroke-linejoin:round;-inkscape-stroke:none;paint-order:markers fill stroke"
     d="m 37.080078,24.142578 a 0.15716622,0.15716622 0 0 0 -0.08594,0.140625 L 37,25.875 a 0.15716622,0.15716622 0 0 0 0.09766,0.144531 c 0.195718,0.07759 0.337003,0.146949 0.423828,0.234375 0.08682,0.08743 0.139472,0.195793 0.150391,0.419922 l -0.01758,3.777344 a 0.15716622,0.15716622 0 0 0 0.04492,0.111328 l 1.597656,1.634766 a 0.15716622,0.15716622 0 0 0 0.0098,0.0078 c 0.215758,0.189254 0.428515,0.293727 0.638671,0.314453 0.210157,0.02073 0.407472,-0.04483 0.578125,-0.152344 a 0.15716622,0.15716622 0 0 0 0.01563,-0.01172 l 2.84961,-2.371094 A 0.15716622,0.15716622 0 0 0 43.443359,29.875 l 0.07422,-1.103516 a 0.15716622,0.15716622 0 0 0 -0.06836,-0.140625 L 42.158203,27.767578 37.246094,24.15625 a 0.15716622,0.15716622 0 0 0 -0.166016,-0.01367 v -2e-6"
     id="path9799"
     inkscape:path-effect="#path-effect12774"
     inkscape:original-d="m 37.080078,24.142578 a 0.15716622,0.15716622 0 0 0 -0.08594,0.140625 L 37,25.875 a 0.15716622,0.15716622 0 0 0 0.09766,0.144531 c 0.195718,0.07759 0.337003,0.146949 0.423828,0.234375 0.08682,0.08743 0.139472,0.195793 0.150391,0.419922 l -0.01758,3.777344 a 0.15716622,0.15716622 0 0 0 0.04492,0.111328 l 1.597656,1.634766 a 0.15716622,0.15716622 0 0 0 0.0098,0.0078 c 0.215758,0.189254 0.428515,0.293727 0.638671,0.314453 0.210157,0.02073 0.407472,-0.04483 0.578125,-0.152344 a 0.15716622,0.15716622 0 0 0 0.01563,-0.01172 l 2.84961,-2.371094 A 0.15716622,0.15716622 0 0 0 43.443359,29.875 l 0.07422,-1.103516 a 0.15716622,0.15716622 0 0 0 -0.06836,-0.140625 L 42.158203,27.767578 37.246094,24.15625 a 0.15716622,0.15716622 0 0 0 -0.166016,-0.01367 z m 0.230469,0.451172 4.664062,3.427734 a 0.15716622,0.15716622 0 0 0 0.0059,0.0039 l 1.216797,0.816406 -0.0625,0.945312 -2.785157,2.316407 c -0.1268,0.07867 -0.24504,0.11614 -0.373047,0.103515 -0.130046,-0.01282 -0.281155,-0.07887 -0.46289,-0.238281 l -1.544922,-1.580078 0.01758,-3.720703 a 0.15716622,0.15716622 0 0 0 0,-0.002 0.15716622,0.15716622 0 0 0 0,-0.002 0.15716622,0.15716622 0 0 0 0,-0.002 0.15716622,0.15716622 0 0 0 0,-0.002 c -0.0134,-0.274965 -0.09634,-0.484016 -0.240234,-0.628906 -0.116927,-0.117737 -0.272949,-0.17921 -0.431641,-0.246094 z"
     class="UnoptimicedTransforms"
     transform="matrix(1.1533962,0,0,1.1533962,-4.194724,-2.5807839)" />
  <path
     style="color:#000000;fill:#edf1e9;fill-opacity:1;stroke-width:1.1534;stroke-linecap:round;stroke-linejoin:round;paint-order:markers fill stroke"
     d="m 42.619195,22.807449 a 0.18127492,0.18127492 0 0 0 -0.09686,0.141922 l 0.08785,-0.135164 -4.088699,2.414923 a 0.18127492,0.18127492 0 0 0 -0.05857,0.254558 c 0.264605,0.404792 0.653399,0.739385 0.955156,1.079057 0.301758,0.339672 0.50624,0.662247 0.479832,1.04977 a 0.18127492,0.18127492 0 0 0 0,0.01577 l 0.0428,4.633859 a 0.18127492,0.18127492 0 0 0 0.05857,0.132912 l 1.324604,1.196197 a 0.18127492,0.18127492 0 0 0 0.04505,0.02928 c 0.294261,0.139389 0.674358,0.182567 1.027244,-0.08785 a 0.18127492,0.18127492 0 0 0 0.0023,-0.0023 L 45.93076,30.73474 a 0.18127492,0.18127492 0 0 0 -0.0113,-0.292855 L 44.507,29.49574 44.47321,24.681663 c 0.0191,-0.457876 -0.26307,-0.839953 -0.603739,-1.144386 -0.340669,-0.304433 -0.757351,-0.545327 -1.079056,-0.725378 a 0.18127492,0.18127492 0 0 0 -0.171207,-0.0045 l -1.3e-5,4.8e-5"
     id="path9801" />
  <path
     style="color:#000000;fill:#606668;fill-opacity:1;stroke-linecap:round;stroke-linejoin:round;paint-order:markers fill stroke"
     d="m 32.035156,27.414062 a 0.15716622,0.15716622 0 0 0 -0.08594,0.140625 l 0.0039,1.589844 a 0.15716622,0.15716622 0 0 0 0.09961,0.146485 c 0.195718,0.07759 0.337003,0.144995 0.423828,0.232421 0.08683,0.08743 0.139472,0.197747 0.150391,0.421875 l -0.01758,3.777344 a 0.15716622,0.15716622 0 0 0 0.04297,0.111328 l 1.599609,1.634766 a 0.15716622,0.15716622 0 0 0 0.0078,0.0078 c 0.215758,0.189254 0.430468,0.293727 0.640625,0.314454 0.210156,0.02073 0.405518,-0.04483 0.576171,-0.152344 a 0.15716622,0.15716622 0 0 0 0.01758,-0.01172 l 2.847656,-2.371094 a 0.15716622,0.15716622 0 0 0 0.05664,-0.109375 l 0.07422,-1.103515 a 0.15716622,0.15716622 0 0 0 -0.07031,-0.140625 l -1.289063,-0.865235 -4.914062,-3.609375 a 0.15716622,0.15716622 0 0 0 -0.164063,-0.01367 l 1.8e-5,1.1e-5"
     id="path9789"
     inkscape:path-effect="#path-effect12776"
     inkscape:original-d="m 32.035156,27.414062 a 0.15716622,0.15716622 0 0 0 -0.08594,0.140625 l 0.0039,1.589844 a 0.15716622,0.15716622 0 0 0 0.09961,0.146485 c 0.195718,0.07759 0.337003,0.144995 0.423828,0.232421 0.08683,0.08743 0.139472,0.197747 0.150391,0.421875 l -0.01758,3.777344 a 0.15716622,0.15716622 0 0 0 0.04297,0.111328 l 1.599609,1.634766 a 0.15716622,0.15716622 0 0 0 0.0078,0.0078 c 0.215758,0.189254 0.430468,0.293727 0.640625,0.314454 0.210156,0.02073 0.405518,-0.04483 0.576171,-0.152344 a 0.15716622,0.15716622 0 0 0 0.01758,-0.01172 l 2.847656,-2.371094 a 0.15716622,0.15716622 0 0 0 0.05664,-0.109375 l 0.07422,-1.103515 a 0.15716622,0.15716622 0 0 0 -0.07031,-0.140625 l -1.289063,-0.865235 -4.914062,-3.609375 a 0.15716622,0.15716622 0 0 0 -0.164063,-0.01367 z m 0.228516,0.451172 4.666015,3.427735 a 0.15716622,0.15716622 0 0 0 0.0059,0.0039 l 1.216797,0.816406 -0.0625,0.94336 -2.785157,2.318359 c -0.126797,0.07867 -0.245042,0.114187 -0.373046,0.101562 -0.130047,-0.01282 -0.281156,-0.07692 -0.462891,-0.236328 l -1.544922,-1.580078 0.01758,-3.720703 a 0.15716622,0.15716622 0 0 0 0,-0.0059 0.15716622,0.15716622 0 0 0 0,-0.002 0.15716622,0.15716622 0 0 0 0,-0.002 c -0.0134,-0.274964 -0.0983,-0.482063 -0.242187,-0.626953 -0.11697,-0.11778 -0.272879,-0.181143 -0.431641,-0.248047 z"
     class="UnoptimicedTransforms"
     transform="matrix(1.1533962,0,0,1.1533962,-4.194724,-2.5807839)" />
  <path
     style="color:#000000;fill:#edf1e9;fill-opacity:1;stroke-width:1.1534;stroke-linecap:round;stroke-linejoin:round;paint-order:markers fill stroke"
     d="m 36.800401,26.580766 a 0.18127492,0.18127492 0 0 0 -0.09686,0.141922 l 0.08785,-0.137416 -4.088699,2.417175 a 0.18127492,0.18127492 0 0 0 -0.06082,0.25456 c 0.264605,0.40479 0.653399,0.73713 0.955156,1.076802 0.301758,0.339673 0.508492,0.664501 0.482084,1.052024 a 0.18127492,0.18127492 0 0 0 -0.0023,0.01352 l 0.0428,4.636113 a 0.18127492,0.18127492 0 0 0 0.06082,0.132911 l 1.324604,1.196197 a 0.18127492,0.18127492 0 0 0 0.0428,0.02928 c 0.29426,0.139389 0.676611,0.182568 1.029496,-0.08785 a 0.18127492,0.18127492 0 0 0 0.0023,-0.0023 l 3.530023,-2.795634 a 0.18127492,0.18127492 0 0 0 -0.0113,-0.292854 l -1.410208,-0.946146 -0.03604,-4.814078 c 0.01914,-0.457824 -0.263026,-0.839902 -0.603695,-1.144334 -0.34067,-0.304433 -0.755098,-0.545328 -1.076804,-0.725378 a 0.18127492,0.18127492 0 0 0 -0.171207,-0.0045 v -7e-6"
     id="path9791" />
  <path
     style="color:#000000;fill:#606668;fill-opacity:1;stroke-linecap:round;stroke-linejoin:round;paint-order:markers fill stroke"
     d="m 26.910156,30.732422 a 0.15716622,0.15716622 0 0 0 -0.08594,0.140625 l 0.0039,1.589844 a 0.15716622,0.15716622 0 0 0 0.09961,0.146484 c 0.195718,0.07759 0.337003,0.144995 0.423828,0.232422 0.08683,0.08743 0.139472,0.197746 0.150391,0.421875 l -0.01953,3.777344 a 0.15716622,0.15716622 0 0 0 0.04492,0.111328 l 1.599609,1.634765 a 0.15716622,0.15716622 0 0 0 0.0078,0.0078 c 0.215758,0.189253 0.430468,0.293727 0.640625,0.314453 0.210156,0.02073 0.405518,-0.04483 0.576171,-0.152344 a 0.15716622,0.15716622 0 0 0 0.01758,-0.01172 l 2.847656,-2.371093 a 0.15716622,0.15716622 0 0 0 0.05664,-0.109375 l 0.07227,-1.103516 a 0.15716622,0.15716622 0 0 0 -0.06836,-0.140625 L 31.988263,34.355455 27.074201,30.74608 a 0.15716622,0.15716622 0 0 0 -0.164063,-0.01367 l 1.8e-5,1.2e-5"
     id="path9774"
     inkscape:path-effect="#path-effect12778"
     inkscape:original-d="m 26.910156,30.732422 a 0.15716622,0.15716622 0 0 0 -0.08594,0.140625 l 0.0039,1.589844 a 0.15716622,0.15716622 0 0 0 0.09961,0.146484 c 0.195718,0.07759 0.337003,0.144995 0.423828,0.232422 0.08683,0.08743 0.139472,0.197746 0.150391,0.421875 l -0.01953,3.777344 a 0.15716622,0.15716622 0 0 0 0.04492,0.111328 l 1.599609,1.634765 a 0.15716622,0.15716622 0 0 0 0.0078,0.0078 c 0.215758,0.189253 0.430468,0.293727 0.640625,0.314453 0.210156,0.02073 0.405518,-0.04483 0.576171,-0.152344 a 0.15716622,0.15716622 0 0 0 0.01758,-0.01172 l 2.847656,-2.371093 a 0.15716622,0.15716622 0 0 0 0.05664,-0.109375 l 0.07227,-1.103516 a 0.15716622,0.15716622 0 0 0 -0.06836,-0.140625 L 31.988263,34.355455 27.074201,30.74608 a 0.15716622,0.15716622 0 0 0 -0.164063,-0.01367 z m 0.228516,0.451172 4.666015,3.427734 a 0.15716622,0.15716622 0 0 0 0.0059,0.0039 l 1.216797,0.816407 -0.06445,0.943359 -2.779297,2.316406 c -6.2e-4,3.9e-4 -0.0013,-3.88e-4 -0.002,0 -0.128407,0.08052 -0.247531,0.11628 -0.376954,0.103516 -0.128953,-0.01272 -0.279284,-0.07788 -0.458984,-0.234375 l -1.548828,-1.582031 0.01953,-3.720704 a 0.15716622,0.15716622 0 0 0 0,-0.0059 0.15716622,0.15716622 0 0 0 0,-0.002 0.15716622,0.15716622 0 0 0 0,-0.002 c -0.01339,-0.274965 -0.0983,-0.482064 -0.242187,-0.626953 -0.11697,-0.11778 -0.272879,-0.181144 -0.431641,-0.248047 z"
     class="UnoptimicedTransforms"
     transform="matrix(1.1533962,0,0,1.1533962,-4.194724,-2.5807839)" />
  <path
     style="color:#000000;fill:#edf1e9;fill-opacity:1;stroke-width:1.1534;stroke-linecap:round;stroke-linejoin:round;-inkscape-stroke:none;paint-order:markers fill stroke"
     d="m 30.889246,30.408149 a 0.18127492,0.18127492 0 0 0 -0.09686,0.141922 l 0.08785,-0.137416 -4.0887,2.417176 a 0.18127492,0.18127492 0 0 0 -0.06082,0.254558 c 0.264605,0.40479 0.653399,0.737131 0.955156,1.076804 0.301757,0.339672 0.506239,0.6645 0.479831,1.052023 a 0.18127492,0.18127492 0 0 0 0,0.01352 l 0.0428,4.636112 a 0.18127492,0.18127492 0 0 0 0.06082,0.13291 l 1.324604,1.196199 a 0.18127492,0.18127492 0 0 0 0.0428,0.02929 c 0.29426,0.13939 0.676611,0.182567 1.029496,-0.08786 a 0.18127492,0.18127492 0 0 0 0.0023,-0.0023 l 3.530023,-2.795634 a 0.18127492,0.18127492 0 0 0 -0.0113,-0.292855 l -1.410208,-0.946144 -0.03604,-4.814079 c 0.01909,-0.457824 -0.26308,-0.839901 -0.60375,-1.144334 -0.340669,-0.304433 -0.755097,-0.54758 -1.076803,-0.72763 a 0.18127492,0.18127492 0 0 0 -0.171207,-0.0023 v 5.3e-5"
     id="path9781" />
</svg>
