<?xml version="1.0" encoding="UTF-8" standalone="no"?>
<svg
   fill="none"
   viewBox="0 0 48 48"
   height="256"
   width="256"
   version="1.1"
   id="svg6"
   sodipodi:docname="build_automation.svg"
   inkscape:version="1.2.1 (9c6d41e410, 2022-07-14)"
   xmlns:inkscape="http://www.inkscape.org/namespaces/inkscape"
   xmlns:sodipodi="http://sodipodi.sourceforge.net/DTD/sodipodi-0.dtd"
   xmlns="http://www.w3.org/2000/svg"
   xmlns:svg="http://www.w3.org/2000/svg">
  <defs
     id="defs10" />
  <sodipodi:namedview
     id="namedview8"
     pagecolor="#ffffff"
     bordercolor="#666666"
     borderopacity="1.0"
     inkscape:showpageshadow="2"
     inkscape:pageopacity="0.0"
     inkscape:pagecheckerboard="true"
     inkscape:deskcolor="#d1d1d1"
     showgrid="true"
     inkscape:zoom="0.61621094"
     inkscape:cx="-194.73851"
     inkscape:cy="-59.232963"
     inkscape:current-layer="svg6"
     showguides="false"
     inkscape:window-width="1920"
     inkscape:window-height="730"
     inkscape:window-x="-6"
     inkscape:window-y="-6"
     inkscape:window-maximized="1">
    <inkscape:grid
       type="xygrid"
       id="grid239"
       units="px"
       spacingx="1.5"
       spacingy="1.5" />
  </sodipodi:namedview>
  <path
     id="path2295"
     style="fill:#adafaa;fill-opacity:1;stroke-width:0.1875;stroke-linecap:round;stroke-linejoin:round"
     d="m 33.378662,17.631592 c 1.423079,0 2.182119,0.336604 2.509644,0.538696 0.141324,0.08722 0.234536,0.22696 0.296997,0.380859 0.223009,0.550016 0.783669,1.981444 1.114013,3.257813 1.046806,0.411788 2.014911,0.983793 2.875122,1.686035 1.253149,-0.347799 2.754058,-0.571466 3.33838,-0.651123 0.16514,-0.0225 0.33311,-0.01013 0.47864,0.07068 0.33664,0.186988 1.00298,0.685469 1.71386,1.93396 0.71082,1.248554 0.80334,2.083091 0.79468,2.47229 -0.004,0.168224 -0.0773,0.321787 -0.17907,0.455566 -0.36001,0.473179 -1.30074,1.679048 -2.224,2.605591 0.0832,0.548957 0.12634,1.11126 0.12634,1.683838 0,0.572577 -0.0431,1.134879 -0.12634,1.683838 0.92326,0.926542 1.86399,2.132046 2.224,2.605224 0.10176,0.133778 0.17533,0.287343 0.17907,0.455567 0.009,0.389197 -0.0838,1.2241 -0.79468,2.472656 -0.71088,1.248491 -1.37722,1.746906 -1.71386,1.93396 -0.14553,0.08083 -0.3135,0.09319 -0.47864,0.07068 -0.584322,-0.07965 -2.085231,-0.303327 -3.33838,-0.651123 -0.860211,0.702287 -1.828316,1.274267 -2.875122,1.686035 -0.330344,1.276375 -0.891004,2.707806 -1.114013,3.257812 -0.06246,0.153922 -0.155673,0.293664 -0.296997,0.38086 C 35.560781,46.163447 34.801741,46.5 33.378662,46.5 c -1.423077,0 -2.182485,-0.336551 -2.51001,-0.538696 -0.141324,-0.0872 -0.234602,-0.226938 -0.296997,-0.38086 -0.223008,-0.550006 -0.783734,-1.981437 -1.114013,-3.257812 -1.046871,-0.411768 -2.014911,-0.983748 -2.875122,-1.686035 -1.253149,0.347796 -2.753693,0.571473 -3.338013,0.651123 -0.165115,0.02251 -0.333115,0.01009 -0.478638,-0.07068 -0.336652,-0.187054 -1.003403,-0.68577 -1.714233,-1.934326 -0.710826,-1.248491 -0.803312,-2.083093 -0.794678,-2.47229 0.0037,-0.168224 0.0773,-0.321789 0.179077,-0.455567 0.360042,-0.473178 1.300704,-1.678747 2.223999,-2.605224 -0.08318,-0.548959 -0.126343,-1.111261 -0.126343,-1.683838 0,-0.572578 0.04316,-1.134881 0.126343,-1.683838 -0.923295,-0.926543 -1.863957,-2.132412 -2.223999,-2.605591 -0.101774,-0.133779 -0.175344,-0.287342 -0.179077,-0.455566 -0.0086,-0.389199 0.08385,-1.223736 0.794678,-2.47229 0.71083,-1.248491 1.377581,-1.746906 1.714233,-1.93396 0.145523,-0.0808 0.313517,-0.09318 0.478638,-0.07068 0.584327,0.07966 2.08523,0.303324 3.338379,0.651123 0.86021,-0.702242 1.827951,-1.274247 2.874756,-1.686035 0.330279,-1.276369 0.891005,-2.707797 1.114013,-3.257813 0.06239,-0.153899 0.155673,-0.293644 0.296997,-0.380859 0.327525,-0.202092 1.086933,-0.538696 2.51001,-0.538696 z"
     sodipodi:nodetypes="sccccccccccscccccsccccsccccscccccsccccccccccss" />
  <path
     id="path2344"
     style="fill:#606668;fill-opacity:1;stroke-width:0.1875;stroke-linecap:round;stroke-linejoin:round"
     d="m 33.378662,26.816895 c 2.89884,0 5.248535,2.350061 5.248535,5.248901 0,2.898841 -2.349695,5.248901 -5.248535,5.248901 -2.898841,0 -5.248901,-2.35006 -5.248901,-5.248901 0,-2.89884 2.35006,-5.248901 5.248901,-5.248901 z"
     sodipodi:nodetypes="sssss" />
  <path
     id="rect14683"
     style="fill:#bb852e;fill-opacity:1;stroke-width:0.1875;stroke-linecap:round;stroke-linejoin:round"
     d="m 20.074951,13.081055 c 0.04243,-8.44e-4 0.08475,-4.14e-4 0.127075,0.0015 0.307818,0.01366 0.612006,0.100773 0.895752,0.277954 0.282646,0.176531 0.577031,0.39978 0.859497,0.682251 0.282381,0.282381 0.506175,0.577304 0.682618,0.859863 0.566797,0.90782 0.208767,2.021232 -0.51233,2.812134 -6.895629,7.562627 -11.677514,12.946159 -13.8911124,15.455531 -0.8993111,1.019517 -2.211732,1.699711 -3.437622,1.112183 -0.54979,-0.263515 -1.1658082,-0.669222 -1.7889412,-1.292359 -0.62313,-0.623136 -1.028845,-1.239146 -1.292358,-1.78894 -0.587523,-1.2259 0.09267,-2.538217 1.112183,-3.437622 2.5093532,-2.213529 7.8923156,-6.995608 15.4548336,-13.891113 0.509812,-0.464888 1.153914,-0.778722 1.790405,-0.791382 z"
     sodipodi:nodetypes="sccsccccscccs" />
  <path
     id="rect14673"
     style="fill:#606668;fill-opacity:1;stroke-width:0.1875;stroke-linecap:round;stroke-linejoin:round"
     d="m 18.862793,1.5 c 0.714895,0.00602 1.431108,0.2665862 2.052246,0.7719727 1.365574,1.111015 3.501824,3.0007772 6.656982,6.1560058 3.155249,3.1552025 5.044999,5.2914005 6.156006,6.6569825 1.010744,1.242287 1.041698,2.864946 0.01721,4.096069 -0.650146,0.781245 -1.573186,1.805721 -2.873657,3.106201 -1.300471,1.300481 -2.324872,2.223507 -3.106201,2.873658 -1.231115,1.024479 -2.853706,0.993624 -4.096069,-0.01721 C 22.303735,24.032663 20.167941,22.142857 17.012693,18.987673 13.857533,15.8324 11.967327,13.696275 10.856321,12.33069 9.8454996,11.088315 9.8146446,9.4657441 10.839111,8.2346191 11.489259,7.4533035 12.412299,6.4288892 13.712769,5.128418 15.013239,3.827946 16.037364,2.9049387 16.818604,2.2547607 17.434161,1.7425315 18.147898,1.494 18.862793,1.5 Z"
     sodipodi:nodetypes="cccccscccccscc" />
</svg>
