<?xml version="1.0" encoding="UTF-8" standalone="no"?>
<svg
   fill="none"
   viewBox="0 0 48 48"
   height="256"
   width="256"
   version="1.1"
   id="svg14"
   sodipodi:docname="fermionic-flash-prog.svg"
   inkscape:version="1.3.2 (091e20e, 2023-11-25, custom)"
   xml:space="preserve"
   xmlns:inkscape="http://www.inkscape.org/namespaces/inkscape"
   xmlns:sodipodi="http://sodipodi.sourceforge.net/DTD/sodipodi-0.dtd"
   xmlns="http://www.w3.org/2000/svg"
   xmlns:svg="http://www.w3.org/2000/svg"><defs
     id="defs18" /><sodipodi:namedview
     id="namedview16"
     pagecolor="#ffffff"
     bordercolor="#666666"
     borderopacity="1.0"
     inkscape:showpageshadow="2"
     inkscape:pageopacity="0.0"
     inkscape:pagecheckerboard="0"
     inkscape:deskcolor="#d1d1d1"
     showgrid="false"
     inkscape:zoom="0.57245265"
     inkscape:cx="-222.72585"
     inkscape:cy="149.35733"
     inkscape:current-layer="svg14"
     inkscape:window-width="1920"
     inkscape:window-height="1009"
     inkscape:window-x="2552"
     inkscape:window-y="-8"
     inkscape:window-maximized="1" /><g
     style="fill:none;stroke-width:0.864366"
     id="g1"
     transform="matrix(1,0,0,1.3384559,-8.1522438e-8,-5.9600647)"><g
       id="g3"
       transform="matrix(0.35654596,0,0,0.59627231,10.168053,19.417767)"
       style="stroke-width:0.864366"><path
         style="fill:#f0836c;stroke-width:0.864366"
         d="m -24.018211,28.179269 c 6.299169,-3.004273 8.585448,-5.156305 16.222825,-15.270249 3.684107,-4.8787491 6.815839,-8.870453 6.959404,-8.870453 0.470394,0 8.692771,11.186605 8.692771,11.826579 0,0.343197 -1.7020149,2.533613 -3.782255,4.867591 -2.571265,2.884894 -5.367998,5.024253 -8.734963,6.681805 -4.670243,2.299153 -5.491809,2.45169 -14.405245,2.674564 l -9.452537,0.236355 z m 67.3125,1.270213 c -1.340625,-0.387092 -2.4375,-0.81512 -2.4375,-0.951174 0,-0.136054 1.864445,-1.485293 4.143211,-2.998308 3.020591,-2.00556 5.925248,-5.140228 10.720107,-11.569002 l 6.576897,-8.8180653 4.558868,6.0663473 4.558869,6.066348 -2.716476,3.05338 C 61.673838,28.19462 51.562296,31.836783 43.294289,29.449482 Z M 75.566953,-0.90637439 70.98206,-7.0073521 75.231925,-11.198704 c 6.159179,-6.074378 11.24572,-8.186418 20.731869,-8.608312 10.313746,-0.458701 11.454756,-0.124746 6.767996,1.980883 -6.546054,2.940956 -9.352679,5.449501 -16.047937,14.3435508 L 80.151846,5.1946033 Z M 12.145148,-2.4893796 7.8085081,-8.230461 11.020148,-11.511192 c 1.766403,-1.804402 5.376083,-4.348562 8.021512,-5.653687 4.177224,-2.060839 5.607623,-2.376152 10.875,-2.397255 3.335821,-0.01336 6.72716,0.245635 7.536309,0.575554 1.290912,0.526351 1.061163,0.831335 -1.875,2.488998 -4.528574,2.556687 -7.439011,5.466584 -13.226106,13.223649 -2.692745,3.609375 -5.115089,6.5542054 -5.382987,6.5440675 -0.267898,-0.010138 -2.438575,-2.6019193 -4.823728,-5.7595141 z"
         id="path2-6"
         sodipodi:nodetypes="ssssssscssssscccssccssssccscssssssss" /><path
         style="fill:#3e688e;stroke-width:0.864366"
         d="M 26.40764,29.472528 C 22.542842,28.561993 18.184162,26.24968 14.904292,23.369916 13.394981,22.044723 6.5990923,13.586083 -0.197683,4.5729376 -13.200556,-12.670063 -16.426464,-15.856965 -23.268211,-18.218634 c -4.827937,-1.666533 -3.230468,-2.022224 7.15954,-1.594139 6.885254,0.283684 8.567587,0.627621 12.760648,2.608795 2.656397,1.255118 6.011062,3.45073 7.454812,4.879139 1.44375,1.428409 8.265694,9.9976496 15.159876,19.0427567 13.04172,17.1106243 15.579101,19.5983823 22.5474,22.1064483 l 3.917724,1.410087 -8.25,-0.04828 c -4.5375,-0.02655 -9.520867,-0.347694 -11.074149,-0.713644 z m 62.715437,0.03642 C 84.35089,28.564456 79.088353,25.535816 75.272643,21.537896 73.370113,19.544515 66.677569,11.101752 60.400324,2.7762006 48.376398,-13.171209 44.809069,-16.587136 37.785024,-18.879277 c -3.150611,-1.028132 -2.835415,-1.066138 6.821765,-0.822573 16.364306,0.412726 17.999518,1.581435 36.364761,25.990417 12.288035,16.331852 14.624825,18.68785 21.57274,21.750061 1.95937,0.863572 3.5625,1.723087 3.5625,1.910035 0,0.570226 -13.668959,0.216335 -16.983713,-0.439711 z"
         id="path1"
         sodipodi:nodetypes="ssssssssscsssssssssssss" /></g></g><path
     id="rect18446"
     style="fill:#fff01c;fill-opacity:1;stroke:none;stroke-width:0.1875;stroke-linecap:round;stroke-linejoin:round;stroke-opacity:1"
     d="m 26.396038,12.299622 c 0.837127,-0.01545 1.619941,0.684405 1.549439,1.67395 -0.185652,2.604389 -0.399325,4.787497 -0.605713,6.559937 -0.052,0.446065 0.266048,0.850932 0.711548,0.90747 2.005961,0.254421 3.66685,0.531288 4.910522,0.764649 1.187215,0.222831 1.629235,1.608322 0.806763,2.493164 -2.163911,2.327855 -6.060464,6.355102 -10.262329,9.907837 -1.05397,0.89116 -2.607369,0.07516 -2.509278,-1.301514 0.185652,-2.604468 0.399325,-4.787863 0.605713,-6.560303 0.052,-0.446065 -0.266048,-0.850566 -0.711548,-0.907104 -2.005961,-0.254421 -3.666931,-0.531288 -4.910522,-0.764649 -1.187214,-0.222829 -1.629235,-1.608401 -0.806762,-2.493164 2.16391,-2.327934 6.06038,-6.355103 10.262328,-9.907836 0.29643,-0.250633 0.632267,-0.36639 0.959839,-0.372437 z"
     sodipodi:nodetypes="cccccccccccssc" /></svg>
