<?xml version="1.0" encoding="UTF-8" standalone="no"?>
<svg
   fill="none"
   viewBox="0 0 48 48"
   height="256"
   width="256"
   version="1.1"
   id="svg6"
   sodipodi:docname="gnu_arm.svg"
   inkscape:version="1.2.1 (9c6d41e410, 2022-07-14)"
   xml:space="preserve"
   xmlns:inkscape="http://www.inkscape.org/namespaces/inkscape"
   xmlns:sodipodi="http://sodipodi.sourceforge.net/DTD/sodipodi-0.dtd"
   xmlns="http://www.w3.org/2000/svg"
   xmlns:svg="http://www.w3.org/2000/svg"><defs
     id="defs10" /><sodipodi:namedview
     id="namedview8"
     pagecolor="#ffffff"
     bordercolor="#666666"
     borderopacity="1.0"
     inkscape:showpageshadow="2"
     inkscape:pageopacity="0.0"
     inkscape:pagecheckerboard="true"
     inkscape:deskcolor="#d1d1d1"
     showgrid="true"
     inkscape:zoom="0.8095703"
     inkscape:cx="-305.10012"
     inkscape:cy="52.496985"
     inkscape:current-layer="svg6"
     showguides="false"
     inkscape:window-width="1920"
     inkscape:window-height="730"
     inkscape:window-x="-6"
     inkscape:window-y="-6"
     inkscape:window-maximized="1"><inkscape:grid
       type="xygrid"
       id="grid239"
       units="px"
       spacingx="1.5"
       spacingy="1.5" /></sodipodi:namedview><path
     id="path27868"
     style="fill:#606668;fill-opacity:1;stroke-width:0.112575"
     d="m 24.000683,16.6219 c -0.917477,0.009 -1.846364,0.0433 -2.150983,0.103023 -2.21787,0.705656 -3.893625,1.709555 -4.690873,3.48195 -0.12644,0.0968 -0.550489,1.393732 -0.551089,1.658642 -2.776432,2.155153 -13.1150033,0.609465 -9.9138031,4.941176 0.7676043,0.607957 1.9768378,1.215406 2.8741841,1.443503 0.3799787,0.09659 1.162079,0.170456 1.803449,0.170457 1.853984,0 3.30873,-0.515685 4.764104,-1.688432 l 0.671484,-0.540745 c -0.03707,0.636579 0.315975,1.033746 -0.127429,1.414956 -2.30529,0.412539 -1.773072,9.080278 0.244515,9.147566 0.494832,3.926347 0.428068,8.220282 1.802209,10.153344 0.427533,0.47322 0.827677,0.718207 1.540731,0.943717 0.310378,0.09815 1.40036,0.141353 3.733501,0.148943 2.333142,-0.0076 3.423124,-0.05079 3.733502,-0.148943 0.713054,-0.22551 1.113197,-0.470497 1.540731,-0.943717 1.374141,-1.933062 1.307377,-6.226997 1.802209,-10.153344 2.017586,-0.06729 2.549806,-8.735027 0.244515,-9.147566 -0.383349,-0.816469 -0.184955,-0.369403 -0.127429,-1.414956 l 0.671484,0.540745 c 1.455374,1.172747 2.91012,1.688432 4.764103,1.688432 0.64137,-1e-6 1.423471,-0.07386 1.80345,-0.170457 0.897346,-0.228097 2.106578,-0.835546 2.874184,-1.443503 3.2012,-4.331711 -7.137372,-2.786023 -9.913804,-4.941176 -6e-4,-0.26491 -0.424648,-1.561845 -0.551088,-1.658642 -0.797248,-1.772395 -2.473003,-2.776294 -4.690873,-3.48195 -0.304619,-0.05972 -1.233506,-0.09398 -2.150984,-0.103023 z"
     sodipodi:nodetypes="ccccccscccccscccccccscccccc" /><path
     id="path27881"
     style="fill:#bb852e;fill-opacity:1;stroke-width:0.112575"
     d="m 14.965075,4.0001269 c 0.96107,0.5015416 -1.954137,2.8640314 -2.774994,3.7159902 -1.441489,1.8314458 -4.3147123,4.2592899 -5.0695657,6.5024629 -0.2424358,2.387575 2.5693296,0.289554 3.5912107,-0.167408 1.907372,-0.986546 3.965757,-2.30617 6.211389,-1.664667 2.109743,0.407045 3.634195,2.086707 4.52304,3.950905 0.835879,1.254976 1.470884,3.027253 0.377461,4.339564 -1.257751,1.618593 -4.481646,1.652564 -5.159858,-0.29997 -0.549389,-1.188987 -0.756726,-2.966248 -2.916076,-1.846143 -2.227162,1.15528 -3.901667,2.843486 -6.570615,2.213565 C 4.0016212,20.206228 1.7995927,16.786142 2.5539537,13.667283 3.0521179,11.22556 7.4567047,8.2567756 9.3083941,6.8402122 11.061262,5.7005474 12.84262,4.2979468 14.965075,4.0001269 Z"
     sodipodi:nodetypes="ccscssssscccc" /><path
     id="path27961"
     style="fill:#bb852e;fill-opacity:1;stroke-width:0.112575"
     d="m 33.036289,4.0001269 c -0.961069,0.5015416 1.954137,2.8640314 2.774994,3.7159902 1.441489,1.8314458 4.314712,4.2592899 5.069567,6.5024629 0.242435,2.387575 -2.56933,0.289554 -3.591211,-0.167408 -1.907373,-0.986546 -3.965757,-2.30617 -6.21139,-1.664667 -2.109743,0.407045 -3.634195,2.086707 -4.52304,3.950905 -0.835878,1.254976 -1.470883,3.027253 -0.37746,4.339564 1.257751,1.618593 4.481645,1.652564 5.159858,-0.29997 0.549388,-1.188987 0.756725,-2.966248 2.916076,-1.846143 2.227161,1.15528 3.901667,2.843486 6.570614,2.213565 3.175446,-0.538198 5.377475,-3.958284 4.623113,-7.077143 C 44.949246,11.22556 40.544659,8.2567756 38.69297,6.8402122 36.940102,5.7005474 35.158744,4.2979468 33.036289,4.0001269 Z"
     sodipodi:nodetypes="ccscssssscccc" /><ellipse
     style="fill:#ffffff;fill-opacity:1;stroke:none;stroke-width:0.021183;stroke-linejoin:round;stroke-dasharray:none;stroke-opacity:1"
     id="path28016"
     cx="18.663921"
     cy="31.840042"
     rx="2.0114894"
     ry="3.9085002" /><ellipse
     style="fill:#ffffff;fill-opacity:1;stroke:none;stroke-width:0.021183;stroke-linejoin:round;stroke-dasharray:none;stroke-opacity:1"
     id="ellipse28018"
     cx="29.401546"
     cy="31.840042"
     rx="2.0114894"
     ry="3.9085002" /><ellipse
     style="fill:#606668;fill-opacity:1;stroke:none;stroke-width:0.021183;stroke-linejoin:round;stroke-dasharray:none;stroke-opacity:1"
     id="path28137"
     cx="18.840611"
     cy="32.045998"
     rx="0.74007821"
     ry="1.8386301" /><ellipse
     style="fill:#606668;fill-opacity:1;stroke:none;stroke-width:0.021183;stroke-linejoin:round;stroke-dasharray:none;stroke-opacity:1"
     id="ellipse28139"
     cx="29.008444"
     cy="32.045998"
     rx="0.74007821"
     ry="1.8386301" /><path
     id="path8755-4"
     style="fill:#507ab7;fill-opacity:1;stroke-width:1.64566"
     d="m 40.73396,0.0521066 a 1.1411932,1.3006278 0 0 0 -1.140842,1.3007265 1.1411932,1.3006278 0 0 0 1.140842,1.30043 1.1411932,1.3006278 0 0 0 1.141436,-1.30043 1.1411932,1.3006278 0 0 0 -1.141436,-1.3007265 z m -22.482839,0.050131 -0.03352,12.0349064 2.597892,2.97e-4 -0.01128,-4.827963 h 0.582585 c 0.39877,1.02e-4 0.666052,0.06267 0.847475,0.198149 0.396167,0.295846 0.834214,1.169222 1.510148,2.946434 l 0.637756,1.677151 2.660482,-0.0032 c 0.1624,-9.4e-5 -1.254955,-3.716121 -1.759903,-4.599005 C 25.075515,7.166653 24.817889,6.807962 24.709961,6.73196 24.437677,6.540217 24.461472,6.458043 24.860947,6.212856 c 0.773909,-0.475005 1.29064,-1.5586759 1.29064,-2.7073498 0,-1.2278879 -0.738945,-2.4625912 -1.809448,-3.0389832 L 23.716248,0.12955 21.02106,0.13725 Z m 18.369163,0.04954 -0.791708,1.0634216 c -0.367692,0.5133323 -0.748205,1.0322199 -0.845695,1.1530039 -0.09749,0.1207848 -0.485574,0.6518629 -0.862306,1.1802947 -0.376732,0.5284311 -0.712659,0.9607872 -0.746322,0.9607872 -0.03366,0 -0.208507,-0.2099334 -0.388588,-0.4666005 C 32.805584,3.7860173 32.164825,2.9091129 31.561541,2.0938195 30.958259,1.2785246 30.38196,0.4984548 30.280985,0.3606058 30.212945,0.2677174 30.166086,0.1779385 30.062666,0.1746175 l -2.128921,-0.00235 -0.02491,5.9501185 -0.02491,5.950118 0.362187,0.03857 c 0.199165,0.02125 0.752338,0.03662 1.229238,0.03411 l 0.867052,-0.0044 0.02551,-3.650933 c 0.01397,-2.00804 0.06095,-3.6509325 0.104711,-3.6509325 0.103917,0 0.427936,0.4158192 1.647192,2.1137915 1.111476,1.547876 1.305945,1.672604 1.70889,1.096941 0.773555,-1.105129 2.31093,-3.1472552 2.390844,-3.1760264 0.06313,-0.022729 0.08991,1.1945484 0.07801,3.5313904 -0.01016,1.992458 0.0197,3.593136 0.06763,3.626905 0.07187,0.05063 1.998397,0.103825 2.384023,0.06585 0.09609,-0.0095 0.116169,-1.244734 0.09641,-5.968806 L 38.820712,0.1723199 Z M 10.278277,0.1544476 9.0413264,3.541082 c -0.561564,1.6498283 -1.249899,3.666797 -1.529725,4.482093 -0.279827,0.815293 -0.691784,2.015363 -0.915106,2.667007 -0.223323,0.651645 -0.384311,1.248787 -0.358034,1.326831 0.03589,0.106599 0.348554,0.138622 1.257121,0.128441 0.665185,-0.0075 1.243917,-0.05271 1.285895,-0.100557 0.04198,-0.04784 0.229122,-0.564752 0.415877,-1.148555 l 0.339345,-1.061346 h 4.5927356 l 0.383248,1.097831 c 0.210865,0.603922 0.396448,1.113276 0.412316,1.131646 0.01587,0.01837 0.622295,0.04306 1.347594,0.05488 l 1.31882,0.02136 -0.05309,-0.274383 C 17.509193,11.715349 16.515477,9.022491 15.329902,5.882098 L 13.174285,0.1722507 Z M 40.73396,0.3392491 a 0.88926206,1.0134998 0 0 1 0.889596,1.0135871 0.88926206,1.0134998 0 0 1 -0.251246,0.7053885 c -0.01574,-0.078943 -0.163582,-0.4615088 -0.2201,-0.5603361 -0.0259,-0.045287 -0.058,-0.090166 -0.07149,-0.099667 -0.03404,-0.023968 -0.03125,-0.034312 0.01868,-0.064962 0.09674,-0.059373 0.161367,-0.1948706 0.161367,-0.3384553 0,-0.1534861 -0.09222,-0.307638 -0.226033,-0.3796875 l -0.07831,-0.04212 -0.336971,8.91e-4 -0.346168,-0.00446 -0.0041,1.5045119 h 0.324817 l -0.0014,-0.6033471 h 0.07297 c 0.04985,8.1e-6 0.08321,0.0077 0.105897,0.024624 0.04953,0.036985 0.104165,0.1462633 0.188658,0.3684155 l 0.07979,0.2094207 0.32036,-2.965e-4 A 0.88926206,1.0134998 0 0 1 40.734023,2.3664206 0.88926206,1.0134998 0 0 1 39.845021,1.3528327 0.88926206,1.0134998 0 0 1 40.734023,0.3392456 Z M 40.7043,0.847674 c 0.0051,-8.42e-5 0.0102,1.95e-5 0.01513,0 0.147843,-5.759e-4 0.210311,0.048373 0.210311,0.1628505 0,0.080571 -0.03188,0.136728 -0.09136,0.1604772 h -2.97e-4 c -0.02256,0.00902 -0.08537,0.016913 -0.139713,0.017204 l -0.1056,8.91e-4 -2.96e-4,-0.3363792 0.0964,-0.00445 c 0.0053,-2.382e-4 0.01034,-5.095e-4 0.01543,-5.937e-4 z M 21.820778,2.3275677 c 1.182735,-0.00462 1.681303,0.3884566 1.681303,1.3042863 0,0.6445081 -0.256004,1.0932214 -0.731789,1.2832247 -0.1805,0.072082 -0.683834,0.1338849 -1.118593,0.1370439 l -0.843916,0.00624 -0.0036,-2.6901453 0.770943,-0.034409 c 0.08499,-0.00381 0.166762,-0.00591 0.245611,-0.00624 z M 11.685197,3.1889784 c 0.02137,-0.00527 0.05221,0.00907 0.07861,0.039155 0.117745,0.134196 1.551201,4.2998116 1.508368,4.3833146 l -2.958893,-0.008 c -0.07583,-2.07e-4 1.24367,-4.2466408 1.35412,-4.4025958 0.0045,-0.00632 0.01067,-0.010101 0.01779,-0.011867 z" /></svg>
