<?xml version="1.0" encoding="UTF-8" standalone="no"?>
<svg
   fill="none"
   viewBox="0 0 48 48"
   height="256"
   width="256"
   version="1.1"
   id="svg6"
   sodipodi:docname="gnu_esp32.svg"
   inkscape:version="1.2.1 (9c6d41e410, 2022-07-14)"
   xml:space="preserve"
   xmlns:inkscape="http://www.inkscape.org/namespaces/inkscape"
   xmlns:sodipodi="http://sodipodi.sourceforge.net/DTD/sodipodi-0.dtd"
   xmlns="http://www.w3.org/2000/svg"
   xmlns:svg="http://www.w3.org/2000/svg"><defs
     id="defs10" /><sodipodi:namedview
     id="namedview8"
     pagecolor="#ffffff"
     bordercolor="#666666"
     borderopacity="1.0"
     inkscape:showpageshadow="2"
     inkscape:pageopacity="0.0"
     inkscape:pagecheckerboard="true"
     inkscape:deskcolor="#d1d1d1"
     showgrid="true"
     inkscape:zoom="2.2898106"
     inkscape:cx="16.595259"
     inkscape:cy="118.13204"
     inkscape:current-layer="svg6"
     showguides="false"
     inkscape:window-width="1920"
     inkscape:window-height="730"
     inkscape:window-x="-6"
     inkscape:window-y="-6"
     inkscape:window-maximized="1"><inkscape:grid
       type="xygrid"
       id="grid239"
       units="px"
       spacingx="1.5"
       spacingy="1.5" /></sodipodi:namedview><path
     id="path27868"
     style="fill:#606668;fill-opacity:1;stroke-width:0.112575"
     d="m 24.000683,16.6219 c -0.917477,0.009 -1.846364,0.0433 -2.150983,0.103023 -2.21787,0.705656 -3.893625,1.709555 -4.690873,3.48195 -0.12644,0.0968 -0.550489,1.393732 -0.551089,1.658642 -2.776432,2.155153 -13.1150033,0.609465 -9.9138031,4.941176 0.7676043,0.607957 1.9768378,1.215406 2.8741841,1.443503 0.3799787,0.09659 1.162079,0.170456 1.803449,0.170457 1.853984,0 3.30873,-0.515685 4.764104,-1.688432 l 0.671484,-0.540745 c -0.03707,0.636579 0.315975,1.033746 -0.127429,1.414956 -2.30529,0.412539 -1.773072,9.080278 0.244515,9.147566 0.494832,3.926347 0.428068,8.220282 1.802209,10.153344 0.427533,0.47322 0.827677,0.718207 1.540731,0.943717 0.310378,0.09815 1.40036,0.141353 3.733501,0.148943 2.333142,-0.0076 3.423124,-0.05079 3.733502,-0.148943 0.713054,-0.22551 1.113197,-0.470497 1.540731,-0.943717 1.374141,-1.933062 1.307377,-6.226997 1.802209,-10.153344 2.017586,-0.06729 2.549806,-8.735027 0.244515,-9.147566 -0.383349,-0.816469 -0.184955,-0.369403 -0.127429,-1.414956 l 0.671484,0.540745 c 1.455374,1.172747 2.91012,1.688432 4.764103,1.688432 0.64137,-1e-6 1.423471,-0.07386 1.80345,-0.170457 0.897346,-0.228097 2.106578,-0.835546 2.874184,-1.443503 3.2012,-4.331711 -7.137372,-2.786023 -9.913804,-4.941176 -6e-4,-0.26491 -0.424648,-1.561845 -0.551088,-1.658642 -0.797248,-1.772395 -2.473003,-2.776294 -4.690873,-3.48195 -0.304619,-0.05972 -1.233506,-0.09398 -2.150984,-0.103023 z"
     sodipodi:nodetypes="ccccccscccccscccccccscccccc" /><path
     id="path27881"
     style="fill:#bb852e;fill-opacity:1;stroke-width:0.112575"
     d="m 14.965075,4.0001269 c 0.96107,0.5015416 -1.954137,2.8640314 -2.774994,3.7159902 -1.441489,1.8314458 -4.3147123,4.2592899 -5.0695657,6.5024629 -0.2424358,2.387575 2.5693296,0.289554 3.5912107,-0.167408 1.907372,-0.986546 3.965757,-2.30617 6.211389,-1.664667 2.109743,0.407045 3.634195,2.086707 4.52304,3.950905 0.835879,1.254976 1.470884,3.027253 0.377461,4.339564 -1.257751,1.618593 -4.481646,1.652564 -5.159858,-0.29997 -0.549389,-1.188987 -0.756726,-2.966248 -2.916076,-1.846143 -2.227162,1.15528 -3.901667,2.843486 -6.570615,2.213565 C 4.0016212,20.206228 1.7995927,16.786142 2.5539537,13.667283 3.0521179,11.22556 7.4567047,8.2567756 9.3083941,6.8402122 11.061262,5.7005474 12.84262,4.2979468 14.965075,4.0001269 Z"
     sodipodi:nodetypes="ccscssssscccc" /><path
     id="path27961"
     style="fill:#bb852e;fill-opacity:1;stroke-width:0.112575"
     d="m 33.036289,4.0001269 c -0.961069,0.5015416 1.954137,2.8640314 2.774994,3.7159902 1.441489,1.8314458 4.314712,4.2592899 5.069567,6.5024629 0.242435,2.387575 -2.56933,0.289554 -3.591211,-0.167408 -1.907373,-0.986546 -3.965757,-2.30617 -6.21139,-1.664667 -2.109743,0.407045 -3.634195,2.086707 -4.52304,3.950905 -0.835878,1.254976 -1.470883,3.027253 -0.37746,4.339564 1.257751,1.618593 4.481645,1.652564 5.159858,-0.29997 0.549388,-1.188987 0.756725,-2.966248 2.916076,-1.846143 2.227161,1.15528 3.901667,2.843486 6.570614,2.213565 3.175446,-0.538198 5.377475,-3.958284 4.623113,-7.077143 C 44.949246,11.22556 40.544659,8.2567756 38.69297,6.8402122 36.940102,5.7005474 35.158744,4.2979468 33.036289,4.0001269 Z"
     sodipodi:nodetypes="ccscssssscccc" /><ellipse
     style="fill:#ffffff;fill-opacity:1;stroke:none;stroke-width:0.021183;stroke-linejoin:round;stroke-dasharray:none;stroke-opacity:1"
     id="path28016"
     cx="18.663921"
     cy="31.840042"
     rx="2.0114894"
     ry="3.9085002" /><ellipse
     style="fill:#ffffff;fill-opacity:1;stroke:none;stroke-width:0.021183;stroke-linejoin:round;stroke-dasharray:none;stroke-opacity:1"
     id="ellipse28018"
     cx="29.401546"
     cy="31.840042"
     rx="2.0114894"
     ry="3.9085002" /><ellipse
     style="fill:#606668;fill-opacity:1;stroke:none;stroke-width:0.021183;stroke-linejoin:round;stroke-dasharray:none;stroke-opacity:1"
     id="path28137"
     cx="18.840611"
     cy="32.045998"
     rx="0.74007821"
     ry="1.8386301" /><ellipse
     style="fill:#606668;fill-opacity:1;stroke:none;stroke-width:0.021183;stroke-linejoin:round;stroke-dasharray:none;stroke-opacity:1"
     id="ellipse28139"
     cx="29.008444"
     cy="32.045998"
     rx="0.74007821"
     ry="1.8386301" /><path
     inkscape:export-ydpi="1300"
     inkscape:export-xdpi="1300"
     inkscape:export-filename="/home/kristof/EMBEETLE_IDE/embeetle/beetle_core/resources/icons/logo/espressif.png"
     id="path1374"
     d="m 22.254668,16.807148 c -3.199404,-0.891645 -5.790763,-3.606683 -6.549737,-6.8623394 -0.343272,-1.4725138 -0.345083,-2.6796769 -0.0058,-4.1331011 0.487317,-2.0899019 2.034414,-4.6136763 2.675678,-4.364859 0.259673,0.1007096 0.186055,0.2812696 -0.498476,1.2214376 -1.288745,1.7701122 -1.789968,2.8315521 -1.789968,5.1966098 0,1.6443477 0.242607,2.1903141 0.571473,3.0303091 0.924718,2.362428 2.961352,4.319416 5.401411,5.190204 1.669213,0.595685 3.687352,0.600108 5.407003,0.01191 1.074225,-0.367459 1.621785,-0.681836 3.21612,-1.846437 0.16545,-0.120806 0.318143,-0.102522 0.474404,0.05684 0.18732,0.191177 0.112418,0.333332 -0.400796,0.7611 -0.801064,0.66758 -2.353856,1.443325 -3.516499,1.75676 -1.121916,0.302502 -3.869507,0.292325 -4.984436,-0.01854 z m 0.656438,-1.313307 c -0.19834,-0.04289 -0.538908,-0.218165 -0.756764,-0.389207 -0.359893,-0.282527 -0.37799,-0.378224 -0.198235,-1.047637 0.52353,-1.949539 -0.521747,-3.277925 -3.008206,-3.822966 -0.295313,-0.06471 -0.837764,-0.4374964 -1.205491,-0.8283384 -1.15482,-1.2274619 -1.121845,-2.9913804 0.07816,-4.1775972 0.826135,-0.8166732 1.659137,-1.0205079 3.051607,-0.7467086 2.801927,0.5509314 5.170949,2.418746 6.411541,5.0550698 0.622465,1.3227644 0.677031,1.5728664 0.739488,3.3891464 l 0.06746,1.961008 -0.618992,0.261565 c -0.473399,0.199966 -0.788199,0.218057 -1.33845,0.07691 l -0.719449,-0.184639 0.116248,-0.916095 c 0.148376,-1.169902 -0.09106,-2.715968 -0.56693,-3.659019 -0.9023,-1.7883019 -3.080192,-3.3668886 -4.78774,-3.4702559 -0.590621,-0.035456 -0.698606,0.016523 -0.747211,0.3620456 -0.04421,0.3155463 0.0542,0.4279095 0.450777,0.5140756 2.047932,0.4448069 3.873178,1.9375773 4.445389,3.6355907 0.349272,1.036502 0.36881,2.469294 0.04622,3.37822 -0.230954,0.65034 -0.585814,0.798429 -1.459083,0.608939 z m -3.877177,-1.885306 c -0.714261,-0.7222 -0.19497,-2.005716 0.811497,-2.005716 0.578747,0 1.172173,0.600027 1.172173,1.185188 0,0.250732 -0.162279,0.619955 -0.360693,0.820528 -0.198336,0.200621 -0.563545,0.364675 -0.811508,0.364675 -0.247966,0 -0.613128,-0.164083 -0.811492,-0.364675 z m 10.098685,-0.96454 c 0,-1.969231 -1.223119,-4.663262 -2.868545,-6.3182828 C 24.489058,4.5403659 22.022434,3.397608 19.943761,3.397608 h -0.751272 l 0.05598,-0.6837675 c 0.0481,-0.5866763 0.177191,-0.7656958 0.909903,-1.2608083 l 0.853957,-0.57705512 1.129718,0.26320022 c 4.16591,0.9705077 7.839632,4.4739858 9.047027,8.6277813 0.406218,1.3974594 0.363126,1.8584734 -0.254266,2.7202064 -0.457375,0.638389 -0.640647,0.756706 -1.172161,0.756706 -0.592169,0 -0.630041,-0.03613 -0.630041,-0.599866 z M 31.126191,7.0891285 C 30.488483,5.8205139 29.990756,5.1560313 28.691688,3.8390104 27.311097,2.4393268 26.80279,2.0589512 25.402173,1.3774379 23.075055,0.24511578 23.197745,-0.24419392 25.718179,0.11723548 c 1.780705,0.2553485 3.025374,0.8651799 4.325918,2.11948352 1.231593,1.1877832 2.053437,2.70088 2.346004,4.319186 0.206432,1.1422032 0.08984,2.1300058 -0.251224,2.1286823 -0.116058,-5.022e-4 -0.571811,-0.7184152 -1.012686,-1.5954588 z"
     style="fill:#d63232;fill-opacity:1;stroke-width:0.486567"
     sodipodi:nodetypes="sssssssssssssssssssssssscsscssssssssssssssssscsscssssssssssscs" /></svg>
