<?xml version="1.0" encoding="UTF-8" standalone="no"?>
<svg
   fill="none"
   viewBox="0 0 48 48"
   height="256"
   width="256"
   version="1.1"
   id="svg6"
   sodipodi:docname="gnu_toolchain.svg"
   inkscape:version="1.2.1 (9c6d41e410, 2022-07-14)"
   xml:space="preserve"
   xmlns:inkscape="http://www.inkscape.org/namespaces/inkscape"
   xmlns:sodipodi="http://sodipodi.sourceforge.net/DTD/sodipodi-0.dtd"
   xmlns="http://www.w3.org/2000/svg"
   xmlns:svg="http://www.w3.org/2000/svg"><defs
     id="defs10" /><sodipodi:namedview
     id="namedview8"
     pagecolor="#ffffff"
     bordercolor="#666666"
     borderopacity="1.0"
     inkscape:showpageshadow="2"
     inkscape:pageopacity="0.0"
     inkscape:pagecheckerboard="true"
     inkscape:deskcolor="#d1d1d1"
     showgrid="true"
     inkscape:zoom="1.6191406"
     inkscape:cx="-25.322075"
     inkscape:cy="131.24246"
     inkscape:current-layer="svg6"
     showguides="false"
     inkscape:window-width="1920"
     inkscape:window-height="730"
     inkscape:window-x="-6"
     inkscape:window-y="-6"
     inkscape:window-maximized="1"><inkscape:grid
       type="xygrid"
       id="grid239"
       units="px"
       spacingx="1.5"
       spacingy="1.5" /></sodipodi:namedview><path
     id="path27868"
     style="fill:#606668;fill-opacity:1;stroke-width:0.112575"
     d="m 24.000683,16.6219 c -0.917477,0.009 -1.846364,0.0433 -2.150983,0.103023 -2.21787,0.705656 -3.893625,1.709555 -4.690873,3.48195 -0.12644,0.0968 -0.550489,1.393732 -0.551089,1.658642 -2.776432,2.155153 -13.1150033,0.609465 -9.9138031,4.941176 0.7676043,0.607957 1.9768378,1.215406 2.8741841,1.443503 0.3799787,0.09659 1.162079,0.170456 1.803449,0.170457 1.853984,0 3.30873,-0.515685 4.764104,-1.688432 l 0.671484,-0.540745 c -0.03707,0.636579 0.315975,1.033746 -0.127429,1.414956 -2.30529,0.412539 -1.773072,9.080278 0.244515,9.147566 0.494832,3.926347 0.428068,8.220282 1.802209,10.153344 0.427533,0.47322 0.827677,0.718207 1.540731,0.943717 0.310378,0.09815 1.40036,0.141353 3.733501,0.148943 2.333142,-0.0076 3.423124,-0.05079 3.733502,-0.148943 0.713054,-0.22551 1.113197,-0.470497 1.540731,-0.943717 1.374141,-1.933062 1.307377,-6.226997 1.802209,-10.153344 2.017586,-0.06729 2.549806,-8.735027 0.244515,-9.147566 -0.383349,-0.816469 -0.184955,-0.369403 -0.127429,-1.414956 l 0.671484,0.540745 c 1.455374,1.172747 2.91012,1.688432 4.764103,1.688432 0.64137,-1e-6 1.423471,-0.07386 1.80345,-0.170457 0.897346,-0.228097 2.106578,-0.835546 2.874184,-1.443503 3.2012,-4.331711 -7.137372,-2.786023 -9.913804,-4.941176 -6e-4,-0.26491 -0.424648,-1.561845 -0.551088,-1.658642 -0.797248,-1.772395 -2.473003,-2.776294 -4.690873,-3.48195 -0.304619,-0.05972 -1.233506,-0.09398 -2.150984,-0.103023 z"
     sodipodi:nodetypes="ccccccscccccscccccccscccccc" /><path
     id="path27881"
     style="fill:#bb852e;fill-opacity:1;stroke-width:0.112575"
     d="m 14.965075,4.0001269 c 0.96107,0.5015416 -1.954137,2.8640314 -2.774994,3.7159902 -1.441489,1.8314458 -4.3147123,4.2592899 -5.0695657,6.5024629 -0.2424358,2.387575 2.5693296,0.289554 3.5912107,-0.167408 1.907372,-0.986546 3.965757,-2.30617 6.211389,-1.664667 2.109743,0.407045 3.634195,2.086707 4.52304,3.950905 0.835879,1.254976 1.470884,3.027253 0.377461,4.339564 -1.257751,1.618593 -4.481646,1.652564 -5.159858,-0.29997 -0.549389,-1.188987 -0.756726,-2.966248 -2.916076,-1.846143 -2.227162,1.15528 -3.901667,2.843486 -6.570615,2.213565 C 4.0016212,20.206228 1.7995927,16.786142 2.5539537,13.667283 3.0521179,11.22556 7.4567047,8.2567756 9.3083941,6.8402122 11.061262,5.7005474 12.84262,4.2979468 14.965075,4.0001269 Z"
     sodipodi:nodetypes="ccscssssscccc" /><path
     id="path27961"
     style="fill:#bb852e;fill-opacity:1;stroke-width:0.112575"
     d="m 33.036289,4.0001269 c -0.961069,0.5015416 1.954137,2.8640314 2.774994,3.7159902 1.441489,1.8314458 4.314712,4.2592899 5.069567,6.5024629 0.242435,2.387575 -2.56933,0.289554 -3.591211,-0.167408 -1.907373,-0.986546 -3.965757,-2.30617 -6.21139,-1.664667 -2.109743,0.407045 -3.634195,2.086707 -4.52304,3.950905 -0.835878,1.254976 -1.470883,3.027253 -0.37746,4.339564 1.257751,1.618593 4.481645,1.652564 5.159858,-0.29997 0.549388,-1.188987 0.756725,-2.966248 2.916076,-1.846143 2.227161,1.15528 3.901667,2.843486 6.570614,2.213565 3.175446,-0.538198 5.377475,-3.958284 4.623113,-7.077143 C 44.949246,11.22556 40.544659,8.2567756 38.69297,6.8402122 36.940102,5.7005474 35.158744,4.2979468 33.036289,4.0001269 Z"
     sodipodi:nodetypes="ccscssssscccc" /><ellipse
     style="fill:#ffffff;fill-opacity:1;stroke:none;stroke-width:0.021183;stroke-linejoin:round;stroke-dasharray:none;stroke-opacity:1"
     id="path28016"
     cx="18.663921"
     cy="31.840042"
     rx="2.0114894"
     ry="3.9085002" /><ellipse
     style="fill:#ffffff;fill-opacity:1;stroke:none;stroke-width:0.021183;stroke-linejoin:round;stroke-dasharray:none;stroke-opacity:1"
     id="ellipse28018"
     cx="29.401546"
     cy="31.840042"
     rx="2.0114894"
     ry="3.9085002" /><ellipse
     style="fill:#606668;fill-opacity:1;stroke:none;stroke-width:0.021183;stroke-linejoin:round;stroke-dasharray:none;stroke-opacity:1"
     id="path28137"
     cx="18.840611"
     cy="32.045998"
     rx="0.74007821"
     ry="1.8386301" /><ellipse
     style="fill:#606668;fill-opacity:1;stroke:none;stroke-width:0.021183;stroke-linejoin:round;stroke-dasharray:none;stroke-opacity:1"
     id="ellipse28139"
     cx="29.008444"
     cy="32.045998"
     rx="0.74007821"
     ry="1.8386301" /><g
     id="g17598"
     transform="matrix(0.6561,0,0,0.6561,28.459287,-29.193361)"
     style="fill:#828480;fill-opacity:1"><path
       style="color:#000000;fill:#828480;stroke-linecap:round;stroke-linejoin:round;-inkscape-stroke:none;fill-opacity:1"
       d="m -0.1640625,44.501953 c -0.9323179,-0.04135 -1.8760431,0.109756 -2.7714844,0.455078 -0.5471743,0.211012 -0.9884464,0.442944 -1.5605468,0.91211 -0.5721005,0.469165 -1.2902277,1.174245 -2.484375,2.382812 -0.6094909,0.616836 -1.1645357,1.184691 -1.5703126,1.605469 -0.2028884,0.210389 -0.3675295,0.38445 -0.484375,0.509765 -0.058423,0.06266 -0.1054535,0.112325 -0.140625,0.152344 -0.017586,0.02001 -0.03146,0.03719 -0.046875,0.05664 -0.00771,0.0097 -0.015543,0.01951 -0.027344,0.03711 -0.0059,0.0088 -0.013305,0.01794 -0.023437,0.03711 -0.00507,0.0096 -0.017406,0.03863 -0.017578,0.03906 -1.36e-4,3.42e-4 -0.013654,0.04317 -0.019531,0.06445 -1.297e-4,6.2e-4 1.26e-4,0.0013 0,0.002 -0.018075,0.08926 0.00232,0.201288 0.042969,0.273438 0.040927,0.07265 0.088829,0.111882 0.125,0.136719 0.072342,0.04967 0.1144722,0.05641 0.1523437,0.06641 0.075743,0.02 0.1342899,0.02622 0.2070313,0.03125 0.1454826,0.01007 0.3311021,0.009 0.5664062,0 1.0584324,-0.0363 2.2634237,0.188219 3.1894532,0.589844 l 0.4277343,0.185546 a 0.38394538,0.38394538 0 0 0 0.4238282,-0.08008 l 1.2753906,-1.261718 c 0.3487489,-0.345249 0.6869877,-0.673072 0.9492187,-0.919922 0.1311155,-0.123425 0.2430353,-0.226573 0.3261719,-0.300782 0.083137,-0.07421 0.1760705,-0.138411 0.1191406,-0.103515 0.4579803,-0.280124 1.32571319,-0.335723 1.8417969,-0.107422 0.31638197,0.139964 0.872722,0.680694 1.0507812,1.042969 0.1586574,0.324695 0.1603397,0.335578 0.1582032,0.847656 -0.00236,0.513308 0.039435,0.582597 -0.3105469,1.052734 -0.34998199,0.470137 -1.12626419,1.264691 -2.6816406,2.845703 -1.219934,1.239993 -1.9091142,1.936039 -2.3378907,2.337891 -0.4287764,0.401853 -0.5672033,0.490045 -0.7539062,0.582031 -0.4193824,0.2043 -0.3844346,0.197464 -0.9257812,0.195313 -0.553043,-0.0037 -0.504833,0.006 -1.0195313,-0.246094 -0.7343673,-0.359379 -1.3807946,-0.46116 -1.96875,-0.236328 -1.5269945,0.58318 -2.0618638,2.450499 -1.0214844,3.666016 0.5357488,0.625877 1.5666295,1.085084 2.6992188,1.328125 0.021461,0.0046 0.054188,-0.0043 0.076172,0 l -0.00195,0.0098 a 0.38394538,0.38394538 0 0 0 0.021484,-0.0098 c 0.7649831,0.146829 1.8173641,0.143359 2.6347656,-0.02539 0.8318552,-0.171635 1.8035433,-0.602524 2.5078125,-1.109375 0.1125174,-0.08099 0.2340739,-0.193734 0.4355469,-0.380859 0.20147302,-0.187126 0.46096171,-0.433832 0.76171875,-0.72461 C 0.26167032,59.859851 1.027984,59.103062 1.8164062,58.310547 3.3602876,56.758676 4.2080434,55.894053 4.7421875,55.251953 5.2763316,54.609853 5.496626,54.168982 5.7207031,53.587891 6.0800122,52.656357 6.2031118,51.871089 6.15625,50.816406 6.0831198,49.167864 5.4581232,47.707947 4.3105469,46.501953 3.8673684,46.036202 3.1300269,45.498584 2.5351563,45.201172 1.6880583,44.777583 0.7682554,44.5433 -0.1640625,44.501953"
       id="path10974" /><path
       id="path17585"
       style="color:#000000;fill:#828480;stroke-linecap:round;stroke-linejoin:round;-inkscape-stroke:none;fill-opacity:1"
       d="m -7.8826952,22.056514 c -1.5574415,-0.01132 -2.8978378,0.438922 -4.1466068,1.390869 -0.216005,0.164662 -0.610881,0.547793 -1.183594,1.107422 -0.572711,0.559629 -1.283926,1.267769 -1.992187,1.982299 -0.708262,0.714532 -1.411921,1.435702 -1.970581,2.017456 -0.558662,0.581756 -0.947774,0.991872 -1.113281,1.209229 -0.421952,0.55421 -0.851626,1.436347 -1.062745,2.165771 -0.276915,0.953291 -0.273805,2.558478 0.0022,3.519654 0.740473,2.579271 2.880196,4.473325 5.490234,4.849731 1.464259,0.211189 2.949423,-0.08067 4.3007815,-0.83789 0.5335597,-0.298991 0.9641517,-0.694649 3.0076905,-2.720948 0.6514257,-0.645921 1.2449844,-1.243174 1.6757812,-1.685302 0.2153984,-0.221064 0.3901234,-0.402649 0.5137939,-0.535401 0.061835,-0.06638 0.1105589,-0.120246 0.1483155,-0.164062 0.018878,-0.02191 0.033333,-0.04106 0.050903,-0.06445 0.00878,-0.0117 0.019122,-0.02374 0.032959,-0.04687 0.00692,-0.01157 0.014697,-0.02479 0.025635,-0.05054 0.00547,-0.01287 0.017449,-0.05225 0.017578,-0.05273 1.295e-4,-4.81e-4 0.01355,-0.09926 0.01355,-0.09961 0,-0.159228 -0.1090185,-0.28672 -0.1757813,-0.333985 -0.066763,-0.04727 -0.1115863,-0.06063 -0.1523437,-0.07251 -0.081515,-0.02375 -0.148118,-0.02953 -0.232544,-0.03699 -0.168852,-0.01493 -0.3956801,-0.02053 -0.7089843,-0.01941 -1.1786051,0.0059 -1.9802004,-0.157651 -3.2069092,-0.65625 h -0.00183 l -0.2307129,-0.09375 c -0.1419506,-0.05768 -0.3046037,-0.02543 -0.4138183,0.08203 l -1.3205569,1.302613 c -0.585897,0.578133 -0.92794,0.905812 -1.150269,1.091674 -0.222327,0.185864 -0.300404,0.223757 -0.46875,0.28711 -0.215135,0.08096 -0.552149,0.128353 -0.873046,0.119385 -0.320897,-0.009 -0.632979,-0.07976 -0.781128,-0.156372 -1.053261,-0.545999 -1.452126,-1.680458 -0.968995,-2.736329 0.114961,-0.251323 0.496627,-0.691504 2.871094,-3.072143 1.593311,-1.597374 2.3873776,-2.388897 2.8557134,-2.740357 0.4683357,-0.351459 0.5380637,-0.302856 1.078125,-0.302856 0.6012643,0 0.5379399,-0.01394 1.0916748,0.246094 0.5147733,0.24148 0.9979567,0.362458 1.4630127,0.322265 0.4650559,-0.04019 0.8917083,-0.250389 1.2557373,-0.585937 0.6907878,-0.636711 0.948304,-1.542652 0.6621093,-2.404175 -0.226162,-0.681029 -0.7642443,-1.189257 -1.5838623,-1.578003 -0.9701681,-0.460125 -1.743696,-0.639993 -2.8183593,-0.646728 l -3.1e-6,-4e-6"
       transform="translate(0,30)"
       sodipodi:nodetypes="csssscccccsssssssssssscccsccssccccsscsccccccccsscsscccssscccccscccscsssssssccscc" /></g></svg>
