<?xml version="1.0" encoding="UTF-8" standalone="no"?>
<svg
   fill="none"
   viewBox="0 0 48 48"
   height="256"
   width="256"
   version="1.1"
   id="svg6"
   sodipodi:docname="gnu_avr.svg"
   inkscape:version="1.2.1 (9c6d41e410, 2022-07-14)"
   xml:space="preserve"
   xmlns:inkscape="http://www.inkscape.org/namespaces/inkscape"
   xmlns:sodipodi="http://sodipodi.sourceforge.net/DTD/sodipodi-0.dtd"
   xmlns="http://www.w3.org/2000/svg"
   xmlns:svg="http://www.w3.org/2000/svg"><defs
     id="defs10" /><sodipodi:namedview
     id="namedview8"
     pagecolor="#ffffff"
     bordercolor="#666666"
     borderopacity="1.0"
     inkscape:showpageshadow="2"
     inkscape:pageopacity="0.0"
     inkscape:pagecheckerboard="true"
     inkscape:deskcolor="#d1d1d1"
     showgrid="true"
     inkscape:zoom="2.2898106"
     inkscape:cx="68.127906"
     inkscape:cy="115.94845"
     inkscape:current-layer="svg6"
     showguides="false"
     inkscape:window-width="1920"
     inkscape:window-height="730"
     inkscape:window-x="-6"
     inkscape:window-y="-6"
     inkscape:window-maximized="1"><inkscape:grid
       type="xygrid"
       id="grid239"
       units="px"
       spacingx="1.5"
       spacingy="1.5" /></sodipodi:namedview><path
     id="path27868"
     style="fill:#606668;fill-opacity:1;stroke-width:0.112575"
     d="m 24.036659,16.6219 c -0.917478,0.009 -1.846365,0.0433 -2.150984,0.103023 -2.21787,0.705656 -3.893625,1.709555 -4.690873,3.48195 -0.12644,0.0968 -0.550488,1.393732 -0.551088,1.658642 -2.776432,2.155153 -13.1150041,0.609465 -9.9138039,4.941176 0.7676043,0.607957 1.9768378,1.215406 2.8741841,1.443503 0.3799787,0.09659 1.1620798,0.170456 1.8034498,0.170457 1.853983,0 3.308729,-0.515685 4.764103,-1.688432 l 0.671484,-0.540745 c -0.03707,0.636579 0.315975,1.033746 -0.127429,1.414956 -2.30529,0.412539 -1.773071,9.080278 0.244515,9.147566 0.494832,3.926347 0.428068,8.220282 1.802209,10.153344 0.427534,0.47322 0.827677,0.718207 1.540732,0.943717 0.310377,0.09815 1.400359,0.141353 3.733501,0.148943 2.333141,-0.0076 3.423123,-0.05079 3.733502,-0.148943 0.713053,-0.22551 1.113197,-0.470497 1.54073,-0.943717 1.374141,-1.933062 1.307377,-6.226997 1.802209,-10.153344 2.017587,-0.06729 2.549806,-8.735027 0.244515,-9.147566 -0.383349,-0.816469 -0.184955,-0.369403 -0.127429,-1.414956 l 0.671484,0.540745 c 1.455374,1.172747 2.91012,1.688432 4.764103,1.688432 0.64137,-1e-6 1.423471,-0.07386 1.80345,-0.170457 0.897346,-0.228097 2.106578,-0.835546 2.874184,-1.443503 3.2012,-4.331711 -7.137371,-2.786023 -9.913804,-4.941176 -5.99e-4,-0.26491 -0.424648,-1.561845 -0.551088,-1.658642 -0.797248,-1.772395 -2.473003,-2.776294 -4.690873,-3.48195 -0.304619,-0.05972 -1.233506,-0.09398 -2.150983,-0.103023 z"
     sodipodi:nodetypes="ccccccscccccscccccccscccccc" /><path
     id="path27881"
     style="fill:#bb852e;fill-opacity:1;stroke-width:0.112575"
     d="m 15.00105,4.0001269 c 0.96107,0.5015416 -1.954136,2.8640314 -2.774993,3.7159902 -1.44149,1.8314458 -4.3147131,4.2592899 -5.0695665,6.5024629 -0.2424358,2.387575 2.5693296,0.289554 3.5912105,-0.167408 1.907373,-0.986546 3.965757,-2.30617 6.211389,-1.664667 2.109744,0.407045 3.634196,2.086707 4.52304,3.950905 0.835879,1.254976 1.470884,3.027253 0.377461,4.339564 -1.257751,1.618593 -4.481646,1.652564 -5.159858,-0.29997 -0.549389,-1.188987 -0.756725,-2.966248 -2.916076,-1.846143 -2.227161,1.15528 -3.9016668,2.843486 -6.5706148,2.213565 C 4.0375964,20.206228 1.8355679,16.786142 2.5899289,13.667283 3.0880931,11.22556 7.4926799,8.2567756 9.3443693,6.8402122 11.097237,5.7005474 12.878595,4.2979468 15.00105,4.0001269 Z"
     sodipodi:nodetypes="ccscssssscccc" /><path
     id="path27961"
     style="fill:#bb852e;fill-opacity:1;stroke-width:0.112575"
     d="m 33.072264,4.0001269 c -0.961069,0.5015416 1.954137,2.8640314 2.774994,3.7159902 1.44149,1.8314458 4.314713,4.2592899 5.069567,6.5024629 0.242435,2.387575 -2.56933,0.289554 -3.591211,-0.167408 -1.907373,-0.986546 -3.965757,-2.30617 -6.21139,-1.664667 -2.109743,0.407045 -3.634195,2.086707 -4.52304,3.950905 -0.835878,1.254976 -1.470883,3.027253 -0.37746,4.339564 1.257751,1.618593 4.481645,1.652564 5.159858,-0.29997 0.549388,-1.188987 0.756725,-2.966248 2.916076,-1.846143 2.227161,1.15528 3.901667,2.843486 6.570615,2.213565 3.175446,-0.538198 5.377474,-3.958284 4.623112,-7.077143 C 44.985222,11.22556 40.580635,8.2567756 38.728946,6.8402122 36.976078,5.7005474 35.19472,4.2979468 33.072264,4.0001269 Z"
     sodipodi:nodetypes="ccscssssscccc" /><ellipse
     style="fill:#ffffff;fill-opacity:1;stroke:none;stroke-width:0.021183;stroke-linejoin:round;stroke-dasharray:none;stroke-opacity:1"
     id="path28016"
     cx="18.699896"
     cy="31.840042"
     rx="2.0114894"
     ry="3.9085002" /><ellipse
     style="fill:#ffffff;fill-opacity:1;stroke:none;stroke-width:0.021183;stroke-linejoin:round;stroke-dasharray:none;stroke-opacity:1"
     id="ellipse28018"
     cx="29.437521"
     cy="31.840042"
     rx="2.0114894"
     ry="3.9085002" /><ellipse
     style="fill:#606668;fill-opacity:1;stroke:none;stroke-width:0.021183;stroke-linejoin:round;stroke-dasharray:none;stroke-opacity:1"
     id="path28137"
     cx="18.876585"
     cy="32.045998"
     rx="0.74007821"
     ry="1.8386301" /><ellipse
     style="fill:#606668;fill-opacity:1;stroke:none;stroke-width:0.021183;stroke-linejoin:round;stroke-dasharray:none;stroke-opacity:1"
     id="ellipse28139"
     cx="29.044418"
     cy="32.045998"
     rx="0.74007821"
     ry="1.8386301" /><path
     id="rect21081"
     style="fill:#507ab7;fill-opacity:1;stroke:none;stroke-width:0.1875;stroke-linecap:round;stroke-linejoin:round"
     d="m 13.728516,-0.00585938 h 1.48938 1.489379 l 2.188111,4.85229488 c 1.203518,2.6687514 2.193548,4.8655263 2.199829,4.8819581 0.01056,0.02827 -0.06195,0.029851 -1.440308,0.026001 L 18.203247,9.75 17.812866,8.9040527 17.422119,8.0577393 h -2.037598 -2.037597 l -0.02783,0.046509 c -0.01056,0.025817 -0.159077,0.3721478 -0.325196,0.7697754 -0.165419,0.3976144 -0.316589,0.759392 -0.335083,0.803833 l -0.03479,0.080933 h -1.428955 c -1.3535469,0 -1.4279852,-0.00154 -1.417236,-0.029663 l 0.00366,-7.324e-4 c 0.00352,-0.01606 0.8967579,-2.2132078 1.9790039,-4.8819581 z m 16.82666,0 h 1.970947 c 1.250389,0 2.035783,0.006050142 2.147461,0.01757813 1.005293,0.1017279 1.787103,0.60747503 2.165405,1.40075685 0.265929,0.5583836 0.361747,1.270813 0.247559,1.854126 -0.07714,0.3934311 -0.250995,0.8060729 -0.472046,1.1158447 -0.233472,0.3282232 -0.648585,0.7003865 -1.034912,0.9279785 -0.427792,0.2518987 -1.031268,0.483868 -1.482788,0.5701904 -0.06492,0.012507 -0.106201,0.02884 -0.106201,0.04248 0,0.017446 1.281617,3.6683656 1.335571,3.8052979 0.0069,0.02827 -0.0668,0.029663 -1.493775,0.029663 h -1.505493 l -0.0066,-0.046875 C 32.313413,9.6857167 32.105899,8.8999394 31.858887,7.9658203 31.611804,7.0316902 31.40918,6.264358 31.40918,6.260376 c 0,-0.00385 -0.154356,-0.00498 -0.343506,-0.00256 l -0.343506,0.00439 -0.777466,1.7435303 -0.777466,1.7435303 -1.464477,0.00403 c -0.80375,0.00231 -1.459851,3.577e-4 -1.462647,-0.00439 v 3.662e-4 l -0.0018,-3.662e-4 c 0,1.01e-5 0.0018,-1.02e-5 0.0018,0 1.76e-4,-0.0081 2.523769,-5.7037769 3.899781,-8.80224613 0.2059,-0.46311163 0.384617,-0.86680952 0.397705,-0.89721679 z m -10.895508,3.6622e-4 1.45166,3.6621e-4 1.241455,2.95861815 c 0.899237,2.1429618 1.245512,2.9513867 1.25647,2.9318848 0.0069,-0.014652 0.599588,-1.343765 1.313965,-2.953125 C 25.637562,1.3228943 26.224939,0.0034397 26.228394,0 c 0.0024,-0.00352 0.664542,-0.00414105 1.469238,-0.00183105 L 29.160645,0.00219727 26.416992,5.9476318 C 24.90811,9.2174897 23.655828,11.928857 23.634155,11.9729 l -0.03845,0.07983 -2.688354,-6.0146481 C 19.429141,2.7297787 18.217043,0.01635384 18.213867,0.00842285 c -0.0023,-0.00802999 0.64749,-0.01425701 1.445801,-0.01391601 z M 32.506714,1.8654785 31.993652,3.0095215 C 31.711671,3.6387 31.475625,4.1673158 31.469238,4.1843262 c -0.0069,0.029667 0.01397,0.030803 0.717774,0.02417 0.668834,-0.00561 0.742811,-0.00951 0.890991,-0.043213 l 3.66e-4,-3.662e-4 C 33.313936,4.111908 33.44019,4.0682746 33.630981,3.9733887 34.104419,3.7383453 34.360513,3.3566908 34.383545,2.8516846 34.394105,2.5283113 34.332619,2.332887 34.146606,2.1503906 34.040512,2.0463527 33.807904,1.9202914 33.652954,1.8837891 33.603054,1.8719311 33.370339,1.8654785 33.039917,1.8654785 Z M 15.217896,2.7667236 c -0.0035,0 -1.150808,3.0762864 -1.238892,3.3299561 -0.0069,0.017446 0.26461,0.021606 1.314331,0.021606 0.755838,0 1.319006,-0.00673 1.315796,-0.015381 -0.06178,-0.1630826 -1.384954,-3.3362488 -1.391235,-3.3361817 z"
     sodipodi:nodetypes="cccccccccccccccscccccsccccccscscccsscccccccccccccccccccccccccccccccccccscccscc" /></svg>
