<?xml version="1.0" encoding="UTF-8" standalone="no"?>
<svg
   fill="none"
   viewBox="0 0 48 48"
   height="256"
   width="256"
   version="1.1"
   id="svg6"
   sodipodi:docname="openocd_atmosic.svg"
   inkscape:version="1.1.1 (3bf5ae0d25, 2021-09-20)"
   xmlns:inkscape="http://www.inkscape.org/namespaces/inkscape"
   xmlns:sodipodi="http://sodipodi.sourceforge.net/DTD/sodipodi-0.dtd"
   xmlns="http://www.w3.org/2000/svg"
   xmlns:svg="http://www.w3.org/2000/svg">
  <defs
     id="defs10" />
  <sodipodi:namedview
     id="namedview8"
     pagecolor="#ffffff"
     bordercolor="#666666"
     borderopacity="1.0"
     inkscape:showpageshadow="2"
     inkscape:pageopacity="0.0"
     inkscape:pagecheckerboard="true"
     inkscape:deskcolor="#d1d1d1"
     showgrid="true"
     inkscape:zoom="1.1449053"
     inkscape:cx="-44.981886"
     inkscape:cy="203.51028"
     inkscape:current-layer="svg6"
     showguides="false"
     inkscape:window-width="3440"
     inkscape:window-height="1330"
     inkscape:window-x="-12"
     inkscape:window-y="-12"
     inkscape:window-maximized="1"
     inkscape:pageshadow="2"
     inkscape:snap-global="false">
    <inkscape:grid
       type="xygrid"
       id="grid239"
       units="px"
       spacingx="1.5"
       spacingy="1.5" />
  </sodipodi:namedview>
  <g
     id="g407">
    <path
       style="color:#000000;font-style:normal;font-variant:normal;font-weight:normal;font-stretch:normal;font-size:medium;line-height:normal;font-family:sans-serif;font-variant-ligatures:normal;font-variant-position:normal;font-variant-caps:normal;font-variant-numeric:normal;font-variant-alternates:normal;font-feature-settings:normal;text-indent:0;text-align:start;text-decoration:none;text-decoration-line:none;text-decoration-style:solid;text-decoration-color:#000000;letter-spacing:normal;word-spacing:normal;text-transform:none;writing-mode:lr-tb;direction:ltr;text-orientation:mixed;dominant-baseline:auto;baseline-shift:baseline;text-anchor:start;white-space:normal;shape-padding:0;clip-rule:nonzero;display:inline;overflow:visible;visibility:visible;isolation:auto;mix-blend-mode:normal;color-interpolation:sRGB;color-interpolation-filters:linearRGB;solid-color:#000000;solid-opacity:1;fill:#e7c323;fill-opacity:1;fill-rule:nonzero;stroke:none;stroke-width:1.12311;stroke-linecap:butt;stroke-linejoin:miter;stroke-miterlimit:4;stroke-dasharray:none;stroke-dashoffset:0;stroke-opacity:1;color-rendering:auto;image-rendering:auto;shape-rendering:auto;text-rendering:auto;enable-background:accumulate"
       d="m 40.582506,37.294863 c -0.44711,0 -0.861785,0.127903 -1.191722,0.369897 -0.329912,0.242144 -0.58502,0.63109 -0.58502,1.083415 v 2.709976 c 0,0.452325 0.255108,0.841319 0.58502,1.083414 0.329937,0.242144 0.744612,0.369896 1.191722,0.369896 h 2.250349 c 0.447135,0 0.861809,-0.127901 1.191721,-0.369896 0.329937,-0.242144 0.585045,-0.631089 0.585045,-1.083414 v -2.709976 c 0,-0.452325 -0.255108,-0.84132 -0.585045,-1.083415 -0.329912,-0.242143 -0.744586,-0.369897 -1.191721,-0.369897 z"
       id="path913"
       inkscape:connector-curvature="0"
       sodipodi:nodetypes="scsscsscsscss" />
    <path
       style="fill:#adafaa;fill-opacity:1;stroke:none;stroke-width:3.83449;stroke-miterlimit:4;stroke-dasharray:none;stroke-opacity:1"
       d="m 3.3920913,17.29099 c -0.7712845,0 -1.3922163,0.620932 -1.3922163,1.392191 v 0.696157 c 0,0.77126 0.6209318,1.392192 1.3922163,1.392192 h 1.9184015 c 0.7712845,0 1.3922162,-0.620932 1.3922162,-1.392192 v -0.696157 c 0,-0.771259 -0.6209317,-1.392191 -1.3922162,-1.392191 z"
       id="path1063"
       inkscape:connector-curvature="0"
       sodipodi:nodetypes="sssssssss" />
    <path
       style="fill:#adafaa;fill-opacity:1;stroke:none;stroke-width:3.83449;stroke-miterlimit:4;stroke-dasharray:none;stroke-opacity:1"
       d="m 3.3920913,24.948203 c -0.7712845,0 -1.3922163,0.620956 -1.3922163,1.392217 v 0.696132 c 0,0.77126 0.6209318,1.392216 1.3922163,1.392216 h 1.9184015 c 0.7712845,0 1.3922162,-0.620956 1.3922162,-1.392216 V 26.34042 c 0,-0.771261 -0.6209317,-1.392217 -1.3922162,-1.392217 z"
       id="path1065"
       inkscape:connector-curvature="0"
       sodipodi:nodetypes="sssssssss" />
    <path
       style="fill:#adafaa;fill-opacity:1;stroke:none;stroke-width:3.83449;stroke-miterlimit:4;stroke-dasharray:none;stroke-opacity:1"
       d="m 3.3920913,32.605366 c -0.7712845,0 -1.3922163,0.620933 -1.3922163,1.392266 v 0.696059 c 0,0.77126 0.6209318,1.392216 1.3922163,1.392216 h 1.9184015 c 0.7712845,0 1.3922162,-0.620956 1.3922162,-1.392216 v -0.696059 c 0,-0.771333 -0.6209317,-1.392266 -1.3922162,-1.392266 z"
       id="path1067"
       inkscape:connector-curvature="0"
       sodipodi:nodetypes="sssssssss" />
    <path
       style="fill:#adafaa;fill-opacity:1;stroke:none;stroke-width:3.83449;stroke-miterlimit:4;stroke-dasharray:none;stroke-opacity:1"
       d="m 11.397347,39.388304 c -0.771284,0 -1.392216,0.620931 -1.392216,1.392216 v 1.918426 c 0,0.77126 0.620932,1.392216 1.392216,1.392216 h 0.696108 c 0.771285,0 1.392216,-0.620956 1.392216,-1.392216 V 40.78052 c 0,-0.771285 -0.620931,-1.392216 -1.392216,-1.392216 z"
       id="path1069"
       inkscape:connector-curvature="0"
       sodipodi:nodetypes="sssssssss" />
    <path
       style="fill:#adafaa;fill-opacity:1;stroke:none;stroke-width:3.83449;stroke-miterlimit:4;stroke-dasharray:none;stroke-opacity:1"
       d="m 19.054562,39.388304 c -0.77131,0 -1.392217,0.620931 -1.392217,1.392216 v 1.918426 c 0,0.77126 0.620907,1.392216 1.392217,1.392216 h 0.696108 c 0.771284,0 1.392216,-0.620956 1.392216,-1.392216 V 40.78052 c 0,-0.771285 -0.620932,-1.392216 -1.392216,-1.392216 z"
       id="path1071"
       inkscape:connector-curvature="0"
       sodipodi:nodetypes="sssssssss" />
    <path
       style="fill:#adafaa;fill-opacity:1;stroke:none;stroke-width:3.83449;stroke-miterlimit:4;stroke-dasharray:none;stroke-opacity:1"
       d="m 26.711751,39.388304 c -0.771284,0 -1.392216,0.620931 -1.392216,1.392216 v 1.918426 c 0,0.77126 0.620932,1.392216 1.392216,1.392216 h 0.696108 c 0.77131,0 1.392217,-0.620956 1.392217,-1.392216 V 40.78052 c 0,-0.771285 -0.620907,-1.392216 -1.392217,-1.392216 z"
       id="path1073"
       inkscape:connector-curvature="0"
       sodipodi:nodetypes="sssssssss" />
    <path
       style="fill:#adafaa;fill-opacity:1;stroke:none;stroke-width:3.83449;stroke-miterlimit:4;stroke-dasharray:none;stroke-opacity:1"
       d="m 33.494714,32.605366 c -0.771284,0 -1.392216,0.620933 -1.392216,1.392266 v 0.696059 c 0,0.77126 0.620932,1.392216 1.392216,1.392216 h 1.918402 c 0.771309,0 1.392241,-0.620956 1.392241,-1.392216 v -0.696059 c 0,-0.771333 -0.620932,-1.392266 -1.392241,-1.392266 z"
       id="path1075"
       inkscape:connector-curvature="0"
       sodipodi:nodetypes="sssssssss" />
    <path
       style="fill:#adafaa;fill-opacity:1;stroke:none;stroke-width:3.83449;stroke-miterlimit:4;stroke-dasharray:none;stroke-opacity:1"
       d="m 33.494714,24.948203 c -0.771284,0 -1.392216,0.620956 -1.392216,1.392217 v 0.696132 c 0,0.77126 0.620932,1.392216 1.392216,1.392216 h 1.918402 c 0.771309,0 1.392241,-0.620956 1.392241,-1.392216 V 26.34042 c 0,-0.771261 -0.620932,-1.392217 -1.392241,-1.392217 z"
       id="path1077"
       inkscape:connector-curvature="0"
       sodipodi:nodetypes="sssssssss" />
    <path
       style="fill:#adafaa;fill-opacity:1;stroke:none;stroke-width:3.83449;stroke-miterlimit:4;stroke-dasharray:none;stroke-opacity:1"
       d="m 33.494714,17.29099 c -0.771284,0 -1.392216,0.620932 -1.392216,1.392191 v 0.696157 c 0,0.77126 0.620932,1.392192 1.392216,1.392192 h 1.918402 c 0.771309,0 1.392241,-0.620932 1.392241,-1.392192 v -0.696157 c 0,-0.771259 -0.620932,-1.392191 -1.392241,-1.392191 z"
       id="path1079"
       inkscape:connector-curvature="0"
       sodipodi:nodetypes="sssssssss" />
    <path
       style="fill:#adafaa;fill-opacity:1;stroke:none;stroke-width:3.83449;stroke-miterlimit:4;stroke-dasharray:none;stroke-opacity:1"
       d="m 11.397347,9.2857598 c -0.771284,0 -1.392216,0.620931 -1.392216,1.3922162 v 1.918426 c 0,0.771284 0.620932,1.392191 1.392216,1.392191 h 0.696108 c 0.771285,0 1.392216,-0.620907 1.392216,-1.392191 v -1.918426 c 0,-0.7712852 -0.620931,-1.3922162 -1.392216,-1.3922162 z"
       id="path1081"
       inkscape:connector-curvature="0"
       sodipodi:nodetypes="sssssssss" />
    <path
       style="fill:#adafaa;fill-opacity:1;stroke:none;stroke-width:3.83449;stroke-miterlimit:4;stroke-dasharray:none;stroke-opacity:1"
       d="m 19.054562,9.2857598 c -0.77131,0 -1.392217,0.620931 -1.392217,1.3922162 v 1.918426 c 0,0.771284 0.620907,1.392191 1.392217,1.392191 h 0.696108 c 0.771284,0 1.392216,-0.620907 1.392216,-1.392191 v -1.918426 c 0,-0.7712852 -0.620932,-1.3922162 -1.392216,-1.3922162 z"
       id="path1083"
       inkscape:connector-curvature="0"
       sodipodi:nodetypes="sssssssss" />
    <path
       style="fill:#adafaa;fill-opacity:1;stroke:none;stroke-width:3.83449;stroke-miterlimit:4;stroke-dasharray:none;stroke-opacity:1"
       d="m 26.711751,9.2857598 c -0.771284,0 -1.392216,0.620931 -1.392216,1.3922162 v 1.918426 c 0,0.771284 0.620932,1.392191 1.392216,1.392191 h 0.696108 c 0.77131,0 1.392217,-0.620907 1.392217,-1.392191 v -1.918426 c 0,-0.7712852 -0.620907,-1.3922162 -1.392217,-1.3922162 z"
       id="path1085"
       inkscape:connector-curvature="0"
       sodipodi:nodetypes="sssssssss" />
    <path
       inkscape:connector-curvature="0"
       style="fill:#606668;fill-opacity:1;stroke:none;stroke-width:3.83449;stroke-miterlimit:4;stroke-dasharray:none;stroke-opacity:1"
       d="m 10.547409,15.5745 c -0.7132934,0 -1.3119729,0.09015 -1.7397106,0.517989 -0.4277388,0.427738 -0.5179895,1.027858 -0.5179895,1.741152 v 17.71046 c 0,0.713293 0.090152,1.311973 0.5179895,1.739686 0.4277377,0.427738 1.0264172,0.518014 1.7397106,0.518014 h 17.710463 c 0.713318,0 1.313439,-0.0904 1.741176,-0.518014 0.427739,-0.427713 0.51799,-1.026393 0.51799,-1.739686 v -17.71046 c 0,-0.713294 -0.09015,-1.313414 -0.51799,-1.741152 C 29.571311,15.66475 28.97119,15.5745 28.257872,15.5745 Z m -1.4669208,0.269884 c -0.1090283,0.06557 -0.205884,0.14181 -0.2931055,0.22923 0.08692,-0.08692 0.1842777,-0.164161 0.2931055,-0.22923 z m 20.6443298,0 c 0.108776,0.06532 0.206132,0.142307 0.293081,0.22923 -0.08717,-0.08742 -0.18403,-0.163913 -0.293081,-0.22923 z"
       id="path1044"
       sodipodi:nodetypes="scsscsscsscsscccccc" />
    <path
       style="color:#000000;font-style:normal;font-variant:normal;font-weight:normal;font-stretch:normal;font-size:medium;line-height:normal;font-family:sans-serif;font-variant-ligatures:normal;font-variant-position:normal;font-variant-caps:normal;font-variant-numeric:normal;font-variant-alternates:normal;font-feature-settings:normal;text-indent:0;text-align:start;text-decoration:none;text-decoration-line:none;text-decoration-style:solid;text-decoration-color:#000000;letter-spacing:normal;word-spacing:normal;text-transform:none;writing-mode:lr-tb;direction:ltr;text-orientation:mixed;dominant-baseline:auto;baseline-shift:baseline;text-anchor:start;white-space:normal;shape-padding:0;clip-rule:nonzero;display:inline;overflow:visible;visibility:visible;isolation:auto;mix-blend-mode:normal;color-interpolation:sRGB;color-interpolation-filters:linearRGB;solid-color:#000000;solid-opacity:1;fill:#adafaa;fill-opacity:1;fill-rule:nonzero;stroke:none;stroke-width:1.97069;stroke-linecap:butt;stroke-linejoin:miter;stroke-miterlimit:4;stroke-dasharray:none;stroke-dashoffset:0;stroke-opacity:1;color-rendering:auto;image-rendering:auto;shape-rendering:auto;text-rendering:auto;enable-background:accumulate"
       d="m 34.539957,3.8002921 c -1.463519,0.017385 -2.872126,0.2821287 -4.218696,0.9152545 -1.346568,0.6331258 -2.557164,1.5463439 -3.438047,2.773455 -0.880883,1.2271358 -1.420553,2.8428444 -1.261582,4.5997424 l 1.716639,-0.261541 c -0.09462,-1.046062 0.184278,-1.9342207 0.810077,-2.8059891 0.625799,-0.8717429 1.635403,-2.0631657 2.787139,-2.6046742 1.839427,-0.8648638 4.621052,-0.8460385 6.403183,-0.3193071 -1.633616,1.1274968 -3.025857,3.1133753 -3.113302,4.9550114 -0.05389,1.136139 -0.07128,2.499696 0.213087,3.973694 0.345309,1.789208 1.409451,3.088341 2.356322,3.962468 0.698367,0.644873 1.697342,0.937756 2.780458,0.571087 1.325062,-0.4485 2.617987,-1.979073 3.118791,-4.593533 0.191976,-1.00178 0.220537,-1.73231 0.187009,-3.185149 -0.03203,-1.383673 -0.444153,-2.7535124 -1.075714,-3.8568691 0.618249,0.3119807 1.11781,0.713219 1.454552,1.2582794 0.568082,0.9195267 0.869409,2.2439177 0.968502,3.8878137 -0.08022,2.381157 -0.178566,9.767393 -3.110396,15.289889 l 2.217268,0.0075 C 45.303767,23.773693 45.999477,17.536412 45.950949,12.89753 45.836707,11.00143 45.486356,9.2024121 44.607186,7.779326 43.727994,6.3562148 42.334137,5.4321934 40.469827,5.2039572 40.136712,5.1632274 39.708204,5.1493196 39.271401,5.1699329 39.101776,5.0494818 38.927259,4.8792856 38.762725,4.778355 37.244941,3.8956844 35.844082,3.7943068 34.539957,3.8002921 Z m 4.75849,4.0350872 c 0.388995,0.3662955 0.757401,0.781914 1.062974,1.2756143 0.435313,0.7032609 0.770788,1.8594664 0.791004,2.7363264 0.03254,1.41119 0.02484,1.733875 -0.137091,2.576908 -0.378241,1.974505 -1.174634,2.723263 -1.87628,2.960738 -0.555491,0.188004 -1.154543,-0.05389 -1.34257,-0.227491 -0.692061,-0.638937 -1.250557,-1.503304 -1.480779,-2.696118 -0.221034,-1.145279 -0.222773,-2.289068 -0.124923,-3.129418 0.155718,-1.3405848 0.985489,-2.9207537 1.965614,-3.582912 0.477533,-0.2544375 0.750149,-0.2436341 1.1421,0.086427 z"
       id="path915"
       inkscape:connector-curvature="0"
       sodipodi:nodetypes="cssccsscssccsscsccccssccccssccsscccc" />
    <path
       id="path27858"
       style="fill:#ffffff;stroke-width:0.218266;stroke-linecap:round;stroke-linejoin:round;fill-opacity:1"
       d="m 14.166324,19.437993 a 1.7191477,1.7191477 0 0 1 -1.719147,1.719148 1.7191477,1.7191477 0 0 1 -1.719148,-1.719148 1.7191477,1.7191477 0 0 1 1.719148,-1.719148 1.7191477,1.7191477 0 0 1 1.719147,1.719148 z" />
    <path
       style="fill:#606668;fill-opacity:1;stroke:#ffffff;stroke-width:0;stroke-linecap:butt;stroke-linejoin:miter;stroke-miterlimit:4;stroke-dasharray:none;stroke-dashoffset:0;stroke-opacity:0.490196"
       d="m 39.64383,27.812854 h 4.127227 c 1.234686,0 2.228694,0.994031 2.228694,2.228692 v 6.773749 c 0,1.23466 -0.994008,2.228692 -2.228694,2.228692 H 39.64383 c -1.234686,0 -2.228692,-0.994032 -2.228692,-2.228692 v -6.773749 c 0,-1.234661 0.994006,-2.228692 2.228692,-2.228692 z"
       id="path911"
       inkscape:connector-curvature="0" />
  </g>
  <path
     id="path4379"
     style="fill:#ffffff;fill-opacity:1;stroke-width:0.0309285"
     d="m 10.517293,24.935731 -0.8004657,2.036417 c -0.4402816,1.120008 -0.8025479,2.041818 -0.8050658,2.04846 -0.00264,0.0077 0.1177011,0.01146 0.2671306,0.01146 H 9.450646 l 0.069333,-0.177696 c 0.03751,-0.09779 0.1336137,-0.34542 0.2125442,-0.550421 l 0.1436457,-0.372779 h 0.8727211 0.87282 l 0.130094,0.337934 c 0.07147,0.185887 0.167335,0.433541 0.21284,0.550423 l 0.08309,0.212516 h 0.249859 c 0.206141,0 0.249856,-0.0037 0.249856,-0.01965 0,-0.01146 0.0068,-0.02223 0.01608,-0.02506 0.009,-0.002 0.01169,-0.0172 0.0055,-0.03615 -0.0054,-0.01719 -0.01461,-0.02829 -0.01947,-0.0249 -0.0051,0.0037 -0.360639,-0.893273 -0.789237,-1.992503 l -0.778839,-1.998767 h -0.231372 z m 3.011289,0.557406 c -0.011,0 -0.124578,0.02585 -0.250866,0.05734 l -0.229592,0.05735 v 0.346636 0.346636 h -0.215981 -0.216006 v 0.23688 0.236907 h 0.216006 0.215981 v 0.773983 c 0,0.834043 0.0042,0.897708 0.07553,1.056649 0.09962,0.222999 0.313052,0.385307 0.579465,0.440585 0.09817,0.02026 0.328022,0.0057 0.435356,-0.0274 0.129483,-0.04031 0.274318,-0.10692 0.283472,-0.130338 0.0041,-0.01146 -0.02117,-0.08467 -0.05788,-0.164199 -0.03667,-0.07956 -0.07627,-0.170846 -0.09038,-0.202886 l -0.02482,-0.05818 -0.102025,0.05123 c -0.09511,0.04775 -0.110587,0.05123 -0.227344,0.05123 -0.144954,-1.16e-4 -0.212454,-0.02698 -0.2829,-0.112438 -0.08389,-0.101211 -0.08658,-0.133368 -0.08658,-0.943994 v -0.734207 h 0.418006 0.418188 v -0.236877 -0.236892 h -0.418247 -0.418007 v -0.404118 c 0,-0.352363 -0.0025,-0.40411 -0.02072,-0.40411 z m -2.779749,0.195342 c 0.0051,3.8e-5 0.597649,1.522808 0.664766,1.709148 l 0.01714,0.04652 h -0.682153 -0.681997 l 0.02728,-0.07327 c 0.205887,-0.542506 0.649676,-1.682457 0.654966,-1.682419 z m 16.97607,0.557155 c -0.214775,0 -0.33592,0.02529 -0.628767,0.132242 -0.157858,0.05771 -0.393599,0.257104 -0.515129,0.436267 -0.08132,0.119865 -0.161021,0.291521 -0.204917,0.441828 -0.0459,0.155069 -0.0604,0.440013 -0.03445,0.621392 0.08842,0.603106 0.556363,1.072726 1.165406,1.168769 0.229741,0.03615 0.574201,-0.01146 0.79114,-0.109593 0.19757,-0.08942 0.524632,-0.341232 0.524632,-0.403929 0,-0.02011 -0.138903,-0.16457 -0.276316,-0.287461 l -0.04639,-0.04158 -0.03031,0.03645 c -0.0488,0.05801 -0.226248,0.188745 -0.320188,0.234758 -0.147194,0.07209 -0.298203,0.102553 -0.468737,0.09436 -0.243615,-0.01142 -0.410237,-0.08355 -0.589085,-0.254184 -0.206492,-0.196984 -0.305786,-0.554303 -0.241762,-0.869984 0.03794,-0.186828 0.117672,-0.333322 0.258777,-0.475495 0.180737,-0.181889 0.355472,-0.254102 0.613935,-0.253539 0.236784,4.51e-4 0.480609,0.09342 0.652335,0.248962 l 0.08485,0.07689 0.167561,-0.149544 c 0.09228,-0.08241 0.16754,-0.157156 0.16754,-0.166472 0,-0.04398 -0.273764,-0.266542 -0.390944,-0.317805 -0.261057,-0.114341 -0.46182,-0.162302 -0.679013,-0.162302 z m -4.180553,0.0037 c -0.146508,0.0077 -0.266627,0.03617 -0.406506,0.0957 -0.161738,0.06889 -0.228611,0.113973 -0.318622,0.214996 -0.253516,0.284515 -0.242192,0.698955 0.02703,0.965172 0.158061,0.156587 0.370203,0.248919 0.800736,0.348485 0.374435,0.08657 0.526196,0.174464 0.571725,0.331015 0.01925,0.06968 0.01925,0.07799 -0.0046,0.134315 -0.08309,0.187028 -0.431854,0.292716 -0.748466,0.226492 -0.183278,-0.03839 -0.455994,-0.204417 -0.577388,-0.351622 -0.04882,-0.05818 -0.02142,-0.07154 -0.241287,0.119493 -0.08309,0.07154 -0.149948,0.136798 -0.149948,0.144789 0,0.02874 0.128737,0.16476 0.24114,0.254701 0.182413,0.145931 0.432471,0.261981 0.643774,0.298623 0.04586,0.0077 0.0993,0.01719 0.118512,0.02057 0.06866,0.01146 0.371,-0.0037 0.466782,-0.0249 0.342599,-0.07482 0.587909,-0.241518 0.698868,-0.47516 0.04638,-0.0976 0.05212,-0.122524 0.05794,-0.249639 0.01078,-0.251493 -0.04586,-0.410692 -0.203098,-0.564942 -0.154006,-0.15108 -0.353231,-0.239649 -0.740124,-0.328802 -0.388114,-0.08942 -0.43966,-0.10692 -0.540288,-0.182077 -0.19844,-0.148786 -0.104808,-0.408952 0.177841,-0.494811 0.1292,-0.03937 0.350485,-0.03294 0.486118,0.01328 0.111827,0.03845 0.250159,0.118904 0.33885,0.197115 l 0.0679,0.05895 0.05612,-0.05429 c 0.03065,-0.02992 0.107063,-0.109978 0.16951,-0.178087 l 0.113427,-0.123665 -0.06932,-0.06295 c -0.215967,-0.195997 -0.539546,-0.318836 -0.877595,-0.333183 -0.05611,-0.002 -0.108262,-0.002 -0.157175,-2.45e-4 z m -2.824958,0.0037 c -0.199226,0 -0.237534,0.0037 -0.359361,0.03772 -0.608039,0.16781 -1.023331,0.675425 -1.051451,1.285208 -0.01067,0.244294 0.03267,0.456254 0.138391,0.668901 0.199662,0.400868 0.57775,0.686904 1.012399,0.765549 0.539355,0.09761 1.100722,-0.127282 1.413882,-0.566059 0.569656,-0.798149 0.167316,-1.888019 -0.794691,-2.153586 -0.121802,-0.0337 -0.160048,-0.03772 -0.359357,-0.03772 z m 8.242604,0.0057 v 0.03479 c 0,0.03254 0.0044,0.03479 0.06932,0.03479 h 0.06933 v 0.21602 0.215975 h 0.03485 0.03594 V 26.544398 26.32838 h 0.06937 c 0.06431,0 0.06933,-0.002 0.06933,-0.03479 v -0.03484 h -0.174148 z m 0.404078,0 v 0.25085 1.7e-5 0.250857 h 0.03522 0.03559 l 9.8e-5,-0.184544 1.42e-4,-0.184546 0.07949,0.130521 c 0.09038,0.14859 0.07385,0.150497 0.179272,-0.01908 l 0.06039,-0.0976 8.6e-5,0.177699 1.34e-4,0.177703 h 0.03524 0.03595 v -0.25076 -0.250846 h -0.03335 c -0.02758,0 -0.04737,0.02255 -0.106743,0.1191 -0.04034,0.06546 -0.07711,0.121392 -0.08217,0.124433 -0.0048,0.002 -0.04353,-0.05058 -0.08473,-0.118904 -0.06567,-0.107877 -0.08122,-0.124433 -0.114395,-0.124433 z m -13.180351,2.49e-4 c -0.279592,4.95e-4 -0.514701,0.116064 -0.668904,0.328951 l -0.06497,0.08942 -0.0037,-0.174464 -0.0035,-0.174464 h -0.22942 -0.229491 v 1.351726 1.351702 h 0.250852 0.250867 V 28.08406 27.136126 l 0.05729,-0.08961 c 0.107063,-0.169717 0.269689,-0.287039 0.43318,-0.312884 0.09997,-0.01518 0.247553,0.0037 0.337426,0.04764 0.08389,0.03958 0.185952,0.140801 0.23032,0.227689 0.06866,0.133568 0.0701,0.171049 0.0701,1.127656 l 1.1e-4,0.895347 h 0.250869 0.250867 v -0.938252 -0.93808 l 0.05254,-0.08733 c 0.07003,-0.116239 0.178327,-0.223909 0.278232,-0.277152 0.266321,-0.141931 0.629483,-0.03065 0.743751,0.227784 0.06497,0.145361 0.06791,0.197455 0.06791,1.13144 l 2.29e-4,0.881383 h 0.251477 0.251474 l -0.0041,-0.999839 -0.0044,-0.999837 -0.03914,-0.125002 c -0.05092,-0.164204 -0.110491,-0.273255 -0.204374,-0.375011 -0.09879,-0.107129 -0.213522,-0.180747 -0.354292,-0.227358 -0.100573,-0.03318 -0.134209,-0.03743 -0.314656,-0.03821 -0.17607,-9.68e-4 -0.214642,0.0037 -0.299604,0.03175 -0.184518,0.0616 -0.338965,0.177318 -0.452331,0.338637 l -0.06644,0.09494 -0.05049,-0.08163 C 16.82099,26.40398 16.527934,26.258309 16.185969,26.258891 Z m 9.083416,0.05552 v 1.337769 1.337781 h 0.250869 0.250866 v -1.337632 -1.337758 h -0.250866 z m -4.549795,0.385411 c 0.156659,0 0.195624,0.0037 0.287985,0.03535 0.304652,0.100837 0.526894,0.315764 0.629679,0.608753 0.03707,0.106887 0.04173,0.138284 0.04305,0.287275 8.45e-4,0.1484 -0.0033,0.181119 -0.04035,0.290627 -0.09799,0.298864 -0.332959,0.526239 -0.642417,0.621578 -0.109681,0.03381 -0.335188,0.04852 -0.442323,0.02886 -0.352463,-0.06452 -0.636562,-0.305401 -0.75428,-0.639883 -0.03794,-0.109208 -0.0417,-0.136035 -0.0417,-0.294303 0,-0.158299 0.0035,-0.185126 0.0417,-0.29426 0.103477,-0.293461 0.325292,-0.507886 0.629803,-0.608765 0.09233,-0.0306 0.131362,-0.03535 0.287989,-0.03535 z" />
</svg>
