<?xml version="1.0" encoding="UTF-8" standalone="no"?>
<svg
   fill="none"
   viewBox="0 0 48 48"
   height="256"
   width="256"
   version="1.1"
   id="svg6"
   sodipodi:docname="wchisp.svg"
   inkscape:version="1.3.2 (091e20e, 2023-11-25, custom)"
   xml:space="preserve"
   xmlns:inkscape="http://www.inkscape.org/namespaces/inkscape"
   xmlns:sodipodi="http://sodipodi.sourceforge.net/DTD/sodipodi-0.dtd"
   xmlns="http://www.w3.org/2000/svg"
   xmlns:svg="http://www.w3.org/2000/svg"><defs
     id="defs10" /><sodipodi:namedview
     id="namedview8"
     pagecolor="#ffffff"
     bordercolor="#666666"
     borderopacity="1.0"
     inkscape:showpageshadow="2"
     inkscape:pageopacity="0.0"
     inkscape:pagecheckerboard="true"
     inkscape:deskcolor="#d1d1d1"
     showgrid="true"
     inkscape:zoom="1.1449053"
     inkscape:cx="372.08318"
     inkscape:cy="97.387967"
     inkscape:current-layer="svg6"
     showguides="false"
     inkscape:window-width="3840"
     inkscape:window-height="1494"
     inkscape:window-x="-11"
     inkscape:window-y="-11"
     inkscape:window-maximized="1"><inkscape:grid
       type="xygrid"
       id="grid239"
       units="px"
       spacingx="1.5"
       spacingy="1.5"
       originx="0"
       originy="0"
       visible="true" /></sodipodi:namedview><g
     id="g27"
     transform="matrix(1.0631291,0,0,1.0703308,-2.5078997,-0.80417462)"><path
       style="fill:#b3c2e1;stroke-width:1.29696"
       d="M 20.250763,41.346449 C 10.182556,40.710931 2.3589794,38.159573 2.3589794,35.511734 c 0,-0.512756 0.2836595,-1.010835 0.9904752,-1.739182 7.2799534,-5.298122 26.9979254,-8.076299 41.4907314,-1.299044 0.810979,0.369119 1.478775,1.013173 1.900947,1.459776 0.527828,0.558376 0.767585,1.050349 0.767585,1.575061 0,2.334559 -5.587475,4.481135 -14.289412,5.489655 -2.347957,0.272119 -10.645741,0.495075 -12.968543,0.348457 z"
       id="path5"
       sodipodi:nodetypes="ssccsssss" /><g
       id="g26"
       transform="translate(58.711702,-1.8528348)"><path
         style="color:#000000;fill:#d63232;fill-opacity:1;stroke-linecap:round;stroke-linejoin:round;-inkscape-stroke:none"
         d="m -49.582931,18.645446 c 1.610707,-0.120837 2.666638,0.976365 3.609375,2.144531 0.3449,0.230124 0.437639,0.696438 0.207032,1.041016 -0.230034,0.343688 -0.694867,0.436305 -1.039063,0.207031 -1.386776,-0.03441 -2.22719,-1.01584 -3.046875,-2.033203 -0.3449,-0.230124 -0.437638,-0.696439 -0.207031,-1.041016 0.110445,-0.165023 0.281827,-0.279512 0.476562,-0.318359 z"
         id="path21"
         sodipodi:nodetypes="cccccsc" /><path
         style="color:#000000;fill:#b70000;fill-opacity:1;stroke-linecap:round;stroke-linejoin:round;-inkscape-stroke:none"
         d="m -49.807931,22.020446 c 1.610707,-0.120837 2.666638,0.976365 3.609375,2.144531 0.3449,0.230124 0.437639,0.696438 0.207032,1.041016 -0.230034,0.343688 -0.694867,0.436305 -1.039063,0.207031 -1.386776,-0.03441 -2.22719,-1.01584 -3.046875,-2.033203 -0.3449,-0.230124 -0.437638,-0.696439 -0.207031,-1.041016 0.110445,-0.165023 0.281827,-0.279512 0.476562,-0.318359 z"
         id="path22"
         sodipodi:nodetypes="cccccsc" /><path
         style="color:#000000;fill:#d63232;fill-opacity:1;stroke-linecap:round;stroke-linejoin:round;-inkscape-stroke:none"
         d="m -49.239181,18.696227 c 0.371554,0.182882 0.524564,0.632296 0.341797,1.003906 -0.264749,3.373601 -2.109617,5.601615 -3.873046,7.888672 -0.182882,0.371554 -0.632297,0.524565 -1.003907,0.341797 -0.372293,-0.182166 -0.526244,-0.631773 -0.34375,-1.003906 0.678119,-2.947951 1.476206,-6.046594 3.875,-7.988046 0.182166,-0.372293 0.631773,-0.424917 1.003906,-0.242423 z"
         id="path23"
         sodipodi:nodetypes="ccccccc" /><path
         style="color:#000000;fill:#b70000;fill-opacity:1;stroke-linecap:round;stroke-linejoin:round;-inkscape-stroke:none"
         d="m -49.464181,22.071227 c 0.371554,0.182882 0.524564,0.632296 0.341797,1.003906 -0.264749,3.373601 -2.109617,5.601615 -3.873046,7.888672 -0.182882,0.371554 -0.632297,0.524565 -1.003907,0.341797 -0.372293,-0.182166 -0.526244,-0.631773 -0.34375,-1.003906 0.678119,-2.947951 1.476206,-6.046594 3.875,-7.988046 0.182166,-0.372293 0.631773,-0.424917 1.003906,-0.242423 z"
         id="path24"
         sodipodi:nodetypes="ccccccc" /><path
         style="color:#000000;fill:#d63232;fill-opacity:1;stroke-linecap:round;stroke-linejoin:round;-inkscape-stroke:none"
         d="m -19.185937,18.558594 c -1.610707,-0.120837 -2.666638,0.976365 -3.609375,2.144531 -0.3449,0.230124 -0.437639,0.696438 -0.207032,1.041016 0.230034,0.343688 0.694867,0.436305 1.039063,0.207031 1.386776,-0.03441 2.22719,-1.01584 3.046875,-2.033203 0.3449,-0.230124 0.437638,-0.696439 0.207031,-1.041016 -0.110445,-0.165023 -0.281827,-0.279512 -0.476562,-0.318359 z"
         id="path19"
         sodipodi:nodetypes="cccccsc" /><path
         style="color:#000000;fill:#b70000;fill-opacity:1;stroke-linecap:round;stroke-linejoin:round;-inkscape-stroke:none"
         d="m -18.960937,21.933594 c -1.610707,-0.120837 -2.666638,0.976365 -3.609375,2.144531 -0.3449,0.230124 -0.437639,0.696438 -0.207032,1.041016 0.230034,0.343688 0.694867,0.436305 1.039063,0.207031 1.386776,-0.03441 2.22719,-1.01584 3.046875,-2.033203 0.3449,-0.230124 0.437638,-0.696439 0.207031,-1.041016 -0.110445,-0.165023 -0.281827,-0.279512 -0.476562,-0.318359 z"
         id="path17"
         sodipodi:nodetypes="cccccsc" /><path
         style="color:#000000;fill:#d63232;fill-opacity:1;stroke-linecap:round;stroke-linejoin:round;-inkscape-stroke:none"
         d="m -19.529687,18.609375 c -0.371554,0.182882 -0.524564,0.632296 -0.341797,1.003906 0.264749,3.373601 2.109617,5.601615 3.873046,7.888672 0.182882,0.371554 0.632297,0.524565 1.003907,0.341797 0.372293,-0.182166 0.526244,-0.631773 0.34375,-1.003906 -0.678119,-2.947951 -1.476206,-6.046594 -3.875,-7.988046 -0.182166,-0.372293 -0.631773,-0.424917 -1.003906,-0.242423 z"
         id="path20"
         sodipodi:nodetypes="ccccccc" /><path
         style="color:#000000;fill:#b70000;fill-opacity:1;stroke-linecap:round;stroke-linejoin:round;-inkscape-stroke:none"
         d="m -19.304687,21.984375 c -0.371554,0.182882 -0.524564,0.632296 -0.341797,1.003906 0.264749,3.373601 2.109617,5.601615 3.873046,7.888672 0.182882,0.371554 0.632297,0.524565 1.003907,0.341797 0.372293,-0.182166 0.526244,-0.631773 0.34375,-1.003906 -0.678119,-2.947951 -1.476206,-6.046594 -3.875,-7.988046 -0.182166,-0.372293 -0.631773,-0.424917 -1.003906,-0.242423 z"
         id="path18"
         sodipodi:nodetypes="ccccccc" /><rect
         style="fill:#fd3131;fill-opacity:1;stroke-width:0.36;stroke-linecap:round;stroke-linejoin:round"
         id="rect7"
         width="26.229191"
         height="17.717733"
         x="-47.536789"
         y="15.980698"
         ry="7.150784" /><path
         id="path8"
         style="fill:#ffffff;fill-opacity:1;stroke-width:0.371669;stroke-linecap:round;stroke-linejoin:round"
         transform="rotate(15)"
         d="m -31.66749,23.23514 a 6.6019378,7.5436096 0 0 1 -6.601938,7.543609 6.6019378,7.5436096 0 0 1 -6.601938,-7.543609 6.6019378,7.5436096 0 0 1 6.601938,-7.54361 6.6019378,7.5436096 0 0 1 6.601938,7.54361 z" /><path
         id="path8-1"
         style="fill:#ffffff;fill-opacity:1;stroke-width:0.371669;stroke-linecap:round;stroke-linejoin:round"
         transform="matrix(-0.86602541,0.5,0.5,0.86602541,0,0)"
         d="m 35.100469,-2.1019845 a 6.6019378,7.5436096 0 0 1 -6.601938,7.5436096 6.6019378,7.5436096 0 0 1 -6.601937,-7.5436096 6.6019378,7.5436096 0 0 1 6.601937,-7.5436096 6.6019378,7.5436096 0 0 1 6.601938,7.5436096 z" /><path
         id="path9"
         style="fill:#606668;fill-opacity:1;stroke-width:0.378809;stroke-linecap:round;stroke-linejoin:round"
         d="m -42.962769,7.802124 a 4.9794936,4.9360676 0 0 0 -4.97937,4.936157 4.9794936,4.9360676 0 0 0 4.97937,4.936157 4.9794936,4.9360676 0 0 0 4.979737,-4.936157 4.9794936,4.9360676 0 0 0 -4.979737,-4.936157 z m -1.131958,1.7578125 a 2.0061703,1.9396391 0 0 1 2.006104,1.9398195 2.0061703,1.9396391 0 0 1 -2.006104,1.939453 2.0061703,1.9396391 0 0 1 -2.006103,-1.939453 2.0061703,1.9396391 0 0 1 2.006103,-1.9398195 z" /><path
         id="path9-7"
         style="fill:#606668;fill-opacity:1;stroke-width:0.363597;stroke-linecap:round;stroke-linejoin:round"
         d="m -26.34082,7.6157227 a 4.9505429,4.574186 70 0 0 -1.279541,0.2523193 4.9505429,4.574186 70 0 0 -2.604859,6.216797 4.9505429,4.574186 70 0 0 5.991211,3.087524 4.9505429,4.574186 70 0 0 2.605225,-6.216797 4.9505429,4.574186 70 0 0 -4.712036,-3.3398433 z m -0.443848,1.6805419 a 2.0061703,1.9396391 0 0 1 2.006104,1.9398194 2.0061703,1.9396391 0 0 1 -2.006104,1.939453 2.0061703,1.9396391 0 0 1 -2.006103,-1.939453 2.0061703,1.9396391 0 0 1 2.006103,-1.9398194 z" /><path
         style="fill:#95c2f2;fill-opacity:1;stroke-width:0.36;stroke-linecap:round;stroke-linejoin:round"
         d="m -42.224368,10.729795 c 0.331216,0.429188 1.045811,0.106071 1.531218,0.399441 0.798181,0.482403 1.465653,1.705493 1.052618,2.777881 -0.439537,0.857505 -1.373773,1.047795 -2.192777,0.719689 -1.07023,-0.428753 -0.926227,-1.458612 -1.621456,-1.280606 0.968367,-0.515566 1.546226,-1.348431 1.230397,-2.616405 z"
         id="path10"
         sodipodi:nodetypes="cscscc" /><path
         style="fill:#95c2f2;fill-opacity:1;stroke-width:0.36;stroke-linecap:round;stroke-linejoin:round"
         d="m -24.78573,11.082191 c 0.02099,0.19215 0.15473,0.429296 0.310686,0.60347 0.534784,0.597255 1.115994,1.181301 0.796214,2.011564 -0.439537,0.857505 -1.443629,1.062952 -2.257915,0.723308 -0.715586,-0.298476 -1.241065,-1.049686 -1.6106,-1.367458 1.587238,0.23782 2.638747,-0.243366 2.761615,-1.970884 z"
         id="path10-9"
         sodipodi:nodetypes="cscscc" /><path
         id="path11"
         style="fill:#ffffff;fill-opacity:1;stroke-width:0.36;stroke-linecap:round;stroke-linejoin:round"
         d="m -40.284681,13.092884 a 0.57539201,0.61519909 0 0 1 -0.575392,0.615199 0.57539201,0.61519909 0 0 1 -0.575392,-0.615199 0.57539201,0.61519909 0 0 1 0.575392,-0.615199 0.57539201,0.61519909 0 0 1 0.575392,0.615199 z" /><path
         id="path11-3"
         style="fill:#ffffff;fill-opacity:1;stroke-width:0.36;stroke-linecap:round;stroke-linejoin:round"
         d="m -24.068304,13.018471 a 0.57539201,0.61519909 0 0 1 -0.575392,0.615199 0.57539201,0.61519909 0 0 1 -0.575392,-0.615199 0.57539201,0.61519909 0 0 1 0.575392,-0.615199 0.57539201,0.61519909 0 0 1 0.575392,0.615199 z" /><path
         style="fill:#606668;fill-opacity:1;stroke:none;stroke-width:1.5;stroke-linecap:round;stroke-linejoin:round;stroke-dasharray:none;stroke-opacity:1"
         d="m -42.027822,29.259193 17.339043,0.982614 -0.131992,5.253346 c -0.693927,0.940096 -1.45751,1.730928 -2.684796,1.528112 -0.499205,1.124582 -1.395204,1.177822 -2.268864,1.291374 -0.544533,1.148866 -1.347868,1.089987 -2.114286,1.203393 -0.52702,1.032856 -1.342919,1.28574 -2.253608,1.282691 -0.46684,0.758245 -1.512691,0.95131 -1.994006,0.697544 -0.581984,-0.225494 -1.088098,-0.782347 -1.224531,-1.531856 -0.597593,-0.108481 -1.143267,-0.433294 -1.510908,-1.499906 -0.619728,-0.221123 -1.27064,-0.352158 -1.554599,-1.543279 -0.613304,-0.224799 -1.198614,-0.547575 -1.583471,-1.57194 z"
         id="path13"
         sodipodi:nodetypes="ccccccccccccc" /><path
         style="fill:#606668;fill-opacity:1;stroke-width:0.36;stroke-linecap:round;stroke-linejoin:round"
         d="m -41.80697,29.944418 5.793894,5.961349 c 0.427894,0.435718 0.952996,0.41299 1.403065,0.142473 l 9.485196,-5.19099 c 0.483845,-0.266433 0.621176,-0.751502 0.29742,-1.111565 l -5.716535,-5.203074 c -0.326128,-0.2721 -0.709075,-0.316926 -1.151004,-0.125822 l -10.030455,4.444099 c -0.434858,0.203135 -0.43715,0.720068 -0.08158,1.08353 z"
         id="path12"
         sodipodi:nodetypes="ccccccccc" /><path
         style="fill:#ffffff;fill-opacity:1;stroke:none;stroke-width:1.39184;stroke-linecap:round;stroke-linejoin:round;stroke-dasharray:none;stroke-opacity:1"
         d="m -35.914022,36.899984 c -0.411981,-0.04627 -0.945084,0.713096 -0.527131,1.147858 0.313764,0.218414 0.577022,0.262888 0.593661,-0.541983 0.08391,-0.257358 0.246704,-0.555919 -0.06653,-0.605875 z"
         id="path14-3"
         sodipodi:nodetypes="cccc" /><path
         style="fill:#ffffff;fill-opacity:1;stroke:none;stroke-width:1.39184;stroke-linecap:round;stroke-linejoin:round;stroke-dasharray:none;stroke-opacity:1"
         d="m -36.353749,38.422926 c -0.376157,0.03966 -0.556133,2.098898 0.135621,2.088616 0.570917,-0.01275 0.26566,-2.125408 -0.135621,-2.088616 z"
         id="path14-1-3"
         sodipodi:nodetypes="ccc" /><path
         style="fill:#ffffff;fill-opacity:1;stroke:none;stroke-width:1.39184;stroke-linecap:round;stroke-linejoin:round;stroke-dasharray:none;stroke-opacity:1"
         d="m -33.926933,36.333594 c 0.411981,-0.04627 0.945084,0.713096 0.527131,1.147858 -0.313764,0.218414 -0.577022,0.262888 -0.593661,-0.541983 -0.08391,-0.257358 -0.246704,-0.555919 0.06653,-0.605875 z"
         id="path14-3-2"
         sodipodi:nodetypes="cccc" /><path
         style="fill:#ffffff;fill-opacity:1;stroke:none;stroke-width:1.39184;stroke-linecap:round;stroke-linejoin:round;stroke-dasharray:none;stroke-opacity:1"
         d="m -33.487206,37.856536 c 0.376157,0.03966 0.556133,2.098898 -0.135621,2.088616 -0.570917,-0.01275 -0.26566,-2.125408 0.135621,-2.088616 z"
         id="path14-1-3-4"
         sodipodi:nodetypes="ccc" /><path
         style="fill:#ffffff;fill-opacity:1;stroke:none;stroke-width:1.39184;stroke-linecap:round;stroke-linejoin:round;stroke-dasharray:none;stroke-opacity:1"
         d="m -31.559773,35.007298 c 0.411981,-0.04627 0.945084,0.713096 0.527131,1.147858 -0.313764,0.218414 -0.577022,0.262888 -0.593661,-0.541983 -0.08391,-0.257358 -0.246704,-0.555919 0.06653,-0.605875 z"
         id="path14-3-2-9"
         sodipodi:nodetypes="cccc" /><path
         style="fill:#ffffff;fill-opacity:1;stroke:none;stroke-width:1.39184;stroke-linecap:round;stroke-linejoin:round;stroke-dasharray:none;stroke-opacity:1"
         d="m -31.120046,36.53024 c 0.376157,0.03966 0.556133,2.098898 -0.135621,2.088616 -0.570917,-0.01275 -0.26566,-2.125408 0.135621,-2.088616 z"
         id="path14-1-3-4-7"
         sodipodi:nodetypes="ccc" /><path
         style="fill:#ffffff;fill-opacity:1;stroke:none;stroke-width:1.39775;stroke-linecap:round;stroke-linejoin:round;stroke-dasharray:none;stroke-opacity:1"
         d="m -37.692539,35.244973 c -0.411981,-0.04666 -0.945084,0.719156 -0.527131,1.157612 0.313764,0.22027 0.577022,0.265123 0.593661,-0.546588 0.08391,-0.259545 0.246704,-0.560643 -0.06653,-0.611024 z"
         id="path14-3-0"
         sodipodi:nodetypes="cccc" /><path
         style="fill:#ffffff;fill-opacity:1;stroke:none;stroke-width:1.39775;stroke-linecap:round;stroke-linejoin:round;stroke-dasharray:none;stroke-opacity:1"
         d="m -38.132266,36.780857 c -0.376157,0.03999 -0.556133,2.116733 0.135621,2.106364 0.570917,-0.01286 0.26566,-2.143469 -0.135621,-2.106364 z"
         id="path14-1-3-8"
         sodipodi:nodetypes="ccc" /><path
         style="fill:#ffffff;fill-opacity:1;stroke:none;stroke-width:1.39971;stroke-linecap:round;stroke-linejoin:round;stroke-dasharray:none;stroke-opacity:1"
         d="m -39.164946,33.66101 c -0.411981,-0.04679 -0.945084,0.721176 -0.527131,1.160863 0.313764,0.220889 0.577022,0.265868 0.593661,-0.548123 0.08391,-0.260274 0.246704,-0.562217 -0.06653,-0.61274 z"
         id="path14-3-7"
         sodipodi:nodetypes="cccc" /><path
         style="fill:#828480;fill-opacity:1;stroke-width:0.2916;stroke-linecap:round;stroke-linejoin:round"
         d="m -40.201572,30.006647 4.693054,4.828692 c 0.346595,0.352932 0.771927,0.334522 1.136483,0.115404 l 7.683009,-4.204702 c 0.391914,-0.215811 0.503152,-0.608717 0.24091,-0.900368 l -4.630394,-4.21449 c -0.264163,-0.220401 -0.57435,-0.25671 -0.932312,-0.101916 l -8.124669,3.59972 c -0.352235,0.164539 -0.354092,0.583255 -0.06608,0.87766 z"
         id="path15"
         sodipodi:nodetypes="ccccccccc" /><ellipse
         style="fill:#606668;fill-opacity:1;stroke:none;stroke-width:1.5;stroke-linecap:round;stroke-linejoin:round;stroke-dasharray:none;stroke-opacity:1"
         id="path16"
         cx="16.103151"
         cy="45.158562"
         rx="0.70205069"
         ry="0.84792042"
         transform="rotate(65)" /><path
         style="fill:#ffffff;fill-opacity:1;stroke:none;stroke-width:1.39184;stroke-linecap:round;stroke-linejoin:round;stroke-dasharray:none;stroke-opacity:1"
         d="m -29.384185,33.749307 c 0.411981,-0.04627 0.945084,0.713096 0.527131,1.147858 -0.313764,0.218414 -0.577022,0.262888 -0.593661,-0.541983 -0.08391,-0.257358 -0.246704,-0.555919 0.06653,-0.605875 z"
         id="path14-3-2-4"
         sodipodi:nodetypes="cccc" /><path
         style="fill:#ffffff;fill-opacity:1;stroke:none;stroke-width:1.39184;stroke-linecap:round;stroke-linejoin:round;stroke-dasharray:none;stroke-opacity:1"
         d="m -28.944458,35.272249 c 0.376157,0.03966 0.556133,2.098898 -0.135621,2.088616 -0.570917,-0.01275 -0.26566,-2.125408 0.135621,-2.088616 z"
         id="path14-1-3-4-0"
         sodipodi:nodetypes="ccc" /><path
         style="fill:#ffffff;fill-opacity:1;stroke:none;stroke-width:1.39184;stroke-linecap:round;stroke-linejoin:round;stroke-dasharray:none;stroke-opacity:1"
         d="m -27.072891,32.14798 c 0.411981,-0.04627 0.945084,0.713096 0.527131,1.147858 -0.313764,0.218414 -0.577022,0.262888 -0.593661,-0.541983 -0.08391,-0.257358 -0.246704,-0.555919 0.06653,-0.605875 z"
         id="path14-3-2-7"
         sodipodi:nodetypes="cccc" /><path
         style="fill:#ffffff;fill-opacity:1;stroke:none;stroke-width:1.39184;stroke-linecap:round;stroke-linejoin:round;stroke-dasharray:none;stroke-opacity:1"
         d="m -26.633164,33.670922 c 0.376157,0.03966 0.556133,2.098898 -0.135621,2.088616 -0.570917,-0.01275 -0.26566,-2.125408 0.135621,-2.088616 z"
         id="path14-1-3-4-1"
         sodipodi:nodetypes="ccc" /><path
         id="path6"
         style="fill:#d63232;fill-opacity:1;stroke-width:0.364645;stroke-linecap:round;stroke-linejoin:round"
         d="m -47.197382,26.127984 c -3.951868,-8.7e-5 -7.155508,2.999257 -7.155395,6.699096 1.02e-4,3.699697 3.203679,6.698818 7.155395,6.698731 2.35278,-0.004 4.547052,-1.086537 5.870759,-2.886804 0.102889,-0.139931 0.08889,-0.473868 -0.320893,-0.36533 -2.679998,0.673782 -2.501663,-1.110675 -3.875915,-2.593691 -1.840682,-1.986361 -2.850626,-1.281159 -2.492099,-2.168889 0.807918,-1.419002 5.736876,0.794125 7.448686,0.878818 0.299015,-0.01219 0.484729,-0.03105 0.468629,-0.385816 -0.439271,-3.339298 -3.473203,-5.875174 -7.099167,-5.876115 z"
         sodipodi:nodetypes="cscssscccc" /><path
         style="fill:#ffffff;fill-opacity:1;stroke:none;stroke-width:1.39971;stroke-linecap:round;stroke-linejoin:round;stroke-dasharray:none;stroke-opacity:1"
         d="m -39.604673,35.201208 c -0.376157,0.04011 -0.556133,2.122678 0.135621,2.11228 0.570917,-0.0129 0.26566,-2.149489 -0.135621,-2.11228 z"
         id="path14-1-3-2"
         sodipodi:nodetypes="ccc" /><path
         style="fill:#ffffff;fill-opacity:1;stroke:none;stroke-width:1.41142;stroke-linecap:round;stroke-linejoin:round;stroke-dasharray:none;stroke-opacity:1"
         d="m -40.70905,32.111392 c -0.411981,-0.04758 -0.945084,0.733295 -0.527131,1.180371 0.313764,0.224601 0.577022,0.270335 0.593661,-0.557334 0.08391,-0.264648 0.246704,-0.571665 -0.06653,-0.623037 z"
         id="path14-3-1"
         sodipodi:nodetypes="cccc" /><path
         style="fill:#ffffff;fill-opacity:1;stroke:none;stroke-width:1.41142;stroke-linecap:round;stroke-linejoin:round;stroke-dasharray:none;stroke-opacity:1"
         d="m -41.148777,33.677472 c -0.376157,0.04078 -0.556133,2.158349 0.135621,2.147776 0.570917,-0.01311 0.26566,-2.18561 -0.135621,-2.147776 z"
         id="path14-1-3-6"
         sodipodi:nodetypes="ccc" /><path
         id="path7"
         style="fill:#d63232;fill-opacity:1;stroke-width:0.364645;stroke-linecap:round;stroke-linejoin:round"
         d="m -20.471684,25.60741 c 3.951868,-8.7e-5 7.155508,2.999257 7.155395,6.699096 -1.02e-4,3.699697 -3.203679,6.698818 -7.155395,6.698731 -2.35278,-0.004 -4.547052,-1.086537 -5.870759,-2.886804 -0.102889,-0.139931 -0.08889,-0.473868 0.320893,-0.36533 2.679998,0.673782 2.501663,-1.110675 3.875915,-2.593691 1.840682,-1.986361 2.850626,-1.281159 2.492099,-2.168889 -0.807918,-1.419002 -5.736876,0.794125 -7.448686,0.878818 -0.299015,-0.01219 -0.484729,-0.03105 -0.468629,-0.385816 0.439271,-3.339298 3.473203,-5.875174 7.099167,-5.876115 z"
         sodipodi:nodetypes="cscssscccc" /><path
         style="color:#000000;fill:#606668;stroke-linecap:round;stroke-linejoin:round;-inkscape-stroke:none"
         d="m -32.779297,21.515625 a 0.5625,0.5625 0 0 0 -0.646484,0.462891 c -0.114052,0.692499 -0.543957,0.894295 -1.027344,0.880859 -0.483387,-0.01344 -0.927658,-0.281685 -1.013672,-0.861328 a 0.5625,0.5625 0 0 0 -0.638672,-0.47461 0.5625,0.5625 0 0 0 -0.474609,0.640625 c 0.167,1.125403 1.143686,1.793852 2.095703,1.820313 0.952017,0.02646 1.973503,-0.629653 2.169922,-1.822266 a 0.5625,0.5625 0 0 0 -0.464844,-0.646484 z"
         id="path25" /><text
         xml:space="preserve"
         style="font-style:normal;font-variant:normal;font-weight:normal;font-stretch:normal;font-size:3.49676px;line-height:0.9;font-family:'Arial Rounded MT Bold';-inkscape-font-specification:'Arial Rounded MT Bold, Normal';font-variant-ligatures:normal;font-variant-caps:normal;font-variant-numeric:normal;font-variant-east-asian:normal;fill:#ffffff;fill-opacity:1;stroke:none;stroke-width:0.786772;stroke-linecap:round;stroke-linejoin:round;stroke-dasharray:none;stroke-opacity:1"
         x="-65.941719"
         y="9.9812279"
         id="text26"
         transform="matrix(0.69855905,-0.33786279,0.86539344,1.0129648,0,0)"><tspan
           sodipodi:role="line"
           id="tspan26"
           style="font-style:normal;font-variant:normal;font-weight:normal;font-stretch:normal;font-size:3.49676px;font-family:'Arial Rounded MT Bold';-inkscape-font-specification:'Arial Rounded MT Bold, Normal';font-variant-ligatures:normal;font-variant-caps:normal;font-variant-numeric:normal;font-variant-east-asian:normal;fill:#ffffff;fill-opacity:1;stroke:none;stroke-width:0.786772"
           x="-65.941719"
           y="9.9812279">RISC-V</tspan></text></g></g></svg>
