<?xml version="1.0" encoding="UTF-8" standalone="no"?>
<svg
   fill="none"
   viewBox="0 0 48 48"
   height="256"
   width="256"
   version="1.1"
   id="svg6"
   sodipodi:docname="xc_compiler.svg"
   inkscape:version="1.2.1 (9c6d41e410, 2022-07-14)"
   xmlns:inkscape="http://www.inkscape.org/namespaces/inkscape"
   xmlns:sodipodi="http://sodipodi.sourceforge.net/DTD/sodipodi-0.dtd"
   xmlns="http://www.w3.org/2000/svg"
   xmlns:svg="http://www.w3.org/2000/svg">
  <defs
     id="defs10" />
  <sodipodi:namedview
     id="namedview8"
     pagecolor="#ffffff"
     bordercolor="#666666"
     borderopacity="1.0"
     inkscape:showpageshadow="2"
     inkscape:pageopacity="0.0"
     inkscape:pagecheckerboard="true"
     inkscape:deskcolor="#d1d1d1"
     showgrid="true"
     inkscape:zoom="1.1449053"
     inkscape:cx="-95.204381"
     inkscape:cy="31.880366"
     inkscape:current-layer="svg6"
     showguides="false"
     inkscape:window-width="1920"
     inkscape:window-height="730"
     inkscape:window-x="-6"
     inkscape:window-y="-6"
     inkscape:window-maximized="1">
    <inkscape:grid
       type="xygrid"
       id="grid239"
       units="px"
       spacingx="1.5"
       spacingy="1.5" />
  </sodipodi:namedview>
  <path
     id="rect12255"
     style="fill:#77c32f;fill-opacity:1;stroke-width:0.1875;stroke-linecap:round;stroke-linejoin:round"
     d="m 24.203613,5.8212891 c 0.510303,0 1.12408,0.3386737 1.605469,0.5020752 l 3.457764,1.1762695 c 2.755952,0.9376916 5.517753,1.8565712 8.27417,2.7945552 1.462681,0.497553 2.943725,1.136888 4.445434,1.491578 -0.237197,3.068803 -0.49925,6.302567 -1.04956,9.328491 l 2.28479,1.072265 v 0.06189 H 39.4552 L 40.504761,12.541992 36.429565,11.240112 28.649414,8.6971436 25.747559,7.7515869 24.203979,7.2780762 22.475098,7.7940674 19.017334,8.9285889 7.8413086,12.605347 c 0.2008951,0.693112 0.177086,1.488616 0.2647705,2.206054 0.2932861,2.430374 0.2914386,5.057634 0.8466797,7.437378 H 5.2481689 v -0.06262 l 3.663e-4,-3.66e-4 C 5.7611381,21.967935 7.0469646,21.570001 7.3461914,21.089722 7.5761038,20.720277 7.279469,19.76987 7.2344971,19.349487 7.0691924,17.77331 6.9022804,16.195812 6.7126465,14.622437 6.6296037,13.931022 6.5433174,13.236287 6.4833984,12.542358 6.4639805,12.327627 6.3395214,11.961422 6.5200195,11.79126 6.9424172,11.393416 7.975624,11.256556 8.5202637,11.071655 10.185056,10.505097 11.856668,9.9572901 13.521973,9.3907471 L 20.869629,6.890625 c 0.739016,-0.251208 1.483799,-0.4835156 2.2229,-0.7353516 0.340396,-0.1157473 0.748621,-0.3339843 1.111084,-0.3339843 z m -0.06116,2.0881347 1.605469,0.4727783 3.272461,1.0715333 6.915527,2.2675776 3.951782,1.325318 -1.04956,9.202148 H 9.5090332 L 8.5209961,12.983643 v -3.67e-4 l 4.1370849,-1.34436 7.285767,-2.3759765 3.025634,-0.9891358 z m 0.05969,0.9246826 c -0.0386,0.00137 -0.07891,0.00707 -0.120849,0.017578 -0.676386,0.1696186 -0.424912,1.2309074 0.246094,1.0675049 0.642061,-0.1570092 0.453762,-1.1055953 -0.125245,-1.0850831 z M 5.2459717,22.694824 h 0.0022 37.9716801 c -0.379642,0.465408 -1.425001,0.25232 -1.976075,0.25232 H 35.810303 13.458252 7.4073486 c -0.5797377,0 -1.7641485,0.234425 -2.1613769,-0.25232 z m 18.7111813,0.818115 c -0.368781,0.622249 -1.52557,1.316056 -2.161377,1.638794 l 2.161377,1.701783 -1.852295,-0.05859 -1.235229,-0.800903 -1.296387,0.806396 -1.852661,0.0531 c 0.51861,-0.640847 1.468017,-1.20189 2.161377,-1.638794 v -0.06189 c -0.690041,-0.392539 -1.67778,-0.999313 -2.161011,-1.638061 0.585539,0.110101 1.221379,-0.06557 1.790406,0.06189 0.431553,0.09639 1.009536,0.61566 1.296752,0.945923 h 0.06152 l 1.296753,-0.937134 z m 2.024781,0.03479 c 0.268783,-0.002 0.54534,0.02966 0.754028,0.02966 h 3.581177 v 0.693237 h -3.828003 v 1.891479 h 3.827636 v 0.693238 h -3.457397 c -0.436526,0 -1.078654,0.117656 -1.475098,-0.09961 -0.50313,-0.275794 -0.253784,-1.785382 -0.253784,-2.295776 0,-0.230842 -0.0647,-0.581167 0.143189,-0.739014 0.178433,-0.135552 0.439468,-0.171201 0.708252,-0.173218 z M 9.7023926,27.71228 c 0.7293714,0.0025 1.4927504,0.08899 2.1500244,0.08899 0.3581,0 0.918653,-0.09909 1.20813,0.170288 0.224287,0.207697 0.150146,0.62485 0.150146,0.901245 0,0.638662 0.321688,2.514749 -0.432129,2.73706 -0.990221,0.290993 -2.427911,0.0562 -3.4577632,0.03589 C 8.978087,31.63914 8.4395725,31.753096 8.1665039,31.491211 7.9306691,31.265274 7.9692593,30.873017 7.9639893,30.572388 7.9509386,29.896508 7.6335913,28.039199 8.456543,27.833862 v 0.0011 c 0.382999,-0.09558 0.8082269,-0.124209 1.2458496,-0.122681 z m 15.6533204,0.04871 c 0.262079,-0.0074 0.518381,0.0114 0.685547,0.115723 0.344972,0.215581 0.352389,1.983076 0.0044,2.193237 -0.273369,0.165088 -0.794437,0.06445 -1.102295,0.06445 H 22.22644 v 1.512818 h -1.172973 v -3.844849 l 3.66e-4,-3.66e-4 h 3.581177 c 0.190585,0 0.458624,-0.03364 0.720703,-0.04102 z m -18.781128,0.0018 c 0.2206438,-0.0069 0.4349586,0.0094 0.5489502,0.101441 0.1752578,0.140861 0.099609,0.554059 0.099609,0.754761 H 3.3947754 v 2.269409 H 7.223877 v 0.756225 l -0.00256,3.67e-4 H 3.7635498 c -0.4155029,0 -1.1048769,0.132449 -1.4780273,-0.07507 C 1.950337,31.384001 2.0221247,31.020817 2.0324707,30.69873 c 0.025686,-0.637347 0.051646,-1.318628 -0.00696,-1.953735 -0.027105,-0.294649 -0.092717,-0.626212 0.2039795,-0.80896 0.3236303,-0.19874 0.804713,-0.13623 1.164917,-0.13623 h 2.5931396 c 0.1393801,0 0.3663923,-0.03009 0.5870362,-0.03699 z m 34.363037,0.0015 c 0.237878,0.0034 0.485944,0.03552 0.616699,0.03552 h 2.778443 c 0.323501,0 0.814576,-0.08228 1.071167,0.170288 0.300992,0.296534 0.31213,1.858941 -0.03076,2.115234 -0.264041,0.197214 -0.731172,0.109497 -1.040405,0.109497 l 1.666992,1.512451 -1.605469,-0.06372 -1.728882,-1.386475 -1.172973,-0.06189 v 1.512818 h -1.17334 v -3.66e-4 -2.772583 c 0,-0.259898 -0.102433,-0.819744 0.06372,-1.033814 0.08919,-0.115327 0.316932,-0.140401 0.55481,-0.136963 z m -11.609253,0.03589 h 1.11145 v 2.143066 l 0.09961,0.781128 0.950683,0.101441 h 2.531617 v 0.81958 h -4.692627 v -3.844849 z m -2.283691,3.66e-4 h 1.295654 v 3.846314 h -1.297119 v -3.844849 z m -12.969361,7.33e-4 7.33e-4,0.0011 1.223511,0.06445 0.593261,0.754395 1.146973,1.701782 1.321289,-1.701782 0.656982,-0.754395 1.108887,-0.06445 v 3.844483 H 18.89209 v -1.954468 h -0.06226 c -0.3266,0.70457 -1.222771,2.463449 -2.211548,1.888916 -0.553959,-0.321766 -0.893684,-1.329542 -1.308105,-1.825928 v 1.890747 h -1.234864 z m 20.68689,0.06226 h 4.692627 v 0.75586 h -2.469727 l -0.968261,0.06445 -0.143189,0.628418 h 2.099121 v 0.882568 h -2.099121 v 0.630249 h 3.581177 v 0.882569 h -4.692627 z m 8.841064,0.675293 c -0.486372,-0.005 -1.057039,0.0813 -1.369262,0.0813 -0.180011,0 -0.490813,-0.05854 -0.641968,0.06445 -0.14554,0.117231 -0.09948,0.400183 -0.09961,0.56543 h 0.0015 1.172974 0.802002 c 0.198045,0 1.554802,-0.08168 0.844849,-0.56543 -0.157199,-0.106879 -0.418626,-0.142778 -0.71045,-0.145752 z m -34.5274653,0.08093 v 2.206055 H 12.10144 v -2.206055 z m 13.1520993,0 v 0.567261 h 2.901856 v -0.567261 z m 18.755127,3.737915 c 0.383938,0.01167 0.742552,0.09033 0.942993,0.358887 H 6.5456543 c 0.3828524,-0.512871 1.2788566,-0.314942 1.8522949,-0.314942 h 5.0013428 20.869995 5.619141 c 0.301418,0 0.710666,-0.05561 1.094604,-0.04395 z m -2.260986,0.838257 c 0.183254,-1.41e-4 0.374895,0.0249 0.487427,0.0249 h 2.592773 v 0.06189 c -0.523715,0.28481 -1.07287,0.534078 -1.605469,0.803833 -0.216426,0.109435 -0.541974,0.192206 -0.680053,0.407593 -0.329676,0.515866 0.07875,1.695672 -0.440186,2.060669 -0.907599,0.638432 -2.351341,0.938282 -3.387085,1.332275 -2.308847,0.878645 -4.62496,1.754873 -6.915527,2.681763 -1.002737,0.405927 -2.021411,0.769896 -3.025269,1.172607 -0.457004,0.183223 -1.047236,0.534892 -1.543579,0.541992 -0.421943,0.0054 -0.906868,-0.283262 -1.296753,-0.432129 C 21.958999,41.490202 21.015907,41.11174 20.067993,40.746826 17.57513,39.786976 15.089402,38.807377 12.596558,37.847534 11.596082,37.462261 10.146446,37.180577 9.2819824,36.542725 8.7894328,36.179511 9.1999264,34.999038 8.8901367,34.504761 8.7585892,34.294754 8.4218037,34.193444 8.2126465,34.086182 7.6656562,33.807379 7.1099322,33.522392 6.5456543,33.282715 v -0.06189 l 3.662e-4,7.33e-4 h 3.5811765 c 0.113136,0.621591 -0.03394,1.782049 0.310181,2.305664 0.24073,0.36649 1.207079,0.540356 1.604004,0.693237 1.481452,0.570477 2.96025,1.148034 4.445434,1.708374 1.814397,0.684851 3.630015,1.37492 5.433838,2.088135 0.625618,0.247363 1.673769,0.898774 2.346314,0.823974 0.50275,-0.05555 1.070681,-0.388479 1.543579,-0.572021 1.006783,-0.390894 2.017767,-0.770553 3.025635,-1.158692 l 6.050903,-2.332397 c 0.923948,-0.355854 1.963607,-0.623414 2.837036,-1.092773 0.740484,-0.397882 0.10955,-1.786617 0.560669,-2.362427 0.07899,-0.101126 0.254002,-0.126568 0.437256,-0.126709 z m -27.977417,0.02564 h 26.859375 c -5.3e-5,0.466879 0.06283,1.539253 -0.243164,1.90979 -0.309212,0.374402 -1.227751,0.530505 -1.671021,0.701294 -1.399479,0.538722 -2.797159,1.081593 -4.198608,1.61499 -1.607432,0.611673 -3.21098,1.233537 -4.81604,1.851562 -0.741389,0.285384 -1.621311,0.79961 -2.408203,0.89502 -0.344819,0.04164 -0.733786,-0.192347 -1.049561,-0.311646 C 22.453694,39.594305 21.696472,39.288195 20.932617,39 18.684472,38.151506 16.450552,37.264632 14.202393,36.416016 13.480087,36.143513 12.761824,35.857964 12.041382,35.580322 11.743334,35.465552 11.320688,35.385262 11.07312,35.175659 10.722307,34.879151 10.779529,33.667408 10.744629,33.221558 Z m 25.561157,0.704223 c -0.03878,0.0013 -0.07941,0.007 -0.121582,0.01758 -0.666624,0.167591 -0.415653,1.229141 0.246094,1.076294 0.642456,-0.148369 0.457135,-1.113588 -0.124512,-1.093872 z m -24.265869,0.0077 c -0.03857,-0.0013 -0.0793,0.0015 -0.121948,0.0092 -0.669444,0.119376 -0.4881,1.199644 0.184936,1.079224 0.626563,-0.111814 0.515574,-1.069363 -0.06299,-1.088379 z m 12.212402,4.267456 c -0.07176,-0.0047 -0.149454,0.0064 -0.231445,0.03772 -0.650341,0.248203 -0.276781,1.254723 0.368774,1.021729 0.580271,-0.209541 0.364983,-1.026431 -0.137329,-1.059448 z"
     sodipodi:nodetypes="sccccccccccccccccccccccccccccccscccccccccccccsccscccsccsccccccccccccccccssccccccscscssscsccccccsscsscccccssscccccccsccccssssssccccccccccscscccccccccccccccccccccccccccccccccccccccccccccccssccccscsccccccccccsccsccssssccccccccccccccccccccccsccccccscccccccccccccsccssscssccs" />
  <path
     style="fill:#d63232;fill-opacity:1;stroke:none;stroke-width:0.0623843"
     d="m 14.01634,19.349345 h 0.06245 c 0.172189,-1.304857 0.605411,-2.629641 0.918487,-3.907856 0.07966,-0.325589 0.12883,-1.118133 0.41015,-1.321893 0.36836,-0.26662 1.435286,-0.06443 1.882442,-0.06443 v 6.61822 h -1.420341 v -4.096962 h -0.0618 l -0.864386,4.096905 h -1.792183 l -0.864471,-4.096905 h -0.0618 v 4.096905 h -1.420351 v -6.617752 c 0.447146,0 1.514139,-0.202424 1.882466,0.06443 0.27916,0.202648 0.315119,0.998007 0.394351,1.321899 0.313845,1.280971 0.761386,2.599659 0.933977,3.90782 m 5.619137,-1.008196 v 2.332099 h -1.41977 v -4.790224 c 0,-0.392415 -0.179521,-1.413796 0.06371,-1.726874 0.208132,-0.268219 1.227086,-0.101563 1.541909,-0.101563 0.681794,0 1.789999,-0.208376 2.32201,0.33983 0.329227,0.339041 0.271285,0.863897 0.271285,1.29901 0,1.035518 0.0179,2.060381 -1.111354,2.477182 -0.546554,0.202123 -1.095558,0.170163 -1.667146,0.170163 m 4.93968,-4.28608 v 5.420587 h 1.975849 v 1.197536 H 23.15396 v -6.618153 h 1.420154 m 7.28597,6.618163 h -1.481846 l -0.246997,-1.323661 c -0.302891,0 -0.971538,-0.129606 -1.176943,0.146517 -0.215568,0.289269 -0.06589,0.882385 -0.350374,1.112729 -0.262886,0.212575 -1.047346,0.06443 -1.374572,0.06443 L 28.58774,14.05515 c 0.424819,0 1.472075,-0.196353 1.817526,0.06443 0.318029,0.24044 0.365622,1.374549 0.442357,1.76306 0.314075,1.590781 0.582414,3.227864 1.012589,4.790209 m 4.137209,-3.276813 c 0.911938,0.506129 0.725538,2.351139 -0.06249,2.892769 -0.955328,0.656981 -2.423105,0.384811 -3.519262,0.384811 v -6.616868 c 0.975531,0 2.57363,-0.30972 3.457693,0.154777 0.944544,0.49623 0.521246,2.454158 0.123029,3.185898 m 1.1117,-3.313189 c 0.768545,-0.213112 1.085054,0.928005 0.308383,1.133196 -0.706798,0.186386 -1.028507,-0.933249 -0.308383,-1.133196 m 0.0058,0.146516 c -0.468408,0.195789 -0.199788,1.012895 0.299327,0.839222 0.540414,-0.187625 0.227588,-1.059207 -0.299327,-0.839222 m 0.425602,0.772399 -0.370608,-0.315217 v 0.315217 h -0.06184 l -0.0618,-0.693151 c 0.536065,0.0046 0.412244,0.254428 0.493965,0.693151 m -0.370232,-0.567201 v 0.12625 h 0.247008 v -0.12625 h -0.247 m -17.535779,0.882463 0.06182,1.827857 c 0.331165,-0.08058 0.736791,0.04222 1.041503,-0.114126 0.447434,-0.229924 0.255077,-1.286615 0.255077,-1.713 h -1.359 m 14.201514,0 v 1.449698 c 0.311747,0 0.852613,0.103752 1.055923,-0.20393 0.188438,-0.28534 0.03678,-0.841433 0.116778,-1.183133 l -1.173194,-0.0618 m -4.322211,0.188721 -0.308647,2.647265 0.679279,-0.0618 -0.370418,-2.584263 m 4.322213,2.5213 v 1.449691 c 0.336487,0 0.862682,0.09649 1.146376,-0.131701 0.258479,-0.206567 0.24287,-1.070266 -0.04352,-1.243682 -0.28196,-0.170531 -0.78494,-0.0748 -1.10233,-0.0748"
     id="path11879"
     sodipodi:nodetypes="ccccccccccccccccccccccscscsccccccccccccccccccccccccccccccccccccccccccccccccccccccccccccc" />
</svg>
