<?xml version="1.0" encoding="UTF-8" standalone="no"?>
<svg
   fill="none"
   viewBox="0 0 48 48"
   height="256"
   width="256"
   version="1.1"
   id="svg6"
   sodipodi:docname="function_addr - Copy.svg"
   inkscape:version="1.3.2 (091e20e, 2023-11-25, custom)"
   xmlns:inkscape="http://www.inkscape.org/namespaces/inkscape"
   xmlns:sodipodi="http://sodipodi.sourceforge.net/DTD/sodipodi-0.dtd"
   xmlns="http://www.w3.org/2000/svg"
   xmlns:svg="http://www.w3.org/2000/svg">
  <defs
     id="defs10" />
  <sodipodi:namedview
     id="namedview8"
     pagecolor="#ffffff"
     bordercolor="#666666"
     borderopacity="1.0"
     inkscape:showpageshadow="2"
     inkscape:pageopacity="0.0"
     inkscape:pagecheckerboard="0"
     inkscape:deskcolor="#d1d1d1"
     showgrid="false"
     inkscape:zoom="2.2898106"
     inkscape:cx="207.87746"
     inkscape:cy="107.43247"
     inkscape:current-layer="svg6"
     inkscape:window-width="3840"
     inkscape:window-height="1476"
     inkscape:window-x="-12"
     inkscape:window-y="-12"
     inkscape:window-maximized="1" />
  <g
     id="g1"
     transform="matrix(1.9131348,0,0,1.7841301,-6.8022461,-7.4415664)"
     style="stroke-width:0.54127">
    <path
       d="m 7.0835029,11.519625 q 0,-1.053078 0.3882258,-1.9136577 0.3963147,-0.8719034 1.156591,-1.3814575 0.7602771,-0.509553 1.7874593,-0.509553 1.019093,0 1.763194,0.5321999 0.744101,0.532201 1.108063,1.392781 0.37205,0.8605803 0.37205,1.7890993 0,1.268223 -0.598516,2.208066 -0.598515,0.939844 -1.763194,1.913659 0.404402,0.668081 0.752188,1.256898 0.347787,0.588818 0.671309,1.098371 0.323521,0.509555 0.590426,0.871904 0.121321,-0.317056 0.372051,-1.188959 0.258817,-0.871902 0.477194,-1.256898 0.226466,-0.384997 0.630868,-0.384997 0.380139,0 0.671309,0.384997 0.291169,0.373672 0.291169,0.917196 0,0.49823 -0.250729,1.415428 -0.25073,0.905872 -0.727925,2.015567 0.299258,0.362349 0.946302,1.098372 0.655132,0.736022 0.800717,1.007784 0.153672,0.260438 0.153672,0.702052 0,0.588818 -0.307346,0.996461 -0.299257,0.39632 -0.671307,0.39632 -0.380139,0 -0.736012,-0.339704 -0.355874,-0.339702 -1.512465,-1.664541 -0.525723,0.690728 -1.091887,1.132341 -0.558075,0.441614 -1.205119,0.656758 -0.638955,0.215146 -1.4315849,0.215146 -1.0110057,0 -1.8198104,-0.407643 Q 7.099679,24.054648 6.5658679,23.352595 6.0320568,22.650544 5.7732393,21.801287 5.5144219,20.940708 5.5144219,20.057481 q 0,-0.849256 0.1941129,-1.551308 Q 5.9026477,17.792798 6.2504339,17.226627 6.6063083,16.649133 7.1158552,16.139579 7.6334901,15.618701 8.3128857,15.131795 7.7062828,14.067393 7.3908488,13.240784 7.0835029,12.402852 7.0835029,11.519625 Z m 2.2889178,5.423917 q -0.8249809,0.668081 -1.2374718,1.336163 -0.4044019,0.668082 -0.4044019,1.585278 0,0.520877 0.1455845,0.996461 0.1536725,0.475584 0.4367542,0.883227 0.2911697,0.407643 0.6713083,0.622787 0.3801386,0.215145 0.8007167,0.215145 0.4124913,0 0.8007163,-0.181174 0.388227,-0.181175 0.736013,-0.509554 0.347786,-0.339703 0.719836,-0.837933 -0.719836,-0.92852 -1.294087,-1.834394 -0.574252,-0.917197 -1.3749683,-2.276006 z m 0.8249813,-3.102617 q 0.82498,-0.736022 1.188942,-1.234252 0.37205,-0.509555 0.37205,-1.22293 0,-0.702051 -0.37205,-1.177635 -0.363962,-0.4755827 -0.922037,-0.4755827 -0.5580752,0 -0.9382138,0.4869057 -0.3720505,0.486908 -0.3720505,1.143665 0,0.339703 0.1374972,0.736022 0.1455845,0.384997 0.3558744,0.769993 0.210289,0.384996 0.5499877,0.973814 z"
       id="text3"
       style="font-size:19.5993px;line-height:0.9;font-family:'Arial Rounded MT Bold';-inkscape-font-specification:'Arial Rounded MT Bold, Normal';fill:#fd3131;stroke-width:0.0383625;stroke-linecap:round;stroke-linejoin:round"
       aria-label="&amp;" />
    <path
       style="font-size:27.5px;line-height:0.9;font-family:'Arial Rounded MT Bold';-inkscape-font-specification:'Arial Rounded MT Bold, Normal';text-align:center;text-anchor:middle;fill:#606668;fill-opacity:1;stroke-width:0.0191789;stroke-linecap:round;stroke-linejoin:round"
       d="m 24.014518,23.710988 -1.945909,-3.113346 -1.995049,3.113346 c -0.288282,0.435083 -0.533978,0.745349 -0.737086,0.930794 -0.196557,0.185445 -0.448804,0.278168 -0.756742,0.278168 -0.340698,0 -0.632257,-0.11412 -0.874677,-0.342361 -0.235867,-0.235373 -0.353801,-0.502843 -0.353801,-0.802409 0,-0.306698 0.183452,-0.745348 0.550358,-1.31595 l 2.427472,-3.787368 -2.152293,-3.156141 c -0.373457,-0.520674 -0.560186,-0.973588 -0.560186,-1.358745 0,-0.299566 0.111382,-0.559902 0.334146,-0.78101 0.222764,-0.221109 0.514323,-0.331663 0.874676,-0.331663 0.31449,0 0.573289,0.09629 0.776398,0.288868 0.209661,0.192578 0.45208,0.495709 0.727259,0.909396 l 1.739525,2.589105 1.690386,-2.589105 c 0.28173,-0.427951 0.52415,-0.73465 0.727258,-0.920095 0.209661,-0.185446 0.468461,-0.278169 0.776398,-0.278169 0.353803,0 0.645361,0.110554 0.874677,0.331663 0.235868,0.213976 0.353802,0.474312 0.353802,0.78101 0,0.221109 -0.04914,0.435084 -0.147418,0.641927 -0.09173,0.199711 -0.235867,0.43865 -0.432424,0.716818 l -2.152293,3.156141 2.427472,3.787368 c 0.380009,0.591999 0.570014,1.037782 0.570014,1.337348 0,0.306698 -0.117934,0.570601 -0.353802,0.79171 -0.235867,0.221108 -0.527426,0.331662 -0.874676,0.331662 -0.307938,0 -0.570013,-0.09629 -0.786226,-0.288867 -0.20966,-0.192578 -0.45208,-0.499277 -0.727259,-0.920095 z"
       id="path3"
       aria-label="(x)"
       sodipodi:nodetypes="ccccscscccssscccccscsccccssscc" />
  </g>
</svg>
