<?xml version="1.0" encoding="UTF-8" standalone="no"?>
<svg
   fill="none"
   viewBox="0 0 48.000003 48.000003"
   height="256"
   width="256"
   version="1.1"
   id="svg4"
   sodipodi:docname="array_of_structs.svg"
   inkscape:version="1.3.2 (091e20e, 2023-11-25, custom)"
   xml:space="preserve"
   xmlns:inkscape="http://www.inkscape.org/namespaces/inkscape"
   xmlns:sodipodi="http://sodipodi.sourceforge.net/DTD/sodipodi-0.dtd"
   xmlns="http://www.w3.org/2000/svg"
   xmlns:svg="http://www.w3.org/2000/svg"><defs
     id="defs8" /><sodipodi:namedview
     id="namedview6"
     pagecolor="#ffffff"
     bordercolor="#666666"
     borderopacity="1.0"
     inkscape:showpageshadow="2"
     inkscape:pageopacity="0.0"
     inkscape:pagecheckerboard="true"
     inkscape:deskcolor="#d1d1d1"
     showgrid="true"
     inkscape:zoom="1.6191406"
     inkscape:cx="78.436672"
     inkscape:cy="132.16888"
     inkscape:current-layer="svg4"
     inkscape:window-width="3840"
     inkscape:window-height="1476"
     inkscape:window-x="-12"
     inkscape:window-y="-12"
     inkscape:window-maximized="1"><inkscape:grid
       type="xygrid"
       id="grid11864"
       units="px"
       spacingx="0.75"
       spacingy="0.75"
       originx="0"
       originy="0"
       visible="true" /></sodipodi:namedview><g
     id="g1"
     transform="matrix(0.729,0,0,0.729,2.2969519,7.4046405)"
     style="stroke-width:1.37174"><path
       id="rect504"
       style="fill:#828480;fill-opacity:1;stroke-width:0.257201;stroke-linecap:round;stroke-linejoin:round"
       d="m 20.949956,16.812501 c -0.107588,7.44e-4 -0.217004,0.01112 -0.529175,0.02857 -0.612859,0.04195 -1.03984,0.539715 -1.06311,1.153564 -0.0204,0.537999 -0.03845,9.926352 -0.03845,10.94275 0,1.016398 0.01624,10.441738 0.03664,10.979736 0.02327,0.61385 0.450246,1.111615 1.06311,1.153565 0.106802,0.0072 0.166736,0.01136 0.233277,0.01575 h 0.155251 c 0.538385,0 5.051352,0.03845 6.06775,0.03845 1.016397,0 3.654749,-0.01805 4.192749,-0.03845 0.613848,-0.02327 1.111614,-0.449881 1.153564,-1.062744 0.04085,-0.608939 0.0349,-0.422663 0,-1.046997 -0.04195,-0.612899 -0.539716,-1.03981 -1.153564,-1.06311 -0.538,-0.0204 -3.176352,-0.03845 -4.192749,-0.03845 -1.016398,0 -3.654751,0.01805 -4.19275,0.03845 -0.04607,0.0017 -0.09161,0.0059 -0.13623,0.01209 0.01337,-2.94581 0.02307,-8.237635 0.02307,-8.988282 0,-0.416825 -0.0038,-2.315841 -0.0088,-4.36084 0.03999,0.0051 0.08081,0.0083 0.121948,0.0099 0.537999,0.02039 3.176352,0.03845 4.19275,0.03845 1.016397,0 3.654749,-0.01805 4.192749,-0.03845 0.613848,-0.02327 1.111614,-0.449881 1.153564,-1.062744 0.04085,-0.608939 0.0349,-0.422663 0,-1.046997 -0.04195,-0.612899 -0.539716,-1.03981 -1.153564,-1.06311 -0.538,-0.0204 -3.176352,-0.03845 -4.192749,-0.03845 -1.016398,0 -3.654751,0.01805 -4.19275,0.03845 -0.04442,0.0017 -0.08839,0.0055 -0.13147,0.01135 -0.0061,-1.729991 -0.01266,-3.232871 -0.02014,-3.430298 -0.0233,-0.613849 -0.450262,-1.111615 -1.063111,-1.153564 -0.304473,-0.02043 -0.410234,-0.02931 -0.517822,-0.02857 z"
       sodipodi:nodetypes="sccssccssscccsscscssscccsscccs" /><circle
       cx="7"
       cy="-20.944096"
       r="7"
       fill="#fd3131"
       transform="rotate(90)"
       id="circle10020"
       style="fill:#fd3131;fill-opacity:1;stroke-width:1.37174" /><circle
       cx="23"
       cy="-41"
       r="7"
       fill="#fd3131"
       transform="rotate(90)"
       id="circle10020-2"
       style="fill:#fd3131;fill-opacity:1;stroke-width:1.37174" /><circle
       cx="39.5"
       cy="-41"
       r="7"
       fill="#fd3131"
       transform="rotate(90)"
       id="circle1"
       style="fill:#fd3131;fill-opacity:1;stroke-width:1.37174" /></g><g
     style="fill:none"
     id="g2"
     transform="translate(0,0.01629785)"><path
       id="path3"
       style="fill:#606668;fill-opacity:1;stroke-width:1.31249;stroke-linecap:round;stroke-linejoin:round;stroke-opacity:0.814302"
       d="m 8.0152521,2.0379603 c -2.5258359,0 -3.729088,0.090461 -4.2817354,0.1604004 C 3.454191,2.2336587 3.225883,2.6456971 3.19592,3.3354457 3.18325,3.6268361 3.17468,3.9902404 3.17468,4.4392054 v 0.00623 C 3.17008,4.5172614 3.16245,4.5868736 3.1604,4.6604012 3.09046,7.1565618 3,12.591465 3,24 c 0,11.408551 0.09046,16.844197 0.1604,19.340332 0.0021,0.07479 0.0099,0.145607 0.01465,0.218628 4.2e-4,0.433479 0.0085,0.788945 0.02087,1.072998 0.02996,0.689758 0.258271,1.101439 0.5375967,1.136719 0.5526474,0.06993 1.7558965,0.160767 4.2817354,0.160767 2.5258419,0 2.3121369,-0.09083 2.8647789,-0.160767 0.279337,-0.0353 0.507271,-0.446961 0.537231,-1.136719 0.01267,-0.29139 0.02124,-0.654787 0.02124,-1.103759 0,-0.448966 -0.0086,-0.812369 -0.02124,-1.10376 -0.02996,-0.689749 -0.257894,-1.101795 -0.537231,-1.137085 -0.552642,-0.06993 -0.338937,-0.1604 -2.8647789,-0.1604 -0.115677,0 -0.214636,0.0011 -0.3248287,0.0015 0.0571,-3.076694 0.1116937,-8.273132 0.1116937,-17.128418 0,-8.893367 -0.0551,-14.0900337 -0.1124267,-17.1610099 0.1104297,3.708e-4 0.2096247,0.00146 0.3255617,0.00146 2.5258389,0 2.3121379,-0.090827 2.8647789,-0.1607666 0.279337,-0.035298 0.507271,-0.4469622 0.537231,-1.1367188 0.01267,-0.2913904 0.02124,-0.6547876 0.02124,-1.1037598 0,-0.448965 -0.0086,-0.8123693 -0.02124,-1.1037597 C 11.387301,2.6456971 11.159368,2.2336507 10.880031,2.1983607 10.32739,2.1284269 10.541091,2.0379603 8.0152521,2.0379603 Z"
       sodipodi:nodetypes="sccsccsscccsccsscscscsccsccs" /><path
       id="path2"
       style="fill:#606668;fill-opacity:1;stroke-width:1.31249;stroke-linecap:round;stroke-linejoin:round;stroke-opacity:0.814302"
       d="m 39.984744,2.0379643 c 2.525838,0 3.729091,0.090461 4.281738,0.1604004 0.279327,0.035298 0.507635,0.4473364 0.537598,1.137085 0.01267,0.2913904 0.02124,0.6547947 0.02124,1.1037597 v 0.00623 c 0.0046,0.071821 0.01223,0.1414338 0.01428,0.2149614 C 44.90954,7.1565614 45,12.591465 45,24 c 0,11.408551 -0.09046,16.844197 -0.1604,19.340332 -0.0021,0.07479 -0.0099,0.145607 -0.01465,0.218628 -4.2e-4,0.433479 -0.0085,0.788945 -0.02087,1.072998 -0.02996,0.689758 -0.258271,1.101439 -0.537598,1.136719 -0.552648,0.06993 -1.755898,0.160767 -4.281738,0.160767 -2.525845,0 -2.31214,-0.09083 -2.864782,-0.160767 -0.279338,-0.0353 -0.507272,-0.446961 -0.537232,-1.136719 -0.01267,-0.29139 -0.02124,-0.654787 -0.02124,-1.103759 0,-0.448966 0.0086,-0.812369 0.02124,-1.10376 0.02996,-0.689749 0.257894,-1.101795 0.537232,-1.137085 0.552642,-0.06993 0.338937,-0.1604 2.864782,-0.1604 0.115676,0 0.214636,0.0011 0.324829,0.0015 -0.0571,-3.076694 -0.111695,-8.273132 -0.111695,-17.128418 0,-8.893367 0.0551,-14.0900341 0.112427,-17.1610103 -0.110429,3.708e-4 -0.209624,0.00146 -0.325561,0.00146 -2.525842,0 -2.31214,-0.090827 -2.864782,-0.1607666 C 36.840624,6.6444211 36.61269,6.2327569 36.58273,5.5430003 36.57006,5.2516099 36.56149,4.8882127 36.56149,4.4392405 c 0,-0.448965 0.0086,-0.8123693 0.02124,-1.1037597 0.02996,-0.6897797 0.257895,-1.1018261 0.537233,-1.1371161 0.552642,-0.069934 0.33894,-0.1604004 2.864781,-0.1604004 z"
       sodipodi:nodetypes="sccsccsscccsccsccscscsccsccs" /></g></svg>
