<?xml version="1.0" encoding="UTF-8" standalone="no"?>
<svg
   fill="none"
   viewBox="0 0 48 48"
   height="256"
   width="256"
   version="1.1"
   id="svg6"
   sodipodi:docname="array_of_pointers.svg"
   inkscape:version="1.3.2 (091e20e, 2023-11-25, custom)"
   xmlns:inkscape="http://www.inkscape.org/namespaces/inkscape"
   xmlns:sodipodi="http://sodipodi.sourceforge.net/DTD/sodipodi-0.dtd"
   xmlns="http://www.w3.org/2000/svg"
   xmlns:svg="http://www.w3.org/2000/svg">
  <path
     style="font-size:31.5675px;line-height:0.9;font-family:'Arial Rounded MT Bold';-inkscape-font-specification:'Arial Rounded MT Bold, Normal';fill:#606668;stroke-width:0.0708661;stroke-linecap:round;stroke-linejoin:round"
     d="m 18.57901,31.534436 0.385345,-0.940243 -5.179042,-13.04009 q -0.477829,-1.125208 -0.477829,-1.633864 0,-0.539484 0.277449,-1.001899 0.277449,-0.462414 0.755277,-0.739863 0.493242,-0.277448 1.017312,-0.277448 0.909415,0 1.37183,0.585725 0.462414,0.570311 0.816932,1.649278 l 3.560592,10.358086 3.375626,-9.633636 q 0.400759,-1.171451 0.72445,-1.834245 0.32369,-0.662794 0.678208,-0.894001 0.369931,-0.231207 1.032725,-0.231207 0.477829,0 0.909416,0.262034 0.447,0.246621 0.678208,0.678208 0.246621,0.431587 0.246621,0.909416 -0.06166,0.292862 -0.20038,0.832346 -0.138724,0.539483 -0.339104,1.094381 l -5.487319,14.365678 q -0.709036,1.8959 -1.387244,2.974867 -0.678208,1.078967 -1.803416,1.649279 -1.109795,0.585725 -3.005695,0.585725 -1.849658,0 -2.774487,-0.40076 -0.924829,-0.400759 -0.924829,-1.464312 0,-0.72445 0.431587,-1.125209 0.447,-0.385345 1.310174,-0.385345 0.339104,0 0.662794,0.09248 0.40076,0.09248 0.693622,0.09248 0.72445,0 1.140623,-0.215793 0.416173,-0.215794 0.739863,-0.755277 0.339104,-0.52407 0.770691,-1.556796 z M 38.462836,10.926162 h -2.574108 v 22.350036 h 2.574108 q 1.988382,0 1.988382,1.649278 0,1.633865 -1.988382,1.633865 h -3.838041 q -0.940243,0 -1.556795,-0.308276 -0.601139,-0.308277 -0.894002,-0.940243 -0.277449,-0.616553 -0.277449,-1.556796 V 10.448333 q 0,-1.4488986 0.647381,-2.1271066 0.64738,-0.678208 2.080865,-0.678208 h 3.838041 q 1.001898,0 1.49514,0.4470007 0.493242,0.4470008 0.493242,1.2022778 0,1.6338651 -1.988382,1.6338651 z m 7.259908,22.350036 V 10.926162 h -2.543279 q -0.986485,0 -1.510555,-0.447001 -0.508656,-0.462415 -0.508656,-1.1868641 0,-0.7398632 0.508656,-1.1868639 0.52407,-0.4624146 1.510555,-0.4624146 h 3.807213 q 1.418071,0 2.065451,0.678208 0.662794,0.678208 0.662794,2.1271066 v 23.305693 q 0,1.433485 -0.64738,2.111693 -0.64738,0.693622 -2.080865,0.693622 h -3.807213 q -0.986485,0 -1.510555,-0.462415 -0.508656,-0.447 -0.508656,-1.17145 0,-0.739863 0.508656,-1.202278 0.52407,-0.447 1.510555,-0.447 z"
     id="text2"
     transform="scale(0.93533306,1.0691379)"
     aria-label="y[]" />
  <defs
     id="defs10" />
  <sodipodi:namedview
     id="namedview8"
     pagecolor="#ffffff"
     bordercolor="#666666"
     borderopacity="1.0"
     inkscape:showpageshadow="2"
     inkscape:pageopacity="0.0"
     inkscape:pagecheckerboard="true"
     inkscape:deskcolor="#d1d1d1"
     showgrid="true"
     inkscape:zoom="1.4142136"
     inkscape:cx="53.740114"
     inkscape:cy="56.568541"
     inkscape:current-layer="svg6"
     showguides="false"
     inkscape:window-width="3840"
     inkscape:window-height="1476"
     inkscape:window-x="-12"
     inkscape:window-y="-12"
     inkscape:window-maximized="1">
    <inkscape:grid
       type="xygrid"
       id="grid239"
       units="px"
       spacingx="1.5"
       spacingy="1.5"
       originx="0"
       originy="0"
       visible="true" />
  </sodipodi:namedview>
  <path
     id="path335"
     style="font-size:32.9839px;line-height:1.25;font-family:'Arial Rounded MT Bold';-inkscape-font-specification:'Arial Rounded MT Bold, Normal';word-spacing:0px;fill:#d63232;fill-opacity:1;stroke-width:0.20615"
     d="m 5.812054,17.892101 c -0.3446264,0 -0.6288093,0.17215 -0.8523511,0.515947 -0.2142269,0.331061 -0.3211801,0.73231 -0.3211801,1.203436 0,0.381995 0.037002,1.094795 0.1115073,2.138914 0.083826,1.031386 0.1864358,1.948215 0.3075209,2.750404 C 4.3962414,24.067875 3.8048745,23.67938 3.2832776,23.335582 2.7709969,22.979054 2.3472133,22.711699 2.0119013,22.533436 1.6765903,22.342437 1.397071,22.247233 1.1735304,22.247233 c -0.30736924,0 -0.58222394,0.152587 -0.82439404,0.458185 C 0.11628141,22.998279 0,23.36765 0,23.81331 c 0,0.229195 0.0509825,0.483798 0.15344216,0.763928 0.11177123,0.267399 0.2237056,0.439115 0.3354759,0.515512 0.68925154,0.394726 1.34125044,0.69396 1.95598874,0.897691 0.6147391,0.203731 1.3133769,0.388632 2.09577,0.554164 -0.9314212,1.17145 -1.8256266,2.552853 -2.682535,4.144499 -0.093142,0.178264 -0.1397817,0.439243 -0.1397817,0.783039 0,0.369259 0.1119352,0.719502 0.3354759,1.050563 0.2328559,0.318328 0.5213848,0.477293 0.8660096,0.477293 0.2887417,0 0.5449409,-0.139837 0.7684809,-0.419966 0.2235421,-0.292859 0.4564202,-0.719614 0.6985912,-1.279874 0.24217,-0.560256 0.7172555,-1.71894 1.4251363,-3.476114 0.6985642,1.948173 1.2666122,3.298131 1.7043811,4.049387 C 7.9635176,32.624688 8.3639792,33 8.7179211,33 c 0.3539395,0 0.6427875,-0.152588 0.8663275,-0.458184 0.223542,-0.305596 0.335159,-0.662213 0.335159,-1.069673 0,-0.31833 -0.05098,-0.585684 -0.153443,-0.802148 -0.09314,-0.229198 -0.26539,-0.541183 -0.5168751,-0.935911 C 8.9976073,29.339357 8.8017214,29.008243 8.6620089,28.740845 8.6433809,28.702645 8.4431491,28.409787 8.0612639,27.862263 7.6793834,27.314737 7.3582061,26.875666 7.0974079,26.544604 8.541111,26.251741 9.8637636,25.780358 11.065296,25.130967 c 0.1304,-0.07639 0.251344,-0.248114 0.363115,-0.515512 0.121084,-0.280128 0.181716,-0.547484 0.181716,-0.802146 0,-0.44566 -0.121262,-0.81503 -0.363432,-1.107892 -0.232857,-0.305597 -0.512056,-0.458185 -0.838054,-0.458185 -0.195599,0 -0.4564604,0.08882 -0.7824584,0.267093 C 9.3001858,22.69259 8.8624092,22.972696 8.3128705,23.35469 7.7633331,23.736686 7.185956,24.118807 6.5805331,24.500801 6.6550511,23.673147 6.7200257,22.940784 6.7759094,22.304126 6.8411144,21.654735 6.8877461,21.107274 6.91569,20.661614 6.952953,20.20322 6.971605,19.89761 6.971605,19.744813 c 0,-0.560259 -0.1116168,-1.005705 -0.3351569,-1.336766 C 6.4222234,18.06425 6.1473691,17.892101 5.8120592,17.892101 Z"
     sodipodi:nodetypes="scsccccscsccsccscscsccssscscscccscssscccscs" />
</svg>
