<?xml version="1.0" encoding="UTF-8" standalone="no"?>
<svg
   fill="none"
   viewBox="0 0 48 48"
   height="256"
   width="256"
   version="1.1"
   id="svg6"
   sodipodi:docname="array.svg"
   inkscape:version="1.3.2 (091e20e, 2023-11-25, custom)"
   xml:space="preserve"
   xmlns:inkscape="http://www.inkscape.org/namespaces/inkscape"
   xmlns:sodipodi="http://sodipodi.sourceforge.net/DTD/sodipodi-0.dtd"
   xmlns="http://www.w3.org/2000/svg"
   xmlns:svg="http://www.w3.org/2000/svg"><path
     id="path909"
     style="font-size:32.9839px;line-height:1.25;font-family:'Arial Rounded MT Bold';-inkscape-font-specification:'Arial Rounded MT Bold, Normal';word-spacing:0px;fill:#606668;fill-opacity:1;stroke-width:0.20615"
     d="m 16.736206,28.710938 c -0.676427,0 -1.245221,0.236193 -1.706909,0.708618 -0.461688,0.472425 -0.692505,1.036209 -0.692505,1.691162 0,0.77306 0.241569,1.374112 0.724731,1.803589 0.483163,0.429477 1.057333,0.644165 1.723023,0.644165 0.644216,0 1.202624,-0.214688 1.675049,-0.644165 0.483162,-0.440215 0.724731,-1.041267 0.724731,-1.803589 0,-0.66569 -0.241569,-1.229474 -0.724731,-1.691162 -0.472425,-0.472425 -1.046962,-0.708618 -1.723389,-0.708618 z"
     sodipodi:nodetypes="ssssscscs" /><defs
     id="defs10" /><sodipodi:namedview
     id="namedview8"
     pagecolor="#ffffff"
     bordercolor="#666666"
     borderopacity="1.0"
     inkscape:showpageshadow="2"
     inkscape:pageopacity="0.0"
     inkscape:pagecheckerboard="true"
     inkscape:deskcolor="#d1d1d1"
     showgrid="true"
     inkscape:zoom="1.6191406"
     inkscape:cx="186.5187"
     inkscape:cy="65.466829"
     inkscape:current-layer="svg6"
     showguides="false"
     inkscape:window-width="3840"
     inkscape:window-height="1476"
     inkscape:window-x="-12"
     inkscape:window-y="-12"
     inkscape:window-maximized="1"><inkscape:grid
       type="xygrid"
       id="grid239"
       units="px"
       spacingx="1.5"
       spacingy="1.5"
       originx="0"
       originy="0"
       visible="true" /></sodipodi:namedview><path
     id="path335"
     style="font-size:32.9839px;line-height:1.25;font-family:'Arial Rounded MT Bold';-inkscape-font-specification:'Arial Rounded MT Bold, Normal';word-spacing:0px;fill:#d63232;fill-opacity:1;stroke-width:0.20615"
     d="m 29.153687,7.9185791 c -0.397267,0 -0.724858,0.1451614 -0.982544,0.4350586 -0.24695,0.2791603 -0.37024,0.6175039 -0.37024,1.0147705 0,0.322108 0.04265,0.9231598 0.12854,1.8035888 0.09663,0.869692 0.214913,1.642787 0.354493,2.319214 -0.762322,-0.365056 -1.44402,-0.692646 -2.045289,-0.982544 -0.590531,-0.300634 -1.079046,-0.526074 -1.465576,-0.676392 -0.386529,-0.161054 -0.708744,-0.241333 -0.96643,-0.241333 -0.354319,0 -0.671157,0.128666 -0.950318,0.386353 -0.268423,0.246949 -0.402466,0.558411 -0.402466,0.934204 0,0.193264 0.05877,0.407952 0.17688,0.644165 0.128844,0.225477 0.257876,0.370273 0.386719,0.434692 0.794533,0.332845 1.546123,0.585167 2.254761,0.756958 0.708638,0.171791 1.513991,0.327705 2.415893,0.467286 -1.073693,0.987797 -2.104486,2.152633 -3.092285,3.494751 -0.107369,0.150317 -0.161133,0.370381 -0.161133,0.660278 0,0.311371 0.129033,0.606704 0.386719,0.885864 0.268424,0.268423 0.601025,0.402466 0.998291,0.402466 0.332845,0 0.628178,-0.117914 0.885864,-0.354126 0.257687,-0.246949 0.526138,-0.606798 0.805298,-1.079224 0.279161,-0.472424 0.826815,-1.449455 1.642823,-2.931152 0.805269,1.642751 1.460085,2.781071 1.964721,3.414551 0.515373,0.633479 0.977006,0.949951 1.38501,0.949951 0.408004,0 0.740971,-0.128666 0.998657,-0.386353 0.257687,-0.257686 0.386353,-0.558395 0.386353,-0.901977 0,-0.268424 -0.05877,-0.493864 -0.17688,-0.676392 -0.107369,-0.193264 -0.305928,-0.456339 -0.595825,-0.789184 -0.289897,-0.332845 -0.515704,-0.612049 -0.676758,-0.837525 -0.02147,-0.03221 -0.25229,-0.279156 -0.692505,-0.740844 -0.440214,-0.461689 -0.81045,-0.831924 -1.111084,-1.111084 1.664225,-0.24695 3.18891,-0.644434 4.573975,-1.192017 0.150317,-0.06442 0.289735,-0.209217 0.418579,-0.434692 0.13958,-0.236213 0.209472,-0.461654 0.209472,-0.676392 0,-0.375793 -0.139785,-0.687255 -0.418945,-0.934204 -0.268424,-0.257687 -0.590272,-0.386353 -0.966064,-0.386353 -0.225476,0 -0.526185,0.0749 -0.901978,0.22522 -0.375792,0.150317 -0.880437,0.38651 -1.513916,0.708618 -0.633479,0.322108 -1.299048,0.644323 -1.996948,0.966431 0.0859,-0.697901 0.1608,-1.315448 0.22522,-1.852295 0.07516,-0.547584 0.128919,-1.009217 0.161132,-1.38501 0.04295,-0.3865296 0.06445,-0.6442278 0.06445,-0.773071 0,-0.4724252 -0.128666,-0.848037 -0.386352,-1.1271973 C 29.857054,8.0637405 29.540216,7.9185791 29.153687,7.9185791 Z"
     sodipodi:nodetypes="scsccccscsccsccscscsccssscscscccscssscccscs" /><path
     id="path3"
     style="fill:#606668;fill-opacity:1;stroke-width:1.31249;stroke-linecap:round;stroke-linejoin:round;stroke-opacity:0.814302"
     d="m 8.0152521,2.0379603 c -2.5258359,0 -3.729088,0.090461 -4.2817354,0.1604004 C 3.454191,2.2336587 3.225883,2.6456971 3.19592,3.3354457 3.18325,3.6268361 3.17468,3.9902404 3.17468,4.4392054 v 0.00623 C 3.17008,4.5172614 3.16245,4.5868736 3.1604,4.6604012 3.09046,7.1565618 3,12.591465 3,24 c 0,11.408551 0.09046,16.844197 0.1604,19.340332 0.0021,0.07479 0.0099,0.145607 0.01465,0.218628 4.2e-4,0.433479 0.0085,0.788945 0.02087,1.072998 0.02996,0.689758 0.258271,1.101439 0.5375967,1.136719 0.5526474,0.06993 1.7558965,0.160767 4.2817354,0.160767 2.5258419,0 2.3121369,-0.09083 2.8647789,-0.160767 0.279337,-0.0353 0.507271,-0.446961 0.537231,-1.136719 0.01267,-0.29139 0.02124,-0.654787 0.02124,-1.103759 0,-0.448966 -0.0086,-0.812369 -0.02124,-1.10376 -0.02996,-0.689749 -0.257894,-1.101795 -0.537231,-1.137085 -0.552642,-0.06993 -0.338937,-0.1604 -2.8647789,-0.1604 -0.115677,0 -0.214636,0.0011 -0.3248287,0.0015 0.0571,-3.076694 0.1116937,-8.273132 0.1116937,-17.128418 0,-8.893367 -0.0551,-14.0900337 -0.1124267,-17.1610099 0.1104297,3.708e-4 0.2096247,0.00146 0.3255617,0.00146 2.5258389,0 2.3121379,-0.090827 2.8647789,-0.1607666 0.279337,-0.035298 0.507271,-0.4469622 0.537231,-1.1367188 0.01267,-0.2913904 0.02124,-0.6547876 0.02124,-1.1037598 0,-0.448965 -0.0086,-0.8123693 -0.02124,-1.1037597 C 11.387301,2.6456971 11.159368,2.2336507 10.880031,2.1983607 10.32739,2.1284269 10.541091,2.0379603 8.0152521,2.0379603 Z"
     sodipodi:nodetypes="sccsccsscccsccsscscscsccsccs" /><path
     id="path2"
     style="fill:#606668;fill-opacity:1;stroke-width:1.31249;stroke-linecap:round;stroke-linejoin:round;stroke-opacity:0.814302"
     d="m 39.984744,2.0379643 c 2.525838,0 3.729091,0.090461 4.281738,0.1604004 0.279327,0.035298 0.507635,0.4473364 0.537598,1.137085 0.01267,0.2913904 0.02124,0.6547947 0.02124,1.1037597 v 0.00623 c 0.0046,0.071821 0.01223,0.1414338 0.01428,0.2149614 C 44.90954,7.1565614 45,12.591465 45,24 c 0,11.408551 -0.09046,16.844197 -0.1604,19.340332 -0.0021,0.07479 -0.0099,0.145607 -0.01465,0.218628 -4.2e-4,0.433479 -0.0085,0.788945 -0.02087,1.072998 -0.02996,0.689758 -0.258271,1.101439 -0.537598,1.136719 -0.552648,0.06993 -1.755898,0.160767 -4.281738,0.160767 -2.525845,0 -2.31214,-0.09083 -2.864782,-0.160767 -0.279338,-0.0353 -0.507272,-0.446961 -0.537232,-1.136719 -0.01267,-0.29139 -0.02124,-0.654787 -0.02124,-1.103759 0,-0.448966 0.0086,-0.812369 0.02124,-1.10376 0.02996,-0.689749 0.257894,-1.101795 0.537232,-1.137085 0.552642,-0.06993 0.338937,-0.1604 2.864782,-0.1604 0.115676,0 0.214636,0.0011 0.324829,0.0015 -0.0571,-3.076694 -0.111695,-8.273132 -0.111695,-17.128418 0,-8.893367 0.0551,-14.0900341 0.112427,-17.1610103 -0.110429,3.708e-4 -0.209624,0.00146 -0.325561,0.00146 -2.525842,0 -2.31214,-0.090827 -2.864782,-0.1607666 C 36.840624,6.6444211 36.61269,6.2327569 36.58273,5.5430003 36.57006,5.2516099 36.56149,4.8882127 36.56149,4.4392405 c 0,-0.448965 0.0086,-0.8123693 0.02124,-1.1037597 0.02996,-0.6897797 0.257895,-1.1018261 0.537233,-1.1371161 0.552642,-0.069934 0.33894,-0.1604004 2.864781,-0.1604004 z"
     sodipodi:nodetypes="sccsccsscccsccsccscscsccsccs" /></svg>
