<?xml version="1.0" encoding="UTF-8" standalone="no"?>
<svg
   fill="none"
   viewBox="0 0 48 48"
   height="256"
   width="256"
   version="1.1"
   id="svg6"
   sodipodi:docname="case_sensitive_white.svg"
   inkscape:version="1.3.2 (091e20e, 2023-11-25, custom)"
   xmlns:inkscape="http://www.inkscape.org/namespaces/inkscape"
   xmlns:sodipodi="http://sodipodi.sourceforge.net/DTD/sodipodi-0.dtd"
   xmlns="http://www.w3.org/2000/svg"
   xmlns:svg="http://www.w3.org/2000/svg">
  <defs
     id="defs10" />
  <sodipodi:namedview
     id="namedview8"
     pagecolor="#ffffff"
     bordercolor="#666666"
     borderopacity="1.0"
     inkscape:showpageshadow="2"
     inkscape:pageopacity="0.0"
     inkscape:pagecheckerboard="0"
     inkscape:deskcolor="#d1d1d1"
     showgrid="false"
     inkscape:zoom="1.6191406"
     inkscape:cx="-30.571774"
     inkscape:cy="201.65018"
     inkscape:current-layer="svg6"
     inkscape:window-width="1920"
     inkscape:window-height="1009"
     inkscape:window-x="2552"
     inkscape:window-y="-8"
     inkscape:window-maximized="1" />
  <path
     id="path435"
     style="fill:#ffffff;fill-opacity:1;stroke-width:1.875;stroke-linejoin:round"
     d="m 19.889282,4.999878 c -2.663084,0 -6.840913,0.433738 -7.866211,3.283447 -3.794026,10.162063 -7.304294,20.445772 -10.023193,31.068604 0,2.961988 3.113201,3.648193 5.64624,3.648193 0.949016,0 1.864232,-0.118603 2.771118,-0.321899 0.6887,-0.1544 1.208534,-0.695537 1.392334,-1.366333 0.6432,-2.348092 1.312749,-4.683456 2.053345,-7.006348 h 1.41687 9.536499 1.41687 c 0.7406,2.322892 1.410147,4.658256 2.053345,7.006348 0.1838,0.670796 0.703635,1.211933 1.392334,1.366333 0.906889,0.203296 1.822099,0.321899 2.771118,0.321899 2.533047,0 5.64624,-0.686205 5.64624,-3.648193 C 35.377294,28.729097 31.867024,18.445388 28.072998,8.283325 27.047702,5.433616 22.869875,4.999878 20.206787,4.999878 Z m 0.15857,8.803345 c 0.08128,0.247943 0.163859,0.495651 0.246826,0.743042 0.4152,1.23805 0.850024,2.469412 1.290527,3.699096 0.176167,0.491875 0.353164,0.983549 0.530274,1.475098 0.856699,2.377794 1.713362,4.755689 2.468261,7.16748 h -9.071411 c 0.188725,-0.602947 0.383885,-1.203618 0.58374,-1.802856 0.599567,-1.797715 1.241999,-3.581279 1.884522,-5.364624 0.17711,-0.491549 0.354106,-0.983223 0.530273,-1.475098 0.440504,-1.229684 0.875327,-2.461046 1.290528,-3.699096 0.08296,-0.247389 0.165175,-0.495104 0.24646,-0.743042 z"
     sodipodi:nodetypes="cccsscccccccscccccsccccsscsc" />
  <path
     id="rect1050"
     style="fill:#edf1e9;fill-opacity:1;stroke-width:4.42116;stroke-linejoin:round"
     d="m 34.556616,18.348007 c 2.763215,0 4.934841,0.329477 6.516017,0.98958 1.581174,0.64475 2.694428,1.673861 3.339178,3.086171 0.660102,1.412311 0.990444,3.284585 0.990444,5.617971 0,1.473715 -0.0081,2.725133 -0.02334,3.753663 0,1.028528 -0.0081,2.171911 -0.02336,3.43071 0,1.182043 0.192164,2.418392 0.575952,3.707895 0.399137,1.274151 0.598415,2.095153 0.598415,2.463584 0,0.644754 -0.307315,1.235486 -0.921362,1.772776 -0.5987,0.521943 -1.28154,0.783205 -2.049099,0.783205 -0.644753,0 -1.281541,-0.299352 -1.910943,-0.898049 -0.629396,-0.61405 -1.297177,-1.497036 -2.003332,-2.648374 -1.519774,1.182042 -2.993492,2.072993 -4.421152,2.671687 -1.412312,0.583348 -3.001165,0.874736 -4.766557,0.874736 -1.611874,0 -3.031578,-0.314418 -4.259676,-0.943818 -1.212686,-0.644749 -2.149688,-1.512671 -2.809791,-2.602605 -0.660101,-1.089939 -0.989575,-2.271409 -0.989575,-3.545555 0,-1.719338 0.54468,-3.185957 1.634615,-4.398702 1.089933,-1.212744 2.586685,-2.025784 4.490234,-2.440266 0.39913,-0.09211 1.389286,-0.299348 2.970464,-0.621726 1.581172,-0.322377 2.931791,-0.614626 4.052432,-0.875595 1.13599,-0.276324 2.364376,-0.605798 3.684581,-0.989579 -0.07675,-1.657931 -0.414198,-2.871256 -1.012894,-3.638817 -0.583345,-0.78291 -1.80377,-1.174368 -3.661264,-1.174368 -1.596529,0 -2.801889,0.223179 -3.6155,0.668356 -0.798265,0.445182 -1.48907,1.112963 -2.072419,2.003333 -0.567992,0.89037 -0.974512,1.481104 -1.220131,1.772778 -0.230279,0.276318 -0.73686,0.414482 -1.519772,0.414482 -0.706155,0 -1.320781,-0.222306 -1.842722,-0.667491 -0.506592,-0.460534 -0.759886,-1.044169 -0.759886,-1.750324 0,-1.105288 0.391456,-2.179587 1.174366,-3.223471 0.782918,-1.043882 2.003337,-1.903841 3.66127,-2.579291 1.657927,-0.675454 3.723248,-1.012896 6.194794,-1.012896 z m 4.674158,12.963818 c -0.921072,0.33773 -2.264596,0.698195 -4.029985,1.081978 -1.750036,0.368427 -2.962499,0.64475 -3.637952,0.828962 -0.675449,0.168848 -1.320204,0.514266 -1.934253,1.036208 -0.614047,0.50659 -0.92136,1.220424 -0.92136,2.141498 0,0.951773 0.361328,1.765678 1.082835,2.441132 0.721507,0.660104 1.665606,0.99044 2.8323,0.99044 1.243451,0 2.38683,-0.269225 3.430711,-0.806513 1.059234,-0.552644 1.834181,-1.258516 2.325423,-2.118183 0.567994,-0.951772 0.852281,-2.517601 0.852281,-4.697473 z"
     sodipodi:nodetypes="sccscccscscccscssscscccscccscssssccccscsccsc" />
</svg>
