<?xml version="1.0" encoding="UTF-8" standalone="no"?>
<svg
   fill="none"
   viewBox="0 0 48 48"
   height="256"
   width="256"
   version="1.1"
   id="svg6"
   sodipodi:docname="size.svg"
   inkscape:version="1.3.2 (091e20e, 2023-11-25, custom)"
   xml:space="preserve"
   xmlns:inkscape="http://www.inkscape.org/namespaces/inkscape"
   xmlns:sodipodi="http://sodipodi.sourceforge.net/DTD/sodipodi-0.dtd"
   xmlns="http://www.w3.org/2000/svg"
   xmlns:svg="http://www.w3.org/2000/svg"><defs
     id="defs10"><inkscape:path-effect
       effect="bend_path"
       id="path-effect350"
       is_visible="true"
       lpeversion="1"
       bendpath="M 1.2089319e-7,24 C 17.485412,1.9446017 28.850173,15.528193 48,24"
       prop_scale="0.85736057"
       scale_y_rel="false"
       vertical="false"
       hide_knot="false"
       bendpath-nodetypes="cc" /></defs><sodipodi:namedview
     id="namedview8"
     pagecolor="#ffffff"
     bordercolor="#666666"
     borderopacity="1.0"
     inkscape:showpageshadow="2"
     inkscape:pageopacity="0.0"
     inkscape:pagecheckerboard="0"
     inkscape:deskcolor="#d1d1d1"
     showgrid="false"
     inkscape:zoom="3.2382812"
     inkscape:cx="205.66466"
     inkscape:cy="100.05308"
     inkscape:current-layer="svg6"
     inkscape:window-width="3840"
     inkscape:window-height="1476"
     inkscape:window-x="-12"
     inkscape:window-y="-12"
     inkscape:window-maximized="1" /><path
     style="fill:#95c2f2;fill-opacity:1;stroke-width:0.999999"
     d="M 14.53633,33.577222 C 13.320388,33.133986 9.3077182,29.1229 7.8209573,26.864502 7.1178815,25.796525 6.9475145,25.131258 7.0257423,23.75926 c 0.05088,-0.892345 0.1301342,-1.225837 0.423623,-1.782544 0.6369409,-1.208186 2.246228,-3.158506 4.3643977,-5.28928 2.5482,-2.563365 3.681169,-2.93002 5.479118,-1.77317 1.993328,1.282562 2.087633,2.671679 0.31999,4.713457 -0.335613,0.387661 -0.610206,0.730828 -0.610206,0.762593 0,0.03176 3.151634,0.05729 7.003631,0.05673 3.851998,-5.64e-4 7.003632,-0.02335 7.003632,-0.05065 0,-0.02729 -0.36152,-0.47926 -0.803376,-1.004377 -0.879436,-1.045155 -1.149049,-1.708009 -1.036384,-2.547988 0.187604,-1.398668 2.504538,-2.87951 3.912235,-2.500457 0.807472,0.21743 1.601437,0.824604 3.289806,2.515838 2.27051,2.274366 3.473007,3.764495 4.185316,5.186434 0.493336,0.984812 0.608676,2.547611 0.264624,3.585462 -0.471184,1.421363 -2.986708,4.456493 -5.414167,6.532526 -1.840454,1.57401 -2.79,1.87397 -4.048112,1.278787 -0.381491,-0.180473 -0.946851,-0.551038 -1.256358,-0.823478 -0.922112,-0.811675 -1.16309,-1.617512 -0.793365,-2.653023 0.142874,-0.400151 0.372226,-0.718063 1.449652,-2.009428 0.10318,-0.123666 0.187597,-0.264868 0.187597,-0.313781 0,-0.04891 -3.137567,-0.0948 -6.972366,-0.101974 -3.834801,-0.0072 -6.972365,0.03254 -6.972365,0.08826 0,0.05572 0.317452,0.455173 0.705449,0.887683 1.698429,1.893286 1.583477,3.222333 -0.392787,4.541303 -0.343928,0.22954 -0.783755,0.477541 -0.977394,0.551113 -0.450291,0.171088 -1.285028,0.156225 -1.801603,-0.03208 z"
     id="path2"
     sodipodi:nodetypes="sssssssssssssssssssssssssssss" /><path
     style="color:#000000;-inkscape-font-specification:'Arial Rounded MT Bold, Normal';fill:#507ab7;fill-opacity:1;stroke-width:0.999997;stroke-linecap:round;stroke-linejoin:round;-inkscape-stroke:none"
     d="M 0.70314613,3.5433071 C 0.31483615,3.5433461 5.9153478e-5,3.8581223 2.0153478e-5,4.2464323 v 3.052735 C -3.1884652e-4,7.3438773 0.00362015,7.3885073 0.01174015,7.4324683 L 0.66799013,10.83237 c 0.06387,0.330642 0.35318697,0.56959 0.68994097,0.569825 h 2.557618 c 0.34302,6.02e-4 0.636422,-0.246376 0.694335,-0.584473 l 0.580078,-3.3999017 c 0.0068,-0.03919 0.01019,-0.07888 0.01025,-0.118653 v -3.052735 c -3.9e-5,-0.38831 -0.314815,-0.7030862 -0.703125,-0.7031252 z m 5.56201097,0 c -0.38831,3.9e-5 -0.703086,0.3148152 -0.703125,0.7031252 v 3.052735 c -3.39e-4,0.04471 0.0036,0.08934 0.01172,0.133301 l 0.654785,3.3999017 c 0.06397,0.331184 0.354101,0.570292 0.691407,0.569825 h 2.5576167 c 0.342467,-1.12e-4 0.6350512,-0.246922 0.6928712,-0.584473 l 0.581543,-3.3999017 c 0.0068,-0.03919 0.01019,-0.07888 0.01025,-0.118653 V 4.2464323 C 10.762186,3.8581223 10.44741,3.5433461 10.0591,3.5433071 Z"
     id="text2"
     sodipodi:nodetypes="cccccccccccccccccccccccccc" /><path
     style="color:#000000;-inkscape-font-specification:'Arial Rounded MT Bold, Normal';fill:#507ab7;fill-opacity:1;stroke-width:0.999997;stroke-linecap:round;stroke-linejoin:round;-inkscape-stroke:none"
     d="m 37.940919,3.5433071 c -0.38831,3.9e-5 -0.703087,0.3148152 -0.703126,0.7031252 v 3.052735 c -3.39e-4,0.04471 0.0036,0.08934 0.01172,0.133301 l 0.65625,3.3999017 c 0.06387,0.330642 0.353187,0.56959 0.689941,0.569825 h 2.557619 c 0.34302,6.02e-4 0.636422,-0.246376 0.694335,-0.584473 l 0.580078,-3.3999017 c 0.0068,-0.03919 0.01019,-0.07888 0.01025,-0.118653 v -3.052735 c -3.9e-5,-0.38831 -0.314815,-0.7030862 -0.703125,-0.7031252 z m 5.562012,0 c -0.38831,3.9e-5 -0.703086,0.3148152 -0.703125,0.7031252 v 3.052735 c -3.39e-4,0.04471 0.0036,0.08934 0.01172,0.133301 l 0.654785,3.3999017 c 0.06397,0.331184 0.354101,0.570292 0.691407,0.569825 h 2.557618 c 0.342467,-1.12e-4 0.635051,-0.246922 0.692871,-0.584473 L 47.98975,7.4178203 c 0.0068,-0.03919 0.01019,-0.07888 0.01025,-0.118653 v -3.052735 c -3.9e-5,-0.38831 -0.314815,-0.7030862 -0.703125,-0.7031252 z"
     id="path1"
     sodipodi:nodetypes="cccccccccccccccccccccccccc" /></svg>
