<?xml version="1.0" encoding="UTF-8" standalone="no"?>
<svg
   fill="none"
   viewBox="0 0 48 48"
   height="256"
   width="256"
   version="1.1"
   id="svg6"
   sodipodi:docname="constants.svg"
   inkscape:version="1.3.2 (091e20e, 2023-11-25, custom)"
   xmlns:inkscape="http://www.inkscape.org/namespaces/inkscape"
   xmlns:sodipodi="http://sodipodi.sourceforge.net/DTD/sodipodi-0.dtd"
   xmlns="http://www.w3.org/2000/svg"
   xmlns:svg="http://www.w3.org/2000/svg">
  <defs
     id="defs10" />
  <sodipodi:namedview
     id="namedview8"
     pagecolor="#ffffff"
     bordercolor="#666666"
     borderopacity="1.0"
     inkscape:showpageshadow="2"
     inkscape:pageopacity="0.0"
     inkscape:pagecheckerboard="0"
     inkscape:deskcolor="#d1d1d1"
     showgrid="false"
     inkscape:zoom="2.2898106"
     inkscape:cx="-48.257266"
     inkscape:cy="106.99575"
     inkscape:current-layer="svg6"
     inkscape:window-width="3840"
     inkscape:window-height="1476"
     inkscape:window-x="-12"
     inkscape:window-y="-12"
     inkscape:window-maximized="1" />
  <path
     style="font-size:50px;line-height:0.9;font-family:'Arial Rounded MT Bold';-inkscape-font-specification:'Arial Rounded MT Bold, Normal';text-align:center;text-anchor:middle;fill:#95c2f2;stroke-width:0.0354331;stroke-linecap:round;stroke-linejoin:round"
     d="m 35.175028,30.994671 q 0,1.708984 -0.854492,3.710937 -0.830078,1.977539 -2.636719,3.90625 -1.806641,1.904297 -4.614258,3.100586 -2.807617,1.196289 -6.542969,1.196289 -2.832031,0 -5.151367,-0.537109 Q 13.055887,41.834515 11.15159,40.711468 9.2717075,39.564007 7.6847935,37.708538 6.2687778,36.023968 5.2678013,33.948772 4.2668247,31.849163 3.7541294,29.480999 3.2658482,27.112835 3.2658482,24.451702 q 0,-4.321289 1.2451171,-7.739258 1.2695313,-3.417968 3.6132813,-5.834961 2.3437504,-2.4414059 5.4931644,-3.7109371 3.149414,-1.2695313 6.713867,-1.2695313 4.345703,0 7.739258,1.7333985 3.393554,1.7333984 5.200195,4.2968749 1.806641,2.539063 1.806641,4.80957 0,1.245118 -0.878907,2.197266 -0.878906,0.952148 -2.124023,0.952148 -1.391602,0 -2.099609,-0.659179 -0.683594,-0.65918 -1.538086,-2.270508 -1.416016,-2.661133 -3.344727,-3.979492 -1.904297,-1.31836 -4.711914,-1.31836 -4.467773,0 -7.128906,3.393555 -2.636719,3.393555 -2.636719,9.643555 0,4.174804 1.171875,6.958008 1.171875,2.758789 3.320312,4.125976 2.148438,1.367188 5.029297,1.367188 3.125,0 5.273438,-1.538086 2.172851,-1.5625 3.271484,-4.56543 0.463867,-1.416016 1.147461,-2.294922 0.683594,-0.90332 2.197266,-0.90332 1.293945,0 2.221679,0.90332 0.927735,0.90332 0.927735,2.246094 z"
     id="text1"
     aria-label="C" />
  <path
     style="font-size:50px;line-height:0.9;font-family:'Arial Rounded MT Bold';-inkscape-font-specification:'Arial Rounded MT Bold, Normal';text-align:center;text-anchor:middle;fill:#507ab7;stroke-width:0.0354331;stroke-linecap:round;stroke-linejoin:round"
     d="m 46.529922,36.497463 q 0,1.245117 -0.756835,2.661133 -0.732422,1.416016 -2.270508,2.709961 -1.513672,1.269531 -3.833008,2.050781 -2.319336,0.78125 -5.224609,0.78125 -6.176758,0 -9.643555,-3.588867 -3.466797,-3.613281 -3.466797,-9.667969 0,-4.101562 1.586914,-7.250976 1.586914,-3.149414 4.589844,-4.858399 3.002929,-1.733398 7.177734,-1.733398 2.587891,0 4.736328,0.756836 2.172852,0.756836 3.66211,1.953125 1.513672,1.196289 2.294922,2.563476 0.805664,1.342774 0.805664,2.514649 0,1.196289 -0.903321,2.026367 -0.878906,0.830078 -2.148437,0.830078 -0.830078,0 -1.391602,-0.415039 -0.537109,-0.439453 -1.220703,-1.391602 -1.220703,-1.855468 -2.563476,-2.783203 -1.31836,-0.927734 -3.369141,-0.927734 -2.954102,0 -4.760742,2.319336 -1.806641,2.294922 -1.806641,6.298828 0,1.879883 0.463867,3.466797 0.463867,1.5625 1.342774,2.685547 0.878906,1.098633 2.124023,1.68457 1.245117,0.561524 2.734375,0.561524 2.001953,0 3.417969,-0.927735 1.44043,-0.927734 2.539062,-2.832031 0.610352,-1.123047 1.31836,-1.757813 0.708008,-0.634765 1.733398,-0.634765 1.220703,0 2.026367,0.927734 0.805664,0.927735 0.805664,1.977539 z"
     id="text1-4"
     aria-label="c" />
</svg>
