<?xml version="1.0" encoding="UTF-8" standalone="no"?>
<svg
   fill="none"
   viewBox="0 0 48 48"
   height="256"
   width="256"
   version="1.1"
   id="svg6"
   sodipodi:docname="list.svg"
   inkscape:version="1.3.2 (091e20e, 2023-11-25, custom)"
   xml:space="preserve"
   xmlns:inkscape="http://www.inkscape.org/namespaces/inkscape"
   xmlns:sodipodi="http://sodipodi.sourceforge.net/DTD/sodipodi-0.dtd"
   xmlns="http://www.w3.org/2000/svg"
   xmlns:svg="http://www.w3.org/2000/svg"><path
     style="font-size:42.4154px;line-height:1.1;font-family:'Arial Rounded MT Bold';-inkscape-font-specification:'Arial Rounded MT Bold, Normal';fill:#606668;stroke-width:0.0708661;stroke-linecap:round;stroke-linejoin:round"
     d="m 6.8649988,24.011712 q 1.3000512,1.030713 2.0324736,2.319106 0.7324232,1.264966 1.025393,3.256117 0.2929686,1.967726 0.2929686,5.059866 0,2.319105 0.07324,3.420094 0.09155,1.100991 0.329591,1.663197 0.256348,0.585633 0.604249,0.74961 0.347901,0.187403 1.190187,0.351379 0.695803,0.117128 1.153567,0.866737 0.457764,0.74961 0.457764,1.967725 0,2.834463 -2.691655,2.834463 -1.6662623,0 -2.9846234,-0.890162 Q 7.0481045,44.719682 6.333992,43.079911 5.6198796,41.463565 5.601569,39.355288 5.5466373,35.794641 5.4917056,33.639513 5.4367738,31.484385 5.3269104,30.851901 5.0522518,29.282406 4.5029344,28.485945 3.9719277,27.689485 3.0930201,27.010152 2.232423,26.307392 1.8662115,25.76861 1.5,25.206403 1.5,24.011712 1.5,22.278239 2.5620134,21.411503 3.8803749,20.357364 4.4296921,19.63118 4.99732,18.881571 5.2170469,17.73373 5.4550844,16.562465 5.4917056,15.203797 5.5283265,13.821704 5.601569,8.5978614 5.6565008,5.3651692 7.1945892,3.4442942 8.7509879,1.4999938 11.332779,1.4999938 q 2.691655,0 2.691655,2.7876114 0,1.2649664 -0.457764,1.9911509 -0.439455,0.7261845 -1.153567,0.8433111 -1.062013,0.1874023 -1.483156,0.5622073 -0.421144,0.3748049 -0.549317,1.4523689 -0.128175,1.0775636 -0.164796,4.1697046 -0.03662,3.021864 -0.2929686,4.966165 -0.2380381,1.920875 -0.9704613,3.279542 -0.7141123,1.358668 -2.0874053,2.459657 z"
     id="text6"
     aria-label="{" /><path
     id="path909"
     style="font-size:32.9839px;line-height:1.25;font-family:'Arial Rounded MT Bold';-inkscape-font-specification:'Arial Rounded MT Bold, Normal';word-spacing:0px;fill:#606668;fill-opacity:1;stroke-width:0.20615"
     d="m 16.926012,28.710938 c -0.676427,0 -1.245221,0.236193 -1.706909,0.708618 -0.461688,0.472425 -0.692505,1.036209 -0.692505,1.691162 0,0.77306 0.241569,1.374112 0.724731,1.803589 0.483163,0.429477 1.057333,0.644165 1.723023,0.644165 0.644216,0 1.202624,-0.214688 1.675049,-0.644165 0.483162,-0.440215 0.724731,-1.041267 0.724731,-1.803589 0,-0.66569 -0.241569,-1.229474 -0.724731,-1.691162 -0.472425,-0.472425 -1.046962,-0.708618 -1.723389,-0.708618 z"
     sodipodi:nodetypes="ssssscscs" /><defs
     id="defs10"><rect
       x="373.17497"
       y="112"
       width="5.8956841"
       height="8"
       id="rect7" /></defs><sodipodi:namedview
     id="namedview8"
     pagecolor="#ffffff"
     bordercolor="#666666"
     borderopacity="1.0"
     inkscape:showpageshadow="2"
     inkscape:pageopacity="0.0"
     inkscape:pagecheckerboard="true"
     inkscape:deskcolor="#d1d1d1"
     showgrid="true"
     inkscape:zoom="2.2898106"
     inkscape:cx="103.06529"
     inkscape:cy="116.16681"
     inkscape:current-layer="svg6"
     showguides="false"
     inkscape:window-width="3840"
     inkscape:window-height="1476"
     inkscape:window-x="-12"
     inkscape:window-y="-12"
     inkscape:window-maximized="1"><inkscape:grid
       type="xygrid"
       id="grid239"
       units="px"
       spacingx="1.5"
       spacingy="1.5"
       originx="0"
       originy="0"
       visible="true" /></sodipodi:namedview><path
     id="path1"
     style="font-size:32.9839px;line-height:1.25;font-family:'Arial Rounded MT Bold';-inkscape-font-specification:'Arial Rounded MT Bold, Normal';word-spacing:0px;fill:#606668;fill-opacity:1;stroke-width:0.20615"
     d="m 24.426012,28.710938 c -0.676427,0 -1.245221,0.236193 -1.706909,0.708618 -0.461688,0.472425 -0.692505,1.036209 -0.692505,1.691162 0,0.77306 0.241569,1.374112 0.724731,1.803589 0.483163,0.429477 1.057333,0.644165 1.723023,0.644165 0.644216,0 1.202624,-0.214688 1.675049,-0.644165 0.483162,-0.440215 0.724731,-1.041267 0.724731,-1.803589 0,-0.66569 -0.241569,-1.229474 -0.724731,-1.691162 -0.472425,-0.472425 -1.046962,-0.708618 -1.723389,-0.708618 z"
     sodipodi:nodetypes="ssssscscs" /><path
     id="path4"
     style="font-size:32.9839px;line-height:1.25;font-family:'Arial Rounded MT Bold';-inkscape-font-specification:'Arial Rounded MT Bold, Normal';word-spacing:0px;fill:#606668;fill-opacity:1;stroke-width:0.20615"
     d="m 31.926012,28.710938 c -0.676427,0 -1.245221,0.236193 -1.706909,0.708618 -0.461688,0.472425 -0.692505,1.036209 -0.692505,1.691162 0,0.77306 0.241569,1.374112 0.724731,1.803589 0.483163,0.429477 1.057333,0.644165 1.723023,0.644165 0.644216,0 1.202624,-0.214688 1.675049,-0.644165 0.483162,-0.440215 0.724731,-1.041267 0.724731,-1.803589 0,-0.66569 -0.241569,-1.229474 -0.724731,-1.691162 -0.472425,-0.472425 -1.046962,-0.708618 -1.723389,-0.708618 z"
     sodipodi:nodetypes="ssssscscs" /><circle
     id="path6"
     style="fill:#95c2f2;stroke:#000000;stroke-width:0.1875"
     cx="89.457176"
     cy="39.025333"
     r="0.000516425" /><text
     xml:space="preserve"
     transform="scale(0.1875)"
     id="text7"
     style="fill:#95c2f2;-inkscape-font-specification:'Inconsolata, Normal';font-family:Inconsolata;font-size:3.9999876px;line-height:1.1;stroke-linejoin:round;stroke-linecap:round;stroke-width:0.37795276;white-space:pre;shape-inside:url(#rect7)" /><path
     style="font-size:42.4154px;line-height:1.1;font-family:'Arial Rounded MT Bold';-inkscape-font-specification:'Arial Rounded MT Bold, Normal';fill:#606668;stroke-width:0.0708661;stroke-linecap:round;stroke-linejoin:round"
     d="m 41.135,24.011712 q -1.300051,1.030713 -2.032474,2.319106 -0.732423,1.264966 -1.025393,3.256117 -0.292969,1.967726 -0.292969,5.059866 0,2.319105 -0.07324,3.420094 -0.09155,1.100991 -0.329591,1.663197 -0.256348,0.585633 -0.604249,0.74961 -0.347901,0.187403 -1.190187,0.351379 -0.695803,0.117128 -1.153567,0.866737 -0.457764,0.74961 -0.457764,1.967725 0,2.834463 2.691655,2.834463 1.666263,0 2.984624,-0.890162 1.300049,-0.890162 2.014162,-2.529933 0.714113,-1.616346 0.732423,-3.724623 0.05493,-3.560647 0.109864,-5.715775 0.05493,-2.155128 0.164795,-2.787612 0.274659,-1.569495 0.823977,-2.365956 0.531006,-0.79646 1.409914,-1.475793 0.860597,-0.70276 1.226809,-1.241542 Q 46.5,25.206403 46.5,24.011712 46.5,22.278239 45.437987,21.411503 44.119625,20.357364 43.570308,19.63118 43.002679,18.881571 42.782953,17.73373 42.544915,16.562465 42.508294,15.203797 42.471674,13.821704 42.39843,8.5978614 42.3435,5.3651692 40.80541,3.4442942 39.249011,1.4999938 36.667219,1.4999938 q -2.691655,0 -2.691655,2.7876114 0,1.2649664 0.457764,1.9911509 0.439455,0.7261845 1.153567,0.8433111 1.062013,0.1874023 1.483156,0.5622073 0.421144,0.3748049 0.549317,1.4523689 0.128175,1.0775636 0.164796,4.1697046 0.03662,3.021864 0.292969,4.966165 0.238038,1.920875 0.970461,3.279542 0.714113,1.358668 2.087406,2.459657 z"
     id="path7"
     aria-label="{" /></svg>
