<?xml version="1.0" encoding="UTF-8" standalone="no"?>
<svg
   fill="none"
   viewBox="0 0 48 48"
   height="256"
   width="256"
   version="1.1"
   id="svg6"
   sodipodi:docname="marker.svg"
   inkscape:version="1.2.1 (9c6d41e410, 2022-07-14)"
   xml:space="preserve"
   xmlns:inkscape="http://www.inkscape.org/namespaces/inkscape"
   xmlns:sodipodi="http://sodipodi.sourceforge.net/DTD/sodipodi-0.dtd"
   xmlns="http://www.w3.org/2000/svg"
   xmlns:svg="http://www.w3.org/2000/svg"><defs
     id="defs10" /><sodipodi:namedview
     id="namedview8"
     pagecolor="#ffffff"
     bordercolor="#666666"
     borderopacity="1.0"
     inkscape:showpageshadow="2"
     inkscape:pageopacity="0.0"
     inkscape:pagecheckerboard="true"
     inkscape:deskcolor="#d1d1d1"
     showgrid="true"
     inkscape:zoom="0.8095703"
     inkscape:cx="-155.63812"
     inkscape:cy="6.7937275"
     inkscape:current-layer="svg6"
     showguides="false"
     inkscape:window-width="1920"
     inkscape:window-height="730"
     inkscape:window-x="-6"
     inkscape:window-y="-6"
     inkscape:window-maximized="1"><inkscape:grid
       type="xygrid"
       id="grid239"
       units="px"
       spacingx="1.5"
       spacingy="1.5" /></sodipodi:namedview><path
     id="path685"
     style="fill:#fff01c;fill-opacity:1;stroke-width:0.0913838"
     d="M 36.327346,3.5799483 C 35.391487,3.5846711 34.878484,4.096956 23.439027,14.49173 17.181526,20.177781 11.969855,24.920066 11.857204,25.029934 l -0.204821,0.199857 12.697589,12.698003 0.199857,-0.20482 c 0.109899,-0.112621 4.852152,-5.324735 10.538203,-11.582237 11.470096,-12.622849 10.907223,-11.941883 10.907222,-13.205095 0,-1.125142 -0.243913,-1.501208 -2.311555,-3.5633193 L 41.943542,7.6366488 40.207453,5.8960762 c -2.062075,-2.0676783 -2.438177,-2.3115549 -3.56332,-2.3115549 -0.118424,0 -0.219962,-0.00505 -0.316776,-0.00456 z"
     sodipodi:nodetypes="csccccsscccscc" /><path
     style="fill:#e7c323;fill-opacity:1;stroke-width:0.0913838"
     d="M 14.294775,42.279751 C 13.921185,42.013842 12.828452,40.961379 10.709076,38.83025 8.831674,36.94244 7.2403027,35.292657 7.1726996,35.164065 6.6895003,34.389154 7.4945557,33.406721 8.1234497,32.754603 9.2266156,31.61445 8.9871087,31.735356 8.6395839,30.643947 8.4333722,29.996337 8.3957955,29.740298 8.4322322,29.231056 c 0.070379,-0.983685 0.040637,-1.080205 1.7123168,-2.651805 0.791486,-0.74409 1.470001,-1.351353 1.507834,-1.349459 l 12.697589,12.698003 -1.304163,1.438182 c -1.319688,1.455309 -1.588687,1.363845 -2.251573,1.543583 -0.565643,0.153369 -1.36656,0.119271 -1.941021,-0.08264 -1.100943,-0.411336 -1.760909,0.02026 -2.327944,0.615034 -0.680258,0.65821 -1.451499,1.344859 -2.230497,0.837799 z"
     id="path683"
     sodipodi:nodetypes="csccsccccssccc" /><path
     id="path1249"
     style="fill:#fff01c;fill-opacity:1;stroke-width:0.0913838"
     d="m 7.2050381,36.683042 -2.3928255,2.438427 c -1.3160951,1.341266 -2.4776739,2.546541 -2.5814819,2.678498 -0.2692121,0.342242 -0.3106163,1.080586 -0.083755,1.491834 0.2129211,0.385979 0.533419,0.636063 0.9441096,0.73638 0.169739,0.04146 1.8540703,0.06812 3.742853,0.05929 l 3.4339537,-0.01576 0.312632,-0.244629 c 0.171922,-0.134486 0.682903,-0.594004 1.135253,-1.021232 l 0.822204,-0.777018 -2.6664794,-2.673109 z"
     sodipodi:nodetypes="cccssccccccc" /></svg>
