<?xml version="1.0" encoding="UTF-8" standalone="no"?>
<svg
   fill="none"
   viewBox="0 0 48 48"
   height="256"
   width="256"
   version="1.1"
   id="svg6"
   sodipodi:docname="pointer_to_str.svg"
   inkscape:version="1.3.2 (091e20e, 2023-11-25, custom)"
   xml:space="preserve"
   xmlns:inkscape="http://www.inkscape.org/namespaces/inkscape"
   xmlns:sodipodi="http://sodipodi.sourceforge.net/DTD/sodipodi-0.dtd"
   xmlns="http://www.w3.org/2000/svg"
   xmlns:svg="http://www.w3.org/2000/svg"><defs
     id="defs10"><inkscape:path-effect
       effect="bend_path"
       id="path-effect350"
       is_visible="true"
       lpeversion="1"
       bendpath="M 1.2089319e-7,24 C 17.485412,1.9446017 28.850173,15.528193 48,24"
       prop_scale="0.85736057"
       scale_y_rel="false"
       vertical="false"
       hide_knot="false"
       bendpath-nodetypes="cc" /></defs><sodipodi:namedview
     id="namedview8"
     pagecolor="#ffffff"
     bordercolor="#666666"
     borderopacity="1.0"
     inkscape:showpageshadow="2"
     inkscape:pageopacity="0.0"
     inkscape:pagecheckerboard="0"
     inkscape:deskcolor="#d1d1d1"
     showgrid="false"
     inkscape:zoom="1.708381"
     inkscape:cx="177.94625"
     inkscape:cy="142.23993"
     inkscape:current-layer="svg6"
     inkscape:window-width="3840"
     inkscape:window-height="1476"
     inkscape:window-x="-12"
     inkscape:window-y="-12"
     inkscape:window-maximized="1" /><path
     style="color:#000000;-inkscape-font-specification:'Arial Rounded MT Bold, Normal';fill:#507ab7;fill-opacity:1;stroke-width:0.999997;stroke-linecap:round;stroke-linejoin:round;-inkscape-stroke:none"
     d="m 16.003341,6.7844832 c -0.38831,3.9e-5 -0.703087,0.3148155 -0.703126,0.703125 v 3.0527348 c -3.39e-4,0.04471 0.0036,0.08934 0.01172,0.133301 l 0.65625,3.399902 c 0.06387,0.330642 0.353187,0.56959 0.689941,0.569825 h 2.557618 c 0.34302,6.02e-4 0.636422,-0.246376 0.694335,-0.584473 l 0.580078,-3.399902 c 0.0068,-0.03919 0.01019,-0.07888 0.01025,-0.118653 V 7.4876082 c -3.9e-5,-0.3883095 -0.314815,-0.703086 -0.703125,-0.703125 z m 5.562011,0 c -0.38831,3.9e-5 -0.703086,0.3148155 -0.703125,0.703125 v 3.0527348 c -3.39e-4,0.04471 0.0036,0.08934 0.01172,0.133301 l 0.654785,3.399902 c 0.06397,0.331184 0.354101,0.570292 0.691407,0.569825 h 2.557617 c 0.342467,-1.12e-4 0.635051,-0.246922 0.692871,-0.584473 l 0.581543,-3.399902 c 0.0068,-0.03919 0.01019,-0.07888 0.01025,-0.118653 V 7.4876082 c -3.9e-5,-0.3883095 -0.314815,-0.703086 -0.703125,-0.703125 z m 12.890625,0 c -0.38831,3.9e-5 -0.703086,0.3148155 -0.703125,0.703125 v 3.0527348 c 1.43e-4,0.04475 0.0046,0.08939 0.01319,0.133301 l 0.654785,3.399902 c 0.06387,0.330643 0.353187,0.56959 0.689941,0.569825 h 2.559082 c 0.342468,-1.12e-4 0.635052,-0.246921 0.692872,-0.584473 L 38.9428,10.658996 c 0.0068,-0.03919 0.0102,-0.07888 0.01025,-0.118653 V 7.4876082 c -3.9e-5,-0.3883095 -0.314815,-0.703086 -0.703125,-0.703125 z m 5.56201,0 c -0.388309,3.98e-5 -0.703084,0.3148163 -0.703123,0.703125 v 3.0527348 c -3.39e-4,0.04471 0.0036,0.08934 0.01172,0.133301 l 0.65625,3.399902 c 0.06387,0.330643 0.353189,0.56959 0.689946,0.569825 h 2.559075 c 0.342473,-1.11e-4 0.635055,-0.246921 0.692873,-0.584473 L 44.5048,10.658996 c 0.0067,-0.03919 0.0102,-0.07888 0.01028,-0.118653 V 7.4876082 c -3.7e-5,-0.3883095 -0.314812,-0.703086 -0.703125,-0.703125 z"
     id="text2"
     sodipodi:nodetypes="cccccccccccccccccccccccccccccccccccccccccccccccccccc" /><path
     fill="#507ab7"
     d="M 3.315251,34.965284 C 3.5711538,34.271367 3.8270579,33.577452 4.0829656,32.88354 4.2729725,32.354465 4.802432,32.290222 5.932835,32.538177 c 0.6848648,0.150225 3.2860535,0.973156 5.145483,0.747826 0.0072,-7.8e-4 0.01423,-0.0016 0.02134,-0.0024 1.485602,-0.09907 2.762113,-0.905518 3.575506,-1.649929 0.41079,-0.368092 0.77399,-0.771316 1.086832,-1.153109 -0.516615,-0.469138 -0.961282,-0.885893 -1.323601,-1.232731 -0.960534,-0.919669 -0.786674,-2.350683 0.576765,-3.164933 0.08977,-0.05369 0.448991,-0.269157 0.538807,-0.32275 0,0 0,0 0,0 3.177403,-1.966132 4.948942,-2.824837 6.66312,-3.345176 1.00308,-0.30444 1.74404,0.310307 1.829099,1.341775 0.09082,1.101229 0.31972,4.329756 -0.04796,7.579863 0,0 0,0 0,0 -0.0203,0.223996 -0.04529,0.455448 -0.07614,0.693591 -0.237449,1.832766 -2.075582,3.28925 -3.242954,2.48617 -0.462432,-0.318156 -0.994743,-0.71234 -1.622091,-1.212092 -0.387299,0.495622 -0.856096,1.043667 -1.413847,1.594557 -1.289682,1.253396 -3.309335,2.528389 -5.991528,2.790254 -0.01122,7.59e-4 -0.02237,0.0015 -0.03354,0.0024 C 8.3146058,37.92555 5.6083252,36.918022 4.6881281,36.493027 3.4711794,35.930977 3.1357555,35.479713 3.3152664,34.965302 Z"
     id="path10"
     sodipodi:nodetypes="ccccccccccccc"
     style="fill:#507ab7;fill-opacity:1;stroke-width:1" /></svg>
