<?xml version="1.0" encoding="UTF-8" standalone="no"?>
<svg
   fill="none"
   viewBox="0 0 48 48"
   height="256"
   width="256"
   version="1.1"
   id="svg6"
   sodipodi:docname="regex.svg"
   inkscape:version="1.2.1 (9c6d41e410, 2022-07-14)"
   xmlns:inkscape="http://www.inkscape.org/namespaces/inkscape"
   xmlns:sodipodi="http://sodipodi.sourceforge.net/DTD/sodipodi-0.dtd"
   xmlns="http://www.w3.org/2000/svg"
   xmlns:svg="http://www.w3.org/2000/svg">
  <path
     id="path909"
     style="font-size:32.9839px;line-height:1.25;font-family:'Arial Rounded MT Bold';-inkscape-font-specification:'Arial Rounded MT Bold, Normal';word-spacing:0px;fill:#606668;fill-opacity:1;stroke-width:0.20615"
     d="m 9.2310791,9.1428223 c -0.483162,0 -0.8802792,0.048387 -1.1916504,0.1450195 C 7.7387945,9.3737372 7.41658,9.6045539 7.072998,9.9803467 6.7294161,10.345403 6.3054172,10.946454 5.8007812,11.783936 4.9633003,13.158263 4.2600976,14.532777 3.69104,15.907104 c -0.5690575,1.363591 -0.9934226,2.753868 -1.272583,4.171143 -0.2791603,1.406539 -0.4185791,2.920471 -0.4185791,4.541748 0,1.642752 0.1447952,3.172813 0.4346924,4.590088 0.2898973,1.417275 0.708886,2.781036 1.2564697,4.090942 0.5583207,1.320644 1.2615234,2.689415 2.1097412,4.10669 0.5153729,0.826744 0.9393718,1.428162 1.2722168,1.803955 0.332845,0.375793 0.6496833,0.611986 0.9503174,0.708618 0.3113712,0.107369 0.7138647,0.161133 1.2077637,0.161133 0.5261101,0 0.7891849,-0.145161 0.7891849,-0.435059 0,-0.0859 -0.2361931,-0.63355 -0.7086185,-1.642822 C 8.8499573,37.005005 8.3829476,35.872427 7.9105225,34.605469 7.4488343,33.338511 7.0355881,31.840707 6.6705322,30.112061 6.3054765,28.383414 6.1226807,26.552644 6.1226807,24.619995 c 0,-1.954122 0.1827958,-3.806032 0.5478515,-5.556152 0.3757928,-1.75012 0.7782863,-3.210656 1.2077637,-4.380982 0.4402144,-1.170326 0.907224,-2.286775 1.401123,-3.349731 0.4938993,-1.073694 0.7408451,-1.6589829 0.7408451,-1.7556154 0,-0.2898972 -0.2630748,-0.4346923 -0.7891849,-0.4346923 z m 29.5535889,0 c -0.536847,0 -0.805298,0.1447951 -0.805298,0.4346923 0,0.085896 0.225441,0.6066684 0.676392,1.5622564 0.450951,0.94485 0.917961,2.061665 1.401123,3.350097 0.483161,1.288432 0.907526,2.813117 1.272583,4.573975 0.365055,1.760857 0.547485,3.612767 0.547485,5.556152 0,1.932649 -0.18243,3.779548 -0.547485,5.540405 -0.354319,1.750121 -0.778684,3.274806 -1.272583,4.573975 -0.483162,1.299169 -0.950172,2.415618 -1.401123,3.349731 -0.450951,0.944851 -0.676392,1.465624 -0.676392,1.562256 0,0.289898 0.268451,0.435059 0.805298,0.435059 0.719375,0 1.288535,-0.150538 1.707275,-0.451172 0.418741,-0.300634 0.987535,-1.041471 1.70691,-2.222534 1.277695,-2.104439 2.228209,-4.171403 2.850952,-6.200684 0.633478,-2.02928 0.949951,-4.22491 0.949951,-6.587036 0,-1.213273 -0.08028,-2.372733 -0.241333,-3.478638 C 45.597369,20.035453 45.3558,18.972402 45.033691,17.952393 44.72232,16.932384 44.330213,15.912343 43.857788,14.892334 43.385363,13.872326 42.832332,12.836155 42.198853,11.783936 41.490215,10.592135 40.932174,9.856675 40.52417,9.5775146 40.116166,9.2876174 39.536253,9.1428223 38.784668,9.1428223 Z M 16.736206,28.710938 c -0.676427,0 -1.245221,0.236193 -1.706909,0.708618 -0.461688,0.472425 -0.692505,1.036209 -0.692505,1.691162 0,0.77306 0.241569,1.374112 0.724731,1.803589 0.483163,0.429477 1.057333,0.644165 1.723023,0.644165 0.644216,0 1.202624,-0.214688 1.675049,-0.644165 0.483162,-0.440215 0.724731,-1.041267 0.724731,-1.803589 0,-0.66569 -0.241569,-1.229474 -0.724731,-1.691162 -0.472425,-0.472425 -1.046962,-0.708618 -1.723389,-0.708618 z"
     sodipodi:nodetypes="scccccssccscssccsscccsssscssscccsssccsscsccsssssscscs" />
  <defs
     id="defs10" />
  <sodipodi:namedview
     id="namedview8"
     pagecolor="#ffffff"
     bordercolor="#666666"
     borderopacity="1.0"
     inkscape:showpageshadow="2"
     inkscape:pageopacity="0.0"
     inkscape:pagecheckerboard="true"
     inkscape:deskcolor="#d1d1d1"
     showgrid="true"
     inkscape:zoom="1.6191406"
     inkscape:cx="180.9602"
     inkscape:cy="107.15561"
     inkscape:current-layer="svg6"
     showguides="false"
     inkscape:window-width="1920"
     inkscape:window-height="730"
     inkscape:window-x="-6"
     inkscape:window-y="-6"
     inkscape:window-maximized="1">
    <inkscape:grid
       type="xygrid"
       id="grid239"
       units="px"
       spacingx="1.5"
       spacingy="1.5" />
  </sodipodi:namedview>
  <path
     id="path335"
     style="font-size:32.9839px;line-height:1.25;font-family:'Arial Rounded MT Bold';-inkscape-font-specification:'Arial Rounded MT Bold, Normal';word-spacing:0px;fill:#d63232;fill-opacity:1;stroke-width:0.20615"
     d="m 29.153687,7.9185791 c -0.397267,0 -0.724858,0.1451614 -0.982544,0.4350586 -0.24695,0.2791603 -0.37024,0.6175039 -0.37024,1.0147705 0,0.322108 0.04265,0.9231598 0.12854,1.8035888 0.09663,0.869692 0.214913,1.642787 0.354493,2.319214 -0.762322,-0.365056 -1.44402,-0.692646 -2.045289,-0.982544 -0.590531,-0.300634 -1.079046,-0.526074 -1.465576,-0.676392 -0.386529,-0.161054 -0.708744,-0.241333 -0.96643,-0.241333 -0.354319,0 -0.671157,0.128666 -0.950318,0.386353 -0.268423,0.246949 -0.402466,0.558411 -0.402466,0.934204 0,0.193264 0.05877,0.407952 0.17688,0.644165 0.128844,0.225477 0.257876,0.370273 0.386719,0.434692 0.794533,0.332845 1.546123,0.585167 2.254761,0.756958 0.708638,0.171791 1.513991,0.327705 2.415893,0.467286 -1.073693,0.987797 -2.104486,2.152633 -3.092285,3.494751 -0.107369,0.150317 -0.161133,0.370381 -0.161133,0.660278 0,0.311371 0.129033,0.606704 0.386719,0.885864 0.268424,0.268423 0.601025,0.402466 0.998291,0.402466 0.332845,0 0.628178,-0.117914 0.885864,-0.354126 0.257687,-0.246949 0.526138,-0.606798 0.805298,-1.079224 0.279161,-0.472424 0.826815,-1.449455 1.642823,-2.931152 0.805269,1.642751 1.460085,2.781071 1.964721,3.414551 0.515373,0.633479 0.977006,0.949951 1.38501,0.949951 0.408004,0 0.740971,-0.128666 0.998657,-0.386353 0.257687,-0.257686 0.386353,-0.558395 0.386353,-0.901977 0,-0.268424 -0.05877,-0.493864 -0.17688,-0.676392 -0.107369,-0.193264 -0.305928,-0.456339 -0.595825,-0.789184 -0.289897,-0.332845 -0.515704,-0.612049 -0.676758,-0.837525 -0.02147,-0.03221 -0.25229,-0.279156 -0.692505,-0.740844 -0.440214,-0.461689 -0.81045,-0.831924 -1.111084,-1.111084 1.664225,-0.24695 3.18891,-0.644434 4.573975,-1.192017 0.150317,-0.06442 0.289735,-0.209217 0.418579,-0.434692 0.13958,-0.236213 0.209472,-0.461654 0.209472,-0.676392 0,-0.375793 -0.139785,-0.687255 -0.418945,-0.934204 -0.268424,-0.257687 -0.590272,-0.386353 -0.966064,-0.386353 -0.225476,0 -0.526185,0.0749 -0.901978,0.22522 -0.375792,0.150317 -0.880437,0.38651 -1.513916,0.708618 -0.633479,0.322108 -1.299048,0.644323 -1.996948,0.966431 0.0859,-0.697901 0.1608,-1.315448 0.22522,-1.852295 0.07516,-0.547584 0.128919,-1.009217 0.161132,-1.38501 0.04295,-0.3865296 0.06445,-0.6442278 0.06445,-0.773071 0,-0.4724252 -0.128666,-0.848037 -0.386352,-1.1271973 C 29.857054,8.0637405 29.540216,7.9185791 29.153687,7.9185791 Z"
     sodipodi:nodetypes="scsccccscsccsccscscsccssscscscccscssscccscs" />
</svg>
