<?xml version="1.0" encoding="UTF-8" standalone="no"?>
<svg
   fill="none"
   viewBox="0 0 48 48"
   height="256"
   width="256"
   version="1.1"
   id="svg6"
   sodipodi:docname="strings.svg"
   inkscape:version="1.3.2 (091e20e, 2023-11-25, custom)"
   xmlns:inkscape="http://www.inkscape.org/namespaces/inkscape"
   xmlns:sodipodi="http://sodipodi.sourceforge.net/DTD/sodipodi-0.dtd"
   xmlns="http://www.w3.org/2000/svg"
   xmlns:svg="http://www.w3.org/2000/svg">
  <defs
     id="defs10" />
  <sodipodi:namedview
     id="namedview8"
     pagecolor="#ffffff"
     bordercolor="#666666"
     borderopacity="1.0"
     inkscape:showpageshadow="2"
     inkscape:pageopacity="0.0"
     inkscape:pagecheckerboard="0"
     inkscape:deskcolor="#d1d1d1"
     showgrid="false"
     inkscape:zoom="2.4160156"
     inkscape:cx="275.24656"
     inkscape:cy="121.68795"
     inkscape:current-layer="svg6"
     inkscape:window-width="3840"
     inkscape:window-height="1476"
     inkscape:window-x="-12"
     inkscape:window-y="-12"
     inkscape:window-maximized="1" />
  <path
     style="color:#000000;-inkscape-font-specification:'Arial Rounded MT Bold, Normal';fill:#507ab7;fill-opacity:1;stroke-linecap:round;stroke-linejoin:round;-inkscape-stroke:none"
     d="m 5.5516643,6.9014579 c -0.517746,5.2e-5 -0.937448,0.419754 -0.9375,0.9375 v 4.0703131 c -4.52e-4,0.05961 0.0048,0.119121 0.01563,0.177734 l 0.875,4.533203 c 0.08516,0.440856 0.470915,0.759453 0.919921,0.759766 h 3.410157 c 0.4573607,8.03e-4 0.8485637,-0.328501 0.9257807,-0.779297 l 0.773437,-4.533203 c 0.009,-0.05225 0.01359,-0.105177 0.01367,-0.158203 V 7.8389579 c -5.2e-5,-0.517746 -0.419754,-0.937448 -0.9375,-0.9375 z m 7.4160147,0 c -0.517746,5.2e-5 -0.937448,0.419754 -0.9375,0.9375 v 4.0703131 c -4.52e-4,0.05961 0.0048,0.119121 0.01563,0.177734 l 0.873047,4.533203 c 0.0853,0.441579 0.472134,0.760389 0.921875,0.759766 h 3.410156 c 0.456623,-1.49e-4 0.846735,-0.329229 0.923828,-0.779297 l 0.775391,-4.533203 c 0.009,-0.05225 0.01359,-0.105177 0.01367,-0.158203 V 7.8389579 c -5.2e-5,-0.517746 -0.419754,-0.937448 -0.9375,-0.9375 z m 17.1875,0 c -0.517746,5.2e-5 -0.937448,0.419754 -0.9375,0.9375 v 4.0703131 c 1.91e-4,0.05967 0.0061,0.119184 0.01758,0.177734 l 0.873047,4.533203 c 0.08516,0.440857 0.470916,0.759453 0.919922,0.759766 h 3.412109 c 0.456624,-1.49e-4 0.846736,-0.329228 0.923829,-0.779297 l 0.773437,-4.533203 c 0.009,-0.05225 0.0136,-0.105177 0.01367,-0.158203 V 7.8389579 c -5.2e-5,-0.517746 -0.419754,-0.937448 -0.9375,-0.9375 z m 7.416014,0 c -0.517745,5.3e-5 -0.937446,0.419755 -0.937498,0.9375 v 4.0703131 c -4.52e-4,0.05961 0.0048,0.119121 0.01563,0.177734 l 0.875,4.533203 c 0.08516,0.440857 0.470918,0.759453 0.919928,0.759766 h 3.4121 c 0.45663,-1.48e-4 0.84674,-0.329228 0.92383,-0.779297 l 0.77343,-4.533203 c 0.009,-0.05225 0.0136,-0.105176 0.0137,-0.158203 V 7.8389579 c -5e-5,-0.517746 -0.41975,-0.937448 -0.9375,-0.9375 z"
     id="text2"
     sodipodi:nodetypes="cccccccccccccccccccccccccccccccccccccccccccccccccccc" />
</svg>
