<?xml version="1.0" encoding="UTF-8" standalone="no"?>
<svg
   fill="none"
   viewBox="0 0 48 48"
   height="256"
   width="256"
   version="1.1"
   id="svg6"
   sodipodi:docname="del.svg"
   inkscape:version="1.2.1 (9c6d41e410, 2022-07-14)"
   xmlns:inkscape="http://www.inkscape.org/namespaces/inkscape"
   xmlns:sodipodi="http://sodipodi.sourceforge.net/DTD/sodipodi-0.dtd"
   xmlns="http://www.w3.org/2000/svg"
   xmlns:svg="http://www.w3.org/2000/svg">
  <defs
     id="defs10" />
  <sodipodi:namedview
     id="namedview8"
     pagecolor="#ffffff"
     bordercolor="#666666"
     borderopacity="1.0"
     inkscape:showpageshadow="2"
     inkscape:pageopacity="0.0"
     inkscape:pagecheckerboard="true"
     inkscape:deskcolor="#d1d1d1"
     showgrid="true"
     inkscape:zoom="1.6191406"
     inkscape:cx="45.703258"
     inkscape:cy="191.15079"
     inkscape:current-layer="svg6"
     showguides="false">
    <inkscape:grid
       type="xygrid"
       id="grid239"
       units="px"
       spacingx="1.5"
       spacingy="1.5" />
  </sodipodi:namedview>
  <path
     id="rect895"
     style="fill:#fd3131;fill-opacity:1;stroke-width:1.5;stroke-linecap:round;stroke-linejoin:round"
     d="m 30.496216,26.018555 c 0.04929,-0.0018 0.09862,-0.0017 0.147949,3.66e-4 0.507406,0.02131 1.012812,0.246703 1.425293,0.625488 0.939797,0.862997 2.507061,2.339353 4.939453,4.730347 2.432494,-2.390994 3.999656,-3.86735 4.939453,-4.730347 0.733399,-0.673397 1.761005,-0.862047 2.569702,-0.28125 0.4639,0.3331 1.031475,0.801128 1.683472,1.453125 0.652097,0.652 1.120025,1.219672 1.453125,1.683472 0.580799,0.808697 0.392247,1.836305 -0.28125,2.569702 -0.862997,0.939797 -2.339353,2.507062 -4.730347,4.939453 2.390694,2.432094 3.866717,3.999024 4.729615,4.938721 0.673397,0.733397 0.862047,1.760905 0.28125,2.569702 -0.3331,0.4638 -0.801128,1.031472 -1.453125,1.683472 -0.652,0.651997 -1.219573,1.120025 -1.683472,1.453125 -0.808697,0.580797 -1.836305,0.392247 -2.569702,-0.28125 -0.939797,-0.862897 -2.506727,-2.339021 -4.938721,-4.729615 -2.432092,2.390594 -3.998924,3.866718 -4.938721,4.729615 -0.733297,0.673497 -1.761005,0.862047 -2.569702,0.28125 -0.463897,-0.3331 -1.031473,-0.801128 -1.683471,-1.453125 -0.651999,-0.652 -1.120027,-1.219672 -1.453125,-1.683472 -0.580799,-0.808797 -0.392514,-1.836305 0.280883,-2.569702 0.862899,-0.939697 2.339287,-2.506727 4.729981,-4.938721 -2.390994,-2.432391 -3.86735,-3.999656 -4.730347,-4.939453 -0.673397,-0.733397 -0.862047,-1.761005 -0.28125,-2.569702 0.3331,-0.4638 0.801128,-1.031472 1.453125,-1.683472 0.651999,-0.651997 1.219572,-1.120025 1.683472,-1.453125 0.30958,-0.222299 0.65145,-0.3318 0.99646,-0.344604 z"
     sodipodi:nodetypes="cccccccsccccscccccsccccsssc" />
</svg>
