<?xml version="1.0" encoding="UTF-8" standalone="no"?>
<svg
   fill="none"
   viewBox="0 0 48 48"
   height="256"
   width="256"
   version="1.1"
   id="svg2355"
   sodipodi:docname="rep.svg"
   inkscape:version="1.2.1 (9c6d41e410, 2022-07-14)"
   xmlns:inkscape="http://www.inkscape.org/namespaces/inkscape"
   xmlns:sodipodi="http://sodipodi.sourceforge.net/DTD/sodipodi-0.dtd"
   xmlns="http://www.w3.org/2000/svg"
   xmlns:svg="http://www.w3.org/2000/svg">
  <defs
     id="defs2359" />
  <sodipodi:namedview
     id="namedview2357"
     pagecolor="#ffffff"
     bordercolor="#666666"
     borderopacity="1.0"
     inkscape:showpageshadow="2"
     inkscape:pageopacity="0.0"
     inkscape:pagecheckerboard="0"
     inkscape:deskcolor="#d1d1d1"
     showgrid="false"
     inkscape:zoom="1.9492188"
     inkscape:cx="128.25651"
     inkscape:cy="118.76553"
     inkscape:current-layer="svg2355"
     inkscape:window-width="1920"
     inkscape:window-height="730"
     inkscape:window-x="-6"
     inkscape:window-y="-6"
     inkscape:window-maximized="1" />
  <path
     id="rect2530"
     style="fill:#606668;stroke:none;stroke-width:1.1752;stroke-linecap:round;stroke-linejoin:round;fill-opacity:1"
     d="M 3.9033676,7.9755608 5.2430447,6.7767965 C 5.8696443,6.2161055 6.7868951,5.9688686 7.5390951,6.3880581 7.8660383,6.5702679 8.2272929,6.8137978 8.5886351,7.137132 8.9499766,7.4604663 9.2221356,7.7837209 9.4257617,8.0762768 9.8942266,8.7493571 9.617927,9.5701273 8.9913274,10.130818 l -1.339677,1.198765 c -3.2344319,2.894219 -2.8746806,6.845544 0.3597976,9.739806 0,0 2.490642,2.228576 5.373637,4.475867 0.6504,-0.54652 1.191598,-0.982749 1.637536,-1.329879 0.925281,-0.720296 2.127324,-0.327166 2.318012,0.756904 0.144117,0.819026 0.300573,1.916137 0.438552,3.34696 0.188251,1.952817 0.124241,3.244733 0.0093,4.055961 -0.110196,0.777522 -0.740869,1.342081 -1.609741,1.440728 -0.906633,0.102923 -2.350584,0.160216 -4.532906,-0.0084 C 10.047161,33.683937 8.8215423,33.54381 7.9062687,33.41491 6.6945528,33.244221 6.2547807,32.16833 7.0598771,31.340256 7.4595718,30.929192 7.9648594,30.428005 8.6016722,29.822457 6.1587152,27.182588 3.669336,24.954778 3.669336,24.954778 -1.3764434,20.439737 -1.1423647,12.49056 3.9033676,7.9755608 Z"
     sodipodi:nodetypes="sscscsscccccscsccccs" />
</svg>
