<?xml version="1.0" encoding="UTF-8" standalone="no"?>
<svg
   fill="none"
   viewBox="0 0 48 48"
   height="256"
   width="256"
   version="1.1"
   id="svg6"
   sodipodi:docname="csharp.svg"
   inkscape:version="1.2.1 (9c6d41e410, 2022-07-14)"
   xmlns:inkscape="http://www.inkscape.org/namespaces/inkscape"
   xmlns:sodipodi="http://sodipodi.sourceforge.net/DTD/sodipodi-0.dtd"
   xmlns="http://www.w3.org/2000/svg"
   xmlns:svg="http://www.w3.org/2000/svg">
  <defs
     id="defs10" />
  <sodipodi:namedview
     id="namedview8"
     pagecolor="#ffffff"
     bordercolor="#666666"
     borderopacity="1.0"
     inkscape:showpageshadow="2"
     inkscape:pageopacity="0.0"
     inkscape:pagecheckerboard="true"
     inkscape:deskcolor="#d1d1d1"
     showgrid="true"
     inkscape:zoom="1.1449053"
     inkscape:cx="380.81752"
     inkscape:cy="118.3504"
     inkscape:current-layer="svg6"
     showguides="false"
     inkscape:window-width="1920"
     inkscape:window-height="730"
     inkscape:window-x="-6"
     inkscape:window-y="-6"
     inkscape:window-maximized="1">
    <inkscape:grid
       type="xygrid"
       id="grid239"
       units="px"
       spacingx="1.5"
       spacingy="1.5" />
  </sodipodi:namedview>
  <path
     fill="#d3d7cf"
     d="m 23.999962,46.000062 c 4.083201,0 6.815001,-0.3009 8.0707,-0.4782 0.525301,-0.0743 1.0169,-0.2779 1.440801,-0.5969 1.013299,-0.7624 3.157699,-2.4813 6.044999,-5.3686 2.8872,-2.8872 4.6061,-5.0316 5.3685,-6.0449 0.3191,-0.424 0.5227,-0.9155 0.5969,-1.4409 0.1773,-1.2555 0.4782,-3.9873 0.4782,-8.0705 0,-4.0832 -0.3009,-6.815 -0.4782,-8.0706 -0.0742,-0.5253 -0.2778,-1.0169 -0.5969,-1.4409 -0.7624,-1.0132 -2.4813,-3.1576 -5.3685,-6.0448595 -2.8873,-2.8872 -5.0317,-4.60613 -6.0449,-5.36857 -0.424,-0.31903 -0.915599,-0.52263 -1.440999,-0.59684 -1.2556,-0.17735 -3.9874,-0.47823 -8.070501,-0.47823 -4.0831,0 -6.8149,0.30088 -8.070499,0.47823 -0.525401,0.07421 -1.017001,0.2778 -1.440901,0.59684 -1.013299,0.76242 -3.157699,2.48134 -6.0449395,5.36857 -2.88725,2.8872605 -4.60617,5.0316595 -5.36859,6.0449595 -0.31902,0.4239 -0.52261,0.9154 -0.59683,1.4408 -0.17735,1.2556 -0.47824,3.9874 -0.47824,8.0706 0,4.0832 0.30089,6.815 0.47824,8.0706 0.07422,0.5253 0.27781,1.0168 0.59683,1.4408 0.76242,1.0133 2.48133,3.1577 5.36855,6.0449 2.8871795,2.8872 5.0316795,4.6062 6.0449795,5.3686 0.4239,0.319 0.9155,0.5226 1.4409,0.5969 1.2555,0.1773 3.9873,0.4782 8.0704,0.4782 z"
     id="path3678"
     style="fill:#d3d7cf;fill-opacity:1" />
  <path
     id="path2363"
     style="fill:#2e3436;fill-opacity:1;stroke-width:0.757112"
     d="m 37.374023,19.373657 c -0.183105,0 -0.323486,0.04452 -0.421142,0.134033 -0.09359,0.08952 -0.158571,0.199382 -0.195191,0.32959 -0.03662,0.130209 -0.07539,0.301107 -0.116088,0.512696 l -0.292969,1.397827 h -1.33667 l 0.225952,-1.135254 c 0.06917,-0.370276 0.103638,-0.57564 0.103638,-0.616333 0,-0.179037 -0.05709,-0.325521 -0.171021,-0.439453 -0.113932,-0.113933 -0.278727,-0.171021 -0.494385,-0.171021 -0.154622,0 -0.28064,0.03447 -0.378295,0.103638 -0.09359,0.06917 -0.168986,0.171143 -0.225953,0.30542 -0.0529,0.134277 -0.101724,0.319173 -0.146484,0.555176 l -0.286743,1.397827 H 32.72937 c -0.272624,0 -0.480143,0.06319 -0.622558,0.189331 -0.138346,0.12207 -0.207642,0.284709 -0.207642,0.488159 0,0.191243 0.07109,0.353882 0.213501,0.488159 0.146484,0.130209 0.352214,0.195557 0.616699,0.195557 h 0.634644 l -0.347901,1.776123 H 32.72937 c -0.272624,0 -0.480143,0.06498 -0.622558,0.19519 -0.138346,0.126139 -0.207642,0.290935 -0.207642,0.494385 0,0.435384 0.280762,0.659058 0.842285,0.671265 l -0.225952,1.141479 c -0.01627,0.08952 -0.03638,0.193279 -0.06079,0.311279 -0.02035,0.113933 -0.03076,0.217693 -0.03076,0.31128 0,0.183105 0.05925,0.331747 0.177246,0.445678 0.118002,0.113933 0.28064,0.170655 0.488159,0.170655 0.260417,0 0.429159,-0.07503 0.50647,-0.225586 0.08138,-0.154623 0.158936,-0.404867 0.232178,-0.750733 l 0.286743,-1.404052 h 1.348755 l -0.225586,1.141479 c -0.05697,0.24821 -0.08569,0.45573 -0.08569,0.622559 0,0.183105 0.05924,0.331747 0.177246,0.445678 0.118001,0.113933 0.278484,0.170655 0.481933,0.170655 0.183106,0 0.323487,-0.04667 0.421143,-0.140259 0.09766,-0.08952 0.163003,-0.195434 0.195557,-0.317505 0.03662,-0.12207 0.07719,-0.294759 0.121948,-0.518555 l 0.286743,-1.404052 h 0.940063 c 0.276694,0 0.482056,-0.06103 0.616333,-0.183106 0.138346,-0.126139 0.207642,-0.288778 0.207642,-0.488159 0,-0.199381 -0.0693,-0.364176 -0.207642,-0.494385 -0.138346,-0.130208 -0.343709,-0.19519 -0.616333,-0.19519 h -0.67749 l 0.366211,-1.776123 h 0.311279 c 0.272624,0 0.477987,-0.06104 0.616333,-0.183106 0.138346,-0.12207 0.207642,-0.285075 0.207642,-0.488525 0,-0.439453 -0.290813,-0.665284 -0.872681,-0.67749 l 0.225586,-1.147339 c 0.0041,-0.02035 0.01449,-0.06702 0.03076,-0.140259 0.01627,-0.07731 0.02848,-0.156657 0.03662,-0.238037 0.01221,-0.08138 0.01831,-0.165039 0.01831,-0.250488 0,-0.187175 -0.05924,-0.33545 -0.177246,-0.445313 -0.113933,-0.109863 -0.276571,-0.164795 -0.48816,-0.164795 z m -2.636718,3.735352 h 1.348755 l -0.347901,1.776123 h -1.36084 z"
     sodipodi:nodetypes="scsccccsssccccscscsccscscccssscccccsssccccscsssccsssccccscsccccc" />
  <g
     aria-label="#"
     id="text8521"
     style="font-size:12.5px;line-height:1.25;font-family:'Arial Rounded MT Bold';-inkscape-font-specification:'Arial Rounded MT Bold, Normal';word-spacing:0px;fill:#204a87;stroke-width:0.1875" />
  <path
     id="path2363-7"
     style="fill:#2e3436;fill-opacity:1;stroke-width:0.757112"
     d="m 24.024186,13.466365 c -5.86318,0 -10.62341,4.738946 -10.62341,10.576172 0,5.837228 4.76023,10.576172 10.62341,10.576172 3.647407,0 6.867395,-1.834043 8.780513,-4.625429 0.201693,-0.311219 0.190103,-0.856314 -0.215461,-1.089734 l -3.311162,-1.813832 c -0.471233,-0.15511 -0.800185,-0.10319 -1.068917,0.206921 -0.972504,1.237647 -2.486022,2.033988 -4.184973,2.033988 -2.93122,0 -5.31152,-2.369847 -5.31152,-5.288086 0,-2.918995 2.37954,-5.288086 5.31152,-5.288086 1.522996,0 2.89726,0.639563 3.866205,1.663512 0.33544,0.36717 1.170318,0.55168 1.587469,0.346243 l 2.998338,-1.705582 c 0.385349,-0.22793 0.352557,-0.947499 0.152358,-1.21524 -1.93101,-2.651058 -5.066524,-4.377019 -8.60437,-4.377019 z"
     sodipodi:nodetypes="sssccccsssccccs" />
</svg>
