<?xml version="1.0" encoding="UTF-8" standalone="no"?>
<svg
   fill="none"
   viewBox="0 0 48 48"
   height="256"
   width="256"
   version="1.1"
   id="svg6"
   sodipodi:docname="d.svg"
   inkscape:version="1.2.1 (9c6d41e410, 2022-07-14)"
   xml:space="preserve"
   xmlns:inkscape="http://www.inkscape.org/namespaces/inkscape"
   xmlns:sodipodi="http://sodipodi.sourceforge.net/DTD/sodipodi-0.dtd"
   xmlns="http://www.w3.org/2000/svg"
   xmlns:svg="http://www.w3.org/2000/svg"><defs
     id="defs10" /><sodipodi:namedview
     id="namedview8"
     pagecolor="#ffffff"
     bordercolor="#666666"
     borderopacity="1.0"
     inkscape:showpageshadow="2"
     inkscape:pageopacity="0.0"
     inkscape:pagecheckerboard="true"
     inkscape:deskcolor="#d1d1d1"
     showgrid="true"
     inkscape:zoom="1.6191406"
     inkscape:cx="185.90109"
     inkscape:cy="118.89023"
     inkscape:current-layer="svg6"
     showguides="false"
     inkscape:window-width="1920"
     inkscape:window-height="730"
     inkscape:window-x="-6"
     inkscape:window-y="-6"
     inkscape:window-maximized="1"><inkscape:grid
       type="xygrid"
       id="grid239"
       units="px"
       spacingx="1.5"
       spacingy="1.5" /></sodipodi:namedview><path
     fill="#d3d7cf"
     d="m 23.999962,46.000062 c 4.083201,0 6.815001,-0.3009 8.0707,-0.4782 0.525301,-0.0743 1.0169,-0.2779 1.440801,-0.5969 1.013299,-0.7624 3.157699,-2.4813 6.044999,-5.3686 2.8872,-2.8872 4.6061,-5.0316 5.3685,-6.0449 0.3191,-0.424 0.5227,-0.9155 0.5969,-1.4409 0.1773,-1.2555 0.4782,-3.9873 0.4782,-8.0705 0,-4.0832 -0.3009,-6.815 -0.4782,-8.0706 -0.0742,-0.5253 -0.2778,-1.0169 -0.5969,-1.4409 -0.7624,-1.0132 -2.4813,-3.1576 -5.3685,-6.0448595 -2.8873,-2.8872 -5.0317,-4.60613 -6.0449,-5.36857 -0.424,-0.31903 -0.915599,-0.52263 -1.440999,-0.59684 -1.2556,-0.17735 -3.9874,-0.47823 -8.070501,-0.47823 -4.0831,0 -6.8149,0.30088 -8.070499,0.47823 -0.525401,0.07421 -1.017001,0.2778 -1.440901,0.59684 -1.013299,0.76242 -3.157699,2.48134 -6.0449395,5.36857 -2.88725,2.8872605 -4.60617,5.0316595 -5.36859,6.0449595 -0.31902,0.4239 -0.52261,0.9154 -0.59683,1.4408 -0.17735,1.2556 -0.47824,3.9874 -0.47824,8.0706 0,4.0832 0.30089,6.815 0.47824,8.0706 0.07422,0.5253 0.27781,1.0168 0.59683,1.4408 0.76242,1.0133 2.48133,3.1577 5.36855,6.0449 2.8871795,2.8872 5.0316795,4.6062 6.0449795,5.3686 0.4239,0.319 0.9155,0.5226 1.4409,0.5969 1.2555,0.1773 3.9873,0.4782 8.0704,0.4782 z"
     id="path3678"
     style="fill:#d3d7cf;fill-opacity:1" /><path
     style="fill:#a40000;stroke-width:0.999999;fill-opacity:1"
     d="m 21.942961,34.878345 c 2.212286,-0.213069 5.017678,-1.19241 6.800202,-2.373898 2.462779,-1.63237 4.17895,-3.883352 4.743185,-6.221299 0.110913,-0.459572 0.22112,-0.867071 0.244904,-0.905556 0.0238,-0.03848 0.269384,-0.06997 0.545777,-0.06997 1.261772,0 2.570366,-0.460349 3.651025,-1.284392 0.882284,-0.672772 1.488589,-1.524007 1.862508,-2.614906 0.203736,-0.59439 0.221564,-0.715984 0.224926,-1.53403 0.0029,-0.746309 -0.02191,-0.970484 -0.156109,-1.401046 -0.567632,-1.821226 -1.896253,-3.155368 -3.781337,-3.797059 -0.720085,-0.24512 -1.390448,-0.325976 -2.361323,-0.28481 -1.29256,0.0548 -2.276051,0.381215 -3.324363,1.103322 l -0.469465,0.323383 -0.248146,-0.182772 c -2.253906,-1.660121 -4.435861,-2.45877 -7.868471,-2.880054 -0.765071,-0.0939 -1.838874,-0.118123 -6.287625,-0.141851 -2.95074,-0.01574 -5.5297642,-0.0082 -5.7311652,0.01684 -0.2829,0.03512 -0.422791,0.09733 -0.6150941,0.273535 l -0.248913,0.228075 -0.051345,5.079812 c -0.028251,2.793897 -0.058995,5.66415 -0.068346,6.378342 -0.00933,0.714192 0.00995,3.189944 0.04284,5.501672 0.045081,3.166526 0.081288,4.245319 0.1467765,4.374161 0.1262889,0.248435 0.3385916,0.419861 0.5815086,0.469543 0.372819,0.07625 11.5177782,0.02485 12.3680482,-0.05705 z M 14.356753,28.84441 c -2.8e-5,-0.986714 -0.02048,-4.080218 -0.04546,-6.874451 l -0.0454,-5.080428 3.513911,0.02944 c 3.888967,0.03257 4.064762,0.04867 5.451313,0.499302 2.173076,0.706246 3.820295,2.003698 4.58643,3.612558 0.360221,0.756451 0.483549,1.292697 0.527785,2.294827 0.08546,1.93624 -0.507862,3.484504 -1.849512,4.826259 -1.454075,1.454184 -3.327142,2.198275 -6.083414,2.416686 -0.48472,0.03841 -2.045519,0.06984 -3.468447,0.06984 H 14.356805 Z M 41.731079,15.372791 c 0.409961,-0.1909 0.864598,-0.682309 0.976354,-1.055313 0.194467,-0.649079 0.05271,-1.206475 -0.430471,-1.69266 -0.781167,-0.786023 -2.024396,-0.786023 -2.805564,0 -0.489253,0.492292 -0.655035,1.202062 -0.414968,1.776622 0.147973,0.354149 0.585846,0.796006 0.963454,0.972222 0.480064,0.224029 1.229049,0.223647 1.711196,-8.91e-4 z"
     id="path252"
     sodipodi:nodetypes="ssscsssccssscsssssccccssssscssscssscscssssscc" /></svg>
