<?xml version="1.0" encoding="UTF-8" standalone="no"?>
<svg
   fill="none"
   viewBox="0 0 48 48"
   height="256"
   width="256"
   version="1.1"
   id="svg6"
   sodipodi:docname="fortran.svg"
   inkscape:version="1.2.1 (9c6d41e410, 2022-07-14)"
   xmlns:inkscape="http://www.inkscape.org/namespaces/inkscape"
   xmlns:sodipodi="http://sodipodi.sourceforge.net/DTD/sodipodi-0.dtd"
   xmlns="http://www.w3.org/2000/svg"
   xmlns:svg="http://www.w3.org/2000/svg">
  <defs
     id="defs10" />
  <sodipodi:namedview
     id="namedview8"
     pagecolor="#ffffff"
     bordercolor="#666666"
     borderopacity="1.0"
     inkscape:showpageshadow="2"
     inkscape:pageopacity="0.0"
     inkscape:pagecheckerboard="true"
     inkscape:deskcolor="#d1d1d1"
     showgrid="true"
     inkscape:zoom="0.8095703"
     inkscape:cx="184.04825"
     inkscape:cy="-27.792522"
     inkscape:current-layer="svg6"
     showguides="false"
     inkscape:window-width="1920"
     inkscape:window-height="730"
     inkscape:window-x="-6"
     inkscape:window-y="-6"
     inkscape:window-maximized="1">
    <inkscape:grid
       type="xygrid"
       id="grid239"
       units="px"
       spacingx="1.5"
       spacingy="1.5" />
  </sodipodi:namedview>
  <path
     fill="#d3d7cf"
     d="m 23.999962,46.000062 c 4.083201,0 6.815001,-0.3009 8.0707,-0.4782 0.525301,-0.0743 1.0169,-0.2779 1.440801,-0.5969 1.013299,-0.7624 3.157699,-2.4813 6.044999,-5.3686 2.8872,-2.8872 4.6061,-5.0316 5.3685,-6.0449 0.3191,-0.424 0.5227,-0.9155 0.5969,-1.4409 0.1773,-1.2555 0.4782,-3.9873 0.4782,-8.0705 0,-4.0832 -0.3009,-6.815 -0.4782,-8.0706 -0.0742,-0.5253 -0.2778,-1.0169 -0.5969,-1.4409 -0.7624,-1.0132 -2.4813,-3.1576 -5.3685,-6.0448595 -2.8873,-2.8872 -5.0317,-4.60613 -6.0449,-5.36857 -0.424,-0.31903 -0.915599,-0.52263 -1.440999,-0.59684 -1.2556,-0.17735 -3.9874,-0.47823 -8.070501,-0.47823 -4.0831,0 -6.8149,0.30088 -8.070499,0.47823 -0.525401,0.07421 -1.017001,0.2778 -1.440901,0.59684 -1.013299,0.76242 -3.157699,2.48134 -6.0449395,5.36857 -2.88725,2.8872605 -4.60617,5.0316595 -5.36859,6.0449595 -0.31902,0.4239 -0.52261,0.9154 -0.59683,1.4408 -0.17735,1.2556 -0.47824,3.9874 -0.47824,8.0706 0,4.0832 0.30089,6.815 0.47824,8.0706 0.07422,0.5253 0.27781,1.0168 0.59683,1.4408 0.76242,1.0133 2.48133,3.1577 5.36855,6.0449 2.8871795,2.8872 5.0316795,4.6062 6.0449795,5.3686 0.4239,0.319 0.9155,0.5226 1.4409,0.5969 1.2555,0.1773 3.9873,0.4782 8.0704,0.4782 z"
     id="path3678"
     style="fill:#d3d7cf;fill-opacity:1" />
  <g
     aria-label="Ftn"
     transform="scale(0.92897684,1.0764531)"
     id="text13720"
     style="font-size:27.8693px;line-height:1.25;font-family:'Arial Rounded MT Bold';-inkscape-font-specification:'Arial Rounded MT Bold, Normal';word-spacing:0px;fill:#2e3436;stroke-width:0.1875">
    <path
       d="m 19.295995,13.488243 h -7.960713 v 5.103021 h 6.65434 q 0.925348,0 1.374414,0.42185 0.462673,0.408242 0.462673,1.102252 0,0.694011 -0.462673,1.102253 -0.462674,0.408242 -1.374414,0.408242 h -6.65434 v 6.572691 q 0,1.251942 -0.571539,1.864304 -0.55793,0.598755 -1.4424536,0.598755 -0.8981318,0 -1.4696702,-0.612363 Q 7.2936889,29.436886 7.2936889,28.198552 V 12.848664 q 0,-0.870916 0.2585531,-1.415238 0.2585531,-0.55793 0.8028754,-0.802875 0.5579303,-0.258553 1.4152379,-0.258553 h 9.5256397 q 0.966172,0 1.428846,0.435457 0.476282,0.42185 0.476282,1.115861 0,0.707619 -0.476282,1.143077 -0.462674,0.42185 -1.428846,0.42185 z"
       id="path1679" />
    <path
       d="m 24.154071,15.883261 h 0.408242 v -2.231722 q 0,-0.898131 0.04082,-1.40163 0.05443,-0.517106 0.272161,-0.884523 0.217729,-0.381026 0.625971,-0.612363 0.408241,-0.244945 0.91174,-0.244945 0.707619,0 1.279157,0.530714 0.381026,0.35381 0.476282,0.870916 0.108864,0.503498 0.108864,1.442454 v 2.531099 h 1.360806 q 0.789267,0 1.197509,0.381025 0.42185,0.367418 0.42185,0.952564 0,0.748443 -0.598755,1.047821 -0.585146,0.299377 -1.687399,0.299377 h -0.694011 v 6.831245 q 0,0.870915 0.05443,1.347197 0.06804,0.462674 0.326593,0.762051 0.272161,0.28577 0.870916,0.28577 0.326593,0 0.884523,-0.108865 0.557931,-0.122472 0.870916,-0.122472 0.449066,0 0.802875,0.367417 0.367418,0.35381 0.367418,0.884524 0,0.898132 -0.97978,1.374414 -0.97978,0.476282 -2.816868,0.476282 -1.741831,0 -2.639963,-0.585147 -0.898132,-0.585146 -1.183901,-1.619359 -0.272161,-1.034212 -0.272161,-2.762435 v -7.130622 h -0.48989 q -0.802876,0 -1.224725,-0.381026 -0.42185,-0.381025 -0.42185,-0.966172 0,-0.585146 0.435458,-0.952564 0.449066,-0.381025 1.292765,-0.381025 z"
       id="path1681" />
    <path
       d="m 37.190589,17.611484 v 0.449066 q 0.97978,-1.292766 2.136465,-1.89152 1.170293,-0.612363 2.680788,-0.612363 1.46967,0 2.626355,0.639579 1.156684,0.639579 1.728223,1.809872 0.367417,0.680402 0.476282,1.46967 0.108864,0.789267 0.108864,2.013992 v 6.912893 q 0,1.115861 -0.517106,1.687399 -0.503498,0.571539 -1.319981,0.571539 -0.830092,0 -1.347198,-0.585147 -0.517106,-0.585146 -0.517106,-1.673791 v -6.191666 q 0,-1.837087 -0.517106,-2.80326 -0.503499,-0.97978 -2.027601,-0.97978 -0.993388,0 -1.809872,0.598755 -0.816483,0.585146 -1.197509,1.619359 -0.272161,0.830091 -0.272161,3.102637 v 4.653955 q 0,1.129469 -0.530714,1.701007 -0.517106,0.557931 -1.347198,0.557931 -0.802875,0 -1.319981,-0.585147 -0.517106,-0.585146 -0.517106,-1.673791 V 17.665916 q 0,-1.061428 0.462674,-1.578534 0.462674,-0.530715 1.265549,-0.530715 0.48989,0 0.884524,0.231337 0.394633,0.231337 0.62597,0.694011 0.244945,0.462674 0.244945,1.129469 z"
       id="path1683" />
  </g>
</svg>
