<?xml version="1.0" encoding="UTF-8" standalone="no"?>
<svg
   fill="none"
   viewBox="0 0 48 48"
   height="256"
   width="256"
   version="1.1"
   id="svg6"
   sodipodi:docname="idl.svg"
   inkscape:version="1.2.1 (9c6d41e410, 2022-07-14)"
   xml:space="preserve"
   xmlns:inkscape="http://www.inkscape.org/namespaces/inkscape"
   xmlns:sodipodi="http://sodipodi.sourceforge.net/DTD/sodipodi-0.dtd"
   xmlns="http://www.w3.org/2000/svg"
   xmlns:svg="http://www.w3.org/2000/svg"><defs
     id="defs10" /><sodipodi:namedview
     id="namedview8"
     pagecolor="#ffffff"
     bordercolor="#666666"
     borderopacity="1.0"
     inkscape:showpageshadow="2"
     inkscape:pageopacity="0.0"
     inkscape:pagecheckerboard="true"
     inkscape:deskcolor="#d1d1d1"
     showgrid="true"
     inkscape:zoom="1.1449053"
     inkscape:cx="167.69946"
     inkscape:cy="61.577145"
     inkscape:current-layer="svg6"
     showguides="false"
     inkscape:window-width="1920"
     inkscape:window-height="730"
     inkscape:window-x="-6"
     inkscape:window-y="-6"
     inkscape:window-maximized="1"><inkscape:grid
       type="xygrid"
       id="grid239"
       units="px"
       spacingx="1.5"
       spacingy="1.5" /></sodipodi:namedview><path
     fill="#d3d7cf"
     d="m 23.999962,46.000062 c 4.083201,0 6.815001,-0.3009 8.0707,-0.4782 0.525301,-0.0743 1.0169,-0.2779 1.440801,-0.5969 1.013299,-0.7624 3.157699,-2.4813 6.044999,-5.3686 2.8872,-2.8872 4.6061,-5.0316 5.3685,-6.0449 0.3191,-0.424 0.5227,-0.9155 0.5969,-1.4409 0.1773,-1.2555 0.4782,-3.9873 0.4782,-8.0705 0,-4.0832 -0.3009,-6.815 -0.4782,-8.0706 -0.0742,-0.5253 -0.2778,-1.0169 -0.5969,-1.4409 -0.7624,-1.0132 -2.4813,-3.1576 -5.3685,-6.0448595 -2.8873,-2.8872 -5.0317,-4.60613 -6.0449,-5.36857 -0.424,-0.31903 -0.915599,-0.52263 -1.440999,-0.59684 -1.2556,-0.17735 -3.9874,-0.47823 -8.070501,-0.47823 -4.0831,0 -6.8149,0.30088 -8.070499,0.47823 -0.525401,0.07421 -1.017001,0.2778 -1.440901,0.59684 -1.013299,0.76242 -3.157699,2.48134 -6.0449395,5.36857 -2.88725,2.8872605 -4.60617,5.0316595 -5.36859,6.0449595 -0.31902,0.4239 -0.52261,0.9154 -0.59683,1.4408 -0.17735,1.2556 -0.47824,3.9874 -0.47824,8.0706 0,4.0832 0.30089,6.815 0.47824,8.0706 0.07422,0.5253 0.27781,1.0168 0.59683,1.4408 0.76242,1.0133 2.48133,3.1577 5.36855,6.0449 2.8871795,2.8872 5.0316795,4.6062 6.0449795,5.3686 0.4239,0.319 0.9155,0.5226 1.4409,0.5969 1.2555,0.1773 3.9873,0.4782 8.0704,0.4782 z"
     id="path3678"
     style="fill:#d3d7cf;fill-opacity:1" /><path
     id="path3678-9"
     d="m 13.983008,3.5162088 c -1.14179,0.895336 -3.05311,2.499039 -5.51038,4.956298 -0.5696,0.569603 -1.09186,1.109123 -1.57214,1.6179202 0.44055,0.74462 1.92888,2.538588 3.0604299,3.644532 2.5385401,2.481108 7.4891901,5.715396 7.9822901,5.214843 0.41205,-0.418262 5.70051,-7.169647 5.69751,-7.273315 -0.002,-0.05376 -0.65555,-0.459855 -1.45312,-0.902344 -2.24464,-1.2453322 -4.6651,-3.0592402 -6.46545,-4.8457032 -0.90247,-0.895507 -1.641,-1.701255 -1.641,-1.790405 z m 21.99207,1.576538 c -3.26234,0.621053 -6.4165,2.157179 -8.42432,4.265258 -0.81357,0.8541852 -3.18134,3.8528632 -3.10364,3.9305422 0.0297,0.02973 0.61304,-0.148927 1.29639,-0.396972 2.27352,-0.825242 4.0899,-1.087814 6.79101,-0.982178 1.87239,0.07323 2.82985,0.208281 4.04554,0.570923 0.89775,0.267796 1.67533,0.406315 1.78234,0.317505 0.1044,-0.08665 1.2017,-1.468022 2.4386,-3.0695802 0.002,-0.0025 0.004,-0.0045 0.006,-0.007 -0.3821,-0.399306 -0.78709,-0.814547 -1.22132,-1.24878 -1.39252,-1.39247 -2.60675,-2.507022 -3.6101,-3.37976 z m 5.84802,5.7154542 c -0.25598,0.328212 -0.54319,0.693924 -0.89429,1.140014 l -1.32349,1.681641 1.07007,0.572022 c 1.18735,0.634392 2.30127,1.379582 2.51221,1.680542 0.1482,0.211495 0.19908,1.602539 0.0586,1.602539 -0.0466,0 -0.61615,-0.369154 -1.26562,-0.820313 -0.64947,-0.451158 -1.64473,-1.07874 -2.21192,-1.394897 l -1.03125,-0.574952 -3.20874,4.064576 -3.20874,4.064941 1.35169,0.770142 c 2.81483,1.604315 6.04605,4.343687 8.57153,7.266357 l 1.10816,1.282105 c 0.20096,0.196734 0.48445,0.227812 0.54235,-0.05124 V 22.641209 13.17905 c -0.53645,-0.651461 -1.22301,-1.447503 -2.07055,-2.370849 z m -35.73963,0.165527 c -0.21991,0.241185 -0.42985,0.473955 -0.62732,0.6969 V 22.61887 36.387302 c 0.75625,0.853836 1.66754,1.836873 2.76233,2.941407 h 0.92652 c 2.78508,0 3.31875,-0.05147 4.5531,-0.439087 1.77695,-0.557999 3.54051,-1.44665 4.98962,-2.514771 1.24933,-0.920869 3.64343,-3.102266 3.64343,-3.319702 0,-0.224357 -2.78582,-0.773903 -4.5,-0.887695 -4.03958,-0.268159 -9.12739,1.254803 -11.01013,3.295898 l -0.79834,0.865357 -0.002,-0.99646 c -0.002,-1.216019 0.0462,-1.308991 1.90759,-3.663575 1.66683,-2.108455 1.6636,-1.96555 0.0593,-2.782104 -1.53906,-0.783362 -1.96875,-1.227894 -1.96875,-2.036133 0,-0.407251 0.0801,-0.740478 0.17798,-0.740478 0.098,0 0.54092,0.241047 0.98438,0.5354 0.44345,0.294354 1.35623,0.838692 2.02807,1.209961 l 1.22132,0.675293 3.09118,-3.929443 c 1.70004,-2.161228 3.11755,-4.009436 3.15015,-4.107056 0.0326,-0.09762 -0.3582,-0.389166 -0.86865,-0.647827 -3.2534,-1.648623 -8.04479,-5.687853 -9.29627,-7.836914 -0.23271,-0.399638 -0.35937,-0.622964 -0.42334,-1.035645 z m 25.64502,2.205322 c -2.50365,0.0132 -5.26755,0.727969 -8.00464,2.070191 -1.37486,0.674211 -1.63155,0.892334 -2.80004,2.379639 -0.70752,0.900549 -1.90249,2.411684 -2.6554,3.357788 l -1.3689,1.720092 1.50733,-0.550048 c 3.88472,-1.417754 7.42202,-1.437532 12.11352,-0.06702 0.35444,0.103539 0.82824,-0.406599 3.60608,-3.883301 l 3.19812,-4.002685 -0.55298,-0.232178 c -0.85235,-0.358159 -3.66224,-0.799781 -5.04309,-0.792481 z m -7.3872,9.253785 c -0.32185,-0.0035 -0.62137,0.0062 -0.88514,0.03113 -1.73677,0.164041 -4.00607,0.721068 -5.53125,1.35791 -2.57754,1.076258 -3.01936,1.443449 -5.58764,4.642456 -1.32007,1.64425 -2.4902,3.149962 -2.6001,3.346069 -0.17264,0.30807 -0.1522,0.335798 0.15015,0.203613 1.39869,-0.611495 3.90474,-1.076685 6.25634,-1.161255 2.52487,-0.0908 2.85995,-0.05038 6.84925,0.826539 0.30848,0.06781 0.97617,-0.66711 3.52771,-3.883667 1.73093,-2.182066 3.1882,-4.074348 3.2384,-4.205201 0.18112,-0.471975 -3.16482,-1.133242 -5.41772,-1.157592 z m 7.12646,1.708374 c -0.096,0.0055 -0.16461,0.04642 -0.23181,0.115356 -0.13924,0.142853 -1.64482,2.023774 -3.34534,4.179932 l -3.09155,3.920288 1.13123,0.535034 c 1.52791,0.722594 3.9312,2.323937 5.33496,3.55481 1.5548,1.363314 4.19091,4.337435 4.19091,4.728149 0.33281,0.729353 0.71741,0.578301 1.1272,-0.0011 10e-4,-0.0866 1.35816,-1.867768 3.01575,-3.958374 l 3.01391,-3.801269 -1.65454,-1.899536 c -2.50338,-2.874486 -5.41029,-5.294058 -8.18921,-6.816285 -0.74766,-0.409559 -1.09036,-0.569035 -1.30151,-0.557005 z"
     style="fill:#204a87;fill-opacity:1"
     sodipodi:nodetypes="cscsscsscccssssssscccccccssscccccccccccccsccssssscccsssssccccssccsssccsscccsssscsssscsssccccsccccccccccsc" /></svg>
