<?xml version="1.0" encoding="UTF-8" standalone="no"?>
<svg
   fill="none"
   viewBox="0 0 48 48"
   height="256"
   width="256"
   version="1.1"
   id="svg6"
   sodipodi:docname="javascript.svg"
   inkscape:version="1.2.1 (9c6d41e410, 2022-07-14)"
   xmlns:inkscape="http://www.inkscape.org/namespaces/inkscape"
   xmlns:sodipodi="http://sodipodi.sourceforge.net/DTD/sodipodi-0.dtd"
   xmlns="http://www.w3.org/2000/svg"
   xmlns:svg="http://www.w3.org/2000/svg">
  <defs
     id="defs10" />
  <sodipodi:namedview
     id="namedview8"
     pagecolor="#ffffff"
     bordercolor="#666666"
     borderopacity="1.0"
     inkscape:showpageshadow="2"
     inkscape:pageopacity="0.0"
     inkscape:pagecheckerboard="true"
     inkscape:deskcolor="#d1d1d1"
     showgrid="true"
     inkscape:zoom="1.1449053"
     inkscape:cx="-15.285107"
     inkscape:cy="21.39915"
     inkscape:current-layer="svg6"
     showguides="false"
     inkscape:window-width="1920"
     inkscape:window-height="730"
     inkscape:window-x="-6"
     inkscape:window-y="-6"
     inkscape:window-maximized="1">
    <inkscape:grid
       type="xygrid"
       id="grid239"
       units="px"
       spacingx="1.5"
       spacingy="1.5" />
  </sodipodi:namedview>
  <path
     fill="#d3d7cf"
     d="m 23.999962,46.000062 c 4.083201,0 6.815001,-0.3009 8.0707,-0.4782 0.525301,-0.0743 1.0169,-0.2779 1.440801,-0.5969 1.013299,-0.7624 3.157699,-2.4813 6.044999,-5.3686 2.8872,-2.8872 4.6061,-5.0316 5.3685,-6.0449 0.3191,-0.424 0.5227,-0.9155 0.5969,-1.4409 0.1773,-1.2555 0.4782,-3.9873 0.4782,-8.0705 0,-4.0832 -0.3009,-6.815 -0.4782,-8.0706 -0.0742,-0.5253 -0.2778,-1.0169 -0.5969,-1.4409 -0.7624,-1.0132 -2.4813,-3.1576 -5.3685,-6.0448595 -2.8873,-2.8872 -5.0317,-4.60613 -6.0449,-5.36857 -0.424,-0.31903 -0.915599,-0.52263 -1.440999,-0.59684 -1.2556,-0.17735 -3.9874,-0.47823 -8.070501,-0.47823 -4.0831,0 -6.8149,0.30088 -8.070499,0.47823 -0.525401,0.07421 -1.017001,0.2778 -1.440901,0.59684 -1.013299,0.76242 -3.157699,2.48134 -6.0449395,5.36857 -2.88725,2.8872605 -4.60617,5.0316595 -5.36859,6.0449595 -0.31902,0.4239 -0.52261,0.9154 -0.59683,1.4408 -0.17735,1.2556 -0.47824,3.9874 -0.47824,8.0706 0,4.0832 0.30089,6.815 0.47824,8.0706 0.07422,0.5253 0.27781,1.0168 0.59683,1.4408 0.76242,1.0133 2.48133,3.1577 5.36855,6.0449 2.8871795,2.8872 5.0316795,4.6062 6.0449795,5.3686 0.4239,0.319 0.9155,0.5226 1.4409,0.5969 1.2555,0.1773 3.9873,0.4782 8.0704,0.4782 z"
     id="path3678"
     style="fill:#d3d7cf;fill-opacity:1" />
  <g
     aria-label="JS"
     id="text13720"
     style="font-size:30px;line-height:1.25;font-family:'Arial Rounded MT Bold';-inkscape-font-specification:'Arial Rounded MT Bold, Normal';word-spacing:0px;fill:#2e3436;stroke-width:0.1875">
    <path
       d="m 20.270445,14.419792 v 11.25 q 0,1.464844 -0.131836,2.490235 -0.117188,1.02539 -0.556641,2.080078 -0.732422,1.772461 -2.416992,2.768554 -1.68457,0.981446 -4.101562,0.981446 -2.182618,0 -3.6474613,-0.688477 -1.4501953,-0.688476 -2.34375,-2.226562 -0.46875,-0.820313 -0.7617188,-1.889649 -0.2929687,-1.069336 -0.2929687,-2.036133 0,-1.02539 0.571289,-1.567382 0.5712891,-0.541993 1.4648438,-0.541993 0.8642578,0 1.3037109,0.498047 0.4394532,0.498047 0.6738281,1.552735 0.249023,1.127929 0.498047,1.801757 0.249023,0.673829 0.834961,1.157227 0.585937,0.483398 1.669922,0.483398 2.885742,0 2.885742,-4.233398 V 14.419792 q 0,-1.318359 0.571289,-1.977539 0.585937,-0.65918 1.582031,-0.65918 1.010742,0 1.59668,0.65918 0.600586,0.65918 0.600586,1.977539 z"
       id="path290" />
    <path
       d="m 41.305601,27.178581 q 0,1.948242 -1.010742,3.500977 -0.996094,1.552734 -2.929688,2.43164 -1.933593,0.878907 -4.584961,0.878907 -3.17871,0 -5.24414,-1.201172 -1.464844,-0.864258 -2.387695,-2.299805 -0.908204,-1.450195 -0.908204,-2.8125 0,-0.791016 0.541993,-1.347656 0.55664,-0.571289 1.40625,-0.571289 0.688476,0 1.157226,0.439453 0.483399,0.439453 0.820313,1.303711 0.410156,1.02539 0.878906,1.713867 0.483398,0.688477 1.347656,1.142578 0.864258,0.439453 2.270508,0.439453 1.933594,0 3.134766,-0.893554 1.21582,-0.908204 1.21582,-2.25586 0,-1.069336 -0.65918,-1.728515 -0.644531,-0.673829 -1.68457,-1.025391 -1.025391,-0.351563 -2.753906,-0.74707 -2.314453,-0.541993 -3.881836,-1.259766 -1.552735,-0.732422 -2.475586,-1.977539 -0.908203,-1.259766 -0.908203,-3.120117 0,-1.772461 0.966797,-3.149414 0.966796,-1.376953 2.797851,-2.109375 1.831055,-0.747071 4.306641,-0.747071 1.977539,0 3.413086,0.498047 1.450195,0.483399 2.402343,1.303711 0.952149,0.805664 1.391602,1.699219 0.439453,0.893555 0.439453,1.743164 0,0.776367 -0.556641,1.40625 -0.541992,0.615234 -1.362304,0.615234 -0.747071,0 -1.142578,-0.366211 -0.38086,-0.380859 -0.834961,-1.230468 -0.585938,-1.215821 -1.40625,-1.889649 -0.820313,-0.688476 -2.636719,-0.688476 -1.68457,0 -2.724609,0.74707 -1.025391,0.732422 -1.025391,1.772461 0,0.644531 0.351562,1.113281 0.351563,0.46875 0.966797,0.805664 0.615235,0.336914 1.245118,0.527344 0.629882,0.19043 2.080078,0.556641 1.816406,0.424804 3.28125,0.9375 1.479492,0.512695 2.504882,1.245117 1.04004,0.732422 1.611329,1.860351 0.585937,1.113282 0.585937,2.739258 z"
       id="path292" />
  </g>
</svg>
