<?xml version="1.0" encoding="UTF-8" standalone="no"?>
<svg
   fill="none"
   viewBox="0 0 48 48"
   height="256"
   width="256"
   version="1.1"
   id="svg6"
   sodipodi:docname="octave.svg"
   inkscape:version="1.2.1 (9c6d41e410, 2022-07-14)"
   xml:space="preserve"
   xmlns:inkscape="http://www.inkscape.org/namespaces/inkscape"
   xmlns:sodipodi="http://sodipodi.sourceforge.net/DTD/sodipodi-0.dtd"
   xmlns="http://www.w3.org/2000/svg"
   xmlns:svg="http://www.w3.org/2000/svg"><defs
     id="defs10" /><sodipodi:namedview
     id="namedview8"
     pagecolor="#ffffff"
     bordercolor="#666666"
     borderopacity="1.0"
     inkscape:showpageshadow="2"
     inkscape:pageopacity="0.0"
     inkscape:pagecheckerboard="true"
     inkscape:deskcolor="#d1d1d1"
     showgrid="true"
     inkscape:zoom="1.6191406"
     inkscape:cx="145.75633"
     inkscape:cy="97.273825"
     inkscape:current-layer="svg6"
     showguides="false"
     inkscape:window-width="1920"
     inkscape:window-height="730"
     inkscape:window-x="-6"
     inkscape:window-y="-6"
     inkscape:window-maximized="1"><inkscape:grid
       type="xygrid"
       id="grid239"
       units="px"
       spacingx="1.5"
       spacingy="1.5" /></sodipodi:namedview><path
     fill="#d3d7cf"
     d="m 23.999962,46.000062 c 4.083201,0 6.815001,-0.3009 8.0707,-0.4782 0.525301,-0.0743 1.0169,-0.2779 1.440801,-0.5969 1.013299,-0.7624 3.157699,-2.4813 6.044999,-5.3686 2.8872,-2.8872 4.6061,-5.0316 5.3685,-6.0449 0.3191,-0.424 0.5227,-0.9155 0.5969,-1.4409 0.1773,-1.2555 0.4782,-3.9873 0.4782,-8.0705 0,-4.0832 -0.3009,-6.815 -0.4782,-8.0706 -0.0742,-0.5253 -0.2778,-1.0169 -0.5969,-1.4409 -0.7624,-1.0132 -2.4813,-3.1576 -5.3685,-6.0448595 -2.8873,-2.8872 -5.0317,-4.60613 -6.0449,-5.36857 -0.424,-0.31903 -0.915599,-0.52263 -1.440999,-0.59684 -1.2556,-0.17735 -3.9874,-0.47823 -8.070501,-0.47823 -4.0831,0 -6.8149,0.30088 -8.070499,0.47823 -0.525401,0.07421 -1.017001,0.2778 -1.440901,0.59684 -1.013299,0.76242 -3.157699,2.48134 -6.0449395,5.36857 -2.88725,2.8872605 -4.60617,5.0316595 -5.36859,6.0449595 -0.31902,0.4239 -0.52261,0.9154 -0.59683,1.4408 -0.17735,1.2556 -0.47824,3.9874 -0.47824,8.0706 0,4.0832 0.30089,6.815 0.47824,8.0706 0.07422,0.5253 0.27781,1.0168 0.59683,1.4408 0.76242,1.0133 2.48133,3.1577 5.36855,6.0449 2.8871795,2.8872 5.0316795,4.6062 6.0449795,5.3686 0.4239,0.319 0.9155,0.5226 1.4409,0.5969 1.2555,0.1773 3.9873,0.4782 8.0704,0.4782 z"
     id="path3678"
     style="fill:#d3d7cf;fill-opacity:1" /><path
     style="fill:#729fcf;fill-opacity:1;stroke-width:1"
     d="M 25.526911,40.839969 C 23.016626,40.372244 20.131886,39.116578 17.838239,37.493252 16.448755,36.509847 13.62797,33.743164 12.60161,32.357062 12.200809,31.815779 11.556736,30.847006 11.170337,30.204233 l -0.702544,-1.168678 2.178242,-0.0711 c 2.220635,-0.07248 2.425066,-0.106737 2.996164,-0.50201 l 0.325847,-0.225526 0.833348,1.175638 c 3.82712,5.399071 10.249178,8.127205 15.156832,6.438726 0.37443,-0.128824 0.69979,-0.234224 0.723029,-0.234224 0.02323,0 0.04225,0.434681 0.04225,0.965959 0,0.802083 0.0477,1.03687 0.281053,1.383961 0.31754,0.47227 0.863218,0.706108 1.687247,0.72303 l 0.553584,0.01136 -0.369056,0.309388 c -0.569646,0.477541 -2.474783,1.361784 -3.567544,1.655818 -1.307653,0.351859 -4.336545,0.442689 -5.781881,0.173388 z M 39.122399,31.6654 c -0.289085,-0.155775 -0.679602,-0.230979 -1.19943,-0.230979 -0.423932,0 -0.770786,-0.02079 -0.770786,-0.0462 0,-0.02541 0.129284,-0.343722 0.287299,-0.707357 1.672649,-3.849191 1.018904,-8.845011 -1.769593,-13.522981 l -0.260452,-0.43693 0.275575,-0.467073 0.275582,-0.467072 0.418349,0.657965 c 1.602478,2.520326 2.741284,5.360884 3.296935,8.223619 0.385026,1.983674 0.364923,5.47007 -0.03989,6.923174 l -0.08492,0.304815 z M 8.0439317,17.197293 c 0.03726,-0.187327 0.1275229,-0.687476 0.2005783,-1.111442 0.270779,-1.571425 1.0983855,-3.613442 2.005986,-4.949524 0.557395,-0.820543 1.886735,-2.1675298 2.74775,-2.7842271 2.418365,-1.7321394 5.626362,-2.438889 8.899612,-1.9606623 3.220933,0.4705838 6.625534,2.0392441 9.408986,4.3351644 l 0.858487,0.708124 -0.394434,0.08067 c -0.21694,0.04436 -0.535247,0.172934 -0.707348,0.285701 -0.302148,0.197974 -0.33179,0.192047 -0.861237,-0.172222 -0.835996,-0.575181 -2.70281,-1.430953 -3.937289,-1.8049095 -1.015111,-0.307503 -1.281061,-0.3357428 -3.198487,-0.3396289 -1.981186,-0.004 -2.143151,0.013936 -3.075469,0.3408512 -2.481661,0.8701852 -4.218883,2.4291582 -5.367957,4.8171732 -0.260456,0.541282 -0.578373,1.399338 -0.706481,1.90679 l -0.232925,0.922641 -2.853762,0.03305 -2.8537612,0.03305 z"
     id="path331" /><path
     style="fill:#f57900;fill-opacity:1;stroke-width:1"
     d="m 33.711916,38.531811 c -0.243577,-0.0839 -0.546774,-0.325999 -0.707355,-0.564833 -0.270392,-0.402146 -0.281053,-0.51539 -0.281053,-2.985013 v -2.567007 l 0.420862,-0.459514 0.420862,-0.459514 2.52897,-0.03777 c 3.852337,-0.05753 3.764393,-0.142666 3.764393,3.644121 0,2.453061 -0.0124,2.588705 -0.266691,2.911956 -0.469066,0.596321 -0.871045,0.678946 -3.266151,0.671344 -1.356467,-0.0043 -2.349488,-0.06273 -2.613837,-0.153774 z M 7.1971152,28.913585 C 7.1294549,28.891015 6.9261276,28.840043 6.7452762,28.800314 6.2884482,28.69996 5.6940052,28.170983 5.4079489,27.610266 5.1838547,27.171006 5.1674915,26.869624 5.1700077,23.22782 c 0.00302,-4.414882 0.035095,-4.597253 0.9275299,-5.278233 l 0.4649374,-0.354775 4.157459,-0.0354 c 3.905021,-0.03325 4.185726,-0.02097 4.622976,0.202192 0.572782,0.292333 0.830841,0.569649 1.07592,1.156206 0.156815,0.375311 0.188757,1.111909 0.186518,4.301154 -0.0024,3.492411 -0.02397,3.895113 -0.232647,4.354644 -0.28431,0.626068 -0.88785,1.100483 -1.612399,1.267432 -0.49103,0.113142 -7.2472169,0.177943 -7.5631868,0.07254 z M 30.962752,16.450157 c -0.329224,-0.343637 -0.330563,-0.352632 -0.330563,-2.222425 0,-1.052375 0.05564,-1.981399 0.12666,-2.114069 0.264349,-0.493935 0.747777,-0.60828 2.571702,-0.60828 h 1.726429 l 0.40175,0.358658 0.401756,0.358656 0.04028,1.745697 c 0.0643,2.785665 0.02513,2.826796 -2.689538,2.826796 h -1.917912 z"
     id="path329" /></svg>
