<?xml version="1.0" encoding="UTF-8" standalone="no"?>
<svg
   fill="none"
   viewBox="0 0 48 48"
   height="256"
   width="256"
   version="1.1"
   id="svg6"
   sodipodi:docname="perl.svg"
   inkscape:version="1.2.1 (9c6d41e410, 2022-07-14)"
   xml:space="preserve"
   xmlns:inkscape="http://www.inkscape.org/namespaces/inkscape"
   xmlns:sodipodi="http://sodipodi.sourceforge.net/DTD/sodipodi-0.dtd"
   xmlns="http://www.w3.org/2000/svg"
   xmlns:svg="http://www.w3.org/2000/svg"><defs
     id="defs10" /><sodipodi:namedview
     id="namedview8"
     pagecolor="#ffffff"
     bordercolor="#666666"
     borderopacity="1.0"
     inkscape:showpageshadow="2"
     inkscape:pageopacity="0.0"
     inkscape:pagecheckerboard="true"
     inkscape:deskcolor="#d1d1d1"
     showgrid="true"
     inkscape:zoom="1.1449053"
     inkscape:cx="215.73837"
     inkscape:cy="38.867844"
     inkscape:current-layer="svg6"
     showguides="false"
     inkscape:window-width="1920"
     inkscape:window-height="730"
     inkscape:window-x="-6"
     inkscape:window-y="-6"
     inkscape:window-maximized="1"><inkscape:grid
       type="xygrid"
       id="grid239"
       units="px"
       spacingx="1.5"
       spacingy="1.5" /></sodipodi:namedview><path
     fill="#d3d7cf"
     d="m 23.999962,46.000062 c 4.083201,0 6.815001,-0.3009 8.0707,-0.4782 0.525301,-0.0743 1.0169,-0.2779 1.440801,-0.5969 1.013299,-0.7624 3.157699,-2.4813 6.044999,-5.3686 2.8872,-2.8872 4.6061,-5.0316 5.3685,-6.0449 0.3191,-0.424 0.5227,-0.9155 0.5969,-1.4409 0.1773,-1.2555 0.4782,-3.9873 0.4782,-8.0705 0,-4.0832 -0.3009,-6.815 -0.4782,-8.0706 -0.0742,-0.5253 -0.2778,-1.0169 -0.5969,-1.4409 -0.7624,-1.0132 -2.4813,-3.1576 -5.3685,-6.0448595 -2.8873,-2.8872 -5.0317,-4.60613 -6.0449,-5.36857 -0.424,-0.31903 -0.915599,-0.52263 -1.440999,-0.59684 -1.2556,-0.17735 -3.9874,-0.47823 -8.070501,-0.47823 -4.0831,0 -6.8149,0.30088 -8.070499,0.47823 -0.525401,0.07421 -1.017001,0.2778 -1.440901,0.59684 -1.013299,0.76242 -3.157699,2.48134 -6.0449395,5.36857 -2.88725,2.8872605 -4.60617,5.0316595 -5.36859,6.0449595 -0.31902,0.4239 -0.52261,0.9154 -0.59683,1.4408 -0.17735,1.2556 -0.47824,3.9874 -0.47824,8.0706 0,4.0832 0.30089,6.815 0.47824,8.0706 0.07422,0.5253 0.27781,1.0168 0.59683,1.4408 0.76242,1.0133 2.48133,3.1577 5.36855,6.0449 2.8871795,2.8872 5.0316795,4.6062 6.0449795,5.3686 0.4239,0.319 0.9155,0.5226 1.4409,0.5969 1.2555,0.1773 3.9873,0.4782 8.0704,0.4782 z"
     id="path3678"
     style="fill:#d3d7cf;fill-opacity:1" /><path
     style="fill:#2e3436;fill-opacity:1;stroke-width:0.999996"
     d="m 15.422155,41.54764 c -0.357046,-0.01822 -0.783188,-0.09097 -1.1061,-0.188848 -0.181633,-0.05505 -0.316913,-0.110424 -0.500132,-0.204707 -0.131001,-0.06741 -0.147143,-0.08031 -0.174008,-0.139072 -0.03832,-0.08384 -0.02796,-0.184836 0.02705,-0.264111 0.05152,-0.07418 0.23385,-0.202013 0.388345,-0.272239 0.166022,-0.07546 0.660271,-0.23917 0.791195,-0.262063 0.345131,-0.06035 0.650562,-0.200717 0.865869,-0.397935 0.125759,-0.115191 0.212026,-0.234642 0.27177,-0.376305 0.02401,-0.05691 0.0968,-0.182916 0.161764,-0.280005 0.504085,-0.753309 0.837728,-1.561046 0.985603,-2.386129 0.09886,-0.551599 0.106408,-1.271436 0.01883,-1.795684 -0.0134,-0.08035 -0.03288,-0.241961 -0.04323,-0.359137 -0.0587,-0.664663 -0.185296,-1.264678 -0.396552,-1.879661 -0.03242,-0.09442 -0.06414,-0.218245 -0.07049,-0.27516 -0.07855,-0.7055 -0.182584,-1.231952 -0.356062,-1.801771 -0.130109,-0.427368 -0.13251,-0.45229 -0.139008,-1.444532 -0.0058,-0.887304 -0.01663,-1.077298 -0.07833,-1.373932 -0.02841,-0.136671 -0.117896,-0.443294 -0.132438,-0.453871 -0.0026,-0.002 -0.06401,0.02567 -0.136173,0.06141 -0.46183,0.2287 -1.062401,0.412379 -1.657174,0.506834 -0.119818,0.01902 -0.277375,0.04959 -0.350134,0.06792 -0.246186,0.06202 -0.490417,0.05397 -0.738272,-0.02431 -0.124439,-0.0393 -0.331119,-0.183007 -0.39971,-0.277921 -0.05903,-0.0817 -0.145312,-0.129479 -0.233786,-0.129479 -0.0906,0 -0.18892,0.04189 -0.35447,0.151037 -0.2843,0.187438 -0.386818,0.225106 -0.50593,0.1859 -0.03482,-0.01145 -0.08311,-0.04559 -0.118556,-0.08378 C 11.316927,27.71532 10.636315,27.294251 10.098425,27.018854 9.9524078,26.944094 9.7853248,26.854102 9.7271148,26.818868 9.4449888,26.648083 9.0871598,26.5172 8.7236418,26.451825 l -0.156839,-0.02821 -0.04433,-0.06681 c -0.04136,-0.06235 -0.04388,-0.07703 -0.03767,-0.219878 0.01683,-0.388798 0.0039,-0.430712 -0.173498,-0.549661 -0.0556,-0.03734 -0.115708,-0.08287 -0.133577,-0.101168 -0.01786,-0.0183 -0.05935,-0.04211 -0.09215,-0.05291 -0.05663,-0.01863 -0.06894,-0.018 -0.241306,0.01225 -0.184584,0.0324 -0.252301,0.03218 -0.342406,-0.0011 -0.08033,-0.02967 -0.155149,-0.151679 -0.271485,-0.442709 -0.111074,-0.277862 -0.203729,-0.416375 -0.342659,-0.512266 -0.0543,-0.03748 -0.136127,-0.08037 -0.18184,-0.09531 -0.12172,-0.03979 -0.252567,-0.120797 -0.372352,-0.230517 -0.340064,-0.31149 -0.482249,-0.668082 -0.530253,-1.329804 -0.0098,-0.135542 -0.02634,-0.363446 -0.03676,-0.506451 -0.01036,-0.143007 -0.0266,-0.304618 -0.03611,-0.359137 -0.129662,-0.745011 -0.12853,-1.593176 0.0032,-2.454819 l 0.03631,-0.237395 0.123863,-0.194786 c 0.309379,-0.486529 0.628725,-1.043785 0.892994,-1.558289 l 0.08754,-0.170438 -0.06381,-0.03891 c -0.07006,-0.04272 -0.309166,-0.133063 -0.460988,-0.174184 -0.231248,-0.06263 -0.549248,-0.107713 -1.243769,-0.17632 -0.918973,-0.09078 -1.381346,-0.243268 -1.683735,-0.555291 -0.141953,-0.146476 -0.167848,-0.208995 -0.165926,-0.400538 0.0019,-0.177713 0.03417,-0.276455 0.145047,-0.442084 0.166352,-0.248522 0.408635,-0.461195 0.936622,-0.822151 0.372081,-0.254376 0.48753,-0.319365 0.661875,-0.372581 0.267376,-0.08162 0.526862,-0.112384 1.234967,-0.14644 0.225229,-0.01083 0.52956,-0.0494 0.719335,-0.09116 0.21686,-0.04772 0.279737,-0.05661 0.559448,-0.0791 0.580657,-0.04669 0.76275,-0.0853 0.939088,-0.199146 0.105703,-0.06824 0.157408,-0.128002 0.205968,-0.238057 0.05165,-0.117012 0.115734,-0.192824 0.229708,-0.271672 0.125254,-0.08666 0.209838,-0.123966 0.59876,-0.264117 0.358133,-0.129058 0.394959,-0.145314 0.5322132,-0.234928 0.130309,-0.08508 0.235507,-0.116348 0.413405,-0.122888 0.24394,-0.009 0.405729,0.03128 0.875533,0.217786 0.28648,0.113732 0.47355,0.171092 0.636071,0.195039 0.147505,0.02173 0.539255,0.197216 0.95776,0.429023 0.252981,0.140126 0.747987,0.486029 0.964381,0.673899 0.217256,0.18862 0.217223,0.188556 0.296066,0.551163 0.02841,0.130568 0.06765,0.273005 0.08726,0.316528 0.05747,0.127621 0.173316,0.241255 0.305405,0.299588 0.07574,0.03345 0.229029,0.169911 0.319897,0.28477 0.195755,0.247455 0.308169,0.55022 0.344005,0.926492 0.0092,0.0964 0.01443,0.586143 0.01171,1.088326 -0.0045,0.879747 -0.0065,0.917623 -0.04284,1.03813 -0.04919,0.162429 -0.111275,0.296987 -0.20503,0.444218 -0.04162,0.06537 -0.08123,0.14754 -0.08801,0.182612 -0.02291,0.118517 -0.112782,0.282542 -0.291924,0.532823 -0.274811,0.383951 -0.316634,0.494568 -0.279122,0.738237 0.01767,0.114855 0.01612,0.174289 -0.01003,0.382717 -0.03307,0.263569 -0.02757,0.362121 0.02479,0.44419 0.05773,0.09049 0.18793,0.12738 0.361654,0.102487 0.09181,-0.01316 0.0948,-0.01494 0.138529,-0.08288 0.06988,-0.108563 0.112401,-0.220908 0.180636,-0.477263 0.07491,-0.281452 0.114142,-0.392606 0.183568,-0.520109 0.02835,-0.05207 0.09658,-0.190556 0.151622,-0.307732 0.674515,-1.436147 1.581308,-2.472286 2.708663,-3.095027 0.209754,-0.115867 0.510192,-0.256419 0.703514,-0.329123 0.357971,-0.134624 1.17431,-0.668586 1.642255,-1.07419 0.635534,-0.550867 1.107292,-1.128038 1.451646,-1.77602 0.07534,-0.14178 0.111508,-0.191545 0.19448,-0.267636 0.150755,-0.138254 0.384663,-0.313744 0.61063,-0.458128 0.798139,-0.509971 0.995538,-0.658317 1.215201,-0.91322 l 0.08803,-0.102153 0.28716,-0.04481 c 0.336187,-0.05247 0.835535,-0.145752 1.232229,-0.230205 0.294927,-0.06279 0.463752,-0.116618 0.91577,-0.291994 0.488494,-0.18953 0.783013,-0.275289 1.062265,-0.309319 0.08028,-0.0098 0.301975,-0.02115 0.492669,-0.02524 0.458852,-0.0099 1.016766,-0.05321 1.472091,-0.114336 l 0.160799,-0.02159 0.306616,0.06359 c 0.371084,0.07696 0.917828,0.216646 1.276725,0.326198 0.203256,0.06204 0.314401,0.105415 0.47955,0.18713 1.084846,0.536781 1.854935,1.303385 2.177944,2.168099 0.158683,0.424806 0.307645,0.701318 0.571558,1.060934 0.351215,0.47859 0.651015,0.795288 1.68257,1.777423 0.975863,0.929102 1.3933,1.424762 1.729759,2.053885 0.04731,0.08844 0.165207,0.26923 0.26201,0.401746 0.675369,0.924535 1.621176,1.853009 2.682302,2.633155 0.231876,0.170474 0.343235,0.278065 0.472515,0.45653 0.221889,0.306304 0.330284,0.590811 0.514842,1.351328 0.06414,0.26417 0.129843,0.489895 0.180268,0.619016 0.03035,0.07769 0.05301,0.107894 0.121241,0.161735 0.158424,0.124956 0.264366,0.30008 0.263654,0.435827 -6.47e-4,0.137756 -0.09268,0.221377 -0.285607,0.25972 l -0.106272,0.02112 0.01016,0.09739 c 0.0058,0.05356 0.04297,0.204222 0.08309,0.334789 0.121177,0.394339 0.113508,0.561293 -0.03437,0.748585 -0.03708,0.04694 -0.116918,0.192171 -0.177458,0.322738 -0.320142,0.690472 -0.711096,1.342673 -1.221816,2.038261 -0.08018,0.109211 -0.165096,0.228049 -0.1887,0.264086 -0.05754,0.0879 -0.23352,0.208699 -0.365971,0.251252 -0.182895,0.05876 -0.309392,0.04108 -0.405865,-0.05673 -0.04751,-0.04818 -0.05307,-0.06859 -0.155059,-0.567271 -0.134335,-0.656993 -0.143583,-0.901837 -0.04414,-1.168716 0.04019,-0.10793 0.155868,-0.282862 0.250697,-0.379169 0.05216,-0.05299 0.06881,-0.08812 0.107961,-0.227934 0.08687,-0.310275 0.106278,-0.453889 0.1071,-0.792922 6.48e-4,-0.322285 -0.01463,-0.461984 -0.0799,-0.72436 -0.03605,-0.14487 -0.140489,-0.445041 -0.176293,-0.506637 -0.0123,-0.02114 -0.0222,-0.127179 -0.02498,-0.266421 -0.0083,-0.424117 -0.131992,-0.737185 -0.428971,-1.086327 -0.03547,-0.04173 -0.07022,-0.07597 -0.07716,-0.07609 -0.02731,-4.62e-4 -0.140937,0.07888 -0.180772,0.126242 -0.05903,0.07016 -0.09145,0.16823 -0.123249,0.372685 -0.0299,0.191959 -0.03469,0.21364 -0.07192,0.322614 -0.07581,0.221975 -0.199949,0.946011 -0.258812,1.509592 -0.03042,0.291374 -0.03055,1.469031 -1.94e-4,1.759161 0.08099,0.773697 0.199593,1.380775 0.400758,2.051341 0.126698,0.422324 0.139099,0.64065 0.06984,1.229587 -0.03152,0.268187 -0.03624,0.678837 -0.0093,0.806745 0.03217,0.152504 0.04666,0.179882 0.14115,0.265958 0.251531,0.229178 0.359926,0.53807 0.317495,0.904769 -0.02194,0.189295 -0.04738,0.300594 -0.157265,0.687871 -0.04763,0.167829 -0.09562,0.35445 -0.106635,0.414711 -0.011,0.06026 -0.04278,0.216396 -0.07061,0.346963 -0.118446,0.555926 -0.147376,0.814491 -0.147797,1.320894 -3.56e-4,0.428492 0.01929,0.661107 0.0879,1.040887 0.09014,0.498912 0.254464,1.024707 0.456562,1.460896 0.0233,0.05022 0.05534,0.165263 0.07122,0.255656 0.05792,0.329265 0.156327,0.674228 0.29391,1.030447 l 0.05708,0.147823 -0.08669,0.09897 c -0.0477,0.05443 -0.136684,0.136781 -0.197794,0.182996 -0.352049,0.266238 -0.890392,0.409122 -1.418865,0.376589 -0.176041,-0.01084 -0.293872,-0.03137 -0.455668,-0.07941 -0.111604,-0.03314 -0.121442,-0.0339 -0.370404,-0.02888 -0.594048,0.01197 -0.706883,0.0088 -0.798553,-0.02233 -0.223242,-0.07586 -0.313146,-0.22628 -0.26069,-0.436171 0.03437,-0.137587 0.117119,-0.2886 0.308946,-0.56392 0.255738,-0.367037 0.326976,-0.519097 0.326976,-0.697969 0,-0.05118 0.02783,-0.157366 0.08071,-0.30791 0.216156,-0.615465 0.359907,-1.232335 0.440809,-1.891563 0.03838,-0.312921 0.05301,-1.117654 0.0266,-1.467332 -0.03333,-0.441348 -0.107909,-0.930019 -0.195496,-1.280528 -0.04848,-0.193923 -0.09912,-0.517298 -0.140736,-0.898292 -0.09176,-0.840031 -0.138153,-1.132012 -0.229591,-1.44482 -0.08323,-0.284752 -0.110777,-0.342113 -0.208318,-0.433851 -0.671311,-0.631381 -1.212476,-1.417885 -1.53445,-2.230097 -0.03851,-0.09709 -0.110401,-0.248677 -0.159809,-0.336863 -0.357978,-0.638949 -0.702623,-1.393123 -0.941742,-2.060751 l -0.04116,-0.114967 -0.115378,0.127141 c -0.503083,0.554374 -0.915193,1.185048 -1.184873,1.813256 -0.20666,0.481424 -0.335326,0.932538 -0.409709,1.436547 -0.0376,0.254728 -0.05314,0.915417 -0.02718,1.156543 0.01113,0.103784 0.0277,0.292788 0.03676,0.420007 0.01016,0.14328 0.04006,0.343035 0.07857,0.524886 0.110161,0.520653 0.118064,0.685557 0.04336,0.905574 -0.04375,0.128952 -0.132847,0.255101 -0.245992,0.348353 -0.04783,0.03941 -0.225138,0.214092 -0.394041,0.388182 -0.168902,0.17409 -0.471129,0.483617 -0.671609,0.687838 -0.928565,0.945885 -1.372958,1.522883 -1.650229,2.142647 -0.06375,0.142492 -0.07224,0.174435 -0.06381,0.240172 0.02129,0.166765 0.174241,0.292676 0.549448,0.452366 0.450788,0.191862 0.542957,0.255597 0.698657,0.483135 0.231079,0.337704 0.398189,0.722205 0.48122,1.107256 0.05346,0.247911 0.08144,0.713136 0.04789,0.795913 -0.0096,0.02375 -0.07121,0.04812 -0.328957,0.130179 -0.17441,0.05552 -0.392513,0.118725 -0.484676,0.140443 -0.151098,0.0356 -0.188364,0.03956 -0.379226,0.04026 -0.19813,7.12e-4 -0.218194,-0.0014 -0.313975,-0.0339 -0.1377,-0.04667 -0.247227,-0.126278 -0.372682,-0.270868 -0.166437,-0.191831 -0.445708,-0.499047 -0.579926,-0.63795 -0.119721,-0.123901 -0.408577,-0.408404 -0.437902,-0.431301 -0.01786,-0.01398 -0.07514,0.07315 -0.111683,0.169988 -0.01495,0.03958 -0.04783,0.167972 -0.07308,0.28533 -0.02524,0.117358 -0.06051,0.252803 -0.07835,0.300989 -0.0642,0.173549 -0.176443,0.291233 -0.351694,0.368852 -0.171258,0.07585 -0.711523,0.189316 -1.181915,0.248224 -0.396455,0.04965 -0.615574,0.06196 -1.084756,0.06095 -0.459888,-10e-4 -0.69964,-0.01589 -1.100263,-0.06837 l -0.200706,-0.02629 -0.06823,-0.05957 c -0.216744,-0.189259 -0.125164,-0.429035 0.258263,-0.676185 0.16344,-0.105349 0.340736,-0.183324 0.548005,-0.241009 0.200169,-0.05571 0.340633,-0.104683 0.483556,-0.168587 0.446556,-0.199675 0.804476,-0.515089 0.971961,-0.856548 0.02815,-0.05736 0.07247,-0.119233 0.102149,-0.142563 0.128503,-0.101015 0.196104,-0.226928 0.195418,-0.363967 -6.47e-4,-0.165682 -0.06846,-0.282307 -0.236037,-0.407045 -0.05967,-0.04442 -0.179484,-0.138277 -0.266256,-0.208583 -0.368599,-0.298626 -0.902547,-0.643759 -1.826445,-1.180566 -0.981921,-0.570518 -1.342177,-0.792784 -1.703288,-1.050875 -0.250107,-0.17876 -0.322996,-0.246554 -0.438976,-0.40832 -0.308434,-0.430193 -0.373091,-1.018741 -0.193218,-1.758865 0.07966,-0.327824 0.136322,-0.48028 0.215734,-0.580592 0.165272,-0.208761 0.295646,-0.476485 0.349785,-0.718303 0.03948,-0.176364 0.03909,-0.478407 -6.47e-4,-0.657374 -0.02272,-0.101673 -0.02887,-0.181663 -0.02265,-0.292179 0.0094,-0.166197 0.02712,-0.229038 0.154418,-0.547836 0.09608,-0.240644 0.133629,-0.359201 0.150929,-0.476649 l 0.01191,-0.08099 -0.136335,-0.0088 c -0.244645,-0.01582 -0.894152,0.0013 -1.138144,0.03007 -0.287102,0.03381 -0.667545,0.09799 -0.695601,0.117355 -0.01625,0.0112 -0.02492,0.114611 -0.03268,0.390618 -0.01476,0.519473 -0.07136,1.047791 -0.173323,1.617145 -0.03301,0.184389 -0.04213,0.211419 -0.08363,0.247849 -0.183988,0.161549 -0.265149,0.248013 -0.372987,0.397379 -0.18791,0.260278 -0.281089,0.490379 -0.309922,0.765335 -0.01133,0.108177 -0.01832,0.125997 -0.0704,0.179397 -0.03178,0.03261 -0.07503,0.09087 -0.09608,0.129463 -0.08733,0.16012 -0.09331,0.201458 -0.102634,0.709315 -0.0052,0.264483 -0.0058,0.552097 -0.0013,0.639142 0.01722,0.370051 0.0065,0.777484 -0.02563,0.943495 -0.07815,0.408449 -0.253227,0.847199 -0.46935,1.176178 -0.122083,0.185842 -0.280261,0.642746 -0.378831,1.094297 -0.06923,0.31712 -0.120446,0.675149 -0.203755,1.424373 -0.05721,0.514527 -0.08736,0.733423 -0.142538,1.034801 -0.0784,0.428275 -0.200732,0.842335 -0.289536,0.980017 -0.101372,0.157169 -0.112673,0.245416 -0.07673,0.599296 0.04576,0.450253 -0.08119,0.620516 -0.542847,0.728224 -0.674166,0.157284 -1.392853,0.225815 -2.028245,0.193402 z m 12.622851,-6.545234 c 0.06252,-0.02975 0.08096,-0.0475 0.15535,-0.149692 0.03657,-0.05022 0.119844,-0.150447 0.185083,-0.22273 0.655545,-0.726317 1.017601,-1.589329 1.017148,-2.424534 -2.07e-4,-0.396682 -0.17808,-1.83016 -0.345241,-2.782398 -0.16155,-0.920241 -0.423333,-2.106219 -0.472392,-2.140079 -0.0576,-0.03977 -0.259091,0.07563 -0.335578,0.192219 -0.04945,0.07536 -0.08845,0.210058 -0.118109,0.407833 -0.01987,0.132365 -0.04388,0.207104 -0.130821,0.406734 -0.02505,0.05745 -0.0681,0.223082 -0.09815,0.377398 -0.02945,0.15126 -0.06466,0.307888 -0.0782,0.348062 -0.07705,0.22841 -0.198687,0.368735 -0.394979,0.455675 -0.172022,0.07619 -0.26944,0.300023 -0.336821,0.773912 -0.04058,0.285582 -0.09834,0.459092 -0.198298,0.59589 -0.051,0.06984 -0.05223,0.07523 -0.03385,0.152177 0.08257,0.346055 0.01042,0.598826 -0.195962,0.686783 -0.06994,0.0298 -0.111599,0.03738 -0.249856,0.04543 -0.28773,0.01676 -0.445973,0.09363 -0.736932,0.358015 -0.07369,0.06696 -0.182753,0.154611 -0.242367,0.194786 -0.127229,0.08575 -0.32035,0.284746 -0.432712,0.445892 -0.142172,0.203888 -0.182079,0.384818 -0.123015,0.557758 0.03696,0.108137 0.111857,0.205671 0.262437,0.341591 0.07047,0.06361 0.243383,0.236178 0.384255,0.383485 0.296908,0.310465 0.37179,0.379079 0.555973,0.509401 0.150554,0.106526 0.290467,0.176793 0.452069,0.227042 0.129927,0.0404 0.330265,0.07314 0.447565,0.07314 0.122465,0 0.253803,0.0266 0.454885,0.09211 0.09675,0.03152 0.219566,0.07013 0.272922,0.08579 0.119112,0.03496 0.27164,0.03874 0.33561,0.0083 z"
     id="path1628" /></svg>
