<?xml version="1.0" encoding="UTF-8" standalone="no"?>
<svg
   fill="none"
   viewBox="0 0 48 48"
   height="256"
   width="256"
   version="1.1"
   id="svg6"
   sodipodi:docname="python.svg"
   inkscape:version="1.2.1 (9c6d41e410, 2022-07-14)"
   xmlns:inkscape="http://www.inkscape.org/namespaces/inkscape"
   xmlns:sodipodi="http://sodipodi.sourceforge.net/DTD/sodipodi-0.dtd"
   xmlns="http://www.w3.org/2000/svg"
   xmlns:svg="http://www.w3.org/2000/svg">
  <defs
     id="defs10" />
  <sodipodi:namedview
     id="namedview8"
     pagecolor="#ffffff"
     bordercolor="#666666"
     borderopacity="1.0"
     inkscape:showpageshadow="2"
     inkscape:pageopacity="0.0"
     inkscape:pagecheckerboard="true"
     inkscape:deskcolor="#d1d1d1"
     showgrid="true"
     inkscape:zoom="1.1449053"
     inkscape:cx="147.61046"
     inkscape:cy="87.780186"
     inkscape:current-layer="svg6"
     showguides="false"
     inkscape:window-width="1920"
     inkscape:window-height="730"
     inkscape:window-x="-6"
     inkscape:window-y="-6"
     inkscape:window-maximized="1">
    <inkscape:grid
       type="xygrid"
       id="grid239"
       units="px"
       spacingx="1.5"
       spacingy="1.5" />
  </sodipodi:namedview>
  <path
     fill="#d3d7cf"
     d="m 23.999962,46.000062 c 4.083201,0 6.815001,-0.3009 8.0707,-0.4782 0.525301,-0.0743 1.0169,-0.2779 1.440801,-0.5969 1.013299,-0.7624 3.157699,-2.4813 6.044999,-5.3686 2.8872,-2.8872 4.6061,-5.0316 5.3685,-6.0449 0.3191,-0.424 0.5227,-0.9155 0.5969,-1.4409 0.1773,-1.2555 0.4782,-3.9873 0.4782,-8.0705 0,-4.0832 -0.3009,-6.815 -0.4782,-8.0706 -0.0742,-0.5253 -0.2778,-1.0169 -0.5969,-1.4409 -0.7624,-1.0132 -2.4813,-3.1576 -5.3685,-6.0448595 -2.8873,-2.8872 -5.0317,-4.60613 -6.0449,-5.36857 -0.424,-0.31903 -0.915599,-0.52263 -1.440999,-0.59684 -1.2556,-0.17735 -3.9874,-0.47823 -8.070501,-0.47823 -4.0831,0 -6.8149,0.30088 -8.070499,0.47823 -0.525401,0.07421 -1.017001,0.2778 -1.440901,0.59684 -1.013299,0.76242 -3.157699,2.48134 -6.0449395,5.36857 -2.88725,2.8872605 -4.60617,5.0316595 -5.36859,6.0449595 -0.31902,0.4239 -0.52261,0.9154 -0.59683,1.4408 -0.17735,1.2556 -0.47824,3.9874 -0.47824,8.0706 0,4.0832 0.30089,6.815 0.47824,8.0706 0.07422,0.5253 0.27781,1.0168 0.59683,1.4408 0.76242,1.0133 2.48133,3.1577 5.36855,6.0449 2.8871795,2.8872 5.0316795,4.6062 6.0449795,5.3686 0.4239,0.319 0.9155,0.5226 1.4409,0.5969 1.2555,0.1773 3.9873,0.4782 8.0704,0.4782 z"
     id="path3678"
     style="fill:#d3d7cf;fill-opacity:1" />
  <path
     id="path2521"
     style="fill:#c4a000;fill-opacity:1;stroke:none;stroke-width:0.0221621;stroke-linecap:round;stroke-linejoin:round;stroke-miterlimit:10;stroke-dasharray:none;stroke-dashoffset:0;stroke-opacity:1"
     d="m 34.061046,18.608112 -3.480624,0.0188 c 0,1.294441 0.01595,1.561441 -6.48e-4,2.479578 -0.02605,1.598557 -1.627854,3.419271 -3.359306,3.438456 h -5.389291 c -1.92814,0.07306 -3.386109,2.053099 -3.316487,3.54031 v 5.061666 c -0.04271,1.04086 0.176819,2.062103 1.036728,2.783848 1.138149,1.038974 3.4133,1.657281 4.974728,1.634888 0.156912,0.0082 0.33836,0.01291 0.539123,0.01237 v -6.49e-4 c 1.940739,-0.0055 5.676899,-0.502377 6.300808,-3.188678 h 6.47e-4 c 0.143671,-0.620832 0.09925,-2.055749 0.09925,-2.896735 0.522043,0 0.876453,-0.0095 1.558982,0 0.973988,-0.01836 1.269186,0.06807 1.967057,-0.360066 0.787866,-0.467684 1.3631,-1.502575 1.634237,-2.123407 0.577246,-1.552336 0.78979,-2.689236 0.812253,-3.930868 0.05421,-1.655489 -0.510502,-6.479052 -3.377471,-6.469484 z m -5.189472,14.453187 c 0.618252,-2.62e-4 1.119623,0.504594 1.119769,1.127552 -1.45e-4,0.622959 -0.501516,1.127816 -1.119769,1.127554 -0.617999,-9.9e-5 -1.118974,-0.504851 -1.119119,-1.127554 1.46e-4,-0.622703 0.501121,-1.127453 1.119119,-1.127552 z"
     sodipodi:nodetypes="ccccccccccccccccccccccccc" />
  <path
     id="path289"
     style="fill:#3465a4;fill-opacity:1;stroke:none;stroke-width:0.0221621;stroke-linecap:round;stroke-linejoin:round;stroke-miterlimit:10;stroke-dasharray:none;stroke-dashoffset:0;stroke-opacity:1"
     d="m 23.314253,10.815795 c -1.940736,0.0054 -5.676913,0.502379 -6.300805,3.188681 h -6.51e-4 c -0.143744,0.620829 -0.09925,2.055747 -0.09925,2.896735 -0.522037,0 -0.876448,0.0095 -1.558981,0 -0.973998,0.01836 -1.269187,-0.06807 -1.967054,0.360066 -0.78787,0.467681 -1.363112,1.502572 -1.634241,2.123406 -0.577253,1.552335 -0.78979,2.689883 -0.812254,3.931514 -0.05428,1.655491 0.5105,6.478405 3.377471,6.468838 l 3.480624,-0.0188 c 0,-1.294442 -0.01547,-1.561443 6.5e-4,-2.47958 0.02604,-1.598555 1.627853,-3.419267 3.359306,-3.438454 h 5.389289 c 1.928141,-0.07306 3.386109,-2.053097 3.316488,-3.54031 v -5.061666 c 0.04271,-1.040858 -0.17682,-2.062104 -1.036727,-2.783851 -1.13815,-1.038973 -3.413301,-1.657279 -4.974731,-1.634888 -0.156912,-0.0083 -0.338357,-0.01224 -0.539123,-0.01174 z M 19.50795,13.07674 c 0.617999,9.9e-5 1.118975,0.504851 1.119119,1.127555 2.1e-4,0.622956 -0.50087,1.128102 -1.119119,1.128201 -0.618504,2.63e-4 -1.11998,-0.504989 -1.11977,-1.128201 1.45e-4,-0.62296 0.501517,-1.127818 1.11977,-1.127555 z"
     sodipodi:nodetypes="cccccccccccccccccccccccc" />
</svg>
