<?xml version="1.0" encoding="UTF-8" standalone="no"?>
<svg
   fill="none"
   viewBox="0 0 48 48"
   height="256"
   width="256"
   version="1.1"
   id="svg6"
   sodipodi:docname="ruby.svg"
   inkscape:version="1.2.1 (9c6d41e410, 2022-07-14)"
   xml:space="preserve"
   xmlns:inkscape="http://www.inkscape.org/namespaces/inkscape"
   xmlns:sodipodi="http://sodipodi.sourceforge.net/DTD/sodipodi-0.dtd"
   xmlns="http://www.w3.org/2000/svg"
   xmlns:svg="http://www.w3.org/2000/svg"><defs
     id="defs10" /><sodipodi:namedview
     id="namedview8"
     pagecolor="#ffffff"
     bordercolor="#666666"
     borderopacity="1.0"
     inkscape:showpageshadow="2"
     inkscape:pageopacity="0.0"
     inkscape:pagecheckerboard="true"
     inkscape:deskcolor="#d1d1d1"
     showgrid="true"
     inkscape:zoom="1.6191406"
     inkscape:cx="138.345"
     inkscape:cy="106.538"
     inkscape:current-layer="svg6"
     showguides="false"
     inkscape:window-width="1920"
     inkscape:window-height="730"
     inkscape:window-x="-6"
     inkscape:window-y="-6"
     inkscape:window-maximized="1"><inkscape:grid
       type="xygrid"
       id="grid239"
       units="px"
       spacingx="1.5"
       spacingy="1.5" /></sodipodi:namedview><path
     fill="#d3d7cf"
     d="m 23.999962,46.000062 c 4.083201,0 6.815001,-0.3009 8.0707,-0.4782 0.525301,-0.0743 1.0169,-0.2779 1.440801,-0.5969 1.013299,-0.7624 3.157699,-2.4813 6.044999,-5.3686 2.8872,-2.8872 4.6061,-5.0316 5.3685,-6.0449 0.3191,-0.424 0.5227,-0.9155 0.5969,-1.4409 0.1773,-1.2555 0.4782,-3.9873 0.4782,-8.0705 0,-4.0832 -0.3009,-6.815 -0.4782,-8.0706 -0.0742,-0.5253 -0.2778,-1.0169 -0.5969,-1.4409 -0.7624,-1.0132 -2.4813,-3.1576 -5.3685,-6.0448595 -2.8873,-2.8872 -5.0317,-4.60613 -6.0449,-5.36857 -0.424,-0.31903 -0.915599,-0.52263 -1.440999,-0.59684 -1.2556,-0.17735 -3.9874,-0.47823 -8.070501,-0.47823 -4.0831,0 -6.8149,0.30088 -8.070499,0.47823 -0.525401,0.07421 -1.017001,0.2778 -1.440901,0.59684 -1.013299,0.76242 -3.157699,2.48134 -6.0449395,5.36857 -2.88725,2.8872605 -4.60617,5.0316595 -5.36859,6.0449595 -0.31902,0.4239 -0.52261,0.9154 -0.59683,1.4408 -0.17735,1.2556 -0.47824,3.9874 -0.47824,8.0706 0,4.0832 0.30089,6.815 0.47824,8.0706 0.07422,0.5253 0.27781,1.0168 0.59683,1.4408 0.76242,1.0133 2.48133,3.1577 5.36855,6.0449 2.8871795,2.8872 5.0316795,4.6062 6.0449795,5.3686 0.4239,0.319 0.9155,0.5226 1.4409,0.5969 1.2555,0.1773 3.9873,0.4782 8.0704,0.4782 z"
     id="path3678"
     style="fill:#d3d7cf;fill-opacity:1" /><g
     id="g4495"
     transform="matrix(0.13373433,0,0,0.13373433,-11.831983,25.533727)"
     style="stroke-width:7.47756"><path
       style="fill:#cc0000;fill-opacity:1;stroke-width:7.47756"
       d="m 196.52371,90.654052 c 0.33516,-0.04159 0.8836,-0.04159 1.21875,0 0.33516,0.04159 0.0609,0.07562 -0.60937,0.07562 -0.67031,0 -0.94453,-0.03403 -0.60938,-0.07562 z m 3.84375,0.0064 c 0.18047,-0.04718 0.47579,-0.04718 0.65625,0 0.18047,0.04716 0.0328,0.08574 -0.32812,0.08574 -0.36094,0 -0.50859,-0.03859 -0.32813,-0.08574 z m -7.40406,-0.190875 c 0.23323,-0.04485 0.57073,-0.04314 0.75,0.0037 0.17927,0.04693 -0.0116,0.08362 -0.42406,0.08154 -0.4125,-0.0021 -0.55917,-0.04048 -0.32594,-0.08533 z m 10.21656,0.0034 c 0.18047,-0.04718 0.47579,-0.04718 0.65625,0 0.18047,0.04716 0.0328,0.08574 -0.32812,0.08574 -0.36094,0 -0.50859,-0.03859 -0.32813,-0.08574 z M 190.71121,90.29049 c 0.12891,-0.05201 0.33985,-0.05201 0.46875,0 0.12891,0.05201 0.0234,0.09457 -0.23437,0.09457 -0.25781,0 -0.36328,-0.04256 -0.23438,-0.09457 z m 8.22629,-0.164325 c -0.18093,-0.471506 -0.12755,-0.593156 0.0935,-0.213056 0.10944,0.188212 0.15949,0.381693 0.11121,0.429956 -0.0483,0.04828 -0.14039,-0.04933 -0.20469,-0.2169 z m 7.05496,0.159263 c 0.18047,-0.04718 0.47579,-0.04718 0.65625,0 0.18047,0.04716 0.0328,0.08574 -0.32812,0.08574 -0.36094,0 -0.50859,-0.03859 -0.32813,-0.08574 z M 189.02371,90.10299 c 0.12891,-0.05201 0.33985,-0.05201 0.46875,0 0.12891,0.05201 0.0234,0.09457 -0.23437,0.09457 -0.25781,0 -0.36328,-0.04256 -0.23438,-0.09457 z m 19.59375,-0.0051 c 0.18047,-0.04718 0.47579,-0.04718 0.65625,0 0.18047,0.04716 0.0328,0.08574 -0.32812,0.08574 -0.36094,0 -0.50859,-0.03859 -0.32813,-0.08574 z m -20.89453,-0.1863 c 0.13535,-0.05417 0.29707,-0.04751 0.35938,0.01481 0.0623,0.06231 -0.0484,0.106632 -0.24609,0.09849 -0.21843,-0.009 -0.26286,-0.05344 -0.11329,-0.113287 z m 23.70703,-0.0019 c 0.18047,-0.04718 0.47579,-0.04718 0.65625,0 0.18047,0.04716 0.0328,0.08574 -0.32812,0.08574 -0.36094,0 -0.50859,-0.03859 -0.32813,-0.08574 z m -25.01953,-0.186337 c 0.13535,-0.05417 0.29707,-0.04751 0.35938,0.01481 0.0623,0.06231 -0.0484,0.106631 -0.24609,0.09849 -0.21843,-0.009 -0.26286,-0.05344 -0.11329,-0.113288 z m 27.83203,-0.0019 c 0.18047,-0.04718 0.47579,-0.04718 0.65625,0 0.18047,0.04716 0.0328,0.08574 -0.32812,0.08574 -0.36094,0 -0.50859,-0.03859 -0.32813,-0.08574 z m 2.72094,-0.190875 c 0.23323,-0.04485 0.57073,-0.04314 0.75,0.0037 0.17927,0.04693 -0.0116,0.08362 -0.42406,0.08154 -0.4125,-0.0021 -0.55917,-0.04048 -0.32594,-0.08533 z m -18.48735,-0.531657 c -0.31416,-0.689494 -0.25422,-0.836587 0.0855,-0.209775 0.15863,0.292706 0.25333,0.567282 0.21045,0.610163 -0.0429,0.04288 -0.17605,-0.137288 -0.29592,-0.400388 z m 21.20391,0.347532 c 0.18047,-0.04718 0.47579,-0.04718 0.65625,0 0.18047,0.04716 0.0328,0.08574 -0.32812,0.08574 -0.36094,0 -0.50859,-0.03859 -0.32813,-0.08574 z m 2.72094,-0.190875 c 0.23323,-0.04485 0.57073,-0.04314 0.75,0.0037 0.17927,0.04693 -0.0116,0.08362 -0.42406,0.08154 -0.4125,-0.0021 -0.55917,-0.04048 -0.32594,-0.08533 z m -22.62801,-0.35175 c 0.009,-0.218438 0.0534,-0.262857 0.11328,-0.113288 0.0542,0.135356 0.0475,0.297075 -0.0148,0.359381 -0.0623,0.06231 -0.10662,-0.04845 -0.0985,-0.246093 z m 25.44051,0.16425 c 0.23323,-0.04485 0.57073,-0.04314 0.75,0.0037 0.17927,0.04693 -0.0116,0.08362 -0.42406,0.08154 -0.4125,-0.0021 -0.55917,-0.04048 -0.32594,-0.08533 z m 2.71656,-0.184125 c 0.18047,-0.04718 0.47579,-0.04718 0.65625,0 0.18047,0.04716 0.0328,0.08574 -0.32812,0.08574 -0.36094,0 -0.50859,-0.03859 -0.32813,-0.08574 z m 2.72094,-0.190875 c 0.23323,-0.04485 0.57073,-0.04314 0.75,0.0037 0.17927,0.04693 -0.0116,0.08362 -0.42406,0.08154 -0.4125,-0.0021 -0.55917,-0.04048 -0.32594,-0.08533 z m 2.8125,-0.1875 c 0.23323,-0.04485 0.57073,-0.04314 0.75,0.0037 0.17927,0.04693 -0.0116,0.08362 -0.42406,0.08154 -0.4125,-0.0021 -0.55917,-0.04048 -0.32594,-0.08533 z m 2.8125,-0.1875 c 0.23323,-0.04485 0.57073,-0.04314 0.75,0.0037 0.17927,0.04693 -0.0116,0.08362 -0.42406,0.08154 -0.4125,-0.0021 -0.55917,-0.04048 -0.32594,-0.08533 z m -38.36235,-0.531657 c -0.31416,-0.689494 -0.25422,-0.836587 0.0855,-0.209775 0.15863,0.292706 0.25333,0.567282 0.21045,0.610163 -0.0429,0.04288 -0.17605,-0.137288 -0.29592,-0.400388 z m 40.98735,0.344157 c 0.23323,-0.04485 0.57073,-0.04314 0.75,0.0037 0.17927,0.04693 -0.0116,0.08362 -0.42406,0.08154 -0.4125,-0.0021 -0.55917,-0.04048 -0.32594,-0.08533 z m 2.8125,-0.1875 c 0.23323,-0.04485 0.57073,-0.04314 0.75,0.0037 0.17927,0.04693 -0.0116,0.08362 -0.42406,0.08154 -0.4125,-0.0021 -0.55917,-0.04048 -0.32594,-0.08533 z m 2.8125,-0.1875 c 0.23323,-0.04485 0.57073,-0.04314 0.75,0.0037 0.17927,0.04693 -0.0116,0.08362 -0.42406,0.08154 -0.4125,-0.0021 -0.55917,-0.04048 -0.32594,-0.08533 z m 2.625,-0.1875 c 0.23323,-0.04485 0.57073,-0.04314 0.75,0.0037 0.17927,0.04693 -0.0116,0.08362 -0.42406,0.08154 -0.4125,-0.0021 -0.55917,-0.04048 -0.32594,-0.08533 z m 2.8125,-0.1875 c 0.23323,-0.04485 0.57073,-0.04314 0.75,0.0037 0.17927,0.04693 -0.0116,0.08362 -0.42406,0.08154 -0.4125,-0.0021 -0.55917,-0.04048 -0.32594,-0.08533 z m -49.62801,-0.35175 c 0.009,-0.218438 0.0534,-0.262857 0.11328,-0.113288 0.0542,0.135356 0.0475,0.297075 -0.0148,0.359381 -0.0623,0.06231 -0.10662,-0.04845 -0.0985,-0.246093 z m 52.44051,0.16425 c 0.23323,-0.04485 0.57073,-0.04314 0.75,0.0037 0.17927,0.04693 -0.0116,0.08362 -0.42406,0.08154 -0.4125,-0.0021 -0.55917,-0.04048 -0.32594,-0.08533 z m 2.625,-0.1875 c 0.23323,-0.04485 0.57073,-0.04314 0.75,0.0037 0.17927,0.04693 -0.0116,0.08362 -0.42406,0.08154 -0.4125,-0.0021 -0.55917,-0.04048 -0.32594,-0.08533 z m -58.04985,-0.531657 c -0.31416,-0.689494 -0.25422,-0.836587 0.0855,-0.209775 0.15863,0.292706 0.25333,0.567282 0.21045,0.610163 -0.0429,0.04288 -0.17605,-0.137288 -0.29592,-0.400388 z m 60.86235,0.344157 c 0.23323,-0.04485 0.57073,-0.04314 0.75,0.0037 0.17927,0.04693 -0.0116,0.08362 -0.42406,0.08154 -0.4125,-0.0021 -0.55917,-0.04048 -0.32594,-0.08533 z m 2.8125,-0.1875 c 0.23323,-0.04485 0.57073,-0.04314 0.75,0.0037 0.17927,0.04693 -0.0116,0.08362 -0.42406,0.08154 -0.4125,-0.0021 -0.55917,-0.04048 -0.32594,-0.08533 z m 2.62281,-0.1872 c 0.23204,-0.0447 0.61172,-0.0447 0.84375,0 0.23204,0.04468 0.0422,0.08124 -0.42187,0.08124 -0.46406,0 -0.65391,-0.03656 -0.42188,-0.08124 z m 2.81469,-0.1878 c 0.23323,-0.04485 0.57073,-0.04314 0.75,0.0037 0.17927,0.04693 -0.0116,0.08362 -0.42406,0.08154 -0.4125,-0.0021 -0.55917,-0.04048 -0.32594,-0.08533 z m 2.62281,-0.1872 c 0.23204,-0.0447 0.61172,-0.0447 0.84375,0 0.23204,0.04468 0.0422,0.08124 -0.42187,0.08124 -0.46406,0 -0.65391,-0.03656 -0.42188,-0.08124 z m 2.8125,-0.1875 c 0.23204,-0.0447 0.61172,-0.0447 0.84375,0 0.23204,0.04468 0.0422,0.08124 -0.42187,0.08124 -0.46406,0 -0.65391,-0.03656 -0.42188,-0.08124 z m 2.8125,-0.1875 c 0.23204,-0.0447 0.61172,-0.0447 0.84375,0 0.23204,0.04468 0.0422,0.08124 -0.42187,0.08124 -0.46406,0 -0.65391,-0.03656 -0.42188,-0.08124 z m 2.625,-0.1875 c 0.23204,-0.0447 0.61172,-0.0447 0.84375,0 0.23204,0.04468 0.0422,0.08124 -0.42187,0.08124 -0.46406,0 -0.65391,-0.03656 -0.42188,-0.08124 z m 2.8125,-0.1875 c 0.23204,-0.0447 0.61172,-0.0447 0.84375,0 0.23204,0.04468 0.0422,0.08124 -0.42187,0.08124 -0.46406,0 -0.65391,-0.03656 -0.42188,-0.08124 z m 2.72133,-0.189732 c 0.28501,-0.04309 0.70689,-0.04194 0.9375,0.0026 0.23062,0.04449 -0.003,0.07976 -0.5182,0.07836 -0.51563,-0.0019 -0.70431,-0.03782 -0.4193,-0.08092 z m 2.71617,-0.185268 c 0.23204,-0.0447 0.61172,-0.0447 0.84375,0 0.23204,0.04468 0.0422,0.08124 -0.42187,0.08124 -0.46406,0 -0.65391,-0.03656 -0.42188,-0.08124 z m 2.8125,-0.1875 c 0.23204,-0.0447 0.61172,-0.0447 0.84375,0 0.23204,0.04468 0.0422,0.08124 -0.42187,0.08124 -0.46406,0 -0.65391,-0.03656 -0.42188,-0.08124 z m 2.72133,-0.189732 c 0.28501,-0.04309 0.70689,-0.04194 0.9375,0.0026 0.23062,0.04449 -0.003,0.07976 -0.5182,0.07836 -0.51563,-0.0019 -0.70431,-0.03782 -0.4193,-0.08092 z m 2.71617,-0.185268 c 0.23204,-0.0447 0.61172,-0.0447 0.84375,0 0.23204,0.04468 0.0422,0.08124 -0.42187,0.08124 -0.46406,0 -0.65391,-0.03656 -0.42188,-0.08124 z M 196.3125,83.93724 c -0.18093,-0.471506 -0.12755,-0.593156 0.0935,-0.213056 0.10944,0.188212 0.15949,0.381694 0.11121,0.429956 -0.0483,0.04828 -0.14039,-0.04933 -0.20469,-0.2169 z m 100.33621,0.156188 c 0.23204,-0.0447 0.61172,-0.0447 0.84375,0 0.23204,0.04468 0.0422,0.08124 -0.42187,0.08124 -0.46406,0 -0.65391,-0.03656 -0.42188,-0.08124 z m 2.72133,-0.189732 c 0.28501,-0.04309 0.70689,-0.04194 0.9375,0.0026 0.23062,0.04449 -0.003,0.07976 -0.5182,0.07836 -0.51563,-0.0019 -0.70431,-0.03782 -0.4193,-0.08092 z m 2.8125,-0.1875 c 0.28501,-0.04309 0.70689,-0.04194 0.9375,0.0026 0.23062,0.04449 -0.003,0.07976 -0.5182,0.07836 -0.51563,-0.0019 -0.70431,-0.03782 -0.4193,-0.08092 z m 2.71617,-0.185268 c 0.23204,-0.0447 0.61172,-0.0447 0.84375,0 0.23204,0.04468 0.0422,0.08124 -0.42187,0.08124 -0.46406,0 -0.65391,-0.03656 -0.42188,-0.08124 z m 2.72133,-0.189732 c 0.28501,-0.04309 0.70689,-0.04194 0.9375,0.0026 0.23062,0.04449 -0.003,0.07976 -0.5182,0.07836 -0.51563,-0.0019 -0.70431,-0.03782 -0.4193,-0.08092 z m 2.8125,-0.1875 c 0.28501,-0.04309 0.70689,-0.04194 0.9375,0.0026 0.23062,0.04449 -0.003,0.07976 -0.5182,0.07836 -0.51563,-0.0019 -0.70431,-0.03782 -0.4193,-0.08092 z m 2.71617,-0.185268 c 0.23204,-0.0447 0.61172,-0.0447 0.84375,0 0.23204,0.04468 0.0422,0.08124 -0.42187,0.08124 -0.46406,0 -0.65391,-0.03656 -0.42188,-0.08124 z M 195.75,82.62474 c -0.18093,-0.471506 -0.12755,-0.593156 0.0935,-0.213056 0.10944,0.188212 0.15949,0.381694 0.11121,0.429956 -0.0483,0.04828 -0.14039,-0.04933 -0.20469,-0.2169 z m 120.21121,0.156188 c 0.23204,-0.0447 0.61172,-0.0447 0.84375,0 0.23204,0.04468 0.0422,0.08124 -0.42187,0.08124 -0.46406,0 -0.65391,-0.03656 -0.42188,-0.08124 z m 2.72133,-0.189732 c 0.28501,-0.04309 0.70689,-0.04194 0.9375,0.0026 0.23062,0.04449 -0.003,0.07976 -0.5182,0.07836 -0.51563,-0.0019 -0.70431,-0.03782 -0.4193,-0.08092 z m 2.71617,-0.185268 c 0.23204,-0.0447 0.61172,-0.0447 0.84375,0 0.23204,0.04468 0.0422,0.08124 -0.42187,0.08124 -0.46406,0 -0.65391,-0.03656 -0.42188,-0.08124 z m 2.8125,-0.1875 c 0.23204,-0.0447 0.61172,-0.0447 0.84375,0 0.23204,0.04468 0.0422,0.08124 -0.42187,0.08124 -0.46406,0 -0.65391,-0.03656 -0.42188,-0.08124 z m 2.8125,-0.1875 c 0.23204,-0.0447 0.61172,-0.0447 0.84375,0 0.23204,0.04468 0.0422,0.08124 -0.42187,0.08124 -0.46406,0 -0.65391,-0.03656 -0.42188,-0.08124 z M 167.10917,81.649065 c -0.23322,-0.297394 -0.22659,-0.304013 0.0708,-0.0708 0.31232,0.24495 0.41165,0.398925 0.25733,0.398925 -0.0389,0 -0.18659,-0.147656 -0.32813,-0.328125 z m 162.63587,0.193575 c 0.28501,-0.04309 0.70689,-0.04194 0.9375,0.0026 0.23062,0.04449 -0.003,0.07976 -0.5182,0.07836 -0.51563,-0.0019 -0.70431,-0.03782 -0.4193,-0.08092 z m 2.71617,-0.185269 c 0.23204,-0.0447 0.61172,-0.0447 0.84375,0 0.23204,0.04468 0.0422,0.08124 -0.42187,0.08124 -0.46406,0 -0.65391,-0.03656 -0.42188,-0.08124 z m 2.8125,-0.1875 c 0.23204,-0.0447 0.61172,-0.0447 0.84375,0 0.23204,0.04468 0.0422,0.08124 -0.42187,0.08124 -0.46406,0 -0.65391,-0.03656 -0.42188,-0.08124 z m 2.8125,-0.1875 c 0.23204,-0.0447 0.61172,-0.0447 0.84375,0 0.23204,0.04468 0.0422,0.08124 -0.42187,0.08124 -0.46406,0 -0.65391,-0.03656 -0.42188,-0.08124 z m 2.625,-0.1875 c 0.23204,-0.0447 0.61172,-0.0447 0.84375,0 0.23204,0.04468 0.0422,0.08124 -0.42187,0.08124 -0.46406,0 -0.65391,-0.03656 -0.42188,-0.08124 z m -174.90481,-0.570806 -0.45456,-0.515625 0.51563,0.454556 c 0.48192,0.424856 0.60161,0.576694 0.45455,0.576694 -0.0336,0 -0.26561,-0.232031 -0.51562,-0.515625 z m 177.71731,0.383306 c 0.23204,-0.0447 0.61172,-0.0447 0.84375,0 0.23204,0.04468 0.0422,0.08124 -0.42187,0.08124 -0.46406,0 -0.65391,-0.03656 -0.42188,-0.08124 z m 2.8125,-0.1875 c 0.23204,-0.0447 0.61172,-0.0447 0.84375,0 0.23204,0.04468 0.0422,0.08124 -0.42187,0.08124 -0.46406,0 -0.65391,-0.03656 -0.42188,-0.08124 z m 2.8125,-0.1875 c 0.23204,-0.0447 0.61172,-0.0447 0.84375,0 0.23204,0.04468 0.0422,0.08124 -0.42187,0.08124 -0.46406,0 -0.65391,-0.03656 -0.42188,-0.08124 z m 2.8147,-0.1878 c 0.23323,-0.04485 0.57073,-0.04314 0.75,0.0037 0.17925,0.04693 -0.0116,0.08362 -0.42407,0.08154 -0.4125,-0.0021 -0.55918,-0.04048 -0.32593,-0.08533 z m 2.6228,-0.1872 c 0.23204,-0.0447 0.61172,-0.0447 0.84375,0 0.23204,0.04468 0.0422,0.08124 -0.42187,0.08124 -0.46406,0 -0.65391,-0.03656 -0.42188,-0.08124 z m 2.8125,-0.1875 c 0.23204,-0.0447 0.61172,-0.0447 0.84375,0 0.23204,0.04468 0.0422,0.08124 -0.42187,0.08124 -0.46406,0 -0.65391,-0.03656 -0.42188,-0.08124 z m 2.8125,-0.1875 c 0.23204,-0.0447 0.61172,-0.0447 0.84375,0 0.23204,0.04468 0.0422,0.08124 -0.42187,0.08124 -0.46406,0 -0.65391,-0.03656 -0.42188,-0.08124 z m 2.8147,-0.1878 c 0.23323,-0.04485 0.57073,-0.04314 0.75,0.0037 0.17925,0.04693 -0.0116,0.08362 -0.42407,0.08154 -0.4125,-0.0021 -0.55918,-0.04048 -0.32593,-0.08533 z m -4.54907,-0.633487 c -3.50625,-0.291038 -16.58438,-1.336763 -29.0625,-2.323819 -30.69121,-2.427769 -55.27628,-4.4091 -55.48099,-4.471238 -0.0927,-0.02814 11.23199,-6.529462 25.1659,-14.4474 l 25.33439,-14.396218 2.9591,2.589122 c 2.83863,2.483711 24.38261,21.532853 33.30672,29.449721 2.35682,2.090813 4.37166,3.747975 4.47745,3.682613 0.10579,-0.06538 0.15502,-0.0069 0.1094,0.129881 -0.0456,0.136819 -0.16201,0.264 -0.25869,0.282619 -0.0967,0.01856 -3.04453,-0.204244 -6.55078,-0.495281 z m -195.1993,-0.968269 -0.5507,-0.609375 0.60938,0.550706 c 0.33515,0.302888 0.60937,0.577106 0.60937,0.609375 0,0.144863 -0.15471,0.01725 -0.66805,-0.550706 z M 361.2263,51.281299 c -3.0881,-21.598637 -3.75161,-26.597762 -3.55442,-26.780571 0.13335,-0.123622 2.87918,-1.717905 6.10184,-3.54285 5.33456,-3.020887 5.85937,-3.361753 5.85937,-3.805637 0,-0.268153 0.0419,-0.445693 0.093,-0.394532 0.0957,0.09566 -4.52948,60.905931 -4.64087,61.017343 -0.0341,0.03413 -1.77066,-11.888062 -3.85894,-26.493753 z M 162.23417,76.774065 c -0.23322,-0.297394 -0.22659,-0.304013 0.0708,-0.0708 0.31232,0.24495 0.41165,0.398925 0.25733,0.398925 -0.0389,0 -0.18659,-0.147656 -0.32813,-0.328125 z m -0.75,-0.9375 c -0.23322,-0.297394 -0.22659,-0.304013 0.0708,-0.0708 0.31232,0.24495 0.41165,0.398925 0.25733,0.398925 -0.0389,0 -0.18659,-0.147656 -0.32813,-0.328125 z M 187.9258,62.914027 c -0.21686,-0.498075 -2.52812,-6.010275 -5.13614,-12.249337 -4.95434,-11.852074 -8.83425,-20.921987 -10.29905,-24.075645 -0.47436,-1.021294 -0.83053,-1.888843 -0.79149,-1.927888 0.0391,-0.03905 0.17696,0.184839 0.30648,0.497522 0.15887,0.383557 0.36655,0.568511 0.63836,0.568511 0.22158,0 11.15066,-1.603125 24.28684,-3.5625 13.13618,-1.959375 23.91002,-3.5625 23.94185,-3.5625 0.0318,0 0.15917,-0.338044 0.28295,-0.751209 0.12379,-0.413164 0.25739,-0.718894 0.29688,-0.679399 0.0704,0.07037 -6.9454,23.334467 -10.66599,35.368108 -1.03625,3.351562 -2.01503,6.54495 -2.17507,7.096425 -0.19436,0.669694 -0.42069,1.054819 -0.68154,1.159725 -0.2148,0.08638 -4.48273,0.755812 -9.48429,1.487644 -5.00156,0.731831 -9.3259,1.37685 -9.60963,1.433362 -0.47026,0.09366 -0.55075,0.02267 -0.91016,-0.802819 z m -33.90291,-4.671206 c 0.009,-0.218437 0.0534,-0.262856 0.11328,-0.113287 0.0542,0.135356 0.0475,0.297075 -0.0148,0.359381 -0.0623,0.06231 -0.10662,-0.04845 -0.0985,-0.246094 z m -0.375,-2.0625 c 0.009,-0.218437 0.0534,-0.262856 0.11328,-0.113287 0.0542,0.135356 0.0475,0.297075 -0.0148,0.359381 -0.0623,0.06231 -0.10662,-0.04845 -0.0985,-0.246094 z m -0.1875,-1.125 c 0.009,-0.218437 0.0534,-0.262856 0.11328,-0.113287 0.0542,0.135356 0.0475,0.297075 -0.0148,0.359381 -0.0623,0.06231 -0.10662,-0.04845 -0.0985,-0.246094 z m -0.1875,-1.312505 c 0.009,-0.218429 0.0534,-0.262857 0.11328,-0.113282 0.0542,0.13535 0.0475,0.297075 -0.0148,0.359381 -0.0623,0.06231 -0.10662,-0.04845 -0.0985,-0.246099 z M 153.1002,52.16469 c 0,-0.257813 0.0425,-0.363281 0.0946,-0.234375 0.052,0.128906 0.052,0.339844 0,0.46875 -0.052,0.128906 -0.0946,0.02344 -0.0946,-0.234375 z m -0.18056,-1.96875 c 0.004,-0.309375 0.0459,-0.413239 0.0934,-0.230807 0.0475,0.182432 0.0444,0.435557 -0.007,0.5625 -0.0514,0.126943 -0.0903,-0.02232 -0.0864,-0.331693 z m -0.16786,-3.28125 c 0,-0.567187 0.0352,-0.799219 0.0781,-0.515625 0.043,0.283594 0.043,0.747656 0,1.03125 -0.043,0.283594 -0.0781,0.05156 -0.0781,-0.515625 z m 0.0305,-3.00222 c 0.0624,-0.875342 0.36455,-6.949343 0.67138,-13.49778 0.92678,-19.780125 1.30612,-27.2598695 1.40497,-27.7031251 0.0628,-0.2815706 0.2332,-0.4231706 0.51239,-0.4257694 0.23006,-0.00214 1.59955,-0.1262081 3.0433,-0.2757 4.08078,-0.4225425 3.71353,-0.5142637 4.31012,1.0764694 0.28041,0.7476562 1.5539,4.3037475 2.82999,7.9024241 1.27608,3.598676 2.46972,6.719096 2.65252,6.934267 0.27465,0.323286 0.27817,0.349401 0.0202,0.150392 -0.27667,-0.213465 -0.42836,-0.032 -1.33503,1.596981 -1.89641,3.407259 -9.25518,16.803174 -11.66999,21.244061 -1.31778,2.423437 -2.43139,4.447438 -2.47469,4.49778 -0.0433,0.05034 -0.0276,-0.62466 0.0348,-1.5 z m 17.3911,-22.224641 c -0.63987,-1.284602 -1.1223,-2.335639 -1.07206,-2.335639 0.12418,0 2.38406,4.522687 2.30126,4.605491 -0.0362,0.03618 -0.58932,-0.98525 -1.2292,-2.269852 z m 51.72449,-6.195013 c 0.009,-0.218429 0.0534,-0.262857 0.11328,-0.113282 0.0542,0.13535 0.0475,0.297071 -0.0148,0.359375 -0.0623,0.0623 -0.10662,-0.04844 -0.0985,-0.246093 z M 369.86788,14.94594 c 0.002,-0.4125 0.0405,-0.559172 0.0853,-0.325939 0.0448,0.233233 0.0431,0.570733 -0.004,0.75 -0.0469,0.179267 -0.0836,-0.01157 -0.0815,-0.424061 z m 0.18371,-2.34375 c 0,-0.360937 0.0386,-0.508594 0.0857,-0.328125 0.0472,0.180469 0.0472,0.475781 0,0.65625 -0.0472,0.180469 -0.0857,0.03281 -0.0857,-0.328125 z M 180.60828,11.323798 c -0.57884,-0.108669 -2.10272,-1.5025311 -10.15361,-9.2872893 -6.36855,-6.1580363 -9.51072,-9.3222319 -9.58902,-9.65625 -0.31005,-1.3225163 -0.33227,-7.1247727 -0.037,-9.6570167 0.49595,-4.25317 2.0203,-10.959956 2.46068,-10.826421 0.10313,0.03127 8.52916,8.126989 18.72453,17.990486 10.19537,9.8634979 18.66283,17.9800354 18.81658,18.0367504 0.30701,0.1132425 0.0944,0.1894594 -3.41611,1.2244055 -2.60519,0.768052 -5.66023,1.4535671 -8.28338,1.8586951 -2.04006,0.315071 -7.45868,0.516388 -8.52268,0.31664 z M 370.23909,10.16469 c 0,-0.3609371 0.0386,-0.5085941 0.0857,-0.3281251 0.0472,0.1804691 0.0472,0.4757811 0,0.6562501 -0.0472,0.180469 -0.0857,0.03281 -0.0857,-0.328125 z m 0.1875,-2.4375001 c 0,-0.3609375 0.0386,-0.5085937 0.0857,-0.328125 0.0472,0.1804687 0.0472,0.4757813 0,0.65625 -0.0472,0.180469 -0.0857,0.032813 -0.0857,-0.328125 z m 0.1875,-2.4375 c 0,-0.3609375 0.0386,-0.5085937 0.0857,-0.328125 0.0472,0.1804687 0.0472,0.4757813 0,0.65625 -0.0472,0.1804687 -0.0857,0.032812 -0.0857,-0.328125 z m -144.32475,-1.6875 c 0.50787,-0.515625 0.96559,-0.9375 1.01715,-0.9375 0.0516,0 -0.32178,0.421875 -0.82965,0.9375 -0.50787,0.515625 -0.96559,0.9375 -1.01715,0.9375 -0.0516,0 0.32178,-0.421875 0.82965,-0.9375 z m 144.51225,-0.75 c 0,-0.3609375 0.0386,-0.5085937 0.0857,-0.328125 0.0472,0.1804687 0.0472,0.4757813 0,0.65625 -0.0472,0.1804687 -0.0857,0.032812 -0.0857,-0.328125 z m -141.981,-1.59375 c 0.56014,-0.5671875 1.06063,-1.03125 1.11219,-1.03125 0.0516,0 -0.36455,0.4640625 -0.92469,1.03125 -0.56014,0.5671875 -1.06063,1.03125 -1.11219,1.03125 -0.0516,0 0.36455,-0.4640625 0.92469,-1.03125 z m 142.1685,-0.84375 c 0,-0.3609375 0.0386,-0.5085937 0.0857,-0.328125 0.0472,0.1804687 0.0472,0.4757813 0,0.65625 -0.0472,0.1804687 -0.0857,0.032812 -0.0857,-0.328125 z M 230.32059,0.0013911 c 0,-0.1590506 36.71247,-34.2578701 38.15625,-35.4398121 l 0.5625,-0.460486 12.09375,-0.597623 c 6.65156,-0.328691 12.36524,-0.620559 12.69707,-0.648594 0.55488,-0.04688 0.59408,-0.01418 0.48828,0.407387 -0.087,0.346788 -0.0556,0.421595 0.12934,0.307323 0.18131,-0.112057 0.21709,-0.04669 0.13865,0.253285 -0.0582,0.222375 -0.0194,0.404319 0.0861,0.404319 0.1055,0 0.14769,0.16875 0.0937,0.375 -0.0539,0.20625 -0.0117,0.375 0.0937,0.375 0.1055,0 0.14875,0.164704 0.0961,0.366009 -0.0526,0.201306 -0.0375,0.39115 0.0337,0.421875 0.14036,0.06057 7.35205,28.5033059 7.25233,28.6030203 -0.0333,0.033302 -15.74412,0.8653537 -34.91294,1.8490031 l -34.8524,1.7884556 -1.07813,1.05807377 c -0.59296,0.58194183 -1.07812,1.00393503 -1.07812,0.93776433 z m 140.856,-2.0242012 c 0,-0.3609375 0.0386,-0.5085937 0.0857,-0.328125 0.0472,0.1804687 0.0472,0.4757813 0,0.65625 -0.0472,0.1804688 -0.0857,0.032813 -0.0857,-0.328125 z m 0.18054,-2.53125 c 0.004,-0.309375 0.0459,-0.4132388 0.0934,-0.2308069 0.0475,0.1824319 0.0444,0.4355569 -0.007,0.5625 -0.0514,0.1269431 -0.0902,-0.022318 -0.0864,-0.3316931 z m 0.1875,-2.4375 c 0.004,-0.309375 0.0459,-0.4132388 0.0934,-0.2308069 0.0475,0.1824319 0.0444,0.4355569 -0.007,0.5625 -0.0514,0.1269431 -0.0902,-0.022318 -0.0864,-0.3316931 z m 0.1875,-2.4375 c 0.004,-0.309375 0.0459,-0.4132388 0.0934,-0.2308069 0.0475,0.1824319 0.0444,0.4355569 -0.007,0.5625 -0.0514,0.1269431 -0.0902,-0.022318 -0.0864,-0.3316931 z m 0.1875,-2.4374999 c 0.004,-0.309375 0.0459,-0.413239 0.0934,-0.230807 0.0475,0.182432 0.0444,0.435557 -0.007,0.5625 -0.0514,0.126943 -0.0902,-0.02232 -0.0864,-0.331693 z m -133.16154,-1.664543 c 0,-0.03893 0.14766,-0.18659 0.32812,-0.328125 0.29739,-0.233225 0.30402,-0.226593 0.0708,0.07079 -0.24495,0.312328 -0.39892,0.411652 -0.39892,0.257332 z m 133.34904,-0.772957 c 0.004,-0.309375 0.0459,-0.413239 0.0934,-0.230807 0.0475,0.182432 0.0444,0.435557 -0.007,0.5625 -0.0514,0.126943 -0.0902,-0.02232 -0.0864,-0.331693 z m -132.59904,0.210457 c 0,-0.03893 0.14766,-0.18659 0.32812,-0.328125 0.29739,-0.233225 0.30402,-0.226593 0.0708,0.07079 -0.24495,0.312328 -0.39892,0.411652 -0.39892,0.257332 z m 0.9375,-0.75 c 0,-0.03893 0.14766,-0.18659 0.32812,-0.328125 0.29739,-0.233225 0.30402,-0.226593 0.0708,0.07079 -0.24495,0.312328 -0.39892,0.411652 -0.39892,0.257332 z m 131.84904,-1.897957 c 0.004,-0.309375 0.0459,-0.413239 0.0934,-0.230807 0.0475,0.182432 0.0444,0.435557 -0.007,0.5625 -0.0514,0.126943 -0.0902,-0.02232 -0.0864,-0.331693 z m -128.94279,-0.46875 c 0.18665,-0.20625 0.38156,-0.375 0.43312,-0.375 0.0516,0 -0.059,0.16875 -0.24562,0.375 -0.18665,0.20625 -0.38156,0.375 -0.43312,0.375 -0.0516,0 0.059,-0.16875 0.24562,-0.375 z m 0.84375,-0.633293 c 0,-0.03893 0.14766,-0.18659 0.32812,-0.328125 0.29739,-0.233225 0.30402,-0.226593 0.0708,0.07079 -0.24495,0.312328 -0.39892,0.411652 -0.39892,0.257332 z m 1.125,-0.9375 c 0,-0.03893 0.14766,-0.18659 0.32812,-0.328125 0.29739,-0.233225 0.30402,-0.226593 0.0708,0.07079 -0.24495,0.312328 -0.39892,0.411652 -0.39892,0.257332 z m 127.16154,-0.397957 c 0.004,-0.309375 0.0459,-0.413239 0.0934,-0.230807 0.0475,0.182432 0.0444,0.435557 -0.007,0.5625 -0.0514,0.126943 -0.0902,-0.02232 -0.0864,-0.331693 z m -125.94279,-0.65625 c 0.18665,-0.20625 0.38156,-0.375 0.43312,-0.375 0.0516,0 -0.059,0.16875 -0.24562,0.375 -0.18665,0.20625 -0.38156,0.375 -0.43312,0.375 -0.0516,0 0.059,-0.16875 0.24562,-0.375 z m 1.3125,-1.125 c 0.18665,-0.20625 0.38156,-0.375 0.43312,-0.375 0.0516,0 -0.059,0.16875 -0.24562,0.375 -0.18665,0.20625 -0.38156,0.375 -0.43312,0.375 -0.0516,0 0.059,-0.16875 0.24562,-0.375 z m 124.81779,-0.65625 c 0.004,-0.309375 0.0459,-0.413239 0.0934,-0.230807 0.0475,0.182432 0.0444,0.435557 -0.007,0.5625 -0.0514,0.126943 -0.0902,-0.02232 -0.0864,-0.331693 z m -123.41154,-0.5625 c 0.2422,-0.257813 0.48256,-0.46875 0.53412,-0.46875 0.0516,0 -0.10442,0.210937 -0.34662,0.46875 -0.2422,0.257812 -0.48256,0.46875 -0.53412,0.46875 -0.0516,0 0.10442,-0.210938 0.34662,-0.46875 z m 1.6875,-1.5 c 0.2422,-0.257813 0.48256,-0.46875 0.53412,-0.46875 0.0516,0 -0.10442,0.210937 -0.34662,0.46875 -0.2422,0.257812 -0.48256,0.46875 -0.53412,0.46875 -0.0516,0 0.10442,-0.210938 0.34662,-0.46875 z m 121.91154,-0.375 c 0.004,-0.309375 0.0459,-0.413239 0.0934,-0.230807 0.0475,0.182432 0.0444,0.435557 -0.007,0.5625 -0.0514,0.126943 -0.0902,-0.02232 -0.0864,-0.331693 z m -120.03654,-1.3125 c 0.34983,-0.360937 0.67825,-0.65625 0.72981,-0.65625 0.0516,0 -0.19248,0.295313 -0.54231,0.65625 -0.34983,0.360937 -0.67825,0.65625 -0.72981,0.65625 -0.0516,0 0.19248,-0.295313 0.54231,-0.65625 z m 120.22404,-1.125 c 0.004,-0.309375 0.0459,-0.413239 0.0934,-0.230807 0.0475,0.182432 0.0444,0.435557 -0.007,0.5625 -0.0514,0.126943 -0.0902,-0.02232 -0.0864,-0.331693 z m -117.50529,-1.40625 c 0.50787,-0.515625 0.96559,-0.9375 1.01715,-0.9375 0.0516,0 -0.32178,0.421875 -0.82965,0.9375 -0.50787,0.515625 -0.96559,0.9375 -1.01715,0.9375 -0.0516,0 0.32178,-0.421875 0.82965,-0.9375 z m 117.69975,-1.125 c 0,-0.360937 0.0386,-0.508594 0.0857,-0.328125 0.0472,0.180469 0.0472,0.475781 0,0.65625 -0.0472,0.180469 -0.0857,0.03281 -0.0857,-0.328125 z m -113.57475,-2.8125 c 0.50787,-0.515625 0.96559,-0.9375 1.01715,-0.9375 0.0516,0 -0.32178,0.421875 -0.82965,0.9375 -0.50787,0.515625 -0.96559,0.9375 -1.01715,0.9375 -0.0516,0 0.32178,-0.421875 0.82965,-0.9375 z m 113.76225,0.375 c 0,-0.360937 0.0386,-0.508594 0.0857,-0.328125 0.0472,0.180469 0.0472,0.475781 0,0.65625 -0.0472,0.180469 -0.0857,0.03281 -0.0857,-0.328125 z m 0.18054,-2.53125 c 0.004,-0.309375 0.0459,-0.413239 0.0934,-0.230807 0.0475,0.182432 0.0444,0.435557 -0.007,0.5625 -0.0514,0.126943 -0.0902,-0.02232 -0.0864,-0.331693 z m -109.44279,-2.53125 c 0.61229,-0.61875 1.15545,-1.125 1.20701,-1.125 0.0516,0 -0.40722,0.50625 -1.01951,1.125 -0.61229,0.61875 -1.15545,1.125 -1.20701,1.125 -0.0516,0 0.40722,-0.50625 1.01951,-1.125 z m 109.63029,0.09375 c 0.004,-0.309375 0.0459,-0.413239 0.0934,-0.230807 0.0475,0.182432 0.0444,0.435557 -0.007,0.5625 -0.0514,0.126943 -0.0902,-0.02232 -0.0864,-0.331693 z m -107.84904,-2.027421 c 0,-0.03227 0.27422,-0.306487 0.60937,-0.609375 l 0.60938,-0.550704 -0.5507,0.609375 c -0.51334,0.568024 -0.66805,0.695559 -0.66805,0.550704 z m 108.03654,-0.410079 c 0.004,-0.309375 0.0459,-0.413239 0.0934,-0.230807 0.0475,0.182432 0.0444,0.435557 -0.007,0.5625 -0.0514,0.126943 -0.0902,-0.02232 -0.0864,-0.331693 z m -106.34904,-1.464921 c 0,-0.03227 0.27422,-0.306487 0.60937,-0.609375 l 0.60938,-0.550704 -0.5507,0.609375 c -0.51334,0.568024 -0.66805,0.695559 -0.66805,0.550704 z m 106.53654,-0.972579 c 0.004,-0.309375 0.0459,-0.413239 0.0934,-0.230807 0.0475,0.182432 0.0444,0.435557 -0.007,0.5625 -0.0514,0.126943 -0.0902,-0.02232 -0.0864,-0.331693 z m -104.75529,-1.03125 c 0.18665,-0.20625 0.38156,-0.375 0.43312,-0.375 0.0516,0 -0.059,0.16875 -0.24562,0.375 -0.18665,0.20625 -0.38156,0.375 -0.43312,0.375 -0.0516,0 0.059,-0.16875 0.24562,-0.375 z m 1.21875,-1.40625 c 0.2422,-0.257813 0.48256,-0.46875 0.53412,-0.46875 0.0516,0 -0.10442,0.210937 -0.34662,0.46875 -0.2422,0.257812 -0.48256,0.46875 -0.53412,0.46875 -0.0516,0 0.10442,-0.210938 0.34662,-0.46875 z m 103.72404,0 c 0.004,-0.309375 0.0459,-0.413239 0.0934,-0.230807 0.0475,0.182432 0.0444,0.435557 -0.007,0.5625 -0.0514,0.126943 -0.0902,-0.02232 -0.0864,-0.331693 z m -102.69279,-1.21875 c 0.18665,-0.20625 0.38156,-0.375 0.43312,-0.375 0.0516,0 -0.059,0.16875 -0.24562,0.375 -0.18665,0.20625 -0.38156,0.375 -0.43312,0.375 -0.0516,0 0.059,-0.16875 0.24562,-0.375 z m 0.65625,-0.820793 c 0,-0.03893 0.14766,-0.18659 0.32812,-0.328125 0.29739,-0.233225 0.30402,-0.226593 0.0708,0.07079 -0.24495,0.312328 -0.39892,0.411652 -0.39892,0.257332 z m 102.22404,-0.397957 c 0.004,-0.309375 0.0459,-0.413239 0.0934,-0.230807 0.0475,0.182432 0.0444,0.435557 -0.007,0.5625 -0.0514,0.126943 -0.0902,-0.02232 -0.0864,-0.331693 z m -101.19279,-0.84375 c 0.18665,-0.20625 0.38156,-0.375 0.43312,-0.375 0.0516,0 -0.059,0.16875 -0.24562,0.375 -0.18665,0.20625 -0.38156,0.375 -0.43312,0.375 -0.0516,0 0.059,-0.16875 0.24562,-0.375 z m 0.65625,-0.820793 c 0,-0.03893 0.14766,-0.18659 0.32812,-0.328125 0.29739,-0.233225 0.30402,-0.226593 0.0708,0.07079 -0.24495,0.312328 -0.39892,0.411652 -0.39892,0.257332 z m 100.72404,-0.772957 c 0.004,-0.309375 0.0459,-0.413239 0.0934,-0.230807 0.0475,0.182432 0.0444,0.435557 -0.007,0.5625 -0.0514,0.126943 -0.0902,-0.02232 -0.0864,-0.331693 z m -99.97404,-0.164543 c 0,-0.03893 0.14766,-0.18659 0.32812,-0.328125 0.29739,-0.233225 0.30402,-0.226593 0.0708,0.07079 -0.24495,0.312328 -0.39892,0.411652 -0.39892,0.257332 z m 0.5625,-0.75 c 0,-0.03893 0.14766,-0.18659 0.32812,-0.328125 0.29739,-0.233225 0.30402,-0.226593 0.0708,0.07079 -0.24495,0.312328 -0.39892,0.411652 -0.39892,0.257332 z m 0.75,-0.9375 c 0,-0.03893 0.14766,-0.18659 0.32812,-0.328125 0.29739,-0.233225 0.30402,-0.226593 0.0708,0.07079 -0.24495,0.312328 -0.39892,0.411652 -0.39892,0.257332 z m 98.84904,-0.585457 c 0.004,-0.309375 0.0459,-0.413239 0.0934,-0.230807 0.0475,0.182432 0.0444,0.435557 -0.007,0.5625 -0.0514,0.126943 -0.0902,-0.02232 -0.0864,-0.331693 z m -98.28654,-0.164543 c 0,-0.03893 0.14766,-0.18659 0.32812,-0.328125 0.29739,-0.233225 0.30402,-0.226593 0.0708,0.07079 -0.24495,0.312328 -0.39892,0.411652 -0.39892,0.257332 z m 0.5625,-0.75 c 0,-0.03893 0.14766,-0.18659 0.32812,-0.328125 0.29739,-0.233225 0.30402,-0.226593 0.0708,0.07079 -0.24495,0.312328 -0.39892,0.411652 -0.39892,0.257332 z m 97.91154,-1.522957 c 0.004,-0.309375 0.0459,-0.413239 0.0934,-0.230807 0.0475,0.182432 0.0444,0.435557 -0.007,0.5625 -0.0514,0.126943 -0.0902,-0.02232 -0.0864,-0.331693 z m -96.22404,-0.727043 c 0,-0.03893 0.14766,-0.18659 0.32812,-0.328125 0.29739,-0.233225 0.30402,-0.226593 0.0708,0.07079 -0.24495,0.312328 -0.39892,0.411652 -0.39892,0.257332 z m 10.80441,-0.780206 c -0.18093,-0.471504 -0.12755,-0.593165 0.0935,-0.213064 0.10944,0.188204 0.15949,0.381687 0.11121,0.429962 -0.0483,0.04828 -0.14039,-0.04933 -0.20469,-0.216898 z m -9.86691,-0.532294 c 0,-0.03893 0.14766,-0.18659 0.32812,-0.328125 0.29739,-0.233225 0.30402,-0.226593 0.0708,0.07079 -0.24495,0.312328 -0.39892,0.411652 -0.39892,0.257332 z m 95.481,-0.491707 c 0,-0.360938 0.0386,-0.508594 0.0857,-0.328125 0.0472,0.180469 0.0472,0.475781 0,0.65625 -0.0472,0.180469 -0.0857,0.03281 -0.0857,-0.328125 z m 0.1875,-2.4375 c 0,-0.360938 0.0386,-0.508594 0.0857,-0.328125 0.0472,0.180469 0.0472,0.475781 0,0.65625 -0.0472,0.180469 -0.0857,0.03281 -0.0857,-0.328125 z m 0.18054,-2.53125 c 0.004,-0.309375 0.0459,-0.413239 0.0934,-0.230807 0.0475,0.182432 0.0444,0.435557 -0.007,0.5625 -0.0514,0.126943 -0.0902,-0.02232 -0.0864,-0.331693 z m 0.1875,-2.4375 c 0.004,-0.309375 0.0459,-0.413239 0.0934,-0.230807 0.0475,0.182432 0.0444,0.435557 -0.007,0.5625 -0.0514,0.126943 -0.0902,-0.02232 -0.0864,-0.331693 z m -83.02964,-2.083843 c 5.55892,-17.730591 9.10903,-28.807628 9.2958,-29.004709 0.0787,-0.08308 5.09313,-1.281587 11.14309,-2.663353 6.04997,-1.381764 11.07432,-2.558271 11.16523,-2.614455 0.0909,-0.05619 0.43293,0.214196 0.76004,0.600851 0.32712,0.386655 0.53977,0.576446 0.47256,0.421759 -0.0672,-0.154688 0.0641,-0.07031 0.29189,0.1875 0.22774,0.257812 0.48244,0.449274 0.566,0.425469 0.0836,-0.0238 0.31658,0.166039 0.51782,0.421875 0.20124,0.255837 0.45309,0.465156 0.55967,0.465156 0.10658,0 0.36313,0.215287 0.5701,0.478416 0.20698,0.263128 0.42733,0.470056 0.48966,0.459841 0.1384,-0.02268 36.09874,29.425214 36.09874,29.561232 0,0.05316 -0.65391,-0.442313 -1.45313,-1.101058 -1.43679,-1.18426 -12.31691,-9.996555 -12.7289,-10.309712 -0.12879,-0.0979 -11.43343,2.400215 -28.54089,6.307012 -15.58019,3.558019 -28.55058,6.525083 -28.82309,6.593477 -0.42511,0.106697 -0.47972,0.07414 -0.38459,-0.229301 z m 32.1806,-33.7057 c 0,-0.03893 -0.14766,-0.18659 -0.32813,-0.328125 -0.29738,-0.233225 -0.30401,-0.226593 -0.0708,0.07079 0.24495,0.312328 0.39892,0.411652 0.39892,0.257332 z m 40.57811,33.150996 -0.73436,-0.669797 0.79687,0.607427 c 0.72814,0.55504 0.90582,0.732167 0.73437,0.732167 -0.0344,0 -0.39298,-0.301408 -0.79688,-0.669797 z m 10.45843,0.201047 c 0.004,-0.309375 0.0459,-0.413239 0.0934,-0.230807 0.0475,0.182432 0.0444,0.435557 -0.007,0.5625 -0.0514,0.126943 -0.0902,-0.02232 -0.0864,-0.331693 z m -87.88029,-2.53125 c 0.15998,-0.309375 0.33307,-0.5625 0.38463,-0.5625 0.0516,0 -0.0371,0.253125 -0.19713,0.5625 -0.15998,0.309375 -0.33307,0.5625 -0.38463,0.5625 -0.0516,0 0.0371,-0.253125 0.19713,-0.5625 z m 88.06779,0.09375 c 0.004,-0.309375 0.0459,-0.413239 0.0934,-0.230807 0.0475,0.182432 0.0444,0.435557 -0.007,0.5625 -0.0514,0.126943 -0.0902,-0.02232 -0.0864,-0.331693 z m -191.28654,0.210457 c 0,-0.03893 0.14766,-0.18659 0.32812,-0.328125 0.29739,-0.233225 0.30402,-0.226593 0.0708,0.07079 -0.24495,0.312328 -0.39892,0.411652 -0.39892,0.257332 z m 103.96875,-1.616707 c 0.15998,-0.309375 0.33307,-0.5625 0.38463,-0.5625 0.0516,0 -0.0371,0.253125 -0.19713,0.5625 -0.15998,0.309375 -0.33307,0.5625 -0.38463,0.5625 -0.0516,0 0.0371,-0.253125 0.19713,-0.5625 z M 186.25809,-69.7811 c 0,-0.03893 0.14766,-0.18659 0.32812,-0.328125 0.29739,-0.233225 0.30402,-0.226593 0.0708,0.07079 -0.24495,0.312328 -0.39892,0.411652 -0.39892,0.257332 z m 190.16154,-0.960457 c 0.004,-0.309375 0.0459,-0.413239 0.0934,-0.230807 0.0475,0.182432 0.0444,0.435557 -0.007,0.5625 -0.0514,0.126943 -0.0902,-0.02232 -0.0864,-0.331693 z m -87.03584,0.176511 c -3.7e-4,-0.109168 -10.7168,-10.563863 -23.81425,-23.232651 l -23.81356,-23.034163 0.61043,-0.3737 c 1.21513,-0.74388 7.32755,-3.68263 10.1597,-4.88461 6.04298,-2.56468 12.8297,-4.58154 18.15262,-5.39458 3.56398,-0.54437 8.93046,-0.5856 11.67311,-0.0897 5.84177,1.05627 10.11955,3.53128 13.2238,7.65094 6.17973,8.20111 6.1344,20.939762 -0.13128,36.900703 -1.57106,4.002054 -6.05786,13.224864 -6.06057,12.457761 z M 187.19559,-70.9061 c 0,-0.03893 0.14766,-0.18659 0.32812,-0.328125 0.29739,-0.233225 0.30402,-0.226593 0.0708,0.07079 -0.24495,0.312328 -0.39892,0.411652 -0.39892,0.257332 z m 0.75,-0.9375 c 0,-0.03893 0.14766,-0.18659 0.32812,-0.328125 0.29739,-0.233225 0.30402,-0.226593 0.0708,0.07079 -0.24495,0.312328 -0.39892,0.411652 -0.39892,0.257332 z m 188.66154,-1.335457 c 0.004,-0.309375 0.0459,-0.413239 0.0934,-0.230807 0.0475,0.182432 0.0444,0.435557 -0.007,0.5625 -0.0514,0.126943 -0.0902,-0.02232 -0.0864,-0.331693 z M 188.88309,-72.9686 c 0,-0.03893 0.14766,-0.18659 0.32812,-0.328125 0.29739,-0.233225 0.30402,-0.226593 0.0708,0.07079 -0.24495,0.312328 -0.39892,0.411652 -0.39892,0.257332 z m 1.125,-1.3125 c 0,-0.03893 0.14766,-0.18659 0.32812,-0.328125 0.29739,-0.233225 0.30402,-0.226593 0.0708,0.07079 -0.24495,0.312328 -0.39892,0.411652 -0.39892,0.257332 z m 186.78654,-1.335457 c 0.004,-0.309375 0.0459,-0.413239 0.0934,-0.230807 0.0475,0.182432 0.0444,0.435557 -0.007,0.5625 -0.0514,0.126943 -0.0902,-0.02232 -0.0864,-0.331693 z m -185.56779,-0.09375 c 0.18665,-0.20625 0.38156,-0.375 0.43312,-0.375 0.0516,0 -0.059,0.16875 -0.24562,0.375 -0.18665,0.20625 -0.38156,0.375 -0.43312,0.375 -0.0516,0 0.059,-0.16875 0.24562,-0.375 z m 1.03125,-1.183671 c 0,-0.03227 0.27422,-0.306487 0.60937,-0.609375 l 0.60938,-0.550704 -0.5507,0.609375 c -0.51334,0.568024 -0.66805,0.695559 -0.66805,0.550704 z m 184.72404,-1.160079 c 0.004,-0.309375 0.0459,-0.413239 0.0934,-0.230807 0.0475,0.182432 0.0444,0.435557 -0.007,0.5625 -0.0514,0.126943 -0.0902,-0.02232 -0.0864,-0.331693 z m -182.47404,-1.3125 c 0.34983,-0.360938 0.67825,-0.65625 0.72981,-0.65625 0.0516,0 -0.19248,0.295312 -0.54231,0.65625 -0.34983,0.360937 -0.67825,0.65625 -0.72981,0.65625 -0.0516,0 0.19248,-0.295313 0.54231,-0.65625 z m 182.66154,-1.125 c 0.004,-0.309375 0.0459,-0.413239 0.0934,-0.230807 0.0475,0.182432 0.0444,0.435557 -0.007,0.5625 -0.0514,0.126943 -0.0902,-0.02232 -0.0864,-0.331693 z m -179.00529,-2.71875 c 1.02738,-1.03125 1.91015,-1.875 1.96171,-1.875 0.0516,0 -0.74683,0.84375 -1.77421,1.875 -1.02738,1.03125 -1.91015,1.875 -1.96171,1.875 -0.0516,0 0.74683,-0.84375 1.77421,-1.875 z m 179.18586,0.375 c 0,-0.257813 0.0426,-0.363281 0.0946,-0.234375 0.052,0.128906 0.052,0.339844 0,0.46875 -0.052,0.128906 -0.0946,0.02344 -0.0946,-0.234375 z m 0.19443,-2.34375 c 0.004,-0.309375 0.0459,-0.413239 0.0934,-0.230807 0.0475,0.182432 0.0444,0.435557 -0.007,0.5625 -0.0514,0.126943 -0.0902,-0.02232 -0.0864,-0.331693 z m -174.88029,-2.53125 c 0.92383,-0.928125 1.72187,-1.6875 1.77343,-1.6875 0.0516,0 -0.6621,0.759375 -1.58593,1.6875 -0.92383,0.928125 -1.72187,1.6875 -1.77343,1.6875 -0.0516,0 0.6621,-0.759375 1.58593,-1.6875 z m 3.46091,-3.234375 c 0.45976,-0.489844 0.86054,-0.890625 0.89063,-0.890625 0.14079,0 -0.008,0.168343 -0.83592,0.945336 l -0.89062,0.835914 z m 2.07034,-1.921875 c 0.2422,-0.257813 0.48256,-0.46875 0.53412,-0.46875 0.0516,0 -0.10442,0.210937 -0.34662,0.46875 -0.2422,0.257812 -0.48256,0.46875 -0.53412,0.46875 -0.0516,0 0.10442,-0.210938 0.34662,-0.46875 z m 169.34904,-0.75 c 0.004,-0.309375 0.0459,-0.413239 0.0934,-0.230807 0.0475,0.182432 0.0444,0.435557 -0.007,0.5625 -0.0514,0.126943 -0.0902,-0.02232 -0.0864,-0.331693 z m -167.66154,-0.75 c 0.2422,-0.257813 0.48256,-0.46875 0.53412,-0.46875 0.0516,0 -0.10442,0.210937 -0.34662,0.46875 -0.2422,0.257812 -0.48256,0.46875 -0.53412,0.46875 -0.0516,0 0.10442,-0.210938 0.34662,-0.46875 z m 1.40625,-1.21875 c 0.18665,-0.20625 0.38156,-0.375 0.43312,-0.375 0.0516,0 -0.059,0.16875 -0.24562,0.375 -0.18665,0.20625 -0.38156,0.375 -0.43312,0.375 -0.0516,0 0.059,-0.16875 0.24562,-0.375 z m 166.04604,-0.484374 c 0.009,-0.218428 0.0534,-0.262857 0.11329,-0.113282 0.0542,0.13535 0.0475,0.297069 -0.0148,0.359375 -0.0623,0.0623 -0.10663,-0.04844 -0.0985,-0.246093 z M 212.50809,-96.61656 c 0.2422,-0.257813 0.48256,-0.46875 0.53412,-0.46875 0.0516,0 -0.10442,0.210937 -0.34662,0.46875 -0.2422,0.257812 -0.48256,0.46875 -0.53412,0.46875 -0.0516,0 0.10442,-0.210938 0.34662,-0.46875 z m 1.21875,-1.03125 c 0.18665,-0.20625 0.38156,-0.375 0.43312,-0.375 0.0516,0 -0.059,0.16875 -0.24562,0.375 -0.18665,0.20625 -0.38156,0.375 -0.43312,0.375 -0.0516,0 0.059,-0.16875 0.24562,-0.375 z m 163.42104,-0.109374 c 0.009,-0.218428 0.0534,-0.262857 0.11329,-0.113282 0.0542,0.13535 0.0475,0.297069 -0.0148,0.359375 -0.0623,0.0623 -0.10663,-0.04844 -0.0985,-0.246093 z m -162.57729,-0.523919 c 0,-0.03893 0.14766,-0.18659 0.32812,-0.328125 0.29739,-0.233225 0.30402,-0.226593 0.0708,0.07079 -0.24495,0.312328 -0.39892,0.411652 -0.39892,0.257332 z m 162.38979,-0.788581 c 0.009,-0.218428 0.0534,-0.262857 0.11329,-0.113282 0.0542,0.13535 0.0475,0.297069 -0.0148,0.359375 -0.0623,0.0623 -0.10663,-0.04844 -0.0985,-0.246093 z M 215.78934,-99.33531 c 0.18665,-0.20625 0.38156,-0.375 0.43312,-0.375 0.0516,0 -0.059,0.16875 -0.24562,0.375 -0.18665,0.20625 -0.38156,0.375 -0.43312,0.375 -0.0516,0 0.059,-0.16875 0.24562,-0.375 z m 0.84375,-0.633293 c 0,-0.03893 0.14766,-0.186587 0.32812,-0.328127 0.29739,-0.23322 0.30402,-0.22659 0.0708,0.0708 -0.24495,0.31233 -0.39892,0.411654 -0.39892,0.257334 z m 107.03858,-0.444837 c -0.23322,-0.29738 -0.22659,-0.30401 0.0708,-0.0708 0.31233,0.24495 0.41166,0.39892 0.25734,0.39892 -0.0389,0 -0.18659,-0.14765 -0.32813,-0.32812 z m -106.10108,-0.30516 c 0,-0.0389 0.14766,-0.18659 0.32812,-0.32813 0.29739,-0.23322 0.30402,-0.22659 0.0708,0.0708 -0.24495,0.31233 -0.39892,0.41165 -0.39892,0.25733 z m 105.07594,-0.53859 -0.35719,-0.42187 0.42187,0.35719 c 0.39646,0.33566 0.50724,0.48656 0.35719,0.48656 -0.0356,0 -0.22542,-0.18984 -0.42187,-0.42188 z m -104.32594,-0.0239 c 0,-0.0389 0.14766,-0.18659 0.32812,-0.32812 0.29739,-0.23323 0.30402,-0.22659 0.0708,0.0708 -0.24495,0.31233 -0.39892,0.41165 -0.39892,0.25733 z m 103.28858,-0.81983 c -0.23322,-0.29738 -0.22659,-0.30401 0.0708,-0.0708 0.31233,0.24495 0.41166,0.39892 0.25734,0.39892 -0.0389,0 -0.18659,-0.14766 -0.32813,-0.32813 z m -102.35108,0.0698 c 0,-0.0389 0.14766,-0.18659 0.32812,-0.32813 0.29739,-0.23322 0.30402,-0.22659 0.0708,0.0708 -0.24495,0.31233 -0.39892,0.41166 -0.39892,0.25734 z m 0.75,-0.5625 c 0,-0.0389 0.14766,-0.18659 0.32812,-0.32813 0.29739,-0.23322 0.30402,-0.22659 0.0708,0.0708 -0.24495,0.31233 -0.39892,0.41166 -0.39892,0.25734 z m 100.47608,-0.44484 c -0.23322,-0.29738 -0.22659,-0.30401 0.0708,-0.0708 0.31233,0.24495 0.41166,0.39892 0.25734,0.39892 -0.0389,0 -0.18659,-0.14766 -0.32813,-0.32813 z m -99.72608,-0.11766 c 0,-0.0389 0.14766,-0.18659 0.32812,-0.32813 0.29739,-0.23322 0.30402,-0.22659 0.0708,0.0708 -0.24495,0.31233 -0.39892,0.41166 -0.39892,0.25734 z m 98.78858,-0.63234 c -0.23322,-0.29738 -0.22659,-0.30401 0.0708,-0.0708 0.31233,0.24495 0.41166,0.39892 0.25734,0.39892 -0.0389,0 -0.18659,-0.14766 -0.32813,-0.32813 z m -98.03858,0.0698 c 0,-0.0389 0.14766,-0.18659 0.32812,-0.32813 0.29739,-0.23322 0.30402,-0.22659 0.0708,0.0708 -0.24495,0.31233 -0.39892,0.41166 -0.39892,0.25734 z m 0.75,-0.5625 c 0,-0.0389 0.14766,-0.18659 0.32812,-0.32813 0.29739,-0.23322 0.30402,-0.22659 0.0708,0.0708 -0.24495,0.31233 -0.39892,0.41166 -0.39892,0.25734 z m 96.16358,-0.44484 c -0.23322,-0.29738 -0.22659,-0.30401 0.0708,-0.0708 0.31233,0.24495 0.41166,0.39892 0.25734,0.39892 -0.0389,0 -0.18659,-0.14766 -0.32813,-0.32813 z m -95.41358,-0.11766 c 0,-0.0389 0.14766,-0.18659 0.32812,-0.32813 0.29739,-0.23322 0.30402,-0.22659 0.0708,0.0708 -0.24495,0.31233 -0.39892,0.41166 -0.39892,0.25734 z m 94.47608,-0.63234 c -0.23322,-0.29738 -0.22659,-0.30401 0.0708,-0.0708 0.31233,0.24495 0.41166,0.39892 0.25734,0.39892 -0.0389,0 -0.18659,-0.14766 -0.32813,-0.32813 z m -1.125,-0.9375 c -0.23322,-0.29738 -0.22659,-0.30401 0.0708,-0.0708 0.31233,0.24495 0.41166,0.39892 0.25734,0.39892 -0.0389,0 -0.18659,-0.14766 -0.32813,-0.32813 z m -90.72608,-0.30516 c 0,-0.0389 0.14766,-0.18659 0.32812,-0.32813 0.29739,-0.23322 0.30402,-0.22659 0.0708,0.0708 -0.24495,0.31233 -0.39892,0.41166 -0.39892,0.25734 z m 89.78858,-0.44484 c -0.23322,-0.29738 -0.22659,-0.30401 0.0708,-0.0708 0.31233,0.24495 0.41166,0.39892 0.25734,0.39892 -0.0389,0 -0.18659,-0.14766 -0.32813,-0.32813 z m -1.125,-0.9375 c -0.23322,-0.29738 -0.22659,-0.30401 0.0708,-0.0708 0.31233,0.24495 0.41166,0.39892 0.25734,0.39892 -0.0389,0 -0.18659,-0.14766 -0.32813,-0.32813 z m -0.9375,-0.75 c -0.23322,-0.29738 -0.22659,-0.30401 0.0708,-0.0708 0.31233,0.24495 0.41166,0.39892 0.25734,0.39892 -0.0389,0 -0.18659,-0.14766 -0.32813,-0.32813 z m -2.0625,-1.6875 c -0.23322,-0.29738 -0.22659,-0.30401 0.0708,-0.0708 0.18047,0.14154 0.32813,0.28919 0.32813,0.32813 0,0.15432 -0.15397,0.055 -0.39892,-0.25734 z m -2.0625,-1.6875 c -0.23322,-0.29738 -0.22659,-0.30401 0.0708,-0.0708 0.18047,0.14154 0.32813,0.28919 0.32813,0.32813 0,0.15432 -0.15397,0.055 -0.39892,-0.25734 z m -73.66358,-1.06493 c 0,-0.0516 0.16875,-0.18406 0.375,-0.29444 0.20625,-0.11038 0.375,-0.15851 0.375,-0.10694 0,0.0516 -0.16875,0.18406 -0.375,0.29444 -0.20625,0.11038 -0.375,0.15851 -0.375,0.10694 z m 71.41742,-0.73461 c -0.32718,-0.43822 -9.54242,-18.54308 -9.54242,-18.74767 0,-0.1546 35.32766,-0.1191 40.21875,0.0404 l 3.5625,0.11618 -1.5,0.82693 c -0.825,0.45481 -1.79531,0.99504 -2.15625,1.2005 -0.61084,0.34772 -10.40027,5.80594 -24.09375,13.43377 -3.19688,1.78079 -5.89688,3.30432 -6,3.38563 -0.10483,0.0827 -0.32035,-0.0301 -0.48883,-0.25575 z m -69.54242,-0.39039 c 0,-0.0516 0.16875,-0.18406 0.375,-0.29444 0.20625,-0.11038 0.375,-0.15851 0.375,-0.10694 0,0.0516 -0.16875,0.18406 -0.375,0.29444 -0.20625,0.11038 -0.375,0.15851 -0.375,0.10694 z m 1.3125,-0.75 c 0,-0.0516 0.16875,-0.18406 0.375,-0.29444 0.20625,-0.11038 0.375,-0.15851 0.375,-0.10694 0,0.0516 -0.16875,0.18406 -0.375,0.29444 -0.20625,0.11038 -0.375,0.15851 -0.375,0.10694 z m 1.3125,-0.75356 c 0,-0.0516 0.25312,-0.22465 0.5625,-0.38463 0.30937,-0.15998 0.5625,-0.24869 0.5625,-0.19713 0,0.0516 -0.25313,0.22465 -0.5625,0.38463 -0.30938,0.15998 -0.5625,0.24869 -0.5625,0.19713 z m 127.67331,-4.18151 -0.45456,-0.51562 0.51562,0.45456 c 0.2836,0.25001 0.51563,0.48204 0.51563,0.51562 0,0.14706 -0.15184,0.0274 -0.57669,-0.45456 z m -2.34737,-2.34375 -0.35719,-0.42187 0.42187,0.35719 c 0.39645,0.33566 0.50723,0.48656 0.35719,0.48656 -0.0356,0 -0.22543,-0.18984 -0.42187,-0.42188 z"
       id="path305" /><path
       style="fill:#a40000;fill-opacity:1;stroke-width:7.47756"
       d="m 195.25809,90.581396 c -11.78938,-0.579825 -20.38012,-3.198731 -27.15461,-8.278144 -9.14532,-6.857043 -14.3182,-18.424556 -15.20163,-33.993697 l -0.15895,-2.801115 2.53918,-4.6875 c 2.37627,-4.386776 9.30172,-17.002569 11.62276,-21.172695 l 1.03536,-1.860193 0.3682,0.453943 c 0.20252,0.249669 0.939,1.593008 1.63663,2.985195 2.47888,4.946856 5.50125,11.873884 12.84403,29.4375 5.1806,12.391763 5.49281,13.126988 5.57174,13.120819 1.25444,-0.09795 19.71496,-2.992688 19.82137,-3.108113 0.22616,-0.245362 2.38491,-7.273952 13.52762,-44.043956 l 3.63645,-12.0000001 3.57638,-3.3100538 3.57638,-3.3100556 34.84132,-1.7923444 c 19.16272,-0.9857887 34.86833,-1.8193537 34.90134,-1.8523668 0.033,-0.033013 -2.76479,-11.2369353 -6.21733,-24.8976023 l -6.27736,-24.837577 1.54556,-4.915643 1.54555,-4.915644 1.60063,-0.373427 c 18.67616,-4.35716 55.97375,-12.73718 56.13725,-12.612907 0.11736,0.08921 2.70244,2.175922 5.74463,4.637139 3.04219,2.461219 6.20625,5.020804 7.03125,5.68797 0.825,0.667164 1.28906,0.999079 1.03125,0.737586 -0.64498,-0.654182 -55.62247,-45.645464 -56.59189,-46.312444 -0.23961,-0.16485 -0.36617,-0.34089 -0.28125,-0.3912 0.0849,-0.0503 2.77001,-1.5487 5.96689,-3.32975 18.98022,-10.57431 24.42093,-13.60884 26.59491,-14.8332 0.70533,-0.39722 1.44406,-0.72223 1.64163,-0.72223 0.63467,0 5.52278,1.08944 7.61305,1.69677 9.37873,2.72497 16.76404,7.79235 21.4263,14.70153 4.32135,6.40396 6.6147,14.78391 6.87817,25.13295 0.0962,3.776098 0.007,5.148007 -2.17042,33.46875 -1.24888,16.242187 -3.02848,39.445312 -3.9547,51.5624999 -0.92621,12.1171875 -1.73422,22.4308351 -1.79559,22.9192181 l -0.11156,0.887968 -5.84215,3.308291 c -3.21318,1.819562 -5.95156,3.40975 -6.08529,3.533755 -0.19813,0.18371 0.47149,5.220581 3.61601,27.200051 2.12254,14.836029 3.83507,27.095304 3.80565,27.242829 -0.0324,0.162525 -1.75329,-1.239937 -4.36601,-3.558131 -8.69368,-7.713712 -30.45894,-26.958962 -33.3341,-29.47464 l -2.9591,-2.589122 -25.33439,14.396218 c -13.93391,7.917938 -25.25857,14.419219 -25.1659,14.447307 0.20595,0.06244 22.55154,1.864069 54.16849,4.367381 12.99375,1.028812 26.57812,2.105025 30.1875,2.391581 3.60937,0.286575 6.39375,0.54285 6.1875,0.569475 -0.20625,0.02664 -13.49531,0.934706 -29.53125,2.017913 -16.03594,1.083206 -42.69844,2.895056 -59.25,4.026337 -16.55156,1.131281 -40.61247,2.775563 -53.46869,3.653963 -12.85621,0.878418 -23.48746,1.584468 -23.625,1.569037 -0.13753,-0.01538 -1.64225,-0.09654 -3.34381,-0.180225 z m 3.77289,-0.668268 c -0.22103,-0.380101 -0.27441,-0.258451 -0.0935,0.213056 0.0643,0.167568 0.15641,0.265181 0.20469,0.2169 0.0483,-0.04826 -0.002,-0.241744 -0.11121,-0.429956 z m -0.46946,-1.122488 c -0.15863,-0.292706 -0.29179,-0.472894 -0.29592,-0.400406 -0.0127,0.222881 0.42351,1.093425 0.50637,1.010568 0.0429,-0.04288 -0.0518,-0.317456 -0.21045,-0.610162 z m 1.32465,-0.09861 c -0.0598,-0.149569 -0.10428,-0.10515 -0.11328,0.113287 -0.008,0.197644 0.0362,0.3084 0.0985,0.246094 0.0623,-0.06231 0.069,-0.224025 0.0148,-0.359381 z m -1.88715,-1.213894 c -0.15863,-0.292706 -0.29179,-0.472894 -0.29592,-0.400406 -0.0127,0.222881 0.42351,1.093425 0.50637,1.010568 0.0429,-0.04288 -0.0518,-0.317456 -0.21045,-0.610162 z m 2.44965,-0.661106 c -0.0598,-0.149569 -0.10428,-0.10515 -0.11328,0.113287 -0.008,0.197644 0.0362,0.3084 0.0985,0.246094 0.0623,-0.06231 0.069,-0.224025 0.0148,-0.359381 z m -3.01215,-0.651394 c -0.15863,-0.292706 -0.29179,-0.472894 -0.29592,-0.400406 -0.0127,0.222881 0.42351,1.093425 0.50637,1.010568 0.0429,-0.04288 -0.0518,-0.317456 -0.21045,-0.610162 z m -1.03054,-2.440012 c -0.22103,-0.380101 -0.27441,-0.258451 -0.0935,0.213056 0.0643,0.167568 0.15641,0.265181 0.20469,0.2169 0.0483,-0.04826 -0.002,-0.241744 -0.11121,-0.429956 z m -0.5625,-1.3125 c -0.22103,-0.380101 -0.27441,-0.258451 -0.0935,0.213056 0.0643,0.167568 0.15641,0.265181 0.20469,0.2169 0.0483,-0.04826 -0.002,-0.241744 -0.11121,-0.429956 z M 366.44559,-65.46018 c 0,-0.0343 -0.35859,-0.335711 -0.79688,-0.669797 l -0.79687,-0.607427 0.73436,0.669797 c 0.697,0.635711 0.85939,0.750493 0.85939,0.607427 z m -184.53402,55.261631 -18.69027,-18.096577 1.00363,-2.941967 c 5.64175,-16.537847 17.95374,-35.364793 33.73864,-51.591598 13.09782,-13.464501 27.21196,-24.562569 41.60138,-32.711509 l 2.21311,-1.25332 2.47439,2.38346 c 15.16622,14.608891 45.13064,43.678797 45.13064,43.783383 0,0.07415 -0.62847,1.232781 -1.3966,2.574737 -9.52721,16.644514 -24.63695,34.153455 -42.00965,48.680166 -12.83505,10.7324189 -25.94438,19.2044152 -37.84887,24.460102 -2.7884,1.2310425 -6.92369,2.8305619 -7.28556,2.8180331 -0.13231,-0.00458 -8.65119,-8.1517912 -18.93084,-18.1049101 z"
       id="path303" /></g></svg>
