<?xml version="1.0" encoding="UTF-8" standalone="no"?>
<svg
   fill="none"
   viewBox="0 0 48 48"
   height="256"
   width="256"
   version="1.1"
   id="svg6"
   sodipodi:docname="verilog.svg"
   inkscape:version="1.2.1 (9c6d41e410, 2022-07-14)"
   xmlns:inkscape="http://www.inkscape.org/namespaces/inkscape"
   xmlns:sodipodi="http://sodipodi.sourceforge.net/DTD/sodipodi-0.dtd"
   xmlns="http://www.w3.org/2000/svg"
   xmlns:svg="http://www.w3.org/2000/svg">
  <defs
     id="defs10" />
  <sodipodi:namedview
     id="namedview8"
     pagecolor="#ffffff"
     bordercolor="#666666"
     borderopacity="1.0"
     inkscape:showpageshadow="2"
     inkscape:pageopacity="0.0"
     inkscape:pagecheckerboard="true"
     inkscape:deskcolor="#d1d1d1"
     showgrid="true"
     inkscape:zoom="0.57245265"
     inkscape:cx="169.44633"
     inkscape:cy="69.00134"
     inkscape:current-layer="svg6"
     showguides="false"
     inkscape:window-width="1920"
     inkscape:window-height="730"
     inkscape:window-x="-6"
     inkscape:window-y="-6"
     inkscape:window-maximized="1">
    <inkscape:grid
       type="xygrid"
       id="grid239"
       units="px"
       spacingx="1.5"
       spacingy="1.5" />
  </sodipodi:namedview>
  <path
     fill="#d3d7cf"
     d="m 23.999962,46.000062 c 4.083201,0 6.815001,-0.3009 8.0707,-0.4782 0.525301,-0.0743 1.0169,-0.2779 1.440801,-0.5969 1.013299,-0.7624 3.157699,-2.4813 6.044999,-5.3686 2.8872,-2.8872 4.6061,-5.0316 5.3685,-6.0449 0.3191,-0.424 0.5227,-0.9155 0.5969,-1.4409 0.1773,-1.2555 0.4782,-3.9873 0.4782,-8.0705 0,-4.0832 -0.3009,-6.815 -0.4782,-8.0706 -0.0742,-0.5253 -0.2778,-1.0169 -0.5969,-1.4409 -0.7624,-1.0132 -2.4813,-3.1576 -5.3685,-6.0448595 -2.8873,-2.8872 -5.0317,-4.60613 -6.0449,-5.36857 -0.424,-0.31903 -0.915599,-0.52263 -1.440999,-0.59684 -1.2556,-0.17735 -3.9874,-0.47823 -8.070501,-0.47823 -4.0831,0 -6.8149,0.30088 -8.070499,0.47823 -0.525401,0.07421 -1.017001,0.2778 -1.440901,0.59684 -1.013299,0.76242 -3.157699,2.48134 -6.0449395,5.36857 -2.88725,2.8872605 -4.60617,5.0316595 -5.36859,6.0449595 -0.31902,0.4239 -0.52261,0.9154 -0.59683,1.4408 -0.17735,1.2556 -0.47824,3.9874 -0.47824,8.0706 0,4.0832 0.30089,6.815 0.47824,8.0706 0.07422,0.5253 0.27781,1.0168 0.59683,1.4408 0.76242,1.0133 2.48133,3.1577 5.36855,6.0449 2.8871795,2.8872 5.0316795,4.6062 6.0449795,5.3686 0.4239,0.319 0.9155,0.5226 1.4409,0.5969 1.2555,0.1773 3.9873,0.4782 8.0704,0.4782 z"
     id="path3678"
     style="stroke:none;stroke-opacity:1;fill:#d3d7cf;fill-opacity:1" />
  <g
     id="g590"
     transform="matrix(0.81,0,0,0.81,2.4931622,7.6798694)"
     style="stroke-width:1.23457">
    <path
       fill="#888a85"
       fill-rule="evenodd"
       d="m 19.755279,8.1104564 c 0.4524,-0.1289 0.6799,-0.5594 0.7058,-1.0291 0.0327,-0.5943 0.0695,-1.53808 0.0695,-2.774 0,-1.54457 -0.0575,-3.59908 -0.0926,-4.70847 -0.0161,-0.50915 -0.2532,-0.98118 -0.7456,-1.11191 -0.3676,-0.0976 -0.9024,-0.17962 -1.6618,-0.17962 -0.7594,0 -1.2943,0.08202 -1.6619,0.17962 -0.4923,0.13072 -0.7294,0.60277 -0.7455,1.11193 -0.0351,1.1094 -0.0926,3.16389 -0.0926,4.70845 0,1.23589 0.0368,2.1797 0.0695,2.774 0.0258,0.4697 0.2533,0.9002 0.7058,1.0291 0.3686,0.105 0.9208,0.1969 1.7247,0.1969 0.8039,0 1.3561,-0.0919 1.7247,-0.1969 z m 4.3448,-1.0291 c 0.0259,0.4697 0.2534,0.9002 0.7058,1.0291 0.3686,0.105 0.9208,0.1969 1.7247,0.1969 0.8039,0 1.3561,-0.0919 1.7247,-0.1969 0.4525,-0.1289 0.68,-0.5594 0.7058,-1.0291 0.0327,-0.5943 0.0695,-1.53811 0.0695,-2.774 0,-1.54456 -0.0575,-3.59905 -0.0926,-4.70845 -0.0161,-0.50916 -0.2532,-0.98121 -0.7455,-1.11193 -0.3676,-0.0976 -0.9025,-0.17962 -1.6619,-0.17962 -0.7594,0 -1.2942,0.08202 -1.6618,0.17962 -0.4924,0.13073 -0.7295,0.60276 -0.7456,1.11191 -0.0351,1.10939 -0.0926,3.1639 -0.0926,4.70847 0,1.23592 0.0368,2.1797 0.0695,2.774 z m 8.5,0 c 0.0259,0.4697 0.2534,0.9002 0.7058,1.0291 0.3686,0.105 0.9208,0.1969 1.7247,0.1969 0.8039,0 1.3561,-0.0919 1.7247,-0.1969 0.4525,-0.1289 0.68,-0.5594 0.7058,-1.0291 0.0327,-0.5943 0.0695,-1.53811 0.0695,-2.774 0,-1.54456 -0.0575,-3.59905 -0.0926,-4.70845 -0.0161,-0.50916 -0.2532,-0.98121 -0.7455,-1.11193 -0.3676,-0.0976 -0.9025,-0.17962 -1.6619,-0.17962 -0.7594,0 -1.2942,0.08202 -1.6618,0.17962 -0.4924,0.13073 -0.7295,0.60276 -0.7456,1.11191 -0.0351,1.10939 -0.0926,3.1639 -0.0926,4.70847 0,1.23592 0.0368,2.1797 0.0695,2.774 z"
       clip-rule="evenodd"
       id="path2"
       style="fill:#888a85;fill-opacity:1;stroke-width:1.37174" />
    <path
       fill="#888a85"
       fill-rule="evenodd"
       d="m 14.333679,27.082656 c -0.1289,-0.4524 -0.5594,-0.6799 -1.0291,-0.7058 -0.5943,-0.0327 -1.53808,-0.0695 -2.774,-0.0695 -1.5445704,0 -3.5990804,0.0575 -4.7084704,0.0926 -0.50915,0.0161 -0.98118,0.2532 -1.11191,0.7456 -0.0976,0.3676 -0.17962,0.9024 -0.17962,1.6618 0,0.7594 0.08202,1.2943 0.17962,1.6619 0.13072,0.4923 0.60277,0.7294 1.11193,0.7455 1.1094,0.0351 3.16389,0.0926 4.7084504,0.0926 1.23589,0 2.1797,-0.0368 2.774,-0.0695 0.4697,-0.0258 0.9002,-0.2533 1.0291,-0.7058 0.105,-0.3686 0.1969,-0.9208 0.1969,-1.7247 0,-0.8039 -0.0919,-1.3561 -0.1969,-1.7247 z m -1.0291,-4.3448 c 0.4697,-0.0259 0.9002,-0.2534 1.0291,-0.7058 0.105,-0.3686 0.1969,-0.9208 0.1969,-1.7247 0,-0.8039 -0.0919,-1.3561 -0.1969,-1.7247 -0.1289,-0.4525 -0.5594,-0.68 -1.0291,-0.7058 -0.5943,-0.0327 -1.53812,-0.0695 -2.774,-0.0695 -1.5445604,0 -3.5990504,0.0575 -4.7084504,0.0926 -0.50916,0.0161 -0.98121,0.2532 -1.11193,0.7455 -0.0976,0.3676 -0.17962,0.9025 -0.17962,1.6619 0,0.7594 0.08202,1.2942 0.17962,1.6618 0.13073,0.4924 0.60276,0.7295 1.11191,0.7456 1.10939,0.0351 3.1639,0.0926 4.7084704,0.0926 1.23592,0 2.1797,-0.0368 2.774,-0.0695 z m 0,-8.5 c 0.4697,-0.0259 0.9002,-0.2534 1.0291,-0.7058 0.105,-0.3686 0.1969,-0.9208 0.1969,-1.7247 0,-0.8039 -0.0919,-1.3561 -0.1969,-1.7247 -0.1289,-0.4524996 -0.5594,-0.6799996 -1.0291,-0.7057996 -0.5943,-0.0327 -1.53812,-0.0695 -2.774,-0.0695 -1.5445604,0 -3.5990504,0.0575 -4.7084504,0.0926 -0.50916,0.0161 -0.98121,0.2532 -1.11193,0.7454996 -0.0976,0.3676 -0.17962,0.9025 -0.17962,1.6619 0,0.7594 0.08202,1.2942 0.17962,1.6618 0.13073,0.4924 0.60276,0.7295 1.11191,0.7456 1.10939,0.0351 3.1639,0.0926 4.7084704,0.0926 1.23592,0 2.1797,-0.0368 2.774,-0.0695 z"
       clip-rule="evenodd"
       id="path4"
       style="fill:#888a85;fill-opacity:1;stroke-width:1.37174" />
    <path
       fill="#888a85"
       fill-rule="evenodd"
       d="m 19.755279,42.110456 c 0.4524,-0.1289 0.6799,-0.5594 0.7058,-1.0291 0.0327,-0.5943 0.0695,-1.5381 0.0695,-2.774 0,-1.5446 -0.0575,-3.5991 -0.0926,-4.7085 -0.0161,-0.5091 -0.2532,-0.9812 -0.7456,-1.1119 -0.3676,-0.0976 -0.9024,-0.1796 -1.6618,-0.1796 -0.7594,0 -1.2943,0.082 -1.6619,0.1796 -0.4923,0.1307 -0.7294,0.6028 -0.7455,1.112 -0.0351,1.1093 -0.0926,3.1638 -0.0926,4.7084 0,1.2359 0.0368,2.1797 0.0695,2.774 0.0258,0.4697 0.2533,0.9002 0.7058,1.0291 0.3686,0.105 0.9208,0.1969 1.7247,0.1969 0.8039,0 1.3561,-0.0919 1.7247,-0.1969 z m 4.3448,-1.0291 c 0.0259,0.4697 0.2534,0.9002 0.7058,1.0291 0.3686,0.105 0.9208,0.1969 1.7247,0.1969 0.8039,0 1.3561,-0.0919 1.7247,-0.1969 0.4525,-0.1289 0.68,-0.5594 0.7058,-1.0291 0.0327,-0.5943 0.0695,-1.5381 0.0695,-2.774 0,-1.5446 -0.0575,-3.5991 -0.0926,-4.7084 -0.0161,-0.5092 -0.2532,-0.9813 -0.7455,-1.112 -0.3676,-0.0976 -0.9025,-0.1796 -1.6619,-0.1796 -0.7594,0 -1.2942,0.082 -1.6618,0.1796 -0.4924,0.1307 -0.7295,0.6028 -0.7456,1.1119 -0.0351,1.1094 -0.0926,3.1639 -0.0926,4.7085 0,1.2359 0.0368,2.1797 0.0695,2.774 z m 8.5,0 c 0.0259,0.4697 0.2534,0.9002 0.7058,1.0291 0.3686,0.105 0.9208,0.1969 1.7247,0.1969 0.8039,0 1.3561,-0.0919 1.7247,-0.1969 0.4525,-0.1289 0.68,-0.5594 0.7058,-1.0291 0.0327,-0.5943 0.0695,-1.5381 0.0695,-2.774 0,-1.5446 -0.0575,-3.5991 -0.0926,-4.7084 -0.0161,-0.5092 -0.2532,-0.9813 -0.7455,-1.112 -0.3676,-0.0976 -0.9025,-0.1796 -1.6619,-0.1796 -0.7594,0 -1.2942,0.082 -1.6618,0.1796 -0.4924,0.1307 -0.7295,0.6028 -0.7456,1.1119 -0.0351,1.1094 -0.0926,3.1639 -0.0926,4.7085 0,1.2359 0.0368,2.1797 0.0695,2.774 z"
       clip-rule="evenodd"
       id="path6"
       style="fill:#888a85;fill-opacity:1;stroke-width:1.37174" />
    <path
       fill="#888a85"
       fill-rule="evenodd"
       d="m 48.333679,27.082656 c -0.1289,-0.4524 -0.5594,-0.6799 -1.0291,-0.7058 -0.5943,-0.0327 -1.5381,-0.0695 -2.774,-0.0695 -1.5446,0 -3.5991,0.0575 -4.7085,0.0926 -0.5091,0.0161 -0.9812,0.2532 -1.1119,0.7456 -0.0976,0.3676 -0.1796,0.9024 -0.1796,1.6618 0,0.7594 0.082,1.2943 0.1796,1.6619 0.1307,0.4923 0.6028,0.7294 1.112,0.7455 1.1093,0.0351 3.1638,0.0926 4.7084,0.0926 1.2359,0 2.1797,-0.0368 2.774,-0.0695 0.4697,-0.0258 0.9002,-0.2533 1.0291,-0.7058 0.105,-0.3686 0.1969,-0.9208 0.1969,-1.7247 0,-0.8039 -0.0919,-1.3561 -0.1969,-1.7247 z m -1.0291,-4.3448 c 0.4697,-0.0259 0.9002,-0.2534 1.0291,-0.7058 0.105,-0.3686 0.1969,-0.9208 0.1969,-1.7247 0,-0.8039 -0.0919,-1.3561 -0.1969,-1.7247 -0.1289,-0.4525 -0.5594,-0.68 -1.0291,-0.7058 -0.5943,-0.0327 -1.5381,-0.0695 -2.774,-0.0695 -1.5446,0 -3.5991,0.0575 -4.7084,0.0926 -0.5092,0.0161 -0.9813,0.2532 -1.112,0.7455 -0.0976,0.3676 -0.1796,0.9025 -0.1796,1.6619 0,0.7594 0.082,1.2942 0.1796,1.6618 0.1307,0.4924 0.6028,0.7295 1.1119,0.7456 1.1094,0.0351 3.1639,0.0926 4.7085,0.0926 1.2359,0 2.1797,-0.0368 2.774,-0.0695 z m 0,-8.5 c 0.4697,-0.0259 0.9002,-0.2534 1.0291,-0.7058 0.105,-0.3686 0.1969,-0.9208 0.1969,-1.7247 0,-0.8039 -0.0919,-1.3561 -0.1969,-1.7247 -0.1289,-0.4524996 -0.5594,-0.6799996 -1.0291,-0.7057996 -0.5943,-0.0327 -1.5381,-0.0695 -2.774,-0.0695 -1.5446,0 -3.5991,0.0575 -4.7084,0.0926 -0.5092,0.0161 -0.9813,0.2532 -1.112,0.7454996 -0.0976,0.3676 -0.1796,0.9025 -0.1796,1.6619 0,0.7594 0.082,1.2942 0.1796,1.6618 0.1307,0.4924 0.6028,0.7295 1.1119,0.7456 1.1094,0.0351 3.1639,0.0926 4.7085,0.0926 1.2359,0 2.1797,-0.0368 2.774,-0.0695 z"
       clip-rule="evenodd"
       id="path8"
       style="fill:#888a85;fill-opacity:1;stroke-width:1.37174" />
    <path
       fill="#2e3436"
       d="m 43.156879,32.237756 c -0.1859,2.557 -2.1389,4.51 -4.6959,4.6959 -2.6344,0.1915 -6.5535,0.3737 -11.9304,0.3737 -5.3769,0 -9.296,-0.1822 -11.9304,-0.3737 -2.55701,-0.1859 -4.50996,-2.1389 -4.6958604,-4.6959 -0.19153,-2.6343 -0.37374,-6.5535 -0.37374,-11.9304 0,-5.3769 0.18221,-9.296 0.37374,-11.9303996 0.1859004,-2.55701 2.1388504,-4.50996 4.6958604,-4.69586 2.6344,-0.19153 6.5535,-0.37374 11.9304,-0.37374 5.3769,0 9.296,0.18221 11.9304,0.37373 2.557,0.18591 4.51,2.13885 4.6959,4.69587 0.1915,2.6342996 0.3737,6.5534996 0.3737,11.9303996 0,5.3769 -0.1822,9.296 -0.3737,11.9304 z"
       id="path10"
       style="fill:#2e3436;fill-opacity:1;stroke-width:1.23457" />
  </g>
</svg>
