<?xml version="1.0" encoding="UTF-8" standalone="no"?>
<svg
   fill="none"
   viewBox="0 0 48 48"
   height="256"
   width="256"
   version="1.1"
   id="svg6"
   sodipodi:docname="yaml.svg"
   inkscape:version="1.2.1 (9c6d41e410, 2022-07-14)"
   xmlns:inkscape="http://www.inkscape.org/namespaces/inkscape"
   xmlns:sodipodi="http://sodipodi.sourceforge.net/DTD/sodipodi-0.dtd"
   xmlns="http://www.w3.org/2000/svg"
   xmlns:svg="http://www.w3.org/2000/svg">
  <defs
     id="defs10" />
  <sodipodi:namedview
     id="namedview8"
     pagecolor="#ffffff"
     bordercolor="#666666"
     borderopacity="1.0"
     inkscape:showpageshadow="2"
     inkscape:pageopacity="0.0"
     inkscape:pagecheckerboard="true"
     inkscape:deskcolor="#d1d1d1"
     showgrid="true"
     inkscape:zoom="1.1449053"
     inkscape:cx="145.86359"
     inkscape:cy="63.324015"
     inkscape:current-layer="svg6"
     showguides="false"
     inkscape:window-width="1920"
     inkscape:window-height="730"
     inkscape:window-x="-6"
     inkscape:window-y="-6"
     inkscape:window-maximized="1">
    <inkscape:grid
       type="xygrid"
       id="grid239"
       units="px"
       spacingx="1.5"
       spacingy="1.5" />
  </sodipodi:namedview>
  <path
     fill="#d3d7cf"
     d="m 23.999962,46.000062 c 4.083201,0 6.815001,-0.3009 8.0707,-0.4782 0.525301,-0.0743 1.0169,-0.2779 1.440801,-0.5969 1.013299,-0.7624 3.157699,-2.4813 6.044999,-5.3686 2.8872,-2.8872 4.6061,-5.0316 5.3685,-6.0449 0.3191,-0.424 0.5227,-0.9155 0.5969,-1.4409 0.1773,-1.2555 0.4782,-3.9873 0.4782,-8.0705 0,-4.0832 -0.3009,-6.815 -0.4782,-8.0706 -0.0742,-0.5253 -0.2778,-1.0169 -0.5969,-1.4409 -0.7624,-1.0132 -2.4813,-3.1576 -5.3685,-6.0448595 -2.8873,-2.8872 -5.0317,-4.60613 -6.0449,-5.36857 -0.424,-0.31903 -0.915599,-0.52263 -1.440999,-0.59684 -1.2556,-0.17735 -3.9874,-0.47823 -8.070501,-0.47823 -4.0831,0 -6.8149,0.30088 -8.070499,0.47823 -0.525401,0.07421 -1.017001,0.2778 -1.440901,0.59684 -1.013299,0.76242 -3.157699,2.48134 -6.0449395,5.36857 -2.88725,2.8872605 -4.60617,5.0316595 -5.36859,6.0449595 -0.31902,0.4239 -0.52261,0.9154 -0.59683,1.4408 -0.17735,1.2556 -0.47824,3.9874 -0.47824,8.0706 0,4.0832 0.30089,6.815 0.47824,8.0706 0.07422,0.5253 0.27781,1.0168 0.59683,1.4408 0.76242,1.0133 2.48133,3.1577 5.36855,6.0449 2.8871795,2.8872 5.0316795,4.6062 6.0449795,5.3686 0.4239,0.319 0.9155,0.5226 1.4409,0.5969 1.2555,0.1773 3.9873,0.4782 8.0704,0.4782 z"
     id="path3678"
     style="fill:#d3d7cf;fill-opacity:1" />
  <g
     aria-label="YAML"
     transform="scale(0.8996104,1.1115923)"
     id="text2558"
     style="font-size:16.7183px;font-family:'Arial Rounded MT Bold';-inkscape-font-specification:'Arial Rounded MT Bold, Normal';fill:#2e3436;stroke-width:0.35433">
    <path
       d="M 7.7930293,26.785339 V 22.989436 L 4.8705921,18.458842 Q 4.4869202,17.8466 4.3236556,17.503744 4.1685542,17.160888 4.1685542,16.907828 q 0,-0.416325 0.318366,-0.718364 0.3265293,-0.30204 0.7999968,-0.30204 0.4979572,0 0.7510174,0.285713 0.2612234,0.27755 0.775507,1.118363 L 9.0501671,20.924138 11.311382,17.2915 q 0.204081,-0.334692 0.342856,-0.563263 0.138775,-0.22857 0.30204,-0.424488 0.171428,-0.204081 0.375509,-0.310203 0.20408,-0.106122 0.497957,-0.106122 0.457141,0 0.75918,0.30204 0.310203,0.293876 0.310203,0.685711 0,0.318366 -0.155101,0.636732 -0.155102,0.318366 -0.53061,0.881629 l -2.995907,4.5959 v 3.795903 q 0,0.742854 -0.3428554,1.1102 -0.3428558,0.367345 -0.8734659,0.367345 -0.5387733,0 -0.8734659,-0.359182 -0.3346925,-0.367345 -0.3346925,-1.118363 z"
       style="stroke-width:0.354331"
       id="path3706" />
    <path
       d="m 22.176645,26.703707 -0.571426,-1.502035 h -4.865287 l -0.571426,1.534688 q -0.334693,0.897955 -0.571426,1.216322 -0.236734,0.310202 -0.775507,0.310202 -0.457141,0 -0.80816,-0.334692 -0.351019,-0.334693 -0.351019,-0.759181 0,-0.244897 0.08163,-0.50612 0.08163,-0.261224 0.269387,-0.726528 l 3.061212,-7.771397 q 0.130611,-0.334693 0.310203,-0.799997 0.187754,-0.473467 0.391835,-0.78367 0.212244,-0.310203 0.546936,-0.497957 0.342856,-0.195918 0.840813,-0.195918 0.506121,0 0.840813,0.195918 0.342856,0.187754 0.546937,0.489794 0.212244,0.302039 0.351019,0.653058 0.146938,0.342856 0.367345,0.922445 l 3.126518,7.722418 q 0.367346,0.881629 0.367346,1.281628 0,0.416325 -0.351019,0.767344 -0.342856,0.342855 -0.83265,0.342855 -0.285713,0 -0.489794,-0.106122 -0.204081,-0.09796 -0.342856,-0.269386 -0.138775,-0.179591 -0.302039,-0.538774 -0.155102,-0.367345 -0.269387,-0.644895 z m -4.799981,-3.322436 h 3.575496 l -1.804074,-4.938755 z"
       style="stroke-width:0.354331"
       id="path3708" />
    <path
       d="m 30.584775,26.254729 -1.91836,-7.624459 v 8.261191 q 0,0.685712 -0.310203,1.028568 -0.302039,0.342855 -0.80816,0.342855 -0.489794,0 -0.799996,-0.334692 -0.310203,-0.342856 -0.310203,-1.036731 v -9.469349 q 0,-0.783671 0.408161,-1.053057 0.408162,-0.27755 1.102037,-0.27755 h 0.751017 q 0.677548,0 0.979588,0.122448 0.310203,0.122449 0.457141,0.440815 0.146938,0.318366 0.334693,1.03673 l 1.738768,6.555076 1.738769,-6.555076 q 0.187754,-0.718364 0.334692,-1.03673 0.146938,-0.318366 0.448978,-0.440815 0.310203,-0.122448 0.987751,-0.122448 h 0.751017 q 0.693875,0 1.102037,0.27755 0.408161,0.269386 0.408161,1.053057 v 9.469349 q 0,0.685712 -0.310203,1.028568 -0.302039,0.342855 -0.816323,0.342855 -0.48163,0 -0.791833,-0.342855 -0.310203,-0.342856 -0.310203,-1.028568 V 18.63027 l -1.91836,7.624459 q -0.187754,0.742854 -0.310203,1.093873 -0.114285,0.342856 -0.432651,0.628569 -0.318366,0.285713 -0.881629,0.285713 -0.424488,0 -0.718364,-0.187754 -0.293877,-0.179591 -0.457141,-0.465304 -0.163265,-0.285713 -0.261224,-0.628569 -0.08979,-0.351019 -0.187754,-0.726528 z"
       style="stroke-width:0.354331"
       id="path3710" />
    <path
       d="m 42.845947,17.356806 v 8.710169 h 4.914266 q 0.587753,0 0.897956,0.285713 0.318366,0.285713 0.318366,0.718364 0,0.440815 -0.310203,0.718365 -0.310203,0.269387 -0.906119,0.269387 h -5.853038 q -0.791833,0 -1.142852,-0.351019 -0.342856,-0.351019 -0.342856,-1.13469 v -9.216289 q 0,-0.734691 0.326529,-1.102036 0.334693,-0.367346 0.873466,-0.367346 0.546937,0 0.881629,0.367346 0.342856,0.359182 0.342856,1.102036 z"
       style="stroke-width:0.354331"
       id="path3712" />
  </g>
</svg>
