<?xml version="1.0" encoding="UTF-8" standalone="no"?>
<svg
   fill="none"
   viewBox="0 0 48 48"
   height="256"
   width="256"
   version="1.1"
   id="svg6"
   sodipodi:docname="magnifier_question.svg"
   inkscape:version="1.2.1 (9c6d41e410, 2022-07-14)"
   xmlns:inkscape="http://www.inkscape.org/namespaces/inkscape"
   xmlns:sodipodi="http://sodipodi.sourceforge.net/DTD/sodipodi-0.dtd"
   xmlns="http://www.w3.org/2000/svg"
   xmlns:svg="http://www.w3.org/2000/svg">
  <defs
     id="defs10" />
  <sodipodi:namedview
     id="namedview8"
     pagecolor="#ffffff"
     bordercolor="#666666"
     borderopacity="1.0"
     inkscape:showpageshadow="2"
     inkscape:pageopacity="0.0"
     inkscape:pagecheckerboard="0"
     inkscape:deskcolor="#d1d1d1"
     showgrid="false"
     inkscape:zoom="1.6191406"
     inkscape:cx="11.73462"
     inkscape:cy="92.641736"
     inkscape:current-layer="svg6" />
  <circle
     cx="22"
     cy="22"
     r="17"
     fill="#95c2f2"
     id="circle2" />
  <path
     fill="#507ab7"
     fill-rule="evenodd"
     d="m 18.637448,21.026558 c -0.293949,0.270297 -0.435375,0.636255 -0.424116,1.097874 h -0.0012 v 2.45592 c 0,0.671085 0.543915,1.215 1.215,1.215 h 2.048895 c 0.671004,0 1.215,-0.543915 1.215,-1.215 v -0.783108 l 0.213759,-0.09971 c 0.957096,-0.452385 1.805895,-0.922104 2.546397,-1.408995 0.740502,-0.486891 1.340874,-1.016631 1.801116,-1.58922 0.479358,-0.574614 0.81648,-1.211193 1.011447,-1.909737 0.212058,-0.719766 0.26811,-1.538595 0.168237,-2.456649 -0.203796,-1.87434 -0.958959,-3.301722 -2.265408,-4.282065 -1.287252,-0.982368 -3.05937,-1.350918 -5.316192,-1.105488 -0.784161,0.08529 -1.512189,0.241866 -2.184084,0.4698 -0.674001,0.208737 -1.253556,0.484623 -1.738746,0.827658 -0.485271,0.343116 -0.857952,0.741636 -1.118205,1.195641 -0.241137,0.45198 -0.331533,0.955314 -0.271188,1.510002 0.05735,0.527472 0.263736,0.979209 0.588951,1.337958 0.438939,0.484137 1.174257,0.318087 1.706022,-0.06188 0.243243,-0.173826 0.494181,-0.332343 0.752895,-0.47547 0.563841,-0.332262 1.237761,-0.540999 2.021922,-0.626292 0.860706,-0.09364 1.495584,0.05022 1.904715,0.431487 0.428328,0.379161 0.669465,0.817371 0.723573,1.31463 0.06026,0.554688 -0.06083,1.041984 -0.363528,1.461969 -0.304722,0.400788 -0.732564,0.737586 -1.283445,1.010394 l -1.652724,0.818343 c -0.531765,0.270702 -0.964791,0.55971 -1.299078,0.866943 z m -1.007721,9.389034 c 0,-0.808056 0.240489,-1.462131 0.721467,-1.962387 0.500175,-0.500175 1.183167,-0.750303 2.048895,-0.750303 0.865728,0 1.539081,0.250128 2.020059,0.750303 0.500175,0.500256 0.750303,1.154331 0.750303,1.962387 0,0.807975 -0.250128,1.462131 -0.750303,1.962306 -0.480978,0.500256 -1.154331,0.750303 -2.020059,0.750303 -0.865728,0 -1.54872,-0.250047 -2.048895,-0.750303 -0.480978,-0.500175 -0.721467,-1.154331 -0.721467,-1.962306 z"
     clip-rule="evenodd"
     id="path727"
     style="fill:#507ab7;fill-opacity:1;stroke-width:0.81" />
  <path
     fill="#507ab7"
     fill-rule="evenodd"
     d="M32.6589 38.9261C29.5733 40.8732 25.9183 42 22 42C10.9543 42 2 33.0457 2 22C2 10.9543 10.9543 2 22 2C33.0457 2 42 10.9543 42 22C42 25.9267 40.8684 29.589 38.9135 32.6788C39.0069 32.7561 39.1003 32.8334 39.1936 32.9106L39.1936 32.9106C41.0121 34.4153 42.8028 35.897 44.5692 37.5446C46.3069 39.1655 46.5229 41.6182 44.8795 43.3344C44.6464 43.5779 44.3918 43.838 44.1139 44.1155C43.8359 44.393 43.5753 44.6471 43.3314 44.8799C41.6122 46.5203 39.1553 46.3047 37.5316 44.57C35.8811 42.8067 34.3968 41.0191 32.8895 39.2037C32.8127 39.1113 32.7358 39.0187 32.6589 38.9261ZM36 22C36 29.732 29.732 36 22 36C14.268 36 8 29.732 8 22C8 14.268 14.268 8 22 8C29.732 8 36 14.268 36 22Z"
     clip-rule="evenodd"
     id="path4" />
</svg>
