<?xml version="1.0" encoding="UTF-8" standalone="no"?>
<svg
   fill="none"
   viewBox="0 0 48 48"
   height="256"
   width="256"
   version="1.1"
   id="svg134"
   sodipodi:docname="mix_exclam.svg"
   inkscape:version="1.2.1 (9c6d41e410, 2022-07-14)"
   xmlns:inkscape="http://www.inkscape.org/namespaces/inkscape"
   xmlns:sodipodi="http://sodipodi.sourceforge.net/DTD/sodipodi-0.dtd"
   xmlns="http://www.w3.org/2000/svg"
   xmlns:svg="http://www.w3.org/2000/svg">
  <defs
     id="defs138" />
  <sodipodi:namedview
     id="namedview136"
     pagecolor="#ffffff"
     bordercolor="#666666"
     borderopacity="1.0"
     inkscape:showpageshadow="2"
     inkscape:pageopacity="0.0"
     inkscape:pagecheckerboard="0"
     inkscape:deskcolor="#d1d1d1"
     showgrid="false"
     inkscape:zoom="1.6191406"
     inkscape:cx="6.7937275"
     inkscape:cy="67.937275"
     inkscape:current-layer="svg134" />
  <g
     id="g3340"
     transform="translate(1.8460035e-4,1.8460035e-4)">
    <path
       id="circle130"
       style="fill:#ff5454;fill-opacity:1"
       d="M 24,1.9998779 C 11.84964,1.9998105 1.9998105,11.84964 1.9998779,24 c 0.00354,5.185315 1.8385305,10.202733 5.1811524,14.16687 L 38.172729,7.1751709 C 34.206232,3.8333656 29.186594,2.0004018 24,1.9998779 Z"
       sodipodi:nodetypes="ccccc" />
    <path
       id="path2509"
       style="fill:#a9ff53;fill-opacity:1"
       d="M 40.824829,9.8272705 9.83313,40.81897 C 13.797267,44.161592 18.814685,45.996578 24,46.000122 36.15036,46.000189 46.000189,36.15036 46.000122,24 45.999598,18.813406 44.166634,13.793767 40.824829,9.8272705 Z"
       sodipodi:nodetypes="ccccc" />
  </g>
  <path
     fill="#d63232"
     fill-rule="evenodd"
     d="m 21.7793,10.7959 c -1.2014,0.3429 -1.7372,1.5752 -1.6552,2.8219 0.1889,2.8746 0.5704,8.1781 0.9817,11.0253 0.1216,0.8423 0.6101,1.5777 1.4464,1.7354 0.3764,0.071 0.8532,0.1215 1.4478,0.1215 0.5946,0 1.0714,-0.0505 1.4478,-0.1215 0.8363,-0.1577 1.3248,-0.8931 1.4464,-1.7354 0.4113,-2.8472 0.7928,-8.1507 0.9817,-11.0253 0.082,-1.2467 -0.4538,-2.479 -1.6552,-2.8219 C 25.6284,10.6268 24.8881,10.5 24,10.5 c -0.8881,0 -1.6284,0.1268 -2.2207,0.2959 z M 24,37.5 c 2.2091,0 4,-1.7909 4,-4 0,-2.2091 -1.7909,-4 -4,-4 -2.2091,0 -4,1.7909 -4,4 0,2.2091 1.7909,4 4,4 z"
     clip-rule="evenodd"
     id="path4"
     style="fill:#d63232;fill-opacity:1" />
</svg>
