<?xml version="1.0" encoding="UTF-8" standalone="no"?>
<svg
   fill="none"
   viewBox="0 0 48 48"
   height="256"
   width="256"
   version="1.1"
   id="svg134"
   sodipodi:docname="red_exclam.svg"
   inkscape:version="1.2.1 (9c6d41e410, 2022-07-14)"
   xmlns:inkscape="http://www.inkscape.org/namespaces/inkscape"
   xmlns:sodipodi="http://sodipodi.sourceforge.net/DTD/sodipodi-0.dtd"
   xmlns="http://www.w3.org/2000/svg"
   xmlns:svg="http://www.w3.org/2000/svg">
  <defs
     id="defs138" />
  <sodipodi:namedview
     id="namedview136"
     pagecolor="#ffffff"
     bordercolor="#666666"
     borderopacity="1.0"
     inkscape:showpageshadow="2"
     inkscape:pageopacity="0.0"
     inkscape:pagecheckerboard="0"
     inkscape:deskcolor="#d1d1d1"
     showgrid="false"
     inkscape:zoom="1.6191406"
     inkscape:cx="6.7937274"
     inkscape:cy="67.937274"
     inkscape:current-layer="svg134" />
  <circle
     cx="24"
     cy="24"
     r="22"
     fill="#ff5454"
     id="circle130"
     style="fill:#ff5454;fill-opacity:1" />
  <path
     fill="#d63232"
     fill-rule="evenodd"
     d="m 21.7793,10.7959 c -1.2014,0.3429 -1.7372,1.5752 -1.6552,2.8219 0.1889,2.8746 0.5704,8.1781 0.9817,11.0253 0.1216,0.8423 0.6101,1.5777 1.4464,1.7354 0.3764,0.071 0.8532,0.1215 1.4478,0.1215 0.5946,0 1.0714,-0.0505 1.4478,-0.1215 0.8363,-0.1577 1.3248,-0.8931 1.4464,-1.7354 0.4113,-2.8472 0.7928,-8.1507 0.9817,-11.0253 0.082,-1.2467 -0.4538,-2.479 -1.6552,-2.8219 C 25.6284,10.6268 24.8881,10.5 24,10.5 c -0.8881,0 -1.6284,0.1268 -2.2207,0.2959 z M 24,37.5 c 2.2091,0 4,-1.7909 4,-4 0,-2.2091 -1.7909,-4 -4,-4 -2.2091,0 -4,1.7909 -4,4 0,2.2091 1.7909,4 4,4 z"
     clip-rule="evenodd"
     id="path4"
     style="fill:#d63232;fill-opacity:1" />
</svg>
