<?xml version="1.0" encoding="UTF-8" standalone="no"?>
<svg
   fill="none"
   viewBox="0 0 48 48"
   height="256"
   width="256"
   version="1.1"
   id="svg4"
   sodipodi:docname="blinky.svg"
   inkscape:version="1.2.1 (9c6d41e410, 2022-07-14)"
   xmlns:inkscape="http://www.inkscape.org/namespaces/inkscape"
   xmlns:sodipodi="http://sodipodi.sourceforge.net/DTD/sodipodi-0.dtd"
   xmlns="http://www.w3.org/2000/svg"
   xmlns:svg="http://www.w3.org/2000/svg">
  <defs
     id="defs8" />
  <sodipodi:namedview
     id="namedview6"
     pagecolor="#ffffff"
     bordercolor="#666666"
     borderopacity="1.0"
     inkscape:showpageshadow="2"
     inkscape:pageopacity="0.0"
     inkscape:pagecheckerboard="0"
     inkscape:deskcolor="#d1d1d1"
     showgrid="false"
     inkscape:zoom="2.2898106"
     inkscape:cx="79.045839"
     inkscape:cy="119.44219"
     inkscape:current-layer="svg4"
     inkscape:window-width="1920"
     inkscape:window-height="730"
     inkscape:window-x="-6"
     inkscape:window-y="-6"
     inkscape:window-maximized="1" />
  <path
     id="path2"
     style="fill:#edd400;fill-opacity:1"
     d="M 13.499634,3 C 13.34253,3.0003081 13.184933,3.00674 13.026855,3.019409 9.7944222,3.2785364 7.5091801,3.6291945 5.9490967,3.9470215 4.0716551,4.3295075 2.8011455,5.8352129 2.6000977,7.7655029 2.3154094,10.498653 1.9998779,15.421552 1.9998779,23.816162 c 0,8.39472 0.3155315,13.317123 0.6002198,16.050293 0.2010478,1.93028 1.4697363,3.435882 3.3471679,3.818482 C 8.8886562,44.284327 14.409,45 24,45 c 9.591,0 15.111364,-0.715673 18.052734,-1.315063 1.87748,-0.3826 3.146178,-1.888202 3.347168,-3.818482 0.2847,-2.73317 0.60022,-7.655573 0.60022,-16.050293 0,-3.28877 -0.04851,-6.044869 -0.124512,-8.344849 -0.115,-3.47906 -2.975163,-6.1494136 -6.409423,-6.1494136 H 23.810669 c -1.27699,0 -2.49087,-0.5624756 -3.32666,-1.5410156 L 18.344971,5.2763672 C 17.12027,3.8424508 15.353444,2.9963641 13.499634,3 Z"
     sodipodi:nodetypes="scccsccsscscssccs" />
  <path
     fill="#c4a000"
     d="m 13.0267,3.0194 c 2.0234,-0.1622 3.9897,0.70149 5.3182,2.25694 L 20.484,7.7809 c 0.8358,0.97855 2.0497,1.54082 3.3267,1.54082 L 7.3371547,9.3055949 C 4.2939408,9.2748882 3.0936416,10.460815 2.2388602,12.572585 2.2891482,11.297708 2.4058749,9.9881674 2.4110081,9.925893 2.4631187,9.293705 2.5572746,8.1766733 2.60009,7.76562 2.80114,5.83531 4.07157,4.32933 5.94903,3.94684 7.50913,3.62901 9.79423,3.27853 13.0267,3.0194 Z"
     id="path971"
     style="fill:#c4a000;fill-opacity:1"
     sodipodi:nodetypes="scccccsccs" />
  <path
     id="path2-6"
     style="fill:#c4a000;fill-opacity:1;stroke-width:1.2155"
     d="m 20.029604,11.746864 c -0.03106,2.43e-4 -0.0621,0.0017 -0.09304,0.0044 -0.09914,0.0088 -0.196715,0.03045 -0.290224,0.06455 -0.591282,0.21508 -0.896359,0.868673 -0.681496,1.460033 l 0.778535,2.141084 c 0.215078,0.59128 0.868671,0.896359 1.460031,0.681496 0.591282,-0.215079 0.896358,-0.868672 0.681497,-1.460031 L 21.106372,12.496878 C 20.941866,12.044549 20.510904,11.7444 20.029596,11.746831 Z m 8.140568,0 c -0.481306,-0.0024 -0.912273,0.297721 -1.076774,0.750048 l -0.78076,2.141527 c -0.214905,0.591233 0.08995,1.244771 0.681051,1.460033 0.592142,0.216622 1.247644,-0.0888 1.462704,-0.681497 l 0.778534,-2.141084 c 0.214861,-0.591361 -0.09022,-1.244953 -0.681496,-1.460032 -0.0935,-0.03409 -0.191077,-0.05579 -0.290226,-0.06455 -0.03093,-0.0027 -0.06198,-0.0043 -0.09304,-0.0044 z m -13.349944,4.691243 c -0.02839,2.43e-4 -0.05673,0.0017 -0.08502,0.0041 -0.405694,0.03531 -0.761712,0.284414 -0.933886,0.653453 -0.26633,0.570343 -0.01979,1.248597 0.550628,1.514783 l 2.06541,0.96371 c 0.570344,0.266333 1.248601,0.01978 1.514784,-0.550628 0.266332,-0.570344 0.01978,-1.248597 -0.550628,-1.514783 L 15.316098,16.54496 c -0.155167,-0.07241 -0.324656,-0.108895 -0.495876,-0.106833 z m 18.55932,0 c -0.171219,-0.0021 -0.34071,0.03442 -0.495876,0.106832 l -2.065412,0.963709 c -0.570415,0.266185 -0.816959,0.94444 -0.550628,1.514784 0.266164,0.568895 0.942461,0.815165 1.512112,0.550628 l 2.068083,-0.963715 c 0.570415,-0.266186 0.816958,-0.944442 0.550627,-1.514785 -0.127836,-0.273824 -0.359204,-0.485664 -0.643214,-0.588909 -0.09368,-0.03399 -0.191401,-0.05559 -0.290672,-0.0641 -0.02828,-0.0025 -0.05665,-0.0041 -0.08501,-0.0044 z m -9.314827,0.782542 c -2.513997,0 -4.992595,2.071646 -4.992595,5.469778 v 5.106996 c -0.133769,0.05491 -0.258121,0.114871 -0.372576,0.180277 -0.369481,0.211136 -0.683722,0.52973 -0.683722,0.958814 0,0.429086 0.314241,0.745901 0.683722,0.957033 0.369483,0.211133 0.842571,0.362474 1.40083,0.486529 1.116516,0.248115 2.565396,0.368125 4.016868,0.368125 1.451474,0 2.900353,-0.120011 4.016868,-0.368125 0.558257,-0.124055 1.033573,-0.275396 1.403055,-0.486529 0.369481,-0.211132 0.683723,-0.527947 0.683723,-0.957033 0,-0.429085 -0.314242,-0.747679 -0.683723,-0.958814 -0.143418,-0.08196 -0.303209,-0.154921 -0.477181,-0.220785 v -5.066488 c 0,-3.398549 -2.48127,-5.469778 -4.995269,-5.469778 z m -10.249155,5.624683 c -0.629349,0 -1.139537,0.510188 -1.139537,1.139536 0,0.629348 0.510188,1.139538 1.139537,1.139538 h 2.279074 c 0.629348,0 1.139537,-0.51019 1.139537,-1.139538 0,-0.629348 -0.510189,-1.139536 -1.139537,-1.139536 z m 18.289571,0 c -0.629349,0 -1.139537,0.510188 -1.139537,1.139536 0,0.629348 0.510188,1.139538 1.139537,1.139538 h 2.279074 c 0.629348,0 1.139537,-0.51019 1.139537,-1.139538 0,-0.629348 -0.510189,-1.139536 -1.139537,-1.139536 z m -14.089309,6.546997 v 1.906499 c 0,0.429086 0.314241,0.745454 0.683722,0.956588 0.329579,0.188329 0.741492,0.33109 1.222775,0.447801 v 2.484282 h -0.135318 c -0.209419,8.79e-4 -0.379266,0.170278 -0.380143,0.379698 v 3.815221 c -4.28e-4,0.210344 0.169799,0.381487 0.380143,0.38237 h 0.135318 v 2.687259 c -4.26e-4,0.210344 0.169358,0.381485 0.379698,0.382369 h 1.141764 c 0.210342,-8.84e-4 0.380571,-0.172025 0.380143,-0.382369 v -2.687259 h 0.123302 c 0.21127,4.27e-4 0.382795,-0.171096 0.382368,-0.38237 v -3.815221 c -8.82e-4,-0.210343 -0.172024,-0.380126 -0.382368,-0.379698 h -0.249275 v -2.1945 c 0.764798,0.07878 1.591227,0.11707 2.418846,0.11707 0.693302,0 1.385639,-0.02689 2.04182,-0.0819 v 2.159335 h -0.13532 c -0.209419,8.79e-4 -0.37882,0.17028 -0.379698,0.379698 v 3.815221 c -4.28e-4,0.210347 0.169354,0.381488 0.379698,0.38237 h 0.13532 l -0.008,2.68993 c 8.76e-4,0.20942 0.170723,0.37882 0.380142,0.379698 h 1.141763 c 0.209418,-8.78e-4 0.378819,-0.170278 0.379696,-0.379698 l 0.008,-2.68993 h 0.123746 c 0.211273,4.3e-4 0.382351,-0.171096 0.381924,-0.38237 v -3.815219 c -8.83e-4,-0.210342 -0.171577,-0.380126 -0.381924,-0.379698 h -0.249273 v -2.40104 c 0.06731,-0.01359 0.133861,-0.02737 0.198975,-0.04185 0.558256,-0.124057 1.033573,-0.278067 1.403054,-0.489199 0.369481,-0.211135 0.683721,-0.527502 0.683721,-0.956588 v -1.906504 c 0,0.429086 -0.31424,0.745457 -0.683721,0.956589 -0.369481,0.211134 -0.844798,0.362919 -1.403054,0.486974 -1.116515,0.248113 -2.565398,0.367679 -4.016869,0.367679 -1.451471,0 -2.900354,-0.11957 -4.016869,-0.367679 -0.558259,-0.124058 -1.030901,-0.275843 -1.400384,-0.486977 -0.369481,-0.211132 -0.683722,-0.527503 -0.683722,-0.956589 z"
     sodipodi:nodetypes="ccccccccccccccccccccccccccccccccccccccccsscssssssssscsssssssssssssssscssccccccccccccccccccscccccccccccccccccccsscssssscc" />
</svg>
