<?xml version="1.0" encoding="UTF-8" standalone="no"?>
<svg
   fill="none"
   viewBox="0 0 48 48"
   height="256"
   width="256"
   version="1.1"
   id="svg4"
   sodipodi:docname="build.svg"
   inkscape:version="1.2.1 (9c6d41e410, 2022-07-14)"
   xmlns:inkscape="http://www.inkscape.org/namespaces/inkscape"
   xmlns:sodipodi="http://sodipodi.sourceforge.net/DTD/sodipodi-0.dtd"
   xmlns="http://www.w3.org/2000/svg"
   xmlns:svg="http://www.w3.org/2000/svg">
  <defs
     id="defs8" />
  <sodipodi:namedview
     id="namedview6"
     pagecolor="#ffffff"
     bordercolor="#666666"
     borderopacity="1.0"
     inkscape:showpageshadow="2"
     inkscape:pageopacity="0.0"
     inkscape:pagecheckerboard="0"
     inkscape:deskcolor="#d1d1d1"
     showgrid="false"
     inkscape:zoom="1.1449053"
     inkscape:cx="219.23211"
     inkscape:cy="139.31283"
     inkscape:current-layer="svg4"
     inkscape:window-width="1920"
     inkscape:window-height="730"
     inkscape:window-x="-6"
     inkscape:window-y="-6"
     inkscape:window-maximized="1" />
  <path
     fill="#edd400"
     d="m 13.0267,3.0194 c 2.0234,-0.1622 3.9897,0.70149 5.3182,2.25694 L 20.484,7.7809 c 0.8358,0.97855 2.0497,1.54082 3.3267,1.54082 h 15.6556 c 3.4343,0 6.2943,2.67048 6.4093,6.14958 0.076,2.3 0.1244,5.0559 0.1244,8.3447 0,8.3948 -0.3154,13.3172 -0.6001,16.0504 -0.201,1.9303 -1.4695,3.4358 -3.347,3.8184 C 39.1115,44.2842 33.5911,45 24,45 14.4089,45 8.88851,44.2842 5.94709,43.6848 4.06964,43.3022 2.80114,41.7967 2.60009,39.8664 2.3154,37.1332 2,32.2108 2,23.816 2,15.4213 2.3154,10.4988 2.60009,7.76562 2.80114,5.83531 4.07157,4.32933 5.94903,3.94684 7.50913,3.62901 9.79423,3.27853 13.0267,3.0194 Z"
     id="path2"
     sodipodi:nodetypes="cccsscscssccsccc"
     style="fill:#edd400;fill-opacity:1" />
  <path
     fill="#c4a000"
     d="m 13.0267,3.0194 c 2.0234,-0.1622 3.9897,0.70149 5.3182,2.25694 L 20.484,7.7809 c 0.8358,0.97855 2.0497,1.54082 3.3267,1.54082 L 7.3371547,9.3055949 C 4.2939408,9.2748882 3.0936416,10.460815 2.2388602,12.572585 2.2891482,11.297708 2.4058749,9.9881674 2.4110081,9.925893 2.4631187,9.293705 2.5572746,8.1766733 2.60009,7.76562 2.80114,5.83531 4.07157,4.32933 5.94903,3.94684 7.50913,3.62901 9.79423,3.27853 13.0267,3.0194 Z"
     id="path971"
     style="fill:#c4a000;fill-opacity:1"
     sodipodi:nodetypes="scccccsccs" />
  <g
     id="g441"
     transform="matrix(0.729,0,0,0.729,-19.28828,0.79306205)"
     style="stroke-width:1.37174">
    <path
       id="rect288"
       style="fill:#8f5902;fill-opacity:1;stroke:none;stroke-width:2.57201;stroke-linecap:round;stroke-linejoin:round"
       d="m 55.365768,30.127844 c 0.902936,-0.04007 1.831447,0.392048 2.556518,1.053222 10.083417,9.194041 17.260865,15.569737 20.60669,18.521118 1.359352,1.199212 2.266157,2.949324 1.482788,4.583863 -0.351353,0.733062 -0.892176,1.55428 -1.723022,2.385132 -0.830848,0.83085 -1.652075,1.371667 -2.385132,1.723022 -1.63453,0.783374 -3.384775,-0.123428 -4.583863,-1.482788 C 68.368264,53.56557 61.992491,46.387579 52.798263,36.303991 51.836796,35.249454 51.359545,33.764789 52.11528,32.554357 c 0.235258,-0.376746 0.533525,-0.769729 0.910034,-1.14624 0.376626,-0.376629 0.769377,-0.674656 1.14624,-0.910034 0.378332,-0.236242 0.783788,-0.352027 1.194214,-0.370239 z"
       sodipodi:nodetypes="scccsccccscs" />
    <path
       id="rect1000"
       style="fill:#2e3436;fill-opacity:1;stroke:none;stroke-width:2.57201;stroke-linecap:round;stroke-linejoin:round"
       d="m 57.151412,14.684362 c 0.9532,-0.008 1.904594,0.323007 2.725342,1.005982 1.041658,0.866907 2.407142,2.097696 4.141114,3.831665 1.73397,1.733968 2.964797,3.099721 3.831665,4.141479 1.365965,1.641506 1.324707,3.805165 -0.02307,5.46167 -1.48135,1.820786 -4.001347,4.668809 -8.208252,8.875855 -4.207023,4.206927 -7.054712,6.726892 -8.875488,8.208251 -1.656496,1.347786 -3.820173,1.389044 -5.46167,0.02307 -1.041778,-0.86687 -2.40751,-2.097683 -4.141481,-3.831663 -1.733971,-1.733981 -2.964798,-3.099816 -3.831665,-4.14148 -1.36599,-1.641506 -1.324601,-3.805282 0.02307,-5.46167 1.481351,-1.820785 4.001228,-4.668902 8.208252,-8.875854 4.206906,-4.206987 7.055078,-6.726893 8.875854,-8.208252 0.828189,-0.673851 1.783129,-1.021026 2.736328,-1.029053 z"
       sodipodi:nodetypes="scscccccsccccs" />
  </g>
</svg>
