<?xml version="1.0" encoding="UTF-8" standalone="no"?>
<svg
   fill="none"
   viewBox="0 0 48 48"
   height="256"
   width="256"
   version="1.1"
   id="svg4"
   sodipodi:docname="chip.svg"
   inkscape:version="1.2.1 (9c6d41e410, 2022-07-14)"
   xmlns:inkscape="http://www.inkscape.org/namespaces/inkscape"
   xmlns:sodipodi="http://sodipodi.sourceforge.net/DTD/sodipodi-0.dtd"
   xmlns="http://www.w3.org/2000/svg"
   xmlns:svg="http://www.w3.org/2000/svg">
  <defs
     id="defs8" />
  <sodipodi:namedview
     id="namedview6"
     pagecolor="#ffffff"
     bordercolor="#666666"
     borderopacity="1.0"
     inkscape:showpageshadow="2"
     inkscape:pageopacity="0.0"
     inkscape:pagecheckerboard="0"
     inkscape:deskcolor="#d1d1d1"
     showgrid="false"
     inkscape:zoom="1.6191406"
     inkscape:cx="39.527142"
     inkscape:cy="116.41978"
     inkscape:current-layer="svg4"
     inkscape:window-width="1920"
     inkscape:window-height="730"
     inkscape:window-x="-6"
     inkscape:window-y="-6"
     inkscape:window-maximized="1" />
  <path
     fill="#edd400"
     d="m 13.0267,3.0194 c 2.0234,-0.1622 3.9897,0.70149 5.3182,2.25694 L 20.484,7.7809 c 0.8358,0.97855 2.0497,1.54082 3.3267,1.54082 h 15.6556 c 3.4343,0 6.2943,2.67048 6.4093,6.14958 0.076,2.3 0.1244,5.0559 0.1244,8.3447 0,8.3948 -0.3154,13.3172 -0.6001,16.0504 -0.201,1.9303 -1.4695,3.4358 -3.347,3.8184 C 39.1115,44.2842 33.5911,45 24,45 14.4089,45 8.88851,44.2842 5.94709,43.6848 4.06964,43.3022 2.80114,41.7967 2.60009,39.8664 2.3154,37.1332 2,32.2108 2,23.816 2,15.4213 2.3154,10.4988 2.60009,7.76562 2.80114,5.83531 4.07157,4.32933 5.94903,3.94684 7.50913,3.62901 9.79423,3.27853 13.0267,3.0194 Z"
     id="path2"
     sodipodi:nodetypes="cccsscscssccsccc"
     style="fill:#edd400;fill-opacity:1" />
  <path
     fill="#c4a000"
     d="m 13.0267,3.0194 c 2.0234,-0.1622 3.9897,0.70149 5.3182,2.25694 L 20.484,7.7809 c 0.8358,0.97855 2.0497,1.54082 3.3267,1.54082 L 7.3371547,9.3055949 C 4.2939408,9.2748882 3.0936416,10.460815 2.2388602,12.572585 2.2891482,11.297708 2.4058749,9.9881674 2.4110081,9.925893 2.4631187,9.293705 2.5572746,8.1766733 2.60009,7.76562 2.80114,5.83531 4.07157,4.32933 5.94903,3.94684 7.50913,3.62901 9.79423,3.27853 13.0267,3.0194 Z"
     id="path971"
     style="fill:#c4a000;fill-opacity:1"
     sodipodi:nodetypes="scccccsccs" />
  <path
     id="path2-4"
     style="stroke-width:0.6561;fill:#2e3436;fill-opacity:1"
     d="M 18.619995 12.793213 C 18.121755 12.793213 17.770968 12.847094 17.529785 12.911133 C 17.206787 12.996903 17.05109 13.306565 17.040527 13.640625 C 17.020783 14.264644 16.990613 15.34373 16.9823 16.27771 C 16.768756 16.291396 16.561743 16.305098 16.369263 16.319092 C 14.69161 16.441061 13.410299 17.722374 13.28833 19.400024 C 13.274337 19.592493 13.260633 19.799168 13.246948 20.012695 C 12.312969 20.021011 11.233883 20.051554 10.609863 20.071289 C 10.275805 20.081849 9.9661362 20.237183 9.8803711 20.560181 C 9.8163363 20.801361 9.7628174 21.152514 9.7628174 21.650757 C 9.7628174 22.148997 9.8163356 22.499784 9.8803711 22.740967 C 9.9661429 23.064028 10.275812 23.219662 10.609863 23.230225 C 11.201379 23.24894 12.200808 23.276997 13.098999 23.286987 C 13.078252 23.994369 13.062472 24.761415 13.053223 25.591553 C 12.167015 25.601983 11.191328 25.62956 10.609863 25.647949 C 10.275805 25.658509 9.9661362 25.814209 9.8803711 26.137207 C 9.8163363 26.378389 9.7628174 26.729174 9.7628174 27.227417 C 9.7628174 27.725657 9.8163356 28.07681 9.8803711 28.317993 C 9.9661429 28.641056 10.275812 28.796322 10.609863 28.806885 C 11.191323 28.825282 12.167009 28.85285 13.053223 28.863281 C 13.06247 29.693378 13.078255 30.460488 13.098999 31.167847 C 12.200808 31.177839 11.201379 31.206268 10.609863 31.224976 C 10.275812 31.235536 9.9661428 31.391171 9.8803711 31.714233 C 9.8163363 31.955415 9.7628174 32.306202 9.7628174 32.804443 C 9.7628174 33.302685 9.8163356 33.653473 9.8803711 33.894653 C 9.9661359 34.217651 10.275805 34.373348 10.609863 34.383911 C 11.233883 34.403655 12.312969 34.433823 13.246948 34.442139 C 13.260634 34.655677 13.274336 34.862702 13.28833 35.055176 C 13.410299 36.73282 14.69161 38.014141 16.369263 38.136108 C 16.563125 38.150201 16.771466 38.164078 16.986694 38.177856 C 16.982364 38.475933 16.979736 38.768537 16.979736 39.037354 C 16.979736 39.848226 17.004053 40.467502 17.025513 40.857422 C 17.042443 41.165592 17.19152 41.448143 17.488403 41.532715 C 17.730242 41.601605 18.092558 41.661621 18.619995 41.661621 C 19.147434 41.661621 19.509748 41.601601 19.751587 41.532715 C 20.048406 41.448145 20.197485 41.165592 20.214478 40.857422 C 20.235928 40.467502 20.260254 39.848226 20.260254 39.037354 C 20.260254 38.813346 20.258248 38.571829 20.255127 38.325439 C 20.963026 38.346207 21.730666 38.361964 22.561523 38.371216 C 22.558749 38.601462 22.556763 38.827346 22.556763 39.037354 C 22.556763 39.848226 22.580723 40.467502 22.602173 40.857422 C 22.619163 41.165592 22.768611 41.448143 23.06543 41.532715 C 23.307267 41.601605 23.669218 41.661621 24.196655 41.661621 C 24.724094 41.661621 25.086408 41.601601 25.328247 41.532715 C 25.625132 41.448145 25.774577 41.165592 25.791504 40.857422 C 25.812954 40.467502 25.836914 39.848226 25.836914 39.037354 C 25.836914 38.827346 25.834927 38.601461 25.832153 38.371216 C 26.663011 38.361964 27.430651 38.346207 28.13855 38.325439 C 28.135429 38.571829 28.133423 38.813346 28.133423 39.037354 C 28.133423 39.848226 28.157749 40.467502 28.179199 40.857422 C 28.196189 41.165592 28.345271 41.448143 28.64209 41.532715 C 28.883929 41.601605 29.246243 41.661621 29.773682 41.661621 C 30.301119 41.661621 30.663436 41.601601 30.905273 41.532715 C 31.202158 41.448145 31.351237 41.165592 31.368164 40.857422 C 31.389614 40.467502 31.41394 39.848226 31.41394 39.037354 C 31.41394 38.768537 31.411313 38.475933 31.406982 38.177856 C 31.622212 38.164078 31.830552 38.150201 32.024414 38.136108 C 33.702057 38.014141 34.983378 36.73282 35.105347 35.055176 C 35.119439 34.861314 35.133316 34.652974 35.147095 34.437744 C 35.44517 34.442075 35.737775 34.444702 36.006592 34.444702 C 36.817464 34.444702 37.436742 34.420386 37.82666 34.398926 C 38.134831 34.381996 38.417382 34.232921 38.501953 33.936035 C 38.570843 33.694197 38.630859 33.331881 38.630859 32.804443 C 38.630859 32.277006 38.570839 31.914687 38.501953 31.672852 C 38.417383 31.376032 38.134831 31.226588 37.82666 31.209595 C 37.436742 31.188145 36.817464 31.164185 36.006592 31.164185 C 35.782584 31.164185 35.541066 31.166191 35.294678 31.169312 C 35.315444 30.461444 35.331202 29.69373 35.340454 28.862915 C 35.5707 28.865689 35.796584 28.867676 36.006592 28.867676 C 36.817464 28.867676 37.436742 28.843726 37.82666 28.822266 C 38.134831 28.805276 38.417382 28.655827 38.501953 28.359009 C 38.570843 28.117171 38.630859 27.754853 38.630859 27.227417 C 38.630859 26.69998 38.570839 26.337663 38.501953 26.095825 C 38.417383 25.79894 38.134831 25.649862 37.82666 25.632935 C 37.436742 25.611475 36.817464 25.587158 36.006592 25.587158 C 35.796584 25.587158 35.570699 25.589145 35.340454 25.591919 C 35.331203 24.761292 35.315438 23.993622 35.294678 23.285889 C 35.541066 23.289009 35.782584 23.291016 36.006592 23.291016 C 36.817464 23.291016 37.436742 23.266699 37.82666 23.245239 C 38.134831 23.228249 38.417382 23.079167 38.501953 22.782349 C 38.570843 22.540511 38.630859 22.178193 38.630859 21.650757 C 38.630859 21.123318 38.570839 20.761003 38.501953 20.519165 C 38.417383 20.22228 38.134831 20.072835 37.82666 20.055908 C 37.436742 20.034458 36.817464 20.010498 36.006592 20.010498 C 35.737775 20.010498 35.44517 20.013125 35.147095 20.017456 C 35.133309 19.802105 35.119446 19.593982 35.105347 19.400024 C 34.983378 17.722367 33.702057 16.441067 32.024414 16.319092 C 31.831933 16.305099 31.624921 16.291395 31.411377 16.27771 C 31.403061 15.34373 31.372893 14.264644 31.353149 13.640625 C 31.342589 13.306565 31.186888 12.996898 30.863892 12.911133 C 30.622709 12.847093 30.271922 12.793213 29.773682 12.793213 C 29.27544 12.793213 28.924652 12.847094 28.683472 12.911133 C 28.360408 12.996903 28.204777 13.306571 28.194214 13.640625 C 28.175497 14.232179 28.147442 15.231522 28.137451 16.129761 C 27.429964 16.109011 26.662802 16.093233 25.83252 16.083984 C 25.822089 15.197777 25.794879 14.222088 25.776489 13.640625 C 25.765929 13.306565 25.610229 12.996898 25.287231 12.911133 C 25.04605 12.847093 24.695263 12.793213 24.197021 12.793213 C 23.698781 12.793213 23.347627 12.847094 23.106445 12.911133 C 22.783383 12.996903 22.627749 13.306571 22.617188 13.640625 C 22.598789 14.222114 22.571587 15.197732 22.561157 16.083984 C 21.730875 16.093233 20.963713 16.109011 20.256226 16.129761 C 20.246235 15.231522 20.21818 14.232179 20.199463 13.640625 C 20.188903 13.306571 20.033269 12.996904 19.710205 12.911133 C 19.469023 12.847093 19.118237 12.793213 18.619995 12.793213 z M 16.323486 18.165161 A 1.8452812 1.8452812 0 0 1 18.168823 20.010498 A 1.8452812 1.8452812 0 0 1 16.323486 21.855835 A 1.8452812 1.8452812 0 0 1 14.478516 20.010498 A 1.8452812 1.8452812 0 0 1 16.323486 18.165161 z " />
</svg>
