<?xml version="1.0" encoding="UTF-8" standalone="no"?>
<svg
   fill="none"
   viewBox="0 0 48 48"
   height="256"
   width="256"
   version="1.1"
   id="svg4"
   sodipodi:docname="file.svg"
   inkscape:version="1.2.1 (9c6d41e410, 2022-07-14)"
   xmlns:inkscape="http://www.inkscape.org/namespaces/inkscape"
   xmlns:sodipodi="http://sodipodi.sourceforge.net/DTD/sodipodi-0.dtd"
   xmlns="http://www.w3.org/2000/svg"
   xmlns:svg="http://www.w3.org/2000/svg">
  <defs
     id="defs8" />
  <sodipodi:namedview
     id="namedview6"
     pagecolor="#ffffff"
     bordercolor="#666666"
     borderopacity="1.0"
     inkscape:showpageshadow="2"
     inkscape:pageopacity="0.0"
     inkscape:pagecheckerboard="0"
     inkscape:deskcolor="#d1d1d1"
     showgrid="false"
     inkscape:zoom="1.1449053"
     inkscape:cx="137.12925"
     inkscape:cy="79.919274"
     inkscape:current-layer="svg4"
     showguides="false"
     inkscape:window-width="1920"
     inkscape:window-height="730"
     inkscape:window-x="-6"
     inkscape:window-y="-6"
     inkscape:window-maximized="1" />
  <path
     fill="#edd400"
     d="m 13.0267,3.0194 c 2.0234,-0.1622 3.9897,0.70149 5.3182,2.25694 L 20.484,7.7809 c 0.8358,0.97855 2.0497,1.54082 3.3267,1.54082 h 15.6556 c 3.4343,0 6.2943,2.67048 6.4093,6.14958 0.076,2.3 0.1244,5.0559 0.1244,8.3447 0,8.3948 -0.3154,13.3172 -0.6001,16.0504 -0.201,1.9303 -1.4695,3.4358 -3.347,3.8184 C 39.1115,44.2842 33.5911,45 24,45 14.4089,45 8.88851,44.2842 5.94709,43.6848 4.06964,43.3022 2.80114,41.7967 2.60009,39.8664 2.3154,37.1332 2,32.2108 2,23.816 2,15.4213 2.3154,10.4988 2.60009,7.76562 2.80114,5.83531 4.07157,4.32933 5.94903,3.94684 7.50913,3.62901 9.79423,3.27853 13.0267,3.0194 Z"
     id="path2"
     sodipodi:nodetypes="cccsscscssccsccc"
     style="fill:#edd400;fill-opacity:1" />
  <path
     fill="#c4a000"
     d="m 13.0267,3.0194 c 2.0234,-0.1622 3.9897,0.70149 5.3182,2.25694 L 20.484,7.7809 c 0.8358,0.97855 2.0497,1.54082 3.3267,1.54082 L 7.3371547,9.3055949 C 4.2939408,9.2748882 3.0936416,10.460815 2.2388602,12.572585 2.2891482,11.297708 2.4058749,9.9881674 2.4110081,9.925893 2.4631187,9.293705 2.5572746,8.1766733 2.60009,7.76562 2.80114,5.83531 4.07157,4.32933 5.94903,3.94684 7.50913,3.62901 9.79423,3.27853 13.0267,3.0194 Z"
     id="path971"
     style="fill:#c4a000;fill-opacity:1"
     sodipodi:nodetypes="scccccsccs" />
  <path
     id="rect347"
     style="fill:#d3d7cf;stroke:none;stroke-width:5.25;stroke-linejoin:round;fill-opacity:1"
     d="m 24.44458,13.454956 c 1.344781,0 2.529559,0.01548 3.571655,0.04138 0,0 1.606513,0.608083 4.55896,3.531006 2.941641,2.912234 3.558379,4.505212 3.562867,4.516845 0.07168,1.387709 0.116088,3.010562 0.116088,4.901368 0,5.641594 -0.395794,8.898008 -0.729126,10.639892 -0.21417,1.119037 -1.096334,1.886069 -2.240112,2.008301 -1.543952,0.164923 -4.26829,0.342773 -8.840332,0.342773 -4.572041,0 -7.296758,-0.17785 -8.840698,-0.342773 -1.143802,-0.122232 -2.025587,-0.889264 -2.239746,-2.008301 -0.333373,-1.741884 -0.729492,-4.998298 -0.729492,-10.639892 0,-5.641596 0.396119,-8.897991 0.729492,-10.639893 0.214165,-1.119036 1.095944,-1.886111 2.239746,-2.008301 1.54394,-0.164936 4.268657,-0.342407 8.840698,-0.342407 z"
     sodipodi:nodetypes="scscsccscsssss" />
  <path
     id="rect951"
     style="fill:#2e3436;fill-opacity:1;stroke:none;stroke-width:5.25;stroke-linejoin:round"
     d="m 27.4834,13.946777 c 0,0 1.60651,0.608087 4.55896,3.531006 2.95245,2.922949 3.56286,4.516846 3.56286,4.516846 -1.88925,0.470441 -4.11987,0.501767 -6.0465,-0.08093 C 28.7442,21.667348 28.1091,21.039259 27.83423,20.241214 27.14938,18.253191 26.98007,15.819828 27.4834,13.94678 Z m -3.62952,10.736939 c 2.01605,-0.0041 3.27955,0.03125 4.06531,0.07288 0.75252,0.03992 1.24914,0.62819 1.24914,1.381714 v 0.604248 c 0,0.76303 -0.50725,1.359289 -1.26928,1.398559 -0.78712,0.04051 -2.04589,0.07581 -4.04517,0.07581 -1.99928,0 -3.25804,-0.0353 -4.04516,-0.07581 -0.76203,-0.03927 -1.26929,-0.635529 -1.26929,-1.398559 V 26.17786 c 0,-0.772596 0.51778,-1.376725 1.28943,-1.415405 0.78842,-0.0395 2.04286,-0.07473 4.02502,-0.07873 z m -1.77136,5.895263 c 1.06058,0 1.81242,0.024 2.34192,0.0553 0.72931,0.04299 1.20117,0.622595 1.20117,1.35315 v 0.72583 c 0,0.730611 -0.47186,1.310099 -1.20117,1.353149 -0.5295,0.03124 -1.28134,0.0553 -2.34192,0.0553 -1.06057,0 -1.81242,-0.02406 -2.34192,-0.0553 -0.72931,-0.04305 -1.20117,-0.622597 -1.20117,-1.353149 v -0.72583 c 0,-0.730555 0.47186,-1.31016 1.20117,-1.35315 0.5295,-0.0313 1.28135,-0.0553 2.34192,-0.0553 z"
     sodipodi:nodetypes="cscsccscsscscssssscssssssscs" />
</svg>
