<?xml version="1.0" encoding="UTF-8" standalone="no"?>
<svg
   fill="none"
   viewBox="0 0 48 48"
   height="256"
   width="256"
   version="1.1"
   id="svg4"
   sodipodi:docname="folder_c.svg"
   inkscape:version="1.2.1 (9c6d41e410, 2022-07-14)"
   xmlns:inkscape="http://www.inkscape.org/namespaces/inkscape"
   xmlns:sodipodi="http://sodipodi.sourceforge.net/DTD/sodipodi-0.dtd"
   xmlns="http://www.w3.org/2000/svg"
   xmlns:svg="http://www.w3.org/2000/svg">
  <defs
     id="defs8" />
  <sodipodi:namedview
     id="namedview6"
     pagecolor="#ffffff"
     bordercolor="#666666"
     borderopacity="1.0"
     inkscape:showpageshadow="2"
     inkscape:pageopacity="0.0"
     inkscape:pagecheckerboard="0"
     inkscape:deskcolor="#d1d1d1"
     showgrid="false"
     inkscape:zoom="1.6191406"
     inkscape:cx="98.200243"
     inkscape:cy="100.97949"
     inkscape:current-layer="svg4"
     inkscape:window-width="1920"
     inkscape:window-height="730"
     inkscape:window-x="-6"
     inkscape:window-y="-6"
     inkscape:window-maximized="1" />
  <path
     fill="#edd400"
     d="m 13.0267,3.0194 c 2.0234,-0.1622 3.9897,0.70149 5.3182,2.25694 L 20.484,7.7809 c 0.8358,0.97855 2.0497,1.54082 3.3267,1.54082 h 15.6556 c 3.4343,0 6.2943,2.67048 6.4093,6.14958 0.076,2.3 0.1244,5.0559 0.1244,8.3447 0,8.3948 -0.3154,13.3172 -0.6001,16.0504 -0.201,1.9303 -1.4695,3.4358 -3.347,3.8184 C 39.1115,44.2842 33.5911,45 24,45 14.4089,45 8.88851,44.2842 5.94709,43.6848 4.06964,43.3022 2.80114,41.7967 2.60009,39.8664 2.3154,37.1332 2,32.2108 2,23.816 2,15.4213 2.3154,10.4988 2.60009,7.76562 2.80114,5.83531 4.07157,4.32933 5.94903,3.94684 7.50913,3.62901 9.79423,3.27853 13.0267,3.0194 Z"
     id="path2"
     sodipodi:nodetypes="cccsscscssccsccc"
     style="fill:#edd400;fill-opacity:1" />
  <g
     aria-label=".c"
     transform="scale(0.84520216,1.1831489)"
     id="text2447"
     style="font-size:20.6664px;line-height:0.85;font-family:'Arial Rounded MT Bold';-inkscape-font-specification:'Arial Rounded MT Bold, Normal';word-spacing:0px;fill:#2e3436;stroke-width:0.140907">
    <path
       d="m 21.505201,27.619055 q -0.625643,0 -1.079739,-0.403641 -0.454096,-0.403641 -0.454096,-1.130194 0,-0.615552 0.433914,-1.059556 0.433914,-0.444005 1.069648,-0.444005 0.635734,0 1.079739,0.444005 0.454095,0.433913 0.454095,1.059556 0,0.716462 -0.454095,1.130194 -0.444005,0.403641 -1.049466,0.403641 z"
       id="path9504" />
    <path
       d="m 36.026173,24.208291 q 0,0.514642 -0.312821,1.099921 -0.302731,0.585279 -0.938465,1.120103 -0.625643,0.524733 -1.584289,0.847645 -0.958647,0.322913 -2.159478,0.322913 -2.553027,0 -3.985951,-1.48338 -1.432925,-1.49347 -1.432925,-3.996042 0,-1.695291 0.655917,-2.997032 0.655916,-1.301741 1.897111,-2.008112 1.241195,-0.716462 2.966758,-0.716462 1.069648,0 1.957657,0.312821 0.898101,0.312822 1.513653,0.807282 0.625643,0.494459 0.948555,1.059556 0.333004,0.555006 0.333004,1.039375 0,0.49446 -0.373368,0.837554 -0.363276,0.343095 -0.888009,0.343095 -0.343095,0 -0.575188,-0.171547 -0.222002,-0.181639 -0.504551,-0.575188 -0.504551,-0.766918 -1.059557,-1.150376 -0.544914,-0.383459 -1.39256,-0.383459 -1.221013,0 -1.967748,0.958647 -0.746735,0.948555 -0.746735,2.603482 0,0.777008 0.191729,1.432924 0.191729,0.645825 0.555006,1.110012 0.363277,0.454096 0.877918,0.69628 0.514642,0.232093 1.130194,0.232093 0.827464,0 1.412743,-0.383458 0.595369,-0.383459 1.049465,-1.170558 0.252276,-0.464187 0.544915,-0.726553 0.29264,-0.262367 0.716462,-0.262367 0.504551,0 0.837555,0.383459 0.333003,0.383459 0.333003,0.817372 z"
       id="path9506" />
  </g>
  <path
     fill="#c4a000"
     d="m 13.0267,3.0194 c 2.0234,-0.1622 3.9897,0.70149 5.3182,2.25694 L 20.484,7.7809 c 0.8358,0.97855 2.0497,1.54082 3.3267,1.54082 L 7.3371547,9.3055949 C 4.2939408,9.2748882 3.0936416,10.460815 2.2388602,12.572585 2.2891482,11.297708 2.4058749,9.9881674 2.4110081,9.925893 2.4631187,9.293705 2.5572746,8.1766733 2.60009,7.76562 2.80114,5.83531 4.07157,4.32933 5.94903,3.94684 7.50913,3.62901 9.79423,3.27853 13.0267,3.0194 Z"
     id="path971"
     style="fill:#c4a000;fill-opacity:1"
     sodipodi:nodetypes="scccccsccs" />
</svg>
