<?xml version="1.0" encoding="UTF-8" standalone="no"?>
<svg
   fill="none"
   viewBox="0 0 48 48"
   height="256"
   width="256"
   version="1.1"
   id="svg4"
   sodipodi:docname="folder_h.svg"
   inkscape:version="1.2.1 (9c6d41e410, 2022-07-14)"
   xmlns:inkscape="http://www.inkscape.org/namespaces/inkscape"
   xmlns:sodipodi="http://sodipodi.sourceforge.net/DTD/sodipodi-0.dtd"
   xmlns="http://www.w3.org/2000/svg"
   xmlns:svg="http://www.w3.org/2000/svg">
  <defs
     id="defs8" />
  <sodipodi:namedview
     id="namedview6"
     pagecolor="#ffffff"
     bordercolor="#666666"
     borderopacity="1.0"
     inkscape:showpageshadow="2"
     inkscape:pageopacity="0.0"
     inkscape:pagecheckerboard="0"
     inkscape:deskcolor="#d1d1d1"
     showgrid="false"
     inkscape:zoom="2.2898106"
     inkscape:cx="163.33229"
     inkscape:cy="110.27113"
     inkscape:current-layer="svg4"
     inkscape:window-width="1920"
     inkscape:window-height="730"
     inkscape:window-x="-6"
     inkscape:window-y="-6"
     inkscape:window-maximized="1" />
  <path
     fill="#edd400"
     d="m 13.0267,3.0194 c 2.0234,-0.1622 3.9897,0.70149 5.3182,2.25694 L 20.484,7.7809 c 0.8358,0.97855 2.0497,1.54082 3.3267,1.54082 h 15.6556 c 3.4343,0 6.2943,2.67048 6.4093,6.14958 0.076,2.3 0.1244,5.0559 0.1244,8.3447 0,8.3948 -0.3154,13.3172 -0.6001,16.0504 -0.201,1.9303 -1.4695,3.4358 -3.347,3.8184 C 39.1115,44.2842 33.5911,45 24,45 14.4089,45 8.88851,44.2842 5.94709,43.6848 4.06964,43.3022 2.80114,41.7967 2.60009,39.8664 2.3154,37.1332 2,32.2108 2,23.816 2,15.4213 2.3154,10.4988 2.60009,7.76562 2.80114,5.83531 4.07157,4.32933 5.94903,3.94684 7.50913,3.62901 9.79423,3.27853 13.0267,3.0194 Z"
     id="path2"
     sodipodi:nodetypes="cccsscscssccsccc"
     style="fill:#edd400;fill-opacity:1" />
  <g
     aria-label=".h"
     transform="scale(0.84520216,1.1831489)"
     id="text2447"
     style="font-size:20.6664px;line-height:0.85;font-family:'Arial Rounded MT Bold';-inkscape-font-specification:'Arial Rounded MT Bold, Normal';word-spacing:0px;fill:#2e3436;stroke-width:0.140907">
    <path
       d="m 21.505201,27.619055 q -0.625643,0 -1.079739,-0.403641 -0.454096,-0.403641 -0.454096,-1.130194 0,-0.615552 0.433914,-1.059556 0.433914,-0.444005 1.069648,-0.444005 0.635734,0 1.079739,0.444005 0.454095,0.433913 0.454095,1.059556 0,0.716462 -0.454095,1.130194 -0.444005,0.403641 -1.049466,0.403641 z"
       id="path10730" />
    <path
       d="m 28.84137,13.996183 v 4.086862 q 0.524732,-0.605461 1.019192,-0.958647 0.504551,-0.353186 1.110012,-0.524733 0.605461,-0.181638 1.301741,-0.181638 1.049466,0 1.856747,0.444005 0.817372,0.444004 1.281559,1.29165 0.29264,0.494459 0.39355,1.110011 0.10091,0.605461 0.10091,1.402652 v 5.277601 q 0,0.827463 -0.383459,1.251286 -0.373367,0.423823 -0.99901,0.423823 -1.362288,0 -1.362288,-1.675109 v -4.651958 q 0,-1.321923 -0.393549,-2.028295 -0.39355,-0.716462 -1.493471,-0.716462 -0.736644,0 -1.332014,0.423823 -0.585279,0.413732 -0.877918,1.140285 -0.222002,0.615552 -0.222002,2.18975 v 3.642857 q 0,0.817372 -0.373368,1.251286 -0.363277,0.423823 -1.019193,0.423823 -1.362287,0 -1.362287,-1.675109 V 13.996183 q 0,-0.837554 0.353186,-1.251286 0.363276,-0.423823 1.009101,-0.423823 0.655916,0 1.019193,0.423823 0.373368,0.423823 0.373368,1.251286 z"
       id="path10732" />
  </g>
  <path
     fill="#c4a000"
     d="m 13.0267,3.0194 c 2.0234,-0.1622 3.9897,0.70149 5.3182,2.25694 L 20.484,7.7809 c 0.8358,0.97855 2.0497,1.54082 3.3267,1.54082 L 7.3371547,9.3055949 C 4.2939408,9.2748882 3.0936416,10.460815 2.2388602,12.572585 2.2891482,11.297708 2.4058749,9.9881674 2.4110081,9.925893 2.4631187,9.293705 2.5572746,8.1766733 2.60009,7.76562 2.80114,5.83531 4.07157,4.32933 5.94903,3.94684 7.50913,3.62901 9.79423,3.27853 13.0267,3.0194 Z"
     id="path971"
     style="fill:#c4a000;fill-opacity:1"
     sodipodi:nodetypes="scccccsccs" />
</svg>
