<?xml version="1.0" encoding="UTF-8" standalone="no"?>
<svg
   fill="none"
   viewBox="0 0 48 48"
   height="256"
   width="256"
   version="1.1"
   id="svg4"
   sodipodi:docname="magnifier.svg"
   inkscape:version="1.2.1 (9c6d41e410, 2022-07-14)"
   xmlns:inkscape="http://www.inkscape.org/namespaces/inkscape"
   xmlns:sodipodi="http://sodipodi.sourceforge.net/DTD/sodipodi-0.dtd"
   xmlns="http://www.w3.org/2000/svg"
   xmlns:svg="http://www.w3.org/2000/svg">
  <defs
     id="defs8" />
  <sodipodi:namedview
     id="namedview6"
     pagecolor="#ffffff"
     bordercolor="#666666"
     borderopacity="1.0"
     inkscape:showpageshadow="2"
     inkscape:pageopacity="0.0"
     inkscape:pagecheckerboard="0"
     inkscape:deskcolor="#d1d1d1"
     showgrid="false"
     inkscape:zoom="2.2898106"
     inkscape:cx="154.16122"
     inkscape:cy="114.6383"
     inkscape:current-layer="svg4"
     inkscape:window-width="1920"
     inkscape:window-height="730"
     inkscape:window-x="-6"
     inkscape:window-y="-6"
     inkscape:window-maximized="1" />
  <path
     fill="#edd400"
     d="m 13.0267,3.0194 c 2.0234,-0.1622 3.9897,0.70149 5.3182,2.25694 L 20.484,7.7809 c 0.8358,0.97855 2.0497,1.54082 3.3267,1.54082 h 15.6556 c 3.4343,0 6.2943,2.67048 6.4093,6.14958 0.076,2.3 0.1244,5.0559 0.1244,8.3447 0,8.3948 -0.3154,13.3172 -0.6001,16.0504 -0.201,1.9303 -1.4695,3.4358 -3.347,3.8184 C 39.1115,44.2842 33.5911,45 24,45 14.4089,45 8.88851,44.2842 5.94709,43.6848 4.06964,43.3022 2.80114,41.7967 2.60009,39.8664 2.3154,37.1332 2,32.2108 2,23.816 2,15.4213 2.3154,10.4988 2.60009,7.76562 2.80114,5.83531 4.07157,4.32933 5.94903,3.94684 7.50913,3.62901 9.79423,3.27853 13.0267,3.0194 Z"
     id="path2"
     sodipodi:nodetypes="cccsscscssccsccc"
     style="fill:#edd400;fill-opacity:1" />
  <path
     fill="#c4a000"
     d="m 13.0267,3.0194 c 2.0234,-0.1622 3.9897,0.70149 5.3182,2.25694 L 20.484,7.7809 c 0.8358,0.97855 2.0497,1.54082 3.3267,1.54082 L 7.3371547,9.3055949 C 4.2939408,9.2748882 3.0936416,10.460815 2.2388602,12.572585 2.2891482,11.297708 2.4058749,9.9881674 2.4110081,9.925893 2.4631187,9.293705 2.5572746,8.1766733 2.60009,7.76562 2.80114,5.83531 4.07157,4.32933 5.94903,3.94684 7.50913,3.62901 9.79423,3.27853 13.0267,3.0194 Z"
     id="path971"
     style="fill:#c4a000;fill-opacity:1"
     sodipodi:nodetypes="scccccsccs" />
  <path
     fill="#204a87"
     fill-rule="evenodd"
     d="m 30.82425,37.529909 c -2.024461,1.277491 -4.422507,2.016786 -6.993304,2.016786 -7.247083,0 -13.122,-5.874917 -13.122,-13.122 0,-7.247085 5.874917,-13.122 13.122,-13.122 7.247084,0 13.122,5.874915 13.122,13.122 0,2.576307 -0.742443,4.979143 -2.025053,7.00636 0.06127,0.05072 0.12256,0.101433 0.183774,0.152084 v 0 c 1.193118,0.987233 2.367996,1.959377 3.526931,3.040367 1.140105,1.063473 1.281823,2.672689 0.203588,3.798688 -0.152937,0.159761 -0.31998,0.330412 -0.50231,0.51248 -0.182396,0.182068 -0.353375,0.348783 -0.513399,0.501523 -1.127966,1.076266 -2.739938,0.934811 -3.805248,-0.203325 -1.082893,-1.156902 -2.056743,-2.329746 -3.045682,-3.52083 -0.05039,-0.06062 -0.100843,-0.121379 -0.151297,-0.182133 z m 2.192096,-11.105214 c 0,5.072965 -4.112435,9.1854 -9.1854,9.1854 -5.072965,0 -9.1854,-4.112435 -9.1854,-9.1854 0,-5.072966 4.112435,-9.1854 9.1854,-9.1854 5.072965,0 9.1854,4.112434 9.1854,9.1854 z"
     clip-rule="evenodd"
     id="path1157"
     style="stroke-width:0.6561" />
</svg>
