<?xml version="1.0" encoding="UTF-8" standalone="no"?>
<svg
   fill="none"
   viewBox="0 0 48 48"
   height="256"
   width="256"
   version="1.1"
   id="svg4"
   sodipodi:docname="tools.svg"
   inkscape:version="1.2.1 (9c6d41e410, 2022-07-14)"
   xmlns:inkscape="http://www.inkscape.org/namespaces/inkscape"
   xmlns:sodipodi="http://sodipodi.sourceforge.net/DTD/sodipodi-0.dtd"
   xmlns="http://www.w3.org/2000/svg"
   xmlns:svg="http://www.w3.org/2000/svg">
  <defs
     id="defs8" />
  <sodipodi:namedview
     id="namedview6"
     pagecolor="#ffffff"
     bordercolor="#666666"
     borderopacity="1.0"
     inkscape:showpageshadow="2"
     inkscape:pageopacity="0.0"
     inkscape:pagecheckerboard="0"
     inkscape:deskcolor="#d1d1d1"
     showgrid="false"
     inkscape:zoom="0.8095703"
     inkscape:cx="63.613994"
     inkscape:cy="110.55247"
     inkscape:current-layer="svg4"
     inkscape:window-width="1920"
     inkscape:window-height="730"
     inkscape:window-x="-6"
     inkscape:window-y="-6"
     inkscape:window-maximized="1" />
  <path
     fill="#edd400"
     d="m 13.0267,3.0194 c 2.0234,-0.1622 3.9897,0.70149 5.3182,2.25694 L 20.484,7.7809 c 0.8358,0.97855 2.0497,1.54082 3.3267,1.54082 h 15.6556 c 3.4343,0 6.2943,2.67048 6.4093,6.14958 0.076,2.3 0.1244,5.0559 0.1244,8.3447 0,8.3948 -0.3154,13.3172 -0.6001,16.0504 -0.201,1.9303 -1.4695,3.4358 -3.347,3.8184 C 39.1115,44.2842 33.5911,45 24,45 14.4089,45 8.88851,44.2842 5.94709,43.6848 4.06964,43.3022 2.80114,41.7967 2.60009,39.8664 2.3154,37.1332 2,32.2108 2,23.816 2,15.4213 2.3154,10.4988 2.60009,7.76562 2.80114,5.83531 4.07157,4.32933 5.94903,3.94684 7.50913,3.62901 9.79423,3.27853 13.0267,3.0194 Z"
     id="path2"
     sodipodi:nodetypes="cccsscscssccsccc"
     style="fill:#edd400;fill-opacity:1" />
  <path
     fill="#c4a000"
     d="m 13.0267,3.0194 c 2.0234,-0.1622 3.9897,0.70149 5.3182,2.25694 L 20.484,7.7809 c 0.8358,0.97855 2.0497,1.54082 3.3267,1.54082 L 7.3371547,9.3055949 C 4.2939408,9.2748882 3.0936416,10.460815 2.2388602,12.572585 2.2891482,11.297708 2.4058749,9.9881674 2.4110081,9.925893 2.4631187,9.293705 2.5572746,8.1766733 2.60009,7.76562 2.80114,5.83531 4.07157,4.32933 5.94903,3.94684 7.50913,3.62901 9.79423,3.27853 13.0267,3.0194 Z"
     id="path971"
     style="fill:#c4a000;fill-opacity:1"
     sodipodi:nodetypes="scccccsccs" />
  <g
     id="g6946"
     transform="matrix(0.55,0,0,0.55,0.61003867,11.586658)"
     style="stroke-width:1.81818">
    <path
       id="rect954"
       style="fill:#c4a000;fill-opacity:1;stroke:none;stroke-width:3.40909;stroke-linecap:round;stroke-linejoin:round"
       d="m 30.420853,6.6592705 h 1.75708 c 0.3805,0 0.727985,0.2161534 0.896484,0.5573731 l 1.727051,3.4969484 c 0.3092,0.626079 0.269563,1.368274 -0.104736,1.957764 l -1.512451,2.381836 c 0.0568,1.999598 0.11499,4.844082 0.11499,8.106079 0,4.327196 -0.102291,7.919731 -0.168091,9.780029 -0.0308,0.872299 -0.50359,1.645978 -1.37439,1.705078 -0.139299,0.0095 -0.291397,0.01501 -0.457397,0.01501 -0.1661,0 -0.318098,-0.0055 -0.457398,-0.01501 -0.870809,-0.0591 -1.343549,-0.832779 -1.374389,-1.705078 -0.06578,-1.860298 -0.168091,-5.452833 -0.168091,-9.780029 0,-3.261997 0.05815,-6.106481 0.11499,-8.106079 l -1.512451,-2.381836 c -0.37427,-0.58949 -0.413916,-1.331675 -0.104736,-1.957764 l 1.727051,-3.4969484 c 0.168499,-0.3412197 0.515944,-0.5573731 0.896484,-0.5573731 z"
       sodipodi:nodetypes="ssccccsccsccsccccs" />
    <path
       id="rect951"
       style="fill:#204a87;stroke:none;stroke-width:3.40909;stroke-linecap:round;stroke-linejoin:round"
       d="m 31.299393,28.659393 c 1.466298,0 2.62558,0.0328 3.525879,0.078 1.634798,0.0819 2.872907,1.315006 3.047607,2.942505 0.2062,1.921401 0.426636,4.734376 0.426636,7.979373 0,3.244997 -0.220436,6.058072 -0.426636,7.97937 -0.1747,1.627598 -1.412809,2.860871 -3.047607,2.942871 -0.900299,0.0451 -2.059681,0.078 -3.525879,0.078 -1.466239,0 -2.625264,-0.0329 -3.525513,-0.078 -1.634848,-0.082 -2.872957,-1.315273 -3.047607,-2.942871 -0.20617,-1.921298 -0.426636,-4.734373 -0.426636,-7.97937 0,-3.244997 0.220466,-6.057972 0.426636,-7.97937 0.17465,-1.627499 1.412779,-2.860605 3.047607,-2.942505 0.900249,-0.0452 2.059244,-0.078 3.525513,-0.078 z"
       sodipodi:nodetypes="sccsccscssccs" />
    <path
       id="rect347"
       style="fill:#888a85;fill-opacity:1;stroke:none;stroke-width:3.40909;stroke-linecap:round;stroke-linejoin:round"
       d="m 48.111038,6.660003 c 0.499633,-0.016655 0.942578,0.4111496 0.937134,0.9697265 -0.0289,3.0049175 -0.01446,6.3415285 0.12854,8.7297365 0.0119,0.1984 0.08407,0.387899 0.216065,0.536499 0.434299,0.4895 1.559786,1.630048 3.092285,2.238648 0.2021,0.0803 0.427683,0.0803 0.629883,0 1.505098,-0.5977 2.618148,-1.708715 3.068847,-2.211914 0.1479,-0.1651 0.220459,-0.379719 0.220459,-0.601319 V 7.6224053 c 0,-0.6826393 0.669966,-1.1626231 1.286866,-0.8704834 3.907296,1.8501281 6.608276,5.8135431 6.608276,10.4044191 0,4.270396 -2.336909,7.997874 -5.808106,9.986573 -0.322899,0.184999 -0.536192,0.517792 -0.541992,0.889892 -0.0683,4.339796 -0.270024,12.104527 -0.864624,20.127319 -0.0884,1.193299 -0.89511,2.206299 -2.081909,2.358399 -0.627699,0.0805 -1.394961,0.141357 -2.28186,0.141357 -0.886999,0 -1.654261,-0.06086 -2.281861,-0.141357 -1.186898,-0.1521 -1.993775,-1.1651 -2.082275,-2.358399 -0.594599,-8.022392 -0.795692,-15.786691 -0.863892,-20.126586 -0.0059,-0.3722 -0.219358,-0.704893 -0.542358,-0.889893 -3.471797,-1.988498 -5.809204,-5.716409 -5.809204,-9.987305 0,-4.595486 2.706033,-8.5621741 6.619629,-10.4099123 0.116568,-0.055035 0.234798,-0.082582 0.350097,-0.086426 z"
       sodipodi:nodetypes="sccccccsscsscccscccssss" />
  </g>
</svg>
