<?xml version="1.0" encoding="UTF-8" standalone="no"?>
<svg
   fill="none"
   viewBox="0 0 48 48"
   height="256"
   width="256"
   version="1.1"
   id="svg4"
   sodipodi:docname="up.svg"
   inkscape:version="1.2.1 (9c6d41e410, 2022-07-14)"
   xmlns:inkscape="http://www.inkscape.org/namespaces/inkscape"
   xmlns:sodipodi="http://sodipodi.sourceforge.net/DTD/sodipodi-0.dtd"
   xmlns="http://www.w3.org/2000/svg"
   xmlns:svg="http://www.w3.org/2000/svg">
  <defs
     id="defs8" />
  <sodipodi:namedview
     id="namedview6"
     pagecolor="#ffffff"
     bordercolor="#666666"
     borderopacity="1.0"
     inkscape:showpageshadow="2"
     inkscape:pageopacity="0.0"
     inkscape:pagecheckerboard="0"
     inkscape:deskcolor="#d1d1d1"
     showgrid="false"
     inkscape:zoom="1.6191406"
     inkscape:cx="127.22799"
     inkscape:cy="66.393246"
     inkscape:current-layer="svg4"
     inkscape:window-width="1920"
     inkscape:window-height="730"
     inkscape:window-x="-6"
     inkscape:window-y="-6"
     inkscape:window-maximized="1" />
  <path
     fill="#2e3436"
     fill-rule="evenodd"
     d="m 26.359734,7.788509 0.212625,5.518733 c 0.03794,0.984622 0.638955,1.833975 1.62162,1.906065 0.236993,0.01735 0.50382,0.02794 0.802305,0.02794 0.298553,0 0.56538,-0.0106 0.802373,-0.02794 0.982732,-0.07209 1.583752,-0.92151 1.621687,-1.906133 L 31.632969,7.788509 C 32.563727,7.767314 33.324384,7.735652 33.942752,7.699877 35.227209,7.625555 35.775782,6.4111669 34.973139,5.4056869 34.490244,4.8008194 33.860267,4.0517719 33.046217,3.1467994 31.754739,1.7111419 30.772209,0.8640169 30.098492,0.3708619 c -0.67554,-0.49443753 -1.52901,-0.49450503 -2.20455,-6.75e-5 -0.673718,0.4930875 -1.656315,1.3402125 -2.947725,2.776005 -0.813645,0.9047025 -1.44342,1.653615 -1.926248,2.258415 -0.802845,1.0056825 -0.254137,2.2204126 1.030523,2.2947301 0.6183,0.035703 1.378755,0.067365 2.309242,0.08856 z"
     clip-rule="evenodd"
     id="path1049"
     style="stroke-width:0.675;fill:#2e3436;fill-opacity:1" />
  <path
     fill="#edd400"
     d="m 13.0267,3.0194 c 2.0234,-0.1622 3.9897,0.70149 5.3182,2.25694 L 20.484,7.7809 c 0.8358,0.97855 2.0497,1.54082 3.3267,1.54082 h 15.6556 c 3.4343,0 6.2943,2.67048 6.4093,6.14958 0.076,2.3 0.1244,5.0559 0.1244,8.3447 0,8.3948 -0.3154,13.3172 -0.6001,16.0504 -0.201,1.9303 -1.4695,3.4358 -3.347,3.8184 C 39.1115,44.2842 33.5911,45 24,45 14.4089,45 8.88851,44.2842 5.94709,43.6848 4.06964,43.3022 2.80114,41.7967 2.60009,39.8664 2.3154,37.1332 2,32.2108 2,23.816 2,15.4213 2.3154,10.4988 2.60009,7.76562 2.80114,5.83531 4.07157,4.32933 5.94903,3.94684 7.50913,3.62901 9.79423,3.27853 13.0267,3.0194 Z"
     id="path2"
     sodipodi:nodetypes="cccsscscssccsccc"
     style="fill:#edd400;fill-opacity:1" />
  <path
     fill="#c4a000"
     d="m 13.0267,3.0194 c 2.0234,-0.1622 3.9897,0.70149 5.3182,2.25694 L 20.484,7.7809 c 0.8358,0.97855 2.0497,1.54082 3.3267,1.54082 L 7.3371547,9.3055949 C 4.2939408,9.2748882 3.0936416,10.460815 2.2388602,12.572585 2.2891482,11.297708 2.4058749,9.9881674 2.4110081,9.925893 2.4631187,9.293705 2.5572746,8.1766733 2.60009,7.76562 2.80114,5.83531 4.07157,4.32933 5.94903,3.94684 7.50913,3.62901 9.79423,3.27853 13.0267,3.0194 Z"
     id="path971"
     style="fill:#c4a000;fill-opacity:1"
     sodipodi:nodetypes="scccccsccs" />
</svg>
