<?xml version="1.0" encoding="UTF-8" standalone="no"?>
<svg
   fill="none"
   viewBox="0 0 48 48"
   height="256"
   width="256"
   version="1.1"
   id="svg33674"
   sodipodi:docname="zip.svg"
   inkscape:version="1.2.1 (9c6d41e410, 2022-07-14)"
   xmlns:inkscape="http://www.inkscape.org/namespaces/inkscape"
   xmlns:sodipodi="http://sodipodi.sourceforge.net/DTD/sodipodi-0.dtd"
   xmlns="http://www.w3.org/2000/svg"
   xmlns:svg="http://www.w3.org/2000/svg">
  <defs
     id="defs33678" />
  <sodipodi:namedview
     id="namedview33676"
     pagecolor="#ffffff"
     bordercolor="#111111"
     borderopacity="1"
     inkscape:showpageshadow="0"
     inkscape:pageopacity="0"
     inkscape:pagecheckerboard="1"
     inkscape:deskcolor="#d1d1d1"
     showgrid="false"
     inkscape:zoom="2.1445312"
     inkscape:cx="24.247724"
     inkscape:cy="128.93261"
     inkscape:window-width="1920"
     inkscape:window-height="730"
     inkscape:window-x="-6"
     inkscape:window-y="-6"
     inkscape:window-maximized="1"
     inkscape:current-layer="svg33674" />
  <path
     fill="#edd400"
     d="M13.0267 3.0194C15.0501 2.8572 17.0164 3.72089 18.3449 5.27634L20.484 7.7809C21.3198 8.75945 22.5337 9.32172 23.8107 9.32172H39.4663C42.9006 9.32172 45.7606 11.9922 45.8756 15.4713C45.9516 17.7713 46 20.5272 46 23.816C46 32.2108 45.6846 37.1332 45.3999 39.8664C45.1989 41.7967 43.9304 43.3022 42.0529 43.6848C39.1115 44.2842 33.5911 45 24 45C14.4089 45 8.88851 44.2842 5.94709 43.6848C4.06964 43.3022 2.80114 41.7967 2.60009 39.8664C2.3154 37.1332 2 32.2108 2 23.816C2 15.4213 2.3154 10.4988 2.60009 7.76562C2.80114 5.83531 4.07157 4.32933 5.94903 3.94684C7.50913 3.62901 9.79423 3.27853 13.0267 3.0194Z"
     id="path33670"
     style="fill:#edd400;fill-opacity:1" />
  <path
     fill="#ce5c00"
     fill-rule="evenodd"
     d="M33.8525 44.6956C32.7255 44.7731 31.4947 44.8394 30.1522 44.8901C30.1309 44.0183 30.1053 42.7436 30.0812 40.9625C29.7496 40.9484 29.4624 40.9313 29.2162 40.9134C28.505 40.8616 28 40.2655 28 39.5525V38.4475C28 37.7345 28.505 37.1384 29.2162 37.0866C29.452 37.0694 29.7255 37.0531 30.0395 37.0393C30.0296 35.8241 30.021 34.4684 30.0143 32.9596C29.7108 32.946 29.4457 32.9301 29.2162 32.9134C28.505 32.8616 28 32.2655 28 31.5525V30.4475C28 29.7345 28.505 29.1384 29.2162 29.0866C29.4427 29.0701 29.704 29.0544 30.0025 29.0409C30.0009 28.0769 30 27.0639 30 26L30.0003 24.959C29.7027 24.9456 29.4421 24.9299 29.2162 24.9134C28.505 24.8616 28 24.2655 28 23.5525V22.4475C28 21.7345 28.505 21.1384 29.2162 21.0866C29.4438 21.07 29.7066 21.0542 30.007 21.0407C30.0114 19.5534 30.0176 18.1963 30.0253 16.9601C29.7172 16.9464 29.4484 16.9303 29.2162 16.9134C28.505 16.8616 28 16.2655 28 15.5525V14.4475C28 13.7345 28.505 13.1384 29.2162 13.0866C29.4564 13.0691 29.7358 13.0525 30.0573 13.0385C30.0729 11.5479 30.0903 10.3205 30.1073 9.32129H33.8927C33.9097 10.3205 33.9271 11.5479 33.9427 13.0385C34.2642 13.0525 34.5436 13.0691 34.7838 13.0866C35.495 13.1384 36 13.7345 36 14.4475V15.5525C36 16.2655 35.495 16.8616 34.7838 16.9134C34.5516 16.9303 34.2828 16.9464 33.9747 16.9601C33.9824 18.1963 33.9886 19.5534 33.993 21.0407C34.2934 21.0542 34.5562 21.07 34.7838 21.0866C35.495 21.1384 36 21.7345 36 22.4475V23.5525C36 24.2655 35.495 24.8616 34.7838 24.9134C34.5579 24.9299 34.2974 24.9456 33.9997 24.959L34 26C34 27.0639 33.9991 28.0769 33.9975 29.0409C34.296 29.0544 34.5573 29.0701 34.7838 29.0866C35.495 29.1384 36 29.7345 36 30.4475V31.5525C36 32.2655 35.495 32.8616 34.7838 32.9134C34.5543 32.9301 34.2892 32.946 33.9857 32.9596C33.979 34.4684 33.9704 35.8241 33.9605 37.0393C34.2745 37.0531 34.548 37.0694 34.7838 37.0866C35.495 37.1384 36 37.7345 36 38.4475V39.5525C36 40.2655 35.495 40.8616 34.7838 40.9134C34.5376 40.9313 34.2504 40.9484 33.9188 40.9625C33.8964 42.6154 33.8728 43.8322 33.8525 44.6956Z"
     clip-rule="evenodd"
     id="path33672"
     style="fill:#ce5c00;fill-opacity:1" />
</svg>
