<?xml version="1.0" encoding="UTF-8" standalone="no"?>
<svg
   fill="none"
   viewBox="0 0 48 48"
   height="256"
   width="256"
   version="1.1"
   id="svg6"
   sodipodi:docname="auto.svg"
   inkscape:version="1.2.1 (9c6d41e410, 2022-07-14)"
   xmlns:inkscape="http://www.inkscape.org/namespaces/inkscape"
   xmlns:sodipodi="http://sodipodi.sourceforge.net/DTD/sodipodi-0.dtd"
   xmlns="http://www.w3.org/2000/svg"
   xmlns:svg="http://www.w3.org/2000/svg">
  <defs
     id="defs10" />
  <sodipodi:namedview
     id="namedview8"
     pagecolor="#ffffff"
     bordercolor="#666666"
     borderopacity="1.0"
     inkscape:showpageshadow="2"
     inkscape:pageopacity="0.0"
     inkscape:pagecheckerboard="0"
     inkscape:deskcolor="#d1d1d1"
     showgrid="false"
     inkscape:zoom="1.6191406"
     inkscape:cx="-6.1761159"
     inkscape:cy="126.91918"
     inkscape:current-layer="svg6"
     inkscape:window-width="1920"
     inkscape:window-height="730"
     inkscape:window-x="-6"
     inkscape:window-y="-6"
     inkscape:window-maximized="1" />
  <path
     fill="#d8dbd4"
     d="M45.4187 7.30406C45.2065 4.74913 43.2509 2.79349 40.6959 2.58134C37.3286 2.30173 31.8713 2 24 2C16.1288 1.99999 10.6714 2.30173 7.30407 2.58133C4.74914 2.79348 2.79349 4.74912 2.58135 7.30405C2.30174 10.6714 2 16.1287 2 24C2 31.8712 2.30174 37.3286 2.58134 40.6959C2.79349 43.2509 4.74913 45.2065 7.30406 45.4187C10.6714 45.6983 16.1287 46 24 46C31.8712 46 37.3286 45.6983 40.6959 45.4187C43.2509 45.2065 45.2065 43.2509 45.4187 40.6959C45.6983 37.3286 46 31.8712 46 24C46 16.1288 45.6983 10.6714 45.4187 7.30406Z"
     id="path2"
     style="fill:#d8dbd4;fill-opacity:1" />
  <path
     id="rect1010"
     style="fill:#606668;fill-opacity:1;stroke-width:0.283464"
     d="m 15.75,6.2501221 c 1.084497,0 1.66312,0.256513 1.91272,0.4105224 0.1077,0.06647 0.178718,0.1731206 0.226318,0.2904053 0.16995,0.4191538 0.597127,1.5098517 0.848877,2.482544 0.797747,0.3138138 1.535493,0.7495032 2.19104,1.2846682 0.954997,-0.26505 2.09877,-0.435145 2.544067,-0.49585 0.12585,-0.01715 0.253847,-0.0081 0.364747,0.05347 0.256547,0.1425 0.764527,0.522552 1.306274,1.473999 0.541697,0.951497 0.612313,1.587555 0.605713,1.884155 -0.0029,0.1282 -0.05905,0.245218 -0.136597,0.347168 -0.27435,0.3606 -0.991227,1.279499 -1.694824,1.985596 0.0634,0.418347 0.09631,0.846853 0.09631,1.283203 0,0.43635 -0.03291,0.864856 -0.09631,1.283203 0.703597,0.706097 1.420474,1.624996 1.694824,1.985596 0.07755,0.10195 0.133747,0.218968 0.136597,0.347168 0.0066,0.2966 -0.06402,0.932658 -0.605713,1.884155 -0.541747,0.951447 -1.049727,1.331449 -1.306274,1.473999 -0.1109,0.0616 -0.238897,0.07062 -0.364747,0.05347 -0.445297,-0.0607 -1.58907,-0.2308 -2.544067,-0.49585 -0.655547,0.5352 -1.393293,0.970871 -2.19104,1.284668 -0.25175,0.972697 -0.678927,2.063397 -0.848877,2.482544 -0.0476,0.1173 -0.118618,0.223958 -0.226318,0.290405 -0.2496,0.15405 -0.828223,0.410523 -1.91272,0.410523 -1.084497,0 -1.66312,-0.256473 -1.91272,-0.410523 -0.1077,-0.06645 -0.178768,-0.173105 -0.226318,-0.290405 -0.16995,-0.419152 -0.597177,-1.509847 -0.848877,-2.482544 -0.797797,-0.313797 -1.535493,-0.749468 -2.19104,-1.284668 -0.9549973,0.26505 -2.0987687,0.43515 -2.5440675,0.49585 -0.1258294,0.01715 -0.2538464,0.0081 -0.3647461,-0.05347 C 7.4056773,24.081571 6.8976655,23.701619 6.355957,22.750122 5.8142538,21.798675 5.7436641,21.162567 5.7502441,20.865967 c 0.0028,-0.1282 0.059032,-0.245218 0.1365967,-0.347168 0.2743791,-0.3606 0.9912013,-1.279549 1.6948242,-1.985596 -0.06339,-0.418347 -0.096313,-0.846853 -0.096313,-1.283203 0,-0.43635 0.032934,-0.864856 0.096313,-1.283203 C 6.8780421,15.2607 6.1612199,14.341801 5.8868408,13.981201 c -0.07756,-0.10195 -0.1337517,-0.218968 -0.1365967,-0.347168 -0.0066,-0.2966 0.06401,-0.932658 0.6057129,-1.884155 0.5417085,-0.951447 1.0497203,-1.331449 1.3062744,-1.473999 0.1108997,-0.06157 0.2389117,-0.07061 0.3647461,-0.05347 0.4453038,0.06071 1.5890702,0.2308 2.5440675,0.49585 0.655547,-0.535165 1.393293,-0.9708544 2.19104,-1.2846682 0.2517,-0.9726923 0.678927,-2.0633902 0.848877,-2.482544 C 13.658512,6.8337651 13.72958,6.7271095 13.83728,6.6606445 14.08688,6.5066351 14.665503,6.2501221 15.75,6.2501221 Z m 0,6.9997559 c -2.209144,0 -4.000122,1.790978 -4.000122,4.000122 0,2.209144 1.790978,4.000122 4.000122,4.000122 2.209144,0 4.000122,-1.790978 4.000122,-4.000122 0,-2.209144 -1.790978,-4.000122 -4.000122,-4.000122 z m 14.918701,6.990967 c 0.426472,-8.3e-5 0.711637,0.06988 0.875611,0.12854 0.119165,0.04262 0.210671,0.132112 0.281616,0.236938 0.253381,0.374661 0.898076,1.352735 1.346557,2.251831 0.845563,0.141096 1.657909,0.414097 2.410401,0.80127 0.879022,-0.457813 1.962184,-0.862444 2.385132,-1.014404 0.119532,-0.04294 0.246762,-0.06026 0.368042,-0.02307 0.28057,0.08605 0.856501,0.352023 1.584228,1.170044 0.727689,0.818079 0.928798,1.425674 0.984009,1.717163 0.02382,0.126001 -0.0065,0.252197 -0.06116,0.368042 -0.193382,0.409761 -0.7037,1.457357 -1.245118,2.294312 0.148994,0.396024 0.269996,0.808416 0.360718,1.235229 0.09072,0.426815 0.147886,0.852757 0.172852,1.275147 0.835029,0.544381 1.72723,1.294044 2.070556,1.589721 0.09705,0.0836 0.176369,0.186474 0.205811,0.31128 0.06812,0.288745 0.131351,0.925419 -0.200684,1.96875 -0.332092,1.043293 -0.749885,1.520727 -0.971191,1.713501 -0.09567,0.08331 -0.219037,0.118783 -0.345703,0.128174 -0.448189,0.03321 -1.602439,0.104645 -2.591675,0.04395 -0.529948,0.659799 -1.161025,1.239231 -1.876099,1.712036 -0.04401,1.003784 -0.234752,2.159899 -0.313842,2.605225 -0.02217,0.124631 -0.0696,0.243664 -0.161133,0.331054 -0.212116,0.202579 -0.724846,0.573593 -1.785645,0.799073 -1.060799,0.225478 -1.680124,0.09478 -1.956299,-0.004 -0.11916,-0.04261 -0.210717,-0.132088 -0.281616,-0.236938 -0.25338,-0.374656 -0.898123,-1.35272 -1.346557,-2.251831 -0.845608,-0.14107 -1.657902,-0.414062 -2.410401,-0.80127 -0.879022,0.457813 -1.962183,0.86245 -2.385132,1.014404 -0.119512,0.04294 -0.246769,0.06022 -0.368042,0.02307 -0.280585,-0.08609 -0.85653,-0.351966 -1.584228,-1.170044 -0.727683,-0.81803 -0.928779,-1.425678 -0.984009,-1.717163 -0.02392,-0.125981 0.0065,-0.252194 0.06116,-0.368042 0.193411,-0.409767 0.703665,-1.457401 1.245118,-2.294312 -0.148985,-0.396027 -0.269996,-0.808417 -0.360718,-1.235229 -0.09072,-0.426815 -0.147868,-0.852762 -0.172852,-1.275147 -0.835054,-0.544376 -1.727201,-1.29405 -2.070556,-1.589721 -0.09706,-0.0836 -0.176374,-0.186473 -0.205811,-0.31128 -0.06812,-0.288744 -0.131356,-0.925418 0.200684,-1.96875 0.332052,-1.043285 0.74988,-1.520725 0.971191,-1.713501 0.09567,-0.08329 0.219052,-0.118787 0.345703,-0.128174 0.448195,-0.03321 1.602439,-0.10465 2.591675,-0.04395 0.529956,-0.659765 1.161027,-1.239217 1.876099,-1.712036 0.04397,-1.003768 0.234753,-2.15953 0.313842,-2.604858 0.02213,-0.124608 0.0696,-0.243651 0.161133,-0.331055 0.212125,-0.20254 0.724846,-0.573959 1.785645,-0.799439 0.430949,-0.0916 0.788892,-0.124455 1.080688,-0.124511 z m 1.179932,6.883301 c -0.265779,0.002 -0.535189,0.03084 -0.805298,0.08826 -2.160871,0.459308 -3.540239,2.583392 -3.080933,4.744263 0.459308,2.160871 2.583392,3.540239 4.744263,3.080933 2.160871,-0.459309 3.540239,-2.583392 3.080933,-4.744263 -0.401894,-1.890761 -2.078515,-3.183325 -3.938965,-3.169189 z"
     sodipodi:nodetypes="sccccccccccsccscccccccsccccscccccsccccccccccsssssssscccscccccsccscccccccsccccscccscsccccccccscssssssss" />
</svg>
