<?xml version="1.0" encoding="UTF-8" standalone="no"?>
<svg
   fill="none"
   viewBox="0 0 48 48"
   height="256"
   width="256"
   version="1.1"
   id="svg6"
   sodipodi:docname="green_lock_question.svg"
   inkscape:version="1.2.1 (9c6d41e410, 2022-07-14)"
   xmlns:inkscape="http://www.inkscape.org/namespaces/inkscape"
   xmlns:sodipodi="http://sodipodi.sourceforge.net/DTD/sodipodi-0.dtd"
   xmlns="http://www.w3.org/2000/svg"
   xmlns:svg="http://www.w3.org/2000/svg">
  <defs
     id="defs10" />
  <sodipodi:namedview
     id="namedview8"
     pagecolor="#ffffff"
     bordercolor="#666666"
     borderopacity="1.0"
     inkscape:showpageshadow="2"
     inkscape:pageopacity="0.0"
     inkscape:pagecheckerboard="0"
     inkscape:deskcolor="#d1d1d1"
     showgrid="false"
     inkscape:zoom="6.4765624"
     inkscape:cx="198.94813"
     inkscape:cy="223.9614"
     inkscape:current-layer="svg6"
     inkscape:window-width="1920"
     inkscape:window-height="730"
     inkscape:window-x="-6"
     inkscape:window-y="-6"
     inkscape:window-maximized="1" />
  <path
     fill="#a9ff53"
     d="m 45.418762,7.3041225 c -0.2122,-2.55493 -2.1678,-4.51057 -4.7228,-4.72272 -3.3673,-0.27961 -8.8246,-0.58134 -16.6959,-0.58134 -7.8712,-1e-5 -13.3286,0.30173 -16.6959295,0.58133 -2.55493,0.21215 -4.51058,2.16779 -4.72272,4.72272 -0.27961,3.3673505 -0.58135,8.8246505 -0.58135,16.6959505 0,7.8712 0.30174,13.3286 0.58134,16.6959 0.21215,2.555 2.16779,4.5106 4.72272,4.7228 3.3673395,0.2796 8.8246395,0.5813 16.6959395,0.5813 7.8712,0 13.3286,-0.3017 16.6959,-0.5813 2.555,-0.212201 4.510601,-2.1678 4.7228,-4.7228 0.279601,-3.3673 0.5813,-8.8247 0.5813,-16.6959 0,-7.8712 -0.301699,-13.3286 -0.5813,-16.6959405 z"
     id="path135-4"
     style="fill:#a9ff53;fill-opacity:1" />
  <path
     fill="#77c32f"
     fill-rule="evenodd"
     d="m 19.84872,22.79822 c -0.3629,0.3337 -0.5375,0.7855 -0.5236,1.3554 h -0.0015 v 3.032 c 0,0.8285 0.6715,1.5 1.5,1.5 h 2.5295 c 0.8284,0 1.5,-0.6715 1.5,-1.5 v -0.9668 l 0.2639,-0.1231 c 1.1816,-0.5585 2.2295,-1.1384 3.1437,-1.7395 0.9142,-0.6011 1.6554,-1.2551 2.2236,-1.962 0.5918,-0.7094 1.008,-1.4953 1.2487,-2.3577 0.2618,-0.8886 0.331,-1.8995 0.2077,-3.0329 -0.2516,-2.314 -1.1839,-4.0762 -2.7968,-5.2865 -1.5892,-1.2128 -3.777,-1.6678 -6.5632,-1.3648 -0.9681,0.1053 -1.8669,0.2986 -2.6964,0.58 -0.8321,0.2577 -1.5476,0.5983 -2.1466,1.0218 -0.5991,0.4236 -1.0592,0.9156 -1.3805,1.4761 -0.2977,0.558 -0.4093,1.1794 -0.3348,1.8642 0.0708,0.6512 0.3256,1.2089 0.7271,1.6518 0.5419,0.5977 1.4497,0.3927 2.1062,-0.0764 0.3003,-0.2146 0.6101,-0.4103 0.9295,-0.587 0.6961,-0.4102 1.5281,-0.6679 2.4962,-0.7732 1.0626,-0.1156 1.8464,0.062 2.3515,0.5327 0.5288,0.4681 0.8265,1.0091 0.8933,1.623 0.0744,0.6848 -0.0751,1.2864 -0.4488,1.8049 -0.3762,0.4948 -0.9044,0.9106 -1.5845,1.2474 l -2.0404,1.0103 c -0.6565,0.3342 -1.1911,0.691 -1.6038,1.0703 z m -1.2441,11.5914 c 0,-0.9976 0.2969,-1.8051 0.8907,-2.4227 0.6175,-0.6175 1.4607,-0.9263 2.5295,-0.9263 1.0688,0 1.9001,0.3088 2.4939,0.9263 0.6175,0.6176 0.9263,1.4251 0.9263,2.4227 0,0.9975 -0.3088,1.8051 -0.9263,2.4226 -0.5938,0.6176 -1.4251,0.9263 -2.4939,0.9263 -1.0688,0 -1.912,-0.3087 -2.5295,-0.9263 -0.5938,-0.6175 -0.8907,-1.4251 -0.8907,-2.4226 z"
     clip-rule="evenodd"
     id="path727"
     style="fill:#77c32f;fill-opacity:1" />
  <g
     id="g3586"
     transform="matrix(1.08,0,0,1.08,-3.84,21.27)"
     style="stroke-width:0.833333">
    <path
       id="rect1001"
       style="fill:#bb852e;fill-opacity:1;stroke-width:1.25;stroke-linecap:round;stroke-linejoin:round"
       d="m 35.867432,4.3750001e-8 h 1.765136 c 3.528109,0 6.444687,2.775815956249999 6.651856,6.33068795625 l 0.33728,5.789795 c 0.05895,1.011262 -0.705351,1.879208 -1.707275,1.938721 -1.001924,0.05946 -1.861827,-0.712127 -1.920777,-1.723389 L 40.656006,6.546021 C 40.561846,4.930185 39.236254,3.668335 37.632568,3.668335 h -1.765136 c -1.603686,0 -2.929276,1.26185 -3.023438,2.877686 l -0.337646,5.789794 c -0.05895,1.011262 -0.918853,1.782845 -1.920777,1.723389 -1.001924,-0.05951 -1.766225,-0.927459 -1.707275,-1.938721 l 0.33728,-5.789795 C 29.422745,2.775816 32.339323,4.3750003e-8 35.867432,4.3750001e-8 Z"
       sodipodi:nodetypes="sscccccsscccccs" />
    <path
       id="rect899"
       style="fill:#ffff68;fill-opacity:1;stroke-width:1.25;stroke-linecap:round;stroke-linejoin:round"
       d="m 36.75,10.125 c 3.907515,0 6.651648,0.09437 8.384033,0.184937 1.404787,0.07341 2.533607,1.074622 2.668213,2.474853 C 47.909064,13.896063 48,15.430615 48,17.4375 c 0,2.006885 -0.09094,3.541436 -0.197754,4.65271 -0.134606,1.400231 -1.263426,2.401444 -2.668213,2.474853 C 43.401648,24.655623 40.657515,24.75 36.75,24.75 32.842485,24.75 30.098364,24.65563 28.365967,24.565063 26.961214,24.491653 25.832354,23.490441 25.697754,22.09021 25.590932,20.978936 25.5,19.444385 25.5,17.4375 c 0,-2.006885 0.09093,-3.541437 0.197754,-4.65271 0.1346,-1.400231 1.263454,-2.401444 2.668213,-2.474853 C 30.098358,10.219377 32.842485,10.125 36.75,10.125 Z"
       sodipodi:nodetypes="scssscscssscs" />
    <path
       id="rect1056"
       style="fill:#bb852e;fill-opacity:1;stroke-width:1.25;stroke-linecap:round;stroke-linejoin:round"
       d="m 36.75,13.5 c 1.242618,0 2.25,1.007382 2.25,2.25 0,0.875474 -0.50009,1.634179 -1.230103,2.006104 l 0.499146,2.494995 c 0.09951,0.497474 -0.157486,0.9879 -0.65918,1.06311 -0.236136,0.03538 -0.522644,0.06079 -0.859863,0.06079 -0.337219,0 -0.623727,-0.02541 -0.859863,-0.06079 -0.501694,-0.07521 -0.75869,-0.565636 -0.65918,-1.06311 l 0.499146,-2.494995 C 35.00009,17.384179 34.5,16.625474 34.5,15.75 c 0,-1.242618 1.007382,-2.25 2.25,-2.25 z"
       sodipodi:nodetypes="sscccscccss" />
  </g>
</svg>
