<?xml version="1.0" encoding="UTF-8" standalone="no"?>
<svg
   fill="none"
   viewBox="0 0 48 48"
   height="256"
   width="256"
   version="1.1"
   id="svg6"
   sodipodi:docname="mix_lightlock_question.svg"
   inkscape:version="1.2.1 (9c6d41e410, 2022-07-14)"
   xmlns:inkscape="http://www.inkscape.org/namespaces/inkscape"
   xmlns:sodipodi="http://sodipodi.sourceforge.net/DTD/sodipodi-0.dtd"
   xmlns="http://www.w3.org/2000/svg"
   xmlns:svg="http://www.w3.org/2000/svg">
  <defs
     id="defs10" />
  <sodipodi:namedview
     id="namedview8"
     pagecolor="#ffffff"
     bordercolor="#666666"
     borderopacity="1.0"
     inkscape:showpageshadow="2"
     inkscape:pageopacity="0.0"
     inkscape:pagecheckerboard="0"
     inkscape:deskcolor="#d1d1d1"
     showgrid="false"
     inkscape:zoom="1.6191406"
     inkscape:cx="253.52956"
     inkscape:cy="155.32931"
     inkscape:current-layer="svg6"
     inkscape:window-width="1920"
     inkscape:window-height="730"
     inkscape:window-x="-6"
     inkscape:window-y="-6"
     inkscape:window-maximized="1" />
  <g
     id="g4451">
    <path
       id="path1102"
       d="M 45.006226,5.645874 5.645874,45.006226 c 0.511649,0.220544 1.0686865,0.363391 1.6582031,0.412353 3.3673369,0.2796 8.8246309,0.581543 16.6959229,0.581543 7.871192,0 13.328626,-0.301943 16.695923,-0.581543 2.554997,-0.2122 4.510456,-2.167659 4.722656,-4.722656 0.2796,-3.367297 0.581543,-8.824731 0.581543,-16.695923 0,-7.871192 -0.301943,-13.328586 -0.581543,-16.6959229 C 45.369617,6.7145605 45.22677,6.157523 45.006226,5.645874 Z"
       style="fill:#a9ff53;fill-opacity:1"
       sodipodi:nodetypes="cccsccscc" />
    <path
       id="path25338"
       d="M 24,1.9998779 C 16.128808,1.9998679 10.671404,2.3018212 7.304077,2.5814209 4.74915,2.7935707 2.793561,4.7491497 2.581421,7.3040771 2.301811,10.671424 1.999878,16.128708 1.999878,24 c 0,7.871192 0.301943,13.328626 0.581543,16.695923 0.04895,0.589533 0.191813,1.146547 0.412353,1.658203 L 42.354126,2.9937744 C 41.84247,2.773234 41.285456,2.6303717 40.695923,2.5814209 37.328626,2.3018112 31.871292,1.9998779 24,1.9998779 Z"
       style="fill:#ff5454;fill-opacity:1"
       sodipodi:nodetypes="cccsscccc" />
  </g>
  <path
     fill="#d63232"
     fill-rule="evenodd"
     d="m 19.84872,22.79822 c -0.3629,0.3337 -0.5375,0.7855 -0.5236,1.3554 h -0.0015 v 3.032 c 0,0.8285 0.6715,1.5 1.5,1.5 h 2.5295 c 0.8284,0 1.5,-0.6715 1.5,-1.5 v -0.9668 l 0.2639,-0.1231 c 1.1816,-0.5585 2.2295,-1.1384 3.1437,-1.7395 0.9142,-0.6011 1.6554,-1.2551 2.2236,-1.962 0.5918,-0.7094 1.008,-1.4953 1.2487,-2.3577 0.2618,-0.8886 0.331,-1.8995 0.2077,-3.0329 -0.2516,-2.314 -1.1839,-4.0762 -2.7968,-5.2865 -1.5892,-1.2128 -3.777,-1.6678 -6.5632,-1.3648 -0.9681,0.1053 -1.8669,0.2986 -2.6964,0.58 -0.8321,0.2577 -1.5476,0.5983 -2.1466,1.0218 -0.5991,0.4236 -1.0592,0.9156 -1.3805,1.4761 -0.2977,0.558 -0.4093,1.1794 -0.3348,1.8642 0.0708,0.6512 0.3256,1.2089 0.7271,1.6518 0.5419,0.5977 1.4497,0.3927 2.1062,-0.0764 0.3003,-0.2146 0.6101,-0.4103 0.9295,-0.587 0.6961,-0.4102 1.5281,-0.6679 2.4962,-0.7732 1.0626,-0.1156 1.8464,0.062 2.3515,0.5327 0.5288,0.4681 0.8265,1.0091 0.8933,1.623 0.0744,0.6848 -0.0751,1.2864 -0.4488,1.8049 -0.3762,0.4948 -0.9044,0.9106 -1.5845,1.2474 l -2.0404,1.0103 c -0.6565,0.3342 -1.1911,0.691 -1.6038,1.0703 z m -1.2441,11.5914 c 0,-0.9976 0.2969,-1.8051 0.8907,-2.4227 0.6175,-0.6175 1.4607,-0.9263 2.5295,-0.9263 1.0688,0 1.9001,0.3088 2.4939,0.9263 0.6175,0.6176 0.9263,1.4251 0.9263,2.4227 0,0.9975 -0.3088,1.8051 -0.9263,2.4226 -0.5938,0.6176 -1.4251,0.9263 -2.4939,0.9263 -1.0688,0 -1.912,-0.3087 -2.5295,-0.9263 -0.5938,-0.6175 -0.8907,-1.4251 -0.8907,-2.4226 z"
     clip-rule="evenodd"
     id="path727"
     style="fill:#d63232;fill-opacity:1" />
  <g
     id="g242"
     transform="matrix(1.2,0,0,1.2,-9.6,21.27)"
     style="stroke-width:0.833333">
    <path
       fill="#adafaa"
       fill-rule="evenodd"
       d="M 31.094085,5.69754 C 31.280537,2.4981514 33.905494,4.3750001e-8 37.080795,4.3750001e-8 h 1.58841 C 41.844506,4.3750001e-8 44.469463,2.4981514 44.655915,5.69754 l 0.303699,5.210933 c 0.05306,0.910136 -0.634938,1.69133 -1.536671,1.744891 -0.901732,0.05351 -1.675738,-0.640912 -1.728793,-1.551048 L 41.390451,5.8913832 C 41.305704,4.4371294 40.112524,3.3016157 38.669205,3.3016157 h -1.58841 c -1.443319,0 -2.636499,1.1355137 -2.721246,2.5897675 L 34.05585,11.102316 c -0.05306,0.910136 -0.827061,1.604559 -1.728793,1.551048 -0.901733,-0.05356 -1.589726,-0.834755 -1.536671,-1.744891 z"
       clip-rule="evenodd"
       id="path135"
       style="fill:#adafaa;fill-opacity:1;stroke-width:0.421875" />
    <path
       fill="#d8dbd4"
       d="m 27.927851,19.881349 c 0.12114,1.260208 1.137204,2.161029 2.401483,2.227095 1.559159,0.08151 4.028899,0.166556 7.545666,0.166556 3.516767,0 5.986508,-0.08505 7.545656,-0.166556 1.264309,-0.06607 2.280353,-0.966887 2.401498,-2.227095 C 47.918291,18.881201 48,17.499949 48,15.69375 48,13.887551 47.918291,12.506299 47.822154,11.506151 47.701009,10.245943 46.684965,9.3451219 45.420656,9.2790563 43.861508,9.19755 41.391767,9.1125 37.875,9.1125 c -3.516767,0 -5.986507,0.08505 -7.545661,0.1665563 -1.264284,0.066066 -2.280348,0.9668867 -2.401488,2.2270947 -0.09614,1.000148 -0.177851,2.3814 -0.177851,4.187599 0,1.806199 0.08171,3.187451 0.177851,4.187599 z"
       id="path137"
       style="fill:#d8dbd4;fill-opacity:1;stroke-width:0.421875" />
    <path
       fill="#adafaa"
       fill-rule="evenodd"
       d="M 38.792983,15.98049 C 39.449994,15.645758 39.9,14.962928 39.9,14.175 c 0,-1.118357 -0.906643,-2.025 -2.025,-2.025 -1.118357,0 -2.025,0.906643 -2.025,2.025 0,0.787928 0.450006,1.470758 1.107017,1.80549 l -0.449094,2.245573 c -0.08956,0.447728 0.141547,0.889178 0.593071,0.956863 0.212524,0.03184 0.470509,0.05457 0.774006,0.05457 0.303497,0 0.561482,-0.02273 0.774006,-0.05457 0.451524,-0.06768 0.682627,-0.509135 0.593072,-0.956863 z"
       clip-rule="evenodd"
       id="path139"
       style="fill:#adafaa;fill-opacity:1;stroke-width:0.421875" />
  </g>
</svg>
