<?xml version="1.0" encoding="UTF-8" standalone="no"?>
<svg
   fill="none"
   viewBox="0 0 48 48"
   height="256"
   width="256"
   version="1.1"
   id="svg6"
   sodipodi:docname="mix_lock_exclam.svg"
   inkscape:version="1.2.1 (9c6d41e410, 2022-07-14)"
   xmlns:inkscape="http://www.inkscape.org/namespaces/inkscape"
   xmlns:sodipodi="http://sodipodi.sourceforge.net/DTD/sodipodi-0.dtd"
   xmlns="http://www.w3.org/2000/svg"
   xmlns:svg="http://www.w3.org/2000/svg">
  <defs
     id="defs10" />
  <sodipodi:namedview
     id="namedview8"
     pagecolor="#ffffff"
     bordercolor="#666666"
     borderopacity="1.0"
     inkscape:showpageshadow="2"
     inkscape:pageopacity="0.0"
     inkscape:pagecheckerboard="0"
     inkscape:deskcolor="#d1d1d1"
     showgrid="false"
     inkscape:zoom="4.5796212"
     inkscape:cx="179.16329"
     inkscape:cy="222.39831"
     inkscape:current-layer="svg6"
     inkscape:window-width="1920"
     inkscape:window-height="730"
     inkscape:window-x="-6"
     inkscape:window-y="-6"
     inkscape:window-maximized="1" />
  <g
     id="g4451">
    <path
       id="path1102"
       d="M 45.006226,5.645874 5.645874,45.006226 c 0.511649,0.220544 1.0686865,0.363391 1.6582031,0.412353 3.3673369,0.2796 8.8246309,0.581543 16.6959229,0.581543 7.871192,0 13.328626,-0.301943 16.695923,-0.581543 2.554997,-0.2122 4.510456,-2.167659 4.722656,-4.722656 0.2796,-3.367297 0.581543,-8.824731 0.581543,-16.695923 0,-7.871192 -0.301943,-13.328586 -0.581543,-16.6959229 C 45.369617,6.7145605 45.22677,6.157523 45.006226,5.645874 Z"
       style="fill:#a9ff53;fill-opacity:1"
       sodipodi:nodetypes="cccsccscc" />
    <path
       id="path25338"
       d="M 24,1.9998779 C 16.128808,1.9998679 10.671404,2.3018212 7.304077,2.5814209 4.74915,2.7935707 2.793561,4.7491497 2.581421,7.3040771 2.301811,10.671424 1.999878,16.128708 1.999878,24 c 0,7.871192 0.301943,13.328626 0.581543,16.695923 0.04895,0.589533 0.191813,1.146547 0.412353,1.658203 L 42.354126,2.9937744 C 41.84247,2.773234 41.285456,2.6303717 40.695923,2.5814209 37.328626,2.3018112 31.871292,1.9998779 24,1.9998779 Z"
       style="fill:#ff5454;fill-opacity:1"
       sodipodi:nodetypes="cccsscccc" />
  </g>
  <path
     fill="#d63232"
     fill-rule="evenodd"
     d="m 21.954704,13.067992 c -1.2014,0.3429 -1.7372,1.5752 -1.6552,2.8219 0.1889,2.8746 0.5704,8.1781 0.9817,11.0253 0.1216,0.8423 0.6101,1.5777 1.4464,1.7354 0.3764,0.071 0.8532,0.1215 1.4478,0.1215 0.5946,0 1.0714,-0.0505 1.4478,-0.1215 0.836301,-0.1577 1.3248,-0.8931 1.4464,-1.7354 0.411301,-2.8472 0.7928,-8.1507 0.9817,-11.0253 0.082,-1.2467 -0.4538,-2.479 -1.6552,-2.8219 -0.5923,-0.1691 -1.3326,-0.2959 -2.2207,-0.2959 -0.8881,0 -1.6284,0.1268 -2.2207,0.2959 z m 2.2207,26.7041 c 2.2091,0 4,-1.7909 4,-4 0,-2.2091 -1.7909,-4 -4,-4 -2.2091,0 -4,1.7909 -4,4 0,2.2091 1.7909,4 4,4 z"
     clip-rule="evenodd"
     id="path4"
     style="fill:#d63232;fill-opacity:1" />
  <g
     id="g3586"
     transform="matrix(1.08,0,0,1.08,-3.84,21.27)"
     style="stroke-width:0.833333">
    <path
       id="rect1001"
       style="fill:#bb852e;fill-opacity:1;stroke-width:1.25;stroke-linecap:round;stroke-linejoin:round"
       d="m 35.867432,4.3750001e-8 h 1.765136 c 3.528109,0 6.444687,2.775815956249999 6.651856,6.33068795625 l 0.33728,5.789795 c 0.05895,1.011262 -0.705351,1.879208 -1.707275,1.938721 -1.001924,0.05946 -1.861827,-0.712127 -1.920777,-1.723389 L 40.656006,6.546021 C 40.561846,4.930185 39.236254,3.668335 37.632568,3.668335 h -1.765136 c -1.603686,0 -2.929276,1.26185 -3.023438,2.877686 l -0.337646,5.789794 c -0.05895,1.011262 -0.918853,1.782845 -1.920777,1.723389 -1.001924,-0.05951 -1.766225,-0.927459 -1.707275,-1.938721 l 0.33728,-5.789795 C 29.422745,2.775816 32.339323,4.3750003e-8 35.867432,4.3750001e-8 Z"
       sodipodi:nodetypes="sscccccsscccccs" />
    <path
       id="rect899"
       style="fill:#ffff68;fill-opacity:1;stroke-width:1.25;stroke-linecap:round;stroke-linejoin:round"
       d="m 36.75,10.125 c 3.907515,0 6.651648,0.09437 8.384033,0.184937 1.404787,0.07341 2.533607,1.074622 2.668213,2.474853 C 47.909064,13.896063 48,15.430615 48,17.4375 c 0,2.006885 -0.09094,3.541436 -0.197754,4.65271 -0.134606,1.400231 -1.263426,2.401444 -2.668213,2.474853 C 43.401648,24.655623 40.657515,24.75 36.75,24.75 32.842485,24.75 30.098364,24.65563 28.365967,24.565063 26.961214,24.491653 25.832354,23.490441 25.697754,22.09021 25.590932,20.978936 25.5,19.444385 25.5,17.4375 c 0,-2.006885 0.09093,-3.541437 0.197754,-4.65271 0.1346,-1.400231 1.263454,-2.401444 2.668213,-2.474853 C 30.098358,10.219377 32.842485,10.125 36.75,10.125 Z"
       sodipodi:nodetypes="scssscscssscs" />
    <path
       id="rect1056"
       style="fill:#bb852e;fill-opacity:1;stroke-width:1.25;stroke-linecap:round;stroke-linejoin:round"
       d="m 36.75,13.5 c 1.242618,0 2.25,1.007382 2.25,2.25 0,0.875474 -0.50009,1.634179 -1.230103,2.006104 l 0.499146,2.494995 c 0.09951,0.497474 -0.157486,0.9879 -0.65918,1.06311 -0.236136,0.03538 -0.522644,0.06079 -0.859863,0.06079 -0.337219,0 -0.623727,-0.02541 -0.859863,-0.06079 -0.501694,-0.07521 -0.75869,-0.565636 -0.65918,-1.06311 l 0.499146,-2.494995 C 35.00009,17.384179 34.5,16.625474 34.5,15.75 c 0,-1.242618 1.007382,-2.25 2.25,-2.25 z"
       sodipodi:nodetypes="sscccscccss" />
  </g>
</svg>
