<?xml version="1.0" encoding="UTF-8" standalone="no"?>
<svg
   fill="none"
   viewBox="0 0 48 48"
   height="256"
   width="256"
   version="1.1"
   id="svg14"
   sodipodi:docname="fermionic_chip.svg"
   inkscape:version="1.3.2 (091e20e, 2023-11-25, custom)"
   xmlns:inkscape="http://www.inkscape.org/namespaces/inkscape"
   xmlns:sodipodi="http://sodipodi.sourceforge.net/DTD/sodipodi-0.dtd"
   xmlns="http://www.w3.org/2000/svg"
   xmlns:svg="http://www.w3.org/2000/svg">
  <defs
     id="defs18" />
  <sodipodi:namedview
     id="namedview16"
     pagecolor="#ffffff"
     bordercolor="#666666"
     borderopacity="1.0"
     inkscape:showpageshadow="2"
     inkscape:pageopacity="0.0"
     inkscape:pagecheckerboard="0"
     inkscape:deskcolor="#d1d1d1"
     showgrid="false"
     inkscape:zoom="4.5796212"
     inkscape:cx="109.72523"
     inkscape:cy="119.00548"
     inkscape:current-layer="svg14"
     inkscape:window-width="3840"
     inkscape:window-height="1476"
     inkscape:window-x="-12"
     inkscape:window-y="-12"
     inkscape:window-maximized="1" />
  <path
     fill="#adafaa"
     fill-rule="evenodd"
     d="M17.2247 11.8031C17.6771 11.6742 17.9046 11.2437 17.9305 10.774C17.9632 10.1797 18 9.23592 18 8C18 6.45543 17.9425 4.40092 17.9074 3.29153C17.8913 2.78238 17.6542 2.31035 17.1618 2.17962C16.7942 2.08202 16.2594 2 15.5 2C14.7406 2 14.2057 2.08202 13.8381 2.17962C13.3458 2.31034 13.1087 2.78239 13.0926 3.29155C13.0575 4.40095 13 6.45544 13 8C13 9.23589 13.0368 10.1797 13.0695 10.774C13.0953 11.2437 13.3228 11.6742 13.7753 11.8031C14.1439 11.9081 14.6961 12 15.5 12C16.3039 12 16.8561 11.9081 17.2247 11.8031ZM21.5695 10.774C21.5954 11.2437 21.8229 11.6742 22.2753 11.8031C22.6439 11.9081 23.1961 12 24 12C24.8039 12 25.3561 11.9081 25.7247 11.8031C26.1772 11.6742 26.4047 11.2437 26.4305 10.774C26.4632 10.1797 26.5 9.23589 26.5 8C26.5 6.45544 26.4425 4.40095 26.4074 3.29155C26.3913 2.78239 26.1542 2.31034 25.6619 2.17962C25.2943 2.08202 24.7594 2 24 2C23.2406 2 22.7058 2.08202 22.3382 2.17962C21.8458 2.31035 21.6087 2.78238 21.5926 3.29153C21.5575 4.40092 21.5 6.45543 21.5 8C21.5 9.23592 21.5368 10.1797 21.5695 10.774ZM30.0695 10.774C30.0954 11.2437 30.3229 11.6742 30.7753 11.8031C31.1439 11.9081 31.6961 12 32.5 12C33.3039 12 33.8561 11.9081 34.2247 11.8031C34.6772 11.6742 34.9047 11.2437 34.9305 10.774C34.9632 10.1797 35 9.23589 35 8C35 6.45544 34.9425 4.40095 34.9074 3.29155C34.8913 2.78239 34.6542 2.31034 34.1619 2.17962C33.7943 2.08202 33.2594 2 32.5 2C31.7406 2 31.2058 2.08202 30.8382 2.17962C30.3458 2.31035 30.1087 2.78238 30.0926 3.29153C30.0575 4.40092 30 6.45543 30 8C30 9.23592 30.0368 10.1797 30.0695 10.774Z"
     clip-rule="evenodd"
     id="path2"
     style="fill:#adafaa;fill-opacity:1" />
  <path
     fill="#adafaa"
     fill-rule="evenodd"
     d="M 11.8031,30.7753 C 11.6742,30.3229 11.2437,30.0954 10.774,30.0695 10.1797,30.0368 9.23592,30 8,30 6.45543,30 4.40092,30.0575 3.29153,30.0926 2.78238,30.1087 2.31035,30.3458 2.17962,30.8382 2.08202,31.2058 2,31.7406 2,32.5 c 0,0.7594 0.08202,1.2943 0.17962,1.6619 0.13072,0.4923 0.60277,0.7294 1.11193,0.7455 C 4.40095,34.9425 6.45544,35 8,35 c 1.23589,0 2.1797,-0.0368 2.774,-0.0695 0.4697,-0.0258 0.9002,-0.2533 1.0291,-0.7058 C 11.9081,33.8561 12,33.3039 12,32.5 12,31.6961 11.9081,31.1439 11.8031,30.7753 Z M 10.774,26.4305 c 0.4697,-0.0259 0.9002,-0.2534 1.0291,-0.7058 0.105,-0.3686 -1.154194,-0.224782 -1.154194,-1.028682 0,-0.8039 -0.0919,-1.3561 -0.1969,-1.7247 -0.1289,-0.4525 -0.5594003,-0.68 -1.0291003,-0.7058 C 8.8286057,22.232818 9.23588,21.5 8,21.5 6.45544,21.5 4.40095,21.5575 3.29155,21.5926 2.78239,21.6087 2.31034,21.8458 2.17962,22.3381 2.08202,22.7057 2,23.2406 2,24 c 0,0.7594 0.08202,1.2942 0.17962,1.6618 0.13073,0.4924 0.60276,0.7295 1.11191,0.7456 C 4.40092,26.4425 6.45543,26.5 8,26.5 c 1.23592,0 2.1797,-0.0368 2.774,-0.0695 z M 9.8266355,17.231558 c 0.4696995,-0.0259 0.9001995,-0.2534 1.0290995,-0.7058 C 10.960735,16.157158 12,16.3039 12,15.5 12,14.6961 11.9081,14.1439 11.8031,13.7753 11.6742,13.3228 11.2437,13.0953 10.774,13.0695 10.1797,13.0368 9.23588,13 8,13 6.45544,13 4.40095,13.0575 3.29155,13.0926 2.78239,13.1087 2.31034,13.3458 2.17962,13.8381 2.08202,14.2057 2,14.7406 2,15.5 c 0,0.7594 0.08202,1.2942 0.17962,1.6618 0.13073,0.4924 0.60276,0.7295 1.11191,0.7456 C 4.40092,17.9425 6.45543,18 8,18 9.23592,18 9.2323355,17.264258 9.8266355,17.231558 Z"
     clip-rule="evenodd"
     id="path4"
     sodipodi:nodetypes="ccscssccscsscccsscsccsscscccsscsccsccsc"
     style="fill:#adafaa;fill-opacity:1" />
  <path
     fill="#adafaa"
     fill-rule="evenodd"
     d="M17.2247 45.8031C17.6771 45.6742 17.9046 45.2437 17.9305 44.774C17.9632 44.1797 18 43.2359 18 42C18 40.4554 17.9425 38.4009 17.9074 37.2915C17.8913 36.7824 17.6542 36.3103 17.1618 36.1796C16.7942 36.082 16.2594 36 15.5 36C14.7406 36 14.2057 36.082 13.8381 36.1796C13.3458 36.3103 13.1087 36.7824 13.0926 37.2916C13.0575 38.4009 13 40.4554 13 42C13 43.2359 13.0368 44.1797 13.0695 44.774C13.0953 45.2437 13.3228 45.6742 13.7753 45.8031C14.1439 45.9081 14.6961 46 15.5 46C16.3039 46 16.8561 45.9081 17.2247 45.8031ZM21.5695 44.774C21.5954 45.2437 21.8229 45.6742 22.2753 45.8031C22.6439 45.9081 23.1961 46 24 46C24.8039 46 25.3561 45.9081 25.7247 45.8031C26.1772 45.6742 26.4047 45.2437 26.4305 44.774C26.4632 44.1797 26.5 43.2359 26.5 42C26.5 40.4554 26.4425 38.4009 26.4074 37.2916C26.3913 36.7824 26.1542 36.3103 25.6619 36.1796C25.2943 36.082 24.7594 36 24 36C23.2406 36 22.7058 36.082 22.3382 36.1796C21.8458 36.3103 21.6087 36.7824 21.5926 37.2915C21.5575 38.4009 21.5 40.4554 21.5 42C21.5 43.2359 21.5368 44.1797 21.5695 44.774ZM30.0695 44.774C30.0954 45.2437 30.3229 45.6742 30.7753 45.8031C31.1439 45.9081 31.6961 46 32.5 46C33.3039 46 33.8561 45.9081 34.2247 45.8031C34.6772 45.6742 34.9047 45.2437 34.9305 44.774C34.9632 44.1797 35 43.2359 35 42C35 40.4554 34.9425 38.4009 34.9074 37.2916C34.8913 36.7824 34.6542 36.3103 34.1619 36.1796C33.7943 36.082 33.2594 36 32.5 36C31.7406 36 31.2058 36.082 30.8382 36.1796C30.3458 36.3103 30.1087 36.7824 30.0926 37.2915C30.0575 38.4009 30 40.4554 30 42C30 43.2359 30.0368 44.1797 30.0695 44.774Z"
     clip-rule="evenodd"
     id="path6"
     style="fill:#adafaa;fill-opacity:1" />
  <path
     fill="#adafaa"
     fill-rule="evenodd"
     d="M45.8031 30.7753C45.6742 30.3229 45.2437 30.0954 44.774 30.0695C44.1797 30.0368 43.2359 30 42 30C40.4554 30 38.4009 30.0575 37.2915 30.0926C36.7824 30.1087 36.3103 30.3458 36.1796 30.8382C36.082 31.2058 36 31.7406 36 32.5C36 33.2594 36.082 33.7943 36.1796 34.1619C36.3103 34.6542 36.7824 34.8913 37.2916 34.9074C38.4009 34.9425 40.4554 35 42 35C43.2359 35 44.1797 34.9632 44.774 34.9305C45.2437 34.9047 45.6742 34.6772 45.8031 34.2247C45.9081 33.8561 46 33.3039 46 32.5C46 31.6961 45.9081 31.1439 45.8031 30.7753ZM44.774 26.4305C45.2437 26.4046 45.6742 26.1771 45.8031 25.7247C45.9081 25.3561 46 24.8039 46 24C46 23.1961 45.9081 22.6439 45.8031 22.2753C45.6742 21.8228 45.2437 21.5953 44.774 21.5695C44.1797 21.5368 43.2359 21.5 42 21.5C40.4554 21.5 38.4009 21.5575 37.2916 21.5926C36.7824 21.6087 36.3103 21.8458 36.1796 22.3381C36.082 22.7057 36 23.2406 36 24C36 24.7594 36.082 25.2942 36.1796 25.6618C36.3103 26.1542 36.7824 26.3913 37.2915 26.4074C38.4009 26.4425 40.4554 26.5 42 26.5C43.2359 26.5 44.1797 26.4632 44.774 26.4305ZM44.774 17.9305C45.2437 17.9046 45.6742 17.6771 45.8031 17.2247C45.9081 16.8561 46 16.3039 46 15.5C46 14.6961 45.9081 14.1439 45.8031 13.7753C45.6742 13.3228 45.2437 13.0953 44.774 13.0695C44.1797 13.0368 43.2359 13 42 13C40.4554 13 38.4009 13.0575 37.2916 13.0926C36.7824 13.1087 36.3103 13.3458 36.1796 13.8381C36.082 14.2057 36 14.7406 36 15.5C36 16.2594 36.082 16.7942 36.1796 17.1618C36.3103 17.6542 36.7824 17.8913 37.2915 17.9074C38.4009 17.9425 40.4554 18 42 18C43.2359 18 44.1797 17.9632 44.774 17.9305Z"
     clip-rule="evenodd"
     id="path8"
     style="fill:#adafaa;fill-opacity:1" />
  <path
     id="path10"
     d="m 24,7.0001221 c -5.376895,0 -9.296023,0.1820053 -11.93042,0.3735351 C 9.5125726,7.559557 7.559557,9.5125726 7.3736572,12.06958 7.1821274,14.703977 7.0001221,18.623105 7.0001221,24 c 0,5.376895 0.1820053,9.296123 0.3735351,11.93042 0.1858998,2.556997 2.1389154,4.510023 4.6959228,4.695923 2.634397,0.1915 6.553525,0.373535 11.93042,0.373535 5.376895,0 9.296023,-0.182035 11.93042,-0.373535 2.556997,-0.1859 4.510023,-2.138926 4.695923,-4.695923 0.1915,-2.634397 0.373535,-6.553525 0.373535,-11.93042 0,-5.376895 -0.182035,-9.296123 -0.373535,-11.93042 C 40.440443,9.5125626 38.487417,7.559567 35.93042,7.3736572 33.296023,7.1821374 29.376895,7.0001221 24,7.0001221 Z"
     style="fill:#606668;fill-opacity:1"
     sodipodi:nodetypes="sccsccsccsccs" />
  <circle
     style="fill:#ffffff;fill-opacity:1;stroke:none;stroke-width:5.49007"
     id="path4732"
     cx="12"
     cy="13"
     r="2.8125" />
  <g
     id="g3"
     transform="matrix(0.17827298,0,0,0.29813616,17.002142,23.85092)"
     style="fill:#ffffff;fill-opacity:1;stroke-width:2"
     inkscape:transform-center-x="0.23561687"
     inkscape:transform-center-y="0.012303522">
    <path
       style="fill:#ffffff;fill-opacity:1;stroke-width:2"
       d="m -24.018211,28.179269 c 6.299169,-3.004273 8.585448,-5.156305 16.222825,-15.270249 3.684107,-4.8787491 6.815839,-8.870453 6.959404,-8.870453 0.470394,0 8.692771,11.186605 8.692771,11.826579 0,0.343197 -1.7020149,2.533613 -3.782255,4.867591 -2.571265,2.884894 -5.367998,5.024253 -8.734963,6.681805 -4.670243,2.299153 -5.491809,2.45169 -14.405245,2.674564 l -9.452537,0.236355 z m 67.3125,1.270213 c -1.340625,-0.387092 -2.4375,-0.81512 -2.4375,-0.951174 0,-0.136054 1.864445,-1.485293 4.143211,-2.998308 3.020591,-2.00556 5.925248,-5.140228 10.720107,-11.569002 l 6.576897,-8.8180653 4.558868,6.0663473 4.558869,6.066348 -2.716476,3.05338 C 61.673838,28.19462 51.562296,31.836783 43.294289,29.449482 Z m -5.10395,-16.164527 c -0.565595,-5.2814455 -0.05763,-20.2723048 0.713036,-21.0429743 0.956816,-0.9568159 1.329457,0.6442058 1.736011,7.45862967 0.460146,7.71268293 -0.292778,18.58795663 -1.286891,18.58795663 -0.344473,0 -0.867444,-2.251625 -1.162156,-5.003612 z m -6.577002,-0.65383 c -1.054202,-6.3839814 -0.243791,-18.8158779 1.08948,-16.7128624 0.781605,1.2328546 0.760689,16.2029024 -0.02545,18.2128624 -0.461561,1.1801 -0.669978,0.886287 -1.064032,-1.5 z m 14.284718,1.157442 c -0.735322,-2.647411 -0.646869,-16.6721984 0.112706,-17.8703044 1.384946,-2.1845245 2.109858,10.4755575 0.958831,16.7453044 -0.501246,2.730332 -0.597566,2.831458 -1.071537,1.125 z M 24.895793,10.327571 C 24.122454,9.554232 24.228562,-0.29365905 25.015474,-0.77999701 25.777844,-1.2511679 26.630819,2.407658 26.554075,5.819817 c -0.06473,2.8780849 -0.931578,5.234458 -1.658282,4.507754 z M 52.435277,8.1794039 C 51.784083,4.7082434 52.724543,-1.878942 53.660255,-0.40060414 54.55981,1.0206107 54.547095,9.832426 53.644684,10.390147 53.253026,10.632205 52.708793,9.63737 52.435277,8.1794039 Z M 75.566953,-0.90637439 70.98206,-7.0073521 75.231925,-11.198704 c 6.159179,-6.074378 11.24572,-8.186418 20.731869,-8.608312 10.313746,-0.458701 11.454756,-0.124746 6.767996,1.980883 -6.546054,2.940956 -9.352679,5.449501 -16.047937,14.3435508 L 80.151846,5.1946033 Z M 12.145148,-2.4893796 7.8085081,-8.230461 11.020148,-11.511192 c 1.766403,-1.804402 5.376083,-4.348562 8.021512,-5.653687 4.177224,-2.060839 5.607623,-2.376152 10.875,-2.397255 3.335821,-0.01336 6.72716,0.245635 7.536309,0.575554 1.290912,0.526351 1.061163,0.831335 -1.875,2.488998 -4.528574,2.556687 -7.439011,5.466584 -13.226106,13.223649 -2.692745,3.609375 -5.115089,6.5542054 -5.382987,6.5440675 -0.267898,-0.010138 -2.438575,-2.6019193 -4.823728,-5.7595141 z"
       id="path2-7" />
    <path
       style="fill:#ffffff;fill-opacity:1;stroke-width:2"
       d="M 26.40764,29.472528 C 22.542842,28.561993 18.184162,26.24968 14.904292,23.369916 13.394981,22.044723 6.5990923,13.586083 -0.197683,4.5729376 -13.200556,-12.670063 -16.426464,-15.856965 -23.268211,-18.218634 c -4.827937,-1.666533 -3.230468,-2.022224 7.15954,-1.594139 6.885254,0.283684 8.567587,0.627621 12.760648,2.608795 2.656397,1.255118 6.011062,3.45073 7.454812,4.879139 1.44375,1.428409 8.265694,9.9976496 15.159876,19.0427567 13.04172,17.1106243 15.579101,19.5983823 22.5474,22.1064483 l 3.917724,1.410087 -8.25,-0.04828 c -4.5375,-0.02655 -9.520867,-0.347694 -11.074149,-0.713644 z m 62.715437,0.03642 C 84.35089,28.564456 79.088353,25.535816 75.272643,21.537896 73.370113,19.544515 66.677569,11.101752 60.400324,2.7762006 48.376398,-13.171209 44.809069,-16.587136 37.785024,-18.879277 c -3.150611,-1.028132 -2.835415,-1.066138 6.821765,-0.822573 16.364306,0.412726 17.999518,1.581435 36.364761,25.990417 12.288035,16.331852 14.624825,18.68785 21.57274,21.750061 1.95937,0.863572 3.5625,1.723087 3.5625,1.910035 0,0.570226 -13.668959,0.216335 -16.983713,-0.439711 z"
       id="path1"
       sodipodi:nodetypes="ssssssssscsssssssssssss" />
  </g>
</svg>
