<?xml version="1.0" encoding="UTF-8" standalone="no"?>
<svg
   fill="none"
   viewBox="0 0 48 48"
   height="256"
   width="256"
   version="1.1"
   id="svg14"
   sodipodi:docname="maxim_chip - Copy.svg"
   inkscape:version="1.3 (0e150ed6c4, 2023-07-21)"
   xmlns:inkscape="http://www.inkscape.org/namespaces/inkscape"
   xmlns:sodipodi="http://sodipodi.sourceforge.net/DTD/sodipodi-0.dtd"
   xmlns="http://www.w3.org/2000/svg"
   xmlns:svg="http://www.w3.org/2000/svg">
  <defs
     id="defs18" />
  <sodipodi:namedview
     id="namedview16"
     pagecolor="#ffffff"
     bordercolor="#666666"
     borderopacity="1.0"
     inkscape:showpageshadow="2"
     inkscape:pageopacity="0.0"
     inkscape:pagecheckerboard="0"
     inkscape:deskcolor="#d1d1d1"
     showgrid="false"
     inkscape:zoom="1.6191406"
     inkscape:cx="70.407721"
     inkscape:cy="121.36068"
     inkscape:current-layer="svg14"
     inkscape:window-width="3840"
     inkscape:window-height="1494"
     inkscape:window-x="-11"
     inkscape:window-y="-11"
     inkscape:window-maximized="1" />
  <path
     fill="#adafaa"
     fill-rule="evenodd"
     d="M 17.99523,7.1581474 C 17.980733,5.7713767 17.936414,4.2085616 17.9074,3.29153 17.8913,2.78238 17.6542,2.31035 17.1618,2.17962 16.7942,2.08202 16.2594,2 15.5,2 c -0.7594,0 -1.2943,0.08202 -1.6619,0.17962 -0.4923,0.13072 -0.7294,0.60277 -0.7455,1.11193 -0.03054,0.9652269 -0.07803,2.6458649 -0.08986,4.0836334 z m 8.499413,-0.054834 C 26.47957,5.7303708 26.436032,4.1965213 26.4074,3.29155 26.3913,2.78239 26.1542,2.31034 25.6619,2.17962 25.2943,2.08202 24.7594,2 24,2 c -0.7594,0 -1.2942,0.08202 -1.6618,0.17962 -0.4924,0.13073 -0.7295,0.60276 -0.7456,1.11191 -0.02856,0.9027793 -0.07196,2.431425 -0.08713,3.8018344 z m 8.502824,0.2971449 C 34.985991,5.9571553 34.938118,4.2624385 34.9074,3.29155 34.8913,2.78239 34.6542,2.31034 34.1619,2.17962 33.7943,2.08202 33.2594,2 32.5,2 c -0.7594,0 -1.2942,0.08202 -1.6618,0.17962 -0.4924,0.13073 -0.7295,0.60276 -0.7456,1.11191 -0.02913,0.9207397 -0.07369,2.4924963 -0.08801,3.8834317 z"
     clip-rule="evenodd"
     id="path2"
     sodipodi:nodetypes="cccscccccccscccccccssccc"
     style="fill:#adafaa;fill-opacity:1" />
  <path
     fill="#adafaa"
     fill-rule="evenodd"
     d="M 7.1342363,30.005022 C 5.7534466,30.019775 4.2032948,30.063753 3.29153,30.0926 2.78238,30.1087 2.31035,30.3458 2.17962,30.8382 2.08202,31.2058 2,31.7406 2,32.5 c 0,0.7594 0.08202,1.2943 0.17962,1.6619 0.13072,0.4923 0.60277,0.7294 1.11193,0.7455 0.9616678,0.03043 2.6334806,0.07768 4.067719,0.08973 z M 7.0421984,21.506046 C 5.6850675,21.521717 4.1831161,21.564392 3.29155,21.5926 2.78239,21.6087 2.31034,21.8458 2.17962,22.3381 2.08202,22.7057 2,23.2406 2,24 c 0,0.7594 0.08202,1.2942 0.17962,1.6618 0.13073,0.4924 0.60276,0.7295 1.11191,0.7456 0.8937874,0.02828 2.4010356,0.0711 3.7608392,0.08667 z M 7.3594007,13.002869 C 5.9251329,13.014914 4.2532473,13.062173 3.29155,13.0926 2.78239,13.1087 2.31034,13.3458 2.17962,13.8381 2.08202,14.2057 2,14.7406 2,15.5 c 0,0.7594 0.08202,1.2942 0.17962,1.6618 0.13073,0.4924 0.60276,0.7295 1.11191,0.7456 0.9140292,0.02892 2.4696204,0.07304 3.8529909,0.08769 z"
     clip-rule="evenodd"
     id="path4"
     sodipodi:nodetypes="ccsscccccccssccccccscccc"
     style="fill:#adafaa;fill-opacity:1" />
  <path
     fill="#adafaa"
     fill-rule="evenodd"
     d="M 17.2247,45.8031 C 17.6771,45.6742 17.9046,45.2437 17.9305,44.774 17.9632,44.1797 18,43.2359 18,42 c 0,-0.353089 -0.003,-0.732823 -0.0081,-1.121822 L 13.011071,40.661326 C 13.00422,41.125686 13,41.581554 13,42 c 0,1.2359 0.0368,2.1797 0.0695,2.774 0.0258,0.4697 0.2533,0.9002 0.7058,1.0291 C 14.1439,45.9081 14.6961,46 15.5,46 c 0.8039,0 1.3561,-0.0919 1.7247,-0.1969 z m 4.3448,-1.0291 c 0.0259,0.4697 0.2534,0.9002 0.7058,1.0291 C 22.6439,45.9081 23.1961,46 24,46 c 0.8039,0 1.3561,-0.0919 1.7247,-0.1969 0.4525,-0.1289 0.68,-0.5594 0.7058,-1.0291 C 26.4632,44.1797 26.5,43.2359 26.5,42 c 0,-0.322327 -0.0025,-0.666859 -0.0068,-1.020373 l -4.986429,8.8e-5 C 21.502504,41.333198 21.5,41.6777 21.5,42 c 0,1.2359 0.0368,2.1797 0.0695,2.774 z m 8.5,0 c 0.0259,0.4697 0.2534,0.9002 0.7058,1.0291 C 31.1439,45.9081 31.6961,46 32.5,46 c 0.8039,0 1.3561,-0.0919 1.7247,-0.1969 0.4525,-0.1289 0.68,-0.5594 0.7058,-1.0291 C 34.9632,44.1797 35.010133,43.235858 35,42 L 34.989145,40.676068 30.007502,40.92174 30,42 c -0.0086,1.23587 0.0368,2.1797 0.0695,2.774 z"
     clip-rule="evenodd"
     id="path6"
     sodipodi:nodetypes="ccsccscsscccsscsccscccsscsccsc"
     style="fill:#adafaa;fill-opacity:1" />
  <path
     fill="#adafaa"
     fill-rule="evenodd"
     d="M 45.8031,30.7753 C 45.6742,30.3229 45.2437,30.0954 44.774,30.0695 44.1797,30.0368 43.2359,30 42,30 c -0.335662,0 -0.695403,0.0027 -1.064292,0.0073 l -0.26023,4.981811 C 41.134946,34.995865 41.585806,35 42,35 c 1.2359,0 2.1797,-0.0368 2.774,-0.0695 0.4697,-0.0258 0.9002,-0.2533 1.0291,-0.7058 C 45.9081,33.8561 46,33.3039 46,32.5 46,31.6961 45.9081,31.1439 45.8031,30.7753 Z M 44.774,26.4305 c 0.4697,-0.0259 0.9002,-0.2534 1.0291,-0.7058 C 45.9081,25.3561 46,24.8039 46,24 46,23.1961 45.9081,22.6439 45.8031,22.2753 45.6742,21.8228 45.2437,21.5953 44.774,21.5695 44.1797,21.5368 43.2359,21.5 42,21.5 c -0.331118,0 -0.685668,0.0026 -1.049316,0.0071 l 0.02912,4.986076 C 41.333255,26.497497 41.677726,26.5 42,26.5 c 1.2359,0 2.1797,-0.0368 2.774,-0.0695 z m 0,-8.5 c 0.4697,-0.0259 0.9002,-0.2534 1.0291,-0.7058 C 45.9081,16.8561 46,16.3039 46,15.5 46,14.6961 45.9081,14.1439 45.8031,13.7753 45.6742,13.3228 45.2437,13.0953 44.774,13.0695 44.1797,13.0368 43.2359,13 42,13 c -0.422888,0 -0.883998,0.0043 -1.353467,0.01129 l 0.246304,4.980839 C 41.276715,17.99707 41.651348,18 42,18 c 1.2359,0 2.1797,-0.0368 2.774,-0.0695 z"
     clip-rule="evenodd"
     id="path8"
     sodipodi:nodetypes="ccsccscsscccsscsccscccsscsccsc"
     style="fill:#adafaa;fill-opacity:1" />
  <path
     id="path10"
     d="m 24,7.0001221 c -5.376895,0 -9.296023,0.1820053 -11.93042,0.3735351 C 9.5125726,7.559557 7.559557,9.5125726 7.3736572,12.06958 7.1821274,14.703977 7.0001221,18.623105 7.0001221,24 c 0,5.376895 0.1820053,9.296123 0.3735351,11.93042 0.1858998,2.556997 2.1389154,4.510023 4.6959228,4.695923 2.634397,0.1915 6.553525,0.373535 11.93042,0.373535 5.376895,0 9.296023,-0.182035 11.93042,-0.373535 2.556997,-0.1859 4.510023,-2.138926 4.695923,-4.695923 0.1915,-2.634397 0.373535,-6.553525 0.373535,-11.93042 0,-5.376895 -0.182035,-9.296123 -0.373535,-11.93042 C 40.440443,9.5125626 38.487417,7.559567 35.93042,7.3736572 33.296023,7.1821374 29.376895,7.0001221 24,7.0001221 Z"
     style="fill:#606668;fill-opacity:1"
     sodipodi:nodetypes="sccsccsccsccs" />
  <path
     id="rect346"
     style="fill:#ffffff;stroke-width:3.75;stroke-linejoin:round;fill-opacity:1"
     d="m 24,8.6488037 c -8.477391,0 -15.351196,6.8722503 -15.351196,15.3479003 0,8.481798 6.873805,15.354492 15.351196,15.354492 8.477415,0 15.351196,-6.872694 15.351196,-15.354492 C 39.351196,15.521054 32.477415,8.6488037 24,8.6488037 Z m -7.959961,8.0335693 h 3.66e-4 4.304444 c 0.542705,0 1.079754,0.296346 1.331909,0.763184 l 1.546875,2.726806 -1.698487,3.066651 -2.019653,-3.621826 h -1.80542 V 31.512817 H 14.462036 V 18.259644 c 0,-0.870895 0.700417,-1.577271 1.578003,-1.577271 z m 11.608521,0 h 4.304809 c 0.871351,0 1.572144,0.706793 1.572144,1.577637 v 13.253174 h -3.23877 V 19.617188 h -1.805054 l -2.789794,5.029541 3.799438,6.866455 h -3.414917 l -2.083008,-3.767945 -2.082641,3.767945 H 18.49585 l 7.814209,-14.067261 c 0.258545,-0.467032 0.790087,-0.763184 1.338867,-0.763184 z"
     sodipodi:nodetypes="sssssscscccccccsscssccccccccccccc" />
  <circle
     style="fill:#ffffff;fill-opacity:1;stroke:none;stroke-width:5.49007"
     id="path4732"
     cx="12"
     cy="13"
     r="2.8125" />
</svg>
