<?xml version="1.0" encoding="UTF-8" standalone="no"?>
<svg
   fill="none"
   viewBox="0 0 48 48"
   height="256"
   width="256"
   version="1.1"
   id="svg14"
   sodipodi:docname="microchip-atmel_chip.svg"
   inkscape:version="1.3 (0e150ed6c4, 2023-07-21)"
   xmlns:inkscape="http://www.inkscape.org/namespaces/inkscape"
   xmlns:sodipodi="http://sodipodi.sourceforge.net/DTD/sodipodi-0.dtd"
   xmlns="http://www.w3.org/2000/svg"
   xmlns:svg="http://www.w3.org/2000/svg">
  <defs
     id="defs18" />
  <sodipodi:namedview
     id="namedview16"
     pagecolor="#ffffff"
     bordercolor="#666666"
     borderopacity="1.0"
     inkscape:showpageshadow="2"
     inkscape:pageopacity="0.0"
     inkscape:pagecheckerboard="0"
     inkscape:deskcolor="#d1d1d1"
     showgrid="false"
     inkscape:zoom="1.6191406"
     inkscape:cx="41.379977"
     inkscape:cy="97.891437"
     inkscape:current-layer="svg14"
     inkscape:window-width="3840"
     inkscape:window-height="1494"
     inkscape:window-x="-11"
     inkscape:window-y="-11"
     inkscape:window-maximized="1" />
  <path
     fill="#adafaa"
     fill-rule="evenodd"
     d="M 17.99523,7.1581474 C 17.980733,5.7713767 17.936414,4.2085616 17.9074,3.29153 17.8913,2.78238 17.6542,2.31035 17.1618,2.17962 16.7942,2.08202 16.2594,2 15.5,2 c -0.7594,0 -1.2943,0.08202 -1.6619,0.17962 -0.4923,0.13072 -0.7294,0.60277 -0.7455,1.11193 -0.03054,0.9652269 -0.07803,2.6458649 -0.08986,4.0836334 z m 8.499413,-0.054834 C 26.47957,5.7303708 26.436032,4.1965213 26.4074,3.29155 26.3913,2.78239 26.1542,2.31034 25.6619,2.17962 25.2943,2.08202 24.7594,2 24,2 c -0.7594,0 -1.2942,0.08202 -1.6618,0.17962 -0.4924,0.13073 -0.7295,0.60276 -0.7456,1.11191 -0.02856,0.9027793 -0.07196,2.431425 -0.08713,3.8018344 z m 8.502824,0.2971449 C 34.985991,5.9571553 34.938118,4.2624385 34.9074,3.29155 34.8913,2.78239 34.6542,2.31034 34.1619,2.17962 33.7943,2.08202 33.2594,2 32.5,2 c -0.7594,0 -1.2942,0.08202 -1.6618,0.17962 -0.4924,0.13073 -0.7295,0.60276 -0.7456,1.11191 -0.02913,0.9207397 -0.07369,2.4924963 -0.08801,3.8834317 z"
     clip-rule="evenodd"
     id="path2"
     sodipodi:nodetypes="cccscccccccscccccccssccc"
     style="fill:#adafaa;fill-opacity:1" />
  <path
     fill="#adafaa"
     fill-rule="evenodd"
     d="M 7.1342363,30.005022 C 5.7534466,30.019775 4.2032948,30.063753 3.29153,30.0926 2.78238,30.1087 2.31035,30.3458 2.17962,30.8382 2.08202,31.2058 2,31.7406 2,32.5 c 0,0.7594 0.08202,1.2943 0.17962,1.6619 0.13072,0.4923 0.60277,0.7294 1.11193,0.7455 0.9616678,0.03043 2.6334806,0.07768 4.067719,0.08973 z M 7.0421984,21.506046 C 5.6850675,21.521717 4.1831161,21.564392 3.29155,21.5926 2.78239,21.6087 2.31034,21.8458 2.17962,22.3381 2.08202,22.7057 2,23.2406 2,24 c 0,0.7594 0.08202,1.2942 0.17962,1.6618 0.13073,0.4924 0.60276,0.7295 1.11191,0.7456 0.8937874,0.02828 2.4010356,0.0711 3.7608392,0.08667 z M 7.3594007,13.002869 C 5.9251329,13.014914 4.2532473,13.062173 3.29155,13.0926 2.78239,13.1087 2.31034,13.3458 2.17962,13.8381 2.08202,14.2057 2,14.7406 2,15.5 c 0,0.7594 0.08202,1.2942 0.17962,1.6618 0.13073,0.4924 0.60276,0.7295 1.11191,0.7456 0.9140292,0.02892 2.4696204,0.07304 3.8529909,0.08769 z"
     clip-rule="evenodd"
     id="path4"
     sodipodi:nodetypes="ccsscccccccssccccccscccc"
     style="fill:#adafaa;fill-opacity:1" />
  <path
     fill="#adafaa"
     fill-rule="evenodd"
     d="M 17.2247,45.8031 C 17.6771,45.6742 17.9046,45.2437 17.9305,44.774 17.9632,44.1797 18,43.2359 18,42 c 0,-0.353089 -0.003,-0.732823 -0.0081,-1.121822 L 13.011071,40.661326 C 13.00422,41.125686 13,41.581554 13,42 c 0,1.2359 0.0368,2.1797 0.0695,2.774 0.0258,0.4697 0.2533,0.9002 0.7058,1.0291 C 14.1439,45.9081 14.6961,46 15.5,46 c 0.8039,0 1.3561,-0.0919 1.7247,-0.1969 z m 4.3448,-1.0291 c 0.0259,0.4697 0.2534,0.9002 0.7058,1.0291 C 22.6439,45.9081 23.1961,46 24,46 c 0.8039,0 1.3561,-0.0919 1.7247,-0.1969 0.4525,-0.1289 0.68,-0.5594 0.7058,-1.0291 C 26.4632,44.1797 26.5,43.2359 26.5,42 c 0,-0.322327 -0.0025,-0.666859 -0.0068,-1.020373 l -4.986429,8.8e-5 C 21.502504,41.333198 21.5,41.6777 21.5,42 c 0,1.2359 0.0368,2.1797 0.0695,2.774 z m 8.5,0 c 0.0259,0.4697 0.2534,0.9002 0.7058,1.0291 C 31.1439,45.9081 31.6961,46 32.5,46 c 0.8039,0 1.3561,-0.0919 1.7247,-0.1969 0.4525,-0.1289 0.68,-0.5594 0.7058,-1.0291 C 34.9632,44.1797 35.010133,43.235858 35,42 L 34.989145,40.676068 30.007502,40.92174 30,42 c -0.0086,1.23587 0.0368,2.1797 0.0695,2.774 z"
     clip-rule="evenodd"
     id="path6"
     sodipodi:nodetypes="ccsccscsscccsscsccscccsscsccsc"
     style="fill:#adafaa;fill-opacity:1" />
  <path
     fill="#adafaa"
     fill-rule="evenodd"
     d="M 45.8031,30.7753 C 45.6742,30.3229 45.2437,30.0954 44.774,30.0695 44.1797,30.0368 43.2359,30 42,30 c -0.335662,0 -0.695403,0.0027 -1.064292,0.0073 l -0.26023,4.981811 C 41.134946,34.995865 41.585806,35 42,35 c 1.2359,0 2.1797,-0.0368 2.774,-0.0695 0.4697,-0.0258 0.9002,-0.2533 1.0291,-0.7058 C 45.9081,33.8561 46,33.3039 46,32.5 46,31.6961 45.9081,31.1439 45.8031,30.7753 Z M 44.774,26.4305 c 0.4697,-0.0259 0.9002,-0.2534 1.0291,-0.7058 C 45.9081,25.3561 46,24.8039 46,24 46,23.1961 45.9081,22.6439 45.8031,22.2753 45.6742,21.8228 45.2437,21.5953 44.774,21.5695 44.1797,21.5368 43.2359,21.5 42,21.5 c -0.331118,0 -0.685668,0.0026 -1.049316,0.0071 l 0.02912,4.986076 C 41.333255,26.497497 41.677726,26.5 42,26.5 c 1.2359,0 2.1797,-0.0368 2.774,-0.0695 z m 0,-8.5 c 0.4697,-0.0259 0.9002,-0.2534 1.0291,-0.7058 C 45.9081,16.8561 46,16.3039 46,15.5 46,14.6961 45.9081,14.1439 45.8031,13.7753 45.6742,13.3228 45.2437,13.0953 44.774,13.0695 44.1797,13.0368 43.2359,13 42,13 c -0.422888,0 -0.883998,0.0043 -1.353467,0.01129 l 0.246304,4.980839 C 41.276715,17.99707 41.651348,18 42,18 c 1.2359,0 2.1797,-0.0368 2.774,-0.0695 z"
     clip-rule="evenodd"
     id="path8"
     sodipodi:nodetypes="ccsccscsscccsscsccscccsscsccsc"
     style="fill:#adafaa;fill-opacity:1" />
  <path
     id="path10"
     style="fill:#606668;fill-opacity:1"
     d="m 24,7.0001221 c -5.376885,0 -9.296029,0.1820057 -11.93042,0.3735351 C 9.5125778,7.5595566 7.5595566,9.5125778 7.3736572,12.06958 7.1821278,14.703971 7.0001221,18.623115 7.0001221,24 c 0,5.376885 0.1820057,9.296129 0.3735351,11.93042 0.1858994,2.556991 2.1389206,4.510023 4.6959228,4.695923 2.634391,0.1915 6.553535,0.373535 11.93042,0.373535 5.376885,0 9.296029,-0.182035 11.93042,-0.373535 2.556991,-0.1859 4.510023,-2.138932 4.695923,-4.695923 0.1915,-2.634391 0.373535,-6.553535 0.373535,-11.93042 0,-5.376885 -0.182035,-9.296129 -0.373535,-11.93042 C 40.440443,9.5125678 38.487411,7.5595666 35.93042,7.3736572 33.296029,7.1821378 29.376885,7.0001221 24,7.0001221 Z"
     sodipodi:nodetypes="sccsccsccsccs" />
  <circle
     style="fill:#ffffff;fill-opacity:1;stroke:none;stroke-width:5.49007"
     id="path4732"
     cx="12"
     cy="13"
     r="2.8125" />
  <path
     id="rect350"
     style="fill:#ffffff;stroke-width:3.75;stroke-linejoin:round;fill-opacity:1"
     d="m 20.099487,8.6868896 -4.338134,5.1936034 c -2.385974,2.856556 -4.865236,5.824738 -5.509278,6.595825 -0.643893,0.77109 -1.171142,1.412704 -1.171142,1.427124 h -0.0099 c 0,0.01443 0.50896,0.02564 1.131226,0.02564 h 1.131225 l 0.09082,-0.102173 c 0.04995,-0.05598 0.814936,-0.964383 1.699952,-2.018554 l 1.608764,-1.916382 1.948975,-0.0088 1.948974,-0.0088 v -0.928711 -0.928711 h -1.148803 c -0.631784,0 -1.148438,-0.0085 -1.148438,-0.01721 0,-0.0096 0.908431,-1.098756 2.018555,-2.420288 l 2.018188,-2.40271 0.02014,5.367554 0.02051,5.367553 h 0.962402 0.962769 l 0.01172,-6.612304 0.0088,-6.6126714 h -1.128663 z m 4.688965,0 v 1.8072514 1.807251 h -0.506836 -0.50647 v 0.99646 0.996826 h 0.50647 0.506836 v 1.988525 c 0,2.173726 0.0082,2.284731 0.198853,2.84729 0.218186,0.643493 0.586882,1.220521 1.083252,1.694824 0.557887,0.533 1.207684,0.873112 1.977905,1.034912 l -3.66e-4,3.67e-4 c 0.240394,0.05192 0.454121,0.06388 1.021728,0.06628 l 0.71814,0.0022 v -0.979614 -0.979614 l -0.616699,-7.33e-4 c -0.690044,-5.76e-4 -0.907152,-0.03606 -1.25354,-0.205078 -0.448781,-0.218767 -0.784326,-0.558402 -0.9917,-1.00415 -0.203334,-0.436524 -0.212036,-0.548994 -0.212036,-2.610352 v -1.854858 h 1.520142 1.520141 v -0.996826 -0.99646 h -1.520141 -1.520142 v -1.80725 -1.8072514 h -0.962768 z m 6.694702,14.4818114 c -4.325245,0 -8.350708,3.522206 -8.350708,8.331665 0,0.742678 0.119895,1.485311 0.286743,2.143067 l 2.438965,-3.550415 1.699585,2.765258 c 0.406528,0.657742 0,1.223877 0,1.223877 l -2.152588,3.154175 c 1.626137,1.725754 3.805393,2.588745 6.078003,2.588745 2.23258,0 4.258601,-0.877118 5.744751,-2.277466 l -5.084839,-8.459106 1.57251,-2.284424 c 0.65976,-0.91948 1.359741,0 1.359741,0 l 4.345093,7.27771 c 0.206365,-0.615341 0.326337,-1.315319 0.366577,-1.973144 l -4.918213,-8.239747 c -1.032973,-0.438539 -2.186041,-0.700195 -3.38562,-0.700195 z m -2.718017,3.254151 c 0.433964,-0.0068 0.732055,0.430664 0.732055,0.430664 l 4.258301,7.228271 -1.446167,2.234985 c -0.746429,1.230686 -1.405884,0 -1.405884,0 l -4.338867,-7.27771 1.48645,-2.185546 c 0.258044,-0.317935 0.502175,-0.427327 0.714112,-0.430664 z"
     sodipodi:nodetypes="cccccsccccccccsscccccccccccccccccccscccccccccccscccccccccccsscccccscccccccssccccccs" />
</svg>
