<?xml version="1.0" encoding="UTF-8" standalone="no"?>
<svg
   fill="none"
   viewBox="0 0 48 48"
   height="256"
   width="256"
   version="1.1"
   id="svg14"
   sodipodi:docname="stmicro_chip.svg"
   inkscape:version="1.3 (0e150ed6c4, 2023-07-21)"
   xmlns:inkscape="http://www.inkscape.org/namespaces/inkscape"
   xmlns:sodipodi="http://sodipodi.sourceforge.net/DTD/sodipodi-0.dtd"
   xmlns="http://www.w3.org/2000/svg"
   xmlns:svg="http://www.w3.org/2000/svg">
  <defs
     id="defs18" />
  <sodipodi:namedview
     id="namedview16"
     pagecolor="#ffffff"
     bordercolor="#666666"
     borderopacity="1.0"
     inkscape:showpageshadow="2"
     inkscape:pageopacity="0.0"
     inkscape:pagecheckerboard="0"
     inkscape:deskcolor="#d1d1d1"
     showgrid="false"
     inkscape:zoom="1.6191406"
     inkscape:cx="-77.201449"
     inkscape:cy="96.656214"
     inkscape:current-layer="svg14"
     inkscape:window-width="3840"
     inkscape:window-height="1494"
     inkscape:window-x="-11"
     inkscape:window-y="-11"
     inkscape:window-maximized="1" />
  <path
     fill="#adafaa"
     fill-rule="evenodd"
     d="M 17.99523,7.1581474 C 17.980733,5.7713767 17.936414,4.2085616 17.9074,3.29153 17.8913,2.78238 17.6542,2.31035 17.1618,2.17962 16.7942,2.08202 16.2594,2 15.5,2 c -0.7594,0 -1.2943,0.08202 -1.6619,0.17962 -0.4923,0.13072 -0.7294,0.60277 -0.7455,1.11193 -0.03054,0.9652269 -0.07803,2.6458649 -0.08986,4.0836334 z m 8.499413,-0.054834 C 26.47957,5.7303708 26.436032,4.1965213 26.4074,3.29155 26.3913,2.78239 26.1542,2.31034 25.6619,2.17962 25.2943,2.08202 24.7594,2 24,2 c -0.7594,0 -1.2942,0.08202 -1.6618,0.17962 -0.4924,0.13073 -0.7295,0.60276 -0.7456,1.11191 -0.02856,0.9027793 -0.07196,2.431425 -0.08713,3.8018344 z m 8.502824,0.2971449 C 34.985991,5.9571553 34.938118,4.2624385 34.9074,3.29155 34.8913,2.78239 34.6542,2.31034 34.1619,2.17962 33.7943,2.08202 33.2594,2 32.5,2 c -0.7594,0 -1.2942,0.08202 -1.6618,0.17962 -0.4924,0.13073 -0.7295,0.60276 -0.7456,1.11191 -0.02913,0.9207397 -0.07369,2.4924963 -0.08801,3.8834317 z"
     clip-rule="evenodd"
     id="path2"
     sodipodi:nodetypes="cccscccccccscccccccssccc"
     style="fill:#adafaa;fill-opacity:1" />
  <path
     fill="#adafaa"
     fill-rule="evenodd"
     d="M 7.1342363,30.005022 C 5.7534466,30.019775 4.2032948,30.063753 3.29153,30.0926 2.78238,30.1087 2.31035,30.3458 2.17962,30.8382 2.08202,31.2058 2,31.7406 2,32.5 c 0,0.7594 0.08202,1.2943 0.17962,1.6619 0.13072,0.4923 0.60277,0.7294 1.11193,0.7455 0.9616678,0.03043 2.6334806,0.07768 4.067719,0.08973 z M 7.0421984,21.506046 C 5.6850675,21.521717 4.1831161,21.564392 3.29155,21.5926 2.78239,21.6087 2.31034,21.8458 2.17962,22.3381 2.08202,22.7057 2,23.2406 2,24 c 0,0.7594 0.08202,1.2942 0.17962,1.6618 0.13073,0.4924 0.60276,0.7295 1.11191,0.7456 0.8937874,0.02828 2.4010356,0.0711 3.7608392,0.08667 z M 7.3594007,13.002869 C 5.9251329,13.014914 4.2532473,13.062173 3.29155,13.0926 2.78239,13.1087 2.31034,13.3458 2.17962,13.8381 2.08202,14.2057 2,14.7406 2,15.5 c 0,0.7594 0.08202,1.2942 0.17962,1.6618 0.13073,0.4924 0.60276,0.7295 1.11191,0.7456 0.9140292,0.02892 2.4696204,0.07304 3.8529909,0.08769 z"
     clip-rule="evenodd"
     id="path4"
     sodipodi:nodetypes="ccsscccccccssccccccscccc"
     style="fill:#adafaa;fill-opacity:1" />
  <path
     fill="#adafaa"
     fill-rule="evenodd"
     d="M 17.2247,45.8031 C 17.6771,45.6742 17.9046,45.2437 17.9305,44.774 17.9632,44.1797 18,43.2359 18,42 c 0,-0.353089 -0.003,-0.732823 -0.0081,-1.121822 L 13.011071,40.661326 C 13.00422,41.125686 13,41.581554 13,42 c 0,1.2359 0.0368,2.1797 0.0695,2.774 0.0258,0.4697 0.2533,0.9002 0.7058,1.0291 C 14.1439,45.9081 14.6961,46 15.5,46 c 0.8039,0 1.3561,-0.0919 1.7247,-0.1969 z m 4.3448,-1.0291 c 0.0259,0.4697 0.2534,0.9002 0.7058,1.0291 C 22.6439,45.9081 23.1961,46 24,46 c 0.8039,0 1.3561,-0.0919 1.7247,-0.1969 0.4525,-0.1289 0.68,-0.5594 0.7058,-1.0291 C 26.4632,44.1797 26.5,43.2359 26.5,42 c 0,-0.322327 -0.0025,-0.666859 -0.0068,-1.020373 l -4.986429,8.8e-5 C 21.502504,41.333198 21.5,41.6777 21.5,42 c 0,1.2359 0.0368,2.1797 0.0695,2.774 z m 8.5,0 c 0.0259,0.4697 0.2534,0.9002 0.7058,1.0291 C 31.1439,45.9081 31.6961,46 32.5,46 c 0.8039,0 1.3561,-0.0919 1.7247,-0.1969 0.4525,-0.1289 0.68,-0.5594 0.7058,-1.0291 C 34.9632,44.1797 35.010133,43.235858 35,42 L 34.989145,40.676068 30.007502,40.92174 30,42 c -0.0086,1.23587 0.0368,2.1797 0.0695,2.774 z"
     clip-rule="evenodd"
     id="path6"
     sodipodi:nodetypes="ccsccscsscccsscsccscccsscsccsc"
     style="fill:#adafaa;fill-opacity:1" />
  <path
     fill="#adafaa"
     fill-rule="evenodd"
     d="M 45.8031,30.7753 C 45.6742,30.3229 45.2437,30.0954 44.774,30.0695 44.1797,30.0368 43.2359,30 42,30 c -0.335662,0 -0.695403,0.0027 -1.064292,0.0073 l -0.26023,4.981811 C 41.134946,34.995865 41.585806,35 42,35 c 1.2359,0 2.1797,-0.0368 2.774,-0.0695 0.4697,-0.0258 0.9002,-0.2533 1.0291,-0.7058 C 45.9081,33.8561 46,33.3039 46,32.5 46,31.6961 45.9081,31.1439 45.8031,30.7753 Z M 44.774,26.4305 c 0.4697,-0.0259 0.9002,-0.2534 1.0291,-0.7058 C 45.9081,25.3561 46,24.8039 46,24 46,23.1961 45.9081,22.6439 45.8031,22.2753 45.6742,21.8228 45.2437,21.5953 44.774,21.5695 44.1797,21.5368 43.2359,21.5 42,21.5 c -0.331118,0 -0.685668,0.0026 -1.049316,0.0071 l 0.02912,4.986076 C 41.333255,26.497497 41.677726,26.5 42,26.5 c 1.2359,0 2.1797,-0.0368 2.774,-0.0695 z m 0,-8.5 c 0.4697,-0.0259 0.9002,-0.2534 1.0291,-0.7058 C 45.9081,16.8561 46,16.3039 46,15.5 46,14.6961 45.9081,14.1439 45.8031,13.7753 45.6742,13.3228 45.2437,13.0953 44.774,13.0695 44.1797,13.0368 43.2359,13 42,13 c -0.422888,0 -0.883998,0.0043 -1.353467,0.01129 l 0.246304,4.980839 C 41.276715,17.99707 41.651348,18 42,18 c 1.2359,0 2.1797,-0.0368 2.774,-0.0695 z"
     clip-rule="evenodd"
     id="path8"
     sodipodi:nodetypes="ccsccscsscccsscsccscccsscsccsc"
     style="fill:#adafaa;fill-opacity:1" />
  <path
     id="path10"
     style="fill:#606668;fill-opacity:1"
     d="m 24,7.0001221 c -5.37689,0 -9.296026,0.1820055 -11.93042,0.3735351 C 9.5125752,7.5595568 7.5595568,9.5125752 7.3736572,12.06958 7.1821276,14.703974 7.0001221,18.62311 7.0001221,24 c 0,5.37689 0.1820055,9.296126 0.3735351,11.93042 0.1858996,2.556994 2.138918,4.510023 4.6959228,4.695923 2.634394,0.1915 6.55353,0.373535 11.93042,0.373535 5.37689,0 9.296026,-0.182035 11.93042,-0.373535 2.556994,-0.1859 4.510023,-2.138929 4.695923,-4.695923 0.1915,-2.634394 0.373535,-6.55353 0.373535,-11.93042 0,-5.37689 -0.182035,-9.296126 -0.373535,-11.93042 C 40.440443,9.5125652 38.487414,7.5595668 35.93042,7.3736572 33.296026,7.1821376 29.37689,7.0001221 24,7.0001221 Z"
     sodipodi:nodetypes="sccsccsccsccs" />
  <circle
     style="fill:#ffffff;fill-opacity:1;stroke:none;stroke-width:5.49007"
     id="path4732"
     cx="12"
     cy="13"
     r="2.8125" />
  <path
     id="rect346"
     style="fill:#ffffff;stroke-width:3.75;stroke-linejoin:round;fill-opacity:1"
     d="m 16.715698,15.470215 c -2.491214,0.263028 -3.92567,4.902888 -5.320678,9.031128 -0.003,0.02216 -0.01484,0.04315 -0.02344,0.06519 -0.507387,1.499227 -1.009796,2.933477 -1.557861,4.052857 -0.116813,0.240703 -0.443571,0.779557 -0.239868,0.784057 2.582315,0.05686 5.3215,0.104094 7.789306,0.05566 1.17239,-0.02358 2.423252,0.16741 2.708496,-0.522949 0.06735,-0.272614 -0.128499,-0.632253 -0.395508,-1.002319 -0.07652,-0.10626 -0.147668,-0.197439 -0.239868,-0.305054 -0.19584,-0.231668 -0.350167,-0.384089 -0.575317,-0.599121 -0.116789,-0.114503 -0.220339,-0.24482 -0.335816,-0.348633 l -0.08313,-0.02234 c -0.252115,-0.220605 -0.557777,-0.524048 -0.707154,-0.6427 -3.85653,-3.066835 -2.557399,-7.410788 0.83899,-8.148559 h 19.029785 c 0.27972,0 0.0015,-0.311268 0.563232,-1.459717 0.12329,-0.251412 0.46226,-0.937134 0.275391,-0.937134 z m 15.650391,5.53418 c -0.323407,0.01211 -0.487559,0.790106 -0.63501,1.252807 l -1.126465,2.995972 -2.22876,5.980591 c -0.186434,0.417687 -0.674788,1.248973 -0.287475,1.253173 h 2.240845 c 0.249074,-0.01291 0.777256,-0.264442 1.317993,-0.653686 0.540701,-0.389282 1.096318,-0.918593 1.390137,-1.48169 l 2.229125,-6.013549 0.850709,-2.298706 c 0.167198,-0.458901 0.279716,-1.034546 0,-1.034546 z m -13.792969,0.09851 c -0.46628,0 -0.710567,0.595916 0,1.459717 1.212538,1.566102 4.190584,3.646882 4.32605,5.741089 -0.02951,0.83526 -0.161569,1.741917 -0.587402,2.451416 -0.71191,1.185851 -1.948622,1.829956 -1.77356,1.829956 h 3.726929 c 0.373103,0 0.697269,0.113527 0.970459,-0.620728 l 3.739013,-9.837524 c 0.171327,-0.394669 0.330248,-1.023926 0.144287,-1.023926 z" />
</svg>
