<?xml version="1.0" encoding="UTF-8" standalone="no"?>
<svg
   fill="none"
   viewBox="0 0 48 48"
   height="256"
   width="256"
   version="1.1"
   id="svg8"
   sodipodi:docname="name_purple.svg"
   inkscape:version="1.2.1 (9c6d41e410, 2022-07-14)"
   xmlns:inkscape="http://www.inkscape.org/namespaces/inkscape"
   xmlns:sodipodi="http://sodipodi.sourceforge.net/DTD/sodipodi-0.dtd"
   xmlns="http://www.w3.org/2000/svg"
   xmlns:svg="http://www.w3.org/2000/svg">
  <defs
     id="defs12" />
  <sodipodi:namedview
     id="namedview10"
     pagecolor="#ffffff"
     bordercolor="#666666"
     borderopacity="1.0"
     inkscape:showpageshadow="2"
     inkscape:pageopacity="0.0"
     inkscape:pagecheckerboard="0"
     inkscape:deskcolor="#d1d1d1"
     showgrid="false"
     inkscape:zoom="1.5164126"
     inkscape:cx="-32.972556"
     inkscape:cy="95.290688"
     inkscape:current-layer="svg8" />
  <path
     id="rect2513"
     style="fill:#c8a8c5;fill-opacity:1;stroke-width:0.375;stroke-linecap:round;stroke-linejoin:round"
     d="m 24,6 c 7.694592,0 13.067382,0.124846 16.517578,0.2497559 2.889697,0.1046099 5.158639,2.3373153 5.272339,5.2265621 0.1104,2.805098 0.210205,6.896388 0.210205,12.523682 0,5.627294 -0.0998,9.718584 -0.210205,12.523682 -0.1137,2.889297 -2.382642,5.121862 -5.272339,5.226562 C 37.067382,41.875144 31.694592,42 24,42 16.305408,42 10.932658,41.875144 7.4824219,41.750244 4.5927948,41.645544 2.3237829,39.412879 2.210083,36.523682 2.0997031,33.718584 1.9998779,29.627294 1.9998779,24 c 0,-5.627294 0.099825,-9.718584 0.2102051,-12.523682 C 2.3237829,8.5870712 4.5927848,6.3543658 7.4824219,6.2497559 10.932648,6.124846 16.305408,6 24,6 Z"
     sodipodi:nodetypes="sscsccsccsccs" />
  <path
     id="rect239"
     style="fill:#805887;fill-opacity:1;stroke-width:0.375;stroke-linecap:round;stroke-linejoin:round"
     d="m 15.999756,13.999878 c 3.313694,0 6,2.686306 6,6 0,2.405096 -1.415134,4.479968 -3.45813,5.436768 2.727894,0.967298 4.800737,3.448548 5.327637,6.501342 0.1544,0.894198 -0.487807,1.669295 -1.389405,1.772095 -1.228996,0.1403 -3.288608,0.290039 -6.480102,0.290039 -3.191594,0 -5.251441,-0.149739 -6.4804689,-0.290039 -0.9015982,-0.1028 -1.5433877,-0.877897 -1.3890381,-1.772095 0.526939,-3.052794 2.599641,-5.534044 5.327637,-6.501342 -2.042996,-0.9568 -3.4581301,-3.031672 -3.4581301,-5.436768 0,-3.313694 2.6862061,-6 6.0000001,-6 z M 34.000122,15 c 2.322498,0 3.775398,0.03422 4.636597,0.06702 0.681099,0.026 1.257317,0.445602 1.325317,1.123901 0.0229,0.2284 0.03809,0.49676 0.03809,0.80896 0,0.3122 -0.01519,0.580926 -0.03809,0.809326 -0.068,0.678299 -0.644218,1.097901 -1.325317,1.123901 -0.861199,0.0328 -2.314099,0.06702 -4.636597,0.06702 -2.322498,0 -3.775764,-0.03422 -4.636963,-0.06702 -0.681099,-0.026 -1.257317,-0.445602 -1.325317,-1.123901 -0.0229,-0.2284 -0.03772,-0.497126 -0.03772,-0.809326 0,-0.3122 0.01482,-0.58056 0.03772,-0.80896 0.068,-0.678299 0.644218,-1.097901 1.325317,-1.123901 C 30.224358,15.034217 31.677624,15 34.000122,15 Z m 0,7.000122 c 2.322498,0 3.775398,0.03385 4.636597,0.06665 0.681099,0.026 1.257317,0.445603 1.325317,1.123902 0.0229,0.2284 0.03809,0.497126 0.03809,0.809326 0,0.3122 -0.01519,0.580926 -0.03809,0.809326 -0.068,0.678299 -0.644218,1.097902 -1.325317,1.123902 -0.861199,0.0328 -2.314099,0.06665 -4.636597,0.06665 -2.322498,0 -3.775764,-0.03385 -4.636963,-0.06665 -0.681099,-0.026 -1.257317,-0.445603 -1.325317,-1.123902 -0.0229,-0.2284 -0.03772,-0.497126 -0.03772,-0.809326 0,-0.3122 0.01482,-0.580926 0.03772,-0.809326 0.068,-0.678299 0.644218,-1.097902 1.325317,-1.123902 0.861199,-0.0328 2.314465,-0.06665 4.636963,-0.06665 z m 0,6.999756 c 2.322498,0 3.775398,0.03422 4.636597,0.06702 0.681099,0.026 1.257317,0.445602 1.325317,1.123901 0.0229,0.2284 0.03809,0.497126 0.03809,0.809326 0,0.3122 -0.01519,0.58056 -0.03809,0.80896 -0.068,0.678299 -0.644218,1.097901 -1.325317,1.123901 C 37.77552,32.965783 36.32262,33 34.000122,33 c -2.322498,0 -3.775764,-0.03422 -4.636963,-0.06702 -0.681099,-0.026 -1.257317,-0.445602 -1.325317,-1.123901 -0.0229,-0.2284 -0.03772,-0.49676 -0.03772,-0.80896 0,-0.3122 0.01482,-0.580926 0.03772,-0.809326 0.068,-0.678299 0.644218,-1.097901 1.325317,-1.123901 0.861199,-0.0328 2.314465,-0.06702 4.636963,-0.06702 z"
     sodipodi:nodetypes="sscccscccssscssscscssccsscssscscssccsscssscscssscs" />
</svg>
