<?xml version="1.0" encoding="UTF-8" standalone="no"?>
<svg
   fill="none"
   viewBox="0 0 48 48"
   height="256"
   width="256"
   version="1.1"
   id="svg15156"
   sodipodi:docname="log_out.svg"
   inkscape:version="1.2.1 (9c6d41e410, 2022-07-14)"
   xmlns:inkscape="http://www.inkscape.org/namespaces/inkscape"
   xmlns:sodipodi="http://sodipodi.sourceforge.net/DTD/sodipodi-0.dtd"
   xmlns="http://www.w3.org/2000/svg"
   xmlns:svg="http://www.w3.org/2000/svg">
  <defs
     id="defs15160" />
  <sodipodi:namedview
     id="namedview15158"
     pagecolor="#ffffff"
     bordercolor="#111111"
     borderopacity="1"
     inkscape:showpageshadow="0"
     inkscape:pageopacity="0"
     inkscape:pagecheckerboard="1"
     inkscape:deskcolor="#d1d1d1"
     showgrid="false"
     inkscape:zoom="2.1445312"
     inkscape:cx="152.48087"
     inkscape:cy="131.73042"
     inkscape:window-width="1920"
     inkscape:window-height="730"
     inkscape:window-x="-6"
     inkscape:window-y="-6"
     inkscape:window-maximized="1"
     inkscape:current-layer="svg15156" />
  <path
     fill="#606668"
     d="M41.3498 45.5434C43.7362 45.2914 45.4244 43.3855 45.5725 40.9904C45.7757 37.7035 46 32.2155 46 24C46 15.7845 45.7757 10.2965 45.5725 7.00957C45.4244 4.61447 43.7362 2.70857 41.3498 2.45658C39.0852 2.21745 35.7264 2 31 2C26.2736 2 22.9149 2.21745 20.6502 2.45658C18.2638 2.70857 16.5756 4.61448 16.4275 7.00958C16.2243 10.2965 16 15.7845 16 24C16 32.2155 16.2243 37.7035 16.4275 40.9904C16.5756 43.3855 18.2638 45.2914 20.6502 45.5434C22.9148 45.7826 26.2736 46 31 46C35.7264 46 39.0852 45.7826 41.3498 45.5434Z"
     id="path15152"
     style="fill:#606668;fill-opacity:1" />
  <path
     fill="#adafaa"
     fill-rule="evenodd"
     d="M33 20C36.3137 20 39 17.3137 39 14C39 10.6863 36.3137 8 33 8C29.6863 8 27 10.6863 27 14C27 17.3137 29.6863 20 33 20ZM28.3815 35.7547C28.3619 37.2841 28.2733 41.2539 27.8742 45.9661C26.0536 45.9253 24.4906 45.8506 23.1611 45.7593V37.7685C23.1611 37.5386 23.0827 37.3166 22.9307 37.144C22.4373 36.5841 21.1787 35.2349 19.4194 33.9149C19.4194 33.9149 17.3219 35.764 14.8124 37.4042C14.2035 37.8021 13.4882 37.9962 12.7609 37.9837C11.0404 37.954 7.49034 37.8526 3.3208 37.5058C2.68467 37.4529 2.15575 36.9972 2.0812 36.3633C2.00582 35.7224 1.95582 34.8465 2.05655 33.9034C2.12971 33.2185 2.74154 32.7492 3.43035 32.7492H11.0514C11.3645 32.7492 11.6577 32.605 11.8485 32.3567C12.851 31.0521 16.2655 26.66 20.5807 21.672L19.6621 20.7497C19.5048 20.5918 19.2997 20.4906 19.0783 20.4644C15.8244 20.079 12.2105 19.968 10.398 19.9361C9.7093 19.9239 9.11125 19.4519 9.03694 18.7671C8.96612 18.1145 8.92621 17.2448 9.03522 16.3162C9.11012 15.6781 9.6528 15.2243 10.294 15.1845C12.3123 15.0595 16.8901 14.8507 21.4083 15.1652C22.1743 15.2185 22.906 15.5067 23.497 15.9969C27.3556 19.1971 29.9707 22.5587 30.7724 23.6439C30.9414 23.8727 31.1936 24.0248 31.4761 24.0574C34.7862 24.4403 38.6762 24.5464 40.5773 24.5758C41.2639 24.5864 41.8575 25.0554 41.9316 25.7381C42.0022 26.3871 42.0414 27.2542 41.9317 28.1895C41.8566 28.8296 41.3126 29.2862 40.6693 29.3264C38.7 29.4495 34.3338 29.6521 30.2409 29.3598C29.4116 29.3005 28.6315 28.957 28.0057 28.4097L26.9678 27.5019L25.2259 29.251C25.2259 29.251 26.786 30.8174 28.1564 34.4446C28.3145 34.863 28.3873 35.3074 28.3815 35.7547Z"
     clip-rule="evenodd"
     id="path15154"
     style="fill:#adafaa;fill-opacity:1" />
</svg>
