<?xml version="1.0" encoding="UTF-8" standalone="no"?>
<svg
   fill="none"
   viewBox="0 0 48 48"
   height="256"
   width="256"
   version="1.1"
   id="svg139"
   sodipodi:docname="disabled_hover.svg"
   inkscape:version="1.2.1 (9c6d41e410, 2022-07-14)"
   xmlns:inkscape="http://www.inkscape.org/namespaces/inkscape"
   xmlns:sodipodi="http://sodipodi.sourceforge.net/DTD/sodipodi-0.dtd"
   xmlns="http://www.w3.org/2000/svg"
   xmlns:svg="http://www.w3.org/2000/svg">
  <defs
     id="defs143" />
  <sodipodi:namedview
     id="namedview141"
     pagecolor="#ffffff"
     bordercolor="#666666"
     borderopacity="1.0"
     inkscape:showpageshadow="2"
     inkscape:pageopacity="0.0"
     inkscape:pagecheckerboard="0"
     inkscape:deskcolor="#d1d1d1"
     showgrid="false"
     inkscape:zoom="0.8095703"
     inkscape:cx="-167.99035"
     inkscape:cy="54.967431"
     inkscape:current-layer="svg139" />
  <g
     id="g4034"
     transform="matrix(1.0909091,0,0,1.0909091,-2.1818183,-2.1818183)">
    <path
       fill="#ef2929"
       d="M 45.4187,7.30406 C 45.2065,4.74913 43.2509,2.79349 40.6959,2.58134 37.3286,2.30173 31.8713,2 24,2 16.1288,1.99999 10.6714,2.30173 7.30407,2.58133 4.74914,2.79348 2.79349,4.74912 2.58135,7.30405 2.30174,10.6714 2,16.1287 2,24 c 0,7.8712 0.30174,13.3286 0.58134,16.6959 0.21215,2.555 2.16779,4.5106 4.72272,4.7228 C 10.6714,45.6983 16.1287,46 24,46 c 7.8712,0 13.3286,-0.3017 16.6959,-0.5813 2.555,-0.2122 4.5106,-2.1678 4.7228,-4.7228 C 45.6983,37.3286 46,31.8712 46,24 46,16.1288 45.6983,10.6714 45.4187,7.30406 Z"
       id="path135"
       style="fill:#ef2929;fill-opacity:1" />
    <path
       fill="#a40000"
       fill-rule="evenodd"
       d="m 34.606602,37.663001 c -0.81989,0.610869 -1.876944,0.439113 -2.631003,-0.251447 -0.85171,-0.779869 -5.953627,-5.80061 -7.975599,-7.78157 -2.021972,1.98096 -7.123889,7.001701 -7.975599,7.78157 -0.754059,0.69056 -1.811113,0.862316 -2.631003,0.251447 -0.450286,-0.335593 -0.998364,-0.797405 -1.628679,-1.42772 -0.630315,-0.630315 -1.092127,-1.178393 -1.42772,-1.628679 -0.6108693,-0.81989 -0.4391133,-1.876944 0.251447,-2.631003 0.779869,-0.85171 5.80061,-5.953627 7.78157,-7.975599 -1.98096,-2.021972 -7.001701,-7.123889 -7.78157,-7.975599 -0.6905603,-0.754059 -0.8623163,-1.811113 -0.251447,-2.631003 0.335593,-0.450286 0.797405,-0.998364 1.42772,-1.628679 0.630315,-0.630315 1.178393,-1.092127 1.628679,-1.42772 0.81989,-0.610869 1.876944,-0.439113 2.631003,0.251447 0.85171,0.779869 5.953627,5.80061 7.975599,7.78157 2.021972,-1.98096 7.123889,-7.001701 7.975599,-7.78157 0.754059,-0.69056 1.811113,-0.862316 2.631003,-0.251447 0.450286,0.335593 0.998364,0.797405 1.628679,1.42772 0.630315,0.630315 1.092127,1.178393 1.42772,1.628679 0.610869,0.81989 0.439113,1.876944 -0.251447,2.631003 -0.779869,0.85171 -5.80061,5.953627 -7.78157,7.975599 1.98096,2.021972 7.001701,7.123889 7.78157,7.975599 0.69056,0.754059 0.862316,1.811113 0.251447,2.631003 -0.335593,0.450286 -0.797405,0.998364 -1.42772,1.628679 -0.630315,0.630315 -1.178393,1.092127 -1.628679,1.42772 z"
       clip-rule="evenodd"
       id="path132"
       sodipodi:nodetypes="cccccscccccscccccscccccsc"
       style="fill:#a40000;fill-opacity:1" />
  </g>
</svg>
