<?xml version="1.0" encoding="UTF-8" standalone="no"?>
<svg
   fill="none"
   viewBox="0 0 48 48"
   height="256"
   width="256"
   version="1.1"
   id="svg1106"
   sodipodi:docname="grey_pressed.svg"
   inkscape:version="1.2.1 (9c6d41e410, 2022-07-14)"
   xmlns:inkscape="http://www.inkscape.org/namespaces/inkscape"
   xmlns:sodipodi="http://sodipodi.sourceforge.net/DTD/sodipodi-0.dtd"
   xmlns="http://www.w3.org/2000/svg"
   xmlns:svg="http://www.w3.org/2000/svg">
  <defs
     id="defs1110" />
  <sodipodi:namedview
     id="namedview1108"
     pagecolor="#ffffff"
     bordercolor="#666666"
     borderopacity="1.0"
     inkscape:showpageshadow="2"
     inkscape:pageopacity="0.0"
     inkscape:pagecheckerboard="0"
     inkscape:deskcolor="#d1d1d1"
     showgrid="false"
     inkscape:zoom="1.6191406"
     inkscape:cx="129.69843"
     inkscape:cy="105.92039"
     inkscape:current-layer="svg1106" />
  <path
     fill="#babdb6"
     d="M 43.27683,8.973654 C 43.08585,6.674217 41.32581,4.914141 39.02631,4.723206 35.99574,4.471557 31.08417,4.2 24,4.2 16.91592,4.199991 12.00426,4.471557 8.973663,4.723197 6.674226,4.914132 4.914141,6.674208 4.723215,8.973645 4.471566,12.00426 4.2,16.91583 4.2,24 c 0,7.08408 0.271566,11.99574 0.523206,15.02631 0.190935,2.2995 1.951011,4.05954 4.250448,4.25052 C 12.00426,43.52847 16.91583,43.8 24,43.8 c 7.08408,0 11.99574,-0.27153 15.02631,-0.52317 2.2995,-0.19098 4.05954,-1.95102 4.25052,-4.25052 C 43.52847,35.99574 43.8,31.08408 43.8,24 43.8,16.91592 43.52847,12.00426 43.27683,8.973654 Z"
     id="path1102"
     style="fill:#babdb6;fill-opacity:1;stroke-width:0.9" />
</svg>
