<?xml version="1.0" encoding="UTF-8" standalone="no"?>
<svg
   fill="none"
   viewBox="0 0 48 48"
   height="256"
   width="256"
   version="1.1"
   id="svg856"
   sodipodi:docname="question_hover.svg"
   inkscape:version="1.2.1 (9c6d41e410, 2022-07-14)"
   xmlns:inkscape="http://www.inkscape.org/namespaces/inkscape"
   xmlns:sodipodi="http://sodipodi.sourceforge.net/DTD/sodipodi-0.dtd"
   xmlns="http://www.w3.org/2000/svg"
   xmlns:svg="http://www.w3.org/2000/svg">
  <defs
     id="defs860" />
  <sodipodi:namedview
     id="namedview858"
     pagecolor="#ffffff"
     bordercolor="#666666"
     borderopacity="1.0"
     inkscape:showpageshadow="2"
     inkscape:pageopacity="0.0"
     inkscape:pagecheckerboard="0"
     inkscape:deskcolor="#d1d1d1"
     showgrid="false"
     inkscape:zoom="1.6191406"
     inkscape:cx="81.52473"
     inkscape:cy="95.42099"
     inkscape:current-layer="svg856" />
  <g
     id="g290"
     transform="matrix(1.0909091,0,0,1.0909091,-2.1818183,-2.1818183)">
    <path
       fill="#babdb6"
       d="M 45.4187,7.30406 C 45.2065,4.74913 43.2509,2.79349 40.6959,2.58134 37.3286,2.30173 31.8713,2 24,2 16.1288,1.99999 10.6714,2.30173 7.30407,2.58133 4.74914,2.79348 2.79349,4.74912 2.58135,7.30405 2.30174,10.6714 2,16.1287 2,24 c 0,7.8712 0.30174,13.3286 0.58134,16.6959 0.21215,2.555 2.16779,4.5106 4.72272,4.7228 C 10.6714,45.6983 16.1287,46 24,46 c 7.8712,0 13.3286,-0.3017 16.6959,-0.5813 2.555,-0.2122 4.5106,-2.1678 4.7228,-4.7228 C 45.6983,37.3286 46,31.8712 46,24 46,16.1288 45.6983,10.6714 45.4187,7.30406 Z"
       id="path852"
       style="fill:#babdb6;fill-opacity:1" />
    <path
       fill="#2e3436"
       fill-rule="evenodd"
       d="m 19.84872,22.798221 c -0.3629,0.3337 -0.5375,0.7855 -0.5236,1.3554 h -0.0015 v 3.032 c 0,0.8285 0.6715,1.5 1.5,1.5 h 2.5295 c 0.8284,0 1.5,-0.6715 1.5,-1.5 v -0.9668 l 0.2639,-0.1231 c 1.1816,-0.5585 2.2295,-1.1384 3.1437,-1.7395 0.9142,-0.6011 1.6554,-1.2551 2.2236,-1.962 0.5918,-0.7094 1.008,-1.4953 1.2487,-2.3577 0.2618,-0.8886 0.331,-1.8995 0.2077,-3.0329 -0.2516,-2.314 -1.1839,-4.0762 -2.7968,-5.2865 -1.5892,-1.2128 -3.777,-1.6678 -6.5632,-1.3648 -0.9681,0.1053 -1.8669,0.2986 -2.6964,0.58 -0.8321,0.2577 -1.5476,0.5983 -2.1466,1.0218 -0.5991,0.4236 -1.0592,0.9156 -1.3805,1.4761 -0.2977,0.558 -0.4093,1.1794 -0.3348,1.8642 0.0708,0.6512 0.3256,1.2089 0.7271,1.6518 0.5419,0.5977 1.4497,0.3927 2.1062,-0.0764 0.3003,-0.2146 0.6101,-0.4103 0.9295,-0.587 0.6961,-0.4102 1.5281,-0.6679 2.4962,-0.7732 1.0626,-0.1156 1.8464,0.062 2.3515,0.5327 0.5288,0.4681 0.8265,1.0091 0.8933,1.623 0.0744,0.6848 -0.0751,1.2864 -0.4488,1.8049 -0.3762,0.4948 -0.9044,0.9106 -1.5845,1.2474 l -2.0404,1.0103 c -0.6565,0.3342 -1.1911,0.691 -1.6038,1.0703 z m -1.2441,11.5914 c 0,-0.9976 0.2969,-1.8051 0.8907,-2.4227 0.6175,-0.6175 1.4607,-0.9263 2.5295,-0.9263 1.0688,0 1.9001,0.3088 2.4939,0.9263 0.6175,0.6176 0.9263,1.4251 0.9263,2.4227 0,0.9975 -0.3088,1.8051 -0.9263,2.4226 -0.5938,0.6176 -1.4251,0.9263 -2.4939,0.9263 -1.0688,0 -1.912,-0.3087 -2.5295,-0.9263 -0.5938,-0.6175 -0.8907,-1.4251 -0.8907,-2.4226 z"
       clip-rule="evenodd"
       id="path727"
       style="fill:#2e3436;fill-opacity:1" />
  </g>
</svg>
