<?xml version="1.0" encoding="UTF-8" standalone="no"?>
<svg
   fill="none"
   viewBox="0 0 48 48"
   height="256"
   width="256"
   version="1.1"
   id="svg4"
   sodipodi:docname="blinky.svg"
   inkscape:version="1.2.1 (9c6d41e410, 2022-07-14)"
   xmlns:inkscape="http://www.inkscape.org/namespaces/inkscape"
   xmlns:sodipodi="http://sodipodi.sourceforge.net/DTD/sodipodi-0.dtd"
   xmlns="http://www.w3.org/2000/svg"
   xmlns:svg="http://www.w3.org/2000/svg">
  <defs
     id="defs8" />
  <sodipodi:namedview
     id="namedview6"
     pagecolor="#ffffff"
     bordercolor="#666666"
     borderopacity="1.0"
     inkscape:showpageshadow="2"
     inkscape:pageopacity="0.0"
     inkscape:pagecheckerboard="0"
     inkscape:deskcolor="#d1d1d1"
     showgrid="false"
     inkscape:zoom="1.6191406"
     inkscape:cx="-12.352232"
     inkscape:cy="75.039808"
     inkscape:current-layer="svg4"
     inkscape:window-width="1920"
     inkscape:window-height="730"
     inkscape:window-x="-6"
     inkscape:window-y="-6"
     inkscape:window-maximized="1" />
  <g
     id="g420"
     transform="translate(-0.01313677,8.0918623e-4)">
    <path
       id="rect1000"
       style="fill:#c4a000;fill-opacity:1;stroke:none;stroke-width:1.875;stroke-linecap:round;stroke-linejoin:round"
       d="m 12.343971,3.0007324 c 2.507019,-0.061095 4.436114,1.7034371 5.857339,3.5707449 1.142473,1.4940795 2.669874,2.9893596 4.724546,2.7504221 5.308782,0.019899 10.619992,-0.040227 15.927223,0.030838 3.453102,0.2377351 6.129723,3.5918776 5.799922,7.0026016 0.154289,7.955692 1.354809,15.941093 0.572035,23.867899 -0.28069,2.224189 -2.409492,3.60353 -4.523902,3.690298 C 32.01167,45.233521 23.167397,45.164803 14.410226,44.721982 11.205709,44.438919 7.9145712,44.326543 4.8336547,43.355887 2.6425963,42.406847 2.0950006,39.776581 1.7963826,37.704162 1.1812877,33.435381 0.82913981,19.377731 1.1892114,9.5423031 1.2159688,7.5429127 1.6581588,5.1646379 3.710313,4.276029 6.4718661,3.3942769 9.46293,3.2269325 12.343971,3.0007324 Z"
       sodipodi:nodetypes="sccsscscssccs" />
    <path
       id="rect340"
       style="fill:#edd400;stroke:none;stroke-width:1.81991;stroke-linecap:round;stroke-linejoin:round;fill-opacity:1"
       d="m 4.6232226,17.808772 c -1.1026373,2.920798 -1.1425825,6.122094 -1.4897937,9.19791 -0.3944953,5.799423 -0.8042805,8.268341 -0.2768033,14.070466 0.2086006,2.459599 3.0698504,2.816429 5.0246685,3.062032 5.3934279,0.677629 10.9427739,0.997576 16.5523349,1.004406 6.094161,-0.0035 13.097269,0.142029 18.405568,-1.374046 2.034766,-0.772836 2.375442,-2.456245 2.864354,-5.279734 C 46.957097,31.250529 47.621463,27.28499 48,19.950859 c -0.06043,-3.191891 -1.967002,-5.196822 -6.326369,-5.188153 -10.612002,0 -22.18749,0.02573 -31.216416,0.02573 -2.8483303,-0.02573 -5.1562873,1.374416 -5.8339924,3.020336 z"
       sodipodi:nodetypes="cccsccscccc" />
  </g>
  <path
     id="path2-6"
     style="fill:#c4a000;fill-opacity:1;stroke-width:1.16463"
     d="m 23.581647,15.626233 c -0.03109,2.23e-4 -0.06231,0.0016 -0.09358,0.004 -0.100221,0.0081 -0.200454,0.02795 -0.29815,0.05926 -0.61769,0.197454 -1.003019,0.797484 -0.860765,1.340382 l 0.515643,1.965621 c 0.142477,0.542824 0.758611,0.822902 1.376353,0.625647 0.617691,-0.197453 1.003018,-0.797484 0.860767,-1.340381 l -0.51559,-1.966019 c -0.108967,-0.41526 -0.503075,-0.690812 -0.984682,-0.68858 z m 8.140568,0 c -0.481011,-0.0022 -0.948828,0.273323 -1.168868,0.688581 l -1.043707,1.966028 c -0.287499,0.542781 -0.06289,1.142761 0.501782,1.340382 0.565544,0.19887 1.258547,-0.08152 1.546381,-0.625648 l 1.041426,-1.965621 c 0.287471,-0.542898 0.06264,-1.142928 -0.502226,-1.340381 -0.08932,-0.0313 -0.184227,-0.05122 -0.282301,-0.05926 -0.0306,-0.0025 -0.06145,-0.0039 -0.0925,-0.004 z m -13.925956,4.306793 c -0.02842,2.23e-4 -0.05694,0.0016 -0.08552,0.0038 -0.410029,0.03242 -0.796633,0.261106 -1.014119,0.599902 -0.33636,0.523603 -0.173099,1.146274 0.364636,1.390646 l 1.947081,0.884733 c 0.537642,0.244507 1.246172,0.01816 1.582392,-0.505504 0.336362,-0.523604 0.173089,-1.146273 -0.364636,-1.390645 l -1.947084,-0.8848 c -0.146276,-0.06648 -0.311285,-0.09997 -0.482759,-0.09808 z m 18.55932,0 c -0.170961,-0.0019 -0.344936,0.0316 -0.508993,0.09808 l -2.183741,0.884732 c -0.603098,0.244371 -0.932922,0.867043 -0.73662,1.390647 0.196312,0.522274 0.842371,0.748362 1.444503,0.505504 l 2.186413,-0.884738 c 0.603098,-0.244372 0.93292,-0.867045 0.736619,-1.390648 -0.09421,-0.251384 -0.299572,-0.445863 -0.570905,-0.540647 -0.08951,-0.0312 -0.184576,-0.05103 -0.282802,-0.05885 -0.02797,-0.0023 -0.05615,-0.0038 -0.08447,-0.004 z m -9.410911,0.718412 c -2.513997,0 -5.246961,1.901874 -5.664199,5.021527 l -0.627061,4.688474 c -0.140511,0.05041 -0.272225,0.105457 -0.394711,0.165503 -0.395405,0.193834 -0.748765,0.486319 -0.80145,0.880239 -0.05269,0.393922 0.222656,0.684774 0.566214,0.878604 0.343559,0.19383 0.798064,0.332769 1.341091,0.446657 1.086052,0.227782 2.520196,0.337957 3.971668,0.337957 1.451474,0 2.915089,-0.110176 4.062068,-0.337957 0.573489,-0.113888 1.067388,-0.252827 1.462794,-0.446657 0.395404,-0.19383 0.748546,-0.484682 0.801231,-0.878604 0.05269,-0.393921 -0.222438,-0.686406 -0.565995,-0.880239 -0.133355,-0.07524 -0.284187,-0.142225 -0.450072,-0.202691 l 0.622087,-4.651286 c 0.417289,-3.120036 -1.809666,-5.021527 -4.323665,-5.021527 z m -10.939779,5.163737 c -0.629349,0 -1.202181,0.468378 -1.279455,1.04615 -0.07727,0.577773 0.37027,1.046153 0.999619,1.046153 h 2.279074 c 0.629348,0 1.202181,-0.46838 1.279455,-1.046153 0.07727,-0.577772 -0.370271,-1.04615 -0.999619,-1.04615 z m 18.289571,0 c -0.629349,0 -1.202181,0.468378 -1.279455,1.04615 -0.07727,0.577773 0.37027,1.046153 0.999619,1.046153 h 2.279074 c 0.629348,0 1.202181,-0.46838 1.279455,-1.046153 0.07727,-0.577772 -0.370271,-1.04615 -0.999619,-1.04615 z m -14.89318,6.010467 -0.234088,1.75026 c -0.05269,0.393922 0.222711,0.684364 0.566268,0.878195 0.306455,0.172895 0.700839,0.303957 1.167791,0.411103 l -0.305031,2.280694 h -0.135318 c -0.209527,8.07e-4 -0.400173,0.156324 -0.426764,0.348582 l -0.46845,3.502561 c -0.02625,0.193106 0.122958,0.350224 0.333194,0.351034 H 20.0342 l -0.329954,2.467037 c -0.02625,0.193106 0.122517,0.350222 0.332749,0.351034 h 1.141764 c 0.21045,-8.12e-4 0.401693,-0.157928 0.427092,-0.351034 l 0.329954,-2.467037 h 0.123302 c 0.211217,3.92e-4 0.403803,-0.157074 0.429317,-0.351034 l 0.46845,-3.502561 c 0.02494,-0.193106 -0.12535,-0.348975 -0.335747,-0.348582 h -0.249275 l 0.269451,-2.014659 c 0.755125,0.07232 1.576852,0.107476 2.404471,0.107476 0.693302,0 1.388941,-0.02469 2.051876,-0.07519 l -0.265133,1.982377 h -0.13532 c -0.209527,8.07e-4 -0.399727,0.156325 -0.426319,0.348581 l -0.46845,3.502561 c -0.02625,0.193109 0.122513,0.350225 0.332749,0.351035 h 0.13532 l -0.338282,2.469489 c -0.02484,0.192258 0.12421,0.347775 0.333521,0.348581 h 1.141763 c 0.209526,-8.06e-4 0.399727,-0.156323 0.426317,-0.348581 l 0.338282,-2.469489 h 0.123746 c 0.21122,3.95e-4 0.403359,-0.157075 0.428873,-0.351035 l 0.46845,-3.502559 c 0.02494,-0.193104 -0.124903,-0.348974 -0.335303,-0.348582 h -0.249273 l 0.294811,-2.204273 c 0.06898,-0.01248 0.137221,-0.02513 0.204113,-0.03842 0.573489,-0.113891 1.067716,-0.255279 1.46312,-0.449109 0.395406,-0.193832 0.748491,-0.484273 0.801176,-0.878195 L 31.6059,31.825637 c -0.05269,0.393922 -0.405771,0.684366 -0.801175,0.878196 -0.395405,0.193831 -0.889359,0.333178 -1.462847,0.447066 -1.14698,0.22778 -2.610544,0.337548 -4.062015,0.337548 -1.451471,0 -2.885672,-0.109772 -3.971723,-0.337548 -0.543027,-0.113891 -0.997032,-0.253237 -1.340591,-0.447069 -0.343557,-0.193829 -0.618953,-0.484274 -0.566268,-0.878196 z"
     sodipodi:nodetypes="ccccccccccccccccccccccccccccccccccccccccsscssssssssscsssssssssssssssscssccccccccccccccccccscccccccccccccccccccsscssssscc" />
</svg>
