<?xml version="1.0" encoding="UTF-8" standalone="no"?>
<svg
   fill="none"
   viewBox="0 0 48 48"
   height="256"
   width="256"
   version="1.1"
   id="svg4"
   sodipodi:docname="build.svg"
   inkscape:version="1.2.1 (9c6d41e410, 2022-07-14)"
   xmlns:inkscape="http://www.inkscape.org/namespaces/inkscape"
   xmlns:sodipodi="http://sodipodi.sourceforge.net/DTD/sodipodi-0.dtd"
   xmlns="http://www.w3.org/2000/svg"
   xmlns:svg="http://www.w3.org/2000/svg">
  <defs
     id="defs8" />
  <sodipodi:namedview
     id="namedview6"
     pagecolor="#ffffff"
     bordercolor="#666666"
     borderopacity="1.0"
     inkscape:showpageshadow="2"
     inkscape:pageopacity="0.0"
     inkscape:pagecheckerboard="0"
     inkscape:deskcolor="#d1d1d1"
     showgrid="false"
     inkscape:zoom="0.57245265"
     inkscape:cx="71.621644"
     inkscape:cy="133.63551"
     inkscape:current-layer="svg4"
     inkscape:window-width="958"
     inkscape:window-height="722"
     inkscape:window-x="954"
     inkscape:window-y="0"
     inkscape:window-maximized="0" />
  <g
     id="g420"
     transform="translate(-0.01313677,8.0918623e-4)">
    <path
       id="rect1000"
       style="fill:#c4a000;fill-opacity:1;stroke:none;stroke-width:1.875;stroke-linecap:round;stroke-linejoin:round"
       d="m 12.343971,3.0007324 c 2.507019,-0.061095 4.436114,1.7034371 5.857339,3.5707449 1.142473,1.4940795 2.669874,2.9893596 4.724546,2.7504221 5.308782,0.019899 10.619992,-0.040227 15.927223,0.030838 3.453102,0.2377351 6.129723,3.5918776 5.799922,7.0026016 0.154289,7.955692 1.354809,15.941093 0.572035,23.867899 -0.28069,2.224189 -2.409492,3.60353 -4.523902,3.690298 C 32.01167,45.233521 23.167397,45.164803 14.410226,44.721982 11.205709,44.438919 7.9145712,44.326543 4.8336547,43.355887 2.6425963,42.406847 2.0950006,39.776581 1.7963826,37.704162 1.1812877,33.435381 0.82913981,19.377731 1.1892114,9.5423031 1.2159688,7.5429127 1.6581588,5.1646379 3.710313,4.276029 6.4718661,3.3942769 9.46293,3.2269325 12.343971,3.0007324 Z"
       sodipodi:nodetypes="sccsscscssccs" />
    <path
       id="rect340"
       style="fill:#edd400;stroke:none;stroke-width:1.81991;stroke-linecap:round;stroke-linejoin:round;fill-opacity:1"
       d="m 4.6232226,17.808772 c -1.1026373,2.920798 -1.1425825,6.122094 -1.4897937,9.19791 -0.3944953,5.799423 -0.8042805,8.268341 -0.2768033,14.070466 0.2086006,2.459599 3.0698504,2.816429 5.0246685,3.062032 5.3934279,0.677629 10.9427739,0.997576 16.5523349,1.004406 6.094161,-0.0035 13.097269,0.142029 18.405568,-1.374046 2.034766,-0.772836 2.375442,-2.456245 2.864354,-5.279734 C 46.957097,31.250529 47.621463,27.28499 48,19.950859 c -0.06043,-3.191891 -1.967002,-5.196822 -6.326369,-5.188153 -10.612002,0 -22.18749,0.02573 -31.216416,0.02573 -2.8483303,-0.02573 -5.1562873,1.374416 -5.8339924,3.020336 z"
       sodipodi:nodetypes="cccsccscccc" />
  </g>
  <g
     id="g441"
     transform="matrix(0.61977982,-0.04310775,-0.05256532,0.64488971,-9.3241778,9.1881028)"
     style="stroke-width:1.58625">
    <path
       id="rect288"
       style="fill:#8f5902;fill-opacity:1;stroke:none;stroke-width:2.97422;stroke-linecap:round;stroke-linejoin:round"
       d="m 55.365768,30.127844 c 0.902936,-0.04007 1.831447,0.392048 2.556518,1.053222 10.083417,9.194041 17.260865,15.569737 20.60669,18.521118 1.359352,1.199212 2.266157,2.949324 1.482788,4.583863 -0.351353,0.733062 -0.892176,1.55428 -1.723022,2.385132 -0.830848,0.83085 -1.652075,1.371667 -2.385132,1.723022 -1.63453,0.783374 -3.384775,-0.123428 -4.583863,-1.482788 C 68.368264,53.56557 61.992491,46.387579 52.798263,36.303991 51.836796,35.249454 51.359545,33.764789 52.11528,32.554357 c 0.235258,-0.376746 0.533525,-0.769729 0.910034,-1.14624 0.376626,-0.376629 0.769377,-0.674656 1.14624,-0.910034 0.378332,-0.236242 0.783788,-0.352027 1.194214,-0.370239 z"
       sodipodi:nodetypes="scccsccccscs" />
    <path
       id="rect1000-8"
       style="fill:#2e3436;fill-opacity:1;stroke:none;stroke-width:2.97422;stroke-linecap:round;stroke-linejoin:round"
       d="m 59.433551,15.119071 c 0.964769,0.105061 1.884194,0.540049 2.626343,1.302433 0.941888,0.967687 2.164473,2.328136 3.695022,4.222311 1.530549,1.894174 2.599658,3.370144 3.342377,4.487451 1.170341,1.760557 0.850862,3.863144 -0.72448,5.317108 -1.731482,1.598167 -4.644975,4.073956 -9.438502,7.673814 -4.793629,3.599728 -7.996323,5.717196 -10.027413,6.944575 -1.847843,1.116719 -4.040749,0.900808 -5.525044,-0.623982 -0.942015,-0.967665 -2.164843,-2.328166 -3.695391,-4.222354 -1.530548,-1.894184 -2.599648,-3.370234 -3.342377,-4.487451 -1.170367,-1.760559 -0.850743,-3.863245 0.724478,-5.317107 1.731484,-1.598166 4.644867,-4.074062 9.438502,-7.673815 4.793521,-3.599799 7.996695,-5.717151 10.027784,-6.944531 0.923855,-0.558325 1.933928,-0.783455 2.898701,-0.678452 z"
       sodipodi:nodetypes="scscccccsccccs" />
  </g>
</svg>
