<?xml version="1.0" encoding="UTF-8" standalone="no"?>
<svg
   fill="none"
   viewBox="0 0 48 48"
   height="256"
   width="256"
   version="1.1"
   id="svg4"
   sodipodi:docname="chip.svg"
   inkscape:version="1.2.1 (9c6d41e410, 2022-07-14)"
   xmlns:inkscape="http://www.inkscape.org/namespaces/inkscape"
   xmlns:sodipodi="http://sodipodi.sourceforge.net/DTD/sodipodi-0.dtd"
   xmlns="http://www.w3.org/2000/svg"
   xmlns:svg="http://www.w3.org/2000/svg">
  <defs
     id="defs8" />
  <sodipodi:namedview
     id="namedview6"
     pagecolor="#ffffff"
     bordercolor="#666666"
     borderopacity="1.0"
     inkscape:showpageshadow="2"
     inkscape:pageopacity="0.0"
     inkscape:pagecheckerboard="0"
     inkscape:deskcolor="#d1d1d1"
     showgrid="false"
     inkscape:zoom="1.1449053"
     inkscape:cx="-50.659212"
     inkscape:cy="77.29897"
     inkscape:current-layer="svg4"
     inkscape:window-width="1920"
     inkscape:window-height="730"
     inkscape:window-x="-6"
     inkscape:window-y="-6"
     inkscape:window-maximized="1" />
  <g
     id="g420"
     transform="translate(-0.01313677,8.0918623e-4)">
    <path
       id="rect1000"
       style="fill:#c4a000;fill-opacity:1;stroke:none;stroke-width:1.875;stroke-linecap:round;stroke-linejoin:round"
       d="m 12.343971,3.0007324 c 2.507019,-0.061095 4.436114,1.7034371 5.857339,3.5707449 1.142473,1.4940795 2.669874,2.9893596 4.724546,2.7504221 5.308782,0.019899 10.619992,-0.040227 15.927223,0.030838 3.453102,0.2377351 6.129723,3.5918776 5.799922,7.0026016 0.154289,7.955692 1.354809,15.941093 0.572035,23.867899 -0.28069,2.224189 -2.409492,3.60353 -4.523902,3.690298 C 32.01167,45.233521 23.167397,45.164803 14.410226,44.721982 11.205709,44.438919 7.9145712,44.326543 4.8336547,43.355887 2.6425963,42.406847 2.0950006,39.776581 1.7963826,37.704162 1.1812877,33.435381 0.82913981,19.377731 1.1892114,9.5423031 1.2159688,7.5429127 1.6581588,5.1646379 3.710313,4.276029 6.4718661,3.3942769 9.46293,3.2269325 12.343971,3.0007324 Z"
       sodipodi:nodetypes="sccsscscssccs" />
    <path
       id="rect340"
       style="fill:#edd400;stroke:none;stroke-width:1.81991;stroke-linecap:round;stroke-linejoin:round;fill-opacity:1"
       d="m 4.6232226,17.808772 c -1.1026373,2.920798 -1.1425825,6.122094 -1.4897937,9.19791 -0.3944953,5.799423 -0.8042805,8.268341 -0.2768033,14.070466 0.2086006,2.459599 3.0698504,2.816429 5.0246685,3.062032 5.3934279,0.677629 10.9427739,0.997576 16.5523349,1.004406 6.094161,-0.0035 13.097269,0.142029 18.405568,-1.374046 2.034766,-0.772836 2.375442,-2.456245 2.864354,-5.279734 C 46.957097,31.250529 47.621463,27.28499 48,19.950859 c -0.06043,-3.191891 -1.967002,-5.196822 -6.326369,-5.188153 -10.612002,0 -22.18749,0.02573 -31.216416,0.02573 -2.8483303,-0.02573 -5.1562873,1.374416 -5.8339924,3.020336 z"
       sodipodi:nodetypes="cccsccscccc" />
  </g>
  <path
     id="path2-4"
     style="fill:#2e3436;fill-opacity:1;stroke-width:0.629917"
     d="m 21.955622,16.846289 c -0.49824,0 -0.855643,0.04967 -1.104689,0.108696 -0.333529,0.07906 -0.527248,0.364501 -0.578828,0.67243 -0.09636,0.575207 -0.259025,1.569885 -0.382024,2.430807 -0.215224,0.01262 -0.42392,0.02525 -0.618117,0.03814 -1.692629,0.112428 -3.131266,1.293514 -3.459224,2.839935 -0.03762,0.177414 -0.07671,0.367922 -0.116607,0.564747 -0.934998,0.0077 -2.017836,0.03582 -2.644279,0.05401 -0.335354,0.0097 -0.664096,0.152917 -0.78952,0.45065 -0.09365,0.222314 -0.190283,0.545999 -0.25146,1.005269 -0.06118,0.459267 -0.05073,0.782614 -0.01631,1.004932 0.0461,0.29779 0.336665,0.44125 0.669419,0.450987 0.589217,0.01726 1.585202,0.04311 2.482166,0.05232 -0.107605,0.652049 -0.217567,1.359095 -0.328745,2.124299 -0.887488,0.0096 -1.866562,0.03504 -2.450285,0.05199 -0.335354,0.0097 -0.664141,0.153255 -0.789565,0.450987 -0.09365,0.222316 -0.190238,0.545662 -0.251415,1.004932 -0.06118,0.459267 -0.05077,0.782952 -0.01635,1.005269 0.0461,0.297792 0.33671,0.440913 0.669464,0.45065 0.5792,0.01696 1.551503,0.04236 2.436435,0.05199 -0.09272,0.765165 -0.171083,1.472271 -0.237185,2.124299 -0.899419,0.0092 -1.902338,0.03541 -2.496151,0.05266 -0.335348,0.0097 -0.664126,0.153195 -0.789565,0.450986 -0.09365,0.222316 -0.190239,0.545664 -0.251415,1.004932 -0.06118,0.459268 -0.05073,0.782617 -0.01631,1.004932 0.0461,0.297732 0.336657,0.44125 0.669418,0.450987 0.621597,0.0182 1.696978,0.04601 2.629936,0.05367 -0.01253,0.196835 -0.02425,0.387666 -0.03389,0.565084 -0.08402,1.546416 1.039965,2.727509 2.702642,2.839936 0.192132,0.01299 0.398769,0.02578 0.612305,0.03848 -0.0409,0.274761 -0.07953,0.544477 -0.112533,0.792266 -0.09956,0.747444 -0.15128,1.318279 -0.177696,1.677699 -0.02091,0.284065 0.09347,0.544514 0.379974,0.622471 0.233381,0.0635 0.588327,0.118822 1.115764,0.118822 0.527439,0 0.897123,-0.05532 1.14742,-0.118822 0.307203,-0.07796 0.490975,-0.338406 0.545807,-0.622471 0.06933,-0.35942 0.169693,-0.930255 0.269256,-1.677699 0.0275,-0.206485 0.05516,-0.42911 0.08231,-0.656227 0.705349,0.01915 1.471054,0.03367 2.300775,0.0422 -0.03107,0.212235 -0.06081,0.42045 -0.08659,0.614031 -0.09956,0.747444 -0.151641,1.318279 -0.178067,1.677699 -0.02085,0.284064 0.09391,0.544514 0.380342,0.62247 0.233378,0.0635 0.58796,0.118823 1.115397,0.118823 0.527439,0 0.897123,-0.05532 1.14742,-0.118823 0.307269,-0.07795 0.491407,-0.338406 0.546172,-0.62247 0.06933,-0.35942 0.169324,-0.930255 0.268887,-1.677699 0.02579,-0.193581 0.05152,-0.401796 0.07699,-0.614031 0.832,-0.0086 1.601569,-0.02305 2.312018,-0.0422 -0.03335,0.227117 -0.06501,0.449742 -0.09251,0.656227 -0.09956,0.747444 -0.15127,1.318279 -0.177696,1.677699 -0.02085,0.284065 0.09354,0.544514 0.379975,0.622471 0.233381,0.0635 0.588325,0.118822 1.115764,0.118822 0.527437,0 0.897124,-0.05532 1.147419,-0.118822 0.307269,-0.07796 0.491041,-0.338406 0.545807,-0.622471 0.06933,-0.35942 0.169693,-0.930255 0.269256,-1.677699 0.03301,-0.247789 0.06633,-0.517505 0.09853,-0.792266 0.216922,-0.0127 0.426966,-0.0255 0.622558,-0.03848 1.692619,-0.112427 3.131266,-1.29352 3.459224,-2.839936 0.03789,-0.178698 0.07735,-0.370741 0.117561,-0.569135 0.297547,0.004 0.589821,0.0065 0.858638,0.0065 0.810872,0 1.433136,-0.02242 1.825689,-0.0422 0.31025,-0.01561 0.611105,-0.15302 0.732129,-0.426683 0.09858,-0.222921 0.203087,-0.556895 0.267848,-1.043076 0.06476,-0.48618 0.04923,-0.820158 0.01004,-1.043076 -0.04812,-0.273602 -0.312328,-0.411356 -0.618413,-0.42702 -0.387284,-0.01977 -1.00362,-0.04186 -1.814492,-0.04186 -0.224008,0 -0.465771,0.0018 -0.71254,0.0047 0.107685,-0.652497 0.217699,-1.360159 0.32897,-2.125986 0.229902,0.0026 0.455541,0.0044 0.665549,0.0044 0.810872,0 1.43309,-0.02208 1.825643,-0.04186 0.310257,-0.01566 0.611158,-0.15342 0.732174,-0.42702 0.09858,-0.222921 0.203087,-0.556898 0.267848,-1.043077 0.06476,-0.48618 0.04923,-0.820155 0.01004,-1.043076 -0.04812,-0.273662 -0.312365,-0.411079 -0.618457,-0.426682 -0.387283,-0.01978 -1.003575,-0.0422 -1.814447,-0.0422 -0.210008,0 -0.436139,0.0018 -0.666728,0.0044 0.09269,-0.765653 0.171227,-1.473275 0.237365,-2.125648 0.246008,0.0029 0.48728,0.0047 0.711288,0.0047 0.810872,0 1.433136,-0.02242 1.825689,-0.0422 0.310257,-0.01566 0.611113,-0.153081 0.732129,-0.426681 0.09858,-0.222921 0.203087,-0.556898 0.267848,-1.043077 0.06476,-0.486182 0.04923,-0.820156 0.01004,-1.043077 -0.04812,-0.273662 -0.31232,-0.411417 -0.618412,-0.42702 -0.387284,-0.01977 -1.003621,-0.04186 -1.814493,-0.04186 -0.268817,0 -0.561741,0.0024 -0.860356,0.0065 0.01265,-0.198505 0.02435,-0.390349 0.03406,-0.569135 0.08402,-1.546427 -1.039976,-2.727502 -2.702642,-2.839935 -0.190763,-0.0129 -0.396092,-0.02553 -0.607956,-0.03814 0.106378,-0.860922 0.208693,-1.8556 0.265563,-2.430807 0.03046,-0.307929 -0.08722,-0.593373 -0.399687,-0.67243 -0.233319,-0.05903 -0.577491,-0.108696 -1.075731,-0.108696 -0.498242,0 -0.855645,0.04967 -1.104689,0.108696 -0.333595,0.07906 -0.527248,0.364506 -0.578828,0.67243 -0.09135,0.545282 -0.242107,1.466454 -0.362387,2.294431 -0.70494,-0.01913 -1.470164,-0.03367 -2.29931,-0.0422 0.09838,-0.816886 0.190972,-1.716255 0.243977,-2.252235 0.03046,-0.307929 -0.08722,-0.593373 -0.399688,-0.672429 -0.233318,-0.05903 -0.577489,-0.108696 -1.075731,-0.108696 -0.49824,0 -0.85601,0.04967 -1.105055,0.108696 -0.333593,0.07906 -0.52725,0.364506 -0.578827,0.672429 -0.0898,0.536004 -0.236789,1.435308 -0.356037,2.252235 -0.831412,0.0085 -1.600518,0.02307 -2.310552,0.0422 0.10029,-0.827977 0.194943,-1.749149 0.248867,-2.294431 0.03046,-0.307924 -0.08715,-0.593368 -0.399688,-0.67243 -0.233318,-0.05903 -0.577489,-0.108696 -1.075731,-0.108696 z m -2.956101,4.951744 a 1.6424041,1.9110476 63.077783 0 1 1.618758,1.700992 1.6424041,1.9110476 63.077783 0 1 -2.071916,1.700991 1.6424041,1.9110476 63.077783 0 1 -1.618391,-1.700991 1.6424041,1.9110476 63.077783 0 1 2.071549,-1.700992 z" />
</svg>
