<?xml version="1.0" encoding="UTF-8" standalone="no"?>
<svg
   fill="none"
   viewBox="0 0 48 48"
   height="256"
   width="256"
   version="1.1"
   id="svg4"
   sodipodi:docname="magnifier.svg"
   inkscape:version="1.2.1 (9c6d41e410, 2022-07-14)"
   xmlns:inkscape="http://www.inkscape.org/namespaces/inkscape"
   xmlns:sodipodi="http://sodipodi.sourceforge.net/DTD/sodipodi-0.dtd"
   xmlns="http://www.w3.org/2000/svg"
   xmlns:svg="http://www.w3.org/2000/svg">
  <defs
     id="defs8" />
  <sodipodi:namedview
     id="namedview6"
     pagecolor="#ffffff"
     bordercolor="#666666"
     borderopacity="1.0"
     inkscape:showpageshadow="2"
     inkscape:pageopacity="0.0"
     inkscape:pagecheckerboard="0"
     inkscape:deskcolor="#d1d1d1"
     showgrid="false"
     inkscape:zoom="1.6191406"
     inkscape:cx="24.086852"
     inkscape:cy="112.71412"
     inkscape:current-layer="svg4"
     inkscape:window-width="1920"
     inkscape:window-height="730"
     inkscape:window-x="-6"
     inkscape:window-y="-6"
     inkscape:window-maximized="1" />
  <g
     id="g420"
     transform="translate(-0.01313677,8.0918623e-4)">
    <path
       id="rect1000"
       style="fill:#c4a000;fill-opacity:1;stroke:none;stroke-width:1.875;stroke-linecap:round;stroke-linejoin:round"
       d="m 12.343971,3.0007324 c 2.507019,-0.061095 4.436114,1.7034371 5.857339,3.5707449 1.142473,1.4940795 2.669874,2.9893596 4.724546,2.7504221 5.308782,0.019899 10.619992,-0.040227 15.927223,0.030838 3.453102,0.2377351 6.129723,3.5918776 5.799922,7.0026016 0.154289,7.955692 1.354809,15.941093 0.572035,23.867899 -0.28069,2.224189 -2.409492,3.60353 -4.523902,3.690298 C 32.01167,45.233521 23.167397,45.164803 14.410226,44.721982 11.205709,44.438919 7.9145712,44.326543 4.8336547,43.355887 2.6425963,42.406847 2.0950006,39.776581 1.7963826,37.704162 1.1812877,33.435381 0.82913981,19.377731 1.1892114,9.5423031 1.2159688,7.5429127 1.6581588,5.1646379 3.710313,4.276029 6.4718661,3.3942769 9.46293,3.2269325 12.343971,3.0007324 Z"
       sodipodi:nodetypes="sccsscscssccs" />
    <path
       id="rect340"
       style="fill:#edd400;stroke:none;stroke-width:1.81991;stroke-linecap:round;stroke-linejoin:round;fill-opacity:1"
       d="m 4.6232226,17.808772 c -1.1026373,2.920798 -1.1425825,6.122094 -1.4897937,9.19791 -0.3944953,5.799423 -0.8042805,8.268341 -0.2768033,14.070466 0.2086006,2.459599 3.0698504,2.816429 5.0246685,3.062032 5.3934279,0.677629 10.9427739,0.997576 16.5523349,1.004406 6.094161,-0.0035 13.097269,0.142029 18.405568,-1.374046 2.034766,-0.772836 2.375442,-2.456245 2.864354,-5.279734 C 46.957097,31.250529 47.621463,27.28499 48,19.950859 c -0.06043,-3.191891 -1.967002,-5.196822 -6.326369,-5.188153 -10.612002,0 -22.18749,0.02573 -31.216416,0.02573 -2.8483303,-0.02573 -5.1562873,1.374416 -5.8339924,3.020336 z"
       sodipodi:nodetypes="cccsccscccc" />
  </g>
  <path
     fill="#204a87"
     fill-rule="evenodd"
     d="m 29.737551,39.246343 c -2.181317,1.12375 -4.670137,1.774073 -7.240934,1.774073 -7.247083,0 -12.400651,-5.167893 -11.510821,-11.542817 0.88983,-6.374926 7.486096,-11.542817 14.733179,-11.542817 7.247084,0 12.400651,5.167891 11.510821,11.542817 -0.316331,2.266259 -1.353805,4.379922 -2.885326,6.163171 0.05504,0.04462 0.110106,0.08923 0.165101,0.133782 v 0 c 1.071901,0.868423 2.127414,1.723573 3.15362,2.67447 1.009527,0.935488 0.953658,2.351041 -0.262832,3.34153 -0.172553,0.140535 -0.360549,0.290649 -0.565234,0.450805 -0.204752,0.160157 -0.396201,0.306809 -0.574979,0.441167 -1.260115,0.946741 -2.854718,0.82231 -3.780283,-0.178856 -0.940843,-1.017673 -1.770686,-2.04937 -2.613378,-3.097111 -0.04295,-0.05333 -0.08594,-0.106772 -0.128934,-0.160214 z m 3.555645,-9.768744 c -0.622882,4.462453 -5.24026,8.079972 -10.313225,8.079972 -5.072965,0 -8.680457,-3.617519 -8.057575,-8.079972 0.622882,-4.462454 5.24026,-8.079972 10.313225,-8.079972 5.072965,0 8.680457,3.617518 8.057575,8.079972 z"
     clip-rule="evenodd"
     id="path1157"
     style="stroke-width:0.615355" />
</svg>
