<?xml version="1.0" encoding="UTF-8" standalone="no"?>
<svg
   fill="none"
   viewBox="0 0 48 48"
   height="256"
   width="256"
   version="1.1"
   id="svg4"
   sodipodi:docname="root.svg"
   inkscape:version="1.2.1 (9c6d41e410, 2022-07-14)"
   xmlns:inkscape="http://www.inkscape.org/namespaces/inkscape"
   xmlns:sodipodi="http://sodipodi.sourceforge.net/DTD/sodipodi-0.dtd"
   xmlns="http://www.w3.org/2000/svg"
   xmlns:svg="http://www.w3.org/2000/svg">
  <defs
     id="defs8" />
  <sodipodi:namedview
     id="namedview6"
     pagecolor="#ffffff"
     bordercolor="#666666"
     borderopacity="1.0"
     inkscape:showpageshadow="2"
     inkscape:pageopacity="0.0"
     inkscape:pagecheckerboard="0"
     inkscape:deskcolor="#d1d1d1"
     showgrid="false"
     inkscape:zoom="1"
     inkscape:cx="78.999998"
     inkscape:cy="76.499998"
     inkscape:current-layer="svg4"
     inkscape:window-width="1920"
     inkscape:window-height="730"
     inkscape:window-x="-6"
     inkscape:window-y="-6"
     inkscape:window-maximized="1" />
  <path
     id="rect1000"
     style="fill:#c4a000;fill-opacity:1;stroke:none;stroke-width:1.875;stroke-linecap:round;stroke-linejoin:round"
     d="m 12.330834,3.0015416 c 2.507019,-0.061095 4.436114,1.7034371 5.857339,3.5707449 1.142473,1.4940795 2.669874,2.9893596 4.724546,2.7504221 5.308782,0.019899 10.619992,-0.040227 15.927223,0.030838 3.453102,0.2377351 6.129723,3.5918774 5.799922,7.0026014 0.154289,7.955692 1.354809,15.941093 0.572035,23.867899 -0.28069,2.224189 -2.409492,3.60353 -4.523902,3.690298 C 31.998533,45.23433 23.15426,45.165612 14.397089,44.722791 11.192572,44.439728 7.9014344,44.327352 4.8205179,43.356696 2.6294595,42.407656 2.0818638,39.77739 1.7832458,37.704971 1.1681509,33.43619 0.81600304,19.37854 1.1760746,9.5431123 1.202832,7.5437219 1.645022,5.1654471 3.6971762,4.2768382 6.4587293,3.3950861 9.4497932,3.2277417 12.330834,3.0015416 Z"
     sodipodi:nodetypes="sccsscscssccs" />
  <path
     id="rect340"
     style="fill:#edd400;stroke:none;stroke-width:1.81991;stroke-linecap:round;stroke-linejoin:round;fill-opacity:1"
     d="m 4.6100858,17.809581 c -1.1026373,2.920798 -1.1425825,6.122094 -1.4897937,9.19791 -0.3944953,5.799423 -0.8042805,8.268341 -0.2768033,14.070466 0.2086006,2.459599 3.0698504,2.816429 5.0246685,3.062032 5.3934277,0.677629 10.9427737,0.997576 16.5523347,1.004406 6.094161,-0.0035 13.097269,0.142029 18.405568,-1.374046 2.034766,-0.772836 2.375442,-2.456245 2.864354,-5.279734 1.253546,-7.239277 1.917912,-11.204816 2.296449,-18.538947 -0.06043,-3.191891 -1.967002,-5.196822 -6.326369,-5.188153 -10.612002,0 -22.18749,0.02573 -31.216416,0.02573 -2.8483301,-0.02573 -5.1562871,1.374416 -5.8339922,3.020336 z"
     sodipodi:nodetypes="cccsccscccc" />
  <g
     id="g1679"
     transform="translate(-49.606298)">
    <path
       id="path346"
       style="color:#000000;fill:#4e9a06;fill-opacity:1;stroke-width:0.942905;stroke-linecap:round;stroke-linejoin:round"
       d="m 82.162508,16.820969 c -0.849724,0.0093 -1.773841,0.386999 -2.277232,1.159743 -0.503389,0.772742 -0.610462,1.816501 -0.297904,3.21778 5.83e-4,5.93e-4 9.92e-4,9.78e-4 0.0016,0.0016 0.346257,1.511584 0.811318,2.309933 0.952124,2.89317 0.123594,0.511934 0.06411,0.934881 -0.463462,1.834116 l 1.576951,1.692177 c 0.84208,-0.05067 1.254359,0.06632 1.670313,0.330325 0.536282,0.340371 1.165402,1.036333 2.557819,1.899802 5.83e-4,5.94e-4 0.0014,9.78e-4 0.002,0.0016 1.493476,0.915582 2.736739,1.180715 3.779609,0.859551 1.042869,-0.321165 1.638972,-1.216257 1.812035,-2.102969 0.173059,-0.886713 0.0039,-1.84345 -0.482039,-2.632375 -0.320312,-0.520021 -0.853407,-0.895771 -1.479078,-1.156486 0.499139,-0.451168 0.878648,-0.947191 0.988533,-1.472632 0.168178,-0.804157 -0.08619,-1.576852 -0.57518,-2.185993 -0.488991,-0.609142 -1.223968,-1.070349 -2.115779,-1.210535 -0.576919,-0.09069 -1.215909,0.03609 -1.854086,0.272843 0.03886,-0.801576 -0.175176,-1.559407 -0.720198,-2.11176 -0.781511,-0.792024 -1.918609,-1.302574 -3.075632,-1.289977 z"
       sodipodi:nodetypes="ssccsccsccssscssscsss" />
    <path
       id="path297"
       style="color:#000000;fill:#f57900;fill-opacity:1;stroke-width:0.942905;stroke-linecap:round;stroke-linejoin:round"
       d="m 80.11078,25.885946 c -1.089606,-0.780149 -2.539939,-1.214296 -4.122756,-1.212162 -0.174929,2.36e-4 -0.351431,0.0056 -0.529272,0.01661 -0.961346,0.05949 -1.961198,0.278318 -2.950113,0.675593 1.862118,0.804107 3.796592,2.474696 3.904679,4.997442 0.01177,0.289569 -0.247752,0.561655 -0.579798,0.607871 -0.331453,0.04608 -0.610082,-0.150339 -0.623059,-0.439217 -0.102552,-2.393436 -2.39059,-3.974416 -4.097293,-4.477804 -0.654887,0.386373 -1.294332,0.858721 -1.903041,1.422817 0.753088,0.237115 1.610538,0.635292 2.377324,1.202069 0.98293,0.726535 1.820741,1.747971 1.911095,3.077126 0.01959,0.288082 -0.232709,0.56453 -0.563981,0.617966 -0.33206,0.05292 -0.6171,-0.138395 -0.636441,-0.427171 -0.06648,-0.977948 -0.705489,-1.797362 -1.54842,-2.420417 -0.786382,-0.581258 -1.745898,-0.974662 -2.423779,-1.144114 -0.323263,0.354512 -0.800317,0.888299 -1.362915,1.537098 0.572241,0.131697 1.291842,0.343834 1.932842,0.782386 0.696742,0.47669 1.280665,1.239602 1.420187,2.359858 0.03637,0.285863 -0.202671,0.572192 -0.533578,0.639126 -0.329941,0.06621 -0.626043,-0.11088 -0.661998,-0.395914 -0.10931,-0.877704 -0.516938,-1.382384 -1.031905,-1.734705 -0.514962,-0.352324 -1.154342,-0.532148 -1.693376,-0.649547 -0.07772,-0.0184 -0.148235,-0.05144 -0.207059,-0.09703 -0.360746,0.425778 -0.74051,0.881289 -1.126296,1.353792 0.3491,0.04954 0.73376,0.154129 1.113823,0.3461 0.619297,0.312803 1.207997,0.871648 1.499447,1.74352 0.08962,0.270445 -0.09669,0.581219 -0.416345,0.694478 -0.319206,0.113115 -0.651034,-0.01341 -0.742053,-0.282935 -0.218157,-0.652627 -0.613476,-1.00463 -1.031442,-1.215744 -0.417963,-0.211109 -0.876548,-0.267582 -1.139565,-0.26047 -0.0341,-4.39e-4 -0.06774,-0.0035 -0.100547,-0.0091 -0.309163,0.391172 -0.616565,0.787933 -0.915369,1.184162 0.200467,0.05878 0.411884,0.140525 0.620908,0.255911 0.443993,0.245102 0.871966,0.655613 1.033813,1.267513 0.07312,0.276199 -0.130546,0.580294 -0.454881,0.679172 -0.323925,0.09905 -0.646022,-0.04403 -0.719761,-0.319728 -0.09202,-0.347889 -0.312365,-0.558705 -0.583675,-0.708478 -0.197111,-0.108812 -0.422703,-0.175035 -0.605871,-0.21098 -0.411142,0.573088 -0.792627,1.134311 -1.12415,1.664402 -0.953262,1.524244 -1.471473,2.768189 -1.564665,3.790814 -0.09319,1.022625 0.31693,1.858866 1.152382,2.262507 0.835446,0.403637 1.971075,0.410225 3.336782,0.149445 1.365715,-0.260786 2.984641,-0.803375 4.830693,-1.614914 1.870852,-0.822478 5.655805,-2.274345 9.680685,-4.504501 2.756566,-1.527442 3.948333,-3.510298 4.04573,-5.394983 0.07664,-1.482982 -0.467168,-2.889137 -1.273463,-4.082541 z"
       sodipodi:nodetypes="cscccccccssccsccscccscccscscscccscccscssssccscc" />
  </g>
</svg>
