<?xml version="1.0" encoding="UTF-8" standalone="no"?>
<svg
   fill="none"
   viewBox="0 0 48 48"
   height="256"
   width="256"
   version="1.1"
   id="svg4"
   sodipodi:docname="up.svg"
   inkscape:version="1.2.1 (9c6d41e410, 2022-07-14)"
   xmlns:inkscape="http://www.inkscape.org/namespaces/inkscape"
   xmlns:sodipodi="http://sodipodi.sourceforge.net/DTD/sodipodi-0.dtd"
   xmlns="http://www.w3.org/2000/svg"
   xmlns:svg="http://www.w3.org/2000/svg">
  <defs
     id="defs8" />
  <sodipodi:namedview
     id="namedview6"
     pagecolor="#ffffff"
     bordercolor="#666666"
     borderopacity="1.0"
     inkscape:showpageshadow="2"
     inkscape:pageopacity="0.0"
     inkscape:pagecheckerboard="0"
     inkscape:deskcolor="#d1d1d1"
     showgrid="false"
     inkscape:zoom="1.6191406"
     inkscape:cx="134.02171"
     inkscape:cy="83.068759"
     inkscape:current-layer="svg4"
     inkscape:window-width="1920"
     inkscape:window-height="730"
     inkscape:window-x="-6"
     inkscape:window-y="-6"
     inkscape:window-maximized="1" />
  <path
     id="rect1000"
     style="fill:#c4a000;fill-opacity:1;stroke:none;stroke-width:1.875;stroke-linecap:round;stroke-linejoin:round"
     d="m 12.330834,3.0015416 c 2.507019,-0.061095 4.436114,1.7034371 5.857339,3.5707449 1.142473,1.4940795 2.669874,2.9893596 4.724546,2.7504221 5.308782,0.019899 10.619992,-0.040227 15.927223,0.030838 3.453102,0.2377351 6.129723,3.5918774 5.799922,7.0026014 0.154289,7.955692 1.354809,15.941093 0.572035,23.867899 -0.28069,2.224189 -2.409492,3.60353 -4.523902,3.690298 C 31.998533,45.23433 23.15426,45.165612 14.397089,44.722791 11.192572,44.439728 7.9014344,44.327352 4.8205179,43.356696 2.6294595,42.407656 2.0818638,39.77739 1.7832458,37.704971 1.1681509,33.43619 0.81600304,19.37854 1.1760746,9.5431123 1.202832,7.5437219 1.645022,5.1654471 3.6971762,4.2768382 6.4587293,3.3950861 9.4497932,3.2277417 12.330834,3.0015416 Z"
     sodipodi:nodetypes="sccsscscssccs" />
  <path
     fill="#2e3436"
     fill-rule="evenodd"
     d="m 26.359734,7.788509 0.212625,5.518733 c 0.03794,0.984622 0.638955,1.833975 1.62162,1.906065 0.236993,0.01735 0.50382,0.02794 0.802305,0.02794 0.298553,0 0.56538,-0.0106 0.802373,-0.02794 0.982732,-0.07209 1.583752,-0.92151 1.621687,-1.906133 L 31.632969,7.788509 C 32.563727,7.767314 33.324384,7.735652 33.942752,7.699877 35.227209,7.625555 35.775782,6.4111669 34.973139,5.4056869 34.490244,4.8008194 33.860267,4.0517719 33.046217,3.1467994 31.754739,1.7111419 30.772209,0.8640169 30.098492,0.3708619 c -0.67554,-0.49443753 -1.52901,-0.49450503 -2.20455,-6.75e-5 -0.673718,0.4930875 -1.656315,1.3402125 -2.947725,2.776005 -0.813645,0.9047025 -1.44342,1.653615 -1.926248,2.258415 -0.802845,1.0056825 -0.254137,2.2204126 1.030523,2.2947301 0.6183,0.035703 1.378755,0.067365 2.309242,0.08856 z"
     clip-rule="evenodd"
     id="path1049"
     style="stroke-width:0.675;fill:#2e3436;fill-opacity:1" />
  <path
     id="rect340"
     style="fill:#edd400;fill-opacity:1;stroke:none;stroke-width:1.81991;stroke-linecap:round;stroke-linejoin:round"
     d="m 4.6100858,17.809581 c -1.1026373,2.920798 -1.1425825,6.122094 -1.4897937,9.19791 -0.3944953,5.799423 -0.8042805,8.268341 -0.2768033,14.070466 0.2086006,2.459599 3.0698504,2.816429 5.0246685,3.062032 5.3934277,0.677629 10.9427737,0.997576 16.5523347,1.004406 6.094161,-0.0035 13.097269,0.142029 18.405568,-1.374046 2.034766,-0.772836 2.375442,-2.456245 2.864354,-5.279734 1.253546,-7.239277 1.917912,-11.204816 2.296449,-18.538947 -0.06043,-3.191891 -1.967002,-5.196822 -6.326369,-5.188153 -10.612002,0 -22.18749,0.02573 -31.216416,0.02573 -2.8483301,-0.02573 -5.1562871,1.374416 -5.8339922,3.020336 z"
     sodipodi:nodetypes="cccsccscccc" />
</svg>
