<?xml version="1.0" encoding="UTF-8" standalone="no"?>
<svg
   fill="none"
   viewBox="0 0 48 48"
   height="256"
   width="256"
   version="1.1"
   id="svg4"
   sodipodi:docname="file.svg"
   inkscape:version="1.2.1 (9c6d41e410, 2022-07-14)"
   xmlns:inkscape="http://www.inkscape.org/namespaces/inkscape"
   xmlns:sodipodi="http://sodipodi.sourceforge.net/DTD/sodipodi-0.dtd"
   xmlns="http://www.w3.org/2000/svg"
   xmlns:svg="http://www.w3.org/2000/svg">
  <defs
     id="defs8" />
  <sodipodi:namedview
     id="namedview6"
     pagecolor="#ffffff"
     bordercolor="#666666"
     borderopacity="1.0"
     inkscape:showpageshadow="2"
     inkscape:pageopacity="0.0"
     inkscape:pagecheckerboard="0"
     inkscape:deskcolor="#d1d1d1"
     showgrid="false"
     inkscape:zoom="1.6191406"
     inkscape:cx="14.822678"
     inkscape:cy="159.6526"
     inkscape:current-layer="svg4"
     showguides="false"
     inkscape:window-width="1920"
     inkscape:window-height="730"
     inkscape:window-x="-6"
     inkscape:window-y="-6"
     inkscape:window-maximized="1" />
  <g
     id="g420"
     transform="translate(-0.01313677,8.0918623e-4)">
    <path
       id="rect1000"
       style="fill:#e7c323;fill-opacity:1;stroke:none;stroke-width:1.875;stroke-linecap:round;stroke-linejoin:round"
       d="m 12.343971,3.0007324 c 2.507019,-0.061095 4.436114,1.7034371 5.857339,3.5707449 1.142473,1.4940795 2.669874,2.9893596 4.724546,2.7504221 5.308782,0.019899 10.619992,-0.040227 15.927223,0.030838 3.453102,0.2377351 6.129723,3.5918776 5.799922,7.0026016 0.154289,7.955692 1.354809,15.941093 0.572035,23.867899 -0.28069,2.224189 -2.409492,3.60353 -4.523902,3.690298 C 32.01167,45.233521 23.167397,45.164803 14.410226,44.721982 11.205709,44.438919 7.9145712,44.326543 4.8336547,43.355887 2.6425963,42.406847 2.0950006,39.776581 1.7963826,37.704162 1.1812877,33.435381 0.82913981,19.377731 1.1892114,9.5423031 1.2159688,7.5429127 1.6581588,5.1646379 3.710313,4.276029 6.4718661,3.3942769 9.46293,3.2269325 12.343971,3.0007324 Z"
       sodipodi:nodetypes="sccsscscssccs" />
    <path
       id="rect340"
       style="fill:#fff01c;stroke:none;stroke-width:1.81991;stroke-linecap:round;stroke-linejoin:round;fill-opacity:1"
       d="m 4.6232226,17.808772 c -1.1026373,2.920798 -1.1425825,6.122094 -1.4897937,9.19791 -0.3944953,5.799423 -0.8042805,8.268341 -0.2768033,14.070466 0.2086006,2.459599 3.0698504,2.816429 5.0246685,3.062032 5.3934279,0.677629 10.9427739,0.997576 16.5523349,1.004406 6.094161,-0.0035 13.097269,0.142029 18.405568,-1.374046 2.034766,-0.772836 2.375442,-2.456245 2.864354,-5.279734 C 46.957097,31.250529 47.621463,27.28499 48,19.950859 c -0.06043,-3.191891 -1.967002,-5.196822 -6.326369,-5.188153 -10.612002,0 -22.18749,0.02573 -31.216416,0.02573 -2.8483303,-0.02573 -5.1562873,1.374416 -5.8339924,3.020336 z"
       sodipodi:nodetypes="cccsccscccc" />
  </g>
  <g
     id="g468"
     transform="matrix(1,0,-0.12278456,1,3.9840888,3.7666871)">
    <path
       id="rect347"
       style="fill:#edf1e9;stroke:none;stroke-width:5.25;stroke-linejoin:round;fill-opacity:1"
       d="m 24.44458,13.454956 c 1.344781,0 2.529559,0.01548 3.571655,0.04138 0,0 1.606513,0.608083 4.55896,3.531006 2.941641,2.912234 3.558379,4.505212 3.562867,4.516845 0.07168,1.387709 0.116088,3.010562 0.116088,4.901368 0,5.641594 -0.395794,8.898008 -0.729126,10.639892 -0.21417,1.119037 -1.096334,1.886069 -2.240112,2.008301 -1.543952,0.164923 -4.26829,0.342773 -8.840332,0.342773 -4.572041,0 -7.296758,-0.17785 -8.840698,-0.342773 -1.143802,-0.122232 -2.025587,-0.889264 -2.239746,-2.008301 -0.333373,-1.741884 -0.729492,-4.998298 -0.729492,-10.639892 0,-5.641596 0.396119,-8.897991 0.729492,-10.639893 0.214165,-1.119036 1.095944,-1.886111 2.239746,-2.008301 1.54394,-0.164936 4.268657,-0.342407 8.840698,-0.342407 z"
       sodipodi:nodetypes="scscsccscsssss" />
    <path
       id="rect951"
       style="fill:#606668;fill-opacity:1;stroke:none;stroke-width:5.25;stroke-linejoin:round"
       d="m 27.4834,13.946777 c 0,0 1.60651,0.608087 4.55896,3.531006 2.95245,2.922949 3.56286,4.516846 3.56286,4.516846 -1.88925,0.470441 -4.11987,0.501767 -6.0465,-0.08093 C 28.7442,21.667348 28.1091,21.039259 27.83423,20.241214 27.14938,18.253191 26.98007,15.819828 27.4834,13.94678 Z m -3.62952,10.736939 c 2.01605,-0.0041 3.27955,0.03125 4.06531,0.07288 0.75252,0.03992 1.24914,0.62819 1.24914,1.381714 v 0.604248 c 0,0.76303 -0.50725,1.359289 -1.26928,1.398559 -0.78712,0.04051 -2.04589,0.07581 -4.04517,0.07581 -1.99928,0 -3.25804,-0.0353 -4.04516,-0.07581 -0.76203,-0.03927 -1.26929,-0.635529 -1.26929,-1.398559 V 26.17786 c 0,-0.772596 0.51778,-1.376725 1.28943,-1.415405 0.78842,-0.0395 2.04286,-0.07473 4.02502,-0.07873 z m -1.77136,5.895263 c 1.06058,0 1.81242,0.024 2.34192,0.0553 0.72931,0.04299 1.20117,0.622595 1.20117,1.35315 v 0.72583 c 0,0.730611 -0.47186,1.310099 -1.20117,1.353149 -0.5295,0.03124 -1.28134,0.0553 -2.34192,0.0553 -1.06057,0 -1.81242,-0.02406 -2.34192,-0.0553 -0.72931,-0.04305 -1.20117,-0.622597 -1.20117,-1.353149 v -0.72583 c 0,-0.730555 0.47186,-1.31016 1.20117,-1.35315 0.5295,-0.0313 1.28135,-0.0553 2.34192,-0.0553 z"
       sodipodi:nodetypes="cscsccscsscscssssscssssssscs" />
  </g>
</svg>
