<?xml version="1.0" encoding="UTF-8" standalone="no"?>
<svg
   fill="none"
   viewBox="0 0 48 48"
   height="256"
   width="256"
   version="1.1"
   id="svg4"
   sodipodi:docname="folder.svg"
   inkscape:version="1.2.1 (9c6d41e410, 2022-07-14)"
   xmlns:inkscape="http://www.inkscape.org/namespaces/inkscape"
   xmlns:sodipodi="http://sodipodi.sourceforge.net/DTD/sodipodi-0.dtd"
   xmlns="http://www.w3.org/2000/svg"
   xmlns:svg="http://www.w3.org/2000/svg">
  <defs
     id="defs8" />
  <sodipodi:namedview
     id="namedview6"
     pagecolor="#ffffff"
     bordercolor="#666666"
     borderopacity="1.0"
     inkscape:showpageshadow="2"
     inkscape:pageopacity="0.0"
     inkscape:pagecheckerboard="0"
     inkscape:deskcolor="#d1d1d1"
     showgrid="false"
     inkscape:zoom="2"
     inkscape:cx="69.500001"
     inkscape:cy="87.250001"
     inkscape:current-layer="svg4"
     inkscape:window-width="1920"
     inkscape:window-height="730"
     inkscape:window-x="-6"
     inkscape:window-y="-6"
     inkscape:window-maximized="1" />
  <g
     id="g420"
     transform="translate(-0.01313677,8.0918623e-4)">
    <path
       id="rect1000"
       style="fill:#e7c323;fill-opacity:1;stroke:none;stroke-width:1.875;stroke-linecap:round;stroke-linejoin:round"
       d="m 12.343971,3.0007324 c 2.507019,-0.061095 4.436114,1.7034371 5.857339,3.5707449 1.142473,1.4940795 2.669874,2.9893596 4.724546,2.7504221 5.308782,0.019899 10.619992,-0.040227 15.927223,0.030838 3.453102,0.2377351 6.129723,3.5918776 5.799922,7.0026016 0.154289,7.955692 1.354809,15.941093 0.572035,23.867899 -0.28069,2.224189 -2.409492,3.60353 -4.523902,3.690298 C 32.01167,45.233521 23.167397,45.164803 14.410226,44.721982 11.205709,44.438919 7.9145712,44.326543 4.8336547,43.355887 2.6425963,42.406847 2.0950006,39.776581 1.7963826,37.704162 1.1812877,33.435381 0.82913981,19.377731 1.1892114,9.5423031 1.2159688,7.5429127 1.6581588,5.1646379 3.710313,4.276029 6.4718661,3.3942769 9.46293,3.2269325 12.343971,3.0007324 Z"
       sodipodi:nodetypes="sccsscscssccs" />
    <path
       id="rect340"
       style="fill:#fff01c;stroke:none;stroke-width:1.81991;stroke-linecap:round;stroke-linejoin:round;fill-opacity:1"
       d="m 4.6232226,17.808772 c -1.1026373,2.920798 -1.1425825,6.122094 -1.4897937,9.19791 -0.3944953,5.799423 -0.8042805,8.268341 -0.2768033,14.070466 0.2086006,2.459599 3.0698504,2.816429 5.0246685,3.062032 5.3934279,0.677629 10.9427739,0.997576 16.5523349,1.004406 6.094161,-0.0035 13.097269,0.142029 18.405568,-1.374046 2.034766,-0.772836 2.375442,-2.456245 2.864354,-5.279734 C 46.957097,31.250529 47.621463,27.28499 48,19.950859 c -0.06043,-3.191891 -1.967002,-5.196822 -6.326369,-5.188153 -10.612002,0 -22.18749,0.02573 -31.216416,0.02573 -2.8483303,-0.02573 -5.1562873,1.374416 -5.8339924,3.020336 z"
       sodipodi:nodetypes="cccsccscccc" />
  </g>
</svg>
