<?xml version="1.0" encoding="UTF-8" standalone="no"?>
<svg
   fill="none"
   viewBox="0 0 48 48"
   height="256"
   width="256"
   version="1.1"
   id="svg4"
   sodipodi:docname="folder_c.svg"
   inkscape:version="1.2.1 (9c6d41e410, 2022-07-14)"
   xmlns:inkscape="http://www.inkscape.org/namespaces/inkscape"
   xmlns:sodipodi="http://sodipodi.sourceforge.net/DTD/sodipodi-0.dtd"
   xmlns="http://www.w3.org/2000/svg"
   xmlns:svg="http://www.w3.org/2000/svg">
  <defs
     id="defs8" />
  <sodipodi:namedview
     id="namedview6"
     pagecolor="#ffffff"
     bordercolor="#666666"
     borderopacity="1.0"
     inkscape:showpageshadow="2"
     inkscape:pageopacity="0.0"
     inkscape:pagecheckerboard="0"
     inkscape:deskcolor="#d1d1d1"
     showgrid="false"
     inkscape:zoom="2.2898106"
     inkscape:cx="54.152951"
     inkscape:cy="117.25861"
     inkscape:current-layer="svg4"
     inkscape:window-width="1920"
     inkscape:window-height="730"
     inkscape:window-x="-6"
     inkscape:window-y="-6"
     inkscape:window-maximized="1" />
  <g
     id="g420"
     transform="translate(-0.01313677,8.0918623e-4)">
    <path
       id="rect1000"
       style="fill:#e7c323;fill-opacity:1;stroke:none;stroke-width:1.875;stroke-linecap:round;stroke-linejoin:round"
       d="m 12.343971,3.0007324 c 2.507019,-0.061095 4.436114,1.7034371 5.857339,3.5707449 1.142473,1.4940795 2.669874,2.9893596 4.724546,2.7504221 5.308782,0.019899 10.619992,-0.040227 15.927223,0.030838 3.453102,0.2377351 6.129723,3.5918776 5.799922,7.0026016 0.154289,7.955692 1.354809,15.941093 0.572035,23.867899 -0.28069,2.224189 -2.409492,3.60353 -4.523902,3.690298 C 32.01167,45.233521 23.167397,45.164803 14.410226,44.721982 11.205709,44.438919 7.9145712,44.326543 4.8336547,43.355887 2.6425963,42.406847 2.0950006,39.776581 1.7963826,37.704162 1.1812877,33.435381 0.82913981,19.377731 1.1892114,9.5423031 1.2159688,7.5429127 1.6581588,5.1646379 3.710313,4.276029 6.4718661,3.3942769 9.46293,3.2269325 12.343971,3.0007324 Z"
       sodipodi:nodetypes="sccsscscssccs" />
    <path
       id="rect340"
       style="fill:#fff01c;stroke:none;stroke-width:1.81991;stroke-linecap:round;stroke-linejoin:round;fill-opacity:1"
       d="m 4.6232226,17.808772 c -1.1026373,2.920798 -1.1425825,6.122094 -1.4897937,9.19791 -0.3944953,5.799423 -0.8042805,8.268341 -0.2768033,14.070466 0.2086006,2.459599 3.0698504,2.816429 5.0246685,3.062032 5.3934279,0.677629 10.9427739,0.997576 16.5523349,1.004406 6.094161,-0.0035 13.097269,0.142029 18.405568,-1.374046 2.034766,-0.772836 2.375442,-2.456245 2.864354,-5.279734 C 46.957097,31.250529 47.621463,27.28499 48,19.950859 c -0.06043,-3.191891 -1.967002,-5.196822 -6.326369,-5.188153 -10.612002,0 -22.18749,0.02573 -31.216416,0.02573 -2.8483303,-0.02573 -5.1562873,1.374416 -5.8339924,3.020336 z"
       sodipodi:nodetypes="cccsccscccc" />
  </g>
  <g
     aria-label=".c"
     transform="matrix(0.84520216,0,-0.14527242,1.1831489,0,0)"
     id="text2447"
     style="font-size:20.6664px;line-height:0.85;font-family:'Arial Rounded MT Bold';-inkscape-font-specification:'Arial Rounded MT Bold, Normal';word-spacing:0px;fill:#606668;stroke-width:0.140907">
    <path
       d="m 26.879138,30.897909 q -0.625643,0 -1.079738,-0.403641 -0.454096,-0.40364 -0.454096,-1.130193 0,-0.615552 0.433914,-1.059557 0.433913,-0.444005 1.069647,-0.444005 0.635734,0 1.079739,0.444005 0.454096,0.433914 0.454096,1.059557 0,0.716462 -0.454096,1.130193 -0.444005,0.403641 -1.049466,0.403641 z"
       id="path2243" />
    <path
       d="m 41.400111,27.487146 q 0,0.514641 -0.312822,1.09992 -0.30273,0.585279 -0.938464,1.120103 -0.625643,0.524733 -1.58429,0.847646 -0.958646,0.322912 -2.159477,0.322912 -2.553027,0 -3.985952,-1.483379 -1.432924,-1.493471 -1.432924,-3.996043 0,-1.69529 0.655916,-2.997031 0.655916,-1.301742 1.897111,-2.008113 1.241195,-0.716462 2.966759,-0.716462 1.069648,0 1.957657,0.312822 0.8981,0.312821 1.513652,0.807281 0.625643,0.49446 0.948556,1.059557 0.333003,0.555006 0.333003,1.039374 0,0.49446 -0.373367,0.837555 -0.363277,0.343094 -0.88801,0.343094 -0.343094,0 -0.575187,-0.171547 -0.222003,-0.181638 -0.504551,-0.575188 -0.504551,-0.766917 -1.059557,-1.150376 -0.544915,-0.383458 -1.39256,-0.383458 -1.221013,0 -1.967748,0.958646 -0.746736,0.948556 -0.746736,2.603482 0,0.777009 0.19173,1.432925 0.191729,0.645825 0.555006,1.110011 0.363276,0.454096 0.877918,0.69628 0.514642,0.232094 1.130194,0.232094 0.827463,0 1.412742,-0.383459 0.59537,-0.383458 1.049466,-1.170558 0.252275,-0.464186 0.544915,-0.726553 0.292639,-0.262366 0.716462,-0.262366 0.504551,0 0.837554,0.383458 0.333004,0.383459 0.333004,0.817373 z"
       id="path2245" />
  </g>
</svg>
