<?xml version="1.0" encoding="UTF-8" standalone="no"?>
<svg
   fill="none"
   viewBox="0 0 48 48"
   height="256"
   width="256"
   version="1.1"
   id="svg4"
   sodipodi:docname="folder_h.svg"
   inkscape:version="1.2.1 (9c6d41e410, 2022-07-14)"
   xmlns:inkscape="http://www.inkscape.org/namespaces/inkscape"
   xmlns:sodipodi="http://sodipodi.sourceforge.net/DTD/sodipodi-0.dtd"
   xmlns="http://www.w3.org/2000/svg"
   xmlns:svg="http://www.w3.org/2000/svg">
  <defs
     id="defs8" />
  <sodipodi:namedview
     id="namedview6"
     pagecolor="#ffffff"
     bordercolor="#666666"
     borderopacity="1.0"
     inkscape:showpageshadow="2"
     inkscape:pageopacity="0.0"
     inkscape:pagecheckerboard="0"
     inkscape:deskcolor="#d1d1d1"
     showgrid="false"
     inkscape:zoom="1.6191406"
     inkscape:cx="4.0144753"
     inkscape:cy="96.656214"
     inkscape:current-layer="svg4"
     inkscape:window-width="1920"
     inkscape:window-height="730"
     inkscape:window-x="-6"
     inkscape:window-y="-6"
     inkscape:window-maximized="1" />
  <g
     id="g420"
     transform="translate(-0.01313677,8.0918623e-4)">
    <path
       id="rect1000"
       style="fill:#e7c323;fill-opacity:1;stroke:none;stroke-width:1.875;stroke-linecap:round;stroke-linejoin:round"
       d="m 12.343971,3.0007324 c 2.507019,-0.061095 4.436114,1.7034371 5.857339,3.5707449 1.142473,1.4940795 2.669874,2.9893596 4.724546,2.7504221 5.308782,0.019899 10.619992,-0.040227 15.927223,0.030838 3.453102,0.2377351 6.129723,3.5918776 5.799922,7.0026016 0.154289,7.955692 1.354809,15.941093 0.572035,23.867899 -0.28069,2.224189 -2.409492,3.60353 -4.523902,3.690298 C 32.01167,45.233521 23.167397,45.164803 14.410226,44.721982 11.205709,44.438919 7.9145712,44.326543 4.8336547,43.355887 2.6425963,42.406847 2.0950006,39.776581 1.7963826,37.704162 1.1812877,33.435381 0.82913981,19.377731 1.1892114,9.5423031 1.2159688,7.5429127 1.6581588,5.1646379 3.710313,4.276029 6.4718661,3.3942769 9.46293,3.2269325 12.343971,3.0007324 Z"
       sodipodi:nodetypes="sccsscscssccs" />
    <path
       id="rect340"
       style="fill:#fff01c;stroke:none;stroke-width:1.81991;stroke-linecap:round;stroke-linejoin:round;fill-opacity:1"
       d="m 4.6232226,17.808772 c -1.1026373,2.920798 -1.1425825,6.122094 -1.4897937,9.19791 -0.3944953,5.799423 -0.8042805,8.268341 -0.2768033,14.070466 0.2086006,2.459599 3.0698504,2.816429 5.0246685,3.062032 5.3934279,0.677629 10.9427739,0.997576 16.5523349,1.004406 6.094161,-0.0035 13.097269,0.142029 18.405568,-1.374046 2.034766,-0.772836 2.375442,-2.456245 2.864354,-5.279734 C 46.957097,31.250529 47.621463,27.28499 48,19.950859 c -0.06043,-3.191891 -1.967002,-5.196822 -6.326369,-5.188153 -10.612002,0 -22.18749,0.02573 -31.216416,0.02573 -2.8483303,-0.02573 -5.1562873,1.374416 -5.8339924,3.020336 z"
       sodipodi:nodetypes="cccsccscccc" />
  </g>
  <g
     aria-label=".h"
     transform="matrix(0.84520216,0,-0.14527242,1.1831489,0,0)"
     id="text2447"
     style="font-size:20.6664px;line-height:0.85;font-family:'Arial Rounded MT Bold';-inkscape-font-specification:'Arial Rounded MT Bold, Normal';word-spacing:0px;fill:#606668;stroke-width:0.140907">
    <path
       d="m 26.937389,31.68092 q -0.625643,0 -1.079739,-0.403641 -0.454096,-0.403641 -0.454096,-1.130194 0,-0.615552 0.433914,-1.059557 0.433914,-0.444004 1.069648,-0.444004 0.635734,0 1.079739,0.444004 0.454095,0.433914 0.454095,1.059557 0,0.716462 -0.454095,1.130194 -0.444005,0.403641 -1.049466,0.403641 z"
       id="path291" />
    <path
       d="m 34.273558,18.058048 v 4.086861 q 0.524732,-0.605461 1.019192,-0.958646 0.504551,-0.353186 1.110012,-0.524733 0.605461,-0.181638 1.301741,-0.181638 1.049466,0 1.856747,0.444004 0.817372,0.444005 1.281559,1.291651 0.29264,0.494459 0.39355,1.110011 0.10091,0.605461 0.10091,1.402652 v 5.277601 q 0,0.827463 -0.383459,1.251286 -0.373367,0.423823 -0.99901,0.423823 -1.362287,0 -1.362287,-1.675109 v -4.651958 q 0,-1.321924 -0.39355,-2.028295 -0.39355,-0.716462 -1.49347,-0.716462 -0.736645,0 -1.332015,0.423823 -0.585279,0.413731 -0.877918,1.140285 -0.222002,0.615552 -0.222002,2.18975 v 3.642857 q 0,0.817372 -0.373368,1.251286 -0.363277,0.423823 -1.019193,0.423823 -1.362287,0 -1.362287,-1.675109 V 18.058048 q 0,-0.837554 0.353186,-1.251286 0.363276,-0.423823 1.009101,-0.423823 0.655916,0 1.019193,0.423823 0.373368,0.423823 0.373368,1.251286 z"
       id="path293" />
  </g>
</svg>
