<?xml version="1.0" encoding="UTF-8" standalone="no"?>
<svg
   fill="none"
   viewBox="0 0 48 48"
   height="256"
   width="256"
   version="1.1"
   id="svg4"
   sodipodi:docname="laptop.svg"
   inkscape:version="1.2.1 (9c6d41e410, 2022-07-14)"
   xmlns:inkscape="http://www.inkscape.org/namespaces/inkscape"
   xmlns:sodipodi="http://sodipodi.sourceforge.net/DTD/sodipodi-0.dtd"
   xmlns="http://www.w3.org/2000/svg"
   xmlns:svg="http://www.w3.org/2000/svg">
  <defs
     id="defs8" />
  <sodipodi:namedview
     id="namedview6"
     pagecolor="#ffffff"
     bordercolor="#666666"
     borderopacity="1.0"
     inkscape:showpageshadow="2"
     inkscape:pageopacity="0.0"
     inkscape:pagecheckerboard="0"
     inkscape:deskcolor="#d1d1d1"
     showgrid="false"
     inkscape:zoom="1.6191406"
     inkscape:cx="-0.61761159"
     inkscape:cy="134.33052"
     inkscape:current-layer="svg4"
     inkscape:window-width="1920"
     inkscape:window-height="730"
     inkscape:window-x="-6"
     inkscape:window-y="-6"
     inkscape:window-maximized="1" />
  <g
     id="g420"
     transform="translate(-0.01313677,8.0918623e-4)">
    <path
       id="rect1000"
       style="fill:#e7c323;fill-opacity:1;stroke:none;stroke-width:1.875;stroke-linecap:round;stroke-linejoin:round"
       d="m 12.343971,3.0007324 c 2.507019,-0.061095 4.436114,1.7034371 5.857339,3.5707449 1.142473,1.4940795 2.669874,2.9893596 4.724546,2.7504221 5.308782,0.019899 10.619992,-0.040227 15.927223,0.030838 3.453102,0.2377351 6.129723,3.5918776 5.799922,7.0026016 0.154289,7.955692 1.354809,15.941093 0.572035,23.867899 -0.28069,2.224189 -2.409492,3.60353 -4.523902,3.690298 C 32.01167,45.233521 23.167397,45.164803 14.410226,44.721982 11.205709,44.438919 7.9145712,44.326543 4.8336547,43.355887 2.6425963,42.406847 2.0950006,39.776581 1.7963826,37.704162 1.1812877,33.435381 0.82913981,19.377731 1.1892114,9.5423031 1.2159688,7.5429127 1.6581588,5.1646379 3.710313,4.276029 6.4718661,3.3942769 9.46293,3.2269325 12.343971,3.0007324 Z"
       sodipodi:nodetypes="sccsscscssccs" />
    <path
       id="rect340"
       style="fill:#fff01c;stroke:none;stroke-width:1.81991;stroke-linecap:round;stroke-linejoin:round;fill-opacity:1"
       d="m 4.6232226,17.808772 c -1.1026373,2.920798 -1.1425825,6.122094 -1.4897937,9.19791 -0.3944953,5.799423 -0.8042805,8.268341 -0.2768033,14.070466 0.2086006,2.459599 3.0698504,2.816429 5.0246685,3.062032 5.3934279,0.677629 10.9427739,0.997576 16.5523349,1.004406 6.094161,-0.0035 13.097269,0.142029 18.405568,-1.374046 2.034766,-0.772836 2.375442,-2.456245 2.864354,-5.279734 C 46.957097,31.250529 47.621463,27.28499 48,19.950859 c -0.06043,-3.191891 -1.967002,-5.196822 -6.326369,-5.188153 -10.612002,0 -22.18749,0.02573 -31.216416,0.02573 -2.8483303,-0.02573 -5.1562873,1.374416 -5.8339924,3.020336 z"
       sodipodi:nodetypes="cccsccscccc" />
  </g>
  <path
     id="path1002"
     style="fill:#606668;fill-opacity:1;stroke-width:0.774649"
     d="m 27.527231,16.936783 c -6.562532,0 -10.45539,0.40702 -12.59289,0.758311 -1.429401,0.23492 -2.522648,1.229014 -2.84489,2.521785 -0.415106,1.665334 -0.819033,3.176644 -1.458789,7.942169 -0.442745,3.297989 -0.575691,5.007421 -0.6831329,6.722641 h 9.8503419 c 0.572669,0 1.035618,0.335939 1.148258,0.833339 0.112722,0.497399 0.57559,0.833337 1.148259,0.833337 h 5.600098 c 0.572669,0 1.125816,-0.335938 1.372005,-0.833337 0.246188,-0.4974 0.799701,-0.833339 1.372371,-0.833339 h 9.849975 c 0.353083,-1.71522 0.67911,-3.424652 1.121855,-6.722641 0.639756,-4.765525 0.641631,-6.276835 0.673633,-7.942169 0.02483,-1.292771 -0.801529,-2.286865 -2.167806,-2.521785 -2.043209,-0.351291 -5.826756,-0.758311 -12.389288,-0.758311 z"
     sodipodi:nodetypes="scsscscsssscsscs" />
  <path
     fill="#828480"
     d="m 23.946832,43.607022 c -7.389549,0 -11.798625,-0.248626 -14.27857,-0.474286 C 7.9272436,42.97427 6.787428,41.788407 6.8370149,40.176042 6.8517233,39.697681 6.8762343,39.141236 6.914461,38.497224 6.964689,37.650888 7.8002841,36.939459 8.7278311,36.939459 H 18.771467 c 0.57267,0 1.03567,0.336045 1.148311,0.833445 v 0 c 0.112721,0.4974 0.57564,0.833445 1.14831,0.833445 h 7.100217 c 0.57267,0 1.125896,-0.336045 1.372086,-0.833445 v 0 c 0.246189,-0.4974 0.799415,-0.833445 1.372085,-0.833445 h 10.043517 c 0.927612,0 1.572202,0.711429 1.395161,1.557765 -0.134647,0.644012 -0.259578,1.200457 -0.373282,1.678818 -0.383315,1.612365 -1.841591,2.798228 -3.625101,2.956694 -2.540565,0.22566 -7.01639,0.474286 -14.405939,0.474286 z"
     id="path1005"
     style="fill:#828480;fill-opacity:1;stroke-width:0.774649" />
</svg>
