<?xml version="1.0" encoding="UTF-8" standalone="no"?>
<svg
   fill="none"
   viewBox="0 0 48 48"
   height="256"
   width="256"
   version="1.1"
   id="svg4"
   sodipodi:docname="library.svg"
   inkscape:version="1.2.1 (9c6d41e410, 2022-07-14)"
   xmlns:inkscape="http://www.inkscape.org/namespaces/inkscape"
   xmlns:sodipodi="http://sodipodi.sourceforge.net/DTD/sodipodi-0.dtd"
   xmlns="http://www.w3.org/2000/svg"
   xmlns:svg="http://www.w3.org/2000/svg">
  <defs
     id="defs8" />
  <sodipodi:namedview
     id="namedview6"
     pagecolor="#ffffff"
     bordercolor="#666666"
     borderopacity="1.0"
     inkscape:showpageshadow="2"
     inkscape:pageopacity="0.0"
     inkscape:pagecheckerboard="0"
     inkscape:deskcolor="#d1d1d1"
     showgrid="false"
     inkscape:zoom="1.4142136"
     inkscape:cx="1.4142136"
     inkscape:cy="83.792154"
     inkscape:current-layer="svg4"
     inkscape:window-width="1920"
     inkscape:window-height="730"
     inkscape:window-x="-6"
     inkscape:window-y="-6"
     inkscape:window-maximized="1" />
  <g
     id="g420"
     transform="translate(-0.01313677,8.0918623e-4)">
    <path
       id="rect1000"
       style="fill:#e7c323;fill-opacity:1;stroke:none;stroke-width:1.875;stroke-linecap:round;stroke-linejoin:round"
       d="m 12.343971,3.0007324 c 2.507019,-0.061095 4.436114,1.7034371 5.857339,3.5707449 1.142473,1.4940795 2.669874,2.9893596 4.724546,2.7504221 5.308782,0.019899 10.619992,-0.040227 15.927223,0.030838 3.453102,0.2377351 6.129723,3.5918776 5.799922,7.0026016 0.154289,7.955692 1.354809,15.941093 0.572035,23.867899 -0.28069,2.224189 -2.409492,3.60353 -4.523902,3.690298 C 32.01167,45.233521 23.167397,45.164803 14.410226,44.721982 11.205709,44.438919 7.9145712,44.326543 4.8336547,43.355887 2.6425963,42.406847 2.0950006,39.776581 1.7963826,37.704162 1.1812877,33.435381 0.82913981,19.377731 1.1892114,9.5423031 1.2159688,7.5429127 1.6581588,5.1646379 3.710313,4.276029 6.4718661,3.3942769 9.46293,3.2269325 12.343971,3.0007324 Z"
       sodipodi:nodetypes="sccsscscssccs" />
    <path
       id="rect340"
       style="fill:#fff01c;stroke:none;stroke-width:1.81991;stroke-linecap:round;stroke-linejoin:round;fill-opacity:1"
       d="m 4.6232226,17.808772 c -1.1026373,2.920798 -1.1425825,6.122094 -1.4897937,9.19791 -0.3944953,5.799423 -0.8042805,8.268341 -0.2768033,14.070466 0.2086006,2.459599 3.0698504,2.816429 5.0246685,3.062032 5.3934279,0.677629 10.9427739,0.997576 16.5523349,1.004406 6.094161,-0.0035 13.097269,0.142029 18.405568,-1.374046 2.034766,-0.772836 2.375442,-2.456245 2.864354,-5.279734 C 46.957097,31.250529 47.621463,27.28499 48,19.950859 c -0.06043,-3.191891 -1.967002,-5.196822 -6.326369,-5.188153 -10.612002,0 -22.18749,0.02573 -31.216416,0.02573 -2.8483303,-0.02573 -5.1562873,1.374416 -5.8339924,3.020336 z"
       sodipodi:nodetypes="cccsccscccc" />
  </g>
  <path
     id="rect287"
     style="fill:#bb852e;fill-opacity:1;stroke-width:5.10158;stroke-linejoin:round"
     d="m 17.379361,18.457384 c 0.102662,-4.72e-4 0.203935,-3.3e-5 0.304136,0.0014 2.521353,0.03681 4.553417,0.966263 6.386582,2.009086 l -2.205806,16.963477 c -3.403658,-1.946019 -5.245942,-2.420035 -9.553938,-1.969665 -0.515914,0.05394 -0.919387,-0.311091 -0.860241,-0.765942 l 1.901981,-14.626938 c 0.09896,-0.761037 0.817386,-1.409961 1.680217,-1.48451 0.848624,-0.07333 1.62841,-0.123414 2.347069,-0.126908 z m 18.524048,0 c 0.717749,0.0035 1.484511,0.05358 2.314063,0.126908 0.843447,0.07455 1.393108,0.723473 1.294149,1.48451 l -1.901977,14.626905 c -0.05915,0.454851 -0.557547,0.819878 -1.059437,0.765942 -4.19087,-0.45037 -6.15643,0.02364 -10.066179,1.969665 l 2.205806,-16.963461 c 2.104367,-1.042823 4.378149,-1.972279 6.909074,-2.009086 0.100588,-0.0015 0.201965,-0.0019 0.304505,-0.0014 z m -10.241193,1.30193 c 0.519601,0.273245 1.076244,0.27193 1.620117,0 L 24.708174,39.55555 c 3.909509,-1.945887 6.715976,-3.205321 13.158222,-2.677513 0.504839,0.04138 1.000291,-0.31109 1.059437,-0.765942 l 2.009308,-15.452324 c 0.590104,0.126712 1.15881,0.274071 1.697514,0.444005 0.882025,0.278248 1.33957,1.11548 1.221169,2.026029 l -2.17433,16.721403 c -0.146468,1.12639 -1.509236,1.906179 -2.591805,1.544333 -3.238634,-1.082426 -9.41018,-2.488363 -15.040193,-0.05983 -0.254518,0.109756 -0.536115,0.109756 -0.762085,0 C 18.28697,38.907188 11.75017,40.313125 8.230023,41.395541 7.0533081,41.757387 5.8930123,40.977598 6.0394799,39.851208 L 8.2138098,23.129805 c 0.1184013,-0.910549 0.7936518,-1.747781 1.7480692,-2.026029 0.582978,-0.169958 1.190207,-0.317282 1.81335,-0.444005 L 9.765921,36.112095 c -0.059146,0.454852 0.344645,0.80732 0.860242,0.765942 6.579781,-0.527829 9.058187,0.73184 12.461849,2.677859 z"
     sodipodi:nodetypes="ccccsssscssssscccscccsscsssccccssscsccc" />
</svg>
