<?xml version="1.0" encoding="UTF-8" standalone="no"?>
<svg
   fill="none"
   viewBox="0 0 48 48"
   height="256"
   width="256"
   version="1.1"
   id="svg4"
   sodipodi:docname="tools.svg"
   inkscape:version="1.2.1 (9c6d41e410, 2022-07-14)"
   xmlns:inkscape="http://www.inkscape.org/namespaces/inkscape"
   xmlns:sodipodi="http://sodipodi.sourceforge.net/DTD/sodipodi-0.dtd"
   xmlns="http://www.w3.org/2000/svg"
   xmlns:svg="http://www.w3.org/2000/svg">
  <defs
     id="defs8" />
  <sodipodi:namedview
     id="namedview6"
     pagecolor="#ffffff"
     bordercolor="#666666"
     borderopacity="1.0"
     inkscape:showpageshadow="2"
     inkscape:pageopacity="0.0"
     inkscape:pagecheckerboard="0"
     inkscape:deskcolor="#d1d1d1"
     showgrid="false"
     inkscape:zoom="1.1449053"
     inkscape:cx="-0.43671734"
     inkscape:cy="104.37544"
     inkscape:current-layer="svg4"
     inkscape:window-width="1920"
     inkscape:window-height="730"
     inkscape:window-x="-6"
     inkscape:window-y="-6"
     inkscape:window-maximized="1" />
  <g
     id="g420"
     transform="translate(-0.01313677,8.0918623e-4)">
    <path
       id="rect1000"
       style="fill:#e7c323;fill-opacity:1;stroke:none;stroke-width:1.875;stroke-linecap:round;stroke-linejoin:round"
       d="m 12.343971,3.0007324 c 2.507019,-0.061095 4.436114,1.7034371 5.857339,3.5707449 1.142473,1.4940795 2.669874,2.9893596 4.724546,2.7504221 5.308782,0.019899 10.619992,-0.040227 15.927223,0.030838 3.453102,0.2377351 6.129723,3.5918776 5.799922,7.0026016 0.154289,7.955692 1.354809,15.941093 0.572035,23.867899 -0.28069,2.224189 -2.409492,3.60353 -4.523902,3.690298 C 32.01167,45.233521 23.167397,45.164803 14.410226,44.721982 11.205709,44.438919 7.9145712,44.326543 4.8336547,43.355887 2.6425963,42.406847 2.0950006,39.776581 1.7963826,37.704162 1.1812877,33.435381 0.82913981,19.377731 1.1892114,9.5423031 1.2159688,7.5429127 1.6581588,5.1646379 3.710313,4.276029 6.4718661,3.3942769 9.46293,3.2269325 12.343971,3.0007324 Z"
       sodipodi:nodetypes="sccsscscssccs" />
    <path
       id="rect340"
       style="fill:#fff01c;stroke:none;stroke-width:1.81991;stroke-linecap:round;stroke-linejoin:round;fill-opacity:1"
       d="m 4.6232226,17.808772 c -1.1026373,2.920798 -1.1425825,6.122094 -1.4897937,9.19791 -0.3944953,5.799423 -0.8042805,8.268341 -0.2768033,14.070466 0.2086006,2.459599 3.0698504,2.816429 5.0246685,3.062032 5.3934279,0.677629 10.9427739,0.997576 16.5523349,1.004406 6.094161,-0.0035 13.097269,0.142029 18.405568,-1.374046 2.034766,-0.772836 2.375442,-2.456245 2.864354,-5.279734 C 46.957097,31.250529 47.621463,27.28499 48,19.950859 c -0.06043,-3.191891 -1.967002,-5.196822 -6.326369,-5.188153 -10.612002,0 -22.18749,0.02573 -31.216416,0.02573 -2.8483303,-0.02573 -5.1562873,1.374416 -5.8339924,3.020336 z"
       sodipodi:nodetypes="cccsccscccc" />
  </g>
  <g
     id="g6946"
     transform="matrix(0.55,0,-0.05782468,0.55,3.9049608,13.797537)"
     style="stroke-width:1.81818">
    <path
       id="rect954"
       style="fill:#e7c323;fill-opacity:1;stroke:none;stroke-width:3.40909;stroke-linecap:round;stroke-linejoin:round"
       d="m 30.420853,6.6592705 h 1.75708 c 0.3805,0 0.727985,0.2161534 0.896484,0.5573731 l 1.727051,3.4969484 c 0.3092,0.626079 0.269563,1.368274 -0.104736,1.957764 l -1.512451,2.381836 c 0.0568,1.999598 0.11499,4.844082 0.11499,8.106079 0,4.327196 -0.102291,7.919731 -0.168091,9.780029 -0.0308,0.872299 -0.50359,1.645978 -1.37439,1.705078 -0.139299,0.0095 -0.291397,0.01501 -0.457397,0.01501 -0.1661,0 -0.318098,-0.0055 -0.457398,-0.01501 -0.870809,-0.0591 -1.343549,-0.832779 -1.374389,-1.705078 -0.06578,-1.860298 -0.168091,-5.452833 -0.168091,-9.780029 0,-3.261997 0.05815,-6.106481 0.11499,-8.106079 l -1.512451,-2.381836 c -0.37427,-0.58949 -0.413916,-1.331675 -0.104736,-1.957764 l 1.727051,-3.4969484 c 0.168499,-0.3412197 0.515944,-0.5573731 0.896484,-0.5573731 z"
       sodipodi:nodetypes="ssccccsccsccsccccs" />
    <path
       id="rect951"
       style="fill:#507ab7;stroke:none;stroke-width:3.40909;stroke-linecap:round;stroke-linejoin:round"
       d="m 31.299393,28.659393 c 1.466298,0 2.62558,0.0328 3.525879,0.078 1.634798,0.0819 2.872907,1.315006 3.047607,2.942505 0.2062,1.921401 0.426636,4.734376 0.426636,7.979373 0,3.244997 -0.220436,6.058072 -0.426636,7.97937 -0.1747,1.627598 -1.412809,2.860871 -3.047607,2.942871 -0.900299,0.0451 -2.059681,0.078 -3.525879,0.078 -1.466239,0 -2.625264,-0.0329 -3.525513,-0.078 -1.634848,-0.082 -2.872957,-1.315273 -3.047607,-2.942871 -0.20617,-1.921298 -0.426636,-4.734373 -0.426636,-7.97937 0,-3.244997 0.220466,-6.057972 0.426636,-7.97937 0.17465,-1.627499 1.412779,-2.860605 3.047607,-2.942505 0.900249,-0.0452 2.059244,-0.078 3.525513,-0.078 z"
       sodipodi:nodetypes="sccsccscssccs" />
    <path
       id="rect347"
       style="fill:#adafaa;fill-opacity:1;stroke:none;stroke-width:3.40909;stroke-linecap:round;stroke-linejoin:round"
       d="m 48.111038,6.660003 c 0.499633,-0.016655 0.942578,0.4111496 0.937134,0.9697265 -0.0289,3.0049175 -0.01446,6.3415285 0.12854,8.7297365 0.0119,0.1984 0.08407,0.387899 0.216065,0.536499 0.434299,0.4895 1.559786,1.630048 3.092285,2.238648 0.2021,0.0803 0.427683,0.0803 0.629883,0 1.505098,-0.5977 2.618148,-1.708715 3.068847,-2.211914 0.1479,-0.1651 0.220459,-0.379719 0.220459,-0.601319 V 7.6224053 c 0,-0.6826393 0.669966,-1.1626231 1.286866,-0.8704834 3.907296,1.8501281 6.608276,5.8135431 6.608276,10.4044191 0,4.270396 -2.336909,7.997874 -5.808106,9.986573 -0.322899,0.184999 -0.536192,0.517792 -0.541992,0.889892 -0.0683,4.339796 -0.270024,12.104527 -0.864624,20.127319 -0.0884,1.193299 -0.89511,2.206299 -2.081909,2.358399 -0.627699,0.0805 -1.394961,0.141357 -2.28186,0.141357 -0.886999,0 -1.654261,-0.06086 -2.281861,-0.141357 -1.186898,-0.1521 -1.993775,-1.1651 -2.082275,-2.358399 -0.594599,-8.022392 -0.795692,-15.786691 -0.863892,-20.126586 -0.0059,-0.3722 -0.219358,-0.704893 -0.542358,-0.889893 -3.471797,-1.988498 -5.809204,-5.716409 -5.809204,-9.987305 0,-4.595486 2.706033,-8.5621741 6.619629,-10.4099123 0.116568,-0.055035 0.234798,-0.082582 0.350097,-0.086426 z"
       sodipodi:nodetypes="sccccccsscsscccscccssss" />
  </g>
</svg>
