<?xml version="1.0" encoding="UTF-8" standalone="no"?>
<svg
   fill="none"
   viewBox="0 0 48 48"
   height="256"
   width="256"
   version="1.1"
   id="svg4"
   sodipodi:docname="tree.svg"
   inkscape:version="1.2.1 (9c6d41e410, 2022-07-14)"
   xmlns:inkscape="http://www.inkscape.org/namespaces/inkscape"
   xmlns:sodipodi="http://sodipodi.sourceforge.net/DTD/sodipodi-0.dtd"
   xmlns="http://www.w3.org/2000/svg"
   xmlns:svg="http://www.w3.org/2000/svg">
  <defs
     id="defs8" />
  <sodipodi:namedview
     id="namedview6"
     pagecolor="#ffffff"
     bordercolor="#666666"
     borderopacity="1.0"
     inkscape:showpageshadow="2"
     inkscape:pageopacity="0.0"
     inkscape:pagecheckerboard="0"
     inkscape:deskcolor="#d1d1d1"
     showgrid="false"
     inkscape:zoom="0.57245265"
     inkscape:cx="-107.43247"
     inkscape:cy="-93.457511"
     inkscape:current-layer="svg4"
     inkscape:window-width="1920"
     inkscape:window-height="730"
     inkscape:window-x="-6"
     inkscape:window-y="-6"
     inkscape:window-maximized="1" />
  <g
     id="g420"
     transform="translate(-0.01313677,8.0918623e-4)">
    <path
       id="rect1000"
       style="fill:#e7c323;fill-opacity:1;stroke:none;stroke-width:1.875;stroke-linecap:round;stroke-linejoin:round"
       d="m 12.343971,3.0007324 c 2.507019,-0.061095 4.436114,1.7034371 5.857339,3.5707449 1.142473,1.4940795 2.669874,2.9893596 4.724546,2.7504221 5.308782,0.019899 10.619992,-0.040227 15.927223,0.030838 3.453102,0.2377351 6.129723,3.5918776 5.799922,7.0026016 0.154289,7.955692 1.354809,15.941093 0.572035,23.867899 -0.28069,2.224189 -2.409492,3.60353 -4.523902,3.690298 C 32.01167,45.233521 23.167397,45.164803 14.410226,44.721982 11.205709,44.438919 7.9145712,44.326543 4.8336547,43.355887 2.6425963,42.406847 2.0950006,39.776581 1.7963826,37.704162 1.1812877,33.435381 0.82913981,19.377731 1.1892114,9.5423031 1.2159688,7.5429127 1.6581588,5.1646379 3.710313,4.276029 6.4718661,3.3942769 9.46293,3.2269325 12.343971,3.0007324 Z"
       sodipodi:nodetypes="sccsscscssccs" />
    <path
       id="rect340"
       style="fill:#fff01c;stroke:none;stroke-width:1.81991;stroke-linecap:round;stroke-linejoin:round;fill-opacity:1"
       d="m 4.6232226,17.808772 c -1.1026373,2.920798 -1.1425825,6.122094 -1.4897937,9.19791 -0.3944953,5.799423 -0.8042805,8.268341 -0.2768033,14.070466 0.2086006,2.459599 3.0698504,2.816429 5.0246685,3.062032 5.3934279,0.677629 10.9427739,0.997576 16.5523349,1.004406 6.094161,-0.0035 13.097269,0.142029 18.405568,-1.374046 2.034766,-0.772836 2.375442,-2.456245 2.864354,-5.279734 C 46.957097,31.250529 47.621463,27.28499 48,19.950859 c -0.06043,-3.191891 -1.967002,-5.196822 -6.326369,-5.188153 -10.612002,0 -22.18749,0.02573 -31.216416,0.02573 -2.8483303,-0.02573 -5.1562873,1.374416 -5.8339924,3.020336 z"
       sodipodi:nodetypes="cccsccscccc" />
  </g>
  <g
     id="g7438"
     transform="matrix(0.64303125,0,-0.07871309,0.64303125,-23.421694,12.052669)"
     style="stroke-width:1.55514">
    <g
       id="path6379"
       style="fill:#77c32f;fill-opacity:1;stroke-width:1.55514"
       transform="matrix(1.0432542,0,0,1.010135,54.98865,3.4850337)">
      <path
         style="color:#000000;fill:#77c32f;fill-opacity:1;fill-rule:evenodd;stroke-width:1.55514;stroke-linecap:round;stroke-linejoin:round"
         d="m 24.208984,33.878906 c -4.657661,5.28e-4 -9.315052,0.935381 -13.11914,2.828125 -3.8040885,1.892744 -6.7667062,4.76256 -7.9218752,8.611328 -0.086212,0.285329 0.1277129,0.572852 0.4257812,0.572266 13.788294,1.20188 27.520727,1.345917 41.234375,0 0.298068,5.85e-4 0.511993,-0.286937 0.425781,-0.572266 -1.155783,-3.850795 -4.119386,-6.720787 -7.923828,-8.613281 -3.804442,-1.892494 -8.463432,-2.8267 -13.121094,-2.826172 z"
         id="path10725"
         sodipodi:nodetypes="ssccccss" />
    </g>
    <path
       style="color:#000000;fill:#bb852e;fill-opacity:1;fill-rule:evenodd;stroke-width:1.59644;stroke-linejoin:round"
       d="m 77.145576,14.099344 -1.801244,0.74379 c -0.171345,0.06992 -0.282879,0.232301 -0.283227,0.412341 v 12.800304 l -8.767817,-4.346343 c -0.307991,-0.152981 -0.674126,0.06337 -0.674449,0.39853 v 1.874274 c 3.45e-4,0.168216 0.0979,0.322095 0.252664,0.39853 l 9.189602,4.557444 V 45.05051 c 6.76e-4,0.389988 0.479686,0.593283 0.776328,0.329478 l 0.984163,-0.874003 1.791056,-0.651063 1.899049,1.242939 c 0.188934,0.12434 0.44329,0.0967 0.599055,-0.0651 l 0.806893,-0.836518 1.784942,0.909517 c 0.308725,0.159013 0.681106,-0.05797 0.680561,-0.396557 v -14.63315 l 5.295737,-1.288317 c 0.348367,-0.08533 0.467992,-0.505613 0.213949,-0.751683 -0.766456,-0.745426 -1.155247,-1.468753 -1.194037,-2.191913 -0.01449,-0.282981 -0.29305,-0.48217 -0.576642,-0.412341 l -3.739007,0.911489 v -1.38894 l 6.283977,-8.986649 c 0.214134,-0.304481 -0.02127,-0.715217 -0.401409,-0.700387 l -3.144026,0.114429 c -0.133447,0.0048 -0.258229,0.06527 -0.342318,0.165725 l -6.133193,7.370829 -2.879138,-8.546689 c -0.08482,-0.249479 -0.37194,-0.375266 -0.621469,-0.272262 z"
       id="path6401-5"
       sodipodi:nodetypes="cccccccccccccccccccccccccccccccc" />
    <g
       id="path6497"
       style="fill:#606668;fill-opacity:1;stroke-width:1.55514"
       transform="matrix(1.0432542,0,0,1.010135,54.98865,3.4850337)">
      <path
         style="color:#000000;fill:#606668;fill-opacity:1;fill-rule:evenodd;stroke-width:1.38045;stroke-linecap:round;stroke-linejoin:round"
         d="m 24.623959,29.686872 a 0.91592413,1.7712605 0 0 1 -0.915924,1.771261 0.91592413,1.7712605 0 0 1 -0.915925,-1.771261 0.91592413,1.7712605 0 0 1 0.915925,-1.77126 0.91592413,1.7712605 0 0 1 0.915924,1.77126 z"
         id="path10654" />
      <path
         style="color:#000000;fill:#606668;fill-opacity:1;fill-rule:evenodd;stroke-width:1.55514;stroke-linecap:round;stroke-linejoin:round"
         d="m 23.708984,27.472656 c -0.484859,-1e-6 -0.83491,0.35546 -1.042968,0.757813 -0.208059,0.402353 -0.31836,0.905893 -0.31836,1.457031 0,0.551138 0.110301,1.052725 0.31836,1.455078 0.208058,0.402353 0.558109,0.759767 1.042968,0.759766 0.484859,0 0.832958,-0.357413 1.041016,-0.759766 0.208058,-0.402353 0.318359,-0.90394 0.318359,-1.455078 0,-0.551137 -0.110301,-1.054678 -0.318359,-1.457031 -0.208058,-0.402353 -0.556157,-0.757813 -1.041016,-0.757813 z"
         id="path10656"
         sodipodi:nodetypes="sssssssss" />
    </g>
    <path
       style="color:#000000;fill:#77c32f;fill-opacity:1;fill-rule:evenodd;stroke-width:1.59644;stroke-linecap:round;stroke-linejoin:round"
       d="m 72.901243,5.8407001 c -4.590861,-4.11e-5 -8.360428,3.3414271 -8.360297,7.4990689 6.95e-4,0.354625 0.06582,0.705002 0.122256,1.055512 -3.59967,0.409648 -6.415035,3.095724 -6.416421,6.435665 0.0014,2.217693 1.320112,4.208499 3.349824,5.411719 -0.105695,0.375657 -0.203749,0.755507 -0.20376,1.144294 7.6e-5,2.606022 2.361954,4.687721 5.214234,4.687657 2.852278,6.4e-5 5.212119,-2.081635 5.212195,-4.687657 -1.54e-4,-0.821306 -0.341331,-1.590789 -0.790591,-2.296479 0.450439,-0.467643 0.755683,-1.014703 1.041217,-1.570445 0.459636,2.713622 2.965319,4.809966 6.078178,4.80998 3.192106,-1.4e-5 5.765459,-2.197242 6.123005,-5.01319 0.767208,1.087867 2.028283,1.792603 3.470043,2.032107 0.442378,3.28912 3.506398,5.786609 7.194787,5.79052 4.011328,1.13e-4 7.310907,-2.921501 7.310927,-6.561931 -1.5e-4,-3.335776 -2.810159,-5.992838 -6.385855,-6.415936 0.702202,-1.202563 1.140886,-2.517777 1.14106,-3.884679 8e-6,-4.6746872 -4.239454,-8.4361502 -9.409664,-8.4362059 -3.058946,0.00155 -5.870099,1.3737745 -7.628796,3.6025517 C 78.446077,7.2340952 75.809801,5.8409546 72.901243,5.8407001 Z"
       id="path6769"
       sodipodi:nodetypes="cccccccccccccccccccc" />
  </g>
</svg>
