<?xml version="1.0" encoding="UTF-8" standalone="no"?>
<svg
   fill="none"
   viewBox="0 0 48 48"
   height="256"
   width="256"
   version="1.1"
   id="svg3205"
   sodipodi:docname="zip.svg"
   inkscape:version="1.2.1 (9c6d41e410, 2022-07-14)"
   xmlns:inkscape="http://www.inkscape.org/namespaces/inkscape"
   xmlns:sodipodi="http://sodipodi.sourceforge.net/DTD/sodipodi-0.dtd"
   xmlns="http://www.w3.org/2000/svg"
   xmlns:svg="http://www.w3.org/2000/svg">
  <defs
     id="defs3209" />
  <sodipodi:namedview
     id="namedview3207"
     pagecolor="#ffffff"
     bordercolor="#666666"
     borderopacity="1.0"
     inkscape:showpageshadow="2"
     inkscape:pageopacity="0.0"
     inkscape:pagecheckerboard="0"
     inkscape:deskcolor="#d1d1d1"
     showgrid="false"
     inkscape:zoom="1.3783058"
     inkscape:cx="-27.570079"
     inkscape:cy="107.74096"
     inkscape:current-layer="svg3205"
     inkscape:window-width="1920"
     inkscape:window-height="730"
     inkscape:window-x="-6"
     inkscape:window-y="-6"
     inkscape:window-maximized="1" />
  <g
     id="g420"
     transform="translate(-0.01313677,8.0918623e-4)">
    <path
       id="rect1000"
       style="fill:#e7c323;fill-opacity:1;stroke:none;stroke-width:1.875;stroke-linecap:round;stroke-linejoin:round"
       d="m 12.343971,3.0007324 c 2.507019,-0.061095 4.436114,1.7034371 5.857339,3.5707449 1.142473,1.4940795 2.669874,2.9893596 4.724546,2.7504221 5.308782,0.019899 10.619992,-0.040227 15.927223,0.030838 3.453102,0.2377351 6.129723,3.5918776 5.799922,7.0026016 0.154289,7.955692 1.354809,15.941093 0.572035,23.867899 -0.28069,2.224189 -2.409492,3.60353 -4.523902,3.690298 C 32.01167,45.233521 23.167397,45.164803 14.410226,44.721982 11.205709,44.438919 7.9145712,44.326543 4.8336547,43.355887 2.6425963,42.406847 2.0950006,39.776581 1.7963826,37.704162 1.1812877,33.435381 0.82913981,19.377731 1.1892114,9.5423031 1.2159688,7.5429127 1.6581588,5.1646379 3.710313,4.276029 6.4718661,3.3942769 9.46293,3.2269325 12.343971,3.0007324 Z"
       sodipodi:nodetypes="sccsscscssccs" />
    <path
       id="rect340"
       style="fill:#fff01c;stroke:none;stroke-width:1.81991;stroke-linecap:round;stroke-linejoin:round;fill-opacity:1"
       d="m 4.6232226,17.808772 c -1.1026373,2.920798 -1.1425825,6.122094 -1.4897937,9.19791 -0.3944953,5.799423 -0.8042805,8.268341 -0.2768033,14.070466 0.2086006,2.459599 3.0698504,2.816429 5.0246685,3.062032 5.3934279,0.677629 10.9427739,0.997576 16.5523349,1.004406 6.094161,-0.0035 13.097269,0.142029 18.405568,-1.374046 2.034766,-0.772836 2.375442,-2.456245 2.864354,-5.279734 C 46.957097,31.250529 47.621463,27.28499 48,19.950859 c -0.06043,-3.191891 -1.967002,-5.196822 -6.326369,-5.188153 -10.612002,0 -22.18749,0.02573 -31.216416,0.02573 -2.8483303,-0.02573 -5.1562873,1.374416 -5.8339924,3.020336 z"
       sodipodi:nodetypes="cccsccscccc" />
  </g>
  <path
     fill="#f68428"
     fill-rule="evenodd"
     d="m 34.713773,44.984738 c -1.127795,0.07086 -2.35039,0.101347 -3.721175,0.133819 0.08574,-0.748021 0.222669,-1.925905 0.41726,-3.454123 -0.329868,-0.0121 -0.614969,-0.02677 -0.858971,-0.04213 -0.70484,-0.04444 -1.136648,-0.55591 -1.049102,-1.167677 l 0.135676,-0.948111 c 0.08755,-0.611768 0.665738,-1.123233 1.383298,-1.167678 0.237912,-0.01476 0.513413,-0.02874 0.829108,-0.04058 0.139307,-1.042665 0.297166,-2.205881 0.475724,-3.50046 -0.30183,-0.01167 -0.564978,-0.02531 -0.792428,-0.03964 -0.704839,-0.04445 -1.136647,-0.555911 -1.049102,-1.167678 l 0.135677,-0.948111 c 0.08755,-0.611768 0.665737,-1.123233 1.383297,-1.167678 0.228526,-0.01416 0.491754,-0.02763 0.791912,-0.03921 0.116764,-0.82713 0.240245,-1.696303 0.370875,-2.609149 l 0.128119,-0.893198 c -0.295955,-0.0115 -0.554627,-0.02497 -0.778501,-0.03913 -0.70484,-0.04445 -1.136648,-0.555911 -1.049103,-1.167678 l 0.135677,-0.948111 c 0.08755,-0.611768 0.665738,-1.123233 1.383298,-1.167678 0.229638,-0.01424 0.494378,-0.0278 0.796436,-0.03938 0.187017,-1.276131 0.359848,-2.440549 0.519334,-3.501232 -0.306417,-0.01175 -0.573241,-0.02557 -0.803366,-0.04007 -0.704839,-0.04445 -1.136647,-0.555911 -1.049102,-1.167678 l 0.135677,-0.948111 c 0.08754,-0.611767 0.665737,-1.123232 1.383297,-1.167678 0.242349,-0.01502 0.523787,-0.02926 0.847006,-0.04127 0.198623,-1.278962 0.33272,-2.077026 0.472407,-2.934367 h 3.7854 c -0.105687,0.857341 -0.204984,1.655405 -0.372407,2.934367 0.319781,0.01201 0.597143,0.02626 0.835194,0.04127 0.70484,0.04445 1.136648,0.555911 1.049103,1.167678 l -0.135677,0.948111 c -0.08754,0.611767 -0.665737,1.123232 -1.383298,1.167678 -0.234275,0.0145 -0.505051,0.02831 -0.814834,0.04007 -0.144086,1.060683 -0.304517,2.225101 -0.482734,3.501232 0.298742,0.01158 0.559602,0.02514 0.785164,0.03938 0.70484,0.04444 1.136648,0.55591 1.049102,1.167678 l -0.135677,0.948111 c -0.08754,0.611767 -0.665737,1.123232 -1.383297,1.167678 -0.227926,0.01416 -0.490354,0.02763 -0.789699,0.03913 l -0.127519,0.893198 c -0.13063,0.912846 -0.255911,1.782019 -0.375875,2.609149 0.296842,0.01158 0.556214,0.02505 0.780688,0.03921 0.70484,0.04444 1.136648,0.55591 1.049103,1.167678 l -0.135677,0.948111 c -0.08754,0.611767 -0.665737,1.123232 -1.383298,1.167678 -0.23155,0.01433 -0.498602,0.02797 -0.803772,0.03964 -0.191958,1.294579 -0.367017,2.457795 -0.526124,3.50046 0.312305,0.01184 0.583804,0.02583 0.817492,0.04058 0.70484,0.04445 1.136648,0.55591 1.049102,1.167678 l -0.135676,0.948111 c -0.08755,0.611767 -0.665738,1.123232 -1.383298,1.167677 -0.248398,0.01536 -0.537697,0.03003 -0.871029,0.04213 -0.22535,1.418219 -0.407373,2.579491 -0.533685,3.320304 z"
     clip-rule="evenodd"
     id="path3203"
     style="fill:#f68428;fill-opacity:1;stroke-width:0.926293"
     sodipodi:nodetypes="ccccssccccsssccccssccccsccccccsssccccsscccccssccccssccc" />
</svg>
