<?xml version="1.0" encoding="UTF-8" standalone="no"?>
<svg
   fill="none"
   viewBox="0 0 48 48"
   height="256"
   width="256"
   version="1.1"
   id="svg6"
   sodipodi:docname="arduino.svg"
   inkscape:version="1.2.1 (9c6d41e410, 2022-07-14)"
   xmlns:inkscape="http://www.inkscape.org/namespaces/inkscape"
   xmlns:sodipodi="http://sodipodi.sourceforge.net/DTD/sodipodi-0.dtd"
   xmlns="http://www.w3.org/2000/svg"
   xmlns:svg="http://www.w3.org/2000/svg">
  <defs
     id="defs10" />
  <sodipodi:namedview
     id="namedview8"
     pagecolor="#ffffff"
     bordercolor="#666666"
     borderopacity="1.0"
     inkscape:showpageshadow="2"
     inkscape:pageopacity="0.0"
     inkscape:pagecheckerboard="true"
     inkscape:deskcolor="#d1d1d1"
     showgrid="true"
     inkscape:zoom="1.1449053"
     inkscape:cx="70.74821"
     inkscape:cy="55.463103"
     inkscape:current-layer="svg6">
    <inkscape:grid
       type="xygrid"
       id="grid239"
       units="px"
       spacingx="1.5"
       spacingy="1.5" />
  </sodipodi:namedview>
  <path
     id="rect341"
     style="fill:#204a87;stroke-width:1.875;stroke-linejoin:round"
     d="m 24.001099,2.0181885 c 12.148196,0 21.997558,9.8466475 21.997558,21.9898685 0,12.146076 -9.849909,21.992065 -21.997558,21.992065 -12.151573,0 -22.0008549,-9.845989 -22.0008549,-21.992065 0,-12.143221 9.8492819,-21.9898685 22.0008549,-21.9898685 z"
     sodipodi:nodetypes="sssss" />
  <path
     id="rect391"
     style="fill:#729fcf;fill-opacity:1;stroke-width:3.3541;stroke-linejoin:round"
     d="m 15.601685,16.142578 c 0.414505,0 0.83635,0.02948 1.252075,0.08899 3.495359,0.498311 5.833387,3.009546 7.147339,4.93982 1.309973,-1.930274 3.647863,-4.440772 7.144409,-4.93982 0.417138,-0.05976 0.839399,-0.08899 1.253906,-0.08899 2.174026,0 4.216223,0.808471 5.749878,2.275269 1.551271,1.483512 2.404541,3.46793 2.404541,5.589477 0,2.118885 -0.851105,4.106097 -2.402344,5.586914 -1.536382,1.468627 -3.575723,2.278199 -5.749878,2.278199 -0.414217,0 -0.838234,-0.02948 -1.255371,-0.09155 -3.496835,-0.498919 -5.835057,-3.009866 -7.144775,-4.93982 -1.313855,1.929922 -3.652077,4.443405 -7.147339,4.941651 -0.415936,0.05942 -0.835576,0.08916 -1.255737,0.08899 -2.174025,0 -4.214715,-0.808807 -5.7498783,-2.277466 -1.5497954,-1.480817 -2.4049072,-3.468029 -2.4049072,-5.586914 0,-2.121547 0.8550301,-4.105965 2.4071045,-5.589477 1.533687,-1.468884 3.57602,-2.275269 5.750977,-2.275269 z m 16.797729,2.786499 c -0.282755,0 -0.573185,0.02008 -0.858765,0.06152 -3.293591,0.470372 -5.307893,3.714568 -5.990844,5.017456 0.682919,1.300192 2.697495,4.544863 5.990478,5.016357 0.288274,0.03965 0.578605,0.06152 0.861328,0.06152 2.957988,0 5.365723,-2.277683 5.365723,-5.078614 0,-2.800928 -2.407268,-5.078247 -5.36792,-5.078247 z m -16.797729,7.33e-4 c -2.961935,1e-6 -5.370118,2.277221 -5.370118,5.078247 0,2.800448 2.407215,5.078613 5.366455,5.078613 0.284039,0 0.574583,-0.02194 0.862793,-0.06152 3.293111,-0.471429 5.306808,-3.713937 5.990113,-5.015991 -0.681444,-1.300225 -2.697034,-4.547557 -5.990113,-5.016357 -0.284841,-0.04301 -0.57615,-0.06299 -0.85913,-0.06299 z m 15.757324,2.649536 h 1.583496 v 1.659668 h 1.657837 v 1.578003 h -1.657837 v 1.659301 h -1.583496 v -1.659301 h -1.657105 v -1.578003 h 1.657105 z M 13.35498,23.239014 h 4.897339 v 1.578003 H 13.35498 Z"
     sodipodi:nodetypes="scccscscscccccscsscccsssssscccscccccccccccccccccc" />
</svg>
