<?xml version="1.0" encoding="UTF-8" standalone="no"?>
<svg
   fill="none"
   viewBox="0 0 48 48"
   height="256"
   width="256"
   version="1.1"
   id="svg6"
   sodipodi:docname="avr_isp_mkii.svg"
   inkscape:version="1.2.1 (9c6d41e410, 2022-07-14)"
   xmlns:inkscape="http://www.inkscape.org/namespaces/inkscape"
   xmlns:sodipodi="http://sodipodi.sourceforge.net/DTD/sodipodi-0.dtd"
   xmlns="http://www.w3.org/2000/svg"
   xmlns:svg="http://www.w3.org/2000/svg">
  <defs
     id="defs10" />
  <sodipodi:namedview
     id="namedview8"
     pagecolor="#ffffff"
     bordercolor="#666666"
     borderopacity="1.0"
     inkscape:showpageshadow="2"
     inkscape:pageopacity="0.0"
     inkscape:pagecheckerboard="true"
     inkscape:deskcolor="#d1d1d1"
     showgrid="true"
     inkscape:zoom="0.8095703"
     inkscape:cx="54.34982"
     inkscape:cy="101.90591"
     inkscape:current-layer="svg6"
     showguides="false"
     inkscape:window-width="1920"
     inkscape:window-height="730"
     inkscape:window-x="-6"
     inkscape:window-y="-6"
     inkscape:window-maximized="1">
    <inkscape:grid
       type="xygrid"
       id="grid239"
       units="px"
       spacingx="1.5"
       spacingy="1.5" />
  </sodipodi:namedview>
  <path
     style="color:#000000;fill:#204a87;fill-opacity:1;stroke-linecap:round;stroke-linejoin:round;-inkscape-stroke:none"
     d="m 10.064512,1.6895354 a 0.55749072,0.55749072 0 0 0 -0.0098,0.00195 c -2.4829537,0.041568 -3.9154087,1.2373742 -4.5644527,2.6933594 -0.649044,1.4559852 -0.628907,3.11212 -0.628907,4.2734375 0,3.5775357 1.205245,5.9986367 2.060547,8.5722657 0.855302,2.573629 1.416688,5.323497 0.279297,9.873047 -0.9967,3.667342 -1.594113,7.318414 -1.337891,10.355469 0.256454,3.039788 1.439513,5.556175 3.998047,6.558593 a 0.55749072,0.55749072 0 0 0 0.03125,0.01172 c 9.3929947,3.029696 18.8194637,3.054309 28.2148437,-0.002 a 0.55749072,0.55749072 0 0 0 0.03125,-0.0098 c 2.558759,-1.000075 3.742142,-3.516121 4,-6.55664 0.257582,-3.037263 -0.337897,-6.690238 -1.339844,-10.357422 v -0.0059 c -5.55e-4,-0.002 -0.0014,-0.0038 -0.002,-0.0059 -1.132644,-4.540929 -0.573162,-7.302648 0.28125,-9.878906 0.8553,-2.578934 2.060547,-4.998078 2.060547,-8.5546877 0,-1.1613175 0.01997,-2.8251289 -0.628906,-4.2851562 C 41.86087,2.9129377 40.425678,1.7139512 37.941383,1.6893713 a 0.55749072,0.55749072 0 0 0 -0.0059,0 H 28.644467 A 0.55749072,0.55749072 0 0 0 28.087827,2.247965 V 3.4551604 H 19.912169 V 2.2481291 A 0.55749072,0.55749072 0 0 0 19.355528,1.6895354 h -9.291016"
     id="path5209" />
  <path
     style="fill:#729fcf;fill-opacity:1;stroke:none;stroke-width:0.123657;stroke-miterlimit:4;stroke-dasharray:none;stroke-opacity:1"
     d="m 22.082598,10.981111 c -1.1106,-2.4855821 -2.021168,-4.5241181 -2.023554,-4.5300771 -0.0017,-0.006 0.486538,-0.01075 1.08632,-0.01049 l 1.090594,3.9e-4 0.932724,2.222886 c 0.67561,1.6100411 0.935844,2.2173091 0.944077,2.2026581 0.0052,-0.01101 0.450407,-1.0095146 0.98713,-2.2186521 0.536697,-1.209135 0.977927,-2.200539 0.980523,-2.203124 0.0018,-0.0026 0.499333,-0.0031 1.103914,-0.0014 l 1.099168,0.0031 -2.061285,4.4667251 c -1.133647,2.456695 -2.074525,4.493794 -2.090808,4.526884 l -0.02884,0.06017 z m -8.358932,2.772619 c 0.0026,-0.01206 0.673827,-1.662879 1.486935,-3.667953 l 1.478414,-3.6455881 h 1.119069 1.119043 l 1.64402,3.6455881 c 0.904222,2.005074 1.6479,3.655682 1.652619,3.668027 0.0079,0.02124 -0.04641,0.02229 -1.081994,0.0194 l -1.090647,-0.0031 -0.293454,-0.635819 -0.29348,-0.635819 h -1.53088 -1.530854 l -0.02098,0.03516 c -0.0079,0.0194 -0.119563,0.279563 -0.24437,0.578306 -0.124283,0.298734 -0.237816,0.570481 -0.251712,0.60387 l -0.02622,0.06072 h -1.073394 c -1.016942,0 -1.07287,-0.0012 -1.064794,-0.02229 z m 5.129783,-2.723889 c -0.04641,-0.122526 -1.040724,-2.5064291 -1.045443,-2.5063791 -0.0026,0 -0.864421,2.3110871 -0.9306,2.5016721 -0.0052,0.01311 0.198747,0.01626 0.987418,0.01626 0.567873,0 0.991037,-0.005 0.988625,-0.01154 z m 7.235773,2.739592 c 0,-0.0058 1.896098,-4.2855335 2.929952,-6.6135431 0.154698,-0.347942 0.289023,-0.651315 0.298856,-0.674161 l 0.01311,-0.04153 h 1.480983 c 0.939436,0 1.529438,0.0047 1.613342,0.01337 0.755293,0.07643 1.342752,0.45638 1.626977,1.052384 0.199796,0.419523 0.271691,0.954633 0.185899,1.392885 -0.05795,0.295591 -0.188521,0.605802 -0.354599,0.8385384 -0.175411,0.246599 -0.487403,0.5260857 -0.777658,0.6970797 -0.321405,0.189255 -0.77467,0.363694 -1.113904,0.428549 -0.04877,0.0094 -0.07997,0.0215 -0.07997,0.03175 0,0.01311 0.962982,2.756017 1.003518,2.858896 0.0052,0.02124 -0.05008,0.02229 -1.12219,0.02229 h -1.131025 l -0.0052,-0.03516 c -0.0052,-0.01914 -0.160991,-0.609365 -0.346576,-1.311183 -0.185637,-0.701827 -0.337792,-1.278502 -0.337792,-1.281494 0,-0.0029 -0.116155,-0.0037 -0.258267,-0.0019 l -0.258005,0.0034 -0.584102,1.309982 -0.58405,1.309984 -1.100348,0.0031 c -0.605158,0.0017 -1.100322,1.99e-4 -1.100322,-0.0034 z M 31.22695,9.5738918 c 0.176985,-0.039828 0.27198,-0.072708 0.415324,-0.1440002 0.355701,-0.1765916 0.547972,-0.4631997 0.565277,-0.8426187 0.0079,-0.242954 -0.03828,-0.389826 -0.178034,-0.52694 -0.07971,-0.07816 -0.254334,-0.172764 -0.37075,-0.20019 -0.03749,-0.0089 -0.212382,-0.0139 -0.460633,-0.0139 h -0.400615 l -0.385408,0.859473 c -0.211857,0.472712 -0.389341,0.8699319 -0.394139,0.8827115 -0.0052,0.022287 0.01049,0.023074 0.539267,0.018092 0.502506,-0.0042 0.558171,-0.00708 0.669501,-0.032434 z"
     id="path5188"
     sodipodi:nodetypes="ssscssssscsscssscccssscccccssscsssssssssscsssssssssscsssscccsssssssscssss" />
  <path
     id="path5919-0"
     style="fill:#edd400;fill-opacity:1;stroke-width:0.9375;stroke-linecap:round;stroke-linejoin:round"
     d="m 16.824278,31.994223 a 1.5,1.5 0 0 1 -1.5,1.5 1.5,1.5 0 0 1 -1.5,-1.5 1.5,1.5 0 0 1 1.5,-1.5 1.5,1.5 0 0 1 1.5,1.5 z" />
</svg>
