<?xml version="1.0" encoding="UTF-8" standalone="no"?>
<svg
   fill="none"
   viewBox="0 0 48 48"
   height="256"
   width="256"
   version="1.1"
   id="svg6"
   sodipodi:docname="flyswatter_v2.svg"
   inkscape:version="1.2.1 (9c6d41e410, 2022-07-14)"
   xmlns:inkscape="http://www.inkscape.org/namespaces/inkscape"
   xmlns:sodipodi="http://sodipodi.sourceforge.net/DTD/sodipodi-0.dtd"
   xmlns="http://www.w3.org/2000/svg"
   xmlns:svg="http://www.w3.org/2000/svg">
  <defs
     id="defs10" />
  <sodipodi:namedview
     id="namedview8"
     pagecolor="#ffffff"
     bordercolor="#666666"
     borderopacity="1.0"
     inkscape:showpageshadow="2"
     inkscape:pageopacity="0.0"
     inkscape:pagecheckerboard="true"
     inkscape:deskcolor="#d1d1d1"
     showgrid="true"
     inkscape:zoom="1.1449053"
     inkscape:cx="-16.595259"
     inkscape:cy="175.99709"
     inkscape:current-layer="svg6"
     showguides="false"
     inkscape:window-width="1920"
     inkscape:window-height="730"
     inkscape:window-x="-6"
     inkscape:window-y="-6"
     inkscape:window-maximized="1">
    <inkscape:grid
       type="xygrid"
       id="grid239"
       units="px"
       spacingx="1.5"
       spacingy="1.5" />
  </sodipodi:namedview>
  <path
     id="rect897"
     style="fill:#73d216;fill-opacity:1;stroke:none;stroke-width:0.363088;stroke-linejoin:round;stroke-opacity:0.580986"
     d="m 36.420776,2.295961 c 5.120294,0.2698197 9.013548,4.1634678 9.283448,9.283814 0.167099,3.171297 0.295898,7.281215 0.295898,12.42041 0,5.139095 -0.128799,9.24948 -0.295898,12.420776 -0.2698,5.120295 -4.163154,9.013648 -9.283448,9.283448 H 11.57959 C 6.459265,45.434609 2.565586,41.541256 2.295776,36.420961 2.128667,33.249665 2.000244,29.13938 2.000244,24.000185 c 0,-5.139195 0.128423,-9.249113 0.295532,-12.42041 0.26981,-5.1203362 4.163479,-9.0140043 9.283814,-9.283814 z"
     sodipodi:nodetypes="ccssccssscc" />
  <path
     style="fill:#2e3436;fill-opacity:1;stroke-width:0.425197;stroke-linejoin:round;stroke-opacity:0.580986"
     d="m 28.125,43.5 h 9 c 1.5,0 1.5,0.75 1.5,2.25 0,1.5 0,2.25 -1.5,2.25 h -9 c -1.5,0 -1.5,-0.75 -1.5,-2.25 0,-1.5 0,-2.25 1.5,-2.25 z"
     id="path5863"
     sodipodi:nodetypes="ccccccc" />
  <path
     style="fill:#2e3436;fill-opacity:1;stroke-width:0.425197;stroke-linejoin:round;stroke-opacity:0.580986"
     d="m 10.875,44.25 h 10.5 c 1.5,0 1.5,0 1.5,1.5 0,1.5 0,1.5 -1.5,1.5 h -10.5 c -1.5,0 -1.5,0 -1.5,-1.5 0,-1.5 0,-1.5 1.5,-1.5 z"
     id="path6182"
     sodipodi:nodetypes="ccccccc" />
  <path
     style="fill:#c4a000;fill-opacity:1;stroke-width:0.425197;stroke-linejoin:round;stroke-opacity:0.580986"
     d="m 25.5,43.5 c 1.5,0 1.5,0.375 1.5,1.875 0,1.5 0,1.875 -1.5,1.875 -1.5,0 -1.5,-0.375 -1.5,-1.875 0,-1.5 0,-1.875 1.5,-1.875 z"
     id="path6184"
     sodipodi:nodetypes="ccccc" />
  <path
     style="fill:#c4a000;fill-opacity:1;stroke-width:0.425197;stroke-linejoin:round;stroke-opacity:0.580986"
     d="m 39.75,43.5 c 1.5,0 1.5,0.375 1.5,1.875 0,1.5 0,1.875 -1.5,1.875 -1.5,0 -1.5,-0.375 -1.5,-1.875 0,-1.5 0,-1.875 1.5,-1.875 z"
     id="path6186"
     sodipodi:nodetypes="ccccc" />
  <path
     style="color:#000000;fill:#4e9a06;stroke-linecap:round;stroke-linejoin:round;fill-opacity:1"
     d="m 7.5,13.21875 c -0.362422,3.6e-5 -0.656214,0.293828 -0.65625,0.65625 v 2.25 c 3.6e-5,0.362422 0.293828,0.656214 0.65625,0.65625 h 33 c 0.362422,-3.6e-5 0.656214,-0.293828 0.65625,-0.65625 v -2.25 C 41.156214,13.512578 40.862422,13.218786 40.5,13.21875 Z"
     id="rect6242"
     sodipodi:nodetypes="ccccccccc" />
  <path
     id="path5919"
     style="fill:#edd400;fill-opacity:1;stroke-width:0.9375;stroke-linecap:round;stroke-linejoin:round"
     d="m 39.75,15 a 1.5,1.5 0 0 1 -1.5,1.5 1.5,1.5 0 0 1 -1.5,-1.5 1.5,1.5 0 0 1 1.5,-1.5 1.5,1.5 0 0 1 1.5,1.5 z" />
  <path
     style="color:#000000;fill:#4e9a06;stroke-linecap:round;stroke-linejoin:round;fill-opacity:1"
     d="m 7.5,17.71875 c -0.362422,3.6e-5 -0.656214,0.293828 -0.65625,0.65625 v 2.25 c 3.6e-5,0.362422 0.293828,0.656214 0.65625,0.65625 h 33 c 0.362422,-3.6e-5 0.656214,-0.293828 0.65625,-0.65625 v -2.25 C 41.156214,18.012578 40.862422,17.718786 40.5,17.71875 Z"
     id="rect6607"
     sodipodi:nodetypes="ccccccccc" />
  <path
     id="path5922"
     style="fill:#edd400;fill-opacity:1;stroke-width:0.9375;stroke-linecap:round;stroke-linejoin:round"
     d="m 39.75,19.5 a 1.5,1.5 0 0 1 -1.5,1.5 1.5,1.5 0 0 1 -1.5,-1.5 1.5,1.5 0 0 1 1.5,-1.5 1.5,1.5 0 0 1 1.5,1.5 z" />
  <path
     style="color:#000000;fill:#4e9a06;stroke-linecap:round;stroke-linejoin:round;fill-opacity:1"
     d="m 7.5,22.21875 c -0.362422,3.6e-5 -0.656214,0.293828 -0.65625,0.65625 v 2.25 c 3.6e-5,0.362422 0.293828,0.656214 0.65625,0.65625 h 33 c 0.362422,-3.6e-5 0.656214,-0.293828 0.65625,-0.65625 v -2.25 C 41.156214,22.512578 40.862422,22.218786 40.5,22.21875 Z"
     id="rect6609"
     sodipodi:nodetypes="ccccccccc" />
  <path
     id="path5924"
     style="fill:#edd400;fill-opacity:1;stroke-width:0.9375;stroke-linecap:round;stroke-linejoin:round"
     d="m 39.75,24 a 1.5,1.5 0 0 1 -1.5,1.5 1.5,1.5 0 0 1 -1.5,-1.5 1.5,1.5 0 0 1 1.5,-1.5 1.5,1.5 0 0 1 1.5,1.5 z" />
  <path
     style="color:#000000;fill:#4e9a06;stroke-linecap:round;stroke-linejoin:round;-inkscape-stroke:none;fill-opacity:1"
     d="m 7.5,26.71875 c -0.362422,3.6e-5 -0.656214,0.293828 -0.65625,0.65625 v 2.25 c 3.6e-5,0.362422 0.293828,0.656214 0.65625,0.65625 h 33 c 0.362422,-3.6e-5 0.656214,-0.293828 0.65625,-0.65625 v -2.25 C 41.156214,27.012578 40.862422,26.718786 40.5,26.71875 Z"
     id="rect6611"
     sodipodi:nodetypes="ccccccccc" />
  <path
     id="path6188"
     style="fill:#edd400;fill-opacity:1;stroke-width:0.9375;stroke-linecap:round;stroke-linejoin:round"
     d="m 39.75,28.5 a 1.5,1.5 0 0 1 -1.5,1.5 1.5,1.5 0 0 1 -1.5,-1.5 1.5,1.5 0 0 1 1.5,-1.5 1.5,1.5 0 0 1 1.5,1.5 z" />
</svg>
