<?xml version="1.0" encoding="UTF-8" standalone="no"?>
<svg
   fill="none"
   viewBox="0 0 48 48"
   height="256"
   width="256"
   version="1.1"
   id="svg6"
   sodipodi:docname="geehy-link.svg"
   inkscape:version="1.3 (0e150ed6c4, 2023-07-21)"
   xmlns:inkscape="http://www.inkscape.org/namespaces/inkscape"
   xmlns:sodipodi="http://sodipodi.sourceforge.net/DTD/sodipodi-0.dtd"
   xmlns="http://www.w3.org/2000/svg"
   xmlns:svg="http://www.w3.org/2000/svg">
  <defs
     id="defs10" />
  <sodipodi:namedview
     id="namedview8"
     pagecolor="#ffffff"
     bordercolor="#666666"
     borderopacity="1.0"
     inkscape:showpageshadow="2"
     inkscape:pageopacity="0.0"
     inkscape:pagecheckerboard="true"
     inkscape:deskcolor="#d1d1d1"
     showgrid="true"
     inkscape:zoom="2.2898106"
     inkscape:cx="87.343468"
     inkscape:cy="178.39903"
     inkscape:current-layer="svg6"
     showguides="false"
     inkscape:window-width="3840"
     inkscape:window-height="1494"
     inkscape:window-x="-11"
     inkscape:window-y="-11"
     inkscape:window-maximized="1">
    <inkscape:grid
       type="xygrid"
       id="grid239"
       units="px"
       spacingx="1.5"
       spacingy="1.5"
       originx="0"
       originy="0"
       visible="true" />
  </sodipodi:namedview>
  <g
     id="g8"
     transform="translate(-2.25)">
    <path
       id="rect13302"
       style="fill:#babdb6;fill-opacity:1;stroke:none;stroke-width:1.3125;stroke-linecap:round;stroke-linejoin:round;stroke-opacity:1"
       d="m 40.5,9 v 30 c 0,3 -3,6 -6,6 H 18 c -3,0 -6,-3 -6,-6 V 9 c 0,-3 3,-6 6,-6 h 16.5 c 3,0 6,3 6,6 z"
       sodipodi:nodetypes="ccccccccc" />
    <path
       id="path1"
       style="fill:#888a85;fill-opacity:1;stroke:none;stroke-width:1.51938;stroke-linecap:round;stroke-linejoin:round;stroke-opacity:1"
       d="m 38.115656,11.645344 -1.5435,6.94575 c -0.77175,3.472875 -4.244625,3.472875 -5.981062,3.472875 H 20.172469 c -1.736438,0 -3.472875,0 -4.244625,-3.472875 l -1.5435,-6.94575 c -1.157625,-5.2093128 2.31525,-5.2093128 4.051687,-5.2093128 h 15.627938 c 1.736437,0 5.209312,0 4.051687,5.2093128 z"
       sodipodi:nodetypes="ccccccccc" />
    <text
       xml:space="preserve"
       style="font-style:italic;font-variant:normal;font-weight:normal;font-stretch:normal;font-size:2.5px;line-height:1;font-family:'Source Sans Pro';-inkscape-font-specification:'Source Sans Pro, Italic';font-variant-ligatures:normal;font-variant-caps:normal;font-variant-numeric:normal;font-variant-east-asian:normal;fill:#ffffff;fill-opacity:1;stroke:none;stroke-width:0.708662;stroke-linecap:round;stroke-opacity:1"
       x="21.101248"
       y="18.424288"
       id="text3"><tspan
         sodipodi:role="line"
         id="tspan3"
         style="font-style:italic;font-variant:normal;font-weight:normal;font-stretch:normal;font-size:2.5px;font-family:'Source Sans Pro';-inkscape-font-specification:'Source Sans Pro, Italic';font-variant-ligatures:normal;font-variant-caps:normal;font-variant-numeric:normal;font-variant-east-asian:normal;fill:#ffffff;fill-opacity:1;stroke:none;stroke-width:0.708661"
         x="21.101248"
         y="18.424288">GEEHY-LINK</tspan></text>
    <path
       id="rect3"
       style="stroke:#ffffff;stroke-width:0.1875;stroke-linecap:butt"
       d="m 22.570832,18.69923 -1.206323,1.206323 v 0 l -2.12132,-2.12132 v 0 l 2.65165,-2.65165 1.274191,1.274191"
       sodipodi:nodetypes="ccccccc" />
    <g
       id="g4"
       transform="matrix(0.81,0,0,0.81,4.38,1.97625)">
      <path
         style="fill:#ffffff;fill-opacity:1;stroke-width:0.370043;stroke-linejoin:round;stroke-opacity:0.580986"
         d="m 16.857869,7.5929672 h 20.284262 c 1.425,0 1.425,1.3361456 1.425,2.5320328 0,1.195887 0,2.532032 -1.425,2.532032 H 16.857869 c -1.425,0 -1.425,-1.336145 -1.425,-2.532032 0,-1.1958872 0,-2.5320328 1.425,-2.5320328 z"
         id="path3"
         sodipodi:nodetypes="ccccccc" />
    </g>
    <g
       id="g3"
       transform="matrix(0.81,0,0,0.81,4.38,1.97625)">
      <path
         style="fill:#2e3436;fill-opacity:1;stroke-width:0.425197;stroke-linejoin:round;stroke-opacity:0.580986"
         d="m 17.249999,7.875 h 19.500002 c 1.5,0 1.5,0.75 1.5,2.25 0,1.5 0,2.25 -1.5,2.25 H 17.249999 c -1.5,0 -1.5,-0.75 -1.5,-2.25 0,-1.5 0,-2.25 1.5,-2.25 z"
         id="path6182"
         sodipodi:nodetypes="ccccccc" />
      <path
         id="path14304"
         style="fill:#888a85;fill-opacity:1;stroke:none;stroke-width:1.3125;stroke-linecap:round;stroke-linejoin:round;stroke-opacity:1"
         d="m 18.374999,-2.0046296 c -0.75,0 -1.125,0.3750007 -1.125,1.12499997 V 9.375 c 0,0.749999 0.375,1.125 1.125,1.125 h 17.250002 c 0.75,0 1.125,-0.375001 1.125,-1.125 V -0.87962963 c 0,-0.74999927 -0.375,-1.12499997 -1.125,-1.12499997 z"
         sodipodi:nodetypes="sccssccss" />
    </g>
    <path
       style="fill:#d3d7cf;fill-opacity:1;stroke:none;stroke-width:0.1875;stroke-linecap:butt;stroke-dasharray:none;stroke-opacity:1"
       d="m 12,30 v -3 h 3 c 1.5,0 1.5,3 0,3 z"
       id="path4"
       sodipodi:nodetypes="ccccc" />
    <path
       style="fill:#d3d7cf;fill-opacity:1;stroke:none;stroke-width:0.1875;stroke-linecap:butt;stroke-dasharray:none;stroke-opacity:1"
       d="m 12,37.5 v -3 h 3 c 1.5,0 1.5,3 0,3 z"
       id="path5"
       sodipodi:nodetypes="ccccc" />
    <path
       style="fill:#d3d7cf;fill-opacity:1;stroke:none;stroke-width:0.1875;stroke-linecap:butt;stroke-dasharray:none;stroke-opacity:1"
       d="m 40.5,37.5 v -3 h -3 c -1.5,0 -1.5,3 0,3 z"
       id="path6"
       sodipodi:nodetypes="ccccc" />
    <path
       style="fill:#d3d7cf;fill-opacity:1;stroke:none;stroke-width:0.1875;stroke-linecap:butt;stroke-dasharray:none;stroke-opacity:1"
       d="m 40.5,30 v -3 h -3 c -1.5,0 -1.5,3 0,3 z"
       id="path7"
       sodipodi:nodetypes="ccccc" />
    <path
       style="fill:#d3d7cf;fill-opacity:1;stroke:none;stroke-width:0.274519;stroke-linecap:butt;stroke-dasharray:none;stroke-opacity:1"
       d="m 24.05385,33.69615 c -2.19615,0 -2.19615,-4.3923 0,-4.3923 h 4.3923 c 2.19615,0 2.19615,4.3923 0,4.3923 z"
       id="path8"
       sodipodi:nodetypes="ccccc" />
  </g>
</svg>
