<?xml version="1.0" encoding="UTF-8" standalone="no"?>
<svg
   fill="none"
   viewBox="0 0 48 48"
   height="256"
   width="256"
   version="1.1"
   id="svg6"
   sodipodi:docname="jlink.svg"
   inkscape:version="1.2.1 (9c6d41e410, 2022-07-14)"
   xmlns:inkscape="http://www.inkscape.org/namespaces/inkscape"
   xmlns:sodipodi="http://sodipodi.sourceforge.net/DTD/sodipodi-0.dtd"
   xmlns="http://www.w3.org/2000/svg"
   xmlns:svg="http://www.w3.org/2000/svg">
  <defs
     id="defs10" />
  <sodipodi:namedview
     id="namedview8"
     pagecolor="#ffffff"
     bordercolor="#666666"
     borderopacity="1.0"
     inkscape:showpageshadow="2"
     inkscape:pageopacity="0.0"
     inkscape:pagecheckerboard="true"
     inkscape:deskcolor="#d1d1d1"
     showgrid="true"
     inkscape:zoom="2.2898106"
     inkscape:cx="109.17934"
     inkscape:cy="127.30311"
     inkscape:current-layer="svg6"
     showguides="false"
     inkscape:window-width="1920"
     inkscape:window-height="730"
     inkscape:window-x="-6"
     inkscape:window-y="-6"
     inkscape:window-maximized="1">
    <inkscape:grid
       type="xygrid"
       id="grid239"
       units="px"
       spacingx="1.5"
       spacingy="1.5" />
  </sodipodi:namedview>
  <path
     id="rect897"
     style="fill:#2e3436;fill-opacity:1;stroke:none;stroke-width:0.363088;stroke-linejoin:round;stroke-opacity:0.580986"
     d="m 30.420776,2.295961 c 5.120294,0.26982 9.013548,4.163468 9.283448,9.283814 0.167099,3.171297 0.295898,7.281215 0.295898,12.42041 0,5.139095 -0.128799,9.24948 -0.295898,12.420776 -0.2698,5.120295 -4.163154,9.013648 -9.283448,9.283448 H 17.57959 C 12.459265,45.434609 8.565586,41.541256 8.295776,36.420961 8.128667,33.249665 8.000244,29.13938 8.000244,24.000185 c 0,-5.139195 0.128423,-9.249113 0.295532,-12.42041 0.26981,-5.120336 4.163479,-9.014004 9.283814,-9.283814 z"
     sodipodi:nodetypes="ccssccssscc" />
  <path
     fill="#eeeeec"
     d="m 14.557619,6.9325717 c -0.659165,-0.03895 -0.941444,-0.669812 -0.58186,-1.223614 0.216953,-0.334161 0.483259,-0.734553 0.793941,-1.183925 0.377951,-0.546642 0.733994,-0.946634 1.023699,-1.228991 0.405023,-0.3947223 1.008179,-0.3947223 1.413203,0 0.289704,0.2823569 0.645747,0.682349 1.023698,1.228991 0.310682,0.449372 0.576989,0.849764 0.793942,1.183925 0.359583,0.553802 0.07731,1.18467 -0.581887,1.223614 -0.466915,0.02755 -1.097329,0.04776 -1.942355,0.04776 -0.845025,0 -1.47544,-0.02021 -1.942381,-0.04776 z"
     id="path8049"
     style="stroke-width:0.2662;fill:#eeeeec;fill-opacity:1" />
  <path
     fill="#eeeeec"
     d="m 29.557619,6.9325717 c -0.659165,-0.03895 -0.941444,-0.669812 -0.58186,-1.223614 0.216953,-0.334161 0.483259,-0.734553 0.793941,-1.183925 0.377951,-0.546642 0.733994,-0.946634 1.023699,-1.228991 0.405023,-0.3947223 1.008179,-0.3947223 1.413203,0 0.289704,0.2823569 0.645747,0.682349 1.023698,1.228991 0.310682,0.449372 0.576989,0.849764 0.793942,1.183925 0.359583,0.553802 0.07731,1.18467 -0.581887,1.223614 -0.466915,0.02755 -1.097329,0.04776 -1.942355,0.04776 -0.845025,0 -1.47544,-0.02021 -1.942381,-0.04776 z"
     id="path8209"
     style="stroke-width:0.2662;fill:#eeeeec;fill-opacity:1" />
  <path
     fill="#eeeeec"
     d="m 22.057619,41.067428 c -0.659165,0.03895 -0.941444,0.669812 -0.58186,1.223614 0.216953,0.334161 0.483259,0.734553 0.793941,1.183925 0.377951,0.546642 0.733994,0.946634 1.023699,1.228991 0.405023,0.394723 1.008179,0.394723 1.413203,0 0.289704,-0.282357 0.645747,-0.682349 1.023698,-1.228991 0.310682,-0.449372 0.576989,-0.849764 0.793942,-1.183925 0.359583,-0.553802 0.07731,-1.18467 -0.581887,-1.223614 C 25.47544,41.039878 24.845026,41.019668 24,41.019668 c -0.845025,0 -1.47544,0.02021 -1.942381,0.04776 z"
     id="path8209-1"
     style="stroke-width:0.2662;fill:#eeeeec;fill-opacity:1" />
  <path
     id="rect7030"
     style="fill:#eeeeec;fill-opacity:1;stroke-width:0.527344;stroke-linecap:round;stroke-linejoin:round"
     d="M 12.143555 14.292847 C 12.000523 14.292847 11.873162 14.364492 11.781372 14.462402 C 11.689443 14.560314 11.625 14.690518 11.625 14.835938 C 11.625 14.837457 11.627959 14.856168 11.630859 14.864868 C 11.632159 14.873558 11.629159 14.882139 11.630859 14.887939 C 11.633699 14.899519 11.639312 14.911277 11.642212 14.921997 C 11.650772 14.942277 11.664977 14.962533 11.675537 14.984253 C 11.698377 15.027706 11.725416 15.079382 11.764526 15.142822 C 11.843322 15.269992 11.956267 15.438005 12.099243 15.645996 C 12.385165 16.061949 12.793481 16.628555 13.275879 17.281494 C 13.720906 17.883886 14.125851 18.436104 14.418823 18.843018 C 14.565282 19.046374 14.683156 19.212384 14.764526 19.329346 C 14.798216 19.377717 14.817046 19.412665 14.837036 19.442505 C 14.817056 19.472341 14.798216 19.50765 14.764526 19.55603 C 14.68316 19.673061 14.565281 19.838801 14.418823 20.042358 C 14.12585 20.449273 13.720906 21.00738 13.275879 21.609741 C 12.79348 22.262711 12.385165 22.823428 12.099243 23.23938 C 11.956211 23.447371 11.843266 23.62136 11.764526 23.748413 C 11.725126 23.811853 11.698087 23.863532 11.675537 23.906982 C 11.664117 23.930152 11.649912 23.949258 11.642212 23.969238 C 11.639372 23.977928 11.633759 23.986579 11.630859 23.998169 C 11.629159 24.003959 11.632159 24.01254 11.630859 24.02124 C 11.629559 24.02992 11.625 24.047271 11.625 24.050171 C 11.625 24.162278 11.681948 24.255785 11.742188 24.344604 C 11.743927 24.375894 11.756383 24.405449 11.775513 24.429199 C 11.777413 24.431199 11.778472 24.432159 11.781372 24.435059 C 11.795652 24.449539 11.820476 24.444016 11.837036 24.458496 L 11.831177 24.469849 C 11.848307 24.475675 11.864508 24.475708 11.881348 24.475708 C 11.883248 24.475737 11.884307 24.475737 11.887207 24.475708 C 11.975425 24.532774 12.06548 24.598167 12.16626 24.588867 C 12.304724 24.57728 12.431987 24.498453 12.533936 24.379395 C 12.565055 24.342895 12.627571 24.264859 12.729492 24.130737 C 12.831128 23.996615 12.9675 23.811559 13.130859 23.59314 C 13.457549 23.156301 13.884944 22.574332 14.34082 21.958008 C 14.906297 21.19357 15.320357 20.618493 15.595459 20.215576 C 15.733067 20.014248 15.837667 19.859495 15.907837 19.740234 C 15.942947 19.680562 15.971343 19.630974 15.991333 19.587524 C 16.011323 19.543787 16.030518 19.512507 16.030518 19.446167 C 16.030518 19.379827 16.010463 19.354043 15.991333 19.310303 C 15.971353 19.26656 15.942957 19.217339 15.907837 19.157959 C 15.837606 19.038611 15.73301 18.878145 15.595459 18.676758 C 15.320243 18.273871 14.906297 17.698427 14.34082 16.93396 C 13.373111 15.625705 12.902305 14.983392 12.640137 14.65979 C 12.509095 14.498148 12.433897 14.414353 12.355957 14.359863 C 12.278017 14.305453 12.185031 14.297607 12.143921 14.297607 L 12.143555 14.292847 z M 14.544434 14.312622 C 14.286225 14.322573 14.056274 14.557052 14.056274 14.841797 C 14.056274 14.844607 14.058868 14.876197 14.061768 14.887207 C 14.064368 14.898797 14.064327 14.907071 14.067627 14.915771 C 14.073327 14.933161 14.081732 14.949371 14.090332 14.967041 C 14.107462 15.002387 14.129659 15.044623 14.157349 15.091553 C 14.21302 15.18512 14.294008 15.305208 14.391357 15.447876 C 14.586064 15.733212 14.854832 16.102856 15.160767 16.505859 C 15.752053 17.28484 16.414565 18.164511 16.632935 18.457764 C 16.742564 18.604922 16.854873 18.754688 16.945312 18.87085 C 16.990422 18.929079 17.02824 18.978666 17.0625 19.018066 C 17.07963 19.038346 17.096401 19.05333 17.112671 19.06897 C 17.121241 19.07766 17.129815 19.083341 17.141235 19.092041 C 17.146945 19.094961 17.149481 19.103819 17.158081 19.109619 C 17.163791 19.112559 17.183746 19.121338 17.186646 19.121338 C 17.198065 19.127178 17.209777 19.12979 17.220337 19.13269 C 17.226047 19.133037 17.231483 19.133037 17.237183 19.13269 L 26.459839 19.13269 L 36.06189 19.13269 C 36.06379 19.132719 36.064849 19.132719 36.067749 19.13269 C 36.139696 19.13044 36.197137 19.090309 36.235107 19.047729 C 36.273357 19.005149 36.299474 18.956848 36.318604 18.906738 C 36.356853 18.805929 36.371534 18.689901 36.374634 18.572754 C 36.377504 18.455433 36.368786 18.337792 36.329956 18.233276 C 36.309966 18.181136 36.284937 18.12951 36.240967 18.08606 C 36.197857 18.04377 36.130282 18.013295 36.062622 18.012451 L 26.605591 18.012451 L 17.633423 18.012451 L 16.317627 16.258667 C 15.926044 15.740892 15.571809 15.285286 15.297363 14.95166 C 15.160041 14.784804 15.041484 14.648797 14.951294 14.549927 C 14.90619 14.50039 14.867593 14.456985 14.834473 14.425415 C 14.801352 14.393835 14.790588 14.376427 14.728638 14.351807 C 14.728666 14.349907 14.728666 14.348847 14.728638 14.345947 L 14.725342 14.34375 C 14.665249 14.32004 14.604024 14.310322 14.544434 14.312622 z M 11.757202 17.031372 C 11.750327 17.03186 11.743218 17.032802 11.736328 17.034302 L 11.736694 17.036865 C 11.671315 17.051348 11.624715 17.110433 11.625 17.178223 L 11.625 19.441406 L 11.625 21.70459 C 11.624286 21.8445 11.800838 21.902813 11.881348 21.789551 L 12.689941 20.69751 C 12.913482 20.395546 13.116188 20.112916 13.26416 19.899536 C 13.338103 19.792934 13.399685 19.700587 13.442505 19.633667 C 13.465345 19.600067 13.479622 19.572466 13.493042 19.548706 C 13.498752 19.537116 13.504188 19.528258 13.509888 19.514648 C 13.512728 19.508858 13.518706 19.503167 13.521606 19.491577 C 13.523206 19.485787 13.5271 19.474365 13.5271 19.474365 C 13.5273 19.473515 13.5271 19.44087 13.5271 19.440308 C 13.5271 19.439688 13.5273 19.414277 13.5271 19.411377 C 13.5269 19.410537 13.524506 19.394106 13.521606 19.388306 C 13.518766 19.379616 13.512788 19.371034 13.509888 19.365234 C 13.504178 19.353654 13.498742 19.341897 13.493042 19.331177 C 13.478772 19.307997 13.463915 19.280182 13.442505 19.246582 C 13.399681 19.179662 13.3381 19.08695 13.26416 18.980347 C 13.116274 18.766852 12.913368 18.484731 12.689941 18.182739 L 11.881348 17.090698 C 11.856728 17.055928 11.81855 17.034672 11.77771 17.031372 C 11.7709 17.030822 11.764077 17.030885 11.757202 17.031372 z M 17.256958 19.746826 C 17.239838 19.745726 17.223057 19.747586 17.206787 19.752686 C 17.126279 19.783971 17.116583 19.812986 17.078613 19.854126 C 17.040355 19.895549 16.998119 19.947532 16.950439 20.007202 C 16.855085 20.126551 16.741998 20.278825 16.632568 20.425781 C 16.415023 20.717807 15.751687 21.598676 15.1604 22.377686 C 14.863488 22.768812 14.593189 23.138518 14.396484 23.424316 C 14.298274 23.567128 14.219286 23.68753 14.162476 23.78064 C 14.133926 23.827276 14.112589 23.870681 14.095459 23.905151 C 14.086889 23.922531 14.075861 23.934342 14.067261 23.950562 C 14.064361 23.959252 14.064301 23.967902 14.061401 23.979492 C 14.058601 23.991072 14.055542 24.022236 14.055542 24.024536 C 14.055542 24.140699 14.114843 24.234053 14.178223 24.324463 C 14.178195 24.326363 14.178195 24.327422 14.178223 24.330322 C 14.181083 24.356392 14.192418 24.383071 14.211548 24.403931 C 14.234398 24.430001 14.273783 24.421181 14.300903 24.443481 L 14.295044 24.449341 C 14.303604 24.44996 14.309515 24.44996 14.318115 24.449341 C 14.41033 24.516839 14.504561 24.592752 14.613647 24.579712 C 14.761533 24.562331 14.889122 24.471752 15.003662 24.336182 C 15.061903 24.267237 15.243214 24.037971 15.500244 23.702637 C 15.757474 23.367303 16.083439 22.932296 16.425659 22.480225 L 17.630127 20.873657 L 26.601929 20.873657 L 36.05896 20.873657 C 36.124624 20.873397 36.185488 20.844728 36.226318 20.805908 C 36.267148 20.766508 36.291341 20.716974 36.310181 20.670044 C 36.347871 20.576477 36.365766 20.47501 36.365479 20.370117 C 36.365389 20.264962 36.348721 20.158467 36.310181 20.064697 C 36.290191 20.017769 36.266858 19.973726 36.226318 19.934326 C 36.185778 19.894926 36.12462 19.861562 36.05896 19.860718 L 26.479248 19.747559 L 17.256958 19.746826 z M 18.79834 21.615234 C 18.404957 21.615234 18.088326 21.676926 17.862671 21.827271 C 17.637132 21.977904 17.5193 22.22147 17.5177 22.511353 C 17.51657 22.649241 17.523115 22.772091 17.553955 22.88269 C 17.586215 22.993349 17.651688 23.092674 17.742188 23.169434 C 17.92319 23.322964 18.183956 23.400698 18.620361 23.503418 C 18.867313 23.561644 19.068851 23.625067 19.200806 23.689087 C 19.266756 23.721237 19.318097 23.752898 19.341797 23.774048 C 19.339327 23.791428 19.333001 23.822723 19.263062 23.858643 C 19.185407 23.898333 19.061489 23.927856 18.907837 23.927856 C 18.625198 23.927856 18.585773 23.916285 18.390381 23.742188 C 18.16998 23.545781 17.953372 23.436881 17.752441 23.498291 C 17.651949 23.528998 17.574531 23.623238 17.543701 23.726074 C 17.512621 23.828911 17.517794 23.942109 17.549194 24.071045 C 17.589165 24.232688 17.712313 24.34925 17.868164 24.44751 C 18.024044 24.545712 18.221041 24.625922 18.437988 24.670532 C 18.475675 24.676372 18.605619 24.671475 18.735718 24.681885 C 19.064492 24.702163 19.65991 24.661769 19.985229 24.3479 C 20.074589 24.260996 20.138909 24.174198 20.178589 24.067017 C 20.217979 23.959545 20.230957 23.840849 20.230957 23.690186 C 20.230957 23.440482 20.166792 23.225875 19.990356 23.080078 C 19.813922 22.934369 19.555436 22.852294 19.169678 22.767334 C 18.894462 22.706791 18.676181 22.644235 18.537231 22.581665 C 18.469853 22.551255 18.425637 22.516984 18.401367 22.496704 C 18.407077 22.488014 18.412573 22.458939 18.474243 22.422729 C 18.544474 22.38101 18.649829 22.348389 18.751465 22.348389 C 18.894212 22.348389 19.051037 22.403037 19.190186 22.507324 C 19.430857 22.687216 19.661715 22.76456 19.859619 22.6875 C 19.958686 22.648975 20.042102 22.558306 20.063232 22.449097 C 20.083212 22.339888 20.05771 22.227617 20.00061 22.104126 C 19.9221 21.929449 19.762014 21.804451 19.55603 21.727661 C 19.350189 21.650893 19.0964 21.615967 18.797974 21.615967 L 18.79834 21.615234 z M 24.789185 21.615234 C 24.299992 21.615234 23.895753 21.754476 23.612915 22.02356 C 23.32999 22.292673 23.184082 22.682763 23.184082 23.15332 C 23.184082 23.837169 23.516156 24.309169 24.109497 24.574951 C 24.237113 24.632021 24.283871 24.654312 24.344971 24.670532 C 24.53825 24.719782 24.764603 24.714401 24.982178 24.682251 C 25.199725 24.64894 25.407069 24.589099 25.557495 24.480469 C 25.586055 24.460189 25.600783 24.446191 25.620483 24.432861 C 25.658171 24.522373 25.701269 24.607138 25.782349 24.655518 C 25.87542 24.710848 25.986978 24.709039 26.090698 24.681519 C 26.134954 24.669929 26.189236 24.646088 26.232056 24.596558 C 26.274876 24.547024 26.298435 24.486185 26.310425 24.421875 C 26.333275 24.293257 26.33606 24.119177 26.33606 23.806641 C 26.33606 23.604154 26.338997 23.450257 26.324707 23.323608 C 26.310431 23.197018 26.28133 23.082224 26.19397 23.000244 C 26.106609 22.918267 25.992818 22.895916 25.864746 22.888916 C 25.736845 22.883126 25.578789 22.889595 25.373291 22.900635 C 25.145752 22.912225 25.031997 22.909032 24.918457 22.958862 C 24.861641 22.984933 24.803433 23.048744 24.782593 23.107544 C 24.762608 23.166351 24.762451 23.208716 24.762451 23.256226 C 24.762451 23.301706 24.763863 23.346701 24.776733 23.393921 C 24.788153 23.440851 24.81769 23.492386 24.860229 23.526855 C 24.945306 23.595805 25.031847 23.60215 25.148071 23.61145 C 25.305666 23.62594 25.354336 23.634977 25.388306 23.643677 C 25.362611 23.679306 25.259722 23.789863 25.174072 23.834473 C 24.912847 23.971498 24.653926 23.947284 24.457764 23.819824 C 24.26163 23.691206 24.123047 23.458957 24.123047 23.146362 C 24.123047 22.791504 24.305282 22.545597 24.536133 22.435547 C 24.766812 22.325468 25.047592 22.344095 25.289062 22.578735 C 25.420674 22.706199 25.568343 22.786671 25.723022 22.790771 C 25.877475 22.793639 26.032661 22.710348 26.120361 22.568115 C 26.196621 22.445 26.188664 22.283357 26.125854 22.165283 C 26.062475 22.047093 25.959366 21.95762 25.828125 21.87854 C 25.56547 21.720665 25.189209 21.618896 24.78772 21.618896 L 24.789185 21.615234 z M 28.213257 21.616333 C 28.173042 21.615664 28.132659 21.615765 28.092407 21.617065 C 28.038738 21.618775 27.985257 21.622386 27.932007 21.627686 L 27.930908 21.626953 C 27.71793 21.647231 27.514235 21.697829 27.334717 21.785889 C 27.086337 21.907845 26.898389 22.056838 26.775513 22.263062 C 26.652751 22.469314 26.600133 22.724829 26.582153 23.042725 C 26.573623 23.194806 26.576593 23.34707 26.588013 23.483276 C 26.599433 23.619427 26.608108 23.730084 26.645508 23.822754 C 26.79425 24.187462 27.149346 24.490259 27.555176 24.623657 L 27.560669 24.623657 C 27.996989 24.76705 28.519452 24.725922 28.893677 24.501709 C 28.929077 24.481429 28.950129 24.466485 28.977539 24.453735 C 29.006088 24.497189 29.042229 24.541197 29.081909 24.581177 C 29.135582 24.63564 29.198456 24.684882 29.280396 24.697632 C 29.362332 24.709222 29.443942 24.686234 29.510742 24.650024 C 29.593251 24.604832 29.668728 24.49854 29.693848 24.374268 C 29.719543 24.249995 29.719482 24.094272 29.719482 23.822754 C 29.719482 23.597382 29.718371 23.430367 29.699341 23.302734 C 29.679355 23.175276 29.657103 23.069567 29.568604 22.995117 C 29.47696 22.918637 29.391472 22.917199 29.270508 22.905029 C 29.149459 22.893429 29.004203 22.89047 28.831421 22.89917 C 28.57048 22.91076 28.432759 22.913734 28.313965 22.957764 C 28.254586 22.980939 28.196384 23.034049 28.172974 23.095459 C 28.150094 23.15716 28.153198 23.201758 28.153198 23.249268 C 28.153198 23.295904 28.15461 23.342046 28.16748 23.392456 C 28.18176 23.442862 28.219044 23.498648 28.266724 23.530518 C 28.361794 23.594538 28.453057 23.594062 28.595947 23.604492 C 28.673604 23.610292 28.731906 23.624763 28.763306 23.636353 C 28.749036 23.662422 28.721996 23.699097 28.674316 23.748047 C 28.421655 24.004412 27.918449 23.972077 27.670898 23.673706 C 27.533287 23.507719 27.51416 23.451362 27.51416 23.143433 C 27.51416 22.835444 27.531291 22.77374 27.670898 22.607666 C 27.932695 22.29183 28.425211 22.292125 28.711304 22.613525 C 28.884884 22.80819 29.13244 22.847674 29.317383 22.756714 C 29.409883 22.711237 29.489939 22.633139 29.526489 22.528564 C 29.563039 22.42399 29.549235 22.301552 29.494995 22.183594 C 29.355388 21.872592 28.9824 21.715803 28.569946 21.648193 C 28.454 21.629143 28.333902 21.618339 28.213257 21.616333 z M 22.886719 21.684082 L 22.886353 21.685547 L 21.835327 21.69104 C 21.471352 21.69104 21.1997 21.697068 21.004395 21.711548 C 20.906756 21.720238 20.82783 21.728928 20.76416 21.743408 C 20.700495 21.757888 20.647282 21.760596 20.586182 21.822876 C 20.524522 21.886895 20.520296 21.937002 20.507446 22.003052 C 20.493176 22.069389 20.490412 22.148737 20.481812 22.252441 C 20.467542 22.460142 20.456177 22.7547 20.456177 23.148926 C 20.456177 23.617224 20.461822 23.907639 20.481812 24.103638 C 20.49894 24.299751 20.530039 24.423026 20.612549 24.506836 L 20.618408 24.506836 C 20.641238 24.527106 20.667937 24.535796 20.696777 24.538696 C 20.735321 24.556076 20.771505 24.586494 20.816895 24.596924 C 20.891978 24.614304 20.981655 24.622901 21.083862 24.633911 C 21.288846 24.657081 21.543717 24.675558 21.799805 24.676758 C 22.055893 24.677768 22.315498 24.665177 22.526733 24.644897 C 22.632366 24.636207 22.724509 24.624344 22.803589 24.607544 C 22.88267 24.590164 22.941542 24.577326 23.007202 24.528076 C 23.072583 24.478829 23.130277 24.42998 23.153687 24.33728 C 23.176527 24.244582 23.145351 24.158778 23.106812 24.093018 C 23.081118 24.048695 23.035527 24.006692 22.981567 23.976562 C 22.927606 23.946153 22.866629 23.925226 22.792969 23.912476 C 22.645654 23.886406 22.437838 23.873568 22.08728 23.864868 L 21.402832 23.847656 L 21.402832 23.656494 L 21.402832 23.470825 L 21.914795 23.470825 C 22.269178 23.470825 22.509435 23.45083 22.683472 23.38623 C 22.770549 23.353786 22.847468 23.305155 22.892578 23.221436 C 22.937718 23.137428 22.928417 23.037989 22.898438 22.956299 C 22.88131 22.909369 22.845737 22.852417 22.794067 22.818237 C 22.74239 22.784347 22.687822 22.765527 22.621582 22.754517 C 22.489399 22.734236 22.300756 22.734375 21.98877 22.734375 L 21.403564 22.734375 L 21.403564 22.580566 L 21.403564 22.421265 L 22.056885 22.404053 L 22.851562 22.389404 C 22.924078 22.388561 22.980527 22.329836 22.987427 22.256836 L 23.013062 22.055054 L 23.033203 21.848511 C 23.044622 21.759864 22.974939 21.680582 22.886719 21.684082 z M 34.487915 21.699829 C 34.354847 21.699229 34.19855 21.701755 34.012573 21.706055 L 34.005249 21.705688 L 33.06958 21.72583 C 32.993064 21.727067 32.934816 21.791389 32.933716 21.869019 L 32.913574 23.09436 C 32.907826 23.433374 32.905181 23.758027 32.908081 24.001099 C 32.909611 24.122764 32.916534 24.226329 32.919434 24.303589 C 32.921334 24.342409 32.921993 24.37194 32.925293 24.39917 C 32.926723 24.41365 32.933379 24.422257 32.936279 24.436157 C 32.935779 24.450637 32.937339 24.469361 32.942139 24.484131 L 32.947998 24.484131 C 32.962278 24.518891 32.99612 24.525542 33.02124 24.547852 L 33.006592 24.55957 C 33.018012 24.56541 33.035576 24.568023 33.048706 24.570923 C 33.078386 24.591203 33.095955 24.631437 33.127075 24.640137 C 33.199591 24.660377 33.27995 24.660189 33.36731 24.651489 L 33.60791 24.625488 C 33.677855 24.619694 33.729754 24.563814 33.733154 24.492554 L 33.75293 23.983521 L 33.773071 23.623169 L 34.15979 23.637451 L 34.578003 23.654663 L 34.620117 23.845825 C 34.684068 24.1612 34.714106 24.33502 34.787476 24.466187 C 34.824022 24.531656 34.880264 24.580405 34.944214 24.609375 C 35.008165 24.638345 35.0687 24.650882 35.13208 24.656982 C 35.225437 24.665672 35.306982 24.66874 35.388062 24.639771 C 35.469142 24.613699 35.545804 24.553842 35.586914 24.475342 C 35.669134 24.318046 35.656025 24.133188 35.612915 23.865234 C 35.592935 23.736906 35.558756 23.607267 35.523926 23.49939 C 35.48881 23.391628 35.463431 23.31615 35.388062 23.23938 L 35.382202 23.233521 C 35.384842 23.233058 35.402391 23.191035 35.471191 23.106445 C 35.81721 22.689335 35.709054 22.063148 35.240845 21.817383 C 35.077899 21.73091 34.887117 21.701729 34.487915 21.699829 z M 30.844482 21.700928 C 30.703303 21.702038 30.589591 21.705382 30.497681 21.711182 C 30.405752 21.716982 30.33799 21.726028 30.27832 21.743408 C 30.218652 21.757895 30.156072 21.777113 30.110962 21.849243 C 30.109942 21.850883 30.102143 21.872404 30.099243 21.881104 C 30.096373 21.889794 30.087861 21.898405 30.084961 21.907104 C 30.082061 21.921584 30.082768 21.930558 30.079468 21.944458 C 30.073748 21.970528 30.068086 21.99768 30.065186 22.03418 C 30.056576 22.107469 30.056603 22.202165 30.050903 22.31543 C 30.039483 22.54138 30.025269 22.839481 30.025269 23.15332 C 30.024839 23.620401 30.033773 23.907544 30.050903 24.102905 C 30.062323 24.240503 30.10505 24.312222 30.14502 24.389282 C 30.16215 24.421435 30.156511 24.481484 30.181641 24.506104 C 30.207336 24.532173 30.248611 24.548876 30.286011 24.548584 L 30.29187 24.548584 C 30.364956 24.590004 30.434282 24.630835 30.558472 24.644165 C 30.732052 24.661555 30.980076 24.664307 31.373657 24.664307 C 31.642878 24.664037 31.898039 24.655755 32.095459 24.644165 C 32.194239 24.638375 32.275237 24.626864 32.341187 24.618164 C 32.374016 24.615224 32.4044 24.612245 32.42981 24.606445 C 32.44123 24.603705 32.458428 24.600893 32.471558 24.595093 C 32.477278 24.592993 32.47724 24.593133 32.48584 24.589233 C 32.4944 24.586303 32.508575 24.577851 32.511475 24.574951 C 32.583135 24.528315 32.617095 24.464502 32.637085 24.399902 C 32.657095 24.336751 32.659601 24.263963 32.651001 24.192993 C 32.645291 24.147222 32.642679 24.084481 32.598999 24.023071 C 32.555602 23.961654 32.481857 23.934036 32.410767 23.917236 C 32.268592 23.883606 32.06856 23.884896 31.66333 23.874756 L 30.973022 23.854614 L 30.973022 23.658691 L 30.973022 23.472656 L 31.454224 23.472656 C 31.826906 23.472656 32.036656 23.463959 32.196533 23.414429 C 32.276471 23.388357 32.35191 23.342576 32.39502 23.271606 C 32.438139 23.200635 32.447388 23.129304 32.447388 23.059204 C 32.447388 23.014013 32.450164 22.958298 32.415894 22.889648 C 32.382492 22.820991 32.305091 22.778503 32.238281 22.762573 C 32.104669 22.730113 31.927496 22.736206 31.563721 22.736206 L 30.973022 22.736206 L 30.973022 22.582764 L 30.973022 22.423462 L 31.626709 22.40625 C 32.021575 22.39466 32.214522 22.394486 32.353271 22.358276 C 32.422645 22.340894 32.49813 22.296388 32.53125 22.225708 C 32.56439 22.155319 32.556519 22.102716 32.556519 22.055786 L 32.556519 21.870483 C 32.555338 21.792847 32.492403 21.728495 32.415894 21.727295 L 31.35498 21.705688 C 31.154308 21.70138 30.985662 21.699828 30.844482 21.700928 z M 34.135986 22.426758 C 34.493082 22.426758 34.634019 22.481682 34.658569 22.506592 L 34.664429 22.506592 C 34.753689 22.596591 34.755445 22.690728 34.699585 22.756348 C 34.696505 22.757958 34.688271 22.762768 34.675781 22.766968 C 34.65009 22.775658 34.611041 22.778409 34.560791 22.787109 C 34.460297 22.801609 34.318076 22.807617 34.163452 22.807617 L 33.77124 22.807617 L 33.77124 22.616821 L 33.770142 22.427124 L 34.135986 22.426758 z M 34.695923 22.761108 L 34.695923 22.766968 L 34.690063 22.766968 C 34.695658 22.761288 34.695531 22.761698 34.695923 22.761108 z " />
  <path
     id="path8827"
     style="fill:#edd400;stroke-width:1.3125;stroke-linecap:round;stroke-linejoin:round;fill-opacity:1"
     d="M 25.5,28.5 A 1.5,1.5 0 0 1 24,30 1.5,1.5 0 0 1 22.5,28.5 1.5,1.5 0 0 1 24,27 a 1.5,1.5 0 0 1 1.5,1.5 z" />
  <path
     id="path8830"
     style="fill:#edd400;stroke-width:1.3125;stroke-linecap:round;stroke-linejoin:round;fill-opacity:1"
     d="m 21.75,32.25 a 1.5,1.5 0 0 1 -1.5,1.5 1.5,1.5 0 0 1 -1.5,-1.5 1.5,1.5 0 0 1 1.5,-1.5 1.5,1.5 0 0 1 1.5,1.5 z" />
  <path
     id="path8832"
     style="fill:#edd400;stroke-width:1.3125;stroke-linecap:round;stroke-linejoin:round;fill-opacity:1"
     d="m 29.25,32.25 a 1.5,1.5 0 0 1 -1.5,1.5 1.5,1.5 0 0 1 -1.5,-1.5 1.5,1.5 0 0 1 1.5,-1.5 1.5,1.5 0 0 1 1.5,1.5 z" />
</svg>
