<?xml version="1.0" encoding="UTF-8" standalone="no"?>
<svg
   fill="none"
   viewBox="0 0 48 48"
   height="256"
   width="256"
   version="1.1"
   id="svg6"
   sodipodi:docname="modified-pi-pico.svg"
   inkscape:version="1.2.1 (9c6d41e410, 2022-07-14)"
   xmlns:inkscape="http://www.inkscape.org/namespaces/inkscape"
   xmlns:sodipodi="http://sodipodi.sourceforge.net/DTD/sodipodi-0.dtd"
   xmlns="http://www.w3.org/2000/svg"
   xmlns:svg="http://www.w3.org/2000/svg">
  <defs
     id="defs10" />
  <sodipodi:namedview
     id="namedview8"
     pagecolor="#ffffff"
     bordercolor="#666666"
     borderopacity="1.0"
     inkscape:showpageshadow="2"
     inkscape:pageopacity="0.0"
     inkscape:pagecheckerboard="true"
     inkscape:deskcolor="#d1d1d1"
     showgrid="true"
     inkscape:zoom="2.2898106"
     inkscape:cx="226.6563"
     inkscape:cy="183.858"
     inkscape:current-layer="svg6"
     showguides="false"
     inkscape:window-width="3840"
     inkscape:window-height="1494"
     inkscape:window-x="-11"
     inkscape:window-y="-11"
     inkscape:window-maximized="1">
    <inkscape:grid
       type="xygrid"
       id="grid239"
       units="px"
       spacingx="1.5"
       spacingy="1.5" />
  </sodipodi:namedview>
  <path
     id="rect897"
     style="fill:#4e9a06;fill-opacity:1;stroke:none;stroke-width:0.363088;stroke-linejoin:round;stroke-opacity:0.580986"
     d="m 20.954224,1.920961 c -5.120294,0.26982 -9.013548,4.163468 -9.283448,9.283814 -0.167099,3.171297 -0.295898,7.281215 -0.295898,12.42041 0,5.139095 0.128799,9.24948 0.295898,12.420776 0.2698,5.120295 4.163154,9.013648 9.283448,9.283448 h 6.091186 c 5.120325,-0.2698 9.014004,-4.163153 9.283814,-9.283448 0.167109,-3.171296 0.295532,-7.281581 0.295532,-12.420776 0,-5.139195 -0.128423,-9.249113 -0.295532,-12.42041 C 36.059414,6.084439 32.165745,2.190771 27.04541,1.920961 Z"
     sodipodi:nodetypes="ccssccssscc" />
  <path
     style="fill:#2e3436;fill-opacity:1;stroke-width:0.425197;stroke-linejoin:round;stroke-opacity:0.580986"
     d="m 28.5,1.125 h -9 c -1.5,0 -3,1.5 -3,3 v 7.5 c 0,1.5 1.5,3 3,3 h 9 c 1.5,0 3,-1.5 3,-3 v -7.5 c 0,-1.5 -1.5,-3 -3,-3 z"
     id="path450"
     sodipodi:nodetypes="ccccccccc" />
  <path
     id="path1058"
     style="fill:#fce94f;stroke-width:0.425197;stroke-linejoin:round;stroke-opacity:0.580986;fill-opacity:1"
     d="m 25.5,4.125 a 1.5,1.5 0 0 0 1.5,1.5 1.5,1.5 0 0 0 1.5,-1.5 1.5,1.5 0 0 0 -1.5,-1.5 1.5,1.5 0 0 0 -1.5,1.5 z" />
  <path
     id="path1061"
     style="fill:#fce94f;stroke-width:0.425197;stroke-linejoin:round;stroke-opacity:0.580986;fill-opacity:1"
     d="m 19.5,4.125 a 1.5,1.5 0 0 0 1.5,1.5 1.5,1.5 0 0 0 1.5,-1.5 1.5,1.5 0 0 0 -1.5,-1.5 1.5,1.5 0 0 0 -1.5,1.5 z" />
  <path
     style="fill:#2e3436;fill-opacity:1;stroke-width:0.425197;stroke-linejoin:round;stroke-opacity:0.580986"
     d="m 38.25,32.625 v -15 c 0,-1.5 -0.75,-3 -2.25,-3 -1.534946,-0.04197 -2.25,1.5 -2.25,3 v 15 c 0,1.5 0.75,3 2.25,3 1.5,0 2.25,-1.5 2.25,-3 z"
     id="path3515"
     sodipodi:nodetypes="ccccccc" />
  <path
     id="path1058-3"
     style="fill:#fce94f;stroke-width:0.318898;stroke-linejoin:round;stroke-opacity:0.580986;fill-opacity:1"
     d="M 36,31.5 A 1.125,1.125 0 0 0 34.875,32.625 1.125,1.125 0 0 0 36,33.75 1.125,1.125 0 0 0 37.125,32.625 1.125,1.125 0 0 0 36,31.5 Z" />
  <path
     id="path3539"
     style="fill:#fce94f;stroke-width:0.318898;stroke-linejoin:round;stroke-opacity:0.580986;fill-opacity:1"
     d="M 36,28.5 A 1.125,1.125 0 0 0 34.875,29.625 1.125,1.125 0 0 0 36,30.75 1.125,1.125 0 0 0 37.125,29.625 1.125,1.125 0 0 0 36,28.5 Z" />
  <path
     id="path3541"
     style="fill:#fce94f;stroke-width:0.318898;stroke-linejoin:round;stroke-opacity:0.580986;fill-opacity:1"
     d="M 36,25.5 A 1.125,1.125 0 0 0 34.875,26.625 1.125,1.125 0 0 0 36,27.75 1.125,1.125 0 0 0 37.125,26.625 1.125,1.125 0 0 0 36,25.5 Z" />
  <path
     id="path3543"
     style="fill:#fce94f;stroke-width:0.318898;stroke-linejoin:round;stroke-opacity:0.580986;fill-opacity:1"
     d="M 36,22.5 A 1.125,1.125 0 0 0 34.875,23.625 1.125,1.125 0 0 0 36,24.75 1.125,1.125 0 0 0 37.125,23.625 1.125,1.125 0 0 0 36,22.5 Z" />
  <path
     id="path887"
     style="fill:#fce94f;stroke-width:0.318898;stroke-linejoin:round;stroke-opacity:0.580986;fill-opacity:1"
     d="M 36,19.5 A 1.125,1.125 0 0 0 34.875,20.625 1.125,1.125 0 0 0 36,21.75 1.125,1.125 0 0 0 37.125,20.625 1.125,1.125 0 0 0 36,19.5 Z" />
  <path
     id="path889"
     style="fill:#fce94f;stroke-width:0.318898;stroke-linejoin:round;stroke-opacity:0.580986;fill-opacity:1"
     d="M 36,16.5 A 1.125,1.125 0 0 0 34.875,17.625 1.125,1.125 0 0 0 36,18.75 1.125,1.125 0 0 0 37.125,17.625 1.125,1.125 0 0 0 36,16.5 Z" />
  <path
     style="fill:#2e3436;fill-opacity:1;stroke-width:0.425197;stroke-linejoin:round;stroke-opacity:0.580986"
     d="m 14.25,32.625 v -15 c 0,-1.5 -0.75,-3 -2.25,-3 -1.534946,-0.04197 -2.25,1.5 -2.25,3 v 15 c 0,1.5 0.75,3 2.25,3 1.5,0 2.25,-1.5 2.25,-3 z"
     id="path900"
     sodipodi:nodetypes="ccccccc" />
  <path
     id="path902"
     style="fill:#fce94f;stroke-width:0.318898;stroke-linejoin:round;stroke-opacity:0.580986;fill-opacity:1"
     d="M 12,31.5 A 1.125,1.125 0 0 0 10.875,32.625 1.125,1.125 0 0 0 12,33.75 1.125,1.125 0 0 0 13.125,32.625 1.125,1.125 0 0 0 12,31.5 Z" />
  <path
     id="path904"
     style="fill:#fce94f;stroke-width:0.318898;stroke-linejoin:round;stroke-opacity:0.580986;fill-opacity:1"
     d="M 12,28.5 A 1.125,1.125 0 0 0 10.875,29.625 1.125,1.125 0 0 0 12,30.75 1.125,1.125 0 0 0 13.125,29.625 1.125,1.125 0 0 0 12,28.5 Z" />
  <path
     id="path906"
     style="fill:#fce94f;stroke-width:0.318898;stroke-linejoin:round;stroke-opacity:0.580986;fill-opacity:1"
     d="M 12,25.5 A 1.125,1.125 0 0 0 10.875,26.625 1.125,1.125 0 0 0 12,27.75 1.125,1.125 0 0 0 13.125,26.625 1.125,1.125 0 0 0 12,25.5 Z" />
  <path
     id="path908"
     style="fill:#fce94f;stroke-width:0.318898;stroke-linejoin:round;stroke-opacity:0.580986;fill-opacity:1"
     d="M 12,22.5 A 1.125,1.125 0 0 0 10.875,23.625 1.125,1.125 0 0 0 12,24.75 1.125,1.125 0 0 0 13.125,23.625 1.125,1.125 0 0 0 12,22.5 Z" />
  <path
     id="path910"
     style="fill:#fce94f;stroke-width:0.318898;stroke-linejoin:round;stroke-opacity:0.580986;fill-opacity:1"
     d="M 12,19.5 A 1.125,1.125 0 0 0 10.875,20.625 1.125,1.125 0 0 0 12,21.75 1.125,1.125 0 0 0 13.125,20.625 1.125,1.125 0 0 0 12,19.5 Z" />
  <path
     id="path912"
     style="fill:#fce94f;stroke-width:0.318898;stroke-linejoin:round;stroke-opacity:0.580986;fill-opacity:1"
     d="M 12,16.5 A 1.125,1.125 0 0 0 10.875,17.625 1.125,1.125 0 0 0 12,18.75 1.125,1.125 0 0 0 13.125,17.625 1.125,1.125 0 0 0 12,16.5 Z" />
  <path
     id="path916"
     style="fill:#2e3436;fill-opacity:1;stroke-width:0.246037"
     d="m 26.092361,16.712186 c 0.18684,0 0.318386,0.02021 0.408829,0.04422 0.121124,0.03217 0.179512,0.148286 0.183474,0.27356 0.0074,0.234005 0.01871,0.638663 0.02183,0.988906 0.08008,0.0051 0.157709,0.01027 0.229888,0.01552 0.62912,0.04574 1.109611,0.526229 1.155349,1.155349 0.0053,0.07218 0.01039,0.149676 0.01552,0.229751 0.350242,0.0031 0.7549,0.01457 0.988907,0.02197 0.125271,0.004 0.241397,0.06221 0.273559,0.183332 0.02401,0.09044 0.04408,0.222126 0.04408,0.408967 0,0.18684 -0.02007,0.318385 -0.04408,0.408829 -0.03217,0.121151 -0.148287,0.179512 -0.273558,0.183473 -0.221818,0.007 -0.596603,0.01753 -0.933426,0.02128 0.0078,0.265269 0.0137,0.55291 0.01717,0.864213 0.332327,0.0039 0.698209,0.01425 0.916259,0.02115 0.125271,0.004 0.241397,0.06235 0.273558,0.183472 0.02401,0.09044 0.04408,0.221987 0.04408,0.408829 -10e-7,0.18684 -0.02007,0.318521 -0.04408,0.408966 -0.03217,0.121151 -0.148289,0.179373 -0.27356,0.183333 -0.218048,0.0069 -0.58393,0.01723 -0.91626,0.02115 -0.0035,0.311287 -0.0094,0.598952 -0.01717,0.864213 0.336822,0.0038 0.711608,0.01441 0.933426,0.02143 0.125271,0.004 0.241395,0.06233 0.273558,0.183473 0.02401,0.09044 0.04408,0.221988 0.04408,0.408828 0,0.186841 -0.02007,0.318389 -0.04408,0.408829 -0.03216,0.121127 -0.148285,0.179512 -0.273559,0.183474 -0.234007,0.0074 -0.638665,0.01871 -0.988907,0.02183 -0.0051,0.08008 -0.01028,0.157711 -0.01552,0.229889 -0.04574,0.629117 -0.526228,1.109611 -1.155349,1.155349 -0.07271,0.0053 -0.150824,0.01049 -0.231537,0.01566 0.0017,0.11178 0.0026,0.221505 0.0026,0.322312 0,0.304077 -0.0091,0.536305 -0.01717,0.682526 -0.0064,0.115562 -0.06225,0.22152 -0.173584,0.253233 -0.09069,0.02583 -0.226559,0.04834 -0.424348,0.04834 -0.197789,1e-6 -0.333656,-0.02251 -0.424346,-0.04834 -0.111303,-0.03171 -0.167214,-0.13767 -0.173585,-0.253233 -0.008,-0.146224 -0.01717,-0.378449 -0.01717,-0.682526 0,-0.084 7.51e-4,-0.174572 0.002,-0.266968 -0.265462,0.0078 -0.553325,0.01369 -0.864897,0.01717 9.98e-4,0.08635 0.0018,0.171049 0.0018,0.249802 0,0.304077 -0.009,0.536305 -0.01703,0.682525 -0.0064,0.115562 -0.06242,0.221521 -0.173725,0.253232 -0.09069,0.02585 -0.22642,0.04834 -0.424209,0.04834 -0.197791,1e-6 -0.333659,-0.02251 -0.424346,-0.04834 -0.111331,-0.03171 -0.167373,-0.137674 -0.173727,-0.253233 -0.008,-0.146224 -0.01703,-0.378448 -0.01703,-0.682525 7e-6,-0.07875 7.51e-4,-0.163459 0.0018,-0.249802 -0.311571,-0.0034 -0.599436,-0.0094 -0.864899,-0.01717 0.0011,0.0924 0.0019,0.182966 0.0019,0.26697 -1e-6,0.304076 -0.0091,0.536304 -0.01717,0.682525 -0.0064,0.115562 -0.06228,0.221519 -0.173587,0.253234 -0.09069,0.02583 -0.226556,0.04834 -0.424346,0.04834 -0.197789,0 -0.333657,-0.02251 -0.424347,-0.04834 -0.111331,-0.03171 -0.167239,-0.137667 -0.173585,-0.253233 -0.008,-0.146224 -0.01717,-0.378449 -0.01717,-0.682526 0,-0.100805 9.75e-4,-0.210532 0.0026,-0.322312 -0.08071,-0.0052 -0.158837,-0.01037 -0.231537,-0.01566 -0.629116,-0.04574 -1.109609,-0.526232 -1.155349,-1.155349 -0.0053,-0.0727 -0.01048,-0.150826 -0.01566,-0.231536 -0.111779,0.0017 -0.221505,0.0026 -0.322312,0.0026 -0.304076,-1e-6 -0.536305,-0.0091 -0.682526,-0.01717 -0.115562,-0.0064 -0.221519,-0.06225 -0.253233,-0.173585 -0.02583,-0.09069 -0.04834,-0.226557 -0.04834,-0.424346 -1e-6,-0.19779 0.02251,-0.333659 0.04834,-0.424347 0.03171,-0.111303 0.137668,-0.167352 0.253231,-0.173724 0.146224,-0.008 0.378449,-0.01703 0.682526,-0.01703 0.084,0 0.174571,7.51e-4 0.266968,0.0019 -0.0078,-0.26545 -0.0137,-0.553342 -0.01717,-0.864897 -0.08635,9.97e-4 -0.17105,0.0018 -0.249802,0.0018 -0.304077,0 -0.536305,-0.009 -0.682525,-0.01703 -0.115563,-0.0064 -0.221522,-0.06242 -0.253232,-0.173725 -0.02584,-0.09069 -0.04834,-0.226558 -0.04834,-0.424348 1e-6,-0.197788 0.02251,-0.333657 0.04834,-0.424347 0.03171,-0.111331 0.137675,-0.167232 0.253233,-0.173584 0.146224,-0.008 0.378449,-0.01717 0.682525,-0.01717 0.07875,7e-6 0.163461,7.5e-4 0.249802,0.0018 0.0035,-0.311485 0.0094,-0.59936 0.01717,-0.864761 -0.0924,0.0012 -0.182966,0.0019 -0.266969,0.0019 -0.304077,0 -0.536306,-0.0091 -0.682525,-0.01717 -0.115563,-0.0064 -0.221522,-0.06227 -0.253233,-0.173584 -0.02583,-0.09069 -0.04834,-0.226558 -0.04834,-0.424348 0,-0.197789 0.02251,-0.333657 0.04834,-0.424347 0.03171,-0.111331 0.137674,-0.167372 0.253238,-0.173717 0.146224,-0.008 0.378448,-0.01703 0.682525,-0.01703 0.100806,0 0.210534,9.74e-4 0.322312,0.0026 0.0052,-0.08076 0.01037,-0.158803 0.01566,-0.231536 0.04574,-0.629124 0.526234,-1.109611 1.155348,-1.155351 0.07218,-0.0053 0.149806,-0.01039 0.22989,-0.01552 0.0031,-0.350245 0.01443,-0.754901 0.02184,-0.988909 0.004,-0.125271 0.06235,-0.241397 0.183473,-0.273558 0.09045,-0.02402 0.221989,-0.04422 0.408829,-0.04422 0.186842,0 0.318387,0.02021 0.408829,0.04422 0.121145,0.03216 0.179514,0.148288 0.183473,0.273559 0.007,0.221834 0.01753,0.596586 0.02128,0.933426 0.265309,-0.0078 0.552994,-0.0137 0.864349,-0.01717 0.0039,-0.332328 0.01412,-0.698211 0.02101,-0.91626 0.004,-0.125271 0.06235,-0.241398 0.183473,-0.273558 0.09044,-0.02401 0.221989,-0.04422 0.408829,-0.04422 0.18684,0 0.318523,0.02021 0.408966,0.04422 0.121144,0.03216 0.179513,0.148287 0.183473,0.273559 0.0069,0.218057 0.0171,0.583914 0.02101,0.916259 0.311357,0.0035 0.599042,0.0094 0.864349,0.01717 0.0038,-0.33684 0.01426,-0.711592 0.02128,-0.933426 0.004,-0.125271 0.06233,-0.241395 0.183473,-0.273558 0.09045,-0.02402 0.221988,-0.04422 0.408829,-0.04422 z" />
  <path
     id="path21627"
     style="fill:#ffffff;fill-opacity:1;stroke-width:0.0163265;stroke-dasharray:none"
     d="m 26.085047,28.585723 c -0.106238,0.0028 -0.197869,0.06736 -0.297198,0.09863 -0.254561,-0.08276 -0.312862,0.03101 -0.437922,0.07703 -0.277501,-0.05838 -0.361417,0.06799 -0.494473,0.202191 l -0.155207,-0.0023 c -0.418664,0.245416 -0.626479,0.745216 -0.700205,1.00219 -0.07376,-0.257015 -0.281612,-0.756751 -0.700213,-1.00219 l -0.15402,0.0023 c -0.133176,-0.134153 -0.218218,-0.2605 -0.495695,-0.202188 -0.125048,-0.04637 -0.18336,-0.159687 -0.437932,-0.07703 -0.104384,-0.03297 -0.199812,-0.100898 -0.312832,-0.09749 -0.05904,0.0017 -0.122618,0.02277 -0.194878,0.07946 -0.176961,-0.06792 -0.349378,-0.09134 -0.502868,0.04683 -0.236972,-0.03029 -0.313392,0.03333 -0.371747,0.107047 -0.05203,-9.9e-4 -0.389101,-0.05368 -0.543808,0.175658 -0.388741,-0.04586 -0.512109,0.227704 -0.37298,0.48245 -0.07934,0.122276 -0.161735,0.243335 0.02353,0.476409 -0.06572,0.129778 -0.02476,0.27099 0.129916,0.44156 -0.04079,0.182542 0.03913,0.31109 0.182839,0.411427 -0.02725,0.249821 0.231173,0.394603 0.307955,0.446335 0.03001,0.14554 0.0901,0.282538 0.383792,0.358554 0.04826,0.216912 0.224974,0.255298 0.395841,0.300769 -0.564894,0.326678 -1.04878,0.755901 -1.045492,1.810676 l -0.08302,0.146771 c -0.647836,0.391973 -1.230234,1.652839 -0.318836,2.676917 0.05944,0.32058 0.15886,0.550051 0.247809,0.804879 0.132867,1.026767 1.000684,1.50838 1.229567,1.565232 0.33538,0.254184 0.692058,0.495163 1.175439,0.664113 0.455663,0.467627 0.949767,0.645182 1.446129,0.644874 0.0069,-9e-6 0.01429,8.2e-5 0.02208,0 0.49633,3.08e-4 0.990537,-0.17726 1.446128,-0.644874 0.483382,-0.16896 0.840046,-0.409933 1.175441,-0.664113 0.228894,-0.05667 1.0966,-0.538497 1.229574,-1.565232 0.08893,-0.254833 0.189556,-0.484332 0.249029,-0.804879 0.911416,-1.024078 0.327804,-2.284908 -0.320055,-2.676917 l -0.08182,-0.146771 c 0.0031,-1.054775 -0.481722,-1.483931 -1.046709,-1.810676 0.170946,-0.04586 0.347421,-0.08391 0.395801,-0.300769 0.293685,-0.07591 0.355546,-0.212996 0.384995,-0.358554 0.07681,-0.05207 0.333637,-0.196578 0.306799,-0.446335 0.143925,-0.100446 0.223689,-0.22892 0.182838,-0.411427 0.154646,-0.170486 0.195556,-0.311709 0.129961,-0.44156 0.185723,-0.233131 0.10345,-0.354124 0.02354,-0.476409 0.139174,-0.254838 0.01691,-0.5282 -0.371748,-0.48245 -0.154611,-0.22954 -0.493038,-0.176775 -0.545034,-0.175661 -0.05839,-0.07372 -0.134825,-0.137675 -0.371748,-0.107045 -0.153522,-0.138376 -0.324732,-0.114869 -0.501697,-0.04682 -0.07881,-0.06193 -0.148,-0.08246 -0.211799,-0.08058 z m -4.171172,0.295933 c 0.212545,0.07832 0.322623,0.179251 0.437924,0.279152 0.03912,-0.05255 0.09915,-0.09112 0.02642,-0.217725 0.150921,0.08653 0.264835,0.188843 0.348903,0.303179 0.0934,-0.0591 0.05492,-0.140771 0.05547,-0.215382 0.156949,0.12694 0.257124,0.262762 0.37901,0.394642 0.02477,-0.0175 0.04638,-0.07784 0.06495,-0.173238 0.374265,0.361164 0.903126,1.270633 0.135985,1.631415 -0.652551,-0.535865 -1.432593,-0.925415 -2.296723,-1.217545 1.110746,0.569743 1.756479,1.030731 2.110247,1.423275 -0.181146,0.722419 -1.125831,0.755363 -1.471402,0.7351 0.07077,-0.03296 0.129513,-0.07192 0.150416,-0.132366 -0.08673,-0.06138 -0.394128,-0.0059 -0.608763,-0.126331 0.08246,-0.01694 0.121423,-0.03334 0.159992,-0.09392 -0.202745,-0.06433 -0.421297,-0.11962 -0.549826,-0.226194 0.06936,8.1e-4 0.133218,0.01573 0.22376,-0.04683 -0.181634,-0.09748 -0.375183,-0.174727 -0.525752,-0.323614 0.09393,-0.0022 0.195516,-5.27e-4 0.224976,-0.03518 -0.166353,-0.102483 -0.306144,-0.21707 -0.422265,-0.341729 0.131498,0.01572 0.186021,0.002 0.217703,-0.02049 -0.125659,-0.128058 -0.283913,-0.23687 -0.359751,-0.394641 0.09758,0.03334 0.187102,0.04684 0.251433,-0.0022 -0.04257,-0.09576 -0.226745,-0.152553 -0.33201,-0.376578 0.102746,0.0099 0.211574,0.02252 0.233451,0 -0.04777,-0.193405 -0.12905,-0.301328 -0.2093,-0.413832 0.219905,-0.0032 0.552865,4.45e-4 0.537794,-0.01805 l -0.135985,-0.138435 c 0.214705,-0.05783 0.43477,0.0096 0.594335,0.05896 0.07161,-0.05611 -0.002,-0.12707 -0.08899,-0.199713 0.18256,0.0248 0.34785,0.06521 0.496865,0.122672 0.07967,-0.07152 -0.05206,-0.142681 -0.115506,-0.214217 0.282002,0.05316 0.401019,0.128465 0.519754,0.203316 0.08608,-0.08219 0.0049,-0.152291 -0.05309,-0.223757 z m 4.197637,0 c -0.0584,0.07145 -0.139049,0.14168 -0.05316,0.223758 0.118744,-0.07486 0.237789,-0.150106 0.519751,-0.203314 -0.06358,0.07157 -0.195103,0.142678 -0.115492,0.214213 0.149063,-0.05728 0.314352,-0.09843 0.496922,-0.122673 -0.08741,0.07256 -0.160703,0.143495 -0.08899,0.199733 0.15947,-0.04936 0.379572,-0.116416 0.59433,-0.05896 l -0.135986,0.138419 c -0.01538,0.0186 0.317913,0.01446 0.537799,0.01824 -0.08022,0.112629 -0.161531,0.220581 -0.209303,0.413837 0.02209,0.02252 0.130673,0.0099 0.233452,0 -0.105243,0.223916 -0.288141,0.280771 -0.330844,0.376577 0.06432,0.0488 0.152644,0.03558 0.25026,0.0022 -0.07581,0.157826 -0.234047,0.266496 -0.359748,0.394642 0.03131,0.02276 0.08761,0.03625 0.218985,0.0207 -0.116151,0.124615 -0.257179,0.239277 -0.423493,0.34169 0.02937,0.03484 0.131008,0.03301 0.224976,0.03517 -0.150601,0.148814 -0.344121,0.226241 -0.525758,0.323617 0.09063,0.06258 0.15441,0.04777 0.223781,0.04684 -0.128535,0.106571 -0.347053,0.161852 -0.549821,0.226218 0.03872,0.06054 0.07763,0.07685 0.159991,0.09389 -0.214637,0.119976 -0.522085,0.06494 -0.608778,0.126343 0.02116,0.06027 0.07959,0.09953 0.150384,0.132367 -0.345602,0.02047 -1.290228,-0.01271 -1.471398,-0.735101 0.353765,-0.392529 0.999503,-0.853518 2.110248,-1.423279 -0.864124,0.292127 -1.644171,0.681681 -2.296742,1.217553 -0.76715,-0.360806 -0.238305,-1.270158 0.135988,-1.631417 0.01903,0.09537 0.04033,0.155527 0.06494,0.173257 0.121957,-0.131959 0.22209,-0.267639 0.379009,-0.394649 5.27e-4,0.07463 -0.03832,0.156102 0.05549,0.215362 0.08413,-0.114246 0.197909,-0.216645 0.348903,-0.303174 -0.07274,0.126574 -0.01285,0.165238 0.02643,0.217768 0.115295,-0.09983 0.225306,-0.200817 0.437933,-0.279153 z m -2.174006,2.97529 c 0.01924,-4.45e-4 0.03869,-4.86e-4 0.05781,0 0.543984,-0.0056 1.21777,0.404314 1.215135,0.790436 -0.0027,0.34082 -0.472651,0.616432 -1.210325,0.611181 -0.722324,-0.0086 -1.208679,-0.347096 -1.206715,-0.67735 0.0013,-0.26328 0.552337,-0.710971 1.144161,-0.724267 z m -1.792634,0.229809 c 0.121601,-0.0022 0.246972,0.0075 0.375378,0.02848 0.378413,0.06322 -1.813003,1.96842 -1.846767,1.543584 -0.0303,-0.969652 0.620159,-1.556694 1.47139,-1.572458 z m 3.49744,0.03301 c 0.03064,-8.91e-4 0.06102,-5.67e-4 0.09136,0 0.851231,0.0159 1.50271,0.602802 1.472595,1.572467 -0.0341,0.424804 -2.226359,-1.480351 -1.847967,-1.543591 0.09638,-0.01642 0.191319,-0.02643 0.283945,-0.02879 z m -0.376569,1.183638 a 1.4031166,1.1913837 55.132291 0 1 0.143157,0.0011 1.4031166,1.1913837 55.132291 0 1 0.889079,2.503675 1.4031166,1.1913837 55.132291 1 1 -1.552003,-2.337639 1.4031166,1.1913837 55.132291 0 1 0.519752,-0.167216 z m -2.527742,0.06493 a 1.1913837,1.4031166 34.867709 0 1 0.519755,0.168416 1.1913837,1.4031166 34.867709 1 1 -1.553212,2.336425 1.1913837,1.4031166 34.867709 0 1 0.890299,-2.50366 1.1913837,1.4031166 34.867709 0 1 0.143157,-0.0011 z m 4.589846,0.715846 c 0.01692,-2.82e-4 0.03446,0.0021 0.05309,0.0066 0.987646,0.561093 0.815442,1.809046 0.282778,2.235367 -0.469169,0.207341 -0.853273,-2.234056 -0.335626,-2.242589 z m -6.772281,0.03297 c 0.517576,0.0086 0.132309,2.449947 -0.336938,2.242588 -0.532709,-0.426342 -0.703711,-1.674251 0.283945,-2.235369 0.0186,-0.0045 0.03626,-0.0072 0.05316,-0.0066 z m 3.47217,1.685545 a 1.3304968,1.2206614 0 0 1 1.330631,1.221151 1.3306348,1.2207881 0 0 1 -2.661263,0 1.3304968,1.2206614 0 0 1 1.140537,-1.209111 1.3304968,1.2206614 0 0 1 0.190047,-0.01234 z m 2.940395,0.454834 c 0.103984,-0.0027 0.201041,0.02644 0.288738,0.09384 0.236153,0.234123 0.375022,1.115436 -0.03869,1.64344 -0.569511,0.786184 -1.340613,0.816931 -1.627798,0.597949 -0.30037,-0.281905 -0.0713,-1.156405 0.340492,-1.636218 0.353328,-0.396999 0.725288,-0.690922 1.037074,-0.699012 z m -6.01432,0.187729 c 0.01399,-2.66e-4 0.02785,-5.67e-4 0.04215,0 0.334975,0.01384 0.735996,0.277625 1.063529,0.655698 0.380605,0.456135 0.55339,1.258021 0.235754,1.494248 -0.300402,0.180367 -1.029795,0.106076 -1.548387,-0.635243 -0.349775,-0.621962 -0.304426,-1.255363 -0.05896,-1.441313 0.0803,-0.04832 0.16983,-0.07145 0.265899,-0.07339 z m 3.130463,2.182436 c 0.01691,-4.46e-4 0.03446,-1.02e-4 0.05203,0 0.519177,0.0031 1.148855,0.190003 1.150174,0.431872 0.0089,0.250561 -0.650386,0.815817 -1.288533,0.804878 -0.660854,0.0288 -1.309042,-0.538553 -1.300551,-0.735107 -0.0098,-0.288141 0.805492,-0.512471 1.336648,-0.499307 0.01675,-6.88e-4 0.03333,-0.0019 0.05101,-0.0024 z" />
  <path
     id="path3539-3"
     style="fill:#c4a000;fill-opacity:1;stroke:none;stroke-width:0.318898;stroke-linejoin:round;stroke-opacity:1"
     d="m 22.125,42.09375 c 0,0.62132 -0.50368,1.125 -1.125,1.125 -0.62132,0 -1.125,-0.50368 -1.125,-1.125 0,-0.62132 0.50368,-1.125 1.125,-1.125 0.62132,0 1.125,0.50368 1.125,1.125 z"
     sodipodi:nodetypes="sssss" />
  <path
     id="path3541-7"
     style="fill:#c4a000;fill-opacity:1;stroke:none;stroke-width:0.318898;stroke-linejoin:round;stroke-opacity:1"
     d="m 25.125,42.09375 c 0,0.62132 -0.50368,1.125 -1.125,1.125 -0.62132,0 -1.125,-0.50368 -1.125,-1.125 0,-0.62132 0.50368,-1.125 1.125,-1.125 0.62132,0 1.125,0.50368 1.125,1.125 z"
     sodipodi:nodetypes="sssss" />
  <path
     id="path3543-8"
     style="fill:#c4a000;fill-opacity:1;stroke:none;stroke-width:0.318898;stroke-linejoin:round;stroke-opacity:1"
     d="m 28.125,42.09375 c 0,0.62132 -0.50368,1.125 -1.125,1.125 -0.62132,0 -1.125,-0.50368 -1.125,-1.125 0,-0.62132 0.50368,-1.125 1.125,-1.125 0.62132,0 1.125,0.50368 1.125,1.125 z"
     sodipodi:nodetypes="sssss" />
  <g
     id="path7475"
     style="fill:#c4a000;fill-opacity:1"
     transform="translate(-1.500001)">
    <path
       style="color:#000000;fill:#c4a000;fill-opacity:1;stroke-width:1.3125;stroke-linecap:round;stroke-linejoin:round"
       d="m 22.5,42.09375 v 5.25"
       id="path3048" />
    <path
       style="color:#000000;fill:#c4a000;fill-opacity:1;stroke-linecap:round;stroke-linejoin:round"
       d="m 22.5,41.4375 a 0.65625,0.65625 0 0 0 -0.65625,0.65625 v 5.25 A 0.65625,0.65625 0 0 0 22.5,48 0.65625,0.65625 0 0 0 23.15625,47.34375 v -5.25 A 0.65625,0.65625 0 0 0 22.5,41.4375 Z"
       id="path3050" />
  </g>
  <g
     id="path7477"
     style="fill:#c4a000;fill-opacity:1"
     transform="translate(-1.500001)">
    <path
       style="color:#000000;fill:#c4a000;fill-opacity:1;stroke-width:1.3125;stroke-linecap:round;stroke-linejoin:round"
       d="m 25.5,42.09375 v 5.25"
       id="path3042" />
    <path
       style="color:#000000;fill:#c4a000;fill-opacity:1;stroke-linecap:round;stroke-linejoin:round"
       d="m 25.5,41.4375 a 0.65625,0.65625 0 0 0 -0.65625,0.65625 v 5.25 A 0.65625,0.65625 0 0 0 25.5,48 0.65625,0.65625 0 0 0 26.15625,47.34375 v -5.25 A 0.65625,0.65625 0 0 0 25.5,41.4375 Z"
       id="path3044" />
  </g>
  <g
     id="path7479"
     style="fill:#c4a000;fill-opacity:1"
     transform="translate(-1.500001)">
    <path
       style="color:#000000;fill:#c4a000;fill-opacity:1;stroke-width:1.3125;stroke-linecap:round;stroke-linejoin:round"
       d="m 28.5,42.09375 v 5.25"
       id="path3036" />
    <path
       style="color:#000000;fill:#c4a000;fill-opacity:1;stroke-linecap:round;stroke-linejoin:round"
       d="m 28.5,41.4375 a 0.65625,0.65625 0 0 0 -0.65625,0.65625 v 5.25 A 0.65625,0.65625 0 0 0 28.5,48 0.65625,0.65625 0 0 0 29.15625,47.34375 v -5.25 A 0.65625,0.65625 0 0 0 28.5,41.4375 Z"
       id="path3038" />
  </g>
</svg>
