<?xml version="1.0" encoding="UTF-8" standalone="no"?>
<svg
   fill="none"
   viewBox="0 0 48 48"
   height="256"
   width="256"
   version="1.1"
   id="svg6"
   sodipodi:docname="nu_link_me.svg"
   inkscape:version="1.2.1 (9c6d41e410, 2022-07-14)"
   xmlns:inkscape="http://www.inkscape.org/namespaces/inkscape"
   xmlns:sodipodi="http://sodipodi.sourceforge.net/DTD/sodipodi-0.dtd"
   xmlns="http://www.w3.org/2000/svg"
   xmlns:svg="http://www.w3.org/2000/svg">
  <defs
     id="defs10" />
  <sodipodi:namedview
     id="namedview8"
     pagecolor="#ffffff"
     bordercolor="#666666"
     borderopacity="1.0"
     inkscape:showpageshadow="2"
     inkscape:pageopacity="0.0"
     inkscape:pagecheckerboard="true"
     inkscape:deskcolor="#d1d1d1"
     showgrid="true"
     inkscape:zoom="1.6191406"
     inkscape:cx="116.72859"
     inkscape:cy="119.50784"
     inkscape:current-layer="svg6"
     showguides="false"
     inkscape:window-width="1920"
     inkscape:window-height="730"
     inkscape:window-x="-6"
     inkscape:window-y="-6"
     inkscape:window-maximized="1">
    <inkscape:grid
       type="xygrid"
       id="grid239"
       units="px"
       spacingx="1.5"
       spacingy="1.5" />
  </sodipodi:namedview>
  <path
     id="rect897"
     style="fill:#4e9a06;fill-opacity:1;stroke:none;stroke-width:0.363088;stroke-linejoin:round;stroke-opacity:0.580986"
     d="m 36.420776,2.295961 c 5.120294,0.2698197 9.013548,4.1634678 9.283448,9.283814 0.167099,3.171297 0.295898,7.281215 0.295898,12.42041 0,5.139095 -0.128799,9.24948 -0.295898,12.420776 -0.2698,5.120295 -4.163154,9.013648 -9.283448,9.283448 H 11.57959 C 6.459265,45.434609 2.565586,41.541256 2.295776,36.420961 2.128667,33.249665 2.000244,29.13938 2.000244,24.000185 c 0,-5.139195 0.128423,-9.249113 0.295532,-12.42041 0.26981,-5.1203362 4.163479,-9.0140043 9.283814,-9.283814 z"
     sodipodi:nodetypes="ccssccssscc" />
  <path
     id="path2-4"
     style="fill:#2e3436;fill-opacity:1;stroke-width:0.301969"
     d="m 17.357022,26.567057 c 0,0.229318 0.02481,0.390771 0.05429,0.501777 0.03949,0.148666 0.181993,0.220326 0.335745,0.225189 0.287204,0.0091 0.783849,0.02298 1.213714,0.02677 0.0064,0.09827 0.01265,0.193566 0.01904,0.282153 0.05614,0.772153 0.645853,1.361887 1.41799,1.418022 0.08858,0.0065 0.183701,0.01278 0.28198,0.01904 0.0036,0.429871 0.01788,0.926529 0.02696,1.213738 0.0049,0.153756 0.07634,0.296283 0.225009,0.335758 0.110993,0.02947 0.272623,0.05411 0.501935,0.05411 0.229316,0 0.390763,-0.02464 0.501771,-0.05411 0.14868,-0.03949 0.220318,-0.182002 0.22518,-0.335751 0.0085,-0.272252 0.02152,-0.732248 0.0261,-1.145647 0.325569,0.0096 0.6786,0.01684 1.060669,0.02107 0.0048,0.407885 0.01754,0.856949 0.02597,1.124573 0.005,0.153756 0.07652,0.296279 0.225181,0.335752 0.110994,0.02947 0.272449,0.05409 0.501769,0.05409 0.229313,0 0.390929,-0.02464 0.501933,-0.05409 0.148684,-0.03949 0.220151,-0.182 0.225012,-0.335754 0.0085,-0.267622 0.02114,-0.716686 0.02597,-1.124574 0.38205,-0.0042 0.735108,-0.01162 1.06067,-0.02107 0.0048,0.413399 0.01771,0.873395 0.02628,1.145642 0.005,0.153756 0.07651,0.296278 0.225182,0.335754 0.110994,0.02947 0.272452,0.05409 0.501766,0.05409 0.229316,-2e-6 0.390767,-0.02464 0.501769,-0.05409 0.148666,-0.03948 0.220316,-0.181999 0.225181,-0.335754 0.0092,-0.287208 0.02298,-0.783867 0.02677,-1.213739 0.09827,-0.0064 0.193561,-0.01265 0.28215,-0.01903 0.772131,-0.05614 1.361855,-0.645871 1.417991,-1.418023 0.0067,-0.08925 0.01291,-0.185116 0.01922,-0.284181 0.137186,0.0021 0.271859,0.0032 0.395582,0.0032 0.373201,0 0.658222,-0.01113 0.837683,-0.02107 0.141842,-0.008 0.27188,-0.0764 0.310801,-0.213046 0.0317,-0.111295 0.05932,-0.27807 0.05932,-0.520831 2e-6,-0.242756 -0.02763,-0.409512 -0.05932,-0.520822 -0.03894,-0.136601 -0.168973,-0.205229 -0.310801,-0.213048 -0.179464,-0.0097 -0.464482,-0.02107 -0.837683,-0.02107 -0.103103,0 -0.214256,9.2e-4 -0.327656,0.0025 0.0095,-0.325816 0.01684,-0.679128 0.02107,-1.061537 0.105974,0.0012 0.209931,0.002 0.306587,0.002 0.373202,0 0.658223,-0.01101 0.837681,-0.0209 0.141843,-0.008 0.271882,-0.07663 0.310799,-0.21322 0.03172,-0.111296 0.05932,-0.277898 0.05932,-0.520656 0,-0.242759 -0.02763,-0.409519 -0.05932,-0.520822 -0.03893,-0.136629 -0.168971,-0.205427 -0.310802,-0.213226 -0.179464,-0.0098 -0.464476,-0.0209 -0.83768,-0.0209 -0.09666,6e-6 -0.200621,9.19e-4 -0.30659,0.0021 -0.004,-0.38241 -0.0115,-0.73572 -0.02107,-1.061537 0.113413,0.0013 0.224562,0.0023 0.327661,0.0023 0.373201,0 0.658222,-0.01113 0.837682,-0.02107 0.141842,-0.008 0.271876,-0.07645 0.3108,-0.213052 0.03169,-0.111296 0.05932,-0.278063 0.05932,-0.520823 0,-0.242755 -0.02763,-0.409516 -0.05932,-0.520823 -0.03893,-0.13663 -0.168972,-0.20526 -0.3108,-0.21305 -0.179463,-0.0097 -0.464481,-0.02107 -0.837682,-0.02107 -0.123717,0 -0.258392,0.0012 -0.395583,0.0032 -0.0064,-0.09907 -0.01278,-0.194951 -0.01921,-0.284178 -0.05613,-0.772148 -0.645859,-1.361883 -1.41799,-1.418022 -0.08924,-0.0067 -0.185116,-0.01278 -0.284174,-0.01921 0.002,-0.137215 0.0032,-0.271868 0.0032,-0.395592 0,-0.373208 -0.01113,-0.658233 -0.02107,-0.8377 -0.008,-0.141857 -0.0764,-0.271885 -0.213046,-0.310808 -0.111296,-0.03169 -0.27806,-0.05932 -0.520811,-0.05932 -0.242756,0 -0.409509,0.02763 -0.520815,0.05932 -0.136601,0.03893 -0.205394,0.168971 -0.213217,0.310805 -0.0097,0.17947 -0.0209,0.464493 -0.0209,0.837702 0,0.103103 9.21e-4,0.214263 0.0022,0.327665 -0.325792,-0.0096 -0.679129,-0.01684 -1.06151,-0.02107 0.0012,-0.105974 0.0021,-0.209936 0.0021,-0.306595 0,-0.37321 -0.01101,-0.658237 -0.0209,-0.837699 -0.008,-0.141857 -0.07662,-0.271885 -0.213217,-0.310804 -0.111247,-0.03163 -0.277996,-0.05922 -0.520748,-0.05922 -0.242749,0 -0.409504,0.02761 -0.520812,0.05932 -0.136629,0.03893 -0.205248,0.168971 -0.213045,0.310806 -0.0097,0.179466 -0.02107,0.464489 -0.02107,0.8377 7e-6,0.09666 9.18e-4,0.200624 0.0021,0.306594 -0.382298,0.0042 -0.735612,0.0115 -1.061345,0.02107 0.0014,-0.113413 0.0022,-0.224563 0.0022,-0.327664 0,-0.373209 -0.01113,-0.658235 -0.02107,-0.837699 -0.008,-0.141856 -0.07641,-0.271886 -0.213045,-0.310809 -0.111295,-0.0317 -0.27806,-0.05932 -0.520813,-0.05932 -0.242752,0 -0.409505,0.02762 -0.520811,0.05932 -0.136629,0.03894 -0.205423,0.168972 -0.213209,0.310816 -0.0098,0.179463 -0.0209,0.464489 -0.0209,0.837701 0,0.123717 0.0012,0.258398 0.0032,0.395589 -0.09911,0.0064 -0.194906,0.01278 -0.284174,0.01922 -0.772139,0.05614 -1.361854,0.645873 -1.417991,1.418022 -0.0065,0.08857 -0.01278,0.183865 -0.01904,0.282155 -0.429861,0.0036 -0.926509,0.01771 -1.213713,0.02679 -0.153756,0.005 -0.296272,0.07652 -0.335747,0.225185 -0.02947,0.111005 -0.05426,0.272458 -0.05426,0.501779 0,0.229323 0.02479,0.390774 0.05426,0.501778 0.03948,0.148698 0.182002,0.220327 0.335747,0.225187 0.272264,0.0085 0.732207,0.02152 1.145619,0.02614 -0.0095,0.325628 -0.01684,0.67872 -0.02107,1.060863 -0.407875,0.0048 -0.856929,0.01737 -1.124549,0.02579 -0.153756,0.005 -0.296273,0.07652 -0.335745,0.225183 -0.02941,0.110993 -0.05421,0.272452 -0.05421,0.501773 0,0.229318 0.02481,0.390939 0.05426,0.501944 0.03948,0.148683 0.181997,0.220327 0.335743,0.225185 0.267629,0.0085 0.716654,0.02098 1.124551,0.0258 0.0042,0.382149 0.0115,0.735239 0.02107,1.060864 -0.413411,0.0048 -0.873353,0.01755 -1.145616,0.0261 -0.153755,0.005 -0.296272,0.07652 -0.335745,0.225184 -0.0295,0.111005 -0.05426,0.272457 -0.05426,0.501777 z" />
  <path
     style="fill:#2e3436;fill-opacity:1;stroke-width:0.425197;stroke-linejoin:round;stroke-opacity:0.580986"
     d="m 18.75,0 h 10.5 c 1.5,0 1.5,1.875 1.5,3.375 0,1.5 0,3.375 -1.5,3.375 h -10.5 c -1.5,0 -1.5,-1.875 -1.5,-3.375 0,-1.5 0,-3.375 1.5,-3.375 z"
     id="path6182"
     sodipodi:nodetypes="ccccccc" />
  <g
     id="path9251"
     style="fill:#c4a000;fill-opacity:1">
    <path
       style="color:#000000;fill:#c4a000;stroke-width:1.3125;stroke-linecap:round;stroke-linejoin:round;-inkscape-stroke:none;fill-opacity:1"
       d="M 20.25,4.5 V 9"
       id="path2411" />
    <path
       style="color:#000000;fill:#c4a000;stroke-linecap:round;stroke-linejoin:round;-inkscape-stroke:none;fill-opacity:1"
       d="M 20.25,3.84375 A 0.65625,0.65625 0 0 0 19.59375,4.5 V 9 A 0.65625,0.65625 0 0 0 20.25,9.65625 0.65625,0.65625 0 0 0 20.90625,9 V 4.5 A 0.65625,0.65625 0 0 0 20.25,3.84375 Z"
       id="path2413" />
  </g>
  <g
     id="path9679"
     style="fill:#c4a000;fill-opacity:1">
    <path
       style="color:#000000;fill:#c4a000;stroke-width:1.3125;stroke-linecap:round;stroke-linejoin:round;-inkscape-stroke:none;fill-opacity:1"
       d="M 24,4.5 V 9"
       id="path2405" />
    <path
       style="color:#000000;fill:#c4a000;stroke-linecap:round;stroke-linejoin:round;-inkscape-stroke:none;fill-opacity:1"
       d="M 24,3.84375 A 0.65625,0.65625 0 0 0 23.34375,4.5 V 9 A 0.65625,0.65625 0 0 0 24,9.65625 0.65625,0.65625 0 0 0 24.65625,9 V 4.5 A 0.65625,0.65625 0 0 0 24,3.84375 Z"
       id="path2407" />
  </g>
  <g
     id="path9681"
     style="fill:#c4a000;fill-opacity:1">
    <path
       style="color:#000000;fill:#c4a000;stroke-width:1.3125;stroke-linecap:round;stroke-linejoin:round;-inkscape-stroke:none;fill-opacity:1"
       d="M 27.75,4.5 V 9"
       id="path2417" />
    <path
       style="color:#000000;fill:#c4a000;stroke-linecap:round;stroke-linejoin:round;-inkscape-stroke:none;fill-opacity:1"
       d="M 27.75,3.84375 A 0.65625,0.65625 0 0 0 27.09375,4.5 V 9 A 0.65625,0.65625 0 0 0 27.75,9.65625 0.65625,0.65625 0 0 0 28.40625,9 V 4.5 A 0.65625,0.65625 0 0 0 27.75,3.84375 Z"
       id="path2419" />
  </g>
  <circle
     style="fill:#c4a000;fill-opacity:1;stroke:none;stroke-width:1.96875;stroke-linecap:round;stroke-linejoin:round;stroke-opacity:1"
     id="path9735"
     cx="20.25"
     cy="9"
     r="1.125" />
  <circle
     style="fill:#c4a000;fill-opacity:1;stroke:none;stroke-width:1.96875;stroke-linecap:round;stroke-linejoin:round;stroke-opacity:1"
     id="circle9737"
     cx="24"
     cy="9"
     r="1.125" />
  <circle
     style="fill:#c4a000;fill-opacity:1;stroke:none;stroke-width:1.96875;stroke-linecap:round;stroke-linejoin:round;stroke-opacity:1"
     id="circle9739"
     cx="27.75"
     cy="9"
     r="1.125" />
  <g
     id="g10524"
     transform="rotate(180,25.954162,43.264325)">
    <path
       style="fill:#2e3436;fill-opacity:1;stroke-width:0.425197;stroke-linejoin:round;stroke-opacity:0.580986"
       d="m 23.408324,38.52865 h 9 c 1.5,0 3,1.5 3,3 v 7.5 c 0,1.5 -1.5,3 -3,3 h -9 c -1.5,0 -3,-1.5 -3,-3 v -7.5 c 0,-1.5 1.5,-3 3,-3 z"
       id="path450"
       sodipodi:nodetypes="ccccccccc" />
    <path
       id="path1058"
       style="fill:#edd400;stroke-width:0.425197;stroke-linejoin:round;stroke-opacity:0.580986;fill-opacity:1"
       d="m 26.408324,41.52865 a 1.5,1.5 0 0 1 -1.5,1.5 1.5,1.5 0 0 1 -1.5,-1.5 1.5,1.5 0 0 1 1.5,-1.5 1.5,1.5 0 0 1 1.5,1.5 z" />
    <path
       id="path1061"
       style="fill:#edd400;stroke-width:0.425197;stroke-linejoin:round;stroke-opacity:0.580986;fill-opacity:1"
       d="m 32.408324,41.52865 a 1.5,1.5 0 0 1 -1.5,1.5 1.5,1.5 0 0 1 -1.5,-1.5 1.5,1.5 0 0 1 1.5,-1.5 1.5,1.5 0 0 1 1.5,1.5 z" />
  </g>
  <path
     id="rect346"
     style="fill:#cc0000;stroke-width:1.58203;stroke-linejoin:round;fill-opacity:1"
     d="m 37.5,8.3784105 c -3.657463,-1.83e-4 -6.622469,2.9648225 -6.622285,6.6222845 5.63e-4,3.65692 2.965365,6.621078 6.622285,6.620895 3.656919,1.83e-4 6.6217,-2.963975 6.622285,-6.620895 C 44.122469,11.343233 41.157464,8.3782265 37.5,8.3784105 Z m 0.0022,3.6012845 c 0.625328,6.8e-5 1.252079,0.04681 1.59331,0.139818 1.074838,0.291776 1.960458,0.961634 2.235238,1.690488 0.06995,0.184974 0.124522,1.190446 0.124522,2.270771 v 1.939533 h -1.120862 -1.121172 v -1.595936 c 0,-1.090079 -0.05254,-1.721594 -0.162838,-1.987427 -0.366614,-0.877451 -1.399471,-1.225269 -2.365167,-0.798122 -0.786858,0.348103 -0.89391,0.674414 -0.89391,2.725296 v 1.656189 h -1.127649 -1.129206 l 0.03662,-2.162624 0.03708,-2.164015 0.332474,-0.433823 c 0.357058,-0.4676 1.121839,-0.911007 1.97105,-1.141565 0.340841,-0.09263 0.965357,-0.138485 1.590683,-0.138427 z"
     sodipodi:nodetypes="ccccccccscccsccsccccccccc" />
</svg>
