<?xml version="1.0" encoding="UTF-8" standalone="no"?>
<svg
   fill="none"
   viewBox="0 0 48 48"
   height="256"
   width="256"
   version="1.1"
   id="svg6"
   sodipodi:docname="nulink_me_v3_0.svg"
   inkscape:version="1.2.1 (9c6d41e410, 2022-07-14)"
   xmlns:inkscape="http://www.inkscape.org/namespaces/inkscape"
   xmlns:sodipodi="http://sodipodi.sourceforge.net/DTD/sodipodi-0.dtd"
   xmlns="http://www.w3.org/2000/svg"
   xmlns:svg="http://www.w3.org/2000/svg">
  <defs
     id="defs10" />
  <sodipodi:namedview
     id="namedview8"
     pagecolor="#ffffff"
     bordercolor="#666666"
     borderopacity="1.0"
     inkscape:showpageshadow="2"
     inkscape:pageopacity="0.0"
     inkscape:pagecheckerboard="true"
     inkscape:deskcolor="#d1d1d1"
     showgrid="true"
     inkscape:zoom="2.2898106"
     inkscape:cx="83.413013"
     inkscape:cy="191.93727"
     inkscape:current-layer="svg6"
     showguides="false"
     inkscape:window-width="1920"
     inkscape:window-height="730"
     inkscape:window-x="-6"
     inkscape:window-y="-6"
     inkscape:window-maximized="1">
    <inkscape:grid
       type="xygrid"
       id="grid239"
       units="px"
       spacingx="1.5"
       spacingy="1.5" />
  </sodipodi:namedview>
  <path
     id="rect897"
     style="fill:#4e9a06;fill-opacity:1;stroke:none;stroke-width:0.363088;stroke-linejoin:round;stroke-opacity:0.580986"
     d="M 17.95459,44.908447 C 12.834296,44.638627 8.941025,40.744979 8.671125,35.624633 V 33 L 17.25,32.999625 V 31.5 H 8.37525 v -8.295777 c 0,-5.139095 0.128793,-9.24948 0.295892,-12.420776 0.2698,-5.120295 4.163154,-9.013648 9.283448,-9.283448 h 12.091186 c 5.120325,0.2698 9.014004,4.163153 9.283814,9.283448 0.167109,3.171296 0.295535,7.281581 0.295535,12.420776 V 31.5 H 30.75 v 1.499625 L 39.329625,33 v 2.624625 c -0.269812,5.120336 -4.163514,9.014012 -9.283849,9.283822 z"
     sodipodi:nodetypes="ccccccssccscccccccc" />
  <path
     id="path2-4"
     style="fill:#2e3436;fill-opacity:1;stroke-width:0.246037"
     d="m 29.413165,22.613102 c 0,-0.18684 -0.02021,-0.318385 -0.04422,-0.408828 -0.03217,-0.121125 -0.148286,-0.179512 -0.273559,-0.183474 -0.234006,-0.0074 -0.638663,-0.01871 -0.988906,-0.02183 -0.0051,-0.08008 -0.01027,-0.157709 -0.01552,-0.229888 -0.04574,-0.62912 -0.526229,-1.109611 -1.155349,-1.155349 -0.07218,-0.0053 -0.149676,-0.01039 -0.229751,-0.01552 -0.0031,-0.350242 -0.01457,-0.7549 -0.02197,-0.988907 -0.004,-0.125271 -0.06221,-0.241397 -0.183334,-0.27356 -0.09044,-0.02401 -0.222125,-0.04408 -0.408966,-0.04408 -0.186841,0 -0.318385,0.02007 -0.40883,0.04408 -0.12115,0.03217 -0.179512,0.148287 -0.183473,0.273559 -0.007,0.221817 -0.01753,0.596604 -0.02128,0.933426 -0.265269,-0.0078 -0.55291,-0.0137 -0.864213,-0.01717 -0.0039,-0.332327 -0.01425,-0.698209 -0.02115,-0.916259 -0.004,-0.125271 -0.06235,-0.241397 -0.183473,-0.273559 -0.09044,-0.02401 -0.221987,-0.04408 -0.408828,-0.04408 -0.186841,0 -0.318522,0.02007 -0.408966,0.04408 -0.12115,0.03217 -0.179374,0.148289 -0.183334,0.273561 -0.0069,0.218047 -0.01723,0.583929 -0.02115,0.91626 -0.311287,0.0035 -0.598951,0.0094 -0.864213,0.01717 -0.0038,-0.336823 -0.01441,-0.711609 -0.02143,-0.933426 -0.004,-0.125271 -0.06233,-0.241395 -0.183473,-0.273559 -0.09044,-0.02401 -0.221988,-0.04408 -0.408828,-0.04408 -0.186841,2e-6 -0.318388,0.02007 -0.408829,0.04408 -0.121126,0.03216 -0.179512,0.148288 -0.183474,0.273559 -0.0074,0.234007 -0.01871,0.638666 -0.02183,0.988908 -0.08008,0.0051 -0.157713,0.01028 -0.229891,0.01552 -0.629117,0.04574 -1.109611,0.526228 -1.155349,1.155349 -0.0053,0.0727 -0.01049,0.150824 -0.01566,0.231537 -0.11178,-0.0017 -0.221505,-0.0026 -0.322312,-0.0026 -0.304077,0 -0.536305,0.0091 -0.682525,0.01717 -0.115561,0.0064 -0.22152,0.06225 -0.253233,0.173585 -0.02583,0.09069 -0.04834,0.226558 -0.04834,0.424347 -2e-6,0.19779 0.02251,0.333657 0.04834,0.424347 0.03171,0.111304 0.13767,0.167213 0.253234,0.173585 0.146222,0.008 0.378448,0.01717 0.682525,0.01717 0.084,0 0.174572,-7.51e-4 0.266969,-0.002 -0.0078,0.265462 -0.01369,0.553326 -0.01717,0.864897 -0.08634,-9.97e-4 -0.171049,-0.0018 -0.249802,-0.0018 -0.304077,0 -0.536305,0.009 -0.682525,0.01703 -0.115563,0.0064 -0.221522,0.06242 -0.253232,0.173724 -0.02585,0.09069 -0.04834,0.22642 -0.04834,0.424209 0,0.197791 0.02251,0.333659 0.04834,0.424347 0.03171,0.111331 0.137673,0.167373 0.253234,0.173726 0.146222,0.008 0.378447,0.01703 0.682524,0.01703 0.07875,-7e-6 0.16346,-7.51e-4 0.249803,-0.0018 0.0034,0.311572 0.0094,0.599437 0.01717,0.864899 -0.0924,-0.0011 -0.182966,-0.0019 -0.26697,-0.0019 -0.304077,0 -0.536305,0.0091 -0.682525,0.01717 -0.115563,0.0064 -0.221519,0.06228 -0.253234,0.173586 -0.02583,0.09069 -0.04834,0.226557 -0.04834,0.424348 0,0.197789 0.02251,0.333656 0.04834,0.424346 0.03171,0.111331 0.137668,0.167238 0.253233,0.173584 0.146223,0.008 0.378449,0.01717 0.682526,0.01717 0.100805,0 0.210532,-9.75e-4 0.322312,-0.0026 0.0052,0.08071 0.01037,0.158838 0.01566,0.231537 0.04574,0.629116 0.526232,1.10961 1.155349,1.155349 0.0727,0.0053 0.150826,0.01048 0.231537,0.01566 -0.0017,0.111779 -0.0026,0.221506 -0.0026,0.322312 1e-6,0.304076 0.0091,0.536305 0.01717,0.682526 0.0064,0.115562 0.06225,0.221521 0.173584,0.253234 0.09069,0.02583 0.226557,0.04834 0.424346,0.04834 0.197791,1e-6 0.33366,-0.02251 0.424348,-0.04834 0.111305,-0.03171 0.167353,-0.137669 0.173724,-0.253231 0.008,-0.146223 0.01703,-0.37845 0.01703,-0.682527 0,-0.084 -7.51e-4,-0.174571 -0.0019,-0.266968 0.26545,0.0078 0.553342,0.0137 0.864898,0.01717 -9.97e-4,0.08634 -0.0018,0.171049 -0.0018,0.249801 0,0.304077 0.009,0.536305 0.01703,0.682524 0.0064,0.115564 0.06242,0.221523 0.173725,0.253233 0.09069,0.02584 0.226558,0.04834 0.424348,0.04834 0.197787,0 0.333656,-0.02251 0.424346,-0.04834 0.111331,-0.03171 0.167232,-0.137675 0.173586,-0.253234 0.008,-0.146223 0.01717,-0.378447 0.01717,-0.682525 -8e-6,-0.07875 -7.51e-4,-0.163461 -0.0018,-0.249802 0.311486,-0.0035 0.599362,-0.0094 0.864762,-0.01717 -0.0012,0.09241 -0.0019,0.182965 -0.0019,0.266968 0,0.304077 0.0091,0.536306 0.01717,0.682526 0.0064,0.115563 0.06227,0.221521 0.173584,0.253233 0.09069,0.02583 0.226558,0.04834 0.424347,0.04834 0.19779,0 0.333658,-0.02251 0.424347,-0.04834 0.111331,-0.03171 0.167372,-0.137674 0.173717,-0.253239 0.008,-0.146222 0.01703,-0.378448 0.01703,-0.682525 0,-0.100805 -9.75e-4,-0.210534 -0.0026,-0.322312 0.08076,-0.0052 0.158804,-0.01037 0.231537,-0.01566 0.629123,-0.04574 1.109611,-0.526233 1.155351,-1.155348 0.0053,-0.07218 0.01039,-0.149807 0.01552,-0.229889 0.350244,-0.0031 0.754901,-0.01443 0.988909,-0.02184 0.125271,-0.004 0.241397,-0.06235 0.273558,-0.183472 0.02402,-0.09045 0.04422,-0.221989 0.04422,-0.408829 0,-0.186842 -0.02021,-0.318387 -0.04422,-0.408829 -0.03216,-0.121146 -0.148287,-0.179514 -0.273558,-0.183473 -0.221834,-0.007 -0.596586,-0.01753 -0.933427,-0.02128 0.0078,-0.265309 0.0137,-0.552993 0.01717,-0.864349 0.332329,-0.0039 0.698211,-0.01412 0.91626,-0.02101 0.125271,-0.004 0.241397,-0.06235 0.273558,-0.183473 0.02401,-0.09044 0.04422,-0.221989 0.04422,-0.408829 0,-0.18684 -0.02021,-0.318523 -0.04422,-0.408966 -0.03216,-0.121145 -0.148287,-0.179512 -0.273558,-0.183473 -0.218058,-0.0069 -0.583914,-0.0171 -0.91626,-0.02101 -0.0035,-0.311357 -0.0094,-0.599042 -0.01717,-0.864349 0.336841,-0.0038 0.711593,-0.01426 0.933425,-0.02128 0.125272,-0.004 0.241396,-0.06233 0.273559,-0.183473 0.02402,-0.09045 0.04422,-0.221988 0.04422,-0.408829 z" />
  <g
     id="g939"
     transform="matrix(0.75,0,0,0.75,6.0000915,13.721694)">
    <path
       style="fill:#2e3436;fill-opacity:1;stroke-width:0.425197;stroke-linejoin:round;stroke-opacity:0.580986"
       d="m 28.500366,45.704408 h -9 c -1.5,0 -3,-1.5 -3,-3 v -7.5 c 0,-1.5 1.5,-3 3,-3 h 9 c 1.5,0 3,1.5 3,3 v 7.5 c 0,1.5 -1.5,3 -3,3 z"
       id="path450"
       sodipodi:nodetypes="ccccccccc" />
    <path
       id="path1058"
       style="fill:#edd400;stroke-width:0.425197;stroke-linejoin:round;stroke-opacity:0.580986;fill-opacity:1"
       d="m 25.500366,42.704408 a 1.5,1.5 0 0 1 1.5,-1.5 1.5,1.5 0 0 1 1.5,1.5 1.5,1.5 0 0 1 -1.5,1.5 1.5,1.5 0 0 1 -1.5,-1.5 z" />
    <path
       id="path1061"
       style="fill:#edd400;stroke-width:0.425197;stroke-linejoin:round;stroke-opacity:0.580986;fill-opacity:1"
       d="m 19.500366,42.704408 a 1.5,1.5 0 0 1 1.5,-1.5 1.5,1.5 0 0 1 1.5,1.5 1.5,1.5 0 0 1 -1.5,1.5 1.5,1.5 0 0 1 -1.5,-1.5 z" />
  </g>
  <path
     id="rect346"
     style="fill:#cc0000;stroke-width:1.58203;stroke-linejoin:round;fill-opacity:1"
     d="m 23.999633,3.704408 c -3.657463,-1.83e-4 -6.622468,2.964822 -6.622284,6.622284 5.63e-4,3.65692 2.965365,6.621078 6.622284,6.620895 3.65692,1.83e-4 6.621701,-2.963975 6.622285,-6.620895 1.84e-4,-3.657462 -2.964821,-6.622468 -6.622285,-6.622284 z m 0.0022,3.601284 c 0.625328,6.8e-5 1.252079,0.04681 1.59331,0.139818 1.074838,0.291776 1.960458,0.961634 2.235238,1.690488 0.06995,0.184974 0.124522,1.190446 0.124522,2.270771 v 1.939533 H 26.83404 25.712868 v -1.595936 c 0,-1.090079 -0.05254,-1.721594 -0.162838,-1.987427 -0.366614,-0.877451 -1.39947,-1.225269 -2.365167,-0.798122 -0.786858,0.348103 -0.89391,0.674414 -0.89391,2.725296 v 1.656189 h -1.127649 -1.129206 l 0.03662,-2.162624 0.03708,-2.164015 0.332474,-0.433823 c 0.357058,-0.4676 1.121839,-0.911007 1.97105,-1.141565 0.340841,-0.09263 0.965357,-0.138485 1.590683,-0.138427 z"
     sodipodi:nodetypes="ccccccccscccsccsccccccccc" />
  <path
     style="fill:#2e3436;fill-opacity:1;stroke-width:0.425197;stroke-linejoin:round;stroke-opacity:0.580986"
     d="m 13.5,8.999581 v 12 c 0,1.5 -0.75,3 -2.25,3 -1.534946,0.04197 -2.25,-1.5 -2.25,-3 v -12 c 0,-1.5 0.75,-3 2.25,-3 1.5,0 2.25,1.5 2.25,3 z"
     id="path900"
     sodipodi:nodetypes="ccccccc" />
  <path
     id="path902"
     style="fill:#edd400;stroke-width:0.318898;stroke-linejoin:round;stroke-opacity:0.580986;fill-opacity:1"
     d="m 11.25,10.124581 a 1.125,1.125 0 0 1 -1.125,-1.125 1.125,1.125 0 0 1 1.125,-1.125 1.125,1.125 0 0 1 1.125,1.125 1.125,1.125 0 0 1 -1.125,1.125 z" />
  <path
     id="path904"
     style="fill:#edd400;stroke-width:0.318898;stroke-linejoin:round;stroke-opacity:0.580986;fill-opacity:1"
     d="m 11.25,13.124581 a 1.125,1.125 0 0 1 -1.125,-1.125 1.125,1.125 0 0 1 1.125,-1.125 1.125,1.125 0 0 1 1.125,1.125 1.125,1.125 0 0 1 -1.125,1.125 z" />
  <path
     id="path906"
     style="fill:#edd400;stroke-width:0.318898;stroke-linejoin:round;stroke-opacity:0.580986;fill-opacity:1"
     d="m 11.25,16.124581 a 1.125,1.125 0 0 1 -1.125,-1.125 1.125,1.125 0 0 1 1.125,-1.125 1.125,1.125 0 0 1 1.125,1.125 1.125,1.125 0 0 1 -1.125,1.125 z" />
  <path
     id="path908"
     style="fill:#edd400;stroke-width:0.318898;stroke-linejoin:round;stroke-opacity:0.580986;fill-opacity:1"
     d="m 11.25,19.124581 a 1.125,1.125 0 0 1 -1.125,-1.125 1.125,1.125 0 0 1 1.125,-1.125 1.125,1.125 0 0 1 1.125,1.125 1.125,1.125 0 0 1 -1.125,1.125 z" />
  <path
     id="path910"
     style="fill:#edd400;stroke-width:0.318898;stroke-linejoin:round;stroke-opacity:0.580986;fill-opacity:1"
     d="m 11.25,22.124581 a 1.125,1.125 0 0 1 -1.125,-1.125 1.125,1.125 0 0 1 1.125,-1.125 1.125,1.125 0 0 1 1.125,1.125 1.125,1.125 0 0 1 -1.125,1.125 z" />
  <path
     style="fill:#2e3436;fill-opacity:1;stroke-width:0.425197;stroke-linejoin:round;stroke-opacity:0.580986"
     d="m 39,8.999581 v 12 c 0,1.5 -0.75,3 -2.25,3 -1.534946,0.04197 -2.25,-1.5 -2.25,-3 v -12 c 0,-1.5 0.75,-3 2.25,-3 1.5,0 2.25,1.5 2.25,3 z"
     id="path924"
     sodipodi:nodetypes="ccccccc" />
  <path
     id="path926"
     style="fill:#edd400;stroke-width:0.318898;stroke-linejoin:round;stroke-opacity:0.580986;fill-opacity:1"
     d="m 36.75,10.124581 a 1.125,1.125 0 0 1 -1.125,-1.125 1.125,1.125 0 0 1 1.125,-1.125 1.125,1.125 0 0 1 1.125,1.125 1.125,1.125 0 0 1 -1.125,1.125 z" />
  <path
     id="path928"
     style="fill:#edd400;stroke-width:0.318898;stroke-linejoin:round;stroke-opacity:0.580986;fill-opacity:1"
     d="m 36.75,13.124581 a 1.125,1.125 0 0 1 -1.125,-1.125 1.125,1.125 0 0 1 1.125,-1.125 1.125,1.125 0 0 1 1.125,1.125 1.125,1.125 0 0 1 -1.125,1.125 z" />
  <path
     id="path930"
     style="fill:#edd400;stroke-width:0.318898;stroke-linejoin:round;stroke-opacity:0.580986;fill-opacity:1"
     d="m 36.75,16.124581 a 1.125,1.125 0 0 1 -1.125,-1.125 1.125,1.125 0 0 1 1.125,-1.125 1.125,1.125 0 0 1 1.125,1.125 1.125,1.125 0 0 1 -1.125,1.125 z" />
  <path
     id="path932"
     style="fill:#edd400;stroke-width:0.318898;stroke-linejoin:round;stroke-opacity:0.580986;fill-opacity:1"
     d="m 36.75,19.124581 a 1.125,1.125 0 0 1 -1.125,-1.125 1.125,1.125 0 0 1 1.125,-1.125 1.125,1.125 0 0 1 1.125,1.125 1.125,1.125 0 0 1 -1.125,1.125 z" />
  <path
     id="path934"
     style="fill:#edd400;stroke-width:0.318898;stroke-linejoin:round;stroke-opacity:0.580986;fill-opacity:1"
     d="m 36.75,22.124581 a 1.125,1.125 0 0 1 -1.125,-1.125 1.125,1.125 0 0 1 1.125,-1.125 1.125,1.125 0 0 1 1.125,1.125 1.125,1.125 0 0 1 -1.125,1.125 z" />
</svg>
