<?xml version="1.0" encoding="UTF-8" standalone="no"?>
<svg
   fill="none"
   viewBox="0 0 48 48"
   height="256"
   width="256"
   version="1.1"
   id="svg6"
   sodipodi:docname="ns-link.svg"
   inkscape:version="1.2.1 (9c6d41e410, 2022-07-14)"
   xmlns:inkscape="http://www.inkscape.org/namespaces/inkscape"
   xmlns:sodipodi="http://sodipodi.sourceforge.net/DTD/sodipodi-0.dtd"
   xmlns="http://www.w3.org/2000/svg"
   xmlns:svg="http://www.w3.org/2000/svg">
  <defs
     id="defs10" />
  <sodipodi:namedview
     id="namedview8"
     pagecolor="#ffffff"
     bordercolor="#666666"
     borderopacity="1.0"
     inkscape:showpageshadow="2"
     inkscape:pageopacity="0.0"
     inkscape:pagecheckerboard="true"
     inkscape:deskcolor="#d1d1d1"
     showgrid="true"
     inkscape:zoom="2.2898106"
     inkscape:cx="232.11527"
     inkscape:cy="168.13618"
     inkscape:current-layer="svg6"
     showguides="false"
     inkscape:window-width="3840"
     inkscape:window-height="1494"
     inkscape:window-x="-11"
     inkscape:window-y="-11"
     inkscape:window-maximized="1">
    <inkscape:grid
       type="xygrid"
       id="grid239"
       units="px"
       spacingx="1.5"
       spacingy="1.5" />
  </sodipodi:namedview>
  <g
     id="g1015"
     transform="matrix(1.484375,0,0,1.484375,-0.984375,1.2421875)">
    <path
       id="rect897"
       style="fill:#3465a4;fill-opacity:1;stroke:none;stroke-width:0.363088;stroke-linejoin:round;stroke-opacity:0.580986"
       d="m 3.875244,31.499815 c 0,-5.139095 0.128799,-16.74948 0.295898,-19.920776 0.2698,-5.120295 4.163154,-9.013648 9.283448,-9.283448 H 33 V 31.5 Z"
       sodipodi:nodetypes="cscccc" />
    <path
       id="path2-4"
       style="fill:#2e3436;fill-opacity:1;stroke-width:0.204546"
       d="m 12.000027,21.238681 c 0,0.155333 0.0168,0.264696 0.03677,0.339887 0.02675,0.100698 0.123278,0.149242 0.227427,0.152533 0.194542,0.0062 0.530956,0.01556 0.822133,0.01815 0.0043,0.06658 0.0085,0.131115 0.0129,0.191123 0.03803,0.523032 0.437484,0.9225 0.960506,0.960524 0.06001,0.0044 0.124435,0.0086 0.191006,0.0129 0.0026,0.291181 0.01211,0.627603 0.01826,0.82215 0.0033,0.104147 0.05172,0.200691 0.152415,0.22743 0.07519,0.01997 0.184665,0.03665 0.339997,0.03665 0.155331,0 0.264692,-0.01669 0.339883,-0.03665 0.100719,-0.02674 0.149239,-0.123282 0.152529,-0.227431 0.0059,-0.184413 0.01457,-0.496 0.01769,-0.776025 0.220533,0.0065 0.459664,0.01139 0.718468,0.01427 0.0033,0.276289 0.01185,0.580473 0.01759,0.761754 0.0033,0.104146 0.05184,0.20069 0.152529,0.227431 0.07518,0.01997 0.184549,0.03665 0.339882,0.03665 0.155329,-1e-6 0.264804,-0.01669 0.339996,-0.03665 0.100719,-0.02674 0.149121,-0.123286 0.152415,-0.227431 0.0057,-0.181279 0.01433,-0.485464 0.01758,-0.761754 0.25879,-0.0029 0.497942,-0.0078 0.718468,-0.01427 0.0031,0.280025 0.01198,0.591612 0.01782,0.776025 0.0033,0.104147 0.05182,0.200689 0.152529,0.22743 0.07519,0.01997 0.184551,0.03665 0.339881,0.03665 0.155332,-1e-6 0.264693,-0.01669 0.339883,-0.03665 0.1007,-0.02674 0.149239,-0.123281 0.152529,-0.227431 0.0061,-0.194547 0.01556,-0.530968 0.01815,-0.82215 0.06658,-0.0043 0.131114,-0.0085 0.19112,-0.0129 0.52302,-0.03803 0.922482,-0.437491 0.960507,-0.960525 0.0044,-0.06044 0.0087,-0.125391 0.01301,-0.192494 0.09293,0.0014 0.18415,0.0021 0.267957,0.0021 0.252796,0 0.44586,-0.0076 0.567421,-0.01427 0.09607,-0.0053 0.184162,-0.05175 0.210527,-0.144315 0.02147,-0.0754 0.04019,-0.188354 0.04019,-0.352789 1e-6,-0.164439 -0.01872,-0.277394 -0.04019,-0.35279 -0.02636,-0.09254 -0.114455,-0.139016 -0.210528,-0.144315 -0.121563,-0.0067 -0.314624,-0.01427 -0.567421,-0.01427 -0.06984,0 -0.145131,6.24e-4 -0.221946,0.0017 0.0065,-0.220698 0.01138,-0.46002 0.01427,-0.719052 0.07179,7.99e-4 0.142203,0.0015 0.207675,0.0015 0.252796,0 0.445861,-0.0075 0.567421,-0.01416 0.09607,-0.0053 0.184164,-0.0519 0.210524,-0.144432 0.02149,-0.07539 0.04019,-0.18824 0.04019,-0.352677 0,-0.164436 -0.01872,-0.277393 -0.04019,-0.352789 -0.02636,-0.09256 -0.114455,-0.139148 -0.210524,-0.144432 -0.121563,-0.0067 -0.314625,-0.01416 -0.567421,-0.01416 -0.06547,5e-6 -0.135893,6.23e-4 -0.207674,0.0015 -0.0029,-0.259032 -0.0078,-0.498355 -0.01427,-0.719052 0.07682,9.31e-4 0.15211,0.0016 0.221946,0.0016 0.252796,0 0.445861,-0.0076 0.567421,-0.01427 0.09608,-0.0053 0.184162,-0.05178 0.210529,-0.144315 0.02147,-0.0754 0.04018,-0.188354 0.04018,-0.352791 10e-7,-0.164436 -0.01872,-0.277393 -0.04019,-0.352789 -0.02636,-0.09256 -0.11445,-0.139039 -0.210527,-0.144313 -0.121563,-0.0067 -0.314625,-0.01427 -0.567422,-0.01427 -0.0838,0 -0.175027,7.98e-4 -0.267956,0.0021 -0.0043,-0.0671 -0.0086,-0.132053 -0.01301,-0.192493 -0.03802,-0.52303 -0.437487,-0.922499 -0.960507,-0.960526 -0.06044,-0.0044 -0.12539,-0.0087 -0.19249,-0.01302 0.0014,-0.09293 0.0022,-0.184152 0.0022,-0.26796 0,-0.252801 -0.0076,-0.44587 -0.01427,-0.567433 -0.0053,-0.09608 -0.05175,-0.184166 -0.144311,-0.210531 -0.07539,-0.02148 -0.18835,-0.04019 -0.352783,-0.04019 -0.164433,-1e-6 -0.277389,0.01872 -0.352783,0.04019 -0.09253,0.02636 -0.139131,0.114452 -0.14443,0.210527 -0.0066,0.121565 -0.01416,0.314631 -0.01416,0.567432 0,0.06984 6.24e-4,0.145135 0.0016,0.221951 -0.220683,-0.0065 -0.460024,-0.01139 -0.719038,-0.01427 7.98e-4,-0.07179 0.0015,-0.142206 0.0015,-0.207679 0,-0.252802 -0.0075,-0.445869 -0.01416,-0.567432 -0.0053,-0.09608 -0.0519,-0.184167 -0.14443,-0.210527 -0.07543,-0.02142 -0.188388,-0.04013 -0.352822,-0.04013 -0.164433,0 -0.277388,0.01872 -0.352784,0.04018 -0.09255,0.02637 -0.139032,0.114457 -0.144311,0.210532 -0.0067,0.121564 -0.01427,0.314631 -0.01427,0.567432 5e-6,0.06547 6.24e-4,0.135897 0.0015,0.207679 -0.258954,0.0029 -0.498281,0.0078 -0.718923,0.01427 9.97e-4,-0.07682 0.0016,-0.152111 0.0016,-0.22195 0,-0.252802 -0.0076,-0.44587 -0.01427,-0.567434 -0.0053,-0.09608 -0.05177,-0.184166 -0.14431,-0.21053 -0.07539,-0.02148 -0.188351,-0.04019 -0.352784,-0.04019 -0.164434,0 -0.277389,0.01872 -0.352784,0.04019 -0.09256,0.02636 -0.139146,0.114458 -0.144419,0.210536 -0.0067,0.121566 -0.01416,0.314632 -0.01416,0.567433 0,0.08381 7.98e-4,0.175031 0.0022,0.267962 -0.06714,0.0043 -0.132022,0.0086 -0.19249,0.01302 -0.523025,0.03803 -0.922482,0.437495 -0.960508,0.960524 -0.0044,0.06001 -0.0086,0.124545 -0.0129,0.191124 -0.291177,0.0026 -0.627591,0.012 -0.822134,0.01816 -0.104145,0.0033 -0.200688,0.05184 -0.227427,0.152531 -0.01997,0.07519 -0.03677,0.184555 -0.03677,0.339889 0,0.155334 0.0168,0.264698 0.03677,0.339889 0.02674,0.100717 0.12328,0.149242 0.227427,0.152532 0.184423,0.0058 0.495975,0.01457 0.776009,0.01769 -0.0065,0.22057 -0.01139,0.459744 -0.01427,0.718596 -0.276283,0.0033 -0.580461,0.01174 -0.761738,0.01747 -0.104145,0.0033 -0.200688,0.05184 -0.227427,0.152532 -0.02002,0.07519 -0.03682,0.184554 -0.03682,0.339888 0,0.155333 0.0168,0.264812 0.03677,0.340002 0.02674,0.100718 0.123279,0.149243 0.227426,0.152533 0.181285,0.0057 0.485442,0.01422 0.761739,0.01747 0.0029,0.258853 0.0078,0.498026 0.01427,0.718596 -0.280034,0.0032 -0.591586,0.01186 -0.776009,0.01769 -0.104144,0.0033 -0.200684,0.05182 -0.227426,0.152531 -0.01997,0.07519 -0.03677,0.184555 -0.03676,0.33989 z" />
    <g
       id="g3072"
       transform="translate(-46.5,-18)">
      <path
         style="fill:#2e3436;fill-opacity:1;stroke-width:0.425197;stroke-linejoin:round;stroke-opacity:0.580986"
         d="m 57,18 h 9 c 1.5,0 3,1.5 3,3 v 7.5 c 0,1.5 -1.5,3 -3,3 h -9 c -1.5,0 -3,-1.5 -3,-3 V 21 c 0,-1.5 1.5,-3 3,-3 z"
         id="path3066"
         sodipodi:nodetypes="ccccccccc" />
      <path
         id="path3068"
         style="fill:#fce94f;fill-opacity:1;stroke-width:0.425197;stroke-linejoin:round;stroke-opacity:0.580986"
         d="M 60,21 A 1.5,1.5 0 0 1 58.5,22.5 1.5,1.5 0 0 1 57,21 1.5,1.5 0 0 1 58.5,19.5 1.5,1.5 0 0 1 60,21 Z" />
      <path
         id="path3070"
         style="fill:#fce94f;fill-opacity:1;stroke-width:0.425197;stroke-linejoin:round;stroke-opacity:0.580986"
         d="M 66,21 A 1.5,1.5 0 0 1 64.5,22.5 1.5,1.5 0 0 1 63,21 1.5,1.5 0 0 1 64.5,19.5 1.5,1.5 0 0 1 66,21 Z" />
    </g>
    <path
       style="fill:#2e3436;fill-opacity:1;stroke-width:0.425197;stroke-linejoin:round;stroke-opacity:0.580986"
       d="m 3,31.5 v -15 c 0,-1.5 1.5,-3 3,-3 1.5,0 3,1.5 3,3 v 15 z"
       id="path3509"
       sodipodi:nodetypes="cccccc" />
    <path
       id="path3511"
       style="fill:#fce94f;fill-opacity:1;stroke-width:0.318898;stroke-linejoin:round;stroke-opacity:0.580986"
       d="m 6,24.375 c 0.62132,0 1.125,0.50368 1.125,1.125 0,0.62132 -0.50368,1.125 -1.125,1.125 -0.62132,0 -1.125,-0.50368 -1.125,-1.125 0,-0.62132 0.50368,-1.125 1.125,-1.125 z"
       sodipodi:nodetypes="sssss" />
    <path
       id="path3513"
       style="fill:#fce94f;fill-opacity:1;stroke-width:0.318898;stroke-linejoin:round;stroke-opacity:0.580986"
       d="m 6,21.375 c 0.62132,0 1.125,0.50368 1.125,1.125 0,0.62132 -0.50368,1.125 -1.125,1.125 -0.62132,0 -1.125,-0.50368 -1.125,-1.125 0,-0.62132 0.50368,-1.125 1.125,-1.125 z"
       sodipodi:nodetypes="sssss" />
    <path
       id="path3515"
       style="fill:#fce94f;fill-opacity:1;stroke-width:0.318898;stroke-linejoin:round;stroke-opacity:0.580986"
       d="m 6,18.375 c 0.62132,0 1.125,0.50368 1.125,1.125 0,0.62132 -0.50368,1.125 -1.125,1.125 -0.62132,0 -1.125,-0.50368 -1.125,-1.125 0,-0.62132 0.50368,-1.125 1.125,-1.125 z"
       sodipodi:nodetypes="sssss" />
    <path
       id="path3517"
       style="fill:#fce94f;fill-opacity:1;stroke-width:0.318898;stroke-linejoin:round;stroke-opacity:0.580986"
       d="m 6,15.375 c 0.62132,0 1.125,0.50368 1.125,1.125 0,0.62132 -0.50368,1.125 -1.125,1.125 -0.62132,0 -1.125,-0.50368 -1.125,-1.125 0,-0.62132 0.50368,-1.125 1.125,-1.125 z"
       sodipodi:nodetypes="sssss" />
    <path
       id="path3521"
       style="fill:#fce94f;fill-opacity:1;stroke-width:0.318898;stroke-linejoin:round;stroke-opacity:0.580986"
       d="m 6,30.375 c 0.62132,0 1.125,0.50368 1.125,1.125 h -2.25 c 0,-0.62132 0.50368,-1.125 1.125,-1.125 z"
       sodipodi:nodetypes="sccs" />
    <path
       id="path3523"
       style="fill:#fce94f;fill-opacity:1;stroke-width:0.318898;stroke-linejoin:round;stroke-opacity:0.580986"
       d="m 6,27.375 c 0.62132,0 1.125,0.50368 1.125,1.125 0,0.62132 -0.50368,1.125 -1.125,1.125 -0.62132,0 -1.125,-0.50368 -1.125,-1.125 0,-0.62132 0.50368,-1.125 1.125,-1.125 z"
       sodipodi:nodetypes="sssss" />
    <g
       id="g3597"
       transform="translate(-28.5,-18)">
      <path
         style="fill:#2e3436;fill-opacity:1;stroke-width:0.425197;stroke-linejoin:round;stroke-opacity:0.580986"
         d="m 57,18 h 4.5 V 31.5 H 57 c -1.5,0 -3,-1.5 -3,-3 V 21 c 0,-1.5 1.5,-3 3,-3 z"
         id="path3591"
         sodipodi:nodetypes="ccccccc" />
      <path
         id="path3593"
         style="fill:#fce94f;fill-opacity:1;stroke-width:0.425197;stroke-linejoin:round;stroke-opacity:0.580986"
         d="M 60,21 A 1.5,1.5 0 0 1 58.5,22.5 1.5,1.5 0 0 1 57,21 1.5,1.5 0 0 1 58.5,19.5 1.5,1.5 0 0 1 60,21 Z" />
    </g>
    <path
       id="path437"
       style="fill:#2e3436;fill-opacity:1;stroke:none;stroke-width:0.363088;stroke-linejoin:round;stroke-opacity:0.580986"
       d="m 33.00358,25.960894 c -0.0112,-1.86e-4 -0.0208,-0.0011 -0.0326,-0.0011 -0.0411,0 -0.079,0.0012 -0.11389,0.0033 -0.0349,0.0021 -0.0668,0.0051 -0.096,0.0088 -0.0291,0.0037 -0.0553,0.008 -0.0791,0.01282 -0.0238,0.0048 -0.0452,0.0096 -0.0641,0.01502 -0.0116,0.0033 -0.0221,0.0077 -0.0322,0.01282 -0.0101,0.0051 -0.0198,0.01121 -0.0286,0.01795 -0.009,0.0067 -0.0168,0.0142 -0.0242,0.02234 -0.007,0.0081 -0.0138,0.01667 -0.0198,0.026 -0.006,0.0093 -0.0111,0.01935 -0.0157,0.02966 -0.005,0.01032 -0.009,0.02114 -0.0121,0.03223 -0.003,0.01109 -0.006,0.0224 -0.008,0.03406 -0.002,0.01166 -0.003,0.02351 -0.004,0.03552 -0.004,0.06078 -0.007,0.13968 -0.01,0.234741 -0.003,0.09506 -0.005,0.206486 -0.005,0.332886 0,0.06984 8.2e-4,0.145108 0.002,0.221924 -0.22068,-0.0065 -0.46023,-0.0114 -0.71924,-0.01428 8e-4,-0.07179 0.002,-0.142169 0.002,-0.207642 0,-0.126401 -0.002,-0.237823 -0.005,-0.332886 -0.003,-0.09506 -0.006,-0.173959 -0.01,-0.234741 -6.2e-4,-0.01201 -0.002,-0.02387 -0.004,-0.03552 -0.002,-0.01166 -0.004,-0.02297 -0.008,-0.03406 -0.003,-0.01109 -0.007,-0.02191 -0.0117,-0.03223 -0.005,-0.01032 -0.0101,-0.02033 -0.0161,-0.02966 -0.006,-0.0093 -0.0124,-0.01786 -0.0198,-0.026 -0.007,-0.0081 -0.0154,-0.01561 -0.0242,-0.02234 -0.009,-0.0067 -0.0181,-0.01282 -0.0282,-0.01795 -0.0101,-0.0051 -0.021,-0.0095 -0.0326,-0.01282 -0.0189,-0.0054 -0.0403,-0.01025 -0.0641,-0.01502 -0.0238,-0.0048 -0.05,-0.0091 -0.0791,-0.01282 -0.0291,-0.0037 -0.061,-0.0067 -0.096,-0.0088 -0.0349,-0.0021 -0.0728,-0.0033 -0.11389,-0.0033 -0.0411,0 -0.079,0.0012 -0.11389,0.0033 -0.0349,0.0021 -0.0668,0.0051 -0.096,0.0088 -0.0291,0.0037 -0.0553,0.008 -0.0791,0.01282 -0.0238,0.0048 -0.0449,0.01002 -0.0637,0.01538 -0.0116,0.0033 -0.0224,0.0073 -0.0326,0.01245 -0.0101,0.0051 -0.0195,0.01121 -0.0282,0.01795 -0.009,0.0067 -0.0168,0.0142 -0.0242,0.02234 -0.007,0.0081 -0.0142,0.01703 -0.0201,0.02637 -0.006,0.0093 -0.0111,0.01898 -0.0157,0.0293 -0.005,0.01032 -0.008,0.02114 -0.0117,0.03223 -0.003,0.01109 -0.006,0.0224 -0.008,0.03406 -0.002,0.01166 -0.003,0.02351 -0.004,0.03552 -0.004,0.06078 -0.007,0.13968 -0.01,0.234741 -0.003,0.09506 -0.004,0.206486 -0.004,0.332886 1e-5,0.06547 3.6e-4,0.13586 7.3e-4,0.207642 -0.25895,0.0029 -0.49823,0.0078 -0.71887,0.01428 0.001,-0.07682 0.002,-0.152085 0.002,-0.221924 0,-0.126401 -0.002,-0.237823 -0.005,-0.332886 -0.003,-0.09506 -0.006,-0.173959 -0.01,-0.234741 -6.3e-4,-0.01201 -0.002,-0.02387 -0.004,-0.03552 -0.002,-0.01166 -0.004,-0.02297 -0.008,-0.03406 -0.003,-0.01109 -0.007,-0.02191 -0.0117,-0.03223 -0.005,-0.01032 -0.0101,-0.01997 -0.0161,-0.0293 -0.006,-0.0093 -0.0124,-0.01823 -0.0198,-0.02637 -0.007,-0.0081 -0.0154,-0.01561 -0.0242,-0.02234 -0.009,-0.0067 -0.0181,-0.01282 -0.0282,-0.01795 -0.0101,-0.0051 -0.021,-0.0092 -0.0326,-0.01245 -0.0189,-0.0054 -0.0403,-0.01061 -0.0641,-0.01538 -0.0238,-0.0048 -0.05,-0.0091 -0.0791,-0.01282 -0.0291,-0.0037 -0.0611,-0.0067 -0.0959,-0.0088 -0.0349,-0.0021 -0.0728,-0.0033 -0.11389,-0.0033 -0.0411,0 -0.079,0.0012 -0.11389,0.0033 -0.0349,0.0021 -0.0668,0.0051 -0.096,0.0088 -0.0291,0.0037 -0.0553,0.008 -0.0791,0.01282 -0.0238,0.0048 -0.0449,0.01001 -0.0637,0.01538 -0.0116,0.0033 -0.0224,0.0073 -0.0326,0.01245 -0.0101,0.0051 -0.0195,0.01121 -0.0282,0.01795 -0.009,0.0067 -0.0168,0.0142 -0.0242,0.02234 -0.007,0.0081 -0.0142,0.01703 -0.0201,0.02637 -0.006,0.0093 -0.0111,0.01898 -0.0157,0.0293 -0.005,0.01032 -0.008,0.02114 -0.0117,0.03223 -0.003,0.01109 -0.006,0.0224 -0.008,0.03406 -0.002,0.01166 -0.003,0.02351 -0.004,0.03552 -0.004,0.06078 -0.007,0.13968 -0.01,0.234741 -0.003,0.09506 -0.004,0.206486 -0.004,0.332886 0,0.08381 6.3e-4,0.175136 0.002,0.268067 -0.0671,0.0043 -0.13179,0.0084 -0.19226,0.01282 -0.0327,0.0024 -0.065,0.0062 -0.0967,0.01135 -0.0317,0.0051 -0.0629,0.01162 -0.0934,0.01941 -0.0305,0.0078 -0.0605,0.01677 -0.0897,0.0271 -0.0293,0.01032 -0.0578,0.02205 -0.0857,0.03479 -0.0279,0.01274 -0.0553,0.0267 -0.0817,0.04175 -0.0264,0.01504 -0.0517,0.03111 -0.0765,0.04834 -0.0248,0.01723 -0.0491,0.03564 -0.0721,0.05493 -0.0231,0.0193 -0.045,0.03954 -0.0663,0.06079 -0.0213,0.02125 -0.0419,0.04356 -0.0612,0.06665 -0.0193,0.02309 -0.0373,0.04697 -0.0546,0.07178 -0.0172,0.02481 -0.0333,0.05049 -0.0483,0.0769 -0.015,0.02641 -0.029,0.0534 -0.0417,0.0813 -0.0127,0.0279 -0.0245,0.05679 -0.0348,0.08606 -0.0103,0.02927 -0.0193,0.0592 -0.0271,0.08972 -0.008,0.03053 -0.0143,0.06135 -0.0194,0.09302 -0.005,0.03167 -0.009,0.06399 -0.0113,0.09668 -0.004,0.06001 -0.009,0.124583 -0.0128,0.191162 -0.14558,0.0013 -0.30269,0.0042 -0.44751,0.0077 -0.14482,0.0034 -0.27736,0.0075 -0.37463,0.01062 -0.013,4.12e-4 -0.0262,0.0015 -0.0388,0.0033 -0.0127,0.0018 -0.0249,0.0044 -0.037,0.0077 -0.0121,0.0033 -0.0239,0.0073 -0.0352,0.01209 -0.0112,0.0048 -0.0217,0.01019 -0.0319,0.01648 -0.0101,0.0063 -0.0198,0.01342 -0.0286,0.02124 -0.009,0.0078 -0.017,0.01625 -0.0242,0.02563 -0.007,0.0094 -0.0133,0.01979 -0.0187,0.03076 -0.005,0.01097 -0.01,0.02257 -0.0132,0.03516 -0.005,0.0188 -0.01,0.03973 -0.0143,0.06299 -0.004,0.02325 -0.008,0.04883 -0.0117,0.0769 -0.003,0.02808 -0.006,0.05865 -0.008,0.09192 -0.002,0.03327 -0.003,0.0692 -0.003,0.108032 0,0.03883 10e-4,0.07476 0.003,0.108033 0.002,0.03327 0.005,0.06384 0.008,0.09192 0.003,0.02808 0.007,0.05365 0.0117,0.0769 0.004,0.02325 0.009,0.04419 0.0143,0.06299 0.003,0.01259 0.008,0.02455 0.0132,0.03552 0.005,0.01097 0.0115,0.02101 0.0187,0.03039 0.007,0.0094 0.0154,0.01818 0.0242,0.026 0.009,0.0078 0.0184,0.01459 0.0286,0.02087 0.0101,0.0063 0.0206,0.01207 0.0319,0.01685 0.0112,0.0048 0.0231,0.0088 0.0352,0.01208 0.0121,0.0033 0.0243,0.0059 0.037,0.0077 0.0127,0.0018 0.0258,0.0029 0.0388,0.0033 0.0922,0.0029 0.21598,0.0066 0.35193,0.0099 0.13594,0.0033 0.28405,0.0061 0.42407,0.0077 -0.006,0.22057 -0.0114,0.459654 -0.0143,0.718506 -0.13814,0.0017 -0.28351,0.0048 -0.41675,0.0081 -0.13324,0.0032 -0.25433,0.0067 -0.34497,0.0095 -0.013,4.12e-4 -0.0262,0.0015 -0.0388,0.0033 -0.0127,0.0018 -0.0249,0.0044 -0.037,0.0077 -0.0121,0.0033 -0.0239,0.0073 -0.0352,0.01208 -0.0112,0.0048 -0.0217,0.01056 -0.0319,0.01685 -0.0101,0.0063 -0.0198,0.01306 -0.0286,0.02087 -0.009,0.0078 -0.017,0.01662 -0.0242,0.026 -0.007,0.0094 -0.0133,0.01943 -0.0187,0.0304 -0.005,0.01097 -0.01,0.02294 -0.0132,0.03552 -0.005,0.0188 -0.01,0.03974 -0.0143,0.06299 -0.004,0.02325 -0.008,0.04883 -0.0117,0.07691 -0.003,0.02808 -0.006,0.05865 -0.008,0.09192 -0.002,0.03327 -0.003,0.0692 -0.003,0.108032 0,0.03883 0.001,0.07475 0.003,0.108033 0.002,0.03328 0.005,0.06383 0.008,0.09192 0.003,0.02809 0.007,0.05364 0.0117,0.0769 0.004,0.02327 0.009,0.04419 0.0143,0.06299 0.003,0.01259 0.007,0.02455 0.0128,0.03552 0.005,0.01097 0.0118,0.02102 0.019,0.0304 0.007,0.0094 0.0154,0.01782 0.0242,0.02564 0.009,0.0078 0.0184,0.01496 0.0286,0.02124 0.0101,0.0063 0.0206,0.0117 0.0319,0.01648 0.0112,0.0048 0.0231,0.0088 0.0352,0.01209 0.0121,0.0033 0.0243,0.0059 0.037,0.0077 0.0127,0.0018 0.0258,0.0032 0.0388,0.0037 0.0906,0.0029 0.21173,0.0063 0.34497,0.0095 0.13324,0.0032 0.2786,0.0061 0.41675,0.0077 0.002,0.190943 0.007,0.360315 0.0106,0.530274 H 33 Z" />
  </g>
</svg>
