<?xml version="1.0" encoding="UTF-8" standalone="no"?>
<svg
   fill="none"
   viewBox="0 0 48 48"
   height="256"
   width="256"
   version="1.1"
   id="svg6"
   sodipodi:docname="stlink_v2.svg"
   inkscape:version="1.2.1 (9c6d41e410, 2022-07-14)"
   xmlns:inkscape="http://www.inkscape.org/namespaces/inkscape"
   xmlns:sodipodi="http://sodipodi.sourceforge.net/DTD/sodipodi-0.dtd"
   xmlns="http://www.w3.org/2000/svg"
   xmlns:svg="http://www.w3.org/2000/svg">
  <defs
     id="defs10" />
  <sodipodi:namedview
     id="namedview8"
     pagecolor="#ffffff"
     bordercolor="#666666"
     borderopacity="1.0"
     inkscape:showpageshadow="2"
     inkscape:pageopacity="0.0"
     inkscape:pagecheckerboard="true"
     inkscape:deskcolor="#d1d1d1"
     showgrid="true"
     inkscape:zoom="2.2898106"
     inkscape:cx="80.792708"
     inkscape:cy="86.251675"
     inkscape:current-layer="svg6"
     showguides="false"
     inkscape:window-width="1920"
     inkscape:window-height="730"
     inkscape:window-x="-6"
     inkscape:window-y="-6"
     inkscape:window-maximized="1">
    <inkscape:grid
       type="xygrid"
       id="grid239"
       units="px"
       spacingx="1.5"
       spacingy="1.5" />
  </sodipodi:namedview>
  <path
     id="rect13302"
     style="fill:#babdb6;fill-opacity:1;stroke:none;stroke-width:1.3125;stroke-linecap:round;stroke-linejoin:round;stroke-opacity:1"
     d="m 25.5,6.1014404 c 2.637708,0 5.273376,0.1880167 7.457153,0.5683594 2.183778,0.3803426 3.911283,0.9044723 4.80835,1.8028564 0.05339,0.054033 0.09121,0.1214641 0.109497,0.1951905 3.007562,12.0475133 3.019386,24.0954443 -0.0077,33.1896973 -0.02056,0.06247 -0.05542,0.119277 -0.101807,0.165894 -0.897069,0.898363 -2.624573,1.422523 -4.80835,1.802856 -2.183776,0.380333 -4.819446,0.568359 -7.457153,0.568359 -2.637707,0 -5.273371,-0.188026 -7.457153,-0.568359 -2.183784,-0.380333 -3.911269,-0.904497 -4.80835,-1.802856 -0.04639,-0.04662 -0.08125,-0.103424 -0.101807,-0.165894 C 10.105668,32.763292 10.117465,20.71536 13.125,8.6678467 13.143282,8.5941203 13.181109,8.5266891 13.234497,8.4726562 14.131576,7.5742761 15.859062,7.0501424 18.042847,6.6697998 20.22663,6.2894572 22.862292,6.1014404 25.5,6.1014404 Z"
     sodipodi:nodetypes="ssccccsssccccss" />
  <path
     id="path1061-8"
     style="fill:#cc0000;fill-opacity:1;stroke-width:0.425197;stroke-linejoin:round;stroke-opacity:0.580986"
     d="M 34.5,39 A 1.5,1.5 0 0 1 33,40.5 1.5,1.5 0 0 1 31.5,39 1.5,1.5 0 0 1 33,37.5 1.5,1.5 0 0 1 34.5,39 Z" />
  <path
     style="fill:#2e3436;fill-opacity:1;stroke-width:0.425197;stroke-linejoin:round;stroke-opacity:0.580986"
     d="m 15.75,6.75 h 19.5 c 1.5,0 1.5,0.75 1.5,2.25 0,1.5 0,2.25 -1.5,2.25 h -19.5 c -1.5,0 -1.5,-0.75 -1.5,-2.25 0,-1.5 0,-2.25 1.5,-2.25 z"
     id="path6182"
     sodipodi:nodetypes="ccccccc" />
  <path
     id="path14304"
     style="fill:#888a85;fill-opacity:1;stroke:none;stroke-width:1.3125;stroke-linecap:round;stroke-linejoin:round;stroke-opacity:1"
     d="M 16.875,1.5 C 16.125001,1.5 15.75,1.8750007 15.75,2.625 V 8.25 c 0,0.749999 0.375001,1.125 1.125,1.125 h 17.25 c 0.749999,0 1.125,-0.375001 1.125,-1.125 V 2.625 C 35.25,1.8750007 34.874999,1.5 34.125,1.5 Z"
     sodipodi:nodetypes="sccssccss" />
  <path
     style="fill:#2e3436;fill-opacity:1;stroke-width:0.425197;stroke-linejoin:round;stroke-opacity:0.580986"
     d="m 23.25,18 h 4.5 c 1.5,0 1.5,0.75 1.5,2.25 0,1.5 0,2.25 -1.5,2.25 h -4.5 c -1.5,0 -1.5,-0.75 -1.5,-2.25 0,-1.5 0,-2.25 1.5,-2.25 z"
     id="path14309"
     sodipodi:nodetypes="ccccccc" />
  <path
     id="path14363"
     style="fill:#edd400;stroke-width:1.3125;stroke-linecap:round;stroke-linejoin:round;fill-opacity:1"
     d="M 24,20.25 A 0.75,0.75 0 0 1 23.25,21 0.75,0.75 0 0 1 22.5,20.25 0.75,0.75 0 0 1 23.25,19.5 0.75,0.75 0 0 1 24,20.25 Z" />
  <path
     id="path14366"
     style="fill:#edd400;stroke-width:1.3125;stroke-linecap:round;stroke-linejoin:round;fill-opacity:1"
     d="M 25.5,20.25 A 0.75,0.75 0 0 1 24.75,21 0.75,0.75 0 0 1 24,20.25 0.75,0.75 0 0 1 24.75,19.5 0.75,0.75 0 0 1 25.5,20.25 Z" />
  <path
     id="path14368"
     style="fill:#edd400;stroke-width:1.3125;stroke-linecap:round;stroke-linejoin:round;fill-opacity:1"
     d="M 27,20.25 A 0.75,0.75 0 0 1 26.25,21 0.75,0.75 0 0 1 25.5,20.25 0.75,0.75 0 0 1 26.25,19.5 0.75,0.75 0 0 1 27,20.25 Z" />
  <path
     id="path14370"
     style="fill:#edd400;stroke-width:1.3125;stroke-linecap:round;stroke-linejoin:round;fill-opacity:1"
     d="M 28.5,20.25 A 0.75,0.75 0 0 1 27.75,21 0.75,0.75 0 0 1 27,20.25 0.75,0.75 0 0 1 27.75,19.5 0.75,0.75 0 0 1 28.5,20.25 Z" />
  <path
     id="rect346"
     style="fill:#3465a4;stroke-width:2.10938;stroke-linejoin:round;fill-opacity:1"
     d="m 21.400963,26.684663 c -1.401306,0.147953 -2.208188,2.757875 -2.99288,5.080009 -0.0017,0.01246 -0.0083,0.02427 -0.01319,0.03667 -0.285405,0.843315 -0.56801,1.65008 -0.876297,2.279731 -0.06571,0.135396 -0.249508,0.438501 -0.134925,0.441032 1.452552,0.03199 2.993343,0.05855 4.381483,0.03131 0.65947,-0.01327 1.363079,0.09417 1.523529,-0.294159 0.03788,-0.153345 -0.07228,-0.355642 -0.222473,-0.563804 -0.04304,-0.05977 -0.08306,-0.11106 -0.134926,-0.171593 -0.11016,-0.130313 -0.196969,-0.21605 -0.323615,-0.337006 -0.06569,-0.06441 -0.123942,-0.137711 -0.188897,-0.196106 l -0.04676,-0.01256 c -0.14181,-0.124097 -0.313746,-0.294784 -0.39777,-0.361525 -2.169297,-1.725095 -1.438537,-4.168568 0.471932,-4.583564 h 10.704254 c 0.157343,0 8.25e-4,-0.175089 0.316818,-0.821091 0.06935,-0.141419 0.260021,-0.527138 0.154907,-0.527138 z m 8.803345,3.112976 c -0.181916,0.0068 -0.274252,0.444435 -0.357193,0.704704 l -0.633636,1.685234 -1.253678,3.364083 c -0.104869,0.234949 -0.379568,0.702547 -0.161704,0.704909 h 1.260475 c 0.140104,-0.0073 0.437207,-0.148748 0.741371,-0.367698 0.304144,-0.218971 0.616679,-0.516709 0.781952,-0.833451 l 1.253883,-3.382621 0.478524,-1.293022 c 0.09405,-0.258131 0.15734,-0.581932 0,-0.581932 z m -7.758544,0.05541 c -0.262283,0 -0.399695,0.335203 0,0.821091 0.682052,0.880932 2.357203,2.051371 2.433402,3.229362 -0.0166,0.469834 -0.09088,0.979829 -0.330413,1.378922 -0.40045,0.667041 -1.0961,1.02935 -0.997627,1.02935 h 2.096397 c 0.209871,0 0.392214,0.06386 0.545883,-0.34916 l 2.103195,-5.533606 c 0.09637,-0.222002 0.185764,-0.575959 0.08116,-0.575959 z" />
</svg>
