<?xml version="1.0" encoding="UTF-8" standalone="no"?>
<svg
   fill="none"
   viewBox="0 0 48 48"
   height="256"
   width="256"
   version="1.1"
   id="svg6"
   sodipodi:docname="stlink_v3.svg"
   inkscape:version="1.2.1 (9c6d41e410, 2022-07-14)"
   xmlns:inkscape="http://www.inkscape.org/namespaces/inkscape"
   xmlns:sodipodi="http://sodipodi.sourceforge.net/DTD/sodipodi-0.dtd"
   xmlns="http://www.w3.org/2000/svg"
   xmlns:svg="http://www.w3.org/2000/svg">
  <defs
     id="defs10" />
  <sodipodi:namedview
     id="namedview8"
     pagecolor="#ffffff"
     bordercolor="#666666"
     borderopacity="1.0"
     inkscape:showpageshadow="2"
     inkscape:pageopacity="0.0"
     inkscape:pagecheckerboard="true"
     inkscape:deskcolor="#d1d1d1"
     showgrid="true"
     inkscape:zoom="1.6191406"
     inkscape:cx="32.733414"
     inkscape:cy="84.303982"
     inkscape:current-layer="svg6"
     showguides="false"
     inkscape:window-width="1920"
     inkscape:window-height="730"
     inkscape:window-x="-6"
     inkscape:window-y="-6"
     inkscape:window-maximized="1">
    <inkscape:grid
       type="xygrid"
       id="grid239"
       units="px"
       spacingx="1.5"
       spacingy="1.5" />
  </sodipodi:namedview>
  <path
     id="rect897"
     style="fill:#babdb6;fill-opacity:1;stroke:none;stroke-width:0.363088;stroke-linejoin:round;stroke-opacity:0.580986"
     d="m 34.545776,2.295961 c 5.120294,0.2698197 9.013548,4.1634678 9.283448,9.283814 0.167099,3.171297 0.295898,7.281215 0.295898,12.42041 0,5.139095 -0.128799,9.24948 -0.295898,12.420776 -0.2698,5.120295 -4.163154,9.013648 -9.283448,9.283448 H 13.45459 C 8.334265,45.434609 4.440586,41.541256 4.170776,36.420961 4.003667,33.249665 3.875244,29.13938 3.875244,24.000185 c 0,-5.139195 0.128423,-9.249113 0.295532,-12.42041 0.26981,-5.1203362 4.163479,-9.0140043 9.283814,-9.283814 z"
     sodipodi:nodetypes="ccssccssscc" />
  <path
     id="rect346"
     style="fill:#3465a4;stroke-width:2.10938;stroke-linejoin:round;fill-opacity:1"
     d="m 19.900963,17.684663 c -1.401306,0.147953 -2.208188,2.757875 -2.99288,5.080009 -0.0017,0.01246 -0.0083,0.02427 -0.01319,0.03667 -0.285405,0.843315 -0.56801,1.65008 -0.876297,2.279731 -0.06571,0.135396 -0.249508,0.438501 -0.134925,0.441032 1.452552,0.03199 2.993343,0.05855 4.381483,0.03131 0.65947,-0.01327 1.363079,0.09417 1.523529,-0.294159 0.03788,-0.153345 -0.07228,-0.355642 -0.222473,-0.563804 -0.04304,-0.05977 -0.08306,-0.11106 -0.134926,-0.171593 -0.11016,-0.130313 -0.196969,-0.21605 -0.323615,-0.337006 -0.06569,-0.06441 -0.123942,-0.137711 -0.188897,-0.196106 l -0.04676,-0.01256 c -0.14181,-0.124097 -0.313746,-0.294784 -0.39777,-0.361525 -2.169297,-1.725095 -1.438537,-4.168568 0.471932,-4.583564 h 10.704254 c 0.157343,0 8.25e-4,-0.175089 0.316818,-0.821091 0.06935,-0.141419 0.260021,-0.527138 0.154907,-0.527138 z m 8.803345,3.112976 c -0.181916,0.0068 -0.274252,0.444435 -0.357193,0.704704 l -0.633636,1.685234 -1.253678,3.364083 c -0.104869,0.234949 -0.379568,0.702547 -0.161704,0.704909 h 1.260475 c 0.140104,-0.0073 0.437207,-0.148748 0.741371,-0.367698 0.304144,-0.218971 0.616679,-0.516709 0.781952,-0.833451 l 1.253883,-3.382621 0.478524,-1.293022 c 0.09405,-0.258131 0.15734,-0.581932 0,-0.581932 z m -7.758544,0.05541 c -0.262283,0 -0.399695,0.335203 0,0.821091 0.682052,0.880932 2.357203,2.051371 2.433402,3.229362 -0.0166,0.469834 -0.09088,0.979829 -0.330413,1.378922 -0.40045,0.667041 -1.0961,1.02935 -0.997627,1.02935 h 2.096397 c 0.209871,0 0.392214,0.06386 0.545883,-0.34916 l 2.103195,-5.533606 c 0.09637,-0.222002 0.185764,-0.575959 0.08116,-0.575959 z" />
  <path
     id="rect14914"
     style="fill:#2e3436;stroke-width:1.3125;stroke-linecap:round;stroke-linejoin:round;fill-opacity:1"
     d="M 7.5 9.84375 A 0.65625 0.65625 0 0 0 6.84375 10.5 A 0.65625 0.65625 0 0 0 7.5 11.15625 L 13.5 11.15625 A 0.65625 0.65625 0 0 0 14.15625 10.5 A 0.65625 0.65625 0 0 0 13.5 9.84375 L 7.5 9.84375 z M 34.5 9.84375 A 0.65625 0.65625 0 0 0 33.84375 10.5 A 0.65625 0.65625 0 0 0 34.5 11.15625 L 40.5 11.15625 A 0.65625 0.65625 0 0 0 41.15625 10.5 A 0.65625 0.65625 0 0 0 40.5 9.84375 L 34.5 9.84375 z M 7.5 13.59375 A 0.65625 0.65625 0 0 0 6.84375 14.25 A 0.65625 0.65625 0 0 0 7.5 14.90625 L 13.5 14.90625 A 0.65625 0.65625 0 0 0 14.15625 14.25 A 0.65625 0.65625 0 0 0 13.5 13.59375 L 7.5 13.59375 z M 34.5 13.59375 A 0.65625 0.65625 0 0 0 33.84375 14.25 A 0.65625 0.65625 0 0 0 34.5 14.90625 L 40.5 14.90625 A 0.65625 0.65625 0 0 0 41.15625 14.25 A 0.65625 0.65625 0 0 0 40.5 13.59375 L 34.5 13.59375 z M 7.5 17.34375 A 0.65625 0.65625 0 0 0 6.84375 18 A 0.65625 0.65625 0 0 0 7.5 18.65625 L 15.75 18.65625 A 0.65625 0.65625 0 0 0 16.40625 18 A 0.65625 0.65625 0 0 0 15.75 17.34375 L 7.5 17.34375 z M 34.5 17.34375 A 0.65625 0.65625 0 0 0 33.84375 18 A 0.65625 0.65625 0 0 0 34.5 18.65625 L 40.5 18.65625 A 0.65625 0.65625 0 0 0 41.15625 18 A 0.65625 0.65625 0 0 0 40.5 17.34375 L 34.5 17.34375 z M 7.5 21.09375 A 0.65625 0.65625 0 0 0 6.84375 21.75 A 0.65625 0.65625 0 0 0 7.5 22.40625 L 14.625 22.40625 A 0.65625 0.65625 0 0 0 15.28125 21.75 A 0.65625 0.65625 0 0 0 14.625 21.09375 L 7.5 21.09375 z M 33.375 21.09375 A 0.65625 0.65625 0 0 0 32.71875 21.75 A 0.65625 0.65625 0 0 0 33.375 22.40625 L 40.5 22.40625 A 0.65625 0.65625 0 0 0 41.15625 21.75 A 0.65625 0.65625 0 0 0 40.5 21.09375 L 33.375 21.09375 z M 7.5 24.84375 A 0.65625 0.65625 0 0 0 6.84375 25.5 A 0.65625 0.65625 0 0 0 7.5 26.15625 L 13.5 26.15625 A 0.65625 0.65625 0 0 0 14.15625 25.5 A 0.65625 0.65625 0 0 0 13.5 24.84375 L 7.5 24.84375 z M 32.25 24.84375 A 0.65625 0.65625 0 0 0 31.59375 25.5 A 0.65625 0.65625 0 0 0 32.25 26.15625 L 40.5 26.15625 A 0.65625 0.65625 0 0 0 41.15625 25.5 A 0.65625 0.65625 0 0 0 40.5 24.84375 L 32.25 24.84375 z M 7.5 28.59375 A 0.65625 0.65625 0 0 0 6.84375 29.25 A 0.65625 0.65625 0 0 0 7.5 29.90625 L 13.5 29.90625 A 0.65625 0.65625 0 0 0 14.15625 29.25 A 0.65625 0.65625 0 0 0 13.5 28.59375 L 7.5 28.59375 z M 34.5 28.59375 A 0.65625 0.65625 0 0 0 33.84375 29.25 A 0.65625 0.65625 0 0 0 34.5 29.90625 L 40.5 29.90625 A 0.65625 0.65625 0 0 0 41.15625 29.25 A 0.65625 0.65625 0 0 0 40.5 28.59375 L 34.5 28.59375 z M 7.5 32.34375 A 0.65625 0.65625 0 0 0 6.84375 33 A 0.65625 0.65625 0 0 0 7.5 33.65625 L 13.5 33.65625 A 0.65625 0.65625 0 0 0 14.15625 33 A 0.65625 0.65625 0 0 0 13.5 32.34375 L 7.5 32.34375 z M 34.5 32.34375 A 0.65625 0.65625 0 0 0 33.84375 33 A 0.65625 0.65625 0 0 0 34.5 33.65625 L 40.5 33.65625 A 0.65625 0.65625 0 0 0 41.15625 33 A 0.65625 0.65625 0 0 0 40.5 32.34375 L 34.5 32.34375 z M 7.5 36.09375 A 0.65625 0.65625 0 0 0 6.84375 36.75 A 0.65625 0.65625 0 0 0 7.5 37.40625 L 13.5 37.40625 A 0.65625 0.65625 0 0 0 14.15625 36.75 A 0.65625 0.65625 0 0 0 13.5 36.09375 L 7.5 36.09375 z M 34.5 36.09375 A 0.65625 0.65625 0 0 0 33.84375 36.75 A 0.65625 0.65625 0 0 0 34.5 37.40625 L 40.5 37.40625 A 0.65625 0.65625 0 0 0 41.15625 36.75 A 0.65625 0.65625 0 0 0 40.5 36.09375 L 34.5 36.09375 z M 17.25 37.5 C 16.500003 37.5 15.75 38.250003 15.75 39 L 15.75 42 C 15.75 42.749997 16.500003 43.5 17.25 43.5 L 30.75 43.5 C 31.499997 43.5 32.25 42.749997 32.25 42 L 32.25 39 C 32.25 38.250003 31.499997 37.5 30.75 37.5 L 17.25 37.5 z M 20.25 39 C 21.078425 39 21.75 39.671575 21.75 40.5 C 21.75 41.328425 21.078425 42 20.25 42 C 19.421575 42 18.75 41.328425 18.75 40.5 C 18.75 39.671575 19.421575 39 20.25 39 z M 27.75 39 C 28.578426 39 29.25 39.671574 29.25 40.5 C 29.25 41.328426 28.578426 42 27.75 42 C 26.921574 42 26.25 41.328426 26.25 40.5 C 26.25 39.671574 26.921574 39 27.75 39 z M 7.5 39.84375 A 0.65625 0.65625 0 0 0 6.84375 40.5 A 0.65625 0.65625 0 0 0 7.5 41.15625 L 13.5 41.15625 A 0.65625 0.65625 0 0 0 14.15625 40.5 A 0.65625 0.65625 0 0 0 13.5 39.84375 L 7.5 39.84375 z M 34.5 39.84375 A 0.65625 0.65625 0 0 0 33.84375 40.5 A 0.65625 0.65625 0 0 0 34.5 41.15625 L 40.5 41.15625 A 0.65625 0.65625 0 0 0 41.15625 40.5 A 0.65625 0.65625 0 0 0 40.5 39.84375 L 34.5 39.84375 z " />
</svg>
