<?xml version="1.0" encoding="UTF-8" standalone="no"?>
<svg
   fill="none"
   viewBox="0 0 48 48"
   height="256"
   width="256"
   version="1.1"
   id="svg6"
   sodipodi:docname="wchisp-usb.svg"
   inkscape:version="1.3.2 (091e20e, 2023-11-25, custom)"
   xml:space="preserve"
   xmlns:inkscape="http://www.inkscape.org/namespaces/inkscape"
   xmlns:sodipodi="http://sodipodi.sourceforge.net/DTD/sodipodi-0.dtd"
   xmlns="http://www.w3.org/2000/svg"
   xmlns:svg="http://www.w3.org/2000/svg"><defs
     id="defs10" /><sodipodi:namedview
     id="namedview8"
     pagecolor="#ffffff"
     bordercolor="#666666"
     borderopacity="1.0"
     inkscape:showpageshadow="2"
     inkscape:pageopacity="0.0"
     inkscape:pagecheckerboard="true"
     inkscape:deskcolor="#d1d1d1"
     showgrid="true"
     inkscape:zoom="2.2898106"
     inkscape:cx="323.60755"
     inkscape:cy="170.53812"
     inkscape:current-layer="svg6"
     showguides="false"
     inkscape:window-width="3840"
     inkscape:window-height="1494"
     inkscape:window-x="-11"
     inkscape:window-y="-11"
     inkscape:window-maximized="1"><inkscape:grid
       type="xygrid"
       id="grid239"
       units="px"
       spacingx="1.5"
       spacingy="1.5"
       originx="0"
       originy="0"
       visible="true" /></sodipodi:namedview><g
     id="g3"
     transform="translate(47.25)"><path
       id="path5"
       style="fill:#b3c2e1;stroke-width:0.979372"
       d="m -29.357666,18.858765 c -7.178929,-0.07736 -13.832475,1.607223 -17.135376,3.954712 -0.540094,0.543521 -0.756958,0.915213 -0.756958,1.297851 0,1.975921 5.978036,3.879634 13.671387,4.353882 1.532179,0.09445 6.454954,-0.01704 8.930053,-0.17981 0.09513,-0.18604 0.208026,-0.364822 0.343872,-0.531372 0.498585,-0.611267 1.228755,-1.433833 2.300904,-2.505981 1.072184,-1.072185 1.894351,-1.804154 2.505615,-2.302735 0.561617,-0.458055 1.253785,-0.684057 1.945313,-0.683715 0.691526,3.42e-4 1.382651,0.227794 1.943481,0.671997 0.583014,0.461755 1.399761,1.164196 2.433105,2.12146 0.279486,-0.307783 0.42627,-0.624463 0.42627,-0.946289 0,-0.391561 -0.183343,-0.758856 -0.58667,-1.175537 -0.322591,-0.333273 -0.832704,-0.813661 -1.452392,-1.089112 -4.498931,-2.05459 -9.656705,-2.932421 -14.568604,-2.985351 z" /><path
       style="color:#000000;fill:#a40000;fill-opacity:1;stroke-width:0.755129;stroke-linecap:round;stroke-linejoin:round;-inkscape-stroke:none"
       d="m -42.07704,10.14223 c 1.23078,-0.09017 2.037642,0.728603 2.75801,1.600335 0.263547,0.171727 0.334411,0.519709 0.158198,0.776847 -0.175774,0.256474 -0.530964,0.325588 -0.793972,0.154495 -1.059669,-0.02568 -1.70185,-0.75806 -2.328191,-1.517257 -0.263546,-0.171728 -0.33441,-0.519711 -0.158197,-0.776848 0.08439,-0.123146 0.215351,-0.208583 0.364152,-0.237572 z"
       id="path21"
       sodipodi:nodetypes="cccccsc" /><path
       style="color:#000000;fill:#b70000;fill-opacity:1;stroke-width:0.755129;stroke-linecap:round;stroke-linejoin:round;-inkscape-stroke:none"
       d="m -42.248968,12.660789 c 1.23078,-0.09017 2.037642,0.728603 2.75801,1.600335 0.263547,0.171727 0.334411,0.51971 0.158199,0.776847 -0.175775,0.256474 -0.530965,0.325588 -0.793973,0.154495 -1.059669,-0.02568 -1.70185,-0.75806 -2.328191,-1.517257 -0.263546,-0.171728 -0.334409,-0.51971 -0.158197,-0.776847 0.08439,-0.123147 0.215351,-0.208583 0.364152,-0.237573 z"
       id="path22"
       sodipodi:nodetypes="cccccsc" /><path
       style="color:#000000;fill:#a40000;fill-opacity:1;stroke-width:0.755129;stroke-linecap:round;stroke-linejoin:round;-inkscape-stroke:none"
       d="m -41.814372,10.180125 c 0.283913,0.136474 0.400832,0.471844 0.261175,0.749155 -0.202301,2.517515 -1.612009,4.180148 -2.959487,5.88684 -0.139745,0.277269 -0.483154,0.391452 -0.76711,0.255063 -0.284478,-0.13594 -0.402115,-0.471454 -0.262667,-0.749155 0.518167,-2.199878 1.128004,-4.512209 2.96098,-5.960997 0.139198,-0.27782 0.482753,-0.31709 0.767109,-0.180906 z"
       id="path23"
       sodipodi:nodetypes="ccccccc" /><path
       style="color:#000000;fill:#b70000;fill-opacity:1;stroke-width:0.755129;stroke-linecap:round;stroke-linejoin:round;-inkscape-stroke:none"
       d="m -41.9863,12.698684 c 0.283913,0.136474 0.400832,0.471845 0.261175,0.749155 -0.202301,2.517515 -1.612009,4.180148 -2.959487,5.886841 -0.139745,0.277268 -0.483154,0.391451 -0.76711,0.255062 -0.284478,-0.135939 -0.402115,-0.471454 -0.262667,-0.749154 0.518167,-2.199879 1.128004,-4.512209 2.96098,-5.960998 0.139198,-0.27782 0.482753,-0.31709 0.767109,-0.180906 z"
       id="path24"
       sodipodi:nodetypes="ccccccc" /><path
       style="color:#000000;fill:#a40000;fill-opacity:1;stroke-width:0.755129;stroke-linecap:round;stroke-linejoin:round;-inkscape-stroke:none"
       d="m -18.849967,10.077418 c -1.230779,-0.090174 -2.037642,0.728602 -2.75801,1.600334 -0.263546,0.171728 -0.33441,0.51971 -0.158198,0.776848 0.175775,0.256473 0.530965,0.325588 0.793973,0.154494 1.059669,-0.02568 1.70185,-0.75806 2.328191,-1.517256 0.263546,-0.171728 0.334409,-0.519711 0.158197,-0.776848 -0.08439,-0.123147 -0.215351,-0.208583 -0.364153,-0.237572 z"
       id="path19"
       sodipodi:nodetypes="cccccsc" /><path
       style="color:#000000;fill:#b70000;fill-opacity:1;stroke-width:0.755129;stroke-linecap:round;stroke-linejoin:round;-inkscape-stroke:none"
       d="m -18.678039,12.595977 c -1.23078,-0.09017 -2.037642,0.728602 -2.75801,1.600334 -0.263546,0.171728 -0.33441,0.51971 -0.158198,0.776848 0.175775,0.256474 0.530965,0.325588 0.793973,0.154495 1.059669,-0.02568 1.70185,-0.758061 2.328191,-1.517257 0.263546,-0.171728 0.334409,-0.519711 0.158197,-0.776848 -0.08439,-0.123147 -0.215351,-0.208583 -0.364153,-0.237572 z"
       id="path17"
       sodipodi:nodetypes="cccccsc" /><path
       style="color:#000000;fill:#a40000;fill-opacity:1;stroke-width:0.755129;stroke-linecap:round;stroke-linejoin:round;-inkscape-stroke:none"
       d="m -19.112634,10.115313 c -0.283913,0.136473 -0.400832,0.471844 -0.261175,0.749154 0.202301,2.517515 1.612009,4.180148 2.959487,5.886841 0.139745,0.277268 0.483153,0.391451 0.767109,0.255062 0.284479,-0.135939 0.402116,-0.471454 0.262668,-0.749154 -0.518167,-2.199878 -1.128004,-4.512209 -2.96098,-5.960998 -0.139198,-0.27782 -0.482753,-0.3170897 -0.767109,-0.180905 z"
       id="path20"
       sodipodi:nodetypes="ccccccc" /><path
       style="color:#000000;fill:#b70000;fill-opacity:1;stroke-width:0.755129;stroke-linecap:round;stroke-linejoin:round;-inkscape-stroke:none"
       d="m -18.940706,12.633872 c -0.283914,0.136474 -0.400832,0.471844 -0.261176,0.749154 0.202302,2.517516 1.612009,4.180148 2.959488,5.886841 0.139744,0.277269 0.483153,0.391451 0.767109,0.255063 0.284478,-0.13594 0.402116,-0.471454 0.262668,-0.749155 -0.518167,-2.199878 -1.128004,-4.512209 -2.960981,-5.960997 -0.139197,-0.27782 -0.482752,-0.31709 -0.767108,-0.180906 z"
       id="path18"
       sodipodi:nodetypes="ccccccc" /><rect
       style="fill:#cc0000;fill-opacity:1;stroke-width:0.271846;stroke-linecap:round;stroke-linejoin:round"
       id="rect7"
       width="20.042355"
       height="13.221677"
       x="-40.513535"
       y="8.1536894"
       ry="5.3361993" /><path
       id="path8"
       style="fill:#eeeeec;fill-opacity:1;stroke-width:0.280658;stroke-linecap:round;stroke-linejoin:round"
       d="m -32.158108,6.8601383 a 5.0351327,5.640037 18.012058 0 1 -6.364704,4.1624207 5.0351327,5.640037 18.012058 0 1 -3.380907,-6.7126313 5.0351327,5.640037 18.012058 0 1 6.364704,-4.16242133 5.0351327,5.640037 18.012058 0 1 3.380907,6.71263193 z" /><path
       id="path8-1"
       style="fill:#eeeeec;fill-opacity:1;stroke-width:0.280658;stroke-linecap:round;stroke-linejoin:round"
       d="m -28.220384,7.9665057 a 5.6676685,5.010585 55.182041 0 0 7.250965,2.4118383 5.6676685,5.010585 55.182041 0 0 1.48671,-7.3384665 5.6676685,5.010585 55.182041 0 0 -7.250964,-2.41183885 5.6676685,5.010585 55.182041 0 0 -1.486711,7.33846705 z" /><path
       id="path9"
       style="fill:#2e3436;fill-opacity:1;stroke-width:0.28605;stroke-linecap:round;stroke-linejoin:round"
       d="m -37.018415,2.0505121 a 3.8049507,3.68349 0 0 0 -3.804856,3.6835567 3.8049507,3.68349 0 0 0 3.804856,3.6835566 3.8049507,3.68349 0 0 0 3.805137,-3.6835566 3.8049507,3.68349 0 0 0 -3.805137,-3.6835567 z m -0.864956,1.3117496 a 1.5329629,1.4474358 0 0 1 1.532912,1.4475705 1.5329629,1.4474358 0 0 1 -1.532912,1.4472969 1.5329629,1.4474358 0 0 1 -1.532912,-1.4472969 1.5329629,1.4474358 0 0 1 1.532912,-1.4475705 z" /><path
       id="path9-7"
       style="fill:#2e3436;fill-opacity:1;stroke-width:0.274563;stroke-linecap:round;stroke-linejoin:round"
       d="m -24.317184,1.9114121 a 3.7080191,3.482306 62.972786 0 0 -0.977728,0.1882907 3.7080191,3.482306 62.972786 0 0 -1.990436,4.6392211 3.7080191,3.482306 62.972786 0 0 4.578028,2.3040332 3.7080191,3.482306 62.972786 0 0 1.990715,-4.6392211 3.7080191,3.482306 62.972786 0 0 -3.600579,-2.4923239 z m -0.339155,1.2540872 a 1.5329629,1.4474358 0 0 1 1.532912,1.4475703 1.5329629,1.4474358 0 0 1 -1.532912,1.447297 1.5329629,1.4474358 0 0 1 -1.532912,-1.447297 1.5329629,1.4474358 0 0 1 1.532912,-1.4475703 z" /><path
       style="fill:#729fcf;fill-opacity:1;stroke-width:0.271846;stroke-linecap:round;stroke-linejoin:round"
       d="m -36.454185,4.2352567 c 0.25309,0.3202771 0.799129,0.079154 1.17004,0.2980787 0.60991,0.3599883 1.119941,1.2727067 0.804331,2.0729653 -0.335861,0.6399043 -1.049733,0.7819063 -1.675553,0.5370605 -0.817789,-0.3199525 -0.707753,-1.0884742 -1.238994,-0.9556391 0.739953,-0.3847358 1.181509,-1.0062528 0.940176,-1.9524654 z"
       id="path10"
       sodipodi:nodetypes="cscscc" /><path
       style="fill:#729fcf;fill-opacity:1;stroke-width:0.271846;stroke-linecap:round;stroke-linejoin:round"
       d="m -23.128903,4.4982286 c 0.01604,0.1433899 0.118233,0.3203577 0.237403,0.4503333 0.408641,0.4456954 0.852758,0.8815338 0.608406,1.501109 -0.335861,0.6399044 -1.103112,0.7932171 -1.725327,0.5397612 -0.546797,-0.2227346 -0.948328,-0.7833174 -1.230698,-1.0204515 1.212846,0.1774707 2.01633,-0.1816094 2.110216,-1.470752 z"
       id="path10-9"
       sodipodi:nodetypes="cscscc" /><path
       id="path11"
       style="fill:#eeeeec;fill-opacity:1;stroke-width:0.271846;stroke-linecap:round;stroke-linejoin:round"
       d="m -34.972024,5.9986876 a 0.43967086,0.45908603 0 0 1 -0.43967,0.459086 0.43967086,0.45908603 0 0 1 -0.439671,-0.459086 0.43967086,0.45908603 0 0 1 0.439671,-0.4590859 0.43967086,0.45908603 0 0 1 0.43967,0.4590859 z" /><path
       id="path11-3"
       style="fill:#eeeeec;fill-opacity:1;stroke-width:0.271846;stroke-linecap:round;stroke-linejoin:round"
       d="m -22.5807,5.9431577 a 0.43967086,0.45908603 0 0 1 -0.439671,0.459086 0.43967086,0.45908603 0 0 1 -0.439671,-0.459086 0.43967086,0.45908603 0 0 1 0.439671,-0.459086 0.43967086,0.45908603 0 0 1 0.439671,0.459086 z" /><path
       style="fill:#2e3436;fill-opacity:1;stroke:none;stroke-width:1.13269;stroke-linecap:round;stroke-linejoin:round;stroke-dasharray:none;stroke-opacity:1"
       d="m -36.303999,18.06263 13.249179,0.733266 -0.100859,3.920256 c -0.530246,0.701537 -1.113718,1.291687 -2.051517,1.140338 -0.381454,0.839207 -1.066109,0.878937 -1.733693,0.963674 -0.416091,0.85733 -1.029938,0.813392 -1.615577,0.89802 -0.402708,0.770758 -1.026156,0.95947 -1.722036,0.957195 -0.356723,0.565833 -1.155883,0.709905 -1.523668,0.520535 -0.444708,-0.168272 -0.831442,-0.583818 -0.935693,-1.143132 -0.456635,-0.08095 -0.873598,-0.323341 -1.154521,-1.119289 -0.473549,-0.165011 -0.970927,-0.262795 -1.187907,-1.151656 -0.46864,-0.167754 -0.91589,-0.408623 -1.209968,-1.173045 z"
       id="path13"
       sodipodi:nodetypes="ccccccccccccc" /><path
       style="fill:#2e3436;fill-opacity:1;stroke-width:0.271846;stroke-linecap:round;stroke-linejoin:round"
       d="m -36.135241,18.573973 4.427253,4.448595 c 0.326964,0.32515 0.728208,0.30819 1.072116,0.106319 l 7.247866,-3.873723 c 0.369718,-0.198823 0.474656,-0.560801 0.227266,-0.829494 l -4.368142,-3.882741 c -0.249202,-0.203052 -0.541821,-0.236502 -0.87951,-0.09389 l -7.664511,3.316363 c -0.332286,0.151588 -0.334037,0.537344 -0.06234,0.808574 z"
       id="path12"
       sodipodi:nodetypes="ccccccccc" /><path
       style="fill:#eeeeec;fill-opacity:1;stroke:none;stroke-width:1.05102;stroke-linecap:round;stroke-linejoin:round;stroke-dasharray:none;stroke-opacity:1"
       d="m -31.632298,23.764492 c -0.314805,-0.03453 -0.722161,0.532141 -0.402794,0.856578 0.239755,0.162989 0.440917,0.196177 0.453631,-0.40445 0.06412,-0.19205 0.188513,-0.414848 -0.05084,-0.452128 z"
       id="path14-3"
       sodipodi:nodetypes="cccc" /><path
       style="fill:#eeeeec;fill-opacity:1;stroke:none;stroke-width:1.05102;stroke-linecap:round;stroke-linejoin:round;stroke-dasharray:none;stroke-opacity:1"
       d="m -31.968304,24.900972 c -0.287431,0.0296 -0.424955,1.566282 0.103631,1.558609 0.436252,-0.0095 0.202997,-1.586064 -0.103631,-1.558609 z"
       id="path14-1-3"
       sodipodi:nodetypes="ccc" /><path
       style="fill:#eeeeec;fill-opacity:1;stroke:none;stroke-width:1.05102;stroke-linecap:round;stroke-linejoin:round;stroke-dasharray:none;stroke-opacity:1"
       d="m -30.113916,23.34183 c 0.314805,-0.03453 0.722162,0.53214 0.402794,0.856577 -0.239755,0.162989 -0.440917,0.196178 -0.453631,-0.404449 -0.06412,-0.192051 -0.188512,-0.414849 0.05084,-0.452128 z"
       id="path14-3-2"
       sodipodi:nodetypes="cccc" /><path
       style="fill:#eeeeec;fill-opacity:1;stroke:none;stroke-width:1.05102;stroke-linecap:round;stroke-linejoin:round;stroke-dasharray:none;stroke-opacity:1"
       d="m -29.77791,24.47831 c 0.287431,0.0296 0.424955,1.566281 -0.103631,1.558608 -0.436251,-0.0095 -0.202997,-1.586064 0.103631,-1.558608 z"
       id="path14-1-3-4"
       sodipodi:nodetypes="ccc" /><path
       style="fill:#eeeeec;fill-opacity:1;stroke:none;stroke-width:1.05102;stroke-linecap:round;stroke-linejoin:round;stroke-dasharray:none;stroke-opacity:1"
       d="m -28.305112,22.352095 c 0.314805,-0.03453 0.722162,0.532141 0.402794,0.856577 -0.239755,0.162989 -0.440917,0.196178 -0.453631,-0.404449 -0.06412,-0.192051 -0.188512,-0.414849 0.05084,-0.452128 z"
       id="path14-3-2-9"
       sodipodi:nodetypes="cccc" /><path
       style="fill:#eeeeec;fill-opacity:1;stroke:none;stroke-width:1.05102;stroke-linecap:round;stroke-linejoin:round;stroke-dasharray:none;stroke-opacity:1"
       d="m -27.969106,23.488575 c 0.287431,0.0296 0.424955,1.566281 -0.103631,1.558608 -0.436252,-0.0095 -0.202997,-1.586064 0.103631,-1.558608 z"
       id="path14-1-3-4-7"
       sodipodi:nodetypes="ccc" /><path
       style="fill:#eeeeec;fill-opacity:1;stroke:none;stroke-width:1.05548;stroke-linecap:round;stroke-linejoin:round;stroke-dasharray:none;stroke-opacity:1"
       d="m -32.991306,22.529457 c -0.314804,-0.03482 -0.722161,0.536663 -0.402793,0.863857 0.239755,0.164374 0.440916,0.197845 0.453631,-0.407886 0.06412,-0.193683 0.188512,-0.418374 -0.05084,-0.455971 z"
       id="path14-3-0"
       sodipodi:nodetypes="cccc" /><path
       style="fill:#eeeeec;fill-opacity:1;stroke:none;stroke-width:1.05548;stroke-linecap:round;stroke-linejoin:round;stroke-dasharray:none;stroke-opacity:1"
       d="m -33.327312,23.675595 c -0.28743,0.02984 -0.424954,1.579591 0.103632,1.571853 0.436251,-0.0096 0.202997,-1.599542 -0.103632,-1.571853 z"
       id="path14-1-3-8"
       sodipodi:nodetypes="ccc" /><path
       style="fill:#eeeeec;fill-opacity:1;stroke:none;stroke-width:1.05696;stroke-linecap:round;stroke-linejoin:round;stroke-dasharray:none;stroke-opacity:1"
       d="m -34.116407,21.347441 c -0.314805,-0.03492 -0.722162,0.53817 -0.402794,0.866282 0.239755,0.164837 0.440917,0.198402 0.453631,-0.409031 0.06412,-0.194227 0.188512,-0.419548 -0.05084,-0.457251 z"
       id="path14-3-7"
       sodipodi:nodetypes="cccc" /><path
       style="fill:#555753;fill-opacity:1;stroke-width:0.220196;stroke-linecap:round;stroke-linejoin:round"
       d="m -34.908518,18.62041 3.586075,3.603362 c 0.264842,0.263372 0.589848,0.249634 0.868414,0.08612 l 5.870772,-3.137716 c 0.299471,-0.161046 0.38447,-0.454248 0.184085,-0.67189 l -3.538195,-3.14502 c -0.201853,-0.164472 -0.438875,-0.191567 -0.712402,-0.07605 l -6.208255,2.686254 c -0.269151,0.122786 -0.27057,0.435249 -0.05049,0.654945 z"
       id="path15"
       sodipodi:nodetypes="ccccccccc" /><ellipse
       style="fill:#2e3436;fill-opacity:1;stroke:none;stroke-width:1.13279;stroke-linecap:round;stroke-linejoin:round;stroke-dasharray:none;stroke-opacity:1"
       id="path16"
       cx="6.8990111"
       cy="36.519722"
       rx="0.52616262"
       ry="0.64523405"
       transform="matrix(0.43088421,0.90240722,-0.91007542,0.41444267,0,0)" /><path
       style="fill:#eeeeec;fill-opacity:1;stroke:none;stroke-width:1.05102;stroke-linecap:round;stroke-linejoin:round;stroke-dasharray:none;stroke-opacity:1"
       d="m -26.642693,21.413332 c 0.314805,-0.03453 0.722162,0.532141 0.402794,0.856577 -0.239755,0.162989 -0.440917,0.196178 -0.453631,-0.404449 -0.06412,-0.192051 -0.188512,-0.414849 0.05084,-0.452128 z"
       id="path14-3-2-4"
       sodipodi:nodetypes="cccc" /><path
       style="fill:#eeeeec;fill-opacity:1;stroke:none;stroke-width:1.05102;stroke-linecap:round;stroke-linejoin:round;stroke-dasharray:none;stroke-opacity:1"
       d="m -26.306687,22.549812 c 0.287431,0.0296 0.424955,1.566281 -0.103631,1.558608 -0.436251,-0.0095 -0.202997,-1.586064 0.103631,-1.558608 z"
       id="path14-1-3-4-0"
       sodipodi:nodetypes="ccc" /><path
       style="fill:#eeeeec;fill-opacity:1;stroke:none;stroke-width:1.05102;stroke-linecap:round;stroke-linejoin:round;stroke-dasharray:none;stroke-opacity:1"
       d="m -24.876578,20.218358 c 0.314805,-0.03453 0.722162,0.532141 0.402794,0.856577 -0.239755,0.16299 -0.440916,0.196178 -0.453631,-0.404449 -0.06412,-0.192051 -0.188512,-0.414849 0.05084,-0.452128 z"
       id="path14-3-2-7"
       sodipodi:nodetypes="cccc" /><path
       style="fill:#eeeeec;fill-opacity:1;stroke:none;stroke-width:1.05102;stroke-linecap:round;stroke-linejoin:round;stroke-dasharray:none;stroke-opacity:1"
       d="m -24.540572,21.354838 c 0.287431,0.0296 0.424955,1.566281 -0.103631,1.558608 -0.436251,-0.0095 -0.202997,-1.586064 0.103631,-1.558608 z"
       id="path14-1-3-4-1"
       sodipodi:nodetypes="ccc" /><path
       id="path6"
       style="fill:#a40000;fill-opacity:1;stroke-width:0.275354;stroke-linecap:round;stroke-linejoin:round"
       d="m -40.254184,15.725998 c -3.019718,-6.5e-5 -5.467696,2.238165 -5.46761,4.999132 7.8e-5,2.760861 2.448008,4.998924 5.46761,4.998859 1.797815,-0.003 3.474511,-0.810817 4.485988,-2.154248 0.07862,-0.104422 0.06792,-0.353619 -0.245203,-0.272624 -2.04785,0.502803 -1.91158,-0.82883 -2.961679,-1.935515 -1.40651,-1.482302 -2.178232,-0.956052 -1.904273,-1.618511 0.61735,-1.058916 4.383685,0.592607 5.69172,0.655809 0.228484,-0.0091 0.370393,-0.02317 0.358091,-0.287912 -0.335658,-2.491917 -2.653958,-4.384288 -5.424644,-4.38499 z"
       sodipodi:nodetypes="cscssscccc" /><path
       style="fill:#eeeeec;fill-opacity:1;stroke:none;stroke-width:1.05696;stroke-linecap:round;stroke-linejoin:round;stroke-dasharray:none;stroke-opacity:1"
       d="m -34.452413,22.496798 c -0.287431,0.02993 -0.424955,1.584027 0.103631,1.576268 0.436252,-0.0096 0.202997,-1.604035 -0.103631,-1.576268 z"
       id="path14-1-3-2"
       sodipodi:nodetypes="ccc" /><path
       style="fill:#eeeeec;fill-opacity:1;stroke:none;stroke-width:1.0658;stroke-linecap:round;stroke-linejoin:round;stroke-dasharray:none;stroke-opacity:1"
       d="m -35.296294,20.191055 c -0.314805,-0.03551 -0.722162,0.547214 -0.402794,0.880839 0.239755,0.167607 0.440917,0.201735 0.453631,-0.415904 0.06412,-0.197491 0.188512,-0.426599 -0.05084,-0.464935 z"
       id="path14-3-1"
       sodipodi:nodetypes="cccc" /><path
       style="fill:#eeeeec;fill-opacity:1;stroke:none;stroke-width:1.0658;stroke-linecap:round;stroke-linejoin:round;stroke-dasharray:none;stroke-opacity:1"
       d="m -35.6323,21.359726 c -0.287431,0.03043 -0.424955,1.610646 0.103631,1.602756 0.436252,-0.0098 0.202997,-1.630989 -0.103631,-1.602756 z"
       id="path14-1-3-6"
       sodipodi:nodetypes="ccc" /><path
       id="path7"
       style="fill:#a40000;fill-opacity:1;stroke-width:0.275354;stroke-linecap:round;stroke-linejoin:round"
       d="m -19.83252,15.337646 c -2.770683,7.02e-4 -5.089024,1.893096 -5.424682,4.38501 -0.0123,0.264742 0.129669,0.278742 0.358154,0.287842 1.308034,-0.0632 5.074301,-1.714799 5.691651,-0.655884 0.273958,0.662459 -0.49779,0.136352 -1.904297,1.618653 -1.050098,1.106683 -0.913699,2.438227 -2.961548,1.935424 -0.313122,-0.081 -0.323981,0.168039 -0.245362,0.272461 0.634946,0.843327 1.532261,1.475349 2.556885,1.829956 0.950087,-0.937197 1.701097,-1.607028 2.26355,-2.065796 0.561617,-0.458055 1.253785,-0.684057 1.945313,-0.683715 0.691526,3.42e-4 1.382651,0.227794 1.943481,0.671997 0.08217,0.06508 0.192732,0.159844 0.283081,0.233276 0.605816,-0.804773 0.961274,-1.779247 0.961304,-2.830078 8.6e-5,-2.760964 -2.447815,-4.999211 -5.46753,-4.999146 z" /><path
       style="color:#000000;fill:#2e3436;stroke-width:0.755129;stroke-linecap:round;stroke-linejoin:round;-inkscape-stroke:none"
       d="m -29.236979,12.284072 a 0.42981976,0.41975987 0 0 0 -0.493994,0.345428 c -0.08715,0.51677 -0.415651,0.667358 -0.785019,0.657332 -0.369367,-0.01003 -0.708845,-0.210205 -0.774571,-0.642758 a 0.42981976,0.41975987 0 0 0 -0.488024,-0.354172 0.42981976,0.41975987 0 0 0 -0.36266,0.478059 c 0.127608,0.839821 0.873917,1.338644 1.601377,1.35839 0.727459,0.01975 1.508001,-0.469872 1.658089,-1.359847 a 0.42981976,0.41975987 0 0 0 -0.355198,-0.482432 z"
       id="path25" /><text
       xml:space="preserve"
       style="font-style:normal;font-variant:normal;font-weight:normal;font-stretch:normal;font-size:2.6405px;line-height:0.9;font-family:'Arial Rounded MT Bold';-inkscape-font-specification:'Arial Rounded MT Bold, Normal';font-variant-ligatures:normal;font-variant-caps:normal;font-variant-numeric:normal;font-variant-east-asian:normal;fill:#eeeeec;fill-opacity:1;stroke:none;stroke-width:0.594114;stroke-linecap:round;stroke-linejoin:round;stroke-dasharray:none;stroke-opacity:1"
       x="-50.685467"
       y="3.4721193"
       id="text26"
       transform="matrix(0.70688027,-0.33388556,0.87570198,1.0010405,0,0)"><tspan
         sodipodi:role="line"
         id="tspan26"
         style="font-style:normal;font-variant:normal;font-weight:normal;font-stretch:normal;font-size:2.6405px;font-family:'Arial Rounded MT Bold';-inkscape-font-specification:'Arial Rounded MT Bold, Normal';font-variant-ligatures:normal;font-variant-caps:normal;font-variant-numeric:normal;font-variant-east-asian:normal;fill:#eeeeec;fill-opacity:1;stroke:none;stroke-width:0.594114"
         x="-50.685467"
         y="3.4721193">RISC-V</tspan></text></g><g
     id="g1"
     transform="translate(-39.123119,5.6560463)"><path
       id="path18526-5-5"
       style="font-variation-settings:'wdth' 100, 'wght' 400;fill:#2e3436;fill-opacity:1;stroke:none;stroke-width:0.601524;stroke-linecap:round;stroke-linejoin:round;stroke-miterlimit:10;stroke-dasharray:none;stroke-opacity:1;paint-order:markers fill stroke;stop-color:#000000"
       d="m 81.423661,38.838825 c 0.01056,0.374175 0.353149,0.592818 0.581836,0.84455 0.823007,0.820242 1.640727,1.645991 2.467072,2.462757 0.212832,0.216927 0.575064,0.274222 0.82025,0.07691 0.322265,-0.270233 0.602167,-0.58817 0.905411,-0.879782 0.266251,-0.277524 0.558109,-0.532339 0.803296,-0.828615 0.195604,-0.242718 0.14306,-0.602155 -0.07084,-0.815172 -0.935701,-0.9463 -1.880705,-1.883803 -2.821443,-2.825237 -0.2049,-0.22099 -0.561673,-0.314529 -0.819468,-0.127175 C 82.999545,36.966756 82.763997,37.249974 82.5,37.5 c -0.307954,0.316499 -0.634537,0.616002 -0.928698,0.9451 -0.08554,0.113115 -0.148339,0.249585 -0.147641,0.393723 z"
       sodipodi:nodetypes="scccsscccscss" /><g
       id="g671"
       transform="matrix(0.37578553,-0.37578553,0.37578553,0.37578553,42.71225,62.475372)"
       style="stroke-width:1.88168"><path
         fill="#babdb6"
         d="m 79.692301,-25.86614 c -1.8021,0.18297 -3.0929,1.4959 -3.3017,3.2952 -0.2551,2.19797 -0.5156,5.91824 -0.5156,11.94594 0,6.0277 0.2605,9.748 0.5156,11.9459 0.2088,1.7993 1.4996,3.1123 3.3017,3.2952 1.3916,0.1413 3.389,0.2589 6.1827,0.2589 2.7937,0 4.7911,-0.1176 6.1827,-0.2589 1.8021,-0.1829 3.0929,-1.4959 3.3017,-3.2952 0.2551,-2.1979 0.5156,-5.9182 0.5156,-11.9459 0,-6.0277 -0.2605,-9.74797 -0.5156,-11.94593 -0.2088,-1.79931 -1.4996,-3.11224 -3.3017,-3.29521 -1.3916,-0.14129 -3.3889,-0.25886 -6.1827,-0.25886 -2.7937,0 -4.7911,0.11757 -6.1827,0.25886 z"
         id="path2"
         style="fill:#babdb6;fill-opacity:1;stroke-width:1.88168" /><path
         fill="#2e3436"
         d="m 76.046201,-13.7583 c -1.7693,0.1696 -3.133,1.3619 -3.4195,3.1161 -0.3664,2.2427 -0.7517,6.1217 -0.7517,12.5172 0,1.5159 0.0216,2.8904 0.0596,4.1353 0.2164,7.1063 5.4043,11.8023 12.5137,11.8591 0.4582,0.0037 0.9336,0.0056 1.4267,0.0056 0.4931,0 0.9685,-0.0019 1.4267,-0.0056 7.1094,-0.0568 12.2973,-4.7528 12.5137,-11.8591 0.038,-1.2449 0.0596,-2.6194 0.0596,-4.1353 0,-6.3955 -0.3853,-10.2745 -0.7517,-12.5172 -0.2865,-1.7542 -1.6502,-2.9465 -3.4195,-3.1161 -1.9369,-0.1856 -5.0509,-0.3667 -9.8288,-0.3667 -4.7779,0 -7.8919,0.1811 -9.8288,0.3667 z"
         id="path4"
         style="fill:#2e3436;fill-opacity:1;stroke-width:1.88168" /><path
         fill="#2e3436"
         d="m 79.878301,-20.57225 c 0.0136,-0.86308 0.5685,-1.50787 1.431,-1.54216 0.1685,-0.0067 0.3564,-0.01059 0.5657,-0.01059 0.2093,0 0.3972,0.0039 0.5657,0.01059 0.8625,0.03429 1.4174,0.67908 1.431,1.54216 0.0021,0.13599 0.0033,0.28473 0.0033,0.44725 0,0.16252 -0.0012,0.31126 -0.0033,0.44725 -0.0136,0.86308 -0.5685,1.50787 -1.431,1.54216 -0.1685,0.0067 -0.3564,0.01059 -0.5657,0.01059 -0.2093,0 -0.3972,-0.0039 -0.5657,-0.01059 -0.8625,-0.03429 -1.4174,-0.67908 -1.431,-1.54216 -0.0021,-0.13599 -0.0033,-0.28473 -0.0033,-0.44725 0,-0.16252 0.0012,-0.31126 0.0033,-0.44725 z"
         id="path6-6"
         style="fill:#2e3436;fill-opacity:1;stroke-width:1.88168" /><path
         fill="#2e3436"
         d="m 87.878301,-20.57225 c 0.0136,-0.86308 0.5685,-1.50787 1.431,-1.54216 0.1685,-0.0067 0.3564,-0.01059 0.5657,-0.01059 0.2093,0 0.3972,0.0039 0.5657,0.01059 0.8625,0.03429 1.4174,0.67908 1.431,1.54216 0.0021,0.13599 0.0033,0.28473 0.0033,0.44725 0,0.16252 -0.0012,0.31126 -0.0033,0.44725 -0.0136,0.86308 -0.5685,1.50787 -1.431,1.54216 -0.1685,0.0067 -0.3564,0.01059 -0.5657,0.01059 -0.2093,0 -0.3972,-0.0039 -0.5657,-0.01059 -0.8625,-0.03429 -1.4174,-0.67908 -1.431,-1.54216 -0.0021,-0.13599 -0.0033,-0.28473 -0.0033,-0.44725 0,-0.16252 0.0012,-0.31126 0.0033,-0.44725 z"
         id="path8-5"
         style="fill:#2e3436;fill-opacity:1;stroke-width:1.88168" /></g></g></svg>
