<?xml version="1.0" encoding="UTF-8" standalone="no"?>
<svg
   fill="none"
   viewBox="0 0 48 48"
   height="256"
   width="256"
   version="1.1"
   id="svg10"
   sodipodi:docname="terminal - Copy.svg"
   inkscape:version="1.3.2 (091e20e, 2023-11-25, custom)"
   xmlns:inkscape="http://www.inkscape.org/namespaces/inkscape"
   xmlns:sodipodi="http://sodipodi.sourceforge.net/DTD/sodipodi-0.dtd"
   xmlns="http://www.w3.org/2000/svg"
   xmlns:svg="http://www.w3.org/2000/svg">
  <defs
     id="defs14" />
  <sodipodi:namedview
     id="namedview12"
     pagecolor="#ffffff"
     bordercolor="#666666"
     borderopacity="1.0"
     inkscape:showpageshadow="2"
     inkscape:pageopacity="0.0"
     inkscape:pagecheckerboard="0"
     inkscape:deskcolor="#d1d1d1"
     showgrid="false"
     inkscape:zoom="4.5796212"
     inkscape:cx="139.20365"
     inkscape:cy="163.22311"
     inkscape:current-layer="svg10"
     inkscape:window-width="3840"
     inkscape:window-height="1494"
     inkscape:window-x="-11"
     inkscape:window-y="-11"
     inkscape:window-maximized="1" />
  <path
     fill="#edf1e9"
     d="M2.58134 40.6959C2.79349 43.2509 4.74913 45.2065 7.30406 45.4187C10.6714 45.6983 16.1287 46 24 46C31.8712 46 37.3286 45.6983 40.6959 45.4187C43.2509 45.2065 45.2065 43.2509 45.4187 40.6959C45.6983 37.3286 46 31.8713 46 24C46 16.1288 45.6983 10.6714 45.4187 7.30406C45.2065 4.74913 43.2509 2.79349 40.6959 2.58134C37.3286 2.30174 31.8712 2 24 2C16.1288 2 10.6714 2.30174 7.30406 2.58134C4.74914 2.79348 2.79349 4.74913 2.58134 7.30406C2.30174 10.6714 2 16.1288 2 24C2 31.8712 2.30174 37.3286 2.58134 40.6959Z"
     id="path2"
     style="fill:#edf1e9;fill-opacity:1" />
  <path
     fill="#606668"
     fill-rule="evenodd"
     d="M45.8149 14H2.18359C2.29416 11.2135 2.44016 8.99521 2.58058 7.30406C2.79273 4.74913 4.74838 2.79348 7.30331 2.58134C10.6706 2.30174 16.128 2 23.9992 2C31.8705 2 37.3278 2.30174 40.6952 2.58134C43.2501 2.79349 45.2057 4.74913 45.4179 7.30406C45.5583 8.99521 45.7043 11.2135 45.8149 14Z"
     clip-rule="evenodd"
     id="path4"
     style="fill:#606668;fill-opacity:1" />
  <path
     fill="#606668"
     d="m 6.2676339,25.950941 c -0.694575,0.399825 -1.2468752,1.075425 -1.131075,1.8684 0.05295,0.363 0.15975,0.7092 0.314925,0.9711 0.452025,0.76275 1.306275,0.78435 1.94235,0.462375 0.256425,-0.146025 0.58335,-0.348825 0.9807751,-0.6084 l 4.17435,-2.3145 c 0.687375,-0.38115 1.311375,-0.93045 1.457325,-1.702725 0.06112,-0.3237 0.09172,-0.6801 0.09172,-1.069275 0,-0.9657 -0.175275,-2.017125 -0.903825,-2.45805 L 8.486054,18.436841 c -1.1113501,-0.628575 -2.7488251,-0.909525 -3.2200501,0.277125 -0.089625,0.225825 -0.14145,0.48435 -0.14145,0.779625 0,1.143975 0.599625,1.754475 1.326975,2.214675 l 3.8461501,1.922625 z"
     id="path6"
     style="stroke-width:0.75;fill:#606668;fill-opacity:1" />
  <path
     style="color:#000000;-inkscape-font-specification:'Arial Rounded MT Bold, Normal ';fill:#606668;stroke-linecap:round;stroke-linejoin:round;-inkscape-stroke:none"
     d="m 20.578125,16.001953 c -0.801449,0 -1.454595,0.09957 -1.972656,0.332031 -0.51368,0.227576 -0.908952,0.621752 -1.13086,1.132813 -2e-6,6.67e-4 -2e-6,0.0013 0,0.002 -0.212511,0.498072 -0.304687,1.120443 -0.304687,1.880859 v 0.326172 h -0.179688 c -0.434925,0 -0.806331,0.0709 -1.097656,0.279297 -0.291325,0.208394 -0.449219,0.567088 -0.449219,0.933594 0,0.3444 0.154139,0.678191 0.416016,0.90039 l 0.0039,0.0039 c 0.275633,0.225517 0.638195,0.316406 1.041016,0.316406 h 0.265625 v 5.802734 c 0,0.520068 0.124127,0.976089 0.417969,1.308594 0.0026,0.002 0.0052,0.004 0.0078,0.0059 0.285242,0.307183 0.682596,0.478516 1.103516,0.478516 0.433559,0 0.839599,-0.169138 1.123047,-0.482422 0.300022,-0.33164 0.429687,-0.789637 0.429687,-1.310547 v -5.802734 h 0.199219 c 0.44592,0 0.814791,-0.05059 1.123047,-0.185547 h 0.002 c 0.195343,-0.0849 0.359264,-0.245591 0.453125,-0.435547 0.09448,-0.191217 0.128906,-0.40475 0.128906,-0.634765 0,-0.371464 -0.196846,-0.73292 -0.513672,-0.923829 -0.316826,-0.190908 -0.711363,-0.253906 -1.193359,-0.253906 h -0.199219 v -0.179687 c 0,-0.429018 0.06369,-0.734961 0.142578,-0.896485 6.69e-4,-6.64e-4 0.0013,-0.0013 0.002,-0.002 0.04588,-0.09612 0.125431,-0.162109 0.472657,-0.162109 0.12603,0 0.2985,0.01467 0.507812,0.04687 0.229785,0.03535 0.38737,0.05469 0.525391,0.05469 0.292949,0 0.579302,-0.135568 0.779297,-0.351562 0.202001,-0.218162 0.314453,-0.509886 0.314453,-0.808594 0,-0.460922 -0.29166,-0.877857 -0.720703,-1.087891 -0.429043,-0.210033 -0.985925,-0.287109 -1.697266,-0.287109 z m 6.271484,3.46875 c -0.735288,0 -1.418064,0.122704 -2.041015,0.369141 -0.620049,0.239824 -1.159036,0.587976 -1.601563,1.042968 -0.442606,0.455075 -0.78286,1.005805 -1.015625,1.636719 -0.233385,0.632597 -0.347656,1.323673 -0.347656,2.06836 0,0.738284 0.112592,1.424303 0.339844,2.050781 -7e-6,0.0013 -7e-6,0.0026 0,0.0039 0.233186,0.619784 0.575913,1.168677 1.021484,1.632813 0.0013,6.74e-4 0.0026,0.0013 0.0039,0.002 0.451649,0.457836 0.98695,0.812632 1.595703,1.058593 0.614386,0.248236 1.298221,0.369141 2.044922,0.369141 0.751076,0 1.441609,-0.116036 2.060547,-0.357422 6.69e-4,-6.64e-4 0.0013,-0.0013 0.002,-0.002 0.614885,-0.245953 1.152493,-0.601009 1.59961,-1.060547 0.447803,-0.460242 0.790439,-1.012984 1.023437,-1.644531 0.233113,-0.631858 0.347656,-1.318814 0.347656,-2.052734 10e-7,-0.738618 -0.114406,-1.423988 -0.347656,-2.050782 v -0.002 C 31.307749,21.908749 30.967006,21.360201 30.519572,20.900338 30.07185,20.440179 29.53275,20.085573 28.91215,19.839791 28.287946,19.592581 27.596352,19.47065 26.84965,19.47065 Z m 10.570313,0 c -0.735288,0 -1.418064,0.122704 -2.041016,0.369141 -0.620048,0.239824 -1.159035,0.587977 -1.601562,1.042968 -0.442606,0.455075 -0.782861,1.005805 -1.015625,1.636719 -0.233386,0.632597 -0.347657,1.323673 -0.347657,2.06836 0,0.738284 0.110639,1.424303 0.337891,2.050781 6.59e-4,0.0013 0.0013,0.0026 0.002,0.0039 0.233186,0.619784 0.575914,1.168677 1.021485,1.632813 0.0013,6.74e-4 0.0026,0.0013 0.0039,0.002 0.451649,0.457836 0.986949,0.812632 1.595703,1.058593 0.614385,0.248236 1.29822,0.369141 2.044922,0.369141 0.751076,0 1.439655,-0.116036 2.058594,-0.357422 0.0013,-6.59e-4 0.0026,-0.0013 0.0039,-0.002 0.614884,-0.245953 1.152492,-0.601009 1.599609,-1.060547 0.447805,-0.460242 0.79044,-1.012984 1.023438,-1.644531 0.233112,-0.631858 0.347656,-1.318814 0.347656,-2.052734 0,-0.739301 -0.115923,-1.425471 -0.349609,-2.052735 -0.227447,-0.625937 -0.566477,-1.175148 -1.013672,-1.634765 -0.447722,-0.460159 -0.988776,-0.814765 -1.609375,-1.060547 -0.624204,-0.24721 -1.313845,-0.369141 -2.060547,-0.369141 z m -10.570313,2.476563 c 0.61263,0 1.036494,0.201726 1.388672,0.65039 6.64e-4,6.69e-4 0.0013,0.0013 0.002,0.002 0.353456,0.444208 0.550782,1.092337 0.550782,1.988282 0,0.883879 -0.19715,1.530732 -0.552735,1.982421 -0.352178,0.448664 -0.776042,0.650391 -1.388672,0.650391 -0.401448,0 -0.721886,-0.09785 -1.003906,-0.291016 -0.27671,-0.198931 -0.498226,-0.482707 -0.664062,-0.882812 v -0.002 C 25.021165,25.64303 24.935547,25.1593 24.935547,24.587891 c 0,-0.57704 0.08789,-1.065163 0.253906,-1.472657 0.165869,-0.407131 0.387429,-0.6858 0.666016,-0.873047 6.69e-4,-6.64e-4 0.0013,-0.0013 0.002,-0.002 0.284424,-0.195833 0.602083,-0.292968 0.992187,-0.292968 z m 10.570313,0 c 0.61263,0 1.036495,0.201726 1.388672,0.65039 6.64e-4,6.69e-4 0.0013,0.0013 0.002,0.002 0.353455,0.444208 0.550781,1.092337 0.550781,1.988282 0,0.883879 -0.197149,1.530732 -0.552734,1.982421 -0.352177,0.448664 -0.776042,0.650391 -1.388672,0.650391 -0.401447,0 -0.721885,-0.09785 -1.003906,-0.291016 C 36.139352,26.730803 35.917836,26.447027 35.752,26.046922 v -0.002 c -0.160476,-0.401891 -0.246094,-0.885623 -0.246094,-1.457031 0,-0.57704 0.08789,-1.065163 0.253907,-1.472657 0.165868,-0.407131 0.387429,-0.6858 0.666015,-0.873047 6.69e-4,-6.64e-4 0.0013,-0.0013 0.002,-0.002 0.284426,-0.195833 0.602085,-0.292968 0.992188,-0.292968 z"
     id="text1"
     sodipodi:nodetypes="ccccscsssccscsccscscsccsssscsccssssssccccsssccccssccsssccssccscsssccccssccssscsssscccscscccsscccccccscscccsscccc" />
</svg>
