<?xml version="1.0" encoding="UTF-8" standalone="no"?>
<svg
   fill="none"
   viewBox="0 0 48 48"
   height="256"
   width="256"
   version="1.1"
   id="svg10"
   sodipodi:docname="console.svg"
   inkscape:version="1.2.1 (9c6d41e410, 2022-07-14)"
   xmlns:inkscape="http://www.inkscape.org/namespaces/inkscape"
   xmlns:sodipodi="http://sodipodi.sourceforge.net/DTD/sodipodi-0.dtd"
   xmlns="http://www.w3.org/2000/svg"
   xmlns:svg="http://www.w3.org/2000/svg">
  <defs
     id="defs14" />
  <sodipodi:namedview
     id="namedview12"
     pagecolor="#ffffff"
     bordercolor="#666666"
     borderopacity="1.0"
     inkscape:showpageshadow="2"
     inkscape:pageopacity="0.0"
     inkscape:pagecheckerboard="0"
     inkscape:deskcolor="#d1d1d1"
     showgrid="false"
     inkscape:zoom="1.1449053"
     inkscape:cx="216.6118"
     inkscape:cy="120.09727"
     inkscape:current-layer="svg10"
     inkscape:window-width="1920"
     inkscape:window-height="730"
     inkscape:window-x="-6"
     inkscape:window-y="-6"
     inkscape:window-maximized="1" />
  <path
     fill="#edf1e9"
     d="M2.58134 40.6959C2.79349 43.2509 4.74913 45.2065 7.30406 45.4187C10.6714 45.6983 16.1287 46 24 46C31.8712 46 37.3286 45.6983 40.6959 45.4187C43.2509 45.2065 45.2065 43.2509 45.4187 40.6959C45.6983 37.3286 46 31.8713 46 24C46 16.1288 45.6983 10.6714 45.4187 7.30406C45.2065 4.74913 43.2509 2.79349 40.6959 2.58134C37.3286 2.30174 31.8712 2 24 2C16.1288 2 10.6714 2.30174 7.30406 2.58134C4.74914 2.79348 2.79349 4.74913 2.58134 7.30406C2.30174 10.6714 2 16.1288 2 24C2 31.8712 2.30174 37.3286 2.58134 40.6959Z"
     id="path2"
     style="fill:#edf1e9;fill-opacity:1" />
  <path
     fill="#606668"
     d="m 14.166964,27.761745 c 0.07358,-0.576113 0.594337,-0.873169 1.174781,-0.893644 1.414553,-0.04984 4.686587,-0.129431 11.161637,-0.129431 6.47505,0 9.747057,0.07959 11.161632,0.129431 0.580443,0.02048 1.101206,0.317531 1.174781,0.893644 0.02351,0.183994 0.03859,0.40365 0.03859,0.664425 0,0.260775 -0.01508,0.480431 -0.03859,0.664425 -0.07357,0.576112 -0.594338,0.873169 -1.174781,0.893644 -1.414519,0.04984 -4.686582,0.129431 -11.161632,0.129431 -6.47505,0 -9.747084,-0.07959 -11.161636,-0.129431 -0.580445,-0.02048 -1.101196,-0.317532 -1.174781,-0.893644 -0.0235,-0.183994 -0.03858,-0.40365 -0.03858,-0.664425 0,-0.260775 0.01508,-0.480431 0.03858,-0.664425 z"
     id="path2787"
     style="stroke-width:0.5625;fill:#606668;fill-opacity:1" />
  <path
     fill="#606668"
     fill-rule="evenodd"
     d="M45.8149 14H2.18359C2.29416 11.2135 2.44016 8.99521 2.58058 7.30406C2.79273 4.74913 4.74838 2.79348 7.30331 2.58134C10.6706 2.30174 16.128 2 23.9992 2C31.8705 2 37.3278 2.30174 40.6952 2.58134C43.2501 2.79349 45.2057 4.74913 45.4179 7.30406C45.5583 8.99521 45.7043 11.2135 45.8149 14Z"
     clip-rule="evenodd"
     id="path4"
     style="fill:#606668;fill-opacity:1" />
  <path
     fill="#606668"
     d="m 6.2676339,25.950941 c -0.694575,0.399825 -1.2468752,1.075425 -1.131075,1.8684 0.05295,0.363 0.15975,0.7092 0.314925,0.9711 0.452025,0.76275 1.306275,0.78435 1.94235,0.462375 0.256425,-0.146025 0.58335,-0.348825 0.9807751,-0.6084 l 4.17435,-2.3145 c 0.687375,-0.38115 1.311375,-0.93045 1.457325,-1.702725 0.06112,-0.3237 0.09172,-0.6801 0.09172,-1.069275 0,-0.9657 -0.175275,-2.017125 -0.903825,-2.45805 L 8.486054,18.436841 c -1.1113501,-0.628575 -2.7488251,-0.909525 -3.2200501,0.277125 -0.089625,0.225825 -0.14145,0.48435 -0.14145,0.779625 0,1.143975 0.599625,1.754475 1.326975,2.214675 l 3.8461501,1.922625 z"
     id="path6"
     style="stroke-width:0.75;fill:#606668;fill-opacity:1" />
</svg>
