<?xml version="1.0" encoding="UTF-8" standalone="no"?>
<svg
   fill="none"
   viewBox="0 0 48 48"
   height="256"
   width="256"
   version="1.1"
   id="svg6"
   sodipodi:docname="theme-air.svg"
   inkscape:version="1.4 (86a8ad7, 2024-10-11)"
   xml:space="preserve"
   xmlns:inkscape="http://www.inkscape.org/namespaces/inkscape"
   xmlns:sodipodi="http://sodipodi.sourceforge.net/DTD/sodipodi-0.dtd"
   xmlns="http://www.w3.org/2000/svg"
   xmlns:svg="http://www.w3.org/2000/svg"><defs
     id="defs10" /><sodipodi:namedview
     id="namedview8"
     pagecolor="#ffffff"
     bordercolor="#666666"
     borderopacity="1.0"
     inkscape:showpageshadow="2"
     inkscape:pageopacity="0.0"
     inkscape:pagecheckerboard="0"
     inkscape:deskcolor="#d1d1d1"
     showgrid="false"
     inkscape:zoom="2.1445313"
     inkscape:cx="-10.258652"
     inkscape:cy="60.386156"
     inkscape:current-layer="svg6"
     inkscape:window-width="3840"
     inkscape:window-height="1494"
     inkscape:window-x="-11"
     inkscape:window-y="-11"
     inkscape:window-maximized="1" /><path
     id="rect287"
     style="fill:#95c2f2;fill-opacity:1;stroke-width:1.5;stroke-linecap:round;stroke-linejoin:round"
     d="m 13.589421,2.2e-6 c 0.160665,0 0.318617,9.36e-4 0.473532,0.00238 4.398365,0.036988 7.433719,3.4015113 7.553183,7.7604604 3.313243,0.7909119 5.56329,3.4198454 5.56329,7.0621344 0,4.259253 -3.076616,7.133167 -7.332471,7.30211 -1.675092,0.06648 -3.736313,0.110339 -6.257534,0.110339 -2.521218,0 -4.5818601,-0.04387 -6.256948,-0.110339 C 3.0765898,21.958142 0,19.084228 0,14.824975 0,11.182686 2.2500735,8.5537518 5.5632897,7.7628408 5.6827584,3.4038913 8.7181079,0.0393676 13.11647,0.00238 13.271399,0.00108 13.428756,0 13.589421,0 Z"
     sodipodi:nodetypes="sccscscsccs" /><path
     id="rect287-0"
     style="fill:#95c2f2;fill-opacity:1;stroke-width:1.5;stroke-linecap:round;stroke-linejoin:round"
     d="m 34.409995,25.762656 c 0.160665,0 0.318617,9e-4 0.473532,0.0023 4.398366,0.03699 7.433719,3.401511 7.553183,7.76046 C 45.749953,34.316327 48,36.945262 48,40.587551 c 0,4.259254 -3.076616,7.133167 -7.332471,7.30211 C 38.992437,47.956131 36.931216,48 34.409995,48 c -2.521218,0 -4.58186,-0.04387 -6.256949,-0.110339 -4.255882,-0.168967 -7.332472,-3.042881 -7.332472,-7.302134 0,-3.642289 2.250074,-6.271222 5.563291,-7.062134 0.119467,-4.358949 3.154816,-7.723472 7.553179,-7.76046 0.154929,-0.0013 0.312286,-0.0023 0.472951,-0.0023 z"
     sodipodi:nodetypes="sccscscsccs" /></svg>
