<?xml version="1.0" encoding="UTF-8" standalone="no"?>
<svg
   fill="none"
   viewBox="0 0 48 48"
   height="256"
   width="256"
   version="1.1"
   id="svg6"
   sodipodi:docname="themes.svg"
   inkscape:version="1.4 (86a8ad7, 2024-10-11)"
   xml:space="preserve"
   xmlns:inkscape="http://www.inkscape.org/namespaces/inkscape"
   xmlns:sodipodi="http://sodipodi.sourceforge.net/DTD/sodipodi-0.dtd"
   xmlns="http://www.w3.org/2000/svg"
   xmlns:svg="http://www.w3.org/2000/svg"><defs
     id="defs10" /><sodipodi:namedview
     id="namedview8"
     pagecolor="#ffffff"
     bordercolor="#666666"
     borderopacity="1.0"
     inkscape:showpageshadow="2"
     inkscape:pageopacity="0.0"
     inkscape:pagecheckerboard="0"
     inkscape:deskcolor="#d1d1d1"
     showgrid="false"
     inkscape:zoom="2.1445313"
     inkscape:cx="95.125681"
     inkscape:cy="167.1694"
     inkscape:current-layer="svg6"
     inkscape:window-width="2560"
     inkscape:window-height="1334"
     inkscape:window-x="-11"
     inkscape:window-y="-11"
     inkscape:window-maximized="1" /><path
     style="fill:#95c2f2;fill-opacity:1;stroke-width:1.1"
     d="M 1.9654841,47.180172 C 1.4071242,46.979274 1.0774597,46.76621 0.82460968,46.442823 0.29978439,45.771586 0.33834467,47.101124 0.30925209,28.673515 l -0.0267465,-16.940581 0.6560895,0.05969 c 0.36084951,0.03282 11.03346691,0.05969 23.71692691,0.05968 l 23.060836,-6e-6 -0.02023,16.839466 -0.02023,16.839467 -0.208848,0.436025 c -0.227812,0.475621 -0.822896,0.977157 -1.368994,1.153787 -0.231824,0.07499 -6.543768,0.116672 -22.052038,0.14565 -17.9793677,0.03359 -21.7881906,0.01867 -22.0805378,-0.08651 z M 23.405687,9.1195882 0.33152434,9.0954663 0.32038398,6.7431379 C 0.30182456,2.8241454 0.30832501,2.6687791 0.51156959,2.1735553 0.75353274,1.5839928 1.1404427,1.1693654 1.6830416,0.91816312 L 2.1280661,0.712134 23.950669,0.660401 45.773272,0.608668 46.240291,0.82583253 c 0.624121,0.29021677 1.100808,0.88175677 1.287461,1.59766427 0.120267,0.461282 0.144447,1.0740617 0.144447,3.6607007 V 9.1908759 L 47.076024,9.1672919 C 46.748127,9.1543229 36.096476,9.1328509 23.405687,9.1195849 Z M 5.8088431,6.3155887 C 6.3109006,6.0417242 6.5519273,5.6023866 6.5519273,4.9611145 c 0,-0.5458264 -0.2080032,-1.0092562 -0.5908172,-1.3163363 -0.3497779,-0.2805798 -1.2382248,-0.325859 -1.655089,-0.08435 -0.9546362,0.5530649 -0.8769612,2.2988149 0.124052,2.7880595 0.4826888,0.2359141 0.9044212,0.2258514 1.37877,-0.0329 z m 5.0579339,0.082995 C 11.641191,6.0419914 11.935741,5.1208369 11.564309,4.2171829 11.320629,3.6243345 10.957451,3.393549 10.267767,3.3932788 9.2595816,3.3928839 8.7662899,3.8735126 8.7662899,4.8562123 c 0,0.4834437 0.04356,0.6648812 0.2339865,0.9745528 0.1286923,0.2092826 0.3671624,0.4511289 0.5299327,0.5374366 0.3625776,0.1922531 0.9557509,0.2057362 1.3365679,0.030381 z m 5.364962,-0.1555059 c 0.807555,-0.4433702 0.986017,-1.5070538 0.382379,-2.279089 -0.313326,-0.4007363 -0.653464,-0.5712129 -1.13969,-0.5712129 -0.856037,0 -1.364905,0.5146082 -1.362865,1.378237 0.003,1.2415599 1.123246,2.0194071 2.120176,1.4720649 z"
     id="path2"
     sodipodi:nodetypes="sssccccccsssssccssscccssscsscsssssssssssssssssscs" /><path
     style="fill:#fff01c;fill-opacity:1;stroke-width:1"
     d="M 10.580847,43.04106 C 10.24796,42.815036 10.173718,42.699538 10.034372,42.190901 9.78755,41.289947 9.496761,40.924221 8.636355,40.432609 7.959202,40.045704 7.769856,39.784365 7.846813,39.342883 c 0.07632,-0.437816 0.405259,-0.747176 1.000783,-0.941223 0.623561,-0.203183 1.021283,-0.571056 1.442677,-1.334405 0.387975,-0.70281 0.577513,-0.871312 0.9801,-0.871312 0.409926,0 0.678506,0.261627 0.880446,0.857656 0.254244,0.750409 0.548428,1.078806 1.322666,1.476487 0.726575,0.373198 0.921269,0.582977 0.921269,0.992636 0,0.409489 -0.211724,0.643711 -0.874532,0.967462 -0.904312,0.441711 -1.168585,0.763105 -1.485723,1.806844 -0.07374,0.242682 -0.220965,0.529098 -0.327175,0.636479 -0.267878,0.270831 -0.809801,0.322572 -1.126477,0.107553 z m 13.249561,-0.982012 c -1.797027,-0.24774 -3.700542,-1.057357 -5.429815,-2.30945 -2.932552,-2.12334 -4.810998,-5.101292 -5.541968,-8.78583 -0.160851,-0.810803 -0.186981,-1.180952 -0.182695,-2.587915 0.0075,-2.458684 0.300869,-3.902001 1.194381,-5.875869 1.720953,-3.80178 4.82427,-6.315149 8.810993,-7.135998 2.07189,-0.426593 3.315765,0.04863 3.315765,1.266797 0,0.490149 -0.04711,0.5786 -0.94534,1.774876 -0.647036,0.861737 -1.33553,2.297272 -1.632121,3.403047 -0.285256,1.063509 -0.357228,2.869915 -0.156766,3.934611 0.295983,1.572023 0.913643,2.810285 2.028361,4.066389 1.438441,1.620892 2.964168,2.374505 5.00153,2.470445 1.696441,0.07989 3.076352,-0.277738 4.602306,-1.192752 0.477779,-0.286493 0.99206,-0.542441 1.142848,-0.568774 0.387718,-0.06771 0.706337,0.103702 0.907018,0.487964 0.240322,0.460172 0.220358,0.992791 -0.07248,1.933422 -0.690244,2.217198 -2.016824,4.364733 -3.590063,5.811779 -2.776223,2.553528 -6.208326,3.754428 -9.451956,3.307258 z M 36.17808,25.830261 c -0.302008,-0.198174 -0.4082,-0.404681 -0.70274,-1.366558 -0.396432,-1.294619 -1.078382,-1.991057 -2.404563,-2.455648 -0.952321,-0.333619 -1.306924,-1.005567 -0.939594,-1.78045 0.172396,-0.363667 0.518533,-0.597385 1.292972,-0.873031 0.994625,-0.354017 1.628802,-1.043713 2.094214,-2.27755 0.319021,-0.845755 0.576995,-1.100982 1.112833,-1.100982 0.536999,0 0.734695,0.200291 1.172032,1.187423 0.627817,1.417054 1.015026,1.802279 2.289785,2.278065 1.013339,0.378212 1.280126,0.650648 1.280126,1.30722 0,0.408526 -0.03387,0.509737 -0.26095,0.779345 -0.175013,0.207806 -0.406389,0.358735 -0.702565,0.458292 -1.328211,0.44647 -1.897626,1.03714 -2.335537,2.422722 -0.126118,0.399042 -0.286275,0.844093 -0.355905,0.989004 -0.168958,0.351621 -0.567917,0.600824 -0.961879,0.600824 -0.177222,0 -0.436382,-0.0756 -0.578229,-0.168676 z"
     id="path3"
     sodipodi:nodetypes="sssssssssssssssssssssssssssssssssssssssssssssssss" /></svg>
