<?xml version="1.0" encoding="UTF-8" standalone="no"?>
<svg
   fill="none"
   viewBox="0 0 48 48"
   height="256"
   width="256"
   version="1.1"
   id="svg14"
   sodipodi:docname="atmosic_chip.svg"
   inkscape:version="1.3 (0e150ed6c4, 2023-07-21)"
   xmlns:inkscape="http://www.inkscape.org/namespaces/inkscape"
   xmlns:sodipodi="http://sodipodi.sourceforge.net/DTD/sodipodi-0.dtd"
   xmlns="http://www.w3.org/2000/svg"
   xmlns:svg="http://www.w3.org/2000/svg">
  <defs
     id="defs18" />
  <sodipodi:namedview
     id="namedview16"
     pagecolor="#ffffff"
     bordercolor="#666666"
     borderopacity="1.0"
     inkscape:showpageshadow="2"
     inkscape:pageopacity="0.0"
     inkscape:pagecheckerboard="0"
     inkscape:deskcolor="#d1d1d1"
     showgrid="false"
     inkscape:zoom="4.5796212"
     inkscape:cx="133.63551"
     inkscape:cy="105.79478"
     inkscape:current-layer="svg14"
     inkscape:window-width="3840"
     inkscape:window-height="1494"
     inkscape:window-x="-11"
     inkscape:window-y="-11"
     inkscape:window-maximized="1" />
  <path
     fill="#888a85"
     fill-rule="evenodd"
     d="M 17.99523,7.1581474 C 17.980733,5.7713767 17.936414,4.2085616 17.9074,3.29153 17.8913,2.78238 17.6542,2.31035 17.1618,2.17962 16.7942,2.08202 16.2594,2 15.5,2 c -0.7594,0 -1.2943,0.08202 -1.6619,0.17962 -0.4923,0.13072 -0.7294,0.60277 -0.7455,1.11193 -0.03054,0.9652269 -0.07803,2.6458649 -0.08986,4.0836334 z m 8.499413,-0.054834 C 26.47957,5.7303708 26.436032,4.1965213 26.4074,3.29155 26.3913,2.78239 26.1542,2.31034 25.6619,2.17962 25.2943,2.08202 24.7594,2 24,2 c -0.7594,0 -1.2942,0.08202 -1.6618,0.17962 -0.4924,0.13073 -0.7295,0.60276 -0.7456,1.11191 -0.02856,0.9027793 -0.07196,2.431425 -0.08713,3.8018344 z m 8.502824,0.2971449 C 34.985991,5.9571553 34.938118,4.2624385 34.9074,3.29155 34.8913,2.78239 34.6542,2.31034 34.1619,2.17962 33.7943,2.08202 33.2594,2 32.5,2 c -0.7594,0 -1.2942,0.08202 -1.6618,0.17962 -0.4924,0.13073 -0.7295,0.60276 -0.7456,1.11191 -0.02913,0.9207397 -0.07369,2.4924963 -0.08801,3.8834317 z"
     clip-rule="evenodd"
     id="path2"
     sodipodi:nodetypes="cccscccccccscccccccssccc"
     style="fill:#888a85;fill-opacity:1" />
  <path
     fill="#888a85"
     fill-rule="evenodd"
     d="M 7.1342363,30.005022 C 5.7534466,30.019775 4.2032948,30.063753 3.29153,30.0926 2.78238,30.1087 2.31035,30.3458 2.17962,30.8382 2.08202,31.2058 2,31.7406 2,32.5 c 0,0.7594 0.08202,1.2943 0.17962,1.6619 0.13072,0.4923 0.60277,0.7294 1.11193,0.7455 0.9616678,0.03043 2.6334806,0.07768 4.067719,0.08973 z M 7.0421984,21.506046 C 5.6850675,21.521717 4.1831161,21.564392 3.29155,21.5926 2.78239,21.6087 2.31034,21.8458 2.17962,22.3381 2.08202,22.7057 2,23.2406 2,24 c 0,0.7594 0.08202,1.2942 0.17962,1.6618 0.13073,0.4924 0.60276,0.7295 1.11191,0.7456 0.8937874,0.02828 2.4010356,0.0711 3.7608392,0.08667 z M 7.3594007,13.002869 C 5.9251329,13.014914 4.2532473,13.062173 3.29155,13.0926 2.78239,13.1087 2.31034,13.3458 2.17962,13.8381 2.08202,14.2057 2,14.7406 2,15.5 c 0,0.7594 0.08202,1.2942 0.17962,1.6618 0.13073,0.4924 0.60276,0.7295 1.11191,0.7456 0.9140292,0.02892 2.4696204,0.07304 3.8529909,0.08769 z"
     clip-rule="evenodd"
     id="path4"
     sodipodi:nodetypes="ccsscccccccssccccccscccc"
     style="fill:#888a85;fill-opacity:1" />
  <path
     fill="#888a85"
     fill-rule="evenodd"
     d="M 17.2247,45.8031 C 17.6771,45.6742 17.9046,45.2437 17.9305,44.774 17.9632,44.1797 18,43.2359 18,42 c 0,-0.353089 -0.003,-0.732823 -0.0081,-1.121822 L 13.011071,40.661326 C 13.00422,41.125686 13,41.581554 13,42 c 0,1.2359 0.0368,2.1797 0.0695,2.774 0.0258,0.4697 0.2533,0.9002 0.7058,1.0291 C 14.1439,45.9081 14.6961,46 15.5,46 c 0.8039,0 1.3561,-0.0919 1.7247,-0.1969 z m 4.3448,-1.0291 c 0.0259,0.4697 0.2534,0.9002 0.7058,1.0291 C 22.6439,45.9081 23.1961,46 24,46 c 0.8039,0 1.3561,-0.0919 1.7247,-0.1969 0.4525,-0.1289 0.68,-0.5594 0.7058,-1.0291 C 26.4632,44.1797 26.5,43.2359 26.5,42 c 0,-0.322327 -0.0025,-0.666859 -0.0068,-1.020373 l -4.986429,8.8e-5 C 21.502504,41.333198 21.5,41.6777 21.5,42 c 0,1.2359 0.0368,2.1797 0.0695,2.774 z m 8.5,0 c 0.0259,0.4697 0.2534,0.9002 0.7058,1.0291 C 31.1439,45.9081 31.6961,46 32.5,46 c 0.8039,0 1.3561,-0.0919 1.7247,-0.1969 0.4525,-0.1289 0.68,-0.5594 0.7058,-1.0291 C 34.9632,44.1797 35.010133,43.235858 35,42 L 34.989145,40.676068 30.007502,40.92174 30,42 c -0.0086,1.23587 0.0368,2.1797 0.0695,2.774 z"
     clip-rule="evenodd"
     id="path6"
     sodipodi:nodetypes="ccsccscsscccsscsccscccsscsccsc"
     style="fill:#888a85;fill-opacity:1" />
  <path
     fill="#888a85"
     fill-rule="evenodd"
     d="M 45.8031,30.7753 C 45.6742,30.3229 45.2437,30.0954 44.774,30.0695 44.1797,30.0368 43.2359,30 42,30 c -0.335662,0 -0.695403,0.0027 -1.064292,0.0073 l -0.26023,4.981811 C 41.134946,34.995865 41.585806,35 42,35 c 1.2359,0 2.1797,-0.0368 2.774,-0.0695 0.4697,-0.0258 0.9002,-0.2533 1.0291,-0.7058 C 45.9081,33.8561 46,33.3039 46,32.5 46,31.6961 45.9081,31.1439 45.8031,30.7753 Z M 44.774,26.4305 c 0.4697,-0.0259 0.9002,-0.2534 1.0291,-0.7058 C 45.9081,25.3561 46,24.8039 46,24 46,23.1961 45.9081,22.6439 45.8031,22.2753 45.6742,21.8228 45.2437,21.5953 44.774,21.5695 44.1797,21.5368 43.2359,21.5 42,21.5 c -0.331118,0 -0.685668,0.0026 -1.049316,0.0071 l 0.02912,4.986076 C 41.333255,26.497497 41.677726,26.5 42,26.5 c 1.2359,0 2.1797,-0.0368 2.774,-0.0695 z m 0,-8.5 c 0.4697,-0.0259 0.9002,-0.2534 1.0291,-0.7058 C 45.9081,16.8561 46,16.3039 46,15.5 46,14.6961 45.9081,14.1439 45.8031,13.7753 45.6742,13.3228 45.2437,13.0953 44.774,13.0695 44.1797,13.0368 43.2359,13 42,13 c -0.422888,0 -0.883998,0.0043 -1.353467,0.01129 l 0.246304,4.980839 C 41.276715,17.99707 41.651348,18 42,18 c 1.2359,0 2.1797,-0.0368 2.774,-0.0695 z"
     clip-rule="evenodd"
     id="path8"
     sodipodi:nodetypes="ccsccscsscccsscsccscccsscsccsc"
     style="fill:#888a85;fill-opacity:1" />
  <path
     id="path10"
     style="fill:#2e3436;fill-opacity:1"
     d="m 24,7.0001221 c -5.376885,0 -9.296029,0.1820057 -11.93042,0.3735351 C 9.5125778,7.5595566 7.5595566,9.5125778 7.3736572,12.06958 7.1821278,14.703971 7.0001221,18.623115 7.0001221,24 c 0,5.376885 0.1820057,9.296129 0.3735351,11.93042 0.1858994,2.556991 2.1389206,4.510023 4.6959228,4.695923 2.634391,0.1915 6.553535,0.373535 11.93042,0.373535 5.376885,0 9.296029,-0.182035 11.93042,-0.373535 2.556991,-0.1859 4.510023,-2.138932 4.695923,-4.695923 0.1915,-2.634391 0.373535,-6.553535 0.373535,-11.93042 0,-5.376885 -0.182035,-9.296129 -0.373535,-11.93042 C 40.440443,9.5125678 38.487411,7.5595666 35.93042,7.3736572 33.296029,7.1821378 29.376885,7.0001221 24,7.0001221 Z"
     sodipodi:nodetypes="sccsccsccsccs" />
  <path
     id="path4379"
     style="fill:#ffffff;fill-opacity:1;stroke-width:0.0211245"
     d="M 10.80232,20.242041 9.5887166,23.329089 C 8.9212894,25.02694 8.37211,26.42434 8.3683084,26.434391 c -0.00385,0.01137 0.1784233,0.01611 0.4049408,0.01611 h 0.412005 l 0.10516,-0.269303 c 0.057453,-0.148167 0.2026354,-0.523472 0.3223715,-0.834449 l 0.2177528,-0.565166 h 1.3229815 1.323117 l 0.19721,0.51218 c 0.108328,0.281801 0.253618,0.657078 0.322646,0.834447 l 0.125953,0.322097 h 0.378769 c 0.312493,0 0.37876,-0.0051 0.37876,-0.03078 0,-0.01665 0.01034,-0.03349 0.02464,-0.03797 0.01332,-0.0027 0.01813,-0.02594 0.0085,-0.05559 -0.0077,-0.02596 -0.02216,-0.04321 -0.03077,-0.03802 -0.0077,0.0053 -0.546713,-1.354117 -1.196276,-3.020475 l -1.181134,-3.03027 h -0.350696 z m 4.564842,0.845021 c -0.01665,0 -0.188849,0.03928 -0.380295,0.08685 l -0.348043,0.08689 v 0.525406 0.525527 h -0.327407 -0.32759 v 0.35906 0.359048 h 0.32759 0.327407 v 1.173359 c 0,1.264331 0.0062,1.360908 0.114502,1.601785 0.151148,0.338051 0.474523,0.584004 0.878419,0.667702 0.148844,0.02948 0.497261,0.0085 0.659976,-0.04182 0.19631,-0.06058 0.415845,-0.162169 0.429716,-0.197616 0.0056,-0.01612 -0.03243,-0.128468 -0.08784,-0.249027 -0.05566,-0.120492 -0.115676,-0.258985 -0.137009,-0.307535 l -0.03797,-0.08782 -0.154673,0.07821 c -0.144156,0.07261 -0.167646,0.07735 -0.344641,0.07735 -0.219735,-1.54e-4 -0.322058,-0.04097 -0.428897,-0.170389 C 15.40319,25.420609 15.39933,25.371796 15.39933,24.14306 V 23.029722 H 16.033 16.666584 V 22.670729 22.31175 H 16.03322 15.39956 v -0.612769 c 0,-0.534032 -0.0038,-0.612535 -0.03106,-0.612535 z m -4.213876,0.296111 c 0.008,5.9e-5 0.905975,2.308447 1.007634,2.590945 l 0.02594,0.07029 h -1.033835 -1.033944 l 0.04177,-0.110788 c 0.312055,-0.822371 0.984765,-2.550462 0.992791,-2.550409 z m 25.734373,0.844743 c -0.325654,0 -0.50923,0.03883 -0.953153,0.200466 -0.239426,0.08783 -0.596665,0.389742 -0.780971,0.661518 -0.121907,0.181815 -0.244074,0.441946 -0.310676,0.669731 -0.06878,0.23504 -0.09253,0.666968 -0.05169,0.94193 0.134054,0.914254 0.843403,1.626162 1.766645,1.771773 0.348271,0.05559 0.87046,-0.01611 1.199314,-0.166262 0.299502,-0.135619 0.795299,-0.517352 0.795299,-0.612333 0,-0.02951 -0.210565,-0.249466 -0.418869,-0.435745 l -0.07031,-0.06326 -0.046,0.05559 c -0.07399,0.08776 -0.343056,0.285942 -0.485383,0.355984 -0.223132,0.109538 -0.452055,0.155576 -0.710567,0.14272 -0.369308,-0.01738 -0.621825,-0.127163 -0.893015,-0.385309 -0.313024,-0.298719 -0.463354,-0.840366 -0.366499,-1.318803 0.05686,-0.283148 0.178387,-0.505254 0.392286,-0.720863 0.273985,-0.275669 0.538865,-0.385101 0.930699,-0.384184 0.358943,7.2e-4 0.728563,0.141315 0.988882,0.377397 l 0.128587,0.116898 0.254005,-0.226505 c 0.139954,-0.125954 0.253979,-0.23829 0.253979,-0.252346 0,-0.06658 -0.415092,-0.404023 -0.59263,-0.481796 -0.39576,-0.173261 -0.700068,-0.246124 -1.029305,-0.246124 z m -6.337366,0.0053 c -0.222238,0.01101 -0.404193,0.05503 -0.616232,0.145063 -0.245237,0.104093 -0.346562,0.172727 -0.483113,0.325858 -0.384307,0.431335 -0.367142,1.059529 0.04095,1.463125 0.239661,0.237408 0.561253,0.377472 1.21384,0.528247 0.567618,0.131077 0.797743,0.264369 0.866685,0.501764 0.03076,0.10516 0.03076,0.118023 -0.0068,0.203598 -0.125926,0.283598 -0.654653,0.443503 -1.134605,0.343292 -0.277837,-0.05751 -0.691256,-0.309984 -0.875284,-0.532979 -0.07399,-0.08784 -0.03209,-0.108339 -0.365775,0.181134 -0.125952,0.108482 -0.226906,0.207328 -0.226906,0.219525 0,0.04321 0.195152,0.249958 0.365548,0.386066 0.276523,0.221317 0.6556,0.397086 0.975911,0.452738 0.06953,0.01137 0.150517,0.02623 0.17969,0.03138 0.104093,0.01611 0.562416,-0.0053 0.707681,-0.03797 0.519413,-0.114502 0.891133,-0.366224 1.059433,-0.720411 0.07031,-0.148053 0.07899,-0.185791 0.08782,-0.378492 0.01665,-0.38126 -0.06959,-0.622573 -0.307852,-0.856572 -0.233413,-0.228911 -0.535476,-0.363306 -1.121866,-0.498419 -0.588351,-0.135591 -0.666489,-0.16217 -0.818865,-0.275924 -0.30104,-0.225539 -0.158941,-0.61987 0.269588,-0.749885 0.195862,-0.05932 0.531314,-0.05054 0.737147,0.02015 0.169502,0.05751 0.379216,0.1801 0.513735,0.298777 l 0.101871,0.08965 0.08508,-0.0823 c 0.04595,-0.04459 0.162292,-0.166739 0.256959,-0.269989 l 0.171948,-0.187428 -0.105116,-0.09554 c -0.327416,-0.297114 -0.81789,-0.483355 -1.330338,-0.504992 -0.08505,-0.0026 -0.164118,-0.0026 -0.238317,-3.89e-4 z m -4.282431,0.0053 c -0.302007,0 -0.360079,0.0055 -0.544691,0.05751 -0.921741,0.254289 -1.551315,1.023892 -1.593927,1.948267 -0.01611,0.370481 0.04903,0.691634 0.209813,1.013914 0.302639,0.607736 0.875836,1.04133 1.534719,1.160475 0.817615,0.148054 1.668619,-0.192941 2.143334,-0.857996 0.863463,-1.209915 0.253664,-2.862107 -1.204672,-3.264676 -0.184816,-0.05111 -0.242543,-0.05686 -0.5447,-0.05686 z m 12.495153,0.0083 v 0.05393 c 0,0.04904 0.0062,0.05283 0.105116,0.05283 h 0.105105 v 0.32748 0.327414 h 0.05393 0.05455 v -0.327152 -0.32748 h 0.105105 c 0.0986,0 0.105138,-0.0027 0.105138,-0.05283 v -0.05393 h -0.263997 z m 0.612536,0 v 0.380298 3.3e-5 0.380294 h 0.0534 0.05455 l 1.88e-4,-0.279719 1.62e-4,-0.279721 0.12048,0.197852 c 0.13701,0.225279 0.112058,0.228134 0.271756,-0.02856 l 0.09253,-0.148053 1.84e-4,0.269561 1.98e-4,0.269307 h 0.05393 0.05454 v -0.380242 -0.380299 h -0.05054 c -0.04182,0 -0.07259,0.03419 -0.161795,0.180532 -0.06115,0.09958 -0.116898,0.183938 -0.124568,0.188654 -0.007,0.0026 -0.06598,-0.07652 -0.128468,-0.180238 -0.09967,-0.16355 -0.123277,-0.188635 -0.173385,-0.188635 z m -19.980359,3.74e-4 c -0.423804,7.15e-4 -0.780244,0.176022 -1.014028,0.498573 l -0.09848,0.135619 -0.006,-0.264374 -0.0053,-0.264368 h -0.34764 -0.347895 v 2.049094 2.049082 h 0.380302 0.380298 v -1.436647 -1.437043 l 0.08685,-0.135619 c 0.162523,-0.257168 0.408783,-0.435231 0.656672,-0.474404 0.151549,-0.02358 0.375344,0.0054 0.51185,0.07259 0.127176,0.06115 0.281918,0.213392 0.349139,0.345087 0.10406,0.202333 0.106172,0.259325 0.106172,1.709429 l 1.71e-4,1.357294 h 0.380295 0.380299 v -1.42192 -1.422065 l 0.07985,-0.13254 c 0.106172,-0.176166 0.270302,-0.339528 0.42177,-0.419977 0.403608,-0.214952 0.954251,-0.04595 1.127441,0.345191 0.09748,0.220374 0.102938,0.299249 0.102938,1.715191 l 3.75e-4,1.336082 h 0.381219 0.381213 l -0.0064,-1.515662 -0.0062,-1.515683 -0.05809,-0.189533 c -0.07821,-0.249026 -0.167641,-0.414173 -0.309986,-0.568474 -0.149712,-0.162293 -0.323752,-0.274014 -0.537087,-0.344641 -0.152467,-0.05054 -0.203448,-0.05621 -0.476985,-0.05685 -0.26691,-0.0014 -0.325379,0.0054 -0.45417,0.04748 -0.279719,0.09463 -0.513847,0.268789 -0.685706,0.51346 l -0.101893,0.144169 -0.07654,-0.124528 C 20.359344,22.467958 19.915283,22.24716 19.396654,22.248201 Z m 13.769735,0.08326 v 2.02794 2.027971 h 0.380294 0.380296 v -2.028848 -2.027945 h -0.380296 z m -6.897144,0.584135 c 0.237483,0 0.29655,0.0055 0.43657,0.05454 0.461782,0.152902 0.79872,0.478764 0.954539,0.922811 0.05621,0.162151 0.0632,0.209644 0.06525,0.435381 0.0013,0.225089 -0.0053,0.274499 -0.06115,0.440565 -0.14857,0.453156 -0.504687,0.797743 -0.973844,0.942332 -0.166262,0.05169 -0.508175,0.07401 -0.67053,0.04316 -0.534313,-0.09849 -0.964684,-0.462948 -1.14343,-0.970003 -0.05685,-0.165568 -0.06323,-0.206169 -0.06323,-0.446081 0,-0.239897 0.0053,-0.280692 0.06323,-0.445985 0.156831,-0.444752 0.493113,-0.769987 0.954746,-0.922824 0.139909,-0.04548 0.19914,-0.05393 0.436562,-0.05393 z" />
  <path
     id="path346"
     style="fill:#ffffff;fill-opacity:1"
     d="m 12.000137,10.187622 c 1.553301,0 2.8125,1.259199 2.8125,2.8125 0,1.553301 -1.259199,2.8125 -2.8125,2.8125 -1.553301,0 -2.8125002,-1.259199 -2.8125002,-2.8125 0,-1.553301 1.2591992,-2.8125 2.8125002,-2.8125 z"
     sodipodi:nodetypes="sssss" />
</svg>
