<?xml version="1.0" encoding="UTF-8" standalone="no"?>
<svg
   fill="none"
   viewBox="0 0 48 48"
   height="256"
   width="256"
   version="1.1"
   id="svg14"
   sodipodi:docname="espressif_chip.svg"
   inkscape:version="1.3 (0e150ed6c4, 2023-07-21)"
   xmlns:inkscape="http://www.inkscape.org/namespaces/inkscape"
   xmlns:sodipodi="http://sodipodi.sourceforge.net/DTD/sodipodi-0.dtd"
   xmlns="http://www.w3.org/2000/svg"
   xmlns:svg="http://www.w3.org/2000/svg">
  <defs
     id="defs18" />
  <sodipodi:namedview
     id="namedview16"
     pagecolor="#ffffff"
     bordercolor="#666666"
     borderopacity="1.0"
     inkscape:showpageshadow="2"
     inkscape:pageopacity="0.0"
     inkscape:pagecheckerboard="0"
     inkscape:deskcolor="#d1d1d1"
     showgrid="false"
     inkscape:zoom="3.2382812"
     inkscape:cx="83.377565"
     inkscape:cy="111.01568"
     inkscape:current-layer="svg14"
     inkscape:window-width="3840"
     inkscape:window-height="1494"
     inkscape:window-x="-11"
     inkscape:window-y="-11"
     inkscape:window-maximized="1" />
  <path
     fill="#888a85"
     fill-rule="evenodd"
     d="M 17.99523,7.1581474 C 17.980733,5.7713767 17.936414,4.2085616 17.9074,3.29153 17.8913,2.78238 17.6542,2.31035 17.1618,2.17962 16.7942,2.08202 16.2594,2 15.5,2 c -0.7594,0 -1.2943,0.08202 -1.6619,0.17962 -0.4923,0.13072 -0.7294,0.60277 -0.7455,1.11193 -0.03054,0.9652269 -0.07803,2.6458649 -0.08986,4.0836334 z m 8.499413,-0.054834 C 26.47957,5.7303708 26.436032,4.1965213 26.4074,3.29155 26.3913,2.78239 26.1542,2.31034 25.6619,2.17962 25.2943,2.08202 24.7594,2 24,2 c -0.7594,0 -1.2942,0.08202 -1.6618,0.17962 -0.4924,0.13073 -0.7295,0.60276 -0.7456,1.11191 -0.02856,0.9027793 -0.07196,2.431425 -0.08713,3.8018344 z m 8.502824,0.2971449 C 34.985991,5.9571553 34.938118,4.2624385 34.9074,3.29155 34.8913,2.78239 34.6542,2.31034 34.1619,2.17962 33.7943,2.08202 33.2594,2 32.5,2 c -0.7594,0 -1.2942,0.08202 -1.6618,0.17962 -0.4924,0.13073 -0.7295,0.60276 -0.7456,1.11191 -0.02913,0.9207397 -0.07369,2.4924963 -0.08801,3.8834317 z"
     clip-rule="evenodd"
     id="path2"
     sodipodi:nodetypes="cccscccccccscccccccssccc"
     style="fill:#888a85;fill-opacity:1" />
  <path
     fill="#888a85"
     fill-rule="evenodd"
     d="M 7.1342363,30.005022 C 5.7534466,30.019775 4.2032948,30.063753 3.29153,30.0926 2.78238,30.1087 2.31035,30.3458 2.17962,30.8382 2.08202,31.2058 2,31.7406 2,32.5 c 0,0.7594 0.08202,1.2943 0.17962,1.6619 0.13072,0.4923 0.60277,0.7294 1.11193,0.7455 0.9616678,0.03043 2.6334806,0.07768 4.067719,0.08973 z M 7.0421984,21.506046 C 5.6850675,21.521717 4.1831161,21.564392 3.29155,21.5926 2.78239,21.6087 2.31034,21.8458 2.17962,22.3381 2.08202,22.7057 2,23.2406 2,24 c 0,0.7594 0.08202,1.2942 0.17962,1.6618 0.13073,0.4924 0.60276,0.7295 1.11191,0.7456 0.8937874,0.02828 2.4010356,0.0711 3.7608392,0.08667 z M 7.3594007,13.002869 C 5.9251329,13.014914 4.2532473,13.062173 3.29155,13.0926 2.78239,13.1087 2.31034,13.3458 2.17962,13.8381 2.08202,14.2057 2,14.7406 2,15.5 c 0,0.7594 0.08202,1.2942 0.17962,1.6618 0.13073,0.4924 0.60276,0.7295 1.11191,0.7456 0.9140292,0.02892 2.4696204,0.07304 3.8529909,0.08769 z"
     clip-rule="evenodd"
     id="path4"
     sodipodi:nodetypes="ccsscccccccssccccccscccc"
     style="fill:#888a85;fill-opacity:1" />
  <path
     fill="#888a85"
     fill-rule="evenodd"
     d="M 17.2247,45.8031 C 17.6771,45.6742 17.9046,45.2437 17.9305,44.774 17.9632,44.1797 18,43.2359 18,42 c 0,-0.353089 -0.003,-0.732823 -0.0081,-1.121822 L 13.011071,40.661326 C 13.00422,41.125686 13,41.581554 13,42 c 0,1.2359 0.0368,2.1797 0.0695,2.774 0.0258,0.4697 0.2533,0.9002 0.7058,1.0291 C 14.1439,45.9081 14.6961,46 15.5,46 c 0.8039,0 1.3561,-0.0919 1.7247,-0.1969 z m 4.3448,-1.0291 c 0.0259,0.4697 0.2534,0.9002 0.7058,1.0291 C 22.6439,45.9081 23.1961,46 24,46 c 0.8039,0 1.3561,-0.0919 1.7247,-0.1969 0.4525,-0.1289 0.68,-0.5594 0.7058,-1.0291 C 26.4632,44.1797 26.5,43.2359 26.5,42 c 0,-0.322327 -0.0025,-0.666859 -0.0068,-1.020373 l -4.986429,8.8e-5 C 21.502504,41.333198 21.5,41.6777 21.5,42 c 0,1.2359 0.0368,2.1797 0.0695,2.774 z m 8.5,0 c 0.0259,0.4697 0.2534,0.9002 0.7058,1.0291 C 31.1439,45.9081 31.6961,46 32.5,46 c 0.8039,0 1.3561,-0.0919 1.7247,-0.1969 0.4525,-0.1289 0.68,-0.5594 0.7058,-1.0291 C 34.9632,44.1797 35.010133,43.235858 35,42 L 34.989145,40.676068 30.007502,40.92174 30,42 c -0.0086,1.23587 0.0368,2.1797 0.0695,2.774 z"
     clip-rule="evenodd"
     id="path6"
     sodipodi:nodetypes="ccsccscsscccsscsccscccsscsccsc"
     style="fill:#888a85;fill-opacity:1" />
  <path
     fill="#888a85"
     fill-rule="evenodd"
     d="M 45.8031,30.7753 C 45.6742,30.3229 45.2437,30.0954 44.774,30.0695 44.1797,30.0368 43.2359,30 42,30 c -0.335662,0 -0.695403,0.0027 -1.064292,0.0073 l -0.26023,4.981811 C 41.134946,34.995865 41.585806,35 42,35 c 1.2359,0 2.1797,-0.0368 2.774,-0.0695 0.4697,-0.0258 0.9002,-0.2533 1.0291,-0.7058 C 45.9081,33.8561 46,33.3039 46,32.5 46,31.6961 45.9081,31.1439 45.8031,30.7753 Z M 44.774,26.4305 c 0.4697,-0.0259 0.9002,-0.2534 1.0291,-0.7058 C 45.9081,25.3561 46,24.8039 46,24 46,23.1961 45.9081,22.6439 45.8031,22.2753 45.6742,21.8228 45.2437,21.5953 44.774,21.5695 44.1797,21.5368 43.2359,21.5 42,21.5 c -0.331118,0 -0.685668,0.0026 -1.049316,0.0071 l 0.02912,4.986076 C 41.333255,26.497497 41.677726,26.5 42,26.5 c 1.2359,0 2.1797,-0.0368 2.774,-0.0695 z m 0,-8.5 c 0.4697,-0.0259 0.9002,-0.2534 1.0291,-0.7058 C 45.9081,16.8561 46,16.3039 46,15.5 46,14.6961 45.9081,14.1439 45.8031,13.7753 45.6742,13.3228 45.2437,13.0953 44.774,13.0695 44.1797,13.0368 43.2359,13 42,13 c -0.422888,0 -0.883998,0.0043 -1.353467,0.01129 l 0.246304,4.980839 C 41.276715,17.99707 41.651348,18 42,18 c 1.2359,0 2.1797,-0.0368 2.774,-0.0695 z"
     clip-rule="evenodd"
     id="path8"
     sodipodi:nodetypes="ccsccscsscccsscsccscccsscsccsc"
     style="fill:#888a85;fill-opacity:1" />
  <path
     id="path10"
     style="fill:#2e3436;fill-opacity:1"
     d="m 24,7.0001221 c -5.37689,0 -9.296026,0.1820055 -11.93042,0.3735351 C 9.5125752,7.5595568 7.5595568,9.5125752 7.3736572,12.06958 7.1821276,14.703974 7.0001221,18.62311 7.0001221,24 c 0,5.37689 0.1820055,9.296126 0.3735351,11.93042 0.1858996,2.556994 2.138918,4.510023 4.6959228,4.695923 2.634394,0.1915 6.55353,0.373535 11.93042,0.373535 5.37689,0 9.296026,-0.182035 11.93042,-0.373535 2.556994,-0.1859 4.510023,-2.138929 4.695923,-4.695923 0.1915,-2.634394 0.373535,-6.55353 0.373535,-11.93042 0,-5.37689 -0.182035,-9.296126 -0.373535,-11.93042 C 40.440443,9.5125652 38.487414,7.5595668 35.93042,7.3736572 33.296026,7.1821376 29.37689,7.0001221 24,7.0001221 Z"
     sodipodi:nodetypes="sccsccsccsccs" />
  <path
     id="rect900"
     style="fill:#ffffff;stroke-width:3.75;stroke-linejoin:round;fill-opacity:1"
     d="m 24.736816,9.6221924 c -1.915581,0.00109 -1.376614,0.8227606 1.658204,2.2994386 2.337995,1.137663 3.186427,1.772429 5.490966,4.108887 2.168519,2.198469 2.999446,3.307753 4.063843,5.425415 h -3.66e-4 c 0.735891,1.463974 1.49665,2.66261 1.69043,2.663452 0.570091,0.0022 0.764317,-1.646686 0.419677,-3.553345 C 37.571226,17.864648 36.19916,15.338841 34.143311,13.356079 31.972377,11.262264 29.894841,10.244522 26.922363,9.8181152 26.002052,9.6861416 25.27318,9.6218872 24.736816,9.6221924 Z m -5.669677,1.4626466 -1.42566,0.963135 c -1.223072,0.826577 -1.437286,1.125264 -1.518676,2.104614 l -0.09375,1.141113 h 1.254272 c 3.469858,0 7.587245,1.907567 10.550171,4.887818 2.746646,2.762671 4.788574,7.260065 4.788574,10.547241 l 3.67e-4,3.66e-4 c 0,0.93999 0.06304,1.001221 1.051391,1.001221 0.887168,0 1.193266,-0.197362 1.956665,-1.263062 1.03027,-1.438443 1.102523,-2.20827 0.424439,-4.541015 C 34.039481,18.992416 27.906757,13.144334 20.952759,11.524292 Z m -4.564087,0.924316 c -1.148525,0.0065 -3.530793,3.989254 -4.306275,7.314331 -0.564979,2.426165 -0.562374,4.441405 0.01062,6.899414 1.266896,5.434584 5.592549,9.966625 10.933228,11.455079 l -7.32e-4,-7.33e-4 c 1.861145,0.518581 6.447523,0.535596 8.320312,0.03076 1.940756,-0.523227 4.532748,-1.818175 5.869995,-2.932617 0.856398,-0.713953 0.981538,-0.951327 0.668701,-1.270386 -0.260767,-0.266825 -0.515367,-0.297336 -0.791748,-0.09558 -2.661352,1.944151 -3.57546,2.468559 -5.368652,3.082031 -2.870517,0.98357 -6.239274,0.976001 -9.025635,-0.01831 -4.073097,-1.453579 -7.472847,-4.720244 -9.016479,-8.663819 -0.548741,-1.402152 -0.953614,-2.313624 -0.953614,-5.058472 0,-3.947942 0.836628,-5.71965 2.987915,-8.674438 1.142876,-1.569419 1.26603,-1.870855 0.832398,-2.039062 -0.05018,-0.0195 -0.103554,-0.02852 -0.160034,-0.0282 z m 2.569336,4.902832 c -1.345573,0.0067 -2.342888,0.457941 -3.333985,1.437744 -2.002488,1.980145 -2.057335,4.924407 -0.129638,6.973389 0.613715,0.652634 1.519313,1.274485 2.012329,1.382813 4.150604,0.909809 5.895419,3.12728 5.021484,6.381591 -0.299966,1.117354 -0.269776,1.277444 0.331055,1.749024 0.363571,0.284973 0.931816,0.577512 1.263061,0.649292 l -3.66e-4,3.66e-4 c 1.457901,0.316264 2.049617,0.06891 2.435303,-1.016602 0.539141,-1.517246 0.506547,-3.908716 -0.07654,-5.638916 -0.955153,-2.834443 -4.00204,-5.326369 -7.420532,-6.068847 -0.661878,-0.143973 -0.827018,-0.331714 -0.752198,-0.858399 0.08121,-0.577627 0.261354,-0.665408 1.247315,-0.604248 2.850312,0.172556 6.485617,2.807557 7.991821,5.792725 0.793955,1.574206 1.194125,4.155159 0.946289,6.108032 l -0.193726,1.529297 1.201172,0.30835 c 0.918591,0.235673 1.443993,0.205361 2.234253,-0.12854 l 1.033081,-0.436524 -0.113159,-3.273559 C 30.665038,28.167066 30.57384,27.749448 29.53491,25.541382 27.46406,21.140642 23.509539,18.022921 18.832395,17.103149 18.178654,16.974618 17.598913,16.909387 17.072386,16.911987 Z m 0.04687,12.078736 c -1.679929,0 -2.546969,2.142287 -1.354615,3.3479 0.331003,0.334778 0.940778,0.608643 1.354615,0.608643 0.414012,0 1.023366,-0.273947 1.354614,-0.608643 0.331117,-0.334765 0.602051,-0.951256 0.602051,-1.369629 0,-0.976868 -0.990494,-1.978271 -1.956665,-1.978271 z"
     sodipodi:nodetypes="sccccccccsccccscccsccccscccccccccccsccscccccccccccccccccccccccscscss" />
  <circle
     style="fill:#ffffff;fill-opacity:1;stroke:none;stroke-width:5.49007"
     id="path4732"
     cx="12"
     cy="13"
     r="2.8125" />
</svg>
