<?xml version="1.0" encoding="UTF-8" standalone="no"?>
<svg
   fill="none"
   viewBox="0 0 48 48"
   height="256"
   width="256"
   version="1.1"
   id="svg14"
   sodipodi:docname="flash_bootloader.svg"
   inkscape:version="1.2.1 (9c6d41e410, 2022-07-14)"
   xmlns:inkscape="http://www.inkscape.org/namespaces/inkscape"
   xmlns:sodipodi="http://sodipodi.sourceforge.net/DTD/sodipodi-0.dtd"
   xmlns="http://www.w3.org/2000/svg"
   xmlns:svg="http://www.w3.org/2000/svg">
  <defs
     id="defs18" />
  <sodipodi:namedview
     id="namedview16"
     pagecolor="#ffffff"
     bordercolor="#666666"
     borderopacity="1.0"
     inkscape:showpageshadow="2"
     inkscape:pageopacity="0.0"
     inkscape:pagecheckerboard="0"
     inkscape:deskcolor="#d1d1d1"
     showgrid="false"
     inkscape:zoom="1.1449053"
     inkscape:cx="41.05143"
     inkscape:cy="139.31283"
     inkscape:current-layer="svg14"
     inkscape:window-width="1920"
     inkscape:window-height="730"
     inkscape:window-x="-6"
     inkscape:window-y="-6"
     inkscape:window-maximized="1" />
  <path
     fill="#888a85"
     fill-rule="evenodd"
     d="M17.2247 11.8031C17.6771 11.6742 17.9046 11.2437 17.9305 10.774C17.9632 10.1797 18 9.23592 18 8C18 6.45543 17.9425 4.40092 17.9074 3.29153C17.8913 2.78238 17.6542 2.31035 17.1618 2.17962C16.7942 2.08202 16.2594 2 15.5 2C14.7406 2 14.2057 2.08202 13.8381 2.17962C13.3458 2.31034 13.1087 2.78239 13.0926 3.29155C13.0575 4.40095 13 6.45544 13 8C13 9.23589 13.0368 10.1797 13.0695 10.774C13.0953 11.2437 13.3228 11.6742 13.7753 11.8031C14.1439 11.9081 14.6961 12 15.5 12C16.3039 12 16.8561 11.9081 17.2247 11.8031ZM21.5695 10.774C21.5954 11.2437 21.8229 11.6742 22.2753 11.8031C22.6439 11.9081 23.1961 12 24 12C24.8039 12 25.3561 11.9081 25.7247 11.8031C26.1772 11.6742 26.4047 11.2437 26.4305 10.774C26.4632 10.1797 26.5 9.23589 26.5 8C26.5 6.45544 26.4425 4.40095 26.4074 3.29155C26.3913 2.78239 26.1542 2.31034 25.6619 2.17962C25.2943 2.08202 24.7594 2 24 2C23.2406 2 22.7058 2.08202 22.3382 2.17962C21.8458 2.31035 21.6087 2.78238 21.5926 3.29153C21.5575 4.40092 21.5 6.45543 21.5 8C21.5 9.23592 21.5368 10.1797 21.5695 10.774ZM30.0695 10.774C30.0954 11.2437 30.3229 11.6742 30.7753 11.8031C31.1439 11.9081 31.6961 12 32.5 12C33.3039 12 33.8561 11.9081 34.2247 11.8031C34.6772 11.6742 34.9047 11.2437 34.9305 10.774C34.9632 10.1797 35 9.23589 35 8C35 6.45544 34.9425 4.40095 34.9074 3.29155C34.8913 2.78239 34.6542 2.31034 34.1619 2.17962C33.7943 2.08202 33.2594 2 32.5 2C31.7406 2 31.2058 2.08202 30.8382 2.17962C30.3458 2.31035 30.1087 2.78238 30.0926 3.29153C30.0575 4.40092 30 6.45543 30 8C30 9.23592 30.0368 10.1797 30.0695 10.774Z"
     clip-rule="evenodd"
     id="path2"
     style="fill:#888a85;fill-opacity:1" />
  <path
     fill="#888a85"
     fill-rule="evenodd"
     d="M11.8031 30.7753C11.6742 30.3229 11.2437 30.0954 10.774 30.0695C10.1797 30.0368 9.23592 30 8 30C6.45543 30 4.40092 30.0575 3.29153 30.0926C2.78238 30.1087 2.31035 30.3458 2.17962 30.8382C2.08202 31.2058 2 31.7406 2 32.5C2 33.2594 2.08202 33.7943 2.17962 34.1619C2.31034 34.6542 2.78239 34.8913 3.29155 34.9074C4.40095 34.9425 6.45544 35 8 35C9.23589 35 10.1797 34.9632 10.774 34.9305C11.2437 34.9047 11.6742 34.6772 11.8031 34.2247C11.9081 33.8561 12 33.3039 12 32.5C12 31.6961 11.9081 31.1439 11.8031 30.7753ZM10.774 26.4305C11.2437 26.4046 11.6742 26.1771 11.8031 25.7247C11.9081 25.3561 12 24.8039 12 24C12 23.1961 11.9081 22.6439 11.8031 22.2753C11.6742 21.8228 11.2437 21.5953 10.774 21.5695C10.1797 21.5368 9.23588 21.5 8 21.5C6.45544 21.5 4.40095 21.5575 3.29155 21.5926C2.78239 21.6087 2.31034 21.8458 2.17962 22.3381C2.08202 22.7057 2 23.2406 2 24C2 24.7594 2.08202 25.2942 2.17962 25.6618C2.31035 26.1542 2.78238 26.3913 3.29153 26.4074C4.40092 26.4425 6.45543 26.5 8 26.5C9.23592 26.5 10.1797 26.4632 10.774 26.4305ZM10.774 17.9305C11.2437 17.9046 11.6742 17.6771 11.8031 17.2247C11.9081 16.8561 12 16.3039 12 15.5C12 14.6961 11.9081 14.1439 11.8031 13.7753C11.6742 13.3228 11.2437 13.0953 10.774 13.0695C10.1797 13.0368 9.23588 13 8 13C6.45544 13 4.40095 13.0575 3.29155 13.0926C2.78239 13.1087 2.31034 13.3458 2.17962 13.8381C2.08202 14.2057 2 14.7406 2 15.5C2 16.2594 2.08202 16.7942 2.17962 17.1618C2.31035 17.6542 2.78238 17.8913 3.29153 17.9074C4.40092 17.9425 6.45543 18 8 18C9.23592 18 10.1797 17.9632 10.774 17.9305Z"
     clip-rule="evenodd"
     id="path4"
     style="fill:#888a85;fill-opacity:1" />
  <path
     fill="#888a85"
     fill-rule="evenodd"
     d="M17.2247 45.8031C17.6771 45.6742 17.9046 45.2437 17.9305 44.774C17.9632 44.1797 18 43.2359 18 42C18 40.4554 17.9425 38.4009 17.9074 37.2915C17.8913 36.7824 17.6542 36.3103 17.1618 36.1796C16.7942 36.082 16.2594 36 15.5 36C14.7406 36 14.2057 36.082 13.8381 36.1796C13.3458 36.3103 13.1087 36.7824 13.0926 37.2916C13.0575 38.4009 13 40.4554 13 42C13 43.2359 13.0368 44.1797 13.0695 44.774C13.0953 45.2437 13.3228 45.6742 13.7753 45.8031C14.1439 45.9081 14.6961 46 15.5 46C16.3039 46 16.8561 45.9081 17.2247 45.8031ZM21.5695 44.774C21.5954 45.2437 21.8229 45.6742 22.2753 45.8031C22.6439 45.9081 23.1961 46 24 46C24.8039 46 25.3561 45.9081 25.7247 45.8031C26.1772 45.6742 26.4047 45.2437 26.4305 44.774C26.4632 44.1797 26.5 43.2359 26.5 42C26.5 40.4554 26.4425 38.4009 26.4074 37.2916C26.3913 36.7824 26.1542 36.3103 25.6619 36.1796C25.2943 36.082 24.7594 36 24 36C23.2406 36 22.7058 36.082 22.3382 36.1796C21.8458 36.3103 21.6087 36.7824 21.5926 37.2915C21.5575 38.4009 21.5 40.4554 21.5 42C21.5 43.2359 21.5368 44.1797 21.5695 44.774ZM30.0695 44.774C30.0954 45.2437 30.3229 45.6742 30.7753 45.8031C31.1439 45.9081 31.6961 46 32.5 46C33.3039 46 33.8561 45.9081 34.2247 45.8031C34.6772 45.6742 34.9047 45.2437 34.9305 44.774C34.9632 44.1797 35 43.2359 35 42C35 40.4554 34.9425 38.4009 34.9074 37.2916C34.8913 36.7824 34.6542 36.3103 34.1619 36.1796C33.7943 36.082 33.2594 36 32.5 36C31.7406 36 31.2058 36.082 30.8382 36.1796C30.3458 36.3103 30.1087 36.7824 30.0926 37.2915C30.0575 38.4009 30 40.4554 30 42C30 43.2359 30.0368 44.1797 30.0695 44.774Z"
     clip-rule="evenodd"
     id="path6"
     style="fill:#888a85;fill-opacity:1" />
  <path
     fill="#888a85"
     fill-rule="evenodd"
     d="M45.8031 30.7753C45.6742 30.3229 45.2437 30.0954 44.774 30.0695C44.1797 30.0368 43.2359 30 42 30C40.4554 30 38.4009 30.0575 37.2915 30.0926C36.7824 30.1087 36.3103 30.3458 36.1796 30.8382C36.082 31.2058 36 31.7406 36 32.5C36 33.2594 36.082 33.7943 36.1796 34.1619C36.3103 34.6542 36.7824 34.8913 37.2916 34.9074C38.4009 34.9425 40.4554 35 42 35C43.2359 35 44.1797 34.9632 44.774 34.9305C45.2437 34.9047 45.6742 34.6772 45.8031 34.2247C45.9081 33.8561 46 33.3039 46 32.5C46 31.6961 45.9081 31.1439 45.8031 30.7753ZM44.774 26.4305C45.2437 26.4046 45.6742 26.1771 45.8031 25.7247C45.9081 25.3561 46 24.8039 46 24C46 23.1961 45.9081 22.6439 45.8031 22.2753C45.6742 21.8228 45.2437 21.5953 44.774 21.5695C44.1797 21.5368 43.2359 21.5 42 21.5C40.4554 21.5 38.4009 21.5575 37.2916 21.5926C36.7824 21.6087 36.3103 21.8458 36.1796 22.3381C36.082 22.7057 36 23.2406 36 24C36 24.7594 36.082 25.2942 36.1796 25.6618C36.3103 26.1542 36.7824 26.3913 37.2915 26.4074C38.4009 26.4425 40.4554 26.5 42 26.5C43.2359 26.5 44.1797 26.4632 44.774 26.4305ZM44.774 17.9305C45.2437 17.9046 45.6742 17.6771 45.8031 17.2247C45.9081 16.8561 46 16.3039 46 15.5C46 14.6961 45.9081 14.1439 45.8031 13.7753C45.6742 13.3228 45.2437 13.0953 44.774 13.0695C44.1797 13.0368 43.2359 13 42 13C40.4554 13 38.4009 13.0575 37.2916 13.0926C36.7824 13.1087 36.3103 13.3458 36.1796 13.8381C36.082 14.2057 36 14.7406 36 15.5C36 16.2594 36.082 16.7942 36.1796 17.1618C36.3103 17.6542 36.7824 17.8913 37.2915 17.9074C38.4009 17.9425 40.4554 18 42 18C43.2359 18 44.1797 17.9632 44.774 17.9305Z"
     clip-rule="evenodd"
     id="path8"
     style="fill:#888a85;fill-opacity:1" />
  <path
     fill="#2e3436"
     d="M40.6263 35.9304C40.4404 38.4874 38.4874 40.4404 35.9304 40.6263C33.296 40.8178 29.3769 41 24 41C18.6231 41 14.704 40.8178 12.0696 40.6263C9.51259 40.4404 7.55964 38.4874 7.37374 35.9304C7.18221 33.2961 7 29.3769 7 24C7 18.6231 7.18221 14.704 7.37374 12.0696C7.55964 9.51259 9.51259 7.55964 12.0696 7.37374C14.704 7.18221 18.6231 7 24 7C29.3769 7 33.296 7.18221 35.9304 7.37373C38.4874 7.55964 40.4404 9.51258 40.6263 12.0696C40.8178 14.7039 41 18.6231 41 24C41 29.3769 40.8178 33.296 40.6263 35.9304Z"
     id="path10"
     style="fill:#2e3436;fill-opacity:1" />
  <circle
     style="fill:#eeeeec;fill-opacity:1;stroke:none;stroke-width:5.49007"
     id="path4732"
     cx="12"
     cy="13"
     r="2.8125" />
  <path
     id="path6300"
     style="fill:#edd400;stroke-width:7.2983;fill-opacity:1"
     d="M 18.496582 13.114746 C 18.355224 13.119361 18.208889 13.152609 18.058594 13.218384 C 14.189013 15.34913 11.689015 19.448808 11.687988 24 C 11.687981 30.799732 17.200268 36.312019 24 36.312012 C 30.799732 36.312019 36.312019 30.799732 36.312012 24 C 36.310985 19.448808 33.810987 15.34913 29.941406 13.218384 C 28.017631 12.376468 26.741831 16.894124 28.271118 17.824219 C 30.282824 19.214239 31.510253 21.515236 31.511353 24 C 31.511278 28.148371 28.148371 31.511278 24 31.511353 C 19.851629 31.511278 16.488722 28.148371 16.488647 24 C 16.489747 21.515236 17.717176 19.214239 19.728882 17.824219 C 21.138694 16.966787 20.164608 13.060287 18.496582 13.114746 z " />
  <path
     fill="#edd400"
     fill-rule="evenodd"
     d="M 26.4305,10.046053 C 26.4046,9.5763527 26.1771,9.1458527 25.7247,9.0169527 c -0.3686,-0.105 -0.9208,-0.1969 -1.7247,-0.1969 -0.8039,0 -1.3561,0.0919 -1.7247,0.1969 -0.4525,0.1289 -0.68,0.5594 -0.7058,1.0291003 -0.0327,0.5943 -0.0695,1.53812 -0.0695,2.774 0,1.54456 0.0575,3.59905 0.0926,4.70845 0.0161,0.50916 0.2532,0.98121 0.7455,1.11193 0.3676,0.0976 0.9025,0.17962 1.6619,0.17962 0.7594,0 1.2942,-0.08202 1.6618,-0.17962 0.4924,-0.13073 0.7295,-0.60276 0.7456,-1.11191 0.0351,-1.10939 0.0926,-3.1639 0.0926,-4.70847 0,-1.23592 -0.0368,-2.1797 -0.0695,-2.774 z"
     clip-rule="evenodd"
     id="path4-7"
     sodipodi:nodetypes="ccsscssssscsc"
     style="fill:#edd400;fill-opacity:1" />
</svg>
