<?xml version="1.0" encoding="UTF-8" standalone="no"?>
<svg
   fill="none"
   viewBox="0 0 48 48"
   height="256"
   width="256"
   version="1.1"
   id="svg14"
   sodipodi:docname="nxp_chip.svg"
   inkscape:version="1.3 (0e150ed6c4, 2023-07-21)"
   xml:space="preserve"
   xmlns:inkscape="http://www.inkscape.org/namespaces/inkscape"
   xmlns:sodipodi="http://sodipodi.sourceforge.net/DTD/sodipodi-0.dtd"
   xmlns="http://www.w3.org/2000/svg"
   xmlns:svg="http://www.w3.org/2000/svg"><defs
     id="defs18" /><sodipodi:namedview
     id="namedview16"
     pagecolor="#ffffff"
     bordercolor="#666666"
     borderopacity="1.0"
     inkscape:showpageshadow="2"
     inkscape:pageopacity="0.0"
     inkscape:pagecheckerboard="0"
     inkscape:deskcolor="#d1d1d1"
     showgrid="false"
     inkscape:zoom="4.5796212"
     inkscape:cx="173.37679"
     inkscape:cy="121.29824"
     inkscape:current-layer="svg14"
     inkscape:window-width="3840"
     inkscape:window-height="1494"
     inkscape:window-x="-11"
     inkscape:window-y="-11"
     inkscape:window-maximized="1" /><path
     fill="#888a85"
     fill-rule="evenodd"
     d="M 17.99523,7.1581474 C 17.980733,5.7713767 17.936414,4.2085616 17.9074,3.29153 17.8913,2.78238 17.6542,2.31035 17.1618,2.17962 16.7942,2.08202 16.2594,2 15.5,2 c -0.7594,0 -1.2943,0.08202 -1.6619,0.17962 -0.4923,0.13072 -0.7294,0.60277 -0.7455,1.11193 -0.03054,0.9652269 -0.07803,2.6458649 -0.08986,4.0836334 z m 8.499413,-0.054834 C 26.47957,5.7303708 26.436032,4.1965213 26.4074,3.29155 26.3913,2.78239 26.1542,2.31034 25.6619,2.17962 25.2943,2.08202 24.7594,2 24,2 c -0.7594,0 -1.2942,0.08202 -1.6618,0.17962 -0.4924,0.13073 -0.7295,0.60276 -0.7456,1.11191 -0.02856,0.9027793 -0.07196,2.431425 -0.08713,3.8018344 z m 8.502824,0.2971449 C 34.985991,5.9571553 34.938118,4.2624385 34.9074,3.29155 34.8913,2.78239 34.6542,2.31034 34.1619,2.17962 33.7943,2.08202 33.2594,2 32.5,2 c -0.7594,0 -1.2942,0.08202 -1.6618,0.17962 -0.4924,0.13073 -0.7295,0.60276 -0.7456,1.11191 -0.02913,0.9207397 -0.07369,2.4924963 -0.08801,3.8834317 z"
     clip-rule="evenodd"
     id="path2"
     sodipodi:nodetypes="cccscccccccscccccccssccc"
     style="fill:#888a85;fill-opacity:1" /><path
     fill="#888a85"
     fill-rule="evenodd"
     d="M 7.1342363,30.005022 C 5.7534466,30.019775 4.2032948,30.063753 3.29153,30.0926 2.78238,30.1087 2.31035,30.3458 2.17962,30.8382 2.08202,31.2058 2,31.7406 2,32.5 c 0,0.7594 0.08202,1.2943 0.17962,1.6619 0.13072,0.4923 0.60277,0.7294 1.11193,0.7455 0.9616678,0.03043 2.6334806,0.07768 4.067719,0.08973 z M 7.0421984,21.506046 C 5.6850675,21.521717 4.1831161,21.564392 3.29155,21.5926 2.78239,21.6087 2.31034,21.8458 2.17962,22.3381 2.08202,22.7057 2,23.2406 2,24 c 0,0.7594 0.08202,1.2942 0.17962,1.6618 0.13073,0.4924 0.60276,0.7295 1.11191,0.7456 0.8937874,0.02828 2.4010356,0.0711 3.7608392,0.08667 z M 7.3594007,13.002869 C 5.9251329,13.014914 4.2532473,13.062173 3.29155,13.0926 2.78239,13.1087 2.31034,13.3458 2.17962,13.8381 2.08202,14.2057 2,14.7406 2,15.5 c 0,0.7594 0.08202,1.2942 0.17962,1.6618 0.13073,0.4924 0.60276,0.7295 1.11191,0.7456 0.9140292,0.02892 2.4696204,0.07304 3.8529909,0.08769 z"
     clip-rule="evenodd"
     id="path4"
     sodipodi:nodetypes="ccsscccccccssccccccscccc"
     style="fill:#888a85;fill-opacity:1" /><path
     fill="#888a85"
     fill-rule="evenodd"
     d="M 17.2247,45.8031 C 17.6771,45.6742 17.9046,45.2437 17.9305,44.774 17.9632,44.1797 18,43.2359 18,42 c 0,-0.353089 -0.003,-0.732823 -0.0081,-1.121822 L 13.011071,40.661326 C 13.00422,41.125686 13,41.581554 13,42 c 0,1.2359 0.0368,2.1797 0.0695,2.774 0.0258,0.4697 0.2533,0.9002 0.7058,1.0291 C 14.1439,45.9081 14.6961,46 15.5,46 c 0.8039,0 1.3561,-0.0919 1.7247,-0.1969 z m 4.3448,-1.0291 c 0.0259,0.4697 0.2534,0.9002 0.7058,1.0291 C 22.6439,45.9081 23.1961,46 24,46 c 0.8039,0 1.3561,-0.0919 1.7247,-0.1969 0.4525,-0.1289 0.68,-0.5594 0.7058,-1.0291 C 26.4632,44.1797 26.5,43.2359 26.5,42 c 0,-0.322327 -0.0025,-0.666859 -0.0068,-1.020373 l -4.986429,8.8e-5 C 21.502504,41.333198 21.5,41.6777 21.5,42 c 0,1.2359 0.0368,2.1797 0.0695,2.774 z m 8.5,0 c 0.0259,0.4697 0.2534,0.9002 0.7058,1.0291 C 31.1439,45.9081 31.6961,46 32.5,46 c 0.8039,0 1.3561,-0.0919 1.7247,-0.1969 0.4525,-0.1289 0.68,-0.5594 0.7058,-1.0291 C 34.9632,44.1797 35.010133,43.235858 35,42 L 34.989145,40.676068 30.007502,40.92174 30,42 c -0.0086,1.23587 0.0368,2.1797 0.0695,2.774 z"
     clip-rule="evenodd"
     id="path6"
     sodipodi:nodetypes="ccsccscsscccsscsccscccsscsccsc"
     style="fill:#888a85;fill-opacity:1" /><path
     fill="#888a85"
     fill-rule="evenodd"
     d="M 45.8031,30.7753 C 45.6742,30.3229 45.2437,30.0954 44.774,30.0695 44.1797,30.0368 43.2359,30 42,30 c -0.335662,0 -0.695403,0.0027 -1.064292,0.0073 l -0.26023,4.981811 C 41.134946,34.995865 41.585806,35 42,35 c 1.2359,0 2.1797,-0.0368 2.774,-0.0695 0.4697,-0.0258 0.9002,-0.2533 1.0291,-0.7058 C 45.9081,33.8561 46,33.3039 46,32.5 46,31.6961 45.9081,31.1439 45.8031,30.7753 Z M 44.774,26.4305 c 0.4697,-0.0259 0.9002,-0.2534 1.0291,-0.7058 C 45.9081,25.3561 46,24.8039 46,24 46,23.1961 45.9081,22.6439 45.8031,22.2753 45.6742,21.8228 45.2437,21.5953 44.774,21.5695 44.1797,21.5368 43.2359,21.5 42,21.5 c -0.331118,0 -0.685668,0.0026 -1.049316,0.0071 l 0.02912,4.986076 C 41.333255,26.497497 41.677726,26.5 42,26.5 c 1.2359,0 2.1797,-0.0368 2.774,-0.0695 z m 0,-8.5 c 0.4697,-0.0259 0.9002,-0.2534 1.0291,-0.7058 C 45.9081,16.8561 46,16.3039 46,15.5 46,14.6961 45.9081,14.1439 45.8031,13.7753 45.6742,13.3228 45.2437,13.0953 44.774,13.0695 44.1797,13.0368 43.2359,13 42,13 c -0.422888,0 -0.883998,0.0043 -1.353467,0.01129 l 0.246304,4.980839 C 41.276715,17.99707 41.651348,18 42,18 c 1.2359,0 2.1797,-0.0368 2.774,-0.0695 z"
     clip-rule="evenodd"
     id="path8"
     sodipodi:nodetypes="ccsccscsscccsscsccscccsscsccsc"
     style="fill:#888a85;fill-opacity:1" /><path
     id="path10"
     style="fill:#2e3436;fill-opacity:1"
     d="m 24,7.0001221 c -5.37689,0 -9.296026,0.1820055 -11.93042,0.3735351 C 9.5125752,7.5595568 7.5595568,9.5125752 7.3736572,12.06958 7.1821276,14.703974 7.0001221,18.62311 7.0001221,24 c 0,5.37689 0.1820055,9.296126 0.3735351,11.93042 0.1858996,2.556994 2.138918,4.510023 4.6959228,4.695923 2.634394,0.1915 6.55353,0.373535 11.93042,0.373535 5.37689,0 9.296026,-0.182035 11.93042,-0.373535 2.556994,-0.1859 4.510023,-2.138929 4.695923,-4.695923 0.1915,-2.634394 0.373535,-6.55353 0.373535,-11.93042 0,-5.37689 -0.182035,-9.296126 -0.373535,-11.93042 C 40.440443,9.5125652 38.487414,7.5595668 35.93042,7.3736572 33.296026,7.1821376 29.37689,7.0001221 24,7.0001221 Z"
     sodipodi:nodetypes="sccsccsccsccs" /><circle
     style="fill:#ffffff;fill-opacity:1;stroke:none;stroke-width:5.49007"
     id="path4732"
     cx="12"
     cy="13"
     r="2.8125" /><path
     style="fill:#ffffff;fill-opacity:1;stroke-width:1"
     d="m 30.399049,29.240381 c -0.06302,-0.101775 -0.816781,-1.333226 -1.675022,-2.736559 -1.160237,-1.897138 -1.555163,-2.562493 -1.53987,-2.594321 0.01131,-0.02354 0.772868,-1.273198 1.692351,-2.77701 l 1.671785,-2.734203 2.794816,0.0091 c 2.01456,0.0066 2.85182,0.0177 2.999004,0.03996 0.7924,0.119801 1.341539,0.307417 1.801556,0.61551 0.251503,0.168441 0.601092,0.539399 0.75701,0.803283 0.221225,0.374413 0.371992,0.8262 0.456201,1.367042 0.05439,0.349342 0.08052,2.30103 0.03683,2.750772 -0.145971,1.50247 -0.837342,2.507384 -1.98669,2.887677 -0.511731,0.169319 -0.390281,0.163727 -3.776768,0.173896 l -3.069193,0.0092 v 1.185349 c 0,0.712785 -0.0094,1.185348 -0.02371,1.185348 -0.01304,0 -0.07527,-0.08327 -0.138295,-0.185045 z m 5.120816,-5.01752 c 0.307297,-0.124031 0.560748,-0.448468 0.671251,-0.859252 0.05491,-0.20413 0.07915,-1.024582 0.03807,-1.288933 -0.07121,-0.458302 -0.303703,-0.718218 -0.770978,-0.861907 -0.122339,-0.03762 -0.392281,-0.04303 -2.517097,-0.05041 l -2.38006,-0.0083 v 1.571312 1.571313 l 2.405584,-0.0071 2.405584,-0.0071 z"
     id="path311"
     sodipodi:nodetypes="sssscccssscsccsssscscsccccccc" /><path
     style="fill:#ffffff;stroke-width:1;fill-opacity:1"
     d="m 8.7895619,23.912363 v -5.513062 h 1.6949301 1.69493 l 2.867384,3.342366 2.867385,3.342366 0.01843,-2.353333 c 0.01014,-1.294333 0.02162,-2.786102 0.02552,-3.315042 l 0.0071,-0.961708 1.671785,2.733696 c 0.919482,1.503532 1.670515,2.746952 1.668963,2.763155 -0.0016,0.0162 -0.752307,1.254621 -1.668344,2.752042 -1.145132,1.871919 -1.678919,2.722583 -1.708403,2.722583 -0.02535,0 -1.206221,-1.356245 -2.887591,-3.31642 l -2.844707,-3.316419 -0.0065,3.316419 -0.0065,3.31642 h -1.69721 -1.6972131 z"
     id="path309" /><path
     style="fill:#ffffff;fill-opacity:1;stroke-width:1"
     d="m 19.091101,29.410642 c 0,-0.0083 0.742626,-1.228712 1.650282,-2.712021 0.907654,-1.483309 1.654922,-2.714605 1.660593,-2.736213 0.0057,-0.02161 -0.428515,-0.756683 -0.964861,-1.6335 -1.083542,-1.771375 -2.372434,-3.880935 -2.389204,-3.910465 -0.006,-0.01053 -0.199026,-0.01878 0.900268,-0.01835 l 1.998715,7.89e-4 1.147022,1.849059 c 0.630862,1.016982 1.153454,1.842718 1.161317,1.834968 0.0079,-0.0078 0.526029,-0.837313 1.151481,-1.843474 l 1.137188,-1.829383 1.995815,-0.0065 c 1.097697,-0.0036 0.794366,-5.31e-4 0.794366,0.0068 0,0.0073 -0.759767,1.255257 -1.688371,2.773156 -1.332606,2.178282 -1.682992,2.768447 -1.662843,2.800775 0.01404,0.02253 0.752573,1.229712 1.641183,2.682633 0.888612,1.452922 1.632471,2.667519 1.653018,2.699104 l 0.03736,0.05743 h -0.800974 -2.002421 l -1.12189,-1.805784 c -0.61704,-0.99318 -1.131961,-1.804134 -1.14427,-1.802119 -0.01231,0.002 -0.524587,0.811746 -1.138398,1.799402 l -1.11602,1.795739 -1.993467,0.0065 c -1.096408,0.0036 -0.90589,-2.59e-4 -0.90589,-0.0086 z"
     id="path307"
     sodipodi:nodetypes="cscscccscsccssssscccscscccc" /></svg>
