<?xml version="1.0" encoding="UTF-8" standalone="no"?>
<svg
   fill="none"
   viewBox="0 0 48 48"
   height="256"
   width="256"
   version="1.1"
   id="svg14"
   sodipodi:docname="rpi_chip.svg"
   inkscape:version="1.3 (0e150ed6c4, 2023-07-21)"
   xmlns:inkscape="http://www.inkscape.org/namespaces/inkscape"
   xmlns:sodipodi="http://sodipodi.sourceforge.net/DTD/sodipodi-0.dtd"
   xmlns="http://www.w3.org/2000/svg"
   xmlns:svg="http://www.w3.org/2000/svg">
  <defs
     id="defs18" />
  <sodipodi:namedview
     id="namedview16"
     pagecolor="#ffffff"
     bordercolor="#666666"
     borderopacity="1.0"
     inkscape:showpageshadow="2"
     inkscape:pageopacity="0.0"
     inkscape:pagecheckerboard="0"
     inkscape:deskcolor="#d1d1d1"
     showgrid="false"
     inkscape:zoom="1.6191406"
     inkscape:cx="17.293125"
     inkscape:cy="104.06755"
     inkscape:current-layer="svg14"
     inkscape:window-width="3840"
     inkscape:window-height="1494"
     inkscape:window-x="-11"
     inkscape:window-y="-11"
     inkscape:window-maximized="1" />
  <path
     fill="#888a85"
     fill-rule="evenodd"
     d="M 17.99523,7.1581474 C 17.980733,5.7713767 17.936414,4.2085616 17.9074,3.29153 17.8913,2.78238 17.6542,2.31035 17.1618,2.17962 16.7942,2.08202 16.2594,2 15.5,2 c -0.7594,0 -1.2943,0.08202 -1.6619,0.17962 -0.4923,0.13072 -0.7294,0.60277 -0.7455,1.11193 -0.03054,0.9652269 -0.07803,2.6458649 -0.08986,4.0836334 z m 8.499413,-0.054834 C 26.47957,5.7303708 26.436032,4.1965213 26.4074,3.29155 26.3913,2.78239 26.1542,2.31034 25.6619,2.17962 25.2943,2.08202 24.7594,2 24,2 c -0.7594,0 -1.2942,0.08202 -1.6618,0.17962 -0.4924,0.13073 -0.7295,0.60276 -0.7456,1.11191 -0.02856,0.9027793 -0.07196,2.431425 -0.08713,3.8018344 z m 8.502824,0.2971449 C 34.985991,5.9571553 34.938118,4.2624385 34.9074,3.29155 34.8913,2.78239 34.6542,2.31034 34.1619,2.17962 33.7943,2.08202 33.2594,2 32.5,2 c -0.7594,0 -1.2942,0.08202 -1.6618,0.17962 -0.4924,0.13073 -0.7295,0.60276 -0.7456,1.11191 -0.02913,0.9207397 -0.07369,2.4924963 -0.08801,3.8834317 z"
     clip-rule="evenodd"
     id="path2"
     sodipodi:nodetypes="cccscccccccscccccccssccc"
     style="fill:#888a85;fill-opacity:1" />
  <path
     fill="#888a85"
     fill-rule="evenodd"
     d="M 7.1342363,30.005022 C 5.7534466,30.019775 4.2032948,30.063753 3.29153,30.0926 2.78238,30.1087 2.31035,30.3458 2.17962,30.8382 2.08202,31.2058 2,31.7406 2,32.5 c 0,0.7594 0.08202,1.2943 0.17962,1.6619 0.13072,0.4923 0.60277,0.7294 1.11193,0.7455 0.9616678,0.03043 2.6334806,0.07768 4.067719,0.08973 z M 7.0421984,21.506046 C 5.6850675,21.521717 4.1831161,21.564392 3.29155,21.5926 2.78239,21.6087 2.31034,21.8458 2.17962,22.3381 2.08202,22.7057 2,23.2406 2,24 c 0,0.7594 0.08202,1.2942 0.17962,1.6618 0.13073,0.4924 0.60276,0.7295 1.11191,0.7456 0.8937874,0.02828 2.4010356,0.0711 3.7608392,0.08667 z M 7.3594007,13.002869 C 5.9251329,13.014914 4.2532473,13.062173 3.29155,13.0926 2.78239,13.1087 2.31034,13.3458 2.17962,13.8381 2.08202,14.2057 2,14.7406 2,15.5 c 0,0.7594 0.08202,1.2942 0.17962,1.6618 0.13073,0.4924 0.60276,0.7295 1.11191,0.7456 0.9140292,0.02892 2.4696204,0.07304 3.8529909,0.08769 z"
     clip-rule="evenodd"
     id="path4"
     sodipodi:nodetypes="ccsscccccccssccccccscccc"
     style="fill:#888a85;fill-opacity:1" />
  <path
     fill="#888a85"
     fill-rule="evenodd"
     d="M 17.2247,45.8031 C 17.6771,45.6742 17.9046,45.2437 17.9305,44.774 17.9632,44.1797 18,43.2359 18,42 c 0,-0.353089 -0.003,-0.732823 -0.0081,-1.121822 L 13.011071,40.661326 C 13.00422,41.125686 13,41.581554 13,42 c 0,1.2359 0.0368,2.1797 0.0695,2.774 0.0258,0.4697 0.2533,0.9002 0.7058,1.0291 C 14.1439,45.9081 14.6961,46 15.5,46 c 0.8039,0 1.3561,-0.0919 1.7247,-0.1969 z m 4.3448,-1.0291 c 0.0259,0.4697 0.2534,0.9002 0.7058,1.0291 C 22.6439,45.9081 23.1961,46 24,46 c 0.8039,0 1.3561,-0.0919 1.7247,-0.1969 0.4525,-0.1289 0.68,-0.5594 0.7058,-1.0291 C 26.4632,44.1797 26.5,43.2359 26.5,42 c 0,-0.322327 -0.0025,-0.666859 -0.0068,-1.020373 l -4.986429,8.8e-5 C 21.502504,41.333198 21.5,41.6777 21.5,42 c 0,1.2359 0.0368,2.1797 0.0695,2.774 z m 8.5,0 c 0.0259,0.4697 0.2534,0.9002 0.7058,1.0291 C 31.1439,45.9081 31.6961,46 32.5,46 c 0.8039,0 1.3561,-0.0919 1.7247,-0.1969 0.4525,-0.1289 0.68,-0.5594 0.7058,-1.0291 C 34.9632,44.1797 35.010133,43.235858 35,42 L 34.989145,40.676068 30.007502,40.92174 30,42 c -0.0086,1.23587 0.0368,2.1797 0.0695,2.774 z"
     clip-rule="evenodd"
     id="path6"
     sodipodi:nodetypes="ccsccscsscccsscsccscccsscsccsc"
     style="fill:#888a85;fill-opacity:1" />
  <path
     fill="#888a85"
     fill-rule="evenodd"
     d="M 45.8031,30.7753 C 45.6742,30.3229 45.2437,30.0954 44.774,30.0695 44.1797,30.0368 43.2359,30 42,30 c -0.335662,0 -0.695403,0.0027 -1.064292,0.0073 l -0.26023,4.981811 C 41.134946,34.995865 41.585806,35 42,35 c 1.2359,0 2.1797,-0.0368 2.774,-0.0695 0.4697,-0.0258 0.9002,-0.2533 1.0291,-0.7058 C 45.9081,33.8561 46,33.3039 46,32.5 46,31.6961 45.9081,31.1439 45.8031,30.7753 Z M 44.774,26.4305 c 0.4697,-0.0259 0.9002,-0.2534 1.0291,-0.7058 C 45.9081,25.3561 46,24.8039 46,24 46,23.1961 45.9081,22.6439 45.8031,22.2753 45.6742,21.8228 45.2437,21.5953 44.774,21.5695 44.1797,21.5368 43.2359,21.5 42,21.5 c -0.331118,0 -0.685668,0.0026 -1.049316,0.0071 l 0.02912,4.986076 C 41.333255,26.497497 41.677726,26.5 42,26.5 c 1.2359,0 2.1797,-0.0368 2.774,-0.0695 z m 0,-8.5 c 0.4697,-0.0259 0.9002,-0.2534 1.0291,-0.7058 C 45.9081,16.8561 46,16.3039 46,15.5 46,14.6961 45.9081,14.1439 45.8031,13.7753 45.6742,13.3228 45.2437,13.0953 44.774,13.0695 44.1797,13.0368 43.2359,13 42,13 c -0.422888,0 -0.883998,0.0043 -1.353467,0.01129 l 0.246304,4.980839 C 41.276715,17.99707 41.651348,18 42,18 c 1.2359,0 2.1797,-0.0368 2.774,-0.0695 z"
     clip-rule="evenodd"
     id="path8"
     sodipodi:nodetypes="ccsccscsscccsscsccscccsscsccsc"
     style="fill:#888a85;fill-opacity:1" />
  <path
     id="path10"
     style="fill:#2e3436;fill-opacity:1"
     d="m 24,7.0001221 c -5.37689,0 -9.296026,0.1820055 -11.93042,0.3735351 C 9.5125752,7.5595568 7.5595568,9.5125752 7.3736572,12.06958 7.1821276,14.703974 7.0001221,18.62311 7.0001221,24 c 0,5.37689 0.1820055,9.296126 0.3735351,11.93042 0.1858996,2.556994 2.138918,4.510023 4.6959228,4.695923 2.634394,0.1915 6.55353,0.373535 11.93042,0.373535 5.37689,0 9.296026,-0.182035 11.93042,-0.373535 2.556994,-0.1859 4.510023,-2.138929 4.695923,-4.695923 0.1915,-2.634394 0.373535,-6.55353 0.373535,-11.93042 0,-5.37689 -0.182035,-9.296126 -0.373535,-11.93042 C 40.440443,9.5125652 38.487414,7.5595668 35.93042,7.3736572 33.296026,7.1821376 29.37689,7.0001221 24,7.0001221 Z"
     sodipodi:nodetypes="sccsccsccsccs" />
  <circle
     style="fill:#ffffff;fill-opacity:1;stroke:none;stroke-width:5.49007"
     id="path4732"
     cx="12"
     cy="13"
     r="2.8125" />
  <path
     id="path21627"
     style="fill:#ffffff;fill-opacity:1;stroke-width:0.0402604"
     d="m 29.148264,9.6283479 c -0.262314,0.0068 -0.488565,0.16635 -0.733822,0.243527 -0.628546,-0.204369 -0.772497,0.07655 -1.081288,0.1901941 -0.685186,-0.1441681 -0.89239,0.167857 -1.220923,0.499236 l -0.383225,-0.0056 c -1.033739,0.605966 -1.546862,1.840041 -1.728903,2.474544 -0.182125,-0.634606 -0.695339,-1.86852 -1.728922,-2.474544 l -0.380293,0.0056 C 21.562058,10.230063 21.352077,9.9180939 20.66695,10.062075 20.358189,9.9475969 20.214208,9.6677869 19.585636,9.8718789 c -0.257741,-0.0814 -0.493364,-0.249128 -0.772425,-0.240724 -0.14578,0.0042 -0.302761,0.05622 -0.481182,0.196204 -0.43694,-0.167714 -0.862659,-0.225539 -1.241649,0.115615 -0.585116,-0.07481 -0.773807,0.0823 -0.917892,0.2643121 -0.128455,-0.0024 -0.960744,-0.132541 -1.342736,0.433724 -0.959857,-0.113232 -1.264468,0.562232 -0.920939,1.191235 -0.19588,0.301915 -0.399345,0.600827 0.05811,1.176318 -0.162258,0.320439 -0.06115,0.669111 0.32078,1.090274 -0.100716,0.450719 0.09662,0.768121 0.451454,1.015868 -0.06727,0.616841 0.570796,0.974328 0.760382,1.102059 0.07409,0.359358 0.222474,0.697624 0.947635,0.88532 0.119161,0.535585 0.555492,0.630367 0.977385,0.742641 -1.394799,0.806611 -2.58958,1.866422 -2.581461,4.470805 l -0.20501,0.362396 c -1.599592,0.967835 -3.037615,4.081084 -0.787248,6.609673 0.146749,0.791555 0.392246,1.35815 0.611874,1.987355 0.328067,2.535226 2.470825,3.724395 3.035967,3.864769 0.828101,0.627616 1.708786,1.222625 2.902318,1.639786 1.125097,1.154634 2.345105,1.593044 3.570688,1.592279 0.01718,-2.1e-5 0.0353,2.06e-4 0.05449,0 1.225506,7.65e-4 2.445772,-0.437676 3.570688,-1.592279 1.193535,-0.417184 2.074188,-1.01218 2.902324,-1.639786 0.565171,-0.139939 2.707652,-1.329622 3.035984,-3.864769 0.219569,-0.629217 0.468041,-1.195882 0.614887,-1.987355 2.250412,-2.528589 0.809393,-5.641751 -0.79026,-6.609673 L 33.157783,22.31553 c 0.0075,-2.604383 -1.189433,-3.664027 -2.584466,-4.470805 0.42209,-0.113219 0.857832,-0.207177 0.977288,-0.742641 0.725148,-0.187427 0.877891,-0.525915 0.950607,-0.88532 0.189668,-0.128588 0.823791,-0.485377 0.757525,-1.102059 0.355373,-0.248017 0.55232,-0.565236 0.451455,-1.015868 0.381841,-0.420954 0.482851,-0.769654 0.32089,-1.090274 0.458575,-0.57563 0.255432,-0.874381 0.05812,-1.176318 0.34364,-0.629228 0.04177,-1.304199 -0.917895,-1.191235 -0.381755,-0.566766 -1.21738,-0.436481 -1.345766,-0.433729 -0.144173,-0.182028 -0.3329,-0.3399401 -0.917894,-0.2643091 -0.379067,-0.341671 -0.80181,-0.28363 -1.238758,-0.115591 -0.1946,-0.152903 -0.365434,-0.203599 -0.52296,-0.198969 z m -10.29919,0.7307011 c 0.524801,0.193372 0.7966,0.442595 1.081296,0.689265 0.09661,-0.129759 0.244825,-0.224995 0.06525,-0.537594 0.372644,0.213676 0.653911,0.466281 0.861487,0.748593 0.230607,-0.145942 0.135606,-0.347586 0.136968,-0.531811 0.387527,0.313435 0.634874,0.648797 0.935826,0.974424 0.06115,-0.04321 0.114502,-0.192202 0.160375,-0.427746 0.924112,0.891762 2.229939,3.137364 0.335765,4.028184 -1.611235,-1.323122 -3.537267,-2.284975 -5.670919,-3.006284 2.742581,1.406774 4.336984,2.545017 5.210486,3.51426 -0.447277,1.783753 -2.779833,1.865095 -3.633092,1.815063 0.17473,-0.08139 0.319785,-0.177588 0.371395,-0.326829 -0.214144,-0.15155 -0.973152,-0.01465 -1.503117,-0.31193 0.203599,-0.04182 0.299811,-0.0823 0.395043,-0.231902 -0.500605,-0.158845 -1.040242,-0.295358 -1.357596,-0.558502 0.171256,0.0021 0.328932,0.03884 0.552492,-0.115615 -0.448478,-0.240699 -0.926377,-0.431426 -1.29815,-0.799049 0.231929,-0.0053 0.482757,-0.0013 0.555496,-0.08686 -0.41075,-0.253045 -0.755911,-0.535974 -1.04263,-0.843774 0.324687,0.03883 0.459312,0.0051 0.537539,-0.0506 -0.310268,-0.316193 -0.701021,-0.584864 -0.888274,-0.974424 0.240933,0.0823 0.46198,0.11564 0.620821,-0.0056 -0.105116,-0.236445 -0.559863,-0.376673 -0.819775,-0.929823 0.253692,0.02437 0.522404,0.0556 0.576422,0 -0.117951,-0.477542 -0.318643,-0.744017 -0.516792,-1.021806 0.542975,-0.0081 1.365097,0.0011 1.327888,-0.04459 l -0.335769,-0.341816 c 0.530138,-0.142807 1.073509,0.0236 1.467496,0.145576 0.176819,-0.138548 -0.0048,-0.31375 -0.219736,-0.493119 0.450765,0.06123 0.858891,0.161019 1.226828,0.302894 0.196695,-0.176589 -0.128562,-0.352297 -0.285199,-0.528928 0.696297,0.131263 0.990169,0.317197 1.283342,0.502013 0.212538,-0.202935 0.01211,-0.376026 -0.131077,-0.552486 z m 10.364535,0 c -0.1442,0.176413 -0.34333,0.349828 -0.131251,0.552489 0.293193,-0.184836 0.587131,-0.370632 1.283338,-0.50201 -0.156976,0.176697 -0.481739,0.352293 -0.285169,0.52892 0.368058,-0.141417 0.776179,-0.243034 1.22697,-0.302893 -0.215822,0.179164 -0.396797,0.354306 -0.219738,0.493166 0.393754,-0.121866 0.937214,-0.287446 1.46748,-0.145576 l -0.335768,0.341776 c -0.03797,0.04595 0.784971,0.03571 1.327899,0.04503 -0.198066,0.278094 -0.398843,0.544643 -0.516798,1.02182 0.05454,0.05559 0.322651,0.02436 0.576428,0 -0.259861,0.552879 -0.711461,0.693261 -0.8169,0.92982 0.158829,0.120479 0.376898,0.08784 0.617926,0.0056 -0.187177,0.389691 -0.577895,0.658011 -0.888267,0.974423 0.07732,0.05621 0.216319,0.08953 0.540703,0.05111 -0.286793,0.307692 -0.635009,0.590807 -1.04566,0.843678 0.07251,0.08603 0.323475,0.0815 0.555496,0.08685 -0.371854,0.367443 -0.849683,0.55862 -1.298171,0.799056 0.223791,0.154529 0.38126,0.117951 0.552549,0.11564 -0.317372,0.263139 -0.856921,0.399633 -1.357585,0.558562 0.0956,0.149488 0.191654,0.189767 0.395039,0.231835 -0.529966,0.296236 -1.289099,0.160358 -1.503155,0.311958 0.05223,0.148811 0.196503,0.245756 0.37132,0.326831 -0.853338,0.05054 -3.185749,-0.03138 -3.633082,-1.815064 0.873493,-0.969208 2.467909,-2.107451 5.210488,-3.514269 -2.13364,0.721301 -4.059682,1.683163 -5.670965,3.006304 -1.894199,-0.890877 -0.588411,-3.136192 0.33577,-4.02819 0.04698,0.235489 0.09958,0.384017 0.160358,0.427795 0.301129,-0.325825 0.548372,-0.660836 0.935827,-0.974442 0.0013,0.184252 -0.09463,0.385439 0.13701,0.531757 0.207734,-0.282088 0.488662,-0.534924 0.861487,-0.748575 -0.179594,0.312527 -0.03174,0.407993 0.06526,0.537699 0.28468,-0.246485 0.55631,-0.495846 1.081317,-0.689269 z m -5.367916,7.346396 c 0.04752,-0.0011 0.09554,-0.0012 0.142734,0 1.34317,-0.01376 3.006841,0.998307 3.000335,1.951694 -0.0066,0.841529 -1.16704,1.522052 -2.988457,1.509087 -1.783515,-0.02144 -2.984394,-0.857025 -2.979543,-1.672467 0.003,-0.650075 1.363794,-1.755484 2.825087,-1.788314 z m -4.426256,0.567429 c 0.300251,-0.0053 0.609809,0.01832 0.926859,0.07031 0.934354,0.156123 -4.476549,4.860295 -4.559919,3.811319 -0.07482,-2.394205 1.531258,-3.843691 3.633063,-3.882613 z m 8.635655,0.0815 c 0.07567,-0.0022 0.150664,-0.0014 0.225586,0 2.101803,0.03926 3.710394,1.488401 3.636036,3.882634 -0.08421,1.048899 -5.497183,-3.655187 -4.56288,-3.811334 0.237974,-0.04054 0.472391,-0.06526 0.701097,-0.0711 z m -0.9298,2.922563 a 3.4644853,2.9416882 55.132291 0 1 0.353473,0.0027 3.4644853,2.9416882 55.132291 0 1 2.195257,6.181913 3.4644853,2.9416882 55.132291 1 1 -3.832106,-5.771947 3.4644853,2.9416882 55.132291 0 1 1.283338,-0.41288 z m -6.241339,0.160309 a 2.9416882,3.4644853 34.867709 0 1 1.283344,0.415843 2.9416882,3.4644853 34.867709 1 1 -3.835089,5.76895 2.9416882,3.4644853 34.867709 0 1 2.198267,-6.181875 2.9416882,3.4644853 34.867709 0 1 0.353477,-0.0027 z m 11.332955,1.767523 c 0.04177,-6.97e-4 0.08508,0.0051 0.131077,0.01612 2.438631,1.385413 2.013437,4.466779 0.698216,5.519423 -1.158442,0.511954 -2.106848,-5.516187 -0.828706,-5.537258 z m -16.721685,0.0814 c 1.277968,0.02144 0.326691,6.049249 -0.831943,5.537253 -1.315331,-1.052696 -1.737559,-4.133953 0.701098,-5.519429 0.04595,-0.01101 0.08954,-0.01772 0.131263,-0.01612 z m 8.57326,4.16184 a 3.2851774,3.0139789 0 0 1 3.28551,3.015186 3.2855181,3.0142917 0 0 1 -6.57102,0 3.2851774,3.0139789 0 0 1 2.81614,-2.985461 3.2851774,3.0139789 0 0 1 0.469254,-0.03045 z m 7.260234,1.123046 c 0.256752,-0.0066 0.496399,0.06528 0.712935,0.231714 0.583096,0.578082 0.92598,2.754161 -0.09554,4.057875 -1.4062,1.941194 -3.310157,2.017113 -4.019254,1.476419 -0.741657,-0.696064 -0.176038,-2.855322 0.84072,-4.040046 0.872415,-0.980244 1.790836,-1.70598 2.560678,-1.725955 z m -14.85017,0.463528 c 0.03456,-6.57e-4 0.06879,-0.0014 0.10406,0 0.827099,0.03417 1.817273,0.685493 2.625999,1.619008 0.939763,1.126257 1.366391,3.106224 0.582106,3.6895 -0.741735,0.445351 -2.542703,0.261917 -3.823179,-1.5685 -0.863641,-1.535708 -0.751669,-3.099662 -0.145577,-3.558799 0.198261,-0.119318 0.419334,-0.176413 0.656541,-0.181213 z m 7.729539,5.38873 c 0.04177,-0.0011 0.08508,-2.5e-4 0.128454,0 1.281915,0.0077 2.836676,0.469144 2.839934,1.066352 0.02192,0.618667 -1.60589,2.014362 -3.181562,1.987352 -1.63174,0.07112 -3.232205,-1.329761 -3.211238,-1.815078 -0.02411,-0.71146 1.98887,-1.265363 3.300366,-1.232857 0.04135,-0.0017 0.0823,-0.0046 0.125953,-0.0061 z" />
</svg>
