<?xml version="1.0" encoding="UTF-8" standalone="no"?>
<svg
   fill="none"
   viewBox="0 0 48 48"
   height="256"
   width="256"
   version="1.1"
   id="svg6"
   sodipodi:docname="add.svg"
   inkscape:version="1.2.1 (9c6d41e410, 2022-07-14)"
   xmlns:inkscape="http://www.inkscape.org/namespaces/inkscape"
   xmlns:sodipodi="http://sodipodi.sourceforge.net/DTD/sodipodi-0.dtd"
   xmlns="http://www.w3.org/2000/svg"
   xmlns:svg="http://www.w3.org/2000/svg">
  <defs
     id="defs10" />
  <sodipodi:namedview
     id="namedview8"
     pagecolor="#ffffff"
     bordercolor="#666666"
     borderopacity="1.0"
     inkscape:showpageshadow="2"
     inkscape:pageopacity="0.0"
     inkscape:pagecheckerboard="0"
     inkscape:deskcolor="#d1d1d1"
     showgrid="false"
     inkscape:zoom="1.5164126"
     inkscape:cx="160.90608"
     inkscape:cy="121.00928"
     inkscape:current-layer="svg6" />
  <path
     id="rect1625"
     style="fill:#a9ff53;fill-opacity:1;stroke-width:1.5;stroke-linecap:round;stroke-linejoin:round"
     d="M 24,1.9998779 C 36.15036,1.9998105 46.000189,11.84964 46.000122,24 46.000189,36.15036 36.15036,46.000189 24,46.000122 11.84964,46.000189 1.9998105,36.15036 1.9998779,24 1.9998105,11.84964 11.84964,1.9998105 24,1.9998779 Z"
     sodipodi:nodetypes="ccccc" />
  <path
     id="rect1675"
     style="fill:#77c32f;fill-opacity:1;stroke-width:1.5;stroke-linecap:round;stroke-linejoin:round"
     d="m 24,12 c 0.891399,0 1.605678,0.06099 2.161377,0.14209 1.011699,0.1478 1.637473,1.016831 1.682373,2.03833 0.0508,1.153699 0.108329,3.008004 0.137329,5.838501 2.830497,0.029 4.684802,0.08653 5.838501,0.137329 1.021499,0.0449 1.89053,0.670674 2.03833,1.682373 C 35.93901,22.394322 36,23.108601 36,24 c 0,0.891399 -0.06099,1.605678 -0.14209,2.161377 -0.1478,1.011699 -1.016831,1.637473 -2.03833,1.682373 -1.153699,0.0508 -3.008004,0.108329 -5.838501,0.137329 -0.029,2.830497 -0.08653,4.684802 -0.137329,5.838501 -0.0449,1.021499 -0.670674,1.89053 -1.682373,2.03833 C 25.605678,35.93901 24.891399,36 24,36 23.108601,36 22.394322,35.93901 21.838623,35.85791 20.826924,35.71011 20.20115,34.841079 20.15625,33.81958 20.10545,32.665881 20.047921,30.811576 20.018921,27.981079 17.188424,27.952079 15.334119,27.89455 14.18042,27.84375 13.158921,27.79885 12.28989,27.173076 12.14209,26.161377 12.06099,25.605678 12,24.891399 12,24 c 0,-0.891399 0.06099,-1.605678 0.14209,-2.161377 0.1478,-1.011699 1.016831,-1.637473 2.03833,-1.682373 1.153699,-0.0508 3.008004,-0.108329 5.838501,-0.137329 0.029,-2.830497 0.08653,-4.684802 0.137329,-5.838501 0.0449,-1.021499 0.670674,-1.89053 1.682373,-2.03833 C 22.394322,12.06099 23.108601,12 24,12 Z"
     sodipodi:nodetypes="scccccscccccscccccscccccs" />
</svg>
