<?xml version="1.0" encoding="UTF-8" standalone="no"?>
<svg
   fill="none"
   viewBox="0 0 48 48"
   height="256"
   width="256"
   version="1.1"
   id="svg6"
   sodipodi:docname="checkmark.svg"
   inkscape:version="1.2.1 (9c6d41e410, 2022-07-14)"
   xmlns:inkscape="http://www.inkscape.org/namespaces/inkscape"
   xmlns:sodipodi="http://sodipodi.sourceforge.net/DTD/sodipodi-0.dtd"
   xmlns="http://www.w3.org/2000/svg"
   xmlns:svg="http://www.w3.org/2000/svg">
  <defs
     id="defs10" />
  <sodipodi:namedview
     id="namedview8"
     pagecolor="#ffffff"
     bordercolor="#666666"
     borderopacity="1.0"
     inkscape:showpageshadow="2"
     inkscape:pageopacity="0.0"
     inkscape:pagecheckerboard="0"
     inkscape:deskcolor="#d1d1d1"
     showgrid="false"
     inkscape:zoom="1.1449053"
     inkscape:cx="65.507601"
     inkscape:cy="93.894228"
     inkscape:current-layer="svg6" />
  <path
     id="rect893"
     style="fill:#77c32f;fill-opacity:1;stroke-width:1.5;stroke-linecap:round;stroke-linejoin:round"
     d="m 38.67041,5.0211182 c 0.67658,-0.00533 1.359238,0.1616887 2.002075,0.5335693 1.515453,0.8767851 3.238842,2.1773492 4.602539,4.0371094 1.10804,1.5110671 0.860239,3.5456231 -0.162963,5.1156001 -8.26016,12.674209 -14.462884,20.922266 -18.334351,25.73877 -2.535795,3.155207 -7.051623,3.390176 -9.934204,0.548584 C 13.288702,37.49066 8.3205347,32.284085 3.1768799,25.909424 1.8166142,24.223724 1.5354727,21.857373 2.8652344,20.147461 c 1.0409319,-1.338342 2.2145643,-2.499167 3.2955322,-3.439819 1.999315,-1.739464 4.9284914,-1.350263 6.7331544,0.590332 5.20123,5.593009 8.329468,9.482666 8.329468,9.482666 0,0 5.202539,-7.701403 13.558593,-19.5655521 0.940819,-1.3358627 2.399952,-2.1822461 3.888428,-2.1939697 z"
     sodipodi:nodetypes="sccsccccccccs" />
</svg>
