<?xml version="1.0" encoding="UTF-8" standalone="no"?>
<svg
   fill="none"
   viewBox="0 0 48 48"
   height="256"
   width="256"
   version="1.1"
   id="svg308"
   sodipodi:docname="cross.svg"
   inkscape:version="1.2.1 (9c6d41e410, 2022-07-14)"
   xmlns:inkscape="http://www.inkscape.org/namespaces/inkscape"
   xmlns:sodipodi="http://sodipodi.sourceforge.net/DTD/sodipodi-0.dtd"
   xmlns="http://www.w3.org/2000/svg"
   xmlns:svg="http://www.w3.org/2000/svg">
  <defs
     id="defs312" />
  <sodipodi:namedview
     id="namedview310"
     pagecolor="#ffffff"
     bordercolor="#666666"
     borderopacity="1.0"
     inkscape:showpageshadow="2"
     inkscape:pageopacity="0.0"
     inkscape:pagecheckerboard="0"
     inkscape:deskcolor="#d1d1d1"
     showgrid="false"
     inkscape:zoom="0.8095703"
     inkscape:cx="-60.525936"
     inkscape:cy="99.435466"
     inkscape:current-layer="svg308" />
  <path
     id="rect893"
     style="fill:#fd3131;fill-opacity:1;stroke-width:1.5;stroke-linecap:round;stroke-linejoin:round"
     d="M 9.2069092,2.0009766 C 10.021461,2.0216317 10.836128,2.3733053 11.500854,2.9820557 12.835626,4.2042404 20.831233,12.072385 24,15.17688 27.168768,12.072385 35.164374,4.2042404 36.499146,2.9820557 c 1.181735,-1.0822229 2.838264,-1.3513765 4.123168,-0.394043 0.705674,0.5259305 1.564682,1.2493736 2.552491,2.2371826 0.987809,0.987809 1.711618,1.846817 2.237549,2.5524902 0.957333,1.2849048 0.688179,2.9414335 -0.394043,4.1231685 C 43.796126,12.835626 35.927615,20.831233 32.82312,24 c 3.104495,3.168768 10.973006,11.164374 12.195191,12.499146 1.082222,1.181735 1.351376,2.838264 0.394043,4.123168 -0.525931,0.705674 -1.24974,1.564682 -2.237549,2.552491 -0.987809,0.987809 -1.846817,1.711618 -2.552491,2.237549 -1.284904,0.957333 -2.941433,0.688179 -4.123168,-0.394043 C 35.164374,43.796126 27.168768,35.927615 24,32.82312 20.831233,35.927615 12.835626,43.796126 11.500854,45.018311 10.319119,46.100533 8.6625903,46.369687 7.3776855,45.412354 6.6720123,44.886423 5.8130043,44.162614 4.8251953,43.174805 3.8373863,42.186996 3.1139432,41.327988 2.5880127,40.622314 1.6306792,39.33741 1.8998328,37.680881 2.9820557,36.499146 4.2042404,35.164374 12.072385,27.168768 15.17688,24 12.072385,20.831233 4.2042404,12.835626 2.9820557,11.500854 1.8998328,10.319119 1.6306792,8.6625903 2.5880127,7.3776855 3.1139432,6.6720123 3.8373863,5.8130043 4.8251953,4.8251953 5.8130043,3.8373863 6.6720123,3.1139432 7.3776855,2.5880127 7.9398314,2.1691793 8.5733692,1.9849115 9.2069092,2.0009766 Z"
     sodipodi:nodetypes="sccccscccccscccccscccccscs" />
</svg>
