<?xml version="1.0" encoding="UTF-8" standalone="no"?>
<svg
   fill="none"
   viewBox="0 0 48 48"
   height="256"
   width="256"
   version="1.1"
   id="svg308"
   sodipodi:docname="fatal.svg"
   inkscape:version="1.2.1 (9c6d41e410, 2022-07-14)"
   xmlns:inkscape="http://www.inkscape.org/namespaces/inkscape"
   xmlns:sodipodi="http://sodipodi.sourceforge.net/DTD/sodipodi-0.dtd"
   xmlns="http://www.w3.org/2000/svg"
   xmlns:svg="http://www.w3.org/2000/svg">
  <defs
     id="defs312" />
  <sodipodi:namedview
     id="namedview310"
     pagecolor="#ffffff"
     bordercolor="#666666"
     borderopacity="1.0"
     inkscape:showpageshadow="2"
     inkscape:pageopacity="0.0"
     inkscape:pagecheckerboard="0"
     inkscape:deskcolor="#d1d1d1"
     showgrid="false"
     inkscape:zoom="1.6191406"
     inkscape:cx="110.55247"
     inkscape:cy="139.27141"
     inkscape:current-layer="svg308" />
  <path
     id="rect894"
     style="fill:#ffcd5c;fill-opacity:1;stroke-width:1.5;stroke-linecap:round;stroke-linejoin:round"
     d="m 24,1.9998779 c 4.083096,0 6.814958,0.3009217 8.070557,0.4782715 0.525399,0.07421 1.01704,0.2778942 1.44104,0.5969238 1.013199,0.7624393 3.15738,2.4814553 6.044677,5.3686524 2.887198,2.8872574 4.606254,5.0314784 5.368653,6.0446774 0.319099,0.424 0.522724,0.915741 0.596924,1.44104 0.177299,1.255599 0.478271,3.987361 0.478271,8.070557 0,4.083196 -0.300972,6.815058 -0.478271,8.070557 -0.0742,0.525399 -0.277825,1.016674 -0.596924,1.440673 -0.762399,1.013299 -2.481455,3.157847 -5.368653,6.045044 -2.887297,2.887298 -5.031745,4.606254 -6.045044,5.368653 -0.423899,0.318999 -0.915374,0.522624 -1.440673,0.596924 C 30.814858,45.69915 28.083196,46.000122 24,46.000122 c -4.083096,0 -6.815058,-0.300972 -8.070557,-0.478271 -0.525399,-0.0743 -1.016774,-0.277925 -1.440673,-0.596924 C 13.475471,44.162528 11.330903,42.443472 8.4437256,39.556274 5.5565085,36.669077 3.8374925,34.524529 3.0750732,33.51123 2.7560536,33.087231 2.5523693,32.595856 2.4781494,32.070557 2.3007996,30.814958 1.9998779,28.083196 1.9998779,24 c 0,-4.083196 0.3009217,-6.814958 0.4782715,-8.070557 0.07422,-0.525399 0.2779042,-1.016774 0.5969238,-1.440673 C 3.8374925,13.475471 5.5564785,11.330983 8.4437256,8.4437256 11.330963,5.5564985 13.475471,3.8374925 14.48877,3.0750732 14.912669,2.7560336 15.404044,2.5523593 15.929443,2.4781494 17.185042,2.3007996 19.916904,1.9998779 24,1.9998779 Z"
     sodipodi:nodetypes="ssccccsscsccscccscsccccss" />
  <path
     id="rect1722"
     style="fill:#fd3131;fill-opacity:1;stroke-width:1.5;stroke-linecap:round;stroke-linejoin:round"
     d="m 14.560547,9.9624023 c 0.51976,0.01318 1.039587,0.2377807 1.463745,0.6262207 0.851709,0.779868 5.953738,5.800292 7.975708,7.78125 2.02197,-1.980958 7.123999,-7.001382 7.975708,-7.78125 0.754058,-0.6905593 1.81097,-0.8624553 2.630859,-0.251587 0.450286,0.335593 0.998226,0.797542 1.62854,1.427857 0.630315,0.630314 1.092264,1.178254 1.427857,1.62854 0.610868,0.819889 0.438972,1.876801 -0.251587,2.630859 -0.779868,0.851709 -5.800292,5.953738 -7.78125,7.975708 1.980958,2.02197 7.001382,7.123999 7.78125,7.975708 0.690559,0.754058 0.862455,1.81097 0.251587,2.630859 -0.335593,0.450286 -0.797542,0.998226 -1.427857,1.62854 -0.630314,0.630315 -1.178254,1.092264 -1.62854,1.427857 -0.819889,0.610868 -1.876801,0.438972 -2.630859,-0.251587 C 31.123999,36.631509 26.02197,31.611085 24,29.630127 c -2.02197,1.980958 -7.123999,7.001382 -7.975708,7.78125 -0.754058,0.690559 -1.81097,0.862455 -2.630859,0.251587 -0.450286,-0.335593 -0.998226,-0.797542 -1.62854,-1.427857 -0.630315,-0.630314 -1.092264,-1.178254 -1.427857,-1.62854 C 9.7261677,33.786678 9.8980637,32.729766 10.588623,31.975708 11.368491,31.123999 16.388915,26.02197 18.369873,24 c -1.980958,-2.02197 -7.001382,-7.123999 -7.78125,-7.975708 -0.6905593,-0.754058 -0.8624553,-1.81097 -0.251587,-2.630859 0.335593,-0.450286 0.797542,-0.998226 1.427857,-1.62854 0.630314,-0.630315 1.178254,-1.092264 1.62854,-1.427857 0.358701,-0.267255 0.762856,-0.3848847 1.167114,-0.3746337 z"
     sodipodi:nodetypes="sccccscccccscccccscccccscs" />
</svg>
