<?xml version="1.0" encoding="UTF-8" standalone="no"?>
<svg
   fill="none"
   viewBox="0 0 48 48"
   height="256"
   width="256"
   version="1.1"
   id="svg6"
   sodipodi:docname="refresh.svg"
   inkscape:version="1.2.1 (9c6d41e410, 2022-07-14)"
   xmlns:inkscape="http://www.inkscape.org/namespaces/inkscape"
   xmlns:sodipodi="http://sodipodi.sourceforge.net/DTD/sodipodi-0.dtd"
   xmlns="http://www.w3.org/2000/svg"
   xmlns:svg="http://www.w3.org/2000/svg">
  <defs
     id="defs10" />
  <sodipodi:namedview
     id="namedview8"
     pagecolor="#ffffff"
     bordercolor="#111111"
     borderopacity="1"
     inkscape:showpageshadow="0"
     inkscape:pageopacity="0"
     inkscape:pagecheckerboard="1"
     inkscape:deskcolor="#d1d1d1"
     showgrid="false"
     inkscape:zoom="2.1445312"
     inkscape:cx="65.282332"
     inkscape:cy="128.4663"
     inkscape:window-width="1920"
     inkscape:window-height="730"
     inkscape:window-x="-6"
     inkscape:window-y="-6"
     inkscape:window-maximized="1"
     inkscape:current-layer="svg6" />
  <path
     fill="#77c32f"
     d="M29.1027 8.46026C28.5011 9.62641 27.1126 9.79648 25.8102 9.63706C18.7519 8.77311 11.9537 13.2149 10.0604 20.2808C9.11677 23.8025 9.93269 28.0656 11.4788 31.2291C12.5183 30.6646 13.3886 30.2129 14.1129 29.8517C15.7693 29.0258 17.3363 30.1287 17.1229 31.9672C16.9912 33.1029 16.7858 34.5455 16.4671 36.3399C16.0055 38.9397 15.4853 40.671 15.0533 41.7883C14.5767 43.0212 13.4119 43.6938 12.1058 43.4902C10.9222 43.3057 9.16265 42.8906 6.68041 41.9902C4.96762 41.369 3.61597 40.8257 2.56662 40.372C0.86736 39.6373 0.69562 37.7284 2.23942 36.7067C2.84737 36.3044 3.57824 35.8362 4.45445 35.2955C2.03846 30.052 1.82577 23.967 3.29893 18.469C6.19363 7.66589 16.821 0.99965 27.6304 2.82962C28.9241 3.04864 30.0208 3.95475 29.9587 5.26543C29.9367 5.73074 29.8594 6.27747 29.691 6.90581C29.5226 7.53415 29.3162 8.04626 29.1027 8.46026Z"
     id="path2"
     style="fill:#77c32f;fill-opacity:1" />
  <path
     fill="#77c32f"
     d="M22.1895 38.3625C20.8871 38.2031 19.4986 38.3732 18.897 39.5393C18.6835 39.9533 18.477 40.4655 18.3087 41.0938C18.1403 41.7221 18.063 42.2689 18.041 42.7342C17.9788 44.0448 19.0756 44.951 20.3693 45.17C31.1787 47 41.806 40.3337 44.7007 29.5306C46.1739 24.0327 45.9612 17.9477 43.5452 12.7041C44.4214 12.1634 45.1523 11.6952 45.7602 11.2929C47.3041 10.2712 47.1323 8.36226 45.4331 7.6276C44.3837 7.17393 43.0321 6.63062 41.3193 6.00938C38.837 5.10905 37.0775 4.6939 35.8939 4.50939C34.5878 4.30578 33.423 4.97838 32.9463 6.21132C32.5144 7.32859 31.9942 9.05988 31.5325 11.6597C31.2139 13.4541 31.0085 14.8967 30.8767 16.0324C30.6634 17.871 32.2304 18.9738 33.8868 18.1479C34.6111 17.7867 35.4814 17.335 36.5209 16.7705C38.067 19.934 38.8829 24.1971 37.9393 27.7188C36.046 34.7847 29.2478 39.2265 22.1895 38.3625Z"
     id="path4"
     style="fill:#77c32f;fill-opacity:1" />
</svg>
