<?xml version="1.0" encoding="UTF-8" standalone="no"?>
<svg
   fill="none"
   viewBox="0 0 48 48"
   height="256"
   width="256"
   version="1.1"
   id="svg6"
   sodipodi:docname="warning.svg"
   inkscape:version="1.2.1 (9c6d41e410, 2022-07-14)"
   xmlns:inkscape="http://www.inkscape.org/namespaces/inkscape"
   xmlns:sodipodi="http://sodipodi.sourceforge.net/DTD/sodipodi-0.dtd"
   xmlns="http://www.w3.org/2000/svg"
   xmlns:svg="http://www.w3.org/2000/svg">
  <defs
     id="defs10" />
  <sodipodi:namedview
     id="namedview8"
     pagecolor="#ffffff"
     bordercolor="#666666"
     borderopacity="1.0"
     inkscape:showpageshadow="2"
     inkscape:pageopacity="0.0"
     inkscape:pagecheckerboard="0"
     inkscape:deskcolor="#d1d1d1"
     showgrid="false"
     inkscape:zoom="1.5164126"
     inkscape:cx="69.90182"
     inkscape:cy="141.45227"
     inkscape:current-layer="svg6" />
  <path
     id="rect1625"
     style="fill:#ffcd5c;fill-opacity:1;stroke-width:1.5;stroke-linecap:round;stroke-linejoin:round"
     d="m 24,4.3450928 c 1.328174,0 2.656357,0.6215723 3.611206,1.8647461 2.526798,3.2899167 6.251776,8.7319771 10.763672,17.0877681 4.190496,7.760693 6.34506,13.007422 7.452759,16.351319 0.924999,2.792097 -0.959532,5.269492 -3.887329,5.551391 -3.952296,0.3804 -10.088516,0.799805 -17.940308,0.799805 -7.851792,0 -13.988022,-0.419405 -17.9403076,-0.799805 C 3.1318853,44.918418 1.2474142,42.441023 2.1723633,39.648926 3.2800922,36.305029 5.4345863,31.0583 9.6251221,23.297607 14.137018,14.941816 17.861996,9.4997556 20.388794,6.2098389 21.343643,4.9666651 22.671826,4.3450928 24,4.3450928 Z"
     sodipodi:nodetypes="sccccsccccs" />
  <path
     id="rect1675"
     style="fill:#fd3131;fill-opacity:1;stroke-width:1.5;stroke-linecap:round;stroke-linejoin:round"
     d="m 24,13.999878 c 0.888099,0 1.628404,0.126799 2.220703,0.295898 1.201399,0.3429 1.737273,1.575323 1.655274,2.822022 -0.1889,2.874597 -0.570512,8.177949 -0.981812,11.025146 -0.1216,0.842299 -0.610234,1.577774 -1.446533,1.735474 C 25.071232,29.949418 24.594599,30 24,30 c -0.594599,0 -1.071232,-0.05058 -1.447632,-0.121582 -0.836299,-0.1577 -1.324933,-0.893175 -1.446533,-1.735474 -0.4113,-2.847197 -0.792912,-8.150549 -0.981812,-11.025146 -0.082,-1.246699 0.453875,-2.479122 1.655274,-2.822022 C 22.371596,14.126677 23.111901,13.999878 24,13.999878 Z M 24,33 c 2.209098,0 4.000122,1.791024 4.000122,4.000122 0,2.209098 -1.791024,3.999756 -4.000122,3.999756 -2.209098,0 -4.000122,-1.790658 -4.000122,-3.999756 C 19.999878,34.791024 21.790902,33 24,33 Z"
     sodipodi:nodetypes="sccccsccccssssss" />
</svg>
