<?xml version="1.0" encoding="UTF-8" standalone="no"?>
<svg
   fill="none"
   viewBox="0 0 48 48"
   height="256"
   width="256"
   version="1.1"
   id="svg6"
   sodipodi:docname="anonymous.svg"
   inkscape:version="1.3.2 (091e20e, 2023-11-25, custom)"
   xml:space="preserve"
   xmlns:inkscape="http://www.inkscape.org/namespaces/inkscape"
   xmlns:sodipodi="http://sodipodi.sourceforge.net/DTD/sodipodi-0.dtd"
   xmlns="http://www.w3.org/2000/svg"
   xmlns:svg="http://www.w3.org/2000/svg"><defs
     id="defs10" /><sodipodi:namedview
     id="namedview8"
     pagecolor="#ffffff"
     bordercolor="#666666"
     borderopacity="1.0"
     inkscape:showpageshadow="2"
     inkscape:pageopacity="0.0"
     inkscape:pagecheckerboard="0"
     inkscape:deskcolor="#d1d1d1"
     showgrid="false"
     inkscape:zoom="2.2898106"
     inkscape:cx="173.8135"
     inkscape:cy="108.74262"
     inkscape:current-layer="svg6"
     inkscape:window-width="3840"
     inkscape:window-height="1476"
     inkscape:window-x="-12"
     inkscape:window-y="-12"
     inkscape:window-maximized="1" /><g
     id="g4"
     transform="matrix(0.72980441,0,0,0.72377386,74.325241,3.5687244)"
     style="stroke-width:1.37593"><path
       style="fill:#204a87;fill-opacity:1;stroke-width:1.37593"
       d="m -86.912611,61.277447 c -5.81125,-0.761365 -10.732899,-5.858639 -11.124532,-11.7393 -0.386832,-3.970666 1.05278,-8.147423 4.126144,-10.770808 2.342136,-2.194907 5.499176,-3.734506 8.7616,-3.45048 5.400689,-0.383993 10.377372,3.380109 12.41063,8.237209 0.390483,0.694393 2.454458,0.763594 3.680649,0.747114 1.342915,-0.01805 3.58676,0.15088 3.939592,-0.47288 1.997981,-5.490122 7.922018,-9.406511 13.79855,-8.511047 4.727081,0.342969 8.857156,3.786021 10.66309,8.071629 2.001809,4.951668 0.704411,11.065777 -3.348152,14.603343 -1.905587,1.744384 -4.432841,2.926688 -6.986822,3.307289 -2.872552,0.234926 -5.861033,-0.03109 -8.33618,-1.648697 -3.377601,-1.855468 -5.59249,-5.297809 -6.459157,-8.992733 -1.384462,-1.136578 -5.482859,-1.491451 -6.449205,0.408287 -0.899713,4.770708 -4.839156,8.828151 -9.59955,9.902857 -1.653427,0.414524 -3.386078,0.530249 -5.076657,0.308217 z m 3.981826,-6.008074 c 4.000798,-1.012527 6.17455,-5.772677 4.734304,-9.549621 -1.513647,-4.575895 -8.025696,-6.270474 -11.551602,-2.976792 -3.523209,2.804623 -3.378981,8.881454 0.359578,11.414889 1.830918,1.331529 4.286642,1.801359 6.45772,1.111524 z m 32.257516,0.0098 c 3.767575,-1.014216 6.064305,-5.308435 4.859498,-9.011816 -1.038581,-4.265391 -6.343324,-6.489958 -10.199114,-4.522185 -4.204518,1.915032 -5.538511,8.122371 -2.198845,11.445912 1.857873,2.046247 4.886012,2.991955 7.538461,2.088089 z"
       id="path3"
       sodipodi:nodetypes="cccccscccccccccccccccccccc" /><path
       id="path2"
       style="fill:#729fcf;fill-opacity:1;stroke-width:1.37593"
       d="m -68.024048,-4.928833 c -6.04714,-0.027764 -12.76644,0.2541182 -14.902222,0.6573486 -3.477662,0.656574 -6.354494,2.9615125 -7.506591,6.0142823 -0.746991,1.9793396 -2.035041,7.6021649 -2.90918,12.6987301 -0.301679,1.986257 -0.441747,3.056374 -0.847412,5.659058 -1.101881,0.01621 -2.160633,0.03248 -2.485474,0.05237 -2.887488,0.176817 -3.327123,0.305701 -4.128663,1.210327 -0.72247,0.815393 -0.94309,1.51208 -1.02319,3.230347 -0.0963,2.064817 0.23991,3.285224 1.13928,4.136352 1.131186,1.070505 1.175414,1.078492 6.41748,1.188721 7.314339,0.153803 43.426108,0.164681 49.96875,0.01502 5.209847,-0.119177 5.768801,-0.163186 6.28125,-0.494385 1.483853,-0.959033 2.062812,-2.415967 1.929932,-4.855957 -0.10935,-2.007951 -0.593297,-3.100101 -1.679443,-3.789185 -0.753636,-0.478137 -1.01131,-0.525685 -3.531739,-0.655517 -0.315944,-0.01628 -1.329677,-0.02899 -2.177856,-0.04248 -0.480266,-1.966289 -0.968964,-4.654946 -1.200439,-6.185302 -0.61598,-4.0421575 -1.848345,-10.1973571 -2.730103,-11.9381107 -0.593514,-1.6144079 -2.654164,-4.2458434 -4.586792,-5.1950683 -2.517997,-1.236734 -4.542058,-1.4879591 -13.49231,-1.6750489 -0.821114,-0.017164 -1.671401,-0.027528 -2.535278,-0.031494 z"
       sodipodi:nodetypes="sssccsssssssssscccssss" /><path
       style="fill:#204a87;fill-opacity:1;stroke-width:1.37593"
       d="m -94.111941,19.550721 c 0.05772,-0.232031 0.162408,-0.986664 0.23264,-1.67696 0.08957,-0.880349 0.218256,-1.298336 0.431007,-1.39994 0.40738,-0.194554 42.437734,-0.29924 46.240814,-0.115172 l 3,0.145198 0.11154,1.125 c 0.0614,0.618749 0.17352,1.399218 0.24927,1.734374 l 0.13773,0.609375 h -25.25397 -25.253975 z"
       id="path1"
       sodipodi:nodetypes="ssssccscccs" /></g></svg>
