<?xml version="1.0" encoding="UTF-8" standalone="no"?>
<svg
   fill="none"
   viewBox="0 0 48 48"
   height="256"
   width="256"
   version="1.1"
   id="svg6"
   sodipodi:docname="array_ind.svg"
   inkscape:version="1.3.2 (091e20e, 2023-11-25, custom)"
   xml:space="preserve"
   xmlns:inkscape="http://www.inkscape.org/namespaces/inkscape"
   xmlns:sodipodi="http://sodipodi.sourceforge.net/DTD/sodipodi-0.dtd"
   xmlns="http://www.w3.org/2000/svg"
   xmlns:svg="http://www.w3.org/2000/svg"><defs
     id="defs10" /><sodipodi:namedview
     id="namedview8"
     pagecolor="#ffffff"
     bordercolor="#666666"
     borderopacity="1.0"
     inkscape:showpageshadow="2"
     inkscape:pageopacity="0.0"
     inkscape:pagecheckerboard="true"
     inkscape:deskcolor="#d1d1d1"
     showgrid="true"
     inkscape:zoom="1.6191406"
     inkscape:cx="234.6924"
     inkscape:cy="142.05067"
     inkscape:current-layer="svg6"
     showguides="false"
     inkscape:window-width="3840"
     inkscape:window-height="1476"
     inkscape:window-x="-12"
     inkscape:window-y="-12"
     inkscape:window-maximized="1"><inkscape:grid
       type="xygrid"
       id="grid239"
       units="px"
       spacingx="1.5"
       spacingy="1.5"
       originx="0"
       originy="0"
       visible="true" /></sodipodi:namedview><path
     id="path3"
     style="fill:#2e3436;fill-opacity:1;stroke-width:1.31249;stroke-linecap:round;stroke-linejoin:round;stroke-opacity:0.814302"
     d="m 8.0152521,2.0379603 c -2.5258359,0 -3.729088,0.090461 -4.2817354,0.1604004 C 3.454191,2.2336587 3.225883,2.6456971 3.19592,3.3354457 3.18325,3.6268361 3.17468,3.9902404 3.17468,4.4392054 v 0.00623 C 3.17008,4.5172614 3.16245,4.5868736 3.1604,4.6604012 3.09046,7.1565618 3,12.591465 3,24 c 0,11.408551 0.09046,16.844197 0.1604,19.340332 0.0021,0.07479 0.0099,0.145607 0.01465,0.218628 4.2e-4,0.433479 0.0085,0.788945 0.02087,1.072998 0.02996,0.689758 0.258271,1.101439 0.5375967,1.136719 0.5526474,0.06993 1.7558965,0.160767 4.2817354,0.160767 2.5258419,0 2.3121369,-0.09083 2.8647789,-0.160767 0.279337,-0.0353 0.507271,-0.446961 0.537231,-1.136719 0.01267,-0.29139 0.02124,-0.654787 0.02124,-1.103759 0,-0.448966 -0.0086,-0.812369 -0.02124,-1.10376 -0.02996,-0.689749 -0.257894,-1.101795 -0.537231,-1.137085 -0.552642,-0.06993 -0.338937,-0.1604 -2.8647789,-0.1604 -0.115677,0 -0.214636,0.0011 -0.3248287,0.0015 0.0571,-3.076694 0.1116937,-8.273132 0.1116937,-17.128418 0,-8.893367 -0.0551,-14.0900337 -0.1124267,-17.1610099 0.1104297,3.708e-4 0.2096247,0.00146 0.3255617,0.00146 2.5258389,0 2.3121379,-0.090827 2.8647789,-0.1607666 0.279337,-0.035298 0.507271,-0.4469622 0.537231,-1.1367188 0.01267,-0.2913904 0.02124,-0.6547876 0.02124,-1.1037598 0,-0.448965 -0.0086,-0.8123693 -0.02124,-1.1037597 C 11.387301,2.6456971 11.159368,2.2336507 10.880031,2.1983607 10.32739,2.1284269 10.541091,2.0379603 8.0152521,2.0379603 Z"
     sodipodi:nodetypes="sccsccsscccsccsscscscsccsccs" /><path
     id="path2"
     style="fill:#2e3436;fill-opacity:1;stroke-width:1.31249;stroke-linecap:round;stroke-linejoin:round;stroke-opacity:0.814302"
     d="m 39.984744,2.0379643 c 2.525838,0 3.729091,0.090461 4.281738,0.1604004 0.279327,0.035298 0.507635,0.4473364 0.537598,1.137085 0.01267,0.2913904 0.02124,0.6547947 0.02124,1.1037597 v 0.00623 c 0.0046,0.071821 0.01223,0.1414338 0.01428,0.2149614 C 44.90954,7.1565614 45,12.591465 45,24 c 0,11.408551 -0.09046,16.844197 -0.1604,19.340332 -0.0021,0.07479 -0.0099,0.145607 -0.01465,0.218628 -4.2e-4,0.433479 -0.0085,0.788945 -0.02087,1.072998 -0.02996,0.689758 -0.258271,1.101439 -0.537598,1.136719 -0.552648,0.06993 -1.755898,0.160767 -4.281738,0.160767 -2.525845,0 -2.31214,-0.09083 -2.864782,-0.160767 -0.279338,-0.0353 -0.507272,-0.446961 -0.537232,-1.136719 -0.01267,-0.29139 -0.02124,-0.654787 -0.02124,-1.103759 0,-0.448966 0.0086,-0.812369 0.02124,-1.10376 0.02996,-0.689749 0.257894,-1.101795 0.537232,-1.137085 0.552642,-0.06993 0.338937,-0.1604 2.864782,-0.1604 0.115676,0 0.214636,0.0011 0.324829,0.0015 -0.0571,-3.076694 -0.111695,-8.273132 -0.111695,-17.128418 0,-8.893367 0.0551,-14.0900341 0.112427,-17.1610103 -0.110429,3.708e-4 -0.209624,0.00146 -0.325561,0.00146 -2.525842,0 -2.31214,-0.090827 -2.864782,-0.1607666 C 36.840624,6.6444211 36.61269,6.2327569 36.58273,5.5430003 36.57006,5.2516099 36.56149,4.8882127 36.56149,4.4392405 c 0,-0.448965 0.0086,-0.8123693 0.02124,-1.1037597 0.02996,-0.6897797 0.257895,-1.1018261 0.537233,-1.1371161 0.552642,-0.069934 0.33894,-0.1604004 2.864781,-0.1604004 z"
     sodipodi:nodetypes="sccsccsscccsccsccscscsccsccs" /><path
     d="m 19.845464,17.358585 v 0.644529 q 1.406247,-1.855464 3.066399,-2.714837 1.679683,-0.878904 3.847647,-0.878904 2.10937,0 3.769522,0.917967 1.660152,0.917966 2.480462,2.59765 0.527343,0.97656 0.683592,2.109369 0.15625,1.13281 0.15625,2.890618 v 9.921851 q 0,1.601558 -0.742186,2.421869 -0.722654,0.82031 -1.894526,0.82031 -1.191404,0 -1.933589,-0.839842 -0.742186,-0.839841 -0.742186,-2.402337 v -8.886697 q 0,-2.636712 -0.742186,-4.023428 -0.722654,-1.406246 -2.910149,-1.406246 -1.425777,0 -2.597649,0.859373 -1.171873,0.839841 -1.718746,2.324213 -0.390624,1.191403 -0.390624,4.453114 v 6.679671 q 0,1.621089 -0.761717,2.4414 -0.742186,0.800779 -1.933589,0.800779 -1.152341,0 -1.894527,-0.839842 -0.742185,-0.839841 -0.742185,-2.402337 V 17.43671 q 0,-1.523434 0.664061,-2.26562 0.66406,-0.761717 1.816401,-0.761717 0.703124,0 1.269528,0.332031 0.566405,0.33203 0.898436,0.996091 0.351561,0.664061 0.351561,1.62109 z"
     id="text3"
     style="font-size:39.9999px;line-height:0.9;font-family:'Arial Rounded MT Bold';-inkscape-font-specification:'Arial Rounded MT Bold, Normal';text-align:center;text-anchor:middle;fill:#204a87;stroke-width:1.81875;stroke-linecap:round;stroke-linejoin:round"
     aria-label="n" /></svg>
