<?xml version="1.0" encoding="UTF-8" standalone="no"?>
<svg
   fill="none"
   viewBox="0 0 48 48"
   height="256"
   width="256"
   version="1.1"
   id="svg6"
   sodipodi:docname="asterisk.svg"
   inkscape:version="1.3.2 (091e20e, 2023-11-25, custom)"
   xmlns:inkscape="http://www.inkscape.org/namespaces/inkscape"
   xmlns:sodipodi="http://sodipodi.sourceforge.net/DTD/sodipodi-0.dtd"
   xmlns="http://www.w3.org/2000/svg"
   xmlns:svg="http://www.w3.org/2000/svg">
  <defs
     id="defs10" />
  <sodipodi:namedview
     id="namedview8"
     pagecolor="#ffffff"
     bordercolor="#666666"
     borderopacity="1.0"
     inkscape:showpageshadow="2"
     inkscape:pageopacity="0.0"
     inkscape:pagecheckerboard="true"
     inkscape:deskcolor="#d1d1d1"
     showgrid="true"
     inkscape:zoom="1.1449053"
     inkscape:cx="50.659212"
     inkscape:cy="18.342128"
     inkscape:current-layer="svg6"
     showguides="false"
     inkscape:window-width="3840"
     inkscape:window-height="1476"
     inkscape:window-x="-12"
     inkscape:window-y="-12"
     inkscape:window-maximized="1">
    <inkscape:grid
       type="xygrid"
       id="grid239"
       units="px"
       spacingx="1.5"
       spacingy="1.5"
       originx="0"
       originy="0"
       visible="true" />
  </sodipodi:namedview>
  <path
     id="path335"
     style="font-size:32.9839px;line-height:1.25;font-family:'Arial Rounded MT Bold';-inkscape-font-specification:'Arial Rounded MT Bold, Normal';word-spacing:0px;fill:#a40000;fill-opacity:1;stroke-width:0.20615"
     d="m 24.019001,8.9806044 c -0.936735,0 -1.709177,0.3422811 -2.316791,1.0258476 -0.582296,0.658244 -0.873007,1.456038 -0.873007,2.392772 0,0.759515 0.100584,2.176764 0.303092,4.252769 0.227849,2.050689 0.506753,3.873605 0.835876,5.468585 -1.797515,-0.860783 -3.40492,-1.63322 -4.822683,-2.316788 -1.39244,-0.708879 -2.544333,-1.240456 -3.455752,-1.594894 -0.911415,-0.37976 -1.671182,-0.569053 -2.27879,-0.569053 -0.835466,0 -1.582554,0.303385 -2.2408006,0.911 -0.6329279,0.582293 -0.9489943,1.316706 -0.9489943,2.202805 0,0.455706 0.1385617,0.961929 0.4170739,1.518905 0.3038089,0.531666 0.608058,0.873087 0.9118648,1.024986 1.8734652,0.784827 3.6456752,1.37979 5.3166072,1.784865 1.670932,0.405075 3.569913,0.772711 5.696551,1.101833 -2.531715,2.329177 -4.962269,5.075798 -7.291449,8.240444 -0.253169,0.354438 -0.379941,0.873339 -0.379941,1.556901 0,0.734195 0.304252,1.430574 0.91186,2.088818 0.63293,0.632927 1.417188,0.948995 2.353919,0.948995 0.784832,0 1.481213,-0.278036 2.088821,-0.83501 0.607614,-0.58229 1.240604,-1.430799 1.898855,-2.544753 0.658245,-1.113951 1.949585,-3.417741 3.873688,-6.911503 1.89878,3.873521 3.442801,6.557619 4.63271,8.051331 1.21522,1.493712 2.303724,2.239937 3.26578,2.239937 0.96205,0 1.747171,-0.30339 2.354781,-0.911002 0.607612,-0.607609 0.911001,-1.316664 0.911001,-2.126813 0,-0.63293 -0.138561,-1.164505 -0.417076,-1.594897 -0.253171,-0.45571 -0.721362,-1.076024 -1.404927,-1.860856 -0.683559,-0.78483 -1.216,-1.443178 -1.595755,-1.974842 -0.05062,-0.07597 -0.594886,-0.658238 -1.632896,-1.746869 -1.037995,-1.08864 -1.910993,-1.961636 -2.619875,-2.619882 3.924156,-0.582294 7.519281,-1.519537 10.78519,-2.810711 0.354443,-0.151887 0.683184,-0.493323 0.986991,-1.024985 0.32912,-0.556973 0.493924,-1.088551 0.493924,-1.594893 0,-0.8861 -0.329603,-1.620511 -0.987849,-2.202805 -0.632935,-0.607614 -1.391832,-0.911 -2.277932,-0.911 -0.531661,0 -1.240712,0.176607 -2.126814,0.531056 -0.886098,0.354442 -2.076026,0.911372 -3.569739,1.670883 -1.493705,0.759515 -3.063086,1.519283 -4.708696,2.278796 0.202546,-1.645613 0.379157,-3.101758 0.531056,-4.367615 0.177233,-1.291174 0.303983,-2.379681 0.37994,-3.26578 0.101288,-0.911417 0.151985,-1.519058 0.151985,-1.82286 0,-1.113954 -0.303389,-1.999629 -0.911,-2.657871 C 25.677512,9.3228844 24.930426,8.9806032 24.019017,8.9806032 Z"
     sodipodi:nodetypes="scsccccscsccsccscscsccssscscscccscssscccscs" />
</svg>
