<?xml version="1.0" encoding="UTF-8" standalone="no"?>
<svg
   fill="none"
   viewBox="0 0 48 48"
   height="256"
   width="256"
   version="1.1"
   id="svg12"
   sodipodi:docname="compressed.svg"
   inkscape:version="1.3.2 (091e20e, 2023-11-25, custom)"
   xml:space="preserve"
   xmlns:inkscape="http://www.inkscape.org/namespaces/inkscape"
   xmlns:sodipodi="http://sodipodi.sourceforge.net/DTD/sodipodi-0.dtd"
   xmlns="http://www.w3.org/2000/svg"
   xmlns:svg="http://www.w3.org/2000/svg"><defs
     id="defs16" /><sodipodi:namedview
     id="namedview14"
     pagecolor="#ffffff"
     bordercolor="#666666"
     borderopacity="1.0"
     inkscape:pageshadow="2"
     inkscape:pageopacity="0.0"
     inkscape:pagecheckerboard="0"
     showgrid="false"
     inkscape:zoom="0.70710678"
     inkscape:cx="7.0710678"
     inkscape:cy="-103.23759"
     inkscape:window-width="3840"
     inkscape:window-height="1476"
     inkscape:window-x="-12"
     inkscape:window-y="-12"
     inkscape:window-maximized="1"
     inkscape:current-layer="svg12"
     inkscape:snap-bbox="true"
     inkscape:snap-page="true"
     inkscape:bbox-paths="true"
     inkscape:bbox-nodes="true"
     inkscape:snap-bbox-edge-midpoints="true"
     inkscape:snap-bbox-midpoints="true"
     inkscape:object-paths="true"
     inkscape:snap-intersection-paths="true"
     inkscape:snap-smooth-nodes="true"
     inkscape:snap-midpoints="true"
     inkscape:snap-object-midpoints="true"
     inkscape:snap-center="true"
     inkscape:snap-text-baseline="true"
     inkscape:showpageshadow="0"
     inkscape:deskcolor="#d1d1d1" /><path
     id="rect2345"
     style="fill:#729fcf;fill-opacity:1;stroke:none;stroke-width:1.875;stroke-linecap:round;stroke-linejoin:round"
     d="m 16.710525,24 c 0,10.77629 0.265713,16.0034 0.47623,18.4541 0.110215,1.2823 0.798603,2.18144 1.735944,2.29834 C 19.933882,44.87854 21.545227,45 23.999998,45 c 2.454772,0 4.066116,-0.12146 5.077299,-0.24756 0.937341,-0.1169 1.62573,-1.01604 1.735945,-2.29834 0.210517,-2.4507 0.47623,-7.67781 0.47623,-18.4541 0,-10.77629 -0.265713,-16.003494 -0.47623,-18.454102 C 30.703027,4.26359 30.014638,3.364448 29.077297,3.247559 28.066114,3.121449 26.45477,3 23.999998,3 21.545227,3 19.933882,3.121449 18.922699,3.247559 17.985358,3.364448 17.29697,4.26359 17.186755,5.545898 16.976238,7.996506 16.710525,13.22371 16.710525,24 Z"
     sodipodi:nodetypes="scssscsccsccs" /><path
     fill="#204a87"
     d="M 1.1314822e-4,26.669329 2.2632877e-5,21.330141 C -0.00603493,18.672965 1.2051477,18.57712 4.9594191,18.5197 c 1.9790626,0 3.5182739,0.0497 4.7006135,0.118436 0.015732,-1.651429 0.038327,-3.053774 0.06427,-4.24071 0.070145,-3.204312 1.1879444,-4.7003321 2.1626504,-2.994572 2.24039,3.921029 3.652689,7.575434 4.437571,9.92745 0.514608,1.542206 0.514697,3.797192 9e-5,5.339293 -0.784881,2.352149 -2.19709,6.006552 -4.437751,9.927688 -0.974616,1.705548 -2.0924155,0.2095 -2.1625604,-2.994757 -0.028652,-1.309442 -0.053151,-2.881357 -0.06888,-4.760734 -1.1817975,0.06868 -2.7195616,0.118194 -4.6960035,0.118194 -3.8018985,0.07898 -4.94767682,0.328344 -4.95930595178,-2.290657 z"
     id="path10"
     sodipodi:nodetypes="ccccccccccccc"
     style="stroke-width:1" /><path
     fill="#204a87"
     d="m 47.999887,26.669329 9e-5,-5.339188 c 0.0061,-2.657176 -1.205125,-2.753021 -4.959397,-2.810441 -1.979063,0 -3.518275,0.0497 -4.700614,0.118436 -0.01573,-1.651429 -0.03833,-3.053774 -0.06427,-4.24071 -0.07015,-3.204312 -1.187945,-4.7003321 -2.162651,-2.994572 -2.24039,3.921029 -3.652689,7.575434 -4.437572,9.92745 -0.514608,1.542206 -0.514697,3.797192 -9e-5,5.339293 0.784882,2.352149 2.197091,6.006552 4.437752,9.927688 0.974616,1.705548 2.092416,0.2095 2.162561,-2.994757 0.02865,-1.309442 0.05315,-2.881357 0.06888,-4.760734 1.181797,0.06868 2.719562,0.118194 4.696004,0.118194 3.801899,0.07898 4.947677,0.328344 4.959307,-2.290657 z"
     id="path1"
     sodipodi:nodetypes="ccccccccccccc"
     style="stroke-width:1" /></svg>
