<?xml version="1.0" encoding="UTF-8" standalone="no"?>
<svg
   fill="none"
   viewBox="0 0 48 48"
   height="256"
   width="256"
   version="1.1"
   id="svg12"
   sodipodi:docname="endianness.svg"
   inkscape:version="1.3.2 (091e20e, 2023-11-25, custom)"
   xml:space="preserve"
   xmlns:inkscape="http://www.inkscape.org/namespaces/inkscape"
   xmlns:sodipodi="http://sodipodi.sourceforge.net/DTD/sodipodi-0.dtd"
   xmlns="http://www.w3.org/2000/svg"
   xmlns:svg="http://www.w3.org/2000/svg"><defs
     id="defs16" /><sodipodi:namedview
     id="namedview14"
     pagecolor="#ffffff"
     bordercolor="#666666"
     borderopacity="1.0"
     inkscape:pageshadow="2"
     inkscape:pageopacity="0.0"
     inkscape:pagecheckerboard="0"
     showgrid="false"
     inkscape:zoom="2.8284271"
     inkscape:cx="127.63277"
     inkscape:cy="100.76272"
     inkscape:window-width="3840"
     inkscape:window-height="1476"
     inkscape:window-x="-12"
     inkscape:window-y="-12"
     inkscape:window-maximized="1"
     inkscape:current-layer="svg12"
     inkscape:snap-bbox="true"
     inkscape:snap-page="true"
     inkscape:bbox-paths="true"
     inkscape:bbox-nodes="true"
     inkscape:snap-bbox-edge-midpoints="true"
     inkscape:snap-bbox-midpoints="true"
     inkscape:object-paths="true"
     inkscape:snap-intersection-paths="true"
     inkscape:snap-smooth-nodes="true"
     inkscape:snap-midpoints="true"
     inkscape:snap-object-midpoints="true"
     inkscape:snap-center="true"
     inkscape:snap-text-baseline="true"
     inkscape:showpageshadow="0"
     inkscape:deskcolor="#d1d1d1" /><path
     id="rect2345"
     style="fill:#729fcf;fill-opacity:1;stroke:none;stroke-width:1.875;stroke-linecap:round;stroke-linejoin:round"
     d="m 28.710525,24 c 0,10.77629 0.265713,16.0034 0.47623,18.4541 0.110215,1.2823 0.798603,2.18144 1.735944,2.29834 C 31.933882,44.87854 33.545227,45 35.999998,45 c 2.454772,0 4.066116,-0.12146 5.077299,-0.24756 0.937341,-0.1169 1.62573,-1.01604 1.735945,-2.29834 0.210517,-2.4507 0.47623,-7.67781 0.47623,-18.4541 0,-10.77629 -0.265713,-16.003494 -0.47623,-18.454102 C 42.703027,4.26359 42.014638,3.364448 41.077297,3.247559 40.066114,3.121449 38.45477,3 35.999998,3 33.545227,3 31.933882,3.121449 30.922699,3.247559 29.985358,3.364448 29.29697,4.26359 29.186755,5.545898 28.976238,7.996506 28.710525,13.22371 28.710525,24 Z"
     sodipodi:nodetypes="scssscsccsccs" /><path
     id="path2"
     style="fill:#204a87;fill-opacity:1;stroke:none;stroke-width:1.875;stroke-linecap:round;stroke-linejoin:round"
     d="m 4.710525,34.6875 c 0,5.291928 0.265713,7.858813 0.47623,9.062282 0.110215,0.6297 0.798603,1.071242 1.735944,1.128649 C 7.933882,44.940351 9.545227,45 11.999998,45 c 2.454772,0 4.066116,-0.05965 5.077299,-0.121569 0.937341,-0.05741 1.62573,-0.498949 1.735945,-1.128649 0.210517,-1.203469 0.47623,-3.770354 0.47623,-9.062282 0,-5.291928 -0.265713,-7.858858 -0.47623,-9.062282 C 18.703027,24.995513 18.014638,24.55397 17.077297,24.496569 16.066114,24.434639 14.45477,24.375 11.999998,24.375 c -2.454771,0 -4.066116,0.05964 -5.077299,0.121569 -0.937341,0.0574 -1.625729,0.498944 -1.735944,1.128649 -0.210517,1.203424 -0.47623,3.770354 -0.47623,9.062282 z"
     sodipodi:nodetypes="scssscsccsccs" /></svg>
