<?xml version="1.0" encoding="UTF-8" standalone="no"?>
<svg
   fill="none"
   viewBox="0 0 48 48"
   height="256"
   width="256"
   version="1.1"
   id="svg6"
   sodipodi:docname="func_ptr.svg"
   inkscape:version="1.3.2 (091e20e, 2023-11-25, custom)"
   xmlns:inkscape="http://www.inkscape.org/namespaces/inkscape"
   xmlns:sodipodi="http://sodipodi.sourceforge.net/DTD/sodipodi-0.dtd"
   xmlns="http://www.w3.org/2000/svg"
   xmlns:svg="http://www.w3.org/2000/svg">
  <defs
     id="defs10" />
  <sodipodi:namedview
     id="namedview8"
     pagecolor="#ffffff"
     bordercolor="#666666"
     borderopacity="1.0"
     inkscape:showpageshadow="2"
     inkscape:pageopacity="0.0"
     inkscape:pagecheckerboard="0"
     inkscape:deskcolor="#d1d1d1"
     showgrid="false"
     inkscape:zoom="3.2382812"
     inkscape:cx="180.65139"
     inkscape:cy="119.81665"
     inkscape:current-layer="svg6"
     inkscape:window-width="3840"
     inkscape:window-height="1476"
     inkscape:window-x="-12"
     inkscape:window-y="-12"
     inkscape:window-maximized="1" />
  <path
     d="m 8.9528873,14.95096 h 1.2442677 v -1.569692 q 0,-2.45025 0.612562,-3.8859429 0.631705,-1.4548359 2.105684,-2.1056835 1.493121,-0.6699903 4.077369,-0.6699903 4.575076,0 4.575076,2.2396816 0,0.7274179 -0.478565,1.2442671 -0.478564,0.51685 -1.129412,0.51685 -0.306281,0 -1.052841,-0.114855 -0.746561,-0.114856 -1.263411,-0.114856 -1.41655,0 -1.818544,0.842274 -0.401995,0.82313 -0.401995,2.373679 v 1.244268 h 1.282553 q 2.986242,0 2.986242,1.799402 0,1.282553 -0.803988,1.627119 -0.784846,0.344566 -2.182254,0.344566 h -1.282553 v 13.840084 q 0,1.550549 -0.74656,2.373679 -0.727418,0.803989 -1.895115,0.803989 -1.11027,0 -1.85683,-0.803989 -0.727418,-0.82313 -0.727418,-2.373679 V 18.722047 H 8.7614615 q -1.1676972,0 -1.7994023,-0.516849 -0.631705,-0.535992 -0.631705,-1.378266 0,-1.875972 2.6225331,-1.875972 z m 18.3003037,2.469392 v 0.631705 q 1.473979,-1.818545 3.062813,-2.660818 1.588834,-0.861416 3.598804,-0.861416 2.411965,0 4.441078,1.244267 2.029113,1.244268 3.196811,3.63709 1.186839,2.392822 1.186839,5.666203 0,2.411965 -0.689132,4.441078 -0.669991,2.009971 -1.85683,3.388236 -1.18684,1.359123 -2.813959,2.105684 -1.607977,0.727418 -3.464807,0.727418 -2.239681,0 -3.771088,-0.899701 -1.512263,-0.899702 -2.890529,-2.641676 v 7.848457 q 0,3.445664 -2.507677,3.445664 -1.473979,0 -1.952543,-0.899702 -0.478565,-0.880558 -0.478565,-2.584248 V 17.458637 q 0,-1.493121 0.650848,-2.220539 0.650848,-0.74656 1.78026,-0.74656 1.110269,0 1.799402,0.765703 0.708275,0.74656 0.708275,2.163111 z m 10.241279,7.599603 q 0,-2.067398 -0.631705,-3.541376 -0.631705,-1.493122 -1.761117,-2.277967 -1.110269,-0.803988 -2.469392,-0.803988 -2.163112,0 -3.656233,1.703689 -1.473978,1.703689 -1.473978,5.015355 0,3.12024 1.473978,4.862215 1.473979,1.722832 3.656233,1.722832 1.301695,0 2.411964,-0.746561 1.11027,-0.765703 1.78026,-2.277966 0.66999,-1.512264 0.66999,-3.656233 z"
     id="text2"
     style="font-size:39.204px;line-height:0.9;font-family:'Arial Rounded MT Bold';-inkscape-font-specification:'Arial Rounded MT Bold, Normal';fill:#2e3436;stroke-width:1.87501;stroke-linecap:round;stroke-linejoin:round"
     aria-label="fp" />
</svg>
