<?xml version="1.0" encoding="UTF-8" standalone="no"?>
<svg
   fill="none"
   viewBox="0 0 48 48"
   height="256"
   width="256"
   version="1.1"
   id="svg6"
   sodipodi:docname="function_addr.svg"
   inkscape:version="1.3.2 (091e20e, 2023-11-25, custom)"
   xmlns:inkscape="http://www.inkscape.org/namespaces/inkscape"
   xmlns:sodipodi="http://sodipodi.sourceforge.net/DTD/sodipodi-0.dtd"
   xmlns="http://www.w3.org/2000/svg"
   xmlns:svg="http://www.w3.org/2000/svg">
  <defs
     id="defs10" />
  <sodipodi:namedview
     id="namedview8"
     pagecolor="#ffffff"
     bordercolor="#666666"
     borderopacity="1.0"
     inkscape:showpageshadow="2"
     inkscape:pageopacity="0.0"
     inkscape:pagecheckerboard="0"
     inkscape:deskcolor="#d1d1d1"
     showgrid="false"
     inkscape:zoom="3.2382812"
     inkscape:cx="183.27624"
     inkscape:cy="153.78529"
     inkscape:current-layer="svg6"
     inkscape:window-width="1991"
     inkscape:window-height="996"
     inkscape:window-x="3828"
     inkscape:window-y="463"
     inkscape:window-maximized="1" />
  <path
     style="font-size:50.0001px;line-height:0.9;font-family:'Arial Rounded MT Bold';-inkscape-font-specification:'Arial Rounded MT Bold, Normal';text-align:center;text-anchor:middle;fill:#2e3436;stroke-width:0.0354331;stroke-linecap:round;stroke-linejoin:round;fill-opacity:1"
     d="m 4.8156307,13.196482 h 1.5869172 v -2.001957 q 0,-3.1250065 0.7812515,-4.9560648 Q 7.9894651,4.3829878 9.8693516,3.552908 11.773652,2.6984141 15.069557,2.6984141 q 5.834973,0 5.834973,2.856451 0,0.9277362 -0.610353,1.5869172 -0.610353,0.659181 -1.440433,0.659181 -0.390625,0 -1.342776,-0.1464847 -0.95215,-0.1464846 -1.611331,-0.1464846 -1.806644,0 -2.319341,1.0742209 Q 13.0676,9.6320216 13.0676,11.609565 v 1.586917 h 1.635746 q 3.808601,0 3.808601,2.294926 0,1.635746 -1.025393,2.0752 -1.000978,0.439454 -2.783208,0.439454 H 13.0676 v 17.651402 q 0,1.977543 -0.95215,3.02735 -0.927736,1.025392 -2.4169972,1.025392 -1.4160184,0 -2.3681687,-1.025392 -0.9277362,-1.049807 -0.9277362,-3.02735 V 18.006062 H 4.5714895 q -1.4892607,0 -2.2949264,-0.659181 -0.8056656,-0.683595 -0.8056656,-1.757816 0,-2.392583 3.3447332,-2.392583 z"
     id="text1"
     aria-label="f" />
  <path
     style="font-size:27.5px;line-height:0.9;font-family:'Arial Rounded MT Bold';-inkscape-font-specification:'Arial Rounded MT Bold, Normal';text-align:center;text-anchor:middle;fill:#2e3436;fill-opacity:1;stroke-width:0.0354331;stroke-linecap:round;stroke-linejoin:round"
     d="m 15.188015,32.187862 c 0,-1.351725 0.116374,-2.613932 0.349121,-3.786621 0.232747,-1.181641 0.586344,-2.340902 1.060791,-3.477783 0.474447,-1.145833 1.060791,-2.291667 1.759033,-3.4375 0.420736,-0.698242 0.774333,-1.199544 1.060791,-1.503906 0.286459,-0.313314 0.555013,-0.505778 0.805664,-0.577393 0.259603,-0.08057 0.590821,-0.120849 0.993653,-0.120849 0.438639,0 0.657959,0.120849 0.657959,0.362548 0,0.08057 -0.205892,0.568441 -0.617676,1.463624 -0.411784,0.88623 -0.801188,1.817219 -1.168213,2.792968 -0.358073,0.975749 -0.693766,2.193197 -1.00708,3.652344 -0.304362,1.459147 -0.456543,3.003337 -0.456543,4.632568 0,1.611329 0.152181,3.137615 0.456543,4.578858 0.304362,1.441243 0.649007,2.690023 1.033935,3.746338 0.393881,1.056315 0.783285,2.000732 1.168213,2.833252 0.393881,0.841471 0.590821,1.298014 0.590821,1.369629 0,0.241699 -0.21932,0.362548 -0.657959,0.362548 -0.411784,0 -0.747477,-0.04476 -1.00708,-0.134277 -0.250651,-0.08057 -0.51473,-0.277507 -0.792237,-0.59082 -0.277506,-0.313314 -0.631103,-0.814616 -1.060791,-1.503907 -0.707194,-1.18164 -1.293538,-2.322997 -1.759033,-3.424072 -0.456543,-1.092122 -0.805664,-2.229003 -1.047363,-3.410644 -0.241699,-1.181641 -0.362549,-2.457276 -0.362549,-3.826905 z"
     id="text2"
     aria-label="(x)"
     sodipodi:nodetypes="scccccsscccssccsscsccss" />
  <path
     d="m 25.714385,22.605707 q 0,-0.890007 0.459358,-1.617325 0.468929,-0.736888 1.368506,-1.167537 0.899578,-0.430648 2.114964,-0.430648 1.205816,0 2.086254,0.449788 0.880437,0.449789 1.311086,1.177107 0.440218,0.727318 0.440218,1.512055 0,1.071837 -0.708178,1.866144 -0.708177,0.794308 -2.086253,1.617326 0.478498,0.564628 0.890007,1.062266 0.411509,0.497639 0.794308,0.928287 0.382798,0.430649 0.698607,0.736888 0.14355,-0.267959 0.440219,-1.004847 0.306239,-0.736887 0.564628,-1.062266 0.26796,-0.325379 0.746458,-0.325379 0.449789,0 0.794308,0.325379 0.344519,0.315809 0.344519,0.775167 0,0.421079 -0.296669,1.196247 -0.29667,0.765597 -0.861298,1.703454 0.354089,0.306239 1.119687,0.928288 0.775167,0.622048 0.947427,0.851727 0.181829,0.220109 0.181829,0.593338 0,0.497639 -0.363659,0.842158 -0.354088,0.334949 -0.794307,0.334949 -0.449789,0 -0.870867,-0.2871 -0.421079,-0.287099 -1.789585,-1.406785 -0.622048,0.583768 -1.291946,0.956997 -0.660328,0.373229 -1.425926,0.555058 -0.756027,0.18183 -1.693885,0.18183 -1.196246,0 -2.153243,-0.344519 -0.947427,-0.354089 -1.579045,-0.947428 -0.631618,-0.593338 -0.937857,-1.311086 -0.306239,-0.727317 -0.306239,-1.473775 0,-0.717748 0.229679,-1.311086 0.229679,-0.602908 0.641188,-1.081407 0.421079,-0.488068 1.023987,-0.918717 0.612478,-0.440219 1.416355,-0.851727 -0.717747,-0.899578 -1.090976,-1.598186 -0.363659,-0.708177 -0.363659,-1.454635 z m 2.708302,4.584016 q -0.976137,0.564628 -1.464206,1.129257 -0.478498,0.564628 -0.478498,1.339795 0,0.440219 0.172259,0.842158 0.181829,0.401939 0.516778,0.746458 0.344519,0.344519 0.794308,0.526348 0.449789,0.181829 0.947427,0.181829 0.488069,0 0.947427,-0.153119 0.459359,-0.15312 0.870868,-0.430649 0.411508,-0.287099 0.851727,-0.708178 -0.851727,-0.784737 -1.531195,-1.550335 -0.679468,-0.775168 -1.626895,-1.923564 z m 0.976137,-2.622172 q 0.976137,-0.622048 1.406785,-1.043127 0.440219,-0.430649 0.440219,-1.033557 0,-0.593338 -0.440219,-0.995277 -0.430648,-0.401938 -1.090976,-0.401938 -0.660328,0 -1.110117,0.411508 -0.440219,0.411509 -0.440219,0.966567 0,0.287099 0.16269,0.622048 0.172259,0.325379 0.421079,0.650758 0.248819,0.325379 0.650758,0.823018 z"
     id="text3"
     style="font-size:19.5993px;line-height:0.9;font-family:'Arial Rounded MT Bold';-inkscape-font-specification:'Arial Rounded MT Bold, Normal';fill:#cc0000;stroke-width:0.070875;stroke-linecap:round;stroke-linejoin:round"
     transform="scale(0.84514865,1.1832238)"
     aria-label="&amp;" />
  <path
     style="font-size:27.5px;line-height:0.9;font-family:'Arial Rounded MT Bold';-inkscape-font-specification:'Arial Rounded MT Bold, Normal';text-align:center;text-anchor:middle;fill:#2e3436;fill-opacity:1;stroke-width:0.0354331;stroke-linecap:round;stroke-linejoin:round"
     d="m 38.663493,38.630602 -1.945909,-3.907471 -1.995049,3.907471 c -0.288282,0.546061 -0.533978,0.935466 -0.737086,1.168213 -0.196557,0.232747 -0.448804,0.349121 -0.756742,0.349121 -0.340698,0 -0.632257,-0.143229 -0.874677,-0.429688 -0.235867,-0.29541 -0.353801,-0.631103 -0.353801,-1.00708 0,-0.384928 0.183452,-0.935465 0.550358,-1.651611 l 2.427472,-4.753418 -2.152293,-3.961182 c -0.373457,-0.653483 -0.560186,-1.221923 -0.560186,-1.705322 0,-0.375977 0.111382,-0.702718 0.334146,-0.980224 0.222764,-0.277507 0.514323,-0.41626 0.874676,-0.41626 0.31449,0 0.573289,0.12085 0.776398,0.362549 0.209661,0.241699 0.45208,0.622151 0.727259,1.141357 l 1.739525,3.249512 1.690386,-3.249512 c 0.28173,-0.537109 0.52415,-0.922038 0.727258,-1.154785 0.209661,-0.232747 0.468461,-0.349121 0.776398,-0.349121 0.353803,0 0.645361,0.138753 0.874677,0.41626 0.235868,0.268555 0.353802,0.595296 0.353802,0.980224 0,0.277507 -0.04914,0.546061 -0.147418,0.805664 -0.09173,0.250651 -0.235867,0.550537 -0.432424,0.899658 l -2.152293,3.961182 2.427472,4.753418 c 0.380009,0.743001 0.570014,1.30249 0.570014,1.678467 0,0.384928 -0.117934,0.716145 -0.353802,0.993652 -0.235867,0.277507 -0.527426,0.41626 -0.874676,0.41626 -0.307938,0 -0.570013,-0.12085 -0.786226,-0.362549 -0.20966,-0.241699 -0.45208,-0.626628 -0.727259,-1.154785 z"
     id="path3"
     aria-label="(x)"
     sodipodi:nodetypes="ccccscscccssscccccscsccccssscc" />
  <path
     style="font-size:27.5px;line-height:0.9;font-family:'Arial Rounded MT Bold';-inkscape-font-specification:'Arial Rounded MT Bold, Normal';text-align:center;text-anchor:middle;fill:#2e3436;fill-opacity:1;stroke-width:0.0354331;stroke-linecap:round;stroke-linejoin:round"
     d="m 47.674108,32.187862 c 0,1.969401 -0.264079,3.800049 -0.792236,5.491944 -0.519206,1.691895 -1.311442,3.41512 -2.376709,5.169677 -0.599772,0.984701 -1.074219,1.602377 -1.42334,1.853028 -0.349121,0.250651 -0.823567,0.375976 -1.42334,0.375976 -0.447591,0 -0.671386,-0.120849 -0.671386,-0.362548 0,-0.08057 0.187988,-0.51473 0.563964,-1.302491 0.375977,-0.778809 0.765381,-1.709798 1.168213,-2.792968 0.411784,-1.083171 0.765381,-2.35433 1.060791,-3.813477 0.304362,-1.468099 0.456543,-3.007812 0.456543,-4.619141 0,-1.62028 -0.152181,-3.164469 -0.456543,-4.632568 -0.304362,-1.468099 -0.657959,-2.739258 -1.060791,-3.813477 -0.402832,-1.074219 -0.792236,-2.005208 -1.168213,-2.792968 -0.375976,-0.796713 -0.563964,-1.230876 -0.563964,-1.302491 0,-0.241699 0.223795,-0.362548 0.671386,-0.362548 0.626628,0 1.110027,0.120849 1.450196,0.362548 0.340169,0.232748 0.805664,0.845948 1.396484,1.8396 0.528157,0.877279 0.989176,1.74113 1.383057,2.591553 0.39388,0.850423 0.720621,1.700846 0.980224,2.551269 0.268555,0.850423 0.469971,1.736654 0.604248,2.658692 0.134277,0.922037 0.201416,1.888834 0.201416,2.90039 z"
     id="path4"
     aria-label="(x)"
     sodipodi:nodetypes="sccssscccssscssccscss" />
</svg>
