<?xml version="1.0" encoding="UTF-8" standalone="no"?>
<svg
   fill="none"
   viewBox="0 0 48 48"
   height="256"
   width="256"
   version="1.1"
   id="svg6"
   sodipodi:docname="numbers.svg"
   inkscape:version="1.3.2 (091e20e, 2023-11-25, custom)"
   xmlns:inkscape="http://www.inkscape.org/namespaces/inkscape"
   xmlns:sodipodi="http://sodipodi.sourceforge.net/DTD/sodipodi-0.dtd"
   xmlns="http://www.w3.org/2000/svg"
   xmlns:svg="http://www.w3.org/2000/svg">
  <defs
     id="defs10" />
  <sodipodi:namedview
     id="namedview8"
     pagecolor="#ffffff"
     bordercolor="#666666"
     borderopacity="1.0"
     inkscape:showpageshadow="2"
     inkscape:pageopacity="0.0"
     inkscape:pagecheckerboard="0"
     inkscape:deskcolor="#d1d1d1"
     showgrid="false"
     inkscape:zoom="3.2382812"
     inkscape:cx="214.15682"
     inkscape:cy="180.9602"
     inkscape:current-layer="svg6"
     inkscape:window-width="3840"
     inkscape:window-height="1476"
     inkscape:window-x="-12"
     inkscape:window-y="-12"
     inkscape:window-maximized="1" />
  <path
     style="color:#000000;-inkscape-font-specification:'Arial Rounded MT Bold, Normal';fill:#729fcf;stroke-linecap:round;stroke-linejoin:round;-inkscape-stroke:none"
     d="m 24.369141,2.2246094 c -1.058725,0 -2.059158,0.3954064 -2.828125,1.1191406 -0.671342,0.630817 -1.453571,1.567156 -2.40625,2.8496094 L 4.828125,25.333984 c -0.3944888,0.520025 -0.7277069,0.961812 -0.9980469,1.322266 -0.281148,0.374864 -0.5514638,0.766477 -0.8125,1.175781 -0.2873289,0.430993 -0.513396,0.866527 -0.6699218,1.3125 -0.1587845,0.434202 -0.2441407,0.886047 -0.2441407,1.339844 0,1.530416 0.5306495,2.896807 1.5742188,3.851562 0.00194,0.002 0.0039,0.0039 0.00586,0.0059 1.0929081,0.979063 2.634963,1.40039 4.4863281,1.40039 H 20.787109 v 4.083985 c 0,1.491602 0.340855,2.767014 1.148438,3.693359 0.0058,0.0066 0.01163,0.0131 0.01758,0.01953 0.798768,0.867234 1.926479,1.328125 3.146484,1.328125 1.228802,0 2.357906,-0.44262 3.146485,-1.300781 0.0026,-0.0032 0.0052,-0.0065 0.0078,-0.0098 0.821787,-0.918468 1.158203,-2.206549 1.158203,-3.730469 v -4.083985 h 0.708985 c 1.474842,0 2.683064,-0.232779 3.607422,-0.865234 0.0046,-0.0032 0.0091,-0.0065 0.01367,-0.0098 0.942345,-0.66956 1.419922,-1.809902 1.419922,-3.058593 0,-1.484805 -0.618977,-2.801333 -1.824218,-3.339844 -1.006535,-0.45793 -2.235101,-0.650391 -3.703125,-0.650391 H 29.412109 V 7.859375 c 0,-1.7024189 -0.370118,-3.124449 -1.257812,-4.140625 C 27.266603,2.702574 25.91594,2.2246094 24.369141,2.2246094 Z M 20.787109,15.914063 v 11.904296 h -8.810546 z"
     id="text1"
     transform="scale(1.0007071,0.9992934)"
     sodipodi:nodetypes="scccsccsccscsccsccscsccscscssscccc" />
  <path
     style="color:#000000;-inkscape-font-specification:'Arial Rounded MT Bold, Normal';fill:#204a87;stroke-linecap:round;stroke-linejoin:round;-inkscape-stroke:none"
     d="m 36.085937,17.990234 c -1.538204,0 -2.921885,0.227898 -4.136718,0.712891 -8.94e-4,3.52e-4 -0.0011,0.0016 -0.002,0.002 -1.167836,0.46003 -2.171459,1.082914 -2.978516,1.876953 l -0.0059,0.0059 c -0.774681,0.774681 -1.373554,1.656719 -1.775391,2.628906 -0.391959,0.948288 -0.599609,1.893782 -0.599609,2.820312 0,0.830335 0.271076,1.634358 0.83789,2.201172 0.543378,0.543378 1.306121,0.837891 2.082031,0.837891 0.844333,0 1.674396,-0.320826 2.19336,-0.960938 0.446941,-0.538425 0.783492,-1.218997 1.068359,-2.048828 0.264329,-0.734081 0.525529,-1.261926 0.47461,-1.185547 l 0.0039,-0.0078 c 0.71806,-1.101026 1.518149,-1.539063 2.736328,-1.539063 0.565251,0 1.048401,0.119963 1.503906,0.365235 0.002,0.0013 0.0039,0.0026 0.0059,0.0039 0.460571,0.24332 0.791344,0.558372 1.048828,0.996094 0.0038,0.0066 0.0077,0.01307 0.01172,0.01953 0.258795,0.41741 0.388672,0.877279 0.388672,1.455078 0,0.518598 -0.126153,1.06692 -0.408203,1.669922 -6.73e-4,0.002 -0.0013,0.0039 -0.002,0.0059 -0.269728,0.587624 -0.681103,1.190368 -1.251953,1.802735 -6.67e-4,-1e-6 -0.0013,-1e-6 -0.002,0 -0.35035,0.376301 -0.764941,0.76058 -1.244888,1.15022 -1.214594,1.002009 -2.275298,1.790143 -3.643783,3.006028 -1.074581,0.984352 -2.245608,2.14756 -3.547682,3.459004 -0.950138,0.956976 -1.340497,1.535167 -1.778332,2.478352 -3.05e-4,6.67e-4 3.05e-4,0.0013 0,0.002 -4.12e-4,9.15e-4 -0.0015,10e-4 -0.002,0.002 -0.336419,0.735856 -0.542969,1.366558 -0.542969,2.009766 0,0.872395 0.366359,1.712061 0.992188,2.33789 l 0.0078,0.0078 c 0.678115,0.661969 1.628973,0.966797 2.654297,0.966797 h 12.578125 c 0.910371,0 1.766623,-0.255241 2.351563,-0.873047 0.528822,-0.548334 0.824218,-1.298725 0.824218,-2.064453 0,-0.859582 -0.388058,-1.701694 -1.060547,-2.226563 C 44.172705,39.366272 43.272689,39.16413 42.255813,39.16413 H 35.35347 c 0.616535,-0.674246 1.472816,-1.514561 2.93164,-2.710937 l 0.002,-0.002 c 1.723524,-1.403961 2.951036,-2.431733 3.703125,-3.101563 0.002,-0.0013 0.0039,-0.0026 0.0059,-0.0039 0.819385,-0.742568 1.580142,-1.720071 2.308593,-2.925781 l 0.002,-0.002 C 45.099708,29.112322 45.5,27.638431 45.5,26.070312 c 0,-1.01666 -0.19465,-2.007291 -0.580078,-2.947265 -0.371745,-0.9456 -0.904971,-1.791986 -1.589844,-2.515625 -0.684199,-0.722927 -1.488354,-1.299531 -2.392578,-1.712891 -0.0033,-0.0013 -0.0065,-0.0026 -0.0098,-0.0039 -1.38061,-0.613604 -3.000595,-0.900391 -4.841797,-0.900391 z"
     id="text2"
     sodipodi:nodetypes="cscccssssccccsccccsccccccssccsccsscssscccccccscscccc" />
</svg>
