<?xml version="1.0" encoding="UTF-8" standalone="no"?>
<svg
   fill="none"
   viewBox="0 0 48 48"
   height="256"
   width="256"
   version="1.1"
   id="svg6"
   sodipodi:docname="padding.svg"
   inkscape:version="1.3.2 (091e20e, 2023-11-25, custom)"
   xmlns:inkscape="http://www.inkscape.org/namespaces/inkscape"
   xmlns:sodipodi="http://sodipodi.sourceforge.net/DTD/sodipodi-0.dtd"
   xmlns="http://www.w3.org/2000/svg"
   xmlns:svg="http://www.w3.org/2000/svg">
  <defs
     id="defs10" />
  <sodipodi:namedview
     id="namedview8"
     pagecolor="#ffffff"
     bordercolor="#666666"
     borderopacity="1.0"
     inkscape:showpageshadow="2"
     inkscape:pageopacity="0.0"
     inkscape:pagecheckerboard="true"
     inkscape:deskcolor="#d1d1d1"
     showgrid="true"
     inkscape:zoom="1.1449053"
     inkscape:cx="239.3211"
     inkscape:cy="118.78712"
     inkscape:current-layer="svg6"
     showguides="false"
     inkscape:window-width="3840"
     inkscape:window-height="1476"
     inkscape:window-x="-12"
     inkscape:window-y="-12"
     inkscape:window-maximized="1">
    <inkscape:grid
       type="xygrid"
       id="grid239"
       units="px"
       spacingx="1.5"
       spacingy="1.5"
       originx="0"
       originy="0"
       visible="true" />
  </sodipodi:namedview>
  <path
     id="rect2-1-8"
     style="fill:#2e3436;fill-opacity:1;stroke-width:0.0708662;stroke-linecap:round;stroke-linejoin:round"
     d="M 25.218018,6 C 20.31535,10.833134 19.134535,11.923738 15.529175,15.529175 11.923688,19.134583 10.833016,20.315479 6,25.218018 v 9.427368 C 6.1560963,34.539492 6.3040035,34.415363 6.440918,34.281006 9.2900093,31.484212 15.770935,25.170818 20.470825,20.470825 25.170816,15.770935 31.484608,9.2896855 34.281372,6.4405518 34.415635,6.3037856 34.539225,6.1559371 34.64502,6 Z"
     sodipodi:nodetypes="ccccccscc" />
  <path
     id="rect2-1-4"
     style="fill:#2e3436;fill-opacity:1;stroke-width:0.0708662;stroke-linecap:round;stroke-linejoin:round"
     d="m 42,13.330811 c -0.170632,0.138859 -0.329334,0.278644 -0.440552,0.387817 -2.849132,2.796765 -9.330382,9.110556 -14.030273,13.810547 C 22.829184,32.229064 16.515789,38.709989 13.718994,41.559082 13.584751,41.695865 13.461179,41.844062 13.355347,42 h 9.427002 c 4.902568,-4.833047 6.083135,-5.923755 9.688476,-9.529175 C 36.076194,28.865534 37.166834,27.685048 42,22.782349 Z"
     sodipodi:nodetypes="ccccccccc" />
  <path
     id="path1461-2"
     style="fill:#2e3436;fill-opacity:1;stroke:none;stroke-width:1.875;stroke-linecap:round;stroke-linejoin:round"
     d="m 30.991689,1.0002842 c -0.523857,0.01276 -1.026637,0.320346 -1.432254,0.718504 C 26.7103,4.5155562 20.229059,10.82934 15.529163,15.529336 10.829167,20.22923 4.5157804,26.710145 1.7189834,29.559241 c -0.53083,0.54087 -0.900791,1.254227 -0.625494,1.960327 0.204301,0.5242 0.608399,1.205789 1.394898,1.992188 0.786396,0.786502 1.467985,1.1906 1.992187,1.394897 0.706096,0.275303 1.419427,-0.09469 1.960328,-0.625489 C 9.2899974,31.484367 15.770913,25.17098 20.470808,20.470983 25.170803,15.771088 31.484589,9.2898472 34.281356,6.4407102 c 0.530901,-0.540801 0.900346,-1.254236 0.625126,-1.960325 -0.20432,-0.524189 -0.608062,-1.205728 -1.39453,-1.992187 -0.78646,-0.786469 -1.467998,-1.190211 -1.992187,-1.394531 -0.176524,-0.0688 -0.353458,-0.09764 -0.528076,-0.09338 z"
     sodipodi:nodetypes="sccccccccsscss" />
  <path
     id="path1461-2-2"
     style="fill:#2e3436;fill-opacity:1;stroke:none;stroke-width:1.875;stroke-linecap:round;stroke-linejoin:round"
     d="m 42.991689,13.000284 c -0.523857,0.01276 -1.026637,0.320346 -1.432254,0.718504 -2.849135,2.796768 -9.330376,9.110552 -14.030272,13.810548 -4.699996,4.699894 -11.013383,11.180809 -13.81018,14.029905 -0.53083,0.54087 -0.900791,1.254227 -0.625494,1.960327 0.204301,0.5242 0.608399,1.205789 1.394898,1.992188 0.786396,0.786502 1.467985,1.1906 1.992187,1.394897 0.706096,0.275303 1.419427,-0.09469 1.960328,-0.625489 2.849095,-2.796797 9.330011,-9.110184 14.029906,-13.810181 4.699995,-4.699895 11.013781,-11.181136 13.810548,-14.030273 0.530901,-0.540801 0.900346,-1.254236 0.625126,-1.960325 -0.20432,-0.524189 -0.608062,-1.205728 -1.39453,-1.992187 -0.78646,-0.786469 -1.467998,-1.190211 -1.992187,-1.394531 -0.176524,-0.0688 -0.353458,-0.09764 -0.528076,-0.09338 z"
     sodipodi:nodetypes="sccccccccsscss" />
  <path
     id="path2"
     style="fill:#2e3436;fill-opacity:1;stroke:none;stroke-width:1.875;stroke-linecap:round;stroke-linejoin:round"
     d="M 7.4952393 0.27429199 C 6.9713838 0.28705198 6.4686049 0.59464025 6.0629883 0.99279785 C 5.4861839 1.5590013 4.3331562 2.6879524 3.50354 3.4998779 C 2.6915849 4.3295241 1.5626793 5.4825047 0.99645996 6.0593262 C 0.46555949 6.600127 0.096118166 7.313566 0.37133789 8.0196533 C 0.57565769 8.5438416 0.979403 9.2253832 1.7658691 10.011841 C 2.5523274 10.798309 3.2338682 11.202052 3.7580566 11.406372 C 3.9345795 11.475172 4.111515 11.504016 4.2861328 11.499756 C 4.8099883 11.486996 5.3127672 11.179408 5.7183838 10.78125 C 6.2951882 10.215047 7.4482159 9.0860949 8.277832 8.2741699 C 9.0897872 7.4445238 10.218693 6.2915438 10.784912 5.7147217 C 11.315813 5.1739217 11.685254 4.4604821 11.410034 3.7543945 C 11.205714 3.2302066 10.801969 2.5486644 10.015503 1.762207 C 9.2290449 0.97573869 8.5475039 0.57199558 8.0233154 0.36767578 C 7.8467926 0.29887585 7.6698571 0.270032 7.4952393 0.27429199 z " />
  <path
     id="path2-81"
     style="fill:#2e3436;fill-opacity:1;stroke:none;stroke-width:1.875;stroke-linecap:round;stroke-linejoin:round"
     d="m 43.604553,36.387268 c -0.523855,0.01276 -1.026634,0.320348 -1.432251,0.718506 -0.576804,0.566203 -1.729832,1.695154 -2.559448,2.50708 -0.811955,0.829646 -1.940861,1.982627 -2.50708,2.559448 -0.530901,0.540801 -0.900342,1.25424 -0.625122,1.960327 0.20432,0.524189 0.608065,1.20573 1.394531,1.992188 0.786458,0.786468 1.467999,1.190211 1.992188,1.394531 0.176522,0.0688 0.353458,0.09764 0.528076,0.09338 0.523855,-0.01276 1.026634,-0.320348 1.432251,-0.718506 0.576804,-0.566199 1.729832,-1.695151 2.559448,-2.507076 0.811955,-0.829646 1.940861,-1.982626 2.50708,-2.559448 0.530901,-0.5408 0.900342,-1.25424 0.625122,-1.960327 -0.20432,-0.524188 -0.608065,-1.205731 -1.394531,-1.992188 -0.786458,-0.786468 -1.467999,-1.190211 -1.992188,-1.394531 -0.176522,-0.0688 -0.353458,-0.09764 -0.528076,-0.09338 z" />
  <path
     id="path2-8"
     style="fill:#2e3436;fill-opacity:1;stroke:none;stroke-width:1.875;stroke-linecap:round;stroke-linejoin:round"
     d="M 19.863647 0.026733398 C 19.339788 0.039493386 18.837006 0.34708166 18.431396 0.74523926 C 17.854587 1.3114427 16.701567 2.4403931 15.871948 3.2523193 L 3.2687988 15.854736 C 2.4568436 16.684382 1.3279382 17.837363 0.76171875 18.414185 C 0.23081828 18.954986 -0.13862309 19.668424 0.13659668 20.374512 C 0.34091648 20.8987 0.74466175 21.580242 1.5311279 22.366699 C 2.3175861 23.153167 2.999127 23.556911 3.5233154 23.76123 C 3.6998383 23.83003 3.8767738 23.858874 4.0513916 23.854614 C 4.5752471 23.841854 5.078026 23.534266 5.4836426 23.136108 C 6.060447 22.569905 7.2134746 21.440954 8.0430908 20.629028 L 20.64624 8.0266113 C 21.458199 7.1969655 22.587101 6.0439855 23.15332 5.4671631 C 23.68422 4.9263636 24.053662 4.2129242 23.778442 3.5068359 C 23.574123 2.9826485 23.17038 2.3011057 22.383911 1.5146484 C 21.597452 0.72818018 20.915913 0.32443698 20.391724 0.12011719 C 20.215204 0.051317256 20.038267 0.022473403 19.863647 0.026733398 z " />
  <path
     id="path3"
     style="fill:#2e3436;fill-opacity:1;stroke:none;stroke-width:1.875;stroke-linecap:round;stroke-linejoin:round"
     d="m 43.863647,24.026733 c -0.523859,0.01276 -1.026641,0.320349 -1.432251,0.718506 -0.576809,0.566204 -1.729829,1.695154 -2.559448,2.50708 L 27.268799,39.854736 c -0.811955,0.829646 -1.940861,1.982627 -2.50708,2.559449 -0.530901,0.540801 -0.900342,1.254239 -0.625122,1.960327 0.20432,0.524188 0.608065,1.20573 1.394531,1.992187 0.786458,0.786468 1.467999,1.190212 1.992187,1.394531 0.176523,0.0688 0.353459,0.09764 0.528077,0.09338 0.523855,-0.01276 1.026634,-0.320348 1.432251,-0.718506 0.576804,-0.566203 1.729832,-1.695154 2.559448,-2.50708 L 44.64624,32.026611 c 0.811959,-0.829645 1.940861,-1.982625 2.50708,-2.559448 0.5309,-0.540799 0.900342,-1.254239 0.625122,-1.960327 -0.204319,-0.524187 -0.608062,-1.20573 -1.394531,-1.992188 -0.786459,-0.786468 -1.467998,-1.190211 -1.992187,-1.394531 -0.17652,-0.0688 -0.353457,-0.09764 -0.528077,-0.09338 z" />
  <path
     id="path4"
     style="fill:#2e3436;fill-opacity:1;stroke:none;stroke-width:1.875;stroke-linecap:round;stroke-linejoin:round"
     d="M 43.737671 0.27722168 C 43.213816 0.28998166 42.711037 0.59757034 42.30542 0.99572754 C 42.15477 1.143609 41.859249 1.4325158 41.651733 1.6358643 C 41.624104 1.661829 41.583162 1.6953507 41.559448 1.7186279 C 41.38589 1.8889963 40.664936 2.6013738 40.423828 2.838501 C 40.197112 3.0604229 40.00862 3.2452818 39.802734 3.4467773 C 39.802111 3.4488525 39.801527 3.4505629 39.800903 3.4526367 C 35.715121 7.4736048 25.785737 17.272523 21.529175 21.529175 C 17.258641 25.799616 7.3903042 35.799827 3.3988037 39.855835 C 3.3965655 39.856639 3.3944519 39.857226 3.3922119 39.858032 C 2.5802577 40.687681 1.4447585 41.801476 0.87854004 42.378296 C 0.34763957 42.919095 -0.021801756 43.632534 0.25341797 44.338623 C 0.45773776 44.862803 0.86148394 45.544351 1.6479492 46.330811 C 2.4344064 47.11727 3.1159482 47.521022 3.6401367 47.725342 C 3.8166585 47.794142 3.9935951 47.822926 4.1682129 47.818726 C 4.6920674 47.805926 5.1948473 47.498379 5.6004639 47.10022 C 5.7788784 46.925085 6.138905 46.572179 6.4075928 46.308472 C 6.4180547 46.298448 6.4305807 46.29115 6.440918 46.281006 C 6.585934 46.138652 7.1971439 45.534742 7.3897705 45.345337 C 7.6933307 45.047687 7.9492965 44.795995 8.210083 44.540771 C 8.2102258 44.539151 8.2103068 44.53763 8.2104492 44.536011 C 12.302091 40.509196 22.217072 30.724671 26.470825 26.470825 C 30.720774 22.220967 40.486014 12.325387 44.520996 8.2254639 C 44.523195 8.2248763 44.525021 8.2245871 44.527222 8.223999 C 45.339175 7.3943548 46.461125 6.2944722 47.027344 5.7176514 C 47.558243 5.1768524 47.927686 4.4634108 47.652466 3.7573242 C 47.448146 3.2331382 47.044399 2.5515921 46.257935 1.7651367 C 45.471477 0.97867036 44.789936 0.57492505 44.265747 0.37060547 C 44.089225 0.30180561 43.912289 0.27296168 43.737671 0.27722168 z " />
</svg>
