<?xml version="1.0" encoding="UTF-8" standalone="no"?>
<svg
   fill="none"
   viewBox="0 0 48 48"
   height="256"
   width="256"
   version="1.1"
   id="svg6"
   sodipodi:docname="pointer_q.svg"
   inkscape:version="1.3.2 (091e20e, 2023-11-25, custom)"
   xmlns:inkscape="http://www.inkscape.org/namespaces/inkscape"
   xmlns:sodipodi="http://sodipodi.sourceforge.net/DTD/sodipodi-0.dtd"
   xmlns="http://www.w3.org/2000/svg"
   xmlns:svg="http://www.w3.org/2000/svg">
  <path
     style="font-size:41.25px;line-height:0.9;font-family:'Arial Rounded MT Bold';-inkscape-font-specification:'Arial Rounded MT Bold, Normal';text-align:center;text-anchor:middle;fill:#2e3436;stroke-width:0.0708661;stroke-linecap:round;stroke-linejoin:round"
     d="m 40.994101,14.110851 v 0.664673 q -1.550903,-1.913452 -3.222656,-2.799682 -1.671753,-0.906373 -3.786621,-0.906373 -2.537842,0 -4.672852,1.309205 -2.13501,1.309204 -3.363647,3.826904 -1.24878,2.5177 -1.24878,5.961914 0,2.537842 0.725098,4.672851 0.704956,2.114869 1.953735,3.565064 1.24878,1.430054 2.960816,2.215576 1.691894,0.765381 3.64563,0.765381 2.356567,0 3.967895,-0.946655 1.591187,-0.946656 3.041382,-2.779541 v 8.258056 q 0,3.625489 2.63855,3.625489 1.550903,0 2.054443,-0.946656 0.50354,-0.926513 0.50354,-2.719116 V 14.151134 q 0,-1.571044 -0.684814,-2.336425 -0.684815,-0.785523 -1.873169,-0.785523 -1.168213,0 -1.893311,0.805664 -0.745239,0.785523 -0.745239,2.276001 z m -10.775757,7.996216 q 0,-2.175293 0.664673,-3.726196 0.664673,-1.571045 1.853027,-2.396851 1.168213,-0.845947 2.598267,-0.845947 2.276001,0 3.847046,1.792603 1.550903,1.792602 1.550903,5.277099 0,3.283081 -1.550903,5.115967 -1.550904,1.812744 -3.847046,1.812744 -1.369629,0 -2.537842,-0.785522 Q 31.628256,27.5453 30.9233,25.954113 30.218344,24.362926 30.218344,22.107067 Z"
     id="text1"
     aria-label="p" />
  <defs
     id="defs10" />
  <sodipodi:namedview
     id="namedview8"
     pagecolor="#ffffff"
     bordercolor="#666666"
     borderopacity="1.0"
     inkscape:showpageshadow="2"
     inkscape:pageopacity="0.0"
     inkscape:pagecheckerboard="true"
     inkscape:deskcolor="#d1d1d1"
     showgrid="true"
     inkscape:zoom="2.2898106"
     inkscape:cx="215.30165"
     inkscape:cy="103.50201"
     inkscape:current-layer="svg6"
     showguides="false"
     inkscape:window-width="3840"
     inkscape:window-height="1476"
     inkscape:window-x="-12"
     inkscape:window-y="-12"
     inkscape:window-maximized="1">
    <inkscape:grid
       type="xygrid"
       id="grid239"
       units="px"
       spacingx="1.5"
       spacingy="1.5"
       originx="0"
       originy="0"
       visible="true" />
  </sodipodi:namedview>
  <path
     id="path335"
     style="font-size:32.9839px;line-height:1.25;font-family:'Arial Rounded MT Bold';-inkscape-font-specification:'Arial Rounded MT Bold, Normal';word-spacing:0px;fill:#a40000;fill-opacity:1;stroke-width:0.20615"
     d="m 11.657467,13.174137 c -0.581639,0 -1.061265,0.21253 -1.438545,0.636971 -0.3615587,0.408717 -0.5420677,0.904086 -0.5420677,1.485723 0,0.471599 0.06245,1.351599 0.188195,2.640635 0.1414767,1.273316 0.3146547,2.405204 0.5190147,3.395561 C 9.2679469,20.798549 8.2698748,20.318925 7.3895561,19.894484 6.5249607,19.454325 5.8097252,19.124258 5.2438066,18.90418 4.6778896,18.668379 4.2061344,18.550843 3.8288564,18.550843 c -0.5187584,0 -0.982641,0.188379 -1.3913606,0.56566 -0.3929981,0.361557 -0.5892506,0.81757 -0.5892506,1.367768 0,0.282957 0.086045,0.597282 0.2589701,0.943121 0.1886405,0.330122 0.3775563,0.542117 0.5661953,0.636435 1.1632757,0.487316 2.2636787,0.856741 3.3011956,1.10826 1.0375182,0.25152 2.2166355,0.479793 3.5371097,0.684153 -1.5719945,1.446235 -3.0811786,3.151671 -4.5274151,5.116666 -0.157199,0.220079 -0.2359148,0.542275 -0.2359148,0.966714 0,0.455876 0.1889172,0.888274 0.5661953,1.296992 0.3929996,0.392997 0.8799607,0.589251 1.461597,0.589251 0.4873201,0 0.9197172,-0.172639 1.296994,-0.518477 0.3772805,-0.361555 0.7703175,-0.888412 1.1790386,-1.580091 0.4087194,-0.691675 1.2105391,-2.122148 2.4052561,-4.291499 1.178993,2.405152 2.137709,4.071766 2.876548,4.999243 0.754558,0.927477 1.430432,1.390825 2.027793,1.390825 0.597357,0 1.084856,-0.188381 1.462134,-0.56566 0.377279,-0.377278 0.56566,-0.817546 0.56566,-1.320584 0,-0.393 -0.08604,-0.723066 -0.258971,-0.990306 -0.1572,-0.28296 -0.44791,-0.668127 -0.87235,-1.155445 -0.424436,-0.487318 -0.75504,-0.8961 -0.990838,-1.226221 -0.03144,-0.04716 -0.369378,-0.408714 -1.0139,-1.084669 -0.644514,-0.675959 -1.186577,-1.218021 -1.626736,-1.62674 2.436592,-0.361559 4.668882,-0.943514 6.696755,-1.745231 0.220081,-0.09431 0.424202,-0.306314 0.612842,-0.636434 0.204359,-0.345837 0.306689,-0.675906 0.306689,-0.990304 0,-0.550198 -0.204658,-1.00621 -0.613377,-1.367768 -0.393002,-0.37728 -0.864217,-0.56566 -1.414416,-0.56566 -0.33012,0 -0.770386,0.109659 -1.320585,0.329744 -0.550197,0.22008 -1.289049,0.56589 -2.216526,1.037488 -0.927475,0.471599 -1.901936,0.943354 -2.923731,1.414952 0.125766,-1.021796 0.235427,-1.925948 0.329744,-2.711945 0.110049,-0.801717 0.188751,-1.477595 0.235913,-2.027793 0.06289,-0.565918 0.09437,-0.943215 0.09437,-1.131853 0,-0.691677 -0.18838,-1.241611 -0.565657,-1.650328 -0.361555,-0.424441 -0.825437,-0.636971 -1.391352,-0.636971 z"
     sodipodi:nodetypes="scsccccscsccsccscscsccssscscscccscssscccscs" />
</svg>
