<?xml version="1.0" encoding="UTF-8" standalone="no"?>
<svg
   fill="none"
   viewBox="0 0 48 48"
   height="256"
   width="256"
   version="1.1"
   id="svg6"
   sodipodi:docname="pointer_inc.svg"
   inkscape:version="1.3.2 (091e20e, 2023-11-25, custom)"
   xmlns:inkscape="http://www.inkscape.org/namespaces/inkscape"
   xmlns:sodipodi="http://sodipodi.sourceforge.net/DTD/sodipodi-0.dtd"
   xmlns="http://www.w3.org/2000/svg"
   xmlns:svg="http://www.w3.org/2000/svg">
  <defs
     id="defs10" />
  <sodipodi:namedview
     id="namedview8"
     pagecolor="#ffffff"
     bordercolor="#666666"
     borderopacity="1.0"
     inkscape:showpageshadow="2"
     inkscape:pageopacity="0.0"
     inkscape:pagecheckerboard="true"
     inkscape:deskcolor="#d1d1d1"
     showgrid="true"
     inkscape:zoom="1.4142136"
     inkscape:cx="450.42702"
     inkscape:cy="178.89802"
     inkscape:current-layer="svg6"
     showguides="false"
     inkscape:window-width="3840"
     inkscape:window-height="1476"
     inkscape:window-x="-12"
     inkscape:window-y="-12"
     inkscape:window-maximized="1">
    <inkscape:grid
       type="xygrid"
       id="grid239"
       units="px"
       spacingx="1.5"
       spacingy="1.5"
       originx="0"
       originy="0"
       visible="true" />
  </sodipodi:namedview>
  <path
     style="font-size:41.25px;line-height:0.9;font-family:'Arial Rounded MT Bold';-inkscape-font-specification:'Arial Rounded MT Bold, Normal';text-align:center;text-anchor:middle;fill:#2e3436;stroke-width:0.0708663;stroke-linecap:round;stroke-linejoin:round"
     d="m 16.314222,17.455465 v 0.538385 q 1.055265,-1.549896 2.192759,-2.267743 1.137495,-0.734162 2.576493,-0.734162 1.7268,0 3.179503,1.060456 1.452704,1.060456 2.288691,3.099793 0.849696,2.039337 0.849696,4.82915 0,2.055652 -0.493371,3.785009 -0.479666,1.713044 -1.32936,2.887702 -0.849695,1.158344 -2.014599,1.794617 -1.1512,0.619958 -2.48056,0.619958 -1.603455,0 -2.699835,-0.76679 -1.082675,-0.766792 -2.069417,-2.251429 v 6.689026 q 0,2.936646 -1.795322,2.936646 -1.055267,0 -1.397886,-0.766791 -0.342619,-0.750476 -0.342619,-2.202484 V 17.488094 q 0,-1.272546 0.465962,-1.892504 0.465962,-0.636274 1.274543,-0.636274 0.794875,0 1.288246,0.652588 0.507076,0.636274 0.507076,1.843561 z m 7.332041,6.476935 q 0,-1.761988 -0.452257,-3.018219 -0.452257,-1.272547 -1.260837,-1.941449 -0.794875,-0.685217 -1.767913,-0.685217 -1.548637,0 -2.617607,1.452008 -1.055266,1.452008 -1.055266,4.27445 0,2.659296 1.055266,4.143933 1.055266,1.468323 2.617607,1.468323 0.931923,0 1.726798,-0.636273 0.794877,-0.652588 1.274542,-1.941449 0.479667,-1.288862 0.479667,-3.116107 z"
     id="text1"
     aria-label="p" />
  <path
     id="path335"
     style="font-size:32.9839px;line-height:1.25;font-family:'Arial Rounded MT Bold';-inkscape-font-specification:'Arial Rounded MT Bold, Normal';word-spacing:0px;fill:#a40000;fill-opacity:1;stroke-width:0.20615"
     d="m 5.812054,17.892101 c -0.3446264,0 -0.6288093,0.17215 -0.8523511,0.515947 -0.2142269,0.331061 -0.3211801,0.73231 -0.3211801,1.203436 0,0.381995 0.037002,1.094795 0.1115073,2.138914 0.083826,1.031386 0.1864358,1.948215 0.3075209,2.750404 C 4.3962414,24.067875 3.8048745,23.67938 3.2832776,23.335582 2.7709969,22.979054 2.3472133,22.711699 2.0119013,22.533436 1.6765903,22.342437 1.397071,22.247233 1.1735304,22.247233 c -0.30736924,0 -0.58222394,0.152587 -0.82439404,0.458185 C 0.11628141,22.998279 0,23.36765 0,23.81331 c 0,0.229195 0.0509825,0.483798 0.15344216,0.763928 0.11177123,0.267399 0.2237056,0.439115 0.3354759,0.515512 0.68925154,0.394726 1.34125044,0.69396 1.95598874,0.897691 0.6147391,0.203731 1.3133769,0.388632 2.09577,0.554164 -0.9314212,1.17145 -1.8256266,2.552853 -2.682535,4.144499 -0.093142,0.178264 -0.1397817,0.439243 -0.1397817,0.783039 0,0.369259 0.1119352,0.719502 0.3354759,1.050563 0.2328559,0.318328 0.5213848,0.477293 0.8660096,0.477293 0.2887417,0 0.5449409,-0.139837 0.7684809,-0.419966 0.2235421,-0.292859 0.4564202,-0.719614 0.6985912,-1.279874 0.24217,-0.560256 0.7172555,-1.71894 1.4251363,-3.476114 0.6985642,1.948173 1.2666122,3.298131 1.7043811,4.049387 C 7.9635176,32.624688 8.3639792,33 8.7179211,33 c 0.3539395,0 0.6427875,-0.152588 0.8663275,-0.458184 0.223542,-0.305596 0.335159,-0.662213 0.335159,-1.069673 0,-0.31833 -0.05098,-0.585684 -0.153443,-0.802148 -0.09314,-0.229198 -0.26539,-0.541183 -0.5168751,-0.935911 C 8.9976073,29.339357 8.8017214,29.008243 8.6620089,28.740845 8.6433809,28.702645 8.4431491,28.409787 8.0612639,27.862263 7.6793834,27.314737 7.3582061,26.875666 7.0974079,26.544604 8.541111,26.251741 9.8637636,25.780358 11.065296,25.130967 c 0.1304,-0.07639 0.251344,-0.248114 0.363115,-0.515512 0.121084,-0.280128 0.181716,-0.547484 0.181716,-0.802146 0,-0.44566 -0.121262,-0.81503 -0.363432,-1.107892 -0.232857,-0.305597 -0.512056,-0.458185 -0.838054,-0.458185 -0.195599,0 -0.4564604,0.08882 -0.7824584,0.267093 C 9.3001858,22.69259 8.8624092,22.972696 8.3128705,23.35469 7.7633331,23.736686 7.185956,24.118807 6.5805331,24.500801 6.6550511,23.673147 6.7200257,22.940784 6.7759094,22.304126 6.8411144,21.654735 6.8877461,21.107274 6.91569,20.661614 6.952953,20.20322 6.971605,19.89761 6.971605,19.744813 c 0,-0.560259 -0.1116168,-1.005705 -0.3351569,-1.336766 C 6.4222234,18.06425 6.1473691,17.892101 5.8120592,17.892101 Z"
     sodipodi:nodetypes="scsccccscsccsccscscsccssscscscccscssscccscs" />
  <path
     style="color:#000000;-inkscape-font-specification:'Agency FB, Normal';fill:#2e3436;stroke-width:1;stroke-linecap:round;stroke-linejoin:round;-inkscape-stroke:none"
     d="m 32.642094,17.390623 c -0.305174,-3.92e-4 -0.552624,0.419943 -0.552392,0.938335 v 4.760135 h -2.86153 c -0.305173,-3.94e-4 -0.552623,0.419943 -0.552392,0.938334 v 2.335768 c -2.31e-4,0.518392 0.247219,0.938729 0.552392,0.938335 h 2.86153 v 4.760135 C 32.08947,32.580055 32.33692,33.000392 32.642094,33 h 1.458029 c 0.305173,3.92e-4 0.552623,-0.419945 0.552392,-0.938335 V 27.30153 h 2.861529 c 0.305174,3.94e-4 0.552624,-0.419943 0.552392,-0.938335 v -2.335768 c 2.32e-4,-0.518391 -0.247218,-0.938728 -0.552392,-0.938334 h -2.861529 v -4.760135 c 2.31e-4,-0.518392 -0.247219,-0.938727 -0.552392,-0.938335 z m 9.933564,0 c -0.305173,-3.92e-4 -0.552624,0.419943 -0.552392,0.938335 v 4.760135 h -2.86153 c -0.305173,-3.94e-4 -0.552623,0.419944 -0.552391,0.938334 v 2.335768 c -2.32e-4,0.518391 0.247218,0.938729 0.552391,0.938335 h 2.86153 v 4.760135 c -2.32e-4,0.51839 0.247219,0.938727 0.552392,0.938335 h 1.458029 c 0.305173,3.92e-4 0.552623,-0.419945 0.552391,-0.938335 V 27.30153 h 2.86153 C 47.752782,27.301924 48.000232,26.881586 48,26.363195 v -2.335768 c 2.32e-4,-0.51839 -0.247218,-0.938728 -0.552392,-0.938334 h -2.86153 v -4.760135 c 2.32e-4,-0.518392 -0.247218,-0.938727 -0.552391,-0.938335 z"
     id="path3"
     sodipodi:nodetypes="cccccccccccccccccccccccccccccccccccccccccc" />
</svg>
