<?xml version="1.0" encoding="UTF-8" standalone="no"?>
<svg
   fill="none"
   viewBox="0 0 48.000003 48.000003"
   height="256"
   width="256"
   version="1.1"
   id="svg4"
   sodipodi:docname="ptr_to_struct.svg"
   inkscape:version="1.3.2 (091e20e, 2023-11-25, custom)"
   xmlns:inkscape="http://www.inkscape.org/namespaces/inkscape"
   xmlns:sodipodi="http://sodipodi.sourceforge.net/DTD/sodipodi-0.dtd"
   xmlns="http://www.w3.org/2000/svg"
   xmlns:svg="http://www.w3.org/2000/svg">
  <defs
     id="defs8" />
  <sodipodi:namedview
     id="namedview6"
     pagecolor="#ffffff"
     bordercolor="#666666"
     borderopacity="1.0"
     inkscape:showpageshadow="2"
     inkscape:pageopacity="0.0"
     inkscape:pagecheckerboard="true"
     inkscape:deskcolor="#d1d1d1"
     showgrid="true"
     inkscape:zoom="2.2898106"
     inkscape:cx="35.810822"
     inkscape:cy="157.21824"
     inkscape:current-layer="svg4"
     inkscape:window-width="3840"
     inkscape:window-height="1476"
     inkscape:window-x="-12"
     inkscape:window-y="-12"
     inkscape:window-maximized="1">
    <inkscape:grid
       type="xygrid"
       id="grid11864"
       units="px"
       spacingx="0.75"
       spacingy="0.75"
       originx="0"
       originy="0"
       visible="true" />
  </sodipodi:namedview>
  <path
     fill="#204a87"
     d="m 0.04513863,41.695678 c 0.2559028,-0.693917 0.5118069,-1.387832 0.7677146,-2.081744 0.19000687,-0.529075 0.71946637,-0.593318 1.84986937,-0.345363 0.6848648,0.150225 3.2860535,0.973156 5.145483,0.747826 0.0072,-7.8e-4 0.01423,-0.0016 0.02134,-0.0024 1.485602,-0.09907 2.7621134,-0.905518 3.5755064,-1.649929 0.41079,-0.368092 0.77399,-0.771316 1.086832,-1.153109 -0.516615,-0.469138 -0.961282,-0.885893 -1.323601,-1.232731 -0.960534,-0.919669 -0.786674,-2.350683 0.576765,-3.164933 0.08977,-0.05369 0.448991,-0.269157 0.538807,-0.32275 0,0 0,0 0,0 3.177403,-1.966132 4.948942,-2.824837 6.66312,-3.345176 1.00308,-0.30444 1.74404,0.310307 1.829099,1.341775 0.09082,1.101229 0.31972,4.329756 -0.04796,7.579863 0,0 0,0 0,0 -0.0203,0.223996 -0.04529,0.455448 -0.07614,0.693591 -0.237449,1.832766 -2.075582,3.28925 -3.242954,2.48617 -0.462432,-0.318156 -0.994743,-0.71234 -1.622091,-1.212092 -0.387299,0.495622 -0.856096,1.043667 -1.413847,1.594557 -1.289682,1.253396 -3.309335,2.528389 -5.9915284,2.790254 -0.01122,7.59e-4 -0.02237,0.0015 -0.03354,0.0024 C 5.0444934,44.655944 2.3382128,43.648416 1.4180157,43.223421 0.20106703,42.661371 -0.13435687,42.210107 0.04515403,41.695696 Z"
     id="path10"
     sodipodi:nodetypes="ccccccccccccc"
     style="fill:#204a87;fill-opacity:1;stroke-width:1" />
  <g
     id="g1"
     transform="matrix(0.9,0,0,0.9,4.800003,0)"
     style="stroke-width:1.11111">
    <path
       id="rect504"
       style="fill:#555753;fill-opacity:1;stroke-width:0.208333;stroke-linecap:round;stroke-linejoin:round"
       d="m 20.949956,16.812501 c -0.107588,7.44e-4 -0.217004,0.01112 -0.529175,0.02857 -0.612859,0.04195 -1.03984,0.539715 -1.06311,1.153564 -0.0204,0.537999 -0.03845,9.926352 -0.03845,10.94275 0,1.016398 0.01624,10.441738 0.03664,10.979736 0.02327,0.61385 0.450246,1.111615 1.06311,1.153565 0.106802,0.0072 0.166736,0.01136 0.233277,0.01575 h 0.155251 c 0.538385,0 5.051352,0.03845 6.06775,0.03845 1.016397,0 3.654749,-0.01805 4.192749,-0.03845 0.613848,-0.02327 1.111614,-0.449881 1.153564,-1.062744 0.04085,-0.608939 0.0349,-0.422663 0,-1.046997 -0.04195,-0.612899 -0.539716,-1.03981 -1.153564,-1.06311 -0.538,-0.0204 -3.176352,-0.03845 -4.192749,-0.03845 -1.016398,0 -3.654751,0.01805 -4.19275,0.03845 -0.04607,0.0017 -0.09161,0.0059 -0.13623,0.01209 0.01337,-2.94581 0.02307,-8.237635 0.02307,-8.988282 0,-0.416825 -0.0038,-2.315841 -0.0088,-4.36084 0.03999,0.0051 0.08081,0.0083 0.121948,0.0099 0.537999,0.02039 3.176352,0.03845 4.19275,0.03845 1.016397,0 3.654749,-0.01805 4.192749,-0.03845 0.613848,-0.02327 1.111614,-0.449881 1.153564,-1.062744 0.04085,-0.608939 0.0349,-0.422663 0,-1.046997 -0.04195,-0.612899 -0.539716,-1.03981 -1.153564,-1.06311 -0.538,-0.0204 -3.176352,-0.03845 -4.192749,-0.03845 -1.016398,0 -3.654751,0.01805 -4.19275,0.03845 -0.04442,0.0017 -0.08839,0.0055 -0.13147,0.01135 -0.0061,-1.729991 -0.01266,-3.232871 -0.02014,-3.430298 -0.0233,-0.613849 -0.450262,-1.111615 -1.063111,-1.153564 -0.304473,-0.02043 -0.410234,-0.02931 -0.517822,-0.02857 z"
       sodipodi:nodetypes="sccssccssscccsscscssscccsscccs" />
    <circle
       cx="7"
       cy="-20.944096"
       r="7"
       fill="#cc0000"
       transform="rotate(90)"
       id="circle10020"
       style="fill:#cc0000;fill-opacity:1;stroke-width:1.11111" />
    <circle
       cx="23"
       cy="-41"
       r="7"
       fill="#cc0000"
       transform="rotate(90)"
       id="circle10020-2"
       style="fill:#cc0000;fill-opacity:1;stroke-width:1.11111" />
    <circle
       cx="39.5"
       cy="-41"
       r="7"
       fill="#cc0000"
       transform="rotate(90)"
       id="circle1"
       style="fill:#cc0000;fill-opacity:1;stroke-width:1.11111" />
  </g>
</svg>
