<?xml version="1.0" encoding="UTF-8" standalone="no"?>
<svg
   fill="none"
   viewBox="0 0 48 48"
   height="256"
   width="256"
   version="1.1"
   id="svg8"
   sodipodi:docname="pause.svg"
   inkscape:version="1.2.1 (9c6d41e410, 2022-07-14)"
   xmlns:inkscape="http://www.inkscape.org/namespaces/inkscape"
   xmlns:sodipodi="http://sodipodi.sourceforge.net/DTD/sodipodi-0.dtd"
   xmlns="http://www.w3.org/2000/svg"
   xmlns:svg="http://www.w3.org/2000/svg">
  <defs
     id="defs12" />
  <sodipodi:namedview
     id="namedview10"
     pagecolor="#ffffff"
     bordercolor="#111111"
     borderopacity="1"
     inkscape:showpageshadow="0"
     inkscape:pageopacity="0"
     inkscape:pagecheckerboard="1"
     inkscape:deskcolor="#d1d1d1"
     showgrid="false"
     inkscape:zoom="1.2954417"
     inkscape:cx="19.684406"
     inkscape:cy="125.43984"
     inkscape:window-width="1280"
     inkscape:window-height="650"
     inkscape:window-x="-6"
     inkscape:window-y="-6"
     inkscape:window-maximized="1"
     inkscape:current-layer="svg8" />
  <path
     fill="#fd3131"
     fill-rule="evenodd"
     d="m 5.1394482,41.8446 c 0.1698727,3.403125 2.8229978,5.686719 6.2163008,5.686719 h 2.481177 c 3.351289,0 5.96992,-2.236459 6.142387,-5.597136 0.177912,-3.471354 0.332483,-9.023177 0.332483,-17.840365 0,-8.817187 -0.154571,-14.3690101 -0.332483,-17.8403643 C 19.806846,2.8927765 17.188215,0.65631819 13.836926,0.65631819 h -2.653903 c -3.3095332,0 -5.8947093,2.19114581 -6.0700282,5.50989591 C 4.9301548,9.6315787 4.775843,15.202673 4.793738,24.093818 4.811374,32.835485 4.9659447,38.367517 5.1394482,41.8446 Z"
     clip-rule="evenodd"
     id="path6"
     sodipodi:nodetypes="csscscssccc"
     style="fill:#fd3131;fill-opacity:1;stroke:none;stroke-width:0.909094" />
  <path
     fill="#fd3131"
     fill-rule="evenodd"
     d="m 28.03533,41.8446 c 0.169872,3.403125 2.822997,5.686719 6.2163,5.686719 h 2.481178 c 3.351289,0 5.969921,-2.236459 6.142387,-5.597136 0.177912,-3.471354 0.332483,-9.023177 0.332483,-17.840365 0,-8.817187 -0.154571,-14.3690101 -0.332483,-17.8403643 C 42.702729,2.8927765 40.084097,0.65631819 36.732808,0.65631819 h -2.653903 c -3.309534,0 -5.89471,2.19114581 -6.070029,5.50989591 -0.18284,3.4653646 -0.337152,9.0364589 -0.319257,17.9276039 0.01764,8.741667 0.172207,14.273699 0.345711,17.750782 z"
     clip-rule="evenodd"
     id="path295"
     sodipodi:nodetypes="csscscssccc"
     style="fill:#fd3131;fill-opacity:1;stroke:none;stroke-width:0.909094" />
</svg>
