<?xml version="1.0" encoding="UTF-8" standalone="no"?>
<svg
   fill="none"
   viewBox="0 0 48 48"
   height="256"
   width="256"
   version="1.1"
   id="svg1979"
   sodipodi:docname="checked_pressed_no_tick.svg"
   inkscape:version="1.1.1 (3bf5ae0d25, 2021-09-20)"
   xmlns:inkscape="http://www.inkscape.org/namespaces/inkscape"
   xmlns:sodipodi="http://sodipodi.sourceforge.net/DTD/sodipodi-0.dtd"
   xmlns="http://www.w3.org/2000/svg"
   xmlns:svg="http://www.w3.org/2000/svg">
  <defs
     id="defs1983" />
  <sodipodi:namedview
     id="namedview1981"
     pagecolor="#ffffff"
     bordercolor="#666666"
     borderopacity="1.0"
     inkscape:showpageshadow="2"
     inkscape:pageopacity="0.0"
     inkscape:pagecheckerboard="0"
     inkscape:deskcolor="#d1d1d1"
     showgrid="false"
     inkscape:zoom="2.2898106"
     inkscape:cx="160.05691"
     inkscape:cy="112.018"
     inkscape:current-layer="g3902"
     inkscape:pageshadow="2"
     inkscape:window-width="1920"
     inkscape:window-height="1017"
     inkscape:window-x="-8"
     inkscape:window-y="-8"
     inkscape:window-maximized="1" />
  <g
     id="g3902"
     transform="matrix(0.9,0,0,0.9,2.4,2.4)">
    <path
       fill="#a9ff53"
       d="M 45.4187,7.30406 C 45.2065,4.74913 43.2509,2.79349 40.6959,2.58134 37.3286,2.30173 31.8713,2 24,2 16.1288,1.99999 10.6714,2.30173 7.30407,2.58133 4.74914,2.79348 2.79349,4.74912 2.58135,7.30405 2.30174,10.6714 2,16.1287 2,24 c 0,7.8712 0.30174,13.3286 0.58134,16.6959 0.21215,2.555 2.16779,4.5106 4.72272,4.7228 C 10.6714,45.6983 16.1287,46 24,46 c 7.8712,0 13.3286,-0.3017 16.6959,-0.5813 2.555,-0.2122 4.5106,-2.1678 4.7228,-4.7228 C 45.6983,37.3286 46,31.8712 46,24 46,16.1288 45.6983,10.6714 45.4187,7.30406 Z"
       id="path1975"
       style="fill:#a9ff53;fill-opacity:1" />
  </g>
</svg>
