<?xml version="1.0" encoding="UTF-8" standalone="no"?>
<svg
   fill="none"
   viewBox="0 0 48 48"
   height="256"
   width="256"
   version="1.1"
   id="svg1979"
   sodipodi:docname="checked - Copy.svg"
   inkscape:version="1.2.1 (9c6d41e410, 2022-07-14)"
   xmlns:inkscape="http://www.inkscape.org/namespaces/inkscape"
   xmlns:sodipodi="http://sodipodi.sourceforge.net/DTD/sodipodi-0.dtd"
   xmlns="http://www.w3.org/2000/svg"
   xmlns:svg="http://www.w3.org/2000/svg">
  <defs
     id="defs1983" />
  <sodipodi:namedview
     id="namedview1981"
     pagecolor="#ffffff"
     bordercolor="#666666"
     borderopacity="1.0"
     inkscape:showpageshadow="2"
     inkscape:pageopacity="0.0"
     inkscape:pagecheckerboard="0"
     inkscape:deskcolor="#d1d1d1"
     showgrid="false"
     inkscape:zoom="1.6191406"
     inkscape:cx="129.08082"
     inkscape:cy="165.2111"
     inkscape:current-layer="svg1979" />
  <g
     id="g3770"
     transform="matrix(1.0909091,0,0,1.0909091,-2.1818183,-2.1818183)">
    <path
       fill="#a9ff53"
       d="M 45.4187,7.30406 C 45.2065,4.74913 43.2509,2.79349 40.6959,2.58134 37.3286,2.30173 31.8713,2 24,2 16.1288,1.99999 10.6714,2.30173 7.30407,2.58133 4.74914,2.79348 2.79349,4.74912 2.58135,7.30405 2.30174,10.6714 2,16.1287 2,24 c 0,7.8712 0.30174,13.3286 0.58134,16.6959 0.21215,2.555 2.16779,4.5106 4.72272,4.7228 C 10.6714,45.6983 16.1287,46 24,46 c 7.8712,0 13.3286,-0.3017 16.6959,-0.5813 2.555,-0.2122 4.5106,-2.1678 4.7228,-4.7228 C 45.6983,37.3286 46,31.8712 46,24 46,16.1288 45.6983,10.6714 45.4187,7.30406 Z"
       id="path1975"
       style="fill:#a9ff53;fill-opacity:1" />
    <path
       fill="#77c32f"
       fill-rule="evenodd"
       d="m 35.2311,15.9403 c 0.5812,0.7926 0.4513,1.8599 -0.0854,2.6834 -4.3327,6.648 -7.5863,10.9743 -9.617,13.5007 -1.3301,1.655 -3.6987,1.7783 -5.2107,0.2878 -1.8646,-1.838 -4.4706,-4.5691 -7.1686,-7.9128 -0.7135,-0.8842 -0.861,-2.1253 -0.1635,-3.0222 0.546,-0.702 1.1616,-1.3109 1.7286,-1.8043 1.0487,-0.9124 2.5852,-0.7083 3.5318,0.3096 2.7282,2.9337 4.3691,4.974 4.3691,4.974 0,0 2.7289,-4.0397 7.1119,-10.2628 0.7178,-1.0192 2.0107,-1.495 3.0897,-0.8708 0.7949,0.4599 1.6988,1.1419 2.4141,2.1174 z"
       clip-rule="evenodd"
       id="path1977"
       style="fill:#77c32f;fill-opacity:1" />
  </g>
</svg>
