<?xml version="1.0" encoding="UTF-8" standalone="no"?>
<svg
   fill="none"
   viewBox="0 0 48 48"
   height="256"
   width="256"
   version="1.1"
   id="svg6"
   sodipodi:docname="balls.svg"
   inkscape:version="1.2.1 (9c6d41e410, 2022-07-14)"
   xmlns:inkscape="http://www.inkscape.org/namespaces/inkscape"
   xmlns:sodipodi="http://sodipodi.sourceforge.net/DTD/sodipodi-0.dtd"
   xmlns="http://www.w3.org/2000/svg"
   xmlns:svg="http://www.w3.org/2000/svg">
  <defs
     id="defs10" />
  <sodipodi:namedview
     id="namedview8"
     pagecolor="#ffffff"
     bordercolor="#666666"
     borderopacity="1.0"
     inkscape:showpageshadow="2"
     inkscape:pageopacity="0.0"
     inkscape:pagecheckerboard="true"
     inkscape:deskcolor="#d1d1d1"
     showgrid="true"
     inkscape:zoom="0.8095703"
     inkscape:cx="150.69723"
     inkscape:cy="52.496985"
     inkscape:current-layer="svg6"
     inkscape:window-width="1920"
     inkscape:window-height="730"
     inkscape:window-x="-6"
     inkscape:window-y="-6"
     inkscape:window-maximized="1">
    <inkscape:grid
       type="xygrid"
       id="grid239"
       units="px"
       spacingx="1.5"
       spacingy="1.5" />
  </sodipodi:namedview>
  <path
     id="rect6402"
     style="fill:#f68428;fill-opacity:1;stroke-width:3.75;stroke-linejoin:round"
     d="m 15.562134,6.3742676 c 0.02737,1.0807377 0.548728,2.1221775 1.316894,2.9095459 l 2.709595,2.7663575 c 0.906793,0.883078 1.899595,1.247834 2.357666,1.473633 L 18.450806,17.24707 C 18.071865,16.296629 17.637225,15.556823 16.766602,14.686157 L 14.069458,12.109863 C 13.262402,11.325151 12.2019,11.112471 11.326172,10.860352 Z m 17.369016,1.7449951 4.03162,3.1409913 c -0.9183,0.458543 -1.62102,0.95386 -2.41663,1.892944 l -0.60644,0.84375 c -0.71511,0.868568 -0.55786,1.623069 -0.73389,2.513306 l -4.859619,-3.80896 c 1.079369,-0.121326 1.799119,-0.413412 2.520269,-1.243652 l 0.79541,-0.872315 c 0.80484,-0.9760273 1.08319,-1.9922182 1.26928,-2.4660643 z m 1.693,16.4080813 c 0.0274,1.08074 0.54872,2.122175 1.31689,2.909546 l 2.19434,2.253296 c 0.9068,0.883079 1.89959,1.247834 2.35766,1.473632 l -3.49548,3.723267 C 36.61862,33.936642 36.18398,33.19684 35.31335,32.326172 l -2.18188,-2.063233 c -0.80706,-0.784714 -1.86756,-0.99739 -2.74329,-1.249511 z m -16.795537,0.448974 4.507691,4.216187 c -1.085884,0.02724 -2.132345,0.546141 -2.923462,1.310669 l -7.09314,7.469604 c -0.887282,0.902498 -1.253718,1.890411 -1.480591,2.346314 L 7.0979,36.840454 c 0.954967,-0.377145 1.698553,-0.809648 2.573365,-1.676147 l 6.901977,-7.45752 c 0.788449,-0.803234 1.00205,-1.858889 1.255371,-2.730469 z"
     sodipodi:nodetypes="cccccccccccccccccccccccccccccccccccc" />
  <path
     id="rect6391"
     style="fill:#ffcd5c;stroke-width:3.75;stroke-linejoin:round;fill-opacity:1"
     d="m 11.779541,2.0002441 c 2.674085,0 4.841675,2.1572047 4.841675,4.8186036 0,2.6613985 -2.16759,4.8189693 -4.841675,4.8189693 -2.674085,0 -4.842041,-2.1575708 -4.842041,-4.8189693 0,-2.6613989 2.167956,-4.8186036 4.842041,-4.8186036 z m 25.017334,0.5522461 c 2.674082,0 4.842045,2.1575736 4.842045,4.8189698 0,2.661395 -2.167963,4.81897 -4.842045,4.81897 -2.674082,0 -4.841675,-2.157575 -4.841675,-4.81897 0,-2.6613962 2.167593,-4.8189698 4.841675,-4.8189698 z M 26.326904,11.757568 c 5.34814,0 9.683716,4.315088 9.683716,9.63794 0,5.3228 -4.335576,9.637939 -9.683716,9.637939 -5.348137,0 -9.683716,-4.315139 -9.683716,-9.637939 0,-5.322852 4.335579,-9.63794 9.683716,-9.63794 z M 41.15808,30.174316 c 2.67409,0 4.84204,2.157564 4.84204,4.81897 0,2.661407 -2.16795,4.81897 -4.84204,4.81897 -2.674096,0 -4.841674,-2.157563 -4.841674,-4.81897 0,-2.661406 2.167578,-4.81897 4.841674,-4.81897 z M 6.841919,36.362183 c 2.674091,0 4.842041,2.157565 4.842041,4.818969 0,2.661405 -2.167951,4.81897 -4.842041,4.81897 -2.674092,0 -4.841675,-2.157565 -4.841675,-4.81897 0,-2.661404 2.167584,-4.818969 4.841675,-4.818969 z"
     sodipodi:nodetypes="sssssssssssssssssssssssss" />
</svg>
