<?xml version="1.0" encoding="UTF-8" standalone="no"?>
<svg
   fill="none"
   viewBox="0 0 48 48"
   height="256"
   width="256"
   version="1.1"
   id="svg10"
   sodipodi:docname="books.svg"
   inkscape:version="1.2.1 (9c6d41e410, 2022-07-14)"
   xmlns:inkscape="http://www.inkscape.org/namespaces/inkscape"
   xmlns:sodipodi="http://sodipodi.sourceforge.net/DTD/sodipodi-0.dtd"
   xmlns="http://www.w3.org/2000/svg"
   xmlns:svg="http://www.w3.org/2000/svg">
  <defs
     id="defs14" />
  <sodipodi:namedview
     id="namedview12"
     pagecolor="#ffffff"
     bordercolor="#111111"
     borderopacity="1"
     inkscape:showpageshadow="0"
     inkscape:pageopacity="0"
     inkscape:pagecheckerboard="1"
     inkscape:deskcolor="#d1d1d1"
     showgrid="false"
     inkscape:zoom="2.1445312"
     inkscape:cx="65.282332"
     inkscape:cy="128.4663"
     inkscape:window-width="1920"
     inkscape:window-height="730"
     inkscape:window-x="-6"
     inkscape:window-y="-6"
     inkscape:window-maximized="1"
     inkscape:current-layer="svg10" />
  <path
     fill="#edf1e9"
     d="M16.4674 2.27364C17.7927 2.39899 18.7851 3.44407 18.8545 4.77353C18.9939 7.4448 19.1748 12.9521 19.1748 23.5467C19.1748 34.1413 18.9939 39.6485 18.8545 42.3198C18.7851 43.6492 17.7927 44.6943 16.4674 44.8196C15.0285 44.9557 12.9757 45.0933 10.5562 45.0933C8.13657 45.0933 6.08379 44.9557 4.64496 44.8196C3.31961 44.6943 2.32718 43.6492 2.25779 42.3198C2.11838 39.6485 1.9375 34.1413 1.9375 23.5467C1.9375 12.9521 2.11838 7.4448 2.25779 4.77353C2.32718 3.44407 3.31961 2.39899 4.64496 2.27364C6.08379 2.13755 8.13657 2 10.5562 2C12.9757 2 15.0285 2.13755 16.4674 2.27364Z"
     id="path2"
     style="fill:#edf1e9;fill-opacity:1" />
  <path
     fill="#bb852e"
     fill-rule="evenodd"
     d="M2.05862 10.5032C2.09629 8.83598 2.13908 7.49252 2.1816 6.41845C3.63992 6.36206 5.97711 6.30859 9.5974 6.30859C13.937 6.30859 17.0475 6.38541 18.9289 6.45202C18.9707 7.51333 19.0127 8.83549 19.0498 10.4702C17.1821 10.5377 14.0313 10.6179 9.5974 10.6179C5.87356 10.6179 3.50727 10.5614 2.05862 10.5032ZM2.18156 40.6733C2.13905 39.5992 2.09627 38.2557 2.05859 36.5885C3.50724 36.5304 5.87354 36.4738 9.5974 36.4738C14.0313 36.4738 17.1821 36.554 19.0499 36.6216C19.0128 38.2562 18.9708 39.5784 18.929 40.6397C17.0475 40.7063 13.937 40.7832 9.5974 40.7832C5.97708 40.7832 3.63988 40.7297 2.18156 40.6733Z"
     clip-rule="evenodd"
     id="path4"
     style="fill:#bb852e;fill-opacity:1" />
  <path
     fill="#bb852e"
     d="M35.19 7.14105C36.5524 6.90798 37.8383 7.71586 38.2642 9.03081C39.1099 11.642 40.6286 16.5599 42.5816 23.8484C44.5345 31.1369 45.6782 36.1552 46.2514 38.8395C46.5401 40.1912 45.8303 41.5338 44.5339 42.0131C43.1844 42.5121 41.276 43.1589 38.9967 43.7696C36.7175 44.3804 34.7414 44.7744 33.3232 45.0171C31.9608 45.2501 30.6748 44.4423 30.2489 43.1273C29.4032 40.5161 27.8845 35.5982 25.9316 28.3098C23.9786 21.0213 22.8349 16.0029 22.2617 13.3187C21.9731 11.967 22.6828 10.6243 23.9792 10.145C25.3288 9.64598 27.2372 8.99919 29.5164 8.38847C31.7956 7.77775 33.7717 7.38368 35.19 7.14105Z"
     id="path6"
     style="fill:#bb852e;fill-opacity:1" />
  <path
     fill="#edf1e9"
     fill-rule="evenodd"
     d="M23.5077 18.7988C23.1338 17.2381 22.8292 15.9098 22.586 14.8161C23.9814 14.3841 26.2207 13.7292 29.7022 12.7963C33.8826 11.6762 36.9019 10.9462 38.738 10.5231C39.0698 11.5785 39.4635 12.8598 39.9116 14.369C38.1252 14.9176 35.1019 15.8108 30.8176 16.9588C27.222 17.9222 24.9221 18.48 23.5077 18.7988ZM29.7792 41.6619C29.4428 40.5929 29.0426 39.2903 28.586 37.752C29.9703 37.321 32.2413 36.6539 35.8384 35.69C40.1215 34.5424 43.1858 33.8043 45.0074 33.3862C45.3739 34.9172 45.6737 36.2237 45.914 37.3038C44.1122 37.8553 41.1329 38.7327 36.9537 39.8525C33.4707 40.7858 31.2034 41.3384 29.7792 41.6619Z"
     clip-rule="evenodd"
     id="path8"
     style="fill:#edf1e9;fill-opacity:1" />
</svg>
