<?xml version="1.0" encoding="UTF-8" standalone="no"?>
<svg
   fill="none"
   viewBox="0 0 48 48"
   height="256"
   width="256"
   version="1.1"
   id="svg10"
   sodipodi:docname="brain.svg"
   inkscape:version="1.2.1 (9c6d41e410, 2022-07-14)"
   xmlns:inkscape="http://www.inkscape.org/namespaces/inkscape"
   xmlns:sodipodi="http://sodipodi.sourceforge.net/DTD/sodipodi-0.dtd"
   xmlns="http://www.w3.org/2000/svg"
   xmlns:svg="http://www.w3.org/2000/svg">
  <defs
     id="defs14" />
  <sodipodi:namedview
     id="namedview12"
     pagecolor="#ffffff"
     bordercolor="#111111"
     borderopacity="1"
     inkscape:showpageshadow="0"
     inkscape:pageopacity="0"
     inkscape:pagecheckerboard="1"
     inkscape:deskcolor="#d1d1d1"
     showgrid="false"
     inkscape:zoom="2.1445312"
     inkscape:cx="65.282332"
     inkscape:cy="128.4663"
     inkscape:window-width="1920"
     inkscape:window-height="730"
     inkscape:window-x="-6"
     inkscape:window-y="-6"
     inkscape:window-maximized="1"
     inkscape:current-layer="svg10" />
  <path
     fill="#d1a3cc"
     d="M15 44C4 44 2 34.9091 2 27.6364C2 14.9091 10 4 18 4C22 4 23 7.63636 23 9.45455V37.6364C23 40.3636 20 44 15 44Z"
     id="path2"
     style="fill:#d1a3cc;fill-opacity:1" />
  <path
     fill="#8b6495"
     fill-rule="evenodd"
     d="M23 33.0707V37.6366C23 37.9344 22.9642 38.243 22.894 38.5565C22.6941 37.8175 22.3585 37.0863 21.9001 36.4064C20.7127 34.6451 18.8844 33.5002 17 33.5002C16.1716 33.5002 15.5 32.8287 15.5 32.0002C15.5 31.1718 16.1716 30.5002 17 30.5002C19.3385 30.5002 21.4269 31.5454 23 33.0707ZM23 21.2354C22.6191 20.6206 22.1287 20.0416 21.5423 19.5216C19.7594 17.9402 17.2486 17.0628 14.7466 17.4798C13.9295 17.616 13.1566 17.064 13.0204 16.2468C12.8842 15.4297 13.4362 14.6568 14.2534 14.5206C15.4453 14.322 16.6263 14.3338 17.7594 14.5192C17.834 12.623 16.4703 10.766 14.7534 10.4798C13.9362 10.3436 13.3842 9.57079 13.5204 8.75364C13.6566 7.93648 14.4294 7.38445 15.2466 7.52064C18.8604 8.12295 21.2279 11.8792 20.6792 15.4163C21.5141 15.8007 22.2945 16.2796 23 16.8327V21.2354ZM9.77311 43.1352C10.7059 43.4881 11.746 43.7425 12.9047 43.8806C12.5169 41.9012 12.8199 39.9464 13.816 38.4377C14.2725 37.7464 14.0821 36.8159 13.3907 36.3595C12.6994 35.903 11.7689 36.0934 11.3125 36.7848C10.0592 38.683 9.58556 40.9046 9.77311 43.1352ZM3.76953 17.3933C5.39702 17.9196 6.86665 18.8553 7.87769 19.9955C8.42733 20.6153 9.37537 20.6722 9.9952 20.1226C10.615 19.5729 10.6719 18.6249 10.1223 18.0051C8.78452 16.4964 6.94162 15.3115 4.92771 14.6175C4.50119 15.5047 4.11332 16.432 3.76953 17.3933ZM17.4709 25.2944C17.3084 26.1067 16.5182 26.6335 15.7058 26.4711C13.5591 26.0418 12.1391 26.4943 11.2216 27.1934C10.269 27.9191 9.67949 29.0474 9.47958 30.2468C9.3434 31.064 8.57056 31.616 7.7534 31.4798C6.93624 31.3437 6.38421 30.5708 6.5204 29.7537C6.82049 27.9531 7.73095 26.0813 9.40343 24.8071C11.1108 23.5062 13.4409 22.9587 16.2942 23.5293C17.1065 23.6918 17.6333 24.482 17.4709 25.2944Z"
     clip-rule="evenodd"
     id="path4"
     style="fill:#8b6495;fill-opacity:1" />
  <path
     fill="#d1a3cc"
     d="M33 44C44 44 46 34.9091 46 27.6364C46 14.9091 38 4 30 4C26 4 25 7.63636 25 9.45455V37.6364C25 40.3636 28 44 33 44Z"
     id="path6"
     style="fill:#d1a3cc;fill-opacity:1" />
  <path
     fill="#8b6495"
     fill-rule="evenodd"
     d="M25 33.0707V37.6366C25 37.9344 25.0358 38.243 25.106 38.5565C25.3059 37.8175 25.6415 37.0863 26.0999 36.4064C27.2873 34.6451 29.1156 33.5002 31 33.5002C31.8284 33.5002 32.5 32.8287 32.5 32.0002C32.5 31.1718 31.8284 30.5002 31 30.5002C28.6615 30.5002 26.5731 31.5454 25 33.0707ZM25 21.2354C25.3809 20.6206 25.8713 20.0416 26.4577 19.5216C28.2406 17.9402 30.7514 17.0628 33.2534 17.4798C34.0705 17.616 34.8434 17.064 34.9796 16.2468C35.1158 15.4297 34.5638 14.6568 33.7466 14.5206C32.5547 14.322 31.3737 14.3338 30.2406 14.5192C30.166 12.623 31.5297 10.766 33.2466 10.4798C34.0638 10.3436 34.6158 9.57079 34.4796 8.75364C34.3434 7.93648 33.5706 7.38445 32.7534 7.52064C29.1396 8.12295 26.7721 11.8792 27.3208 15.4163C26.4859 15.8007 25.7055 16.2796 25 16.8327V21.2354ZM38.2269 43.1352C37.2941 43.4881 36.254 43.7425 35.0953 43.8806C35.4831 41.9012 35.1801 39.9464 34.184 38.4377C33.7275 37.7464 33.9179 36.8159 34.6093 36.3595C35.3006 35.903 36.2311 36.0934 36.6875 36.7848C37.9408 38.683 38.4144 40.9046 38.2269 43.1352ZM44.2305 17.3933C42.603 17.9196 41.1334 18.8553 40.1223 19.9955C39.5727 20.6153 38.6246 20.6722 38.0048 20.1226C37.385 19.5729 37.3281 18.6249 37.8777 18.0051C39.2155 16.4964 41.0584 15.3115 43.0723 14.6175C43.4988 15.5047 43.8867 16.432 44.2305 17.3933ZM30.5291 25.2944C30.6916 26.1067 31.4818 26.6335 32.2942 26.4711C34.4409 26.0418 35.8609 26.4943 36.7784 27.1934C37.731 27.9191 38.3205 29.0474 38.5204 30.2468C38.6566 31.064 39.4294 31.616 40.2466 31.4798C41.0638 31.3437 41.6158 30.5708 41.4796 29.7537C41.1795 27.9531 40.269 26.0813 38.5966 24.8071C36.8892 23.5062 34.5591 22.9587 31.7058 23.5293C30.8935 23.6918 30.3667 24.482 30.5291 25.2944Z"
     clip-rule="evenodd"
     id="path8"
     style="fill:#8b6495;fill-opacity:1" />
</svg>
