<?xml version="1.0" encoding="UTF-8" standalone="no"?>
<svg
   fill="none"
   viewBox="0 0 48 48"
   height="256"
   width="256"
   version="1.1"
   id="svg10"
   sodipodi:docname="brain_overload.svg"
   inkscape:version="1.2.1 (9c6d41e410, 2022-07-14)"
   xmlns:inkscape="http://www.inkscape.org/namespaces/inkscape"
   xmlns:sodipodi="http://sodipodi.sourceforge.net/DTD/sodipodi-0.dtd"
   xmlns="http://www.w3.org/2000/svg"
   xmlns:svg="http://www.w3.org/2000/svg">
  <defs
     id="defs14" />
  <sodipodi:namedview
     id="namedview12"
     pagecolor="#ffffff"
     bordercolor="#666666"
     borderopacity="1.0"
     inkscape:showpageshadow="2"
     inkscape:pageopacity="0.0"
     inkscape:pagecheckerboard="0"
     inkscape:deskcolor="#d1d1d1"
     showgrid="false"
     inkscape:zoom="1.6191406"
     inkscape:cx="164.28468"
     inkscape:cy="102.83233"
     inkscape:current-layer="svg10"
     inkscape:window-width="1920"
     inkscape:window-height="730"
     inkscape:window-x="-6"
     inkscape:window-y="-6"
     inkscape:window-maximized="1" />
  <path
     id="path2"
     d="M 18 4.0001221 C 10.000008 4.0001221 1.9998779 14.909187 1.9998779 27.636475 C 1.9998779 34.909167 4.000011 43.999878 15 43.999878 C 19.35853 43.999878 22.197104 41.236771 22.85376 38.721313 C 22.828985 38.742302 22.804577 38.763706 22.779785 38.784668 C 21.478586 39.884867 19.560907 38.877333 19.682007 37.177734 C 19.911207 33.962338 20.17501 31.267177 20.42981 29.078979 C 20.49401 28.52828 20.101269 28.02854 19.55127 27.95874 C 17.074772 27.644641 15.023946 27.302748 13.488647 27.014648 C 12.022949 26.739549 11.477521 25.029311 12.49292 23.937012 C 14.788258 21.467686 18.663974 17.449906 22.999878 13.585327 L 22.999878 9.4544678 C 22.999878 7.6362796 21.999996 4.0001221 18 4.0001221 z "
     style="fill:#d1a3cc;fill-opacity:1" />
  <path
     id="path4"
     d="M 15.018311 7.5 C 14.289985 7.4901515 13.643939 8.0129895 13.520508 8.75354 C 13.384308 9.5706892 13.936341 10.343659 14.75354 10.479858 C 16.470438 10.766058 17.833999 12.622967 17.759399 14.519165 C 16.626301 14.333765 15.445195 14.32203 14.253296 14.52063 C 13.436097 14.65683 12.884064 15.429849 13.020264 16.246948 C 13.156464 17.064147 13.929483 17.61618 14.746582 17.47998 C 16.030347 17.26602 17.316121 17.393539 18.505005 17.781372 C 19.26712 17.039261 20.063216 16.279927 20.884644 15.514526 C 20.816356 15.481456 20.748244 15.448171 20.679199 15.416382 C 21.227899 11.879285 18.860256 8.1228172 15.24646 7.5205078 C 15.169848 7.50774 15.093655 7.5010188 15.018311 7.5 z M 4.9277344 14.617676 C 4.5012148 15.504875 4.1131988 16.431889 3.7694092 17.393188 C 5.3968976 17.919488 6.8665245 18.855285 7.8775635 19.995483 C 8.4272029 20.615283 9.3755319 20.672158 9.9953613 20.122559 C 10.615161 19.572859 10.672036 18.624926 10.122437 18.005127 C 8.7846579 16.496428 6.9416424 15.311675 4.9277344 14.617676 z M 13.021362 23.37085 C 11.615521 23.542998 10.402781 24.045793 9.4035645 24.807129 C 7.7310861 26.081328 6.8204754 27.952942 6.5203857 29.75354 C 6.3841959 30.570639 6.9362588 31.343759 7.753418 31.479858 C 8.5705772 31.616058 9.3435565 31.064025 9.4797363 30.246826 C 9.6796461 29.047427 10.268836 27.919059 11.221436 27.193359 C 11.576921 26.922493 12.008317 26.688936 12.52771 26.529053 C 11.844046 25.873406 11.74744 24.73895 12.49292 23.937012 C 12.660769 23.756439 12.837062 23.567321 13.021362 23.37085 z M 16.999878 30.500244 C 16.171479 30.500244 15.499878 31.171845 15.499878 32.000244 C 15.499878 32.828743 16.171479 33.500244 16.999878 33.500244 C 18.012542 33.500244 19.008934 33.831389 19.898438 34.410645 C 19.996839 33.250377 20.098098 32.172365 20.200562 31.17627 C 19.212885 30.747635 18.136043 30.500244 16.999878 30.500244 z M 12.549683 36.111328 C 12.068188 36.116427 11.597872 36.352665 11.312622 36.78479 C 10.059323 38.682988 9.5855215 40.904656 9.7730713 43.135254 C 10.70586 43.488154 11.745842 43.742393 12.904541 43.880493 C 12.516741 41.901095 12.819941 39.946565 13.81604 38.437866 C 14.27254 37.746567 14.082268 36.816019 13.390869 36.359619 C 13.131632 36.188432 12.838579 36.108269 12.549683 36.111328 z "
     style="fill:#8b6495;fill-opacity:1" />
  <path
     id="path6"
     d="M 30 4.0001221 C 26.000004 4.0001221 25.000122 7.6362796 25.000122 9.4544678 L 25.000122 11.843628 C 25.054363 11.79757 25.108028 11.750766 25.162354 11.704834 C 26.463552 10.604664 28.381232 11.612435 28.260132 13.312134 C 28.030932 16.527431 27.767129 19.222691 27.512329 21.410889 C 27.448129 21.961588 27.84087 22.460962 28.390869 22.530762 C 30.867367 22.844861 32.918093 23.186754 34.453491 23.474854 C 35.91919 23.749953 36.464618 25.460458 35.449219 26.552856 C 33.164165 29.011032 29.312416 33.003576 25.000122 36.852173 L 25.000122 37.63623 C 25.000122 40.363428 28.000005 43.999878 33 43.999878 C 43.999989 43.999878 46.000122 34.909167 46.000122 27.636475 C 46.000122 14.909187 37.999992 4.0001221 30 4.0001221 z "
     style="fill:#d1a3cc;fill-opacity:1" />
  <path
     id="path8"
     d="M 32.981689 7.5 C 32.906345 7.5010188 32.830152 7.50774 32.75354 7.5205078 C 30.386154 7.9150787 28.553679 9.6632188 27.725464 11.816528 C 28.083964 12.182757 28.303561 12.702589 28.260132 13.312134 C 28.12265 15.24078 27.97255 16.978192 27.81958 18.5354 C 29.415364 17.601106 31.336807 17.160545 33.253418 17.47998 C 34.070517 17.61618 34.843536 17.064147 34.979736 16.246948 C 35.115936 15.429849 34.563903 14.65683 33.746704 14.52063 C 32.554805 14.32203 31.373699 14.333765 30.240601 14.519165 C 30.166001 12.622967 31.529562 10.766058 33.24646 10.479858 C 34.063659 10.343659 34.615692 9.5706892 34.479492 8.75354 C 34.356061 8.0129895 33.710015 7.4901515 32.981689 7.5 z M 43.072266 14.617676 C 41.058368 15.311675 39.215362 16.496428 37.877563 18.005127 C 37.327964 18.624926 37.384839 19.572859 38.004639 20.122559 C 38.624438 20.672158 39.572837 20.615283 40.122437 19.995483 C 41.133536 18.855285 42.603092 17.919488 44.230591 17.393188 C 43.886791 16.431889 43.498765 15.504875 43.072266 14.617676 z M 33.986938 23.304932 C 33.842336 23.30326 33.695612 23.305504 33.547485 23.310425 C 33.864592 23.366609 34.170765 23.421803 34.453491 23.474854 C 35.908537 23.747954 36.455989 25.435418 35.470459 26.528687 C 35.990645 26.688583 36.422675 26.922185 36.778564 27.193359 C 37.731164 27.919059 38.320364 29.047427 38.520264 30.246826 C 38.656464 31.064025 39.429383 31.616058 40.246582 31.479858 C 41.063781 31.343759 41.615814 30.570639 41.479614 29.75354 C 41.179515 27.952942 40.268834 26.081328 38.596436 24.807129 C 37.369243 23.872108 35.820561 23.326122 33.986938 23.304932 z M 31.556763 30.607544 C 29.638466 32.543462 27.390134 34.719156 25.000122 36.852173 L 25.000122 37.636597 C 25.000122 37.934396 25.035757 38.243019 25.105957 38.556519 C 25.305857 37.817519 25.641454 37.086393 26.099854 36.406494 C 27.287252 34.645196 29.115724 33.500244 31.000122 33.500244 C 31.828521 33.500244 32.500122 32.828743 32.500122 32.000244 C 32.500122 31.368667 32.109378 30.828698 31.556763 30.607544 z M 35.450317 36.111328 C 35.161421 36.108269 34.868368 36.188432 34.609131 36.359619 C 33.917732 36.816019 33.72746 37.746567 34.18396 38.437866 C 35.180059 39.946565 35.483259 41.901095 35.095459 43.880493 C 36.254158 43.742393 37.29413 43.488154 38.226929 43.135254 C 38.414429 40.904656 37.940677 38.682988 36.687378 36.78479 C 36.402128 36.352665 35.931812 36.116427 35.450317 36.111328 z "
     style="fill:#8b6495;fill-opacity:1" />
  <path
     fill="#fff01c"
     fill-rule="evenodd"
     d="m 22.227596,27.225529 c 0.052,-0.446067 -0.266166,-0.850824 -0.711666,-0.907362 -2.005965,-0.254421 -4.042032,-0.156279 -5.285625,-0.38964 -1.187217,-0.222831 -1.629072,-1.608174 -0.806598,-2.492937 2.163915,-2.32794 4.56042,-4.855341 8.762376,-8.408082 1.053972,-0.891138 2.607228,-0.07501 2.509137,1.301751 -0.185652,2.604393 -0.77433,5.162505 -0.980718,6.934947 -0.052,0.446067 0.266166,0.850824 0.711666,0.907362 2.005965,0.254421 4.041951,0.156279 5.285625,0.38964 1.187217,0.222831 1.629072,1.608174 0.806598,2.493018 -2.163915,2.327859 -4.560501,4.85526 -8.762376,8.408001 -1.053972,0.891162 -2.607228,0.07501 -2.509137,-1.30167 0.185652,-2.604474 0.77433,-5.162586 0.980718,-6.935028 z"
     clip-rule="evenodd"
     id="path445"
     style="stroke-width:0.81;fill:#fff01c;fill-opacity:1"
     sodipodi:nodetypes="ccccccccccccc" />
</svg>
