<?xml version="1.0" encoding="UTF-8" standalone="no"?>
<svg
   fill="none"
   viewBox="0 0 48 48"
   height="256"
   width="256"
   version="1.1"
   id="svg6"
   sodipodi:docname="build_shadow.svg"
   inkscape:version="1.2.1 (9c6d41e410, 2022-07-14)"
   xmlns:inkscape="http://www.inkscape.org/namespaces/inkscape"
   xmlns:sodipodi="http://sodipodi.sourceforge.net/DTD/sodipodi-0.dtd"
   xmlns="http://www.w3.org/2000/svg"
   xmlns:svg="http://www.w3.org/2000/svg">
  <defs
     id="defs10" />
  <sodipodi:namedview
     id="namedview8"
     pagecolor="#ffffff"
     bordercolor="#666666"
     borderopacity="1.0"
     inkscape:showpageshadow="2"
     inkscape:pageopacity="0.0"
     inkscape:pagecheckerboard="true"
     inkscape:deskcolor="#d1d1d1"
     showgrid="true"
     inkscape:zoom="0.8095703"
     inkscape:cx="8.6465623"
     inkscape:cy="83.377565"
     inkscape:current-layer="svg6"
     inkscape:window-width="1920"
     inkscape:window-height="730"
     inkscape:window-x="-6"
     inkscape:window-y="-6"
     inkscape:window-maximized="1">
    <inkscape:grid
       type="xygrid"
       id="grid239"
       units="px"
       spacingx="1.5"
       spacingy="1.5" />
  </sodipodi:namedview>
  <path
     id="rect345"
     style="fill:#d8dbd4;fill-opacity:1;stroke:none;stroke-width:1.875;stroke-linecap:round;stroke-linejoin:round"
     d="m 22.849731,2.0002441 c 0.953199,-0.00803 1.904595,0.3230076 2.725342,1.0059815 1.041657,0.8669066 2.407143,2.0976984 4.141114,3.831665 1.733968,1.7339669 2.964797,3.0997227 3.831665,4.1414794 1.365963,1.641504 1.324706,3.805167 -0.02307,5.46167 -1.126814,1.385012 -2.857119,3.366296 -5.471191,6.08606 7.749228,7.026457 13.344444,11.99525 16.173706,14.490966 1.359351,1.199211 2.266156,2.949325 1.482788,4.583863 -0.351353,0.733061 -0.892177,1.55428 -1.723022,2.385132 -0.830848,0.830849 -1.652076,1.371667 -2.385132,1.723022 -1.634529,0.783373 -3.384776,-0.123429 -4.583863,-1.482788 -2.49576,-2.82923 -7.464589,-8.424518 -14.490966,-16.173706 -2.71975,2.614086 -4.701055,4.344737 -6.08606,5.471557 -1.656494,1.347785 -3.820175,1.389042 -5.46167,0.02307 -1.0417749,-0.866871 -2.40751,-2.097687 -4.1414794,-3.831665 -1.7339692,-1.73398 -2.9647985,-3.099817 -3.831665,-4.14148 -1.365988,-1.641504 -1.3245993,-3.805283 0.023071,-5.46167 1.4813498,-1.820783 4.0012325,-4.668906 8.2082521,-8.875854 4.206902,-4.2069829 7.05508,-6.7268944 8.875854,-8.2082521 0.828188,-0.6738508 1.78313,-1.0210262 2.736328,-1.0290528 z"
     sodipodi:nodetypes="scscccccscccccsccccs" />
</svg>
