<?xml version="1.0" encoding="UTF-8" standalone="no"?>
<svg
   fill="none"
   viewBox="0 0 48 48"
   height="256"
   width="256"
   version="1.1"
   id="svg6"
   sodipodi:docname="clean.svg"
   inkscape:version="1.2.1 (9c6d41e410, 2022-07-14)"
   xmlns:inkscape="http://www.inkscape.org/namespaces/inkscape"
   xmlns:sodipodi="http://sodipodi.sourceforge.net/DTD/sodipodi-0.dtd"
   xmlns="http://www.w3.org/2000/svg"
   xmlns:svg="http://www.w3.org/2000/svg">
  <defs
     id="defs10" />
  <sodipodi:namedview
     id="namedview8"
     pagecolor="#ffffff"
     bordercolor="#666666"
     borderopacity="1.0"
     inkscape:showpageshadow="2"
     inkscape:pageopacity="0.0"
     inkscape:pagecheckerboard="true"
     inkscape:deskcolor="#d1d1d1"
     showgrid="true"
     inkscape:zoom="1.1449053"
     inkscape:cx="217.04852"
     inkscape:cy="55.463103"
     inkscape:current-layer="svg6"
     inkscape:window-width="1920"
     inkscape:window-height="730"
     inkscape:window-x="-6"
     inkscape:window-y="-6"
     inkscape:window-maximized="1">
    <inkscape:grid
       type="xygrid"
       id="grid239"
       units="px"
       spacingx="1.5"
       spacingy="1.5" />
  </sodipodi:namedview>
  <path
     id="path7966"
     style="color:#000000;fill:#bb852e;fill-opacity:1;fill-rule:evenodd;stroke-width:1.01871;stroke-linecap:round"
     d="M 3.8031978,2.7576976 C 1.6561184,4.1039498 1.5490575,6.3342956 2.8362227,8.442526 c 2.2061624,3.098552 5.0037459,6.703986 7.3326193,9.581636 L 15.89275,15.14954 C 14.091643,11.010146 12.013967,7.8888105 10.168842,4.5860737 9.0065699,2.4650688 6.8523751,1.0550454 3.8031978,2.7576976 Z m 2.325439,1.7667339 c 0.80299,0 1.4539428,0.6319456 1.4539428,1.41149 0,0.7795443 -0.6509528,1.4114899 -1.4539428,1.4114899 -0.80299,0 -1.4539428,-0.6319456 -1.4539428,-1.4114899 0,-0.7795444 0.6509528,-1.41149 1.4539428,-1.41149 z"
     sodipodi:nodetypes="ccccccsssss" />
  <path
     id="path7968"
     style="color:#000000;fill:#fff01c;fill-opacity:1;fill-rule:evenodd;stroke-width:1.01871"
     d="M 19.881958 12.827271 C 19.634843 12.832673 19.349688 12.939449 19.200806 13.011841 C 15.002076 15.047793 10.839866 17.159185 6.6917725 19.288696 C 6.3475095 19.457276 5.8806576 20.153593 6.2380371 20.610352 C 6.9260392 21.498766 8.9817961 21.89865 9.7789307 22.716797 C 11.600906 23.7812 12.392554 25.770604 12.303955 27.763184 C 12.87095 31.370695 14.01209 34.887641 15.362915 38.283691 C 16.522079 40.855899 18.10775 43.270272 20.143433 45.270996 C 20.552385 45.630823 21.413222 46.00958 22.078125 45.964966 C 27.707163 45.631893 33.037946 43.361597 37.956299 40.810181 C 40.083684 39.645604 42.121064 38.318602 44.015625 36.821411 C 45.097342 35.848658 44.501918 33.863277 43.698853 33.502075 C 37.810469 30.409528 33.120668 25.511919 27.624023 21.837158 C 26.052334 20.852669 24.214671 20.008132 22.294556 20.241577 C 20.880355 18.318367 20.575245 15.929996 20.455078 13.642822 C 20.431988 13.44172 20.390116 13.193481 20.279663 13.002686 C 20.202219 12.867525 20.051037 12.823574 19.881958 12.827271 z M 29.124756 25.84314 C 29.162884 25.843714 29.211263 25.859875 29.268311 25.898071 C 31.709985 27.93706 38.764798 33.765135 42.785522 35.500488 C 42.994659 35.592533 43.039935 35.918553 42.863525 36.057861 L 41.610718 37.052124 C 41.413166 37.174304 41.007473 37.186832 40.812012 37.104492 C 36.318466 35.033847 30.980568 28.518674 29.103516 26.102783 C 28.988334 25.981761 29.010373 25.841416 29.124756 25.84314 z M 24.294067 30.885132 C 24.301415 30.884713 24.308867 30.884904 24.316406 30.885498 C 24.371238 30.889819 24.430235 30.921808 24.480835 30.990234 C 25.676851 32.467063 26.919333 34.117831 28.12793 35.638184 C 29.693095 37.607083 31.255307 39.365985 32.424683 40.674683 C 32.613336 40.848131 32.619756 41.402886 32.26062 41.524658 C 31.427894 41.77761 31.23784 41.834499 30.568359 42.025269 C 30.165209 42.16136 29.592565 41.919151 29.442261 41.669312 C 28.605032 40.341912 25.728585 36.935522 24.149048 31.155396 C 24.098865 31.00901 24.183854 30.891413 24.294067 30.885132 z M 18.200317 34.722656 C 18.249286 34.717314 18.304877 34.764142 18.325562 34.86438 C 19.053568 37.072038 19.83354 38.967549 20.82312 40.620483 C 21.416592 41.611778 22.134221 42.576285 22.998779 43.550903 C 23.130575 43.688871 23.078847 43.916405 22.848267 43.938354 L 22.245117 43.987793 C 22.005417 43.996494 21.69883 43.772797 21.552979 43.567383 C 19.824783 40.889381 18.261207 38.049324 18.11499 34.894043 C 18.108986 34.785623 18.151348 34.727998 18.200317 34.722656 z " />
  <path
     style="color:#000000;fill:#fd3131;fill-opacity:1;fill-rule:evenodd;stroke-width:1.01676;stroke-linecap:round"
     d="m 9.670212,22.90958 c -0.7321038,0.37094 -0.9804501,1.227228 -0.5365274,1.902004 l 0.9586844,1.457228 c 0.443922,0.674776 1.414185,0.915824 2.14629,0.544884 l 11.579067,-5.866853 c 0.732104,-0.37094 0.981153,-1.229786 0.537231,-1.904563 l -0.958684,-1.457228 c -0.443923,-0.674776 -1.41489,-0.913265 -2.146994,-0.542324 z"
     id="rect7984"
     sodipodi:nodetypes="sssssssss" />
</svg>
