<?xml version="1.0" encoding="UTF-8" standalone="no"?>
<svg
   fill="none"
   viewBox="0 0 48 48"
   height="256"
   width="256"
   version="1.1"
   id="svg8"
   sodipodi:docname="cloud.svg"
   inkscape:version="1.2.1 (9c6d41e410, 2022-07-14)"
   xmlns:inkscape="http://www.inkscape.org/namespaces/inkscape"
   xmlns:sodipodi="http://sodipodi.sourceforge.net/DTD/sodipodi-0.dtd"
   xmlns="http://www.w3.org/2000/svg"
   xmlns:svg="http://www.w3.org/2000/svg">
  <defs
     id="defs12" />
  <sodipodi:namedview
     id="namedview10"
     pagecolor="#ffffff"
     bordercolor="#111111"
     borderopacity="1"
     inkscape:showpageshadow="0"
     inkscape:pageopacity="0"
     inkscape:pagecheckerboard="1"
     inkscape:deskcolor="#d1d1d1"
     showgrid="false"
     inkscape:zoom="2.1445312"
     inkscape:cx="76.007286"
     inkscape:cy="128.4663"
     inkscape:window-width="1920"
     inkscape:window-height="730"
     inkscape:window-x="-6"
     inkscape:window-y="-6"
     inkscape:window-maximized="1"
     inkscape:current-layer="svg8" />
  <path
     fill="#95c2f2"
     fill-rule="evenodd"
     d="M36.9941 18.5668C42.3579 19.8472 46 24.1035 46 30C46 36.8953 41.0195 41.5477 34.1297 41.8212C31.4179 41.9288 28.0816 42 24 42C19.9184 42 16.5821 41.9288 13.8703 41.8212C6.98046 41.5477 2 36.8953 2 30C2 24.1035 5.64214 19.8472 11.0059 18.5668C11.1993 11.5101 16.1131 6.06308 23.2336 6.0032C23.4844 6.00109 23.7399 6 24 6C24.2601 6 24.5156 6.00109 24.7664 6.0032C31.8869 6.06308 36.8007 11.5101 36.9941 18.5668Z"
     clip-rule="evenodd"
     id="path2"
     style="fill:#95c2f2;fill-opacity:1" />
  <path
     fill="#507ab7"
     fill-rule="evenodd"
     d="M17.0043 33.8766C16.6112 33.2625 16.8624 32.5293 17.3781 32.0137V32.0137C21.0356 28.3561 26.9657 28.3561 30.6233 32.0137V32.0137C31.143 32.5334 31.407 33.2619 31.0055 33.8775C30.8296 34.1472 30.5816 34.4613 30.232 34.8109C29.8824 35.1604 29.5683 35.4084 29.2987 35.5843C28.6831 35.9859 27.9545 35.7218 27.4348 35.2021V35.2021C25.5382 33.3055 22.4631 33.3055 20.5665 35.2021V35.2021C20.0509 35.7178 19.3177 35.969 18.7036 35.5759C18.4292 35.4002 18.113 35.1545 17.7693 34.8109C17.4257 34.4672 17.18 34.151 17.0043 33.8766Z"
     clip-rule="evenodd"
     id="path4"
     style="fill:#507ab7;fill-opacity:1" />
  <path
     fill="#507ab7"
     fill-rule="evenodd"
     d="M12.4688 28.4076C11.9428 27.6768 12.2404 26.7608 12.877 26.1241L13.0886 25.9125C19.1152 19.8859 28.8862 19.8859 34.9127 25.9125L35.2516 26.2514C35.8142 26.814 36.0957 27.6034 35.6468 28.2603C35.4725 28.5154 35.2354 28.8075 34.9127 29.1302C34.5901 29.4528 34.298 29.6899 34.0429 29.8642C33.386 30.3131 32.5966 30.0316 32.034 29.469L31.6951 29.1302C27.4456 24.8807 20.9471 24.4894 16.6976 28.7389L16.0947 29.3418C15.458 29.9784 14.542 30.276 13.8113 29.75C13.5886 29.5897 13.3453 29.3868 13.0886 29.1302C12.832 28.8735 12.6291 28.6302 12.4688 28.4076Z"
     clip-rule="evenodd"
     id="path6"
     style="fill:#507ab7;fill-opacity:1" />
</svg>
