<?xml version="1.0" encoding="UTF-8" standalone="no"?>
<svg
   fill="none"
   viewBox="0 0 48 48"
   height="256"
   width="256"
   version="1.1"
   id="svg6"
   sodipodi:docname="computer.svg"
   inkscape:version="1.2.1 (9c6d41e410, 2022-07-14)"
   xmlns:inkscape="http://www.inkscape.org/namespaces/inkscape"
   xmlns:sodipodi="http://sodipodi.sourceforge.net/DTD/sodipodi-0.dtd"
   xmlns="http://www.w3.org/2000/svg"
   xmlns:svg="http://www.w3.org/2000/svg">
  <defs
     id="defs10" />
  <sodipodi:namedview
     id="namedview8"
     pagecolor="#ffffff"
     bordercolor="#111111"
     borderopacity="1"
     inkscape:showpageshadow="0"
     inkscape:pageopacity="0"
     inkscape:pagecheckerboard="1"
     inkscape:deskcolor="#d1d1d1"
     showgrid="false"
     inkscape:zoom="2.1445312"
     inkscape:cx="65.282332"
     inkscape:cy="128.4663"
     inkscape:window-width="1920"
     inkscape:window-height="730"
     inkscape:window-x="-6"
     inkscape:window-y="-6"
     inkscape:window-maximized="1"
     inkscape:current-layer="svg6" />
  <path
     fill="#606668"
     d="M5.48482 35.5724C5.66839 37.3174 6.85317 38.6592 8.57893 38.9763C11.1596 39.4505 15.8981 40 24 40C32.1019 40 36.8404 39.4505 39.4211 38.9763C41.1468 38.6592 42.3316 37.3174 42.5152 35.5724C42.7517 33.3245 43 29.4326 43 23C43 16.5674 42.7517 12.6755 42.5152 10.4276C42.3316 8.68259 41.1468 7.34081 39.4211 7.02371C36.8404 6.54953 32.1019 6 24 6C15.8981 6 11.1596 6.54953 8.57893 7.02371C6.85317 7.34081 5.66839 8.68259 5.48482 10.4276C5.24835 12.6755 5 16.5674 5 23C5 29.4326 5.24835 33.3245 5.48482 35.5724Z"
     id="path2"
     style="fill:#606668;fill-opacity:1" />
  <path
     fill="#adafaa"
     d="M24 42C14.8771 42 9.39259 41.6644 6.29353 41.3598C4.11786 41.1459 2.51414 39.5452 2.30813 37.3688C2.24701 36.7231 2.18504 35.972 2.1255 35.1027C2.04724 33.9603 2.96093 33 4.10605 33H16.5056C17.2126 33 17.8399 33.4536 18.0614 34.125V34.125C18.283 34.7964 18.9102 35.25 19.6172 35.25H28.3829C29.0899 35.25 29.7172 34.7964 29.9387 34.125V34.125C30.1602 33.4536 30.7875 33 31.4945 33H43.8939C45.0391 33 45.9528 33.9603 45.8745 35.1027C45.815 35.972 45.753 36.7231 45.6919 37.3688C45.4859 39.5452 43.8821 41.1459 41.7065 41.3598C38.6074 41.6644 33.1229 42 24 42Z"
     id="path4"
     style="fill:#adafaa;fill-opacity:1" />
</svg>
