<?xml version="1.0" encoding="UTF-8" standalone="no"?>
<svg
   fill="none"
   viewBox="0 0 48 48"
   height="256"
   width="256"
   version="1.1"
   id="svg6"
   sodipodi:docname="cpu_load.svg"
   inkscape:version="1.2.1 (9c6d41e410, 2022-07-14)"
   xmlns:inkscape="http://www.inkscape.org/namespaces/inkscape"
   xmlns:sodipodi="http://sodipodi.sourceforge.net/DTD/sodipodi-0.dtd"
   xmlns="http://www.w3.org/2000/svg"
   xmlns:svg="http://www.w3.org/2000/svg">
  <defs
     id="defs10" />
  <sodipodi:namedview
     id="namedview8"
     pagecolor="#ffffff"
     bordercolor="#666666"
     borderopacity="1.0"
     inkscape:showpageshadow="2"
     inkscape:pageopacity="0.0"
     inkscape:pagecheckerboard="0"
     inkscape:deskcolor="#d1d1d1"
     showgrid="false"
     inkscape:zoom="1.1449053"
     inkscape:cx="99.571554"
     inkscape:cy="73.805231"
     inkscape:current-layer="svg6"
     inkscape:window-width="1920"
     inkscape:window-height="730"
     inkscape:window-x="-6"
     inkscape:window-y="-6"
     inkscape:window-maximized="1" />
  <path
     fill="#adafaa"
     fill-rule="evenodd"
     d="m 10.610949,2.4509 c 0.04755,-0.117285 0.11875,-0.223855 0.22645,-0.29032 0.2496,-0.15401 0.8281,-0.41058 1.9126,-0.41058 1.0845,0 1.663,0.25657 1.9126,0.41058 0.1077,0.06647 0.17885,0.173035 0.22645,0.29032 0.16995,0.419155 0.5971,1.509935 0.84885,2.48263 0.79775,0.313815 1.5355,0.749605 2.19105,1.28477 0.955,-0.26505 2.0988,-0.43535 2.5441,-0.496055 0.12585,-0.01715 0.25385,-0.00783 0.36475,0.053755 0.25655,0.1425 0.7644,0.5225 1.30615,1.47395 0.5417,0.9515 0.61225,1.5875 0.60565,1.8841 -0.0028,0.1282 -0.0589,0.24525 -0.13645,0.3472 -0.27435,0.3606 -0.9913,1.2794 -1.6949,1.9855 0.0634,0.41835 0.09625,0.8469 0.09625,1.28325 0,0.43635 -0.03285,0.86485 -0.09625,1.2832 0.7036,0.7061 1.42055,1.6249 1.6949,1.9855 0.07755,0.10195 0.1336,0.219 0.13645,0.3472 0.0066,0.2966 -0.06395,0.9326 -0.60565,1.8841 -0.54175,0.95145 -1.0496,1.3314 -1.30615,1.47395 -0.1109,0.0616 -0.2389,0.0709 -0.36475,0.05375 -0.4453,-0.0607 -1.58905,-0.231 -2.54405,-0.49605 -0.65555,0.5352 -1.39335,0.971 -2.1911,1.2848 -0.25175,0.9727 -0.6789,2.0635 -0.84885,2.48265 -0.0476,0.1173 -0.11875,0.22385 -0.22645,0.2903 -0.2496,0.15405 -0.8281,0.4106 -1.9126,0.4106 -1.0845,0 -1.663,-0.25655 -1.9126,-0.4106 -0.1077,-0.06645 -0.1789,-0.173 -0.22645,-0.2903 -0.16995,-0.41915 -0.59715,-1.50995 -0.84885,-2.48265 -0.7978,-0.3138 -1.53555,-0.7496 -2.1911,-1.2848 -0.955,0.26505 -2.09875,0.43535 -2.54405,0.49605 -0.12583,0.01715 -0.25384,0.0078 -0.36474,-0.05375 -0.256555,-0.14255 -0.76443,-0.5225 -1.30614,-1.474 C 2.814364,17.2985 2.743814,16.6625 2.750394,16.3659 c 0.00285,-0.1282 0.058885,-0.24525 0.136445,-0.3472 0.27438,-0.3606 0.991285,-1.2794 1.69491,-1.98545 -0.06339,-0.41835 -0.09627,-0.8469 -0.09627,-1.28325 0,-0.43635 0.032885,-0.8649 0.096275,-1.28325 C 3.878129,10.76065 3.161219,9.84185 2.886839,9.48125 2.809279,9.3793 2.753239,9.26225 2.750394,9.13405 2.743814,8.83745 2.814364,8.20145 3.356069,7.24995 3.897779,6.2985 4.405654,5.91855 4.662209,5.776 c 0.1109,-0.061575 0.238905,-0.070905 0.36474,-0.053755 0.445305,0.060705 1.5891,0.231005 2.5441,0.496055 0.65555,-0.535165 1.3933,-0.970955 2.19105,-1.28477 0.2517,-0.972695 0.6789,-2.063475 0.84885,-2.48263 z"
     clip-rule="evenodd"
     id="path299"
     style="fill:#adafaa;fill-opacity:1;stroke-width:0.5" />
  <path
     fill="#606668"
     d="m 16.749999,12.75 c 0,2.20915 -1.79085,4 -4,4 -2.20915,0 -4,-1.79085 -4,-4 0,-2.20915 1.79085,-4 4,-4 2.20915,0 4,1.79085 4,4 z"
     id="path301"
     style="fill:#606668;fill-opacity:1;stroke-width:0.5" />
  <path
     fill="#adafaa"
     fill-rule="evenodd"
     d="m 33.110949,2.4509 c 0.04755,-0.117285 0.11875,-0.223855 0.22645,-0.29032 0.2496,-0.15401 0.8281,-0.41058 1.9126,-0.41058 1.0845,0 1.663,0.25657 1.9126,0.41058 0.1077,0.06647 0.17885,0.173035 0.22645,0.29032 0.16995,0.419155 0.5971,1.509935 0.84885,2.48263 0.79775,0.313815 1.5355,0.749605 2.19105,1.28477 0.955,-0.26505 2.0988,-0.43535 2.5441,-0.496055 0.12585,-0.01715 0.25385,-0.00783 0.36475,0.053755 0.25655,0.1425 0.7644,0.5225 1.30615,1.47395 0.5417,0.9515 0.61225,1.5875 0.60565,1.8841 -0.0029,0.1282 -0.0589,0.24525 -0.13645,0.3472 -0.27435,0.3606 -0.9913,1.2794 -1.6949,1.9855 0.0634,0.41835 0.09625,0.8469 0.09625,1.28325 0,0.43635 -0.03285,0.86485 -0.09625,1.2832 0.7036,0.7061 1.42055,1.6249 1.6949,1.9855 0.07755,0.10195 0.1336,0.219 0.13645,0.3472 0.0066,0.2966 -0.06395,0.9326 -0.60565,1.8841 -0.54175,0.95145 -1.0496,1.3314 -1.30615,1.47395 -0.1109,0.0616 -0.2389,0.0709 -0.36475,0.05375 -0.4453,-0.0607 -1.58905,-0.231 -2.54405,-0.49605 -0.65555,0.5352 -1.39335,0.971 -2.1911,1.2848 -0.25175,0.9727 -0.6789,2.0635 -0.84885,2.48265 -0.0476,0.1173 -0.11875,0.22385 -0.22645,0.2903 -0.2496,0.15405 -0.8281,0.4106 -1.9126,0.4106 -1.0845,0 -1.663,-0.25655 -1.9126,-0.4106 -0.1077,-0.06645 -0.1789,-0.173 -0.22645,-0.2903 -0.16995,-0.41915 -0.59715,-1.50995 -0.84885,-2.48265 -0.7978,-0.3138 -1.53555,-0.7496 -2.1911,-1.2848 -0.955,0.26505 -2.09875,0.43535 -2.54405,0.49605 -0.12583,0.01715 -0.25384,0.0078 -0.36474,-0.05375 -0.256555,-0.14255 -0.76443,-0.5225 -1.30614,-1.474 -0.541705,-0.95145 -0.612255,-1.58745 -0.605675,-1.88405 0.0028,-0.1282 0.05889,-0.24525 0.136445,-0.3472 0.27438,-0.3606 0.991285,-1.2794 1.69491,-1.98545 -0.06339,-0.41835 -0.09627,-0.8469 -0.09627,-1.28325 0,-0.43635 0.03288,-0.8649 0.09627,-1.28325 -0.703625,-0.7061 -1.420535,-1.6249 -1.694915,-1.9855 -0.07756,-0.10195 -0.1336,-0.219 -0.136445,-0.3472 -0.0066,-0.2966 0.06397,-0.9326 0.605675,-1.8841 0.54171,-0.95145 1.049585,-1.3314 1.30614,-1.47395 0.1109,-0.061575 0.238905,-0.070905 0.36474,-0.053755 0.445305,0.060705 1.5891,0.231005 2.5441,0.496055 0.65555,-0.535165 1.3933,-0.970955 2.19105,-1.28477 0.2517,-0.972695 0.6789,-2.063475 0.84885,-2.48263 z"
     clip-rule="evenodd"
     id="path305"
     style="fill:#adafaa;fill-opacity:1;stroke-width:0.5" />
  <path
     fill="#606668"
     d="m 39.249999,12.75 c 0,2.20915 -1.79085,4 -4,4 -2.20915,0 -4,-1.79085 -4,-4 0,-2.20915 1.79085,-4 4,-4 2.20915,0 4,1.79085 4,4 z"
     id="path307"
     style="fill:#606668;fill-opacity:1;stroke-width:0.5" />
  <path
     fill="#adafaa"
     fill-rule="evenodd"
     d="m 33.110949,24.9509 c 0.04755,-0.117285 0.11875,-0.223855 0.22645,-0.29032 0.2496,-0.15401 0.8281,-0.41058 1.9126,-0.41058 1.0845,0 1.663,0.25657 1.9126,0.41058 0.1077,0.06647 0.17885,0.173035 0.22645,0.29032 0.16995,0.419155 0.5971,1.509935 0.84885,2.48263 0.79775,0.313815 1.5355,0.749605 2.19105,1.28477 0.955,-0.26505 2.0988,-0.43535 2.5441,-0.496055 0.12585,-0.01715 0.25385,-0.0078 0.36475,0.05375 0.25655,0.1425 0.7644,0.5225 1.30615,1.47395 0.5417,0.9515 0.61225,1.5875 0.60565,1.8841 -0.0029,0.1282 -0.0589,0.24525 -0.13645,0.3472 -0.27435,0.3606 -0.9913,1.2794 -1.6949,1.9855 0.0634,0.41835 0.09625,0.8469 0.09625,1.28325 0,0.43635 -0.03285,0.86485 -0.09625,1.2832 0.7036,0.7061 1.42055,1.6249 1.6949,1.9855 0.07755,0.10195 0.1336,0.219 0.13645,0.3472 0.0066,0.2966 -0.06395,0.9326 -0.60565,1.8841 -0.54175,0.95145 -1.0496,1.3314 -1.30615,1.47395 -0.1109,0.0616 -0.2389,0.0709 -0.36475,0.05375 -0.4453,-0.0607 -1.58905,-0.231 -2.54405,-0.49605 -0.65555,0.5352 -1.39335,0.971 -2.1911,1.2848 -0.25175,0.9727 -0.6789,2.0635 -0.84885,2.48265 -0.0476,0.1173 -0.11875,0.22385 -0.22645,0.2903 -0.2496,0.15405 -0.8281,0.4106 -1.9126,0.4106 -1.0845,0 -1.663,-0.25655 -1.9126,-0.4106 -0.1077,-0.06645 -0.1789,-0.173 -0.22645,-0.2903 -0.16995,-0.41915 -0.59715,-1.50995 -0.84885,-2.48265 -0.7978,-0.3138 -1.53555,-0.7496 -2.1911,-1.2848 -0.955,0.26505 -2.09875,0.43535 -2.54405,0.49605 -0.12583,0.01715 -0.25384,0.0078 -0.36474,-0.05375 -0.256555,-0.14255 -0.76443,-0.5225 -1.30614,-1.474 -0.541705,-0.95145 -0.612255,-1.58745 -0.605675,-1.88405 0.0028,-0.1282 0.05889,-0.24525 0.136445,-0.3472 0.27438,-0.3606 0.991285,-1.2794 1.69491,-1.98545 -0.06339,-0.41835 -0.09627,-0.8469 -0.09627,-1.28325 0,-0.43635 0.03288,-0.8649 0.09627,-1.28325 -0.703625,-0.7061 -1.420535,-1.6249 -1.694915,-1.9855 -0.07756,-0.10195 -0.1336,-0.219 -0.136445,-0.3472 -0.0066,-0.2966 0.06397,-0.9326 0.605675,-1.8841 0.54171,-0.95145 1.049585,-1.3314 1.30614,-1.47395 0.1109,-0.06158 0.238905,-0.0709 0.36474,-0.05375 0.445305,0.0607 1.5891,0.231005 2.5441,0.496055 0.65555,-0.535165 1.3933,-0.970955 2.19105,-1.28477 0.2517,-0.972695 0.6789,-2.063475 0.84885,-2.48263 z"
     clip-rule="evenodd"
     id="path311"
     style="fill:#adafaa;fill-opacity:1;stroke-width:0.5" />
  <path
     fill="#606668"
     d="m 39.249999,35.25 c 0,2.20915 -1.79085,4 -4,4 -2.20915,0 -4,-1.79085 -4,-4 0,-2.20915 1.79085,-4 4,-4 2.20915,0 4,1.79085 4,4 z"
     id="path313"
     style="fill:#606668;fill-opacity:1;stroke-width:0.5" />
  <path
     fill="#adafaa"
     fill-rule="evenodd"
     d="m 10.610949,24.9509 c 0.04755,-0.117285 0.11875,-0.223855 0.22645,-0.29032 0.2496,-0.15401 0.8281,-0.41058 1.9126,-0.41058 1.0845,0 1.663,0.25657 1.9126,0.41058 0.1077,0.06647 0.17885,0.173035 0.22645,0.29032 0.16995,0.419155 0.5971,1.509935 0.84885,2.48263 0.79775,0.313815 1.5355,0.749605 2.19105,1.28477 0.955,-0.26505 2.0988,-0.43535 2.5441,-0.496055 0.12585,-0.01715 0.25385,-0.0078 0.36475,0.05375 0.25655,0.1425 0.7644,0.5225 1.30615,1.47395 0.5417,0.9515 0.61225,1.5875 0.60565,1.8841 -0.0028,0.1282 -0.0589,0.24525 -0.13645,0.3472 -0.27435,0.3606 -0.9913,1.2794 -1.6949,1.9855 0.0634,0.41835 0.09625,0.8469 0.09625,1.28325 0,0.43635 -0.03285,0.86485 -0.09625,1.2832 0.7036,0.7061 1.42055,1.6249 1.6949,1.9855 0.07755,0.10195 0.1336,0.219 0.13645,0.3472 0.0066,0.2966 -0.06395,0.9326 -0.60565,1.8841 -0.54175,0.95145 -1.0496,1.3314 -1.30615,1.47395 -0.1109,0.0616 -0.2389,0.0709 -0.36475,0.05375 -0.4453,-0.0607 -1.58905,-0.231 -2.54405,-0.49605 -0.65555,0.5352 -1.39335,0.971 -2.1911,1.2848 -0.25175,0.9727 -0.6789,2.0635 -0.84885,2.48265 -0.0476,0.1173 -0.11875,0.22385 -0.22645,0.2903 -0.2496,0.15405 -0.8281,0.4106 -1.9126,0.4106 -1.0845,0 -1.663,-0.25655 -1.9126,-0.4106 -0.1077,-0.06645 -0.1789,-0.173 -0.22645,-0.2903 -0.16995,-0.41915 -0.59715,-1.50995 -0.84885,-2.48265 -0.7978,-0.3138 -1.53555,-0.7496 -2.1911,-1.2848 -0.955,0.26505 -2.09875,0.43535 -2.54405,0.49605 -0.12583,0.01715 -0.25384,0.0078 -0.36474,-0.05375 -0.256555,-0.14255 -0.76443,-0.5225 -1.30614,-1.474 C 2.814364,39.7985 2.743814,39.1625 2.750394,38.8659 c 0.00285,-0.1282 0.058885,-0.24525 0.136445,-0.3472 0.27438,-0.3606 0.991285,-1.2794 1.69491,-1.98545 -0.06339,-0.41835 -0.09627,-0.8469 -0.09627,-1.28325 0,-0.43635 0.032885,-0.8649 0.096275,-1.28325 -0.703625,-0.7061 -1.420535,-1.6249 -1.694915,-1.9855 -0.07756,-0.10195 -0.1336,-0.219 -0.136445,-0.3472 -0.00658,-0.2966 0.06397,-0.9326 0.605675,-1.8841 0.54171,-0.95145 1.049585,-1.3314 1.30614,-1.47395 0.1109,-0.06158 0.238905,-0.0709 0.36474,-0.05375 0.445305,0.0607 1.5891,0.231005 2.5441,0.496055 0.65555,-0.535165 1.3933,-0.970955 2.19105,-1.28477 0.2517,-0.972695 0.6789,-2.063475 0.84885,-2.48263 z"
     clip-rule="evenodd"
     id="path317"
     style="fill:#adafaa;fill-opacity:1;stroke-width:0.5" />
  <path
     fill="#606668"
     d="m 16.749999,35.25 c 0,2.20915 -1.79085,4 -4,4 -2.20915,0 -4,-1.79085 -4,-4 0,-2.20915 1.79085,-4 4,-4 2.20915,0 4,1.79085 4,4 z"
     id="path319"
     style="fill:#606668;fill-opacity:1;stroke-width:0.5" />
</svg>
