<?xml version="1.0" encoding="UTF-8" standalone="no"?>
<svg
   fill="none"
   viewBox="0 0 48 48"
   height="256"
   width="256"
   version="1.1"
   id="svg6"
   sodipodi:docname="dashboard_multiple.svg"
   inkscape:version="1.2.1 (9c6d41e410, 2022-07-14)"
   xmlns:inkscape="http://www.inkscape.org/namespaces/inkscape"
   xmlns:sodipodi="http://sodipodi.sourceforge.net/DTD/sodipodi-0.dtd"
   xmlns="http://www.w3.org/2000/svg"
   xmlns:svg="http://www.w3.org/2000/svg">
  <defs
     id="defs10" />
  <sodipodi:namedview
     id="namedview8"
     pagecolor="#ffffff"
     bordercolor="#666666"
     borderopacity="1.0"
     inkscape:showpageshadow="2"
     inkscape:pageopacity="0.0"
     inkscape:pagecheckerboard="0"
     inkscape:deskcolor="#d1d1d1"
     showgrid="false"
     inkscape:zoom="1.1449053"
     inkscape:cx="55.026385"
     inkscape:cy="31.880366"
     inkscape:current-layer="svg6"
     inkscape:window-width="1920"
     inkscape:window-height="730"
     inkscape:window-x="-6"
     inkscape:window-y="-6"
     inkscape:window-maximized="1" />
  <path
     id="path297"
     style="fill:#fff01c;fill-opacity:1;stroke-width:0.731276"
     d="m 30.417179,2.3748779 c -8.663397,0 -15.686438,7.3872841 -15.686438,16.5000001 0,2.389048 0.482744,4.659894 1.351187,6.709717 0.414407,0.978224 1.374424,1.540283 2.392516,1.540283 h 0.189048 c 0.440985,-0.912202 0.867868,-1.779301 1.264496,-2.571533 0.642245,-1.282915 2.555094,-0.880854 2.516459,0.528808 -0.0176,0.641345 -0.04101,1.330103 -0.06789,2.042725 h 19.983358 c 1.01812,0 1.97811,-0.562059 2.392516,-1.540283 0.868455,-2.049823 1.351185,-4.320669 1.351185,-6.709717 0,-9.112716 -7.023041,-16.5000001 -15.686438,-16.5000001 z" />
  <path
     fill="#d63232"
     fill-rule="evenodd"
     d="m 34.695441,12.728825 c 0.06296,-1.1766 -1.336912,-1.571175 -1.841659,-0.519 -1.100261,2.293425 -2.483734,5.29845 -3.7179,8.339775 -2.135708,0.594975 -3.709842,2.6418 -3.709842,5.0754 0,2.8995 2.234604,5.25 4.991139,5.25 2.756535,0 4.991139,-2.3505 4.991139,-5.25 0,-1.44795 -0.557225,-2.75895 -1.458482,-3.70875 0.377544,-3.28605 0.608135,-6.620025 0.745605,-9.187425 z"
     clip-rule="evenodd"
     id="path299"
     style="stroke-width:0.731276;fill:#d63232;fill-opacity:1" />
  <path
     id="path305"
     style="fill:#fff01c;fill-opacity:1;stroke-width:0.731276"
     d="M 13.210004,16.525635 C 6.6745932,18.517142 1.896383,24.858566 1.896383,32.374878 c 0,2.389044 0.4827455,4.659898 1.3511866,6.709717 0.4144049,0.978222 1.3744264,1.540283 2.392516,1.540283 H 29.525556 c 1.018125,0 1.978109,-0.562061 2.392516,-1.540283 0.726127,-1.713913 1.182432,-3.582318 1.312542,-5.545166 a 8.1689208,8.4010401 0 0 1 -2.812739,0.519653 8.1689208,8.4010401 0 0 1 -7.318202,-4.684204 h -6.764289 c -1.018089,0 -1.978112,-0.562061 -2.392516,-1.540283 -0.868442,-2.049819 -1.351186,-4.320673 -1.351186,-6.709717 0,-1.596353 0.216217,-3.139228 0.618322,-4.599243 z" />
  <path
     fill="#d63232"
     fill-rule="evenodd"
     d="m 21.861083,26.228825 c 0.06295,-1.1766 -1.336913,-1.571175 -1.841659,-0.519 -1.100261,2.293425 -2.483734,5.29845 -3.7179,8.339775 -2.135708,0.594975 -3.709842,2.6418 -3.709842,5.0754 0,2.8995 2.234604,5.25 4.991139,5.25 2.756535,0 4.991139,-2.3505 4.991139,-5.25 0,-1.44795 -0.557225,-2.75895 -1.458482,-3.70875 0.377544,-3.28605 0.608135,-6.620025 0.745605,-9.187425 z"
     clip-rule="evenodd"
     id="path4"
     style="stroke-width:0.731276;fill:#d63232;fill-opacity:1" />
</svg>
