<?xml version="1.0" encoding="UTF-8" standalone="no"?>
<svg
   fill="none"
   viewBox="0 0 48 48"
   height="256"
   width="256"
   version="1.1"
   id="svg6"
   sodipodi:docname="diff_similar.svg"
   inkscape:version="1.4 (86a8ad7, 2024-10-11)"
   xmlns:inkscape="http://www.inkscape.org/namespaces/inkscape"
   xmlns:sodipodi="http://sodipodi.sourceforge.net/DTD/sodipodi-0.dtd"
   xmlns="http://www.w3.org/2000/svg"
   xmlns:svg="http://www.w3.org/2000/svg">
  <defs
     id="defs10" />
  <sodipodi:namedview
     id="namedview8"
     pagecolor="#ffffff"
     bordercolor="#666666"
     borderopacity="1.0"
     inkscape:showpageshadow="2"
     inkscape:pageopacity="0.0"
     inkscape:pagecheckerboard="true"
     inkscape:deskcolor="#d1d1d1"
     showgrid="true"
     inkscape:zoom="2.2898106"
     inkscape:cx="124.6828"
     inkscape:cy="139.31283"
     inkscape:current-layer="svg6"
     inkscape:window-width="3840"
     inkscape:window-height="1476"
     inkscape:window-x="-12"
     inkscape:window-y="-12"
     inkscape:window-maximized="1">
    <inkscape:grid
       type="xygrid"
       id="grid239"
       units="px"
       spacingx="1.5"
       spacingy="1.5"
       originx="0"
       originy="0" />
  </sodipodi:namedview>
  <g
     id="g4029"
     transform="translate(0,-0.28659576)"
     style="fill:#95c2f2;fill-opacity:1">
    <path
       fill="#77c32f"
       d="m 2.0686525,18.238466 c 0.13082,-1.0242 1.0566,-1.5523 2.0885,-1.5887 4.808928,0 7.8197945,-2.4801 11.5929095,-2.4801 4.064818,0 8.348482,1.973395 14.24223,1.973395 6.165805,0 12.223892,-1.05061 13.85067,-0.993295 1.0319,0.0364 1.957701,0.5645 2.0885,1.5887 0.0418,0.3271 0.0686,0.7176 0.0686,1.1812 0,0.4636 -0.0268,0.8541 -0.0686,1.1812 -0.1308,1.0242 -1.0566,1.5523 -2.0885,1.5887 -1.627168,0.05733 -7.694431,1.36442 -13.855808,1.36442 -5.974118,0 -10.174359,-1.88432 -14.237092,-1.88432 -3.732171,0 -6.6623264,2.0199 -11.5929095,2.0199 -1.0319,-0.0364 -1.95768,-0.5645 -2.0885,-1.5887 -0.04178,-0.3271 -0.06859,-0.7176 -0.06859,-1.1812 0,-0.4636 0.02681,-0.8541 0.06859,-1.1812 z"
       id="path2787"
       sodipodi:nodetypes="scssccsccsscsss"
       style="fill:#95c2f2;fill-opacity:1" />
    <path
       fill="#77c32f"
       d="m 2.0686525,29.488466 c 0.13082,-1.0242 1.0566,-1.5523 2.0885,-1.5887 4.9287988,-0.173651 7.7788525,-2.4801 11.5929095,-2.4801 4.080238,0 8.336779,1.976456 14.280392,1.976456 6.14664,0 12.189099,-1.05355 13.812508,-0.996356 1.0319,0.0364 1.957701,0.5645 2.0885,1.5887 0.0418,0.3271 0.0686,0.7176 0.0686,1.1812 0,0.4636 -0.0268,0.8541 -0.0686,1.1812 -0.1308,1.0242 -1.0566,1.5523 -2.0885,1.5887 -1.627578,0.05734 -7.696742,1.364122 -13.860455,1.364122 -5.97307,0 -10.171588,-1.884022 -14.232445,-1.884022 -3.773114,0 -6.7418982,2.0199 -11.5929095,2.0199 -1.0319,-0.0364 -1.95768,-0.5645 -2.0885,-1.5887 -0.04178,-0.3271 -0.06859,-0.7176 -0.06859,-1.1812 0,-0.4636 0.02681,-0.8541 0.06859,-1.1812 z"
       id="path4025"
       sodipodi:nodetypes="scssccsccsscsss"
       style="fill:#95c2f2;fill-opacity:1" />
  </g>
</svg>
