<?xml version="1.0" encoding="UTF-8" standalone="no"?>
<svg
   fill="none"
   viewBox="0 0 48 48"
   height="256"
   width="256"
   version="1.1"
   id="svg6"
   sodipodi:docname="download.svg"
   inkscape:version="1.2.1 (9c6d41e410, 2022-07-14)"
   xmlns:inkscape="http://www.inkscape.org/namespaces/inkscape"
   xmlns:sodipodi="http://sodipodi.sourceforge.net/DTD/sodipodi-0.dtd"
   xmlns="http://www.w3.org/2000/svg"
   xmlns:svg="http://www.w3.org/2000/svg">
  <defs
     id="defs10" />
  <sodipodi:namedview
     id="namedview8"
     pagecolor="#ffffff"
     bordercolor="#111111"
     borderopacity="1"
     inkscape:showpageshadow="0"
     inkscape:pageopacity="0"
     inkscape:pagecheckerboard="1"
     inkscape:deskcolor="#d1d1d1"
     showgrid="false"
     inkscape:zoom="2.1445312"
     inkscape:cx="76.007286"
     inkscape:cy="128.4663"
     inkscape:window-width="1920"
     inkscape:window-height="730"
     inkscape:window-x="-6"
     inkscape:window-y="-6"
     inkscape:window-maximized="1"
     inkscape:current-layer="svg6" />
  <path
     fill="#95c2f2"
     fill-rule="evenodd"
     d="M36.9941 15.5668C42.3579 16.8472 46 21.1035 46 27C46 33.8953 41.0195 38.5477 34.1297 38.8212C31.4179 38.9288 28.0816 39 24 39C19.9184 39 16.5821 38.9288 13.8703 38.8212C6.98046 38.5477 2 33.8953 2 27C2 21.1035 5.64214 16.8472 11.0059 15.5668C11.1993 8.51006 16.1131 3.06308 23.2336 3.0032C23.4844 3.00109 23.7399 3 24 3C24.2601 3 24.5156 3.00109 24.7664 3.0032C31.8869 3.06308 36.8007 8.51007 36.9941 15.5668Z"
     clip-rule="evenodd"
     id="path2"
     style="fill:#95c2f2;fill-opacity:1" />
  <path
     fill="#507ab7"
     fill-rule="evenodd"
     d="M27.9069 33.461L27.5919 25.2851C27.5357 23.8264 26.6453 22.5681 25.1895 22.4613C24.8384 22.4356 24.4431 22.4199 24.0009 22.4199C23.5586 22.4199 23.1633 22.4356 22.8122 22.4613C21.3563 22.5681 20.4659 23.8265 20.4097 25.2852L20.0947 33.461C18.7158 33.4924 17.5889 33.5393 16.6728 33.5923C14.7699 33.7024 13.9572 35.5015 15.1463 36.9911C15.8617 37.8872 16.795 38.9969 18.001 40.3376C19.9143 42.4645 21.3699 43.7195 22.368 44.4501C23.3688 45.1826 24.6332 45.1827 25.634 44.4502C26.6321 43.7197 28.0878 42.4647 30.001 40.3376C31.2064 38.9973 32.1394 37.8878 32.8547 36.9918C34.0441 35.5019 33.2312 33.7023 31.328 33.5922C30.412 33.5393 29.2854 33.4924 27.9069 33.461Z"
     clip-rule="evenodd"
     id="path4"
     style="fill:#507ab7;fill-opacity:1" />
</svg>
