<?xml version="1.0" encoding="UTF-8" standalone="no"?>
<svg
   fill="none"
   viewBox="0 0 48 48"
   height="256"
   width="256"
   version="1.1"
   id="svg8"
   sodipodi:docname="factory.svg"
   inkscape:version="1.4 (86a8ad7, 2024-10-11)"
   xml:space="preserve"
   xmlns:inkscape="http://www.inkscape.org/namespaces/inkscape"
   xmlns:sodipodi="http://sodipodi.sourceforge.net/DTD/sodipodi-0.dtd"
   xmlns="http://www.w3.org/2000/svg"
   xmlns:svg="http://www.w3.org/2000/svg"><defs
     id="defs12" /><sodipodi:namedview
     id="namedview10"
     pagecolor="#ffffff"
     bordercolor="#111111"
     borderopacity="1"
     inkscape:showpageshadow="0"
     inkscape:pageopacity="0"
     inkscape:pagecheckerboard="1"
     inkscape:deskcolor="#d1d1d1"
     showgrid="false"
     inkscape:zoom="2.1445312"
     inkscape:cx="418.50638"
     inkscape:cy="36.371586"
     inkscape:window-width="3840"
     inkscape:window-height="1476"
     inkscape:window-x="-12"
     inkscape:window-y="-12"
     inkscape:window-maximized="1"
     inkscape:current-layer="svg8" /><path
     style="fill:#bb852e;stroke-width:1.10941;fill-opacity:1"
     d="M 0.85057781,30.651559 C 4.4645554,26.692312 13.717302,17.210705 13.967005,17.210705 c 0.286988,0 0.335786,0.558486 0.384972,4.405875 0.05272,4.123023 0.08103,4.405876 0.441123,4.405876 0.228625,0 2.108398,-1.788139 4.631656,-4.405876 2.335772,-2.423231 4.414659,-4.43569 4.619747,-4.472129 0.348591,-0.06193 0.372888,0.225159 0.372888,4.405875 0,4.222551 0.02167,4.47213 0.38838,4.47213 0.233031,0 2.09038,-1.762311 4.643478,-4.405876 2.340305,-2.423231 4.419447,-4.43569 4.620316,-4.472129 0.341985,-0.06204 0.365217,0.383102 0.365217,6.997566 v 7.063822 H 17.389708 0.34463387 Z"
     id="path1"
     sodipodi:nodetypes="sscsssssssscccs" /><path
     style="fill:#adafaa;fill-opacity:1;stroke-width:1.10941"
     d="M 19.095652,7.0682326 C 16.973687,6.662333 15.210452,6.0208297 12.730435,4.752423 10.795156,3.762623 7.821166,1.8036679 7.993642,1.6323161 c 0.03482,-0.034589 2.54701,0.3622253 5.582656,0.8818088 4.864735,0.8326531 5.766876,0.9315559 7.606311,0.8338982 2.267295,-0.1203739 3.821181,-0.553958 5.600477,-1.5627145 2.680002,-1.51940413 5.179538,-2.04443466 7.943268,-1.66849425 3.144702,0.42776317 5.349194,1.42991595 6.331712,2.87837045 0.649585,0.9576371 0.597273,1.0590965 -0.314903,0.6107303 -1.204491,-0.5920502 -3.086577,-0.8665622 -4.920134,-0.7176268 -2.596914,0.2109412 -3.548908,0.494744 -5.393776,1.6079622 -2.45173,1.4794067 -3.467711,1.9622182 -4.878936,2.3185541 -1.84614,0.4661517 -4.747128,0.580052 -6.454665,0.253428 z"
     id="path2"
     sodipodi:nodetypes="sssssssssssss" /><path
     style="fill:#f68428;fill-opacity:1;stroke-width:1.10941"
     d="M 0,39.913922 V 31.827845 H 24 48 V 39.913922 48 H 24 0 Z m 15.026088,0 V 37.218563 H 11.582609 8.13913 v 2.695359 2.69536 h 3.443479 3.443479 z m 12.313042,0 V 37.218563 H 24 20.66087 v 2.695359 2.69536 H 24 27.33913 Z m 12.521739,0 v -2.695359 h -3.443478 -3.443477 v 2.695359 2.69536 h 3.443477 3.443478 z m -2.713043,-9.490103 c 0,-0.430111 0.328695,-5.956158 0.730435,-12.280106 C 38.28,11.819766 38.608696,6.6202732 38.608696,6.5892824 c 0,-0.030991 1.408696,-0.056347 3.130434,-0.056347 h 3.13044 v 0.4813663 c 0,0.2647523 0.32869,5.6329263 0.73043,11.9292773 0.40174,6.29635 0.73043,11.631139 0.73043,11.855086 0,0.392337 -0.1673,0.407174 -4.5913,0.407174 h -4.591304 z"
     id="path3"
     sodipodi:nodetypes="ccccccccccccccccccccccccccccccccccccsssscsssscs" /></svg>
