<?xml version="1.0" encoding="UTF-8" standalone="no"?>
<svg
   fill="none"
   viewBox="0 0 48 48"
   height="256"
   width="256"
   version="1.1"
   id="svg6"
   sodipodi:docname="gear.svg"
   inkscape:version="1.2.1 (9c6d41e410, 2022-07-14)"
   xmlns:inkscape="http://www.inkscape.org/namespaces/inkscape"
   xmlns:sodipodi="http://sodipodi.sourceforge.net/DTD/sodipodi-0.dtd"
   xmlns="http://www.w3.org/2000/svg"
   xmlns:svg="http://www.w3.org/2000/svg">
  <defs
     id="defs10" />
  <sodipodi:namedview
     id="namedview8"
     pagecolor="#ffffff"
     bordercolor="#111111"
     borderopacity="1"
     inkscape:showpageshadow="0"
     inkscape:pageopacity="0"
     inkscape:pagecheckerboard="1"
     inkscape:deskcolor="#d1d1d1"
     showgrid="false"
     inkscape:zoom="2.1445312"
     inkscape:cx="65.282332"
     inkscape:cy="128.4663"
     inkscape:window-width="1920"
     inkscape:window-height="730"
     inkscape:window-x="-6"
     inkscape:window-y="-6"
     inkscape:window-maximized="1"
     inkscape:current-layer="svg6" />
  <path
     fill="#adafaa"
     fill-rule="evenodd"
     d="M19.7219 3.4018C19.817 3.16723 19.9594 2.95409 20.1748 2.82116C20.674 2.51314 21.831 2 24 2C26.169 2 27.326 2.51314 27.8252 2.82116C28.0406 2.9541 28.1829 3.16723 28.2781 3.4018C28.618 4.24011 29.4723 6.42167 29.9758 8.36706C31.5713 8.99469 33.0468 9.86627 34.3579 10.9366C36.2679 10.4065 38.5555 10.0659 39.4461 9.94449C39.6978 9.91019 39.9538 9.92884 40.1756 10.052C40.6887 10.337 41.7044 11.097 42.7879 12.9999C43.8713 14.9029 44.0124 16.1749 43.9992 16.7681C43.9935 17.0245 43.8814 17.2586 43.7263 17.4625C43.1776 18.1837 41.7437 20.0213 40.3365 21.4335C40.4633 22.2702 40.529 23.1273 40.529 24C40.529 24.8727 40.4633 25.7297 40.3365 26.5664C41.7437 27.9786 43.1776 29.8162 43.7263 30.5374C43.8814 30.7413 43.9935 30.9754 43.9992 31.2318C44.0124 31.825 43.8713 33.097 42.7879 35C41.7044 36.9029 40.6887 37.6628 40.1756 37.9479C39.9538 38.0711 39.6978 38.0897 39.4461 38.0554C38.5555 37.934 36.268 37.5934 34.358 37.0633C33.0469 38.1337 31.5713 39.0053 29.9758 39.6329C29.4723 41.5783 28.618 43.7599 28.2781 44.5982C28.1829 44.8328 28.0406 45.0459 27.8252 45.1788C27.326 45.4869 26.169 46 24 46C21.831 46 20.674 45.4869 20.1748 45.1788C19.9594 45.0459 19.817 44.8328 19.7219 44.5982C19.382 43.7599 18.5276 41.5783 18.0242 39.6329C16.4286 39.0053 14.9531 38.1337 13.642 37.0633C11.732 37.5934 9.4445 37.934 8.5539 38.0554C8.30224 38.0897 8.04622 38.071 7.82442 37.9479C7.31131 37.6628 6.29556 36.9029 5.21214 34.9999C4.12873 33.097 3.98763 31.825 4.00079 31.2318C4.00648 30.9754 4.11856 30.7413 4.27368 30.5374C4.82244 29.8162 6.25625 27.9786 7.6635 26.5665C7.53672 25.7298 7.47096 24.8727 7.47096 24C7.47096 23.1273 7.53673 22.2702 7.66351 21.4335C6.25626 20.0213 4.82244 18.1837 4.27368 17.4625C4.11856 17.2586 4.00648 17.0245 4.00079 16.7681C3.98763 16.1749 4.12873 14.9029 5.21214 12.9999C6.29556 11.097 7.31131 10.3371 7.82442 10.052C8.04622 9.92885 8.30223 9.91019 8.5539 9.94449C9.44451 10.0659 11.7321 10.4065 13.6421 10.9366C14.9532 9.86627 16.4287 8.99469 18.0242 8.36706C18.5276 6.42167 19.382 4.24011 19.7219 3.4018Z"
     clip-rule="evenodd"
     id="path2"
     style="fill:#adafaa;fill-opacity:1" />
  <path
     fill="#606668"
     d="M32 24C32 28.4183 28.4183 32 24 32C19.5817 32 16 28.4183 16 24C16 19.5817 19.5817 16 24 16C28.4183 16 32 19.5817 32 24Z"
     id="path4"
     style="fill:#606668;fill-opacity:1" />
</svg>
