<?xml version="1.0" encoding="UTF-8" standalone="no"?>
<svg
   fill="none"
   viewBox="0 0 48 48"
   height="256"
   width="256"
   version="1.1"
   id="svg8"
   sodipodi:docname="report.svg"
   inkscape:version="1.3.2 (091e20e, 2023-11-25, custom)"
   xml:space="preserve"
   xmlns:inkscape="http://www.inkscape.org/namespaces/inkscape"
   xmlns:sodipodi="http://sodipodi.sourceforge.net/DTD/sodipodi-0.dtd"
   xmlns="http://www.w3.org/2000/svg"
   xmlns:svg="http://www.w3.org/2000/svg"><defs
     id="defs12" /><sodipodi:namedview
     id="namedview10"
     pagecolor="#ffffff"
     bordercolor="#111111"
     borderopacity="1"
     inkscape:showpageshadow="0"
     inkscape:pageopacity="0"
     inkscape:pagecheckerboard="1"
     inkscape:deskcolor="#d1d1d1"
     showgrid="false"
     inkscape:zoom="1.5164126"
     inkscape:cx="91.66371"
     inkscape:cy="281.91537"
     inkscape:window-width="3840"
     inkscape:window-height="1494"
     inkscape:window-x="-11"
     inkscape:window-y="-11"
     inkscape:window-maximized="1"
     inkscape:current-layer="svg8" /><path
     fill="#edf1e9"
     d="M30.049 2.06996C30.049 2.06996 32.7693 3.1 37.7693 8.05C42.751 12.9819 43.7957 15.6797 43.8033 15.6994C43.9247 18.0495 44 20.7979 44 24C44 33.5541 43.3294 39.0688 42.7649 42.0187C42.4022 43.9138 40.9085 45.2127 38.9715 45.4197C36.3568 45.699 31.7428 46 24 46C16.2572 46 11.6432 45.699 9.02852 45.4197C7.09148 45.2127 5.59781 43.9138 5.23513 42.0187C4.67056 39.0688 4 33.5541 4 24C4 14.4459 4.67056 8.93121 5.23513 5.98128C5.59782 4.08618 7.09148 2.78727 9.02852 2.58034C11.6432 2.30102 16.2572 2 24 2C26.2774 2 28.2842 2.02609 30.049 2.06996Z"
     id="path2"
     style="fill:#edf1e9;fill-opacity:1" /><path
     fill="#adafaa"
     d="M43.8024 15.6998C40.6029 16.4965 36.8253 16.5494 33.5625 15.5626C32.1831 15.1454 31.1075 14.0816 30.642 12.7301C29.4822 9.36336 29.1957 5.24234 30.0481 2.07031C30.0481 2.07031 32.7684 3.10035 37.7684 8.05035C42.7684 13.0004 43.8024 15.6998 43.8024 15.6998Z"
     id="path4"
     style="fill:#adafaa;fill-opacity:1" /><path
     fill="#606668"
     fill-rule="evenodd"
     d="M16.1837 21.1495C14.8769 21.215 14 22.238 14 23.5464V24.5031C14 25.7953 14.8588 26.805 16.1493 26.8715C17.4823 26.9401 19.6142 26.9997 23 26.9997C26.3858 26.9997 28.5177 26.9401 29.8507 26.8715C31.1412 26.805 32 25.7953 32 24.5031V23.4798C32 22.2037 31.1586 21.2069 29.8842 21.1393C28.5535 21.0688 26.4142 21.0093 23 21.0162C19.6432 21.023 17.5189 21.0826 16.1837 21.1495ZM16.0338 31.0933C14.7987 31.1661 14 32.148 14 33.3852V34.6142C14 35.8514 14.7987 36.8332 16.0338 36.9061C16.9305 36.959 18.2039 36.9997 20 36.9997C21.7961 36.9997 23.0695 36.959 23.9662 36.9061C25.2013 36.8332 26 35.8514 26 34.6141V33.3852C26 32.148 25.2013 31.1661 23.9662 31.0933C23.0695 31.0403 21.7961 30.9997 20 30.9997C18.2039 30.9997 16.9305 31.0403 16.0338 31.0933Z"
     clip-rule="evenodd"
     id="path6"
     style="fill:#606668;fill-opacity:1" /><path
     fill="#606668"
     fill-rule="evenodd"
     d="m 11.002161,13.317055 -8.147069,-0.315 C 1.4015359,12.945855 0.147673,12.055455 0.04125,10.599655 0.01554,10.248555 0,9.853255 0,9.4110547 c 0,-0.4423 0.01555,-0.8376 0.04125,-1.1886996 0.106423,-1.4559 1.3603859,-2.3463 2.813942,-2.4025 l 8.146969,-0.315 c 0.03129,-1.3789 0.07802,-2.5058 0.130837,-3.4219 0.109711,-1.90290001 1.902367,-2.71560001 3.386714,-1.52650001 0.89304,0.71540001 1.998827,1.64870001 3.334699,2.85470001 2.1195,1.9133 3.370074,3.3689 4.098096,4.367 0.72992,1.0007996 0.73002,2.2651999 10e-5,3.2659999 -0.727923,0.9981 -1.978597,2.4538 -4.098196,4.367 -1.335474,1.2054 -2.441061,2.1384 -3.333901,2.8537 -1.484646,1.1894 -3.2779,0.3765 -3.387612,-1.5267 -0.05281,-0.916 -0.09945,-2.0426 -0.130737,-3.4211 z"
     clip-rule="evenodd"
     id="path12576"
     style="fill:#606668;fill-opacity:1;stroke-width:0.998235" /></svg>
