<?xml version="1.0" encoding="UTF-8" standalone="no"?>
<svg
   fill="none"
   viewBox="0 0 48 48"
   height="256"
   width="256"
   version="1.1"
   id="svg12"
   sodipodi:docname="holy_grail.svg"
   inkscape:version="1.2.1 (9c6d41e410, 2022-07-14)"
   xmlns:inkscape="http://www.inkscape.org/namespaces/inkscape"
   xmlns:sodipodi="http://sodipodi.sourceforge.net/DTD/sodipodi-0.dtd"
   xmlns="http://www.w3.org/2000/svg"
   xmlns:svg="http://www.w3.org/2000/svg">
  <defs
     id="defs16" />
  <sodipodi:namedview
     id="namedview14"
     pagecolor="#ffffff"
     bordercolor="#111111"
     borderopacity="1"
     inkscape:showpageshadow="0"
     inkscape:pageopacity="0"
     inkscape:pagecheckerboard="1"
     inkscape:deskcolor="#d1d1d1"
     showgrid="false"
     inkscape:zoom="0.7582063"
     inkscape:cx="-22.421339"
     inkscape:cy="-15.167376"
     inkscape:window-width="1920"
     inkscape:window-height="730"
     inkscape:window-x="-6"
     inkscape:window-y="-6"
     inkscape:window-maximized="1"
     inkscape:current-layer="svg12" />
  <path
     fill="#e7c323"
     fill-rule="evenodd"
     d="M34.1513 13.8774C34.049 13.6949 33.1461 12.1918 33.232 12.1507C34.3912 11.5995 35.6855 11.2477 36.9689 11.0863C39.0909 10.8193 42.078 11.0543 44.3223 13.5013C46.6929 16.0859 46.4078 20.1374 44.3655 23.2329C42.2176 26.4884 38.0382 29 32 29V25.1426C36.7185 25.1426 39.5147 23.2385 40.8547 21.2075C42.3002 19.0166 42.015 16.9109 41.1911 16.0125C40.2084 14.9412 38.8928 14.7364 37.5189 14.9092C36.6834 15.0144 35.8573 15.2372 35.1017 15.5891C35.1174 15.5815 34.242 14.039 34.1513 13.8774Z"
     clip-rule="evenodd"
     id="path2"
     style="fill:#e7c323;fill-opacity:1" />
  <path
     fill="#e7c323"
     fill-rule="evenodd"
     d="M13.8487 13.8774C13.951 13.6949 14.8539 12.1918 14.768 12.1507C13.6088 11.5995 12.3145 11.2477 11.0311 11.0863C8.90907 10.8193 5.922 11.0543 3.67766 13.5013C1.30707 16.0859 1.59218 20.1374 3.63452 23.2329C5.78238 26.4884 9.96185 29 16 29V25.1426C11.2815 25.1426 8.48529 23.2385 7.14533 21.2075C5.69984 19.0166 5.98496 16.9109 6.80894 16.0125C7.79161 14.9412 9.10722 14.7364 10.4811 14.9092C11.3166 15.0144 12.1427 15.2372 12.8983 15.5891C12.8826 15.5815 13.758 14.039 13.8487 13.8774Z"
     clip-rule="evenodd"
     id="path4"
     style="fill:#e7c323;fill-opacity:1" />
  <path
     fill="#e7c323"
     d="M26.7083 31H21.2917L19.9507 37.6018C19.7807 38.4384 19.0985 39.0749 18.2522 39.1865L14.1761 39.724C12.9207 39.8896 11.9045 40.8255 11.6363 42.063L11.3282 43.4853C11.1594 44.2642 11.7529 45 12.5498 45H35.4502C36.2471 45 36.8406 44.2642 36.6718 43.4853L36.3637 42.063C36.0955 40.8255 35.0793 39.8896 33.8239 39.724L29.7478 39.1865C28.9015 39.0749 28.2193 38.4384 28.0493 37.6018L26.7083 31Z"
     id="path6"
     style="fill:#e7c323;fill-opacity:1" />
  <path
     fill="#fff01c"
     d="M12.553 26.7064C13.3831 31.4995 17.5419 35 22.4064 35L25.5936 35C30.4581 35 34.6169 31.4995 35.447 26.7064L37.3824 15.5301C37.636 14.0656 38.0925 12.6435 38.7386 11.305L40.0353 8.61872C41.1985 6.20878 40.273 3.88297 37.6149 3.57363C34.9527 3.2638 30.7145 3 24 3C17.2855 3 13.0473 3.2638 10.3851 3.57362C7.72703 3.88297 6.80146 6.2088 7.96474 8.61874L9.26138 11.305C9.9075 12.6435 10.3639 14.0656 10.6176 15.5301L12.553 26.7064Z"
     id="path8"
     style="fill:#fff01c;fill-opacity:1" />
  <path
     fill="#e7c323"
     d="M22.8767 9.30106C23.3334 8.36554 24.6666 8.36554 25.1233 9.30106L26.6205 12.368L29.9466 13.0638C30.8735 13.2578 31.2566 14.3719 30.6448 15.0948L28.24 17.9365L28.6698 21.6369C28.786 22.6372 27.7322 23.3572 26.8425 22.8854L24 21.378L21.1575 22.8854C20.2678 23.3572 19.214 22.6372 19.3302 21.6369L19.76 17.9365L17.3552 15.0948C16.7434 14.3719 17.1265 13.2578 18.0534 13.0638L21.3795 12.368L22.8767 9.30106Z"
     id="path10"
     style="fill:#e7c323;fill-opacity:1" />
</svg>
