<?xml version="1.0" encoding="UTF-8" standalone="no"?>
<svg
   fill="none"
   viewBox="0 0 48 48"
   height="256"
   width="256"
   version="1.1"
   id="svg3029"
   sodipodi:docname="hourglass.svg"
   inkscape:version="1.2.1 (9c6d41e410, 2022-07-14)"
   xmlns:inkscape="http://www.inkscape.org/namespaces/inkscape"
   xmlns:sodipodi="http://sodipodi.sourceforge.net/DTD/sodipodi-0.dtd"
   xmlns="http://www.w3.org/2000/svg"
   xmlns:svg="http://www.w3.org/2000/svg">
  <defs
     id="defs3033" />
  <sodipodi:namedview
     id="namedview3031"
     pagecolor="#ffffff"
     bordercolor="#666666"
     borderopacity="1.0"
     inkscape:showpageshadow="2"
     inkscape:pageopacity="0.0"
     inkscape:pagecheckerboard="0"
     inkscape:deskcolor="#d1d1d1"
     showgrid="false"
     inkscape:zoom="0.6891529"
     inkscape:cx="-91.416578"
     inkscape:cy="73.278368"
     inkscape:current-layer="svg3029"
     inkscape:window-width="1920"
     inkscape:window-height="730"
     inkscape:window-x="-6"
     inkscape:window-y="-6"
     inkscape:window-maximized="1" />
  <g
     id="g3154"
     transform="matrix(0.99999716,0,0,0.99999716,-0.0025963,6.816e-5)">
    <path
       fill="#a6ceff"
       d="m 31.4678,24 c 0,-3.1429 11.0738,-8.7752 8.0466,-15.88824 C 37.4602,3.2852 31.7104,2 24.0164,2 16.2311,2 10.4031,3.0844 8.4194,8.0945 5.64471,15.1022 16.5345,20.8571 16.5345,24 c 0,3.1429 -10.88979,8.8978 -8.1151,15.9055 C 10.4031,44.9156 16.2311,46 24.0164,46 31.7104,46 37.4602,44.7148 39.5144,39.8882 42.5416,32.7752 31.4678,27.1429 31.4678,24 Z"
       id="path3025"
       style="fill:#a6ceff;fill-opacity:1" />
    <path
       fill="#828480"
       d="m 24.1041,21.4337 c -0.0325,-0.5599 0.4275,-0.9785 0.9465,-1.17 1.2783,-0.4718 2.8727,-1.3878 4.4446,-2.411 1.434,-0.9335 2.8361,-2.2679 3.9054,-3.725 0.3593,-0.4897 0.2639,-1.1816 -0.2617,-1.4782 C 30.9132,11.3935 27.5722,11 23.5393,11 c -4.0936,0 -7.4862,0.3341 -9.7174,1.5986 -0.5009,0.2838 -0.5936,0.9435 -0.2525,1.4119 1.096,1.5047 2.5445,2.8859 4.0135,3.8422 1.6044,1.0443 3.2323,1.977 4.5236,2.4397 0.4776,0.1711 0.9023,0.5476 0.8915,1.0619 -0.0316,1.5063 -0.1626,5.0276 -0.7058,8.3413 -0.3235,1.9742 -1.7664,3.5076 -3.4903,4.4771 -0.2261,0.1272 -0.4536,0.2581 -0.6814,0.3919 -1.8425,1.0822 -3.6329,2.7864 -4.8374,4.6179 -0.4644,0.7061 -0.3638,1.6621 0.3489,2.1061 0.0615,0.0384 0.1248,0.076 0.1898,0.1128 C 16.053,42.6659 19.4456,43 23.5392,43 c 4.033,0 7.3739,-0.3935 9.5996,-1.6495 0.0822,-0.0464 0.1616,-0.094 0.2384,-0.1427 0.7044,-0.4474 0.8016,-1.3971 0.3406,-2.099 -1.1827,-1.8008 -2.9373,-3.4737 -4.7601,-4.5442 -0.2452,-0.144 -0.49,-0.2848 -0.7332,-0.421 -1.7261,-0.9673 -3.1369,-2.5051 -3.3994,-4.4894 -0.3863,-2.9202 -0.6266,-6.5983 -0.721,-8.2205 z"
       id="path3027"
       style="fill:#828480;fill-opacity:1" />
  </g>
</svg>
