<?xml version="1.0" encoding="UTF-8" standalone="no"?>
<svg
   fill="none"
   viewBox="0 0 48 48"
   height="256"
   width="256"
   version="1.1"
   id="svg18"
   sodipodi:docname="lightbulb_on.svg"
   inkscape:version="1.2.1 (9c6d41e410, 2022-07-14)"
   xmlns:inkscape="http://www.inkscape.org/namespaces/inkscape"
   xmlns:sodipodi="http://sodipodi.sourceforge.net/DTD/sodipodi-0.dtd"
   xmlns="http://www.w3.org/2000/svg"
   xmlns:svg="http://www.w3.org/2000/svg">
  <defs
     id="defs22" />
  <sodipodi:namedview
     id="namedview20"
     pagecolor="#ffffff"
     bordercolor="#111111"
     borderopacity="1"
     inkscape:showpageshadow="0"
     inkscape:pageopacity="0"
     inkscape:pagecheckerboard="1"
     inkscape:deskcolor="#d1d1d1"
     showgrid="false"
     inkscape:zoom="2.1445312"
     inkscape:cx="68.54645"
     inkscape:cy="123.80328"
     inkscape:window-width="1920"
     inkscape:window-height="730"
     inkscape:window-x="-6"
     inkscape:window-y="-6"
     inkscape:window-maximized="1"
     inkscape:current-layer="svg18" />
  <path
     id="circle2"
     style="fill:#fff01c;fill-opacity:1"
     d="M 0 -13.000122 A 13 13 0 0 1 13.000122 0 A 13 13 0 0 1 0 13.000122 A 13 13 0 0 1 -13.000122 0 A 13 13 0 0 1 0 -13.000122 z M 0 -10.5 C -5.6911653 -10.5 -10.5 -6.3303907 -10.5 -1.0001221 A 1.5 1.5 0 0 0 -9 0.49987793 A 1.5 1.5 0 0 0 -7.5 -1.0001221 C -7.5 -4.5064356 -4.2500147 -7.5 0 -7.5 A 1.5 1.5 0 0 0 1.5 -9 A 1.5 1.5 0 0 0 0 -10.5 z "
     transform="matrix(-1 0 0 1 24 24)" />
  <path
     fill="#828480"
     fill-rule="evenodd"
     d="M17.8265 34.0652C16.8541 34.0928 15.8747 34.454 15.6399 35.3981C15.5552 35.7384 15.498 36.1614 15.498 36.6831C15.498 37.2049 15.5552 37.6279 15.6399 37.9682C15.7327 38.3412 15.9417 38.6233 16.2206 38.8297C15.9417 39.0361 15.7327 39.3181 15.6399 39.6911C15.5552 40.0315 15.498 40.4545 15.498 40.9762C15.498 41.498 15.5552 41.9209 15.6399 42.2613C15.8747 43.2053 16.8541 43.5666 17.8265 43.5942C18.1233 43.6026 18.4732 43.6111 18.8833 43.619L19.3953 44.9114C19.6192 45.4766 20.0884 45.9096 20.685 46.0265C21.4396 46.1745 22.6036 46.3423 24.0008 46.3423C25.398 46.3423 26.562 46.1745 27.3166 46.0265C27.9132 45.9096 28.3824 45.4766 28.6063 44.9114L29.1183 43.619C29.5282 43.6111 29.878 43.6026 30.1748 43.5942C31.1472 43.5666 32.1265 43.2053 32.3614 42.2613C32.4461 41.9209 32.5032 41.498 32.5032 40.9762C32.5032 40.4545 32.4461 40.0315 32.3614 39.6911C32.2686 39.3181 32.0595 39.0361 31.7806 38.8297C32.0595 38.6233 32.2686 38.3412 32.3614 37.9682C32.4461 37.6279 32.5032 37.2049 32.5032 36.6831C32.5032 36.1614 32.4461 35.7384 32.3614 35.3981C32.1265 34.454 31.1472 34.0928 30.1748 34.0652C29.0346 34.0328 27.1117 34 24.0006 34C20.8895 34 18.9666 34.0328 17.8265 34.0652Z"
     clip-rule="evenodd"
     id="path4"
     style="fill:#828480;fill-opacity:1" />
  <path
     fill="#ffff68"
     d="M44.0427 21.5162C45.1161 21.5493 45.9539 22.2627 45.9896 23.336C45.9962 23.5355 46 23.7562 46 24C46 24.2438 45.9962 24.4645 45.9896 24.664C45.9539 25.7373 45.1161 26.4507 44.0427 26.4838C43.7261 26.4936 43.3758 26.5 43 26.5C42.6242 26.5 42.2739 26.4936 41.9573 26.4838C40.8839 26.4507 40.0461 25.7373 40.0104 24.664C40.0038 24.4645 40 24.2438 40 24C40 23.7562 40.0038 23.5355 40.0104 23.336C40.0461 22.2627 40.8839 21.5493 41.9573 21.5162C42.2739 21.5064 42.6242 21.5 43 21.5C43.3758 21.5 43.7261 21.5064 44.0427 21.5162Z"
     id="path8"
     style="fill:#ffff68;fill-opacity:1" />
  <path
     fill="#ffff68"
     d="M6.04272 21.5162C7.11615 21.5493 7.95394 22.2627 7.98957 23.336C7.99619 23.5355 8 23.7562 8 24C8 24.2438 7.99619 24.4645 7.98957 24.664C7.95394 25.7373 7.11615 26.4507 6.04272 26.4838C5.72611 26.4936 5.37575 26.5 5 26.5C4.62425 26.5 4.27389 26.4936 3.95728 26.4838C2.88385 26.4507 2.04606 25.7373 2.01043 24.664C2.00381 24.4645 2 24.2438 2 24C2 23.7562 2.00381 23.5355 2.01043 23.336C2.04606 22.2627 2.88385 21.5493 3.95728 21.5162C4.27389 21.5064 4.62425 21.5 5 21.5C5.37575 21.5 5.72611 21.5064 6.04272 21.5162Z"
     id="path10"
     style="fill:#ffff68;fill-opacity:1" />
  <path
     fill="#ffff68"
     d="M21.5162 3.95728C21.5493 2.88385 22.2627 2.04606 23.336 2.01043C23.5355 2.00381 23.7562 2 24 2C24.2438 2 24.4645 2.00381 24.664 2.01043C25.7373 2.04606 26.4507 2.88385 26.4838 3.95728C26.4936 4.27389 26.5 4.62425 26.5 5C26.5 5.37575 26.4936 5.72611 26.4838 6.04272C26.4507 7.11615 25.7373 7.95394 24.664 7.98957C24.4645 7.99619 24.2438 8 24 8C23.7562 8 23.5355 7.99619 23.336 7.98957C22.2627 7.95394 21.5493 7.11615 21.5162 6.04272C21.5064 5.72611 21.5 5.37575 21.5 5C21.5 4.62425 21.5064 4.27389 21.5162 3.95728Z"
     id="path12"
     style="fill:#ffff68;fill-opacity:1" />
  <path
     fill="#ffff68"
     d="M36.4165 8.07121C37.199 7.33564 38.2958 7.24766 39.08 7.98144C39.2257 8.11777 39.3844 8.27113 39.5568 8.44355C39.7292 8.61597 39.8826 8.77471 40.0189 8.92041C40.7527 9.70458 40.6647 10.8014 39.9292 11.5839C39.7122 11.8147 39.469 12.0669 39.2033 12.3326C38.9376 12.5983 38.6853 12.8416 38.4545 13.0585C37.672 13.7941 36.5752 13.8821 35.791 13.1483C35.6453 13.012 35.4866 12.8586 35.3142 12.6862C35.1418 12.5138 34.9884 12.355 34.8521 12.2093C34.1183 11.4252 34.2063 10.3283 34.9419 9.54583C35.1588 9.31504 35.402 9.0628 35.6677 8.7971C35.9334 8.5314 36.1857 8.28817 36.4165 8.07121Z"
     id="path14"
     style="fill:#ffff68;fill-opacity:1" />
  <path
     fill="#ffff68"
     d="M11.5835 8.07121C10.801 7.33564 9.7042 7.24766 8.92003 7.98144C8.77433 8.11777 8.61559 8.27113 8.44317 8.44355C8.27075 8.61597 8.11739 8.77471 7.98106 8.92041C7.24728 9.70458 7.33526 10.8014 8.07083 11.5839C8.28779 11.8147 8.53103 12.0669 8.79672 12.3326C9.06242 12.5983 9.31466 12.8416 9.54546 13.0585C10.328 13.7941 11.4248 13.8821 12.209 13.1483C12.3547 13.012 12.5134 12.8586 12.6858 12.6862C12.8582 12.5138 13.0116 12.355 13.1479 12.2093C13.8817 11.4252 13.7937 10.3283 13.0581 9.54583C12.8412 9.31504 12.598 9.0628 12.3323 8.7971C12.0666 8.5314 11.8143 8.28817 11.5835 8.07121Z"
     id="path16"
     style="fill:#ffff68;fill-opacity:1" />
</svg>
