<?xml version="1.0" encoding="UTF-8" standalone="no"?>
<svg
   fill="none"
   viewBox="0 0 48 48"
   height="256"
   width="256"
   version="1.1"
   id="svg6"
   sodipodi:docname="location.svg"
   inkscape:version="1.3.2 (091e20e, 2023-11-25, custom)"
   xmlns:inkscape="http://www.inkscape.org/namespaces/inkscape"
   xmlns:sodipodi="http://sodipodi.sourceforge.net/DTD/sodipodi-0.dtd"
   xmlns="http://www.w3.org/2000/svg"
   xmlns:svg="http://www.w3.org/2000/svg">
  <defs
     id="defs10" />
  <sodipodi:namedview
     id="namedview8"
     pagecolor="#ffffff"
     bordercolor="#666666"
     borderopacity="1.0"
     inkscape:showpageshadow="2"
     inkscape:pageopacity="0.0"
     inkscape:pagecheckerboard="0"
     inkscape:deskcolor="#d1d1d1"
     showgrid="false"
     inkscape:zoom="3.2382812"
     inkscape:cx="103.75875"
     inkscape:cy="122.13269"
     inkscape:current-layer="svg6"
     inkscape:window-width="2560"
     inkscape:window-height="1334"
     inkscape:window-x="-11"
     inkscape:window-y="-11"
     inkscape:window-maximized="1" />
  <g
     id="g1"
     transform="matrix(1.65,0,0,1.65,-37.05,1.7949337)"
     style="stroke-width:0.606061">
    <path
       fill="#d63232"
       d="m 48,11.2 c 0,6.1725 -5.5228,12.0325 -8.7418,14.9238 -1.3018,1.1693 -3.2146,1.1693 -4.5164,0 C 31.52283,23.2325 26,17.3725 26,11.2 26,5.01441 30.92487,0 37,0 43.0751,0 48,5.01441 48,11.2 Z"
       id="path139"
       style="fill:#d63232;fill-opacity:1;stroke-width:0.606061" />
    <path
       fill="#ff5454"
       d="m 41,11 c 0,2.2091 -1.7909,4 -4,4 -2.2091,0 -4,-1.7909 -4,-4 0,-2.2091 1.7909,-4 4,-4 2.2091,0 4,1.7909 4,4 z"
       id="path141"
       style="fill:#ff5454;fill-opacity:1;stroke-width:0.606061" />
  </g>
</svg>
