<?xml version="1.0" encoding="UTF-8" standalone="no"?>
<svg
   fill="none"
   viewBox="0 0 48 48"
   height="256"
   width="256"
   version="1.1"
   id="svg6"
   sodipodi:docname="nutshell.svg"
   inkscape:version="1.2.1 (9c6d41e410, 2022-07-14)"
   xml:space="preserve"
   xmlns:inkscape="http://www.inkscape.org/namespaces/inkscape"
   xmlns:sodipodi="http://sodipodi.sourceforge.net/DTD/sodipodi-0.dtd"
   xmlns="http://www.w3.org/2000/svg"
   xmlns:svg="http://www.w3.org/2000/svg"><defs
     id="defs10"><inkscape:path-effect
       effect="attach_path"
       id="path-effect8594"
       lpeversion="1" /><inkscape:path-effect
       effect="attach_path"
       id="path-effect8537"
       lpeversion="1" /><inkscape:path-effect
       effect="attach_path"
       id="path-effect8531"
       lpeversion="1" /></defs><sodipodi:namedview
     id="namedview8"
     pagecolor="#ffffff"
     bordercolor="#666666"
     borderopacity="1.0"
     inkscape:showpageshadow="2"
     inkscape:pageopacity="0.0"
     inkscape:pagecheckerboard="true"
     inkscape:deskcolor="#d1d1d1"
     showgrid="true"
     inkscape:zoom="1.1449053"
     inkscape:cx="-68.127905"
     inkscape:cy="78.172404"
     inkscape:current-layer="svg6"
     showguides="false"
     inkscape:window-width="1920"
     inkscape:window-height="730"
     inkscape:window-x="-6"
     inkscape:window-y="-6"
     inkscape:window-maximized="1"><inkscape:grid
       type="xygrid"
       id="grid239"
       units="px"
       spacingx="1.5"
       spacingy="1.5" /></sodipodi:namedview><path
     style="fill:#ffcd5c;fill-opacity:1;stroke:none;stroke-width:0.318257;stroke-linecap:round;stroke-linejoin:round;stroke-opacity:1"
     d="M 37.875917,10.972122 C 43.300481,18.012987 49.00876,29.656844 43.713434,43.773401 29.425941,48.977196 18.91588,44.284315 11.190139,37.657908 15.976524,25.011074 24.567145,15.837655 37.875917,10.972122 Z"
     id="path11697"
     sodipodi:nodetypes="cccc" /><path
     id="path11699"
     style="color:#000000;fill:#bb852e;stroke-width:1.69737;stroke-linecap:round;stroke-linejoin:round;fill-opacity:1"
     d="m 23.090842,2.0009135 c -4.80716,-0.04999 -9.319172,1.70761 -12.89004,4.6613501 A 2.3869295,2.3869295 0 0 0 10.037939,6.4888384 L 6.5638372,3.1502449 a 2.3869295,2.3869295 0 0 0 -3.3752668,0.069619 2.3869295,2.3869295 0 0 0 0.069626,3.3752674 L 6.732919,9.9299951 a 2.3869295,2.3869295 0 0 0 0.1690753,0.1466979 c -5.98550606,7.749194 -6.8908453,19.748928 2.8574784,29.170889 0.2750953,0.295572 1.2389343,0.177459 1.4271843,-0.253611 3.978586,-10.607951 10.398619,-19.076645 19.6499,-24.425623 3.552858,3.906621 5.807436,9.143997 6.790318,16.150934 a 1.5912863,1.5912863 0 0 0 1.797034,1.356324 1.5912863,1.5912863 0 0 0 1.352593,-1.797035 c -0.998893,-7.121126 -3.307883,-12.850215 -7.044549,-17.236863 1.701694,-0.815088 3.488517,-1.534391 5.364375,-2.151346 0.400619,-0.115795 0.3653,-1.0393275 0.06279,-1.3557017 C 34.021594,4.2964121 28.377929,2.0558948 23.090842,2.0009135 Z" /></svg>
