<?xml version="1.0" encoding="UTF-8" standalone="no"?>
<svg
   fill="none"
   viewBox="0 0 48.000003 48.000003"
   height="256"
   width="256"
   version="1.1"
   id="svg4"
   sodipodi:docname="path.svg"
   inkscape:version="1.2.1 (9c6d41e410, 2022-07-14)"
   xmlns:inkscape="http://www.inkscape.org/namespaces/inkscape"
   xmlns:sodipodi="http://sodipodi.sourceforge.net/DTD/sodipodi-0.dtd"
   xmlns="http://www.w3.org/2000/svg"
   xmlns:svg="http://www.w3.org/2000/svg">
  <defs
     id="defs8" />
  <sodipodi:namedview
     id="namedview6"
     pagecolor="#ffffff"
     bordercolor="#666666"
     borderopacity="1.0"
     inkscape:showpageshadow="2"
     inkscape:pageopacity="0.0"
     inkscape:pagecheckerboard="true"
     inkscape:deskcolor="#d1d1d1"
     showgrid="true"
     inkscape:zoom="1.6191406"
     inkscape:cx="117.3462"
     inkscape:cy="128.77202"
     inkscape:current-layer="svg4"
     inkscape:window-width="1920"
     inkscape:window-height="730"
     inkscape:window-x="-6"
     inkscape:window-y="-6"
     inkscape:window-maximized="1">
    <inkscape:grid
       type="xygrid"
       id="grid11864"
       units="px"
       spacingx="0.75"
       spacingy="0.75" />
  </sodipodi:namedview>
  <path
     id="rect504"
     style="fill:#828480;fill-opacity:1;stroke-width:0.1875;stroke-linecap:round;stroke-linejoin:round"
     d="m 12.75586,17.062501 c -0.107588,7.44e-4 -0.217004,0.01112 -0.529175,0.02857 -0.612859,0.04195 -1.03984,0.539715 -1.06311,1.153564 -0.0204,0.537999 -0.03845,9.926352 -0.03845,10.94275 0,1.016398 0.01624,10.441738 0.03664,10.979736 0.02327,0.61385 0.450246,1.111615 1.06311,1.153565 0.106802,0.0072 0.166736,0.01136 0.233277,0.01575 h 0.155251 c 0.538385,0 5.051352,0.03845 6.06775,0.03845 1.016397,0 3.654749,-0.01805 4.192749,-0.03845 0.613848,-0.02327 1.111614,-0.449881 1.153564,-1.062744 0.04085,-0.608939 0.0349,-0.422663 0,-1.046997 -0.04195,-0.612899 -0.539716,-1.03981 -1.153564,-1.06311 -0.538,-0.0204 -3.176352,-0.03845 -4.192749,-0.03845 -1.016398,0 -3.654751,0.01805 -4.19275,0.03845 -0.04607,0.0017 -0.09161,0.0059 -0.13623,0.01209 0.01337,-2.94581 0.02307,-8.237635 0.02307,-8.988282 0,-0.416825 -0.0038,-2.315841 -0.0088,-4.36084 0.03999,0.0051 0.08081,0.0083 0.121948,0.0099 0.537999,0.02039 3.176352,0.03845 4.19275,0.03845 1.016397,0 3.654749,-0.01805 4.192749,-0.03845 0.613848,-0.02327 1.111614,-0.449881 1.153564,-1.062744 0.04085,-0.608939 0.0349,-0.422663 0,-1.046997 -0.04195,-0.612899 -0.539716,-1.03981 -1.153564,-1.06311 -0.538,-0.0204 -3.176352,-0.03845 -4.192749,-0.03845 -1.016398,0 -3.654751,0.01805 -4.19275,0.03845 -0.04442,0.0017 -0.08839,0.0055 -0.13147,0.01135 -0.0061,-1.729991 -0.01266,-3.232871 -0.02014,-3.430298 -0.0233,-0.613849 -0.450262,-1.111615 -1.063111,-1.153564 -0.304473,-0.02043 -0.410234,-0.02931 -0.517822,-0.02857 z"
     sodipodi:nodetypes="sccssccssscccsscscssscccsscccs" />
  <path
     fill="#fff01c"
     d="M 9.3420597,0.00744109 C 10.199766,-0.0547663 11.033268,0.27647847 11.596411,0.87302893 l 0.90675,0.96055577 c 0.354291,0.3752962 0.868855,0.5909395 1.410167,0.5909395 h 6.636308 c 1.455778,0 2.668114,1.0241898 2.716862,2.3585038 0.03222,0.8821023 0.05273,1.9390527 0.05273,3.2003823 0,3.2195967 -0.133696,5.1074487 -0.254379,6.1556937 -0.0852,0.740314 -0.622911,1.317707 -1.418771,1.464443 -1.246841,0.229884 -3.586903,0.504409 -7.652509,0.504409 -4.0656056,0 -6.4056635,-0.274525 -7.6525125,-0.504409 C 5.5452195,15.456811 5.0075105,14.879418 4.9222867,14.139104 4.8016084,13.090859 4.6679124,11.203007 4.6679124,7.9834103 c 0,-3.2195584 0.133696,-5.1074492 0.2543743,-6.1556859 C 5.0075105,1.0874066 5.5460376,0.50982905 6.3418808,0.36313543 7.0031972,0.24124039 7.9718364,0.10682334 9.3420597,0.00744109 Z"
     id="path2"
     sodipodi:nodetypes="cccsscscssccsccc"
     style="stroke-width:0.403203;fill:#fff01c;fill-opacity:1" />
  <path
     fill="#e7c323"
     d="M 9.3420597,0.00744109 C 10.199766,-0.0547663 11.033268,0.27647847 11.596411,0.87302893 l 0.90675,0.96055577 c 0.354291,0.3752962 0.868855,0.5909395 1.410167,0.5909395 l -6.98303,-0.00618 C 5.6402991,2.4065631 5.1315,2.861393 4.7691637,3.6713049 4.7904804,3.1823605 4.8399601,2.6801219 4.8421361,2.6562383 4.8642254,2.4137798 4.9041375,1.9853727 4.9222867,1.8277244 5.0075105,1.0874066 5.5460376,0.50982905 6.3418808,0.36313543 7.0031972,0.24124039 7.9718364,0.10682334 9.3420597,0.00744109 Z"
     id="path971"
     style="fill:#e7c323;fill-opacity:1;stroke-width:0.403203"
     sodipodi:nodetypes="scccccsccs" />
  <path
     fill="#fff01c"
     d="m 30.065745,15.399487 c 0.857707,-0.06221 1.691209,0.269037 2.254351,0.865587 l 0.906751,0.960556 c 0.35429,0.375296 0.868855,0.59094 1.410167,0.59094 h 6.636308 c 1.455778,0 2.668114,1.02419 2.716861,2.358504 0.03222,0.882102 0.05273,1.939052 0.05273,3.200382 0,3.219597 -0.133696,5.107449 -0.254379,6.155693 -0.0852,0.740314 -0.622911,1.317708 -1.418772,1.464444 -1.24684,0.229883 -3.586902,0.504409 -7.652508,0.504409 -4.065606,0 -6.405664,-0.274526 -7.652513,-0.504409 -0.795839,-0.146736 -1.333548,-0.72413 -1.418772,-1.464444 -0.120678,-1.048244 -0.254374,-2.936096 -0.254374,-6.155693 0,-3.219559 0.133696,-5.107449 0.254374,-6.155686 0.08522,-0.740318 0.623751,-1.317895 1.419595,-1.464589 0.661316,-0.121895 1.629955,-0.256312 3.000178,-0.355694 z"
     id="path2-1"
     sodipodi:nodetypes="cccsscscssccsccc"
     style="stroke-width:0.403203;fill:#fff01c;fill-opacity:1" />
  <path
     fill="#e7c323"
     d="m 30.065745,15.399487 c 0.857707,-0.06221 1.691209,0.269037 2.254351,0.865587 l 0.906751,0.960556 c 0.35429,0.375296 0.868855,0.59094 1.410167,0.59094 l -6.98303,-0.0062 c -1.289999,-0.01178 -1.798798,0.443054 -2.161135,1.252965 0.02132,-0.488944 0.0708,-0.991183 0.07297,-1.015066 0.02209,-0.242459 0.062,-0.670866 0.08015,-0.828514 0.08522,-0.740318 0.623751,-1.317895 1.419595,-1.464589 0.661316,-0.121895 1.629955,-0.256312 3.000178,-0.355694 z"
     id="path971-3"
     style="fill:#e7c323;fill-opacity:1;stroke-width:0.403203"
     sodipodi:nodetypes="scccccsccs" />
  <path
     fill="#fff01c"
     d="m 30.065745,31.899488 c 0.857707,-0.06221 1.691209,0.269037 2.254351,0.865587 l 0.906751,0.960556 c 0.35429,0.375296 0.868855,0.59094 1.410167,0.59094 h 6.636308 c 1.455778,0 2.668114,1.02419 2.716861,2.358504 0.03222,0.882102 0.05273,1.939052 0.05273,3.200382 0,3.219597 -0.133696,5.107449 -0.254379,6.155693 -0.0852,0.740314 -0.622911,1.317708 -1.418772,1.464444 -1.24684,0.229883 -3.586902,0.504409 -7.652508,0.504409 -4.065606,0 -6.405664,-0.274526 -7.652513,-0.504409 -0.795839,-0.146736 -1.333548,-0.72413 -1.418772,-1.464444 -0.120678,-1.048244 -0.254374,-2.936096 -0.254374,-6.155693 0,-3.219559 0.133696,-5.107449 0.254374,-6.155686 0.08522,-0.740318 0.623751,-1.317895 1.419595,-1.464589 0.661316,-0.121895 1.629955,-0.256312 3.000178,-0.355694 z"
     id="path11898"
     sodipodi:nodetypes="cccsscscssccsccc"
     style="stroke-width:0.403203;fill:#fff01c;fill-opacity:1" />
  <path
     fill="#e7c323"
     d="m 30.065745,31.899488 c 0.857707,-0.06221 1.691209,0.269037 2.254351,0.865587 l 0.906751,0.960556 c 0.35429,0.375296 0.868855,0.59094 1.410167,0.59094 l -6.98303,-0.0062 c -1.289999,-0.01178 -1.798798,0.443054 -2.161135,1.252965 0.02132,-0.488944 0.0708,-0.991183 0.07297,-1.015066 0.02209,-0.242459 0.062,-0.670866 0.08015,-0.828514 0.08522,-0.740318 0.623751,-1.317895 1.419595,-1.464589 0.661316,-0.121895 1.629955,-0.256312 3.000178,-0.355694 z"
     id="path11900"
     style="fill:#e7c323;fill-opacity:1;stroke-width:0.403203"
     sodipodi:nodetypes="scccccsccs" />
</svg>
