<?xml version="1.0" encoding="UTF-8" standalone="no"?>
<svg
   fill="none"
   viewBox="0 0 48 48"
   height="256"
   width="256"
   version="1.1"
   id="svg14"
   sodipodi:docname="pinconfig_details.svg"
   inkscape:version="1.3.2 (091e20e, 2023-11-25, custom)"
   xml:space="preserve"
   xmlns:inkscape="http://www.inkscape.org/namespaces/inkscape"
   xmlns:sodipodi="http://sodipodi.sourceforge.net/DTD/sodipodi-0.dtd"
   xmlns="http://www.w3.org/2000/svg"
   xmlns:svg="http://www.w3.org/2000/svg"><defs
     id="defs18" /><sodipodi:namedview
     id="namedview16"
     pagecolor="#ffffff"
     bordercolor="#666666"
     borderopacity="1.0"
     inkscape:showpageshadow="2"
     inkscape:pageopacity="0.0"
     inkscape:pagecheckerboard="0"
     inkscape:deskcolor="#d1d1d1"
     showgrid="true"
     inkscape:zoom="1.4142136"
     inkscape:cx="59.750523"
     inkscape:cy="151.6744"
     inkscape:current-layer="svg14"
     inkscape:window-width="3840"
     inkscape:window-height="1494"
     inkscape:window-x="-11"
     inkscape:window-y="-11"
     inkscape:window-maximized="1"><inkscape:grid
       id="grid1"
       units="px"
       originx="0"
       originy="0"
       spacingx="0.75"
       spacingy="0.75"
       empcolor="#0099e5"
       empopacity="0.30196078"
       color="#0099e5"
       opacity="0.14901961"
       empspacing="5"
       dotted="false"
       gridanglex="30"
       gridanglez="30"
       visible="true" /></sodipodi:namedview><path
     fill="#adafaa"
     fill-rule="evenodd"
     d="M 40.08705,22.57965 C 40.76565,22.3863 41.1069,21.74055 41.14575,21.036 41.1948,20.14455 41.25,18.72888 41.25,16.875 41.25,14.558145 41.16375,11.47638 41.1111,9.812295 41.08695,9.04857 40.7313,8.340525 39.9927,8.14443 39.4413,7.99803 38.6391,7.875 37.5,7.875 c -1.1391,0 -1.94145,0.12303 -2.49285,0.26943 -0.73845,0.19608 -1.0941,0.904155 -1.11825,1.667895 -0.05265,1.6641 -0.1389,4.745835 -0.1389,7.062675 0,1.853835 0.0552,3.26955 0.10425,4.161 0.0387,0.70455 0.37995,1.3503 1.0587,1.54365 0.5529,0.1575 1.3812,0.29535 2.58705,0.29535 1.20585,0 2.03415,-0.13785 2.58705,-0.29535 z"
     clip-rule="evenodd"
     id="path6"
     style="fill:#adafaa;fill-opacity:1;stroke-width:1.5"
     sodipodi:nodetypes="ccscssccscssc" /><path
     fill="#d63232"
     fill-rule="evenodd"
     d="m 34.161,28.02075 c 0.70455,-0.03885 1.3503,-0.3801 1.54365,-1.0587 C 35.86215,26.40915 36,25.58085 36,24.375 36,23.16915 35.86215,22.34085 35.70465,21.78795 35.5113,21.1092 34.86555,20.76795 34.161,20.72925 33.26955,20.6802 31.85382,20.625 30,20.625 c -2.31684,0 -5.398575,0.08625 -7.062675,0.1389 -0.76374,0.02415 -1.471815,0.3798 -1.667895,1.11825 C 21.12303,22.43355 21,23.2359 21,24.375 c 0,1.1391 0.12303,1.9413 0.26943,2.4927 0.196095,0.7386 0.90414,1.09425 1.667865,1.1184 1.664085,0.05265 4.74585,0.1389 7.062705,0.1389 1.85388,0 3.26955,-0.0552 4.161,-0.10425 z"
     clip-rule="evenodd"
     id="path7"
     style="fill:#d63232;fill-opacity:1;stroke-width:1.5"
     sodipodi:nodetypes="ccsscsccsccsc" /><path
     fill="#adafaa"
     fill-rule="evenodd"
     d="M 48.00157,7.8942601 C 47.769069,7.8818572 47.518923,7.875 47.25,7.875 46.1109,7.875 45.30855,7.99803 44.75715,8.14443 44.0187,8.34051 43.66305,9.048585 43.6389,9.812325 43.58625,11.476425 43.5,14.55816 43.5,16.875 c 0,1.853835 0.0552,3.26955 0.10425,4.161 0.0387,0.70455 0.37995,1.3503 1.0587,1.54365 0.5529,0.1575 1.3812,0.29535 2.58705,0.29535 0.268356,0 0.518014,-0.0068 0.750098,-0.01918 z"
     clip-rule="evenodd"
     id="path5-9"
     style="fill:#adafaa;fill-opacity:1;stroke-width:1.5"
     sodipodi:nodetypes="csccscsscc" /><path
     fill="#adafaa"
     fill-rule="evenodd"
     d="m 34.161,37.77075 c 0.70455,-0.03885 1.3503,-0.3801 1.54365,-1.0587 C 35.86215,36.15915 36,35.33085 36,34.125 36,32.91915 35.86215,32.09085 35.70465,31.53795 35.5113,30.8592 34.86555,30.51795 34.161,30.47925 33.26955,30.4302 31.85382,30.375 30,30.375 c -2.31684,0 -5.398575,0.08625 -7.062675,0.1389 -0.76374,0.02415 -1.471815,0.3798 -1.667895,1.11825 C 21.12303,32.18355 21,32.9859 21,34.125 c 0,1.1391 0.12303,1.9413 0.26943,2.4927 0.196095,0.7386 0.90414,1.09425 1.667865,1.1184 1.664085,0.05265 4.74585,0.1389 7.062705,0.1389 1.85388,0 3.26955,-0.0552 4.161,-0.10425 z"
     clip-rule="evenodd"
     id="path1"
     style="fill:#adafaa;fill-opacity:1;stroke-width:1.5"
     sodipodi:nodetypes="ccsscsccsccsc" /><path
     fill="#adafaa"
     fill-rule="evenodd"
     d="m 34.161,47.52075 c 0.70455,-0.03885 1.3503,-0.3801 1.54365,-1.0587 C 35.86215,45.90915 36,45.08085 36,43.875 36,42.66915 35.86215,41.84085 35.70465,41.28795 35.5113,40.6092 34.86555,40.26795 34.161,40.22925 33.26955,40.1802 31.85382,40.125 30,40.125 c -2.31684,0 -5.398575,0.08625 -7.062675,0.1389 -0.76374,0.02415 -1.471815,0.3798 -1.667895,1.11825 C 21.12303,41.93355 21,42.7359 21,43.875 c 0,1.1391 0.12303,1.9413 0.26943,2.4927 0.196095,0.7386 0.90414,1.09425 1.667865,1.1184 1.664085,0.05265 4.74585,0.1389 7.062705,0.1389 1.85388,0 3.26955,-0.0552 4.161,-0.10425 z"
     clip-rule="evenodd"
     id="path3"
     style="fill:#adafaa;fill-opacity:1;stroke-width:1.5"
     sodipodi:nodetypes="ccsscsccsscsc" /><path
     fill="#860000"
     fill-rule="evenodd"
     d="m 33.08541,27.328057 c 0.570686,-0.03146 1.093743,-0.30788 1.250357,-0.857547 C 34.463342,26.022661 34.575,25.351738 34.575,24.375 c 0,-0.976739 -0.111658,-1.647662 -0.239233,-2.095511 -0.156614,-0.549787 -0.679671,-0.826199 -1.250357,-0.857546 -0.722074,-0.03973 -1.868816,-0.08444 -3.37041,-0.08444 -1.87664,0 -4.372846,0.06986 -5.720767,0.112509 -0.618629,0.01956 -1.19217,0.307638 -1.350995,0.905782 C 22.524654,22.802425 22.425,23.452329 22.425,24.375 c 0,0.922671 0.09965,1.572453 0.218238,2.019087 0.158837,0.598266 0.732354,0.886342 1.350971,0.905904 1.347909,0.04265 3.844138,0.112509 5.720791,0.112509 1.501643,0 2.648336,-0.04471 3.37041,-0.08444 z"
     clip-rule="evenodd"
     id="path8"
     style="fill:#860000;fill-opacity:1;stroke-width:1.215"
     sodipodi:nodetypes="ccsscsccsccsc" /><path
     fill="#606668"
     d="m 28.5,48 c 0,-6.879269 0.273315,-22.768412 0.56061,-26.138894 0.27885,-3.271469 3.208275,-5.770096 7.04379,-6.007939 C 40.056,15.608122 39.93465,15.375 48,15.375 V 48 Z"
     id="path10"
     style="fill:#606668;fill-opacity:1;stroke-width:1.38532"
     sodipodi:nodetypes="cccccc" /><path
     fill="#606668"
     d="M 7.7387169,26.5837 H 4.0385564 c -0.17549,0.5915 -0.31738,1.1288 -0.44749,1.6215 -0.12739,0.4824 -0.48818,0.8841 -0.98188,0.9564 -0.19716,0.0288 -0.39628,0.0441 -0.59448,0.0441 -0.73864,0 -1.64509997,-0.1519 -1.94369997,-0.7836 -0.13971,-0.2956 -0.0477,-0.6361 0.0573,-0.9457 0.50891,-1.5019 2.12876997,-6.27535 3.08634997,-9.01817 0.16173,-0.46324 0.48474,-0.86436 0.95389,-1.00805 0.57191,-0.17515 1.2028205,-0.24448 1.7712205,-0.24448 0.95736,0 2.45456,0.16921 2.82116,1.16747 l 2.8641991,9.12043 c 0.2137,0.6806 0.0259,1.4538 -0.6713,1.6051 -0.2619,0.0568 -0.559,0.0879 -0.884599,0.0879 -1.0327001,0 -1.6966001,-0.3142 -1.9625001,-1.2823 z m -1.7601,-6.37321 c -0.0356,0 -0.0673,0.02206 -0.0796,0.05549 C 5.5204069,21.30217 5.0393569,22.571 4.6109264,24 h 2.5349505 c -0.3282,-1.2509 -0.7204,-2.48704 -1.0861,-3.7287 -0.0106,-0.03605 -0.0437,-0.06081 -0.0812,-0.06081 z"
     id="path1126"
     style="fill:#606668;fill-opacity:1" /><g
     id="text1"><path
       id="path2"
       style="color:#000000;-inkscape-font-specification:'Arial Rounded MT Bold, Normal';fill:#606668;stroke-linecap:round;stroke-linejoin:round;-inkscape-stroke:none"
       d="M 13.994019 17.185547 C 13.6379 17.185547 13.274408 17.344803 13.052856 17.625 C 13.052187 17.625665 13.051359 17.626131 13.050659 17.626831 C 12.823752 17.915635 12.75 18.279837 12.75 18.679688 L 12.75 27.8302 C 12.75 28.212507 12.833769 28.571682 13.068237 28.847534 C 13.071437 28.850134 13.074825 28.852991 13.078125 28.855591 C 13.306507 29.110073 13.652952 29.25 13.994019 29.25 C 14.332859 29.25 14.674807 29.110996 14.908081 28.865112 L 14.912109 28.86145 C 14.985689 28.78191 14.964807 28.654677 15.01355 28.560425 C 15.129566 28.659175 15.248018 28.755618 15.38855 28.845703 C 15.39115 28.847703 15.394006 28.849663 15.396606 28.851562 C 15.601941 28.977925 15.833786 29.072369 16.091675 29.1427 L 16.093872 29.1427 C 16.364172 29.2151 16.648102 29.25 16.94165 29.25 C 17.422954 29.25 17.880371 29.152018 18.292969 28.953003 L 18.295166 28.953003 C 18.706656 28.752042 19.062046 28.463336 19.347656 28.101562 C 19.630932 27.742747 19.843474 27.323202 19.984497 26.855347 L 19.984497 26.853516 C 20.129734 26.380787 20.199463 25.870246 20.199463 25.32605 C 20.199463 24.591694 20.075731 23.933137 19.810547 23.363159 L 19.808716 23.361328 C 19.549059 22.792222 19.161303 22.330396 18.662109 22.019531 C 18.167788 21.704983 17.588453 21.550781 16.96106 21.550781 C 16.425531 21.550781 15.942615 21.646234 15.533203 21.865356 C 15.437653 21.915526 15.354754 22.015847 15.261841 22.076294 L 15.261841 18.605347 C 15.261841 18.230002 15.174663 17.874288 14.943604 17.601562 C 14.714271 17.327496 14.350917 17.185547 13.994385 17.185547 L 13.994019 17.185547 z M 16.521606 23.720581 C 16.742446 23.720581 16.898808 23.774023 17.050781 23.888672 C 17.052081 23.889345 17.05351 23.889803 17.05481 23.890503 C 17.207851 24.003271 17.333086 24.167461 17.433472 24.420044 C 17.532182 24.668422 17.589844 24.986379 17.589844 25.380981 C 17.589844 25.990333 17.454005 26.393598 17.240112 26.650269 C 17.007362 26.930199 16.805702 27.025269 16.521606 27.025269 C 16.143406 27.025269 15.906563 26.91525 15.683716 26.658325 C 15.474898 26.40932 15.341675 26.021127 15.341675 25.429688 C 15.341675 25.027297 15.405117 24.705588 15.515625 24.453003 C 15.516294 24.452338 15.516756 24.451872 15.517456 24.451172 C 15.632242 24.185525 15.770731 24.015216 15.9375 23.900391 C 15.9395 23.899091 15.941359 23.897662 15.943359 23.896362 C 16.114669 23.775604 16.290363 23.720581 16.521606 23.720581 z " /></g></svg>
