<?xml version="1.0" encoding="UTF-8" standalone="no"?>
<svg
   fill="none"
   viewBox="0 0 48 48"
   height="256"
   width="256"
   version="1.1"
   id="svg10030"
   sodipodi:docname="preferences.svg"
   inkscape:version="1.2.1 (9c6d41e410, 2022-07-14)"
   xmlns:inkscape="http://www.inkscape.org/namespaces/inkscape"
   xmlns:sodipodi="http://sodipodi.sourceforge.net/DTD/sodipodi-0.dtd"
   xmlns="http://www.w3.org/2000/svg"
   xmlns:svg="http://www.w3.org/2000/svg">
  <defs
     id="defs10034" />
  <sodipodi:namedview
     id="namedview10032"
     pagecolor="#ffffff"
     bordercolor="#111111"
     borderopacity="1"
     inkscape:showpageshadow="0"
     inkscape:pageopacity="0"
     inkscape:pagecheckerboard="1"
     inkscape:deskcolor="#d1d1d1"
     showgrid="false"
     inkscape:zoom="2.1445312"
     inkscape:cx="65.282332"
     inkscape:cy="128.4663"
     inkscape:window-width="1920"
     inkscape:window-height="730"
     inkscape:window-x="-6"
     inkscape:window-y="-6"
     inkscape:window-maximized="1"
     inkscape:current-layer="svg10030" />
  <path
     fill="#ffcd5c"
     d="M25.3406 2.05869C26.5234 2.17219 27.1951 3.18155 27.2415 4.36882C27.3452 7.02347 27.5 12.8529 27.5 24C27.5 35.1471 27.3452 40.9765 27.2415 43.6312C27.1951 44.8185 26.5234 45.8278 25.3406 45.9413C24.9668 45.9772 24.5233 46 24 46C23.4767 46 23.0332 45.9772 22.6594 45.9413C21.4766 45.8278 20.8049 44.8185 20.7585 43.6312C20.6548 40.9765 20.5 35.1471 20.5 24C20.5 12.8529 20.6548 7.02347 20.7585 4.36882C20.8049 3.18155 21.4766 2.17219 22.6594 2.05869C23.0332 2.02281 23.4767 2 24 2C24.5233 2 24.9668 2.02281 25.3406 2.05869Z"
     id="path10018"
     style="fill:#ffcd5c;fill-opacity:1" />
  <circle
     cx="24"
     cy="17"
     r="7"
     fill="#fd3131"
     transform="rotate(90 24 17)"
     id="circle10020"
     style="fill:#fd3131;fill-opacity:1" />
  <path
     fill="#ffcd5c"
     d="M40.3406 45.9413C41.5234 45.8278 42.1951 44.8185 42.2415 43.6312C42.3452 40.9765 42.5 35.1471 42.5 24C42.5 12.8529 42.3452 7.02346 42.2415 4.36881C42.1951 3.18155 41.5234 2.17219 40.3406 2.05869C39.9668 2.02281 39.5233 2 39 2C38.4767 2 38.0332 2.02281 37.6594 2.05869C36.4766 2.17219 35.8049 3.18155 35.7585 4.36881C35.6548 7.02346 35.5 12.8529 35.5 24C35.5 35.1471 35.6548 40.9765 35.7585 43.6312C35.8049 44.8185 36.4766 45.8278 37.6594 45.9413C38.0332 45.9772 38.4767 46 39 46C39.5233 46 39.9668 45.9772 40.3406 45.9413Z"
     id="path10022"
     style="fill:#ffcd5c;fill-opacity:1" />
  <circle
     r="7"
     fill="#fd3131"
     transform="matrix(0 -1 -1 0 39 31)"
     id="circle10024"
     style="fill:#fd3131;fill-opacity:1" />
  <path
     fill="#ffcd5c"
     d="M10.3406 45.9413C11.5234 45.8278 12.1951 44.8185 12.2415 43.6312C12.3452 40.9765 12.5 35.1471 12.5 24C12.5 12.8529 12.3452 7.02346 12.2415 4.36881C12.1951 3.18155 11.5234 2.17219 10.3406 2.05869C9.96678 2.02281 9.52331 2 9 2C8.47669 2 8.03323 2.02281 7.65937 2.05869C6.47663 2.17219 5.80487 3.18155 5.75849 4.36881C5.65479 7.02346 5.5 12.8529 5.5 24C5.5 35.1471 5.65479 40.9765 5.75849 43.6312C5.80487 44.8185 6.47663 45.8278 7.65938 45.9413C8.03323 45.9772 8.4767 46 9 46C9.5233 46 9.96677 45.9772 10.3406 45.9413Z"
     id="path10026"
     style="fill:#ffcd5c;fill-opacity:1" />
  <circle
     r="7"
     fill="#fd3131"
     transform="matrix(0 -1 -1 0 9 31)"
     id="circle10028"
     style="fill:#fd3131;fill-opacity:1" />
</svg>
