<?xml version="1.0" encoding="UTF-8" standalone="no"?>
<svg
   fill="none"
   viewBox="0 0 48 48"
   height="256"
   width="256"
   version="1.1"
   id="svg11255"
   sodipodi:docname="question_mark.svg"
   inkscape:version="1.2.1 (9c6d41e410, 2022-07-14)"
   xmlns:inkscape="http://www.inkscape.org/namespaces/inkscape"
   xmlns:sodipodi="http://sodipodi.sourceforge.net/DTD/sodipodi-0.dtd"
   xmlns="http://www.w3.org/2000/svg"
   xmlns:svg="http://www.w3.org/2000/svg">
  <defs
     id="defs11259" />
  <sodipodi:namedview
     id="namedview11257"
     pagecolor="#ffffff"
     bordercolor="#111111"
     borderopacity="1"
     inkscape:showpageshadow="0"
     inkscape:pageopacity="0"
     inkscape:pagecheckerboard="1"
     inkscape:deskcolor="#d1d1d1"
     showgrid="false"
     inkscape:zoom="2.1445312"
     inkscape:cx="65.282332"
     inkscape:cy="128.4663"
     inkscape:window-width="1920"
     inkscape:window-height="730"
     inkscape:window-x="-6"
     inkscape:window-y="-6"
     inkscape:window-maximized="1"
     inkscape:current-layer="svg11255" />
  <path
     fill="#ffff68"
     d="M2.58134 40.6959C2.79349 43.2509 4.74913 45.2065 7.30406 45.4187C10.6714 45.6983 16.1287 46 24 46C31.8712 46 37.3286 45.6983 40.6959 45.4187C43.2509 45.2065 45.2065 43.2509 45.4187 40.6959C45.6983 37.3286 46 31.8713 46 24C46 16.1288 45.6983 10.6714 45.4187 7.30406C45.2065 4.74913 43.2509 2.79349 40.6959 2.58134C37.3286 2.30174 31.8712 2 24 2C16.1288 2 10.6714 2.30174 7.30406 2.58134C4.74914 2.79348 2.79349 4.74913 2.58134 7.30406C2.30174 10.6714 2 16.1288 2 24C2 31.8712 2.30174 37.3286 2.58134 40.6959Z"
     id="path11251"
     style="fill:#ffff68;fill-opacity:1" />
  <path
     fill="#e7c323"
     fill-rule="evenodd"
     d="M20.8487 23.7369C20.4858 24.0706 20.3112 24.5224 20.3251 25.0923H20.3236V28.1243C20.3236 28.9528 20.9951 29.6243 21.8236 29.6243H24.3531C25.1815 29.6243 25.8531 28.9528 25.8531 28.1243V27.1575L26.117 27.0344C27.2986 26.4759 28.3465 25.896 29.2607 25.2949C30.1749 24.6938 30.9161 24.0398 31.4843 23.3329C32.0761 22.6235 32.4923 21.8376 32.733 20.9752C32.9948 20.0866 33.064 19.0757 32.9407 17.9423C32.6891 15.6283 31.7568 13.8661 30.1439 12.6558C28.5547 11.443 26.3669 10.988 23.5807 11.291C22.6126 11.3963 21.7138 11.5896 20.8843 11.871C20.0522 12.1287 19.3367 12.4693 18.7377 12.8928C18.1386 13.3164 17.6785 13.8084 17.3572 14.3689C17.0595 14.9269 16.9479 15.5483 17.0224 16.2331C17.0932 16.8843 17.348 17.442 17.7495 17.8849C18.2914 18.4826 19.1992 18.2776 19.8557 17.8085C20.156 17.5939 20.4658 17.3982 20.7852 17.2215C21.4813 16.8113 22.3133 16.5536 23.2814 16.4483C24.344 16.3327 25.1278 16.5103 25.6329 16.981C26.1617 17.4491 26.4594 17.9901 26.5262 18.604C26.6006 19.2888 26.4511 19.8904 26.0774 20.4089C25.7012 20.9037 25.173 21.3195 24.4929 21.6563L22.4525 22.6666C21.796 23.0008 21.2614 23.3576 20.8487 23.7369ZM19.6046 35.3283C19.6046 34.3307 19.9015 33.5232 20.4953 32.9056C21.1128 32.2881 21.956 31.9793 23.0248 31.9793C24.0936 31.9793 24.9249 32.2881 25.5187 32.9056C26.1362 33.5232 26.445 34.3307 26.445 35.3283C26.445 36.3258 26.1362 37.1334 25.5187 37.7509C24.9249 38.3685 24.0936 38.6772 23.0248 38.6772C21.956 38.6772 21.1128 38.3685 20.4953 37.7509C19.9015 37.1334 19.6046 36.3258 19.6046 35.3283Z"
     clip-rule="evenodd"
     id="path11253"
     style="fill:#e7c323;fill-opacity:1" />
</svg>
