<?xml version="1.0" encoding="UTF-8" standalone="no"?>
<svg
   fill="none"
   viewBox="0 0 48 48"
   height="256"
   width="256"
   version="1.1"
   id="svg6"
   sodipodi:docname="rocket.svg"
   inkscape:version="1.2.1 (9c6d41e410, 2022-07-14)"
   xml:space="preserve"
   xmlns:inkscape="http://www.inkscape.org/namespaces/inkscape"
   xmlns:sodipodi="http://sodipodi.sourceforge.net/DTD/sodipodi-0.dtd"
   xmlns="http://www.w3.org/2000/svg"
   xmlns:svg="http://www.w3.org/2000/svg"><defs
     id="defs10" /><sodipodi:namedview
     id="namedview8"
     pagecolor="#ffffff"
     bordercolor="#666666"
     borderopacity="1.0"
     inkscape:showpageshadow="2"
     inkscape:pageopacity="0.0"
     inkscape:pagecheckerboard="true"
     inkscape:deskcolor="#d1d1d1"
     showgrid="true"
     inkscape:zoom="1.6191406"
     inkscape:cx="27.792521"
     inkscape:cy="109.62606"
     inkscape:current-layer="svg6"
     showguides="false"
     inkscape:window-width="1920"
     inkscape:window-height="730"
     inkscape:window-x="-6"
     inkscape:window-y="-6"
     inkscape:window-maximized="1"><inkscape:grid
       type="xygrid"
       id="grid239"
       units="px"
       spacingx="1.5"
       spacingy="1.5" /></sodipodi:namedview><path
     id="path8401"
     style="fill:#d63232;fill-opacity:1;stroke-width:0.159345"
     d="m 19.185318,10.539012 c -0.604083,0.0028 -1.007892,0.34041 -1.201936,0.802637 -0.209247,0.521065 -0.412223,1.055691 -0.578247,1.534004 -2.305842,6.643127 -2.187476,14.008924 0.343275,21.353131 0.558608,1.621066 1.430347,3.754379 1.945128,4.816132 0.400036,0.843603 2.561465,0.813716 4.293904,0.81353 1.732438,1.86e-4 3.893867,0.03008 4.293903,-0.81353 0.514781,-1.061753 1.38652,-3.195066 1.945128,-4.816132 2.530751,-7.344207 2.649117,-14.710004 0.343275,-21.353131 -0.166024,-0.478313 -0.369,-1.012939 -0.578247,-1.534004 -0.194044,-0.462227 -0.597853,-0.799833 -1.201936,-0.802637 h -4.802123 z" /><path
     id="path8403"
     style="fill:#d63232;fill-opacity:1;stroke-width:0.318689;stroke-linecap:round;stroke-linejoin:round"
     d="m 23.987442,2.0000626 c -2.295058,0.017801 -4.124327,3.8846888 -4.878066,6.4783601 -0.178483,0.4952807 0.386898,0.7858311 0.70087,0.7858311 h 4.177196 4.177195 c 0.313972,0 0.879353,-0.2905504 0.70087,-0.7858311 C 28.111768,5.8847514 26.282499,2.0178633 23.987442,2.0000626 Z" /><path
     style="fill:#fff01c;fill-opacity:1;stroke-width:0.159345"
     d="m 10.854623,42.571359 c -0.3905,-1.881696 -0.359908,-5.587597 0.05937,-7.190475 0.181981,-0.69571 0.569869,-1.777591 0.861967,-2.404167 0.64637,-1.386517 2.012068,-3.29814 2.816411,-4.059622 0.17487,-0.159394 0.646971,-0.202711 0.733479,0.105025 0.104083,0.327616 0.228221,0.810047 0.340248,1.340569 0.201518,0.954323 0.77306,2.921446 1.270095,4.371382 l 0.683184,1.992958 c 0.138207,0.313407 -0.08901,0.864301 -0.310043,1.014116 -2.033878,1.421538 -3.826173,4.453699 -4.626996,7.801991 -0.10621,0.578386 -0.822501,0.64757 -1.035281,-0.02464 -0.279608,-1.003368 -0.580481,-1.946206 -0.792433,-2.947135 z"
     id="path8192"
     sodipodi:nodetypes="cssccssccccc" /><path
     style="fill:#fff01c;fill-opacity:1;stroke-width:0.159345"
     d="m 27.135745,21.744582 c 0.38711,-1.380617 -0.294775,-3.012839 -1.53763,-3.680667 -1.28578,-0.690884 -2.497922,-0.614067 -3.666586,0.23237 -1.075692,0.779102 -1.54935,2.460585 -1.060216,3.763783 1.108767,2.954072 5.408415,2.737536 6.264432,-0.315486 z"
     id="path8271"
     sodipodi:nodetypes="sssss" /><path
     style="fill:#fff01c;fill-opacity:1;stroke-width:0.159345"
     d="m 37.145377,42.571359 c 0.3905,-1.881696 0.359908,-5.587597 -0.05937,-7.190475 -0.181981,-0.69571 -0.569869,-1.777591 -0.861967,-2.404167 -0.64637,-1.386517 -2.012068,-3.29814 -2.816411,-4.059622 -0.17487,-0.159394 -0.646971,-0.202711 -0.733479,0.105025 -0.104083,0.327616 -0.228221,0.810047 -0.340247,1.340569 -0.201518,0.954323 -0.773061,2.921446 -1.270096,4.371382 l -0.683184,1.992958 c -0.138207,0.313407 0.08901,0.864301 0.310043,1.014116 2.033878,1.421538 3.826173,4.453699 4.626996,7.801991 0.10621,0.578386 0.822501,0.64757 1.035281,-0.02464 0.279608,-1.003368 0.580481,-1.946206 0.792433,-2.947135 z"
     id="path9212"
     sodipodi:nodetypes="cssccssccccc" /></svg>
