<?xml version="1.0" encoding="UTF-8" standalone="no"?>
<svg
   fill="none"
   viewBox="0 0 48 48"
   height="256"
   width="256"
   version="1.1"
   id="svg6"
   sodipodi:docname="rocket_flying.svg"
   inkscape:version="1.2.1 (9c6d41e410, 2022-07-14)"
   xml:space="preserve"
   xmlns:inkscape="http://www.inkscape.org/namespaces/inkscape"
   xmlns:sodipodi="http://sodipodi.sourceforge.net/DTD/sodipodi-0.dtd"
   xmlns="http://www.w3.org/2000/svg"
   xmlns:svg="http://www.w3.org/2000/svg"><defs
     id="defs10" /><sodipodi:namedview
     id="namedview8"
     pagecolor="#ffffff"
     bordercolor="#666666"
     borderopacity="1.0"
     inkscape:showpageshadow="2"
     inkscape:pageopacity="0.0"
     inkscape:pagecheckerboard="true"
     inkscape:deskcolor="#d1d1d1"
     showgrid="true"
     inkscape:zoom="1.6191406"
     inkscape:cx="20.381182"
     inkscape:cy="65.158023"
     inkscape:current-layer="svg6"
     showguides="false"
     inkscape:window-width="1920"
     inkscape:window-height="730"
     inkscape:window-x="-6"
     inkscape:window-y="-6"
     inkscape:window-maximized="1"><inkscape:grid
       type="xygrid"
       id="grid239"
       units="px"
       spacingx="1.5"
       spacingy="1.5" /></sodipodi:namedview><path
     id="path1010"
     style="fill:#ff5454;fill-opacity:1;stroke-width:0.375;stroke-linecap:round;stroke-linejoin:round"
     d="m 30.259398,34.510918 c -0.148521,0.148522 -0.141276,0.474671 0.08157,0.610346 2.842066,1.565232 8.934046,8.405262 11.055362,6.283946 2.121316,-2.121317 -4.718714,-8.213297 -6.283946,-11.055362 -0.135675,-0.222847 -0.461824,-0.230092 -0.610345,-0.08157 l -2.121321,2.12132 z" /><path
     id="path8401"
     style="fill:#d63232;fill-opacity:1;stroke-width:0.159345"
     d="m 7.1924727,13.992581 c -0.4251676,0.429134 -0.4719806,0.953394 -0.2823466,1.417447 0.2204887,0.516409 0.455001,1.037972 0.6758224,1.493587 3.0669235,6.327877 8.3590255,11.452585 15.3416755,14.856211 1.541262,0.751272 3.666155,1.643339 4.780933,2.030107 0.879385,0.313649 2.386613,-1.235845 3.611501,-2.460995 1.22515,-1.224888 2.774647,-2.732113 2.460996,-3.611501 C 33.394286,26.602658 32.502218,24.477766 31.750947,22.936504 28.34732,15.953854 23.222612,10.661752 16.894736,7.5948283 16.43912,7.3740069 15.917557,7.1394946 15.401148,6.9190059 14.937095,6.7293719 14.412835,6.7761849 13.983701,7.2013525 l -3.395614,3.3956145 z" /><path
     id="path8403"
     style="fill:#d63232;fill-opacity:1;stroke-width:0.318689;stroke-linecap:round;stroke-linejoin:round"
     d="M 4.5501383,4.5590181 C 2.9398747,6.1944557 4.3806888,10.222247 5.6817174,12.589224 5.9057271,13.065647 6.5109618,12.871312 6.7329741,12.6493 L 9.6866971,9.6955769 12.64042,6.7418539 C 12.862432,6.5198416 13.056767,5.9146069 12.580344,5.6905972 10.213367,4.3895686 6.1855759,2.9487545 4.5501383,4.5590181 Z" /><path
     style="fill:#fff01c;fill-opacity:1;stroke-width:0.159345"
     d="m 23.952072,42.533562 c -1.606685,-1.054435 -4.205521,-3.696535 -5.042454,-5.126415 -0.363261,-0.62062 -0.853988,-1.659904 -1.090499,-2.309505 -0.523364,-1.437467 -0.909391,-3.754883 -0.879083,-4.862089 0.01094,-0.23636 0.314139,-0.600816 0.592912,-0.444384 0.305257,0.158061 0.734166,0.411413 1.188516,0.707334 0.817303,0.532313 2.612411,1.519138 3.989128,2.192941 l 1.892317,0.92615 c 0.319339,0.123885 0.548217,0.674089 0.497855,0.936321 -0.43299,2.443349 0.443728,5.854754 2.245061,8.788622 0.333879,0.484082 -0.123695,1.039496 -0.749482,0.714627 -0.907201,-0.511775 -1.786637,-0.965714 -2.644274,-1.523604 z"
     id="path8192"
     sodipodi:nodetypes="cssccssccccc" /><path
     style="fill:#fff01c;fill-opacity:1;stroke-width:0.159345"
     d="m 20.737809,16.294315 c -0.702515,-1.249972 -2.338836,-1.921962 -3.689893,-1.515356 -1.397713,0.420655 -2.200509,1.332087 -2.428358,2.756978 -0.209721,1.311537 0.64434,2.835452 1.91171,3.411083 2.872861,1.304827 5.760058,-1.888598 4.206541,-4.652705 z"
     id="path8271"
     sodipodi:nodetypes="sssss" /><path
     style="fill:#fff01c;fill-opacity:1;stroke-width:0.159345"
     d="m 42.542443,23.943191 c -1.054436,-1.606684 -3.696535,-4.205521 -5.126415,-5.042453 -0.62062,-0.363262 -1.659905,-0.853988 -2.309505,-1.0905 -1.437468,-0.523363 -3.754884,-0.90939 -4.862089,-0.879082 -0.236361,0.01094 -0.600816,0.314138 -0.444385,0.592911 0.158062,0.305257 0.411413,0.734166 0.707334,1.188517 0.532314,0.817302 1.519138,2.612411 2.192941,3.989127 l 0.92615,1.892318 c 0.123885,0.319339 0.67409,0.548217 0.936322,0.497854 2.443348,-0.43299 5.854754,0.443729 8.788621,2.245061 0.484082,0.333879 1.039497,-0.123695 0.714628,-0.749481 -0.511776,-0.907201 -0.965714,-1.786638 -1.523605,-2.644274 z"
     id="path9212"
     sodipodi:nodetypes="cssccssccccc" /><path
     id="path356"
     style="fill:#ffff68;stroke-width:0.375;stroke-linecap:round;stroke-linejoin:round;fill-opacity:1"
     d="m 30.630992,34.139325 c -0.148522,0.148521 -0.141277,0.474671 0.08157,0.610346 2.842066,1.565232 7.026426,5.009581 8.032118,4.003888 1.005693,-1.005692 -2.438656,-5.190053 -4.003888,-8.032118 -0.135675,-0.222847 -0.461825,-0.230091 -0.610346,-0.08157 l -1.749727,1.749726 z" /></svg>
