<?xml version="1.0" encoding="UTF-8" standalone="no"?>
<svg
   fill="none"
   viewBox="0 0 48 48"
   height="256"
   width="256"
   version="1.1"
   id="svg6"
   sodipodi:docname="shopping_cart.svg"
   inkscape:version="1.3.2 (091e20e, 2023-11-25, custom)"
   xml:space="preserve"
   xmlns:inkscape="http://www.inkscape.org/namespaces/inkscape"
   xmlns:sodipodi="http://sodipodi.sourceforge.net/DTD/sodipodi-0.dtd"
   xmlns="http://www.w3.org/2000/svg"
   xmlns:svg="http://www.w3.org/2000/svg"><defs
     id="defs10" /><sodipodi:namedview
     id="namedview8"
     pagecolor="#ffffff"
     bordercolor="#111111"
     borderopacity="1"
     inkscape:showpageshadow="0"
     inkscape:pageopacity="0"
     inkscape:pagecheckerboard="1"
     inkscape:deskcolor="#d1d1d1"
     showgrid="false"
     inkscape:zoom="2.1445312"
     inkscape:cx="64.116577"
     inkscape:cy="112.61202"
     inkscape:window-width="2560"
     inkscape:window-height="1334"
     inkscape:window-x="-11"
     inkscape:window-y="-11"
     inkscape:window-maximized="1"
     inkscape:current-layer="svg6" /><path
     id="path1"
     style="color:#000000;fill:#95c2f2;fill-opacity:1;stroke-width:1;stroke-linecap:round;stroke-linejoin:round;-inkscape-stroke:none"
     d="m 3.7709643,5.319961 a 1.6875,1.6875 0 0 0 -1.6875,1.6875 1.6875,1.6875 0 0 0 1.6875,1.6875 h 5.7541992 l 1.0494145,3.918164 c 0.0011,0.0041 0.0015,0.0082 0.0026,0.0123 l 1.465136,5.467676 3.763917,14.051074 a 1.6876687,1.6876687 0 0 0 1.63125,1.251562 h 20.9061 a 1.6875,1.6875 0 0 0 1.6875,-1.6875 1.6875,1.6875 0 0 0 -1.6875,-1.6875 H 18.731267 l -0.309374,-1.155322 h 20.580468 c 0.763782,6.93e-4 1.432823,-0.511808 1.63125,-1.249365 L 44.648454,12.625425 C 44.936574,11.5536 44.129277,10.500386 43.019402,10.499791 H 13.500897 L 12.447527,6.5693218 A 1.6876687,1.6876687 0 0 0 10.818913,5.3199562 Z" /><circle
     style="fill:#507ab7;fill-opacity:1;stroke:none;stroke-width:2.81251;stroke-linecap:round;stroke-linejoin:round;stroke-dasharray:none;stroke-opacity:1"
     id="path5"
     cx="21.342144"
     cy="38.865864"
     r="4.5" /><circle
     style="fill:#507ab7;fill-opacity:1;stroke:none;stroke-width:2.81251;stroke-linecap:round;stroke-linejoin:round;stroke-dasharray:none;stroke-opacity:1"
     id="path5-9"
     cx="34.313667"
     cy="38.676537"
     r="4.5" /><path
     fill="#507ab7"
     d="m 25.623537,22.667579 c 0.02618,0.690581 0.506436,1.250662 1.195909,1.297856 0.280125,0.01918 0.615713,0.03218 1.010813,0.03218 0.3951,0 0.730687,-0.013 1.010756,-0.03218 0.689513,-0.04719 1.169775,-0.607275 1.195988,-1.297856 0.02295,-0.60525 0.04325,-1.464019 0.04325,-2.607469 0,-1.14345 -0.0203,-2.002219 -0.04325,-2.607469 -0.02621,-0.690581 -0.506475,-1.250662 -1.195932,-1.297856 -0.280125,-0.01918 -0.615712,-0.03217 -1.010812,-0.03217 -0.3951,0 -0.730688,0.01299 -1.010813,0.03217 -0.689467,0.04719 -1.169724,0.607275 -1.195909,1.297856 -0.02295,0.60525 -0.04328,1.464019 -0.04328,2.607469 0,1.14345 0.02033,2.002219 0.04328,2.607469 z"
     id="path7"
     style="fill:#507ab7;fill-opacity:1;stroke-width:0.999997" /><path
     fill="#507ab7"
     d="m 34.061037,22.667579 c 0.02618,0.690581 0.506436,1.250662 1.195909,1.297856 0.280125,0.01918 0.615713,0.03218 1.010813,0.03218 0.3951,0 0.730687,-0.013 1.010756,-0.03218 0.689513,-0.04719 1.169775,-0.607275 1.195988,-1.297856 0.02295,-0.60525 0.04325,-1.464019 0.04325,-2.607469 0,-1.14345 -0.0203,-2.002219 -0.04325,-2.607469 -0.02621,-0.690581 -0.506475,-1.250662 -1.195932,-1.297856 -0.280125,-0.01918 -0.615712,-0.03217 -1.010812,-0.03217 -0.3951,0 -0.730688,0.01299 -1.010813,0.03217 -0.689467,0.04719 -1.169724,0.607275 -1.195909,1.297856 -0.02295,0.60525 -0.04328,1.464019 -0.04328,2.607469 0,1.14345 0.02033,2.002219 0.04328,2.607469 z"
     id="path9"
     style="fill:#507ab7;fill-opacity:1;stroke-width:0.999997" /><path
     fill="#507ab7"
     d="m 17.186037,22.667579 c 0.02618,0.690581 0.506436,1.250662 1.195909,1.297856 0.280125,0.01918 0.615713,0.03218 1.010813,0.03218 0.3951,0 0.730687,-0.013 1.010756,-0.03218 0.689513,-0.04719 1.169775,-0.607275 1.195988,-1.297856 0.02295,-0.60525 0.04325,-1.464019 0.04325,-2.607469 0,-1.14345 -0.0203,-2.002219 -0.04325,-2.607469 -0.02621,-0.690581 -0.506475,-1.250662 -1.195932,-1.297856 -0.280125,-0.01918 -0.615712,-0.03217 -1.010812,-0.03217 -0.3951,0 -0.730688,0.01299 -1.010813,0.03217 -0.689467,0.04719 -1.169724,0.607275 -1.195909,1.297856 -0.02295,0.60525 -0.04328,1.464019 -0.04328,2.607469 0,1.14345 0.02033,2.002219 0.04328,2.607469 z"
     id="path10"
     style="fill:#507ab7;fill-opacity:1;stroke-width:0.999997" /></svg>
