<?xml version="1.0" encoding="UTF-8" standalone="no"?>
<svg
   fill="none"
   viewBox="0 0 48 48"
   height="256"
   width="256"
   version="1.1"
   id="svg6"
   sodipodi:docname="stethoscope.svg"
   inkscape:version="1.2.1 (9c6d41e410, 2022-07-14)"
   xmlns:inkscape="http://www.inkscape.org/namespaces/inkscape"
   xmlns:sodipodi="http://sodipodi.sourceforge.net/DTD/sodipodi-0.dtd"
   xmlns="http://www.w3.org/2000/svg"
   xmlns:svg="http://www.w3.org/2000/svg">
  <defs
     id="defs10" />
  <sodipodi:namedview
     id="namedview8"
     pagecolor="#ffffff"
     bordercolor="#666666"
     borderopacity="1.0"
     inkscape:showpageshadow="2"
     inkscape:pageopacity="0.0"
     inkscape:pagecheckerboard="true"
     inkscape:deskcolor="#d1d1d1"
     showgrid="true"
     inkscape:zoom="0.8095703"
     inkscape:cx="-38.291919"
     inkscape:cy="-15.44029"
     inkscape:current-layer="svg6"
     inkscape:window-width="1920"
     inkscape:window-height="730"
     inkscape:window-x="-6"
     inkscape:window-y="-6"
     inkscape:window-maximized="1">
    <inkscape:grid
       type="xygrid"
       id="grid239"
       units="px"
       spacingx="1.5"
       spacingy="1.5" />
  </sodipodi:namedview>
  <path
     id="rect7418"
     style="fill:#606668;fill-opacity:1;stroke:none;stroke-width:1.875;stroke-linejoin:round;stroke-dasharray:none;stroke-opacity:1"
     d="m 36.638306,16.21106 c 1.551149,2.3e-5 2.808567,1.231371 2.808471,2.750244 -1.1e-4,1.518729 -1.257468,2.749855 -2.808471,2.749878 -1.551004,-2.3e-5 -2.808362,-1.231149 -2.808472,-2.749878 -9.6e-5,-1.518873 1.257322,-2.750221 2.808472,-2.750244 z"
     sodipodi:nodetypes="cscsc" />
  <path
     id="rect7413"
     style="fill:#828480;fill-opacity:1;stroke:none;stroke-width:1.875;stroke-linejoin:round;stroke-dasharray:none;stroke-opacity:1"
     d="M 36.638672,8.8575439 C 42.30519,8.857483 46.93768,13.380696 46.93762,18.960938 c -4e-5,4.469501 -2.79349,7.890331 -6.363279,9.338012 -3.56979,1.447682 -7.992691,0.965966 -11.211182,-2.185547 -3.21849,-3.151512 -3.722609,-7.51608 -2.238281,-11.025512 1.484327,-3.509433 4.973401,-6.2302984 9.513794,-6.2303471 z m 0.03699,5.5404051 c -2.577011,-0.01816 -4.664975,1.976956 -4.70874,4.484986 -0.04447,2.548491 2.036096,4.637325 4.671753,4.640625 2.606159,1.28e-4 4.679798,-2.042327 4.679809,-4.562622 1.13e-4,-2.458176 -1.977396,-4.474505 -4.517578,-4.560425 h -0.0022 c -0.04115,-0.0013 -0.08214,-0.0023 -0.123047,-0.0026 z"
     sodipodi:nodetypes="ssssssssccccs" />
  <path
     id="rect7282"
     style="fill:#606668;fill-opacity:1;stroke:none;stroke-width:1.875;stroke-linejoin:round;stroke-dasharray:none;stroke-opacity:1"
     d="m 9.459229,1.0664062 c 1.521606,-0.013775 2.839009,1.215266 2.839599,2.7696534 v 4.6054687 0.00586 c -0.0084,0.843679 -0.371974,1.5904857 -0.915893,2.0603027 -0.54392,0.469816 -1.224219,0.681885 -1.892579,0.681885 -0.668349,0 -1.350845,-0.212069 -1.894775,-0.681885 C 7.387421,10.327885 7.237315,10.077264 7.091675,9.8261725 6.846515,10.234741 6.683519,10.685346 6.681519,11.169801 v 0.004 5.496094 c 0,3.532767 2.912832,6.396606 6.552978,6.396606 3.640136,0 6.550781,-2.86384 6.550781,-6.396606 v -5.501953 c 6.3e-4,-0.490102 -0.162486,-0.944299 -0.410156,-1.3575446 -0.14543,0.2501996 -0.296336,0.5003926 -0.503906,0.6796876 -0.54393,0.46984 -1.224209,0.681885 -1.892578,0.681885 -0.66838,0 -1.348649,-0.212046 -1.892578,-0.681885 C 14.54213,10.020273 14.1778,9.2713216 14.1698,8.4276123 v -0.00366 -4.59375 -0.00403 c 0.0084,-0.8437088 0.37233,-1.592661 0.91626,-2.0625 0.543929,-0.4698391 1.224208,-0.6815186 1.892578,-0.6815186 0.668369,0 1.348648,0.211679 1.892578,0.6815186 0.451309,0.3898297 0.726564,0.995426 0.829834,1.6640625 3.359526,1.1395653 5.6938,4.2049894 5.7052,7.7384032 v 0.0018 5.501953 c -0.0058,5.541194 -3.955716,10.200706 -9.36145,11.482544 v 4.523437 c 0,4.798466 3.958124,8.687256 8.890869,8.687256 4.932735,0 8.892334,-2.76379 8.892334,-7.562256 v -1.836181 c 10e-4,-0.517713 0.222674,-1.011013 0.599853,-1.361206 0.368168,-0.342814 0.858781,-0.516442 1.356446,-0.490357 h 0.85437 0.84375 c 0.507909,-0.0098 0.998623,0.180647 1.369263,0.531372 0.375159,0.350007 0.594459,0.841349 0.595459,1.357544 v 1.833985 c 0,7.85842 -6.518373,13.105224 -14.511475,13.105224 -7.993112,0 -14.511841,-6.371804 -14.511841,-14.230224 V 28.152435 C 5.018094,26.870597 1.068378,22.211079 1.062378,16.669891 V 11.171966 C 1.055678,7.5844419 3.437019,4.4543274 6.871216,3.3416442 7.110496,2.1908839 7.946055,1.2293193 9.152344,1.0857848 9.255268,1.0735478 9.357788,1.0672938 9.459229,1.0663758 Z"
     sodipodi:nodetypes="scccssscccsssccsssccccssscscccssscccccccsssccccsss" />
  <path
     id="rect7352"
     style="fill:#d63232;fill-opacity:1;stroke:none;stroke-width:1.875;stroke-linejoin:round;stroke-dasharray:none;stroke-opacity:1"
     d="m 9.507935,1.0623779 c 0.278946,0 0.716627,-0.00323 1.087646,0.043213 0.520291,0.065068 0.98845,0.3693158 1.259766,0.7478028 0.271314,0.3784869 0.383347,0.805743 0.398437,1.2246093 v 0.00586 0.00403 c 0.03366,1.2796063 0.04646,4.5238649 0,6.078003 v 0.0022 0.00366 c -0.01508,0.4188758 -0.12712,0.846123 -0.398437,1.224609 -0.271319,0.378488 -0.739479,0.683099 -1.259766,0.748169 -0.370728,0.04637 -0.808649,0.04285 -1.087646,0.04285 -0.278972,0 -0.718973,0.0036 -1.089844,-0.04285 C 7.897825,11.079464 7.429765,10.774777 7.158325,10.396365 6.887668,10.019047 6.775498,9.5937068 6.759888,9.1757843 6.697898,7.6388146 6.699518,4.394369 6.761688,3.0721467 c 4e-5,-8.5e-4 -4e-5,-0.00282 0,-0.00366 C 6.778138,2.6524841 6.888936,2.2289056 7.158294,1.8533989 7.429737,1.4749857 7.89779,1.1706561 8.41806,1.1055961 8.788931,1.0592261 9.228932,1.0623831 9.507904,1.0623831 Z m 7.454956,0 c 0.27895,0 0.717068,-0.00321 1.088012,0.043213 0.520297,0.065064 0.98845,0.3693149 1.259766,0.7478028 0.271316,0.3784878 0.383347,0.8057426 0.398437,1.2246093 v 0.00586 0.00403 c 0.03366,1.2796043 0.04646,4.5238658 0,6.078003 v 0.0022 0.00366 c -0.01508,0.4188763 -0.127118,0.846124 -0.398437,1.224609 -0.271319,0.378488 -0.739479,0.683099 -1.259766,0.748169 -0.370725,0.04637 -0.809016,0.04285 -1.088012,0.04285 -0.278973,0 -0.718805,0.0036 -1.089844,-0.04285 -0.520292,-0.06507 -0.988449,-0.369681 -1.259766,-0.748169 -0.270531,-0.377394 -0.382837,-0.8028715 -0.398437,-1.2205807 -0.06199,-1.5369684 -0.06037,-4.7814164 0.0018,-6.1036376 4e-5,-8.5e-4 -4e-5,-0.00282 0,-0.00366 0.01644,-0.4157913 0.127373,-0.8395057 0.396606,-1.2150878 0.271319,-0.3784892 0.73947,-0.6827428 1.259766,-0.7478028 0.371097,-0.04647 0.810889,-0.043213 1.089844,-0.043213 z"
     sodipodi:nodetypes="scsccccccssscscscsssscsccccccssscscscscs" />
</svg>
