<?xml version="1.0" encoding="UTF-8" standalone="no"?>
<svg
   fill="none"
   viewBox="0 0 48 48"
   height="256"
   width="256"
   version="1.1"
   id="svg10"
   sodipodi:docname="trash.svg"
   inkscape:version="1.2.1 (9c6d41e410, 2022-07-14)"
   xmlns:inkscape="http://www.inkscape.org/namespaces/inkscape"
   xmlns:sodipodi="http://sodipodi.sourceforge.net/DTD/sodipodi-0.dtd"
   xmlns="http://www.w3.org/2000/svg"
   xmlns:svg="http://www.w3.org/2000/svg">
  <defs
     id="defs14" />
  <sodipodi:namedview
     id="namedview12"
     pagecolor="#ffffff"
     bordercolor="#111111"
     borderopacity="1"
     inkscape:showpageshadow="0"
     inkscape:pageopacity="0"
     inkscape:pagecheckerboard="1"
     inkscape:deskcolor="#d1d1d1"
     showgrid="false"
     inkscape:zoom="0.7582063"
     inkscape:cx="-168.81949"
     inkscape:cy="12.529572"
     inkscape:window-width="1920"
     inkscape:window-height="730"
     inkscape:window-x="-6"
     inkscape:window-y="-6"
     inkscape:window-maximized="1"
     inkscape:current-layer="svg10" />
  <path
     fill="#d8dbd4"
     d="M6 12H42C40.2954 29.7283 39.0556 38.158 38.4394 41.7273C38.1854 43.1982 37.277 44.4256 35.8373 44.8193C33.8179 45.3716 30.1657 46 24 46C17.8343 46 14.1821 45.3716 12.1627 44.8193C10.723 44.4256 9.81459 43.1982 9.56063 41.7273C8.94436 38.158 7.70464 29.7283 6 12Z"
     id="path2"
     style="fill:#d8dbd4;fill-opacity:1" />
  <path
     fill="#606668"
     fill-rule="evenodd"
     d="M21.1616 2C19.8703 2 18.7239 2.82629 18.3155 4.05132L17.6359 6.09025C13.6465 6.20723 10.5935 6.41871 8.4886 6.60835C6.25725 6.80938 4.25159 8.07507 3.64394 10.2315C3.45808 10.8911 3.29105 11.6434 3.1736 12.4807C2.95925 14.009 3.9503 15.2513 5.48514 15.4119C8.11857 15.6875 13.434 16 23.9993 16C34.5656 16 39.881 15.6874 42.5142 15.4118C44.0487 15.2512 45.0397 14.0094 44.8256 12.4815C44.7082 11.6431 44.5409 10.8899 44.3548 10.2298C43.7471 8.07429 41.742 6.80947 39.5115 6.60848C37.4066 6.41881 34.3531 6.20726 30.3627 6.09025L29.6831 4.05132C29.2747 2.82629 28.1283 2 26.837 2H21.1616Z"
     clip-rule="evenodd"
     id="path4"
     style="fill:#606668;fill-opacity:1" />
  <path
     fill="#606668"
     d="M15.2794 24.4801C15.2003 23.1477 15.9152 21.9532 17.2419 21.8067C17.3221 21.7978 17.4049 21.7896 17.4905 21.7821C17.5761 21.7746 17.6591 21.7683 17.7396 21.7631C19.0715 21.677 19.983 22.7293 20.1365 24.0551C20.2728 25.2322 20.4556 26.9887 20.6782 29.5338C20.9009 32.0789 21.0259 33.8404 21.0961 35.0233C21.1751 36.3556 20.4603 37.5502 19.1336 37.6967C19.0534 37.7055 18.9705 37.7137 18.885 37.7212C18.7994 37.7287 18.7164 37.735 18.6359 37.7402C17.3039 37.8263 16.3925 36.774 16.239 35.4482C16.1027 34.2711 15.9199 32.5147 15.6972 29.9696C15.4746 27.4245 15.3496 25.663 15.2794 24.4801Z"
     id="path6"
     style="fill:#606668;fill-opacity:1" />
  <path
     fill="#606668"
     d="M32.7206 24.4801C32.7997 23.1477 32.0848 21.9532 30.7581 21.8067C30.6779 21.7978 30.5951 21.7896 30.5095 21.7821C30.4239 21.7746 30.3409 21.7683 30.2604 21.7631C28.9285 21.677 28.017 22.7293 27.8635 24.0551C27.7272 25.2322 27.5444 26.9887 27.3218 29.5338C27.0991 32.0789 26.9741 33.8404 26.9039 35.0233C26.8249 36.3556 27.5397 37.5502 28.8664 37.6967C28.9466 37.7055 29.0295 37.7137 29.115 37.7212C29.2006 37.7287 29.2836 37.735 29.3641 37.7402C30.6961 37.8263 31.6075 36.774 31.761 35.4482C31.8973 34.2711 32.0801 32.5147 32.3028 29.9696C32.5254 27.4245 32.6504 25.663 32.7206 24.4801Z"
     id="path8"
     style="fill:#606668;fill-opacity:1" />
</svg>
