<?xml version="1.0" encoding="UTF-8" standalone="no"?>
<svg
   fill="none"
   viewBox="0 0 48 48"
   height="256"
   width="256"
   version="1.1"
   id="svg6"
   sodipodi:docname="tree_find.svg"
   inkscape:version="1.2.1 (9c6d41e410, 2022-07-14)"
   xmlns:inkscape="http://www.inkscape.org/namespaces/inkscape"
   xmlns:sodipodi="http://sodipodi.sourceforge.net/DTD/sodipodi-0.dtd"
   xmlns="http://www.w3.org/2000/svg"
   xmlns:svg="http://www.w3.org/2000/svg">
  <defs
     id="defs10" />
  <sodipodi:namedview
     id="namedview8"
     pagecolor="#ffffff"
     bordercolor="#666666"
     borderopacity="1.0"
     inkscape:showpageshadow="2"
     inkscape:pageopacity="0.0"
     inkscape:pagecheckerboard="true"
     inkscape:deskcolor="#d1d1d1"
     showgrid="true"
     inkscape:zoom="1.6191406"
     inkscape:cx="76.583837"
     inkscape:cy="166.44632"
     inkscape:current-layer="svg6"
     inkscape:window-width="1920"
     inkscape:window-height="730"
     inkscape:window-x="-6"
     inkscape:window-y="-6"
     inkscape:window-maximized="1">
    <inkscape:grid
       type="xygrid"
       id="grid239"
       units="px"
       spacingx="1.5"
       spacingy="1.5" />
  </sodipodi:namedview>
  <g
     id="path6379"
     style="fill:#77c32f;fill-opacity:1"
     transform="matrix(1.0432542,0,0,1.010135,-1.2580693,-0.35560394)">
    <path
       style="color:#000000;fill:#77c32f;fill-opacity:1;fill-rule:evenodd;stroke-linecap:round;stroke-linejoin:round"
       d="m 24.208984,33.878906 c -4.657661,5.28e-4 -9.315052,0.935381 -13.11914,2.828125 -3.8040885,1.892744 -6.7667062,4.76256 -7.9218752,8.611328 -0.086212,0.285329 0.1277129,0.572852 0.4257812,0.572266 h 41.234375 c 0.298068,5.85e-4 0.511993,-0.286937 0.425781,-0.572266 -1.155783,-3.850795 -4.119386,-6.720787 -7.923828,-8.613281 -3.804442,-1.892494 -8.463432,-2.8267 -13.121094,-2.826172 z"
       id="path10725"
       sodipodi:nodetypes="ssccccss" />
  </g>
  <path
     style="color:#000000;fill:#bb852e;fill-opacity:1;fill-rule:evenodd;stroke-width:1.02656;stroke-linejoin:round"
     d="m 20.898857,10.258706 -1.801244,0.74379 c -0.171345,0.06992 -0.282879,0.232301 -0.283227,0.412341 v 12.800304 l -8.767817,-4.346343 c -0.307991,-0.152981 -0.6741263,0.06337 -0.6744487,0.39853 v 1.874274 c 3.443e-4,0.168216 0.097899,0.322095 0.2526637,0.39853 l 9.189602,4.557444 v 14.112296 c 6.76e-4,0.389988 0.479686,0.593283 0.776328,0.329478 l 0.984163,-0.874003 1.791056,-0.651063 1.899049,1.242939 c 0.188934,0.12434 0.44329,0.0967 0.599055,-0.0651 l 0.806893,-0.836518 1.784942,0.909517 c 0.308725,0.159013 0.681106,-0.05797 0.680561,-0.396557 v -14.63315 l 5.295737,-1.288317 c 0.348367,-0.08533 0.467992,-0.505613 0.213949,-0.751683 -0.766456,-0.745426 -1.155247,-1.468753 -1.194037,-2.191913 -0.01449,-0.282981 -0.29305,-0.48217 -0.576642,-0.412341 l -3.739007,0.911489 v -1.38894 l 6.283977,-8.986649 c 0.214134,-0.304481 -0.02127,-0.715217 -0.401409,-0.700387 l -3.144026,0.114429 c -0.133447,0.0048 -0.258229,0.06527 -0.342318,0.165725 l -6.133193,7.370829 -2.879138,-8.546689 c -0.08482,-0.249479 -0.37194,-0.375266 -0.621469,-0.272262 z"
     id="path6401"
     sodipodi:nodetypes="cccccccccccccccccccccccccccccccc" />
  <g
     id="path6497"
     style="fill:#606668;fill-opacity:1"
     transform="matrix(1.0432542,0,0,1.010135,-1.2580693,-0.35560394)">
    <path
       style="color:#000000;fill:#606668;fill-opacity:1;fill-rule:evenodd;stroke-width:0.887674;stroke-linecap:round;stroke-linejoin:round"
       d="m 24.623959,29.686872 a 0.91592413,1.7712605 0 0 1 -0.915924,1.771261 0.91592413,1.7712605 0 0 1 -0.915925,-1.771261 0.91592413,1.7712605 0 0 1 0.915925,-1.77126 0.91592413,1.7712605 0 0 1 0.915924,1.77126 z"
       id="path10654" />
    <path
       style="color:#000000;fill:#606668;fill-opacity:1;fill-rule:evenodd;stroke-linecap:round;stroke-linejoin:round"
       d="m 23.708984,27.472656 c -0.484859,-1e-6 -0.83491,0.35546 -1.042968,0.757813 -0.208059,0.402353 -0.31836,0.905893 -0.31836,1.457031 0,0.551138 0.110301,1.052725 0.31836,1.455078 0.208058,0.402353 0.558109,0.759767 1.042968,0.759766 0.484859,0 0.832958,-0.357413 1.041016,-0.759766 0.208058,-0.402353 0.318359,-0.90394 0.318359,-1.455078 0,-0.551137 -0.110301,-1.054678 -0.318359,-1.457031 -0.208058,-0.402353 -0.556157,-0.757813 -1.041016,-0.757813 z"
       id="path10656"
       sodipodi:nodetypes="sssssssss" />
  </g>
  <path
     style="color:#000000;fill:#77c32f;fill-opacity:1;fill-rule:evenodd;stroke-width:1.02656;stroke-linecap:round;stroke-linejoin:round"
     d="m 16.654524,2.0000625 c -4.590861,-4.11e-5 -8.3604278,3.3414271 -8.360297,7.4990686 6.949e-4,0.3546257 0.065818,0.7050019 0.1222563,1.0555119 -3.5996705,0.409648 -6.4150351,3.095724 -6.4164208,6.435665 0.00142,2.217693 1.3201118,4.208499 3.349824,5.411719 -0.1056959,0.375657 -0.2037496,0.755507 -0.2037606,1.144294 7.6e-5,2.606022 2.3619546,4.687721 5.2142341,4.687657 2.852278,6.4e-5 5.212119,-2.081635 5.212195,-4.687657 -1.54e-4,-0.821306 -0.341331,-1.590789 -0.790591,-2.296479 0.450439,-0.467643 0.755683,-1.014703 1.041217,-1.570445 0.459636,2.713622 2.965319,4.809966 6.078178,4.80998 3.192106,-1.4e-5 5.765459,-2.197242 6.123005,-5.01319 0.767208,1.087867 2.028283,1.792603 3.470043,2.032107 0.442378,3.28912 3.506398,5.786609 7.194787,5.79052 4.011328,1.13e-4 7.310908,-2.921501 7.310929,-6.561931 -1.49e-4,-3.335776 -2.810161,-5.992838 -6.385857,-6.415936 0.702202,-1.202563 1.140886,-2.517777 1.14106,-3.884679 8e-6,-4.6746868 -4.239454,-8.4361498 -9.409664,-8.4362055 C 28.286716,2.001608 25.475563,3.373837 23.716866,5.6026142 22.199358,3.3934576 19.563082,2.000317 16.654524,2.0000625 Z"
     id="path6769"
     sodipodi:nodetypes="cccccccccccccccccccc" />
  <g
     id="g451"
     transform="matrix(0.421875,0,0,0.421875,15.953595,27.664709)">
    <circle
       cx="51.961926"
       cy="24.203909"
       r="17"
       fill="#95c2f2"
       id="circle137" />
    <path
       fill="#507ab7"
       fill-rule="evenodd"
       d="m 62.620825,41.130009 c -3.0856,1.9471 -6.7406,3.0739 -10.6589,3.0739 -11.0457,0 -20,-8.9543 -20,-20 0,-11.0457 8.9543,-20.0000001 20,-20.0000001 11.0457,0 20,8.9543001 20,20.0000001 0,3.9267 -1.1316,7.589 -3.0865,10.6788 0.0934,0.0773 0.1868,0.1546 0.2801,0.2318 v 0 c 1.8185,1.5047 3.6092,2.9864 5.3756,4.634 1.7377,1.6209 1.9537,4.0736 0.3103,5.7898 -0.2331,0.2435 -0.4877,0.5036 -0.7656,0.7811 -0.278,0.2775 -0.5386,0.5316 -0.7825,0.7644 -1.7192,1.6404 -4.1761,1.4248 -5.7998,-0.3099 -1.6505,-1.7633 -3.1348,-3.5509 -4.6421,-5.3663 -0.0768,-0.0924 -0.1537,-0.185 -0.2306,-0.2776 z m 3.3411,-16.9261 c 0,7.732 -6.268,14 -14,14 -7.732,0 -14,-6.268 -14,-14 0,-7.732 6.268,-14 14,-14 7.732,0 14,6.268 14,14 z"
       clip-rule="evenodd"
       id="path139" />
  </g>
</svg>
