<?xml version="1.0" encoding="UTF-8" standalone="no"?>
<svg
   fill="none"
   viewBox="0 0 48 48"
   height="256"
   width="256"
   version="1.1"
   id="svg6"
   sodipodi:docname="tree_navigate.svg"
   inkscape:version="1.2.1 (9c6d41e410, 2022-07-14)"
   xmlns:inkscape="http://www.inkscape.org/namespaces/inkscape"
   xmlns:sodipodi="http://sodipodi.sourceforge.net/DTD/sodipodi-0.dtd"
   xmlns="http://www.w3.org/2000/svg"
   xmlns:svg="http://www.w3.org/2000/svg">
  <defs
     id="defs10" />
  <sodipodi:namedview
     id="namedview8"
     pagecolor="#ffffff"
     bordercolor="#666666"
     borderopacity="1.0"
     inkscape:showpageshadow="2"
     inkscape:pageopacity="0.0"
     inkscape:pagecheckerboard="true"
     inkscape:deskcolor="#d1d1d1"
     showgrid="true"
     inkscape:zoom="0.8095703"
     inkscape:cx="-8.6465623"
     inkscape:cy="63.613994"
     inkscape:current-layer="svg6"
     inkscape:window-width="1920"
     inkscape:window-height="730"
     inkscape:window-x="-6"
     inkscape:window-y="-6"
     inkscape:window-maximized="1">
    <inkscape:grid
       type="xygrid"
       id="grid239"
       units="px"
       spacingx="1.5"
       spacingy="1.5" />
  </sodipodi:namedview>
  <g
     id="g10736"
     transform="matrix(1.0432542,0,0,1.010135,-1.2580693,-0.35560394)">
    <g
       id="path6379"
       style="fill:#95c2f2;fill-opacity:1">
      <path
         style="color:#000000;fill:#77c32f;fill-opacity:1;fill-rule:evenodd;stroke-linecap:round;stroke-linejoin:round"
         d="m 24.208984,33.878906 c -4.657661,5.28e-4 -9.315052,0.935381 -13.11914,2.828125 -3.8040885,1.892744 -6.7667062,4.76256 -7.9218752,8.611328 -0.086212,0.285329 0.1277129,0.572852 0.4257812,0.572266 h 41.234375 c 0.298068,5.85e-4 0.511993,-0.286937 0.425781,-0.572266 -1.155783,-3.850795 -4.119386,-6.720787 -7.923828,-8.613281 -3.804442,-1.892494 -8.463432,-2.8267 -13.121094,-2.826172 z"
         id="path10725"
         sodipodi:nodetypes="ssccccss" />
    </g>
    <path
       style="color:#000000;fill:#bb852e;fill-opacity:1;fill-rule:evenodd;stroke-linejoin:round"
       d="m 21.238281,10.507813 -1.726562,0.736328 c -0.164241,0.06922 -0.271151,0.22997 -0.271485,0.408203 v 12.671875 l -8.404296,-4.302735 c -0.295221,-0.151446 -0.646176,0.06273 -0.646485,0.394532 v 1.855468 c 3.3e-4,0.166529 0.09384,0.318864 0.242188,0.394532 l 8.808593,4.511718 v 13.970703 c 6.48e-4,0.386075 0.459798,0.58733 0.744141,0.326172 l 0.943359,-0.865234 1.716797,-0.644531 1.820313,1.230468 c 0.181101,0.123093 0.424911,0.09573 0.574218,-0.06445 l 0.773438,-0.828125 1.710937,0.900391 c 0.295925,0.157418 0.652867,-0.05739 0.652344,-0.392578 V 26.324219 l 5.076172,-1.275391 c 0.333923,-0.08447 0.448588,-0.50054 0.205078,-0.744141 C 32.722353,23.56674 32.349682,22.85067 32.3125,22.134766 32.298608,21.854624 32.0316,21.657434 31.759766,21.726562 l -3.583985,0.902344 v -1.375 l 6.023438,-8.896484 c 0.205256,-0.301426 -0.02039,-0.708041 -0.384766,-0.693359 l -3.013672,0.113281 c -0.127914,0.0048 -0.247522,0.06462 -0.328125,0.164062 l -5.878906,7.296875 -2.759766,-8.460937 c -0.0813,-0.246976 -0.356519,-0.371501 -0.595703,-0.269531 z"
       id="path6401"
       sodipodi:nodetypes="cccccccccccccccccccccccccccccccc" />
    <g
       id="path6497"
       style="fill:#95c2f2;fill-opacity:1">
      <path
         style="color:#000000;fill:#95c2f2;fill-opacity:1;fill-rule:evenodd;stroke-width:0.887674;stroke-linecap:round;stroke-linejoin:round"
         d="m 24.623959,29.686872 a 0.91592413,1.7712605 0 0 1 -0.915924,1.771261 0.91592413,1.7712605 0 0 1 -0.915925,-1.771261 0.91592413,1.7712605 0 0 1 0.915925,-1.77126 0.91592413,1.7712605 0 0 1 0.915924,1.77126 z"
         id="path10654" />
      <path
         style="color:#000000;fill:#606668;fill-opacity:1;fill-rule:evenodd;stroke-linecap:round;stroke-linejoin:round"
         d="m 23.708984,27.472656 c -0.484859,-1e-6 -0.83491,0.35546 -1.042968,0.757813 -0.208059,0.402353 -0.31836,0.905893 -0.31836,1.457031 0,0.551138 0.110301,1.052725 0.31836,1.455078 0.208058,0.402353 0.558109,0.759767 1.042968,0.759766 0.484859,0 0.832958,-0.357413 1.041016,-0.759766 0.208058,-0.402353 0.318359,-0.90394 0.318359,-1.455078 0,-0.551137 -0.110301,-1.054678 -0.318359,-1.457031 -0.208058,-0.402353 -0.556157,-0.757813 -1.041016,-0.757813 z"
         id="path10656"
         sodipodi:nodetypes="sssssssss" />
    </g>
    <path
       style="color:#000000;fill:#77c32f;fill-opacity:1;fill-rule:evenodd;stroke-linecap:round;stroke-linejoin:round"
       d="m 17.169922,2.3320313 c -4.40052,-4.07e-5 -8.0137973,3.3079015 -8.013672,7.4238281 6.661e-4,0.3510676 0.063089,0.6979286 0.1171875,1.0449216 -3.4504251,0.405538 -6.1490623,3.064664 -6.1503906,6.371094 0.00136,2.195442 1.2653789,4.166274 3.2109375,5.357422 -0.1013137,0.371887 -0.195302,0.747926 -0.1953125,1.132812 7.28e-5,2.579875 2.2640259,4.640688 4.9980471,4.640625 2.734021,6.3e-5 4.996021,-2.06075 4.996093,-4.640625 -1.47e-4,-0.813065 -0.327179,-1.574828 -0.757812,-2.273437 0.431763,-0.462951 0.724352,-1.004522 0.998047,-1.554688 0.440579,2.686395 2.842375,4.761706 5.826172,4.761719 3.059758,-1.3e-5 5.526418,-2.175196 5.86914,-4.962891 0.735399,1.076952 1.944189,1.774618 3.326172,2.011719 0.424037,3.256119 3.36102,5.72855 6.896485,5.732422 3.845015,1.11e-4 7.007792,-2.892189 7.007812,-6.496094 -1.43e-4,-3.302307 -2.69365,-5.93271 -6.121094,-6.351562 0.673088,-1.190498 1.093584,-2.492516 1.09375,-3.845703 8e-6,-4.6277845 -4.063682,-8.3515076 -9.019531,-8.3515627 -2.932119,0.00153 -5.62672,1.359991 -7.3125,3.5664062 C 22.484863,3.711446 19.957889,2.3322832 17.169922,2.3320313 Z"
       id="path6769"
       sodipodi:nodetypes="cccccccccccccccccccc" />
  </g>
  <g
     id="g1002"
     transform="matrix(0.75,0,0,0.75,-17.905383,0.53245922)">
    <path
       fill="#d63232"
       d="m 87.873844,10.490055 c 0,6.1725 -5.5228,12.0325 -8.7418,14.9238 -1.3018,1.1693 -3.2146,1.1693 -4.5164,0 -3.21897,-2.8913 -8.7418,-8.7513 -8.7418,-14.9238 0,-6.1855906 4.92487,-11.20000062 11,-11.20000062 6.0751,0 11,5.01441002 11,11.20000062 z"
       id="path139"
       style="fill:#d63232;fill-opacity:1" />
    <path
       fill="#ff5454"
       d="m 80.873844,10.290055 c 0,2.2091 -1.7909,4 -4,4 -2.2091,0 -4,-1.7909 -4,-4 0,-2.2091006 1.7909,-4.0000006 4,-4.0000006 2.2091,0 4,1.7909 4,4.0000006 z"
       id="path141"
       style="fill:#ff5454;fill-opacity:1" />
  </g>
</svg>
