<?xml version="1.0" encoding="UTF-8" standalone="no"?>
<svg
   fill="none"
   viewBox="0 0 48 48"
   height="256"
   width="256"
   version="1.1"
   id="svg10"
   sodipodi:docname="usb_vb.svg"
   inkscape:version="1.2.1 (9c6d41e410, 2022-07-14)"
   xmlns:inkscape="http://www.inkscape.org/namespaces/inkscape"
   xmlns:sodipodi="http://sodipodi.sourceforge.net/DTD/sodipodi-0.dtd"
   xmlns="http://www.w3.org/2000/svg"
   xmlns:svg="http://www.w3.org/2000/svg">
  <defs
     id="defs14" />
  <sodipodi:namedview
     id="namedview12"
     pagecolor="#ffffff"
     bordercolor="#111111"
     borderopacity="1"
     inkscape:showpageshadow="0"
     inkscape:pageopacity="0"
     inkscape:pagecheckerboard="1"
     inkscape:deskcolor="#d1d1d1"
     showgrid="false"
     inkscape:zoom="2.1445312"
     inkscape:cx="65.282332"
     inkscape:cy="128.4663"
     inkscape:window-width="1920"
     inkscape:window-height="730"
     inkscape:window-x="-6"
     inkscape:window-y="-6"
     inkscape:window-maximized="1"
     inkscape:current-layer="svg10" />
  <path
     fill="#d8dbd4"
     d="M17.8173 2.25886C16.0152 2.44183 14.7244 3.75476 14.5156 5.55406C14.2605 7.75203 14 11.4723 14 17.5C14 23.5277 14.2605 27.248 14.5156 29.4459C14.7244 31.2452 16.0152 32.5582 17.8173 32.7411C19.2089 32.8824 21.2063 33 24 33C26.7937 33 28.7911 32.8824 30.1827 32.7411C31.9848 32.5582 33.2756 31.2452 33.4844 29.4459C33.7395 27.248 34 23.5277 34 17.5C34 11.4723 33.7395 7.75203 33.4844 5.55407C33.2756 3.75476 31.9848 2.44183 30.1827 2.25886C28.7911 2.11757 26.7938 2 24 2C21.2063 2 19.2089 2.11757 17.8173 2.25886Z"
     id="path2"
     style="fill:#d8dbd4;fill-opacity:1" />
  <path
     fill="#606668"
     d="M14.1712 14.3667C12.4019 14.5363 11.0382 15.7286 10.7517 17.4828C10.3853 19.7255 10 23.6045 10 30C10 31.5159 10.0216 32.8904 10.0596 34.1353C10.276 41.2416 15.4639 45.9376 22.5733 45.9944C23.0315 45.9981 23.5069 46 24 46C24.4931 46 24.9685 45.9981 25.4267 45.9944C32.5361 45.9376 37.724 41.2416 37.9404 34.1353C37.9784 32.8904 38 31.5159 38 30C38 23.6045 37.6147 19.7255 37.2483 17.4828C36.9618 15.7286 35.5981 14.5363 33.8288 14.3667C31.8919 14.1811 28.7779 14 24 14C19.2221 14 16.1081 14.1811 14.1712 14.3667Z"
     id="path4"
     style="fill:#606668;fill-opacity:1" />
  <path
     fill="#606668"
     d="M18.0033 7.55275C18.0169 6.68967 18.5718 6.04488 19.4343 6.01059C19.6028 6.00389 19.7907 6 20 6C20.2093 6 20.3972 6.00389 20.5657 6.01059C21.4282 6.04488 21.9831 6.68967 21.9967 7.55275C21.9988 7.68874 22 7.83748 22 8C22 8.16252 21.9988 8.31126 21.9967 8.44725C21.9831 9.31033 21.4282 9.95512 20.5657 9.98941C20.3972 9.99611 20.2093 10 20 10C19.7907 10 19.6028 9.99611 19.4343 9.98941C18.5718 9.95512 18.0169 9.31033 18.0033 8.44725C18.0012 8.31126 18 8.16252 18 8C18 7.83748 18.0012 7.68874 18.0033 7.55275Z"
     id="path6"
     style="fill:#606668;fill-opacity:1" />
  <path
     fill="#606668"
     d="M26.0033 7.55275C26.0169 6.68967 26.5718 6.04488 27.4343 6.01059C27.6028 6.00389 27.7907 6 28 6C28.2093 6 28.3972 6.00389 28.5657 6.01059C29.4282 6.04488 29.9831 6.68967 29.9967 7.55275C29.9988 7.68874 30 7.83748 30 8C30 8.16252 29.9988 8.31126 29.9967 8.44725C29.9831 9.31033 29.4282 9.95512 28.5657 9.98941C28.3972 9.99611 28.2093 10 28 10C27.7907 10 27.6028 9.99611 27.4343 9.98941C26.5718 9.95512 26.0169 9.31033 26.0033 8.44725C26.0012 8.31126 26 8.16252 26 8C26 7.83748 26.0012 7.68874 26.0033 7.55275Z"
     id="path8"
     style="fill:#606668;fill-opacity:1" />
</svg>
