<?xml version="1.0" encoding="UTF-8" standalone="no"?>
<svg
   fill="none"
   viewBox="0 0 48 48"
   height="256"
   width="256"
   version="1.1"
   id="svg4"
   sodipodi:docname="users.svg"
   inkscape:version="1.3.2 (091e20e, 2023-11-25, custom)"
   xmlns:inkscape="http://www.inkscape.org/namespaces/inkscape"
   xmlns:sodipodi="http://sodipodi.sourceforge.net/DTD/sodipodi-0.dtd"
   xmlns="http://www.w3.org/2000/svg"
   xmlns:svg="http://www.w3.org/2000/svg">
  <defs
     id="defs8" />
  <sodipodi:namedview
     id="namedview6"
     pagecolor="#ffffff"
     bordercolor="#111111"
     borderopacity="1"
     inkscape:showpageshadow="0"
     inkscape:pageopacity="0"
     inkscape:pagecheckerboard="1"
     inkscape:deskcolor="#d1d1d1"
     showgrid="false"
     inkscape:zoom="1.5164126"
     inkscape:cx="-45.502129"
     inkscape:cy="126.94435"
     inkscape:window-width="3840"
     inkscape:window-height="1494"
     inkscape:window-x="-11"
     inkscape:window-y="-11"
     inkscape:window-maximized="1"
     inkscape:current-layer="svg4" />
  <path
     fill="#adafaa"
     fill-rule="evenodd"
     d="m 17.702456,17.586142 c 2.240392,-1.589895 3.702375,-4.204777 3.702375,-7.161142 0,-4.8462973 -3.928703,-8.775 -8.775,-8.775 -4.8462977,0 -8.7750002,3.9287027 -8.7750002,8.775 0,2.956365 1.4619825,5.571247 3.7024425,7.161142 -3.814965,1.713825 -6.67255046,5.301923 -7.50462926,9.651218 -0.3017655,1.577407 0.724113,3.001995 2.30037296,3.309525 C 4.3536558,30.93717 7.6473858,31.35 12.629831,31.35 c 4.982512,0 8.276242,-0.41283 10.276875,-0.803115 1.57626,-0.30753 2.602125,-1.732118 2.300332,-3.309525 -0.832072,-4.349295 -3.689617,-7.937393 -7.504582,-9.651218 z"
     clip-rule="evenodd"
     id="path3"
     style="fill:#adafaa;fill-opacity:1;stroke-width:0.675" />
  <path
     fill="#adafaa"
     fill-rule="evenodd"
     d="m 40.495418,17.586142 c 2.240392,-1.589895 3.702375,-4.204777 3.702375,-7.161142 0,-4.8462973 -3.928703,-8.775 -8.775,-8.775 -4.846298,0 -8.775,3.9287027 -8.775,8.775 0,2.956365 1.461982,5.571247 3.702442,7.161142 -3.814965,1.713825 -6.67255,5.301923 -7.504629,9.651218 -0.301766,1.577407 0.724113,3.001995 2.300373,3.309525 2.000639,0.390285 5.294369,0.803115 10.276814,0.803115 4.982512,0 8.276242,-0.41283 10.276875,-0.803115 C 47.275928,30.239355 48.301793,28.814767 48,27.23736 47.167928,22.888065 44.310383,19.299967 40.495418,17.586142 Z"
     clip-rule="evenodd"
     id="path1"
     style="fill:#adafaa;fill-opacity:1;stroke-width:0.675" />
  <path
     fill="#828480"
     fill-rule="evenodd"
     d="m 30.819464,27.887847 c 3.012083,-2.137526 4.977637,-5.65309 4.977637,-9.627759 0,-6.515578 -5.281922,-11.7975002 -11.7975,-11.7975002 -6.515577,0 -11.7975,5.2819222 -11.7975,11.7975002 0,3.974669 1.965555,7.490232 4.977729,9.627759 -5.129009,2.304142 -8.9708736,7.12814 -10.0895573,12.975525 -0.4057072,2.120737 0.9735297,4.036016 3.0927233,4.449473 2.689748,0.524716 7.117985,1.079743 13.816605,1.079743 6.698712,0 11.126949,-0.555027 13.816688,-1.079743 2.119194,-0.413457 3.498412,-2.328736 3.092669,-4.449473 C 39.790283,35.015987 35.948472,30.191989 30.819464,27.887847 Z"
     clip-rule="evenodd"
     id="path2"
     style="fill:#828480;fill-opacity:1;stroke-width:0.9075" />
</svg>
