<?xml version="1.0" encoding="UTF-8" standalone="no"?>
<svg
   fill="none"
   viewBox="0 0 48 48"
   height="256"
   width="256"
   version="1.1"
   id="svg6"
   sodipodi:docname="theme-crystal.svg"
   inkscape:version="1.4 (86a8ad7, 2024-10-11)"
   xml:space="preserve"
   xmlns:inkscape="http://www.inkscape.org/namespaces/inkscape"
   xmlns:sodipodi="http://sodipodi.sourceforge.net/DTD/sodipodi-0.dtd"
   xmlns="http://www.w3.org/2000/svg"
   xmlns:svg="http://www.w3.org/2000/svg"><defs
     id="defs10" /><sodipodi:namedview
     id="namedview8"
     pagecolor="#ffffff"
     bordercolor="#666666"
     borderopacity="1.0"
     inkscape:showpageshadow="2"
     inkscape:pageopacity="0.0"
     inkscape:pagecheckerboard="0"
     inkscape:deskcolor="#d1d1d1"
     showgrid="false"
     inkscape:zoom="2.1445313"
     inkscape:cx="221.49362"
     inkscape:cy="108.4153"
     inkscape:current-layer="svg6"
     inkscape:window-width="3840"
     inkscape:window-height="1494"
     inkscape:window-x="-11"
     inkscape:window-y="-11"
     inkscape:window-maximized="1" /><path
     style="fill:#d3d7cf;fill-opacity:1;stroke-width:0.999995"
     d="m 24.425265,47.845739 c -0.485548,-0.216386 -0.826324,-0.634703 -2.155701,-2.64619 -0.633744,-0.958922 -1.522339,-2.29844 -1.974661,-2.976701 -1.485804,-2.227996 -6.000027,-9.024603 -7.089268,-10.673595 -0.58707,-0.888758 -1.94223,-2.929314 -3.011467,-4.534567 -1.069233,-1.605254 -2.018137,-3.078722 -2.108675,-3.274371 -0.218925,-0.473111 -0.216452,-1.151228 0.0059,-1.611121 0.09586,-0.198291 0.512204,-0.819792 0.925196,-1.381113 0.412998,-0.56132 1.283822,-1.747748 1.935167,-2.636505 0.651314,-0.888758 2.801614,-3.816556 4.778415,-6.506217 1.976801,-2.6896621 4.097626,-5.5791876 4.712947,-6.4211686 1.733489,-2.37205 2.981034,-4.0471702 3.311015,-4.44580983 C 24.183964,0.21911788 24.64805,0.00308539 25.340263,3.6342445e-5 26.122818,-0.00341096 26.53564,0.23612124 27.165907,1.0593339 27.62925,1.6645171 31.720449,7.270829 38.213315,16.197982 c 1.616017,2.221895 3.167708,4.344137 3.448194,4.716096 0.589363,0.781564 0.880108,1.315928 0.964904,1.773419 0.105846,0.571058 -0.150557,1.104091 -1.182831,2.656689 l -7.785397,11.70967 c -0.0199,0.02992 -1.585624,2.268912 -3.449096,5.013238 -1.863476,2.744325 -3.516168,5.132757 -3.672654,5.307626 -0.538287,0.601518 -1.391303,0.791831 -2.111175,0.471019 z"
     id="path4"
     sodipodi:nodetypes="sscssccssscssssssssssss" /><path
     style="fill:#eeeeec;fill-opacity:1;stroke-width:0.999995"
     d="M 24.425265,47.845739 C 23.939717,47.629353 23.598941,47.211036 22.269564,45.199549 21.63582,44.240627 20.747225,42.901109 20.294903,42.222848 18.809099,39.994852 14.294876,33.198245 13.205635,31.549253 12.618565,30.660495 11.263405,28.619939 10.194168,27.014686 9.1249347,25.409432 8.1760312,23.935964 8.085493,23.740315 7.8665676,23.267204 7.8690409,22.589087 8.091363,22.129194 8.187227,21.930903 8.6035667,21.309402 9.0165594,20.748081 9.4295567,20.186761 10.300381,19.000333 10.951726,18.111576 11.60307,17.222818 13.75337,14.29502 15.730171,11.605359 17.706972,8.9156969 19.827797,6.0261714 20.443118,5.1841904 22.176607,2.8121404 23.424152,1.1370202 23.754133,0.73838057 24.183964,0.21911788 24.64805,0.00308539 25.340263,3.6342445e-5 26.122818,-0.00341096 26.53564,0.23612124 27.165907,1.0593339 27.62925,1.6645171 31.720449,7.270829 38.213315,16.197982 c 1.616017,2.221895 3.167708,4.344137 3.448194,4.716096 0.589363,0.781564 0.880108,1.315928 0.964904,1.773419 0.105846,0.571058 -0.150557,1.104091 -1.182831,2.656689 l -7.785397,11.70967 c -0.0199,0.02992 -1.585624,2.268912 -3.449096,5.013238 -1.863476,2.744325 -3.516168,5.132757 -3.672654,5.307626 -0.538287,0.601518 -1.391303,0.791831 -2.111175,0.471019 z m 1.772234,-8.65517 c 0.757939,-2.565539 1.698595,-5.755365 2.090345,-7.088501 0.39175,-1.333137 1.059019,-3.595373 1.482826,-5.027189 0.423805,-1.431817 0.77055,-2.656518 0.770545,-2.721555 -9e-6,-0.09973 -0.824418,-0.117285 -5.265967,-0.112086 -5.15077,0.0061 -5.265297,0.0098 -5.235926,0.170098 0.0165,0.09017 0.237509,0.871962 0.491094,1.73733 2.20758,7.533391 3.076204,10.650991 3.076204,11.040878 0,0.742692 -0.553594,1.180414 -1.392828,1.101295 -0.568491,-0.05359 -0.95398,-0.400945 -1.139032,-1.02634 -0.07197,-0.243229 -0.309261,-1.016313 -0.527308,-1.717963 -0.218047,-0.701651 -1.043815,-3.495497 -1.83503,-6.208547 -0.851362,-2.919267 -1.492614,-4.972776 -1.570956,-5.030706 -0.09548,-0.0706 -0.883552,-0.08886 -2.827432,-0.06548 -1.48228,0.01783 -2.713367,0.05038 -2.735743,0.07233 -0.02238,0.02196 0.757194,1.237849 1.732389,2.701982 0.975191,1.464133 3.0987,4.652198 4.718914,7.084588 2.524765,3.790378 4.51268,6.787551 6.226716,9.38801 0.320573,0.486356 0.430764,0.598511 0.488528,0.497237 0.041,-0.07193 0.694723,-2.229851 1.452661,-4.795388 z m 3.667684,-1.305197 7.106365,-10.546025 c 0.631047,-0.93649 1.268298,-2.025007 1.493086,-2.369077 0.224792,-0.344068 0.394634,-0.639386 0.377436,-0.656262 -0.01719,-0.01688 -1.273059,-0.04154 -2.790803,-0.05481 l -2.759529,-0.02413 -2.110764,7.22913 c -1.160921,3.976022 -2.13589,7.32481 -2.166592,7.441751 -0.07821,0.297866 8.76e-4,0.203064 0.850801,-1.020582 z M 24.01879,13.370117 C 24.00455,8.042309 23.96648,5.0991418 23.911775,5.0991418 c -0.08353,0 -0.72584,0.856129 -4.502397,6.0011952 -2.799981,3.814612 -5.581266,7.596711 -6.696248,9.105828 -0.540109,0.731034 -0.982018,1.352952 -0.982018,1.38204 0,0.02909 2.769698,0.05289 6.15489,0.05289 h 6.154887 z m 14.670595,8.186566 c 0,-0.04642 -0.773718,-1.146741 -1.719375,-2.445147 C 31.770476,11.972456 29.305774,8.5249573 27.727453,6.1835112 27.215069,5.4233896 26.760895,4.8014718 26.718177,4.8014718 c -0.04526,0 -0.07766,3.5147553 -0.07766,8.4198102 v 8.41981 h 6.024437 c 3.928061,0 6.024439,-0.02937 6.024439,-0.08441 z"
     id="path2"
     sodipodi:nodetypes="sscssccssscsssssssssssscssscccsssscssssssccccsssscsssccsssssccccssscscc" /><path
     style="fill:#edd400;fill-opacity:1;stroke-width:0.999995"
     d="m 8.9239248,45.856117 c -0.362592,-0.175409 -0.611457,-0.51036 -1.021514,-1.374861 -0.404957,-0.853749 -0.704431,-1.136831 -1.77837,-1.681045 -0.661852,-0.33539 -0.844523,-0.473006 -1.050153,-0.791141 -0.576977,-0.892648 -0.177877,-1.712251 1.057661,-2.172049 0.218038,-0.08114 0.588605,-0.288873 0.823484,-0.46163 0.35618,-0.261974 0.50618,-0.468032 0.903811,-1.24158 0.262215,-0.510114 0.577291,-1.000175 0.700168,-1.089028 0.482977,-0.349238 1.386361,-0.339223 1.9020932,0.02108 0.147679,0.103175 0.396927,0.467871 0.611368,0.894548 0.503022,1.00086 0.879178,1.389879 1.791629,1.852889 0.417523,0.211867 0.861694,0.493361 0.987053,0.625546 0.291808,0.307705 0.452585,0.801102 0.376326,1.154902 -0.123537,0.57315 -0.356733,0.804977 -1.238575,1.231314 -1.017426,0.491887 -1.417345,0.866488 -1.805868,1.691543 -0.605002,1.284764 -1.3990512,1.755589 -2.2591132,1.339512 z"
     id="path3"
     sodipodi:nodetypes="ssssssssssssssss" /><path
     style="fill:#edd400;fill-opacity:1;stroke-width:0.999995"
     d="M 7.1157834,13.975968 C 6.6331735,13.742498 6.301934,13.296678 5.7561482,12.146027 5.2171504,11.009687 4.8185505,10.632905 3.3891378,9.9085564 2.5082127,9.4621523 2.2650776,9.2789854 1.991384,8.8555477 1.2234277,7.6674332 1.7546298,6.5765417 3.3991308,5.9645505 3.6893394,5.8565532 4.1825641,5.5800606 4.4951881,5.350121 4.9692637,5.0014336 5.1689137,4.7271704 5.6981605,3.697578 6.0471686,3.0186163 6.4665349,2.3663451 6.6300843,2.2480817 7.2729266,1.7832459 8.4753307,1.7965759 9.16177,2.2761392 c 0.1965608,0.137326 0.5283099,0.6227363 0.8137308,1.1906434 0.6695222,1.3321447 1.1701852,1.849929 2.3846582,2.4661953 0.555723,0.281995 1.146915,0.6566634 1.313769,0.8326017 0.388396,0.4095553 0.602389,1.0662668 0.500889,1.5371746 -0.164427,0.7628626 -0.474812,1.0714243 -1.648544,1.6388789 -1.354194,0.6547009 -1.886486,1.1532959 -2.40361,2.2514439 -0.8052578,1.710021 -1.8621371,2.336689 -3.0068796,1.782891 z"
     id="path3-0"
     sodipodi:nodetypes="ssssssssssssssss" /><path
     style="fill:#edd400;fill-opacity:1;stroke-width:0.999997"
     d="M 40.816113,10.31395 C 40.544169,10.182393 40.35752,9.9311801 40.049977,9.2828043 39.746259,8.6424922 39.521654,8.4301807 38.7162,8.0220204 38.219811,7.7704779 38.082807,7.6672659 37.928585,7.4286646 37.495852,6.7591786 37.795177,6.1444764 38.721831,5.7996279 c 0.163528,-0.060855 0.441453,-0.2166548 0.617613,-0.3462225 0.267135,-0.1964805 0.379635,-0.351024 0.677858,-0.931185 0.196661,-0.3825855 0.432968,-0.7501313 0.525126,-0.816771 0.362233,-0.2619285 1.039771,-0.2544173 1.42657,0.01581 0.110759,0.077381 0.297695,0.3509032 0.458526,0.670911 0.377266,0.750645 0.659383,1.0424092 1.343721,1.3896667 0.313143,0.1589003 0.646271,0.3700208 0.74029,0.4691595 0.218856,0.2307788 0.339439,0.6008265 0.282245,0.8661765 -0.09265,0.4298625 -0.26755,0.6037328 -0.928932,0.9234855 -0.763069,0.3689151 -1.063008,0.6498659 -1.354401,1.2686575 -0.453751,0.9635729 -1.049288,1.3166919 -1.694334,1.0046339 z"
     id="path3-9"
     sodipodi:nodetypes="ssssssssssssssss" /></svg>
