<?xml version="1.0" encoding="UTF-8" standalone="no"?>
<svg
   fill="none"
   viewBox="0 0 48 48"
   height="256"
   width="256"
   version="1.1"
   id="svg16379"
   sodipodi:docname="graphite.svg"
   inkscape:version="1.4 (86a8ad7, 2024-10-11)"
   xml:space="preserve"
   xmlns:inkscape="http://www.inkscape.org/namespaces/inkscape"
   xmlns:sodipodi="http://sodipodi.sourceforge.net/DTD/sodipodi-0.dtd"
   xmlns="http://www.w3.org/2000/svg"
   xmlns:svg="http://www.w3.org/2000/svg"><defs
     id="defs16383" /><sodipodi:namedview
     id="namedview16381"
     pagecolor="#ffffff"
     bordercolor="#111111"
     borderopacity="1"
     inkscape:showpageshadow="0"
     inkscape:pageopacity="0"
     inkscape:pagecheckerboard="1"
     inkscape:deskcolor="#d1d1d1"
     showgrid="false"
     inkscape:zoom="3.0328251"
     inkscape:cx="229.15927"
     inkscape:cy="143.92521"
     inkscape:window-width="3840"
     inkscape:window-height="1494"
     inkscape:window-x="-11"
     inkscape:window-y="-11"
     inkscape:window-maximized="1"
     inkscape:current-layer="svg16379" /><g
     id="g20"
     transform="matrix(0.45916858,0,0,0.48439638,-76.277789,-38.826622)"
     style="stroke-width:2.12037"><path
       style="fill:#888a85;fill-opacity:1;stroke-width:2.12037"
       d="m 213.96363,178.89036 c -12.22219,-0.44546 -29.40573,-3.80672 -35.67916,-6.97916 -5.13159,-2.59502 -9.12388,-7.14326 -10.79386,-12.29696 -1.04395,-3.22175 -1.45417,-7.70254 -1.07286,-11.71875 0.76655,-8.07359 3.53468,-14.766 8.62136,-20.84351 1.96212,-2.34433 3.57432,-3.81153 7.12896,-6.48777 4.55538,-3.42968 6.83448,-5.91592 8.54805,-9.32497 0.46653,-0.92812 1.01536,-2.35467 1.21962,-3.17011 0.42918,-1.71334 0.85443,-5.87352 1.02718,-10.048638 0.10475,-2.53185 0.19247,-3.123644 0.68095,-4.59375 1.38866,-4.179293 4.72642,-7.743314 8.97666,-9.585178 2.58859,-1.121778 4.48499,-1.456638 8.24935,-1.456638 3.64956,0 5.37638,0.288675 8.16902,1.365634 3.10917,1.199023 4.23626,2.077261 9.74864,7.596216 12.97023,12.985704 35.24791,35.710674 36.30861,37.037614 2.19104,2.74101 3.37822,5.07457 4.5528,8.94915 0.88087,2.90572 1.10427,4.80852 0.97587,8.31195 -0.12246,3.34163 -0.49057,5.94171 -1.26812,8.95738 -0.73169,2.83776 -2.12629,7.08253 -2.97091,9.04262 -2.62506,6.09188 -8.34194,10.37906 -16.36261,12.2706 -3.93309,0.92755 -8.47523,1.5787 -15.7158,2.25299 -8.17663,0.76146 -13.78527,0.96031 -20.34375,0.72128 z"
       id="path17"
       sodipodi:nodetypes="ssssssssssssssssssssss" /><path
       style="fill:#555753;fill-opacity:1;stroke-width:2.12037"
       d="m 211.63307,178.98895 c -5.72357,-0.31137 -17.12833,-2.37384 -23.05485,-3.65533 -12.92408,-2.79457 -17.17902,-6.80645 -20.27068,-13.08579 -1.52956,-3.10664 -2.49671,-9.72188 -2.09476,-13.59753 0.11415,-1.10063 0.52437,-4.32723 0.57158,-4.37444 0.0472,-0.0472 6.64489,3.13932 9.67442,4.70096 6.76377,3.48656 17.82642,5.8349 20.09464,10.27778 l 0.3436,0.67302 5.9083,5.29023 c 8.67844,7.77057 9.20077,8.22893 9.28333,8.14637 0.0415,-0.0415 0.45349,-1.16939 0.91557,-2.50645 0.46208,-1.33707 1.99348,-5.76384 3.40311,-9.83728 1.40964,-4.07344 3.15149,-9.13594 3.87078,-11.25 2.39434,-7.03719 3.38105,-9.8424 3.51183,-9.98418 0.0712,-0.0772 5.06135,1.45372 11.08912,3.40211 l 10.95957,3.54254 0.71022,1.75414 c 0.39063,0.96478 1.39192,3.52602 2.22509,5.69164 0.83318,2.16563 7.46508,19.71542 7.42028,19.74101 -10.60733,6.05857 -42.60178,5.17779 -44.56115,5.0712 z"
       id="path16"
       sodipodi:nodetypes="ssssssscssssssscssss" /><path
       style="fill:#2e3436;fill-opacity:1;stroke-width:2.12037"
       d="m 214.95314,178.53511 c 0.12449,-0.20144 1.41856,-0.94506 4.60481,-2.6461 7.63035,-4.0736 12.98921,-6.94227 14.53125,-7.77876 6.1035,-3.43334 15.85844,-11.05034 18.19838,-5.05694 0.23204,0.59434 5.78869,9.0716 3.86355,10.93161 -3.73161,3.60536 -11.40855,3.73082 -20.7838,4.67373 -6.9982,0.70384 -15.94238,0.74594 -21.04955,0.28735 z"
       id="path15"
       sodipodi:nodetypes="cssssscc" /><path
       style="fill:#2e3436;fill-opacity:1;stroke-width:2.12037"
       d="m 201.06839,155.92558 c 2.34863,-1.87408 5.0718,-4.03848 6.05149,-4.8098 2.32708,-1.83211 2.49034,-2.01842 2.22101,-2.53457 -0.26526,-0.50836 -2.89494,-4.74231 -8.75242,-14.09197 -2.51968,-4.02187 -5.64573,-9.02039 -6.94678,-11.10781 -1.5639,-2.50912 -5.05274,-8.44065 -5.26331,-8.44168 -0.17518,-8.6e-4 -1.66549,1.84684 -2.83094,2.81033 -1.16544,0.96348 -2.96733,2.39256 -3.84389,3.01544 -5.92149,4.20778 -10.95586,10.04937 -13.25824,16.9575 -0.82254,2.468 -1.84543,6.6396 -1.5638,6.79776 0.86139,0.48375 8.35868,3.9888 13.05087,6.39635 4.69219,2.40754 10.26094,5.27923 12.375,6.38152 2.11406,1.10229 3.98933,2.01096 4.16726,2.01925 0.17792,0.008 2.24511,-1.51824 4.59375,-3.39232 z m 47.18437,-11.92071 c 10.98088,-10.51338 16.81715,-15.61912 16.81378,-15.86926 -0.002,-0.15698 -9.26228,-9.57987 -20.57813,-20.93976 -14.40952,-14.465597 -24.0082,-24.460211 -24.80933,-24.974678 -0.62914,-0.404014 -1.97914,-1.014357 -3,-1.356319 -1.68721,-0.565168 -2.11206,-0.629798 -4.66862,-0.710204 -0.0804,-0.0025 -13.22356,3.691236 -15.21064,7.959146 -0.34859,0.748711 -0.45539,1.294009 -0.45679,2.332276 -0.002,1.655685 0.49375,3.081241 2.0075,5.769903 0.5806,1.03125 6.60943,9.806076 9.61929,15.117016 7.03538,12.41403 14.438,25.19488 15.10502,26.76743 l 0.7151,1.68589 c 5.54034,1.63364 21.80164,6.91935 22.04869,6.94465 0.77439,0.0408 1.04082,-1.41125 2.41413,-2.72609 z"
       id="path20"
       sodipodi:nodetypes="sssssssssssscsscssssscsssccs" /></g></svg>
