<?xml version="1.0" encoding="UTF-8" standalone="no"?>
<!-- Created with Inkscape (http://www.inkscape.org/) -->

<svg
   width="256"
   height="256"
   viewBox="0 0 67.733334 67.733334"
   version="1.1"
   id="svg1"
   inkscape:version="1.4 (86a8ad7, 2024-10-11)"
   sodipodi:docname="theme-obsidian.svg"
   xmlns:inkscape="http://www.inkscape.org/namespaces/inkscape"
   xmlns:sodipodi="http://sodipodi.sourceforge.net/DTD/sodipodi-0.dtd"
   xmlns="http://www.w3.org/2000/svg"
   xmlns:svg="http://www.w3.org/2000/svg">
  <sodipodi:namedview
     id="namedview1"
     pagecolor="#ffffff"
     bordercolor="#000000"
     borderopacity="0.25"
     inkscape:showpageshadow="2"
     inkscape:pageopacity="0.0"
     inkscape:pagecheckerboard="0"
     inkscape:deskcolor="#d1d1d1"
     inkscape:document-units="mm"
     inkscape:zoom="3.2176732"
     inkscape:cx="206.3603"
     inkscape:cy="155.85797"
     inkscape:window-width="3840"
     inkscape:window-height="1494"
     inkscape:window-x="-11"
     inkscape:window-y="-11"
     inkscape:window-maximized="1"
     inkscape:current-layer="layer1" />
  <defs
     id="defs1" />
  <g
     inkscape:label="Layer 1"
     inkscape:groupmode="layer"
     id="layer1">
    <path
       d="m 21.19573,63.24593 c 5.518389,-11.111289 5.358436,-19.07438 3.012454,-24.735846 -2.15937,-5.23818 -6.171532,-8.531883 -9.33061,-10.582181 -0.07998,0.304238 -0.173282,0.58202 -0.293247,0.859803 L 7.1598272,45.216541 a 4.5320104,4.4974266 0 0 0 0.8797432,4.986852 L 19.916104,62.333217 a 4.5320104,4.4974266 0 0 0 1.279626,0.925941 z"
       fill="url(#logo-bottom-left)"
       id="path19"
       style="fill:#555753;fill-opacity:1;stroke-width:0.264583" />
    <path
       d="m 36.191353,40.692658 c 1.492897,0.158733 2.959136,0.476199 4.372057,1.005308 4.532011,1.679921 8.664138,5.449822 12.063146,12.738299 0.239929,-0.410059 0.479859,-0.820119 0.746448,-1.216951 A 204.74024,203.17786 0 0 0 59.344595,43.88054 2.2660052,2.2487133 0 0 0 59.171312,41.340817 C 57.705073,39.409569 54.90589,35.494162 53.373004,31.882993 51.80013,28.152775 51.57353,22.359031 51.5602,19.554753 c 0,-1.071446 -0.346565,-2.116436 -1.013038,-2.96301 L 38.750606,1.7237793 A 4.5320104,4.4974266 0 0 0 38.550664,1.4989079 12.796265,12.698616 0 0 1 38.817253,8.6418797 26.432284,26.23058 0 0 1 36.471271,14.10493 l -0.95972,1.878337 a 22.793347,22.61941 0 0 0 -2.585911,9.391685 c -0.159954,3.888952 0.639813,8.78321 3.265713,15.317706 z"
       fill="url(#logo-top-right)"
       id="path20"
       style="fill:#555753;fill-opacity:1;stroke-width:0.264583" />
    <path
       d="M 36.191353,40.692658 C 33.565453,34.158162 32.752357,29.263904 32.92564,25.361725 a 22.793347,22.61941 0 0 1 2.585911,-9.391685 c 0.306578,-0.634931 0.639814,-1.256634 0.95972,-1.86511 0.946391,-1.838654 1.866122,-3.571486 2.345982,-5.476278 A 12.796265,12.698616 0 0 0 38.550664,1.4856802 4.5453399,4.5106544 0 0 0 32.139202,1.1682148 L 18.08997,13.708099 a 4.5453399,4.5106544 0 0 0 -1.452909,2.685228 l -1.706169,11.243566 -0.06665,0.304238 c 3.172407,2.050298 7.197899,5.344001 9.343939,10.58218 a 19.59428,19.444756 0 0 1 1.039697,3.280476 c 3.732244,-0.899485 7.424499,-1.455049 10.943472,-1.097901 z"
       fill="url(#logo-top-left)"
       id="path21"
       style="fill:#888a85;fill-opacity:1;stroke-width:0.264583" />
    <path
       d="m 43.549205,67.571397 c 3.025784,0.820118 6.078226,-1.587328 6.491439,-4.682615 a 24.926057,24.735847 0 0 1 2.585912,-8.452517 C 49.214218,47.161016 45.095421,43.377887 40.57674,41.697966 35.77814,39.92545 30.552999,40.50747 25.247881,41.79056 c 1.18632,5.344001 0.47986,12.341467 -4.052151,21.45537 0.533178,0.238099 1.079685,0.396832 1.66618,0.436515 0,0 3.252384,0.264555 7.144582,0.542337 3.865538,0.264554 9.650516,2.261941 13.542713,3.333387 z"
       fill="url(#logo-bottom-right)"
       id="path22"
       style="fill:#2e3436;fill-opacity:1;stroke-width:0.264583" />
  </g>
</svg>
