<?xml version="1.0" encoding="UTF-8" standalone="no"?>
<svg
   fill="none"
   viewBox="0 0 48 48"
   height="256"
   width="256"
   version="1.1"
   id="svg6"
   sodipodi:docname="theme-water.svg"
   inkscape:version="1.4 (86a8ad7, 2024-10-11)"
   xml:space="preserve"
   xmlns:inkscape="http://www.inkscape.org/namespaces/inkscape"
   xmlns:sodipodi="http://sodipodi.sourceforge.net/DTD/sodipodi-0.dtd"
   xmlns="http://www.w3.org/2000/svg"
   xmlns:svg="http://www.w3.org/2000/svg"><defs
     id="defs10" /><sodipodi:namedview
     id="namedview8"
     pagecolor="#ffffff"
     bordercolor="#666666"
     borderopacity="1.0"
     inkscape:showpageshadow="2"
     inkscape:pageopacity="0.0"
     inkscape:pagecheckerboard="0"
     inkscape:deskcolor="#d1d1d1"
     showgrid="false"
     inkscape:zoom="1.0722656"
     inkscape:cx="14.921676"
     inkscape:cy="-20.051002"
     inkscape:current-layer="svg6"
     inkscape:window-width="3840"
     inkscape:window-height="1494"
     inkscape:window-x="-11"
     inkscape:window-y="-11"
     inkscape:window-maximized="1" /><path
     id="path1"
     style="fill:#729fcf;fill-opacity:1;stroke-width:1"
     d="M 24.087524 0.0043945312 C 23.399688 -0.042930692 22.699933 0.30786495 22.081421 1.0418701 C 15.651322 8.6726292 15.150066 9.2952216 12.737183 12.648926 C 8.0702109 19.135622 5.8758321 23.7406 5.3353271 28.182129 C 5.1553781 29.66084 5.271929 32.426406 5.571167 33.782959 C 6.371209 37.409791 8.2315048 40.531778 11.153687 43.151001 C 14.300119 45.97122 18.451053 47.671172 22.886719 47.956421 C 23.899417 48.02155 24.105911 48.018614 25.731079 47.913208 C 29.912087 47.642034 34.614465 45.484966 37.597046 42.469849 C 42.661295 37.350357 44.0542 30.60183 41.503418 23.544067 C 40.238306 20.043624 37.373611 15.346305 33.097778 9.7606201 C 30.912865 6.906383 26.04906 1.1496162 25.292725 0.52258301 C 24.908727 0.20423501 24.500226 0.032789665 24.087524 0.0043945312 z M 31.80835 28.995117 A 4.1112657 5.8114133 0 0 1 35.919434 34.806519 A 4.1112657 5.8114133 0 0 1 31.80835 40.61792 A 4.1112657 5.8114133 0 0 1 27.696899 34.806519 A 4.1112657 5.8114133 0 0 1 31.80835 28.995117 z " /></svg>
