<svg xmlns="http://www.w3.org/2000/svg" fill="none" viewBox="0 0 48 48" height="256" width="256"><path fill="#95c2f2" d="M3 24C3 12.402 12.402 3 24 3C35.598 3 45 12.402 45 24C45 35.598 35.598 45 24 45C12.402 45 3 35.598 3 24Z"></path><path fill="#507ab7" d="M31.2967 29.8206C33.7729 29.6743 34.8333 27.3044 33.4825 25.224C32.6675 23.9687 31.6671 22.4646 30.5 20.7765C29.0802 18.723 27.7427 17.2204 26.6544 16.1597C25.1329 14.6769 22.8671 14.6769 21.3456 16.1597C20.2573 17.2204 18.9198 18.723 17.5 20.7765C16.3329 22.4646 15.3325 23.9687 14.5175 25.224C13.1667 27.3044 14.2271 29.6743 16.7034 29.8206C18.4574 29.9241 20.8256 30 24 30C27.1744 30 29.5426 29.9241 31.2967 29.8206Z"></path></svg>