<svg xmlns="http://www.w3.org/2000/svg" fill="none" viewBox="0 0 48 48" height="256" width="256"><path fill="#95c2f2" d="M24 3C35.598 3 45 12.402 45 24C45 35.598 35.598 45 24 45C12.402 45 3 35.598 3 24C3 12.402 12.402 3 24 3Z"></path><path fill="#507ab7" d="M18.1794 31.2967C18.3257 33.7729 20.6956 34.8333 22.776 33.4825C24.0313 32.6675 25.5354 31.6671 27.2235 30.5C29.277 29.0802 30.7796 27.7427 31.8403 26.6544C33.3231 25.1329 33.3231 22.8671 31.8403 21.3456C30.7796 20.2573 29.277 18.9198 27.2235 17.5C25.5354 16.3329 24.0313 15.3325 22.776 14.5175C20.6956 13.1667 18.3257 14.2271 18.1794 16.7034C18.0759 18.4574 18 20.8256 18 24C18 27.1744 18.0759 29.5426 18.1794 31.2967Z"></path></svg>