<?xml version="1.0" encoding="UTF-8" standalone="no"?>
<svg
   fill="none"
   viewBox="0 0 48 48"
   height="256"
   width="256"
   version="1.1"
   id="svg6"
   sodipodi:docname="triangle_right.svg"
   inkscape:version="1.2.1 (9c6d41e410, 2022-07-14)"
   xmlns:inkscape="http://www.inkscape.org/namespaces/inkscape"
   xmlns:sodipodi="http://sodipodi.sourceforge.net/DTD/sodipodi-0.dtd"
   xmlns="http://www.w3.org/2000/svg"
   xmlns:svg="http://www.w3.org/2000/svg">
  <defs
     id="defs10" />
  <sodipodi:namedview
     id="namedview8"
     pagecolor="#ffffff"
     bordercolor="#666666"
     borderopacity="1.0"
     inkscape:showpageshadow="2"
     inkscape:pageopacity="0.0"
     inkscape:pagecheckerboard="0"
     inkscape:deskcolor="#d1d1d1"
     showgrid="false"
     inkscape:zoom="3.2382812"
     inkscape:cx="128.1544"
     inkscape:cy="128.1544"
     inkscape:current-layer="svg6" />
  <path
     fill="#95c2f2"
     d="M24 3C35.598 3 45 12.402 45 24C45 35.598 35.598 45 24 45C12.402 45 3 35.598 3 24C3 12.402 12.402 3 24 3Z"
     id="path2" />
  <path
     id="path4"
     d="M 20.912476 13.925903 C 19.484571 13.921072 18.28231 14.9621 18.179443 16.703247 C 18.075943 18.457245 18 20.825603 18 24 C 18 27.174397 18.075943 29.542655 18.179443 31.296753 C 18.325743 33.77295 20.695725 34.833465 22.776123 33.482666 C 24.031422 32.667667 25.53529 31.666977 27.223389 30.499878 C 29.276887 29.080079 30.779511 27.742596 31.84021 26.654297 C 33.323008 25.132798 33.323008 22.867202 31.84021 21.345703 C 30.779511 20.257404 29.276887 18.919921 27.223389 17.500122 C 25.53529 16.333023 24.031422 15.332333 22.776123 14.517334 C 22.158505 14.116316 21.515368 13.927943 20.912476 13.925903 z M 23.146729 18.963501 C 23.461715 18.954282 23.800914 19.047605 24.125977 19.258667 C 24.753626 19.666167 25.505926 20.166329 26.349976 20.749878 C 27.376725 21.459777 28.127854 22.128702 28.658203 22.672852 C 29.399602 23.433601 29.399602 24.566399 28.658203 25.327148 C 28.127854 25.871298 27.376725 26.540223 26.349976 27.250122 C 25.505926 27.833671 24.753626 28.333833 24.125977 28.741333 C 23.085778 29.416732 21.900787 28.886292 21.827637 27.648193 C 21.775887 26.771144 21.738281 25.587198 21.738281 24 C 21.738281 22.412802 21.775887 21.228806 21.827637 20.351807 C 21.877927 19.500579 22.453758 18.983783 23.146729 18.963501 z "
     style="fill:#507ab7;fill-opacity:1" />
</svg>
