<svg xmlns="http://www.w3.org/2000/svg" fill="none" viewBox="0 0 48 48" height="256" width="256"><path fill="#95c2f2" fill-rule="evenodd" d="M13.5704 23.3864C13.8265 23.7373 13.8268 24.2134 13.571 24.5646L3.11102 38.9279C2.38797 39.9207 2.00955 41.1535 2.62835 42.2144C2.95917 42.7817 3.46416 43.4654 4.23499 44.235C5.39589 45.3939 6.52007 45.8126 7.34026 45.9454C8.18182 46.0816 8.97126 45.6665 9.61717 45.1101C15.9447 39.6595 21.9088 31.5198 24.9336 27.1013C26.2309 25.2062 26.2283 22.7461 24.9273 20.8535C21.8582 16.3887 15.7728 8.11688 9.35117 2.65417C8.87764 2.25134 8.30381 1.96585 7.6839 2.01288C6.83111 2.07757 5.51586 2.41557 4.23568 3.69385C3.27906 4.64906 2.7311 5.51632 2.41756 6.18419C2.02659 7.01697 2.29644 7.94217 2.83887 8.68525L13.5704 23.3864ZM33.5704 23.3864C33.8265 23.7373 33.8268 24.2134 33.571 24.5646L23.111 38.9279C22.388 39.9207 22.0096 41.1535 22.6283 42.2144C22.9592 42.7817 23.4642 43.4654 24.235 44.235C25.3959 45.3939 26.5201 45.8126 27.3403 45.9454C28.1818 46.0816 28.9713 45.6665 29.6172 45.1101C35.9447 39.6595 41.9088 31.5198 44.9336 27.1013C46.2309 25.2062 46.2283 22.7461 44.9273 20.8535C41.8582 16.3887 35.7728 8.11688 29.3512 2.65417C28.8776 2.25134 28.3038 1.96585 27.6839 2.01288C26.8311 2.07757 25.5159 2.41557 24.2357 3.69385C23.2791 4.64906 22.7311 5.51632 22.4176 6.18419C22.0266 7.01697 22.2964 7.94217 22.8389 8.68525L33.5704 23.3864Z" clip-rule="evenodd"></path></svg>