<?xml version="1.0" encoding="UTF-8" standalone="no"?>
<svg
   fill="none"
   viewBox="0 0 48 48"
   height="256"
   width="256"
   version="1.1"
   id="svg4"
   sodipodi:docname="triangle_three_down.svg"
   inkscape:version="1.2.1 (9c6d41e410, 2022-07-14)"
   xmlns:inkscape="http://www.inkscape.org/namespaces/inkscape"
   xmlns:sodipodi="http://sodipodi.sourceforge.net/DTD/sodipodi-0.dtd"
   xmlns="http://www.w3.org/2000/svg"
   xmlns:svg="http://www.w3.org/2000/svg">
  <defs
     id="defs8" />
  <sodipodi:namedview
     id="namedview6"
     pagecolor="#ffffff"
     bordercolor="#666666"
     borderopacity="1.0"
     inkscape:showpageshadow="2"
     inkscape:pageopacity="0.0"
     inkscape:pagecheckerboard="0"
     inkscape:deskcolor="#d1d1d1"
     showgrid="false"
     inkscape:zoom="1.6191406"
     inkscape:cx="181.5778"
     inkscape:cy="136.49216"
     inkscape:current-layer="svg4" />
  <path
     fill="#95c2f2"
     fill-rule="evenodd"
     d="m 24.671861,13.49142 c -0.3509,0.2561 -0.827,0.2564 -1.1782,6e-4 L 9.1303607,3.0320397 c -0.9928,-0.72305 -2.2256,-1.10147 -3.2865,-0.48267 -0.5673,0.33082 -1.251,0.83581 -2.0206,1.60664 -1.1589,1.1609 -1.5776,2.28508 -1.7104,3.10527 -0.1362,0.84156 0.2789,1.631 0.8353,2.27691 5.4506,6.3275303 13.5903003,12.2916303 18.0088003,15.3164303 1.8951,1.2973 4.3552,1.2947 6.2478,-0.0063 4.4648,-3.0691 12.73662,-9.1545 18.19933,-15.5761303 0.40283,-0.47353 0.68832,-1.04736 0.64129,-1.66727 -0.06469,-0.85279 -0.40269,-2.16804 -1.68097,-3.44822 -0.95521,-0.95662 -1.82247,-1.50458 -2.49034,-1.81812 -0.83278,-0.39097 -1.75798,-0.12112 -2.50106,0.42131 z m 0,20 c -0.3509,0.2561 -0.827,0.2564 -1.1782,6e-4 l -14.3633003,-10.46 c -0.9928,-0.723 -2.2256,-1.1014 -3.2865,-0.4827 -0.5673,0.3309 -1.251,0.8359 -2.0206,1.6067 -1.1589,1.1609 -1.5776,2.2851 -1.7104,3.1053 -0.1362,0.8415 0.2789,1.631 0.8353,2.2769 5.4506,6.3275 13.5903003,12.2916 18.0088003,15.3164 1.8951,1.2973 4.3552,1.2947 6.2478,-0.0063 4.4648,-3.0691 12.73662,-9.1545 18.19933,-15.5761 0.40283,-0.4736 0.68832,-1.0474 0.64129,-1.6673 -0.06469,-0.8528 -0.40269,-2.168 -1.68097,-3.4482 -0.95521,-0.9566 -1.82247,-1.5046 -2.49034,-1.8181 -0.83278,-0.391 -1.75798,-0.1212 -2.50106,0.4213 z"
     clip-rule="evenodd"
     id="path2" />
</svg>
