<svg xmlns="http://www.w3.org/2000/svg" fill="none" viewBox="0 0 48 48" height="256" width="256"><path fill="#95c2f2" d="M3 24C3 35.598 12.402 45 24 45C35.598 45 45 35.598 45 24C45 12.402 35.598 3 24 3C12.402 3 3 12.402 3 24Z"></path><path fill="#507ab7" d="M31.2967 18.1794C33.7729 18.3257 34.8333 20.6956 33.4825 22.776C32.6675 24.0313 31.6671 25.5354 30.5 27.2235C29.0802 29.277 27.7427 30.7796 26.6544 31.8403C25.1329 33.3231 22.8671 33.3231 21.3456 31.8403C20.2573 30.7796 18.9198 29.277 17.5 27.2235C16.3329 25.5354 15.3325 24.0313 14.5175 22.776C13.1667 20.6956 14.2271 18.3257 16.7034 18.1794C18.4574 18.0759 20.8256 18 24 18C27.1744 18 29.5426 18.0759 31.2967 18.1794Z"></path></svg>