<?xml version="1.0" encoding="UTF-8" standalone="no"?>
<svg
   fill="none"
   viewBox="0 0 48 48"
   height="256"
   width="256"
   version="1.1"
   id="svg6"
   sodipodi:docname="triangle_down.svg"
   inkscape:version="1.2.1 (9c6d41e410, 2022-07-14)"
   xmlns:inkscape="http://www.inkscape.org/namespaces/inkscape"
   xmlns:sodipodi="http://sodipodi.sourceforge.net/DTD/sodipodi-0.dtd"
   xmlns="http://www.w3.org/2000/svg"
   xmlns:svg="http://www.w3.org/2000/svg">
  <defs
     id="defs10" />
  <sodipodi:namedview
     id="namedview8"
     pagecolor="#ffffff"
     bordercolor="#666666"
     borderopacity="1.0"
     inkscape:showpageshadow="2"
     inkscape:pageopacity="0.0"
     inkscape:pagecheckerboard="0"
     inkscape:deskcolor="#d1d1d1"
     showgrid="false"
     inkscape:zoom="2.2898106"
     inkscape:cx="151.54092"
     inkscape:cy="118.78712"
     inkscape:current-layer="svg6" />
  <path
     fill="#95c2f2"
     d="M3 24C3 35.598 12.402 45 24 45C35.598 45 45 35.598 45 24C45 12.402 35.598 3 24 3C12.402 3 3 12.402 3 24Z"
     id="path2" />
  <path
     id="path4"
     d="M 24 18 C 20.825603 18 18.457245 18.075943 16.703247 18.179443 C 14.22695 18.325743 13.166535 20.695725 14.517334 22.776123 C 15.332333 24.031422 16.333023 25.53529 17.500122 27.223389 C 18.919921 29.276887 20.257404 30.779511 21.345703 31.84021 C 22.867202 33.323008 25.132798 33.323008 26.654297 31.84021 C 27.742596 30.779511 29.080079 29.276887 30.499878 27.223389 C 31.666977 25.53529 32.667667 24.031422 33.482666 22.776123 C 34.833465 20.695725 33.77295 18.325743 31.296753 18.179443 C 29.542655 18.075943 27.174397 18 24 18 z M 24 21.738281 C 25.587198 21.738281 26.771144 21.775887 27.648193 21.827637 C 28.886292 21.900787 29.416732 23.085778 28.741333 24.125977 C 28.333833 24.753626 27.833671 25.505926 27.250122 26.349976 C 26.540223 27.376725 25.871298 28.127854 25.327148 28.658203 C 24.566399 29.399602 23.433601 29.399602 22.672852 28.658203 C 22.128702 28.127854 21.459777 27.376725 20.749878 26.349976 C 20.166329 25.505926 19.666167 24.753626 19.258667 24.125977 C 18.583268 23.085778 19.113658 21.900787 20.351807 21.827637 C 21.228806 21.775887 22.412802 21.738281 24 21.738281 z "
     style="fill:#507ab7;fill-opacity:1" />
</svg>
