<?xml version="1.0" encoding="UTF-8" standalone="no"?>
<svg
   fill="none"
   viewBox="0 0 48 48"
   height="256"
   width="256"
   version="1.1"
   id="svg14"
   sodipodi:docname="memory_orange_many.svg"
   inkscape:version="1.2.1 (9c6d41e410, 2022-07-14)"
   xmlns:inkscape="http://www.inkscape.org/namespaces/inkscape"
   xmlns:sodipodi="http://sodipodi.sourceforge.net/DTD/sodipodi-0.dtd"
   xmlns="http://www.w3.org/2000/svg"
   xmlns:svg="http://www.w3.org/2000/svg">
  <defs
     id="defs18" />
  <sodipodi:namedview
     id="namedview16"
     pagecolor="#ffffff"
     bordercolor="#666666"
     borderopacity="1.0"
     inkscape:showpageshadow="2"
     inkscape:pageopacity="0.0"
     inkscape:pagecheckerboard="0"
     inkscape:deskcolor="#d1d1d1"
     showgrid="false"
     inkscape:zoom="2.2898106"
     inkscape:cx="114.85666"
     inkscape:cy="141.71478"
     inkscape:current-layer="svg14"
     inkscape:window-width="1920"
     inkscape:window-height="730"
     inkscape:window-x="-6"
     inkscape:window-y="-6"
     inkscape:window-maximized="1" />
  <path
     fill-rule="evenodd"
     d="m 20.5645,6.8468 c 0.0347,0.7516 0.4679,1.3743 1.2199,1.3997 C 21.8524,8.2488 21.9243,8.25 22,8.25 c 0.0757,0 0.1476,-0.0012 0.2156,-0.0035 0.752,-0.0254 1.1852,-0.6481 1.2199,-1.3997 0.0408,-0.88471 0.7556,-1.59583 1.6413,-1.59661 0.14,-1.3e-4 0.2811,-1.9e-4 0.4232,-1.9e-4 6.6393,0 11.0208,0.13652 13.6912,0.26689 2.0811,0.10159 3.74,1.58271 3.94,3.65661 0.1926,1.9968 0.3688,4.9508 0.3688,9.0765 0,4.2408 -0.1861,7.0699 -0.3849,8.8821 -0.1974,1.799 -1.4771,3.1299 -3.2691,3.3834 C 37.3678,30.8661 32.9527,31.25 25.5,31.25 18.0473,31.25 13.6322,30.8661 11.15399,30.5155 9.36202,30.262 8.0823,28.9311 7.88495,27.1321 7.68615,25.3199 7.5,22.4908 7.5,18.25 7.5,14.1243 7.67618,11.1703 7.86879,9.1735 8.06884,7.0996 9.72775,5.61848 11.8088,5.51689 c 1.6676,-0.08141 4.0026,-0.16523 7.138,-0.21669 0.8683,-0.01426 1.5777,0.67906 1.6177,1.5466 z"
     clip-rule="evenodd"
     id="path309"
     style="fill:#fff01c;fill-opacity:1" />
  <path
     fill-rule="evenodd"
     d="m 34.4998,5.34987 c 1.1307,0.02801 2.1274,0.06 2.9998,0.09341 -0.0029,1.33532 -0.0351,2.20902 -0.069,2.76242 -0.0335,0.547 -0.3701,0.986 -0.9166,1.0264 -0.147,0.0108 -0.3174,0.0175 -0.5142,0.0175 -0.1968,0 -0.3672,-0.0067 -0.5143,-0.0175 C 34.939,9.1917 34.6025,8.7527 34.569,8.2057 34.5344,7.6395 34.5014,6.738 34.4998,5.34987 Z m -7,-0.09596 c 1.0645,0.00463 2.0635,0.01287 3,0.02401 -4e-4,1.42908 -0.034,2.35188 -0.0692,2.92778 -0.0335,0.547 -0.3701,0.986 -0.9166,1.0264 -0.147,0.0108 -0.3174,0.0175 -0.5142,0.0175 -0.1968,0 -0.3672,-0.0067 -0.5143,-0.0175 C 27.939,9.1917 27.6025,8.7527 27.569,8.2057 27.5336,7.6266 27.4999,6.6966 27.4998,5.25391 Z M 16.4997,5.34987 C 16.4982,6.738 16.4652,7.6395 16.4306,8.2057 16.3971,8.7527 16.0605,9.1917 15.514,9.2321 15.367,9.2429 15.1966,9.2496 14.9998,9.2496 14.803,9.2496 14.6326,9.2429 14.4855,9.2321 13.939,9.1917 13.6025,8.7527 13.569,8.2057 13.5351,7.6523 13.5029,6.7786 13.5,5.44328 14.3724,5.40987 15.369,5.37788 16.4997,5.34987 Z"
     clip-rule="evenodd"
     id="path311"
     style="fill:#f68428;fill-opacity:1" />
  <path
     fill-rule="evenodd"
     d="m 8.07336,11.5261 c -2.37413,0.0952 -4.25024,1.9199 -4.37898,4.2925 -0.06057,1.1162 -0.11661,2.4381 -0.15291,3.9353 -0.02042,0.842 0.64953,1.531 1.49049,1.5786 0.82453,0.0466 1.47968,0.5567 1.52414,1.3813 0.00862,0.1598 0.01364,0.338 0.01364,0.5362 0,0.1982 -0.00502,0.3764 -0.01364,0.5362 -0.04446,0.8246 -0.69961,1.3347 -1.52414,1.3813 -0.84096,0.0476 -1.51091,0.7366 -1.49049,1.5786 0.0363,1.4972 0.09234,2.8191 0.15291,3.9353 0.12874,2.3726 2.00485,4.1973 4.37898,4.2925 3.31533,0.1331 8.86904,0.2761 17.42604,0.2761 8.557,0 14.1107,-0.143 17.4261,-0.2761 2.3741,-0.0952 4.2502,-1.9199 4.3789,-4.2925 0.0606,-1.1161 0.1166,-2.4379 0.1529,-3.935 0.0205,-0.8422 -0.6496,-1.5313 -1.4908,-1.5789 -0.8245,-0.0466 -1.4796,-0.5567 -1.5241,-1.3813 -0.0086,-0.1598 -0.0136,-0.338 -0.0136,-0.5362 0,-0.1982 0.005,-0.3764 0.0136,-0.5362 0.0445,-0.8246 0.6996,-1.3347 1.5241,-1.3813 0.8412,-0.0476 1.5113,-0.7367 1.4908,-1.5789 C 47.421,18.2565 47.365,16.9347 47.3044,15.8186 47.1757,13.446 45.2996,11.6213 42.9255,11.5261 39.6101,11.393 34.0564,11.25 25.4994,11.25 c -8.557,0 -14.1107,0.143 -17.42604,0.2761 z"
     clip-rule="evenodd"
     id="path313"
     style="fill:#f68428;fill-opacity:1" />
  <path
     fill-rule="evenodd"
     d="m 17.5645,15.0968 c 0.0347,0.7516 0.4679,1.3743 1.2199,1.3997 0.068,0.0023 0.1399,0.0035 0.2156,0.0035 0.0757,0 0.1476,-0.0012 0.2156,-0.0035 0.752,-0.0254 1.1852,-0.6481 1.2199,-1.3997 0.0408,-0.88471 0.7556,-1.59583 1.6413,-1.59661 0.14,-1.3e-4 0.2811,-1.9e-4 0.4232,-1.9e-4 6.6393,0 11.0208,0.13652 13.6912,0.26689 2.0811,0.10159 3.74,1.58271 3.94,3.65661 0.1926,1.9968 0.3688,4.9508 0.3688,9.0765 0,4.2408 -0.1861,7.0699 -0.3849,8.8821 -0.1974,1.799 -1.4771,3.1299 -3.2691,3.3834 C 34.3678,39.1161 29.9527,39.5 22.5,39.5 15.0473,39.5 10.6322,39.1161 8.15399,38.7655 6.36202,38.512 5.0823,37.1811 4.88495,35.3821 4.68615,33.5699 4.5,30.7408 4.5,26.5 c 0,-4.1257 0.17618,-7.0797 0.36879,-9.0765 0.20005,-2.0739 1.85896,-3.55502 3.94001,-3.65661 1.6676,-0.08141 4.0026,-0.16523 7.138,-0.21669 0.8683,-0.01426 1.5777,0.67906 1.6177,1.5466 z"
     clip-rule="evenodd"
     id="path2"
     style="fill:#fff01c;fill-opacity:1" />
  <path
     fill-rule="evenodd"
     d="m 31.4998,13.59987 c 1.1307,0.02801 2.1274,0.06 2.9998,0.09341 -0.0029,1.33532 -0.0351,2.20902 -0.069,2.76242 -0.0335,0.547 -0.3701,0.986 -0.9166,1.0264 -0.147,0.0108 -0.3174,0.0175 -0.5142,0.0175 -0.1968,0 -0.3672,-0.0067 -0.5143,-0.0175 -0.5465,-0.0404 -0.883,-0.4794 -0.9165,-1.0264 -0.0346,-0.5662 -0.0676,-1.4677 -0.0692,-2.85583 z m -7,-0.09596 c 1.0645,0.0046 2.0635,0.01287 3,0.02401 -4e-4,1.42908 -0.034,2.35188 -0.0692,2.92778 -0.0335,0.547 -0.3701,0.986 -0.9166,1.0264 -0.147,0.0108 -0.3174,0.0175 -0.5142,0.0175 -0.1968,0 -0.3672,-0.0067 -0.5143,-0.0175 -0.5465,-0.0404 -0.883,-0.4794 -0.9165,-1.0264 -0.0354,-0.5791 -0.0691,-1.5091 -0.0692,-2.95179 z m -11.0001,0.09596 c -0.0015,1.38813 -0.0345,2.28963 -0.0691,2.85583 -0.0335,0.547 -0.3701,0.986 -0.9166,1.0264 -0.147,0.0108 -0.3174,0.0175 -0.5142,0.0175 -0.1968,0 -0.3672,-0.0067 -0.5143,-0.0175 -0.5465,-0.0404 -0.883,-0.4794 -0.9165,-1.0264 -0.0339,-0.5534 -0.0661,-1.4271 -0.069,-2.76242 0.8724,-0.03341 1.869,-0.0654 2.9997,-0.09341 z"
     clip-rule="evenodd"
     id="path4"
     style="fill:#f68428;fill-opacity:1" />
  <path
     fill-rule="evenodd"
     d="m 5.07336,19.7761 c -2.37413,0.0952 -4.25024,1.9199 -4.37898,4.2925 -0.06057,1.1162 -0.11661,2.4381 -0.15291,3.9353 -0.02042,0.842 0.64953,1.531 1.49049,1.5786 0.82453,0.0466 1.47968,0.5567 1.52414,1.3813 0.00862,0.1598 0.01364,0.338 0.01364,0.5362 0,0.1982 -0.00502,0.3764 -0.01364,0.5362 -0.04446,0.8246 -0.69961,1.3347 -1.52414,1.3813 -0.84096,0.0476 -1.51091,0.7366 -1.49049,1.5786 0.0363,1.4972 0.09234,2.8191 0.15291,3.9353 0.12874,2.3726 2.00485,4.1973 4.37898,4.2925 C 8.38869,43.357 13.9424,43.5 22.4994,43.5 c 8.557,0 14.1107,-0.143 17.4261,-0.2761 2.3741,-0.0952 4.2502,-1.9199 4.3789,-4.2925 0.0606,-1.1161 0.1166,-2.4379 0.1529,-3.935 0.0205,-0.8422 -0.6496,-1.5313 -1.4908,-1.5789 -0.8245,-0.0466 -1.4796,-0.5567 -1.5241,-1.3813 -0.0086,-0.1598 -0.0136,-0.338 -0.0136,-0.5362 0,-0.1982 0.005,-0.3764 0.0136,-0.5362 0.0445,-0.8246 0.6996,-1.3347 1.5241,-1.3813 0.8412,-0.0476 1.5113,-0.7367 1.4908,-1.5789 C 44.421,26.5065 44.365,25.1847 44.3044,24.0686 44.1757,21.696 42.2996,19.8713 39.9255,19.7761 36.6101,19.643 31.0564,19.5 22.4994,19.5 c -8.557,0 -14.1107,0.143 -17.42604,0.2761 z"
     clip-rule="evenodd"
     id="path6"
     style="fill:#f68428;fill-opacity:1" />
  <path
     d="M 8.5739,27.1206 C 8.6041,26.4571 8.9313,25.8579 9.5758,25.6975 10.014,25.5885 10.6358,25.5 11.5,25.5 c 0.8642,0 1.486,0.0885 1.9242,0.1975 0.6445,0.1604 0.9717,0.7596 1.0019,1.4231 0.0365,0.8016 0.0739,2.1634 0.0739,4.3794 0,2.216 -0.0374,3.5778 -0.0739,4.3794 -0.0302,0.6635 -0.3574,1.2627 -1.0019,1.4231 C 12.986,37.4115 12.3642,37.5 11.5,37.5 10.6358,37.5 10.014,37.4115 9.5758,37.3025 8.9313,37.1421 8.6041,36.5429 8.5739,35.8794 8.5374,35.0778 8.5,33.716 8.5,31.5 c 0,-2.216 0.0374,-3.5778 0.0739,-4.3794 z"
     id="path8"
     style="fill:#606668;fill-opacity:1" />
  <path
     d="m 19.5739,27.1206 c 0.0302,-0.6635 0.3574,-1.2627 1.0019,-1.4231 0.4382,-0.109 1.06,-0.1975 1.9242,-0.1975 0.8642,0 1.486,0.0885 1.9242,0.1975 0.6445,0.1604 0.9717,0.7596 1.0019,1.4231 0.0365,0.8016 0.0739,2.1634 0.0739,4.3794 0,2.216 -0.0374,3.5778 -0.0739,4.3794 -0.0302,0.6635 -0.3574,1.2627 -1.0019,1.4231 C 23.986,37.4115 23.3642,37.5 22.5,37.5 21.6358,37.5 21.014,37.4115 20.5758,37.3025 19.9313,37.1421 19.6041,36.5429 19.5739,35.8794 19.5374,35.0778 19.5,33.716 19.5,31.5 c 0,-2.216 0.0374,-3.5778 0.0739,-4.3794 z"
     id="path10"
     style="fill:#606668;fill-opacity:1" />
  <path
     d="m 30.5739,27.1206 c 0.0302,-0.6635 0.3574,-1.2627 1.0019,-1.4231 0.4382,-0.109 1.06,-0.1975 1.9242,-0.1975 0.8642,0 1.486,0.0885 1.9242,0.1975 0.6445,0.1604 0.9717,0.7596 1.0019,1.4231 0.0365,0.8016 0.0739,2.1634 0.0739,4.3794 0,2.216 -0.0374,3.5778 -0.0739,4.3794 -0.0302,0.6635 -0.3574,1.2627 -1.0019,1.4231 C 34.986,37.4115 34.3642,37.5 33.5,37.5 32.6358,37.5 32.014,37.4115 31.5758,37.3025 30.9313,37.1421 30.6041,36.5429 30.5739,35.8794 30.5374,35.0778 30.5,33.716 30.5,31.5 c 0,-2.216 0.0374,-3.5778 0.0739,-4.3794 z"
     id="path12"
     style="fill:#606668;fill-opacity:1" />
</svg>
