<?xml version="1.0" encoding="UTF-8" standalone="no"?>
<svg
   fill="none"
   viewBox="0 0 48 48"
   height="256"
   width="256"
   version="1.1"
   id="svg14"
   sodipodi:docname="memory_green.svg"
   inkscape:version="1.2.1 (9c6d41e410, 2022-07-14)"
   xmlns:inkscape="http://www.inkscape.org/namespaces/inkscape"
   xmlns:sodipodi="http://sodipodi.sourceforge.net/DTD/sodipodi-0.dtd"
   xmlns="http://www.w3.org/2000/svg"
   xmlns:svg="http://www.w3.org/2000/svg">
  <defs
     id="defs18" />
  <sodipodi:namedview
     id="namedview16"
     pagecolor="#ffffff"
     bordercolor="#111111"
     borderopacity="1"
     inkscape:showpageshadow="0"
     inkscape:pageopacity="0"
     inkscape:pagecheckerboard="1"
     inkscape:deskcolor="#d1d1d1"
     showgrid="false"
     inkscape:zoom="1.5164126"
     inkscape:cx="73.858526"
     inkscape:cy="132.8794"
     inkscape:window-width="1920"
     inkscape:window-height="730"
     inkscape:window-x="-6"
     inkscape:window-y="-6"
     inkscape:window-maximized="1"
     inkscape:current-layer="svg14" />
  <path
     fill="#fff01c"
     fill-rule="evenodd"
     d="M19.0645 10.5968C19.0992 11.3484 19.5324 11.9711 20.2844 11.9965C20.3524 11.9988 20.4243 12 20.5 12C20.5757 12 20.6476 11.9988 20.7156 11.9965C21.4676 11.9711 21.9008 11.3484 21.9355 10.5968C21.9763 9.71209 22.6911 9.00097 23.5768 9.00019C23.7168 9.00006 23.8579 9 24 9C30.6393 9 35.0208 9.13652 37.6912 9.26689C39.7723 9.36848 41.4312 10.8496 41.6312 12.9235C41.8238 14.9203 42 17.8743 42 22C42 26.2408 41.8139 29.0699 41.6151 30.8821C41.4177 32.6811 40.138 34.012 38.346 34.2655C35.8678 34.6161 31.4527 35 24 35C16.5473 35 12.1322 34.6161 9.65399 34.2655C7.86202 34.012 6.5823 32.6811 6.38495 30.8821C6.18615 29.0699 6 26.2408 6 22C6 17.8743 6.17618 14.9203 6.36879 12.9235C6.56884 10.8496 8.22775 9.36848 10.3088 9.26689C11.9764 9.18548 14.3114 9.10166 17.4468 9.0502C18.3151 9.03594 19.0245 9.72926 19.0645 10.5968Z"
     clip-rule="evenodd"
     id="path2"
     style="fill:#fff01c;fill-opacity:1" />
  <path
     fill="#77c32f"
     fill-rule="evenodd"
     d="M32.9998 9.09987C34.1305 9.12788 35.1272 9.15987 35.9996 9.19328C35.9967 10.5286 35.9645 11.4023 35.9306 11.9557C35.8971 12.5027 35.5605 12.9417 35.014 12.9821C34.867 12.9929 34.6966 12.9996 34.4998 12.9996C34.303 12.9996 34.1326 12.9929 33.9855 12.9821C33.439 12.9417 33.1025 12.5027 33.069 11.9557C33.0344 11.3895 33.0014 10.488 32.9998 9.09987ZM25.9998 9.00391C27.0643 9.00854 28.0633 9.01678 28.9998 9.02792C28.9994 10.457 28.9658 11.3798 28.9306 11.9557C28.8971 12.5027 28.5605 12.9417 28.014 12.9821C27.867 12.9929 27.6966 12.9996 27.4998 12.9996C27.303 12.9996 27.1326 12.9929 26.9855 12.9821C26.439 12.9417 26.1025 12.5027 26.069 11.9557C26.0336 11.3766 25.9999 10.4466 25.9998 9.00391ZM14.9997 9.09987C14.9982 10.488 14.9652 11.3895 14.9306 11.9557C14.8971 12.5027 14.5605 12.9417 14.014 12.9821C13.867 12.9929 13.6966 12.9996 13.4998 12.9996C13.303 12.9996 13.1326 12.9929 12.9855 12.9821C12.439 12.9417 12.1025 12.5027 12.069 11.9557C12.0351 11.4023 12.0029 10.5286 12 9.19328C12.8724 9.15987 13.869 9.12788 14.9997 9.09987Z"
     clip-rule="evenodd"
     id="path4"
     style="fill:#77c32f;fill-opacity:1" />
  <path
     fill="#77c32f"
     fill-rule="evenodd"
     d="M6.57336 15.2761C4.19923 15.3713 2.32312 17.196 2.19438 19.5686C2.13381 20.6848 2.07777 22.0067 2.04147 23.5039C2.02105 24.3459 2.691 25.0349 3.53196 25.0825C4.35649 25.1291 5.01164 25.6392 5.0561 26.4638C5.06472 26.6236 5.06974 26.8018 5.06974 27C5.06974 27.1982 5.06472 27.3764 5.0561 27.5362C5.01164 28.3608 4.35649 28.8709 3.53196 28.9175C2.691 28.9651 2.02105 29.6541 2.04147 30.4961C2.07777 31.9933 2.13381 33.3152 2.19438 34.4314C2.32312 36.804 4.19923 38.6287 6.57336 38.7239C9.88869 38.857 15.4424 39 23.9994 39C32.5564 39 38.1101 38.857 41.4255 38.7239C43.7996 38.6287 45.6757 36.804 45.8044 34.4314C45.865 33.3153 45.921 31.9935 45.9573 30.4964C45.9778 29.6542 45.3077 28.9651 44.4665 28.9175C43.642 28.8709 42.9869 28.3608 42.9424 27.5362C42.9338 27.3764 42.9288 27.1982 42.9288 27C42.9288 26.8018 42.9338 26.6236 42.9424 26.4638C42.9869 25.6392 43.642 25.1291 44.4665 25.0825C45.3077 25.0349 45.9778 24.3458 45.9573 23.5036C45.921 22.0065 45.865 20.6847 45.8044 19.5686C45.6757 17.196 43.7996 15.3713 41.4255 15.2761C38.1101 15.143 32.5564 15 23.9994 15C15.4424 15 9.8887 15.143 6.57336 15.2761Z"
     clip-rule="evenodd"
     id="path6"
     style="fill:#77c32f;fill-opacity:1" />
  <path
     fill="#606668"
     d="M10.0739 22.6206C10.1041 21.9571 10.4313 21.3579 11.0758 21.1975C11.514 21.0885 12.1358 21 13 21C13.8642 21 14.486 21.0885 14.9242 21.1975C15.5687 21.3579 15.8959 21.9571 15.9261 22.6206C15.9626 23.4222 16 24.784 16 27C16 29.216 15.9626 30.5778 15.9261 31.3794C15.8959 32.0429 15.5687 32.6421 14.9242 32.8025C14.486 32.9115 13.8642 33 13 33C12.1358 33 11.514 32.9115 11.0758 32.8025C10.4313 32.6421 10.1041 32.0429 10.0739 31.3794C10.0374 30.5778 10 29.216 10 27C10 24.784 10.0374 23.4222 10.0739 22.6206Z"
     id="path8"
     style="fill:#606668;fill-opacity:1" />
  <path
     fill="#606668"
     d="M21.0739 22.6206C21.1041 21.9571 21.4313 21.3579 22.0758 21.1975C22.514 21.0885 23.1358 21 24 21C24.8642 21 25.486 21.0885 25.9242 21.1975C26.5687 21.3579 26.8959 21.9571 26.9261 22.6206C26.9626 23.4222 27 24.784 27 27C27 29.216 26.9626 30.5778 26.9261 31.3794C26.8959 32.0429 26.5687 32.6421 25.9242 32.8025C25.486 32.9115 24.8642 33 24 33C23.1358 33 22.514 32.9115 22.0758 32.8025C21.4313 32.6421 21.1041 32.0429 21.0739 31.3794C21.0374 30.5778 21 29.216 21 27C21 24.784 21.0374 23.4222 21.0739 22.6206Z"
     id="path10"
     style="fill:#606668;fill-opacity:1" />
  <path
     fill="#606668"
     d="M32.0739 22.6206C32.1041 21.9571 32.4313 21.3579 33.0758 21.1975C33.514 21.0885 34.1358 21 35 21C35.8642 21 36.486 21.0885 36.9242 21.1975C37.5687 21.3579 37.8959 21.9571 37.9261 22.6206C37.9626 23.4222 38 24.784 38 27C38 29.216 37.9626 30.5778 37.9261 31.3794C37.8959 32.0429 37.5687 32.6421 36.9242 32.8025C36.486 32.9115 35.8642 33 35 33C34.1358 33 33.514 32.9115 33.0758 32.8025C32.4313 32.6421 32.1041 32.0429 32.0739 31.3794C32.0374 30.5778 32 29.216 32 27C32 24.784 32.0374 23.4222 32.0739 22.6206Z"
     id="path12"
     style="fill:#606668;fill-opacity:1" />
</svg>
