<?xml version="1.0" encoding="UTF-8" standalone="no"?>
<svg
   fill="none"
   viewBox="0 0 16.125 48"
   height="256"
   width="86"
   version="1.1"
   id="svg4"
   sodipodi:docname="arrow.svg"
   inkscape:version="1.4 (86a8ad7, 2024-10-11)"
   xmlns:inkscape="http://www.inkscape.org/namespaces/inkscape"
   xmlns:sodipodi="http://sodipodi.sourceforge.net/DTD/sodipodi-0.dtd"
   xmlns="http://www.w3.org/2000/svg"
   xmlns:svg="http://www.w3.org/2000/svg">
  <defs
     id="defs8" />
  <sodipodi:namedview
     id="namedview6"
     pagecolor="#ffffff"
     bordercolor="#111111"
     borderopacity="1"
     inkscape:showpageshadow="0"
     inkscape:pageopacity="0"
     inkscape:pagecheckerboard="1"
     inkscape:deskcolor="#d1d1d1"
     showgrid="false"
     inkscape:zoom="7.765625"
     inkscape:cx="35.412475"
     inkscape:cy="140.81288"
     inkscape:window-width="3840"
     inkscape:window-height="1494"
     inkscape:window-x="-11"
     inkscape:window-y="-11"
     inkscape:window-maximized="1"
     inkscape:current-layer="svg4" />
  <path
     style="fill:#ffffff;fill-opacity:1;stroke-width:0.999999"
     d="m 6.1075074,17.877914 c 0.2076876,0.07439 0.7001653,0.383223 1.1954218,0.749656 0.1696727,0.125539 0.421291,0.309802 0.5591495,0.409472 0.1378591,0.09967 0.4388267,0.328719 0.6688162,0.508996 0.2299902,0.180278 0.5187891,0.405865 0.6417744,0.501306 1.1283807,0.87566 2.5381477,2.216573 3.0927717,2.941719 0.333013,0.435398 0.396775,0.594566 0.397231,0.991607 3.29e-4,0.287417 -0.01435,0.358641 -0.119205,0.578429 -0.296191,0.620841 -1.54365,1.899411 -3.0617838,3.138142 -0.9530899,0.77768 -2.466823,1.906984 -3.0181959,2.251693 C 5.9487588,30.270733 5.5077795,30.247906 5.107269,29.878729 4.8560778,29.647189 4.7945324,29.418401 4.7216205,28.44513 4.6257575,27.165488 4.6034178,26.248151 4.6067976,23.730017 c 0.00312,-2.347543 0.038425,-3.399759 0.1530243,-4.564675 0.076076,-0.773322 0.2096323,-1.042669 0.614093,-1.238466 0.2374476,-0.114946 0.500373,-0.132495 0.7335925,-0.04896 z"
     id="path2-0" />
</svg>
