<?xml version="1.0" encoding="UTF-8" standalone="no"?>
<svg
   fill="none"
   viewBox="0 0 48 48"
   height="256"
   width="256"
   version="1.1"
   id="svg6"
   sodipodi:docname="burger.svg"
   inkscape:version="1.2.1 (9c6d41e410, 2022-07-14)"
   xmlns:inkscape="http://www.inkscape.org/namespaces/inkscape"
   xmlns:sodipodi="http://sodipodi.sourceforge.net/DTD/sodipodi-0.dtd"
   xmlns="http://www.w3.org/2000/svg"
   xmlns:svg="http://www.w3.org/2000/svg">
  <path
     id="rect1758"
     style="fill:#555753;fill-opacity:1;stroke:none;stroke-width:1.3125;stroke-linecap:round;stroke-linejoin:round;stroke-opacity:0.814302"
     d="m 24.000366,6.9997559 c 10.43608,0 15.407889,0.1508343 17.691284,0.2673339 1.154098,0.0588 2.096904,0.7450454 2.220704,1.894043 0.0523,0.485399 0.08752,1.0908472 0.08752,1.8387452 0,0.747898 -0.03523,1.353346 -0.08752,1.838745 -0.1238,1.148997 -1.066606,1.835243 -2.220704,1.894043 C 39.408255,14.849166 34.436446,15 24.000366,15 13.564287,15 8.5924474,14.849166 6.309082,14.732666 5.1549344,14.673866 4.2121686,13.98762 4.0883789,12.838623 c -0.05229,-0.485399 -0.087891,-1.090847 -0.087891,-1.838745 0,-0.747898 0.035601,-1.3533462 0.087891,-1.8387452 C 4.2121686,8.0121352 5.1549344,7.3258898 6.309082,7.2670898 8.5924474,7.1505902 13.564287,6.9997559 24.000366,6.9997559 Z m 0,13.0001221 c 10.43608,0 15.407889,0.150834 17.691284,0.267334 1.154098,0.0588 2.096904,0.745411 2.220704,1.894409 0.0523,0.485399 0.08752,1.09048 0.08752,1.838379 0,0.747898 -0.03523,1.352979 -0.08752,1.838379 -0.1238,1.148998 -1.066606,1.835609 -2.220704,1.894409 -2.283395,0.1165 -7.255204,0.267334 -17.691284,0.267334 -10.436079,0 -15.4079186,-0.150834 -17.691284,-0.267334 C 5.1549344,27.673988 4.2121686,26.987377 4.0883789,25.838379 4.036089,25.352979 4.0004883,24.747898 4.0004883,24 c 0,-0.747899 0.035601,-1.35298 0.087891,-1.838379 0.1237897,-1.148998 1.0665555,-1.835609 2.2207031,-1.894409 2.2833654,-0.1165 7.255205,-0.267334 17.691284,-0.267334 z m 0,13.000122 c 10.43608,0 15.407889,0.150834 17.691284,0.267334 1.154098,0.0588 2.096904,0.745045 2.220704,1.894043 0.0523,0.485398 0.08752,1.090846 0.08752,1.838745 0,0.747898 -0.03523,1.352979 -0.08752,1.838379 -0.1238,1.148998 -1.066606,1.835243 -2.220704,1.894043 -2.283395,0.1165 -7.255204,0.267334 -17.691284,0.267334 -10.436079,0 -15.4079186,-0.150834 -17.691284,-0.267334 -1.1541476,-0.0588 -2.0969134,-0.745045 -2.2207031,-1.894043 -0.05229,-0.4854 -0.087891,-1.090481 -0.087891,-1.838379 0,-0.747899 0.035601,-1.353347 0.087891,-1.838745 C 4.2121686,34.012379 5.1549344,33.326134 6.309082,33.267334 8.5924474,33.150834 13.564287,33 24.000366,33 Z"
     sodipodi:nodetypes="scssscsccsccsscssscsccsccsscssscscssccs" />
  <defs
     id="defs10" />
  <sodipodi:namedview
     id="namedview8"
     pagecolor="#ffffff"
     bordercolor="#666666"
     borderopacity="1.0"
     inkscape:showpageshadow="2"
     inkscape:pageopacity="0.0"
     inkscape:pagecheckerboard="true"
     inkscape:deskcolor="#d1d1d1"
     showgrid="true"
     inkscape:zoom="2.2898106"
     inkscape:cx="114.41994"
     inkscape:cy="130.79684"
     inkscape:current-layer="svg6"
     showguides="false"
     inkscape:window-width="1920"
     inkscape:window-height="730"
     inkscape:window-x="-6"
     inkscape:window-y="-6"
     inkscape:window-maximized="1">
    <inkscape:grid
       type="xygrid"
       id="grid239"
       units="px"
       spacingx="1.5"
       spacingy="1.5" />
  </sodipodi:namedview>
</svg>
