<?xml version="1.0" encoding="UTF-8" standalone="no"?>
<svg
   fill="none"
   viewBox="0 0 48 48"
   height="256"
   width="256"
   version="1.1"
   id="svg6"
   sodipodi:docname="burger_press.svg"
   inkscape:version="1.2.1 (9c6d41e410, 2022-07-14)"
   xmlns:inkscape="http://www.inkscape.org/namespaces/inkscape"
   xmlns:sodipodi="http://sodipodi.sourceforge.net/DTD/sodipodi-0.dtd"
   xmlns="http://www.w3.org/2000/svg"
   xmlns:svg="http://www.w3.org/2000/svg">
  <path
     id="rect2169"
     style="fill:#555753;stroke-width:1.3125;stroke-linecap:round;stroke-linejoin:round;stroke-opacity:0.814302;fill-opacity:1"
     d="m 24.000366,8.7000732 c 9.392472,0 13.867062,0.1357509 15.922119,0.2406006 1.038688,0.05292 1.886994,0.6702481 1.998413,1.7043462 0.04707,0.436859 0.0791,0.981798 0.0791,1.654907 0,0.673108 -0.03203,1.217681 -0.0791,1.654541 -0.111419,1.034097 -0.959725,1.652158 -1.998413,1.705078 -2.055057,0.10485 -6.529647,0.240234 -15.922119,0.240234 -9.392471,0 -13.867456,-0.135384 -15.9224851,-0.240234 -1.0387329,-0.05292 -1.8870024,-0.670981 -1.9984131,-1.705078 -0.047061,-0.43686 -0.079102,-0.981433 -0.079102,-1.654541 0,-0.673109 0.032041,-1.218048 0.079102,-1.654907 C 6.1908785,9.6109219 7.039148,8.9935938 8.0778809,8.9406738 10.13291,8.8358241 14.607895,8.7000732 24.000366,8.7000732 Z m 0,11.7000728 c 9.392472,0 13.867062,0.135385 15.922119,0.240235 1.038688,0.05292 1.886994,0.67098 1.998413,1.705078 C 41.967968,22.782318 42,23.326891 42,24 c 0,0.673108 -0.03203,1.217681 -0.0791,1.654541 -0.111419,1.034098 -0.959725,1.651792 -1.998413,1.704712 -2.055057,0.10485 -6.529647,0.240601 -15.922119,0.240601 -9.392471,0 -13.867456,-0.135751 -15.9224851,-0.240601 C 7.039148,27.306333 6.1908785,26.688639 6.0794678,25.654541 6.0324068,25.217681 6.0003662,24.673108 6.0003662,24 c 0,-0.673109 0.032041,-1.217682 0.079102,-1.654541 0.1114107,-1.034098 0.9596802,-1.652158 1.9984131,-1.705078 2.0550291,-0.10485 6.5300141,-0.240235 15.9224851,-0.240235 z m 0,11.699708 c 9.392472,0 13.867062,0.13575 15.922119,0.2406 1.038688,0.05292 1.886994,0.670613 1.998413,1.704712 0.04707,0.436859 0.0791,0.981798 0.0791,1.654907 0,0.673109 -0.03203,1.218048 -0.0791,1.654907 -0.111419,1.034098 -0.959725,1.651426 -1.998413,1.704346 -2.055057,0.10485 -6.529647,0.240601 -15.922119,0.240601 -9.392471,0 -13.867456,-0.135751 -15.9224851,-0.240601 -1.0387329,-0.05292 -1.8870024,-0.670248 -1.9984131,-1.704346 -0.047061,-0.436859 -0.079102,-0.981798 -0.079102,-1.654907 0,-0.673109 0.032041,-1.218048 0.079102,-1.654907 0.1114107,-1.034099 0.9596802,-1.651792 1.9984131,-1.704712 2.0550291,-0.10485 6.5300141,-0.2406 15.9224851,-0.2406 z"
     sodipodi:nodetypes="scssscsccsccsscssscscssccsscssscscssccs" />
  <defs
     id="defs10" />
  <sodipodi:namedview
     id="namedview8"
     pagecolor="#ffffff"
     bordercolor="#666666"
     borderopacity="1.0"
     inkscape:showpageshadow="2"
     inkscape:pageopacity="0.0"
     inkscape:pagecheckerboard="true"
     inkscape:deskcolor="#d1d1d1"
     showgrid="true"
     inkscape:zoom="1.6191406"
     inkscape:cx="-67.937275"
     inkscape:cy="73.804585"
     inkscape:current-layer="svg6"
     showguides="false"
     inkscape:window-width="1920"
     inkscape:window-height="730"
     inkscape:window-x="-6"
     inkscape:window-y="-6"
     inkscape:window-maximized="1">
    <inkscape:grid
       type="xygrid"
       id="grid239"
       units="px"
       spacingx="1.5"
       spacingy="1.5" />
  </sodipodi:namedview>
</svg>
