<?xml version="1.0" encoding="UTF-8" standalone="no"?>
<svg
   fill="none"
   viewBox="0 0 48 48"
   height="256"
   width="256"
   version="1.1"
   id="svg308"
   sodipodi:docname="close_hover.svg"
   inkscape:version="1.2.1 (9c6d41e410, 2022-07-14)"
   xmlns:inkscape="http://www.inkscape.org/namespaces/inkscape"
   xmlns:sodipodi="http://sodipodi.sourceforge.net/DTD/sodipodi-0.dtd"
   xmlns="http://www.w3.org/2000/svg"
   xmlns:svg="http://www.w3.org/2000/svg">
  <defs
     id="defs312" />
  <sodipodi:namedview
     id="namedview310"
     pagecolor="#ffffff"
     bordercolor="#666666"
     borderopacity="1.0"
     inkscape:showpageshadow="2"
     inkscape:pageopacity="0.0"
     inkscape:pagecheckerboard="0"
     inkscape:deskcolor="#d1d1d1"
     showgrid="false"
     inkscape:zoom="2.2898106"
     inkscape:cx="-0.87343468"
     inkscape:cy="129.92341"
     inkscape:current-layer="svg308"
     inkscape:window-width="1920"
     inkscape:window-height="730"
     inkscape:window-x="-6"
     inkscape:window-y="-6"
     inkscape:window-maximized="1" />
  <path
     fill="#a40000"
     fill-rule="evenodd"
     d="M 42.133428,47.358758 C 40.731714,48.40312 38.924537,48.109481 37.635371,46.928874 36.179257,45.595583 27.456836,37.011943 24,33.625223 20.543164,37.011943 11.820743,45.595583 10.364629,46.928874 9.0754633,48.109481 7.2682859,48.40312 5.8665722,47.358758 5.0967471,46.785015 4.159734,45.995485 3.0821246,44.917876 2.0045152,43.840266 1.2149849,42.903253 0.64124287,42.133428 -0.40312057,40.731714 -0.10948034,38.924537 1.0711259,37.635371 2.4044178,36.179257 10.988056,27.456836 14.374777,24 10.988056,20.543164 2.4044178,11.820743 1.0711259,10.364629 -0.10948034,9.0754633 -0.40312057,7.2682859 0.64124287,5.8665722 1.2149849,5.0967471 2.0045152,4.159734 3.0821246,3.0821246 4.159734,2.0045152 5.0967471,1.2149849 5.8665722,0.64124287 7.2682859,-0.40312057 9.0754633,-0.10948034 10.364629,1.0711259 11.820743,2.4044178 20.543164,10.988056 24,14.374777 27.456836,10.988056 36.179257,2.4044178 37.635371,1.0711259 c 1.289166,-1.18060624 3.096343,-1.47424647 4.498057,-0.42988303 0.769825,0.57374203 1.706838,1.36327233 2.784448,2.44088173 1.077609,1.0776094 1.867139,2.0146225 2.440882,2.7844476 1.044362,1.4017137 0.750723,3.2088911 -0.429884,4.4980568 C 45.595583,11.820743 37.011943,20.543164 33.625223,24 c 3.38672,3.456836 11.97036,12.179257 13.303651,13.635371 1.180607,1.289166 1.474246,3.096343 0.429884,4.498057 -0.573743,0.769825 -1.363273,1.706838 -2.440882,2.784448 -1.07761,1.077609 -2.014623,1.867139 -2.784448,2.440882 z"
     clip-rule="evenodd"
     id="path132"
     sodipodi:nodetypes="cccccscccccscccccscccccsc"
     style="stroke-width:1.70964;fill:#a40000;fill-opacity:1" />
</svg>
