<?xml version="1.0" encoding="UTF-8" standalone="no"?>
<svg
   fill="none"
   viewBox="0 0 48 48"
   height="256"
   width="256"
   version="1.1"
   id="svg6"
   sodipodi:docname="close_all_tabs.svg"
   inkscape:version="1.2.1 (9c6d41e410, 2022-07-14)"
   xmlns:inkscape="http://www.inkscape.org/namespaces/inkscape"
   xmlns:sodipodi="http://sodipodi.sourceforge.net/DTD/sodipodi-0.dtd"
   xmlns="http://www.w3.org/2000/svg"
   xmlns:svg="http://www.w3.org/2000/svg">
  <defs
     id="defs10" />
  <sodipodi:namedview
     id="namedview8"
     pagecolor="#ffffff"
     bordercolor="#666666"
     borderopacity="1.0"
     inkscape:showpageshadow="2"
     inkscape:pageopacity="0.0"
     inkscape:pagecheckerboard="true"
     inkscape:deskcolor="#d1d1d1"
     showgrid="true"
     inkscape:zoom="1.6191406"
     inkscape:cx="116.72859"
     inkscape:cy="130.00724"
     inkscape:current-layer="svg6"
     showguides="false"
     inkscape:window-width="1920"
     inkscape:window-height="730"
     inkscape:window-x="-6"
     inkscape:window-y="-6"
     inkscape:window-maximized="1">
    <inkscape:grid
       type="xygrid"
       id="grid239"
       units="px"
       spacingx="1.5"
       spacingy="1.5" />
  </sodipodi:namedview>
  <path
     id="path27376"
     style="fill:#555753;fill-opacity:1;stroke:none;stroke-width:0.1875;stroke-linecap:round;stroke-linejoin:round;stroke-opacity:1"
     d="m 36.342041,8.048584 c 1.124997,0 2.061402,0.740216 2.708862,1.668091 0.647462,0.927877 1.044399,2.074167 1.067139,3.121948 v 0.0048 13.449463 h 3.740112 c 0.563566,0 1.016602,0.455352 1.016602,1.019165 v 6.575317 c 0,0.563807 -0.453025,1.016968 -1.016602,1.016968 H 1.862915 c -0.563571,0 -0.9880371,-0.486098 -0.9880371,-1.016968 v -6.575317 c 0,-0.530867 0.4244592,-1.019165 0.9880371,-1.019165 H 4.6746826 V 11.943604 c 0,-2.116387 1.717316,-3.866456 3.8210449,-3.866456 z"
     sodipodi:nodetypes="cscccsssssssscscc" />
  <path
     id="rect27244"
     style="fill:#888a85;fill-opacity:1;stroke:none;stroke-width:0.1875;stroke-linecap:round;stroke-linejoin:round;stroke-opacity:1"
     d="m 38.592041,11.798584 c 1.124997,0 2.061402,0.740216 2.708862,1.668091 0.647462,0.927877 1.044399,2.074167 1.067139,3.121948 v 0.0048 13.449463 h 3.740112 c 0.563566,0 1.016602,0.455352 1.016602,1.019165 v 6.575317 c 0,0.563807 -0.453025,1.016968 -1.016602,1.016968 H 4.112915 c -0.563571,0 -0.9880371,-0.486098 -0.9880371,-1.016968 v -6.575317 c 0,-0.530867 0.4244592,-1.019165 0.9880371,-1.019165 H 6.9246826 V 15.693604 c 0,-2.116387 1.717316,-3.866456 3.8210444,-3.866456 z"
     sodipodi:nodetypes="cscccsssssssscscc" />
  <path
     fill="#a40000"
     fill-rule="evenodd"
     d="m 44.42085,26.215981 c -0.44802,0.333801 -1.025634,0.239948 -1.437681,-0.1374 -0.465406,-0.426151 -3.253286,-3.169673 -4.358169,-4.252145 -1.104882,1.082472 -3.892762,3.825994 -4.358168,4.252145 -0.412047,0.377348 -0.989661,0.471201 -1.437681,0.1374 C 32.583098,26.0326 32.283608,25.780248 31.93918,25.43582 31.594752,25.091392 31.3424,24.791902 31.159019,24.545849 c -0.333802,-0.44802 -0.239948,-1.025634 0.1374,-1.437681 0.426151,-0.465406 3.169673,-3.253286 4.252145,-4.358169 -1.082472,-1.104882 -3.825994,-3.892762 -4.252145,-4.358169 -0.377348,-0.412046 -0.471202,-0.98966 -0.1374,-1.437679 0.183381,-0.246053 0.435733,-0.545543 0.780161,-0.889971 0.344428,-0.344428 0.643918,-0.59678 0.889971,-0.780161 0.44802,-0.333802 1.025634,-0.239948 1.437681,0.1374 0.465406,0.42615 3.253286,3.169673 4.358168,4.252144 1.104883,-1.082471 3.892763,-3.825994 4.358169,-4.252144 0.412047,-0.377348 0.989661,-0.471202 1.437681,-0.1374 0.246053,0.183381 0.545543,0.435733 0.889971,0.780161 0.344428,0.344428 0.59678,0.643918 0.780161,0.889971 0.333801,0.448019 0.239948,1.025633 -0.1374,1.437679 -0.426151,0.465407 -3.169673,3.253287 -4.252145,4.358169 1.082472,1.104883 3.825994,3.892763 4.252145,4.358169 0.377348,0.412047 0.471201,0.989661 0.1374,1.437681 -0.183381,0.246053 -0.435733,0.545543 -0.780161,0.889971 -0.344428,0.344428 -0.643918,0.59678 -0.889971,0.780161 z"
     clip-rule="evenodd"
     id="path132"
     sodipodi:nodetypes="cccccscccccscccccscccccsc"
     style="stroke-width:0.546439;fill:#a40000;fill-opacity:1" />
</svg>
