<?xml version="1.0" encoding="UTF-8" standalone="no"?>
<svg
   fill="none"
   viewBox="0 0 48 48"
   height="256"
   width="256"
   version="1.1"
   id="svg6"
   sodipodi:docname="close_tab.svg"
   inkscape:version="1.2.1 (9c6d41e410, 2022-07-14)"
   xmlns:inkscape="http://www.inkscape.org/namespaces/inkscape"
   xmlns:sodipodi="http://sodipodi.sourceforge.net/DTD/sodipodi-0.dtd"
   xmlns="http://www.w3.org/2000/svg"
   xmlns:svg="http://www.w3.org/2000/svg">
  <defs
     id="defs10" />
  <sodipodi:namedview
     id="namedview8"
     pagecolor="#ffffff"
     bordercolor="#666666"
     borderopacity="1.0"
     inkscape:showpageshadow="2"
     inkscape:pageopacity="0.0"
     inkscape:pagecheckerboard="true"
     inkscape:deskcolor="#d1d1d1"
     showgrid="true"
     inkscape:zoom="0.8095703"
     inkscape:cx="-35.821472"
     inkscape:cy="90.788904"
     inkscape:current-layer="svg6"
     showguides="false"
     inkscape:window-width="1920"
     inkscape:window-height="730"
     inkscape:window-x="-6"
     inkscape:window-y="-6"
     inkscape:window-maximized="1">
    <inkscape:grid
       type="xygrid"
       id="grid239"
       units="px"
       spacingx="1.5"
       spacingy="1.5" />
  </sodipodi:namedview>
  <path
     id="rect27244"
     style="fill:#888a85;fill-opacity:1;stroke:none;stroke-width:0.1875;stroke-linecap:round;stroke-linejoin:round;stroke-opacity:1"
     d="m 37.467041,10.673584 c 1.124997,0 2.061402,0.740216 2.708862,1.668091 0.647462,0.927877 1.044399,2.074167 1.067139,3.121948 v 0.0048 13.449463 h 3.740112 c 0.563566,0 1.016602,0.455352 1.016602,1.019165 v 6.575317 c 0,0.563807 -0.453025,1.016968 -1.016602,1.016968 H 2.987915 c -0.563571,0 -0.9880371,-0.486098 -0.9880371,-1.016968 v -6.575317 c 0,-0.530867 0.4244592,-1.019165 0.9880371,-1.019165 H 5.7996826 V 14.568604 c 0,-2.116387 1.717316,-3.866456 3.8210449,-3.866456 z"
     sodipodi:nodetypes="cscccsssssssscscc" />
  <path
     fill="#a40000"
     fill-rule="evenodd"
     d="m 40.29585,22.465981 c -0.44802,0.333801 -1.025634,0.239948 -1.437681,-0.1374 C 38.392763,21.90243 35.604883,19.158908 34.5,18.076436 c -1.104882,1.082472 -3.892762,3.825994 -4.358168,4.252145 -0.412047,0.377348 -0.989661,0.471201 -1.437681,0.1374 C 28.458098,22.2826 28.158608,22.030248 27.81418,21.68582 27.469752,21.341392 27.2174,21.041902 27.034019,20.795849 c -0.333802,-0.44802 -0.239948,-1.025634 0.1374,-1.437681 0.426151,-0.465406 3.169673,-3.253286 4.252145,-4.358169 C 30.341092,13.895117 27.59757,11.107237 27.171419,10.64183 26.794071,10.229784 26.700217,9.65217 27.034019,9.2041512 27.2174,8.958098 27.469752,8.6586076 27.81418,8.3141796 28.158608,7.9697515 28.458098,7.7174 28.704151,7.5340193 29.152171,7.2002174 29.729785,7.2940712 30.141832,7.6714195 30.607238,8.0975694 33.395118,10.841092 34.5,11.923563 35.604883,10.841092 38.392763,8.0975694 38.858169,7.6714195 39.270216,7.2940712 39.84783,7.2002174 40.29585,7.5340193 c 0.246053,0.1833807 0.545543,0.4357322 0.889971,0.7801603 0.344428,0.344428 0.59678,0.6439184 0.780161,0.8899716 0.333801,0.4480188 0.239948,1.0256328 -0.1374,1.4376788 -0.426151,0.465407 -3.169673,3.253287 -4.252145,4.358169 1.082472,1.104883 3.825994,3.892763 4.252145,4.358169 0.377348,0.412047 0.471201,0.989661 0.1374,1.437681 -0.183381,0.246053 -0.435733,0.545543 -0.780161,0.889971 -0.344428,0.344428 -0.643918,0.59678 -0.889971,0.780161 z"
     clip-rule="evenodd"
     id="path132"
     sodipodi:nodetypes="cccccscccccscccccscccccsc"
     style="stroke-width:0.546439;fill:#a40000;fill-opacity:1" />
</svg>
