<?xml version="1.0" encoding="UTF-8" standalone="no"?>
<svg
   fill="none"
   viewBox="0 0 48 48"
   height="256"
   width="256"
   version="1.1"
   id="svg5848"
   sodipodi:docname="type.svg"
   inkscape:version="1.2.1 (9c6d41e410, 2022-07-14)"
   xmlns:inkscape="http://www.inkscape.org/namespaces/inkscape"
   xmlns:sodipodi="http://sodipodi.sourceforge.net/DTD/sodipodi-0.dtd"
   xmlns="http://www.w3.org/2000/svg"
   xmlns:svg="http://www.w3.org/2000/svg">
  <defs
     id="defs5852" />
  <sodipodi:namedview
     id="namedview5850"
     pagecolor="#ffffff"
     bordercolor="#666666"
     borderopacity="1.0"
     inkscape:showpageshadow="2"
     inkscape:pageopacity="0.0"
     inkscape:pagecheckerboard="0"
     inkscape:deskcolor="#d1d1d1"
     showgrid="false"
     inkscape:zoom="1.0722656"
     inkscape:cx="-100.72131"
     inkscape:cy="113.31148"
     inkscape:current-layer="svg5848"
     inkscape:window-width="1920"
     inkscape:window-height="730"
     inkscape:window-x="-6"
     inkscape:window-y="-6"
     inkscape:window-maximized="1" />
  <path
     fill="#edf1e9"
     fill-rule="evenodd"
     d="m 1.31862,24.999453 c 4.5470366,5.41213 9.259743,9.836497 11.381668,11.753104 0.755296,0.68221 1.668979,1.11544 2.658164,1.244911 3.701284,0.484424 13.892746,1.489959 26.549816,-9.05e-4 2.078914,-0.244858 3.725489,-1.762945 3.992551,-3.938931 0.276912,-2.255884 0.571571,-5.823081 0.713547,-11.299079 0.165055,-6.3699 -0.270845,-10.161195 -0.711935,-12.30981 C 45.565779,8.8090335 44.232459,7.7849308 42.649668,7.5443016 29.627899,5.5646162 18.95392,6.6467715 15.178281,7.1638075 14.211142,7.2963196 13.317093,7.7236948 12.576975,8.3898604 10.48351,10.274229 5.8137533,14.645634 1.3151746,20.010326 c -1.19880169,1.429622 -1.19665081,3.560707 0.00344,4.989127 z m 8.788459,-4.617769 c -1.1171578,-1.171605 -2.9283159,-1.171605 -4.0454728,0 -1.1171234,1.17157 -1.1171574,3.071036 -2e-7,4.242641 1.1170898,1.171535 2.9283487,1.171569 4.045472,-10e-7 1.117158,-1.171604 1.11709,-3.071105 1e-6,-4.24264 z"
     clip-rule="evenodd"
     id="path5846"
     style="stroke-width:0.976487;fill:#edf1e9;fill-opacity:1" />
  <path
     fill="#606668"
     fill-rule="evenodd"
     d="m 19.50064,14.524337 c -1.3068,0.0655 -2.1837,1.0885 -2.1837,2.3969 v 0.9567 c 0,1.2922 0.8588,2.3019 2.1493,2.3684 1.333,0.0686 3.4649,0.1282 6.8507,0.1282 3.3858,0 5.5177,-0.0596 6.8507,-0.1282 1.2905,-0.0665 2.1493,-1.0762 2.1493,-2.3684 v -1.0233 c 0,-1.2761 -0.8414,-2.2729 -2.1158,-2.3405 -1.3307,-0.0705 -3.47,-0.13 -6.8842,-0.1231 -3.3568,0.0068 -5.4811,0.0664 -6.8163,0.1333 z m -0.1499,9.9438 c -1.2351,0.0728 -2.0338,1.0547 -2.0338,2.2919 v 1.229 c 0,1.2372 0.7987,2.219 2.0338,2.2919 0.8967,0.0529 2.1701,0.0936 3.9662,0.0936 1.7961,0 3.0695,-0.0407 3.9662,-0.0936 1.2351,-0.0729 2.0338,-1.0547 2.0338,-2.292 v -1.2289 c 0,-1.2372 -0.7987,-2.2191 -2.0338,-2.2919 -0.8967,-0.053 -2.1701,-0.0936 -3.9662,-0.0936 -1.7961,0 -3.0695,0.0406 -3.9662,0.0936 z"
     clip-rule="evenodd"
     id="path6098"
     style="fill:#606668;fill-opacity:1" />
</svg>
