<?xml version="1.0" encoding="UTF-8" standalone="no"?>
<svg
   fill="none"
   viewBox="0 0 48 48"
   height="256"
   width="256"
   version="1.1"
   id="svg4"
   sodipodi:docname="bookmarks_goto.svg"
   inkscape:version="1.2.1 (9c6d41e410, 2022-07-14)"
   xmlns:inkscape="http://www.inkscape.org/namespaces/inkscape"
   xmlns:sodipodi="http://sodipodi.sourceforge.net/DTD/sodipodi-0.dtd"
   xmlns="http://www.w3.org/2000/svg"
   xmlns:svg="http://www.w3.org/2000/svg">
  <defs
     id="defs8" />
  <sodipodi:namedview
     id="namedview6"
     pagecolor="#ffffff"
     bordercolor="#666666"
     borderopacity="1.0"
     inkscape:showpageshadow="2"
     inkscape:pageopacity="0.0"
     inkscape:pagecheckerboard="0"
     inkscape:deskcolor="#d1d1d1"
     showgrid="false"
     inkscape:zoom="0.7582063"
     inkscape:cx="40.88597"
     inkscape:cy="107.49053"
     inkscape:current-layer="svg4"
     inkscape:window-width="1920"
     inkscape:window-height="730"
     inkscape:window-x="-6"
     inkscape:window-y="-6"
     inkscape:window-maximized="1" />
  <path
     fill="#4e9a06"
     d="M2.69017 7.22304C2.86924 5.30948 4.09866 3.74747 5.97968 3.35309C8.92921 2.73469 14.4442 2 24 2C33.5558 2 39.0708 2.73469 42.0203 3.35309C43.9013 3.74747 45.1308 5.30948 45.3098 7.22304C45.6133 10.4663 46 16.4842 46 26.0952C46 34.7566 45.8185 40.0027 45.6066 43.176C45.4169 46.0172 43.2213 46.9141 40.809 45.401L27.1883 36.8571C25.2387 35.6341 22.7613 35.6341 20.8117 36.8571L7.19098 45.401C4.77871 46.9141 2.58312 46.0172 2.39339 43.176C2.18149 40.0027 2 34.7566 2 26.0952C2 16.4842 2.38666 10.4663 2.69017 7.22304Z"
     id="path2"
     style="fill:#4e9a06;fill-opacity:1" />
  <path
     id="rect498"
     style="fill:#2e3436;fill-opacity:1;stroke:none;stroke-width:1.89119;stroke-linejoin:round"
     d="m 13.130522,12.677964 c 0.427399,-0.0123 0.888657,0.124484 1.333777,0.43689 0.976751,0.685498 2.212121,1.641217 3.704766,2.960815 2.183219,1.930096 3.4826,3.55507 4.232689,4.686768 0.709291,1.070098 0.70892,2.390229 -3.74e-4,3.460327 -0.750188,1.131598 -2.0493,2.756105 -4.232315,4.686401 -1.493052,1.320198 -2.728659,2.276316 -3.705512,2.961914 -1.424178,0.999498 -3.013893,0.198352 -3.128039,-1.517944 -0.06592,-0.993098 -0.125642,-2.278312 -0.163182,-3.930908 C 7.50318,26.337027 3.701022,26.1928 2.065489,26.0952 1.085482,26.0367 0.246954,25.468735 0.11475,24.512437 0.048073,24.030137 0,23.411377 0,22.630479 0,21.862779 0.04646,21.22653 0.111396,20.712632 0.24827,19.629234 1.19531,18.940218 2.303929,18.875718 c 1.666155,-0.097 5.371793,-0.231544 8.868403,-0.312744 0.03754,-1.652098 0.09716,-2.937278 0.163182,-3.930177 0.07841,-1.180228 0.854733,-1.927778 1.795008,-1.954833 z"
     sodipodi:nodetypes="scsccsccccssccccs" />
</svg>
