<?xml version="1.0" encoding="UTF-8" standalone="no"?>
<svg
   fill="none"
   viewBox="0 0 48 48"
   height="256"
   width="256"
   version="1.1"
   id="svg6"
   sodipodi:docname="comment.svg"
   inkscape:version="1.2.1 (9c6d41e410, 2022-07-14)"
   xmlns:inkscape="http://www.inkscape.org/namespaces/inkscape"
   xmlns:sodipodi="http://sodipodi.sourceforge.net/DTD/sodipodi-0.dtd"
   xmlns="http://www.w3.org/2000/svg"
   xmlns:svg="http://www.w3.org/2000/svg">
  <defs
     id="defs10" />
  <sodipodi:namedview
     id="namedview8"
     pagecolor="#ffffff"
     bordercolor="#666666"
     borderopacity="1.0"
     inkscape:showpageshadow="2"
     inkscape:pageopacity="0.0"
     inkscape:pagecheckerboard="true"
     inkscape:deskcolor="#d1d1d1"
     showgrid="true"
     inkscape:zoom="1.6191406"
     inkscape:cx="103.75875"
     inkscape:cy="169.53438"
     inkscape:current-layer="svg6"
     showguides="false"
     inkscape:window-width="1920"
     inkscape:window-height="730"
     inkscape:window-x="-6"
     inkscape:window-y="-6"
     inkscape:window-maximized="1">
    <inkscape:grid
       type="xygrid"
       id="grid239"
       units="px"
       spacingx="1.5"
       spacingy="1.5" />
  </sodipodi:namedview>
  <path
     id="rect470"
     style="fill:#2e3436;fill-opacity:1;stroke:none;stroke-width:1.875;stroke-linecap:round;stroke-linejoin:round"
     d="m 22.582814,3.5854549 c -0.4879,0.1911598 -0.855158,0.6521573 -1.100133,1.1650337 -1.720763,3.6025626 -5.651695,11.7522944 -8.460659,17.7763044 -2.809093,6.023949 -6.5251336,14.273323 -8.1788146,17.90716 -0.31379,0.689823 -0.417493,1.486676 0.0827,2.056034 0.371266,0.422713 0.984111,0.924987 1.992142,1.394962 1.007972,0.470102 1.7866663,0.616713 2.3491273,0.629406 0.7576743,0.0172 1.3014403,-0.574452 1.6281763,-1.258239 1.720715,-3.602577 5.651477,-11.751825 8.46044,-17.775835 2.809092,-6.02395 6.525394,-14.273766 8.179033,-17.9076297 C 27.848724,6.8828762 27.951901,6.0861182 27.451782,5.5167428 27.080501,5.0940477 26.468008,4.5916983 25.459984,4.1216568 24.451966,3.6516025 23.673441,3.5053087 23.110982,3.4925944 c -0.189409,-0.00428 -0.365535,0.02914 -0.528168,0.09286 z"
     sodipodi:nodetypes="sccccccccsscss" />
  <path
     id="path1461"
     style="fill:#2e3436;fill-opacity:1;stroke:none;stroke-width:1.875;stroke-linecap:round;stroke-linejoin:round"
     d="m 37.582814,3.5854549 c -0.4879,0.1911598 -0.855158,0.6521573 -1.100133,1.1650337 -1.720763,3.6025626 -5.651695,11.7522944 -8.460659,17.7763044 -2.809093,6.023949 -6.525133,14.273323 -8.178814,17.90716 -0.31379,0.689823 -0.417493,1.486676 0.0827,2.056034 0.371266,0.422713 0.984111,0.924987 1.992142,1.394962 1.007972,0.470102 1.786666,0.616713 2.349127,0.629406 0.757674,0.0172 1.30144,-0.574452 1.628176,-1.258239 1.720715,-3.602577 5.651477,-11.751825 8.46044,-17.775835 2.809092,-6.02395 6.525394,-14.273766 8.179033,-17.9076297 C 42.848724,6.8828762 42.951901,6.0861182 42.451782,5.5167428 42.080501,5.0940477 41.468008,4.5916983 40.459984,4.1216568 39.451966,3.6516025 38.673441,3.5053087 38.110982,3.4925944 c -0.189409,-0.00428 -0.365535,0.02914 -0.528168,0.09286 z"
     sodipodi:nodetypes="sccccccccsscss" />
</svg>
