<?xml version="1.0" encoding="UTF-8" standalone="no"?>
<svg
   fill="none"
   viewBox="0 0 48 48"
   height="256"
   width="256"
   version="1.1"
   id="svg10"
   sodipodi:docname="line_paste.svg"
   inkscape:version="1.2.1 (9c6d41e410, 2022-07-14)"
   xmlns:inkscape="http://www.inkscape.org/namespaces/inkscape"
   xmlns:sodipodi="http://sodipodi.sourceforge.net/DTD/sodipodi-0.dtd"
   xmlns="http://www.w3.org/2000/svg"
   xmlns:svg="http://www.w3.org/2000/svg">
  <defs
     id="defs14" />
  <sodipodi:namedview
     id="namedview12"
     pagecolor="#ffffff"
     bordercolor="#111111"
     borderopacity="1"
     inkscape:showpageshadow="0"
     inkscape:pageopacity="0"
     inkscape:pagecheckerboard="1"
     inkscape:deskcolor="#d1d1d1"
     showgrid="false"
     inkscape:zoom="2.1445312"
     inkscape:cx="76.007286"
     inkscape:cy="128.4663"
     inkscape:window-width="1920"
     inkscape:window-height="730"
     inkscape:window-x="-6"
     inkscape:window-y="-6"
     inkscape:window-maximized="1"
     inkscape:current-layer="svg10" />
  <path
     fill="#8f5902"
     d="M35.5028 4.51229C37.6748 4.72337 39.2801 6.32382 39.4851 8.49643C39.74 11.1974 40 15.7336 40 23C40 30.2664 39.74 34.8026 39.4851 37.5036C39.2801 39.6762 37.6748 41.2766 35.5028 41.4877C32.8887 41.7417 28.6065 42 22 42C15.3935 42 11.1113 41.7417 8.49723 41.4877C6.3252 41.2766 4.7199 39.6762 4.51489 37.5036C4.26002 34.8026 4 30.2664 4 23C4 15.7336 4.26002 11.1974 4.51489 8.49643C4.7199 6.32382 6.3252 4.72337 8.49723 4.51229C11.1113 4.25826 15.3935 4 22 4C28.6065 4 32.8887 4.25826 35.5028 4.51229Z"
     id="path2"
     style="fill:#8f5902;fill-opacity:1" />
  <path
     fill="#d3d7cf"
     d="M39.5877 16.3096C41.7787 16.4787 43.4306 18.0477 43.626 20.2365C43.8217 22.4278 44 25.8404 44 31C44 36.1596 43.8217 39.5722 43.626 41.7635C43.4306 43.9523 41.7787 45.5213 39.5877 45.6904C37.4971 45.8518 34.3839 46 30.0001 46C25.6162 46 22.5029 45.8518 20.4123 45.6904C18.2213 45.5213 16.5694 43.9523 16.374 41.7635C16.1783 39.5721 16 36.1596 16 31C16 25.8404 16.1783 22.4279 16.374 20.2365C16.5694 18.0477 18.2213 16.4787 20.4123 16.3096C22.503 16.1482 25.6162 16 30.0001 16C34.3839 16 37.4971 16.1482 39.5877 16.3096Z"
     id="path4"
     style="fill:#d3d7cf;fill-opacity:1" />
  <path
     fill="#d3d7cf"
     d="M29.1 2.30921C29.9431 2.39937 30.5769 3.06262 30.5754 3.91059C30.5733 5.08383 30.4277 6.85495 29.7548 8.70117C29.5666 9.21782 29.133 9.58816 28.5891 9.66924C27.616 9.8143 25.6562 10 21.9996 10C18.343 10 16.3831 9.8143 15.4101 9.66924C14.8662 9.58816 14.4326 9.21782 14.2443 8.70117C13.5715 6.85493 13.4259 5.0838 13.4238 3.91056C13.4223 3.06261 14.0561 2.39938 14.8993 2.30922C16.22 2.16799 18.5219 2 21.9997 2C25.4774 2 27.7792 2.16798 29.1 2.30921Z"
     id="path6"
     style="fill:#d3d7cf;fill-opacity:1" />
  <path
     fill="#2e3436"
     fill-rule="evenodd"
     d="M22.722 23.1261C21.7769 23.1743 21.0594 23.7885 21.0163 24.7339C21.0061 24.9576 21 25.2119 21 25.5C21 25.7881 21.0061 26.0424 21.0163 26.2661C21.0594 27.2115 21.7769 27.8257 22.722 27.8739C23.9555 27.9368 26.1525 28 30 28C33.8475 28 36.0445 27.9368 37.278 27.8739C38.2231 27.8257 38.9406 27.2115 38.9837 26.2661C38.9939 26.0424 39 25.7881 39 25.5C39 25.2119 38.9939 24.9576 38.9837 24.7339C38.9406 23.7885 38.2231 23.1743 37.278 23.1261C36.0445 23.0632 33.8475 23 30 23C26.1525 23 23.9555 23.0632 22.722 23.1261ZM22.722 31.1261C21.7769 31.1743 21.0594 31.7885 21.0163 32.7339C21.0061 32.9576 21 33.2119 21 33.5C21 33.7881 21.0061 34.0424 21.0163 34.2661C21.0594 35.2115 21.7769 35.8257 22.722 35.8739C23.9555 35.9368 26.1525 36 30 36C33.8475 36 36.0445 35.9368 37.278 35.8739C38.2231 35.8257 38.9406 35.2115 38.9837 34.2661C38.9939 34.0424 39 33.7881 39 33.5C39 33.2119 38.9939 32.9576 38.9837 32.7339C38.9406 31.7885 38.2231 31.1743 37.278 31.1261C36.0445 31.0632 33.8475 31 30 31C26.1525 31 23.9555 31.0632 22.722 31.1261Z"
     clip-rule="evenodd"
     id="path8"
     style="fill:#2e3436;fill-opacity:1" />
</svg>
