<?xml version="1.0" encoding="UTF-8" standalone="no"?>
<svg
   fill="none"
   viewBox="0 0 48 48"
   height="256"
   width="256"
   version="1.1"
   id="svg141"
   sodipodi:docname="new_file.svg"
   inkscape:version="1.2.1 (9c6d41e410, 2022-07-14)"
   xmlns:inkscape="http://www.inkscape.org/namespaces/inkscape"
   xmlns:sodipodi="http://sodipodi.sourceforge.net/DTD/sodipodi-0.dtd"
   xmlns="http://www.w3.org/2000/svg"
   xmlns:svg="http://www.w3.org/2000/svg">
  <defs
     id="defs145" />
  <sodipodi:namedview
     id="namedview143"
     pagecolor="#ffffff"
     bordercolor="#666666"
     borderopacity="1.0"
     inkscape:showpageshadow="2"
     inkscape:pageopacity="0.0"
     inkscape:pagecheckerboard="0"
     inkscape:deskcolor="#d1d1d1"
     showgrid="false"
     inkscape:zoom="1.5164126"
     inkscape:cx="27.037496"
     inkscape:cy="101.22575"
     inkscape:current-layer="svg141"
     inkscape:window-width="1920"
     inkscape:window-height="730"
     inkscape:window-x="-6"
     inkscape:window-y="-6"
     inkscape:window-maximized="1" />
  <path
     fill="#d3d7cf"
     d="M30.049 2.06996C30.049 2.06996 32.7693 3.1 37.7693 8.05C42.751 12.9819 43.7957 15.6797 43.8033 15.6994C43.9247 18.0495 44 20.7979 44 24C44 33.5541 43.3294 39.0688 42.7649 42.0187C42.4022 43.9138 40.9085 45.2127 38.9715 45.4197C36.3568 45.699 31.7428 46 24 46C16.2572 46 11.6432 45.699 9.02852 45.4197C7.09148 45.2127 5.59781 43.9138 5.23513 42.0187C4.67056 39.0688 4 33.5541 4 24C4 14.4459 4.67056 8.93121 5.23513 5.98128C5.59782 4.08618 7.09148 2.78727 9.02852 2.58034C11.6432 2.30102 16.2572 2 24 2C26.2774 2 28.2842 2.02609 30.049 2.06996Z"
     id="path135"
     style="fill:#d3d7cf;fill-opacity:1" />
  <path
     fill="#888a85"
     d="M43.8024 15.6998C40.6029 16.4965 36.8253 16.5494 33.5625 15.5626C32.1831 15.1454 31.1075 14.0816 30.642 12.7301C29.4822 9.36336 29.1957 5.24234 30.0481 2.07031C30.0481 2.07031 32.7684 3.10035 37.7684 8.05035C42.7684 13.0004 43.8024 15.6998 43.8024 15.6998Z"
     id="path137"
     style="fill:#888a85;fill-opacity:1" />
  <path
     fill="#2e3436"
     fill-rule="evenodd"
     d="M 15.8087,19.6495 C 14.5019,19.715 13.625,20.738 13.625,22.0464 v 0.9567 c 0,1.2922 0.8588,2.3019 2.1493,2.3684 1.333,0.0686 3.4649,0.1282 6.8507,0.1282 3.3858,0 5.5177,-0.0596 6.8507,-0.1282 1.2905,-0.0665 2.1493,-1.0762 2.1493,-2.3684 v -1.0233 c 0,-1.2761 -0.8414,-2.2729 -2.1158,-2.3405 -1.3307,-0.0705 -3.47,-0.13 -6.8842,-0.1231 -3.3568,0.0068 -5.4811,0.0664 -6.8163,0.1333 z m -0.1499,9.9438 c -1.2351,0.0728 -2.0338,1.0547 -2.0338,2.2919 v 1.229 c 0,1.2372 0.7987,2.219 2.0338,2.2919 0.8967,0.0529 2.1701,0.0936 3.9662,0.0936 1.7961,0 3.0695,-0.0407 3.9662,-0.0936 1.2351,-0.0729 2.0338,-1.0547 2.0338,-2.292 v -1.2289 c 0,-1.2372 -0.7987,-2.2191 -2.0338,-2.2919 -0.8967,-0.053 -2.1701,-0.0936 -3.9662,-0.0936 -1.7961,0 -3.0695,0.0406 -3.9662,0.0936 z"
     clip-rule="evenodd"
     id="path139"
     style="fill:#2e3436;fill-opacity:1" />
  <path
     fill="#4e9a06"
     fill-rule="evenodd"
     d="M 35.892174,47.878504 C 35.02717,47.752135 34.49194,47.009226 34.453551,46.135843 34.410117,45.14943 34.36104,43.563832 34.336245,41.143755 31.916167,41.11896 30.33057,41.069883 29.344156,41.026449 28.470774,40.988059 27.727864,40.452829 27.601495,39.587826 27.532155,39.112702 27.48,38.502147 27.48,37.74 c 0,-0.762147 0.05215,-1.372703 0.121495,-1.847826 0.126369,-0.865003 0.869279,-1.400234 1.742661,-1.438623 0.986414,-0.04343 2.572011,-0.09251 4.992089,-0.117306 0.0248,-2.420078 0.07387,-4.005675 0.117306,-4.992088 0.03839,-0.873383 0.57362,-1.616292 1.438623,-1.742661 C 36.367297,27.532156 36.977853,27.48 37.74,27.48 c 0.762147,0 1.372702,0.05215 1.847826,0.121495 0.865003,0.126369 1.400233,0.869279 1.438623,1.742661 0.04343,0.986414 0.09251,2.572011 0.117306,4.992089 2.420077,0.0248 4.005675,0.07387 4.992088,0.117306 0.873383,0.03839 1.616292,0.57362 1.742661,1.438623 C 47.947845,36.367297 48,36.977853 48,37.74 c 0,0.762147 -0.05215,1.372702 -0.121496,1.847826 -0.126369,0.865003 -0.869278,1.400233 -1.742661,1.438623 -0.986413,0.04343 -2.572011,0.09251 -4.992088,0.117306 -0.02479,2.420077 -0.07387,4.005675 -0.117306,4.992088 -0.03839,0.873383 -0.57362,1.616292 -1.438623,1.742661 C 39.112702,47.947844 38.502147,48 37.74,48 36.977853,48 36.367297,47.94785 35.892174,47.878504 Z"
     clip-rule="evenodd"
     id="path4"
     style="stroke-width:0.855;fill:#4e9a06;fill-opacity:1" />
</svg>
