<?xml version="1.0" encoding="UTF-8" standalone="no"?>
<svg
   fill="none"
   viewBox="0 0 48 48"
   height="256"
   width="256"
   version="1.1"
   id="svg1987"
   sodipodi:docname="recent_files.svg"
   inkscape:version="1.2.1 (9c6d41e410, 2022-07-14)"
   xmlns:inkscape="http://www.inkscape.org/namespaces/inkscape"
   xmlns:sodipodi="http://sodipodi.sourceforge.net/DTD/sodipodi-0.dtd"
   xmlns="http://www.w3.org/2000/svg"
   xmlns:svg="http://www.w3.org/2000/svg">
  <defs
     id="defs1991" />
  <sodipodi:namedview
     id="namedview1989"
     pagecolor="#ffffff"
     bordercolor="#666666"
     borderopacity="1.0"
     inkscape:showpageshadow="2"
     inkscape:pageopacity="0.0"
     inkscape:pagecheckerboard="0"
     inkscape:deskcolor="#d1d1d1"
     showgrid="false"
     inkscape:zoom="1.5164126"
     inkscape:cx="106.17163"
     inkscape:cy="80.782763"
     inkscape:current-layer="svg1987"
     inkscape:window-width="1920"
     inkscape:window-height="730"
     inkscape:window-x="-6"
     inkscape:window-y="-6"
     inkscape:window-maximized="1" />
  <path
     fill="#888a85"
     fill-rule="evenodd"
     d="M5.41946 35.02C3.72562 34.6864 2.60075 33.3319 2.43764 31.6132C2.22492 29.3718 2 25.4717 2 19C2 12.5283 2.22492 8.6282 2.43765 6.38676C2.60076 4.66811 3.72563 3.31361 5.41947 2.98002C7.77335 2.51643 11.9726 2 19 2C26.0274 2 30.2266 2.51643 32.5805 2.98002C34.2744 3.31361 35.3992 4.66812 35.5624 6.38677C35.5937 6.7175 35.6254 7.08433 35.6566 7.49022C35.7248 8.37905 34.9909 9.11638 34.1 9.08505C32.5604 9.03091 30.8648 9 29 9C20.2432 9 15.219 9.68162 12.5538 10.249C10.8652 10.6085 9.73933 11.9678 9.56198 13.685C9.29904 16.2312 9 20.9061 9 29C9 30.7743 9.01437 32.3842 9.03958 33.8435C9.05523 34.7494 8.27548 35.4711 7.3782 35.3455C6.61678 35.2389 5.96801 35.128 5.41946 35.02Z"
     clip-rule="evenodd"
     id="path1981"
     style="fill:#888a85;fill-opacity:1" />
  <path
     fill="#d3d7cf"
     d="M35.5 12.0541C35.5 12.0541 37.577 12.85 41.327 16.675C45.0632 20.486 45.9943 22.4848 46 22.5C46 22.5 46 26.5256 46 29C46 36.3827 45.4971 40.6441 45.0737 42.9236C44.8016 44.3879 43.6814 45.3917 42.2286 45.5516C40.2676 45.7674 32.8071 46 27 46C21.1929 46 17.7324 45.7674 15.7714 45.5516C14.3186 45.3917 13.1984 44.3879 12.9263 42.9236C12.5029 40.6441 12 36.3827 12 29C12 21.6173 12.5029 17.3559 12.9263 15.0764C13.1984 13.612 14.3186 12.6083 15.7714 12.4484C17.7324 12.2326 21.1929 12 27 12C28.7081 12 34.1764 12.0202 35.5 12.0541Z"
     id="path1983"
     style="fill:#d3d7cf;fill-opacity:1" />
  <path
     id="rect342"
     style="fill:#2e3436;stroke:none;stroke-width:1.875;stroke-linejoin:round;fill-opacity:1"
     d="m 28.999878,24.141357 c 3.414197,-0.0069 5.553701,0.05291 6.884399,0.123414 1.274399,0.0676 2.115601,1.064355 2.115601,2.340454 v 1.023193 c 0,1.292199 -0.858793,2.301786 -2.149292,2.368286 -1.332999,0.0686 -3.464911,0.128174 -6.850708,0.128174 -3.385797,0 -5.517709,-0.05957 -6.850708,-0.128174 -1.290499,-0.0665 -2.149292,-1.076087 -2.149292,-2.368286 v -0.956543 c 0,-1.308399 0.876917,-2.331717 2.183716,-2.397217 1.335198,-0.0669 3.459487,-0.126501 6.816284,-0.133301 z m -3,9.983643 c 1.796098,0 3.069731,0.04075 3.966431,0.09375 1.235098,0.0728 2.033569,1.054549 2.033569,2.291748 v 1.229004 c 0,1.237299 -0.798471,2.218848 -2.033569,2.291748 -0.8967,0.0529 -2.170333,0.09375 -3.966431,0.09375 -1.796098,0 -3.069365,-0.04085 -3.966065,-0.09375 -1.235098,-0.0729 -2.033935,-1.054549 -2.033935,-2.291748 v -1.229004 c 0,-1.237199 0.798837,-2.218948 2.033935,-2.291748 0.8967,-0.053 2.169967,-0.09375 3.966065,-0.09375 z"
     sodipodi:nodetypes="ccsscscssccscsscscsscs" />
  <path
     fill="#888a85"
     d="M46.0008 22.5356C43.5306 23.1514 40.6141 23.1923 38.0951 22.4295C37.0301 22.107 36.1997 21.2846 35.8402 20.2399C34.9448 17.6374 34.8427 14.5018 35.5008 12.0498C35.5008 12.0498 37.4819 12.796 41.3422 16.6224C45.2025 20.4489 46.0008 22.5356 46.0008 22.5356Z"
     id="path1985"
     style="fill:#888a85;fill-opacity:1" />
</svg>
