<?xml version="1.0" encoding="UTF-8" standalone="no"?>
<svg
   fill="none"
   viewBox="0 0 48 48"
   height="256"
   width="256"
   version="1.1"
   id="svg4"
   sodipodi:docname="redo.svg"
   inkscape:version="1.2.1 (9c6d41e410, 2022-07-14)"
   xmlns:inkscape="http://www.inkscape.org/namespaces/inkscape"
   xmlns:sodipodi="http://sodipodi.sourceforge.net/DTD/sodipodi-0.dtd"
   xmlns="http://www.w3.org/2000/svg"
   xmlns:svg="http://www.w3.org/2000/svg">
  <defs
     id="defs8" />
  <sodipodi:namedview
     id="namedview6"
     pagecolor="#ffffff"
     bordercolor="#111111"
     borderopacity="1"
     inkscape:showpageshadow="0"
     inkscape:pageopacity="0"
     inkscape:pagecheckerboard="1"
     inkscape:deskcolor="#d1d1d1"
     showgrid="false"
     inkscape:zoom="2.1445312"
     inkscape:cx="76.007286"
     inkscape:cy="128.4663"
     inkscape:window-width="1920"
     inkscape:window-height="730"
     inkscape:window-x="-6"
     inkscape:window-y="-6"
     inkscape:window-maximized="1"
     inkscape:current-layer="svg4" />
  <path
     fill="#2e3436"
     fill-rule="evenodd"
     d="M36.5274 22.786C35.5212 23.4735 34.3546 22.9294 34.2504 21.7152C34.188 20.9886 34.1278 20.0516 34.082 18.8543C26.1529 18.5 19 18.5 19 18.5C14.0294 18.5 10.5 22.0294 10.5 27C10.5 31.9706 14.0294 36 19 36H34.3241C35.9958 36 37.6021 36.8626 37.8779 38.5115C37.9524 38.9566 38 39.4545 38 40C38 40.5455 37.9524 41.0434 37.8779 41.4885C37.6021 43.1373 35.9958 44 34.3241 44H18.5C9.66344 44 2 37.5 2 27C2 16.5 9.66344 9.49999 18.5 9.49999C18.5 9.49999 26.0606 9.49999 34.082 9.145C34.1278 7.9484 34.188 7.0118 34.2503 6.28542C34.3546 5.071 35.5215 4.52689 36.5278 5.21459C37.5516 5.91417 38.9978 6.97572 40.9176 8.54545C43.2927 10.4874 44.5805 11.9109 45.265 12.8158C45.8109 13.5376 45.8109 14.4623 45.2648 15.1841C44.5804 16.0889 43.2926 17.5124 40.9176 19.4545C38.9976 21.0248 37.5512 22.0864 36.5274 22.786Z"
     clip-rule="evenodd"
     id="path2"
     style="fill:#2e3436;fill-opacity:1" />
</svg>
