<?xml version="1.0" encoding="UTF-8" standalone="no"?>
<svg
   fill="none"
   viewBox="0 0 48 48"
   height="256"
   width="256"
   version="1.1"
   id="svg2270"
   sodipodi:docname="to_matching_brace.svg"
   inkscape:version="1.2.1 (9c6d41e410, 2022-07-14)"
   xmlns:inkscape="http://www.inkscape.org/namespaces/inkscape"
   xmlns:sodipodi="http://sodipodi.sourceforge.net/DTD/sodipodi-0.dtd"
   xmlns="http://www.w3.org/2000/svg"
   xmlns:svg="http://www.w3.org/2000/svg">
  <defs
     id="defs2274" />
  <sodipodi:namedview
     id="namedview2272"
     pagecolor="#ffffff"
     bordercolor="#666666"
     borderopacity="1.0"
     inkscape:showpageshadow="2"
     inkscape:pageopacity="0.0"
     inkscape:pagecheckerboard="0"
     inkscape:deskcolor="#d1d1d1"
     showgrid="false"
     inkscape:zoom="0.99999999"
     inkscape:cx="-101"
     inkscape:cy="55.500001"
     inkscape:current-layer="svg2270"
     inkscape:window-width="1920"
     inkscape:window-height="730"
     inkscape:window-x="-6"
     inkscape:window-y="-6"
     inkscape:window-maximized="1" />
  <g
     aria-label="{.}"
     id="text1466"
     style="font-size:42.5px;line-height:1.25;font-family:'Arial Rounded MT Bold';-inkscape-font-specification:'Arial Rounded MT Bold, Normal';word-spacing:0px;fill:#555753;stroke-width:0.1875;fill-opacity:1">
    <path
       d="m 8.3009614,24.010372 q 1.4733887,0.913086 2.3034666,2.054444 0.830078,1.120605 1.16211,2.884521 0.332031,1.743164 0.332031,4.482422 0,2.054443 0.08301,3.029785 0.103759,0.975342 0.373535,1.473389 0.290527,0.518799 0.684814,0.664062 0.394287,0.166016 1.348877,0.31128 0.788574,0.103759 1.307373,0.767822 0.518799,0.664062 0.518799,1.743164 0,2.510986 -3.050537,2.510986 -1.888428,0 -3.3825684,-0.788574 Q 8.508481,42.355099 7.6991548,40.902462 6.8898286,39.470577 6.8690767,37.602901 6.8068208,34.448605 6.744565,32.539425 6.6823091,30.630245 6.5577974,30.069942 6.2465181,28.679562 5.6239595,27.973995 5.0221528,27.268429 4.0260591,26.666622 3.0507173,26.044064 2.6356782,25.566769 q -0.415039,-0.498047 -0.415039,-1.556397 0,-1.535644 1.2036133,-2.303467 1.4941406,-0.933838 2.1166992,-1.577148 0.6433105,-0.664063 0.892334,-1.680908 0.2697753,-1.037598 0.3112793,-2.241211 0.041504,-1.224365 0.1245117,-5.852051 0.062256,-2.8637695 1.8054199,-4.5654297 1.7639164,-1.7224121 4.6899414,-1.7224121 3.050537,0 3.050537,2.4694824 0,1.1206055 -0.518799,1.763916 -0.498047,0.6433106 -1.307373,0.7470704 -1.203613,0.1660156 -1.680908,0.4980468 -0.477295,0.3320313 -0.622559,1.2866212 -0.145263,0.95459 -0.186767,3.693848 -0.0415,2.677002 -0.332031,4.399414 -0.269776,1.70166 -1.099854,2.905273 -0.8093261,1.203613 -2.3657226,2.178955 z"
       id="path1615"
       style="fill:#555753;fill-opacity:1" />
    <path
       d="m 39.698667,24.010372 q -1.120606,-0.705566 -1.826172,-1.473389 -0.705567,-0.767822 -1.16211,-1.867675 -0.456543,-1.099854 -0.64331,-2.593994 -0.186768,-1.514893 -0.186768,-3.548584 0,-1.971436 -0.08301,-3.009034 Q 35.714292,10.459347 35.465268,9.9820518 35.216245,9.5047569 34.759702,9.3387413 34.323911,9.1519737 33.410825,9.048214 32.643002,8.9444542 32.103452,8.3011436 31.584653,7.6578331 31.584653,6.5372276 q 0,-2.4694824 3.009033,-2.4694824 1.929932,0 3.382568,0.7885742 1.473389,0.7678223 2.303467,2.220459 0.85083,1.4318848 0.871582,3.2788086 0.124512,6.889648 0.290528,7.574463 0.332031,1.369629 0.975341,2.095947 0.643311,0.705567 1.556397,1.265869 0.913086,0.539551 1.348877,1.079102 0.456543,0.539551 0.456543,1.639404 0,1.556397 -1.182862,2.282715 -1.452636,0.892334 -2.116699,1.577148 -0.64331,0.664063 -0.913086,1.680909 -0.249023,0.996093 -0.311279,3.009033 -0.0415,2.012939 -0.10376,5.042724 -0.06226,2.86377 -1.846924,4.586182 -1.763916,1.743164 -4.710693,1.743164 -1.452637,0 -2.241211,-0.64331 -0.767822,-0.643311 -0.767822,-1.867676 0,-0.684815 0.249023,-1.265869 0.249024,-0.560303 0.643311,-0.871582 0.415039,-0.31128 0.933838,-0.373535 0.933838,-0.124512 1.390381,-0.31128 0.456543,-0.186767 0.684814,-0.705566 0.249023,-0.518799 0.311279,-1.535645 0.08301,-0.996093 0.08301,-2.926025 0.0415,-2.86377 0.332031,-4.482422 0.290528,-1.618652 1.099854,-2.780762 0.809326,-1.162109 2.386475,-2.158203 z"
       id="path1619"
       style="fill:#555753;fill-opacity:1" />
  </g>
  <path
     id="rect1359"
     style="fill:#2e3436;fill-opacity:1;stroke-width:1.875;stroke-linecap:round;stroke-linejoin:round"
     d="m 18.894259,19.015486 c 0.702471,0.05606 1.28187,0.575966 1.334201,1.387707 0.0317,0.491899 0.05877,1.082208 0.07617,1.788208 1.307399,-0.0258 1.50857,-0.04431 3.695068,-0.04431 2.186498,0 2.38767,0.01851 3.695069,0.04431 0.0174,-0.706 0.04484,-1.296309 0.07654,-1.788208 0.0776,-1.203699 1.313891,-1.7657 2.39209,-1.125 2.478797,1.472998 4.041124,2.845527 4.909423,3.729126 0.5693,0.579299 0.5693,1.426397 0,2.005737 -0.868299,0.883549 -2.43056,2.256534 -4.909057,3.729492 -1.078299,0.64078 -2.314856,0.07872 -2.392456,-1.125 -0.0287,-0.445879 -0.05401,-0.972648 -0.07141,-1.593017 -1.307999,0.02582 -1.510798,0.04468 -3.700196,0.04468 -2.189398,0 -2.392196,-0.01886 -3.700195,-0.04468 -0.0174,0.620409 -0.04234,1.147118 -0.07104,1.593017 -0.0776,1.203689 -1.314257,1.76572 -2.392456,1.125 -2.478798,-1.472978 -4.041125,-2.845556 -4.909424,-3.729126 -0.569199,-0.5793 -0.568933,-1.426438 3.66e-4,-2.005737 0.868299,-0.883599 2.43046,-2.256494 4.909058,-3.729492 0.256074,-0.152167 0.52114,-0.236519 0.777453,-0.260529 0.148823,-0.01272 0.195592,-0.0051 0.280796,-0.0022 z"
     sodipodi:nodetypes="cccsccccccccsccccccccc" />
</svg>
