<svg xmlns="http://www.w3.org/2000/svg" fill="none" viewBox="0 0 48 48" height="256" width="256"><path fill="#729fcf" fill-rule="evenodd" d="M24.3514 23.6112C24.1596 23.432 23.8629 23.4318 23.6709 23.6108C22.2297 24.9535 16.3662 30.4219 9.00789 37.3618C7.89336 38.413 6.35982 39.0339 5.00755 38.3138C4.41263 37.9971 3.7517 37.5339 3.09081 36.8566C2.24176 35.9865 1.7375 35.1164 1.43801 34.3898C0.971697 33.2586 1.36621 32.03 2.0956 31.0476C7.66346 23.548 15.7059 16.1228 20.3415 12.0916C22.4594 10.2499 25.5638 10.2495 27.6818 12.091C32.3183 16.1224 40.3605 23.5491 45.9105 31.0499C46.6361 32.0305 47.0282 33.2553 46.5644 34.3835C46.2652 35.1114 45.7605 35.9839 44.9091 36.8565C44.2486 37.5333 43.5882 37.9965 42.9936 38.3133C41.641 39.0343 40.1065 38.4134 38.9916 37.3615C31.6369 30.4228 25.7894 24.9548 24.3514 23.6112Z" clip-rule="evenodd"></path></svg>