<svg xmlns="http://www.w3.org/2000/svg" fill="none" viewBox="0 0 48 48" height="256" width="256"><path fill="#729fcf" fill-rule="evenodd" d="M24.3514 24.3888C24.1596 24.568 23.8629 24.5682 23.6709 24.3892C22.2297 23.0465 16.3662 17.5781 9.00789 10.6382C7.89336 9.58702 6.35982 8.96609 5.00755 9.68616C4.41263 10.0029 3.7517 10.4661 3.09081 11.1434C2.24176 12.0135 1.7375 12.8836 1.43801 13.6102C0.971697 14.7414 1.36621 15.97 2.0956 16.9524C7.66346 24.452 15.7059 31.8772 20.3415 35.9084C22.4594 37.7501 25.5638 37.7505 27.6818 35.909C32.3183 31.8776 40.3605 24.4509 45.9105 16.9501C46.6361 15.9695 47.0282 14.7447 46.5644 13.6165C46.2652 12.8886 45.7605 12.0161 44.9091 11.1435C44.2486 10.4667 43.5882 10.0035 42.9936 9.68665C41.641 8.96573 40.1065 9.58661 38.9916 10.6385C31.6369 17.5772 25.7894 23.0452 24.3514 24.3888Z" clip-rule="evenodd"></path></svg>