<svg xmlns="http://www.w3.org/2000/svg" fill="none" viewBox="0 0 48 48" height="256" width="256"><path fill="#729fcf" fill-rule="evenodd" d="M24.3888 24.3514C24.568 24.1597 24.5682 23.8629 24.3892 23.6709C23.0465 22.2297 17.5781 16.3662 10.6382 9.00789C9.58702 7.89336 8.96609 6.35982 9.68616 5.00755C10.0029 4.41263 10.4661 3.7517 11.1434 3.09081C12.0135 2.24176 12.8836 1.7375 13.6102 1.43801C14.7414 0.971697 15.97 1.36621 16.9524 2.0956C24.452 7.66346 31.8772 15.706 35.9084 20.3415C37.7501 22.4594 37.7505 25.5638 35.909 27.6818C31.8776 32.3184 24.4509 40.3605 16.9501 45.9105C15.9695 46.6361 14.7447 47.0282 13.6165 46.5644C12.8886 46.2652 12.0161 45.7605 11.1435 44.9091C10.4667 44.2486 10.0035 43.5882 9.68665 42.9936C8.96573 41.641 9.58661 40.1065 10.6385 38.9916C17.5772 31.6369 23.0452 25.7894 24.3888 24.3514Z" clip-rule="evenodd"></path></svg>