<svg xmlns="http://www.w3.org/2000/svg" fill="none" viewBox="0 0 48 48" height="256" width="256"><path fill="#729fcf" fill-rule="evenodd" d="M23.6112 24.3514C23.432 24.1597 23.4318 23.8629 23.6108 23.6709C24.9535 22.2297 30.4219 16.3662 37.3618 9.00789C38.413 7.89336 39.0339 6.35982 38.3138 5.00755C37.9971 4.41263 37.5339 3.7517 36.8566 3.09081C35.9865 2.24176 35.1164 1.7375 34.3898 1.43801C33.2586 0.971697 32.03 1.36621 31.0476 2.0956C23.548 7.66346 16.1228 15.706 12.0916 20.3415C10.2499 22.4594 10.2495 25.5638 12.091 27.6818C16.1224 32.3184 23.5491 40.3605 31.0499 45.9105C32.0305 46.6361 33.2553 47.0282 34.3835 46.5644C35.1114 46.2652 35.9839 45.7605 36.8565 44.9091C37.5333 44.2486 37.9965 43.5882 38.3133 42.9936C39.0343 41.641 38.4134 40.1065 37.3615 38.9916C30.4228 31.6369 24.9548 25.7894 23.6112 24.3514Z" clip-rule="evenodd"></path></svg>