<?xml version="1.0" encoding="UTF-8" standalone="no"?>
<svg
   fill="none"
   viewBox="0 0 48 48"
   height="256"
   width="256"
   version="1.1"
   id="svg1"
   sodipodi:docname="chevron_right.svg"
   inkscape:version="1.4 (86a8ad7, 2024-10-11)"
   xmlns:inkscape="http://www.inkscape.org/namespaces/inkscape"
   xmlns:sodipodi="http://sodipodi.sourceforge.net/DTD/sodipodi-0.dtd"
   xmlns="http://www.w3.org/2000/svg"
   xmlns:svg="http://www.w3.org/2000/svg">
  <defs
     id="defs1" />
  <sodipodi:namedview
     id="namedview1"
     pagecolor="#ffffff"
     bordercolor="#000000"
     borderopacity="0.25"
     inkscape:showpageshadow="2"
     inkscape:pageopacity="0.0"
     inkscape:pagecheckerboard="0"
     inkscape:deskcolor="#d1d1d1"
     inkscape:zoom="3.5272475"
     inkscape:cx="83.067604"
     inkscape:cy="129.98804"
     inkscape:window-width="3840"
     inkscape:window-height="1494"
     inkscape:window-x="-11"
     inkscape:window-y="-11"
     inkscape:window-maximized="1"
     inkscape:current-layer="svg1" />
  <path
     style="fill:#2e3436;fill-opacity:1;stroke-width:0.999997"
     d="m 15.688887,7.2565224 c 0.568035,0.2034525 1.914982,1.0481325 3.269531,2.0503448 0.464062,0.3433537 1.152247,0.8473188 1.529297,1.1199218 0.377051,0.272603 1.200209,0.899059 1.829241,1.392126 0.629033,0.493067 1.418909,1.110058 1.75528,1.371094 3.086169,2.394966 6.941944,6.062421 8.458866,8.045726 0.910803,1.190833 1.085194,1.626167 1.086442,2.712087 9e-4,0.786097 -0.03924,0.980898 -0.326031,1.582031 -0.810093,1.698026 -4.221947,5.194968 -8.37411,8.582951 -2.606743,2.126987 -6.746868,5.215684 -8.254895,6.158476 -1.407805,0.880135 -2.613903,0.817701 -3.709317,-0.192015 -0.687017,-0.633271 -0.855347,-1.259015 -1.054764,-3.920955 -0.26219,-3.499872 -0.323289,-6.008829 -0.314045,-12.896035 0.0086,-6.420629 0.105093,-9.298484 0.418527,-12.484578 0.208073,-2.1150709 0.573354,-2.8517479 1.679571,-3.3872584 0.649429,-0.3143835 1.368542,-0.3623805 2.006407,-0.1339162 z"
     id="path2" />
</svg>
