<?xml version="1.0" encoding="UTF-8" standalone="no"?>
<svg
   fill="none"
   viewBox="0 0 48 48"
   height="256"
   width="256"
   version="1.1"
   id="svg10"
   sodipodi:docname="certificate_upgrade.svg"
   inkscape:version="1.2.1 (9c6d41e410, 2022-07-14)"
   xmlns:inkscape="http://www.inkscape.org/namespaces/inkscape"
   xmlns:sodipodi="http://sodipodi.sourceforge.net/DTD/sodipodi-0.dtd"
   xmlns="http://www.w3.org/2000/svg"
   xmlns:svg="http://www.w3.org/2000/svg">
  <defs
     id="defs14" />
  <sodipodi:namedview
     id="namedview12"
     pagecolor="#ffffff"
     bordercolor="#666666"
     borderopacity="1.0"
     inkscape:showpageshadow="2"
     inkscape:pageopacity="0.0"
     inkscape:pagecheckerboard="0"
     inkscape:deskcolor="#d1d1d1"
     showgrid="false"
     inkscape:zoom="1.6191406"
     inkscape:cx="137.72738"
     inkscape:cy="125.06635"
     inkscape:current-layer="svg10"
     inkscape:window-width="1920"
     inkscape:window-height="730"
     inkscape:window-x="-6"
     inkscape:window-y="-6"
     inkscape:window-maximized="1" />
  <path
     fill="#a40000"
     d="M32 28H21C25.324 37.3686 27.5705 43.1018 28.4882 45.5737C28.7381 46.2467 29.5969 46.4694 30.1335 45.9925L33.0794 43.3739C33.3405 43.1417 33.7039 43.0627 34.0379 43.1655L38.5218 44.5452C39.2154 44.7586 39.8709 44.1933 39.7061 43.4866C39.0679 40.7515 37.1712 34.6486 32 28Z"
     id="path2"
     style="fill:#a40000;fill-opacity:1" />
  <path
     fill="#a40000"
     d="M16 28H27C22.676 37.3686 20.4295 43.1018 19.5118 45.5737C19.2619 46.2467 18.4031 46.4694 17.8665 45.9925L14.9206 43.3739C14.6595 43.1417 14.2961 43.0627 13.9621 43.1655L9.47819 44.5452C8.78462 44.7586 8.12907 44.1933 8.29395 43.4866C8.93208 40.7515 10.8288 34.6486 16 28Z"
     id="path4"
     style="fill:#a40000;fill-opacity:1" />
  <circle
     cx="24"
     cy="20"
     r="18"
     fill="#f57900"
     id="circle6"
     style="fill:#f57900;fill-opacity:1" />
  <path
     fill="#a40000"
     d="M22.2246 10.4229C22.9709 8.98407 25.0291 8.98407 25.7754 10.4229L27.9307 14.5783L32.5442 15.4867C34.0673 15.7866 34.683 17.6319 33.645 18.7863L30.36 22.4397L30.9599 27.3012C31.1553 28.8845 29.5092 30.0481 28.0818 29.3356L24 27.2983L19.9182 29.3356C18.4908 30.0481 16.8447 28.8845 17.0401 27.3012L17.64 22.4397L14.355 18.7863C13.317 17.6319 13.9327 15.7866 15.4558 15.4867L20.0693 14.5783L22.2246 10.4229Z"
     id="path8"
     style="fill:#a40000;fill-opacity:1" />
  <path
     fill="#555753"
     fill-rule="evenodd"
     d="m 42.495597,11.538525 -0.315,8.1759 c -0.0562,1.4587 -0.9466,2.717 -2.4024,2.8238 -0.3511,0.0257 -0.7464,0.0414 -1.1886,0.0414 -0.4423,0 -0.8376,-0.0157 -1.1887,-0.0414 -1.4559,-0.1068 -2.3463,-1.3652 -2.4025,-2.8239 l -0.315,-8.1758 c -1.3789,-0.0314 -2.5058,-0.0783 -3.4219,-0.1313 -1.9029,-0.1101 -2.7156,-1.9092 -1.5265,-3.3988 0.7154,-0.8961 1.6487,-2.0058 2.8547,-3.3465 1.9133,-2.1269 3.3689,-3.3819 4.367,-4.1125 1.0008,-0.7325 2.2652,-0.7326 3.266,-1e-4 0.9981,0.7305 2.4538,1.9855 4.367,4.1126 1.2054,1.3403 2.1384,2.4498 2.8537,3.3458 1.1894,1.4899 0.3765,3.2895 -1.5267,3.3996 -0.916,0.0529 -2.0426,0.0998 -3.4211,0.1312 z"
     clip-rule="evenodd"
     id="path141"
     style="fill:#555753;fill-opacity:1" />
</svg>
