<?xml version="1.0" encoding="UTF-8" standalone="no"?>
<svg
   fill="none"
   viewBox="0 0 48 48"
   height="256"
   width="256"
   version="1.1"
   id="svg6"
   sodipodi:docname="cloud_reset.svg"
   inkscape:version="1.3.2 (091e20e, 2023-11-25, custom)"
   xmlns:inkscape="http://www.inkscape.org/namespaces/inkscape"
   xmlns:sodipodi="http://sodipodi.sourceforge.net/DTD/sodipodi-0.dtd"
   xmlns="http://www.w3.org/2000/svg"
   xmlns:svg="http://www.w3.org/2000/svg">
  <defs
     id="defs10" />
  <sodipodi:namedview
     id="namedview8"
     pagecolor="#ffffff"
     bordercolor="#111111"
     borderopacity="1"
     inkscape:showpageshadow="0"
     inkscape:pageopacity="0"
     inkscape:pagecheckerboard="1"
     inkscape:deskcolor="#d1d1d1"
     showgrid="false"
     inkscape:zoom="2.1445312"
     inkscape:cx="13.75592"
     inkscape:cy="128.93261"
     inkscape:window-width="3840"
     inkscape:window-height="1494"
     inkscape:window-x="-11"
     inkscape:window-y="-11"
     inkscape:window-maximized="1"
     inkscape:current-layer="svg6" />
  <path
     fill="#729fcf"
     fill-rule="evenodd"
     d="M36.9941 18.5668C42.3579 19.8472 46 24.1035 46 30C46 36.8953 41.0195 41.5477 34.1297 41.8212C31.4179 41.9288 28.0816 42 24 42C19.9184 42 16.5821 41.9288 13.8703 41.8212C6.98046 41.5477 2 36.8953 2 30C2 24.1035 5.64214 19.8472 11.0059 18.5668C11.1993 11.5101 16.1131 6.06308 23.2336 6.0032C23.4844 6.00109 23.7399 6 24 6C24.2601 6 24.5156 6.00109 24.7664 6.0032C31.8869 6.06308 36.8007 11.5101 36.9941 18.5668Z"
     clip-rule="evenodd"
     id="path2"
     style="fill:#729fcf;fill-opacity:1" />
  <path
     fill="#8ae234"
     fill-rule="evenodd"
     d="M33.2581 20.4008C33.8309 21.162 33.7023 22.1994 33.1945 23.0055C29.9205 28.2028 27.3931 31.7402 25.7031 33.9582C24.3828 35.6909 21.9449 35.8242 20.4355 34.2535C18.9646 32.7228 17.0597 30.6161 15.0876 28.0975C14.4078 27.2293 14.2652 26.026 14.9463 25.1588C15.2623 24.7565 15.601 24.3922 15.9314 24.072C16.9568 23.0784 18.5497 23.2925 19.499 24.359C21.5961 26.7151 22.8461 28.3261 22.8461 28.3261C22.8461 28.3261 25.0367 24.9654 28.571 19.7598C29.2869 18.7053 30.6211 18.2092 31.6784 18.921C32.2137 19.2814 32.7796 19.7649 33.2581 20.4008Z"
     clip-rule="evenodd"
     id="path4"
     style="fill:#8ae234;fill-opacity:1" />
</svg>
