<?xml version="1.0" encoding="UTF-8" standalone="no"?>
<svg
   fill="none"
   viewBox="0 0 48 48"
   height="256"
   width="256"
   version="1.1"
   id="svg6"
   sodipodi:docname="dashboard.svg"
   inkscape:version="1.2.1 (9c6d41e410, 2022-07-14)"
   xmlns:inkscape="http://www.inkscape.org/namespaces/inkscape"
   xmlns:sodipodi="http://sodipodi.sourceforge.net/DTD/sodipodi-0.dtd"
   xmlns="http://www.w3.org/2000/svg"
   xmlns:svg="http://www.w3.org/2000/svg">
  <defs
     id="defs10" />
  <sodipodi:namedview
     id="namedview8"
     pagecolor="#ffffff"
     bordercolor="#111111"
     borderopacity="1"
     inkscape:showpageshadow="0"
     inkscape:pageopacity="0"
     inkscape:pagecheckerboard="1"
     inkscape:deskcolor="#d1d1d1"
     showgrid="false"
     inkscape:zoom="2.1445312"
     inkscape:cx="65.282332"
     inkscape:cy="128.4663"
     inkscape:window-width="1920"
     inkscape:window-height="730"
     inkscape:window-x="-6"
     inkscape:window-y="-6"
     inkscape:window-maximized="1"
     inkscape:current-layer="svg6" />
  <path
     fill="#edd400"
     fill-rule="evenodd"
     d="M40.7496 37C42.1775 37 43.5238 36.2502 44.105 34.9459C45.323 32.2128 46 29.1854 46 26C46 13.8497 36.1503 4 24 4C11.8497 4 2 13.8497 2 26C2 29.1854 2.67701 32.2128 3.89499 34.9459C4.47619 36.2502 5.82251 37 7.25037 37H40.7496Z"
     clip-rule="evenodd"
     id="path2"
     style="fill:#edd400;fill-opacity:1" />
  <path
     fill="#a40000"
     fill-rule="evenodd"
     d="M30.0002 17.8051C30.0885 16.2363 28.1252 15.7102 27.4173 17.1131C25.8742 20.171 23.9339 24.1777 22.203 28.2328C19.2077 29.0261 17 31.7552 17 35C17 38.866 20.134 42 24 42C27.866 42 31 38.866 31 35C31 33.0694 30.2185 31.3214 28.9545 30.055C29.484 25.6736 29.8074 21.2283 30.0002 17.8051Z"
     clip-rule="evenodd"
     id="path4"
     style="fill:#a40000;fill-opacity:1" />
</svg>
