<?xml version="1.0" encoding="UTF-8" standalone="no"?>
<svg
   fill="none"
   viewBox="0 0 48 48"
   height="256"
   width="256"
   version="1.1"
   id="svg6"
   sodipodi:docname="debug.svg"
   inkscape:version="1.2.1 (9c6d41e410, 2022-07-14)"
   xmlns:inkscape="http://www.inkscape.org/namespaces/inkscape"
   xmlns:sodipodi="http://sodipodi.sourceforge.net/DTD/sodipodi-0.dtd"
   xmlns="http://www.w3.org/2000/svg"
   xmlns:svg="http://www.w3.org/2000/svg">
  <defs
     id="defs10" />
  <sodipodi:namedview
     id="namedview8"
     pagecolor="#ffffff"
     bordercolor="#111111"
     borderopacity="1"
     inkscape:showpageshadow="0"
     inkscape:pageopacity="0"
     inkscape:pagecheckerboard="1"
     inkscape:deskcolor="#d1d1d1"
     showgrid="false"
     inkscape:zoom="1.0722656"
     inkscape:cx="-12.123861"
     inkscape:cy="66.681238"
     inkscape:window-width="1920"
     inkscape:window-height="730"
     inkscape:window-x="-6"
     inkscape:window-y="-6"
     inkscape:window-maximized="1"
     inkscape:current-layer="svg6" />
  <path
     fill="#a40000"
     fill-rule="evenodd"
     d="M28.719 2.95319C29.1501 2.26228 29.8556 1.77987 30.6148 2.07442C30.8349 2.15982 31.086 2.27842 31.3691 2.44182C31.6521 2.6052 31.8803 2.76335 32.0643 2.91127C32.6991 3.42155 32.634 4.27374 32.2512 4.9926C31.9688 5.52286 31.5819 6.22879 31.0907 7.07966C31.0421 7.16375 30.9924 7.24943 30.9418 7.33643C35.1597 9.1138 38.2177 12.574 39.4123 17.1711C40.0437 16.9778 40.685 16.7852 41.2541 16.6211C42.0502 16.3915 42.7202 16.2134 43.2438 16.0811C44.0887 15.8675 44.9755 16.0575 45.2847 16.8723C45.3581 17.0656 45.4296 17.2915 45.4952 17.555C45.5713 17.8607 45.617 18.1267 45.6415 18.3565C45.7292 19.1813 45.0882 19.7633 44.2996 20.0203C43.7753 20.1913 43.0886 20.4058 42.2563 20.6458C41.5542 20.8482 40.7367 21.0722 39.962 21.28C39.9861 22.4155 39.9996 23.6344 40 24.9423C40.724 24.9296 41.4711 24.9204 42.1241 24.9204C42.9589 24.9204 43.656 24.9354 44.1966 24.9536C45.0521 24.9826 45.844 25.393 45.9517 26.2422C45.9792 26.4593 45.9961 26.7116 45.9961 27.0038C45.9961 27.2959 45.9792 27.5482 45.9517 27.7652C45.844 28.6145 45.0521 29.0249 44.1965 29.0538C43.656 29.0721 42.9589 29.0871 42.1241 29.0871C41.4568 29.0871 40.6911 29.0775 39.9523 29.0643C39.9069 30.3005 39.7435 31.4792 39.4718 32.5928C40.3814 32.8347 41.4039 33.1123 42.2563 33.358C43.0886 33.598 43.7753 33.8125 44.2996 33.9835C45.0882 34.2405 45.7292 34.8225 45.6415 35.6473C45.617 35.8771 45.5713 36.1431 45.4952 36.4488C45.4296 36.7123 45.3581 36.9382 45.2847 37.1315C44.9755 37.9463 44.0887 38.1363 43.2438 37.9227C42.7202 37.7903 42.0502 37.6122 41.2541 37.3827C40.2422 37.0909 39.0019 36.7089 37.9957 36.3938C35.3586 41.1417 30.2771 44 24 44C17.7224 44 12.6407 41.1413 10.0038 36.3927C8.99691 36.7081 7.75498 37.0906 6.74198 37.3827C5.94589 37.6122 5.27593 37.7903 4.75231 37.9227C3.90738 38.1363 3.02063 37.9463 2.71138 37.1315C2.63803 36.9382 2.56651 36.7123 2.50088 36.4488C2.42477 36.1431 2.37909 35.8771 2.35464 35.6473C2.26689 34.8225 2.90791 34.2405 3.69646 33.9835C4.22076 33.8125 4.90754 33.598 5.73984 33.358C6.59337 33.1119 7.61746 32.834 8.52797 32.5918C8.25645 31.4785 8.09309 30.3001 8.04766 29.0643C7.30767 29.0775 6.54047 29.0871 5.87196 29.0871C5.03721 29.0871 4.34013 29.0721 3.79958 29.0538C2.944 29.0249 2.15207 28.6145 2.04443 27.7652C2.01692 27.5482 2 27.2959 2 27.0038C2 26.7116 2.01692 26.4593 2.04444 26.2422C2.15209 25.393 2.94397 24.9826 3.79949 24.9536C4.34006 24.9354 5.03716 24.9204 5.87196 24.9204C6.52613 24.9204 7.27481 24.9296 8.00001 24.9424C8.00039 23.6349 8.01385 22.4162 8.038 21.2811C7.26211 21.0729 6.44308 20.8485 5.73984 20.6458C4.90754 20.4058 4.22075 20.1913 3.69646 20.0203C2.90791 19.7633 2.26689 19.1813 2.35464 18.3565C2.37909 18.1267 2.42477 17.8607 2.50088 17.555C2.56651 17.2915 2.63803 17.0656 2.71138 16.8723C3.02063 16.0575 3.90738 15.8675 4.75231 16.0811C5.27593 16.2134 5.94589 16.3915 6.74198 16.6211C7.31217 16.7855 7.95489 16.9786 8.58739 17.1722C9.75421 12.6806 12.6997 9.27433 16.7679 7.46221C16.6918 7.33182 16.6176 7.204 16.5458 7.07966C16.0545 6.22879 15.6676 5.52286 15.3853 4.9926C15.0024 4.27374 14.9374 3.42155 15.5721 2.91127C15.7561 2.76335 15.9844 2.6052 16.2674 2.44182C16.5504 2.27842 16.8015 2.15982 17.0216 2.07442C17.7809 1.77987 18.4863 2.26228 18.9174 2.95319C19.2355 3.46287 19.6534 4.15091 20.1447 5.00182C20.3691 5.3905 20.611 5.81694 20.8551 6.25177C21.8633 6.0856 22.9137 6 24 6C24.9667 6 25.9051 6.06779 26.8105 6.19984C27.0447 5.78302 27.2763 5.37501 27.4917 5.00182C27.983 4.15091 28.4009 3.46287 28.719 2.95319Z"
     clip-rule="evenodd"
     id="path2"
     style="fill:#a40000;fill-opacity:1" />
  <path
     fill="#c4a000"
     fill-rule="evenodd"
     d="M21.8289 19.9856C21.8289 18.8712 20.918 17.9702 19.804 17.9987C17.7367 18.0516 15.9082 18.1422 14.2952 18.257C13.3431 18.3248 12.5834 19.0714 12.4928 20.0217C12.257 22.4933 12.047 25.414 12.0016 28.2852C11.9186 33.5374 15.0267 37.4204 19.5744 38.9311C20.7337 39.3162 21.8289 38.3678 21.8289 37.1462V19.9856ZM26.1687 37.1469C26.1687 38.3684 27.2637 39.3168 28.4229 38.932C32.972 37.4219 36.0812 33.5384 35.9982 28.2852C35.9528 25.4142 35.7428 22.4938 35.5071 20.0222C35.4165 19.072 34.6569 18.3254 33.7048 18.2575C32.0913 18.1425 30.2621 18.0518 28.1936 17.9988C27.0796 17.9703 26.1687 18.8713 26.1687 19.9857V37.1469Z"
     clip-rule="evenodd"
     id="path4"
     style="fill:#c4a000;fill-opacity:1" />
</svg>
