<?xml version="1.0" encoding="UTF-8" standalone="no"?>
<svg
   fill="none"
   viewBox="0 0 48 48"
   height="256"
   width="256"
   version="1.1"
   id="svg6"
   sodipodi:docname="home.svg"
   inkscape:version="1.2.1 (9c6d41e410, 2022-07-14)"
   xmlns:inkscape="http://www.inkscape.org/namespaces/inkscape"
   xmlns:sodipodi="http://sodipodi.sourceforge.net/DTD/sodipodi-0.dtd"
   xmlns="http://www.w3.org/2000/svg"
   xmlns:svg="http://www.w3.org/2000/svg">
  <defs
     id="defs10" />
  <sodipodi:namedview
     id="namedview8"
     pagecolor="#ffffff"
     bordercolor="#111111"
     borderopacity="1"
     inkscape:showpageshadow="0"
     inkscape:pageopacity="0"
     inkscape:pagecheckerboard="1"
     inkscape:deskcolor="#d1d1d1"
     showgrid="false"
     inkscape:zoom="1.5164126"
     inkscape:cx="61.328955"
     inkscape:cy="134.1983"
     inkscape:window-width="1920"
     inkscape:window-height="730"
     inkscape:window-x="-6"
     inkscape:window-y="-6"
     inkscape:window-maximized="1"
     inkscape:current-layer="svg6" />
  <path
     fill="#f57900"
     d="M3.42809 21.114C2.62824 22.0182 2.99116 23.2486 4.16761 23.5025C5.08877 23.7012 6.35496 23.923 8.06066 24.1299C8.0201 25.4952 7.99536 27.0793 7.99536 28.9124C7.99536 33.7995 8.17119 36.917 8.35394 38.8373C8.5216 40.5991 9.71677 41.9412 11.4528 42.2282C13.7095 42.6014 17.6144 43 23.9993 43C30.3841 43 34.2891 42.6014 36.5458 42.2282C38.2818 41.9412 39.477 40.5991 39.6446 38.8373C39.8274 36.917 40.0032 33.7995 40.0032 28.9124C40.0032 27.0795 39.9785 25.4954 39.9379 24.1301C41.6442 23.9232 42.9107 23.7014 43.8322 23.5026C45.0089 23.2488 45.3718 22.018 44.5717 21.1136C43.1678 19.5268 40.5575 16.8216 36.0032 12.8123C30.7292 8.1695 27.1929 6.14975 25.3949 5.31228C24.5009 4.89585 23.4997 4.89591 22.6057 5.31242C20.808 6.14997 17.2721 8.16976 11.9974 12.8123C7.44193 16.8219 4.83163 19.5272 3.42809 21.114Z"
     id="path2"
     style="fill:#f57900;fill-opacity:1" />
  <path
     fill="#8f5902"
     d="M30.9616 42.8105C30.9851 41.6641 31 40.2951 31 38.6667C31 35.3626 30.9387 33.1268 30.8686 31.6507C30.7897 29.9878 29.8874 28.601 28.348 28.3251C27.3346 28.1434 25.925 28 24 28C22.075 28 20.6654 28.1434 19.652 28.3251C18.1126 28.601 17.2103 29.9878 17.1314 31.6507C17.0613 33.1268 17 35.3626 17 38.6667C17 40.2952 17.0149 41.6641 17.0384 42.8106C18.9395 42.9254 21.2374 43 23.9993 43C26.7619 43 29.0602 42.9254 30.9616 42.8105Z"
     id="path4"
     style="fill:#8f5902;fill-opacity:1" />
</svg>
