<?xml version="1.0" encoding="UTF-8" standalone="no"?>
<svg
   fill="none"
   viewBox="0 0 48 48"
   height="256"
   width="256"
   version="1.1"
   id="svg24"
   sodipodi:docname="keyboard.svg"
   inkscape:version="1.2.1 (9c6d41e410, 2022-07-14)"
   xmlns:inkscape="http://www.inkscape.org/namespaces/inkscape"
   xmlns:sodipodi="http://sodipodi.sourceforge.net/DTD/sodipodi-0.dtd"
   xmlns="http://www.w3.org/2000/svg"
   xmlns:svg="http://www.w3.org/2000/svg">
  <defs
     id="defs28" />
  <sodipodi:namedview
     id="namedview26"
     pagecolor="#ffffff"
     bordercolor="#111111"
     borderopacity="1"
     inkscape:showpageshadow="0"
     inkscape:pageopacity="0"
     inkscape:pagecheckerboard="1"
     inkscape:deskcolor="#d1d1d1"
     showgrid="false"
     inkscape:zoom="0.53613281"
     inkscape:cx="-266.72495"
     inkscape:cy="-30.775956"
     inkscape:window-width="1920"
     inkscape:window-height="730"
     inkscape:window-x="-6"
     inkscape:window-y="-6"
     inkscape:window-maximized="1"
     inkscape:current-layer="svg24" />
  <path
     fill="#555753"
     fill-rule="evenodd"
     d="M37.3366 2.34264C37.8682 2.66364 38 3.32329 38 3.94427V4.56522C38 8.023 35.3137 10.8261 32 10.8261H28C26.8954 10.8261 26 11.7604 26 12.913V16H22V12.913C22 9.45526 24.6863 6.65217 28 6.65217H32C33.1046 6.65217 34 5.71781 34 4.56522V3.94427C34 3.32329 34.1318 2.66364 34.6633 2.34264C34.9744 2.15483 35.4098 2 36 2C36.5902 2 37.0256 2.15483 37.3366 2.34264Z"
     clip-rule="evenodd"
     id="path2"
     style="fill:#555753;fill-opacity:1" />
  <path
     fill="#2e3436"
     d="M7.24503 14.4264C4.72033 14.5798 2.71349 16.416 2.46765 18.9334C2.22574 21.4105 2 25.0485 2 30C2 34.9515 2.22574 38.5895 2.46765 41.0666C2.71349 43.584 4.72033 45.4202 7.24502 45.5736C10.6075 45.778 16.0826 46 24 46C31.9174 46 37.3925 45.778 40.755 45.5736C43.2797 45.4202 45.2865 43.584 45.5324 41.0666C45.7743 38.5895 46 34.9515 46 30C46 25.0485 45.7743 21.4105 45.5324 18.9334C45.2865 16.416 43.2797 14.5798 40.755 14.4264C37.3925 14.222 31.9174 14 24 14C16.0826 14 10.6075 14.222 7.24503 14.4264Z"
     id="path4"
     style="fill:#2e3436;fill-opacity:1" />
  <path
     fill="#eeeeec"
     d="M7.52282 20.6511C7.55584 19.7885 8.1146 19.131 8.97464 19.0573C9.36963 19.0235 9.87052 19 10.5 19C11.1295 19 11.6304 19.0235 12.0254 19.0573C12.8854 19.131 13.4442 19.7885 13.4772 20.6511C13.4909 21.008 13.5 21.4517 13.5 22C13.5 22.5483 13.4909 22.992 13.4772 23.3489C13.4442 24.2115 12.8854 24.869 12.0254 24.9427C11.6304 24.9765 11.1295 25 10.5 25C9.87052 25 9.36963 24.9765 8.97464 24.9427C8.1146 24.869 7.55584 24.2115 7.52282 23.3489C7.50915 22.992 7.5 22.5483 7.5 22C7.5 21.4517 7.50915 21.008 7.52282 20.6511Z"
     id="path6"
     style="fill:#eeeeec;fill-opacity:1" />
  <path
     fill="#eeeeec"
     d="M7.52282 29.6511C7.55584 28.7885 8.1146 28.131 8.97464 28.0573C9.36963 28.0235 9.87052 28 10.5 28C11.1295 28 11.6304 28.0235 12.0254 28.0573C12.8854 28.131 13.4442 28.7885 13.4772 29.6511C13.4909 30.008 13.5 30.4517 13.5 31C13.5 31.5483 13.4909 31.992 13.4772 32.3489C13.4442 33.2115 12.8854 33.869 12.0254 33.9427C11.6304 33.9765 11.1295 34 10.5 34C9.87052 34 9.36963 33.9765 8.97464 33.9427C8.1146 33.869 7.55584 33.2115 7.52282 32.3489C7.50915 31.992 7.5 31.5483 7.5 31C7.5 30.4517 7.50915 30.008 7.52282 29.6511Z"
     id="path8"
     style="fill:#eeeeec;fill-opacity:1" />
  <path
     fill="#eeeeec"
     d="M16.5228 20.6511C16.5558 19.7885 17.1146 19.131 17.9746 19.0573C18.3696 19.0235 18.8705 19 19.5 19C20.1295 19 20.6304 19.0235 21.0254 19.0573C21.8854 19.131 22.4442 19.7885 22.4772 20.6511C22.4909 21.008 22.5 21.4517 22.5 22C22.5 22.5483 22.4909 22.992 22.4772 23.3489C22.4442 24.2115 21.8854 24.869 21.0254 24.9427C20.6304 24.9765 20.1295 25 19.5 25C18.8705 25 18.3696 24.9765 17.9746 24.9427C17.1146 24.869 16.5558 24.2115 16.5228 23.3489C16.5091 22.992 16.5 22.5483 16.5 22C16.5 21.4517 16.5091 21.008 16.5228 20.6511Z"
     id="path10"
     style="fill:#eeeeec;fill-opacity:1" />
  <path
     fill="#eeeeec"
     d="M16.5228 29.6511C16.5558 28.7885 17.1146 28.131 17.9746 28.0573C18.3696 28.0235 18.8705 28 19.5 28C20.1295 28 20.6304 28.0235 21.0254 28.0573C21.8854 28.131 22.4442 28.7885 22.4772 29.6511C22.4909 30.008 22.5 30.4517 22.5 31C22.5 31.5483 22.4909 31.992 22.4772 32.3489C22.4442 33.2115 21.8854 33.869 21.0254 33.9427C20.6304 33.9765 20.1295 34 19.5 34C18.8705 34 18.3696 33.9765 17.9746 33.9427C17.1146 33.869 16.5558 33.2115 16.5228 32.3489C16.5091 31.992 16.5 31.5483 16.5 31C16.5 30.4517 16.5091 30.008 16.5228 29.6511Z"
     id="path12"
     style="fill:#eeeeec;fill-opacity:1" />
  <path
     fill="#eeeeec"
     d="M25.5228 20.6511C25.5558 19.7885 26.1146 19.131 26.9746 19.0573C27.3696 19.0235 27.8705 19 28.5 19C29.1295 19 29.6304 19.0235 30.0254 19.0573C30.8854 19.131 31.4442 19.7885 31.4772 20.6511C31.4909 21.008 31.5 21.4517 31.5 22C31.5 22.5483 31.4909 22.992 31.4772 23.3489C31.4442 24.2115 30.8854 24.869 30.0254 24.9427C29.6304 24.9765 29.1295 25 28.5 25C27.8705 25 27.3696 24.9765 26.9746 24.9427C26.1146 24.869 25.5558 24.2115 25.5228 23.3489C25.5091 22.992 25.5 22.5483 25.5 22C25.5 21.4517 25.5091 21.008 25.5228 20.6511Z"
     id="path14"
     style="fill:#eeeeec;fill-opacity:1" />
  <path
     fill="#eeeeec"
     d="M34.5228 20.6511C34.5558 19.7885 35.1146 19.131 35.9746 19.0573C36.3696 19.0235 36.8705 19 37.5 19C38.1295 19 38.6304 19.0235 39.0254 19.0573C39.8854 19.131 40.4442 19.7885 40.4772 20.6511C40.4909 21.008 40.5 21.4517 40.5 22C40.5 22.5483 40.4909 22.992 40.4772 23.3489C40.4442 24.2115 39.8854 24.869 39.0254 24.9427C38.6304 24.9765 38.1295 25 37.5 25C36.8705 25 36.3696 24.9765 35.9746 24.9427C35.1146 24.869 34.5558 24.2115 34.5228 23.3489C34.5091 22.992 34.5 22.5483 34.5 22C34.5 21.4517 34.5091 21.008 34.5228 20.6511Z"
     id="path16"
     style="fill:#eeeeec;fill-opacity:1" />
  <path
     fill="#eeeeec"
     d="M25.5228 29.6511C25.5558 28.7885 26.1146 28.131 26.9746 28.0573C27.3696 28.0235 27.8705 28 28.5 28C29.1295 28 29.6304 28.0235 30.0254 28.0573C30.8854 28.131 31.4442 28.7885 31.4772 29.6511C31.4909 30.008 31.5 30.4517 31.5 31C31.5 31.5483 31.4909 31.992 31.4772 32.3489C31.4442 33.2115 30.8854 33.869 30.0254 33.9427C29.6304 33.9765 29.1295 34 28.5 34C27.8705 34 27.3696 33.9765 26.9746 33.9427C26.1146 33.869 25.5558 33.2115 25.5228 32.3489C25.5091 31.992 25.5 31.5483 25.5 31C25.5 30.4517 25.5091 30.008 25.5228 29.6511Z"
     id="path18"
     style="fill:#eeeeec;fill-opacity:1" />
  <path
     fill="#eeeeec"
     d="M34.5228 29.6511C34.5558 28.7885 35.1146 28.131 35.9746 28.0573C36.3696 28.0235 36.8705 28 37.5 28C38.1295 28 38.6304 28.0235 39.0254 28.0573C39.8854 28.131 40.4442 28.7885 40.4772 29.6511C40.4909 30.008 40.5 30.4517 40.5 31C40.5 31.5483 40.4909 31.992 40.4772 32.3489C40.4442 33.2115 39.8854 33.869 39.0254 33.9427C38.6304 33.9765 38.1295 34 37.5 34C36.8705 34 36.3696 33.9765 35.9746 33.9427C35.1146 33.869 34.5558 33.2115 34.5228 32.3489C34.5091 31.992 34.5 31.5483 34.5 31C34.5 30.4517 34.5091 30.008 34.5228 29.6511Z"
     id="path20"
     style="fill:#eeeeec;fill-opacity:1" />
  <path
     fill="#eeeeec"
     d="M15.1127 38.2187C15.2479 37.5504 15.8694 37.2117 16.55 37.1706C17.7625 37.0974 20.1069 37 24 37C27.8931 37 30.2375 37.0974 31.45 37.1706C32.1306 37.2117 32.7521 37.5504 32.8873 38.2187C32.9527 38.5422 33 38.962 33 39.5C33 40.038 32.9527 40.4578 32.8873 40.7813C32.7521 41.4496 32.1306 41.7883 31.45 41.8294C30.2375 41.9026 27.8931 42 24 42C20.1069 42 17.7625 41.9026 16.55 41.8294C15.8694 41.7883 15.2479 41.4496 15.1127 40.7813C15.0473 40.4578 15 40.038 15 39.5C15 38.962 15.0473 38.5422 15.1127 38.2187Z"
     id="path22"
     style="fill:#eeeeec;fill-opacity:1" />
</svg>
