<?xml version="1.0" encoding="UTF-8" standalone="no"?>
<svg
   fill="none"
   viewBox="0 0 48 48"
   height="256"
   width="256"
   version="1.1"
   id="svg18"
   sodipodi:docname="lightbulb_off.svg"
   inkscape:version="1.3.2 (091e20e, 2023-11-25, custom)"
   xmlns:inkscape="http://www.inkscape.org/namespaces/inkscape"
   xmlns:sodipodi="http://sodipodi.sourceforge.net/DTD/sodipodi-0.dtd"
   xmlns="http://www.w3.org/2000/svg"
   xmlns:svg="http://www.w3.org/2000/svg">
  <defs
     id="defs22" />
  <sodipodi:namedview
     id="namedview20"
     pagecolor="#ffffff"
     bordercolor="#111111"
     borderopacity="1"
     inkscape:showpageshadow="0"
     inkscape:pageopacity="0"
     inkscape:pagecheckerboard="1"
     inkscape:deskcolor="#d1d1d1"
     showgrid="false"
     inkscape:zoom="2.1445312"
     inkscape:cx="108.4153"
     inkscape:cy="154.57924"
     inkscape:window-width="3840"
     inkscape:window-height="1494"
     inkscape:window-x="-11"
     inkscape:window-y="-11"
     inkscape:window-maximized="1"
     inkscape:current-layer="svg18" />
  <path
     id="circle2"
     style="fill:#d3d7cf;fill-opacity:1"
     d="M 0 -13.000122 A 13 13 0 0 1 13.000122 0 A 13 13 0 0 1 0 13.000122 A 13 13 0 0 1 -13.000122 0 A 13 13 0 0 1 0 -13.000122 z M 0 -10.5 C -5.6911653 -10.5 -10.5 -6.3303907 -10.5 -1.0001221 A 1.5 1.5 0 0 0 -9 0.49987793 A 1.5 1.5 0 0 0 -7.5 -1.0001221 C -7.5 -4.5064356 -4.2500147 -7.5 0 -7.5 A 1.5 1.5 0 0 0 1.5 -9 A 1.5 1.5 0 0 0 0 -10.5 z "
     transform="matrix(-1 0 0 1 24 24)" />
  <path
     fill="#555753"
     fill-rule="evenodd"
     d="M17.8265 34.0652C16.8541 34.0928 15.8747 34.454 15.6399 35.3981C15.5552 35.7384 15.498 36.1614 15.498 36.6831C15.498 37.2049 15.5552 37.6279 15.6399 37.9682C15.7327 38.3412 15.9417 38.6233 16.2206 38.8297C15.9417 39.0361 15.7327 39.3181 15.6399 39.6911C15.5552 40.0315 15.498 40.4545 15.498 40.9762C15.498 41.498 15.5552 41.9209 15.6399 42.2613C15.8747 43.2053 16.8541 43.5666 17.8265 43.5942C18.1233 43.6026 18.4732 43.6111 18.8833 43.619L19.3953 44.9114C19.6192 45.4766 20.0884 45.9096 20.685 46.0265C21.4396 46.1745 22.6036 46.3423 24.0008 46.3423C25.398 46.3423 26.562 46.1745 27.3166 46.0265C27.9132 45.9096 28.3824 45.4766 28.6063 44.9114L29.1183 43.619C29.5282 43.6111 29.878 43.6026 30.1748 43.5942C31.1472 43.5666 32.1265 43.2053 32.3614 42.2613C32.4461 41.9209 32.5032 41.498 32.5032 40.9762C32.5032 40.4545 32.4461 40.0315 32.3614 39.6911C32.2686 39.3181 32.0595 39.0361 31.7806 38.8297C32.0595 38.6233 32.2686 38.3412 32.3614 37.9682C32.4461 37.6279 32.5032 37.2049 32.5032 36.6831C32.5032 36.1614 32.4461 35.7384 32.3614 35.3981C32.1265 34.454 31.1472 34.0928 30.1748 34.0652C29.0346 34.0328 27.1117 34 24.0006 34C20.8895 34 18.9666 34.0328 17.8265 34.0652Z"
     clip-rule="evenodd"
     id="path4"
     style="fill:#555753;fill-opacity:1" />
  <path
     id="path1"
     style="fill:#eeeeec;fill-opacity:1"
     d="m 24,13.5 c 5.691165,0 10.5,4.169609 10.5,9.499878 0,0.828427 -0.671573,1.5 -1.5,1.5 -0.828427,0 -1.5,-0.671573 -1.5,-1.5 C 31.5,19.493564 28.250015,16.5 24,16.5 c -0.828427,0 -1.5,-0.671573 -1.5,-1.5 0,-0.828427 0.671573,-1.5 1.5,-1.5 z"
     sodipodi:nodetypes="sssssss" />
</svg>
