<?xml version="1.0" encoding="UTF-8" standalone="no"?>
<svg
   fill="none"
   viewBox="0 0 48 48"
   height="256"
   width="256"
   version="1.1"
   id="svg2451"
   sodipodi:docname="money.svg"
   inkscape:version="1.2.1 (9c6d41e410, 2022-07-14)"
   xmlns:inkscape="http://www.inkscape.org/namespaces/inkscape"
   xmlns:sodipodi="http://sodipodi.sourceforge.net/DTD/sodipodi-0.dtd"
   xmlns="http://www.w3.org/2000/svg"
   xmlns:svg="http://www.w3.org/2000/svg">
  <defs
     id="defs2455" />
  <sodipodi:namedview
     id="namedview2453"
     pagecolor="#ffffff"
     bordercolor="#111111"
     borderopacity="1"
     inkscape:showpageshadow="0"
     inkscape:pageopacity="0"
     inkscape:pagecheckerboard="1"
     inkscape:deskcolor="#d1d1d1"
     showgrid="false"
     inkscape:zoom="2.1445312"
     inkscape:cx="65.282332"
     inkscape:cy="128.4663"
     inkscape:window-width="1920"
     inkscape:window-height="730"
     inkscape:window-x="-6"
     inkscape:window-y="-6"
     inkscape:window-maximized="1"
     inkscape:current-layer="svg2451" />
  <path
     fill="#4e9a06"
     d="M26.0004 38.592C16.3616 41.2058 10.7041 39.5839 8.30904 38.4845C7.37787 38.0571 6.77292 37.208 6.60752 36.1969C6.33491 34.5302 6 31.2376 6 25.1186C6 21.1143 6.14342 18.3204 6.31895 16.4005C6.49951 14.4255 8.63478 13.5629 10.5482 14.0846C13.5838 14.9124 18.6273 15.3914 26.0004 13.3919C35.6441 10.7768 41.302 12.4442 43.6948 13.5672C44.6243 14.0035 45.2247 14.8592 45.39 15.8727C45.6631 17.5469 46 20.8483 46 26.9467C46 30.8911 45.8591 33.6655 45.6856 35.5862C45.5051 37.5847 43.3255 38.4634 41.3911 37.9295C38.3493 37.0898 33.3243 36.6059 26.0004 38.592Z"
     id="path2441"
     style="fill:#4e9a06;fill-opacity:1" />
  <path
     fill="#73d216"
     d="M22.0004 34.592C12.3616 37.2058 6.70411 35.5839 4.30904 34.4845C3.37787 34.0571 2.77292 33.208 2.60752 32.1969C2.33491 30.5302 2 27.2376 2 21.1186C2 17.1143 2.14342 14.3204 2.31895 12.4005C2.49951 10.4255 4.63478 9.56291 6.54816 10.0846C9.58384 10.9124 14.6273 11.3914 22.0004 9.39195C31.6441 6.77679 37.302 8.44422 39.6948 9.5672C40.6243 10.0035 41.2247 10.8592 41.39 11.8727C41.6631 13.5469 42 16.8483 42 22.9467C42 26.8911 41.8591 29.6655 41.6856 31.5862C41.5051 33.5847 39.3255 34.4634 37.3911 33.9295C34.3493 33.0898 29.3243 32.6059 22.0004 34.592Z"
     id="path2443"
     style="fill:#73d216;fill-opacity:1" />
  <path
     fill="#4e9a06"
     d="M21.514 26.0251C22.2916 26.0251 22.8531 25.8913 23.1987 25.6236C23.5587 25.3559 23.7387 25.028 23.7387 24.6399C23.7387 24.2919 23.6019 24.0109 23.3283 23.7967C23.0547 23.5826 22.6443 23.3952 22.0972 23.2346L20.9093 22.8733C20.3189 22.6993 19.7862 22.5119 19.311 22.3112C18.8359 22.1104 18.4327 21.8695 18.1015 21.5885C17.7703 21.3074 17.5112 20.9728 17.324 20.5847C17.1368 20.1966 17.0432 19.7348 17.0432 19.1995C17.0432 18.2894 17.3456 17.5332 17.9503 16.931C18.5551 16.3287 19.419 15.9272 20.5421 15.7265V14.9348C20.5421 14.4697 20.8627 14.0565 21.3262 14.018C21.469 14.0062 21.6116 14 21.7516 14C22.2844 14 22.6659 14.087 22.8963 14.261C23.1411 14.435 23.2635 14.7495 23.2635 15.2045V15.6462C24.185 15.7399 24.9338 15.9473 25.5097 16.2685C26.0857 16.5763 26.3736 16.9845 26.3736 17.4931C26.3736 17.8155 26.2545 18.104 26.0617 18.3507C25.814 18.6678 25.3563 18.6488 24.9831 18.4985C24.7619 18.4095 24.5127 18.3287 24.2354 18.256C23.6883 18.0954 23.0907 18.0151 22.4428 18.0151C21.7228 18.0151 21.1829 18.1288 20.8229 18.3563C20.4773 18.5705 20.3045 18.8515 20.3045 19.1995C20.3045 19.4806 20.4197 19.7081 20.6501 19.8821C20.8949 20.056 21.2621 20.2166 21.7516 20.3639L22.9611 20.7051C24.257 21.0799 25.2505 21.5751 25.9417 22.1907C26.6472 22.8064 27 23.6361 27 24.6801C27 25.6035 26.6832 26.3865 26.0497 27.0289C25.4161 27.6579 24.4874 28.0795 23.2635 28.2936V29.0652C23.2635 29.5303 22.9429 29.9435 22.4794 29.982C22.3367 29.9939 22.1941 30 22.054 30C21.5212 30 21.1325 29.913 20.8877 29.739C20.6573 29.565 20.5421 29.2505 20.5421 28.7955V28.394C19.491 28.2869 18.6343 28.0527 17.9719 27.6913C17.324 27.3166 17 26.8482 17 26.2861C17 25.8655 17.2031 25.5158 17.5064 25.2416C17.797 24.9789 18.2312 25.0425 18.5696 25.24C18.8383 25.3968 19.1431 25.5448 19.4838 25.6838C20.0742 25.9113 20.7509 26.0251 21.514 26.0251Z"
     id="path2445"
     style="fill:#4e9a06;fill-opacity:1" />
  <path
     fill="#4e9a06"
     d="M32.0028 20.1356C32.0127 19.5128 32.4186 19.0654 33.0406 19.0322C33.392 19.0134 33.8651 19 34.5 19C35.1349 19 35.608 19.0134 35.9594 19.0322C36.5814 19.0654 36.9873 19.5128 36.9972 20.1356C36.999 20.2456 37 20.3668 37 20.5C37 20.6332 36.999 20.7544 36.9972 20.8644C36.9873 21.4872 36.5814 21.9346 35.9594 21.9678C35.608 21.9866 35.1349 22 34.5 22C33.8651 22 33.392 21.9866 33.0406 21.9678C32.4186 21.9346 32.0127 21.4872 32.0028 20.8644C32.001 20.7544 32 20.6332 32 20.5C32 20.3668 32.001 20.2456 32.0028 20.1356Z"
     id="path2447"
     style="fill:#4e9a06;fill-opacity:1" />
  <path
     fill="#4e9a06"
     d="M7.13825 22.7229C7.07381 22.1033 7.42345 21.6107 8.03705 21.5035C8.38361 21.4429 8.85175 21.3732 9.48214 21.2974C10.1125 21.2216 10.5839 21.1785 10.9349 21.1552C11.5564 21.114 12.0128 21.5098 12.097 22.1269C12.1119 22.2359 12.1274 22.3561 12.1433 22.4884C12.1592 22.6206 12.1726 22.7411 12.184 22.8505C12.2484 23.47 11.8988 23.9627 11.2852 24.0699C10.9386 24.1305 10.4705 24.2002 9.84011 24.276C9.20972 24.3517 8.73838 24.3949 8.38734 24.4182C7.76581 24.4594 7.3094 24.0636 7.2252 23.4464C7.21033 23.3374 7.19488 23.2173 7.17898 23.085C7.16309 22.9527 7.14963 22.8323 7.13825 22.7229Z"
     id="path2449"
     style="fill:#4e9a06;fill-opacity:1" />
</svg>
