<?xml version="1.0" encoding="UTF-8" standalone="no"?>
<svg
   fill="none"
   viewBox="0 0 48 48"
   height="256"
   width="256"
   version="1.1"
   id="svg8"
   sodipodi:docname="news.svg"
   inkscape:version="1.3.2 (091e20e, 2023-11-25, custom)"
   xml:space="preserve"
   xmlns:inkscape="http://www.inkscape.org/namespaces/inkscape"
   xmlns:sodipodi="http://sodipodi.sourceforge.net/DTD/sodipodi-0.dtd"
   xmlns="http://www.w3.org/2000/svg"
   xmlns:svg="http://www.w3.org/2000/svg"><defs
     id="defs12" /><sodipodi:namedview
     id="namedview10"
     pagecolor="#ffffff"
     bordercolor="#111111"
     borderopacity="1"
     inkscape:showpageshadow="0"
     inkscape:pageopacity="0"
     inkscape:pagecheckerboard="1"
     inkscape:deskcolor="#d1d1d1"
     showgrid="false"
     inkscape:zoom="4.2890624"
     inkscape:cx="180.80875"
     inkscape:cy="126.95082"
     inkscape:window-width="3840"
     inkscape:window-height="1494"
     inkscape:window-x="-11"
     inkscape:window-y="-11"
     inkscape:window-maximized="1"
     inkscape:current-layer="svg8" /><g
     style="fill:#555753;fill-opacity:1;stroke-width:1.05946"
     id="g7"
     transform="matrix(0.97135554,-0.07963332,0.0849826,0.91021299,-1.8603586,2.5960986)"><path
       fill="#555753"
       d="m 2.58134,40.6959 c 0.21215,2.555 2.16779,4.5106 4.72272,4.7228 C 10.6714,45.6983 16.1287,46 24,46 c 7.8712,0 13.3286,-0.3017 16.6959,-0.5813 2.555,-0.2122 4.5106,-2.1678 4.7228,-4.7228 C 45.6983,37.3286 46,31.8713 46,24 46,16.1288 45.6983,10.6714 45.4187,7.30406 45.2065,4.74913 43.2509,2.79349 40.6959,2.58134 37.3286,2.30174 31.8712,2 24,2 16.1288,2 10.6714,2.30174 7.30406,2.58134 4.74914,2.79348 2.79349,4.74913 2.58134,7.30406 2.30174,10.6714 2,16.1288 2,24 2,31.8712 2.30174,37.3286 2.58134,40.6959 Z"
       id="path7"
       style="fill:#555753;fill-opacity:1;stroke-width:1.05946" /></g><g
     style="fill:none;stroke-width:1.05371"
     id="g1"
     transform="matrix(1,0,0,0.9006458,0.61202187,5.7069053)"><path
       fill="#d3d7cf"
       d="m 2.58134,40.6959 c 0.21215,2.555 2.16779,4.5106 4.72272,4.7228 C 10.6714,45.6983 16.1287,46 24,46 c 7.8712,0 13.3286,-0.3017 16.6959,-0.5813 2.555,-0.2122 4.5106,-2.1678 4.7228,-4.7228 C 45.6983,37.3286 46,31.8713 46,24 46,16.1288 45.6983,10.6714 45.4187,7.30406 45.2065,4.74913 43.2509,2.79349 40.6959,2.58134 37.3286,2.30174 31.8712,2 24,2 16.1288,2 10.6714,2.30174 7.30406,2.58134 4.74914,2.79348 2.79349,4.74913 2.58134,7.30406 2.30174,10.6714 2,16.1288 2,24 2,31.8712 2.30174,37.3286 2.58134,40.6959 Z"
       id="path2-0"
       style="fill:#d3d7cf;fill-opacity:1;stroke-width:1.05371" /></g><g
     style="fill:#2e3436;fill-opacity:1;stroke-width:1.40495"
     id="g2"
     transform="matrix(0.75,0,0,0.67548435,6.6120219,23.832402)"><path
       fill="#2e3436"
       d="m 0.8185899,22.8188 c 0.13082,-1.0242 1.0566,-1.5523 2.0885,-1.5887 C 5.4218499,21.1415 12.4888,21 24,21 c 11.5112,0 18.5781,0.1415 21.0929,0.2301 1.0319,0.0364 1.9577,0.5645 2.0885,1.5887 0.0418,0.3271 0.0686,0.7176 0.0686,1.1812 0,0.4636 -0.0268,0.8541 -0.0686,1.1812 -0.1308,1.0242 -1.0566,1.5523 -2.0885,1.5887 C 42.5782,26.8585 35.5112,27 24,27 12.4888,27 5.42185,26.8585 2.90709,26.7699 1.87519,26.7335 0.94941,26.2054 0.81859,25.1812 0.77681,24.8541 0.75,24.4636 0.75,24 c 0,-0.4636 0.02681,-0.8541 0.0685899,-1.1812 z"
       id="path2787"
       style="fill:#2e3436;fill-opacity:1;stroke-width:1.40495"
       sodipodi:nodetypes="scsccsccscsss" /></g><g
     style="fill:#2e3436;fill-opacity:1;stroke-width:1.40495"
     id="g3"
     transform="matrix(0.75,0,0,0.67548435,6.6120219,15.388848)"><path
       fill="#2e3436"
       d="m 0.8185899,22.8188 c 0.13082,-1.0242 1.0566,-1.5523 2.0885,-1.5887 2.51476,-0.0886 5.4168651,-0.106453 8.5929101,-0.106453 3.161473,0 6.0781,0.01785 8.5929,0.106453 1.0319,0.0364 1.9577,0.5645 2.0885,1.5887 0.0418,0.3271 0.0686,0.7176 0.0686,1.1812 0,0.4636 -0.0268,0.8541 -0.0686,1.1812 -0.1308,1.0242 -1.0566,1.5523 -2.0885,1.5887 -2.5147,0.0886 -5.445999,0.08584 -8.5929,0.08584 -3.4383401,0 -6.07815,0.0028 -8.59291,-0.08584 C 1.87519,26.7335 0.94941,26.2054 0.81859,25.1812 0.77681,24.8541 0.75,24.4636 0.75,24 c 0,-0.4636 0.02681,-0.8541 0.0685899,-1.1812 z"
       id="path3"
       style="fill:#2e3436;fill-opacity:1;stroke-width:1.40495"
       sodipodi:nodetypes="scsccsccscsss" /></g><g
     style="fill:#2e3436;fill-opacity:1;stroke-width:1.40495"
     id="g4"
     transform="matrix(0.75,0,0,0.67548435,6.6120219,6.9452933)"><path
       fill="#2e3436"
       d="m 0.8185899,22.8188 c 0.13082,-1.0242 1.0566,-1.5523 2.0885,-1.5887 2.51476,-0.0886 5.4168651,-0.106453 8.5929101,-0.106453 3.161473,0 6.0781,0.01785 8.5929,0.106453 1.0319,0.0364 1.9577,0.5645 2.0885,1.5887 0.0418,0.3271 0.0686,0.7176 0.0686,1.1812 0,0.4636 -0.0268,0.8541 -0.0686,1.1812 -0.1308,1.0242 -1.0566,1.5523 -2.0885,1.5887 -2.5147,0.0886 -5.445999,0.08584 -8.5929,0.08584 -3.4383401,0 -6.07815,0.0028 -8.59291,-0.08584 C 1.87519,26.7335 0.94941,26.2054 0.81859,25.1812 0.77681,24.8541 0.75,24.4636 0.75,24 c 0,-0.4636 0.02681,-0.8541 0.0685899,-1.1812 z"
       id="path4"
       style="fill:#2e3436;fill-opacity:1;stroke-width:1.40495"
       sodipodi:nodetypes="scsccsccscsss" /></g><g
     style="fill:#2e3436;fill-opacity:1;stroke-width:1.40495"
     id="g5"
     transform="matrix(0.75,0,0,0.67548435,6.6120219,-0.65390566)"><path
       fill="#2e3436"
       d="m 0.8185899,22.8188 c 0.13082,-1.0242 1.0566,-1.5523 2.0885,-1.5887 2.51476,-0.0886 5.4168651,-0.106453 8.5929101,-0.106453 3.161473,0 6.0781,0.01785 8.5929,0.106453 1.0319,0.0364 1.9577,0.5645 2.0885,1.5887 0.0418,0.3271 0.0686,0.7176 0.0686,1.1812 0,0.4636 -0.0268,0.8541 -0.0686,1.1812 -0.1308,1.0242 -1.0566,1.5523 -2.0885,1.5887 -2.5147,0.0886 -5.445999,0.08584 -8.5929,0.08584 -3.4383401,0 -6.07815,0.0028 -8.59291,-0.08584 C 1.87519,26.7335 0.94941,26.2054 0.81859,25.1812 0.77681,24.8541 0.75,24.4636 0.75,24 c 0,-0.4636 0.02681,-0.8541 0.0685899,-1.1812 z"
       id="path5"
       style="fill:#2e3436;fill-opacity:1;stroke-width:1.40495"
       sodipodi:nodetypes="scsccsccscsss" /></g><g
     style="fill:#2e3436;fill-opacity:1;stroke-width:3.33024"
     id="g6"
     transform="matrix(0.31640625,0,0,0.28496996,27.438354,12.547722)"><path
       fill="#2e3436"
       d="m -3.3445859,52.547752 c 0.21215,2.555 2.16779,4.5106 4.72272,4.7228 3.36734,0.2796 11.7876029,0.5813 19.6589029,0.5813 7.8712,0 16.291563,-0.3017 19.658863,-0.5813 2.555,-0.2122 4.5106,-2.1678 4.7228,-4.7228 C 45.6983,49.180452 46,37.797226 46,29.925926 46,22.054726 45.6983,10.6714 45.4187,7.30406 45.2065,4.74913 43.2509,2.79349 40.6959,2.58134 37.3286,2.30174 28.908237,2 21.037037,2 13.165837,2 4.7454741,2.30174 1.3781341,2.58134 c -2.55492,0.21214 -4.51057,2.16779 -4.72272,4.72272 -0.2796,3.36734 -0.58134,14.750666 -0.58134,22.621866 0,7.8712 0.30174,19.254526 0.58134,22.621826 z"
       id="path6"
       style="fill:#2e3436;fill-opacity:1;stroke-width:3.33024"
       sodipodi:nodetypes="scsccscssssss" /></g></svg>
