<?xml version="1.0" encoding="UTF-8" standalone="no"?>
<svg
   fill="none"
   viewBox="0 0 48 48"
   height="256"
   width="256"
   version="1.1"
   id="svg14"
   sodipodi:docname="pinconfig.svg"
   inkscape:version="1.3.2 (091e20e, 2023-11-25, custom)"
   xmlns:inkscape="http://www.inkscape.org/namespaces/inkscape"
   xmlns:sodipodi="http://sodipodi.sourceforge.net/DTD/sodipodi-0.dtd"
   xmlns="http://www.w3.org/2000/svg"
   xmlns:svg="http://www.w3.org/2000/svg">
  <defs
     id="defs18" />
  <sodipodi:namedview
     id="namedview16"
     pagecolor="#ffffff"
     bordercolor="#666666"
     borderopacity="1.0"
     inkscape:showpageshadow="2"
     inkscape:pageopacity="0.0"
     inkscape:pagecheckerboard="0"
     inkscape:deskcolor="#d1d1d1"
     showgrid="true"
     inkscape:zoom="0.8095703"
     inkscape:cx="674.43186"
     inkscape:cy="50.026539"
     inkscape:current-layer="svg14"
     inkscape:window-width="2560"
     inkscape:window-height="1334"
     inkscape:window-x="-11"
     inkscape:window-y="-11"
     inkscape:window-maximized="1">
    <inkscape:grid
       id="grid1"
       units="px"
       originx="0"
       originy="0"
       spacingx="0.75"
       spacingy="0.75"
       empcolor="#0099e5"
       empopacity="0.30196078"
       color="#0099e5"
       opacity="0.14901961"
       empspacing="5"
       dotted="false"
       gridanglex="30"
       gridanglez="30"
       visible="true" />
  </sodipodi:namedview>
  <path
     fill="#888a85"
     fill-rule="evenodd"
     d="M 21.33705,16.95465 C 22.01565,16.7613 22.3569,16.11555 22.39575,15.411 22.4448,14.51955 22.5,13.10388 22.5,11.25 22.5,8.933145 22.41375,5.85138 22.3611,4.187295 22.33695,3.42357 21.9813,2.715525 21.2427,2.51943 20.6913,2.37303 19.8891,2.25 18.75,2.25 17.6109,2.25 16.80855,2.37303 16.25715,2.51943 15.5187,2.71551 15.16305,3.423585 15.1389,4.187325 15.08625,5.851425 15,8.93316 15,11.25 c 0,1.853835 0.0552,3.26955 0.10425,4.161 0.0387,0.70455 0.37995,1.3503 1.0587,1.54365 0.5529,0.1575 1.3812,0.29535 2.58705,0.29535 1.20585,0 2.03415,-0.13785 2.58705,-0.29535 z"
     clip-rule="evenodd"
     id="path6"
     style="fill:#888a85;fill-opacity:1;stroke-width:1.5"
     sodipodi:nodetypes="ccscssccscssc" />
  <path
     fill="#a40000"
     fill-rule="evenodd"
     d="m 15.411,22.39575 c 0.70455,-0.03885 1.3503,-0.3801 1.54365,-1.0587 0.1575,-0.5529 0.29535,-1.3812 0.29535,-2.58705 0,-1.20585 -0.13785,-2.03415 -0.29535,-2.58705 -0.19335,-0.67875 -0.8391,-1.02 -1.54365,-1.0587 C 14.51955,15.0552 13.10382,15 11.25,15 8.93316,15 5.851425,15.08625 4.187325,15.1389 3.423585,15.16305 2.71551,15.5187 2.51943,16.25715 2.37303,16.80855 2.25,17.6109 2.25,18.75 c 0,1.1391 0.12303,1.9413 0.26943,2.4927 0.196095,0.7386 0.90414,1.09425 1.667865,1.1184 C 5.85138,22.41375 8.933145,22.5 11.25,22.5 c 1.85388,0 3.26955,-0.0552 4.161,-0.10425 z"
     clip-rule="evenodd"
     id="path7"
     style="fill:#a40000;fill-opacity:1;stroke-width:1.5"
     sodipodi:nodetypes="ccsscsccsccsc" />
  <path
     fill="#888a85"
     fill-rule="evenodd"
     d="m 44.35425,15.411 c 0.03885,0.70455 0.3801,1.3503 1.0587,1.54365 C 45.96585,17.11215 46.79415,17.25 48,17.25 v -15 c -1.1391,0 -1.9413,0.12303 -2.4927,0.26943 C 44.7687,2.715525 44.41305,3.42357 44.3889,4.187295 44.33625,5.85138 44.25,8.933145 44.25,11.25 c 0,1.85388 0.0552,3.26955 0.10425,4.161 z"
     clip-rule="evenodd"
     id="path1-9"
     style="fill:#888a85;fill-opacity:1;stroke-width:1.5"
     sodipodi:nodetypes="ccccccsc" />
  <path
     fill="#888a85"
     fill-rule="evenodd"
     d="m 34.60425,15.411 c 0.03885,0.70455 0.3801,1.3503 1.0587,1.54365 0.5529,0.1575 1.3812,0.29535 2.58705,0.29535 1.20585,0 2.03415,-0.13785 2.58705,-0.29535 0.67875,-0.19335 1.02,-0.8391 1.0587,-1.54365 C 41.9448,14.51955 42,13.10382 42,11.25 42,8.93316 41.91375,5.851425 41.8611,4.187325 41.83695,3.423585 41.4813,2.71551 40.74285,2.51943 40.19145,2.37303 39.3891,2.25 38.25,2.25 37.1109,2.25 36.3087,2.37303 35.7573,2.51943 35.0187,2.715525 34.66305,3.42357 34.6389,4.187295 34.58625,5.85138 34.5,8.933145 34.5,11.25 c 0,1.85388 0.0552,3.26955 0.10425,4.161 z"
     clip-rule="evenodd"
     id="path3-0"
     style="fill:#888a85;fill-opacity:1;stroke-width:1.5"
     sodipodi:nodetypes="ccsscsccsscsc" />
  <path
     fill="#888a85"
     fill-rule="evenodd"
     d="M 31.08705,16.95465 C 31.76565,16.7613 32.1069,16.11555 32.14575,15.411 32.1948,14.51955 32.25,13.10388 32.25,11.25 32.25,8.933145 32.16375,5.85138 32.1111,4.187295 32.08695,3.42357 31.7313,2.715525 30.9927,2.51943 30.4413,2.37303 29.6391,2.25 28.5,2.25 27.3609,2.25 26.55855,2.37303 26.00715,2.51943 25.2687,2.71551 24.91305,3.423585 24.8889,4.187325 24.83625,5.851425 24.75,8.93316 24.75,11.25 c 0,1.853835 0.0552,3.26955 0.10425,4.161 0.0387,0.70455 0.37995,1.3503 1.0587,1.54365 0.5529,0.1575 1.3812,0.29535 2.58705,0.29535 1.20585,0 2.03415,-0.13785 2.58705,-0.29535 z"
     clip-rule="evenodd"
     id="path5-9"
     style="fill:#888a85;fill-opacity:1;stroke-width:1.5"
     sodipodi:nodetypes="ccscssccscssc" />
  <path
     fill="#a40000"
     fill-rule="evenodd"
     d="m 15.411,32.14575 c 0.70455,-0.03885 1.3503,-0.3801 1.54365,-1.0587 0.1575,-0.5529 0.29535,-1.3812 0.29535,-2.58705 0,-1.20585 -0.13785,-2.03415 -0.29535,-2.58705 -0.19335,-0.67875 -0.8391,-1.02 -1.54365,-1.0587 C 14.51955,24.8052 13.10382,24.75 11.25,24.75 8.93316,24.75 5.851425,24.83625 4.187325,24.8889 3.423585,24.91305 2.71551,25.2687 2.51943,26.00715 2.37303,26.55855 2.25,27.3609 2.25,28.5 c 0,1.1391 0.12303,1.9413 0.26943,2.4927 0.196095,0.7386 0.90414,1.09425 1.667865,1.1184 1.664085,0.05265 4.74585,0.1389 7.062705,0.1389 1.85388,0 3.26955,-0.0552 4.161,-0.10425 z"
     clip-rule="evenodd"
     id="path1"
     style="fill:#a40000;fill-opacity:1;stroke-width:1.5"
     sodipodi:nodetypes="ccsscsccsccsc" />
  <path
     fill="#4e9a06"
     fill-rule="evenodd"
     d="m 15.411,41.89575 c 0.70455,-0.03885 1.3503,-0.3801 1.54365,-1.0587 0.1575,-0.5529 0.29535,-1.3812 0.29535,-2.58705 0,-1.20585 -0.13785,-2.03415 -0.29535,-2.58705 -0.19335,-0.67875 -0.8391,-1.02 -1.54365,-1.0587 C 14.51955,34.5552 13.10382,34.5 11.25,34.5 8.93316,34.5 5.851425,34.58625 4.187325,34.6389 3.423585,34.66305 2.71551,35.0187 2.51943,35.75715 2.37303,36.30855 2.25,37.1109 2.25,38.25 c 0,1.1391 0.12303,1.9413 0.26943,2.4927 0.196095,0.7386 0.90414,1.09425 1.667865,1.1184 C 5.85138,41.91375 8.933145,42 11.25,42 c 1.85388,0 3.26955,-0.0552 4.161,-0.10425 z"
     clip-rule="evenodd"
     id="path3"
     style="fill:#4e9a06;fill-opacity:1;stroke-width:1.5"
     sodipodi:nodetypes="ccsscsccsscsc" />
  <path
     fill="#4e9a06"
     fill-rule="evenodd"
     d="M 16.95465,45.41295 C 16.7613,44.73435 16.11555,44.3931 15.411,44.35425 14.51955,44.3052 13.10388,44.25 11.25,44.25 8.933145,44.25 5.85138,44.33625 4.187295,44.3889 3.42357,44.41305 2.715525,44.7687 2.51943,45.5073 2.37303,46.0587 2.25,46.8609 2.25,48 h 15 c 0,-1.20585 -0.13785,-2.03415 -0.29535,-2.58705 z"
     clip-rule="evenodd"
     id="path5"
     style="fill:#4e9a06;fill-opacity:1;stroke-width:1.5"
     sodipodi:nodetypes="ccscsccc" />
  <path
     fill="#860000"
     fill-rule="evenodd"
     d="m 14.33541,21.703057 c 0.570686,-0.03146 1.093743,-0.30788 1.250357,-0.857547 C 15.713342,20.397661 15.825,19.726738 15.825,18.75 c 0,-0.976739 -0.111658,-1.647662 -0.239233,-2.095511 C 15.429153,16.104702 14.906096,15.82829 14.33541,15.796943 13.613336,15.757212 12.466594,15.7125 10.965,15.7125 c -1.8766404,0 -4.3728458,0.06986 -5.7207667,0.112509 -0.6186294,0.01956 -1.1921702,0.307638 -1.350995,0.905782 C 3.7746543,17.177425 3.675,17.827329 3.675,18.75 c 0,0.922671 0.099654,1.572453 0.2182383,2.019087 0.158837,0.598266 0.7323534,0.886342 1.3509706,0.905904 1.3479089,0.04265 3.8441386,0.112509 5.7207911,0.112509 1.501643,0 2.648336,-0.04471 3.37041,-0.08444 z"
     clip-rule="evenodd"
     id="path8"
     style="fill:#860000;fill-opacity:1;stroke-width:1.215"
     sodipodi:nodetypes="ccsscsccsccsc" />
  <path
     fill="#860000"
     fill-rule="evenodd"
     d="m 14.33541,31.453057 c 0.570686,-0.03146 1.093743,-0.30788 1.250357,-0.857547 C 15.713342,30.147661 15.825,29.476738 15.825,28.5 c 0,-0.976739 -0.111658,-1.647662 -0.239233,-2.095511 C 15.429153,25.854702 14.906096,25.57829 14.33541,25.546943 13.613336,25.507212 12.466594,25.4625 10.965,25.4625 c -1.8766404,0 -4.3728458,0.06986 -5.7207667,0.112509 -0.6186294,0.01956 -1.1921702,0.307638 -1.350995,0.905782 C 3.7746543,26.927425 3.675,27.577329 3.675,28.5 c 0,0.922671 0.099654,1.572453 0.2182383,2.019087 0.158837,0.598266 0.7323534,0.886342 1.3509706,0.905904 1.3479089,0.04265 3.8441386,0.112509 5.7207911,0.112509 1.501643,0 2.648336,-0.04471 3.37041,-0.08444 z"
     clip-rule="evenodd"
     id="path9"
     style="fill:#860000;fill-opacity:1;stroke-width:1.215"
     sodipodi:nodetypes="ccsscsccsccsc" />
  <path
     fill="#3c7605"
     fill-rule="evenodd"
     d="m 14.33541,41.203057 c 0.570686,-0.03146 1.093743,-0.307881 1.250357,-0.857547 C 15.713342,39.897661 15.825,39.226738 15.825,38.25 c 0,-0.976739 -0.111658,-1.647661 -0.239233,-2.095511 -0.156614,-0.549787 -0.679671,-0.8262 -1.250357,-0.857547 -0.722074,-0.03973 -1.868816,-0.08444 -3.37041,-0.08444 -1.8766404,0 -4.3728458,0.06986 -5.7207667,0.112509 -0.6186294,0.01956 -1.1921702,0.307638 -1.350995,0.905783 C 3.7746543,36.677425 3.675,37.327329 3.675,38.25 c 0,0.922671 0.099654,1.572453 0.2182383,2.019087 0.158837,0.598266 0.7323534,0.886342 1.3509706,0.905904 1.3479089,0.04265 3.8441386,0.112509 5.7207911,0.112509 1.501643,0 2.648336,-0.04471 3.37041,-0.08445 z"
     clip-rule="evenodd"
     id="path11"
     style="fill:#3c7605;fill-opacity:1;stroke-width:1.215"
     sodipodi:nodetypes="ccsscsccsscsc" />
  <path
     fill="#3c7605"
     fill-rule="evenodd"
     d="m 15.825,48 c 0,-0.976739 -0.111658,-1.647661 -0.239233,-2.095511 -0.156614,-0.549787 -0.679671,-0.8262 -1.250357,-0.857547 -0.722074,-0.03973 -1.868816,-0.08444 -3.37041,-0.08444 -1.8766404,0 -4.3728458,0.06986 -5.7207667,0.112509 -0.6186294,0.01956 -1.1921702,0.307638 -1.350995,0.905783 C 3.7746543,46.427425 3.675,47.077329 3.675,48 Z"
     clip-rule="evenodd"
     id="path12"
     style="fill:#3c7605;fill-opacity:1;stroke-width:1.215"
     sodipodi:nodetypes="cscscccc" />
  <path
     fill="#2e3436"
     d="m 9.75,48 c 0,-8.06535 0.273315,-26.694 0.56061,-30.6456 0.27885,-3.835515 3.208275,-6.76494 7.04379,-7.04379 C 21.306,10.023315 39.93465,9.75 48,9.75 V 48 Z"
     id="path10"
     style="fill:#2e3436;fill-opacity:1;stroke-width:1.5"
     sodipodi:nodetypes="cccccc" />
</svg>
