<?xml version="1.0" encoding="UTF-8" standalone="no"?>
<svg
   fill="none"
   viewBox="0 0 48 48"
   height="256"
   width="256"
   version="1.1"
   id="svg4"
   sodipodi:docname="root.svg"
   inkscape:version="1.2.1 (9c6d41e410, 2022-07-14)"
   xmlns:inkscape="http://www.inkscape.org/namespaces/inkscape"
   xmlns:sodipodi="http://sodipodi.sourceforge.net/DTD/sodipodi-0.dtd"
   xmlns="http://www.w3.org/2000/svg"
   xmlns:svg="http://www.w3.org/2000/svg">
  <defs
     id="defs8" />
  <sodipodi:namedview
     id="namedview6"
     pagecolor="#ffffff"
     bordercolor="#666666"
     borderopacity="1.0"
     inkscape:showpageshadow="2"
     inkscape:pageopacity="0.0"
     inkscape:pagecheckerboard="0"
     inkscape:deskcolor="#d1d1d1"
     showgrid="false"
     inkscape:zoom="1"
     inkscape:cx="-53"
     inkscape:cy="125.5"
     inkscape:current-layer="svg4"
     inkscape:window-width="1920"
     inkscape:window-height="730"
     inkscape:window-x="-6"
     inkscape:window-y="-6"
     inkscape:window-maximized="1" />
  <path
     style="color:#000000;fill:#4e9a06;fill-opacity:1;stroke-width:1.47276;stroke-linecap:round;stroke-linejoin:round;-inkscape-stroke:none"
     d="m 29.875112,2.0001745 c -1.249741,0.015329 -2.534279,0.6413397 -3.118568,1.9212226 -0.584287,1.2798815 -0.529675,3.0084588 0.215769,5.3293766 9.8e-4,9.836e-4 0.0019,0.00191 0.0029,0.00295 0.817524,2.5036143 1.66477,3.8255463 1.990819,4.7915513 0.326051,0.966004 0.331131,1.651193 -0.555243,3.643994 -0.05093,0.113033 -0.0774,0.235542 -0.07767,0.359511 0.04936,0.219793 0.181153,0.412288 0.368244,0.537826 -0.2151,0.61753 0.294905,1.245525 0.943625,1.161936 0.01638,-0.0022 0.03254,-0.0063 0.0489,-0.0087 0.117485,0.136756 0.274142,0.234146 0.448797,0.27898 2.173088,-0.333309 2.849163,-0.149596 3.708332,0.414155 0.859171,0.563751 1.927605,1.716282 4.154254,3.146433 9.8e-4,9.83e-4 0.0019,0.0019 0.0029,0.0029 2.386108,1.516466 4.271516,1.955599 5.742307,1.42366 1.47079,-0.531939 2.166571,-2.014285 2.241109,-3.482933 0.07453,-1.46865 -0.369428,-3.053454 -1.2457,-4.360139 -0.577597,-0.861304 -1.439089,-1.483652 -2.413725,-1.91547 0.643442,-0.747261 1.101546,-1.568635 1.156516,-2.438916 C 43.57291,11.47665 43.04123,10.19649 42.197042,9.1875776 41.352855,8.1786665 40.176073,7.4151373 38.833939,7.1829495 37.9657,7.0327461 37.050276,7.2423671 36.158416,7.6344947 36.052597,6.3068569 35.583345,5.0520353 34.668178,4.1371807 33.355912,2.8253624 31.576959,1.9793894 29.875252,2.0002525 Z"
     id="path7221-9-4-2"
     sodipodi:nodetypes="csccsccccccsccssscssscscc" />
  <path
     id="path947"
     style="color:#000000;fill:#f57900;fill-opacity:1;stroke-width:1.47276;stroke-linecap:round;stroke-linejoin:round"
     d="m 22.377533,15.00689 c -0.257617,3.9e-4 -0.516509,0.0093 -0.776226,0.02751 -1.40394,0.09853 -2.832179,0.460972 -4.208014,1.118974 l -1.915481,1.140006 c -0.886035,0.639944 -1.731834,1.422285 -2.513697,2.356589 l -1.118217,1.499697 c -0.404042,0.587173 -0.998145,1.471274 -1.694858,2.545869 l -0.9574714,1.497536 c -0.4447578,0.705208 -0.9114777,1.459664 -1.3836122,2.242264 l -0.9963079,1.682513 c -0.3758166,0.647891 -0.7478992,1.30504 -1.1074291,1.961308 L 4.8571723,32.67484 c -0.4890222,0.949197 -0.9367731,1.878739 -1.3172649,2.756722 -1.0940664,2.524584 -1.6043274,4.584906 -1.53357,6.278664 0.070762,1.693759 0.8449683,3.078809 2.1576803,3.747354 1.3127031,0.668538 2.9867936,0.679451 4.9454012,0.247523 1.9586161,-0.431935 4.2328751,-1.330615 6.7869821,-2.674756 2.58841,-1.362259 7.868203,-3.766958 13.343094,-7.460733 3.749639,-2.52988 5.101719,-5.814045 4.861792,-8.935623 -0.239919,-3.121577 -1.930001,-6.038247 -3.932911,-8.286347 -1.890984,-2.122384 -4.750972,-3.345357 -7.790843,-3.340748 z"
     sodipodi:nodetypes="ssccccccccccssssccscss" />
  <path
     id="path846"
     style="color:#000000;fill:#a40000;fill-opacity:1;stroke-width:1.47276;stroke-linecap:round;stroke-linejoin:round"
     d="m 17.393293,16.153367 c -0.718452,0.330042 -1.325552,0.729661 -1.915481,1.140007 2.616327,0.833752 6.308165,3.452304 6.946111,7.416513 0.07788,0.478464 0.528248,0.803784 1.007098,0.727469 0.479695,-0.07654 0.806613,-0.527197 0.730373,-1.006808 -0.672397,-4.178382 -3.861672,-6.945352 -6.768101,-8.277181 z m -4.429178,3.496596 c -0.385914,0.379066 -0.813293,0.991195 -1.118217,1.499697 1.032967,0.280659 2.526341,0.932248 3.802911,1.894977 1.368349,1.031955 2.476279,2.389138 2.773157,4.008897 0.08723,0.478294 0.546008,0.795165 1.024359,0.707516 0.477086,-0.0885 0.792478,-0.546381 0.705021,-1.023526 -0.403476,-2.201459 -1.845329,-3.893246 -3.440959,-5.096594 -1.244752,-0.938744 -2.58875,-1.598239 -3.746272,-1.990967 z m -2.813075,4.045566 c -0.3562791,0.469491 -0.6824373,0.963072 -0.9574714,1.49754 0.09592,0.07551 0.2065083,0.130232 0.3247308,0.160701 0.8178696,0.194446 1.7962386,0.492285 2.6264356,1.075834 0.830199,0.583543 1.533302,1.419437 1.872867,2.873205 0.110945,0.472097 0.583119,0.765404 1.055646,0.655745 0.473805,-0.110868 0.767663,-0.585105 0.655934,-1.058577 -0.433394,-1.855461 -1.448708,-3.119059 -2.571955,-3.908594 -1.033395,-0.726366 -2.136499,-1.077726 -3.006187,-1.295854 z m -2.3410836,3.739804 c -0.3958506,0.533522 -0.7140134,1.100331 -0.9963079,1.682507 0.049463,0.0093 0.099632,0.01443 0.1499579,0.01509 0.3859786,-0.01178 1.0729423,0.08176 1.731538,0.431412 0.6585971,0.349664 1.3124986,0.932681 1.7666006,2.013617 0.188898,0.446416 0.703411,0.65597 1.150583,0.46862 0.447805,-0.187588 0.659018,-0.702318 0.471993,-1.150252 -0.60666,-1.444068 -1.587478,-2.369674 -2.5633245,-2.887764 -0.5988812,-0.317958 -1.186749,-0.491189 -1.7110401,-0.57324 z m -2.103737,3.643815 c -0.3228352,0.485453 -0.6231912,0.997124 -0.8490471,1.595686 0.2771096,0.05954 0.6228775,0.16922 0.9353532,0.349442 0.4300943,0.248067 0.7975562,0.597239 1.0038612,1.173441 0.1647009,0.456639 0.6682466,0.69362 1.1252301,0.52956 C 8.379244,34.563507 8.6173845,34.059836 8.453485,33.60237 8.0906173,32.58889 7.3767055,31.908967 6.67286,31.50301 6.3414993,31.311897 6.0134513,31.176499 5.7062194,31.079148 Z"
     sodipodi:nodetypes="ccccccccscccsccccscccsccccscccsscccscccsc" />
</svg>
