<?xml version="1.0" encoding="UTF-8" standalone="no"?>
<svg
   fill="none"
   viewBox="0 0 48 48"
   height="256"
   width="256"
   version="1.1"
   id="svg6"
   sodipodi:docname="select.svg"
   inkscape:version="1.2.1 (9c6d41e410, 2022-07-14)"
   xmlns:inkscape="http://www.inkscape.org/namespaces/inkscape"
   xmlns:sodipodi="http://sodipodi.sourceforge.net/DTD/sodipodi-0.dtd"
   xmlns="http://www.w3.org/2000/svg"
   xmlns:svg="http://www.w3.org/2000/svg">
  <defs
     id="defs10" />
  <sodipodi:namedview
     id="namedview8"
     pagecolor="#ffffff"
     bordercolor="#666666"
     borderopacity="1.0"
     inkscape:showpageshadow="2"
     inkscape:pageopacity="0.0"
     inkscape:pagecheckerboard="true"
     inkscape:deskcolor="#d1d1d1"
     showgrid="true"
     inkscape:zoom="1.1449053"
     inkscape:cx="71.621644"
     inkscape:cy="90.40049"
     inkscape:current-layer="svg6"
     showguides="false"
     inkscape:window-width="1920"
     inkscape:window-height="730"
     inkscape:window-x="-6"
     inkscape:window-y="-6"
     inkscape:window-maximized="1">
    <inkscape:grid
       type="xygrid"
       id="grid239"
       units="px"
       spacingx="1.5"
       spacingy="1.5" />
  </sodipodi:namedview>
  <path
     id="rect13861"
     style="fill:#2e3436;fill-opacity:1;stroke:none;stroke-width:0.375;stroke-linecap:round;stroke-linejoin:round"
     d="m 36.124878,26.297241 c 4.359296,0 7.860095,0.06057 9.058594,0.108765 0.700599,0.0281 1.385704,0.291733 1.657104,0.938232 0.2165,0.5158 0.409424,1.299282 0.409424,2.452881 0,1.153599 -0.192924,1.937062 -0.409424,2.452881 -0.2714,0.646459 -0.956505,0.910092 -1.657104,0.938232 -1.198499,0.04814 -4.699298,0.109131 -9.058594,0.109131 -4.359296,0 -7.859729,-0.06099 -9.058228,-0.109131 -0.700599,-0.02814 -1.385704,-0.291773 -1.657104,-0.938232 -0.2165,-0.515819 -0.409424,-1.299282 -0.409424,-2.452881 0,-1.153599 0.192924,-1.937081 0.409424,-2.452881 0.2713,-0.646399 0.956505,-0.910132 1.657104,-0.938232 1.198499,-0.0482 4.698932,-0.108765 9.058228,-0.108765 z"
     sodipodi:nodetypes="sccscssscsccs" />
  <path
     id="rect13441"
     style="fill:#888a85;stroke:none;stroke-width:0.375;stroke-linecap:round;stroke-linejoin:round;fill-opacity:1"
     d="m 36.124878,3.7972412 c 4.359288,0 7.860097,0.060565 9.058594,0.1087647 0.700597,0.0281 1.385704,0.2917342 1.657104,0.9382324 0.2165,0.5157985 0.409424,1.2992844 0.409424,2.4528808 0,1.1535967 -0.192924,1.9370624 -0.409424,2.4528809 -0.2714,0.646458 -0.956507,0.910092 -1.657104,0.938232 -1.198497,0.04814 -4.699306,0.109131 -9.058594,0.109131 -4.359288,0 -7.859731,-0.06099 -9.058228,-0.109131 C 26.366053,10.660092 25.680946,10.396458 25.409546,9.75 25.193046,9.2341815 25.000122,8.4507158 25.000122,7.2971191 c 0,-1.1535964 0.192924,-1.9370823 0.409424,-2.4528808 0.2713,-0.6463982 0.956507,-0.9101327 1.657104,-0.9382324 1.198497,-0.0482 4.69894,-0.1087647 9.058228,-0.1087647 z m 0,11.2499998 c 4.359292,0 7.860096,0.06057 9.058594,0.108765 0.700598,0.0281 1.385704,0.291734 1.657104,0.938232 0.2165,0.5158 0.409424,1.299283 0.409424,2.452881 0,1.153598 -0.192924,1.937063 -0.409424,2.452881 -0.2714,0.646458 -0.956506,0.910092 -1.657104,0.938232 -1.198498,0.04814 -4.699302,0.109131 -9.058594,0.109131 -4.359292,0 -7.85973,-0.06099 -9.058228,-0.109131 C 26.366052,21.910092 25.680946,21.646458 25.409546,21 c -0.2165,-0.515818 -0.409424,-1.299283 -0.409424,-2.452881 0,-1.153598 0.192924,-1.937081 0.409424,-2.452881 0.2713,-0.646398 0.956506,-0.910132 1.657104,-0.938232 1.198498,-0.0482 4.698936,-0.108765 9.058228,-0.108765 z m 0,22.5 c 4.359296,0 7.860095,0.06056 9.058594,0.108765 0.700599,0.0281 1.385704,0.291733 1.657104,0.938232 0.2165,0.5158 0.409424,1.299282 0.409424,2.452881 0,1.153599 -0.192924,1.937062 -0.409424,2.452881 -0.2714,0.646459 -0.956505,0.910092 -1.657104,0.938232 -1.198499,0.04814 -4.699298,0.109131 -9.058594,0.109131 -4.359296,0 -7.859729,-0.06099 -9.058228,-0.109131 -0.700599,-0.02814 -1.385704,-0.291773 -1.657104,-0.938232 -0.2165,-0.515819 -0.409424,-1.299282 -0.409424,-2.452881 0,-1.153599 0.192924,-1.937081 0.409424,-2.452881 0.2713,-0.646399 0.956505,-0.910132 1.657104,-0.938232 1.198499,-0.0482 4.698932,-0.108765 9.058228,-0.108765 z"
     sodipodi:nodetypes="sccscssscsccssccscssscsccssccscssscsccs" />
  <path
     fill="#2e3436"
     fill-rule="evenodd"
     d="m 11.002165,33.702994 -8.1470689,-0.315 c -1.453556,-0.0562 -2.70741871,-0.9466 -2.81384209,-2.4024 C 0.01554499,30.634494 0,30.239194 0,29.796994 c 0,-0.4423 0.01554499,-0.8376 0.04125401,-1.1887 0.10642338,-1.4559 1.36038579,-2.3463 2.81394179,-2.4025 l 8.1469692,-0.315 c 0.03129,-1.3789 0.07802,-2.5058 0.130837,-3.4219 0.109711,-1.9029 1.902367,-2.7156 3.386714,-1.5265 0.89304,0.7154 1.998827,1.6487 3.334699,2.8547 2.1195,1.9133 3.370074,3.3689 4.098097,4.367 0.729917,1.0008 0.730017,2.2652 10e-5,3.266 -0.727924,0.9981 -1.978598,2.4538 -4.098197,4.367 -1.335474,1.2054 -2.441061,2.1384 -3.333901,2.8537 -1.484646,1.1894 -3.2779,0.3765 -3.387612,-1.5267 -0.05281,-0.916 -0.09945,-2.0426 -0.130737,-3.4211 z"
     clip-rule="evenodd"
     id="path12576"
     style="stroke-width:0.998235;fill:#2e3436;fill-opacity:1" />
</svg>
