<?xml version="1.0" encoding="UTF-8" standalone="no"?>
<svg
   fill="none"
   viewBox="0 0 48 48"
   height="256"
   width="256"
   version="1.1"
   id="svg10"
   sodipodi:docname="source_analyzer.svg"
   inkscape:version="1.2.1 (9c6d41e410, 2022-07-14)"
   xmlns:inkscape="http://www.inkscape.org/namespaces/inkscape"
   xmlns:sodipodi="http://sodipodi.sourceforge.net/DTD/sodipodi-0.dtd"
   xmlns="http://www.w3.org/2000/svg"
   xmlns:svg="http://www.w3.org/2000/svg">
  <defs
     id="defs14" />
  <sodipodi:namedview
     id="namedview12"
     pagecolor="#ffffff"
     bordercolor="#111111"
     borderopacity="1"
     inkscape:showpageshadow="0"
     inkscape:pageopacity="0"
     inkscape:pagecheckerboard="1"
     inkscape:deskcolor="#d1d1d1"
     showgrid="false"
     inkscape:zoom="2.1445312"
     inkscape:cx="65.282332"
     inkscape:cy="128.4663"
     inkscape:window-width="1920"
     inkscape:window-height="730"
     inkscape:window-x="-6"
     inkscape:window-y="-6"
     inkscape:window-maximized="1"
     inkscape:current-layer="svg10" />
  <path
     fill="#edd400"
     d="M2.58134 40.6959C2.79349 43.2509 4.74913 45.2065 7.30406 45.4187C10.6714 45.6983 16.1287 46 24 46C31.8712 46 37.3286 45.6983 40.6959 45.4187C43.2509 45.2065 45.2065 43.2509 45.4187 40.6959C45.6983 37.3286 46 31.8713 46 24C46 16.1288 45.6983 10.6714 45.4187 7.30406C45.2065 4.74913 43.2509 2.79349 40.6959 2.58134C37.3286 2.30174 31.8712 2 24 2C16.1288 2 10.6714 2.30174 7.30406 2.58134C4.74914 2.79348 2.79349 4.74913 2.58134 7.30406C2.30174 10.6714 2 16.1288 2 24C2 31.8712 2.30174 37.3286 2.58134 40.6959Z"
     id="path2"
     style="fill:#edd400;fill-opacity:1" />
  <path
     fill="#a40000"
     d="M32.134 37.7081C32.1631 38.7239 32.7423 39.6275 33.7416 39.8118C34.3183 39.9181 35.0656 40 36 40C36.9344 40 37.6817 39.9181 38.2583 39.8118C39.2577 39.6275 39.8369 38.7239 39.866 37.7081C39.9222 35.7521 40 31.9654 40 26C40 20.0346 39.9222 16.2479 39.866 14.2919C39.8369 13.2761 39.2577 12.3725 38.2584 12.1882C37.6817 12.0819 36.9344 12 36 12C35.0656 12 34.3183 12.0819 33.7416 12.1882C32.7423 12.3725 32.1631 13.2761 32.134 14.2919C32.0778 16.2479 32 20.0346 32 26C32 31.9654 32.0778 35.7521 32.134 37.7081Z"
     id="path4"
     style="fill:#a40000;fill-opacity:1" />
  <path
     fill="#a40000"
     d="M20.1123 37.6735C20.1495 38.796 20.8573 39.7551 21.9725 39.8886C22.5135 39.9534 23.1857 40 24 40C24.8143 40 25.4865 39.9534 26.0275 39.8886C27.1427 39.7551 27.8505 38.796 27.8877 37.6735C27.9402 36.0868 28 33.4209 28 29.5C28 25.5791 27.9402 22.9132 27.8877 21.3265C27.8505 20.204 27.1427 19.2449 26.0275 19.1114C25.4865 19.0466 24.8143 19 24 19C23.1857 19 22.5135 19.0466 21.9725 19.1114C20.8573 19.2449 20.1495 20.204 20.1123 21.3265C20.0598 22.9132 20 25.5791 20 29.5C20 33.4209 20.0598 36.0868 20.1123 37.6735Z"
     id="path6"
     style="fill:#a40000;fill-opacity:1" />
  <path
     fill="#a40000"
     d="M8.07694 37.6355C8.12349 38.8632 8.97727 39.8589 10.203 39.9428C10.701 39.9769 11.2976 40 12 40C12.7024 40 13.299 39.9769 13.7969 39.9428C15.0227 39.8589 15.8765 38.8632 15.9231 37.6355C15.9639 36.5595 16 35.0328 16 33C16 30.9672 15.9639 29.4405 15.9231 28.3645C15.8765 27.1368 15.0227 26.1411 13.797 26.0572C13.299 26.0231 12.7024 26 12 26C11.2976 26 10.701 26.0231 10.203 26.0572C8.97728 26.1411 8.12349 27.1368 8.07694 28.3645C8.03614 29.4405 8 30.9672 8 33C8 35.0328 8.03614 36.5595 8.07694 37.6355Z"
     id="path8"
     style="fill:#a40000;fill-opacity:1" />
</svg>
