<?xml version="1.0" encoding="UTF-8" standalone="no"?>
<svg
   fill="none"
   viewBox="0 0 48 48"
   height="256"
   width="256"
   version="1.1"
   id="svg6"
   sodipodi:docname="steps.svg"
   inkscape:version="1.2.1 (9c6d41e410, 2022-07-14)"
   xmlns:inkscape="http://www.inkscape.org/namespaces/inkscape"
   xmlns:sodipodi="http://sodipodi.sourceforge.net/DTD/sodipodi-0.dtd"
   xmlns="http://www.w3.org/2000/svg"
   xmlns:svg="http://www.w3.org/2000/svg">
  <defs
     id="defs10" />
  <sodipodi:namedview
     id="namedview8"
     pagecolor="#ffffff"
     bordercolor="#666666"
     borderopacity="1.0"
     inkscape:showpageshadow="2"
     inkscape:pageopacity="0.0"
     inkscape:pagecheckerboard="true"
     inkscape:deskcolor="#d1d1d1"
     showgrid="true"
     inkscape:zoom="1.1449053"
     inkscape:cx="55.89982"
     inkscape:cy="99.134837"
     inkscape:current-layer="svg6"
     showguides="false"
     inkscape:window-width="1920"
     inkscape:window-height="730"
     inkscape:window-x="-6"
     inkscape:window-y="-6"
     inkscape:window-maximized="1">
    <inkscape:grid
       type="xygrid"
       id="grid239"
       units="px"
       spacingx="1.5"
       spacingy="1.5" />
  </sodipodi:namedview>
  <path
     style="color:#000000;fill:#888a85;fill-opacity:1;stroke-width:1.14624;stroke-linecap:round;stroke-linejoin:round;paint-order:markers fill stroke"
     d="m 33.719488,11.750849 c -0.991115,-0.121784 -1.886061,-0.112103 -2.675316,0.03358 -1.57851,0.291379 -2.778593,1.258911 -3.076054,2.708897 -0.44301,2.159483 0.500521,3.777908 1.285048,5.066311 0.392263,0.644202 0.74573,1.225818 0.929083,1.770858 0.183355,0.54504 0.222129,1.034616 0.0045,1.654443 -0.657268,1.871773 -1.5167,2.57958 -2.433531,3.416345 -0.916831,0.836765 -1.895157,1.848176 -2.234281,3.873052 -0.21914,1.308478 0.09265,2.499445 0.814909,3.416345 0.722254,0.9169 1.807917,1.564569 3.111873,2.008166 1.67104,0.568468 2.916075,0.66539 3.893201,0.329098 0.977127,-0.336292 1.570493,-1.127035 1.885035,-1.954436 0.314542,-0.827401 0.417544,-1.724148 0.52163,-2.538752 0.104091,-0.814604 0.220471,-1.548561 0.411932,-1.954436 0.749334,-1.588513 2.089854,-2.390457 3.519329,-3.42754 1.429473,-1.037082 2.917436,-2.367188 3.420822,-4.869298 0.406074,-2.018401 0.138507,-3.864423 -0.90222,-5.366305 C 41.154693,14.415301 39.400991,13.29103 36.970157,12.505315 35.796799,12.12605 34.710595,11.872638 33.71948,11.750853 l 8e-6,-4e-6"
     id="path12627" />
  <path
     style="color:#000000;fill:#2e3436;fill-opacity:1;stroke-width:1.1305;stroke-linecap:round;stroke-linejoin:round;paint-order:markers fill stroke"
     d="m 45.134362,13.564766 c 0.933066,0.332171 1.094902,1.324619 0.566085,2.138612 -0.528818,0.813993 -1.675927,1.338147 -2.608993,1.005976 -0.933067,-0.33217 -1.096123,-1.322741 -0.567305,-2.136734 0.528817,-0.813993 1.677146,-1.340024 2.610213,-1.007854"
     id="ellipse12629" />
  <path
     style="color:#000000;fill:#2e3436;fill-opacity:1;stroke-width:1.14576;stroke-linecap:round;stroke-linejoin:round;paint-order:markers fill stroke"
     d="m 37.312705,6.2031757 c 0.655052,0.1267034 1.116983,0.6552827 1.360055,1.2404667 0.243072,0.5851844 0.314117,1.2757009 0.206245,1.9901329 -0.107872,0.7144317 -0.377155,1.3368417 -0.778132,1.7974517 -0.400975,0.460609 -0.991782,0.785563 -1.646834,0.658859 -0.655052,-0.126703 -1.119181,-0.655707 -1.362253,-1.240892 -0.243073,-0.585184 -0.314452,-1.273487 -0.20658,-1.9879191 0.107872,-0.714432 0.37749,-1.3390558 0.778467,-1.799665 0.400976,-0.4606091 0.99398,-0.7851376 1.649032,-0.6584342"
     id="ellipse12631" />
  <path
     style="color:#000000;fill:#2e3436;fill-opacity:1;stroke-width:1.14597;stroke-linecap:round;stroke-linejoin:round;paint-order:markers fill stroke"
     d="m 31.403953,2.0126933 c 1.000297,0.1018592 1.820606,0.7927293 2.33244,1.6950195 0.511833,0.9022901 0.76007,2.0435679 0.674676,3.2558792 -0.08539,1.2123113 -0.48973,2.2871383 -1.120479,3.07308 -0.630751,0.785943 -1.536011,1.3011 -2.536309,1.19924 -1.000298,-0.101859 -1.822834,-0.792956 -2.334668,-1.6952459 -0.511832,-0.9022901 -0.757842,-2.043341 -0.672448,-3.2556524 0.08539,-1.2123113 0.487502,-2.287365 1.118252,-3.0733072 0.630751,-0.785942 1.538238,-1.3008725 2.538536,-1.1990132"
     id="ellipse12633" />
  <path
     style="color:#000000;fill:#2e3436;fill-opacity:1;stroke-width:1.14597;stroke-linecap:round;stroke-linejoin:round;paint-order:markers fill stroke"
     d="m 41.957186,9.6379113 c 0.515335,0.1795158 0.827681,0.6329267 0.944622,1.0991687 0.116943,0.466243 0.07297,0.978663 -0.119937,1.481855 -0.192903,0.503194 -0.505883,0.921906 -0.910634,1.206419 -0.404749,0.284512 -0.950182,0.439116 -1.465516,0.2596 -0.515333,-0.179515 -0.829795,-0.633662 -0.946737,-1.099904 -0.116942,-0.466243 -0.07297,-0.978662 0.119938,-1.481856 0.192903,-0.503193 0.505883,-0.921906 0.910633,-1.2064176 0.404749,-0.2845123 0.952298,-0.4383804 1.467631,-0.2588651"
     id="ellipse12635" />
  <path
     style="color:#000000;fill:#2e3436;fill-opacity:1;stroke-width:1.14624;stroke-linecap:round;stroke-linejoin:round;paint-order:markers fill stroke"
     d="m 14.280133,21.502498 c 0.991115,-0.121783 1.886061,-0.112102 2.675316,0.03359 1.57851,0.291379 2.778593,1.258911 3.076054,2.708898 0.44301,2.159483 -0.500521,3.777908 -1.285048,5.06631 -0.392263,0.644202 -0.74573,1.225818 -0.929083,1.770858 -0.183355,0.545041 -0.222129,1.034616 -0.0045,1.654443 0.657268,1.871774 1.5167,2.579581 2.433531,3.416345 0.916831,0.836765 1.895157,1.848177 2.234281,3.873053 0.21914,1.308478 -0.09265,2.499444 -0.814909,3.416344 -0.722254,0.9169 -1.807917,1.56457 -3.111873,2.008166 -1.67104,0.568469 -2.916075,0.665391 -3.893201,0.329099 C 13.683603,45.443307 13.090237,44.652563 12.775695,43.825163 12.461153,42.997761 12.358151,42.101014 12.254065,41.28641 12.149974,40.471807 12.033594,39.737849 11.842133,39.331974 11.092799,37.743461 9.7522787,36.941517 8.3228043,35.904435 6.8933311,34.867353 5.4053685,33.537246 4.9019815,31.035136 4.4959084,29.016735 4.7634751,27.170713 5.8042019,25.668832 6.8449275,24.16695 8.5986297,23.042679 11.029464,22.256964 12.202822,21.8777 13.289026,21.624287 14.280141,21.502502 l -8e-6,-4e-6"
     id="path12627-4" />
  <path
     style="color:#000000;fill:#888a85;fill-opacity:1;stroke-width:1.1305;stroke-linecap:round;stroke-linejoin:round;-inkscape-stroke:none;paint-order:markers fill stroke"
     d="m 2.8652593,23.316416 c -0.9330666,0.33217 -1.0949025,1.324619 -0.5660851,2.138612 0.5288175,0.813993 1.6759266,1.338146 2.6089932,1.005976 C 5.841234,26.128833 6.0042895,25.138262 5.4754721,24.324269 4.9466546,23.510276 3.798326,22.984245 2.8652593,23.316416"
     id="ellipse12629-6" />
  <path
     style="color:#000000;fill:#888a85;fill-opacity:1;stroke-width:1.14576;stroke-linecap:round;stroke-linejoin:round;-inkscape-stroke:none;paint-order:markers fill stroke"
     d="m 10.686916,15.954825 c -0.655052,0.126703 -1.1169835,0.655283 -1.3600548,1.240467 -0.2430725,0.585184 -0.3141177,1.275701 -0.2062457,1.990133 0.107872,0.714432 0.3771558,1.336842 0.7781324,1.797451 0.4009751,0.460609 0.9917821,0.785563 1.6468341,0.658859 0.655052,-0.126703 1.119181,-0.655707 1.362253,-1.240892 0.243073,-0.585184 0.314452,-1.273487 0.20658,-1.987919 -0.107872,-0.714432 -0.37749,-1.339056 -0.778467,-1.799665 -0.400976,-0.460609 -0.99398,-0.785137 -1.649032,-0.658434"
     id="ellipse12631-0" />
  <path
     style="color:#000000;fill:#888a85;fill-opacity:1;stroke-width:1.14597;stroke-linecap:round;stroke-linejoin:round;-inkscape-stroke:none;paint-order:markers fill stroke"
     d="m 16.595668,11.764343 c -1.000297,0.101859 -1.820606,0.792729 -2.33244,1.695019 -0.511833,0.90229 -0.76007,2.043568 -0.674676,3.255879 0.08539,1.212312 0.48973,2.287139 1.120479,3.073081 0.630751,0.785942 1.536011,1.301099 2.536309,1.19924 1.000298,-0.10186 1.822834,-0.792956 2.334668,-1.695247 0.511832,-0.90229 0.757842,-2.043341 0.672448,-3.255652 -0.08539,-1.212311 -0.487502,-2.287365 -1.118252,-3.073307 -0.630751,-0.785942 -1.538238,-1.300873 -2.538536,-1.199013"
     id="ellipse12633-9" />
  <path
     style="color:#000000;fill:#888a85;fill-opacity:1;stroke-width:1.14597;stroke-linecap:round;stroke-linejoin:round;-inkscape-stroke:none;paint-order:markers fill stroke"
     d="m 6.0424348,19.389561 c -0.5153343,0.179515 -0.8276804,0.632926 -0.9446219,1.099169 -0.1169425,0.466242 -0.072966,0.978662 0.119937,1.481855 0.1929033,0.503193 0.5058832,0.921905 0.9106337,1.206418 0.404749,0.284513 0.9501824,0.439117 1.4655167,0.259601 C 8.1092335,23.257088 8.4236951,22.802942 8.5406365,22.336699 8.6575786,21.870456 8.6136023,21.358037 8.4206991,20.854843 8.2277963,20.351651 7.914816,19.932938 7.5100659,19.648426 7.1053169,19.363913 6.557768,19.210045 6.0424348,19.389561"
     id="ellipse12635-6" />
</svg>
