<?xml version="1.0" encoding="UTF-8" standalone="no"?>
<svg
   fill="none"
   viewBox="0 0 48 48"
   height="256"
   width="256"
   version="1.1"
   id="svg6"
   sodipodi:docname="target.svg"
   inkscape:version="1.2.1 (9c6d41e410, 2022-07-14)"
   xmlns:inkscape="http://www.inkscape.org/namespaces/inkscape"
   xmlns:sodipodi="http://sodipodi.sourceforge.net/DTD/sodipodi-0.dtd"
   xmlns="http://www.w3.org/2000/svg"
   xmlns:svg="http://www.w3.org/2000/svg">
  <defs
     id="defs10" />
  <sodipodi:namedview
     id="namedview8"
     pagecolor="#ffffff"
     bordercolor="#111111"
     borderopacity="1"
     inkscape:showpageshadow="0"
     inkscape:pageopacity="0"
     inkscape:pagecheckerboard="1"
     inkscape:deskcolor="#d1d1d1"
     showgrid="false"
     inkscape:zoom="1.0722656"
     inkscape:cx="21.449909"
     inkscape:cy="56.422586"
     inkscape:window-width="1920"
     inkscape:window-height="730"
     inkscape:window-x="-6"
     inkscape:window-y="-6"
     inkscape:window-maximized="1"
     inkscape:current-layer="svg6" />
  <path
     fill="#edd400"
     d="M24 2C36.1503 2 46 11.8497 46 24C46 36.1503 36.1503 46 24 46C11.8497 46 2 36.1503 2 24C2 11.8497 11.8497 2 24 2Z"
     id="path2"
     style="fill:#edd400;fill-opacity:1" />
  <path
     fill="#a40000"
     fill-rule="evenodd"
     d="M39.5078 2.14192C39.2634 1.54917 38.5318 1.38907 38.0501 1.81221C37.0204 2.71679 35.3291 4.27293 33.8744 5.94191C33.3015 6.59912 33.0956 7.49088 33.2976 8.33897C33.4549 8.99932 33.6654 9.81885 33.9065 10.5944C31.2686 13.3566 28.0164 16.948 25.857 19.3562C25.2829 19.1264 24.6562 19 24 19C21.2386 19 19 21.2386 19 24C19 26.7614 21.2386 29 24 29C26.7614 29 29 26.7614 29 24C29 23.3421 28.873 22.714 28.6421 22.1387C31.0458 19.9781 34.6291 16.7261 37.3886 14.0882C38.1518 14.3261 38.9592 14.5345 39.6165 14.6918C40.4896 14.9007 41.4074 14.6748 42.0823 14.0827C43.9603 12.4349 45.396 10.8817 46.2184 9.93603C46.6325 9.45987 46.4704 8.74547 45.8873 8.50426C44.9207 8.10445 43.4033 7.54419 41.6519 7.14047C41.2585 7.04979 40.9503 6.74156 40.8596 6.34817C40.4598 4.61424 39.9067 3.10965 39.5078 2.14192ZM28.6616 8.68971C29.2588 8.87131 29.4847 9.56473 29.1103 10.0642C28.4621 10.929 27.3768 12.2287 25.9563 13.396C25.413 13.8424 24.7031 14 24 14C18.4772 14 14 18.4772 14 24C14 29.5228 18.4772 34 24 34C29.5228 34 34 29.5228 34 24C34 23.2842 34.1609 22.5613 34.6176 22.0101C35.7797 20.6074 37.0684 19.528 37.928 18.8797C38.4276 18.5029 39.124 18.7276 39.3066 19.3262C39.7575 20.8047 40 22.374 40 24C40 32.8366 32.8366 40 24 40C15.1634 40 8 32.8366 8 24C8 15.1634 15.1634 8 24 8C25.6215 8 27.1867 8.24121 28.6616 8.68971Z"
     clip-rule="evenodd"
     id="path4"
     style="fill:#a40000;fill-opacity:1" />
</svg>
