<?xml version="1.0" encoding="UTF-8" standalone="no"?>
<svg
   fill="none"
   viewBox="0 0 48 48"
   height="256"
   width="256"
   version="1.1"
   id="svg2451"
   sodipodi:docname="trade.svg"
   inkscape:version="1.3.2 (091e20e, 2023-11-25, custom)"
   xmlns:inkscape="http://www.inkscape.org/namespaces/inkscape"
   xmlns:sodipodi="http://sodipodi.sourceforge.net/DTD/sodipodi-0.dtd"
   xmlns="http://www.w3.org/2000/svg"
   xmlns:svg="http://www.w3.org/2000/svg">
  <defs
     id="defs2455" />
  <sodipodi:namedview
     id="namedview2453"
     pagecolor="#ffffff"
     bordercolor="#111111"
     borderopacity="1"
     inkscape:showpageshadow="0"
     inkscape:pageopacity="0"
     inkscape:pagecheckerboard="1"
     inkscape:deskcolor="#d1d1d1"
     showgrid="false"
     inkscape:zoom="3.0328251"
     inkscape:cx="148.8711"
     inkscape:cy="158.43314"
     inkscape:window-width="2560"
     inkscape:window-height="1334"
     inkscape:window-x="-11"
     inkscape:window-y="-11"
     inkscape:window-maximized="1"
     inkscape:current-layer="svg2451" />
  <path
     fill="#4e9a06"
     d="m 28.157437,8.0951186 c -0.6016,1.166149 -1.9901,1.336219 -3.2925,1.176799 -7.0583,-0.863949 -13.8565,3.5778414 -15.7498004,10.6437414 -0.94363,3.5217 -0.12771,7.7848 1.4184004,10.9483 1.0395,-0.5645 1.9098,-1.0162 2.6341,-1.3774 1.6564,-0.8259 3.2234,0.277 3.01,2.1155 -0.1317,1.1357 -0.3371,2.5783 -0.6558,4.3727 -0.4616,2.5998 -0.9818,4.3311 -1.4138,5.4484 -0.4766,1.2329 -1.6414,1.9055 -2.9475,1.7019 -1.1836001,-0.1845 -2.9431504,-0.5996 -5.4253904,-1.5 -1.71279,-0.6212 -3.06444,-1.1645 -4.11379,-1.6182 -1.69925997,-0.7347 -1.87099997,-2.6436 -0.3272,-3.6653 0.60795,-0.4023 1.33882,-0.8705 2.21503,-1.4112 -2.41599,-5.2435 -2.62867999,-11.3285 -1.15552,-16.8265 C 5.2483666,7.3007486 15.875737,0.63450866 26.685137,2.4644786 c 1.2937,0.21902 2.3904,1.12513 2.3283,2.43581 -0.022,0.46531 -0.0993,1.01204 -0.2677,1.64038 -0.1684,0.62834 -0.3748,1.14045 -0.5883,1.55445 z"
     id="path2"
     style="fill:#4e9a06;fill-opacity:1" />
  <path
     fill="#4e9a06"
     d="m 23.160767,37.811888 c -1.3024,-0.1594 -2.6909,0.0107 -3.2925,1.1768 -0.2135,0.414 -0.42,0.9262 -0.5883,1.5545 -0.1684,0.6283 -0.2457,1.1751 -0.2677,1.6404 -0.0622,1.3106 1.0346,2.2168 2.3283,2.4358 10.8094,1.83 21.4367,-4.8363 24.3314,-15.6394 1.4732,-5.4979 1.2605,-11.5829 -1.1555,-16.8265 0.8762,-0.5407 1.6071,-1.0089 2.215,-1.4112 1.5439,-1.021701 1.3721,-2.93064 -0.3271,-3.6653 -1.0494,-0.45367 -2.401,-0.99698 -4.1138,-1.61822 -2.4823,-0.90033 -4.2418,-1.31548 -5.4254,-1.49999 -1.3061,-0.20361 -2.4709,0.46899 -2.9476,1.70193 -0.4319,1.11727 -0.9521,2.848559 -1.4138,5.44838 -0.3186,1.7944 -0.524,3.237 -0.6558,4.3727 -0.2133,1.8386 1.3537,2.9414 3.0101,2.1155 0.7243,-0.3612 1.5946,-0.8129 2.6341,-1.3774 1.5461,3.1635 2.362,7.4266 1.4184,10.9483 -1.8933,7.0659 -8.6915,11.5077 -15.7498,10.6437 z"
     id="path4"
     style="fill:#4e9a06;fill-opacity:1" />
  <g
     id="g1"
     transform="matrix(0.5625,0,0,0.5625,11.170589,10.737825)">
    <path
       fill="#73d216"
       d="M 22.0004,34.592 C 12.3616,37.2058 6.70411,35.5839 4.30904,34.4845 3.37787,34.0571 2.77292,33.208 2.60752,32.1969 2.33491,30.5302 2,27.2376 2,21.1186 2,17.1143 2.14342,14.3204 2.31895,12.4005 2.49951,10.4255 4.63478,9.56291 6.54816,10.0846 9.58384,10.9124 14.6273,11.3914 22.0004,9.39195 31.6441,6.77679 37.302,8.44422 39.6948,9.5672 c 0.9295,0.4363 1.5299,1.292 1.6952,2.3055 0.2731,1.6742 0.61,4.9756 0.61,11.074 0,3.9444 -0.1409,6.7188 -0.3144,8.6395 -0.1805,1.9985 -2.3601,2.8772 -4.2945,2.3433 -3.0418,-0.8397 -8.0668,-1.3236 -15.3907,0.6625 z"
       id="path2443"
       style="fill:#73d216;fill-opacity:1" />
    <path
       fill="#4e9a06"
       d="m 21.514,26.0251 c 0.7776,0 1.3391,-0.1338 1.6847,-0.4015 0.36,-0.2677 0.54,-0.5956 0.54,-0.9837 0,-0.348 -0.1368,-0.629 -0.4104,-0.8432 -0.2736,-0.2141 -0.684,-0.4015 -1.2311,-0.5621 l -1.1879,-0.3613 c -0.5904,-0.174 -1.1231,-0.3614 -1.5983,-0.5621 -0.4751,-0.2008 -0.8783,-0.4417 -1.2095,-0.7227 -0.3312,-0.2811 -0.5903,-0.6157 -0.7775,-1.0038 -0.1872,-0.3881 -0.2808,-0.8499 -0.2808,-1.3852 0,-0.9101 0.3024,-1.6663 0.9071,-2.2685 0.6048,-0.6023 1.4687,-1.0038 2.5918,-1.2045 v -0.7917 c 0,-0.4651 0.3206,-0.8783 0.7841,-0.9168 C 21.469,14.0062 21.6116,14 21.7516,14 c 0.5328,0 0.9143,0.087 1.1447,0.261 0.2448,0.174 0.3672,0.4885 0.3672,0.9435 v 0.4417 c 0.9215,0.0937 1.6703,0.3011 2.2462,0.6223 0.576,0.3078 0.8639,0.716 0.8639,1.2246 0,0.3224 -0.1191,0.6109 -0.3119,0.8576 -0.2477,0.3171 -0.7054,0.2981 -1.0786,0.1478 -0.2212,-0.089 -0.4704,-0.1698 -0.7477,-0.2425 -0.5471,-0.1606 -1.1447,-0.2409 -1.7926,-0.2409 -0.72,0 -1.2599,0.1137 -1.6199,0.3412 -0.3456,0.2142 -0.5184,0.4952 -0.5184,0.8432 0,0.2811 0.1152,0.5086 0.3456,0.6826 0.2448,0.1739 0.612,0.3345 1.1015,0.4818 l 1.2095,0.3412 c 1.2959,0.3748 2.2894,0.87 2.9806,1.4856 0.7055,0.6157 1.0583,1.4454 1.0583,2.4894 0,0.9234 -0.3168,1.7064 -0.9503,2.3488 -0.6336,0.629 -1.5623,1.0506 -2.7862,1.2647 v 0.7716 c 0,0.4651 -0.3206,0.8783 -0.7841,0.9168 C 22.3367,29.9939 22.1941,30 22.054,30 21.5212,30 21.1325,29.913 20.8877,29.739 20.6573,29.565 20.5421,29.2505 20.5421,28.7955 V 28.394 C 19.491,28.2869 18.6343,28.0527 17.9719,27.6913 17.324,27.3166 17,26.8482 17,26.2861 c 0,-0.4206 0.2031,-0.7703 0.5064,-1.0445 0.2906,-0.2627 0.7248,-0.1991 1.0632,-0.0016 0.2687,0.1568 0.5735,0.3048 0.9142,0.4438 0.5904,0.2275 1.2671,0.3413 2.0302,0.3413 z"
       id="path2445"
       style="fill:#4e9a06;fill-opacity:1" />
    <path
       fill="#4e9a06"
       d="m 32.0028,20.1356 c 0.0099,-0.6228 0.4158,-1.0702 1.0378,-1.1034 C 33.392,19.0134 33.8651,19 34.5,19 c 0.6349,0 1.108,0.0134 1.4594,0.0322 0.622,0.0332 1.0279,0.4806 1.0378,1.1034 C 36.999,20.2456 37,20.3668 37,20.5 c 0,0.1332 -10e-4,0.2544 -0.0028,0.3644 -0.0099,0.6228 -0.4158,1.0702 -1.0378,1.1034 C 35.608,21.9866 35.1349,22 34.5,22 33.8651,22 33.392,21.9866 33.0406,21.9678 32.4186,21.9346 32.0127,21.4872 32.0028,20.8644 32.001,20.7544 32,20.6332 32,20.5 c 0,-0.1332 10e-4,-0.2544 0.0028,-0.3644 z"
       id="path2447"
       style="fill:#4e9a06;fill-opacity:1" />
    <path
       fill="#4e9a06"
       d="m 7.13825,22.7229 c -0.06444,-0.6196 0.2852,-1.1122 0.8988,-1.2194 0.34656,-0.0606 0.8147,-0.1303 1.44509,-0.2061 0.63036,-0.0758 1.10176,-0.1189 1.45276,-0.1422 0.6215,-0.0412 1.0779,0.3546 1.1621,0.9717 0.0149,0.109 0.0304,0.2292 0.0463,0.3615 0.0159,0.1322 0.0293,0.2527 0.0407,0.3621 0.0644,0.6195 -0.2852,1.1122 -0.8988,1.2194 -0.3466,0.0606 -0.8147,0.1303 -1.44509,0.2061 C 9.20972,24.3517 8.73838,24.3949 8.38734,24.4182 7.76581,24.4594 7.3094,24.0636 7.2252,23.4464 7.21033,23.3374 7.19488,23.2173 7.17898,23.085 7.16309,22.9527 7.14963,22.8323 7.13825,22.7229 Z"
       id="path2449"
       style="fill:#4e9a06;fill-opacity:1" />
  </g>
</svg>
