<?xml version="1.0" encoding="UTF-8" standalone="no"?>
<svg
   fill="none"
   viewBox="0 0 48 48"
   height="256"
   width="256"
   version="1.1"
   id="svg6"
   sodipodi:docname="tree_find_auto.svg"
   inkscape:version="1.2.1 (9c6d41e410, 2022-07-14)"
   xmlns:inkscape="http://www.inkscape.org/namespaces/inkscape"
   xmlns:sodipodi="http://sodipodi.sourceforge.net/DTD/sodipodi-0.dtd"
   xmlns="http://www.w3.org/2000/svg"
   xmlns:svg="http://www.w3.org/2000/svg">
  <defs
     id="defs10" />
  <sodipodi:namedview
     id="namedview8"
     pagecolor="#ffffff"
     bordercolor="#666666"
     borderopacity="1.0"
     inkscape:showpageshadow="2"
     inkscape:pageopacity="0.0"
     inkscape:pagecheckerboard="true"
     inkscape:deskcolor="#d1d1d1"
     showgrid="true"
     inkscape:zoom="1.1449053"
     inkscape:cx="27.076475"
     inkscape:cy="91.273925"
     inkscape:current-layer="svg6"
     inkscape:window-width="1920"
     inkscape:window-height="730"
     inkscape:window-x="-6"
     inkscape:window-y="-6"
     inkscape:window-maximized="1">
    <inkscape:grid
       type="xygrid"
       id="grid239"
       units="px"
       spacingx="1.5"
       spacingy="1.5" />
  </sodipodi:namedview>
  <path
     id="path10725"
     style="color:#000000;fill:#4e9a06;fill-opacity:1;fill-rule:evenodd;stroke-width:1.02656;stroke-linecap:round;stroke-linejoin:round"
     d="M 23.998169 33.866821 C 19.13905 33.867354 14.280028 34.811708 10.311401 36.723633 C 6.342774 38.635558 3.2518866 41.534103 2.0467529 45.421875 C 1.956812 45.710095 2.1800061 46.000713 2.4909668 46.000122 L 32.241577 46.000122 C 32.012953 45.751983 31.777424 45.437509 31.552734 45.042847 C 31.04627 44.153293 30.917142 43.423066 30.927612 42.95105 C 30.937687 42.489758 31.130159 42.144669 31.296753 41.925659 C 31.452392 41.721113 31.881318 41.230388 32.267578 40.791138 C 32.255738 40.616762 32.228394 40.446678 32.228394 40.269653 C 32.228394 40.092255 32.255688 39.920699 32.267578 39.745972 C 31.88133 39.306721 31.452395 38.816001 31.296753 38.61145 C 31.129917 38.392157 30.937832 38.046696 30.927612 37.58606 C 30.916985 37.113233 31.046317 36.383785 31.552734 35.494263 C 31.71305 35.212687 31.878591 34.972008 32.043457 34.766968 C 29.467279 34.165013 26.732589 33.866521 23.998169 33.866821 z " />
  <path
     id="path6401"
     style="color:#000000;fill:#8f5902;fill-opacity:1;fill-rule:evenodd;stroke-width:1.02656;stroke-linejoin:round"
     d="M 21.089355 10.222778 C 21.026023 10.221573 20.961308 10.232916 20.898926 10.258667 L 19.097534 11.002441 C 18.926189 11.072361 18.814801 11.234755 18.814453 11.414795 L 18.814453 24.214966 L 10.046631 19.868774 C 9.7386402 19.715794 9.3723927 19.932052 9.3720703 20.267212 L 9.3720703 22.141479 C 9.3724146 22.309695 9.4699913 22.463848 9.6247559 22.540283 L 18.814453 27.097412 L 18.814453 41.209717 C 18.815129 41.599704 19.294179 41.803111 19.59082 41.539307 L 20.574829 40.665527 L 22.365967 40.014404 L 24.265137 41.257324 C 24.454071 41.381664 24.708127 41.353939 24.863892 41.192139 L 25.671021 40.355713 L 27.455933 41.265015 C 27.764657 41.424027 28.136898 41.206995 28.136353 40.868408 L 28.136353 30.562866 C 28.023926 30.40711 27.912104 30.234951 27.802734 30.042847 C 27.29627 29.153293 27.167142 28.423066 27.177612 27.95105 C 27.187687 27.489758 27.380159 27.144669 27.546753 26.925659 C 27.702392 26.721113 28.131318 26.230388 28.517578 25.791138 C 28.505738 25.616762 28.478394 25.446678 28.478394 25.269653 C 28.478394 25.092255 28.505688 24.920699 28.517578 24.745972 C 28.13133 24.306721 27.702395 23.816001 27.546753 23.61145 C 27.379917 23.392157 27.187832 23.046696 27.177612 22.58606 C 27.166985 22.113233 27.296317 21.383785 27.802734 20.494263 C 28.309202 19.604712 28.870054 19.121271 29.285156 18.890625 L 29.286987 18.890625 C 29.469723 18.789162 29.650871 18.733861 29.820557 18.705322 L 34.420532 12.127075 C 34.634666 11.822594 34.399304 11.411684 34.019165 11.426514 L 30.874878 11.541138 C 30.741431 11.545938 30.616926 11.60621 30.532837 11.706665 L 24.399536 19.077759 L 21.520386 10.531128 C 21.456771 10.344019 21.279354 10.226395 21.089355 10.222778 z " />
  <path
     style="color:#000000;fill:#729fcf;fill-opacity:1;fill-rule:evenodd;stroke-width:0.911252;stroke-linecap:round;stroke-linejoin:round"
     d="m 24.430979,29.632145 a 0.9555417,1.7892122 0 0 1 -0.955541,1.789212 0.9555417,1.7892122 0 0 1 -0.955543,-1.789212 0.9555417,1.7892122 0 0 1 0.955543,-1.789212 0.9555417,1.7892122 0 0 1 0.955541,1.789212 z"
     id="path10654" />
  <path
     style="color:#000000;fill:#2e3436;fill-opacity:1;fill-rule:evenodd;stroke-width:1.02656;stroke-linecap:round;stroke-linejoin:round"
     d="m 23.476428,27.395487 c -0.505831,-1e-6 -0.871024,0.359063 -1.088081,0.765494 -0.217058,0.406431 -0.33213,0.915074 -0.33213,1.471798 0,0.556724 0.115072,1.063394 0.33213,1.469825 0.217057,0.406431 0.58225,0.767467 1.088081,0.767466 0.505831,0 0.868987,-0.361035 1.086044,-0.767466 0.217058,-0.406431 0.33213,-0.913101 0.33213,-1.469825 0,-0.556723 -0.115072,-1.065367 -0.33213,-1.471798 -0.217057,-0.406431 -0.580213,-0.765494 -1.086044,-0.765494 z"
     id="path10656"
     sodipodi:nodetypes="sssssssss" />
  <path
     id="path6769"
     style="color:#000000;fill:#4e9a06;fill-opacity:1;fill-rule:evenodd;stroke-width:1.02656;stroke-linecap:round;stroke-linejoin:round"
     d="M 16.654541 2.0002441 C 12.063685 2.000203 8.2941807 5.3415082 8.2943115 9.4991455 C 8.2950064 9.8537709 8.3601877 10.204056 8.416626 10.554565 C 4.8169591 10.964213 2.0016298 13.650419 2.0002441 16.990356 C 2.0016641 19.208047 3.3202654 21.198637 5.3499756 22.401855 C 5.2442798 22.777512 5.1460071 23.157478 5.1459961 23.546265 C 5.1460721 26.152284 7.508197 28.234195 10.360474 28.234131 C 13.212749 28.234195 15.572312 26.152284 15.572388 23.546265 C 15.572234 22.724959 15.231364 21.955445 14.782104 21.249756 C 15.232543 20.782113 15.537708 20.235185 15.823242 19.679443 C 16.282878 22.393063 18.788389 24.489244 21.901245 24.489258 C 24.30642 24.489247 26.36032 23.241854 27.379761 21.422241 C 27.470668 21.154751 27.598366 20.862298 27.771973 20.549927 C 27.891743 20.205032 27.977336 19.846008 28.024292 19.476196 C 28.101871 19.5862 28.184862 19.691984 28.272217 19.794067 C 28.635451 19.335673 28.995781 19.051412 29.285156 18.890625 L 29.286987 18.890625 C 29.695797 18.663636 30.099589 18.659736 30.375 18.697266 C 30.637779 18.733089 31.292431 18.865898 31.88855 18.994263 C 32.136906 18.827819 32.39375 18.677232 32.661987 18.540894 C 32.851802 17.946557 33.06695 17.300227 33.168091 17.050781 C 33.271142 16.796592 33.47097 16.452246 33.865356 16.208862 C 34.269448 15.959529 34.969732 15.707153 35.990112 15.707153 C 37.010493 15.707153 37.709307 15.959524 38.113403 16.208862 C 38.50793 16.452328 38.707779 16.797264 38.810669 17.050781 C 38.911827 17.300272 39.126597 17.946598 39.316406 18.540894 C 39.584645 18.677232 39.841491 18.827819 40.089844 18.994263 C 40.686604 18.865688 41.340375 18.733126 41.603394 18.697266 C 41.879391 18.659663 42.28338 18.664426 42.691406 18.890625 L 42.693237 18.890625 C 43.108762 19.121427 43.669185 19.604765 44.175659 20.494263 C 44.682106 21.383839 44.811291 22.113918 44.800781 22.58606 C 44.790267 23.045587 44.598696 23.391848 44.431641 23.61145 C 44.27594 23.8161 43.847047 24.306744 43.460815 24.745972 C 43.472705 24.920722 43.5 25.092269 43.5 25.269653 C 43.5 25.415389 43.482366 25.556616 43.469238 25.699219 C 45.015938 24.498685 46.000111 22.725186 46.000122 20.737061 C 45.999973 17.401288 43.189828 14.744142 39.614136 14.321045 C 40.316337 13.118483 40.755075 11.80318 40.755249 10.436279 C 40.755257 5.7615972 36.51603 2.0002998 31.345825 2.0002441 C 28.286882 2.0017896 25.475614 3.3738862 23.716919 5.6026611 C 22.199412 3.3935067 19.563096 2.0004986 16.654541 2.0002441 z " />
  <path
     fill="#2e3436"
     fill-rule="evenodd"
     d="m 38.895715,32.025679 c 0.03566,-0.08796 0.08906,-0.167892 0.169837,-0.21774 0.1872,-0.115508 0.621075,-0.307935 1.43445,-0.307935 0.813375,0 1.24725,0.192427 1.43445,0.307935 0.08078,0.04985 0.134138,0.129776 0.169838,0.21774 0.127462,0.314366 0.447825,1.132451 0.636637,1.861972 0.598313,0.235362 1.151625,0.562204 1.643288,0.963578 0.71625,-0.198788 1.5741,-0.326513 1.908075,-0.372041 0.09439,-0.01286 0.190387,-0.0059 0.273562,0.04031 0.192413,0.106875 0.5733,0.391875 0.979613,1.105463 0.406275,0.713625 0.459187,1.190624 0.454237,1.413075 -0.0022,0.09615 -0.04418,0.183937 -0.102337,0.260399 -0.205763,0.270451 -0.743475,0.959551 -1.271175,1.489125 0.04755,0.313763 0.07219,0.635176 0.07219,0.962438 0,0.327263 -0.02464,0.648637 -0.07219,0.9624 0.5277,0.529575 1.065412,1.218675 1.271175,1.489125 0.05816,0.07646 0.1002,0.16425 0.102337,0.2604 0.005,0.22245 -0.04796,0.69945 -0.454237,1.413075 -0.406313,0.713588 -0.7872,0.99855 -0.979613,1.105463 -0.08317,0.0462 -0.179175,0.05318 -0.273562,0.04031 -0.333975,-0.04552 -1.191788,-0.17325 -1.908038,-0.372037 -0.491662,0.4014 -1.045012,0.72825 -1.643325,0.9636 -0.188812,0.729525 -0.509175,1.547625 -0.636637,1.861987 -0.0357,0.08798 -0.08906,0.167888 -0.169838,0.217725 C 41.747252,47.807588 41.313377,48 40.500002,48 c -0.813375,0 -1.24725,-0.192412 -1.43445,-0.30795 -0.08077,-0.04984 -0.134175,-0.12975 -0.169837,-0.217725 -0.127463,-0.314362 -0.447863,-1.132462 -0.636638,-1.861987 -0.59835,-0.23535 -1.151662,-0.5622 -1.643325,-0.9636 -0.716249,0.198787 -1.574062,0.326512 -1.908037,0.372037 -0.09437,0.01286 -0.19038,0.0059 -0.273555,-0.04031 -0.192416,-0.106913 -0.573322,-0.391875 -0.979605,-1.1055 -0.406279,-0.713588 -0.459191,-1.190588 -0.454256,-1.413038 0.0021,-0.09615 0.04417,-0.183937 0.102333,-0.2604 0.205785,-0.27045 0.743464,-0.95955 1.271183,-1.489087 -0.04754,-0.313763 -0.0722,-0.635175 -0.0722,-0.962438 0,-0.327262 0.02467,-0.648675 0.07221,-0.962437 -0.527718,-0.529575 -1.065401,-1.218675 -1.271186,-1.489125 -0.05817,-0.07646 -0.1002,-0.16425 -0.102334,-0.2604 -0.0049,-0.22245 0.04798,-0.69945 0.454257,-1.413075 0.406282,-0.713588 0.787189,-0.99855 0.979605,-1.105463 0.08317,-0.04619 0.179179,-0.05318 0.273555,-0.04031 0.333978,0.04552 1.191825,0.173253 1.908075,0.372041 0.491662,-0.401374 1.044975,-0.728216 1.643287,-0.963578 0.188775,-0.729521 0.509175,-1.547606 0.636638,-1.861972 z"
     clip-rule="evenodd"
     id="path299"
     style="fill:#2e3436;fill-opacity:1;stroke-width:0.375" />
  <path
     fill="#888a85"
     d="m 43.500002,39.750004 c 0,1.656862 -1.343137,3 -3,3 -1.656862,0 -3,-1.343138 -3,-3 0,-1.656863 1.343138,-3 3,-3 1.656863,0 3,1.343137 3,3 z"
     id="path301"
     style="fill:#888a85;fill-opacity:1;stroke-width:0.375" />
  <path
     fill="#2e3436"
     fill-rule="evenodd"
     d="m 34.385032,17.544385 c 0.03566,-0.08796 0.08906,-0.167891 0.169837,-0.21774 0.1872,-0.115507 0.621075,-0.307935 1.43445,-0.307935 0.813375,0 1.24725,0.192428 1.43445,0.307935 0.08078,0.04985 0.134138,0.129776 0.169838,0.21774 0.127462,0.314366 0.447825,1.132451 0.636637,1.861973 0.598313,0.235361 1.151625,0.562203 1.643288,0.963577 0.71625,-0.198787 1.5741,-0.326512 1.908075,-0.372041 0.09439,-0.01286 0.190387,-0.0058 0.273562,0.04031 0.192413,0.106875 0.5733,0.391875 0.979613,1.105463 0.406275,0.713625 0.459187,1.190625 0.454237,1.413075 -0.0022,0.09615 -0.04417,0.183937 -0.102337,0.2604 -0.205763,0.27045 -0.743475,0.95955 -1.271175,1.489125 0.04755,0.313762 0.07219,0.635175 0.07219,0.962437 0,0.327263 -0.02464,0.648638 -0.07219,0.9624 0.5277,0.529575 1.065412,1.218675 1.271175,1.489125 0.05816,0.07646 0.1002,0.16425 0.102337,0.2604 0.005,0.22245 -0.04796,0.69945 -0.454237,1.413075 -0.406313,0.713588 -0.7872,0.99855 -0.979613,1.105463 -0.08317,0.0462 -0.179175,0.05318 -0.273562,0.04031 -0.333975,-0.04552 -1.191788,-0.17325 -1.908038,-0.372037 -0.491662,0.4014 -1.045012,0.72825 -1.643325,0.9636 -0.188812,0.729525 -0.509175,1.547625 -0.636637,1.861987 -0.0357,0.08798 -0.08906,0.167888 -0.169838,0.217725 -0.1872,0.115538 -0.621075,0.30795 -1.43445,0.30795 -0.813375,0 -1.24725,-0.192412 -1.43445,-0.30795 -0.08077,-0.04984 -0.134175,-0.12975 -0.169837,-0.217725 -0.127463,-0.314362 -0.447863,-1.132462 -0.636638,-1.861987 -0.59835,-0.23535 -1.151662,-0.5622 -1.643325,-0.9636 -0.716249,0.198787 -1.574062,0.326512 -1.908037,0.372037 -0.09437,0.01286 -0.19038,0.0059 -0.273555,-0.04031 -0.192416,-0.106913 -0.573322,-0.391875 -0.979605,-1.1055 -0.406279,-0.713588 -0.459191,-1.190588 -0.454256,-1.413038 0.0021,-0.09615 0.04417,-0.183937 0.102333,-0.2604 0.205785,-0.27045 0.743464,-0.95955 1.271183,-1.489087 -0.04754,-0.313763 -0.0722,-0.635175 -0.0722,-0.962438 0,-0.327262 0.02467,-0.648675 0.07221,-0.962437 -0.527718,-0.529575 -1.065401,-1.218675 -1.271186,-1.489125 -0.05817,-0.07646 -0.1002,-0.16425 -0.102334,-0.2604 -0.0049,-0.22245 0.04798,-0.69945 0.454257,-1.413075 0.406282,-0.713588 0.787189,-0.99855 0.979605,-1.105463 0.08318,-0.04618 0.179179,-0.05317 0.273555,-0.04031 0.333978,0.04553 1.191825,0.173254 1.908075,0.372041 0.491662,-0.401374 1.044975,-0.728216 1.643287,-0.963577 0.188775,-0.729522 0.509175,-1.547607 0.636638,-1.861973 z"
     clip-rule="evenodd"
     id="path299-1"
     style="fill:#2e3436;fill-opacity:1;stroke-width:0.375" />
  <path
     fill="#888a85"
     d="m 38.989319,25.26871 c 0,1.656863 -1.343137,3 -3,3 -1.656862,0 -3,-1.343137 -3,-3 0,-1.656862 1.343138,-3 3,-3 1.656863,0 3,1.343138 3,3 z"
     id="path301-0"
     style="fill:#888a85;fill-opacity:1;stroke-width:0.375" />
</svg>
