<?xml version="1.0" encoding="UTF-8" standalone="no"?>
<svg
   fill="none"
   viewBox="0 0 48 48"
   height="256"
   width="256"
   version="1.1"
   id="svg6"
   sodipodi:docname="upload.svg"
   inkscape:version="1.2.1 (9c6d41e410, 2022-07-14)"
   xmlns:inkscape="http://www.inkscape.org/namespaces/inkscape"
   xmlns:sodipodi="http://sodipodi.sourceforge.net/DTD/sodipodi-0.dtd"
   xmlns="http://www.w3.org/2000/svg"
   xmlns:svg="http://www.w3.org/2000/svg">
  <defs
     id="defs10" />
  <sodipodi:namedview
     id="namedview8"
     pagecolor="#ffffff"
     bordercolor="#111111"
     borderopacity="1"
     inkscape:showpageshadow="0"
     inkscape:pageopacity="0"
     inkscape:pagecheckerboard="1"
     inkscape:deskcolor="#d1d1d1"
     showgrid="false"
     inkscape:zoom="2.1445312"
     inkscape:cx="76.007286"
     inkscape:cy="128.4663"
     inkscape:window-width="1920"
     inkscape:window-height="730"
     inkscape:window-x="-6"
     inkscape:window-y="-6"
     inkscape:window-maximized="1"
     inkscape:current-layer="svg6" />
  <path
     fill="#729fcf"
     fill-rule="evenodd"
     d="M36.9941 15.5668C42.3579 16.8472 46 21.1035 46 27C46 33.8953 41.0195 38.5477 34.1297 38.8212C31.4179 38.9288 28.0816 39 24 39C19.9184 39 16.5821 38.9288 13.8703 38.8212C6.98046 38.5477 2 33.8953 2 27C2 21.1035 5.64214 16.8472 11.0059 15.5668C11.1993 8.51006 16.1131 3.06308 23.2336 3.0032C23.4844 3.00109 23.7399 3 24 3C24.2601 3 24.5156 3.00109 24.7664 3.0032C31.8869 3.06308 36.8007 8.51007 36.9941 15.5668Z"
     clip-rule="evenodd"
     id="path2"
     style="fill:#729fcf;fill-opacity:1" />
  <path
     fill="#204a87"
     fill-rule="evenodd"
     d="M27.9069 33.9589L27.5919 42.1348C27.5357 43.5935 26.6453 44.8518 25.1895 44.9586C24.8384 44.9844 24.4431 45 24.0009 45C23.5586 45 23.1633 44.9844 22.8122 44.9586C21.3563 44.8518 20.4659 43.5934 20.4097 42.1347L20.0947 33.9589C18.7158 33.9275 17.5889 33.8806 16.6728 33.8276C14.7699 33.7175 13.9572 31.9185 15.1463 30.4289C15.8617 29.5327 16.795 28.423 18.001 27.0824C19.9143 24.9554 21.3699 23.7004 22.368 22.9698C23.3688 22.2373 24.6332 22.2372 25.634 22.9697C26.6321 23.7002 28.0878 24.9553 30.001 27.0824C31.2064 28.4226 32.1394 29.5321 32.8547 30.4281C34.0441 31.918 33.2312 33.7176 31.328 33.8277C30.412 33.8807 29.2854 33.9275 27.9069 33.9589Z"
     clip-rule="evenodd"
     id="path4"
     style="fill:#204a87;fill-opacity:1" />
</svg>
