<?xml version="1.0" encoding="UTF-8" standalone="no"?>
<svg
   fill="none"
   viewBox="0 0 48 48"
   height="256"
   width="256"
   version="1.1"
   id="svg10"
   sodipodi:docname="usb_plus_vb.svg"
   inkscape:version="1.2.1 (9c6d41e410, 2022-07-14)"
   xmlns:inkscape="http://www.inkscape.org/namespaces/inkscape"
   xmlns:sodipodi="http://sodipodi.sourceforge.net/DTD/sodipodi-0.dtd"
   xmlns="http://www.w3.org/2000/svg"
   xmlns:svg="http://www.w3.org/2000/svg">
  <defs
     id="defs14" />
  <sodipodi:namedview
     id="namedview12"
     pagecolor="#ffffff"
     bordercolor="#666666"
     borderopacity="1.0"
     inkscape:showpageshadow="2"
     inkscape:pageopacity="0.0"
     inkscape:pagecheckerboard="0"
     inkscape:deskcolor="#d1d1d1"
     showgrid="false"
     inkscape:zoom="1.0722656"
     inkscape:cx="-89.530057"
     inkscape:cy="146.88525"
     inkscape:current-layer="svg10"
     inkscape:window-width="1920"
     inkscape:window-height="730"
     inkscape:window-x="-6"
     inkscape:window-y="-6"
     inkscape:window-maximized="1" />
  <g
     id="g437"
     transform="translate(-7.5)">
    <path
       fill="#babdb6"
       d="M 17.8173,2.25886 C 16.0152,2.44183 14.7244,3.75476 14.5156,5.55406 14.2605,7.75203 14,11.4723 14,17.5 c 0,6.0277 0.2605,9.748 0.5156,11.9459 0.2088,1.7993 1.4996,3.1123 3.3017,3.2952 C 19.2089,32.8824 21.2063,33 24,33 c 2.7937,0 4.7911,-0.1176 6.1827,-0.2589 1.8021,-0.1829 3.0929,-1.4959 3.3017,-3.2952 C 33.7395,27.248 34,23.5277 34,17.5 34,11.4723 33.7395,7.75203 33.4844,5.55407 33.2756,3.75476 31.9848,2.44183 30.1827,2.25886 28.7911,2.11757 26.7938,2 24,2 21.2063,2 19.2089,2.11757 17.8173,2.25886 Z"
       id="path2"
       style="fill:#babdb6;fill-opacity:1" />
    <path
       fill="#2e3436"
       d="m 14.1712,14.3667 c -1.7693,0.1696 -3.133,1.3619 -3.4195,3.1161 C 10.3853,19.7255 10,23.6045 10,30 c 0,1.5159 0.0216,2.8904 0.0596,4.1353 0.2164,7.1063 5.4043,11.8023 12.5137,11.8591 C 23.0315,45.9981 23.5069,46 24,46 24.4931,46 24.9685,45.9981 25.4267,45.9944 32.5361,45.9376 37.724,41.2416 37.9404,34.1353 37.9784,32.8904 38,31.5159 38,30 38,23.6045 37.6147,19.7255 37.2483,17.4828 36.9618,15.7286 35.5981,14.5363 33.8288,14.3667 31.8919,14.1811 28.7779,14 24,14 c -4.7779,0 -7.8919,0.1811 -9.8288,0.3667 z"
       id="path4"
       style="fill:#2e3436;fill-opacity:1" />
    <path
       fill="#2e3436"
       d="M 18.0033,7.55275 C 18.0169,6.68967 18.5718,6.04488 19.4343,6.01059 19.6028,6.00389 19.7907,6 20,6 c 0.2093,0 0.3972,0.00389 0.5657,0.01059 0.8625,0.03429 1.4174,0.67908 1.431,1.54216 C 21.9988,7.68874 22,7.83748 22,8 22,8.16252 21.9988,8.31126 21.9967,8.44725 21.9831,9.31033 21.4282,9.95512 20.5657,9.98941 20.3972,9.99611 20.2093,10 20,10 19.7907,10 19.6028,9.99611 19.4343,9.98941 18.5718,9.95512 18.0169,9.31033 18.0033,8.44725 18.0012,8.31126 18,8.16252 18,8 18,7.83748 18.0012,7.68874 18.0033,7.55275 Z"
       id="path6"
       style="fill:#2e3436;fill-opacity:1" />
    <path
       fill="#2e3436"
       d="M 26.0033,7.55275 C 26.0169,6.68967 26.5718,6.04488 27.4343,6.01059 27.6028,6.00389 27.7907,6 28,6 c 0.2093,0 0.3972,0.00389 0.5657,0.01059 0.8625,0.03429 1.4174,0.67908 1.431,1.54216 C 29.9988,7.68874 30,7.83748 30,8 30,8.16252 29.9988,8.31126 29.9967,8.44725 29.9831,9.31033 29.4282,9.95512 28.5657,9.98941 28.3972,9.99611 28.2093,10 28,10 27.7907,10 27.6028,9.99611 27.4343,9.98941 26.5718,9.95512 26.0169,9.31033 26.0033,8.44725 26.0012,8.31126 26,8.16252 26,8 26,7.83748 26.0012,7.68874 26.0033,7.55275 Z"
       id="path8"
       style="fill:#2e3436;fill-opacity:1" />
  </g>
  <path
     id="rect1059"
     style="fill:#4e9a06;fill-opacity:1;stroke-width:0.375;stroke-linecap:round;stroke-linejoin:round"
     d="m 36,24 c 0.891399,0 1.605678,0.06099 2.161377,0.14209 1.011699,0.1478 1.637473,1.016831 1.682373,2.03833 0.0508,1.153699 0.108329,3.008004 0.137329,5.838501 2.830497,0.029 4.684802,0.08653 5.838501,0.137329 1.021499,0.0449 1.89053,0.670674 2.03833,1.682373 C 47.93901,34.394322 48,35.108601 48,36 c 0,0.891399 -0.06099,1.605678 -0.14209,2.161377 -0.1478,1.011699 -1.016831,1.637473 -2.03833,1.682373 -1.153699,0.0508 -3.008004,0.108329 -5.838501,0.137329 -0.029,2.830497 -0.08653,4.684802 -0.137329,5.838501 -0.0449,1.021499 -0.670674,1.89053 -1.682373,2.03833 C 37.605678,47.93901 36.891399,48 36,48 35.108601,48 34.394322,47.93901 33.838623,47.85791 32.826924,47.71011 32.20115,46.841079 32.15625,45.81958 32.10545,44.665881 32.047921,42.811576 32.018921,39.981079 29.188424,39.952079 27.334119,39.89455 26.18042,39.84375 25.158921,39.79885 24.28989,39.173076 24.14209,38.161377 24.06099,37.605678 24,36.891399 24,36 c 0,-0.891399 0.06099,-1.605678 0.14209,-2.161377 0.1478,-1.011699 1.016831,-1.637473 2.03833,-1.682373 1.153699,-0.0508 3.008004,-0.108329 5.838501,-0.137329 0.029,-2.830497 0.08653,-4.684802 0.137329,-5.838501 0.0449,-1.021499 0.670674,-1.89053 1.682373,-2.03833 C 34.394322,24.06099 35.108601,24 36,24 Z"
     sodipodi:nodetypes="scccccscccccscccccscccccs" />
</svg>
