<?xml version="1.0" encoding="UTF-8" standalone="no"?>
<svg
   fill="none"
   viewBox="0 0 48 48"
   height="256"
   width="256"
   version="1.1"
   id="svg16044"
   sodipodi:docname="user_hidden.svg"
   xml:space="preserve"
   inkscape:version="1.2.1 (9c6d41e410, 2022-07-14)"
   xmlns:inkscape="http://www.inkscape.org/namespaces/inkscape"
   xmlns:sodipodi="http://sodipodi.sourceforge.net/DTD/sodipodi-0.dtd"
   xmlns="http://www.w3.org/2000/svg"
   xmlns:svg="http://www.w3.org/2000/svg"><defs
     id="defs16048" /><sodipodi:namedview
     id="namedview16046"
     pagecolor="#ffffff"
     bordercolor="#666666"
     borderopacity="1.0"
     inkscape:showpageshadow="2"
     inkscape:pageopacity="0.0"
     inkscape:pagecheckerboard="0"
     inkscape:deskcolor="#d1d1d1"
     showgrid="false"
     inkscape:zoom="0.75820628"
     inkscape:cx="-201.79205"
     inkscape:cy="98.258221"
     inkscape:current-layer="svg16044"
     inkscape:window-width="1920"
     inkscape:window-height="730"
     inkscape:window-x="-6"
     inkscape:window-y="-6"
     inkscape:window-maximized="1" /><path
     id="rect17220"
     style="fill:#555753;fill-opacity:1;stroke:none;stroke-width:0.375;stroke-linecap:round;stroke-linejoin:round"
     d="m 23.999634,1.9998779 c 7.179693,0 13.000122,5.8204293 13.000122,13.0001221 0,4.379796 -2.166011,8.253733 -5.485108,10.609131 5.651795,2.538997 9.8851,7.85458 11.117798,14.297973 0.4471,2.336898 -1.072761,4.447599 -3.407959,4.903199 -2.963897,0.578199 -7.843361,1.189819 -15.224853,1.189819 -7.381393,0 -12.260947,-0.61162 -15.2248537,-1.189819 C 6.4395826,44.354703 4.9197617,42.244002 5.3668213,39.907104 6.5995301,33.463711 10.832825,28.148128 16.484619,25.609131 13.165422,23.253733 10.999512,19.379796 10.999512,15 c 0,-7.1796928 5.820429,-13.0001221 13.000122,-13.0001221 z"
     sodipodi:nodetypes="sscccscccss" /><path
     id="path16179"
     style="fill:#2e3436;stroke-width:0.046875;fill-opacity:1"
     d="M 22.389771,0 C 21.448791,0.03964693 20.486143,-0.08244561 19.56006,0.10327148 17.703298,1.6347228 16.7951,4.0381177 14.921918,5.5724404 13.902828,6.4882149 12.63139,7.0269448 11.406566,7.592018 c -0.708381,0.4772336 -0.2741,1.7727094 0.576938,1.6583 8.10267,0.00887 16.205332,0.00841 24.308001,-1.931e-4 0.82175,-0.2223864 0.894584,-1.5324499 0.0549,-1.7834536 C 34.40766,6.7204344 32.633719,5.4911466 31.427822,3.7787858 30.476164,2.5250288 29.672807,1.0989734 28.439938,0.10327145 27.280113,-0.09259831 26.082266,0.04751788 24.908286,3.2894852e-4 24.068778,0.00352115 23.229281,-4.6155706e-4 22.389771,0 Z" /><path
     style="fill:#2e3436;stroke-width:0.046875;fill-opacity:1"
     d="m 16.955609,19.209216 c -1.86435,-0.227899 -3.41011,-1.604648 -3.91865,-3.490194 -0.13806,-0.511897 -0.127965,-1.786352 0.0182,-2.296875 0.263145,-0.919138 0.8659,-1.835829 1.577155,-2.398579 2.666515,-2.109774 6.528655,-0.809967 7.36864,2.479923 0.06757,0.264636 0.127915,0.487148 0.1341,0.494471 0.0062,0.0073 0.19343,-0.03948 0.41609,-0.104002 0.89761,-0.260118 2.019525,-0.260459 2.91526,-9e-4 0.22434,0.06501 0.41185,0.112211 0.41669,0.104887 0.005,-0.0073 0.04275,-0.174741 0.08428,-0.37204 0.259905,-1.235187 1.163095,-2.441437 2.288404,-3.056268 1.56413,-0.854586 3.46103,-0.745624 4.902467,0.281609 0.630263,0.449153 1.299938,1.290919 1.599553,2.010599 0.245927,0.590723 0.314005,0.98419 0.311865,1.802473 -0.0018,0.701163 -0.01367,0.811276 -0.12663,1.17837 -0.17341,0.563535 -0.323403,0.885609 -0.617313,1.325534 -0.597157,0.893834 -1.529377,1.586417 -2.52282,1.874305 -2.159207,0.625715 -4.357597,-0.317477 -5.397456,-2.315709 -0.232075,-0.445963 -0.27953,-0.506361 -0.505325,-0.643098 -1.123935,-0.680648 -2.48786,-0.70501 -3.67425,-0.06563 -0.323135,0.174148 -0.326445,0.17795 -0.59534,0.68386 -0.534575,1.005767 -1.19286,1.635753 -2.205625,2.110804 -0.76358,0.35817 -1.63624,0.498274 -2.46929,0.396442 z m 1.20992,-1.897267 c 1.47379,-0.347451 2.37996,-1.784783 2.07086,-3.284717 -0.16118,-0.782119 -0.73628,-1.527061 -1.46817,-1.901742 -0.28996,-0.14844 -0.86089,-0.273655 -1.24776,-0.273655 -1.29237,0 -2.43341,0.922021 -2.69746,2.179687 -0.19756,0.940973 0.06971,1.847665 0.74779,2.536834 0.35967,0.365552 0.7729,0.602426 1.29107,0.740073 0.336825,0.08948 0.932255,0.09108 1.30367,0.0035 z m 13.040686,-0.02594 c 0.509628,-0.141226 0.869493,-0.350702 1.242055,-0.723001 0.71476,-0.714255 0.969938,-1.692179 0.703273,-2.6952 -0.310493,-1.167882 -1.425908,-2.01598 -2.651413,-2.01598 -0.753172,0 -1.449095,0.283107 -1.965942,0.799764 -0.536595,0.536399 -0.802145,1.174523 -0.803695,1.93132 -0.0015,0.787987 0.258635,1.449184 0.77779,1.976065 0.70165,0.712087 1.741077,0.99219 2.697932,0.727032 z"
     id="path16181"
     sodipodi:nodetypes="csccsccsccssscsssscssscccssssscccssssscss" /></svg>
