<?xml version="1.0" encoding="UTF-8" standalone="no"?>
<svg
   fill="none"
   viewBox="0 0 48 48"
   height="256"
   width="256"
   version="1.1"
   id="svg12"
   sodipodi:docname="video.svg"
   inkscape:version="1.2.1 (9c6d41e410, 2022-07-14)"
   xmlns:inkscape="http://www.inkscape.org/namespaces/inkscape"
   xmlns:sodipodi="http://sodipodi.sourceforge.net/DTD/sodipodi-0.dtd"
   xmlns="http://www.w3.org/2000/svg"
   xmlns:svg="http://www.w3.org/2000/svg">
  <defs
     id="defs16" />
  <sodipodi:namedview
     id="namedview14"
     pagecolor="#ffffff"
     bordercolor="#111111"
     borderopacity="1"
     inkscape:showpageshadow="0"
     inkscape:pageopacity="0"
     inkscape:pagecheckerboard="1"
     inkscape:deskcolor="#d1d1d1"
     showgrid="false"
     inkscape:zoom="2.1445312"
     inkscape:cx="65.282332"
     inkscape:cy="128.4663"
     inkscape:window-width="1920"
     inkscape:window-height="730"
     inkscape:window-x="-6"
     inkscape:window-y="-6"
     inkscape:window-maximized="1"
     inkscape:current-layer="svg12" />
  <path
     fill="#2e3436"
     d="M35.4635 37.9807C34.9124 37.7595 34.5042 37.2958 34.3945 36.7122C34.2208 35.788 34 34.1837 34 32C34 29.8163 34.2208 28.212 34.3945 27.2878C34.5042 26.7042 34.9124 26.2405 35.4635 26.0193C36.7545 25.5011 39.3325 24.5169 42.0897 23.7503C43.9323 23.238 45.6393 24.3391 45.799 26.2449C45.9124 27.5983 46 29.4643 46 32C46 34.5357 45.9124 36.4017 45.799 37.7551C45.6393 39.6609 43.9323 40.762 42.0897 40.2497C39.3325 39.4831 36.7545 38.4989 35.4635 37.9807Z"
     id="path2"
     style="fill:#2e3436;fill-opacity:1" />
  <path
     fill="#888a85"
     d="M2.31401 41.1078C2.51347 43.6509 4.50413 45.5382 7.0505 45.6911C9.68504 45.8492 13.6102 46 19 46C24.3898 46 28.315 45.8492 30.9495 45.6911C33.4959 45.5382 35.4865 43.6509 35.686 41.1078C35.854 38.9657 36 35.9638 36 32C36 28.0362 35.854 25.0343 35.686 22.8922C35.4865 20.3491 33.4959 18.4618 30.9495 18.3089C28.315 18.1508 24.3898 18 19 18C13.6102 18 9.68504 18.1508 7.0505 18.3089C4.50413 18.4618 2.51348 20.3491 2.31402 22.8922C2.14601 25.0343 2 28.0362 2 32C2 35.9638 2.14601 38.9657 2.31401 41.1078Z"
     id="path4"
     style="fill:#888a85;fill-opacity:1" />
  <circle
     cx="13"
     cy="9"
     r="7"
     fill="#2e3436"
     id="circle6"
     style="fill:#2e3436;fill-opacity:1" />
  <circle
     cx="28"
     cy="11"
     r="5"
     fill="#2e3436"
     id="circle8"
     style="fill:#2e3436;fill-opacity:1" />
  <path
     fill="#2e3436"
     d="M25.0228 25.6511C25.0558 24.7885 25.6146 24.131 26.4746 24.0573C26.8696 24.0235 27.3705 24 28 24C28.6295 24 29.1304 24.0235 29.5254 24.0573C30.3854 24.131 30.9442 24.7885 30.9772 25.6511C30.9909 26.008 31 26.4517 31 27C31 27.5483 30.9909 27.992 30.9772 28.3489C30.9442 29.2115 30.3854 29.869 29.5254 29.9427C29.1304 29.9765 28.6295 30 28 30C27.3705 30 26.8696 29.9765 26.4746 29.9427C25.6146 29.869 25.0558 29.2115 25.0228 28.3489C25.0091 27.992 25 27.5483 25 27C25 26.4517 25.0091 26.008 25.0228 25.6511Z"
     id="path10"
     style="fill:#2e3436;fill-opacity:1" />
</svg>
