<?xml version="1.0" encoding="UTF-8" standalone="no"?>
<svg
   fill="none"
   viewBox="0 0 48 48"
   height="256"
   width="256"
   version="1.1"
   id="svg10"
   sodipodi:docname="window_tab_copy.svg"
   inkscape:version="1.2.1 (9c6d41e410, 2022-07-14)"
   xmlns:inkscape="http://www.inkscape.org/namespaces/inkscape"
   xmlns:sodipodi="http://sodipodi.sourceforge.net/DTD/sodipodi-0.dtd"
   xmlns="http://www.w3.org/2000/svg"
   xmlns:svg="http://www.w3.org/2000/svg">
  <defs
     id="defs14" />
  <sodipodi:namedview
     id="namedview12"
     pagecolor="#ffffff"
     bordercolor="#666666"
     borderopacity="1.0"
     inkscape:showpageshadow="2"
     inkscape:pageopacity="0.0"
     inkscape:pagecheckerboard="0"
     inkscape:deskcolor="#d1d1d1"
     showgrid="false"
     inkscape:zoom="1.6191406"
     inkscape:cx="32.733414"
     inkscape:cy="98.509049"
     inkscape:current-layer="svg10"
     inkscape:window-width="1920"
     inkscape:window-height="730"
     inkscape:window-x="-6"
     inkscape:window-y="-6"
     inkscape:window-maximized="1" />
  <path
     fill="#d3d7cf"
     d="M2.58134 40.6959C2.79349 43.2509 4.74913 45.2065 7.30406 45.4187C10.6714 45.6983 16.1287 46 24 46C31.8712 46 37.3286 45.6983 40.6959 45.4187C43.2509 45.2065 45.2065 43.2509 45.4187 40.6959C45.6983 37.3286 46 31.8713 46 24C46 16.1288 45.6983 10.6714 45.4187 7.30406C45.2065 4.74913 43.2509 2.79349 40.6959 2.58134C37.3286 2.30174 31.8712 2 24 2C16.1288 2 10.6714 2.30174 7.30406 2.58134C4.74914 2.79348 2.79349 4.74913 2.58134 7.30406C2.30174 10.6714 2 16.1288 2 24C2 31.8712 2.30174 37.3286 2.58134 40.6959Z"
     id="path2"
     style="fill:#d3d7cf;fill-opacity:1" />
  <path
     fill="#2e3436"
     fill-rule="evenodd"
     d="M 45.8149,14 H 2.18359 C 2.29416,11.2135 2.44016,8.99521 2.58058,7.30406 2.79273,4.74913 4.74838,2.79348 7.30331,2.58134 10.6706,2.30174 16.128,2 23.9992,2 c 7.8713,0 13.3286,0.30174 16.696,0.58134 2.5549,0.21215 4.5105,2.16779 4.7227,4.72272 0.1404,1.69115 0.2864,3.90944 0.397,6.69594 z"
     clip-rule="evenodd"
     id="path4"
     style="fill:#2e3436;fill-opacity:1" />
  <path
     fill="#4e9a06"
     fill-rule="evenodd"
     d="M 33.8388,47.8579 C 32.827101,47.7101 32.201101,46.8412 32.1562,45.8197 32.1054,44.666 32.048,42.8115 32.019,39.981 29.188501,39.952 27.334,39.8946 26.180301,39.8438 25.1588,39.7989 24.2899,39.1729 24.1421,38.1612 24.061,37.6055 24,36.8914 24,36 c 0,-0.8914 0.061,-1.6055 0.1421,-2.1612 0.1478,-1.0117 1.0167,-1.6377 2.0382,-1.6826 1.1537,-0.0508 3.0082,-0.1082 5.8387,-0.1372 0.029,-2.8305 0.0864,-4.685 0.1372,-5.8387 0.0449,-1.0215 0.6709,-1.8904 1.6826,-2.0382 C 34.394501,24.061 35.1086,24 36,24 c 0.891401,0 1.6055,0.061 2.161201,0.1421 1.0117,0.1478 1.637699,1.0167 1.6826,2.0382 0.0508,1.1537 0.1082,3.0082 0.1372,5.8387 2.8305,0.029 4.685,0.0864 5.8387,0.1372 1.0215,0.0449 1.8904,0.6709 2.038199,1.6826 C 47.939,34.3945 48,35.1086 48,36 c 0,0.8914 -0.061,1.6055 -0.1421,2.1612 -0.147799,1.0117 -1.0167,1.6377 -2.0382,1.6826 -1.1537,0.0508 -3.0082,0.1082 -5.8387,0.1372 -0.029,2.8305 -0.0864,4.685 -0.1372,5.8387 -0.0449,1.0215 -0.6709,1.8904 -1.6826,2.0382 C 37.6055,47.939 36.891401,48 36,48 35.1086,48 34.394501,47.939 33.8388,47.8579 Z"
     clip-rule="evenodd"
     id="path17720"
     style="fill:#4e9a06;fill-opacity:1" />
</svg>
