<?xml version="1.0" encoding="UTF-8" standalone="no"?>
<svg
   fill="none"
   viewBox="0 0 48 48"
   height="256"
   width="256"
   version="1.1"
   id="svg8"
   sodipodi:docname="world.svg"
   inkscape:version="1.2.1 (9c6d41e410, 2022-07-14)"
   xmlns:inkscape="http://www.inkscape.org/namespaces/inkscape"
   xmlns:sodipodi="http://sodipodi.sourceforge.net/DTD/sodipodi-0.dtd"
   xmlns="http://www.w3.org/2000/svg"
   xmlns:svg="http://www.w3.org/2000/svg">
  <defs
     id="defs12" />
  <sodipodi:namedview
     id="namedview10"
     pagecolor="#ffffff"
     bordercolor="#111111"
     borderopacity="1"
     inkscape:showpageshadow="0"
     inkscape:pageopacity="0"
     inkscape:pagecheckerboard="1"
     inkscape:deskcolor="#d1d1d1"
     showgrid="false"
     inkscape:zoom="2.1445312"
     inkscape:cx="76.007286"
     inkscape:cy="128.4663"
     inkscape:window-width="1920"
     inkscape:window-height="730"
     inkscape:window-x="-6"
     inkscape:window-y="-6"
     inkscape:window-maximized="1"
     inkscape:current-layer="svg8" />
  <path
     fill="#3465a4"
     d="M24 2C36.1503 2 46 11.8497 46 24C46 36.1503 36.1503 46 24 46C11.8497 46 2 36.1503 2 24C2 11.8497 11.8497 2 24 2Z"
     id="path2"
     style="fill:#3465a4;fill-opacity:1" />
  <path
     fill="#4e9a06"
     d="M15.2825 44.205C8.23267 41.1591 3.09211 34.5315 2.1543 26.6158C6.10986 26.4073 9.81187 26.7917 11.0575 26.9426C11.3546 26.9786 11.6462 27.0387 11.9269 27.1422C15.2223 28.3572 17.1331 31.7471 17.9774 33.6535C18.3624 34.5229 18.4168 35.488 18.1849 36.4101C17.7651 38.0791 16.8826 41.0341 15.2825 44.205Z"
     id="path4"
     style="fill:#4e9a06;fill-opacity:1" />
  <path
     fill="#4e9a06"
     d="M40.6102 9.57324C43.9678 13.4356 46.0004 18.4804 46.0004 23.9999C46.0004 29.3638 44.0807 34.2795 40.8909 38.0972C36.972 34.7307 33.6966 28.541 32.3872 25.849C31.9878 25.0278 31.2613 24.4041 30.379 24.1688L27.8607 23.497C25.0672 22.7519 22.7513 20.4865 23.2557 17.6396C23.3639 17.0284 23.5286 16.3903 23.7703 15.7472C24.3725 14.1447 25.8997 13.1598 27.5465 12.6923C30.4869 11.8576 35.5829 10.4984 40.6102 9.57324Z"
     id="path6"
     style="fill:#4e9a06;fill-opacity:1" />
</svg>
