<svg xmlns="http://www.w3.org/2000/svg" fill="none" viewBox="0 0 48 48" height="256" width="256"><circle cx="22" cy="22" r="17" fill="#729fcf"></circle><path fill="#204a87" fill-rule="evenodd" d="M32.6589 38.9261C29.5733 40.8732 25.9183 42 22 42C10.9543 42 2 33.0457 2 22C2 10.9543 10.9543 2 22 2C33.0457 2 42 10.9543 42 22C42 25.9267 40.8684 29.589 38.9135 32.6788C39.0069 32.7561 39.1003 32.8334 39.1936 32.9106L39.1936 32.9106C41.0121 34.4153 42.8028 35.897 44.5692 37.5446C46.3069 39.1655 46.5229 41.6182 44.8795 43.3344C44.6464 43.5779 44.3918 43.838 44.1139 44.1155C43.8359 44.393 43.5753 44.6471 43.3314 44.8799C41.6122 46.5203 39.1553 46.3047 37.5316 44.57C35.8811 42.8067 34.3968 41.0191 32.8895 39.2037C32.8127 39.1113 32.7358 39.0187 32.6589 38.9261ZM36 22C36 29.732 29.732 36 22 36C14.268 36 8 29.732 8 22C8 14.268 14.268 8 22 8C29.732 8 36 14.268 36 22Z" clip-rule="evenodd"></path><path fill="#204a87" fill-rule="evenodd" d="M23.2139 13.0568C24.2312 13.1588 24.8607 14.0233 24.8997 15.045C24.933 15.9189 24.9671 17.1989 24.9858 19.0142C26.8011 19.0329 28.0811 19.067 28.955 19.1003C29.9767 19.1393 30.8412 19.7688 30.9432 20.7861C30.9776 21.1288 31 21.5318 31 22C31 22.4682 30.9776 22.8712 30.9432 23.2139C30.8412 24.2312 29.9767 24.8607 28.955 24.8997C28.0811 24.933 26.8011 24.9671 24.9858 24.9858C24.9671 26.8011 24.933 28.0811 24.8997 28.955C24.8607 29.9767 24.2312 30.8412 23.2139 30.9432C22.8712 30.9776 22.4682 31 22 31C21.5318 31 21.1288 30.9776 20.7861 30.9432C19.7688 30.8412 19.1393 29.9767 19.1003 28.955C19.067 28.0811 19.0329 26.8011 19.0142 24.9858C17.1989 24.9671 15.9189 24.933 15.045 24.8997C14.0233 24.8607 13.1588 24.2312 13.0568 23.2139C13.0224 22.8712 13 22.4682 13 22C13 21.5318 13.0224 21.1288 13.0568 20.7861C13.1588 19.7688 14.0233 19.1393 15.045 19.1003C15.9189 19.067 17.1989 19.0329 19.0142 19.0142C19.0329 17.1989 19.067 15.9189 19.1003 15.045C19.1393 14.0233 19.7688 13.1588 20.7861 13.0568C21.1288 13.0224 21.5318 13 22 13C22.4682 13 22.8712 13.0224 23.2139 13.0568Z" clip-rule="evenodd"></path></svg>