<?xml version="1.0" encoding="UTF-8" standalone="no"?>
<svg
   fill="none"
   viewBox="0 0 48 48"
   height="256"
   width="256"
   version="1.1"
   id="svg6"
   sodipodi:docname="advanced.svg"
   inkscape:version="1.2.1 (9c6d41e410, 2022-07-14)"
   xmlns:inkscape="http://www.inkscape.org/namespaces/inkscape"
   xmlns:sodipodi="http://sodipodi.sourceforge.net/DTD/sodipodi-0.dtd"
   xmlns="http://www.w3.org/2000/svg"
   xmlns:svg="http://www.w3.org/2000/svg">
  <defs
     id="defs10" />
  <sodipodi:namedview
     id="namedview8"
     pagecolor="#ffffff"
     bordercolor="#666666"
     borderopacity="1.0"
     inkscape:showpageshadow="2"
     inkscape:pageopacity="0.0"
     inkscape:pagecheckerboard="true"
     inkscape:deskcolor="#d1d1d1"
     showgrid="true"
     inkscape:zoom="1.1449053"
     inkscape:cx="-20.088998"
     inkscape:cy="92.147359"
     inkscape:current-layer="svg6"
     inkscape:window-width="1920"
     inkscape:window-height="730"
     inkscape:window-x="-6"
     inkscape:window-y="-6"
     inkscape:window-maximized="1">
    <inkscape:grid
       type="xygrid"
       id="grid239"
       units="px"
       spacingx="1.5"
       spacingy="1.5" />
  </sodipodi:namedview>
  <path
     fill="#adafaa"
     fill-rule="evenodd"
     d="m 10.041479,3.3982819 c 0.03215,-0.1503686 0.09486,-0.292906 0.209704,-0.3951569 0.266164,-0.2369406 0.904231,-0.6659906 2.20188,-0.8948012 1.29765,-0.2288106 2.043981,-0.043867 2.375131,0.087751 0.142891,0.056811 0.250508,0.1693093 0.332209,0.2996029 0.291787,0.4656798 1.033025,1.6807221 1.539476,2.791477 1.02075,0.2071813 1.995443,0.5729697 2.892746,1.0750072 1.086776,-0.5186317 2.41945,-0.9637245 2.939462,-1.1303111 0.146966,-0.047073 0.302091,-0.062921 0.44778,-0.012636 0.337037,0.1163796 1.024874,0.4639178 1.87384,1.4880673 0.848916,1.0242199 1.067517,1.7703354 1.122198,2.1266221 0.02364,0.1539979 -0.01873,0.3058786 -0.09002,0.4442277 -0.252191,0.4893559 -0.916201,1.7400021 -1.609113,2.7333271 0.164126,0.487197 0.293849,0.993044 0.385911,1.515155 0.09206,0.522111 0.143162,1.041759 0.155566,1.555709 0.990861,0.69643 2.042572,1.644549 2.446924,2.018138 0.114301,0.105626 0.206063,0.233856 0.236521,0.386651 0.07047,0.353502 0.120243,1.129387 -0.327173,2.382185 -0.447487,1.252749 -0.974988,1.814523 -1.251885,2.039217 -0.1197,0.0971 -0.270895,0.135239 -0.425098,0.14127 -0.545627,0.02132 -1.950101,0.05886 -3.148719,-0.05679 -0.671475,0.778699 -1.462337,1.455814 -2.350672,1.9996 -0.09601,1.216991 -0.376969,2.6123 -0.491888,3.149686 -0.03221,0.150398 -0.09486,0.2929 -0.209709,0.395133 -0.266155,0.236989 -0.904226,0.666015 -2.201875,0.894826 -1.297649,0.22881 -2.043976,0.04389 -2.375135,-0.08777 -0.142887,-0.05679 -0.250561,-0.169257 -0.332205,-0.299579 -0.291785,-0.465674 -1.033088,-1.680729 -1.53948,-2.791501 -1.020807,-0.207153 -1.995502,-0.572953 -2.8928122,-1.075033 -1.0867761,0.518632 -2.41939,0.963714 -2.9394032,1.130295 -0.1469425,0.04707 -0.3020844,0.06289 -0.4477668,0.01264 C 6.2308235,25.204843 5.5429672,24.85737 4.6940389,23.833152 3.8451271,22.808993 3.6265262,22.062878 3.571822,21.706595 3.5481782,21.552599 3.5905369,21.40072 3.6618309,21.262369 3.9140577,20.773007 4.5780134,19.52237 5.2709656,18.529099 5.1068523,18.0419 4.9770934,17.53606 4.8850312,17.013949 4.7929689,16.491838 4.7419006,15.972122 4.7294848,15.458175 3.7385936,14.761749 2.6869303,13.813623 2.282543,13.440039 2.1682296,13.334416 2.0764799,13.206184 2.0460278,13.053388 1.9755771,12.699882 1.9258082,11.923997 2.3732307,10.671197 2.8206698,9.4184564 3.3482005,8.8566777 3.6251036,8.6319821 3.7448088,8.5349071 3.8960036,8.4967365 4.0501887,8.4907082 4.5958223,8.4693927 6.0003507,8.4318429 7.1989686,8.5474978 7.8704509,7.7688412 8.6612552,7.091748 9.5495866,6.547944 9.6455344,5.3309699 9.9265613,3.9356747 10.041479,3.3982819 Z"
     clip-rule="evenodd"
     id="path2-8"
     style="stroke-width:0.6075;fill:#adafaa;fill-opacity:1" />
  <path
     fill="#606668"
     d="m 19.560037,14.426349 c 0.466092,2.643339 -1.298896,5.164004 -3.942235,5.630096 -2.64334,0.466092 -5.164004,-1.298896 -5.6300961,-3.942236 -0.4660921,-2.643339 1.2988961,-5.164003 3.9422351,-5.630095 2.64334,-0.466093 5.164004,1.298896 5.630096,3.942235 z"
     id="path4-8"
     style="stroke-width:0.6075;fill:#606668;fill-opacity:1" />
  <path
     fill="#adafaa"
     fill-rule="evenodd"
     d="m 31.26835,20.105684 c 0.05777,-0.142502 0.144282,-0.271984 0.275137,-0.352739 0.303264,-0.187122 1.006142,-0.498855 2.323809,-0.498855 1.317668,0 2.020545,0.311733 2.323809,0.498855 0.130856,0.08076 0.217303,0.210237 0.275137,0.352739 0.206489,0.509273 0.725476,1.834571 1.031353,3.016395 0.969266,0.381285 1.865632,0.91077 2.662125,1.560995 1.160325,-0.322035 2.550042,-0.52895 3.091082,-0.602706 0.152908,-0.02084 0.308427,-0.0095 0.443171,0.06531 0.311708,0.173138 0.928746,0.634838 1.586972,1.790849 0.658166,1.156073 0.743884,1.928813 0.735865,2.289182 -0.0035,0.155763 -0.07156,0.297979 -0.165787,0.421848 -0.333335,0.438129 -1.204429,1.554471 -2.059303,2.412382 0.07703,0.508295 0.116944,1.028984 0.116944,1.559149 0,0.530165 -0.03991,1.050793 -0.116944,1.559088 0.854874,0.857912 1.725968,1.974254 2.059303,2.412383 0.09422,0.123869 0.162324,0.266084 0.165787,0.421848 0.008,0.360369 -0.0777,1.133109 -0.735865,2.289181 -0.658226,1.156012 -1.275264,1.617651 -1.586972,1.790849 -0.134744,0.07484 -0.290263,0.08614 -0.443171,0.06531 -0.54104,-0.07375 -1.930696,-0.280665 -3.091021,-0.602701 -0.796493,0.650268 -1.69292,1.179765 -2.662186,1.561032 -0.305877,1.18183 -0.824864,2.507152 -1.031353,3.01642 -0.05783,0.142519 -0.144281,0.271977 -0.275137,0.352714 -0.303264,0.187171 -1.006141,0.498879 -2.323809,0.498879 -1.317667,0 -2.020545,-0.311708 -2.323809,-0.498879 -0.130855,-0.08074 -0.217363,-0.210195 -0.275137,-0.352714 -0.206489,-0.509268 -0.725537,-1.83459 -1.031353,-3.01642 -0.969327,-0.381267 -1.865693,-0.910764 -2.662186,-1.561032 -1.160325,0.322036 -2.549981,0.52895 -3.091021,0.602701 -0.152883,0.02084 -0.308415,0.0095 -0.443159,-0.06531 -0.311714,-0.173198 -0.928782,-0.634837 -1.58696,-1.79091 -0.658172,-1.156011 -0.74389,-1.928752 -0.735895,-2.28912 0.0035,-0.155764 0.07155,-0.297979 0.165781,-0.421848 0.333371,-0.438129 1.204411,-1.554471 2.059315,-2.412322 -0.07702,-0.508295 -0.116968,-1.028984 -0.116968,-1.559149 0,-0.530165 0.03995,-1.050854 0.116974,-1.559149 -0.854904,-0.857911 -1.72595,-1.974253 -2.059321,-2.412382 -0.09424,-0.123869 -0.162324,-0.266085 -0.165781,-0.421848 -0.008,-0.360369 0.07772,-1.133109 0.735895,-2.289182 0.658178,-1.156011 1.275246,-1.617651 1.58696,-1.790849 0.134744,-0.07481 0.29027,-0.08615 0.443159,-0.06531 0.541046,0.07376 1.930757,0.280671 3.091082,0.602707 0.796493,-0.650226 1.692859,-1.179711 2.662125,-1.560996 0.305816,-1.181824 0.824864,-2.507122 1.031353,-3.016395 z"
     clip-rule="evenodd"
     id="path2-1"
     style="stroke-width:0.6075;fill:#adafaa;fill-opacity:1" />
  <path
     fill="#606668"
     d="m 38.727296,32.61909 c 0,2.684117 -2.175883,4.86 -4.86,4.86 -2.684117,0 -4.86,-2.175883 -4.86,-4.86 0,-2.684117 2.175883,-4.86 4.86,-4.86 2.684117,0 4.86,2.175883 4.86,4.86 z"
     id="path4-2"
     style="stroke-width:0.6075;fill:#606668;fill-opacity:1" />
</svg>
