<?xml version="1.0" encoding="UTF-8" standalone="no"?>
<svg
   fill="none"
   viewBox="0 0 48 48"
   height="256"
   width="256"
   version="1.1"
   id="svg4"
   sodipodi:docname="bookmarks_store.svg"
   inkscape:version="1.2.1 (9c6d41e410, 2022-07-14)"
   xmlns:inkscape="http://www.inkscape.org/namespaces/inkscape"
   xmlns:sodipodi="http://sodipodi.sourceforge.net/DTD/sodipodi-0.dtd"
   xmlns="http://www.w3.org/2000/svg"
   xmlns:svg="http://www.w3.org/2000/svg">
  <defs
     id="defs8" />
  <sodipodi:namedview
     id="namedview6"
     pagecolor="#ffffff"
     bordercolor="#666666"
     borderopacity="1.0"
     inkscape:showpageshadow="2"
     inkscape:pageopacity="0.0"
     inkscape:pagecheckerboard="0"
     inkscape:deskcolor="#d1d1d1"
     showgrid="false"
     inkscape:zoom="0.75820631"
     inkscape:cx="-145.07925"
     inkscape:cy="20.442985"
     inkscape:current-layer="svg4"
     inkscape:window-width="1920"
     inkscape:window-height="730"
     inkscape:window-x="-6"
     inkscape:window-y="-6"
     inkscape:window-maximized="1" />
  <path
     fill="#77c32f"
     d="M2.69017 7.22304C2.86924 5.30948 4.09866 3.74747 5.97968 3.35309C8.92921 2.73469 14.4442 2 24 2C33.5558 2 39.0708 2.73469 42.0203 3.35309C43.9013 3.74747 45.1308 5.30948 45.3098 7.22304C45.6133 10.4663 46 16.4842 46 26.0952C46 34.7566 45.8185 40.0027 45.6066 43.176C45.4169 46.0172 43.2213 46.9141 40.809 45.401L27.1883 36.8571C25.2387 35.6341 22.7613 35.6341 20.8117 36.8571L7.19098 45.401C4.77871 46.9141 2.58312 46.0172 2.39339 43.176C2.18149 40.0027 2 34.7566 2 26.0952C2 16.4842 2.38666 10.4663 2.69017 7.22304Z"
     id="path2"
     style="fill:#77c32f;fill-opacity:1" />
  <g
     id="g789"
     transform="matrix(0.5625,0,0,0.5625,-6.6623038,15.455069)">
    <path
       fill="#507ab7"
       fill-rule="evenodd"
       d="m 86.396929,15.199235 c -0.9388,-0.78164 -2.1227,-1.19445 -3.3438,-1.23072 -2.2951,-0.06816 -4.9146,-0.11086 -7.8757,-0.11086 -7.8713,0 -13.3286,0.30174 -16.69594,0.58134 -2.55493,0.21215 -4.51057,2.16779 -4.72272,4.72272 -0.2796,3.36734 -0.58134,8.82474 -0.58134,16.69594 0,7.8713 0.30174,13.3286 0.58134,16.6959 0.21215,2.555 2.1678,4.5106 4.72272,4.7228 3.36734,0.2796 8.82474,0.5813 16.69594,0.5813 7.8712,0 13.3286,-0.3017 16.6959,-0.5813 2.555,-0.2122 4.5106,-2.1678 4.7228,-4.7228 0.2796,-3.3673 0.5813,-8.8247 0.5813,-16.6959 0,-2.9611 -0.0427,-5.5806 -0.1109,-7.8757 -0.0362,-1.2211 -0.449,-2.405 -1.2307,-3.3438 -1.0376,-1.2463 -2.4995,-2.87162 -4.5334,-4.9055 -2.0339,-2.03388 -3.6592,-3.49578 -4.9055,-4.53342 z"
       clip-rule="evenodd"
       id="path609" />
    <path
       fill="#ffffff"
       fill-rule="evenodd"
       d="m 88.715129,57.499355 c 0.196,-1.9748 0.4623,-5.7432 0.4623,-11.6417 0,-4.9093 -0.1845,-8.3431 -0.3593,-10.4952 -0.1384,-1.7036 -1.442,-3.0071 -3.1455,-3.1455 -2.1521,-0.1748 -5.5859,-0.3593 -10.4952,-0.3593 -4.9093,0 -8.3431,0.1845 -10.4952,0.3593 -1.7036,0.1384 -3.0071,1.4419 -3.1455,3.1455 -0.1748,2.1521 -0.3593,5.5859 -0.3593,10.4952 0,5.8985 0.2663,9.6669 0.4623,11.6417 3.3025,0.1964 7.7726,0.3583 13.5377,0.3583 5.7651,0 10.2352,-0.1619 13.5377,-0.3583 z"
       clip-rule="evenodd"
       id="path611"
       style="fill:#ffffff;fill-opacity:1" />
    <path
       fill="#ffffff"
       fill-rule="evenodd"
       d="m 79.022029,23.788055 c 1.6947,-0.0675 3.0181,-1.3118 3.1005,-3.00584 0.0328,-0.67524 0.0549,-1.48044 0.0549,-2.42456 0,-2.17165 -0.1169,-3.60833 -0.2123,-4.41886 -2.0254,-0.05062 -4.2845,-0.08114 -6.7877,-0.08114 -2.5032,0 -4.7623,0.03052 -6.7877,0.08114 -0.0954,0.81053 -0.2123,2.24721 -0.2123,4.41886 0,0.94412 0.0221,1.74933 0.0549,2.42456 0.0824,1.69404 1.4058,2.93834 3.1005,3.00584 0.9939,0.0397 2.2668,0.0696 3.8446,0.0696 1.5778,0 2.8507,-0.0299 3.8446,-0.0696 z"
       clip-rule="evenodd"
       id="path613"
       style="fill:#ffffff;fill-opacity:1" />
    <path
       fill="#606668"
       d="m 67.177429,48.903655 c 0,-1.0098 0.7529,-1.8597 1.7599,-1.9349 0.7916,-0.059 1.7659,-0.1111 2.7401,-0.1111 0.9742,0 1.9485,0.0521 2.7401,0.1111 1.007,0.0752 1.7599,0.9251 1.7599,1.9349 v 0.8967 c 0,1.0144 -0.7594,1.8668 -1.7712,1.9408 -0.7895,0.0577 -1.7592,0.1101 -2.7288,0.116 -0.9788,0.006 -1.9576,-0.0458 -2.7512,-0.1062 -1.0023,-0.0763 -1.7488,-0.9239 -1.7488,-1.9291 z"
       id="path615"
       style="fill:#606668;fill-opacity:1" />
    <path
       fill="#606668"
       d="m 67.177429,40.979955 c 0,-1.0419 0.799,-1.9059 1.8395,-1.9608 1.4423,-0.0761 3.6257,-0.1615 6.1605,-0.1615 2.5348,0 4.7182,0.0854 6.1605,0.1615 1.0405,0.0549 1.8395,0.9189 1.8395,1.9608 v 0.7554 c 0,1.0419 -0.799,1.9059 -1.8395,1.9608 -1.4423,0.0761 -3.6257,0.1615 -6.1605,0.1615 -2.5348,0 -4.7182,-0.0854 -6.1605,-0.1615 -1.0405,-0.0549 -1.8395,-0.9189 -1.8395,-1.9608 z"
       id="path617"
       style="fill:#606668;fill-opacity:1" />
  </g>
</svg>
