<?xml version="1.0" encoding="UTF-8" standalone="no"?>
<svg
   fill="none"
   viewBox="0 0 48 48"
   height="256"
   width="256"
   version="1.1"
   id="svg4"
   sodipodi:docname="bookmarks_clear.svg"
   inkscape:version="1.2.1 (9c6d41e410, 2022-07-14)"
   xmlns:inkscape="http://www.inkscape.org/namespaces/inkscape"
   xmlns:sodipodi="http://sodipodi.sourceforge.net/DTD/sodipodi-0.dtd"
   xmlns="http://www.w3.org/2000/svg"
   xmlns:svg="http://www.w3.org/2000/svg">
  <defs
     id="defs8" />
  <sodipodi:namedview
     id="namedview6"
     pagecolor="#ffffff"
     bordercolor="#666666"
     borderopacity="1.0"
     inkscape:showpageshadow="2"
     inkscape:pageopacity="0.0"
     inkscape:pagecheckerboard="0"
     inkscape:deskcolor="#d1d1d1"
     showgrid="false"
     inkscape:zoom="0.7582063"
     inkscape:cx="91.004256"
     inkscape:cy="154.97102"
     inkscape:current-layer="svg4"
     inkscape:window-width="1920"
     inkscape:window-height="730"
     inkscape:window-x="-6"
     inkscape:window-y="-6"
     inkscape:window-maximized="1" />
  <path
     fill="#77c32f"
     d="M2.69017 7.22304C2.86924 5.30948 4.09866 3.74747 5.97968 3.35309C8.92921 2.73469 14.4442 2 24 2C33.5558 2 39.0708 2.73469 42.0203 3.35309C43.9013 3.74747 45.1308 5.30948 45.3098 7.22304C45.6133 10.4663 46 16.4842 46 26.0952C46 34.7566 45.8185 40.0027 45.6066 43.176C45.4169 46.0172 43.2213 46.9141 40.809 45.401L27.1883 36.8571C25.2387 35.6341 22.7613 35.6341 20.8117 36.8571L7.19098 45.401C4.77871 46.9141 2.58312 46.0172 2.39339 43.176C2.18149 40.0027 2 34.7566 2 26.0952C2 16.4842 2.38666 10.4663 2.69017 7.22304Z"
     id="path2"
     style="fill:#77c32f;fill-opacity:1" />
  <g
     id="g1681"
     transform="matrix(0.73205,0,0,0.73205,-24.173652,9.3768923)"
     style="stroke-width:1.36603">
    <path
       id="path7966-0"
       style="color:#000000;fill:#bb852e;fill-opacity:1;fill-rule:evenodd;stroke-width:1.39159;stroke-linecap:round"
       d="m 57.791219,9.5493427 c -2.14708,1.3462523 -2.25414,3.5765983 -0.966975,5.6848283 2.206162,3.098552 5.003746,6.703986 7.332619,9.581636 l 5.723908,-2.874622 C 68.079664,17.801791 66.001988,14.680456 64.156863,11.377719 62.994591,9.2567139 60.840396,7.8466905 57.791219,9.5493427 Z m 2.325439,1.7667343 c 0.80299,0 1.453943,0.631945 1.453943,1.41149 0,0.779544 -0.650953,1.41149 -1.453943,1.41149 -0.80299,0 -1.453943,-0.631946 -1.453943,-1.41149 0,-0.779545 0.650953,-1.41149 1.453943,-1.41149 z"
       sodipodi:nodetypes="ccccccsssss" />
    <path
       id="path7968-8"
       style="color:#000000;fill:#fff01c;fill-opacity:1;fill-rule:evenodd;stroke-width:1.39159"
       d="m 73.869979,19.618916 c -0.247115,0.0054 -0.53227,0.112178 -0.681152,0.18457 -4.19873,2.035952 -8.36094,4.147344 -12.509033,6.276855 -0.344263,0.16858 -0.811115,0.864897 -0.453736,1.321656 0.688002,0.888414 2.743759,1.288298 3.540894,2.106445 1.821975,1.064403 2.613623,3.053807 2.525024,5.046387 0.566995,3.607511 1.708135,7.124457 3.05896,10.520507 1.159164,2.572208 2.744835,4.986581 4.780518,6.987305 0.408952,0.359827 1.269789,0.738584 1.934692,0.69397 5.629038,-0.333073 10.959821,-2.603369 15.878174,-5.154785 2.127385,-1.164577 4.164765,-2.491579 6.059326,-3.98877 1.081717,-0.972753 0.486293,-2.958134 -0.316772,-3.319336 -5.888384,-3.092547 -10.578185,-7.990156 -16.07483,-11.664917 -1.571689,-0.984489 -3.409352,-1.829026 -5.329467,-1.595581 -1.414201,-1.92321 -1.719311,-4.311581 -1.839478,-6.598755 -0.02309,-0.201102 -0.06496,-0.449341 -0.175415,-0.640136 -0.07744,-0.135161 -0.228626,-0.179112 -0.397705,-0.175415 z"
       sodipodi:nodetypes="scccccccccccccccs" />
    <path
       style="color:#000000;fill:#fd3131;fill-opacity:1;fill-rule:evenodd;stroke-width:1.38892;stroke-linecap:round"
       d="m 63.658233,29.701225 c -0.732104,0.37094 -0.98045,1.227228 -0.536527,1.902004 l 0.958684,1.457228 c 0.443922,0.674776 1.414185,0.915824 2.14629,0.544884 l 11.579067,-5.866853 c 0.732104,-0.37094 0.981153,-1.229786 0.537231,-1.904563 L 77.384294,24.376697 C 76.940371,23.701921 75.969404,23.463432 75.2373,23.834373 Z"
       id="rect7984-0"
       sodipodi:nodetypes="sssssssss" />
    <path
       id="path1737"
       style="color:#000000;fill:#ffffff;fill-opacity:1;fill-rule:evenodd;stroke-width:1.39159"
       d="m 83.112778,32.634785 c 0.0381,5.74e-4 0.0865,0.01674 0.14355,0.05493 2.44168,2.038989 9.496486,7.867064 13.517216,9.602417 0.20914,0.09205 0.25441,0.418065 0.078,0.557373 l -1.25281,0.994263 c -0.19755,0.12218 -0.60324,0.134708 -0.7987,0.05237 -4.493546,-2.070645 -9.831446,-8.585818 -11.708496,-11.001709 -0.11519,-0.121022 -0.0931,-0.261367 0.0212,-0.259643 z m -4.830686,5.041992 c 0.007,-4.19e-4 0.0148,-2.28e-4 0.0223,3.66e-4 0.0548,0.0043 0.11382,0.03631 0.16442,0.104736 1.19602,1.476829 2.438506,3.127597 3.647096,4.64795 1.56517,1.968899 3.12738,3.727801 4.29676,5.036499 0.18865,0.173448 0.19507,0.728203 -0.16407,0.849975 -0.83272,0.252952 -1.02278,0.309841 -1.69226,0.500611 -0.40315,0.136091 -0.97579,-0.106118 -1.1261,-0.355957 -0.83722,-1.3274 -3.713676,-4.73379 -5.293206,-10.513916 -0.0502,-0.146386 0.0348,-0.263983 0.14502,-0.270264 z m -6.09375,3.837524 c 0.049,-0.0053 0.10456,0.04149 0.12524,0.141724 0.72801,2.207658 1.50798,4.103169 2.49756,5.756103 0.59347,0.991295 1.3111,1.955802 2.17566,2.93042 0.13179,0.137968 0.0801,0.365502 -0.15051,0.387451 l -0.60315,0.04944 c -0.2397,0.0087 -0.54629,-0.214996 -0.69214,-0.42041 -1.7282,-2.678002 -3.29177,-5.518059 -3.43799,-8.67334 -0.006,-0.10842 0.0364,-0.166045 0.0853,-0.171387 z"
       sodipodi:nodetypes="sccccccsssccscccccssscscccccss" />
  </g>
</svg>
