<?xml version="1.0" encoding="UTF-8" standalone="no"?>
<svg
   fill="none"
   viewBox="0 0 48 48"
   height="256"
   width="256"
   version="1.1"
   id="svg10"
   sodipodi:docname="compare_text.svg"
   inkscape:version="1.2.1 (9c6d41e410, 2022-07-14)"
   xmlns:inkscape="http://www.inkscape.org/namespaces/inkscape"
   xmlns:sodipodi="http://sodipodi.sourceforge.net/DTD/sodipodi-0.dtd"
   xmlns="http://www.w3.org/2000/svg"
   xmlns:svg="http://www.w3.org/2000/svg">
  <defs
     id="defs14" />
  <sodipodi:namedview
     id="namedview12"
     pagecolor="#ffffff"
     bordercolor="#111111"
     borderopacity="1"
     inkscape:showpageshadow="0"
     inkscape:pageopacity="0"
     inkscape:pagecheckerboard="1"
     inkscape:deskcolor="#d1d1d1"
     showgrid="false"
     inkscape:zoom="2.1445312"
     inkscape:cx="118.4408"
     inkscape:cy="141.52277"
     inkscape:window-width="1920"
     inkscape:window-height="730"
     inkscape:window-x="-6"
     inkscape:window-y="-6"
     inkscape:window-maximized="1"
     inkscape:current-layer="svg10" />
  <path
     fill="#606668"
     d="M22.2812 40.9839C22.4083 43.4886 24.2001 45.4948 26.6984 45.7141C28.4915 45.8716 30.9032 46 34 46C37.0968 46 39.5085 45.8716 41.3016 45.7141C43.7999 45.4948 45.5917 43.4886 45.7187 40.9839C45.8601 38.1962 46 33.9375 46 28C46 22.0625 45.8601 17.8038 45.7187 15.0161C45.5917 12.5114 43.7999 10.5052 41.3016 10.2859C39.5085 10.1284 37.0968 10 34 10C30.9032 10 28.4915 10.1284 26.6984 10.2859C24.2001 10.5052 22.4083 12.5114 22.2813 15.0161C22.1399 17.8038 22 22.0625 22 28C22 33.9375 22.1399 38.1962 22.2812 40.9839Z"
     id="path2"
     style="fill:#606668;fill-opacity:1" />
  <path
     fill="#edf1e9"
     d="M2.28125 32.9839C2.40826 35.4886 4.20008 37.4948 6.69842 37.7141C8.49148 37.8716 10.9032 38 14 38C17.0968 38 19.5085 37.8716 21.3016 37.7141C23.7999 37.4948 25.5917 35.4886 25.7187 32.9839C25.8601 30.1962 26 25.9375 26 20C26 14.0625 25.8601 9.80377 25.7187 7.01612C25.5917 4.51139 23.7999 2.50524 21.3016 2.28587C19.5085 2.12843 17.0968 2 14 2C10.9032 2 8.49148 2.12843 6.69842 2.28587C4.20008 2.50524 2.40826 4.51139 2.28125 7.01612C2.1399 9.80377 2 14.0625 2 20C2 25.9375 2.1399 30.1962 2.28125 32.9839Z"
     id="path4"
     style="fill:#edf1e9;fill-opacity:1" />
  <path
     fill="#606668"
     fill-rule="evenodd"
     d="M2.00892 22.5519C3.79156 22.6412 7.63229 22.8247 11.0391 22.9271C11.0588 23.5922 11.0845 24.1555 11.113 24.6308C11.1873 25.8738 12.358 26.4125 13.3493 25.6589C13.9522 25.2006 14.7022 24.5993 15.6118 23.8184C16.9705 22.6517 17.7954 21.7524 18.2905 21.1205C18.8235 20.4402 18.8236 19.5601 18.2906 18.8798C17.7955 18.2478 16.9706 17.3485 15.6118 16.182C14.7025 15.4014 13.9526 14.8003 13.3498 14.342C12.3583 13.5883 11.1873 14.127 11.1129 15.3702C11.0845 15.8453 11.0588 16.4082 11.0392 17.0728C7.62588 17.175 3.78988 17.3587 2.00892 17.4483C2.00313 18.2618 2 19.1122 2 20.0001C2 20.888 2.00313 21.7384 2.00892 22.5519Z"
     clip-rule="evenodd"
     id="path6"
     style="fill:#606668;fill-opacity:1" />
  <path
     fill="#edf1e9"
     fill-rule="evenodd"
     d="M45.9916 25.3989C43.9966 25.3021 40.8299 25.1587 37.9617 25.0728C37.942 24.4082 37.9163 23.8453 37.8879 23.3702C37.8136 22.127 36.6425 21.5883 35.6511 22.342C35.0483 22.8003 34.2984 23.4014 33.3891 24.182C32.0303 25.3485 31.2053 26.2478 30.7102 26.8798C30.1773 27.5601 30.1773 28.4402 30.7103 29.1205C31.2054 29.7524 32.0304 30.6517 33.3891 31.8184C34.2986 32.5993 35.0487 33.2006 35.6515 33.6589C36.6428 34.4125 37.8135 33.8738 37.8879 32.6308C37.9163 32.1555 37.942 31.5922 37.9617 30.9271C40.825 30.841 43.9947 30.6977 45.9916 30.6011C45.9976 29.7727 46.0009 28.9059 46.0009 28.0001C46.0009 27.0942 45.9976 26.2274 45.9916 25.3989Z"
     clip-rule="evenodd"
     id="path8"
     style="fill:#edf1e9;fill-opacity:1" />
</svg>
