<?xml version="1.0" encoding="UTF-8" standalone="no"?>
<svg
   fill="none"
   viewBox="0 0 48 48"
   height="256"
   width="256"
   version="1.1"
   id="svg4"
   sodipodi:docname="cut.svg"
   inkscape:version="1.2.1 (9c6d41e410, 2022-07-14)"
   xmlns:inkscape="http://www.inkscape.org/namespaces/inkscape"
   xmlns:sodipodi="http://sodipodi.sourceforge.net/DTD/sodipodi-0.dtd"
   xmlns="http://www.w3.org/2000/svg"
   xmlns:svg="http://www.w3.org/2000/svg">
  <defs
     id="defs8" />
  <sodipodi:namedview
     id="namedview6"
     pagecolor="#ffffff"
     bordercolor="#666666"
     borderopacity="1.0"
     inkscape:showpageshadow="2"
     inkscape:pageopacity="0.0"
     inkscape:pagecheckerboard="0"
     inkscape:deskcolor="#d1d1d1"
     showgrid="false"
     inkscape:zoom="2.1445312"
     inkscape:cx="107.71585"
     inkscape:cy="99.089255"
     inkscape:current-layer="svg4"
     inkscape:window-width="1920"
     inkscape:window-height="730"
     inkscape:window-x="-6"
     inkscape:window-y="-6"
     inkscape:window-maximized="1" />
  <path
     fill="#adafaa"
     fill-rule="evenodd"
     d="M16.5813 19.3968C18.1624 17.8419 19.1429 15.6781 19.1429 13.2853C19.1429 8.55143 15.3053 4.71387 10.5714 4.71387C5.83756 4.71387 2 8.55143 2 13.2853C2 17.8749 5.60729 21.6221 10.1413 21.8461C11.0416 22.4002 12.2535 23.1419 13.6725 24C12.2535 24.8581 11.0416 25.5998 10.1413 26.1539C5.60729 26.3779 2 30.1251 2 34.7147C2 39.4486 5.83756 43.2861 10.5714 43.2861C15.3053 43.2861 19.1429 39.4486 19.1429 34.7147C19.1429 32.3219 18.1624 30.1581 16.5813 28.6032C17.5163 28.1946 18.4434 27.7899 19.3606 27.3898C26.9188 31.823 36.0292 36.8569 38.4277 36.8569C41.0044 36.8569 44.0962 34.8253 45.7723 33.5596C46.3573 33.1178 46.228 32.2404 45.5545 31.951C42.6801 30.7162 35.772 27.7437 27.15 24C35.772 20.2563 42.6801 17.2838 45.5545 16.049C46.228 15.7596 46.3573 14.8822 45.7723 14.4404C44.0962 13.1747 41.0044 11.1431 38.4277 11.1431C36.0292 11.1431 26.9188 16.177 19.3606 20.6102C18.4434 20.2101 17.5163 19.8054 16.5813 19.3968ZM10.5714 16.4996C12.3466 16.4996 13.7857 15.0605 13.7857 13.2853C13.7857 11.5101 12.3466 10.071 10.5714 10.071C8.79623 10.071 7.35714 11.5101 7.35714 13.2853C7.35714 15.0605 8.79623 16.4996 10.5714 16.4996ZM13.7857 34.7147C13.7857 32.9395 12.3466 31.5004 10.5714 31.5004C8.79623 31.5004 7.35714 32.9395 7.35714 34.7147C7.35714 36.4899 8.79623 37.929 10.5714 37.929C12.3466 37.929 13.7857 36.4899 13.7857 34.7147Z"
     clip-rule="evenodd"
     id="path2"
     style="fill:#adafaa;fill-opacity:1" />
  <ellipse
     style="fill:#606668;stroke-width:1.875;stroke-linejoin:round;fill-opacity:1"
     id="path420"
     cx="19.3606"
     cy="24"
     rx="3.191257"
     ry="2.3606558" />
</svg>
