<?xml version="1.0" encoding="UTF-8" standalone="no"?>
<svg
   fill="none"
   viewBox="0 0 48 48"
   height="256"
   width="256"
   version="1.1"
   id="svg10"
   sodipodi:docname="delete_end.svg"
   inkscape:version="1.2.1 (9c6d41e410, 2022-07-14)"
   xmlns:inkscape="http://www.inkscape.org/namespaces/inkscape"
   xmlns:sodipodi="http://sodipodi.sourceforge.net/DTD/sodipodi-0.dtd"
   xmlns="http://www.w3.org/2000/svg"
   xmlns:svg="http://www.w3.org/2000/svg">
  <defs
     id="defs14" />
  <sodipodi:namedview
     id="namedview12"
     pagecolor="#ffffff"
     bordercolor="#666666"
     borderopacity="1.0"
     inkscape:showpageshadow="2"
     inkscape:pageopacity="0.0"
     inkscape:pagecheckerboard="0"
     inkscape:deskcolor="#d1d1d1"
     showgrid="false"
     inkscape:zoom="0.97460938"
     inkscape:cx="153.90781"
     inkscape:cy="79.519038"
     inkscape:current-layer="svg10"
     inkscape:window-width="1920"
     inkscape:window-height="730"
     inkscape:window-x="-6"
     inkscape:window-y="-6"
     inkscape:window-maximized="1" />
  <path
     id="rect1164"
     style="fill:#828480;fill-opacity:1;stroke-width:1.875;stroke-linecap:round;stroke-linejoin:round"
     d="m 16.999876,40.374756 c -5.701188,0 -8.893353,-0.106383 -10.647949,-0.209473 -1.279698,-0.07518 -2.237791,-0.926258 -2.310791,-2.206054 -0.025,-0.4381 -0.04102,-0.961997 -0.04102,-1.584595 0,-0.622598 0.01602,-1.146129 0.04102,-1.584229 0.073,-1.279796 1.031093,-2.130954 2.310791,-2.206054 1.754596,-0.1031 4.946761,-0.209473 10.647949,-0.209473 5.701188,0 8.893719,0.106373 10.648315,0.209473 1.279698,0.0752 2.237791,0.926158 2.310791,2.206054 0.025,0.438 0.04102,0.961631 0.04102,1.584229 0,0.622598 -0.01602,1.146495 -0.04102,1.584595 -0.073,1.279796 -1.031093,2.130874 -2.310791,2.206054 -1.754592,0.10309 -4.947123,0.209473 -10.648311,0.209473 z m 7.000122,-13.000122 c -10.43608,0 -15.407888,-0.150468 -17.691284,-0.266968 -1.154098,-0.0588 -2.096903,-0.745411 -2.220703,-1.894409 -0.0523,-0.4854 -0.08789,-1.090481 -0.08789,-1.838379 0,-0.747898 0.03559,-1.353347 0.08789,-1.838745 0.1238,-1.148998 1.066605,-1.835243 2.220703,-1.894043 2.283396,-0.1165 7.255204,-0.267334 17.691284,-0.267334 10.43608,0 15.407919,0.150834 17.691284,0.267334 1.154148,0.0588 2.096913,0.745045 2.220703,1.894043 0.05229,0.485398 0.08789,1.090847 0.08789,1.838745 0,0.747898 -0.0356,1.352979 -0.08789,1.838379 -0.12379,1.148998 -1.066555,1.835609 -2.220703,1.894409 -2.283365,0.1165 -7.255204,0.266968 -17.691284,0.266968 z m 0,-12.999756 c -10.43608,0 -15.407888,-0.150834 -17.691284,-0.267334 -1.154098,-0.0588 -2.096903,-0.745045 -2.220703,-1.894043 -0.0523,-0.485398 -0.08789,-1.090847 -0.08789,-1.838745 0,-0.747898 0.03559,-1.353347 0.08789,-1.838745 0.1238,-1.148998 1.066605,-1.835243 2.220703,-1.894043 2.283396,-0.1165 7.255204,-0.267334 17.691284,-0.267334 10.43608,0 15.407919,0.150834 17.691284,0.267334 1.154148,0.0588 2.096913,0.745045 2.220703,1.894043 0.05229,0.485398 0.08789,1.090847 0.08789,1.838745 0,0.747898 -0.0356,1.353347 -0.08789,1.838745 -0.12379,1.148998 -1.066555,1.835243 -2.220703,1.894043 -2.283365,0.1165 -7.255204,0.267334 -17.691284,0.267334 z"
     sodipodi:nodetypes="sscsccsscsccsscssscscssccsscssscscssccs" />
  <path
     id="rect505"
     style="fill:#fd3131;fill-opacity:1;stroke-width:1.875;stroke-linecap:round;stroke-linejoin:round"
     d="m 41.982786,43.550903 c -0.308249,-0.01295 -0.615507,-0.149647 -0.866089,-0.37976 -0.570928,-0.524272 -1.522685,-1.421127 -3.000366,-2.873658 -1.477743,1.452531 -2.429804,2.349386 -3.000732,2.873658 -0.44554,0.40909 -1.069873,0.52349 -1.561158,0.170654 -0.281819,-0.202358 -0.626737,-0.486479 -1.022827,-0.882568 -0.39615,-0.39609 -0.68021,-0.741069 -0.882568,-1.022827 -0.352836,-0.491285 -0.238496,-1.115618 0.170654,-1.561158 0.524273,-0.570928 1.421127,-1.523052 2.873657,-3.000732 -1.452348,-1.4775 -2.349079,-2.4295 -2.873291,-3.000366 -0.40909,-0.445541 -0.52349,-1.069812 -0.170654,-1.561158 0.202358,-0.281757 0.486479,-0.626371 0.882568,-1.022461 0.39609,-0.396089 0.741009,-0.680575 1.022828,-0.882934 0.491284,-0.352836 1.115616,-0.238131 1.561157,0.17102 0.570927,0.524211 1.522561,1.421004 3,2.873291 1.477499,-1.452287 2.429438,-2.34908 3.000366,-2.873291 0.445479,-0.409151 1.069872,-0.523856 1.561157,-0.17102 0.281819,0.202359 0.626738,0.486845 1.022827,0.882934 0.39609,0.39609 0.680211,0.740704 0.882569,1.022461 0.352835,0.491346 0.238436,1.115617 -0.170655,1.561158 -0.524211,0.570866 -1.420942,1.522927 -2.873291,3.000366 1.452531,1.47768 2.349386,2.429804 2.873658,3.000732 0.40909,0.44554 0.52349,1.069873 0.170654,1.561157 -0.202358,0.281759 -0.486479,0.626738 -0.882568,1.022828 -0.39609,0.396089 -0.741009,0.68021 -1.022828,0.882568 -0.214937,0.154339 -0.455318,0.219175 -0.695068,0.209106 z"
     sodipodi:nodetypes="scccccsccccscccccscccccscs" />
</svg>
