<?xml version="1.0" encoding="UTF-8" standalone="no"?>
<svg
   fill="none"
   viewBox="0 0 48 48"
   height="256"
   width="256"
   version="1.1"
   id="svg10"
   sodipodi:docname="delete_start.svg"
   inkscape:version="1.2.1 (9c6d41e410, 2022-07-14)"
   xmlns:inkscape="http://www.inkscape.org/namespaces/inkscape"
   xmlns:sodipodi="http://sodipodi.sourceforge.net/DTD/sodipodi-0.dtd"
   xmlns="http://www.w3.org/2000/svg"
   xmlns:svg="http://www.w3.org/2000/svg">
  <defs
     id="defs14" />
  <sodipodi:namedview
     id="namedview12"
     pagecolor="#ffffff"
     bordercolor="#666666"
     borderopacity="1.0"
     inkscape:showpageshadow="2"
     inkscape:pageopacity="0.0"
     inkscape:pagecheckerboard="0"
     inkscape:deskcolor="#d1d1d1"
     showgrid="false"
     inkscape:zoom="1.9492188"
     inkscape:cx="-34.885771"
     inkscape:cy="120.30461"
     inkscape:current-layer="svg10"
     inkscape:window-width="1920"
     inkscape:window-height="730"
     inkscape:window-x="-6"
     inkscape:window-y="-6"
     inkscape:window-maximized="1" />
  <path
     id="rect1164"
     style="fill:#828480;fill-opacity:1;stroke-width:1.875;stroke-linecap:round;stroke-linejoin:round"
     d="m 31.000122,9 c 5.701188,0 8.893353,0.1063829 10.647949,0.2094727 1.279698,0.07518 2.237791,0.9262583 2.310791,2.2060543 0.025,0.4381 0.04102,0.961997 0.04102,1.584595 0,0.622598 -0.01602,1.146129 -0.04102,1.584229 -0.073,1.279796 -1.031093,2.130954 -2.310791,2.206054 -1.754596,0.1031 -4.946761,0.209473 -10.647949,0.209473 -5.701188,0 -8.893719,-0.106373 -10.648315,-0.209473 -1.279698,-0.0752 -2.237791,-0.926158 -2.310791,-2.206054 C 18.016016,14.146351 18,13.62272 18,13.000122 c 0,-0.622598 0.01602,-1.146495 0.04102,-1.584595 0.073,-1.279796 1.031093,-2.1308745 2.310791,-2.2060543 C 22.106403,9.1063829 25.298934,9 31.000122,9 Z M 24,22.000122 c 10.43608,0 15.407888,0.150468 17.691284,0.266968 1.154098,0.0588 2.096903,0.745411 2.220703,1.894409 0.0523,0.4854 0.08789,1.090481 0.08789,1.838379 0,0.747898 -0.03559,1.353347 -0.08789,1.838745 -0.1238,1.148998 -1.066605,1.835243 -2.220703,1.894043 C 39.407888,29.849166 34.43608,30 24,30 13.56392,30 8.5920812,29.849166 6.3087158,29.732666 5.1545682,29.673866 4.2118025,28.987621 4.0880127,27.838623 c -0.05229,-0.485398 -0.087891,-1.090847 -0.087891,-1.838745 0,-0.747898 0.035601,-1.352979 0.087891,-1.838379 C 4.2118025,23.012501 5.1545682,22.32589 6.3087158,22.26709 8.5920812,22.15059 13.56392,22.000122 24,22.000122 Z m 0,12.999756 c 10.43608,0 15.407888,0.150834 17.691284,0.267334 1.154098,0.0588 2.096903,0.745045 2.220703,1.894043 0.0523,0.485398 0.08789,1.090847 0.08789,1.838745 0,0.747898 -0.03559,1.353347 -0.08789,1.838745 -0.1238,1.148998 -1.066605,1.835243 -2.220703,1.894043 C 39.407888,42.849288 34.43608,43.000122 24,43.000122 13.56392,43.000122 8.5920812,42.849288 6.3087158,42.732788 5.1545682,42.673988 4.2118025,41.987743 4.0880127,40.838745 4.0357227,40.353347 4.0001221,39.747898 4.0001221,39 c 0,-0.747898 0.035601,-1.353347 0.087891,-1.838745 C 4.2118025,36.012257 5.1545682,35.326012 6.3087158,35.267212 8.5920812,35.150712 13.56392,34.999878 24,34.999878 Z"
     sodipodi:nodetypes="sscsccsscsccsscssscscssccsscssscscssccs" />
  <path
     id="rect505"
     style="fill:#fd3131;fill-opacity:1;stroke-width:1.875;stroke-linecap:round;stroke-linejoin:round"
     d="m 6.0172119,5.8238525 c 0.3082495,0.012946 0.6155068,0.1496476 0.8660889,0.3797608 0.5709279,0.524272 1.5226849,1.4211262 3.0003662,2.8736572 1.477743,-1.452531 2.429804,-2.3493852 3.000732,-2.8736572 0.44554,-0.4090901 1.069873,-0.52349 1.561158,-0.1706543 0.281819,0.2023581 0.626737,0.4864787 1.022827,0.8825683 0.39615,0.3960896 0.68021,0.741069 0.882568,1.0228272 0.352836,0.4912848 0.238496,1.1156172 -0.170654,1.5611572 -0.524273,0.5709283 -1.421127,1.5230523 -2.873657,3.0007323 1.452348,1.4775 2.349079,2.4295 2.873291,3.000366 0.40909,0.445541 0.52349,1.069812 0.170654,1.561158 -0.202358,0.281757 -0.486479,0.626371 -0.882568,1.022461 -0.39609,0.396089 -0.741009,0.680575 -1.022828,0.882934 -0.491284,0.352836 -1.115616,0.238131 -1.561157,-0.17102 -0.570927,-0.524211 -1.522561,-1.421004 -2.9999998,-2.873291 -1.477499,1.452287 -2.4294383,2.34908 -3.0003662,2.873291 -0.4454793,0.409151 -1.0698725,0.523856 -1.5611572,0.17102 C 5.0406907,18.764804 4.6957722,18.480318 4.2996826,18.084229 3.903593,17.688139 3.6194723,17.343525 3.4171143,17.061768 3.0642786,16.570422 3.1786785,15.946151 3.5877686,15.50061 4.1119798,14.929744 5.0087108,13.977683 6.4610596,12.500244 5.0085285,11.022564 4.1116743,10.07044 3.5874023,9.4995117 3.1783123,9.0539717 3.0639124,8.4296393 3.416748,7.9383545 3.619106,7.6565963 3.9032268,7.3116169 4.2993164,6.9155273 4.695406,6.5194377 5.0403245,6.2353171 5.3221436,6.032959 5.5370806,5.87862 5.7774623,5.8137837 6.0172119,5.8238525 Z"
     sodipodi:nodetypes="scccccsccccscccccscccccscs" />
</svg>
