<?xml version="1.0" encoding="UTF-8" standalone="no"?>
<svg
   fill="none"
   viewBox="0 0 48 48"
   height="256"
   width="256"
   version="1.1"
   id="svg10"
   sodipodi:docname="line_transpose.svg"
   inkscape:version="1.2.1 (9c6d41e410, 2022-07-14)"
   xmlns:inkscape="http://www.inkscape.org/namespaces/inkscape"
   xmlns:sodipodi="http://sodipodi.sourceforge.net/DTD/sodipodi-0.dtd"
   xmlns="http://www.w3.org/2000/svg"
   xmlns:svg="http://www.w3.org/2000/svg">
  <defs
     id="defs14" />
  <sodipodi:namedview
     id="namedview12"
     pagecolor="#ffffff"
     bordercolor="#666666"
     borderopacity="1.0"
     inkscape:showpageshadow="2"
     inkscape:pageopacity="0.0"
     inkscape:pagecheckerboard="0"
     inkscape:deskcolor="#d1d1d1"
     showgrid="false"
     inkscape:zoom="1.3783058"
     inkscape:cx="233.62014"
     inkscape:cy="165.05771"
     inkscape:current-layer="svg10"
     inkscape:window-width="1920"
     inkscape:window-height="730"
     inkscape:window-x="-6"
     inkscape:window-y="-6"
     inkscape:window-maximized="1" />
  <path
     id="rect1164"
     style="fill:#828480;fill-opacity:1;stroke-width:1.875;stroke-linecap:round;stroke-linejoin:round"
     d="m 24,6.9999389 c -10.43607,0 -15.4078905,0.1508341 -17.6912842,0.267334 -1.1540968,0.0588 -2.0969032,0.7450461 -2.2207031,1.8940429 -0.0523,0.4853976 -0.087891,1.0908482 -0.087891,1.8387452 0,0.747897 0.035591,1.353347 0.087891,1.838745 0.1237999,1.148997 1.0666063,1.835243 2.2207031,1.894043 2.2833937,0.1165 7.2552142,0.267334 17.6912842,0.267334 10.43607,0 15.407921,-0.150834 17.691284,-0.267334 1.154147,-0.0588 2.096913,-0.745046 2.220703,-1.894043 0.05229,-0.485398 0.08789,-1.090848 0.08789,-1.838745 0,-0.747897 -0.0356,-1.3533476 -0.08789,-1.8387452 C 43.788197,8.012319 42.845431,7.3260728 41.691284,7.2672729 39.407921,7.150773 34.43607,6.9999389 24,6.9999389 Z m 0,13.0001221 c -10.43607,0 -15.4078905,0.150834 -17.6912842,0.267334 -1.1540968,0.0588 -2.0969032,0.745046 -2.2207031,1.894043 -0.0523,0.485397 -0.087891,1.090848 -0.087891,1.838745 0,0.747897 0.035591,1.352979 0.087891,1.838379 0.1237999,1.148997 1.0666063,1.835609 2.2207031,1.894409 2.2833937,0.1165 7.2552142,0.266968 17.6912842,0.266968 10.43607,0 15.407921,-0.150468 17.691284,-0.266968 1.154147,-0.0588 2.096913,-0.745412 2.220703,-1.894409 0.05229,-0.4854 0.08789,-1.090482 0.08789,-1.838379 0,-0.747897 -0.0356,-1.353348 -0.08789,-1.838745 -0.12379,-1.148997 -1.066556,-1.835243 -2.220703,-1.894043 C 39.407921,20.150895 34.43607,20.000061 24,20.000061 Z m 0,12.999756 c -10.43607,0 -15.4078905,0.150834 -17.6912842,0.267334 -1.1540968,0.0588 -2.0969032,0.745046 -2.2207031,1.894043 -0.0523,0.485397 -0.087891,1.090848 -0.087891,1.838745 0,0.747897 0.035591,1.353347 0.087891,1.838745 0.1237999,1.148997 1.0666063,1.835243 2.2207031,1.894043 2.2833937,0.1165 7.2552142,0.267334 17.6912842,0.267334 10.43607,0 15.407921,-0.150834 17.691284,-0.267334 1.154147,-0.0588 2.096913,-0.745046 2.220703,-1.894043 0.05229,-0.485398 0.08789,-1.090848 0.08789,-1.838745 0,-0.747897 -0.0356,-1.353348 -0.08789,-1.838745 -0.12379,-1.148997 -1.066556,-1.835243 -2.220703,-1.894043 C 39.407921,33.150651 34.43607,32.999817 24,32.999817 Z" />
  <path
     fill="#606668"
     d="m 27.607189,18.103376 c 1.2037,-0.0776 1.7657,-1.3142 1.125,-2.3924 -1.473,-2.4786 -2.8458,-4.041 -3.7294,-4.9093 -0.5793,-0.5693 -1.4264,-0.5693 -2.0057,-10e-5 -0.88357,0.8683 -2.25639,2.4306 -3.72937,4.9094 -0.64072,1.0782 -0.07873,2.3148 1.12496,2.3924 0.4459,0.0287 0.97273,0.0537 1.59314,0.0711 -0.02582,1.308 -0.04449,3.0108 -0.04449,5.2002 0,2.1894 0.01867,3.8922 0.04449,5.2002 -0.62037,0.0174 -1.14717,0.0424 -1.59305,0.0711 -1.20372,0.0776 -1.76571,1.3142 -1.12493,2.3925 1.47296,2.4785 2.84576,4.0409 3.72931,4.9092 0.57934,0.5693 1.42644,0.5694 2.00574,10e-5 0.8836,-0.8683 2.2564,-2.4306 3.7294,-4.9094 0.6407,-1.0782 0.0787,-2.3148 -1.125,-2.3924 -0.4919,-0.0317 -1.0824,-0.0588 -1.7884,-0.0762 0.0258,-1.3074 0.0444,-3.0086 0.0444,-5.1951 0,-2.1865 -0.0186,-3.8877 -0.0444,-5.1951 0.706,-0.0174 1.2964,-0.0445 1.7883,-0.0762 z"
     id="path139"
     style="fill:#606668;fill-opacity:1" />
</svg>
