<?xml version="1.0" encoding="UTF-8" standalone="no"?>
<svg
   fill="none"
   viewBox="0 0 48 48"
   height="256"
   width="256"
   version="1.1"
   id="svg1854"
   sodipodi:docname="line_delete.svg"
   inkscape:version="1.2.1 (9c6d41e410, 2022-07-14)"
   xmlns:inkscape="http://www.inkscape.org/namespaces/inkscape"
   xmlns:sodipodi="http://sodipodi.sourceforge.net/DTD/sodipodi-0.dtd"
   xmlns="http://www.w3.org/2000/svg"
   xmlns:svg="http://www.w3.org/2000/svg">
  <defs
     id="defs1858" />
  <sodipodi:namedview
     id="namedview1856"
     pagecolor="#ffffff"
     bordercolor="#666666"
     borderopacity="1.0"
     inkscape:showpageshadow="2"
     inkscape:pageopacity="0.0"
     inkscape:pagecheckerboard="0"
     inkscape:deskcolor="#d1d1d1"
     showgrid="false"
     inkscape:zoom="1.3783058"
     inkscape:cx="-30.472193"
     inkscape:cy="93.955928"
     inkscape:current-layer="svg1854"
     inkscape:window-width="1920"
     inkscape:window-height="730"
     inkscape:window-x="-6"
     inkscape:window-y="-6"
     inkscape:window-maximized="1" />
  <path
     id="rect2345"
     style="fill:#adafaa;fill-opacity:1;stroke:none;stroke-width:1.875;stroke-linecap:round;stroke-linejoin:round"
     d="m 24,13.999878 c 10.776289,0 16.003404,0.364521 18.454102,0.65332 1.282296,0.1512 2.181436,1.095571 2.298336,2.38147 0.1261,1.387199 0.24756,3.597735 0.24756,6.965332 0,3.367597 -0.12146,5.578133 -0.24756,6.965332 -0.1169,1.285899 -1.01604,2.23027 -2.298336,2.38147 -2.450698,0.288799 -7.677813,0.65332 -18.454102,0.65332 -10.776289,0 -16.0034942,-0.364521 -18.4541022,-0.65332 -1.282308,-0.1512 -2.181449,-1.095571 -2.298339,-2.38147 C 3.1214488,29.578133 2.9999998,27.367597 2.9999998,24 c 0,-3.367597 0.121449,-5.578133 0.247559,-6.965332 0.11689,-1.285899 1.016031,-2.23027 2.298339,-2.38147 C 7.9965058,14.364399 13.223711,13.999878 24,13.999878 Z"
     sodipodi:nodetypes="scssscsccsccs" />
  <path
     id="rect1979"
     style="fill:#606668;stroke:none;stroke-width:1.875;stroke-linecap:round;stroke-linejoin:round;fill-opacity:1"
     d="m 34.678273,6 c 2.354498,0 3.959988,0.058469 5.019287,0.1237793 1.114099,0.06869 1.93685,0.8661647 1.96875,1.9819336 0.0074,0.2623797 0.01172,0.5591674 0.01172,0.8942871 0,0.3351197 -0.0043,0.6319074 -0.01172,0.8942871 -0.0319,1.1157889 -0.854651,1.9132339 -1.96875,1.9819339 -0.558099,0.0344 -1.26798,0.06699 -2.15918,0.09009 0.0714,2.401997 0.139893,6.218797 0.139893,12.033691 0,5.814894 -0.06849,9.631694 -0.139893,12.033691 0.8912,0.0231 1.601081,0.05569 2.15918,0.09009 1.114099,0.0687 1.93685,0.866135 1.96875,1.981934 0.0074,0.2624 0.01172,0.559187 0.01172,0.894287 0,0.3351 -0.0043,0.631887 -0.01172,0.894287 -0.0319,1.115799 -0.854651,1.913234 -1.96875,1.981934 C 38.638261,41.941525 37.032771,42 34.678273,42 32.323775,42 30.717919,41.94152 29.65862,41.876221 28.544511,41.807521 27.722086,41.010086 27.690236,39.894287 27.682736,39.631887 27.678156,39.3351 27.678156,39 c 0,-0.3351 0.0046,-0.631887 0.01209,-0.894287 0.03185,-1.115799 0.854275,-1.913234 1.968384,-1.981934 0.558099,-0.0344 1.26798,-0.06699 2.159179,-0.09009 C 31.746409,33.631694 31.678278,29.814894 31.678278,24 c 0,-5.814894 0.06813,-9.631694 0.139526,-12.033691 -0.891199,-0.0231 -1.60108,-0.05569 -2.159179,-0.09009 -1.114109,-0.0687 -1.936534,-0.866143 -1.968384,-1.9819319 C 27.682741,9.6319074 27.678161,9.3351197 27.678161,9 c 0,-0.3351197 0.0046,-0.6319174 0.01209,-0.8942871 C 27.722091,6.989944 28.544521,6.1924692 29.65863,6.1237793 30.717929,6.0584693 32.323785,6 34.678283,6 Z"
     sodipodi:nodetypes="sscscccscccsccscsssccsccsscss" />
  <path
     id="rect505"
     style="fill:#fd3131;fill-opacity:1;stroke-width:3.01971;stroke-linecap:round;stroke-linejoin:round"
     d="m 17.772727,13.247991 c 0.496437,0.02084 0.991279,0.24101 1.394845,0.611608 0.919484,0.844346 2.452298,2.288739 4.83212,4.628054 2.379919,-2.339315 3.913221,-3.783708 4.832707,-4.628054 0.717548,-0.658842 1.723041,-0.843086 2.514262,-0.274839 0.453872,0.325898 1.009367,0.783479 1.647273,1.421384 0.638004,0.637906 1.095485,1.193499 1.421383,1.647273 0.568247,0.791221 0.384101,1.796715 -0.274839,2.514262 -0.844347,0.919485 -2.28874,2.45289 -4.628053,4.832707 2.339021,2.379529 3.783215,3.912734 4.627463,4.832121 0.658844,0.717547 0.843086,1.722943 0.274841,2.514259 -0.325899,0.453773 -0.78348,1.008778 -1.421384,1.646684 -0.637908,0.637906 -1.193403,1.096073 -1.647277,1.421975 -0.791216,0.568248 -1.796708,0.383512 -2.514259,-0.27543 -0.919482,-0.844247 -2.4521,-2.28854 -4.83153,-4.627464 -2.379525,2.338924 -3.912632,3.783217 -4.832117,4.627464 -0.717451,0.658942 -1.723042,0.843678 -2.514259,0.27543 -0.453875,-0.325902 -1.009369,-0.784069 -1.647275,-1.421975 -0.637905,-0.637906 -1.095486,-1.192911 -1.421385,-1.646684 -0.568246,-0.791316 -0.384004,-1.796712 0.27484,-2.514259 0.844249,-0.919387 2.288443,-2.45269 4.627463,-4.832121 -2.339314,-2.379817 -3.783707,-3.913222 -4.628053,-4.832707 -0.658843,-0.717547 -0.843086,-1.723041 -0.27484,-2.514262 0.325899,-0.453774 0.783478,-1.009367 1.421385,-1.647273 0.637908,-0.637905 1.193401,-1.095486 1.647272,-1.421384 0.346159,-0.248564 0.733296,-0.352984 1.119417,-0.336769 z"
     sodipodi:nodetypes="scccccsccccscccccscccccscs" />
</svg>
