<?xml version="1.0" encoding="UTF-8" standalone="no"?>
<svg
   fill="none"
   viewBox="0 0 48 48"
   height="256"
   width="256"
   version="1.1"
   id="svg141"
   sodipodi:docname="scroll_up.svg"
   inkscape:version="1.2.1 (9c6d41e410, 2022-07-14)"
   xmlns:inkscape="http://www.inkscape.org/namespaces/inkscape"
   xmlns:sodipodi="http://sodipodi.sourceforge.net/DTD/sodipodi-0.dtd"
   xmlns="http://www.w3.org/2000/svg"
   xmlns:svg="http://www.w3.org/2000/svg">
  <defs
     id="defs145" />
  <sodipodi:namedview
     id="namedview143"
     pagecolor="#ffffff"
     bordercolor="#666666"
     borderopacity="1.0"
     inkscape:showpageshadow="2"
     inkscape:pageopacity="0.0"
     inkscape:pagecheckerboard="0"
     inkscape:deskcolor="#d1d1d1"
     showgrid="false"
     inkscape:zoom="1.0722656"
     inkscape:cx="-9.3260472"
     inkscape:cy="75.07468"
     inkscape:current-layer="svg141"
     inkscape:window-width="1920"
     inkscape:window-height="730"
     inkscape:window-x="-6"
     inkscape:window-y="-6"
     inkscape:window-maximized="1" />
  <path
     fill="#edf1e9"
     d="M30.049 2.06996C30.049 2.06996 32.7693 3.1 37.7693 8.05C42.751 12.9819 43.7957 15.6797 43.8033 15.6994C43.9247 18.0495 44 20.7979 44 24C44 33.5541 43.3294 39.0688 42.7649 42.0187C42.4022 43.9138 40.9085 45.2127 38.9715 45.4197C36.3568 45.699 31.7428 46 24 46C16.2572 46 11.6432 45.699 9.02852 45.4197C7.09148 45.2127 5.59781 43.9138 5.23513 42.0187C4.67056 39.0688 4 33.5541 4 24C4 14.4459 4.67056 8.93121 5.23513 5.98128C5.59782 4.08618 7.09148 2.78727 9.02852 2.58034C11.6432 2.30102 16.2572 2 24 2C26.2774 2 28.2842 2.02609 30.049 2.06996Z"
     id="path135"
     style="fill:#edf1e9;fill-opacity:1" />
  <path
     fill="#adafaa"
     d="M43.8024 15.6998C40.6029 16.4965 36.8253 16.5494 33.5625 15.5626C32.1831 15.1454 31.1075 14.0816 30.642 12.7301C29.4822 9.36336 29.1957 5.24234 30.0481 2.07031C30.0481 2.07031 32.7684 3.10035 37.7684 8.05035C42.7684 13.0004 43.8024 15.6998 43.8024 15.6998Z"
     id="path137"
     style="fill:#adafaa;fill-opacity:1" />
  <g
     id="g292"
     transform="matrix(1,0,0,-1,0,54.375)"
     style="fill:#606668;fill-opacity:1">
    <path
       fill="#606668"
       d="m 31.296699,29.8282 c 2.4762,0.1463 3.5366,2.5162 2.1858,4.5966 -0.815,1.2553 -1.8154,2.7594 -2.9825,4.4475 -1.4198,2.0535 -2.7573,3.5561 -3.8456,4.6168 -1.5215,1.4828 -3.7873,1.4828 -5.3088,0 -1.0883,-1.0607 -2.4258,-2.5633 -3.8456,-4.6168 -1.1671,-1.6881 -2.1675,-3.1922 -2.9825,-4.4475 -1.3508,-2.0804 -0.2904,-4.4503 2.1859,-4.5966 1.754,-0.1035 4.1222,-0.1794 7.2966,-0.1794 3.1744,0 5.5426,0.0759 7.2967,0.1794 z"
       id="path4"
       style="fill:#606668;fill-opacity:1" />
    <path
       fill="#606668"
       d="m 31.296699,20.8282 c 2.4762,0.1463 3.5366,2.5162 2.1858,4.5966 -0.815,1.2553 -1.8154,2.7594 -2.9825,4.4475 -1.4198,2.0535 -2.7573,3.5561 -3.8456,4.6168 -1.5215,1.4828 -3.7873,1.4828 -5.3088,0 -1.0883,-1.0607 -2.4258,-2.5633 -3.8456,-4.6168 -1.1671,-1.6881 -2.1675,-3.1922 -2.9825,-4.4475 -1.3508,-2.0804 -0.2904,-4.4503 2.1859,-4.5966 1.754,-0.1035 4.1222,-0.1794 7.2966,-0.1794 3.1744,0 5.5426,0.0759 7.2967,0.1794 z"
       id="path444"
       style="fill:#606668;fill-opacity:1" />
  </g>
</svg>
