<?xml version="1.0" encoding="UTF-8" standalone="no"?>
<svg
   fill="none"
   viewBox="0 0 48 48"
   height="256"
   width="256"
   version="1.1"
   id="svg1128"
   sodipodi:docname="select_down.svg"
   inkscape:version="1.2.1 (9c6d41e410, 2022-07-14)"
   xmlns:inkscape="http://www.inkscape.org/namespaces/inkscape"
   xmlns:sodipodi="http://sodipodi.sourceforge.net/DTD/sodipodi-0.dtd"
   xmlns="http://www.w3.org/2000/svg"
   xmlns:svg="http://www.w3.org/2000/svg">
  <defs
     id="defs1132" />
  <sodipodi:namedview
     id="namedview1130"
     pagecolor="#ffffff"
     bordercolor="#666666"
     borderopacity="1.0"
     inkscape:showpageshadow="2"
     inkscape:pageopacity="0.0"
     inkscape:pagecheckerboard="0"
     inkscape:deskcolor="#d1d1d1"
     showgrid="false"
     inkscape:zoom="1.1083985"
     inkscape:cx="-123.60176"
     inkscape:cy="90.671361"
     inkscape:current-layer="svg1128"
     inkscape:window-width="1920"
     inkscape:window-height="730"
     inkscape:window-x="-6"
     inkscape:window-y="-6"
     inkscape:window-maximized="1" />
  <path
     fill="#828480"
     d="M18.0411 11.4156C18.1141 10.1358 19.0722 9.28475 20.3519 9.20957C22.1065 9.10648 25.2988 9 31 9C36.7012 9 39.8935 9.10648 41.6481 9.20957C42.9278 9.28475 43.8859 10.1358 43.9589 11.4156C43.9839 11.8537 44 12.3774 44 13C44 13.6226 43.9839 14.1463 43.9589 14.5844C43.8859 15.8642 42.9278 16.7153 41.6481 16.7904C39.8935 16.8935 36.7012 17 31 17C25.2988 17 22.1065 16.8935 20.3519 16.7904C19.0722 16.7152 18.1141 15.8642 18.0411 14.5843C18.0161 14.1463 18 13.6226 18 13C18 12.3774 18.0161 11.8537 18.0411 11.4156Z"
     id="path1120"
     style="fill:#828480;fill-opacity:1" />
  <path
     fill="#828480"
     d="M4.08797 24.1614C4.21176 23.0124 5.15468 22.326 6.30883 22.2672C8.5922 22.1507 13.5639 22 24 22C34.4361 22 39.4078 22.1507 41.6912 22.2672C42.8453 22.326 43.7882 23.0124 43.912 24.1614C43.9643 24.6468 44 25.2521 44 26C44 26.7479 43.9643 27.3532 43.912 27.8386C43.7882 28.9876 42.8453 29.674 41.6912 29.7328C39.4078 29.8493 34.4361 30 24 30C13.5639 30 8.59221 29.8493 6.30884 29.7328C5.15469 29.674 4.21176 28.9876 4.08797 27.8386C4.03568 27.3532 4 26.7479 4 26C4 25.2521 4.03568 24.6468 4.08797 24.1614Z"
     id="path1122"
     style="fill:#828480;fill-opacity:1" />
  <path
     fill="#828480"
     d="M6.30883 35.2672C5.15468 35.326 4.21176 36.0124 4.08797 37.1614C4.03568 37.6468 4 38.2521 4 39C4 39.7479 4.03568 40.3532 4.08797 40.8386C4.21176 41.9876 5.15469 42.674 6.30884 42.7328C8.59221 42.8493 13.5639 43 24 43C34.4361 43 39.4078 42.8493 41.6912 42.7328C42.8453 42.674 43.7882 41.9876 43.912 40.8386C43.9643 40.3532 44 39.7479 44 39C44 38.2521 43.9643 37.6468 43.912 37.1614C43.7882 36.0124 42.8453 35.326 41.6912 35.2672C39.4078 35.1507 34.4361 35 24 35C13.5639 35 8.5922 35.1507 6.30883 35.2672Z"
     id="path1124"
     style="fill:#828480;fill-opacity:1" />
  <path
     id="rect1979"
     style="fill:#507ab7;stroke:none;stroke-width:0.949224;stroke-linecap:round;stroke-linejoin:round"
     d="m 38.6251,30.798752 c 1.324405,0 2.227494,0.02664 2.823349,0.05639 0.626681,0.0313 1.089478,0.394646 1.107422,0.903019 0.0041,0.119547 0.0066,0.25477 0.0066,0.40746 0,0.152688 -0.0024,0.287912 -0.0066,0.407458 -0.01794,0.508382 -0.480741,0.871719 -1.107422,0.90302 -0.31393,0.01567 -0.713239,0.03052 -1.214539,0.04105 0.04016,1.09441 0.07869,2.83344 0.07869,5.48285 0,2.649411 -0.03853,4.388441 -0.07869,5.482851 0.5013,0.01052 0.900609,0.02538 1.214539,0.04105 0.626681,0.0313 1.089478,0.394633 1.107422,0.90302 0.0041,0.119556 0.0066,0.254779 0.0066,0.407459 0,0.15268 -0.0024,0.287903 -0.0066,0.407459 -0.01794,0.508387 -0.480741,0.871719 -1.107422,0.903019 -0.595855,0.02975 -1.498944,0.05639 -2.823349,0.05639 -1.324405,0 -2.227699,-0.02664 -2.823555,-0.05639 -0.626686,-0.0313 -1.0893,-0.394632 -1.107216,-0.903019 -0.0042,-0.119556 -0.0068,-0.254779 -0.0068,-0.407459 0,-0.15268 0.0026,-0.287903 0.0068,-0.407459 0.01792,-0.508387 0.48053,-0.871719 1.107216,-0.90302 0.313931,-0.01567 0.713239,-0.03052 1.214538,-0.04105 -0.04016,-1.09441 -0.07848,-2.833439 -0.07848,-5.482849 0,-2.649412 0.03833,-4.388442 0.07848,-5.482851 -0.501299,-0.01052 -0.900607,-0.02538 -1.214538,-0.04105 -0.626686,-0.0313 -1.0893,-0.394635 -1.107216,-0.903016 -0.0042,-0.119547 -0.0068,-0.25477 -0.0068,-0.40746 0,-0.15269 0.0026,-0.287916 0.0068,-0.407459 0.01792,-0.508372 0.48053,-0.871722 1.107216,-0.903018 0.595856,-0.02976 1.49915,-0.05639 2.823555,-0.05639 z"
     sodipodi:nodetypes="sscscccscccsccscsssccsccsscss" />
  <path
     fill="#606668"
     d="M11.7683 14.378H8.06814C7.89265 14.9695 7.75076 15.5068 7.62065 15.9995C7.49326 16.4819 7.13247 16.8836 6.63877 16.9559C6.44161 16.9847 6.24249 17 6.04429 17C5.30565 17 4.39919 16.8481 4.10059 16.2164C3.96088 15.9208 4.05294 15.5803 4.15788 15.2707C4.66679 13.7688 6.28665 8.99535 7.24423 6.25253C7.40596 5.78929 7.72897 5.38817 8.19812 5.24448C8.77003 5.06933 9.40094 5 9.96934 5C10.9267 5 12.4239 5.16921 12.7905 6.16747L15.6547 15.2879C15.8684 15.9685 15.6806 16.7417 14.9834 16.893C14.7215 16.9498 14.4244 16.9809 14.0988 16.9809C13.0661 16.9809 12.4022 16.6667 12.1363 15.6986L11.7683 14.378ZM10.0082 8.00479C9.97257 8.00479 9.94085 8.02685 9.92864 8.06028C9.55003 9.09647 9.06898 10.3653 8.64055 11.7943H11.1755C10.8473 10.5434 10.4551 9.30726 10.0894 8.0656C10.0788 8.02955 10.0457 8.00479 10.0082 8.00479V8.00479Z"
     id="path1126"
     style="fill:#606668;fill-opacity:1" />
</svg>
