<?xml version="1.0" encoding="UTF-8" standalone="no"?>
<svg
   fill="none"
   viewBox="0 0 48 48"
   height="256"
   width="256"
   version="1.1"
   id="svg1854"
   sodipodi:docname="tab_spaces_invisible.svg"
   inkscape:version="1.2.1 (9c6d41e410, 2022-07-14)"
   xmlns:inkscape="http://www.inkscape.org/namespaces/inkscape"
   xmlns:sodipodi="http://sodipodi.sourceforge.net/DTD/sodipodi-0.dtd"
   xmlns="http://www.w3.org/2000/svg"
   xmlns:svg="http://www.w3.org/2000/svg">
  <defs
     id="defs1858" />
  <sodipodi:namedview
     id="namedview1856"
     pagecolor="#ffffff"
     bordercolor="#666666"
     borderopacity="1.0"
     inkscape:showpageshadow="2"
     inkscape:pageopacity="0.0"
     inkscape:pagecheckerboard="0"
     inkscape:deskcolor="#d1d1d1"
     showgrid="false"
     inkscape:zoom="0.97460938"
     inkscape:cx="24.62525"
     inkscape:cy="58.997996"
     inkscape:current-layer="svg1854"
     inkscape:window-width="1920"
     inkscape:window-height="730"
     inkscape:window-x="-6"
     inkscape:window-y="-6"
     inkscape:window-maximized="1" />
  <path
     id="rect2345"
     style="fill:#adafaa;fill-opacity:1;stroke:none;stroke-width:1.875;stroke-linecap:round;stroke-linejoin:round"
     d="m 24,13.999878 c 10.776289,0 16.003404,0.364521 18.454102,0.65332 1.282298,0.1512 2.18144,1.095571 2.298339,2.38147 C 44.878541,18.421867 45,20.632403 45,24 c 0,3.367597 -0.121459,5.578133 -0.247559,6.965332 -0.116899,1.285899 -1.016041,2.23027 -2.298339,2.38147 -2.450698,0.288799 -7.677813,0.65332 -18.454102,0.65332 -10.776289,0 -16.003494,-0.364521 -18.4541016,-0.65332 C 4.2635897,33.195602 3.3644485,32.251231 3.2475586,30.965332 3.1214487,29.578133 3,27.367597 3,24 3,20.632403 3.1214487,18.421867 3.2475586,17.034668 3.3644485,15.748769 4.2635897,14.804398 5.5458984,14.653198 7.996506,14.364399 13.223711,13.999878 24,13.999878 Z"
     sodipodi:nodetypes="scssscsccsccs" />
  <path
     id="rect1979"
     style="fill:#606668;stroke:none;stroke-width:1.875;stroke-linecap:round;stroke-linejoin:round;fill-opacity:1"
     d="m 37.750122,6 c 2.354498,0 3.959988,0.058469 5.019287,0.1237793 1.114099,0.06869 1.93685,0.8661647 1.96875,1.9819336 0.0074,0.2623797 0.01172,0.5591674 0.01172,0.8942871 0,0.3351197 -0.0043,0.6319074 -0.01172,0.8942871 -0.0319,1.1157889 -0.854651,1.9132339 -1.96875,1.9819339 -0.558099,0.0344 -1.26798,0.06699 -2.15918,0.09009 0.0714,2.401997 0.139893,6.218797 0.139893,12.033691 0,5.814894 -0.06849,9.631694 -0.139893,12.033691 0.8912,0.0231 1.601081,0.05569 2.15918,0.09009 1.114099,0.0687 1.93685,0.866135 1.96875,1.981934 0.0074,0.2624 0.01172,0.559187 0.01172,0.894287 0,0.3351 -0.0043,0.631887 -0.01172,0.894287 -0.0319,1.115799 -0.854651,1.913234 -1.96875,1.981934 C 41.71011,41.941521 40.10462,42 37.750122,42 35.395624,42 33.789768,41.941521 32.730469,41.876221 31.61636,41.807521 30.793935,41.010086 30.762085,39.894287 30.754595,39.631887 30.75,39.3351 30.75,39 c 0,-0.3351 0.0046,-0.631887 0.01209,-0.894287 0.03185,-1.115799 0.854275,-1.913234 1.968384,-1.981934 0.558099,-0.0344 1.26798,-0.06699 2.159179,-0.09009 C 34.818249,33.631694 34.750122,29.814894 34.750122,24 c 0,-5.814894 0.06813,-9.631694 0.139526,-12.033691 -0.891199,-0.0231 -1.60108,-0.05569 -2.159179,-0.09009 C 31.61636,11.807521 30.793935,11.010076 30.762085,9.8942871 30.754595,9.6319074 30.75,9.3351197 30.75,9 30.75,8.6648803 30.7546,8.3680826 30.76209,8.1057129 30.793935,6.989944 31.61636,6.1924692 32.730469,6.1237793 33.789768,6.0584694 35.395624,6 37.750122,6 Z"
     sodipodi:nodetypes="sscscccscccsccscsssccsccsscss" />
</svg>
