<?xml version="1.0" encoding="UTF-8" standalone="no"?>
<svg
   fill="none"
   viewBox="0 0 48 48"
   height="256"
   width="256"
   version="1.1"
   id="svg10"
   sodipodi:docname="to_lower.svg"
   inkscape:version="1.2.1 (9c6d41e410, 2022-07-14)"
   xmlns:inkscape="http://www.inkscape.org/namespaces/inkscape"
   xmlns:sodipodi="http://sodipodi.sourceforge.net/DTD/sodipodi-0.dtd"
   xmlns="http://www.w3.org/2000/svg"
   xmlns:svg="http://www.w3.org/2000/svg">
  <defs
     id="defs14" />
  <sodipodi:namedview
     id="namedview12"
     pagecolor="#ffffff"
     bordercolor="#666666"
     borderopacity="1.0"
     inkscape:showpageshadow="2"
     inkscape:pageopacity="0.0"
     inkscape:pagecheckerboard="0"
     inkscape:deskcolor="#d1d1d1"
     showgrid="false"
     inkscape:zoom="1.5164126"
     inkscape:cx="42.204874"
     inkscape:cy="87.377277"
     inkscape:current-layer="svg10"
     inkscape:window-width="1920"
     inkscape:window-height="730"
     inkscape:window-x="-6"
     inkscape:window-y="-6"
     inkscape:window-maximized="1" />
  <path
     fill="#606668"
     d="M22.2812 40.9839C22.4083 43.4886 24.2001 45.4948 26.6984 45.7141C28.4915 45.8716 30.9032 46 34 46C37.0968 46 39.5085 45.8716 41.3016 45.7141C43.7999 45.4948 45.5917 43.4886 45.7187 40.9839C45.8601 38.1962 46 33.9375 46 28C46 22.0625 45.8601 17.8038 45.7187 15.0161C45.5917 12.5114 43.7999 10.5052 41.3016 10.2859C39.5085 10.1284 37.0968 10 34 10C30.9032 10 28.4915 10.1284 26.6984 10.2859C24.2001 10.5052 22.4083 12.5114 22.2813 15.0161C22.1399 17.8038 22 22.0625 22 28C22 33.9375 22.1399 38.1962 22.2812 40.9839Z"
     id="path2"
     style="fill:#606668;fill-opacity:1" />
  <path
     fill="#edf1e9"
     d="M2.28125 32.9839C2.40826 35.4886 4.20008 37.4948 6.69842 37.7141C8.49148 37.8716 10.9032 38 14 38C17.0968 38 19.5085 37.8716 21.3016 37.7141C23.7999 37.4948 25.5917 35.4886 25.7187 32.9839C25.8601 30.1962 26 25.9375 26 20C26 14.0625 25.8601 9.80377 25.7187 7.01612C25.5917 4.51139 23.7999 2.50524 21.3016 2.28587C19.5085 2.12843 17.0968 2 14 2C10.9032 2 8.49148 2.12843 6.69842 2.28587C4.20008 2.50524 2.40826 4.51139 2.28125 7.01612C2.1399 9.80377 2 14.0625 2 20C2 25.9375 2.1399 30.1962 2.28125 32.9839Z"
     id="path4"
     style="fill:#edf1e9;fill-opacity:1" />
  <path
     fill="#606668"
     d="M16.0612 23.9645H11.7427C11.6241 24.3912 11.5137 24.7683 11.4058 25.1389C11.1279 26.0932 10.4199 26.9347 9.42718 26.9828C8.75785 27.0152 8.08733 26.9036 7.56734 26.5501C6.99451 26.1206 6.89751 25.3876 7.09016 24.7135C7.88043 21.9483 9.43785 17.3753 10.354 14.7308C10.8165 13.3958 11.7489 12.1909 13.1539 12.042C13.4285 12.0129 13.7004 12 13.9616 12C15.0376 12 16.8137 12.1742 17.2541 13.455C18.5456 17.1132 19.5647 20.8968 20.5831 24.6572C20.8432 25.6175 20.5691 26.6758 19.5967 26.8859C18.9415 27.0275 18.2026 27.0399 17.6116 26.9085C17.0403 26.7816 16.709 26.2516 16.5454 25.6897C16.3858 25.1414 16.1869 24.4462 16.0612 23.9645ZM14.0073 16.1128C13.9655 16.1128 13.9281 16.1389 13.9136 16.1781L12.4107 20.253H15.3693L14.1027 16.183C14.0897 16.1412 14.0511 16.1128 14.0073 16.1128V16.1128Z"
     id="path6"
     style="fill:#606668;fill-opacity:1" />
  <g
     aria-label="a"
     id="text351"
     style="font-size:20px;line-height:1.25;font-family:'Arial Rounded MT Bold';-inkscape-font-specification:'Arial Rounded MT Bold, Normal';word-spacing:0px;fill:#edf1e9;stroke-width:0.1875;fill-opacity:1">
    <path
       d="m 36.376465,34.288773 q -0.966797,0.751953 -1.875,1.132812 -0.898438,0.371094 -2.021485,0.371094 -1.02539,0 -1.80664,-0.400391 -0.771485,-0.410156 -1.191406,-1.103515 -0.419922,-0.69336 -0.419922,-1.503907 0,-1.09375 0.693359,-1.865234 0.693359,-0.771484 1.904297,-1.035156 0.253906,-0.05859 1.259766,-0.263672 1.005859,-0.205078 1.71875,-0.371094 0.722656,-0.175781 1.5625,-0.419922 -0.04883,-1.054687 -0.429688,-1.542969 -0.371094,-0.498046 -1.552734,-0.498046 -1.015625,0 -1.533203,0.283203 -0.507813,0.283203 -0.878907,0.849609 -0.361328,0.566406 -0.517578,0.751953 -0.146484,0.175781 -0.644531,0.175781 -0.449219,0 -0.78125,-0.283203 -0.322266,-0.292968 -0.322266,-0.742187 0,-0.703125 0.498047,-1.367188 0.498047,-0.664062 1.552735,-1.09375 1.054687,-0.429687 2.626953,-0.429687 1.757812,0 2.763672,0.419922 1.005859,0.410156 1.416015,1.308593 0.419922,0.898438 0.419922,2.382813 0,0.9375 -0.0098,1.591797 0,0.654297 -0.0098,1.455078 0,0.751953 0.24414,1.572266 0.253907,0.810546 0.253907,1.044921 0,0.410157 -0.390625,0.751954 -0.38086,0.332031 -0.869141,0.332031 -0.410156,0 -0.810547,-0.38086 -0.40039,-0.390625 -0.849609,-1.123046 z m -0.175781,-3.857422 q -0.585938,0.214843 -1.708985,0.458984 -1.113281,0.234375 -1.542969,0.351563 -0.429687,0.107421 -0.820312,0.439453 -0.390625,0.322265 -0.390625,0.908203 0,0.605469 0.458984,1.035156 0.458985,0.419922 1.201172,0.419922 0.791016,0 1.455078,-0.341797 0.673828,-0.351562 0.986328,-0.898437 0.361329,-0.605469 0.361329,-1.992188 z"
       id="path291"
       style="fill:#edf1e9;fill-opacity:1" />
  </g>
</svg>
