<?xml version="1.0" encoding="UTF-8" standalone="no"?>
<svg
   fill="none"
   viewBox="0 0 48 48"
   height="256"
   width="256"
   version="1.1"
   id="svg10"
   sodipodi:docname="to_upper.svg"
   inkscape:version="1.2.1 (9c6d41e410, 2022-07-14)"
   xmlns:inkscape="http://www.inkscape.org/namespaces/inkscape"
   xmlns:sodipodi="http://sodipodi.sourceforge.net/DTD/sodipodi-0.dtd"
   xmlns="http://www.w3.org/2000/svg"
   xmlns:svg="http://www.w3.org/2000/svg">
  <defs
     id="defs14" />
  <sodipodi:namedview
     id="namedview12"
     pagecolor="#ffffff"
     bordercolor="#666666"
     borderopacity="1.0"
     inkscape:showpageshadow="2"
     inkscape:pageopacity="0.0"
     inkscape:pagecheckerboard="0"
     inkscape:deskcolor="#d1d1d1"
     showgrid="false"
     inkscape:zoom="1.0722656"
     inkscape:cx="29.843352"
     inkscape:cy="104.91804"
     inkscape:current-layer="svg10"
     inkscape:window-width="1920"
     inkscape:window-height="730"
     inkscape:window-x="-6"
     inkscape:window-y="-6"
     inkscape:window-maximized="1" />
  <path
     fill="#606668"
     d="m 22.2812,33.1089 c 0.1271,2.5047 1.9189,4.5109 4.4172,4.7302 1.7931,0.1575 4.2048,0.2859 7.3016,0.2859 3.0968,0 5.5085,-0.1284 7.3016,-0.2859 2.4983,-0.2193 4.2901,-2.2255 4.4171,-4.7302 C 45.8601,30.3212 46,26.0625 46,20.125 46,14.1875 45.8601,9.9288 45.7187,7.1411 45.5917,4.6364 43.7999,2.6302 41.3016,2.4109 39.5085,2.2534 37.0968,2.125 34,2.125 30.9032,2.125 28.4915,2.2534 26.6984,2.4109 24.2001,2.6302 22.4083,4.6364 22.2813,7.1411 22.1399,9.9288 22,14.1875 22,20.125 c 0,5.9375 0.1399,10.1962 0.2812,12.9839 z"
     id="path2"
     style="fill:#606668;fill-opacity:1" />
  <path
     id="rect899"
     style="fill:#edf1e9;fill-opacity:1;stroke-width:1.875;stroke-linejoin:round"
     d="m 34.211426,13.125 c 1.075999,0 2.852203,0.174157 3.292602,1.454956 1.291499,3.658196 2.310825,7.441996 3.329224,11.202393 0.2601,0.960299 -0.01417,2.018293 -0.986572,2.228393 -0.6552,0.1416 -1.39423,0.154105 -1.98523,0.0227 -0.571299,-0.1269 -0.90244,-0.65685 -1.06604,-1.21875 -0.1596,-0.548299 -0.358431,-1.24352 -0.484131,-1.725219 h -4.318725 c -0.1186,0.426699 -0.229014,0.803838 -0.336914,1.174438 -0.2779,0.954299 -0.985919,1.795772 -1.978638,1.843872 -0.669329,0.0324 -1.33963,-0.07936 -1.859619,-0.432861 -0.57283,-0.4295 -0.669823,-1.162449 -0.477173,-1.836548 0.790269,-2.765197 2.347523,-7.338047 3.263672,-9.982544 0.462499,-1.334999 1.39505,-2.539821 2.800049,-2.688721 0.274599,-0.0291 0.546295,-0.04211 0.807495,-0.04211 z m 0.04578,4.112915 c -0.0418,0 -0.07925,0.02599 -0.09375,0.06519 l -1.50293,4.074829 h 2.958619 l -1.266358,-4.070069 c -0.013,-0.0418 -0.05178,-0.06995 -0.09558,-0.06995 z"
     sodipodi:nodetypes="sccccccccccsssssccccs" />
  <path
     fill="#edf1e9"
     d="m 2.28125,40.8589 c 0.12701,2.5047 1.91883,4.5109 4.41717,4.7302 1.79306,0.1575 4.20478,0.2859 7.30158,0.2859 3.0968,0 5.5085,-0.1284 7.3016,-0.2859 2.4983,-0.2193 4.2901,-2.2255 4.4171,-4.7302 C 25.8601,38.0712 26,33.8125 26,27.875 26,21.9375 25.8601,17.67877 25.7187,14.89112 25.5917,12.38639 23.7999,10.38024 21.3016,10.16087 19.5085,10.00343 17.0968,9.875 14,9.875 10.9032,9.875 8.49148,10.00343 6.69842,10.16087 4.20008,10.38024 2.40826,12.38639 2.28125,14.89112 2.1399,17.67877 2,21.9375 2,27.875 2,33.8125 2.1399,38.0712 2.28125,40.8589 Z"
     id="path4"
     style="fill:#edf1e9;fill-opacity:1" />
  <path
     id="rect1050"
     style="fill:#606668;fill-opacity:1;stroke-width:1.875;stroke-linejoin:round"
     d="m 13.968384,23.808472 c 1.171873,0 2.092855,0.13973 2.763428,0.419677 0.670572,0.273437 1.1427,0.709881 1.416137,1.308838 0.279948,0.598958 0.420044,1.392986 0.420044,2.382569 0,0.624999 -0.0034,1.155721 -0.0099,1.591919 0,0.436197 -0.0034,0.921102 -0.0099,1.454956 0,0.501301 0.0815,1.025635 0.244262,1.572509 0.169272,0.540364 0.253785,0.88855 0.253785,1.0448 0,0.273438 -0.130331,0.523967 -0.390747,0.751831 -0.253907,0.221354 -0.543499,0.332154 -0.869019,0.332154 -0.273437,0 -0.543498,-0.126953 -0.810425,-0.38086 -0.266926,-0.260416 -0.55013,-0.634889 -0.849609,-1.123169 -0.644531,0.501302 -1.269532,0.879151 -1.875,1.133057 -0.598958,0.247396 -1.272787,0.370972 -2.021485,0.370972 -0.683592,0 -1.285685,-0.133342 -1.806518,-0.400269 C 9.9091391,33.994019 9.5117586,33.625935 9.2318115,33.163696 8.9518638,32.701457 8.8121338,32.200398 8.8121338,31.660034 c 0,-0.729166 0.2309984,-1.351156 0.6932373,-1.865478 0.4622389,-0.514322 1.0970059,-0.859131 1.9042969,-1.034912 0.16927,-0.03906 0.589193,-0.126951 1.259766,-0.263672 0.670572,-0.136719 1.243367,-0.260661 1.718628,-0.371338 0.48177,-0.117187 1.002726,-0.256917 1.562622,-0.419678 -0.03255,-0.703124 -0.175661,-1.217692 -0.429566,-1.543213 -0.247396,-0.33203 -0.764975,-0.498047 -1.552734,-0.498047 -0.677083,0 -1.188274,0.09465 -1.533325,0.283448 -0.338542,0.188801 -0.631511,0.472005 -0.878907,0.849609 -0.240885,0.377604 -0.413289,0.628133 -0.517456,0.751831 -0.09766,0.117187 -0.3125,0.175781 -0.644531,0.175781 -0.299479,0 -0.5601403,-0.09428 -0.7814941,-0.283081 -0.2148438,-0.195312 -0.3222656,-0.44283 -0.3222656,-0.742309 0,-0.46875 0.1660158,-0.924358 0.4980468,-1.367066 0.3320309,-0.442707 0.8496099,-0.807414 1.5527349,-1.093872 0.703123,-0.286458 1.579021,-0.429565 2.627197,-0.429565 z m 1.9823,5.497924 c -0.390625,0.143229 -0.96041,0.296102 -1.709107,0.458863 -0.742186,0.15625 -1.256388,0.273437 -1.542847,0.351562 -0.286457,0.07161 -0.559896,0.218099 -0.820312,0.439453 -0.260416,0.214844 -0.390747,0.517579 -0.390747,0.908204 0,0.403645 0.153239,0.74882 0.459228,1.035278 0.30599,0.279948 0.706381,0.420044 1.201172,0.420044 0.527344,0 1.012249,-0.114177 1.454956,-0.342041 0.449219,-0.234375 0.777873,-0.533733 0.986206,-0.898316 0.240886,-0.403645 0.361451,-1.067709 0.361451,-1.992187 z"
     sodipodi:nodetypes="sccscccscscccscssscscccscccscssssccccscsccsc" />
  <g
     aria-label="a"
     id="text351"
     style="font-size:20px;line-height:1.25;font-family:'Arial Rounded MT Bold';-inkscape-font-specification:'Arial Rounded MT Bold, Normal';word-spacing:0px;fill:#507ab7;stroke-width:0.1875;fill-opacity:1"
     transform="translate(-20.25,-1.125)" />
</svg>
