<?xml version="1.0" encoding="UTF-8" standalone="no"?>
<svg
   fill="none"
   viewBox="0 0 48 48"
   height="256"
   width="256"
   version="1.1"
   id="svg4"
   sodipodi:docname="undo.svg"
   inkscape:version="1.2.1 (9c6d41e410, 2022-07-14)"
   xmlns:inkscape="http://www.inkscape.org/namespaces/inkscape"
   xmlns:sodipodi="http://sodipodi.sourceforge.net/DTD/sodipodi-0.dtd"
   xmlns="http://www.w3.org/2000/svg"
   xmlns:svg="http://www.w3.org/2000/svg">
  <defs
     id="defs8" />
  <sodipodi:namedview
     id="namedview6"
     pagecolor="#ffffff"
     bordercolor="#666666"
     borderopacity="1.0"
     inkscape:showpageshadow="2"
     inkscape:pageopacity="0.0"
     inkscape:pagecheckerboard="0"
     inkscape:deskcolor="#d1d1d1"
     showgrid="false"
     inkscape:zoom="2.1445312"
     inkscape:cx="76.007288"
     inkscape:cy="128.93261"
     inkscape:current-layer="svg4"
     inkscape:window-width="1920"
     inkscape:window-height="730"
     inkscape:window-x="-6"
     inkscape:window-y="-6"
     inkscape:window-maximized="1" />
  <path
     fill="#606668"
     fill-rule="evenodd"
     d="m 11.147,22.786 c 1.0062,0.6875 2.1728,0.1434 2.277,-1.0708 0.0624,-0.7266 0.1226,-1.6636 0.1684,-2.8609 C 21.5215,18.5 28.6744,18.5 28.6744,18.5 c 4.9706,0 8.5,3.5294 8.5,8.5 0,4.9706 -3.5294,9 -8.5,9 H 13.3503 c -1.6717,0 -3.278,0.8626 -3.5538,2.5115 C 9.722,38.9566 9.6744,39.4545 9.6744,40 c 0,0.5455 0.0476,1.0434 0.1221,1.4885 C 10.0723,43.1373 11.6786,44 13.3503,44 h 15.8241 c 8.83656,0 16.5,-6.5 16.5,-17 0,-10.5 -7.66344,-17.50001 -16.5,-17.50001 0,0 -7.5606,0 -15.582,-0.35499 C 13.5466,7.9484 13.4864,7.0118 13.4241,6.28542 13.3198,5.071 12.1529,4.52689 11.1466,5.21459 10.1228,5.91417 8.6766,6.97572 6.7568,8.54545 4.3817,10.4874 3.0939,11.9109 2.4094,12.8158 c -0.5459,0.7218 -0.5459,1.6465 2e-4,2.3683 0.6844,0.9048 1.9722,2.3283 4.3472,4.2704 1.92,1.5703 3.3664,2.6319 4.3902,3.3315 z"
     clip-rule="evenodd"
     id="path2"
     style="fill:#606668;fill-opacity:1" />
</svg>
