<?xml version="1.0" encoding="UTF-8" standalone="no"?>
<svg
   fill="none"
   viewBox="0 0 48 48"
   height="256"
   width="256"
   version="1.1"
   id="svg6"
   sodipodi:docname="unindent.svg"
   inkscape:version="1.2.1 (9c6d41e410, 2022-07-14)"
   xmlns:inkscape="http://www.inkscape.org/namespaces/inkscape"
   xmlns:sodipodi="http://sodipodi.sourceforge.net/DTD/sodipodi-0.dtd"
   xmlns="http://www.w3.org/2000/svg"
   xmlns:svg="http://www.w3.org/2000/svg">
  <defs
     id="defs10" />
  <sodipodi:namedview
     id="namedview8"
     pagecolor="#ffffff"
     bordercolor="#666666"
     borderopacity="1.0"
     inkscape:showpageshadow="2"
     inkscape:pageopacity="0.0"
     inkscape:pagecheckerboard="true"
     inkscape:deskcolor="#d1d1d1"
     showgrid="true"
     inkscape:zoom="1.1449053"
     inkscape:cx="30.570214"
     inkscape:cy="238.01095"
     inkscape:current-layer="svg6"
     inkscape:window-width="1920"
     inkscape:window-height="730"
     inkscape:window-x="-6"
     inkscape:window-y="-6"
     inkscape:window-maximized="1">
    <inkscape:grid
       type="xygrid"
       id="grid239"
       units="px"
       spacingx="1.5"
       spacingy="1.5" />
  </sodipodi:namedview>
  <path
     id="rect498"
     style="fill:#606668;fill-opacity:1;stroke:none;stroke-width:1.89119;stroke-linejoin:round"
     d="m 21.619605,14.185732 c -0.427399,-0.0123 -0.888657,0.124484 -1.333777,0.43689 -0.976751,0.685498 -2.212121,1.641217 -3.704766,2.960815 -2.183219,1.930096 -3.4826,3.55507 -4.232689,4.686768 -0.709291,1.070098 -0.70892,2.390229 3.74e-4,3.460327 0.750188,1.131598 2.0493,2.756105 4.232315,4.686401 1.493052,1.320198 2.728659,2.276316 3.705512,2.961914 1.424178,0.999498 3.013893,0.198352 3.128039,-1.517944 0.06592,-0.993098 0.125642,-2.278312 0.163182,-3.930908 3.669152,-0.0852 18.72131,-0.229427 20.356843,-0.327027 0.980007,-0.0585 1.818536,-0.626465 1.95074,-1.582763 0.06668,-0.4823 0.114749,-1.10106 0.114749,-1.881958 0,-0.7677 -0.04646,-1.403949 -0.111396,-1.917847 -0.136874,-1.083398 -1.083914,-1.772414 -2.192533,-1.836914 -1.666156,-0.097 -16.621793,-0.231544 -20.118403,-0.312744 -0.03754,-1.652098 -0.09716,-2.937278 -0.163182,-3.930177 -0.07841,-1.180228 -0.854733,-1.927778 -1.795008,-1.954833 z"
     sodipodi:nodetypes="scsccsccccssccccs" />
  <path
     id="path842"
     style="fill:#606668;fill-opacity:1;stroke:none;stroke-width:1.89119;stroke-linejoin:round"
     d="m 6.0695685,14.000063 c -0.791391,0 -1.426021,0.03672 -1.929504,0.08972 -1.131387,0.1193 -1.841035,1.012655 -1.92466,2.128051 -0.105499,1.407798 -0.215342,3.823857 -0.215342,7.782349 0,3.958492 0.109843,6.374185 0.215342,7.781983 0.08362,1.115396 0.793273,2.008751 1.92466,2.128051 0.503483,0.053 1.138113,0.08972 1.929504,0.08972 0.791393,0 1.425648,-0.03672 1.929132,-0.08972 1.131388,-0.1193 1.841034,-1.012655 1.92466,-2.128051 0.1054985,-1.407798 0.2153415,-3.823491 0.2153415,-7.781983 0,-3.958492 -0.109843,-6.374551 -0.2153415,-7.782349 -0.08363,-1.115396 -0.793272,-2.008751 -1.92466,-2.128051 -0.503484,-0.053 -1.137739,-0.08972 -1.929132,-0.08972 z"
     sodipodi:nodetypes="sccsccsccsccs" />
</svg>
