<?xml version="1.0" encoding="UTF-8" standalone="no"?>
<svg
   fill="none"
   viewBox="0 0 48 48"
   height="256"
   width="256"
   version="1.1"
   id="svg8"
   sodipodi:docname="card_world_purple.svg"
   inkscape:version="1.2.1 (9c6d41e410, 2022-07-14)"
   xmlns:inkscape="http://www.inkscape.org/namespaces/inkscape"
   xmlns:sodipodi="http://sodipodi.sourceforge.net/DTD/sodipodi-0.dtd"
   xmlns="http://www.w3.org/2000/svg"
   xmlns:svg="http://www.w3.org/2000/svg">
  <defs
     id="defs12">
    <inkscape:path-effect
       effect="attach_path"
       id="path-effect1188"
       lpeversion="1" />
  </defs>
  <sodipodi:namedview
     id="namedview10"
     pagecolor="#ffffff"
     bordercolor="#666666"
     borderopacity="1.0"
     inkscape:showpageshadow="2"
     inkscape:pageopacity="0.0"
     inkscape:pagecheckerboard="0"
     inkscape:deskcolor="#d1d1d1"
     showgrid="false"
     inkscape:zoom="1"
     inkscape:cx="167.5"
     inkscape:cy="73.499998"
     inkscape:current-layer="svg8"
     inkscape:window-width="1920"
     inkscape:window-height="730"
     inkscape:window-x="-6"
     inkscape:window-y="-6"
     inkscape:window-maximized="1" />
  <path
     fill="#c8a8c5"
     d="M40.5177 41.7503C43.4074 41.6456 45.6762 39.4131 45.7899 36.5238C45.9003 33.7187 46 29.6273 46 24C46 18.3727 45.9003 14.2813 45.7899 11.4762C45.6762 8.58695 43.4074 6.35435 40.5177 6.24974C37.0675 6.12483 31.6946 6 24 6C16.3054 6 10.9325 6.12483 7.48227 6.24974C4.59263 6.35435 2.32381 8.58695 2.21011 11.4762C2.09973 14.2813 2 18.3727 2 24C2 29.6273 2.09973 33.7187 2.21011 36.5238C2.32381 39.413 4.59263 41.6456 7.48226 41.7503C10.9325 41.8752 16.3054 42 24 42C31.6946 42 37.0675 41.8752 40.5177 41.7503Z"
     id="path2"
     style="fill:#c8a8c5;fill-opacity:1" />
  <path
     fill="#805887"
     fill-rule="evenodd"
     d="M28.0378 16.1908C28.1058 15.5125 28.6822 15.0929 29.3633 15.0669C30.2245 15.0341 31.6775 15 34 15C36.3225 15 37.7755 15.0341 38.6367 15.0669C39.3178 15.0929 39.8942 15.5125 39.9622 16.1908C39.9851 16.4192 40 16.6878 40 17C40 17.3122 39.9851 17.5808 39.9622 17.8092C39.8942 18.4875 39.3178 18.9071 38.6367 18.9331C37.7755 18.9659 36.3225 19 34 19C31.6775 19 30.2245 18.9659 29.3633 18.9331C28.6822 18.9071 28.1058 18.4875 28.0378 17.8092C28.0149 17.5808 28 17.3122 28 17C28 16.6878 28.0149 16.4192 28.0378 16.1908ZM29.3633 22.0669C28.6822 22.0929 28.1058 22.5125 28.0378 23.1908C28.0149 23.4192 28 23.6878 28 24C28 24.3122 28.0149 24.5808 28.0378 24.8092C28.1058 25.4875 28.6822 25.9071 29.3633 25.9331C30.2245 25.9659 31.6775 26 34 26C36.3225 26 37.7755 25.9659 38.6367 25.9331C39.3178 25.9071 39.8942 25.4875 39.9622 24.8092C39.9851 24.5808 40 24.3122 40 24C40 23.6878 39.9851 23.4192 39.9622 23.1908C39.8942 22.5125 39.3178 22.0929 38.6367 22.0669C37.7755 22.0341 36.3225 22 34 22C31.6775 22 30.2245 22.0341 29.3633 22.0669ZM29.3633 29.0669C28.6822 29.0929 28.1058 29.5125 28.0378 30.1908C28.0149 30.4192 28 30.6878 28 31C28 31.3122 28.0149 31.5808 28.0378 31.8092C28.1058 32.4875 28.6822 32.9071 29.3633 32.9331C30.2245 32.9659 31.6775 33 34 33C36.3225 33 37.7755 32.9659 38.6367 32.9331C39.3178 32.9071 39.8942 32.4875 39.9622 31.8092C39.9851 31.5808 40 31.3122 40 31C40 30.6878 39.9851 30.4192 39.9622 30.1908C39.8942 29.5125 39.3178 29.0929 38.6367 29.0669C37.7755 29.0341 36.3225 29 34 29C31.6775 29 30.2245 29.0341 29.3633 29.0669Z"
     clip-rule="evenodd"
     id="path4"
     style="fill:#805887;fill-opacity:1" />
  <path
     id="rect1244-1"
     style="fill:#6091d0;fill-opacity:1;stroke:none;stroke-width:1.35;stroke-linecap:round;stroke-linejoin:round;stroke-dasharray:none;stroke-opacity:1"
     d="m 14.808605,12.802681 c 6.17622,0 11.197156,5.020933 11.197156,11.197154 0,6.176222 -5.020936,11.197486 -11.197156,11.197486 -6.1762194,0 -11.1991326,-5.021265 -11.1991326,-11.197485 0,-6.176221 5.0229132,-11.197155 11.1991326,-11.197155 z"
     sodipodi:nodetypes="sssss" />
  <path
     id="path58980"
     style="fill:#77c32f;fill-opacity:1;stroke:none;stroke-width:1.35;stroke-linecap:round;stroke-linejoin:round;stroke-dasharray:none;stroke-opacity:1"
     d="m 22.437622,17.866829 c -2.203286,0.430494 -4.454156,1.006858 -5.750025,1.374718 -0.653534,0.185529 -1.169046,0.547817 -1.356922,1.047767 h -0.0016 c -0.0994,0.26448 -0.167599,0.529783 -0.212914,0.785742 -0.0843,0.475803 0.05075,0.862126 0.358593,1.223437 0.307848,0.361311 0.805278,0.662228 1.353626,0.808484 l 1.203991,0.32168 c 0.619814,0.165297 1.121116,0.598744 1.394166,1.160156 0.541748,1.113785 1.888726,3.431164 3.367749,4.987024 1.116858,-1.596477 1.861523,-3.47653 1.861523,-5.576001 0,-2.337851 -0.860356,-4.44511 -2.218139,-6.133007 z M 5.2320436,25.95628 c 0.60123,2.938444 2.4769839,5.371207 5.0588734,6.720337 0.497421,-1.136236 0.925495,-2.287202 1.081055,-2.905664 0.07766,-0.308783 0.05748,-0.612416 -0.06131,-0.880664 -0.371099,-0.837935 -1.236867,-2.285256 -2.5101544,-2.754711 -0.07147,-0.02635 -0.158278,-0.04523 -0.263672,-0.058 -0.4573321,-0.0554 -1.9099511,-0.121837 -3.304798,-0.12129 z"
     sodipodi:nodetypes="cccccsccccscccccsccsc" />
</svg>
