<?xml version="1.0" encoding="UTF-8" standalone="no"?>
<svg
   fill="none"
   viewBox="0 0 48 48"
   height="256"
   width="256"
   version="1.1"
   id="svg1"
   sodipodi:docname="chevron_left.svg"
   inkscape:version="1.4 (86a8ad7, 2024-10-11)"
   xmlns:inkscape="http://www.inkscape.org/namespaces/inkscape"
   xmlns:sodipodi="http://sodipodi.sourceforge.net/DTD/sodipodi-0.dtd"
   xmlns="http://www.w3.org/2000/svg"
   xmlns:svg="http://www.w3.org/2000/svg">
  <defs
     id="defs1" />
  <sodipodi:namedview
     id="namedview1"
     pagecolor="#ffffff"
     bordercolor="#000000"
     borderopacity="0.25"
     inkscape:showpageshadow="2"
     inkscape:pageopacity="0.0"
     inkscape:pagecheckerboard="0"
     inkscape:deskcolor="#d1d1d1"
     inkscape:zoom="3.5272475"
     inkscape:cx="51.598307"
     inkscape:cy="143.31288"
     inkscape:window-width="3840"
     inkscape:window-height="1494"
     inkscape:window-x="-11"
     inkscape:window-y="-11"
     inkscape:window-maximized="1"
     inkscape:current-layer="svg1" />
  <path
     style="fill:#eeeeec;fill-opacity:1;stroke-width:0.999997"
     d="M 32.311113,40.744859 C 31.743078,40.541407 30.396131,39.696727 29.041582,38.694515 28.57752,38.351161 27.889335,37.847196 27.512285,37.574593 27.135234,37.30199 26.312076,36.675533 25.683044,36.182466 25.054011,35.6894 24.264135,35.072408 23.927764,34.811372 20.841595,32.416407 16.98582,28.748952 15.468898,26.765647 14.558095,25.574814 14.383704,25.13948 14.382456,24.05356 c -9e-4,-0.786097 0.03924,-0.980898 0.326031,-1.582031 0.810093,-1.698026 4.221947,-5.194968 8.37411,-8.582951 2.606743,-2.126987 6.746868,-5.2156837 8.254895,-6.1584757 1.407805,-0.8801355 2.613903,-0.8177018 3.709316,0.1920142 0.687018,0.6332715 0.855348,1.2590153 1.054765,3.9209555 0.26219,3.499872 0.323289,6.008829 0.314045,12.896035 -0.0086,6.420629 -0.105093,9.298484 -0.418528,12.484578 -0.208072,2.115071 -0.573353,2.851748 -1.67957,3.387258 -0.649429,0.314384 -1.368542,0.362381 -2.006407,0.133916 z"
     id="path2" />
</svg>
