<?xml version="1.0" encoding="UTF-8" standalone="no"?>
<svg
   fill="none"
   viewBox="0 0 48 48"
   height="256"
   width="256"
   version="1.1"
   id="svg1"
   sodipodi:docname="chevron_down.svg"
   xml:space="preserve"
   inkscape:version="1.4 (86a8ad7, 2024-10-11)"
   xmlns:inkscape="http://www.inkscape.org/namespaces/inkscape"
   xmlns:sodipodi="http://sodipodi.sourceforge.net/DTD/sodipodi-0.dtd"
   xmlns="http://www.w3.org/2000/svg"
   xmlns:svg="http://www.w3.org/2000/svg"><defs
     id="defs1" /><sodipodi:namedview
     id="namedview1"
     pagecolor="#ffffff"
     bordercolor="#000000"
     borderopacity="0.25"
     inkscape:showpageshadow="2"
     inkscape:pageopacity="0.0"
     inkscape:pagecheckerboard="0"
     inkscape:deskcolor="#d1d1d1"
     inkscape:zoom="3.5272475"
     inkscape:cx="68.608738"
     inkscape:cy="124.88491"
     inkscape:window-width="3840"
     inkscape:window-height="1494"
     inkscape:window-x="-11"
     inkscape:window-y="-11"
     inkscape:window-maximized="1"
     inkscape:current-layer="svg1" /><path
     style="fill:#eeeeec;fill-opacity:1;stroke-width:0.999997"
     d="m 40.744859,15.688887 c -0.203452,0.568035 -1.048132,1.914982 -2.050344,3.269531 -0.343354,0.464062 -0.847319,1.152247 -1.119922,1.529297 -0.272603,0.377051 -0.89906,1.200209 -1.392127,1.829241 -0.493066,0.629033 -1.110058,1.418909 -1.371094,1.75528 -2.394965,3.086169 -6.06242,6.941944 -8.045725,8.458866 -1.190833,0.910803 -1.626167,1.085194 -2.712087,1.086442 -0.786097,9e-4 -0.980898,-0.03924 -1.582031,-0.326031 C 20.773503,32.48142 17.276561,29.069566 13.888578,24.917403 11.761591,22.31066 8.6728942,18.170535 7.7301026,16.662508 6.8499667,15.254703 6.9124008,14.048605 7.9221171,12.953192 c 0.6332715,-0.687018 1.259015,-0.855348 3.9209549,-1.054765 3.499872,-0.26219 6.008829,-0.323289 12.896035,-0.314045 6.420629,0.0086 9.298484,0.105093 12.484578,0.418528 2.115071,0.208072 2.851748,0.573353 3.387258,1.67957 0.314384,0.649429 0.362381,1.368542 0.133916,2.006407 z"
     id="path2" /></svg>
