<?xml version="1.0" encoding="UTF-8" standalone="no"?>
<svg
   fill="none"
   viewBox="0 0 48 48"
   height="256"
   width="256"
   version="1.1"
   id="svg10"
   sodipodi:docname="fullscreen.svg"
   inkscape:version="1.2.1 (9c6d41e410, 2022-07-14)"
   xmlns:inkscape="http://www.inkscape.org/namespaces/inkscape"
   xmlns:sodipodi="http://sodipodi.sourceforge.net/DTD/sodipodi-0.dtd"
   xmlns="http://www.w3.org/2000/svg"
   xmlns:svg="http://www.w3.org/2000/svg">
  <defs
     id="defs14" />
  <sodipodi:namedview
     id="namedview12"
     pagecolor="#ffffff"
     bordercolor="#666666"
     borderopacity="1.0"
     inkscape:showpageshadow="2"
     inkscape:pageopacity="0.0"
     inkscape:pagecheckerboard="0"
     inkscape:deskcolor="#d1d1d1"
     showgrid="false"
     inkscape:zoom="1.1449053"
     inkscape:cx="-18.342128"
     inkscape:cy="86.906751"
     inkscape:current-layer="svg10"
     inkscape:window-width="1920"
     inkscape:window-height="730"
     inkscape:window-x="-6"
     inkscape:window-y="-6"
     inkscape:window-maximized="1" />
  <path
     fill="#d3d7cf"
     d="M2.58134 40.6959C2.79349 43.2509 4.74913 45.2065 7.30406 45.4187C10.6714 45.6983 16.1287 46 24 46C31.8712 46 37.3286 45.6983 40.6959 45.4187C43.2509 45.2065 45.2065 43.2509 45.4187 40.6959C45.6983 37.3286 46 31.8713 46 24C46 16.1288 45.6983 10.6714 45.4187 7.30406C45.2065 4.74913 43.2509 2.79349 40.6959 2.58134C37.3286 2.30174 31.8712 2 24 2C16.1288 2 10.6714 2.30174 7.30406 2.58134C4.74914 2.79348 2.79349 4.74913 2.58134 7.30406C2.30174 10.6714 2 16.1288 2 24C2 31.8712 2.30174 37.3286 2.58134 40.6959Z"
     id="path2"
     style="fill:#d3d7cf;fill-opacity:1" />
  <path
     fill="#2e3436"
     fill-rule="evenodd"
     d="M 45.8149,14 H 2.18359 C 2.29416,11.2135 2.44016,8.99521 2.58058,7.30406 2.79273,4.74913 4.74838,2.79348 7.30331,2.58134 10.6706,2.30174 16.128,2 23.9992,2 c 7.8713,0 13.3286,0.30174 16.696,0.58134 2.5549,0.21215 4.5105,2.16779 4.7227,4.72272 0.1404,1.69115 0.2864,3.90944 0.397,6.69594 z"
     clip-rule="evenodd"
     id="path4"
     style="fill:#2e3436;fill-opacity:1" />
  <path
     fill="#2e3436"
     d="m 39.018433,33.213942 c 1.043093,-0.926712 2.407487,-0.405861 2.697684,0.95889 0.175128,0.823457 0.375473,1.819616 0.582699,2.955264 0.252053,1.381497 0.317721,2.51114 0.306744,3.3659 -0.01539,1.194952 -0.91661,2.096169 -2.111563,2.111562 -0.854759,0.01098 -1.984403,-0.05469 -3.365899,-0.306743 -1.135648,-0.207227 -2.131807,-0.407572 -2.955264,-0.5827 -1.364752,-0.290197 -1.885602,-1.65459 -0.958851,-2.697723 0.656483,-0.738816 1.56824,-1.710951 2.83085,-2.973561 1.262609,-1.26261 2.234744,-2.174366 2.9736,-2.830889 z"
     id="path444"
     style="stroke-width:0.5625;fill:#2e3436;fill-opacity:1" />
  <path
     fill="#2e3436"
     d="m 33.213942,20.231567 c -0.926711,-1.043093 -0.405861,-2.407487 0.95889,-2.697684 0.823457,-0.175128 1.819616,-0.375473 2.955264,-0.582699 1.381497,-0.252053 2.51114,-0.317721 3.3659,-0.306744 1.194952,0.01539 2.096169,0.916611 2.111562,2.111563 0.01098,0.854759 -0.05469,1.984403 -0.306743,3.365899 -0.207227,1.135649 -0.407572,2.131807 -0.5827,2.955265 -0.290197,1.364751 -1.65459,1.885602 -2.697723,0.95885 -0.738816,-0.656483 -1.710951,-1.56824 -2.973561,-2.83085 -1.26261,-1.262609 -2.174366,-2.234744 -2.830889,-2.9736 z"
     id="path1145"
     style="stroke-width:0.5625;fill:#2e3436;fill-opacity:1" />
  <path
     fill="#2e3436"
     d="m 8.9815676,33.213942 c -1.043093,-0.926712 -2.4074868,-0.405861 -2.6976834,0.95889 -0.1751281,0.823457 -0.3754732,1.819616 -0.5826999,2.955264 -0.2520528,1.381497 -0.3177208,2.51114 -0.3067431,3.3659 0.01539,1.194952 0.9166095,2.096169 2.1115626,2.111562 0.8547593,0.01098 1.984402,-0.05469 3.3658992,-0.306743 1.135648,-0.207227 2.131807,-0.407572 2.955264,-0.5827 1.364752,-0.290197 1.885602,-1.65459 0.958851,-2.697723 -0.656483,-0.738816 -1.56824,-1.710951 -2.83085,-2.973561 -1.26261,-1.26261 -2.2347447,-2.174366 -2.9736004,-2.830889 z"
     id="path1147"
     style="stroke-width:0.5625;fill:#2e3436;fill-opacity:1" />
  <path
     fill="#2e3436"
     d="M 14.786059,20.231567 C 15.71277,19.188474 15.19192,17.82408 13.827169,17.533883 13.003712,17.358755 12.007553,17.15841 10.871905,16.951184 9.4904083,16.699131 8.3607647,16.633463 7.5060049,16.64444 c -1.1949525,0.01539 -2.0961691,0.916611 -2.111562,2.111563 -0.01098,0.854759 0.054692,1.984403 0.3067425,3.365899 0.2072268,1.135649 0.4075723,2.131807 0.5827005,2.955265 0.2901966,1.364751 1.6545899,1.885602 2.6977224,0.95885 0.738816,-0.656483 1.7109507,-1.56824 2.9735617,-2.83085 1.26261,-1.262609 2.174366,-2.234744 2.830889,-2.9736 z"
     id="path1149"
     style="stroke-width:0.5625;fill:#2e3436;fill-opacity:1" />
</svg>
