<?xml version="1.0" encoding="UTF-8" standalone="no"?>
<svg
   fill="none"
   viewBox="0 0 48 48"
   height="256"
   width="256"
   version="1.1"
   id="svg1378"
   sodipodi:docname="zoom_reset.svg"
   inkscape:version="1.2.1 (9c6d41e410, 2022-07-14)"
   xmlns:inkscape="http://www.inkscape.org/namespaces/inkscape"
   xmlns:sodipodi="http://sodipodi.sourceforge.net/DTD/sodipodi-0.dtd"
   xmlns="http://www.w3.org/2000/svg"
   xmlns:svg="http://www.w3.org/2000/svg">
  <defs
     id="defs1382" />
  <sodipodi:namedview
     id="namedview1380"
     pagecolor="#ffffff"
     bordercolor="#666666"
     borderopacity="1.0"
     inkscape:showpageshadow="2"
     inkscape:pageopacity="0.0"
     inkscape:pagecheckerboard="0"
     inkscape:deskcolor="#d1d1d1"
     showgrid="false"
     inkscape:zoom="0.8095703"
     inkscape:cx="232.22196"
     inkscape:cy="109.31725"
     inkscape:current-layer="svg1378"
     inkscape:window-width="1920"
     inkscape:window-height="730"
     inkscape:window-x="-6"
     inkscape:window-y="-6"
     inkscape:window-maximized="1" />
  <g
     id="g3110"
     style="fill:#babdb6;fill-opacity:1">
    <path
       id="rect1553"
       style="fill:#babdb6;fill-opacity:1;stroke:none;stroke-width:1.875;stroke-linejoin:round"
       d="m 12,46.000122 c 2.552197,0 4.52357,-0.118665 5.998169,-0.269165 2.252298,-0.22987 3.776628,-2.039166 3.861328,-4.301514 0.0755,-2.017358 0.140625,-5.031169 0.140625,-9.429565 0,-4.398396 -0.06513,-7.411901 -0.140625,-9.429199 -0.0847,-2.262398 -1.60903,-4.07198 -3.861328,-4.30188 C 16.52357,18.118299 14.552197,18 12,18 c -2.5522374,0 -4.5235304,0.118299 -5.9981689,0.268799 -2.2522378,0.2299 -3.7766183,2.039482 -3.8613282,4.30188 -0.07553,2.017298 -0.140625,5.030803 -0.140625,9.429199 0,4.398396 0.065095,7.412207 0.140625,9.429565 0.08471,2.262348 1.6090904,4.071644 3.8613282,4.301514 1.4746385,0.1505 3.4459315,0.269165 5.9981689,0.269165 z m 0,-30.500244 c 2.545497,0 4.677759,-0.05858 6.248657,-0.122681 1.875798,-0.0767 3.441187,-1.186367 3.626587,-3.054565 0.0746,-0.752299 0.124878,-2.4319551 0.124878,-3.5727541 0,-1.140799 -0.05028,-2.820455 -0.124878,-3.572754 -0.1854,-1.868198 -1.750789,-2.977499 -3.626587,-3.054199 -1.570898,-0.0641 -3.70316,-0.123047 -6.248657,-0.123047 -2.5454775,0 -4.6778288,0.05895 -6.2486572,0.123047 -1.8758482,0.0767 -3.4412371,1.186001 -3.6265869,3.054199 -0.07463,0.752299 -0.124878,2.431955 -0.124878,3.572754 0,1.140799 0.050248,2.8204551 0.124878,3.5727541 0.1853498,1.868198 1.7507387,2.977865 3.6265869,3.054565 1.5708284,0.0641 3.7031797,0.122681 6.2486572,0.122681 z"
       sodipodi:nodetypes="sscsccscssccssccsccscssccs" />
    <path
       id="path2093"
       style="fill:#babdb6;fill-opacity:1;stroke:none;stroke-width:1.875;stroke-linejoin:round"
       d="m 36,1.875 c 2.552197,0 4.52357,0.118299 5.998169,0.268799 2.252298,0.2299 3.776628,2.039482 3.861328,4.30188 0.0755,2.017298 0.140625,13.280803 0.140625,17.679199 0,4.398396 -0.06512,15.287267 -0.140625,17.304565 -0.0847,2.262398 -1.60903,4.071614 -3.861328,4.301514 -1.474599,0.1505 -3.445972,0.269165 -5.998169,0.269165 -2.552197,0 -4.52357,-0.118665 -5.998169,-0.269165 -2.252298,-0.2299 -3.776628,-2.039116 -3.861328,-4.301514 -0.0755,-2.017298 -0.140625,-12.906169 -0.140625,-17.304565 0,-4.398396 0.06513,-15.661901 0.140625,-17.679199 0.0847,-2.262398 1.60903,-4.07198 3.861328,-4.30188 C 31.47643,1.993299 33.447803,1.875 36,1.875 Z"
       sodipodi:nodetypes="sccsccsccsccs" />
  </g>
  <path
     id="path2100"
     d="m 24.065763,9.6950045 c -6.240298,-0.01378 -11.956147,4.1458425 -13.647632,10.4585175 -0.9665396,3.607232 -0.8270756,7.599713 0.758054,11.03997 -0.57488,0.354753 -1.054282,0.661816 -1.4531596,0.925764 -1.012886,0.670337 -0.900321,1.922836 0.2145626,2.404873 0.688478,0.297672 1.575444,0.654189 2.699205,1.061756 1.628596,0.590753 2.783055,0.8631 3.559615,0.98415 0.856931,0.133583 1.621003,-0.307873 1.9337,-1.116779 0.283435,-0.733059 0.624832,-1.868783 0.927687,-3.574512 0.209099,-1.177304 0.343917,-2.123943 0.430325,-2.869075 0.140012,-1.206239 -0.888264,-1.929918 -1.975027,-1.388045 -0.475213,0.236983 -1.046015,0.533531 -1.728029,0.903898 -1.014401,-2.075569 -1.549924,-4.872556 -0.93081,-7.18314 1.242193,-4.635933 5.702629,-7.550314 10.333575,-6.983477 0.854504,0.104595 1.765567,-0.0069 2.160276,-0.771991 0.140077,-0.271625 0.275389,-0.607697 0.385876,-1.01995 0.110487,-0.412254 0.161204,-0.770885 0.175638,-1.076174 0.04074,-0.859936 -0.678848,-1.454584 -1.527643,-1.5982835 -0.775692,-0.13132 -1.549859,-0.195811 -2.316213,-0.197502 z m 7.42173,1.2760795 c -0.724629,0.006 -1.344076,0.432271 -1.617743,1.140085 -0.283369,0.733041 -0.624525,1.869012 -0.927447,3.574753 -0.209033,1.177304 -0.343851,2.123944 -0.430325,2.869075 -0.139946,1.206305 0.888025,1.929678 1.974787,1.387806 0.475214,-0.236984 1.046254,-0.533291 1.728269,-0.90366 1.014396,2.075571 1.549673,4.872557 0.930573,7.183142 -1.242193,4.635932 -5.702391,7.550346 -10.333338,6.983477 -0.854503,-0.104583 -1.765566,0.0069 -2.160276,0.77199 -0.140077,0.271625 -0.275453,0.607724 -0.385875,1.019952 -0.110487,0.412226 -0.161204,0.77089 -0.175638,1.076172 -0.04081,0.859885 0.678847,1.454597 1.527643,1.598283 7.092041,1.200662 14.064635,-3.173106 15.963835,-10.261012 0.96658,-3.60717 0.82685,-7.59965 -0.758292,-11.039973 0.574882,-0.354753 1.054562,-0.661815 1.453402,-0.925764 1.01295,-0.670337 0.90004,-1.922862 -0.21479,-2.404872 -0.688514,-0.297653 -1.575203,-0.654163 -2.698976,-1.061758 -1.628629,-0.590706 -2.783052,-0.863094 -3.559611,-0.984151 -0.107116,-0.0167 -0.212679,-0.02441 -0.316198,-0.02355 z"
     style="fill:#2e3436;fill-opacity:1;stroke-width:0.6561" />
</svg>
