<?xml version="1.0" encoding="UTF-8" standalone="no"?>
<svg
   fill="none"
   viewBox="0 0 48 48"
   height="256"
   width="256"
   version="1.1"
   id="svg2270"
   sodipodi:docname="file_mk.svg"
   inkscape:version="1.2.1 (9c6d41e410, 2022-07-14)"
   xmlns:inkscape="http://www.inkscape.org/namespaces/inkscape"
   xmlns:sodipodi="http://sodipodi.sourceforge.net/DTD/sodipodi-0.dtd"
   xmlns="http://www.w3.org/2000/svg"
   xmlns:svg="http://www.w3.org/2000/svg">
  <defs
     id="defs2274">
    <inkscape:path-effect
       effect="attach_path"
       id="path-effect1052"
       lpeversion="1" />
  </defs>
  <sodipodi:namedview
     id="namedview2272"
     pagecolor="#ffffff"
     bordercolor="#666666"
     borderopacity="1.0"
     inkscape:showpageshadow="2"
     inkscape:pageopacity="0.0"
     inkscape:pagecheckerboard="0"
     inkscape:deskcolor="#d1d1d1"
     showgrid="false"
     inkscape:zoom="0.8095703"
     inkscape:cx="12.352232"
     inkscape:cy="37.674307"
     inkscape:current-layer="svg2270"
     inkscape:window-width="1920"
     inkscape:window-height="730"
     inkscape:window-x="-6"
     inkscape:window-y="-6"
     inkscape:window-maximized="1" />
  <path
     fill="#edf1e9"
     d="M30.049 2.06996C30.049 2.06996 32.7693 3.1 37.7693 8.05C42.751 12.9819 43.7957 15.6797 43.8033 15.6994C43.9247 18.0495 44 20.7979 44 24C44 33.5541 43.3294 39.0688 42.7649 42.0187C42.4022 43.9138 40.9085 45.2127 38.9715 45.4197C36.3568 45.699 31.7428 46 24 46C16.2572 46 11.6432 45.699 9.02852 45.4197C7.09148 45.2127 5.59781 43.9138 5.23513 42.0187C4.67056 39.0688 4 33.5541 4 24C4 14.4459 4.67056 8.93121 5.23513 5.98128C5.59782 4.08618 7.09148 2.78727 9.02852 2.58034C11.6432 2.30102 16.2572 2 24 2C26.2774 2 28.2842 2.02609 30.049 2.06996Z"
     id="path2264"
     style="fill:#edf1e9;fill-opacity:1" />
  <path
     id="path27868"
     style="fill:#606668;fill-opacity:1;stroke-width:0.0911858"
     d="M 16.681274 6.1801758 C 14.962094 6.4214087 13.519062 7.5572218 12.099243 8.4803467 C 10.599383 9.6277583 7.0315632 12.03271 6.6280518 14.010498 C 6.0170217 16.536766 7.8008238 19.306857 10.372925 19.742798 C 12.534765 20.253029 13.891076 18.885602 15.695068 17.949829 C 17.444139 17.042548 17.612124 18.482359 18.057129 19.445435 C 18.103338 19.578466 18.164457 19.699723 18.237671 19.810181 C 18.123154 20.14004 18.011995 20.529167 18.011719 20.651001 C 15.762817 22.396666 7.3884835 21.14465 9.9814453 24.65332 C 10.603201 25.145765 11.582601 25.637873 12.309448 25.822632 C 12.61723 25.900872 13.250754 25.960692 13.770264 25.960693 C 15.271982 25.960693 16.450546 25.542817 17.629395 24.592896 L 18.173218 24.154907 C 18.143198 24.670536 18.429104 24.992371 18.069946 25.301147 C 16.202669 25.635303 16.633829 32.656189 18.268066 32.710693 C 18.66888 35.891022 18.614733 39.369283 19.727783 40.935059 C 20.074086 41.318364 20.39826 41.516678 20.97583 41.699341 C 21.227236 41.778841 22.110163 41.813676 24 41.819824 C 25.889837 41.813724 26.772763 41.778845 27.02417 41.699341 C 27.601739 41.516678 27.925914 41.318364 28.272217 40.935059 C 29.385267 39.369283 29.33112 35.891022 29.731934 32.710693 C 31.366171 32.656193 31.797332 25.635303 29.930054 25.301147 C 29.619542 24.639811 29.780185 25.001801 29.826782 24.154907 L 30.370605 24.592896 C 31.549454 25.542817 32.728018 25.960693 34.229736 25.960693 C 34.749246 25.960692 35.38277 25.900872 35.690552 25.822632 C 36.417399 25.637873 37.396794 25.145765 38.018555 24.65332 C 40.611515 21.14465 32.237183 22.396666 29.988281 20.651001 C 29.988005 20.529189 29.876832 20.14004 29.762329 19.810181 C 29.835543 19.699723 29.896662 19.578467 29.942871 19.445435 C 30.387876 18.482358 30.555861 17.042547 32.304932 17.949829 C 34.108926 18.885603 35.465233 20.25303 37.627075 19.742798 C 40.19918 19.306857 41.982981 16.536768 41.371948 14.010498 C 40.968438 12.032708 37.400619 9.6277595 35.900757 8.4803467 C 34.480937 7.5572209 33.037909 6.421409 31.318726 6.1801758 C 30.54026 6.5864233 32.901637 8.4999789 33.566528 9.1900635 C 34.734131 10.673529 37.06142 12.639944 37.672852 14.456909 C 37.869222 16.390838 35.591759 14.691551 34.764038 14.321411 C 33.219072 13.522313 31.551623 12.453408 29.732666 12.973022 C 28.023781 13.302729 26.789053 14.663342 26.069092 16.17334 C 25.994467 16.28538 25.922042 16.402642 25.853027 16.523804 C 25.815997 16.511687 25.779846 16.499087 25.742432 16.487183 C 25.49569 16.438813 24.743153 16.411007 24 16.403687 C 23.256847 16.410987 22.50431 16.438813 22.257568 16.487183 C 22.220117 16.499098 22.18404 16.511674 22.146973 16.523804 C 22.077958 16.402642 22.005533 16.28538 21.930908 16.17334 C 21.210948 14.663343 19.976218 13.302729 18.267334 12.973022 C 16.448379 12.453409 14.780926 13.522314 13.235962 14.321411 C 12.408243 14.691551 10.130779 16.390836 10.327148 14.456909 C 10.93858 12.639946 13.26587 10.673527 14.433472 9.1900635 C 15.098362 8.4999796 17.45974 6.5864229 16.681274 6.1801758 z M 19.677246 25.564453 A 1.6293066 3.1658852 0 0 1 21.306519 28.730347 A 1.6293066 3.1658852 0 0 1 19.677246 31.89624 A 1.6293066 3.1658852 0 0 1 18.047974 28.730347 A 1.6293066 3.1658852 0 0 1 19.677246 25.564453 z M 28.374756 25.564453 A 1.6293066 3.1658852 0 0 1 30.004028 28.730347 A 1.6293066 3.1658852 0 0 1 28.374756 31.89624 A 1.6293066 3.1658852 0 0 1 26.745483 28.730347 A 1.6293066 3.1658852 0 0 1 28.374756 25.564453 z " />
  <ellipse
     style="fill:#606668;fill-opacity:1;stroke:none;stroke-width:0.0171582;stroke-linejoin:round;stroke-dasharray:none;stroke-opacity:1"
     id="path28137"
     cx="19.820341"
     cy="28.897207"
     rx="0.5994634"
     ry="1.4892904" />
  <ellipse
     style="fill:#606668;fill-opacity:1;stroke:none;stroke-width:0.0171582;stroke-linejoin:round;stroke-dasharray:none;stroke-opacity:1"
     id="ellipse28139"
     cx="28.056288"
     cy="28.897207"
     rx="0.5994634"
     ry="1.4892904" />
  <path
     id="path486"
     d="m 30.04797,2.0701904 c -0.78495,2.9210304 -0.60341,6.6466096 0.33582,9.8470456 1.87567,-0.147541 3.48427,0.881767 4.76257,1.547608 0.40101,0.179323 0.77876,0.389702 1.16382,0.595825 C 35.9921,13.506283 35.68137,12.945993 35.12659,12.322266 34.36518,11.466227 33.51164,10.624971 32.86926,9.8184814 32.6028,9.5478081 31.83277,8.877106 31.21655,8.2188721 30.90125,7.8820769 30.61594,7.5613167 30.40796,7.1407471 30.30403,6.9304622 30.19605,6.6784874 30.23035,6.3105469 30.26468,5.9426063 30.56748,5.5151881 30.88477,5.3496094 l 0.26733,-0.138794 0.297,0.041016 c 2.04869,0.2874721 3.59432,1.5535598 4.96289,2.4433593 l 0.0293,0.019775 0.0293,0.02124 c 0.71606,0.5477928 2.0127,1.4561899 3.19519,2.4942633 0.35936,0.315476 0.71467,0.637676 1.04407,0.973755 C 39.92818,10.284858 38.9626,9.2326573 37.76843,8.050415 32.76844,3.10042 30.04797,2.0701904 30.04797,2.0701904 Z m 11.6576,10.3564456 c 0.27044,0.4275 0.47378,0.883823 0.57751,1.379883 0.1755,0.735237 0.18898,1.479824 0.0659,2.194702 0.49437,-0.08428 0.98083,-0.183696 1.45349,-0.301392 0,0 -0.43505,-1.132636 -2.09692,-3.273193 z"
     style="fill:#adafaa;fill-opacity:1" />
</svg>
