<?xml version="1.0" encoding="UTF-8" standalone="no"?>
<svg
   fill="none"
   viewBox="0 0 48 48"
   height="256"
   width="256"
   version="1.1"
   id="svg1457"
   sodipodi:docname="file_bat.svg"
   inkscape:version="1.2.1 (9c6d41e410, 2022-07-14)"
   xml:space="preserve"
   xmlns:inkscape="http://www.inkscape.org/namespaces/inkscape"
   xmlns:sodipodi="http://sodipodi.sourceforge.net/DTD/sodipodi-0.dtd"
   xmlns="http://www.w3.org/2000/svg"
   xmlns:svg="http://www.w3.org/2000/svg"><defs
     id="defs1461" /><sodipodi:namedview
     id="namedview1459"
     pagecolor="#ffffff"
     bordercolor="#666666"
     borderopacity="1.0"
     inkscape:showpageshadow="2"
     inkscape:pageopacity="0.0"
     inkscape:pagecheckerboard="0"
     inkscape:deskcolor="#d1d1d1"
     showgrid="false"
     inkscape:zoom="1.6191406"
     inkscape:cx="30.262968"
     inkscape:cy="97.273825"
     inkscape:current-layer="svg1457"
     inkscape:window-width="1920"
     inkscape:window-height="730"
     inkscape:window-x="-6"
     inkscape:window-y="-6"
     inkscape:window-maximized="1" /><path
     id="path1451"
     d="m 24,1.9998779 c -7.742792,0 -12.356758,0.3011246 -14.9714355,0.5804444 C 7.0915264,2.7872521 5.597675,4.0862251 5.2349854,5.9813232 4.6704159,8.9312503 4.0001221,14.44591 4.0001221,24 c 0,9.55409 0.6702938,15.06878 1.2348633,18.018677 0.3626796,1.895098 1.856541,3.194001 3.7935791,3.401001 C 11.643242,45.698977 16.257208,46.000122 24,46.000122 c 7.742792,0 12.356738,-0.301145 14.971436,-0.580444 1.936998,-0.207 3.430879,-1.505903 3.793579,-3.401001 C 43.329514,39.06878 43.999878,33.55409 43.999878,24 c 0,-3.202097 -0.07526,-5.950439 -0.196655,-8.300537 -0.0076,-0.0197 -1.052363,-2.717519 -6.034058,-7.6494142 C 32.76917,3.1000538 30.049072,2.0698242 30.049072,2.0698242 28.284274,2.0259543 26.277398,1.9998779 24,1.9998779 Z"
     style="fill:#edf1e9;fill-opacity:1"
     sodipodi:nodetypes="sscsccsccscccs" /><path
     fill="#adafaa"
     d="M43.8024 15.6998C40.6029 16.4965 36.8253 16.5494 33.5625 15.5626C32.1831 15.1454 31.1075 14.0816 30.642 12.7301C29.4822 9.36336 29.1957 5.24234 30.0481 2.07031C30.0481 2.07031 32.7684 3.10035 37.7684 8.05035C42.7684 13.0004 43.8024 15.6998 43.8024 15.6998Z"
     id="path1453"
     style="fill:#adafaa;fill-opacity:1" /><path
     style="fill:#606668;fill-opacity:1;stroke-width:0.0623906"
     d="m 23.843717,40.183016 c -0.06863,-0.01357 -0.191825,-0.03927 -0.273775,-0.05697 -0.08195,-0.0177 -0.503082,-0.391009 -0.935859,-0.829667 -1.13932,-1.154802 -2.304826,-1.901679 -3.663138,-2.347404 -1.035755,-0.339885 -1.262874,-0.369219 -2.876113,-0.371389 -1.018211,-0.0013 -1.532324,-0.02449 -1.578929,-0.07107 -0.03802,-0.03807 -0.151956,-0.354911 -0.253216,-0.704286 -0.302396,-1.043317 -0.722509,-1.785882 -1.487159,-2.628618 -0.952205,-1.04943 -2.098214,-1.805637 -3.6871918,-2.433031 -0.60524,-0.238967 -0.8883573,-0.480583 -1.000079,-0.853476 -0.1129293,-0.376953 -0.04304,-0.602132 0.4123906,-1.328711 0.7415454,-1.183006 1.265427,-2.415672 1.6153832,-3.80095 0.205204,-0.81227 0.276142,-1.269854 0.340635,-2.197202 0.06014,-0.864711 0.106304,-1.004758 0.377359,-1.144926 0.312419,-0.161557 0.463188,-0.117261 0.968755,0.284474 1.25714,0.998996 2.661245,1.716857 4.585258,2.344251 1.155735,0.376873 3.230937,0.856299 3.360326,0.776333 0.04076,-0.02529 0.02939,-0.254195 -0.03288,-0.661481 -0.122385,-0.800677 -0.07747,-2.198892 0.09621,-2.995402 0.119644,-0.548691 0.383577,-1.290085 0.634042,-1.781038 0.179794,-0.352422 0.568753,-0.431856 0.848116,-0.173189 0.18021,0.166853 0.527195,0.934548 0.568204,1.257129 0.06574,0.517094 -0.0978,0.480345 2.137639,0.480345 1.905686,0 1.994914,-0.0053 2.056694,-0.120722 0.03553,-0.06642 0.06458,-0.187258 0.06458,-0.268636 0,-0.258293 0.25706,-0.921011 0.460925,-1.188304 0.322168,-0.422379 0.7516,-0.418333 0.969538,0.0094 0.238245,0.467314 0.452861,1.057134 0.604774,1.662061 0.209074,0.832553 0.26551,2.217419 0.127123,3.11953 -0.05263,0.343145 -0.0764,0.642954 -0.05279,0.666233 0.02361,0.02329 0.368155,-0.02409 0.765672,-0.105149 3.092876,-0.631387 5.386144,-1.596788 7.253496,-3.053527 0.457716,-0.357068 0.621776,-0.401524 0.910666,-0.246728 0.277771,0.148833 0.369842,0.398595 0.374566,1.016059 0.01379,1.802786 0.850873,4.394017 1.995798,6.178036 0.416959,0.649714 0.49255,0.898039 0.383825,1.260936 -0.121627,0.405942 -0.380917,0.640531 -0.924233,0.836147 -0.70161,0.252624 -1.648705,0.737814 -2.294143,1.175288 -0.651053,0.441279 -1.61911,1.382229 -2.050881,1.993465 -0.384998,0.545018 -0.806473,1.448593 -0.942345,2.020231 -0.172433,0.725462 -0.03762,0.674498 -1.790248,0.67684 -1.212126,0.0013 -1.610219,0.02369 -1.975777,0.109538 -1.787253,0.419478 -3.208757,1.230616 -4.574713,2.610438 -0.479974,0.484856 -0.853319,0.811218 -0.951454,0.831741 -0.3162,0.06615 -0.443909,0.07827 -0.567051,0.05377 z"
     id="path246" /></svg>
