<?xml version="1.0" encoding="UTF-8" standalone="no"?>
<svg
   fill="none"
   viewBox="0 0 48 48"
   height="256"
   width="256"
   version="1.1"
   id="svg2270"
   sodipodi:docname="file_git.svg"
   inkscape:version="1.2.1 (9c6d41e410, 2022-07-14)"
   xmlns:inkscape="http://www.inkscape.org/namespaces/inkscape"
   xmlns:sodipodi="http://sodipodi.sourceforge.net/DTD/sodipodi-0.dtd"
   xmlns="http://www.w3.org/2000/svg"
   xmlns:svg="http://www.w3.org/2000/svg">
  <defs
     id="defs2274" />
  <sodipodi:namedview
     id="namedview2272"
     pagecolor="#ffffff"
     bordercolor="#666666"
     borderopacity="1.0"
     inkscape:showpageshadow="2"
     inkscape:pageopacity="0.0"
     inkscape:pagecheckerboard="0"
     inkscape:deskcolor="#d1d1d1"
     showgrid="false"
     inkscape:zoom="1.1449053"
     inkscape:cx="177.30724"
     inkscape:cy="121.84414"
     inkscape:current-layer="svg2270"
     inkscape:window-width="1920"
     inkscape:window-height="730"
     inkscape:window-x="-6"
     inkscape:window-y="-6"
     inkscape:window-maximized="1" />
  <path
     id="path2264"
     d="m 24,1.9998779 c -7.742792,0 -12.356758,0.3011246 -14.9714355,0.5804444 C 7.0915264,2.7872521 5.597675,4.0862251 5.2349854,5.9813232 4.6704159,8.9312503 4.0001221,14.44591 4.0001221,24 c 0,9.55409 0.6702938,15.06878 1.2348633,18.018677 0.3626796,1.895098 1.856541,3.194001 3.7935791,3.401001 C 11.643242,45.698977 16.257208,46.000122 24,46.000122 c 7.742792,0 12.356738,-0.301145 14.971436,-0.580444 1.936998,-0.207 3.430879,-1.505903 3.793579,-3.401001 C 43.329514,39.06878 43.999878,33.55409 43.999878,24 c 0,-3.202097 -0.07526,-5.950439 -0.196655,-8.300537 -0.0076,-0.0197 -1.052363,-2.717519 -6.034058,-7.6494142 C 32.76917,3.1000538 30.049072,2.0698242 30.049072,2.0698242 28.284274,2.0259543 26.277398,1.9998779 24,1.9998779 Z"
     style="fill:#edf1e9;fill-opacity:1"
     sodipodi:nodetypes="sscsccsccscccs" />
  <path
     fill="#adafaa"
     d="M43.8024 15.6998C40.6029 16.4965 36.8253 16.5494 33.5625 15.5626C32.1831 15.1454 31.1075 14.0816 30.642 12.7301C29.4822 9.36336 29.1957 5.24234 30.0481 2.07031C30.0481 2.07031 32.7684 3.10035 37.7684 8.05035C42.7684 13.0004 43.8024 15.6998 43.8024 15.6998Z"
     id="path2266"
     style="fill:#adafaa;fill-opacity:1" />
  <path
     id="rect392"
     style="fill:#d63232;stroke:none;stroke-width:1.875;stroke-linecap:round;stroke-linejoin:round;fill-opacity:1"
     d="m 23.547363,10.463379 c 0.03735,-0.0013 0.07464,-0.0012 0.112061,0 0.384858,0.01258 0.772755,0.157086 1.144409,0.431763 0.32479,0.239713 3.563683,3.414955 7.198242,7.055786 7.06153,7.073748 7.000194,6.998853 6.714844,8.165771 -0.113244,0.459077 -13.465751,13.931471 -14.185547,14.31189 -0.528351,0.279236 -1.141095,0.273023 -1.709839,-0.01758 l -7.32e-4,-7.33e-4 C 22.313121,40.150533 9.648103,27.62139 8.960449,26.698606 8.492355,26.070466 8.390473,25.337967 8.689087,24.749266 c 3.06691,-3.244065 6.176276,-6.43742 9.353027,-9.549683 l 3.296631,3.275757 c -0.166694,0.365622 -0.253107,0.762721 -0.253418,1.164551 3.02e-4,1.149526 0.700128,2.183171 1.767334,2.610351 l -0.04102,7.349854 c -1.082162,0.41952 -1.795485,1.460704 -1.795899,2.621338 0,1.553299 1.259201,2.8125 2.8125,2.8125 1.5533,0 2.8125,-1.259201 2.8125,-2.8125 -3.2e-5,-1.14948 -0.69956,-2.183256 -1.766601,-2.610718 l 0.04102,-7.349488 c 0.05616,-0.02177 0.111611,-0.04535 0.16626,-0.07068 l 2.428711,2.411133 c -0.151201,0.35055 -0.22945,0.728216 -0.229981,1.109985 0,1.553299 1.259201,2.8125 2.8125,2.8125 1.5533,0 2.8125,-1.259201 2.8125,-2.8125 0,-1.5533 -1.2592,-2.8125 -2.8125,-2.8125 -0.389294,4.93e-4 -0.774248,0.0818 -1.130493,0.238769 L 26.503052,20.69714 c 0.136577,-0.335767 0.206959,-0.694771 0.207275,-1.057251 0,-1.5533 -1.2592,-2.8125 -2.8125,-2.8125 -0.369547,3.46e-4 -0.735405,0.07352 -1.07666,0.215332 l -3.301758,-3.279419 c 1.077219,-1.039533 2.162243,-2.069796 3.256714,-3.088623 0.250457,-0.132216 0.509808,-0.202405 0.77124,-0.211304 z"
     sodipodi:nodetypes="sccccsccscccccccsccccccssccccccccs" />
</svg>
