<?xml version="1.0" encoding="UTF-8" standalone="no"?>
<svg
   fill="none"
   viewBox="0 0 48 48"
   height="256"
   width="256"
   version="1.1"
   id="svg2270"
   sodipodi:docname="file_json.svg"
   inkscape:version="1.2.1 (9c6d41e410, 2022-07-14)"
   xmlns:inkscape="http://www.inkscape.org/namespaces/inkscape"
   xmlns:sodipodi="http://sodipodi.sourceforge.net/DTD/sodipodi-0.dtd"
   xmlns="http://www.w3.org/2000/svg"
   xmlns:svg="http://www.w3.org/2000/svg">
  <defs
     id="defs2274" />
  <sodipodi:namedview
     id="namedview2272"
     pagecolor="#ffffff"
     bordercolor="#666666"
     borderopacity="1.0"
     inkscape:showpageshadow="2"
     inkscape:pageopacity="0.0"
     inkscape:pagecheckerboard="0"
     inkscape:deskcolor="#d1d1d1"
     showgrid="false"
     inkscape:zoom="1.6191406"
     inkscape:cx="68.554886"
     inkscape:cy="107.77322"
     inkscape:current-layer="svg2270"
     inkscape:window-width="1920"
     inkscape:window-height="730"
     inkscape:window-x="-6"
     inkscape:window-y="-6"
     inkscape:window-maximized="1" />
  <path
     fill="#edf1e9"
     d="M30.049 2.06996C30.049 2.06996 32.7693 3.1 37.7693 8.05C42.751 12.9819 43.7957 15.6797 43.8033 15.6994C43.9247 18.0495 44 20.7979 44 24C44 33.5541 43.3294 39.0688 42.7649 42.0187C42.4022 43.9138 40.9085 45.2127 38.9715 45.4197C36.3568 45.699 31.7428 46 24 46C16.2572 46 11.6432 45.699 9.02852 45.4197C7.09148 45.2127 5.59781 43.9138 5.23513 42.0187C4.67056 39.0688 4 33.5541 4 24C4 14.4459 4.67056 8.93121 5.23513 5.98128C5.59782 4.08618 7.09148 2.78727 9.02852 2.58034C11.6432 2.30102 16.2572 2 24 2C26.2774 2 28.2842 2.02609 30.049 2.06996Z"
     id="path2264"
     style="fill:#edf1e9;fill-opacity:1" />
  <path
     fill="#adafaa"
     d="M43.8024 15.6998C40.6029 16.4965 36.8253 16.5494 33.5625 15.5626C32.1831 15.1454 31.1075 14.0816 30.642 12.7301C29.4822 9.36336 29.1957 5.24234 30.0481 2.07031C30.0481 2.07031 32.7684 3.10035 37.7684 8.05035C42.7684 13.0004 43.8024 15.6998 43.8024 15.6998Z"
     id="path2266"
     style="fill:#adafaa;fill-opacity:1" />
  <g
     aria-label="{;}"
     transform="scale(0.84520216,1.1831489)"
     id="text2447"
     style="font-size:20.6664px;line-height:0.85;font-family:'Arial Rounded MT Bold';-inkscape-font-specification:'Arial Rounded MT Bold, Normal';word-spacing:0px;fill:#606668;stroke-width:0.140907">
    <path
       d="m 20.942577,20.720998 q 0.716462,0.444005 1.120103,0.999011 0.40364,0.544915 0.565097,1.402651 0.161456,0.847645 0.161456,2.17966 0,0.99901 0.04036,1.473288 0.05045,0.474278 0.181638,0.716462 0.141274,0.252275 0.333004,0.322913 0.191729,0.08073 0.655916,0.151365 0.383458,0.05045 0.635734,0.373367 0.252275,0.322913 0.252275,0.847646 0,1.221013 -1.483379,1.221013 -0.918283,0 -1.644836,-0.383459 -0.716462,-0.383459 -1.110012,-1.08983 -0.393549,-0.69628 -0.40364,-1.604471 -0.03027,-1.533835 -0.06055,-2.462208 -0.03027,-0.928374 -0.09082,-1.200831 -0.151365,-0.676098 -0.454095,-1.019193 -0.29264,-0.343094 -0.777008,-0.635734 -0.474278,-0.30273 -0.676099,-0.534824 -0.20182,-0.242184 -0.20182,-0.756826 0,-0.746735 0.585279,-1.120103 0.726553,-0.454095 1.029284,-0.766917 0.312821,-0.322912 0.433913,-0.817372 0.131184,-0.504551 0.151366,-1.08983 0.02018,-0.59537 0.06055,-2.845666 0.03027,-1.392561 0.877918,-2.220024 0.857736,-0.837554 2.28057,-0.837554 1.483379,0 1.483379,1.200831 0,0.544915 -0.252275,0.857736 -0.242185,0.312822 -0.635734,0.363277 -0.585279,0.08073 -0.817373,0.242184 -0.232093,0.161456 -0.30273,0.625643 -0.07064,0.464187 -0.09082,1.796201 -0.02018,1.301741 -0.161456,2.139295 -0.131184,0.827464 -0.534824,1.412743 -0.39355,0.585278 -1.150376,1.059556 z"
       id="path844" />
    <path
       d="m 28.440202,26.341694 q -0.666007,0 -1.150376,-0.40364 -0.484369,-0.413732 -0.484369,-1.150376 0,-0.635734 0.474278,-1.069648 0.474278,-0.433914 1.120103,-0.433914 0.484369,0 0.877918,0.262367 0.39355,0.262366 0.615552,0.777008 0.222002,0.504551 0.222002,1.251286 0,0.999011 -0.423822,1.866838 -0.423823,0.877918 -1.039375,1.382469 -0.605461,0.514642 -1.099921,0.514642 -0.312821,0 -0.50455,-0.211911 -0.19173,-0.201821 -0.19173,-0.474278 0,-0.413732 0.403641,-0.666007 1.180649,-0.645825 1.180649,-1.644836 z m -1.382469,-9.717648 q 0,-0.716462 0.444004,-1.110012 0.454096,-0.39355 1.08983,-0.39355 0.615552,0 1.059557,0.403641 0.444004,0.39355 0.444004,1.099921 0,0.575188 -0.474277,1.049465 -0.464187,0.464187 -1.029284,0.464187 -0.423823,0 -0.777008,-0.20182 -0.343095,-0.201821 -0.555006,-0.534824 -0.20182,-0.343095 -0.20182,-0.777008 z"
       id="path846" />
    <path
       d="m 36.210284,20.720998 q -0.544915,-0.343094 -0.888009,-0.716462 -0.343095,-0.373367 -0.565097,-0.908191 -0.222002,-0.534824 -0.312822,-1.261377 -0.09082,-0.736645 -0.09082,-1.725564 0,-0.958647 -0.04036,-1.463197 -0.04036,-0.514642 -0.161456,-0.746736 -0.121092,-0.232093 -0.343095,-0.312821 -0.211911,-0.09082 -0.655916,-0.141274 -0.373367,-0.05045 -0.635734,-0.363277 -0.252275,-0.312821 -0.252275,-0.857736 0,-1.200831 1.463197,-1.200831 0.938465,0 1.644836,0.383458 0.716462,0.373368 1.120103,1.079739 0.413731,0.69628 0.423822,1.594381 0.06055,3.350217 0.141275,3.683221 0.161456,0.666007 0.474277,1.019192 0.312822,0.343095 0.756827,0.615552 0.444004,0.262367 0.655916,0.524733 0.222002,0.262366 0.222002,0.79719 0,0.756826 -0.575188,1.110012 -0.706371,0.433914 -1.029284,0.766917 -0.312821,0.322913 -0.444004,0.817373 -0.121093,0.484368 -0.151366,1.463197 -0.02018,0.978828 -0.05045,2.452117 -0.03027,1.39256 -0.8981,2.230114 -0.857736,0.847646 -2.290661,0.847646 -0.706371,0 -1.089829,-0.312822 -0.373368,-0.312821 -0.373368,-0.908191 0,-0.333004 0.121092,-0.615552 0.121092,-0.272458 0.312822,-0.423823 0.20182,-0.151365 0.454095,-0.181638 0.454096,-0.06055 0.676098,-0.151365 0.222003,-0.09082 0.333004,-0.343095 0.121092,-0.252275 0.151365,-0.746735 0.04036,-0.484369 0.04036,-1.422833 0.02018,-1.392561 0.161457,-2.17966 0.141274,-0.787099 0.534823,-1.352196 0.39355,-0.565097 1.160467,-1.049466 z"
       id="path848" />
  </g>
</svg>
