<?xml version="1.0" encoding="UTF-8" standalone="no"?>
<svg
   fill="none"
   viewBox="0 0 48 48"
   height="256"
   width="256"
   version="1.1"
   id="svg2270"
   sodipodi:docname="file_cpp.svg"
   inkscape:version="1.2.1 (9c6d41e410, 2022-07-14)"
   xmlns:inkscape="http://www.inkscape.org/namespaces/inkscape"
   xmlns:sodipodi="http://sodipodi.sourceforge.net/DTD/sodipodi-0.dtd"
   xmlns="http://www.w3.org/2000/svg"
   xmlns:svg="http://www.w3.org/2000/svg">
  <defs
     id="defs2274" />
  <sodipodi:namedview
     id="namedview2272"
     pagecolor="#ffffff"
     bordercolor="#666666"
     borderopacity="1.0"
     inkscape:showpageshadow="2"
     inkscape:pageopacity="0.0"
     inkscape:pagecheckerboard="0"
     inkscape:deskcolor="#d1d1d1"
     showgrid="false"
     inkscape:zoom="1.1449053"
     inkscape:cx="-13.974955"
     inkscape:cy="67.691188"
     inkscape:current-layer="svg2270"
     inkscape:window-width="1920"
     inkscape:window-height="730"
     inkscape:window-x="-6"
     inkscape:window-y="-6"
     inkscape:window-maximized="1" />
  <path
     fill="#edf1e9"
     d="M30.049 2.06996C30.049 2.06996 32.7693 3.1 37.7693 8.05C42.751 12.9819 43.7957 15.6797 43.8033 15.6994C43.9247 18.0495 44 20.7979 44 24C44 33.5541 43.3294 39.0688 42.7649 42.0187C42.4022 43.9138 40.9085 45.2127 38.9715 45.4197C36.3568 45.699 31.7428 46 24 46C16.2572 46 11.6432 45.699 9.02852 45.4197C7.09148 45.2127 5.59781 43.9138 5.23513 42.0187C4.67056 39.0688 4 33.5541 4 24C4 14.4459 4.67056 8.93121 5.23513 5.98128C5.59782 4.08618 7.09148 2.78727 9.02852 2.58034C11.6432 2.30102 16.2572 2 24 2C26.2774 2 28.2842 2.02609 30.049 2.06996Z"
     id="path2264"
     style="fill:#edf1e9;fill-opacity:1" />
  <path
     fill="#adafaa"
     d="M43.8024 15.6998C40.6029 16.4965 36.8253 16.5494 33.5625 15.5626C32.1831 15.1454 31.1075 14.0816 30.642 12.7301C29.4822 9.36336 29.1957 5.24234 30.0481 2.07031C30.0481 2.07031 32.7684 3.10035 37.7684 8.05035C42.7684 13.0004 43.8024 15.6998 43.8024 15.6998Z"
     id="path2266"
     style="fill:#adafaa;fill-opacity:1" />
  <g
     aria-label=".cpp"
     transform="scale(0.84520216,1.1831489)"
     id="text2447"
     style="font-size:20.6664px;line-height:0.85;font-family:'Arial Rounded MT Bold';-inkscape-font-specification:'Arial Rounded MT Bold, Normal';word-spacing:0px;fill:#606668;stroke-width:0.140907">
    <path
       d="m 8.8896356,26.321512 q -0.625643,0 -1.0797387,-0.40364 -0.4540958,-0.403641 -0.4540958,-1.130194 0,-0.615552 0.4339137,-1.059557 0.4339137,-0.444005 1.0696477,-0.444005 0.635734,0 1.0797388,0.444005 0.4540957,0.433914 0.4540957,1.059557 0,0.716462 -0.4540957,1.130194 -0.4440048,0.40364 -1.0494657,0.40364 z"
       id="path11945" />
    <path
       d="m 23.410608,22.910749 q 0,0.514642 -0.312822,1.09992 -0.30273,0.585279 -0.938464,1.120103 -0.625643,0.524733 -1.58429,0.847646 -0.958646,0.322912 -2.159477,0.322912 -2.553027,0 -3.985952,-1.483379 -1.432924,-1.493471 -1.432924,-3.996043 0,-1.69529 0.655916,-2.997031 0.655916,-1.301741 1.897111,-2.008113 1.241195,-0.716462 2.966759,-0.716462 1.069648,0 1.957657,0.312822 0.898101,0.312821 1.513652,0.807281 0.625643,0.49446 0.948556,1.059557 0.333004,0.555006 0.333004,1.039374 0,0.49446 -0.373368,0.837555 -0.363277,0.343094 -0.888009,0.343094 -0.343095,0 -0.575188,-0.171547 -0.222003,-0.181638 -0.504551,-0.575188 -0.504551,-0.766917 -1.059557,-1.150376 -0.544915,-0.383458 -1.39256,-0.383458 -1.221013,0 -1.967748,0.958646 -0.746735,0.948556 -0.746735,2.603482 0,0.777009 0.191729,1.432925 0.191729,0.645825 0.555006,1.110011 0.363276,0.454096 0.877918,0.69628 0.514642,0.232094 1.130194,0.232094 0.827463,0 1.412742,-0.383459 0.59537,-0.383458 1.049466,-1.170558 0.252275,-0.464186 0.544915,-0.726553 0.292639,-0.262366 0.716462,-0.262366 0.504551,0 0.837554,0.383458 0.333004,0.383459 0.333004,0.817373 z"
       id="path11947" />
    <path
       d="m 28.355205,16.66441 v 0.333003 q 0.777008,-0.958646 1.614563,-1.402651 0.837554,-0.454096 1.897111,-0.454096 1.271468,0 2.341115,0.655916 1.069648,0.655916 1.6852,1.917293 0.625643,1.261377 0.625643,2.986941 0,1.271468 -0.363276,2.341116 -0.353186,1.059557 -0.978829,1.78611 -0.625643,0.716462 -1.483379,1.110012 -0.847646,0.383458 -1.826474,0.383458 -1.180649,0 -1.98793,-0.474278 -0.797191,-0.474277 -1.523744,-1.39256 v 4.137317 q 0,1.816383 -1.321923,1.816383 -0.777008,0 -1.029284,-0.474278 -0.252275,-0.464187 -0.252275,-1.362287 V 16.684592 q 0,-0.787099 0.343094,-1.170558 0.343095,-0.39355 0.938465,-0.39355 0.585279,0 0.948555,0.403641 0.373368,0.39355 0.373368,1.140285 z m 5.398694,4.006133 q 0,-1.08983 -0.333004,-1.866838 -0.333003,-0.787099 -0.928373,-1.200831 -0.585279,-0.423822 -1.301741,-0.423822 -1.140285,0 -1.927384,0.8981 -0.777009,0.8981 -0.777009,2.643846 0,1.644836 0.777009,2.563118 0.777008,0.908192 1.927384,0.908192 0.686189,0 1.271468,-0.39355 0.585279,-0.403641 0.938464,-1.200831 0.353186,-0.79719 0.353186,-1.927384 z"
       id="path11949" />
    <path
       d="m 41.271705,16.66441 v 0.333003 q 0.777008,-0.958646 1.614563,-1.402651 0.837554,-0.454096 1.897111,-0.454096 1.271468,0 2.341115,0.655916 1.069648,0.655916 1.6852,1.917293 0.625643,1.261377 0.625643,2.986941 0,1.271468 -0.363276,2.341116 -0.353186,1.059557 -0.978829,1.78611 -0.625643,0.716462 -1.483379,1.110012 -0.847646,0.383458 -1.826474,0.383458 -1.180649,0 -1.98793,-0.474278 -0.797191,-0.474277 -1.523744,-1.39256 v 4.137317 q 0,1.816383 -1.321923,1.816383 -0.777008,0 -1.029284,-0.474278 -0.252275,-0.464187 -0.252275,-1.362287 V 16.684592 q 0,-0.787099 0.343095,-1.170558 0.343094,-0.39355 0.938464,-0.39355 0.585279,0 0.948556,0.403641 0.373367,0.39355 0.373367,1.140285 z m 5.398694,4.006133 q 0,-1.08983 -0.333004,-1.866838 -0.333003,-0.787099 -0.928373,-1.200831 -0.585279,-0.423822 -1.301741,-0.423822 -1.140285,0 -1.927384,0.8981 -0.777009,0.8981 -0.777009,2.643846 0,1.644836 0.777009,2.563118 0.777008,0.908192 1.927384,0.908192 0.686189,0 1.271468,-0.39355 0.585279,-0.403641 0.938464,-1.200831 0.353186,-0.79719 0.353186,-1.927384 z"
       id="path11951" />
  </g>
</svg>
