<?xml version="1.0" encoding="UTF-8" standalone="no"?>
<svg
   fill="none"
   viewBox="0 0 48 48"
   height="256"
   width="256"
   version="1.1"
   id="svg134"
   sodipodi:docname="green.svg"
   inkscape:version="1.2.1 (9c6d41e410, 2022-07-14)"
   xmlns:inkscape="http://www.inkscape.org/namespaces/inkscape"
   xmlns:sodipodi="http://sodipodi.sourceforge.net/DTD/sodipodi-0.dtd"
   xmlns="http://www.w3.org/2000/svg"
   xmlns:svg="http://www.w3.org/2000/svg">
  <defs
     id="defs138" />
  <sodipodi:namedview
     id="namedview136"
     pagecolor="#ffffff"
     bordercolor="#666666"
     borderopacity="1.0"
     inkscape:showpageshadow="2"
     inkscape:pageopacity="0.0"
     inkscape:pagecheckerboard="0"
     inkscape:deskcolor="#d1d1d1"
     showgrid="false"
     inkscape:zoom="0.80957031"
     inkscape:cx="-102.52352"
     inkscape:cy="40.762364"
     inkscape:current-layer="svg134" />
  <circle
     cx="24"
     cy="24"
     r="22"
     fill="#8ae234"
     id="circle130"
     style="fill:#8ae234;fill-opacity:1" />
  <path
     fill="#4e9a06"
     fill-rule="evenodd"
     d="m 35.159294,16.442388 c 0.5812,0.7926 0.4513,1.8599 -0.0854,2.6834 -4.3327,6.648 -7.5863,10.9743 -9.617,13.5007 -1.3301,1.655 -3.6987,1.7783 -5.2107,0.2878 -1.8646,-1.838 -4.4706,-4.5691 -7.1686,-7.9128 -0.7135,-0.8842 -0.861,-2.1253 -0.1635,-3.0222 0.546,-0.702 1.1616,-1.3109 1.7286,-1.8043 1.0487,-0.9124 2.5852,-0.7083 3.5318,0.3096 2.7282,2.9337 4.3691,4.974 4.3691,4.974 0,0 2.7289,-4.0397 7.1119,-10.2628 0.7178,-1.0192 2.0107,-1.495 3.0897,-0.8708 0.7949,0.4599 1.6988,1.1419 2.4141,2.1174 z"
     clip-rule="evenodd"
     id="path1977"
     style="fill:#4e9a06;fill-opacity:1" />
</svg>
