<?xml version="1.0" encoding="UTF-8" standalone="no"?>
<svg
   fill="none"
   viewBox="0 0 48 48"
   height="256"
   width="256"
   version="1.1"
   id="svg134"
   sodipodi:docname="green_question.svg"
   inkscape:version="1.2.1 (9c6d41e410, 2022-07-14)"
   xmlns:inkscape="http://www.inkscape.org/namespaces/inkscape"
   xmlns:sodipodi="http://sodipodi.sourceforge.net/DTD/sodipodi-0.dtd"
   xmlns="http://www.w3.org/2000/svg"
   xmlns:svg="http://www.w3.org/2000/svg">
  <defs
     id="defs138" />
  <sodipodi:namedview
     id="namedview136"
     pagecolor="#ffffff"
     bordercolor="#666666"
     borderopacity="1.0"
     inkscape:showpageshadow="2"
     inkscape:pageopacity="0.0"
     inkscape:pagecheckerboard="0"
     inkscape:deskcolor="#d1d1d1"
     showgrid="false"
     inkscape:zoom="0.80957031"
     inkscape:cx="-34.586249"
     inkscape:cy="44.468034"
     inkscape:current-layer="svg134" />
  <circle
     cx="24"
     cy="24"
     r="22"
     fill="#8ae234"
     id="circle130"
     style="fill:#8ae234;fill-opacity:1" />
  <path
     fill="#4e9a06"
     fill-rule="evenodd"
     d="m 19.84872,22.798221 c -0.3629,0.3337 -0.5375,0.7855 -0.5236,1.3554 h -0.0015 v 3.032 c 0,0.8285 0.6715,1.5 1.5,1.5 h 2.5295 c 0.8284,0 1.5,-0.6715 1.5,-1.5 v -0.9668 l 0.2639,-0.1231 c 1.1816,-0.5585 2.2295,-1.1384 3.1437,-1.7395 0.9142,-0.6011 1.6554,-1.2551 2.2236,-1.962 0.5918,-0.7094 1.008,-1.4953 1.2487,-2.3577 0.2618,-0.8886 0.331,-1.8995 0.2077,-3.0329 -0.2516,-2.314 -1.1839,-4.0762 -2.7968,-5.2865 -1.5892,-1.2128 -3.777,-1.6678 -6.5632,-1.3648 -0.9681,0.1053 -1.8669,0.2986 -2.6964,0.58 -0.8321,0.2577 -1.5476,0.5983 -2.1466,1.0218 -0.5991,0.4236 -1.0592,0.9156 -1.3805,1.4761 -0.2977,0.558 -0.4093,1.1794 -0.3348,1.8642 0.0708,0.6512 0.3256,1.2089 0.7271,1.6518 0.5419,0.5977 1.4497,0.3927 2.1062,-0.0764 0.3003,-0.2146 0.6101,-0.4103 0.9295,-0.587 0.6961,-0.4102 1.5281,-0.6679 2.4962,-0.7732 1.0626,-0.1156 1.8464,0.062 2.3515,0.5327 0.5288,0.4681 0.8265,1.0091 0.8933,1.623 0.0744,0.6848 -0.0751,1.2864 -0.4488,1.8049 -0.3762,0.4948 -0.9044,0.9106 -1.5845,1.2474 l -2.0404,1.0103 c -0.6565,0.3342 -1.1911,0.691 -1.6038,1.0703 z m -1.2441,11.5914 c 0,-0.9976 0.2969,-1.8051 0.8907,-2.4227 0.6175,-0.6175 1.4607,-0.9263 2.5295,-0.9263 1.0688,0 1.9001,0.3088 2.4939,0.9263 0.6175,0.6176 0.9263,1.4251 0.9263,2.4227 0,0.9975 -0.3088,1.8051 -0.9263,2.4226 -0.5938,0.6176 -1.4251,0.9263 -2.4939,0.9263 -1.0688,0 -1.912,-0.3087 -2.5295,-0.9263 -0.5938,-0.6175 -0.8907,-1.4251 -0.8907,-2.4226 z"
     clip-rule="evenodd"
     id="path727"
     style="fill:#4e9a06;fill-opacity:1" />
</svg>
