<?xml version="1.0" encoding="UTF-8" standalone="no"?>
<svg
   fill="none"
   viewBox="0 0 48 48"
   height="256"
   width="256"
   version="1.1"
   id="svg134"
   sodipodi:docname="red.svg"
   inkscape:version="1.2.1 (9c6d41e410, 2022-07-14)"
   xmlns:inkscape="http://www.inkscape.org/namespaces/inkscape"
   xmlns:sodipodi="http://sodipodi.sourceforge.net/DTD/sodipodi-0.dtd"
   xmlns="http://www.w3.org/2000/svg"
   xmlns:svg="http://www.w3.org/2000/svg">
  <defs
     id="defs138" />
  <sodipodi:namedview
     id="namedview136"
     pagecolor="#ffffff"
     bordercolor="#666666"
     borderopacity="1.0"
     inkscape:showpageshadow="2"
     inkscape:pageopacity="0.0"
     inkscape:pagecheckerboard="0"
     inkscape:deskcolor="#d1d1d1"
     showgrid="false"
     inkscape:zoom="0.80957031"
     inkscape:cx="-92.641737"
     inkscape:cy="22.234017"
     inkscape:current-layer="svg134" />
  <circle
     cx="24"
     cy="24"
     r="22"
     fill="#ef2929"
     id="circle130"
     style="fill:#ef2929;fill-opacity:1" />
  <path
     fill="#a40000"
     fill-rule="evenodd"
     d="m 34.606602,37.663001 c -0.81989,0.610869 -1.876944,0.439113 -2.631003,-0.251447 -0.85171,-0.779869 -5.953627,-5.80061 -7.975599,-7.78157 -2.021972,1.98096 -7.123889,7.001701 -7.975599,7.78157 -0.754059,0.69056 -1.811113,0.862316 -2.631003,0.251447 -0.450286,-0.335593 -0.998364,-0.797405 -1.628679,-1.42772 -0.630315,-0.630315 -1.092127,-1.178393 -1.42772,-1.628679 -0.6108692,-0.81989 -0.4391132,-1.876944 0.251447,-2.631003 0.779869,-0.85171 5.80061,-5.953627 7.78157,-7.975599 -1.98096,-2.021972 -7.001701,-7.123889 -7.78157,-7.975599 -0.6905602,-0.754059 -0.8623162,-1.811113 -0.251447,-2.631003 0.335593,-0.450286 0.797405,-0.998364 1.42772,-1.628679 0.630315,-0.630315 1.178393,-1.092127 1.628679,-1.42772 0.81989,-0.6108696 1.876944,-0.4391136 2.631003,0.251447 0.85171,0.779869 5.953627,5.80061 7.975599,7.78157 2.021972,-1.98096 7.123889,-7.001701 7.975599,-7.78157 0.754059,-0.6905606 1.811113,-0.8623166 2.631003,-0.251447 0.450286,0.335593 0.998364,0.797405 1.628679,1.42772 0.630315,0.630315 1.092127,1.178393 1.42772,1.628679 0.610869,0.81989 0.439113,1.876944 -0.251447,2.631003 -0.779869,0.85171 -5.80061,5.953627 -7.78157,7.975599 1.98096,2.021972 7.001701,7.123889 7.78157,7.975599 0.69056,0.754059 0.862316,1.811113 0.251447,2.631003 -0.335593,0.450286 -0.797405,0.998364 -1.42772,1.628679 -0.630315,0.630315 -1.178393,1.092127 -1.628679,1.42772 z"
     clip-rule="evenodd"
     id="path132"
     sodipodi:nodetypes="cccccscccccscccccscccccsc"
     style="fill:#a40000;fill-opacity:1" />
</svg>
