<?xml version="1.0" encoding="UTF-8" standalone="no"?>
<svg
   fill="none"
   viewBox="0 0 48 48"
   height="256"
   width="256"
   version="1.1"
   id="svg2270"
   sodipodi:docname="file_bin.svg"
   inkscape:version="1.2.1 (9c6d41e410, 2022-07-14)"
   xmlns:inkscape="http://www.inkscape.org/namespaces/inkscape"
   xmlns:sodipodi="http://sodipodi.sourceforge.net/DTD/sodipodi-0.dtd"
   xmlns="http://www.w3.org/2000/svg"
   xmlns:svg="http://www.w3.org/2000/svg">
  <defs
     id="defs2274" />
  <sodipodi:namedview
     id="namedview2272"
     pagecolor="#ffffff"
     bordercolor="#666666"
     borderopacity="1.0"
     inkscape:showpageshadow="2"
     inkscape:pageopacity="0.0"
     inkscape:pagecheckerboard="0"
     inkscape:deskcolor="#d1d1d1"
     showgrid="false"
     inkscape:zoom="1.6191406"
     inkscape:cx="37.674307"
     inkscape:cy="84.303982"
     inkscape:current-layer="svg2270"
     inkscape:window-width="1920"
     inkscape:window-height="730"
     inkscape:window-x="-6"
     inkscape:window-y="-6"
     inkscape:window-maximized="1" />
  <path
     fill="#d3d7cf"
     d="M30.049 2.06996C30.049 2.06996 32.7693 3.1 37.7693 8.05C42.751 12.9819 43.7957 15.6797 43.8033 15.6994C43.9247 18.0495 44 20.7979 44 24C44 33.5541 43.3294 39.0688 42.7649 42.0187C42.4022 43.9138 40.9085 45.2127 38.9715 45.4197C36.3568 45.699 31.7428 46 24 46C16.2572 46 11.6432 45.699 9.02852 45.4197C7.09148 45.2127 5.59781 43.9138 5.23513 42.0187C4.67056 39.0688 4 33.5541 4 24C4 14.4459 4.67056 8.93121 5.23513 5.98128C5.59782 4.08618 7.09148 2.78727 9.02852 2.58034C11.6432 2.30102 16.2572 2 24 2C26.2774 2 28.2842 2.02609 30.049 2.06996Z"
     id="path2264"
     style="fill:#d3d7cf;fill-opacity:1" />
  <path
     fill="#888a85"
     d="M43.8024 15.6998C40.6029 16.4965 36.8253 16.5494 33.5625 15.5626C32.1831 15.1454 31.1075 14.0816 30.642 12.7301C29.4822 9.36336 29.1957 5.24234 30.0481 2.07031C30.0481 2.07031 32.7684 3.10035 37.7684 8.05035C42.7684 13.0004 43.8024 15.6998 43.8024 15.6998Z"
     id="path2266"
     style="fill:#888a85;fill-opacity:1" />
  <g
     aria-label="011 101"
     id="text2447"
     style="font-size:17.5px;line-height:0.85;font-family:'Arial Rounded MT Bold';-inkscape-font-specification:'Arial Rounded MT Bold, Normal';word-spacing:0px;fill:#2e3436;stroke-width:0.1875">
    <path
       d="m 17.594995,18.421553 q 0,1.401367 -0.170899,2.409668 -0.170898,1.0083 -0.632324,1.828613 -0.581055,1.008301 -1.503906,1.555176 -0.922852,0.546875 -2.050782,0.546875 -1.298828,0 -2.332763,-0.734864 Q 9.8789301,23.292158 9.3576899,21.99333 9.0927973,21.284101 8.9646235,20.429609 q -0.119629,-0.863037 -0.119629,-1.862793 0,-1.290283 0.1367188,-2.324218 0.1367187,-1.033936 0.4272461,-1.777344 0.5041504,-1.230469 1.4611816,-1.871338 0.965576,-0.649414 2.298584,-0.649414 0.880127,0 1.5979,0.290527 0.717774,0.281983 1.256104,0.837403 0.546875,0.546875 0.922851,1.358642 0.649415,1.409912 0.649415,3.990479 z m -2.341309,-0.170899 q 0,-1.56372 -0.187988,-2.554931 -0.187989,-0.999756 -0.632325,-1.503907 -0.444335,-0.512695 -1.230468,-0.512695 -1.12793,0 -1.572266,1.136475 -0.435791,1.136474 -0.435791,3.503418 0,1.606445 0.187988,2.631836 0.187989,1.02539 0.632325,1.555175 0.444335,0.521241 1.204834,0.521241 0.786132,0 1.230468,-0.546875 0.444336,-0.546875 0.62378,-1.563721 0.179443,-1.016846 0.179443,-2.666016 z"
       id="path845" />
    <path
       d="m 23.362817,23.394697 v -7.775879 q -2.17041,1.66626 -2.922363,1.66626 -0.358887,0 -0.64087,-0.281982 -0.273437,-0.290528 -0.273437,-0.666504 0,-0.435791 0.273437,-0.640869 0.273438,-0.205079 0.965577,-0.529786 1.033935,-0.48706 1.649169,-1.02539 0.62378,-0.53833 1.102295,-1.204834 0.478516,-0.666504 0.62378,-0.820313 0.145263,-0.153808 0.546875,-0.153808 0.452881,0 0.726318,0.350342 0.273438,0.350341 0.273438,0.965576 v 9.783935 q 0,1.71753 -1.170655,1.71753 -0.52124,0 -0.837402,-0.350342 -0.316162,-0.350342 -0.316162,-1.033936 z"
       id="path847" />
    <path
       d="m 33.761987,23.394697 v -7.775879 q -2.17041,1.66626 -2.922364,1.66626 -0.358886,0 -0.640869,-0.281982 -0.273437,-0.290528 -0.273437,-0.666504 0,-0.435791 0.273437,-0.640869 0.273438,-0.205079 0.965576,-0.529786 1.033936,-0.48706 1.64917,-1.02539 0.62378,-0.53833 1.102295,-1.204834 0.478516,-0.666504 0.62378,-0.820313 0.145263,-0.153808 0.546875,-0.153808 0.45288,0 0.726318,0.350342 0.273437,0.350341 0.273437,0.965576 v 9.783935 q 0,1.71753 -1.170654,1.71753 -0.52124,0 -0.837402,-0.350342 -0.316162,-0.350342 -0.316162,-1.033936 z"
       id="path849" />
    <path
       d="m 12.963647,38.269698 v -7.775879 q -2.17041,1.666259 -2.922363,1.666259 -0.3588871,0 -0.6408695,-0.281982 -0.2734375,-0.290527 -0.2734375,-0.666504 0,-0.435791 0.2734375,-0.640869 0.2734375,-0.205078 0.9655765,-0.529785 1.033935,-0.487061 1.64917,-1.025391 0.623779,-0.53833 1.102294,-1.204834 0.478516,-0.666504 0.62378,-0.820312 0.145263,-0.153809 0.546875,-0.153809 0.452881,0 0.726318,0.350342 0.273438,0.350342 0.273438,0.965576 v 9.783936 q 0,1.717529 -1.170655,1.717529 -0.52124,0 -0.837402,-0.350342 -0.316162,-0.350342 -0.316162,-1.033935 z"
       id="path851" />
    <path
       d="m 27.994164,33.296553 q 0,1.401367 -0.170898,2.409668 -0.170898,1.008301 -0.632324,1.828613 -0.581055,1.008301 -1.503906,1.555176 -0.922852,0.546875 -2.050782,0.546875 -1.298828,0 -2.332763,-0.734863 -1.025391,-0.734863 -1.546631,-2.033692 -0.264893,-0.709228 -0.393067,-1.56372 -0.119629,-0.863037 -0.119629,-1.862793 0,-1.290283 0.136719,-2.324219 0.136719,-1.033936 0.427246,-1.777344 0.504151,-1.230469 1.461182,-1.871338 0.965576,-0.649414 2.298584,-0.649414 0.880127,0 1.5979,0.290528 0.717774,0.281982 1.256104,0.837402 0.546875,0.546875 0.922851,1.358643 0.649414,1.409912 0.649414,3.990478 z m -2.341308,-0.170898 q 0,-1.563721 -0.187988,-2.554932 -0.187989,-0.999756 -0.632325,-1.503906 -0.444336,-0.512696 -1.230468,-0.512696 -1.12793,0 -1.572266,1.136475 -0.435791,1.136475 -0.435791,3.503418 0,1.606445 0.187988,2.631836 0.187989,1.025391 0.632324,1.555176 0.444336,0.52124 1.204834,0.52124 0.786133,0 1.230469,-0.546875 0.444336,-0.546875 0.62378,-1.563721 0.179443,-1.016845 0.179443,-2.666015 z"
       id="path853" />
    <path
       d="m 33.761987,38.269698 v -7.775879 q -2.17041,1.666259 -2.922364,1.666259 -0.358886,0 -0.640869,-0.281982 -0.273437,-0.290527 -0.273437,-0.666504 0,-0.435791 0.273437,-0.640869 0.273438,-0.205078 0.965576,-0.529785 1.033936,-0.487061 1.64917,-1.025391 0.62378,-0.53833 1.102295,-1.204834 0.478516,-0.666504 0.62378,-0.820312 0.145263,-0.153809 0.546875,-0.153809 0.45288,0 0.726318,0.350342 0.273437,0.350342 0.273437,0.965576 v 9.783936 q 0,1.717529 -1.170654,1.717529 -0.52124,0 -0.837402,-0.350342 -0.316162,-0.350342 -0.316162,-1.033935 z"
       id="path855" />
  </g>
</svg>
