<?xml version="1.0" encoding="UTF-8" standalone="no"?>
<svg
   fill="none"
   viewBox="0 0 48 48"
   height="256"
   width="256"
   version="1.1"
   id="svg2270"
   sodipodi:docname="file_hpp.svg"
   inkscape:version="1.2.1 (9c6d41e410, 2022-07-14)"
   xmlns:inkscape="http://www.inkscape.org/namespaces/inkscape"
   xmlns:sodipodi="http://sodipodi.sourceforge.net/DTD/sodipodi-0.dtd"
   xmlns="http://www.w3.org/2000/svg"
   xmlns:svg="http://www.w3.org/2000/svg">
  <defs
     id="defs2274" />
  <sodipodi:namedview
     id="namedview2272"
     pagecolor="#ffffff"
     bordercolor="#666666"
     borderopacity="1.0"
     inkscape:showpageshadow="2"
     inkscape:pageopacity="0.0"
     inkscape:pagecheckerboard="0"
     inkscape:deskcolor="#d1d1d1"
     showgrid="false"
     inkscape:zoom="1.1449053"
     inkscape:cx="-13.974955"
     inkscape:cy="67.691188"
     inkscape:current-layer="svg2270"
     inkscape:window-width="1920"
     inkscape:window-height="730"
     inkscape:window-x="-6"
     inkscape:window-y="-6"
     inkscape:window-maximized="1" />
  <path
     fill="#d3d7cf"
     d="M30.049 2.06996C30.049 2.06996 32.7693 3.1 37.7693 8.05C42.751 12.9819 43.7957 15.6797 43.8033 15.6994C43.9247 18.0495 44 20.7979 44 24C44 33.5541 43.3294 39.0688 42.7649 42.0187C42.4022 43.9138 40.9085 45.2127 38.9715 45.4197C36.3568 45.699 31.7428 46 24 46C16.2572 46 11.6432 45.699 9.02852 45.4197C7.09148 45.2127 5.59781 43.9138 5.23513 42.0187C4.67056 39.0688 4 33.5541 4 24C4 14.4459 4.67056 8.93121 5.23513 5.98128C5.59782 4.08618 7.09148 2.78727 9.02852 2.58034C11.6432 2.30102 16.2572 2 24 2C26.2774 2 28.2842 2.02609 30.049 2.06996Z"
     id="path2264"
     style="fill:#d3d7cf;fill-opacity:1" />
  <path
     fill="#888a85"
     d="M43.8024 15.6998C40.6029 16.4965 36.8253 16.5494 33.5625 15.5626C32.1831 15.1454 31.1075 14.0816 30.642 12.7301C29.4822 9.36336 29.1957 5.24234 30.0481 2.07031C30.0481 2.07031 32.7684 3.10035 37.7684 8.05035C42.7684 13.0004 43.8024 15.6998 43.8024 15.6998Z"
     id="path2266"
     style="fill:#888a85;fill-opacity:1" />
  <g
     aria-label=".hpp"
     transform="scale(0.84520216,1.1831489)"
     id="text2447"
     style="font-size:20.6664px;line-height:0.85;font-family:'Arial Rounded MT Bold';-inkscape-font-specification:'Arial Rounded MT Bold, Normal';word-spacing:0px;fill:#2e3436;stroke-width:0.140907">
    <path
       d="m 8.8896356,26.321512 q -0.625643,0 -1.0797387,-0.40364 -0.4540958,-0.403641 -0.4540958,-1.130194 0,-0.615552 0.4339137,-1.059557 0.4339137,-0.444005 1.0696477,-0.444005 0.635734,0 1.0797388,0.444005 0.4540957,0.433914 0.4540957,1.059557 0,0.716462 -0.4540957,1.130194 -0.4440048,0.40364 -1.0494657,0.40364 z"
       id="path21281" />
    <path
       d="m 16.225804,12.69864 v 4.086862 q 0.524733,-0.605461 1.019193,-0.958647 0.504551,-0.353185 1.110012,-0.524732 0.605461,-0.181639 1.301741,-0.181639 1.049465,0 1.856747,0.444005 0.817372,0.444005 1.281559,1.29165 0.292639,0.49446 0.393549,1.110012 0.100911,0.605461 0.100911,1.402651 v 5.277601 q 0,0.827464 -0.383459,1.251286 -0.373368,0.423823 -0.999011,0.423823 -1.362287,0 -1.362287,-1.675109 v -4.651958 q 0,-1.321923 -0.393549,-2.028294 -0.39355,-0.716462 -1.493471,-0.716462 -0.736644,0 -1.332014,0.423822 -0.585279,0.413732 -0.877918,1.140285 -0.222003,0.615552 -0.222003,2.189751 v 3.642856 q 0,0.817373 -0.373367,1.251286 -0.363277,0.423823 -1.019193,0.423823 -1.362287,0 -1.362287,-1.675109 V 12.69864 q 0,-0.837554 0.353185,-1.251286 0.363277,-0.423822 1.009102,-0.423822 0.655916,0 1.019193,0.423822 0.373367,0.423823 0.373367,1.251286 z"
       id="path21283" />
    <path
       d="m 28.557025,16.66441 v 0.333003 q 0.777009,-0.958646 1.614563,-1.402651 0.837554,-0.454096 1.897111,-0.454096 1.271468,0 2.341116,0.655916 1.069647,0.655916 1.685199,1.917293 0.625643,1.261377 0.625643,2.986941 0,1.271468 -0.363276,2.341116 -0.353186,1.059557 -0.978829,1.78611 -0.625643,0.716462 -1.483379,1.110012 -0.847645,0.383458 -1.826474,0.383458 -1.180649,0 -1.98793,-0.474278 -0.79719,-0.474277 -1.523744,-1.39256 v 4.137317 q 0,1.816383 -1.321923,1.816383 -0.777008,0 -1.029283,-0.474278 -0.252276,-0.464187 -0.252276,-1.362287 V 16.684592 q 0,-0.787099 0.343095,-1.170558 0.343094,-0.39355 0.938464,-0.39355 0.585279,0 0.948556,0.403641 0.373367,0.39355 0.373367,1.140285 z m 5.398694,4.006133 q 0,-1.08983 -0.333003,-1.866838 -0.333004,-0.787099 -0.928374,-1.200831 -0.585279,-0.423822 -1.301741,-0.423822 -1.140285,0 -1.927384,0.8981 -0.777008,0.8981 -0.777008,2.643846 0,1.644836 0.777008,2.563118 0.777008,0.908192 1.927384,0.908192 0.686189,0 1.271468,-0.39355 0.585279,-0.403641 0.938464,-1.200831 0.353186,-0.79719 0.353186,-1.927384 z"
       id="path21285" />
    <path
       d="m 41.473526,16.66441 v 0.333003 q 0.777008,-0.958646 1.614562,-1.402651 0.837554,-0.454096 1.897111,-0.454096 1.271468,0 2.341116,0.655916 1.069648,0.655916 1.6852,1.917293 0.625643,1.261377 0.625643,2.986941 0,1.271468 -0.363277,2.341116 -0.353186,1.059557 -0.978829,1.78611 -0.625643,0.716462 -1.483379,1.110012 -0.847645,0.383458 -1.826474,0.383458 -1.180649,0 -1.98793,-0.474278 -0.79719,-0.474277 -1.523743,-1.39256 v 4.137317 q 0,1.816383 -1.321924,1.816383 -0.777008,0 -1.029283,-0.474278 -0.252276,-0.464187 -0.252276,-1.362287 V 16.684592 q 0,-0.787099 0.343095,-1.170558 0.343094,-0.39355 0.938464,-0.39355 0.585279,0 0.948556,0.403641 0.373368,0.39355 0.373368,1.140285 z m 5.398693,4.006133 q 0,-1.08983 -0.333003,-1.866838 -0.333004,-0.787099 -0.928374,-1.200831 -0.585279,-0.423822 -1.301741,-0.423822 -1.140285,0 -1.927384,0.8981 -0.777008,0.8981 -0.777008,2.643846 0,1.644836 0.777008,2.563118 0.777008,0.908192 1.927384,0.908192 0.686189,0 1.271468,-0.39355 0.585279,-0.403641 0.938465,-1.200831 0.353185,-0.79719 0.353185,-1.927384 z"
       id="path21287" />
  </g>
</svg>
