<?xml version="1.0" encoding="UTF-8" standalone="no"?>
<svg
   fill="none"
   viewBox="0 0 48 48"
   height="256"
   width="256"
   version="1.1"
   id="svg14"
   sodipodi:docname="memory_green_many.svg"
   inkscape:version="1.2.1 (9c6d41e410, 2022-07-14)"
   xmlns:inkscape="http://www.inkscape.org/namespaces/inkscape"
   xmlns:sodipodi="http://sodipodi.sourceforge.net/DTD/sodipodi-0.dtd"
   xmlns="http://www.w3.org/2000/svg"
   xmlns:svg="http://www.w3.org/2000/svg">
  <defs
     id="defs18" />
  <sodipodi:namedview
     id="namedview16"
     pagecolor="#ffffff"
     bordercolor="#666666"
     borderopacity="1.0"
     inkscape:showpageshadow="2"
     inkscape:pageopacity="0.0"
     inkscape:pagecheckerboard="0"
     inkscape:deskcolor="#d1d1d1"
     showgrid="false"
     inkscape:zoom="1.6191406"
     inkscape:cx="101.90591"
     inkscape:cy="94.185767"
     inkscape:current-layer="svg14"
     inkscape:window-width="1920"
     inkscape:window-height="730"
     inkscape:window-x="-6"
     inkscape:window-y="-6"
     inkscape:window-maximized="1" />
  <g
     id="g337">
    <g
       id="g321"
       transform="translate(1.5,-3.75)">
      <path
         fill="#edd400"
         fill-rule="evenodd"
         d="m 19.0645,10.5968 c 0.0347,0.7516 0.4679,1.3743 1.2199,1.3997 C 20.3524,11.9988 20.4243,12 20.5,12 c 0.0757,0 0.1476,-0.0012 0.2156,-0.0035 0.752,-0.0254 1.1852,-0.6481 1.2199,-1.3997 C 21.9763,9.71209 22.6911,9.00097 23.5768,9.00019 23.7168,9.00006 23.8579,9 24,9 c 6.6393,0 11.0208,0.13652 13.6912,0.26689 2.0811,0.10159 3.74,1.58271 3.94,3.65661 C 41.8238,14.9203 42,17.8743 42,22 c 0,4.2408 -0.1861,7.0699 -0.3849,8.8821 -0.1974,1.799 -1.4771,3.1299 -3.2691,3.3834 C 35.8678,34.6161 31.4527,35 24,35 16.5473,35 12.1322,34.6161 9.65399,34.2655 7.86202,34.012 6.5823,32.6811 6.38495,30.8821 6.18615,29.0699 6,26.2408 6,22 6,17.8743 6.17618,14.9203 6.36879,12.9235 6.56884,10.8496 8.22775,9.36848 10.3088,9.26689 c 1.6676,-0.08141 4.0026,-0.16523 7.138,-0.21669 0.8683,-0.01426 1.5777,0.67906 1.6177,1.5466 z"
         clip-rule="evenodd"
         id="path309"
         style="fill:#edd400;fill-opacity:1" />
      <path
         fill="#4e9a06"
         fill-rule="evenodd"
         d="m 32.9998,9.09987 c 1.1307,0.02801 2.1274,0.06 2.9998,0.09341 -0.0029,1.33532 -0.0351,2.20902 -0.069,2.76242 -0.0335,0.547 -0.3701,0.986 -0.9166,1.0264 -0.147,0.0108 -0.3174,0.0175 -0.5142,0.0175 -0.1968,0 -0.3672,-0.0067 -0.5143,-0.0175 C 33.439,12.9417 33.1025,12.5027 33.069,11.9557 33.0344,11.3895 33.0014,10.488 32.9998,9.09987 Z m -7,-0.09596 c 1.0645,0.00463 2.0635,0.01287 3,0.02401 -4e-4,1.42908 -0.034,2.35188 -0.0692,2.92778 -0.0335,0.547 -0.3701,0.986 -0.9166,1.0264 -0.147,0.0108 -0.3174,0.0175 -0.5142,0.0175 -0.1968,0 -0.3672,-0.0067 -0.5143,-0.0175 C 26.439,12.9417 26.1025,12.5027 26.069,11.9557 26.0336,11.3766 25.9999,10.4466 25.9998,9.00391 Z M 14.9997,9.09987 c -0.0015,1.38813 -0.0345,2.28963 -0.0691,2.85583 -0.0335,0.547 -0.3701,0.986 -0.9166,1.0264 -0.147,0.0108 -0.3174,0.0175 -0.5142,0.0175 -0.1968,0 -0.3672,-0.0067 -0.5143,-0.0175 C 12.439,12.9417 12.1025,12.5027 12.069,11.9557 12.0351,11.4023 12.0029,10.5286 12,9.19328 12.8724,9.15987 13.869,9.12788 14.9997,9.09987 Z"
         clip-rule="evenodd"
         id="path311"
         style="fill:#4e9a06;fill-opacity:1" />
      <path
         fill="#4e9a06"
         fill-rule="evenodd"
         d="m 6.57336,15.2761 c -2.37413,0.0952 -4.25024,1.9199 -4.37898,4.2925 -0.06057,1.1162 -0.11661,2.4381 -0.15291,3.9353 -0.02042,0.842 0.64953,1.531 1.49049,1.5786 0.82453,0.0466 1.47968,0.5567 1.52414,1.3813 0.00862,0.1598 0.01364,0.338 0.01364,0.5362 0,0.1982 -0.00502,0.3764 -0.01364,0.5362 -0.04446,0.8246 -0.69961,1.3347 -1.52414,1.3813 -0.84096,0.0476 -1.51091,0.7366 -1.49049,1.5786 0.0363,1.4972 0.09234,2.8191 0.15291,3.9353 0.12874,2.3726 2.00485,4.1973 4.37898,4.2925 C 9.88869,38.857 15.4424,39 23.9994,39 c 8.557,0 14.1107,-0.143 17.4261,-0.2761 2.3741,-0.0952 4.2502,-1.9199 4.3789,-4.2925 0.0606,-1.1161 0.1166,-2.4379 0.1529,-3.935 0.0205,-0.8422 -0.6496,-1.5313 -1.4908,-1.5789 C 43.642,28.8709 42.9869,28.3608 42.9424,27.5362 42.9338,27.3764 42.9288,27.1982 42.9288,27 c 0,-0.1982 0.005,-0.3764 0.0136,-0.5362 0.0445,-0.8246 0.6996,-1.3347 1.5241,-1.3813 0.8412,-0.0476 1.5113,-0.7367 1.4908,-1.5789 C 45.921,22.0065 45.865,20.6847 45.8044,19.5686 45.6757,17.196 43.7996,15.3713 41.4255,15.2761 38.1101,15.143 32.5564,15 23.9994,15 15.4424,15 9.8887,15.143 6.57336,15.2761 Z"
         clip-rule="evenodd"
         id="path313"
         style="fill:#4e9a06;fill-opacity:1" />
      <path
         fill="#729fcf"
         d="m 10.0739,22.6206 c 0.0302,-0.6635 0.3574,-1.2627 1.0019,-1.4231 C 11.514,21.0885 12.1358,21 13,21 c 0.8642,0 1.486,0.0885 1.9242,0.1975 0.6445,0.1604 0.9717,0.7596 1.0019,1.4231 C 15.9626,23.4222 16,24.784 16,27 c 0,2.216 -0.0374,3.5778 -0.0739,4.3794 -0.0302,0.6635 -0.3574,1.2627 -1.0019,1.4231 C 14.486,32.9115 13.8642,33 13,33 12.1358,33 11.514,32.9115 11.0758,32.8025 10.4313,32.6421 10.1041,32.0429 10.0739,31.3794 10.0374,30.5778 10,29.216 10,27 c 0,-2.216 0.0374,-3.5778 0.0739,-4.3794 z"
         id="path315" />
      <path
         fill="#729fcf"
         d="m 21.0739,22.6206 c 0.0302,-0.6635 0.3574,-1.2627 1.0019,-1.4231 C 22.514,21.0885 23.1358,21 24,21 c 0.8642,0 1.486,0.0885 1.9242,0.1975 0.6445,0.1604 0.9717,0.7596 1.0019,1.4231 C 26.9626,23.4222 27,24.784 27,27 c 0,2.216 -0.0374,3.5778 -0.0739,4.3794 -0.0302,0.6635 -0.3574,1.2627 -1.0019,1.4231 C 25.486,32.9115 24.8642,33 24,33 23.1358,33 22.514,32.9115 22.0758,32.8025 21.4313,32.6421 21.1041,32.0429 21.0739,31.3794 21.0374,30.5778 21,29.216 21,27 c 0,-2.216 0.0374,-3.5778 0.0739,-4.3794 z"
         id="path317" />
      <path
         fill="#729fcf"
         d="m 32.0739,22.6206 c 0.0302,-0.6635 0.3574,-1.2627 1.0019,-1.4231 C 33.514,21.0885 34.1358,21 35,21 c 0.8642,0 1.486,0.0885 1.9242,0.1975 0.6445,0.1604 0.9717,0.7596 1.0019,1.4231 C 37.9626,23.4222 38,24.784 38,27 c 0,2.216 -0.0374,3.5778 -0.0739,4.3794 -0.0302,0.6635 -0.3574,1.2627 -1.0019,1.4231 C 36.486,32.9115 35.8642,33 35,33 34.1358,33 33.514,32.9115 33.0758,32.8025 32.4313,32.6421 32.1041,32.0429 32.0739,31.3794 32.0374,30.5778 32,29.216 32,27 c 0,-2.216 0.0374,-3.5778 0.0739,-4.3794 z"
         id="path319" />
    </g>
    <g
       id="g307"
       transform="translate(-1.5,4.5)">
      <path
         fill="#edd400"
         fill-rule="evenodd"
         d="m 19.0645,10.5968 c 0.0347,0.7516 0.4679,1.3743 1.2199,1.3997 C 20.3524,11.9988 20.4243,12 20.5,12 c 0.0757,0 0.1476,-0.0012 0.2156,-0.0035 0.752,-0.0254 1.1852,-0.6481 1.2199,-1.3997 C 21.9763,9.71209 22.6911,9.00097 23.5768,9.00019 23.7168,9.00006 23.8579,9 24,9 c 6.6393,0 11.0208,0.13652 13.6912,0.26689 2.0811,0.10159 3.74,1.58271 3.94,3.65661 C 41.8238,14.9203 42,17.8743 42,22 c 0,4.2408 -0.1861,7.0699 -0.3849,8.8821 -0.1974,1.799 -1.4771,3.1299 -3.2691,3.3834 C 35.8678,34.6161 31.4527,35 24,35 16.5473,35 12.1322,34.6161 9.65399,34.2655 7.86202,34.012 6.5823,32.6811 6.38495,30.8821 6.18615,29.0699 6,26.2408 6,22 6,17.8743 6.17618,14.9203 6.36879,12.9235 6.56884,10.8496 8.22775,9.36848 10.3088,9.26689 c 1.6676,-0.08141 4.0026,-0.16523 7.138,-0.21669 0.8683,-0.01426 1.5777,0.67906 1.6177,1.5466 z"
         clip-rule="evenodd"
         id="path2"
         style="fill:#edd400;fill-opacity:1" />
      <path
         fill="#4e9a06"
         fill-rule="evenodd"
         d="m 32.9998,9.09987 c 1.1307,0.02801 2.1274,0.06 2.9998,0.09341 -0.0029,1.33532 -0.0351,2.20902 -0.069,2.76242 -0.0335,0.547 -0.3701,0.986 -0.9166,1.0264 -0.147,0.0108 -0.3174,0.0175 -0.5142,0.0175 -0.1968,0 -0.3672,-0.0067 -0.5143,-0.0175 C 33.439,12.9417 33.1025,12.5027 33.069,11.9557 33.0344,11.3895 33.0014,10.488 32.9998,9.09987 Z m -7,-0.09596 c 1.0645,0.00463 2.0635,0.01287 3,0.02401 -4e-4,1.42908 -0.034,2.35188 -0.0692,2.92778 -0.0335,0.547 -0.3701,0.986 -0.9166,1.0264 -0.147,0.0108 -0.3174,0.0175 -0.5142,0.0175 -0.1968,0 -0.3672,-0.0067 -0.5143,-0.0175 C 26.439,12.9417 26.1025,12.5027 26.069,11.9557 26.0336,11.3766 25.9999,10.4466 25.9998,9.00391 Z M 14.9997,9.09987 c -0.0015,1.38813 -0.0345,2.28963 -0.0691,2.85583 -0.0335,0.547 -0.3701,0.986 -0.9166,1.0264 -0.147,0.0108 -0.3174,0.0175 -0.5142,0.0175 -0.1968,0 -0.3672,-0.0067 -0.5143,-0.0175 C 12.439,12.9417 12.1025,12.5027 12.069,11.9557 12.0351,11.4023 12.0029,10.5286 12,9.19328 12.8724,9.15987 13.869,9.12788 14.9997,9.09987 Z"
         clip-rule="evenodd"
         id="path4"
         style="fill:#4e9a06;fill-opacity:1" />
      <path
         fill="#4e9a06"
         fill-rule="evenodd"
         d="m 6.57336,15.2761 c -2.37413,0.0952 -4.25024,1.9199 -4.37898,4.2925 -0.06057,1.1162 -0.11661,2.4381 -0.15291,3.9353 -0.02042,0.842 0.64953,1.531 1.49049,1.5786 0.82453,0.0466 1.47968,0.5567 1.52414,1.3813 0.00862,0.1598 0.01364,0.338 0.01364,0.5362 0,0.1982 -0.00502,0.3764 -0.01364,0.5362 -0.04446,0.8246 -0.69961,1.3347 -1.52414,1.3813 -0.84096,0.0476 -1.51091,0.7366 -1.49049,1.5786 0.0363,1.4972 0.09234,2.8191 0.15291,3.9353 0.12874,2.3726 2.00485,4.1973 4.37898,4.2925 C 9.88869,38.857 15.4424,39 23.9994,39 c 8.557,0 14.1107,-0.143 17.4261,-0.2761 2.3741,-0.0952 4.2502,-1.9199 4.3789,-4.2925 0.0606,-1.1161 0.1166,-2.4379 0.1529,-3.935 0.0205,-0.8422 -0.6496,-1.5313 -1.4908,-1.5789 C 43.642,28.8709 42.9869,28.3608 42.9424,27.5362 42.9338,27.3764 42.9288,27.1982 42.9288,27 c 0,-0.1982 0.005,-0.3764 0.0136,-0.5362 0.0445,-0.8246 0.6996,-1.3347 1.5241,-1.3813 0.8412,-0.0476 1.5113,-0.7367 1.4908,-1.5789 C 45.921,22.0065 45.865,20.6847 45.8044,19.5686 45.6757,17.196 43.7996,15.3713 41.4255,15.2761 38.1101,15.143 32.5564,15 23.9994,15 15.4424,15 9.8887,15.143 6.57336,15.2761 Z"
         clip-rule="evenodd"
         id="path6"
         style="fill:#4e9a06;fill-opacity:1" />
      <path
         fill="#2e3436"
         d="m 10.0739,22.6206 c 0.0302,-0.6635 0.3574,-1.2627 1.0019,-1.4231 C 11.514,21.0885 12.1358,21 13,21 c 0.8642,0 1.486,0.0885 1.9242,0.1975 0.6445,0.1604 0.9717,0.7596 1.0019,1.4231 C 15.9626,23.4222 16,24.784 16,27 c 0,2.216 -0.0374,3.5778 -0.0739,4.3794 -0.0302,0.6635 -0.3574,1.2627 -1.0019,1.4231 C 14.486,32.9115 13.8642,33 13,33 12.1358,33 11.514,32.9115 11.0758,32.8025 10.4313,32.6421 10.1041,32.0429 10.0739,31.3794 10.0374,30.5778 10,29.216 10,27 c 0,-2.216 0.0374,-3.5778 0.0739,-4.3794 z"
         id="path8"
         style="fill:#2e3436;fill-opacity:1" />
      <path
         fill="#2e3436"
         d="m 21.0739,22.6206 c 0.0302,-0.6635 0.3574,-1.2627 1.0019,-1.4231 C 22.514,21.0885 23.1358,21 24,21 c 0.8642,0 1.486,0.0885 1.9242,0.1975 0.6445,0.1604 0.9717,0.7596 1.0019,1.4231 C 26.9626,23.4222 27,24.784 27,27 c 0,2.216 -0.0374,3.5778 -0.0739,4.3794 -0.0302,0.6635 -0.3574,1.2627 -1.0019,1.4231 C 25.486,32.9115 24.8642,33 24,33 23.1358,33 22.514,32.9115 22.0758,32.8025 21.4313,32.6421 21.1041,32.0429 21.0739,31.3794 21.0374,30.5778 21,29.216 21,27 c 0,-2.216 0.0374,-3.5778 0.0739,-4.3794 z"
         id="path10"
         style="fill:#2e3436;fill-opacity:1" />
      <path
         fill="#2e3436"
         d="m 32.0739,22.6206 c 0.0302,-0.6635 0.3574,-1.2627 1.0019,-1.4231 C 33.514,21.0885 34.1358,21 35,21 c 0.8642,0 1.486,0.0885 1.9242,0.1975 0.6445,0.1604 0.9717,0.7596 1.0019,1.4231 C 37.9626,23.4222 38,24.784 38,27 c 0,2.216 -0.0374,3.5778 -0.0739,4.3794 -0.0302,0.6635 -0.3574,1.2627 -1.0019,1.4231 C 36.486,32.9115 35.8642,33 35,33 34.1358,33 33.514,32.9115 33.0758,32.8025 32.4313,32.6421 32.1041,32.0429 32.0739,31.3794 32.0374,30.5778 32,29.216 32,27 c 0,-2.216 0.0374,-3.5778 0.0739,-4.3794 z"
         id="path12"
         style="fill:#2e3436;fill-opacity:1" />
    </g>
  </g>
</svg>
