<?xml version="1.0" encoding="UTF-8" standalone="no"?>
<svg
   fill="none"
   viewBox="0 0 48 48"
   height="256"
   width="256"
   version="1.1"
   id="svg12"
   sodipodi:docname="arrow_left.svg"
   inkscape:version="1.1.1 (3bf5ae0d25, 2021-09-20)"
   xmlns:inkscape="http://www.inkscape.org/namespaces/inkscape"
   xmlns:sodipodi="http://sodipodi.sourceforge.net/DTD/sodipodi-0.dtd"
   xmlns="http://www.w3.org/2000/svg"
   xmlns:svg="http://www.w3.org/2000/svg">
  <defs
     id="defs16" />
  <sodipodi:namedview
     id="namedview14"
     pagecolor="#ffffff"
     bordercolor="#666666"
     borderopacity="1.0"
     inkscape:pageshadow="2"
     inkscape:pageopacity="0.0"
     inkscape:pagecheckerboard="0"
     showgrid="false"
     inkscape:zoom="1"
     inkscape:cx="600.5"
     inkscape:cy="30"
     inkscape:window-width="3440"
     inkscape:window-height="1330"
     inkscape:window-x="-12"
     inkscape:window-y="-12"
     inkscape:window-maximized="1"
     inkscape:current-layer="svg12"
     inkscape:snap-bbox="true"
     inkscape:snap-page="true"
     inkscape:bbox-paths="true"
     inkscape:bbox-nodes="true"
     inkscape:snap-bbox-edge-midpoints="true"
     inkscape:snap-bbox-midpoints="true"
     inkscape:object-paths="true"
     inkscape:snap-intersection-paths="true"
     inkscape:snap-smooth-nodes="true"
     inkscape:snap-midpoints="true"
     inkscape:snap-object-midpoints="true"
     inkscape:snap-center="true"
     inkscape:snap-text-baseline="true" />
  <path
     fill="#507ab7"
     d="m 47.999675,21.330671 2.6e-4,5.339188 c 0.0174,2.657176 -3.461651,2.753021 -14.245575,2.810441 -5.684741,0 -10.106035,-0.0497 -13.502236,-0.118436 -0.04519,1.651429 -0.110093,3.053774 -0.184611,4.24071 -0.201487,3.204312 -3.4123,4.700332 -6.212088,2.994572 -6.4353881,-3.921029 -10.4921331,-7.575434 -12.7466611,-9.92745 -1.47818002,-1.542206 -1.47843702,-3.797192 -2.59e-4,-5.339293 2.254526,-2.352149 6.311013,-6.006552 12.7471811,-9.927688 2.799527,-1.705548 6.01034,-0.2095 6.211827,2.994757 0.0823,1.309442 0.152674,2.881357 0.197853,4.760734 3.394644,-0.06868 7.811781,-0.118194 13.488994,-0.118194 10.92073,-0.07898 14.211911,-0.328344 14.245315,2.290657 z"
     id="path10"
     sodipodi:nodetypes="ccccccccccccc"
     style="stroke-width:1" />
</svg>
