<?xml version="1.0" encoding="UTF-8" standalone="no"?>
<svg
   fill="none"
   viewBox="0 0 48 48"
   height="256"
   width="256"
   version="1.1"
   id="svg3"
   sodipodi:docname="agenda - Copy.svg"
   xml:space="preserve"
   inkscape:version="1.3.2 (091e20e, 2023-11-25, custom)"
   xmlns:inkscape="http://www.inkscape.org/namespaces/inkscape"
   xmlns:sodipodi="http://sodipodi.sourceforge.net/DTD/sodipodi-0.dtd"
   xmlns="http://www.w3.org/2000/svg"
   xmlns:svg="http://www.w3.org/2000/svg"><defs
     id="defs3" /><sodipodi:namedview
     id="namedview3"
     pagecolor="#ffffff"
     bordercolor="#111111"
     borderopacity="1"
     inkscape:showpageshadow="0"
     inkscape:pageopacity="0"
     inkscape:pagecheckerboard="1"
     inkscape:deskcolor="#d1d1d1"
     inkscape:zoom="1.0206092"
     inkscape:cx="-146.97104"
     inkscape:cy="49.480251"
     inkscape:window-width="3840"
     inkscape:window-height="1494"
     inkscape:window-x="-11"
     inkscape:window-y="-11"
     inkscape:window-maximized="1"
     inkscape:current-layer="svg3" /><path
     fill="#729fcf"
     d="m 24,46 c 8.676573,0.0021 21.507443,-6.909187 21.860086,-9.791558 0.351819,-2.875635 0.49783,-5.869954 0.530306,-11.561303 0.03613,-6.331897 -0.149171,-8.619986 -0.412271,-11.873786 C 45.633416,8.1342973 43.379658,8.1909981 40.980668,7.0771511 37.501268,6.8095311 31.538,6 24,6 16.462,6 10.282333,5.1052246 7.2791621,6.8822932 3.2563467,9.2627166 2.3990805,8.6214321 2.0867915,13.292974 c -0.26303,3.2538 -0.4312549,6.260205 -0.4312549,12.592205 0,4.334382 0.258284,8.0735 0.5603944,11.039714 C 2.4905348,39.621039 16.260658,45.998126 24,46 Z"
     id="path1"
     style="opacity:1"
     sodipodi:nodetypes="sssccsscsss" /><path
     fill="#204a87"
     fill-rule="evenodd"
     d="m 43.920197,8.420058 c 1.291891,0.6718102 1.423304,2.241382 0.226807,2.987097 -4.146525,2.246344 -12.078344,6.478132 -18.063504,7.418057 v 26.992793 c -1.368601,0.211858 -2.72034,0.238229 -4.045688,-0.0257 V 18.826706 C 16.428254,18.089257 6.5475952,13.386621 3.7068074,11.800613 2.4890955,11.105693 2.5945194,9.5901089 3.3309017,9.054015 18.676196,-1.5185589 28.66123,-1.8481036 43.920197,8.420058 Z"
     clip-rule="evenodd"
     id="path2"
     style="opacity:1"
     sodipodi:nodetypes="ccccccccc" /></svg>
