<?xml version="1.0" encoding="UTF-8" standalone="no"?>
<svg
   fill="none"
   viewBox="0 0 48 48"
   height="256"
   width="256"
   version="1.1"
   id="svg2355"
   sodipodi:docname="arrow_bend_down.svg"
   inkscape:version="1.2.1 (9c6d41e410, 2022-07-14)"
   xmlns:inkscape="http://www.inkscape.org/namespaces/inkscape"
   xmlns:sodipodi="http://sodipodi.sourceforge.net/DTD/sodipodi-0.dtd"
   xmlns="http://www.w3.org/2000/svg"
   xmlns:svg="http://www.w3.org/2000/svg">
  <defs
     id="defs2359" />
  <sodipodi:namedview
     id="namedview2357"
     pagecolor="#ffffff"
     bordercolor="#666666"
     borderopacity="1.0"
     inkscape:showpageshadow="2"
     inkscape:pageopacity="0.0"
     inkscape:pagecheckerboard="0"
     inkscape:deskcolor="#d1d1d1"
     showgrid="false"
     inkscape:zoom="2.7566116"
     inkscape:cx="163.06251"
     inkscape:cy="147.10088"
     inkscape:current-layer="svg2355" />
  <path
     id="rect2530"
     style="fill:#729fcf;stroke:none;stroke-width:1.875;stroke-linecap:round;stroke-linejoin:round"
     d="m 36,1.9998779 h 2.859375 c 1.337399,0 2.611141,0.6840157 2.91394,1.9866944 C 41.904915,4.5527917 42,5.2287608 42,6 c 0,0.7712392 -0.09508,1.4472083 -0.226685,2.0134277 -0.302799,1.3026787 -1.576541,1.9866943 -2.91394,1.9866943 H 36 c -6.903493,0 -11.232056,5.096407 -11.232056,12 0,0 1.07e-4,5.31586 0.396607,11.072754 1.345898,0.0423 2.443719,0.0996 3.333618,0.161499 1.846498,0.1284 2.660444,1.880066 1.571045,3.376465 -0.822999,1.130599 -1.964483,2.606018 -3.523682,4.459717 -2.128098,2.529897 -3.737193,4.002368 -4.827392,4.847168 -1.044899,0.809699 -2.391259,0.809965 -3.436158,3.66e-4 -1.090298,-0.844799 -2.699594,-2.317437 -4.827392,-4.847534 -1.558699,-1.853399 -2.699544,-3.328486 -3.5225832,-4.458985 -1.0895589,-1.496698 -0.2757332,-3.249163 1.5710452,-3.377563 0.916799,-0.0637 2.053768,-0.122195 3.455566,-0.164795 0.5413,-5.755494 0.541626,-11.069092 0.541626,-11.069092 C 15.500244,11.230533 25.230511,1.9998779 36,1.9998779 Z"
     sodipodi:nodetypes="sscscsscccccscsccccs" />
</svg>
