<svg xmlns="http://www.w3.org/2000/svg" fill="none" viewBox="0 0 48 48" height="256" width="256"><circle cx="24" cy="24" r="22" fill="#729fcf"></circle><path fill="#204a87" fill-rule="evenodd" d="M35.2311 16.9403C35.8123 17.7329 35.6824 18.8002 35.1457 19.6237C30.813 26.2717 27.5594 30.598 25.5287 33.1244C24.1986 34.7794 21.83 34.9027 20.318 33.4122C18.4534 31.5742 15.8474 28.8431 13.1494 25.4994C12.4359 24.6152 12.2884 23.3741 12.9859 22.4772C13.5319 21.7752 14.1475 21.1663 14.7145 20.6729C15.7632 19.7605 17.2997 19.9646 18.2463 20.9825C20.9745 23.9162 22.6154 25.9565 22.6154 25.9565C22.6154 25.9565 25.3443 21.9168 29.7273 15.6937C30.4451 14.6745 31.738 14.1987 32.817 14.8229C33.6119 15.2828 34.5158 15.9648 35.2311 16.9403Z" clip-rule="evenodd"></path></svg>