<?xml version="1.0" encoding="UTF-8" standalone="no"?>
<svg
   fill="none"
   viewBox="0 0 48 48"
   height="256"
   width="256"
   version="1.1"
   id="svg6"
   sodipodi:docname="font_size.svg"
   inkscape:version="1.2.1 (9c6d41e410, 2022-07-14)"
   xmlns:inkscape="http://www.inkscape.org/namespaces/inkscape"
   xmlns:sodipodi="http://sodipodi.sourceforge.net/DTD/sodipodi-0.dtd"
   xmlns="http://www.w3.org/2000/svg"
   xmlns:svg="http://www.w3.org/2000/svg">
  <defs
     id="defs10" />
  <sodipodi:namedview
     id="namedview8"
     pagecolor="#ffffff"
     bordercolor="#666666"
     borderopacity="1.0"
     inkscape:showpageshadow="2"
     inkscape:pageopacity="0.0"
     inkscape:pagecheckerboard="0"
     inkscape:deskcolor="#d1d1d1"
     showgrid="false"
     inkscape:zoom="1.1449053"
     inkscape:cx="275.13192"
     inkscape:cy="57.646688"
     inkscape:current-layer="svg6" />
  <path
     id="rect395"
     style="fill:#729fcf;fill-opacity:1;stroke-width:1.875;stroke-linejoin:round"
     d="M 20.206787 4.9998779 C 18.384191 4.9998779 16.290602 5.2499714 14.513306 5.94104 C 13.694006 6.2596194 13.107132 6.9467699 12.777832 7.7504883 C 8.286531 18.714196 1.9998779 39.351929 1.9998779 39.351929 C 1.9998779 42.313923 5.1130732 43.000122 7.6461182 43.000122 C 8.5951362 43.000122 9.5103484 42.881521 10.417236 42.678223 C 11.105936 42.523823 11.62577 41.982688 11.80957 41.31189 C 12.45277 38.963794 13.122317 36.628438 13.862915 34.305542 L 24.816284 34.305542 L 31.000122 17.166138 C 29.314426 12.010748 28.072998 8.2833252 28.072998 8.2833252 C 27.0477 5.4336108 22.869881 4.9998779 20.206787 4.9998779 z M 20.331299 13.512085 C 20.445499 13.512085 20.545925 13.586026 20.578125 13.693726 C 21.092624 15.414424 21.626623 17.130183 22.160522 18.845581 C 22.992922 21.519778 23.825141 24.193742 24.58374 26.887939 L 15.512329 26.887939 C 16.267228 24.476142 17.123892 22.098257 17.980591 19.720459 C 18.70269 17.716361 19.424838 15.712164 20.085938 13.687866 C 20.120137 13.583066 20.219299 13.512085 20.331299 13.512085 z " />
  <path
     id="rect291"
     style="fill:#204a87;stroke-width:1.875;stroke-linejoin:round"
     d="m 32.7052,13.999878 c 2.004598,0 5.149832,0.342243 5.921631,2.592041 0,0 4.537318,14.289268 7.193115,23.443359 0.4659,1.605799 0.05544,3.459739 -1.557861,3.799439 -0.579799,0.1221 -1.175827,0.165161 -1.719727,0.165161 -2.195097,0 -3.56159,-0.784332 -4.106689,-2.97583 l -1.14624,-3.888062 H 27.92981 c -0.5346,1.758699 -1.020085,3.526469 -1.486084,5.303467 -0.176,0.671099 -0.676094,1.218341 -1.345093,1.359741 -0.6052,0.1279 -1.217034,0.200684 -1.848633,0.200684 -1.906798,0 -4.249878,-0.541485 -4.249878,-2.879883 0,0 4.638933,-15.972384 8.012329,-24.689575 0.3114,-0.804899 0.873984,-1.498138 1.674683,-1.791138 1.277199,-0.467299 2.736567,-0.639404 4.018066,-0.639404 z m 0.09375,6.719971 c -0.0842,0 -0.158704,0.05573 -0.184204,0.137329 -1.088099,3.494996 -2.395616,6.913233 -3.443115,10.422729 h 6.828735 c -0.937499,-3.491996 -2.024914,-6.941438 -3.016113,-10.418335 -0.0239,-0.0839 -0.0994,-0.141723 -0.185303,-0.141723 z"
     sodipodi:nodetypes="scccscccccscccssccccs" />
</svg>
