<?xml version="1.0" encoding="UTF-8" standalone="no"?>
<svg
   fill="none"
   viewBox="0 0 48 48"
   height="256"
   width="256"
   version="1.1"
   id="svg6"
   sodipodi:docname="function.svg"
   inkscape:version="1.3.2 (091e20e, 2023-11-25, custom)"
   xmlns:inkscape="http://www.inkscape.org/namespaces/inkscape"
   xmlns:sodipodi="http://sodipodi.sourceforge.net/DTD/sodipodi-0.dtd"
   xmlns="http://www.w3.org/2000/svg"
   xmlns:svg="http://www.w3.org/2000/svg">
  <defs
     id="defs10" />
  <sodipodi:namedview
     id="namedview8"
     pagecolor="#ffffff"
     bordercolor="#666666"
     borderopacity="1.0"
     inkscape:showpageshadow="2"
     inkscape:pageopacity="0.0"
     inkscape:pagecheckerboard="0"
     inkscape:deskcolor="#d1d1d1"
     showgrid="false"
     inkscape:zoom="2.2898106"
     inkscape:cx="65.070884"
     inkscape:cy="122.71757"
     inkscape:current-layer="svg6"
     inkscape:window-width="3840"
     inkscape:window-height="1476"
     inkscape:window-x="-12"
     inkscape:window-y="-12"
     inkscape:window-maximized="1" />
  <path
     style="font-size:50.0001px;line-height:0.9;font-family:'Arial Rounded MT Bold';-inkscape-font-specification:'Arial Rounded MT Bold, Normal';text-align:center;text-anchor:middle;fill:#729fcf;stroke-width:0.0354331;stroke-linecap:round;stroke-linejoin:round"
     d="m 4.8156307,13.196482 h 1.5869172 v -2.001957 q 0,-3.1250065 0.7812515,-4.9560648 Q 7.9894651,4.3829878 9.8693516,3.552908 11.773652,2.6984141 15.069557,2.6984141 q 5.834973,0 5.834973,2.856451 0,0.9277362 -0.610353,1.5869172 -0.610353,0.659181 -1.440433,0.659181 -0.390625,0 -1.342776,-0.1464847 -0.95215,-0.1464846 -1.611331,-0.1464846 -1.806644,0 -2.319341,1.0742209 Q 13.0676,9.6320216 13.0676,11.609565 v 1.586917 h 1.635746 q 3.808601,0 3.808601,2.294926 0,1.635746 -1.025393,2.0752 -1.000978,0.439454 -2.783208,0.439454 H 13.0676 v 17.651402 q 0,1.977543 -0.95215,3.02735 -0.927736,1.025392 -2.4169972,1.025392 -1.4160184,0 -2.3681687,-1.025392 -0.9277362,-1.049807 -0.9277362,-3.02735 V 18.006062 H 4.5714895 q -1.4892607,0 -2.2949264,-0.659181 -0.8056656,-0.683595 -0.8056656,-1.757816 0,-2.392583 3.3447332,-2.392583 z"
     id="text1"
     aria-label="f" />
  <path
     style="font-size:27.5px;line-height:0.9;font-family:'Arial Rounded MT Bold';-inkscape-font-specification:'Arial Rounded MT Bold, Normal';text-align:center;text-anchor:middle;fill:#204a87;stroke-width:0.0354331;stroke-linecap:round;stroke-linejoin:round"
     d="m 15.719513,32.187862 q 0,-2.027587 0.349121,-3.786621 0.349121,-1.772461 1.060791,-3.477783 0.71167,-1.71875 1.759033,-3.4375 0.631104,-1.047363 1.060791,-1.503906 0.429688,-0.469971 0.805664,-0.577393 0.389405,-0.120849 0.993653,-0.120849 0.657959,0 0.657959,0.362548 0,0.12085 -0.617676,1.463624 -0.617676,1.329345 -1.168213,2.792968 -0.537109,1.463623 -1.00708,3.652344 -0.456543,2.188721 -0.456543,4.632568 0,2.416993 0.456543,4.578858 0.456543,2.161865 1.033935,3.746338 0.590821,1.584472 1.168213,2.833252 0.590821,1.262207 0.590821,1.369629 0,0.362548 -0.657959,0.362548 -0.617676,0 -1.00708,-0.134277 -0.375977,-0.12085 -0.792237,-0.59082 -0.416259,-0.469971 -1.060791,-1.503907 -1.060791,-1.77246 -1.759033,-3.424072 -0.684814,-1.638183 -1.047363,-3.410644 -0.362549,-1.772461 -0.362549,-3.826905 z m 17.845459,5.935059 -2.658691,-3.907471 -2.725831,3.907471 q -0.59082,0.819092 -1.00708,1.168213 -0.402832,0.349121 -1.033935,0.349121 -0.698242,0 -1.195069,-0.429688 -0.483398,-0.443115 -0.483398,-1.00708 0,-0.577392 0.751953,-1.651611 l 3.316651,-4.753418 -2.940674,-3.961182 q -0.765381,-0.980224 -0.765381,-1.705322 0,-0.563965 0.456543,-0.980224 0.456543,-0.41626 1.195068,-0.41626 0.644531,0 1.060791,0.362549 0.429688,0.362548 0.993653,1.141357 l 2.376709,3.249512 2.30957,-3.249512 q 0.577392,-0.805664 0.993652,-1.154785 0.429688,-0.349121 1.060791,-0.349121 0.725098,0 1.195069,0.41626 0.483398,0.402832 0.483398,0.980224 0,0.41626 -0.201416,0.805664 -0.187988,0.375977 -0.59082,0.899658 l -2.940674,3.961182 3.31665,4.753418 q 0.778809,1.114502 0.778809,1.678467 0,0.577392 -0.483399,0.993652 -0.483398,0.41626 -1.195068,0.41626 -0.631103,0 -1.074219,-0.362549 -0.429687,-0.362549 -0.993652,-1.154785 z M 46.07962,32.187862 q 0,2.954102 -0.792236,5.491944 -0.778809,2.537842 -2.376709,5.169677 -0.899658,1.477051 -1.42334,1.853028 -0.523681,0.375976 -1.42334,0.375976 -0.671386,0 -0.671386,-0.362548 0,-0.12085 0.563964,-1.302491 0.563965,-1.168213 1.168213,-2.792968 0.617676,-1.624756 1.060791,-3.813477 0.456543,-2.202148 0.456543,-4.619141 0,-2.43042 -0.456543,-4.632568 -0.456543,-2.202148 -1.060791,-3.813477 -0.604248,-1.611328 -1.168213,-2.792968 -0.563964,-1.195069 -0.563964,-1.302491 0,-0.362548 0.671386,-0.362548 0.939942,0 1.450196,0.362548 0.510254,0.349122 1.396484,1.8396 0.792236,1.315918 1.383057,2.591553 0.59082,1.275635 0.980224,2.551269 0.402832,1.275635 0.604248,2.658692 0.201416,1.383056 0.201416,2.90039 z"
     id="text2"
     aria-label="(x)" />
</svg>
