<svg xmlns="http://www.w3.org/2000/svg" fill="none" viewBox="0 0 48 48" height="256" width="256"><path fill="#729fcf" d="M31.4678 24C31.4678 20.8571 42.5416 15.2248 39.5144 8.11176C37.4602 3.2852 31.7104 2 24.0164 2C16.2311 2 10.4031 3.0844 8.4194 8.0945C5.64471 15.1022 16.5345 20.8571 16.5345 24C16.5345 27.1429 5.64471 32.8978 8.4194 39.9055C10.4031 44.9156 16.2311 46 24.0164 46C31.7104 46 37.4602 44.7148 39.5144 39.8882C42.5416 32.7752 31.4678 27.1429 31.4678 24Z"></path><path fill="#204a87" d="M24.1041 21.4337C24.0716 20.8738 24.5316 20.4552 25.0506 20.2637C26.3289 19.7919 27.9233 18.8759 29.4952 17.8527C30.9292 16.9192 32.3313 15.5848 33.4006 14.1277C33.7599 13.638 33.6645 12.9461 33.1389 12.6495C30.9132 11.3935 27.5722 11 23.5393 11C19.4457 11 16.0531 11.3341 13.8219 12.5986C13.321 12.8824 13.2283 13.5421 13.5694 14.0105C14.6654 15.5152 16.1139 16.8964 17.5829 17.8527C19.1873 18.897 20.8152 19.8297 22.1065 20.2924C22.5841 20.4635 23.0088 20.84 22.998 21.3543C22.9664 22.8606 22.8354 26.3819 22.2922 29.6956C21.9687 31.6698 20.5258 33.2032 18.8019 34.1727C18.5758 34.2999 18.3483 34.4308 18.1205 34.5646C16.278 35.6468 14.4876 37.351 13.2831 39.1825C12.8187 39.8886 12.9193 40.8446 13.632 41.2886C13.6935 41.327 13.7568 41.3646 13.8218 41.4014C16.053 42.6659 19.4456 43 23.5392 43C27.5722 43 30.9131 42.6065 33.1388 41.3505C33.221 41.3041 33.3004 41.2565 33.3772 41.2078C34.0816 40.7604 34.1788 39.8107 33.7178 39.1088C32.5351 37.308 30.7805 35.6351 28.9577 34.5646C28.7125 34.4206 28.4677 34.2798 28.2245 34.1436C26.4984 33.1763 25.0876 31.6385 24.8251 29.6542C24.4388 26.734 24.1985 23.0559 24.1041 21.4337Z"></path></svg>