<svg xmlns="http://www.w3.org/2000/svg" fill="none" viewBox="0 0 48 48" height="256" width="256"><path fill="#729fcf" d="M45.7268 37.6137C45.5908 40.493 43.3075 42.695 40.4264 42.7854C37.0025 42.8929 31.6678 43 24 43C16.3322 43 10.9975 42.8929 7.57359 42.7854C4.69249 42.695 2.40923 40.493 2.27316 37.6137C2.13191 34.6248 2 30.1792 2 24C2 17.8208 2.13191 13.3752 2.27316 10.3863C2.40923 7.50699 4.69249 5.30501 7.57359 5.21455C10.9975 5.10705 16.3322 5 24 5C31.6678 5 37.0025 5.10705 40.4264 5.21455C43.3075 5.30501 45.5908 7.50699 45.7268 10.3863C45.8681 13.3752 46 17.8208 46 24C46 30.1792 45.8681 34.6248 45.7268 37.6137Z"></path><path fill="#204a87" fill-rule="evenodd" d="M45.9369 17L2.0625 17C2.11424 14.2839 2.19201 12.0966 2.27284 10.3863C2.40891 7.50699 4.69217 5.30501 7.57326 5.21455C10.9972 5.10705 16.3319 5 23.9997 5C31.6675 5 37.0021 5.10705 40.4261 5.21455C43.3072 5.30501 45.5904 7.50699 45.7265 10.3863C45.8073 12.0966 45.8851 14.2839 45.9369 17Z" clip-rule="evenodd"></path><path fill="#729fcf" d="M13.6129 9.02764C14.3803 9.0579 14.9608 9.60747 14.9891 10.375C14.9959 10.5602 15 10.7681 15 11C15 11.2319 14.9959 11.4398 14.9891 11.625C14.9608 12.3925 14.3803 12.9421 13.6129 12.9724C13.2043 12.9885 12.6757 13 12 13C11.3243 13 10.7957 12.9885 10.3871 12.9724C9.61965 12.9421 9.03918 12.3925 9.01094 11.625C9.00413 11.4398 9 11.2319 9 11C9 10.7681 9.00413 10.5602 9.01094 10.375C9.03918 9.60747 9.61965 9.0579 10.3871 9.02764C10.7957 9.01153 11.3243 9 12 9C12.6757 9 13.2043 9.01153 13.6129 9.02764Z"></path><path fill="#729fcf" d="M22.3871 12.9724C21.6197 12.9421 21.0392 12.3925 21.0109 11.625C21.0041 11.4398 21 11.2319 21 11C21 10.7681 21.0041 10.5602 21.0109 10.375C21.0392 9.60747 21.6197 9.0579 22.3871 9.02764C22.7957 9.01153 23.3243 9 24 9C24.6757 9 25.2043 9.01153 25.6129 9.02764C26.3803 9.0579 26.9608 9.60747 26.9891 10.375C26.9959 10.5602 27 10.7681 27 11C27 11.2319 26.9959 11.4398 26.9891 11.625C26.9608 12.3925 26.3803 12.9421 25.6129 12.9724C25.2043 12.9885 24.6757 13 24 13C23.3243 13 22.7957 12.9885 22.3871 12.9724Z"></path><path fill="#729fcf" d="M34.3871 12.9724C33.6197 12.9421 33.0392 12.3925 33.0109 11.625C33.0041 11.4398 33 11.2319 33 11C33 10.7681 33.0041 10.5602 33.0109 10.375C33.0392 9.60747 33.6197 9.0579 34.3871 9.02764C34.7957 9.01153 35.3243 9 36 9C36.6757 9 37.2043 9.01153 37.6129 9.02764C38.3803 9.0579 38.9608 9.60747 38.9891 10.375C38.9959 10.5602 39 10.7681 39 11C39 11.2319 38.9959 11.4398 38.9891 11.625C38.9608 12.3925 38.3803 12.9421 37.6129 12.9724C37.2043 12.9885 36.6757 13 36 13C35.3243 13 34.7957 12.9885 34.3871 12.9724Z"></path></svg>