<?xml version="1.0" encoding="UTF-8" standalone="no"?>
<svg
   fill="none"
   viewBox="0 0 48 48"
   height="256"
   width="256"
   version="1.1"
   id="svg1378"
   sodipodi:docname="layout.svg"
   inkscape:version="1.2.1 (9c6d41e410, 2022-07-14)"
   xmlns:inkscape="http://www.inkscape.org/namespaces/inkscape"
   xmlns:sodipodi="http://sodipodi.sourceforge.net/DTD/sodipodi-0.dtd"
   xmlns="http://www.w3.org/2000/svg"
   xmlns:svg="http://www.w3.org/2000/svg">
  <defs
     id="defs1382" />
  <sodipodi:namedview
     id="namedview1380"
     pagecolor="#ffffff"
     bordercolor="#666666"
     borderopacity="1.0"
     inkscape:showpageshadow="2"
     inkscape:pageopacity="0.0"
     inkscape:pagecheckerboard="0"
     inkscape:deskcolor="#d1d1d1"
     showgrid="false"
     inkscape:zoom="1.6191406"
     inkscape:cx="198.87093"
     inkscape:cy="151.93245"
     inkscape:current-layer="svg1378" />
  <path
     id="rect1553"
     style="fill:#729fcf;fill-opacity:1;stroke:none;stroke-width:1.875;stroke-linejoin:round"
     d="m 12,1.9998779 c 2.552197,0 4.52357,0.1186652 5.998169,0.2691651 2.252298,0.2298697 3.776628,2.0391659 3.861328,4.3015136 0.0755,2.017358 0.140625,5.0311694 0.140625,9.4295654 0,4.398396 -0.06513,7.411901 -0.140625,9.429199 -0.0847,2.262398 -1.60903,4.07198 -3.861328,4.30188 C 16.52357,29.881701 14.552197,30 12,30 9.4477626,30 7.4764696,29.881701 6.0018311,29.731201 c -2.2522378,-0.2299 -3.7766183,-2.039482 -3.8613282,-4.30188 -0.07553,-2.017298 -0.140625,-5.030803 -0.140625,-9.429199 0,-4.398396 0.065095,-7.4122074 0.140625,-9.4295654 C 2.2252128,4.3082089 3.7495933,2.4989127 6.0018311,2.269043 7.4764696,2.1185431 9.4477626,1.9998779 12,1.9998779 Z m 24,0 c 2.545497,0 4.677759,0.058877 6.248657,0.1230469 1.875798,0.07663 3.441187,1.1863373 3.626587,3.0545654 0.0746,0.7522193 0.124878,1.6815789 0.124878,2.8223877 0,1.1408089 -0.05028,2.0704551 -0.124878,2.8227541 -0.1854,1.868198 -1.750789,2.977865 -3.626587,3.054565 -1.570898,0.0641 -3.70316,0.122681 -6.248657,0.122681 -2.545497,0 -4.677759,-0.05858 -6.248657,-0.122681 -1.875798,-0.0767 -3.441187,-1.186367 -3.626587,-3.054565 -0.0746,-0.752299 -0.124878,-1.6819452 -0.124878,-2.8227541 0,-1.1408088 0.05028,-2.0701684 0.124878,-2.8223877 0.1854,-1.8682281 1.750789,-2.9779355 3.626587,-3.0545654 C 31.322241,2.0587549 33.454503,1.9998779 36,1.9998779 Z M 36,18 c 2.552197,0 4.52357,0.118299 5.998169,0.268799 2.252298,0.2299 3.776628,2.039482 3.861328,4.30188 0.0755,2.017298 0.140625,5.030803 0.140625,9.429199 0,4.398396 -0.06512,7.412267 -0.140625,9.429565 -0.0847,2.262398 -1.60903,4.071614 -3.861328,4.301514 -1.474599,0.1505 -3.445972,0.269165 -5.998169,0.269165 -2.552197,0 -4.52357,-0.118665 -5.998169,-0.269165 -2.252298,-0.2299 -3.776628,-2.039116 -3.861328,-4.301514 -0.0755,-2.017298 -0.140625,-5.031169 -0.140625,-9.429565 0,-4.398396 0.06513,-7.411901 0.140625,-9.429199 0.0847,-2.262398 1.60903,-4.07198 3.861328,-4.30188 C 31.47643,18.118299 33.447803,18 36,18 Z M 12,34.000122 c 2.545497,0 4.677759,0.05858 6.248657,0.122681 1.875798,0.0767 3.441187,1.186367 3.626587,3.054565 0.0746,0.752299 0.124878,1.681955 0.124878,2.822754 0,1.140799 -0.05028,2.070455 -0.124878,2.822754 -0.1854,1.868198 -1.750789,2.977499 -3.626587,3.054199 -1.570898,0.0641 -3.70316,0.123047 -6.248657,0.123047 -2.5454775,0 -4.6778288,-0.05895 -6.2486572,-0.123047 -1.8758482,-0.0767 -3.4412371,-1.186001 -3.6265869,-3.054199 -0.07463,-0.752299 -0.124878,-1.681955 -0.124878,-2.822754 0,-1.140799 0.050248,-2.070455 0.124878,-2.822754 C 2.3101057,35.30917 3.8754946,34.199503 5.7513428,34.122803 7.3221712,34.058703 9.4545225,34.000122 12,34.000122 Z"
     sodipodi:nodetypes="sscsccscssccssscsccsccscsssccsccsccsccssccsccscssccs" />
</svg>
