<svg xmlns="http://www.w3.org/2000/svg" fill="none" viewBox="0 0 48 48" height="256" width="256"><path fill="#729fcf" d="M33.8721 14.7225H29.1568C28.9095 15.5397 28.7147 16.2742 28.5345 16.9423C28.4045 17.4246 28.0362 17.8221 27.5359 17.9123C27.2196 17.9694 26.8977 18 26.5776 18C25.5926 18 24.3734 17.7921 24.0527 16.9065C23.9412 16.5984 24.0253 16.2677 24.1323 15.9581C24.7397 14.1994 26.9328 7.85791 28.1703 4.38737C28.3355 3.92422 28.6649 3.52447 29.1378 3.3645C29.9136 3.10207 30.7935 3 31.5796 3C32.7996 3 34.7076 3.21151 35.1747 4.45933L38.9128 16.1348C39.1307 16.8154 38.9509 17.5913 38.2538 17.7949C37.8564 17.9109 37.3798 17.9761 36.842 17.9761C35.526 17.9761 34.6799 17.5834 34.3411 16.3732L33.8721 14.7225ZM31.629 6.75598C31.5837 6.75598 31.5433 6.78357 31.5277 6.82535C31.0452 8.12059 30.4322 9.70666 29.8862 11.4928H33.1166C32.6984 9.92925 32.1986 8.38408 31.7326 6.832C31.7191 6.78694 31.6769 6.75598 31.629 6.75598Z"></path><path fill="#204a87" d="M20.1255 19.9474C20.2747 19.4069 20.8177 19.1749 21.3777 19.1481C22.6195 19.0889 25.4132 19 31 19C36.5868 19 39.3805 19.0889 40.6223 19.1481C41.1823 19.1749 41.7253 19.4069 41.8745 19.9474C41.9469 20.2097 42 20.5542 42 21C42 21.4458 41.9469 21.7903 41.8745 22.0526C41.7253 22.5931 41.1823 22.8251 40.6223 22.8519C39.3805 22.9111 36.5868 23 31 23C25.4132 23 22.6195 22.9111 21.3777 22.8519C20.8177 22.8251 20.2747 22.5931 20.1255 22.0526C20.0531 21.7902 20 21.4458 20 21C20 20.5542 20.0531 20.2097 20.1255 19.9474Z"></path><path fill="#729fcf" d="M33.8721 36.7225H29.1568C28.9095 37.5397 28.7147 38.2742 28.5345 38.9423C28.4045 39.4246 28.0362 39.8221 27.5359 39.9123C27.2196 39.9694 26.8977 40 26.5776 40C25.5926 40 24.3734 39.7921 24.0527 38.9065C23.9412 38.5984 24.0253 38.2677 24.1323 37.9581C24.7397 36.1994 26.9328 29.8579 28.1703 26.3874C28.3355 25.9242 28.6649 25.5245 29.1378 25.3645C29.9136 25.1021 30.7935 25 31.5796 25C32.7996 25 34.7076 25.2115 35.1747 26.4593L38.9128 38.1348C39.1307 38.8154 38.9509 39.5913 38.2538 39.7949C37.8564 39.9109 37.3798 39.9761 36.842 39.9761C35.526 39.9761 34.6799 39.5834 34.3411 38.3732L33.8721 36.7225ZM31.629 28.756C31.5837 28.756 31.5433 28.7836 31.5277 28.8253C31.0452 30.1206 30.4322 31.7067 29.8862 33.4928H33.1166C32.6984 31.9293 32.1986 30.3841 31.7326 28.832C31.7191 28.7869 31.6769 28.756 31.629 28.756Z"></path><path fill="#204a87" d="M20.1255 41.9474C20.2747 41.4069 20.8177 41.1749 21.3777 41.1481C22.6195 41.0889 25.4132 41 31 41C36.5868 41 39.3805 41.0889 40.6223 41.1481C41.1823 41.1749 41.7253 41.4069 41.8745 41.9474C41.9469 42.2097 42 42.5542 42 43C42 43.4458 41.9469 43.7903 41.8745 44.0526C41.7253 44.5931 41.1823 44.8251 40.6223 44.8519C39.3805 44.9111 36.5868 45 31 45C25.4132 45 22.6195 44.9111 21.3777 44.8519C20.8177 44.8251 20.2747 44.5931 20.1255 44.0526C20.0531 43.7902 20 43.4458 20 43C20 42.5542 20.0531 42.2097 20.1255 41.9474Z"></path><path fill="#204a87" d="M14.6072 26.7287C15.8109 26.6511 16.3729 25.4145 15.7322 24.3363C14.2592 21.8577 12.8864 20.2953 12.0028 19.427C11.4235 18.8577 10.5764 18.8577 9.9971 19.4269C9.11353 20.2952 7.74071 21.8575 6.26773 24.3363C5.62701 25.4145 6.189 26.6511 7.39269 26.7287C7.83859 26.7574 8.36542 26.7824 8.98583 26.7998C8.96001 28.1078 8.94134 29.8106 8.94134 32C8.94134 34.1894 8.96001 35.8922 8.98583 37.2002C8.36546 37.2176 7.83866 37.2426 7.39278 37.2713C6.18906 37.3489 5.62707 38.5855 6.26785 39.6638C7.74081 42.1423 9.11361 43.7047 9.99716 44.573C10.5765 45.1423 11.4236 45.1424 12.0029 44.5731C12.8865 43.7048 14.2593 42.1425 15.7323 39.6637C16.373 38.5855 15.811 37.3489 14.6073 37.2713C14.1154 37.2396 13.5249 37.2125 12.8189 37.1951C12.8447 35.8877 12.8633 34.1865 12.8633 32C12.8633 29.8135 12.8447 28.1123 12.8189 26.8049C13.5249 26.7875 14.1153 26.7604 14.6072 26.7287Z"></path></svg>