<svg xmlns="http://www.w3.org/2000/svg" fill="none" viewBox="0 0 48 48" height="256" width="256"><path fill="#729fcf" fill-rule="evenodd" d="M42.2512 2.21749C35.0523 1.76248 28.429 2.12878 25.5002 2.34709C24.4577 2.4248 23.4738 2.79602 22.6487 3.43802C19.5614 5.84024 11.2927 12.6869 2.9608 23.1272C1.59228 24.842 1.44468 27.1365 2.78529 28.8732C4.17509 30.6737 6.47897 33.4146 10.2458 37.392C14.6276 42.0186 17.6317 44.3762 19.4781 45.5684C20.8872 46.4782 22.6001 46.2136 23.944 45.21C35.0004 36.9533 42.1507 28.2726 44.585 25.1071C45.2085 24.2962 45.5693 23.331 45.6471 22.3111C45.8671 19.4262 46.239 12.8722 45.7816 5.74278C45.6597 3.84289 44.1512 2.33758 42.2512 2.21749ZM38.9992 12C40.6561 12 41.9992 10.6569 41.9992 9C41.9992 7.34315 40.6561 6 38.9992 6C37.3424 6 35.9992 7.34315 35.9992 9C35.9992 10.6569 37.3424 12 38.9992 12Z" clip-rule="evenodd"></path></svg>