<?xml version="1.0" encoding="UTF-8" standalone="no"?>
<svg
   fill="none"
   viewBox="0 0 48 48"
   height="256"
   width="256"
   version="1.1"
   id="svg1"
   sodipodi:docname="thumbs_up.svg"
   inkscape:version="1.3.2 (091e20e, 2023-11-25, custom)"
   xml:space="preserve"
   xmlns:inkscape="http://www.inkscape.org/namespaces/inkscape"
   xmlns:sodipodi="http://sodipodi.sourceforge.net/DTD/sodipodi-0.dtd"
   xmlns="http://www.w3.org/2000/svg"
   xmlns:svg="http://www.w3.org/2000/svg"><defs
     id="defs1" /><sodipodi:namedview
     id="namedview1"
     pagecolor="#ffffff"
     bordercolor="#111111"
     borderopacity="1"
     inkscape:showpageshadow="0"
     inkscape:pageopacity="0"
     inkscape:pagecheckerboard="1"
     inkscape:deskcolor="#d1d1d1"
     inkscape:zoom="3.4139999"
     inkscape:cx="179.55478"
     inkscape:cy="133.27475"
     inkscape:window-width="3840"
     inkscape:window-height="1476"
     inkscape:window-x="-12"
     inkscape:window-y="-12"
     inkscape:window-maximized="1"
     inkscape:current-layer="svg1" /><g
     id="g3"
     transform="matrix(0.55,0,0,0.55,-37.764949,7.177178)"
     style="stroke-width:1.81818"><path
       style="fill:#729fcf;fill-opacity:1;stroke-width:1.81818"
       d="m 94.88519,15.652951 0.376255,-0.827537 c 0.334979,-0.736755 1.449175,-3.587103 2.778812,-7.1087869 0.253082,-0.6703125 0.573078,-1.471875 0.711103,-1.78125 0.44656,-1.0009366 1.002455,-2.4055188 1.52125,-3.84375 0.27899,-0.7734375 0.66444,-1.76021458 0.85654,-2.19283797 0.19211,-0.4326234 0.34929,-0.84871846 0.34929,-0.92465573 0,-0.075937 0.38029,-0.9146698 0.8451,-1.8638503 0.68149,-1.3916707 1.09239,-1.956808 2.12245,-2.9190943 0.70255,-0.6563214 1.60897,-1.3503223 2.01428,-1.5422242 0.4053,-0.1919019 0.88343,-0.4239331 1.0625,-0.515625 0.17907,-0.091692 0.50678,-0.1667125 0.72824,-0.1667125 0.22147,0 0.73517,-0.09962 1.14156,-0.2213784 1.32766,-0.3977752 6.83656,0.571709 8.86298,1.5597512 2.43247,1.1860281 4.22239,3.8699509 4.79696,7.19287722 0.10698,0.61874998 0.27501,2.85468748 0.37338,4.96874998 0.0984,2.1140625 0.23133,4.5820309 0.29546,5.4843749 0.13509,1.900646 -0.18382,1.746123 2.97584,1.441864 4.73116,-0.455587 9.68239,-0.801599 14.8125,-1.035157 2.55033,-0.116109 2.95232,-0.08978 4.3125,0.282436 2.2851,0.625327 4.14815,1.827414 5.6061,3.617195 2.26043,2.774918 2.62008,4.591193 2.16394,10.928037 -0.58106,8.072134 -1.86449,16.184411 -3.76736,23.8125 -0.5145,2.0625 -1.05605,3.994995 -1.20344,4.294432 -0.1474,0.299438 -0.26799,0.647404 -0.26799,0.773259 0,0.205152 -0.32099,0.807529 -1.36403,2.5598 -0.18303,0.30748 -0.58342,0.826457 -0.88976,1.153282 -0.30634,0.326825 -0.55737,0.649807 -0.55785,0.717737 -0.001,0.205629 -2.39119,2.016869 -3.58148,2.71448 -2.50435,1.467757 -4.95443,2.021259 -8.88813,2.007933 -2.84097,-0.0096 -9.43505,-0.334057 -12.75,-0.627308 -1.13438,-0.100351 -3.28594,-0.271505 -4.78125,-0.380343 -3.28979,-0.239451 -7.32871,-0.641027 -11.29743,-1.123266 -0.79953,-0.09715 -2.14953,-0.260295 -3,-0.362544 -0.85048,-0.102249 -2.516636,-0.322907 -3.702573,-0.490351 l -2.488316,-0.404265 z"
       id="path2"
       sodipodi:nodetypes="csssssssssssssscssssssssssscssssssscc" /><path
       style="fill:#204a87;fill-opacity:1;stroke-width:1.81818"
       d="m 80.009713,65.093707 c -1.949741,-0.216564 -3.991022,-0.476927 -5.564989,-1.73048 -2.461852,-1.812977 -3.049425,-5.080884 -2.920531,-7.956689 -0.09475,-11.417918 -0.164102,-22.839432 0.03027,-34.256371 -0.02031,-2.289317 0.375524,-4.689321 1.973833,-6.438345 2.273385,-2.521256 5.964651,-2.487398 9.102832,-2.609371 3.094442,-0.0608 6.337583,-0.06405 9.231207,1.154846 1.771537,0.901872 3.242609,2.5245 3.733805,4.469417 0.667759,4.720026 0.392114,9.516921 0.50315,14.271154 -0.0313,8.501425 0.08186,17.009666 -0.244432,25.50564 0.03205,2.094605 -0.958825,4.003459 -2.457379,5.413636 -1.570874,1.498766 -3.890824,1.946814 -5.994239,2.143473 -2.460147,0.119503 -4.934428,0.210397 -7.393527,0.03309 z"
       id="path1"
       sodipodi:nodetypes="ccccccccccccc" /><rect
       style="fill:#729fcf;fill-opacity:1;stroke:none;stroke-width:0.128847;stroke-linecap:round;stroke-linejoin:round"
       id="rect3"
       width="7.2038832"
       height="10.854369"
       x="80.094559"
       y="45.69405"
       ry="3.1456311" /></g></svg>
