<?xml version="1.0" encoding="UTF-8" standalone="no"?>
<svg
   fill="none"
   viewBox="0 0 48 48"
   height="256"
   width="256"
   version="1.1"
   id="svg6"
   sodipodi:docname="clang.svg"
   inkscape:version="1.2.1 (9c6d41e410, 2022-07-14)"
   xmlns:inkscape="http://www.inkscape.org/namespaces/inkscape"
   xmlns:sodipodi="http://sodipodi.sourceforge.net/DTD/sodipodi-0.dtd"
   xmlns="http://www.w3.org/2000/svg"
   xmlns:svg="http://www.w3.org/2000/svg">
  <defs
     id="defs10" />
  <sodipodi:namedview
     id="namedview8"
     pagecolor="#ffffff"
     bordercolor="#666666"
     borderopacity="1.0"
     inkscape:showpageshadow="2"
     inkscape:pageopacity="0.0"
     inkscape:pagecheckerboard="true"
     inkscape:deskcolor="#d1d1d1"
     showgrid="true"
     inkscape:zoom="0.57245265"
     inkscape:cx="64.634167"
     inkscape:cy="91.710642"
     inkscape:current-layer="svg6"
     showguides="false"
     inkscape:window-width="958"
     inkscape:window-height="722"
     inkscape:window-x="-5"
     inkscape:window-y="0"
     inkscape:window-maximized="0">
    <inkscape:grid
       type="xygrid"
       id="grid239"
       units="px"
       spacingx="1.5"
       spacingy="1.5" />
  </sodipodi:namedview>
  <path
     style="color:#000000;fill:#888a85;fill-opacity:1;stroke-width:1.07713;stroke-linejoin:round;-inkscape-stroke:none;paint-order:markers fill stroke"
     d="m 24.109319,20.345849 c -2.053431,-0.36719 -3.747431,0.103329 -4.988044,1.049782 -2.434521,1.857268 -3.137551,5.428077 -2.004895,7.996439 -0.850712,2.506158 -0.71947,3.166517 0.0831,5.610258 2.249012,5.006795 8.119218,5.814745 10.809382,3.116506 l 4.434753,-5.556063 c 0.426624,-0.534487 1.152238,-0.768448 1.943885,-0.858339 0.791649,-0.08989 1.608535,-0.03072 2.187924,-0.0526 1.203334,-0.04386 2.539747,0.345106 3.72578,0.740528 0.593018,0.197712 1.148921,0.397216 1.643047,0.538566 0.494127,0.141351 0.920655,0.236311 1.314858,0.180925 0.657042,-0.09232 1.153406,-0.649502 1.563103,-1.365348 0.409698,-0.715847 0.732967,-1.632944 0.934075,-2.596056 0.201108,-0.963112 0.280775,-1.968369 0.17882,-2.865338 -0.101476,-0.892756 -0.381873,-1.693141 -0.965631,-2.196338 -0.312866,-0.294147 -0.733423,-0.405824 -1.178112,-0.403924 -0.447776,0.0019 -0.939294,0.106356 -1.476849,0.258763 -1.07511,0.30482 -2.340412,0.814887 -3.687913,1.224396 -1.347501,0.409509 -2.771177,0.714851 -4.133913,0.629028 -1.362735,-0.08583 -2.66211,-0.547613 -3.835178,-1.708263 -0.006,-0.0066 -0.01238,-0.01287 -0.01894,-0.01894 -2.768037,-2.344996 -4.475839,-3.356805 -6.52927,-3.723994 l 1.6e-5,5e-6"
     id="path9094-8"
     sodipodi:nodetypes="csccccscssssssccssscccc" />
  <path
     sodipodi:nodetypes="sccccsccs"
     id="path9071-2"
     d="m 35.820756,30.049773 c -1.948444,-0.03748 -3.892361,-0.382771 -4.485415,-0.487065 -0.249199,-0.04149 -0.4647,-0.263818 -0.455752,-0.520537 -0.02912,-0.72452 0.121317,-1.504802 0.326253,-2.268123 0.265901,-0.9354 1.39985,-0.491436 1.690828,-0.21015 0.368463,0.371734 0.843509,0.5873 2.222034,0.617699 2.510836,0.05536 5.880448,-1.160666 6.681716,-1.397292 3.782982,-1.57406 1.929482,3.368758 0.534967,3.740838 -1.394516,0.37208 -3.548065,0.581695 -6.514631,0.52463 z"
     style="fill:#204a87;fill-opacity:1;stroke-width:0.40117" />
  <path
     style="color:#000000;fill:#babdb6;fill-opacity:1;stroke-width:1.07713;stroke-linejoin:round;-inkscape-stroke:none;paint-order:markers fill stroke"
     d="m 36.360851,8.251577 c -0.558649,0.038906 -0.962162,0.4589722 -1.42215,0.9488009 -0.459988,0.4898288 -0.968544,1.0969331 -1.590453,1.6640841 -1.243817,1.134302 -2.890298,2.113489 -5.509779,1.666188 l 0.0547,0.01262 c -2.781735,-0.974467 -5.765976,-0.506047 -8.654919,0.820471 -2.888943,1.326518 -5.700561,3.511596 -8.19209,6.025204 -2.4915295,2.513609 -4.6615283,5.357145 -6.2587236,8.015374 -1.5971943,2.658226 -2.6262502,5.116685 -2.8064317,6.940344 a 0.34118591,0.34118591 0 0 0 0.4775559,0.34502 c 2.116655,-0.942756 4.4033072,-2.689752 6.8204301,-3.961405 2.4171233,-1.271651 4.9167053,-2.060287 7.4789113,-1.192839 a 0.34118591,0.34118591 0 0 0 0.406028,-0.151471 c 0.880709,-1.530331 1.833401,-2.271776 2.823262,-2.575018 0.989863,-0.30324 2.053439,-0.166814 3.149349,0.180925 1.095908,0.347739 2.210539,0.904008 3.277676,1.396905 1.067138,0.492896 2.083252,0.929013 3.039952,0.995084 a 0.34118591,0.34118591 0 0 0 0.345018,-0.458622 c -0.09939,-0.270875 -0.0923,-1.151447 0.08205,-2.040659 0.174023,-0.887561 0.488584,-1.827613 0.824679,-2.366744 0.317646,-0.488288 1.057908,-1.053863 2.011207,-1.640942 0.954386,-0.587751 2.116662,-1.212189 3.277678,-1.910226 2.322029,-1.396076 4.678505,-3.085594 5.326751,-5.518196 a 0.34118591,0.34118591 0 0 0 0.0022,-0.0042 C 41.626416,14.231446 41.104474,12.709709 40.215009,11.342026 39.325545,9.9743432 38.044881,8.7569423 36.636493,8.2747256 a 0.34118591,0.34118591 0 0 0 -0.0568,-0.014724 c -0.07383,-0.011676 -0.147832,-0.01326 -0.218793,-0.0084 l -5.2e-5,-2.26e-5"
     id="path9352-8" />
  <path
     style="color:#000000;fill:#204a87;fill-opacity:1;stroke-width:1.07713;stroke-linejoin:round;-inkscape-stroke:none;paint-order:markers fill stroke"
     d="m 27.598639,12.484367 c -0.236162,0.03575 -0.363446,0.296842 -0.246142,0.504905 0.685051,1.211639 0.696132,3.977223 -1.729301,5.907393 -5.191036,1.169863 -11.821855,3.240338 -15.7278025,7.85759 -0.2466416,0.282998 0.077995,0.698729 0.4123385,0.528047 5.389057,-2.77272 8.894362,-0.986399 12.490097,-1.436876 0.01202,-0.0015 0.02397,-0.0036 0.03576,-0.0064 0.876962,-0.204122 1.497683,-0.639177 1.920744,-1.180217 0.423062,-0.541041 0.655312,-1.173891 0.828886,-1.788207 0.173575,-0.614315 0.290538,-1.215939 0.454415,-1.701952 0.163877,-0.486011 0.365652,-0.833671 0.666896,-1.024537 1.954378,-1.238281 2.970151,-3.177577 3.138828,-4.805016 0.08434,-0.81372 -0.03895,-1.56178 -0.416547,-2.112188 -0.377598,-0.550407 -1.044869,-0.857812 -1.828177,-0.742632 l 4e-6,4.5e-5"
     id="path9090-4"
     sodipodi:nodetypes="cccccccsssssscc" />
  <ellipse
     id="path4665-0-8-3-8-0"
     style="fill:#729fcf;fill-opacity:1;fill-rule:nonzero;stroke:none;stroke-width:0.767593;stroke-linecap:round;stroke-linejoin:round;stroke-miterlimit:4;stroke-dasharray:none;stroke-dashoffset:0;stroke-opacity:1"
     ry="2.2995868"
     rx="2.6210649"
     cy="22.723465"
     cx="22.027142" />
  <ellipse
     ry="1.247282"
     rx="1.2085658"
     cy="22.60907"
     cx="21.968351"
     id="ellipse16141"
     style="fill:#2e3436;fill-opacity:1;stroke:none;stroke-width:1.5094;stroke-linecap:round;stroke-linejoin:round;stroke-miterlimit:4;stroke-dasharray:none;stroke-dashoffset:0;stroke-opacity:1" />
</svg>
