<?xml version="1.0" encoding="UTF-8" standalone="no"?>
<svg
   fill="none"
   viewBox="0 0 48 48"
   height="256"
   width="256"
   version="1.1"
   id="svg6"
   sodipodi:docname="esptool.svg"
   inkscape:version="1.2.1 (9c6d41e410, 2022-07-14)"
   xmlns:inkscape="http://www.inkscape.org/namespaces/inkscape"
   xmlns:sodipodi="http://sodipodi.sourceforge.net/DTD/sodipodi-0.dtd"
   xmlns="http://www.w3.org/2000/svg"
   xmlns:svg="http://www.w3.org/2000/svg">
  <defs
     id="defs10" />
  <sodipodi:namedview
     id="namedview8"
     pagecolor="#ffffff"
     bordercolor="#666666"
     borderopacity="1.0"
     inkscape:showpageshadow="2"
     inkscape:pageopacity="0.0"
     inkscape:pagecheckerboard="true"
     inkscape:deskcolor="#d1d1d1"
     showgrid="true"
     inkscape:zoom="0.8095703"
     inkscape:cx="35.821472"
     inkscape:cy="122.90471"
     inkscape:current-layer="svg6"
     showguides="false"
     inkscape:window-width="1920"
     inkscape:window-height="730"
     inkscape:window-x="-6"
     inkscape:window-y="-6"
     inkscape:window-maximized="1">
    <inkscape:grid
       type="xygrid"
       id="grid239"
       units="px"
       spacingx="1.5"
       spacingy="1.5" />
  </sodipodi:namedview>
  <path
     inkscape:export-ydpi="1300"
     inkscape:export-xdpi="1300"
     inkscape:export-filename="/home/kristof/EMBEETLE_IDE/embeetle/beetle_core/resources/icons/logo/espressif.png"
     id="path1374"
     d="M 19.574066,45.382059 C 11.315848,43.080569 4.6270937,36.07258 2.6680487,27.669163 c -0.886044,-3.800815 -0.890718,-6.916714 -0.01494,-10.668256 1.257853,-5.394402 5.25118,-11.908705 6.906394,-11.266464 0.6702603,0.259949 0.4802423,0.726006 -1.286653,3.152744 -3.326475,4.568969 -4.62022,7.308731 -4.62022,13.413358 0,4.244351 0.62621,5.653584 1.475071,7.821755 2.386861,6.097841 7.6437663,11.149169 13.9419883,13.396825 4.308528,1.537568 9.5177,1.548985 13.956418,0.03074 2.772762,-0.948473 4.18611,-1.759934 8.301369,-4.765976 0.427053,-0.311825 0.821182,-0.264626 1.224519,0.146726 0.483503,0.493461 0.290167,0.860388 -1.034526,1.964531 -2.067681,1.723141 -6.075714,3.725474 -9.076697,4.534503 -2.895862,0.780812 -9.987875,0.754546 -12.865702,-0.04787 z m 1.694381,-3.389871 C 20.756496,41.881456 19.877431,41.429062 19.315107,40.987573 18.386159,40.258323 18.339446,40.011311 18.803425,38.283439 20.154753,33.25134 17.456709,29.82254 11.038722,28.415696 10.276466,28.248667 8.8763057,27.286444 7.9271397,26.277612 4.9463467,23.109317 5.0314607,18.556335 8.1289017,15.494502 10.2613,13.386526 12.411425,12.860393 16.00563,13.567117 c 7.232266,1.42205 13.347123,6.243206 16.549311,13.048018 1.606689,3.414283 1.747536,4.05984 1.908745,8.74798 l 0.174154,5.061701 -1.597726,0.675146 c -1.221924,0.516148 -2.034476,0.562843 -3.45477,0.198512 l -1.857026,-0.476599 0.300056,-2.364597 c 0.38297,-3.019717 -0.235067,-7.010385 -1.463361,-9.444565 -2.328994,-4.615918 -7.950515,-8.690526 -12.357996,-8.957335 -1.524494,-0.09152 -1.803224,0.04265 -1.928683,0.934503 -0.114122,0.81448 0.139897,1.104509 1.163536,1.326919 5.286069,1.148124 9.997347,5.001225 11.474329,9.384092 0.901529,2.675395 0.951961,6.37368 0.119258,8.719779 -0.596134,1.678641 -1.512089,2.060884 -3.766149,1.571774 z m -10.00767,-4.866309 c -1.8436333,-1.864121 -0.503255,-5.177099 2.094609,-5.177099 1.493855,0 3.025587,1.548771 3.025587,3.059175 0,0.647185 -0.418869,1.600212 -0.931011,2.117924 -0.51194,0.517839 -1.454606,0.941291 -2.094645,0.941291 -0.640044,0 -1.58259,-0.423527 -2.094601,-0.941291 z m 26.066469,-2.489646 c 0,-5.082927 -3.157085,-12.036692 -7.404216,-16.30859 -4.581616,-4.608291 -10.948401,-7.557949 -16.313817,-7.557949 h -1.939165 l 0.144495,-1.764923 c 0.12414,-1.514314 0.457359,-1.976395 2.348616,-3.254367 l 2.204212,-1.48948 2.916002,0.679366 c 10.752939,2.50505 20.235458,11.548139 23.351959,22.269812 1.048516,3.607084 0.93729,4.79704 -0.656307,7.021327 -1.180566,1.647795 -1.65362,1.953191 -3.025553,1.953191 -1.528493,0 -1.626248,-0.09328 -1.626248,-1.54836 z m 5.145771,-14.338079 c -1.64604,-3.274516 -2.930758,-4.989662 -6.283881,-8.389123 -3.563545,-3.612828 -4.875572,-4.594644 -8.49081,-6.353749 -6.0067,-2.9227207 -5.690013,-4.1857137 0.815666,-3.252802 4.596312,0.6590994 7.80902,2.23318 11.165951,5.470757 3.178958,3.065876 5.30028,6.971443 6.055448,11.148574 0.532838,2.948226 0.231895,5.497917 -0.648456,5.494501 -0.299564,-0.0013 -1.475942,-1.854355 -2.613918,-4.118158 z"
     style="fill:#a40000;fill-opacity:1;stroke-width:1.25591"
     sodipodi:nodetypes="sssssssssssssssssssssssscsscssssssssssssssssscsscssssssssssscs" />
</svg>
