<?xml version="1.0" encoding="UTF-8" standalone="no"?>
<svg
   fill="none"
   viewBox="0 0 48 48"
   height="256"
   width="256"
   version="1.1"
   id="svg8"
   sodipodi:docname="flashtool_none.svg"
   inkscape:version="1.2.1 (9c6d41e410, 2022-07-14)"
   xmlns:inkscape="http://www.inkscape.org/namespaces/inkscape"
   xmlns:sodipodi="http://sodipodi.sourceforge.net/DTD/sodipodi-0.dtd"
   xmlns="http://www.w3.org/2000/svg"
   xmlns:svg="http://www.w3.org/2000/svg">
  <defs
     id="defs12" />
  <sodipodi:namedview
     id="namedview10"
     pagecolor="#ffffff"
     bordercolor="#666666"
     borderopacity="1.0"
     inkscape:showpageshadow="2"
     inkscape:pageopacity="0.0"
     inkscape:pagecheckerboard="0"
     inkscape:deskcolor="#d1d1d1"
     showgrid="false"
     inkscape:zoom="1.5164126"
     inkscape:cx="48.139932"
     inkscape:cy="83.420568"
     inkscape:current-layer="svg8"
     inkscape:window-width="1920"
     inkscape:window-height="730"
     inkscape:window-x="-6"
     inkscape:window-y="-6"
     inkscape:window-maximized="1" />
  <path
     id="rect19113"
     style="fill:#888a85;fill-opacity:1;stroke:none;stroke-width:0.1875;stroke-linecap:round;stroke-linejoin:round"
     d="m 35.503418,12.421143 c 4.59543,0 8.561829,2.706035 10.409546,6.619628 0.05498,0.11644 0.08254,0.234547 0.08643,0.349732 v 3.66e-4 c 0.01644,0.499483 -0.411291,0.94221 -0.969727,0.936768 -3.004883,-0.0289 -6.341557,-0.01446 -8.729736,0.12854 -0.198396,0.0119 -0.387533,0.08408 -0.536133,0.216064 -0.48949,0.434302 -1.630056,1.559786 -2.238648,3.092285 -0.08027,0.202111 -0.08029,0.427686 0,0.629883 0.597693,1.505096 1.708721,2.618149 2.211915,3.068848 0.165078,0.147922 0.379702,0.220493 0.601318,0.220459 h 8.698608 c 0.682631,-1e-6 1.162615,0.669968 0.870484,1.286865 -1.850108,3.907291 -5.813232,6.608277 -10.404053,6.608276 -4.270347,0 -7.997895,-2.336912 -9.986572,-5.808105 -0.185028,-0.32288 -0.517792,-0.53583 -0.889893,-0.541626 -4.339745,-0.0683 -12.104621,-0.270392 -20.1273192,-0.86499 -1.1932834,-0.0884 -2.2063016,-0.89511 -2.3583984,-2.081909 -0.080501,-0.627699 -0.1409923,-1.394964 -0.1409913,-2.281861 -1.7e-6,-0.886999 0.060494,-1.654262 0.1409913,-2.28186 0.1520993,-1.186897 1.1651135,-1.993776 2.3583984,-2.082276 8.0222982,-0.594599 15.7867422,-0.795692 20.1265872,-0.863891 0.372195,-0.0059 0.704896,-0.219357 0.889892,-0.542359 1.988474,-3.47179 5.716457,-5.808841 9.987305,-5.808837 z"
     sodipodi:nodetypes="sscccccscccccsccccsccccs" />
  <path
     id="rect18740"
     style="fill:#a40000;fill-opacity:1;stroke:none;stroke-width:0.1875;stroke-linecap:round;stroke-linejoin:round"
     d="m 14.580688,9.7441406 c 0.563769,0.010791 1.127156,0.2747264 1.595948,0.6881104 1.261824,1.112679 3.668797,3.320011 7.823364,7.405884 4.154494,-4.085873 6.561612,-6.293205 7.823364,-7.405884 0.750068,-0.6614142 1.742241,-0.9405534 2.590943,-0.411621 0.519994,0.324077 1.175979,0.82698 1.956665,1.607666 0.780685,0.780685 1.283918,1.437036 1.608032,1.957031 0.528888,0.848694 0.249799,1.840875 -0.411621,2.590943 -1.112672,1.261751 -3.319988,3.66887 -7.405884,7.823364 4.086406,4.155078 6.293872,6.562199 7.406616,7.824096 0.661422,0.750068 0.94051,1.742316 0.411621,2.590943 -0.324113,0.519995 -0.82698,1.176346 -1.607666,1.957031 -0.780685,0.780685 -1.437035,1.283625 -1.957031,1.607666 -0.8487,0.528962 -1.840874,0.2498 -2.590942,-0.411621 C 30.562272,36.455005 28.155078,34.247539 24,30.161133 c -4.155077,4.086406 -6.562199,6.293872 -7.824097,7.406616 -0.750066,0.661421 -1.742217,0.940583 -2.590942,0.411621 -0.519995,-0.324041 -1.176347,-0.826981 -1.957031,-1.607666 -0.780687,-0.780685 -1.28359,-1.437036 -1.607666,-1.957031 -0.528934,-0.848627 -0.2497937,-1.840875 0.411621,-2.590943 1.112759,-1.261897 3.320152,-3.669018 7.406616,-7.824096 -4.08591,-4.154494 -6.293205,-6.561613 -7.405884,-7.823364 -0.6614138,-0.750068 -0.9405471,-1.742249 -0.411621,-2.590943 0.324077,-0.519995 0.827348,-1.176346 1.608032,-1.957031 0.780686,-0.780686 1.43667,-1.283589 1.956665,-1.607666 0.318248,-0.1983497 0.656734,-0.2829638 0.994995,-0.2764894 z"
     sodipodi:nodetypes="scccsscccscscccccsccccsscs" />
</svg>
