<?xml version="1.0" encoding="UTF-8" standalone="no"?>
<svg
   fill="none"
   viewBox="0 0 48 48"
   height="256"
   width="256"
   version="1.1"
   id="svg6"
   sodipodi:docname="gdb.svg"
   inkscape:version="1.2.1 (9c6d41e410, 2022-07-14)"
   xmlns:inkscape="http://www.inkscape.org/namespaces/inkscape"
   xmlns:sodipodi="http://sodipodi.sourceforge.net/DTD/sodipodi-0.dtd"
   xmlns="http://www.w3.org/2000/svg"
   xmlns:svg="http://www.w3.org/2000/svg">
  <defs
     id="defs10" />
  <sodipodi:namedview
     id="namedview8"
     pagecolor="#ffffff"
     bordercolor="#666666"
     borderopacity="1.0"
     inkscape:showpageshadow="2"
     inkscape:pageopacity="0.0"
     inkscape:pagecheckerboard="true"
     inkscape:deskcolor="#d1d1d1"
     showgrid="true"
     inkscape:zoom="1.6191406"
     inkscape:cx="76.583837"
     inkscape:cy="73.804585"
     inkscape:current-layer="svg6"
     showguides="false"
     inkscape:window-width="1920"
     inkscape:window-height="730"
     inkscape:window-x="-6"
     inkscape:window-y="-6"
     inkscape:window-maximized="1">
    <inkscape:grid
       type="xygrid"
       id="grid239"
       units="px"
       spacingx="1.5"
       spacingy="1.5" />
  </sodipodi:namedview>
  <path
     id="path3760"
     style="color:#000000;fill:#8f5902;fill-opacity:1;stroke-width:1.15811;stroke-linecap:round;stroke-linejoin:round"
     d="m 27.526524,15.493606 c -0.195148,-7.2e-5 -0.391222,0.0023 -0.588247,0.0076 -4.617316,0.124019 -9.758729,1.787182 -15.245202,5.736142 l -6.5644369,-5.18179 a 0.58005311,0.58005311 0 0 0 -0.017813,-0.01612 C 4.4490053,15.561451 3.614006,15.531295 3.0453899,15.935531 2.4767739,16.33976 2.1651836,17.025212 2.0457532,17.82199 c -0.2228927,1.487017 0.3577161,3.45071 1.9318393,5.177583 -1.2919409,1.928268 -1.8580428,4.106112 -1.7825511,5.774737 0.04014,0.88726 0.2167803,1.641087 0.6807029,2.173584 0.2319619,0.26625 0.5693586,0.469674 0.9457743,0.502151 0.3764145,0.03247 0.747681,-0.0942 1.0878525,-0.318933 a 0.58005311,0.58005311 0 0 0 0.065738,-0.04962 c 1.2681638,-1.123471 2.7611282,-2.896547 4.0511364,-4.202545 0.6450046,-0.653001 1.2460135,-1.186137 1.6625275,-1.434355 0.201027,-0.1198 0.345642,-0.156368 0.388913,-0.160314 l 3.010785,5.077916 a 0.58005311,0.58005311 0 0 0 0.0089,0.01569 c 1.93689,3.052532 6.741443,5.772355 11.744142,7.220117 2.501349,0.72388 5.053446,1.114477 7.337596,0.995395 2.284151,-0.119082 4.328346,-0.748601 5.713665,-2.148986 a 0.58005311,0.58005311 0 0 0 0.01357,-0.01357 l 6.939777,-7.522933 a 0.58005311,0.58005311 0 0 0 -0.280777,-0.954674 l -2.7279,-0.705726 2.549349,-3.067192 a 0.58005311,0.58005311 0 0 0 -0.04751,-0.791821 C 44.67838,22.763788 43.964331,22.135598 43.200924,21.520691 43.283497,20.02641 42.9644,18.63912 42.340396,17.564979 c -0.64127,-1.103869 -1.643177,-1.899366 -2.847501,-1.983581 -1.204321,-0.08422 -2.309493,0.564071 -3.098153,1.56795 -0.0419,0.05333 -0.08308,0.107878 -0.123416,0.163284 -1.499857,-0.632312 -3.09844,-1.135864 -4.790793,-1.451743 -1.268028,-0.23668 -2.587984,-0.366778 -3.954014,-0.367283 z" />
  <path
     id="path3764"
     style="color:#000000;fill:#2e3436;fill-opacity:1;stroke-width:1.15811;stroke-linecap:round;stroke-linejoin:round"
     d="m 17.593772,13.712327 c -0.286723,3.35e-4 -0.575389,0.0224 -0.863495,0.0632 -1.024377,0.145053 -2.040364,0.52887 -2.915784,1.017873 -0.875419,0.489 -1.621096,1.0909 -2.112512,1.768555 -0.491412,0.677657 -0.746557,1.528113 -0.368555,2.277916 0.07472,0.147533 0.208713,0.25616 0.368555,0.298577 l 2.17104,0.390185 c 0.207731,0.05493 0.434564,-0.01508 0.636595,-0.137413 0.615246,-0.3623 1.923037,-1.180231 2.27622,-0.707422 0.496209,0.804697 1.068152,1.627653 1.606968,2.43611 0.257921,0.344102 0.787626,0.298012 0.981824,-0.08567 l 1.320691,-2.603636 2.940807,3.004 c 0.24033,0.246883 0.641624,0.231089 0.861799,-0.03393 l 2.802545,-3.372554 1.67822,3.576128 c 0.19729,0.420095 0.783694,0.449692 1.022538,0.05175 l 1.88646,-3.155408 1.339776,3.817874 c 0.161142,0.351568 0.614408,0.44997 0.906756,0.196789 l 0.834656,-1.197698 c 0.0034,-0.08194 0.0074,-0.164249 0.01314,-0.246834 0.102795,-1.470061 0.577743,-2.788623 1.305423,-3.778432 -3.791585,-1.699862 -8.65572,-2.382363 -13.716271,-1.254105 -0.966077,-0.205501 -1.919435,-1.245816 -2.866587,-1.855499 -0.658942,-0.330439 -1.378074,-0.471196 -2.110816,-0.470343 z" />
  <path
     style="color:#000000;fill:#2e3436;fill-opacity:1;stroke-width:1.15811;stroke-linecap:round;stroke-linejoin:round"
     d="m 14.459287,29.642898 -2.169201,0.275957 c -0.01668,0.0015 -0.03328,0.0038 -0.04976,0.0068 -0.599416,0.129853 -1.100994,0.476055 -1.287044,0.981682 -0.186051,0.505628 -0.07128,1.02274 0.14024,1.515501 0.423052,0.985523 1.312662,2.024524 2.338847,3.008382 1.026184,0.983859 2.186671,1.885895 3.182552,2.474564 0.497941,0.294335 0.947852,0.513087 1.372998,0.619772 0.212574,0.05334 0.422241,0.08508 0.658225,0.04298 0.235985,-0.0421 0.515151,-0.205285 0.651439,-0.452389 l -0.307624,0.262385 3.526367,-1.298355 c 0.470259,-0.17304 0.514643,-0.820757 0.07238,-1.056326 -3.16168,-1.689689 -5.940369,-3.569029 -7.566194,-6.118551 -0.121117,-0.189119 -0.340519,-0.29133 -0.563224,-0.262386 z"
     id="path3768"
     sodipodi:nodetypes="cccssssssccccccc" />
  <path
     style="color:#000000;fill:#2e3436;fill-opacity:1;stroke-width:1.15811;stroke-linecap:round;stroke-linejoin:round"
     d="m 34.83938,37.414929 -5.150441,0.332505 c -0.409123,0.02654 -0.662337,0.457595 -0.486317,0.827871 0.492743,1.046956 0.98849,1.831266 1.556215,2.359204 0.567726,0.527939 1.304741,0.790949 1.99277,0.576795 0.113113,-0.03566 0.212587,-0.105122 0.285005,-0.199051 l 2.298133,-2.963143 c 0.305934,-0.394797 0.0031,-0.965923 -0.495365,-0.934181 z"
     id="path3770"
     sodipodi:nodetypes="cccscccc" />
  <path
     style="color:#000000;fill:#2e3436;fill-opacity:1;stroke-width:1.15811;stroke-linecap:round;stroke-linejoin:round"
     d="m 27.917839,22.827669 c -0.544178,0.302295 -0.858366,0.849214 -1.140019,1.517763 -0.281651,0.668548 -0.485123,1.473455 -0.547389,2.307179 -0.06226,0.833724 0.01352,1.700657 0.343815,2.474565 0.330299,0.773907 0.948333,1.450631 1.857054,1.782409 0.174276,0.06367 0.368492,0.04013 0.522508,-0.06334 l 2.537899,-1.714552 c 0.221024,-0.149474 0.31157,-0.430446 0.219408,-0.680845 -0.199653,-0.542556 -0.355122,-1.027063 -0.348339,-1.431809 0.0068,-0.404746 0.121408,-0.757906 0.635606,-1.221448 0.290775,-0.261219 0.245206,-0.729413 -0.09048,-0.929658 l -3.41327,-2.031223 c -0.177031,-0.10518 -0.396557,-0.10862 -0.576795,-0.009 z"
     id="path3772"
     sodipodi:nodetypes="cssscccccccccc" />
  <path
     id="path3774"
     style="color:#000000;fill:#2e3436;fill-opacity:1;stroke-width:1.15811;stroke-linecap:round;stroke-linejoin:round"
     d="m 20.896349,20.439624 a 0.57999511,0.57999511 0 0 0 -0.06532,0.0038 0.57999511,0.57999511 0 0 0 -0.388913,0.217146 c -0.400316,0.505805 -0.985328,1.061795 -1.178613,1.900031 -0.193284,0.838236 0.166985,1.816536 1.255377,2.825447 a 0.57999511,0.57999511 0 0 0 0.821086,-0.03181 0.57999511,0.57999511 0 0 0 -0.03139,-0.818964 c -0.932884,-0.864758 -1.005007,-1.319437 -0.913966,-1.714269 0.09104,-0.394832 0.507997,-0.871386 0.958922,-1.441139 a 0.57999511,0.57999511 0 0 0 -0.095,-0.814299 0.57999511,0.57999511 0 0 0 -0.362194,-0.125962 z m -2.569707,4.514693 a 0.57999511,0.57999511 0 0 0 -0.451682,0.221389 c -0.464691,0.592666 -0.829556,1.288392 -0.732868,2.073917 0.09669,0.785524 0.647237,1.505047 1.635383,2.169343 A 0.57999511,0.57999511 0 0 0 19.582444,29.262891 0.57999511,0.57999511 0 0 0 19.424249,28.4575 c -0.836545,-0.562381 -1.088984,-1.008112 -1.131112,-1.35038 -0.04213,-0.342267 0.118677,-0.73694 0.493245,-1.214662 a 0.57999511,0.57999511 0 0 0 -0.09712,-0.814299 0.57999511,0.57999511 0 0 0 -0.362617,-0.123842 z m 5.987642,4.150805 a 0.57999511,0.57999511 0 0 0 -0.192124,0.02672 0.57999511,0.57999511 0 0 0 -0.341411,0.285005 c -0.310815,0.598933 -0.587199,1.244655 -0.592488,1.965344 -0.0053,0.720691 0.310765,1.479203 1.004301,2.130749 a 0.57999511,0.57999511 0 0 0 0.818542,-0.0246 0.57999511,0.57999511 0 0 0 -0.0246,-0.821085 c -0.51494,-0.483762 -0.640909,-0.861143 -0.637867,-1.275735 0.003,-0.414592 0.185226,-0.9048 0.463557,-1.44114 A 0.57999511,0.57999511 0 0 0 24.56324,29.17001 0.57999511,0.57999511 0 0 0 24.314285,29.10512 Z" />
  <path
     id="ellipse3782"
     style="color:#000000;fill:#729fcf;fill-opacity:1;stroke-width:1.15811;stroke-linecap:round;stroke-linejoin:round"
     d="m 33.909863,3.4653088 c -1.054949,0 -1.882218,0.9115753 -1.882218,1.9746748 0,1.0630994 0.827269,1.9772195 1.882218,1.9772195 1.05495,0 1.881794,-0.9141201 1.881794,-1.9772195 0,-1.0630995 -0.826844,-1.9746748 -1.881794,-1.9746748 z m 5.932931,3.7211762 c -0.74304,0 -1.403965,0.3915913 -1.847865,0.9589219 -0.443898,0.5673301 -0.698938,1.3165921 -0.698939,2.1328691 0,0.816277 0.255041,1.565964 0.698939,2.133294 0.4439,0.567331 1.104825,0.958921 1.847865,0.958921 0.743041,0 1.401846,-0.39159 1.845744,-0.958921 0.443899,-0.56733 0.69894,-1.317017 0.69894,-2.133294 0,-0.816277 -0.255041,-1.565539 -0.69894,-2.1328691 C 41.24464,7.5780763 40.585835,7.186485 39.842794,7.186485 Z m -5.426539,4.064709 c -1.141006,0 -2.006057,1.021036 -2.006058,2.187156 1e-6,1.16612 0.865052,2.1897 2.006058,2.1897 1.141008,0 2.004363,-1.02358 2.004363,-2.1897 0,-1.16612 -0.863355,-2.187156 -2.004363,-2.187156 z" />
  <ellipse
     style="fill:#eeeeec;fill-opacity:1;stroke-width:0.35433"
     id="path5257"
     cx="39.321518"
     cy="21.416309"
     rx="4.3398786"
     ry="6.0389824" />
  <path
     style="color:#000000;fill:#2e3436;fill-opacity:1;stroke-width:1.69559;stroke-linecap:round;stroke-linejoin:round"
     d="m 39.315723,18.164764 c -0.415567,0 -0.773828,0.209011 -1.010069,0.443767 -0.236244,0.234759 -0.390457,0.505014 -0.516626,0.801437 -0.25234,0.592844 -0.377535,1.305904 -0.377535,2.089686 0,0.783782 0.125189,1.496842 0.377535,2.089687 0.12617,0.296422 0.280382,0.566678 0.516626,0.801437 0.236241,0.234755 0.594502,0.443767 1.010069,0.443767 0.41557,0 0.773831,-0.209012 1.010074,-0.443767 0.236242,-0.234759 0.393768,-0.505015 0.519936,-0.801437 0.252341,-0.592845 0.377537,-1.305905 0.377534,-2.089687 0,-0.783782 -0.125189,-1.496842 -0.377534,-2.089686 -0.126169,-0.296423 -0.283694,-0.566678 -0.519936,-0.801437 -0.236243,-0.234756 -0.594504,-0.443767 -1.010074,-0.443767 z"
     id="ellipse3780"
     sodipodi:nodetypes="sssssssssssss" />
</svg>
