<?xml version="1.0" encoding="UTF-8" standalone="no"?>
<svg
   fill="none"
   viewBox="0 0 48 48"
   height="256"
   width="256"
   version="1.1"
   id="svg6"
   sodipodi:docname="gnu_riscv.svg"
   inkscape:version="1.2.1 (9c6d41e410, 2022-07-14)"
   xml:space="preserve"
   xmlns:inkscape="http://www.inkscape.org/namespaces/inkscape"
   xmlns:sodipodi="http://sodipodi.sourceforge.net/DTD/sodipodi-0.dtd"
   xmlns="http://www.w3.org/2000/svg"
   xmlns:svg="http://www.w3.org/2000/svg"><defs
     id="defs10" /><sodipodi:namedview
     id="namedview8"
     pagecolor="#ffffff"
     bordercolor="#666666"
     borderopacity="1.0"
     inkscape:showpageshadow="2"
     inkscape:pageopacity="0.0"
     inkscape:pagecheckerboard="true"
     inkscape:deskcolor="#d1d1d1"
     showgrid="true"
     inkscape:zoom="2.2898106"
     inkscape:cx="52.842798"
     inkscape:cy="79.264198"
     inkscape:current-layer="svg6"
     showguides="false"
     inkscape:window-width="1920"
     inkscape:window-height="730"
     inkscape:window-x="-6"
     inkscape:window-y="-6"
     inkscape:window-maximized="1"><inkscape:grid
       type="xygrid"
       id="grid239"
       units="px"
       spacingx="1.5"
       spacingy="1.5" /></sodipodi:namedview><g
     id="g23401"
     transform="matrix(1.331,0,0,1.331,35.332672,24.104715)"><path
       id="rect22384"
       style="fill:#204a87;fill-opacity:1;stroke:none;stroke-width:0.1875;stroke-linecap:round;stroke-linejoin:round"
       d="m -13.203003,-16.7948 h 2.139038 c 1.1506605,0 1.7274171,0.781089 1.7274171,1.604737 0,0.823176 -0.5767566,1.644653 -1.7274171,1.644653 h -1.562622 v 0.658813 l 3.4145509,4.1132816 h -3.9909669 z m 9.3771973,3.414185 v 4.6072996 h -3.3035888 l 0.3010254,-0.4119873 z"
       sodipodi:nodetypes="cssscccccccccc" /><path
       id="rect22381"
       style="fill:#ce5c00;fill-opacity:1;stroke-width:0.1875;stroke-linecap:round;stroke-linejoin:round"
       d="m -10.487549,-18.110229 h 6.6214601 v 2.426147 l -4.072998,5.7601318 -0.2047119,0.2867432 -2.2617192,-2.672974 c 1.6031103,-0.288943 2.4265141,-1.522528 2.4265141,-2.879882 0,-1.357853 -0.8231731,-2.755505 -2.5085451,-2.920166 z"
       sodipodi:nodetypes="ccccccsc" /></g><path
     id="path27868"
     style="fill:#2e3436;fill-opacity:1;stroke-width:0.112575"
     d="m 24.000683,16.6219 c -0.917477,0.009 -1.846364,0.0433 -2.150983,0.103023 -2.21787,0.705656 -3.893625,1.709555 -4.690873,3.48195 -0.12644,0.0968 -0.550489,1.393732 -0.551089,1.658642 -2.776432,2.155153 -13.1150033,0.609465 -9.9138031,4.941176 0.7676043,0.607957 1.9768378,1.215406 2.8741841,1.443503 0.3799787,0.09659 1.162079,0.170456 1.803449,0.170457 1.853984,0 3.30873,-0.515685 4.764104,-1.688432 l 0.671484,-0.540745 c -0.03707,0.636579 0.315975,1.033746 -0.127429,1.414956 -2.30529,0.412539 -1.773072,9.080278 0.244515,9.147566 0.494832,3.926347 0.428068,8.220282 1.802209,10.153344 0.427533,0.47322 0.827677,0.718207 1.540731,0.943717 0.310378,0.09815 1.40036,0.141353 3.733501,0.148943 2.333142,-0.0076 3.423124,-0.05079 3.733502,-0.148943 0.713054,-0.22551 1.113197,-0.470497 1.540731,-0.943717 1.374141,-1.933062 1.307377,-6.226997 1.802209,-10.153344 2.017586,-0.06729 2.549806,-8.735027 0.244515,-9.147566 -0.383349,-0.816469 -0.184955,-0.369403 -0.127429,-1.414956 l 0.671484,0.540745 c 1.455374,1.172747 2.91012,1.688432 4.764103,1.688432 0.64137,-1e-6 1.423471,-0.07386 1.80345,-0.170457 0.897346,-0.228097 2.106578,-0.835546 2.874184,-1.443503 3.2012,-4.331711 -7.137372,-2.786023 -9.913804,-4.941176 -6e-4,-0.26491 -0.424648,-1.561845 -0.551088,-1.658642 -0.797248,-1.772395 -2.473003,-2.776294 -4.690873,-3.48195 -0.304619,-0.05972 -1.233506,-0.09398 -2.150984,-0.103023 z"
     sodipodi:nodetypes="ccccccscccccscccccccscccccc" /><path
     id="path27881"
     style="fill:#8f5902;fill-opacity:1;stroke-width:0.112575"
     d="m 14.965075,4.0001269 c 0.96107,0.5015416 -1.954137,2.8640314 -2.774994,3.7159902 -1.441489,1.8314458 -4.3147123,4.2592899 -5.0695657,6.5024629 -0.2424358,2.387575 2.5693296,0.289554 3.5912107,-0.167408 1.907372,-0.986546 3.965757,-2.30617 6.211389,-1.664667 2.109743,0.407045 3.634195,2.086707 4.52304,3.950905 0.835879,1.254976 1.470884,3.027253 0.377461,4.339564 -1.257751,1.618593 -4.481646,1.652564 -5.159858,-0.29997 -0.549389,-1.188987 -0.756726,-2.966248 -2.916076,-1.846143 -2.227162,1.15528 -3.901667,2.843486 -6.570615,2.213565 C 4.0016212,20.206228 1.7995927,16.786142 2.5539537,13.667283 3.0521179,11.22556 7.4567047,8.2567756 9.3083941,6.8402122 11.061262,5.7005474 12.84262,4.2979468 14.965075,4.0001269 Z"
     sodipodi:nodetypes="ccscssssscccc" /><path
     id="path27961"
     style="fill:#8f5902;fill-opacity:1;stroke-width:0.112575"
     d="m 33.036289,4.0001269 c -0.961069,0.5015416 1.954137,2.8640314 2.774994,3.7159902 1.441489,1.8314458 4.314712,4.2592899 5.069567,6.5024629 0.242435,2.387575 -2.56933,0.289554 -3.591211,-0.167408 -1.907373,-0.986546 -3.965757,-2.30617 -6.21139,-1.664667 -2.109743,0.407045 -3.634195,2.086707 -4.52304,3.950905 -0.835878,1.254976 -1.470883,3.027253 -0.37746,4.339564 1.257751,1.618593 4.481645,1.652564 5.159858,-0.29997 0.549388,-1.188987 0.756725,-2.966248 2.916076,-1.846143 2.227161,1.15528 3.901667,2.843486 6.570614,2.213565 3.175446,-0.538198 5.377475,-3.958284 4.623113,-7.077143 C 44.949246,11.22556 40.544659,8.2567756 38.69297,6.8402122 36.940102,5.7005474 35.158744,4.2979468 33.036289,4.0001269 Z"
     sodipodi:nodetypes="ccscssssscccc" /><ellipse
     style="fill:#eeeeec;fill-opacity:1;stroke:none;stroke-width:0.021183;stroke-linejoin:round;stroke-dasharray:none;stroke-opacity:1"
     id="path28016"
     cx="18.663921"
     cy="31.840042"
     rx="2.0114894"
     ry="3.9085002" /><ellipse
     style="fill:#eeeeec;fill-opacity:1;stroke:none;stroke-width:0.021183;stroke-linejoin:round;stroke-dasharray:none;stroke-opacity:1"
     id="ellipse28018"
     cx="29.401546"
     cy="31.840042"
     rx="2.0114894"
     ry="3.9085002" /><ellipse
     style="fill:#2e3436;fill-opacity:1;stroke:none;stroke-width:0.021183;stroke-linejoin:round;stroke-dasharray:none;stroke-opacity:1"
     id="path28137"
     cx="18.840611"
     cy="32.045998"
     rx="0.74007821"
     ry="1.8386301" /><ellipse
     style="fill:#2e3436;fill-opacity:1;stroke:none;stroke-width:0.021183;stroke-linejoin:round;stroke-dasharray:none;stroke-opacity:1"
     id="ellipse28139"
     cx="29.008444"
     cy="32.045998"
     rx="0.74007821"
     ry="1.8386301" /></svg>
