<?xml version="1.0" encoding="UTF-8" standalone="no"?>
<svg
   fill="none"
   viewBox="0 0 48 48"
   height="256"
   width="256"
   version="1.1"
   id="svg6"
   sodipodi:docname="openocd_gdb.svg"
   inkscape:version="1.2.1 (9c6d41e410, 2022-07-14)"
   xmlns:inkscape="http://www.inkscape.org/namespaces/inkscape"
   xmlns:sodipodi="http://sodipodi.sourceforge.net/DTD/sodipodi-0.dtd"
   xmlns="http://www.w3.org/2000/svg"
   xmlns:svg="http://www.w3.org/2000/svg">
  <defs
     id="defs10" />
  <sodipodi:namedview
     id="namedview8"
     pagecolor="#ffffff"
     bordercolor="#666666"
     borderopacity="1.0"
     inkscape:showpageshadow="2"
     inkscape:pageopacity="0.0"
     inkscape:pagecheckerboard="true"
     inkscape:deskcolor="#d1d1d1"
     showgrid="true"
     inkscape:zoom="1.1449053"
     inkscape:cx="54.589668"
     inkscape:cy="133.19879"
     inkscape:current-layer="svg6"
     showguides="false"
     inkscape:window-width="1920"
     inkscape:window-height="730"
     inkscape:window-x="-6"
     inkscape:window-y="-6"
     inkscape:window-maximized="1">
    <inkscape:grid
       type="xygrid"
       id="grid239"
       units="px"
       spacingx="1.5"
       spacingy="1.5" />
  </sodipodi:namedview>
  <g
     id="g4431"
     transform="matrix(0.75,0,0,0.75,26.835298,11.461394)"
     style="stroke-width:1.33333">
    <path
       style="color:#000000;font-style:normal;font-variant:normal;font-weight:normal;font-stretch:normal;font-size:medium;line-height:normal;font-family:sans-serif;font-variant-ligatures:normal;font-variant-position:normal;font-variant-caps:normal;font-variant-numeric:normal;font-variant-alternates:normal;font-feature-settings:normal;text-indent:0;text-align:start;text-decoration:none;text-decoration-line:none;text-decoration-style:solid;text-decoration-color:#000000;letter-spacing:normal;word-spacing:normal;text-transform:none;writing-mode:lr-tb;direction:ltr;text-orientation:mixed;dominant-baseline:auto;baseline-shift:baseline;text-anchor:start;white-space:normal;shape-padding:0;clip-rule:nonzero;display:inline;overflow:visible;visibility:visible;isolation:auto;mix-blend-mode:normal;color-interpolation:sRGB;color-interpolation-filters:linearRGB;solid-color:#000000;solid-opacity:1;fill:#c4a000;fill-opacity:1;fill-rule:nonzero;stroke:none;stroke-width:1.49748;stroke-linecap:butt;stroke-linejoin:miter;stroke-miterlimit:4;stroke-dasharray:none;stroke-dashoffset:0;stroke-opacity:1;color-rendering:auto;image-rendering:auto;shape-rendering:auto;text-rendering:auto;enable-background:accumulate"
       d="m 2.802234,18.212946 c -0.44711,0 -0.861785,0.127903 -1.191722,0.369897 -0.329912,0.242144 -0.58502,0.63109 -0.58502,1.083415 v 2.709976 c 0,0.452325 0.255108,0.841319 0.58502,1.083414 0.329937,0.242144 0.744612,0.369896 1.191722,0.369896 h 2.250349 c 0.447135,0 0.861809,-0.127901 1.191721,-0.369896 0.329937,-0.242144 0.585045,-0.631089 0.585045,-1.083414 v -2.709976 c 0,-0.452325 -0.255108,-0.84132 -0.585045,-1.083415 C 5.914392,18.3407 5.499718,18.212946 5.052583,18.212946 Z"
       id="path913-0"
       inkscape:connector-curvature="0"
       sodipodi:nodetypes="scsscsscsscss" />
    <path
       style="fill:#888a85;fill-opacity:1;stroke:none;stroke-width:5.11265;stroke-miterlimit:4;stroke-dasharray:none;stroke-opacity:1"
       d="m -34.388181,-1.790927 c -0.771284,0 -1.392216,0.620932 -1.392216,1.392191 v 0.696157 c 0,0.77126 0.620932,1.392192 1.392216,1.392192 h 1.918402 c 0.771284,0 1.392216,-0.620932 1.392216,-1.392192 v -0.696157 c 0,-0.771259 -0.620932,-1.392191 -1.392216,-1.392191 z"
       id="path1063-5"
       inkscape:connector-curvature="0"
       sodipodi:nodetypes="sssssssss" />
    <path
       style="fill:#888a85;fill-opacity:1;stroke:none;stroke-width:5.11265;stroke-miterlimit:4;stroke-dasharray:none;stroke-opacity:1"
       d="m -34.388181,5.866286 c -0.771284,0 -1.392216,0.620956 -1.392216,1.392217 v 0.696132 c 0,0.77126 0.620932,1.392216 1.392216,1.392216 h 1.918402 c 0.771284,0 1.392216,-0.620956 1.392216,-1.392216 V 7.258503 c 0,-0.771261 -0.620932,-1.392217 -1.392216,-1.392217 z"
       id="path1065-2"
       inkscape:connector-curvature="0"
       sodipodi:nodetypes="sssssssss" />
    <path
       style="fill:#888a85;fill-opacity:1;stroke:none;stroke-width:5.11265;stroke-miterlimit:4;stroke-dasharray:none;stroke-opacity:1"
       d="m -34.388181,13.523449 c -0.771284,0 -1.392216,0.620933 -1.392216,1.392266 v 0.696059 c 0,0.77126 0.620932,1.392216 1.392216,1.392216 h 1.918402 c 0.771284,0 1.392216,-0.620956 1.392216,-1.392216 v -0.696059 c 0,-0.771333 -0.620932,-1.392266 -1.392216,-1.392266 z"
       id="path1067-4"
       inkscape:connector-curvature="0"
       sodipodi:nodetypes="sssssssss" />
    <path
       style="fill:#888a85;fill-opacity:1;stroke:none;stroke-width:5.11265;stroke-miterlimit:4;stroke-dasharray:none;stroke-opacity:1"
       d="m -26.382925,20.306387 c -0.771284,0 -1.392216,0.620931 -1.392216,1.392216 v 1.918426 c 0,0.77126 0.620932,1.392216 1.392216,1.392216 h 0.696108 c 0.771285,0 1.392216,-0.620956 1.392216,-1.392216 v -1.918426 c 0,-0.771285 -0.620931,-1.392216 -1.392216,-1.392216 z"
       id="path1069-8"
       inkscape:connector-curvature="0"
       sodipodi:nodetypes="sssssssss" />
    <path
       style="fill:#888a85;fill-opacity:1;stroke:none;stroke-width:5.11265;stroke-miterlimit:4;stroke-dasharray:none;stroke-opacity:1"
       d="m -18.72571,20.306387 c -0.77131,0 -1.392217,0.620931 -1.392217,1.392216 v 1.918426 c 0,0.77126 0.620907,1.392216 1.392217,1.392216 h 0.696108 c 0.771284,0 1.392216,-0.620956 1.392216,-1.392216 v -1.918426 c 0,-0.771285 -0.620932,-1.392216 -1.392216,-1.392216 z"
       id="path1071-8"
       inkscape:connector-curvature="0"
       sodipodi:nodetypes="sssssssss" />
    <path
       style="fill:#888a85;fill-opacity:1;stroke:none;stroke-width:5.11265;stroke-miterlimit:4;stroke-dasharray:none;stroke-opacity:1"
       d="m -11.068521,20.306387 c -0.771284,0 -1.392216,0.620931 -1.392216,1.392216 v 1.918426 c 0,0.77126 0.620932,1.392216 1.392216,1.392216 h 0.696108 c 0.77131,0 1.392217,-0.620956 1.392217,-1.392216 v -1.918426 c 0,-0.771285 -0.620907,-1.392216 -1.392217,-1.392216 z"
       id="path1073-8"
       inkscape:connector-curvature="0"
       sodipodi:nodetypes="sssssssss" />
    <path
       style="fill:#888a85;fill-opacity:1;stroke:none;stroke-width:5.11265;stroke-miterlimit:4;stroke-dasharray:none;stroke-opacity:1"
       d="m -4.285558,13.523449 c -0.771284,0 -1.392216,0.620933 -1.392216,1.392266 v 0.696059 c 0,0.77126 0.620932,1.392216 1.392216,1.392216 h 1.918402 c 0.771309,0 1.392241,-0.620956 1.392241,-1.392216 v -0.696059 c 0,-0.771333 -0.620932,-1.392266 -1.392241,-1.392266 z"
       id="path1075-8"
       inkscape:connector-curvature="0"
       sodipodi:nodetypes="sssssssss" />
    <path
       style="fill:#888a85;fill-opacity:1;stroke:none;stroke-width:5.11265;stroke-miterlimit:4;stroke-dasharray:none;stroke-opacity:1"
       d="m -4.285558,5.866286 c -0.771284,0 -1.392216,0.620956 -1.392216,1.392217 v 0.696132 c 0,0.77126 0.620932,1.392216 1.392216,1.392216 h 1.918402 c 0.771309,0 1.392241,-0.620956 1.392241,-1.392216 V 7.258503 c 0,-0.771261 -0.620932,-1.392217 -1.392241,-1.392217 z"
       id="path1077-8"
       inkscape:connector-curvature="0"
       sodipodi:nodetypes="sssssssss" />
    <path
       style="fill:#888a85;fill-opacity:1;stroke:none;stroke-width:5.11265;stroke-miterlimit:4;stroke-dasharray:none;stroke-opacity:1"
       d="m -4.285558,-1.790927 c -0.771284,0 -1.392216,0.620932 -1.392216,1.392191 v 0.696157 c 0,0.77126 0.620932,1.392192 1.392216,1.392192 h 1.918402 c 0.771309,0 1.392241,-0.620932 1.392241,-1.392192 v -0.696157 c 0,-0.771259 -0.620932,-1.392191 -1.392241,-1.392191 z"
       id="path1079-8"
       inkscape:connector-curvature="0"
       sodipodi:nodetypes="sssssssss" />
    <path
       style="fill:#888a85;fill-opacity:1;stroke:none;stroke-width:5.11265;stroke-miterlimit:4;stroke-dasharray:none;stroke-opacity:1"
       d="m -26.382925,-9.7961572 c -0.771284,0 -1.392216,0.620931 -1.392216,1.3922162 v 1.918426 c 0,0.771284 0.620932,1.392191 1.392216,1.392191 h 0.696108 c 0.771285,0 1.392216,-0.620907 1.392216,-1.392191 v -1.918426 c 0,-0.7712852 -0.620931,-1.3922162 -1.392216,-1.3922162 z"
       id="path1081-6"
       inkscape:connector-curvature="0"
       sodipodi:nodetypes="sssssssss" />
    <path
       style="fill:#888a85;fill-opacity:1;stroke:none;stroke-width:5.11265;stroke-miterlimit:4;stroke-dasharray:none;stroke-opacity:1"
       d="m -18.72571,-9.7961572 c -0.77131,0 -1.392217,0.620931 -1.392217,1.3922162 v 1.918426 c 0,0.771284 0.620907,1.392191 1.392217,1.392191 h 0.696108 c 0.771284,0 1.392216,-0.620907 1.392216,-1.392191 v -1.918426 c 0,-0.7712852 -0.620932,-1.3922162 -1.392216,-1.3922162 z"
       id="path1083-4"
       inkscape:connector-curvature="0"
       sodipodi:nodetypes="sssssssss" />
    <path
       style="fill:#888a85;fill-opacity:1;stroke:none;stroke-width:5.11265;stroke-miterlimit:4;stroke-dasharray:none;stroke-opacity:1"
       d="m -11.068521,-9.7961572 c -0.771284,0 -1.392216,0.620931 -1.392216,1.3922162 v 1.918426 c 0,0.771284 0.620932,1.392191 1.392216,1.392191 h 0.696108 c 0.77131,0 1.392217,-0.620907 1.392217,-1.392191 v -1.918426 c 0,-0.7712852 -0.620907,-1.3922162 -1.392217,-1.3922162 z"
       id="path1085-3"
       inkscape:connector-curvature="0"
       sodipodi:nodetypes="sssssssss" />
    <path
       inkscape:connector-curvature="0"
       style="fill:#2e3436;fill-opacity:1;stroke:none;stroke-width:5.11265;stroke-miterlimit:4;stroke-dasharray:none;stroke-opacity:1"
       d="m -27.232863,-3.507417 c -0.713293,0 -1.311973,0.09015 -1.739711,0.517989 -0.427738,0.427738 -0.517989,1.027858 -0.517989,1.741152 v 17.71046 c 0,0.713293 0.09015,1.311973 0.517989,1.739686 0.427738,0.427738 1.026418,0.518014 1.739711,0.518014 H -9.5224 c 0.713318,0 1.313439,-0.0904 1.741176,-0.518014 0.427739,-0.427713 0.51799,-1.026393 0.51799,-1.739686 v -17.71046 c 0,-0.713294 -0.09015,-1.313414 -0.51799,-1.741152 -0.427737,-0.427739 -1.027858,-0.517989 -1.741176,-0.517989 z m -1.466921,0.269884 c -0.109028,0.06557 -0.205884,0.14181 -0.293105,0.22923 0.08692,-0.08692 0.184277,-0.164161 0.293105,-0.22923 z m 20.64433,0 c 0.108776,0.06532 0.206132,0.142307 0.293081,0.22923 -0.08717,-0.08742 -0.18403,-0.163913 -0.293081,-0.22923 z"
       id="path1044-8"
       sodipodi:nodetypes="scsscsscsscsscccccc" />
    <path
       style="color:#000000;font-style:normal;font-variant:normal;font-weight:normal;font-stretch:normal;font-size:medium;line-height:normal;font-family:sans-serif;font-variant-ligatures:normal;font-variant-position:normal;font-variant-caps:normal;font-variant-numeric:normal;font-variant-alternates:normal;font-feature-settings:normal;text-indent:0;text-align:start;text-decoration:none;text-decoration-line:none;text-decoration-style:solid;text-decoration-color:#000000;letter-spacing:normal;word-spacing:normal;text-transform:none;writing-mode:lr-tb;direction:ltr;text-orientation:mixed;dominant-baseline:auto;baseline-shift:baseline;text-anchor:start;white-space:normal;shape-padding:0;clip-rule:nonzero;display:inline;overflow:visible;visibility:visible;isolation:auto;mix-blend-mode:normal;color-interpolation:sRGB;color-interpolation-filters:linearRGB;solid-color:#000000;solid-opacity:1;fill:#888a85;fill-opacity:1;fill-rule:nonzero;stroke:none;stroke-width:2.62759;stroke-linecap:butt;stroke-linejoin:miter;stroke-miterlimit:4;stroke-dasharray:none;stroke-dashoffset:0;stroke-opacity:1;color-rendering:auto;image-rendering:auto;shape-rendering:auto;text-rendering:auto;enable-background:accumulate"
       d="m -3.240315,-15.281625 c -1.463519,0.01739 -2.872126,0.282129 -4.218696,0.915255 -1.346568,0.633125 -2.557164,1.546343 -3.438047,2.773455 -0.880883,1.227135 -1.420553,2.842844 -1.261582,4.599742 l 1.716639,-0.261541 c -0.09462,-1.046062 0.184278,-1.9342207 0.810077,-2.805989 0.625799,-0.871743 1.635403,-2.063166 2.787139,-2.604674 1.839427,-0.864864 4.621052,-0.846039 6.403183,-0.319307 -1.633616,1.127496 -3.025857,3.1133749 -3.113302,4.955011 -0.05389,1.136139 -0.07128,2.499696 0.213087,3.973694 0.345309,1.789208 1.409451,3.088341 2.356322,3.962468 0.698367,0.644873 1.697342,0.937756 2.780458,0.571087 1.325062,-0.4485 2.617987,-1.979073 3.118791,-4.593533 0.191976,-1.00178 0.220537,-1.73231 0.187009,-3.185149 -0.03203,-1.383673 -0.444153,-2.753512 -1.075714,-3.856869 0.618249,0.311981 1.11781,0.713219 1.454552,1.2582793 C 6.047683,-8.980169 6.34901,-7.655778 6.448103,-6.011882 6.367883,-3.630725 6.269537,3.755511 3.337707,9.278007 l 2.217268,0.0075 C 7.523495,4.691776 8.219205,-1.545505 8.170677,-6.184387 8.056435,-8.080487 7.706084,-9.8795049 6.826914,-11.302591 5.947722,-12.725702 4.553865,-13.649724 2.689555,-13.87796 2.35644,-13.91869 1.927932,-13.9326 1.491129,-13.91198 c -0.169625,-0.120451 -0.344142,-0.290647 -0.508676,-0.391578 -1.517784,-0.882671 -2.918643,-0.984048 -4.222768,-0.978063 z m 4.75849,4.035087 c 0.388995,0.366296 0.757401,0.781914 1.062974,1.2756146 0.435313,0.7032609 0.770788,1.8594664 0.791004,2.7363264 0.03254,1.41119 0.02484,1.733875 -0.137091,2.576908 -0.378241,1.974505 -1.174634,2.723263 -1.87628,2.960738 -0.555491,0.188004 -1.154543,-0.05389 -1.34257,-0.227491 -0.692061,-0.638937 -1.250557,-1.503304 -1.480779,-2.696118 -0.221034,-1.145279 -0.222773,-2.289068 -0.124923,-3.129418 0.155718,-1.3405848 0.985489,-2.920754 1.965614,-3.582912 0.477533,-0.254438 0.750149,-0.243634 1.1421,0.08643 z"
       id="path915-0"
       inkscape:connector-curvature="0"
       sodipodi:nodetypes="cssccsscssccsscsccccssccccssccsscccc" />
    <path
       id="path27858-9"
       style="fill:#eeeeec;fill-opacity:1;stroke-width:0.291021;stroke-linecap:round;stroke-linejoin:round"
       d="m -23.613948,0.356076 a 1.7191477,1.7191477 0 0 1 -1.719147,1.719148 1.7191477,1.7191477 0 0 1 -1.719148,-1.719148 1.7191477,1.7191477 0 0 1 1.719148,-1.719148 1.7191477,1.7191477 0 0 1 1.719147,1.719148 z" />
    <path
       style="fill:#2e3436;fill-opacity:1;stroke:#ffffff;stroke-width:0;stroke-linecap:butt;stroke-linejoin:miter;stroke-miterlimit:4;stroke-dasharray:none;stroke-dashoffset:0;stroke-opacity:0.490196"
       d="m 1.863558,8.730937 h 4.127227 c 1.234686,0 2.228694,0.994031 2.228694,2.228692 v 6.773749 c 0,1.23466 -0.994008,2.228692 -2.228694,2.228692 H 1.863558 c -1.234686,0 -2.228692,-0.994032 -2.228692,-2.228692 v -6.773749 c 0,-1.234661 0.994006,-2.228692 2.228692,-2.228692 z"
       id="path911-7"
       inkscape:connector-curvature="0" />
  </g>
  <g
     id="g4997"
     transform="matrix(0.5625,0,0,0.5625,-13.106493,29.264114)"
     style="stroke-width:1.77777">
    <path
       id="path3760-7"
       style="color:#000000;fill:#8f5902;fill-opacity:1;stroke-width:2.05887;stroke-linecap:round;stroke-linejoin:round"
       d="m 90.160521,7.2158612 c -0.195148,-7.2e-5 -0.391222,0.0023 -0.588247,0.0076 -4.617316,0.124019 -9.758729,1.787182 -15.245202,5.7361418 L 67.762635,7.7778132 a 0.58005311,0.58005311 0 0 0 -0.01781,-0.01612 c -0.66182,-0.477987 -1.496819,-0.508143 -2.065435,-0.103907 -0.568616,0.404229 -0.880206,1.089681 -0.999637,1.886459 -0.222893,1.4870168 0.357716,3.4507098 1.93184,5.1775828 -1.291941,1.928268 -1.858043,4.106112 -1.782552,5.774737 0.04014,0.88726 0.216781,1.641087 0.680703,2.173584 0.231962,0.26625 0.569359,0.469674 0.945775,0.502151 0.376414,0.03247 0.747681,-0.0942 1.087852,-0.318933 a 0.58005311,0.58005311 0 0 0 0.06574,-0.04962 c 1.268164,-1.123471 2.761128,-2.896547 4.051136,-4.202545 0.645005,-0.653001 1.246014,-1.186137 1.662528,-1.434355 0.201027,-0.1198 0.345642,-0.156368 0.388913,-0.160314 l 3.010785,5.077916 a 0.58005311,0.58005311 0 0 0 0.0089,0.01569 c 1.93689,3.052532 6.741443,5.772355 11.744142,7.220117 2.501349,0.72388 5.053446,1.114477 7.337596,0.995395 2.284151,-0.119082 4.328339,-0.748601 5.713659,-2.148986 a 0.58005311,0.58005311 0 0 0 0.0136,-0.01357 l 6.93978,-7.522933 a 0.58005311,0.58005311 0 0 0 -0.28078,-0.954674 l -2.7279,-0.705726 2.54935,-3.067192 a 0.58005311,0.58005311 0 0 0 -0.0475,-0.791821 c -0.6609,-0.624706 -1.37495,-1.252896 -2.13836,-1.867803 0.0826,-1.494281 -0.23652,-2.881571 -0.86053,-3.9557118 -0.64127,-1.103869 -1.64317,-1.899366 -2.8475,-1.983581 -1.20432,-0.08422 -2.309486,0.564071 -3.098146,1.56795 -0.0419,0.05333 -0.08308,0.107878 -0.123416,0.163284 -1.499857,-0.632312 -3.09844,-1.135864 -4.790793,-1.451743 -1.268028,-0.23668 -2.587984,-0.366778 -3.954014,-0.367283 z" />
    <path
       id="path3764-0"
       style="color:#000000;fill:#2e3436;fill-opacity:1;stroke-width:2.05887;stroke-linecap:round;stroke-linejoin:round"
       d="m 80.227769,5.4345822 c -0.286723,3.35e-4 -0.575389,0.0224 -0.863495,0.0632 -1.024377,0.145053 -2.040364,0.52887 -2.915784,1.017873 -0.875419,0.489 -1.621096,1.0909 -2.112512,1.768555 -0.491412,0.677657 -0.746557,1.528113 -0.368555,2.2779158 0.07472,0.147533 0.208713,0.25616 0.368555,0.298577 l 2.17104,0.390185 c 0.207731,0.05493 0.434564,-0.01508 0.636595,-0.137413 0.615246,-0.3623 1.923037,-1.1802308 2.27622,-0.707422 0.496209,0.804697 1.068152,1.627653 1.606968,2.43611 0.257921,0.344102 0.787626,0.298012 0.981824,-0.08567 l 1.320691,-2.603636 2.940807,3.004 c 0.24033,0.246883 0.641624,0.231089 0.861799,-0.03393 l 2.802545,-3.3725538 1.67822,3.5761278 c 0.19729,0.420095 0.783694,0.449692 1.022538,0.05175 l 1.88646,-3.155408 1.339776,3.817874 c 0.161142,0.351568 0.614408,0.44997 0.906756,0.196789 l 0.834656,-1.197698 c 0.0034,-0.08194 0.0074,-0.164249 0.01314,-0.246834 0.102795,-1.470061 0.577743,-2.788623 1.305423,-3.7784318 -3.791585,-1.699862 -8.65572,-2.382363 -13.716271,-1.254105 -0.966077,-0.205501 -1.919435,-1.245816 -2.866587,-1.855499 -0.658942,-0.330439 -1.378074,-0.471196 -2.110816,-0.470343 z" />
    <path
       style="color:#000000;fill:#2e3436;fill-opacity:1;stroke-width:2.05887;stroke-linecap:round;stroke-linejoin:round"
       d="m 77.093284,21.365153 -2.169201,0.275957 c -0.01668,0.0015 -0.03328,0.0038 -0.04976,0.0068 -0.599416,0.129853 -1.100994,0.476055 -1.287044,0.981682 -0.186051,0.505628 -0.07128,1.02274 0.14024,1.515501 0.423052,0.985523 1.312662,2.024524 2.338847,3.008382 1.026184,0.983859 2.186671,1.885895 3.182552,2.474564 0.497941,0.294335 0.947852,0.513087 1.372998,0.619772 0.212574,0.05334 0.422241,0.08508 0.658225,0.04298 0.235985,-0.0421 0.515151,-0.205285 0.651439,-0.452389 l -0.307624,0.262385 3.526367,-1.298355 c 0.470259,-0.17304 0.514643,-0.820757 0.07238,-1.056326 -3.16168,-1.689689 -5.940369,-3.569029 -7.566194,-6.118551 -0.121117,-0.189119 -0.340519,-0.29133 -0.563224,-0.262386 z"
       id="path3768-2"
       sodipodi:nodetypes="cccssssssccccccc" />
    <path
       style="color:#000000;fill:#2e3436;fill-opacity:1;stroke-width:2.05887;stroke-linecap:round;stroke-linejoin:round"
       d="m 97.473377,29.137184 -5.150441,0.332505 c -0.409123,0.02654 -0.662337,0.457595 -0.486317,0.827871 0.492743,1.046956 0.98849,1.831266 1.556215,2.359204 0.567726,0.527939 1.304741,0.790949 1.99277,0.576795 0.113113,-0.03566 0.212587,-0.105122 0.285005,-0.199051 l 2.298133,-2.963143 c 0.305934,-0.394797 0.0031,-0.965923 -0.495365,-0.934181 z"
       id="path3770-1"
       sodipodi:nodetypes="cccscccc" />
    <path
       style="color:#000000;fill:#2e3436;fill-opacity:1;stroke-width:2.05887;stroke-linecap:round;stroke-linejoin:round"
       d="m 90.551836,14.549924 c -0.544178,0.302295 -0.858366,0.849214 -1.140019,1.517763 -0.281651,0.668548 -0.485123,1.473455 -0.547389,2.307179 -0.06226,0.833724 0.01352,1.700657 0.343815,2.474565 0.330299,0.773907 0.948333,1.450631 1.857054,1.782409 0.174276,0.06367 0.368492,0.04013 0.522508,-0.06334 l 2.537899,-1.714552 c 0.221024,-0.149474 0.31157,-0.430446 0.219408,-0.680845 -0.199653,-0.542556 -0.355122,-1.027063 -0.348339,-1.431809 0.0068,-0.404746 0.121408,-0.757906 0.635606,-1.221448 0.290775,-0.261219 0.245206,-0.729413 -0.09048,-0.929658 l -3.41327,-2.031223 c -0.177031,-0.10518 -0.396557,-0.10862 -0.576795,-0.009 z"
       id="path3772-2"
       sodipodi:nodetypes="cssscccccccccc" />
    <path
       id="path3774-2"
       style="color:#000000;fill:#2e3436;fill-opacity:1;stroke-width:2.05887;stroke-linecap:round;stroke-linejoin:round"
       d="m 83.530346,12.161879 a 0.57999511,0.57999511 0 0 0 -0.06532,0.0038 0.57999511,0.57999511 0 0 0 -0.388913,0.217146 c -0.400316,0.505805 -0.985328,1.061795 -1.178613,1.900031 -0.193284,0.838236 0.166985,1.816536 1.255377,2.825447 a 0.57999511,0.57999511 0 0 0 0.821086,-0.03181 0.57999511,0.57999511 0 0 0 -0.03139,-0.818964 c -0.932884,-0.864758 -1.005007,-1.319437 -0.913966,-1.714269 0.09104,-0.394832 0.507997,-0.871386 0.958922,-1.441139 a 0.57999511,0.57999511 0 0 0 -0.095,-0.814299 0.57999511,0.57999511 0 0 0 -0.362194,-0.125962 z m -2.569707,4.514693 a 0.57999511,0.57999511 0 0 0 -0.451682,0.221389 c -0.464691,0.592666 -0.829556,1.288392 -0.732868,2.073917 0.09669,0.785524 0.647237,1.505047 1.635383,2.169343 a 0.57999511,0.57999511 0 0 0 0.804969,-0.156075 0.57999511,0.57999511 0 0 0 -0.158195,-0.805391 c -0.836545,-0.562381 -1.088984,-1.008112 -1.131112,-1.35038 -0.04213,-0.342267 0.118677,-0.73694 0.493245,-1.214662 a 0.57999511,0.57999511 0 0 0 -0.09712,-0.814299 0.57999511,0.57999511 0 0 0 -0.362617,-0.123842 z m 5.987642,4.150805 a 0.57999511,0.57999511 0 0 0 -0.192124,0.02672 0.57999511,0.57999511 0 0 0 -0.341411,0.285005 c -0.310815,0.598933 -0.587199,1.244655 -0.592488,1.965344 -0.0053,0.720691 0.310765,1.479203 1.004301,2.130749 a 0.57999511,0.57999511 0 0 0 0.818542,-0.0246 0.57999511,0.57999511 0 0 0 -0.0246,-0.821085 c -0.51494,-0.483762 -0.640909,-0.861143 -0.637867,-1.275735 0.003,-0.414592 0.185226,-0.9048 0.463557,-1.44114 a 0.57999511,0.57999511 0 0 0 -0.248954,-0.78037 0.57999511,0.57999511 0 0 0 -0.248955,-0.06489 z" />
    <path
       id="ellipse3782-5"
       style="color:#000000;fill:#729fcf;fill-opacity:1;stroke-width:2.05887;stroke-linecap:round;stroke-linejoin:round"
       d="m 96.54386,-4.812436 c -1.054949,0 -1.882218,0.9115753 -1.882218,1.9746748 0,1.0630994 0.827269,1.9772195 1.882218,1.9772195 1.05495,0 1.881794,-0.9141201 1.881794,-1.9772195 0,-1.0630995 -0.826844,-1.9746748 -1.881794,-1.9746748 z m 5.93293,3.7211762 c -0.74304,0 -1.40396,0.3915913 -1.84786,0.9589219 -0.4439,0.5673301 -0.698942,1.3165921 -0.698943,2.1328691 0,0.816277 0.255043,1.565964 0.698943,2.133294 0.4439,0.567331 1.10482,0.958921 1.84786,0.958921 0.74304,0 1.40185,-0.39159 1.84575,-0.958921 0.44389,-0.56733 0.69894,-1.317017 0.69894,-2.133294 0,-0.816277 -0.25505,-1.565539 -0.69894,-2.1328691 -0.4439,-0.5673306 -1.10271,-0.9589219 -1.84575,-0.9589219 z m -5.426538,4.064709 c -1.141006,0 -2.006057,1.021036 -2.006058,2.187156 10e-7,1.16612 0.865052,2.1897 2.006058,2.1897 1.141008,0 2.004363,-1.02358 2.004363,-2.1897 0,-1.16612 -0.863355,-2.187156 -2.004363,-2.187156 z" />
    <ellipse
       style="fill:#eeeeec;fill-opacity:1;stroke-width:0.62992"
       id="path5257"
       cx="101.95551"
       cy="13.138564"
       rx="4.3398786"
       ry="6.0389824" />
    <path
       style="color:#000000;fill:#2e3436;fill-opacity:1;stroke-width:3.01439;stroke-linecap:round;stroke-linejoin:round"
       d="m 101.94972,9.8870192 c -0.41557,0 -0.77383,0.2090108 -1.01007,0.4437668 -0.23624,0.234759 -0.39046,0.505014 -0.51663,0.801437 -0.25234,0.592844 -0.37753,1.305904 -0.37753,2.089686 0,0.783782 0.12519,1.496842 0.37753,2.089687 0.12617,0.296422 0.28039,0.566678 0.51663,0.801437 0.23624,0.234755 0.5945,0.443767 1.01007,0.443767 0.41557,0 0.77383,-0.209012 1.01007,-0.443767 0.23625,-0.234759 0.39377,-0.505015 0.51994,-0.801437 0.25234,-0.592845 0.37754,-1.305905 0.37753,-2.089687 0,-0.783782 -0.12518,-1.496842 -0.37753,-2.089686 -0.12617,-0.296423 -0.28369,-0.566678 -0.51994,-0.801437 -0.23624,-0.234756 -0.5945,-0.4437668 -1.01007,-0.4437668 z"
       id="ellipse3780-3"
       sodipodi:nodetypes="sssssssssssss" />
  </g>
</svg>
