<?xml version="1.0" encoding="UTF-8" standalone="no"?>
<svg
   fill="none"
   viewBox="0 0 48 48"
   height="256"
   width="256"
   version="1.1"
   id="svg6"
   sodipodi:docname="pyocd.svg"
   inkscape:version="1.2.1 (9c6d41e410, 2022-07-14)"
   xmlns:inkscape="http://www.inkscape.org/namespaces/inkscape"
   xmlns:sodipodi="http://sodipodi.sourceforge.net/DTD/sodipodi-0.dtd"
   xmlns="http://www.w3.org/2000/svg"
   xmlns:svg="http://www.w3.org/2000/svg">
  <defs
     id="defs10" />
  <sodipodi:namedview
     id="namedview8"
     pagecolor="#ffffff"
     bordercolor="#666666"
     borderopacity="1.0"
     inkscape:showpageshadow="2"
     inkscape:pageopacity="0.0"
     inkscape:pagecheckerboard="true"
     inkscape:deskcolor="#d1d1d1"
     showgrid="true"
     inkscape:zoom="1.6191406"
     inkscape:cx="-12.661038"
     inkscape:cy="118.27262"
     inkscape:current-layer="svg6"
     showguides="false"
     inkscape:window-width="1920"
     inkscape:window-height="730"
     inkscape:window-x="-6"
     inkscape:window-y="-6"
     inkscape:window-maximized="1">
    <inkscape:grid
       type="xygrid"
       id="grid239"
       units="px"
       spacingx="1.5"
       spacingy="1.5" />
  </sodipodi:namedview>
  <path
     id="rect2070"
     style="fill:#edd400;fill-opacity:1;stroke-width:0.1875;stroke-linecap:round;stroke-linejoin:round"
     d="m 36.099609,12.999756 h 4.400025 c 3.046967,0 5.500122,4.90594 5.500122,10.999878 0,6.093937 -2.453155,11.000244 -5.500122,11.000244 H 34.999878 24 v 1.099731 h 10.999878 v 4.400025 c 0,3.046969 -4.905954,5.500122 -10.999878,5.500122 -6.093934,0 -11.000244,-2.453153 -11.000244,-5.500122 v -5.499756 c 0,-2.72706 0.173496,-4.753862 0.541626,-6.226318 0.368109,-1.472469 0.91093,-2.371135 1.658569,-2.969239 1.495269,-1.196011 4.125044,-1.254638 8.25,-1.254638 4.674955,0 7.796681,0.06267 9.882569,-1.482422 1.042938,-0.772549 1.749744,-1.942772 2.174194,-3.56836 0.424469,-1.625582 0.592895,-3.726254 0.592895,-6.499145 z m -6.049804,25.465576 c -1.123559,2.33e-4 -2.034428,0.91074 -2.034668,2.034302 2.4e-4,1.123562 0.911109,2.034435 2.034668,2.034668 1.123559,-2.39e-4 2.034428,-0.91111 2.034668,-2.034668 -2.4e-4,-1.123558 -0.911109,-2.034063 -2.034668,-2.034302 z"
     sodipodi:nodetypes="csssccccssssccssccccccc" />
  <path
     id="rect1964"
     style="fill:#204a87;fill-opacity:1;stroke-width:0.1875;stroke-linecap:round;stroke-linejoin:round"
     d="m 23.999634,1.9998779 c 6.093931,0 11.000244,2.4531531 11.000244,5.5001221 v 5.499756 c 0,2.727061 -0.175511,4.751588 -0.558838,6.219726 -0.383344,1.468133 -0.948187,2.360214 -1.761475,2.962647 -1.626578,1.204856 -4.554658,1.267822 -9.229614,1.267822 -4.124958,0 -6.995546,-0.05853 -8.937744,1.495239 -0.971105,0.776879 -1.631172,1.940882 -2.036499,3.562134 -0.405268,1.621264 -0.57605,3.719664 -0.57605,6.492554 H 7.5 c -3.046969,0 -5.5001221,-4.906307 -5.5001221,-11.000244 0,-6.093938 2.4531531,-10.999878 5.5001221,-10.999878 h 5.499756 10.999878 V 11.899658 H 12.999756 V 7.5 c 0,-3.046969 4.905946,-5.5001221 10.999878,-5.5001221 z M 17.949829,5.465332 C 16.826187,5.4655114 15.91534,6.3763582 15.915161,7.5 15.915543,8.6234988 16.82633,9.5341225 17.949829,9.5343018 19.073328,9.5341225 19.984115,8.6234988 19.984497,7.5 19.984318,6.3763582 19.073471,5.4655114 17.949829,5.465332 Z"
     sodipodi:nodetypes="sssccscccsssccccssccccc" />
</svg>
