<?xml version="1.0" encoding="UTF-8" standalone="no"?>
<svg
   fill="none"
   viewBox="0 0 48 48"
   height="256"
   width="256"
   version="1.1"
   id="svg6"
   sodipodi:docname="pyocd_gdb.svg"
   inkscape:version="1.2.1 (9c6d41e410, 2022-07-14)"
   xmlns:inkscape="http://www.inkscape.org/namespaces/inkscape"
   xmlns:sodipodi="http://sodipodi.sourceforge.net/DTD/sodipodi-0.dtd"
   xmlns="http://www.w3.org/2000/svg"
   xmlns:svg="http://www.w3.org/2000/svg">
  <defs
     id="defs10" />
  <sodipodi:namedview
     id="namedview8"
     pagecolor="#ffffff"
     bordercolor="#666666"
     borderopacity="1.0"
     inkscape:showpageshadow="2"
     inkscape:pageopacity="0.0"
     inkscape:pagecheckerboard="true"
     inkscape:deskcolor="#d1d1d1"
     showgrid="true"
     inkscape:zoom="2.2898106"
     inkscape:cx="50.222494"
     inkscape:cy="122.49921"
     inkscape:current-layer="svg6"
     showguides="false"
     inkscape:window-width="1920"
     inkscape:window-height="730"
     inkscape:window-x="-6"
     inkscape:window-y="-6"
     inkscape:window-maximized="1">
    <inkscape:grid
       type="xygrid"
       id="grid239"
       units="px"
       spacingx="1.5"
       spacingy="1.5" />
  </sodipodi:namedview>
  <path
     id="rect2070"
     style="fill:#edd400;fill-opacity:1;stroke-width:0.140625;stroke-linecap:round;stroke-linejoin:round"
     d="m 25.574798,8.2499086 h 3.300019 c 2.285225,0 4.125092,3.6794554 4.125092,8.2499084 0,4.570453 -1.839867,8.250183 -4.125092,8.250183 H 24.75 16.500092 v 0.824798 H 24.75 v 3.300019 c 0,2.285227 -3.679465,4.125092 -8.249908,4.125092 -4.570451,0 -8.2501834,-1.839865 -8.2501834,-4.125092 V 24.75 c 0,-2.045295 0.130122,-3.565396 0.4062195,-4.669738 0.2760817,-1.104352 0.6831975,-1.778352 1.2439267,-2.22693 1.1214522,-0.897008 3.0937832,-0.940978 6.1875002,-0.940978 3.506216,0 5.847511,0.047 7.411927,-1.111817 0.782203,-0.579411 1.312308,-1.457079 1.630645,-2.67627 0.318352,-1.219186 0.444671,-2.79469 0.444671,-4.8743584 z M 21.037445,27.349091 c -0.842669,1.74e-4 -1.525821,0.683055 -1.526001,1.525726 1.8e-4,0.842672 0.683332,1.525826 1.526001,1.526001 0.84267,-1.79e-4 1.525821,-0.683332 1.526001,-1.526001 -1.8e-4,-0.842668 -0.683331,-1.525547 -1.526001,-1.525726 z"
     sodipodi:nodetypes="csssccccssssccssccccccc" />
  <path
     id="rect1964"
     style="fill:#204a87;fill-opacity:1;stroke-width:0.140625;stroke-linecap:round;stroke-linejoin:round"
     d="M 16.499817,0 C 21.070265,0 24.75,1.8398648 24.75,4.1250916 v 4.124817 c 0,2.0452954 -0.131633,3.5636914 -0.419128,4.6647944 -0.287508,1.1011 -0.711141,1.770161 -1.321107,2.221985 -1.219933,0.903642 -3.415993,0.950867 -6.92221,0.950867 -3.093719,0 -5.24666,-0.0439 -6.7033082,1.121429 C 8.655918,17.791643 8.1608678,18.664646 7.8568725,19.880585 7.5529215,21.096533 7.424835,22.670333 7.424835,24.75 H 4.1250915 C 1.8398648,24.75 4.9999998e-8,21.07027 4.9999998e-8,16.499817 4.9999998e-8,11.929364 1.8398648,8.2499086 4.1250915,8.2499086 H 8.2499086 16.499817 V 7.4248351 H 8.2499086 V 4.1250916 C 8.2499086,1.8398648 11.929368,0 16.499817,0 Z m -4.537354,2.5990906 c -0.842731,1.345e-4 -1.525866,0.6832696 -1.526001,1.526001 2.87e-4,0.8426241 0.683377,1.5255918 1.526001,1.5257263 0.842625,-1.345e-4 1.525715,-0.6831022 1.526001,-1.5257263 -1.34e-4,-0.8427314 -0.683269,-1.5258665 -1.526001,-1.526001 z"
     sodipodi:nodetypes="sssccscccsssccccssccccc" />
  <g
     id="g4997"
     transform="matrix(0.5625,0,0,0.5625,-13.206154,29.248934)"
     style="stroke-width:1.77777">
    <path
       id="path3760-7"
       style="color:#000000;fill:#8f5902;fill-opacity:1;stroke-width:2.05887;stroke-linecap:round;stroke-linejoin:round"
       d="m 90.160521,7.2158612 c -0.195148,-7.2e-5 -0.391222,0.0023 -0.588247,0.0076 -4.617316,0.124019 -9.758729,1.787182 -15.245202,5.7361418 L 67.762635,7.7778132 a 0.58005311,0.58005311 0 0 0 -0.01781,-0.01612 c -0.66182,-0.477987 -1.496819,-0.508143 -2.065435,-0.103907 -0.568616,0.404229 -0.880206,1.089681 -0.999637,1.886459 -0.222893,1.4870168 0.357716,3.4507098 1.93184,5.1775828 -1.291941,1.928268 -1.858043,4.106112 -1.782552,5.774737 0.04014,0.88726 0.216781,1.641087 0.680703,2.173584 0.231962,0.26625 0.569359,0.469674 0.945775,0.502151 0.376414,0.03247 0.747681,-0.0942 1.087852,-0.318933 a 0.58005311,0.58005311 0 0 0 0.06574,-0.04962 c 1.268164,-1.123471 2.761128,-2.896547 4.051136,-4.202545 0.645005,-0.653001 1.246014,-1.186137 1.662528,-1.434355 0.201027,-0.1198 0.345642,-0.156368 0.388913,-0.160314 l 3.010785,5.077916 a 0.58005311,0.58005311 0 0 0 0.0089,0.01569 c 1.93689,3.052532 6.741443,5.772355 11.744142,7.220117 2.501349,0.72388 5.053446,1.114477 7.337596,0.995395 2.284151,-0.119082 4.328339,-0.748601 5.713659,-2.148986 a 0.58005311,0.58005311 0 0 0 0.0136,-0.01357 l 6.93978,-7.522933 a 0.58005311,0.58005311 0 0 0 -0.28078,-0.954674 l -2.7279,-0.705726 2.54935,-3.067192 a 0.58005311,0.58005311 0 0 0 -0.0475,-0.791821 c -0.6609,-0.624706 -1.37495,-1.252896 -2.13836,-1.867803 0.0826,-1.494281 -0.23652,-2.881571 -0.86053,-3.9557118 -0.64127,-1.103869 -1.64317,-1.899366 -2.8475,-1.983581 -1.20432,-0.08422 -2.309486,0.564071 -3.098146,1.56795 -0.0419,0.05333 -0.08308,0.107878 -0.123416,0.163284 -1.499857,-0.632312 -3.09844,-1.135864 -4.790793,-1.451743 -1.268028,-0.23668 -2.587984,-0.366778 -3.954014,-0.367283 z" />
    <path
       id="path3764-0"
       style="color:#000000;fill:#2e3436;fill-opacity:1;stroke-width:2.05887;stroke-linecap:round;stroke-linejoin:round"
       d="m 80.227769,5.4345822 c -0.286723,3.35e-4 -0.575389,0.0224 -0.863495,0.0632 -1.024377,0.145053 -2.040364,0.52887 -2.915784,1.017873 -0.875419,0.489 -1.621096,1.0909 -2.112512,1.768555 -0.491412,0.677657 -0.746557,1.528113 -0.368555,2.2779158 0.07472,0.147533 0.208713,0.25616 0.368555,0.298577 l 2.17104,0.390185 c 0.207731,0.05493 0.434564,-0.01508 0.636595,-0.137413 0.615246,-0.3623 1.923037,-1.1802308 2.27622,-0.707422 0.496209,0.804697 1.068152,1.627653 1.606968,2.43611 0.257921,0.344102 0.787626,0.298012 0.981824,-0.08567 l 1.320691,-2.603636 2.940807,3.004 c 0.24033,0.246883 0.641624,0.231089 0.861799,-0.03393 l 2.802545,-3.3725538 1.67822,3.5761278 c 0.19729,0.420095 0.783694,0.449692 1.022538,0.05175 l 1.88646,-3.155408 1.339776,3.817874 c 0.161142,0.351568 0.614408,0.44997 0.906756,0.196789 l 0.834656,-1.197698 c 0.0034,-0.08194 0.0074,-0.164249 0.01314,-0.246834 0.102795,-1.470061 0.577743,-2.788623 1.305423,-3.7784318 -3.791585,-1.699862 -8.65572,-2.382363 -13.716271,-1.254105 -0.966077,-0.205501 -1.919435,-1.245816 -2.866587,-1.855499 -0.658942,-0.330439 -1.378074,-0.471196 -2.110816,-0.470343 z" />
    <path
       style="color:#000000;fill:#2e3436;fill-opacity:1;stroke-width:2.05887;stroke-linecap:round;stroke-linejoin:round"
       d="m 77.093284,21.365153 -2.169201,0.275957 c -0.01668,0.0015 -0.03328,0.0038 -0.04976,0.0068 -0.599416,0.129853 -1.100994,0.476055 -1.287044,0.981682 -0.186051,0.505628 -0.07128,1.02274 0.14024,1.515501 0.423052,0.985523 1.312662,2.024524 2.338847,3.008382 1.026184,0.983859 2.186671,1.885895 3.182552,2.474564 0.497941,0.294335 0.947852,0.513087 1.372998,0.619772 0.212574,0.05334 0.422241,0.08508 0.658225,0.04298 0.235985,-0.0421 0.515151,-0.205285 0.651439,-0.452389 l -0.307624,0.262385 3.526367,-1.298355 c 0.470259,-0.17304 0.514643,-0.820757 0.07238,-1.056326 -3.16168,-1.689689 -5.940369,-3.569029 -7.566194,-6.118551 -0.121117,-0.189119 -0.340519,-0.29133 -0.563224,-0.262386 z"
       id="path3768-2"
       sodipodi:nodetypes="cccssssssccccccc" />
    <path
       style="color:#000000;fill:#2e3436;fill-opacity:1;stroke-width:2.05887;stroke-linecap:round;stroke-linejoin:round"
       d="m 97.473377,29.137184 -5.150441,0.332505 c -0.409123,0.02654 -0.662337,0.457595 -0.486317,0.827871 0.492743,1.046956 0.98849,1.831266 1.556215,2.359204 0.567726,0.527939 1.304741,0.790949 1.99277,0.576795 0.113113,-0.03566 0.212587,-0.105122 0.285005,-0.199051 l 2.298133,-2.963143 c 0.305934,-0.394797 0.0031,-0.965923 -0.495365,-0.934181 z"
       id="path3770-1"
       sodipodi:nodetypes="cccscccc" />
    <path
       style="color:#000000;fill:#2e3436;fill-opacity:1;stroke-width:2.05887;stroke-linecap:round;stroke-linejoin:round"
       d="m 90.551836,14.549924 c -0.544178,0.302295 -0.858366,0.849214 -1.140019,1.517763 -0.281651,0.668548 -0.485123,1.473455 -0.547389,2.307179 -0.06226,0.833724 0.01352,1.700657 0.343815,2.474565 0.330299,0.773907 0.948333,1.450631 1.857054,1.782409 0.174276,0.06367 0.368492,0.04013 0.522508,-0.06334 l 2.537899,-1.714552 c 0.221024,-0.149474 0.31157,-0.430446 0.219408,-0.680845 -0.199653,-0.542556 -0.355122,-1.027063 -0.348339,-1.431809 0.0068,-0.404746 0.121408,-0.757906 0.635606,-1.221448 0.290775,-0.261219 0.245206,-0.729413 -0.09048,-0.929658 l -3.41327,-2.031223 c -0.177031,-0.10518 -0.396557,-0.10862 -0.576795,-0.009 z"
       id="path3772-2"
       sodipodi:nodetypes="cssscccccccccc" />
    <path
       id="path3774-2"
       style="color:#000000;fill:#2e3436;fill-opacity:1;stroke-width:2.05887;stroke-linecap:round;stroke-linejoin:round"
       d="m 83.530346,12.161879 a 0.57999511,0.57999511 0 0 0 -0.06532,0.0038 0.57999511,0.57999511 0 0 0 -0.388913,0.217146 c -0.400316,0.505805 -0.985328,1.061795 -1.178613,1.900031 -0.193284,0.838236 0.166985,1.816536 1.255377,2.825447 a 0.57999511,0.57999511 0 0 0 0.821086,-0.03181 0.57999511,0.57999511 0 0 0 -0.03139,-0.818964 c -0.932884,-0.864758 -1.005007,-1.319437 -0.913966,-1.714269 0.09104,-0.394832 0.507997,-0.871386 0.958922,-1.441139 a 0.57999511,0.57999511 0 0 0 -0.095,-0.814299 0.57999511,0.57999511 0 0 0 -0.362194,-0.125962 z m -2.569707,4.514693 a 0.57999511,0.57999511 0 0 0 -0.451682,0.221389 c -0.464691,0.592666 -0.829556,1.288392 -0.732868,2.073917 0.09669,0.785524 0.647237,1.505047 1.635383,2.169343 a 0.57999511,0.57999511 0 0 0 0.804969,-0.156075 0.57999511,0.57999511 0 0 0 -0.158195,-0.805391 c -0.836545,-0.562381 -1.088984,-1.008112 -1.131112,-1.35038 -0.04213,-0.342267 0.118677,-0.73694 0.493245,-1.214662 a 0.57999511,0.57999511 0 0 0 -0.09712,-0.814299 0.57999511,0.57999511 0 0 0 -0.362617,-0.123842 z m 5.987642,4.150805 a 0.57999511,0.57999511 0 0 0 -0.192124,0.02672 0.57999511,0.57999511 0 0 0 -0.341411,0.285005 c -0.310815,0.598933 -0.587199,1.244655 -0.592488,1.965344 -0.0053,0.720691 0.310765,1.479203 1.004301,2.130749 a 0.57999511,0.57999511 0 0 0 0.818542,-0.0246 0.57999511,0.57999511 0 0 0 -0.0246,-0.821085 c -0.51494,-0.483762 -0.640909,-0.861143 -0.637867,-1.275735 0.003,-0.414592 0.185226,-0.9048 0.463557,-1.44114 a 0.57999511,0.57999511 0 0 0 -0.248954,-0.78037 0.57999511,0.57999511 0 0 0 -0.248955,-0.06489 z" />
    <path
       id="ellipse3782-5"
       style="color:#000000;fill:#729fcf;fill-opacity:1;stroke-width:2.05887;stroke-linecap:round;stroke-linejoin:round"
       d="m 96.54386,-4.812436 c -1.054949,0 -1.882218,0.9115753 -1.882218,1.9746748 0,1.0630994 0.827269,1.9772195 1.882218,1.9772195 1.05495,0 1.881794,-0.9141201 1.881794,-1.9772195 0,-1.0630995 -0.826844,-1.9746748 -1.881794,-1.9746748 z m 5.93293,3.7211762 c -0.74304,0 -1.40396,0.3915913 -1.84786,0.9589219 -0.4439,0.5673301 -0.698942,1.3165921 -0.698943,2.1328691 0,0.816277 0.255043,1.565964 0.698943,2.133294 0.4439,0.567331 1.10482,0.958921 1.84786,0.958921 0.74304,0 1.40185,-0.39159 1.84575,-0.958921 0.44389,-0.56733 0.69894,-1.317017 0.69894,-2.133294 0,-0.816277 -0.25505,-1.565539 -0.69894,-2.1328691 -0.4439,-0.5673306 -1.10271,-0.9589219 -1.84575,-0.9589219 z m -5.426538,4.064709 c -1.141006,0 -2.006057,1.021036 -2.006058,2.187156 10e-7,1.16612 0.865052,2.1897 2.006058,2.1897 1.141008,0 2.004363,-1.02358 2.004363,-2.1897 0,-1.16612 -0.863355,-2.187156 -2.004363,-2.187156 z" />
    <ellipse
       style="fill:#eeeeec;fill-opacity:1;stroke-width:0.62992"
       id="path5257"
       cx="101.95551"
       cy="13.138564"
       rx="4.3398786"
       ry="6.0389824" />
    <path
       style="color:#000000;fill:#2e3436;fill-opacity:1;stroke-width:3.01439;stroke-linecap:round;stroke-linejoin:round"
       d="m 101.94972,9.8870192 c -0.41557,0 -0.77383,0.2090108 -1.01007,0.4437668 -0.23624,0.234759 -0.39046,0.505014 -0.51663,0.801437 -0.25234,0.592844 -0.37753,1.305904 -0.37753,2.089686 0,0.783782 0.12519,1.496842 0.37753,2.089687 0.12617,0.296422 0.28039,0.566678 0.51663,0.801437 0.23624,0.234755 0.5945,0.443767 1.01007,0.443767 0.41557,0 0.77383,-0.209012 1.01007,-0.443767 0.23625,-0.234759 0.39377,-0.505015 0.51994,-0.801437 0.25234,-0.592845 0.37754,-1.305905 0.37753,-2.089687 0,-0.783782 -0.12518,-1.496842 -0.37753,-2.089686 -0.12617,-0.296423 -0.28369,-0.566678 -0.51994,-0.801437 -0.23624,-0.234756 -0.5945,-0.4437668 -1.01007,-0.4437668 z"
       id="ellipse3780-3"
       sodipodi:nodetypes="sssssssssssss" />
  </g>
</svg>
