<?xml version="1.0" encoding="UTF-8" standalone="no"?>
<svg
   fill="none"
   viewBox="0 0 48 48"
   height="256"
   width="256"
   version="1.1"
   id="svg8"
   sodipodi:docname="tools.svg"
   inkscape:version="1.2.1 (9c6d41e410, 2022-07-14)"
   xmlns:inkscape="http://www.inkscape.org/namespaces/inkscape"
   xmlns:sodipodi="http://sodipodi.sourceforge.net/DTD/sodipodi-0.dtd"
   xmlns="http://www.w3.org/2000/svg"
   xmlns:svg="http://www.w3.org/2000/svg">
  <defs
     id="defs12" />
  <sodipodi:namedview
     id="namedview10"
     pagecolor="#ffffff"
     bordercolor="#666666"
     borderopacity="1.0"
     inkscape:showpageshadow="2"
     inkscape:pageopacity="0.0"
     inkscape:pagecheckerboard="0"
     inkscape:deskcolor="#d1d1d1"
     showgrid="false"
     inkscape:zoom="0.75820629"
     inkscape:cx="-134.52803"
     inkscape:cy="-5.9350602"
     inkscape:current-layer="svg8"
     inkscape:window-width="1920"
     inkscape:window-height="730"
     inkscape:window-x="-6"
     inkscape:window-y="-6"
     inkscape:window-maximized="1" />
  <path
     id="rect954"
     style="fill:#c4a000;fill-opacity:1;stroke:none;stroke-width:1.875;stroke-linecap:round;stroke-linejoin:round"
     d="m 10.121338,1.9998779 h 1.75708 c 0.3805,0 0.727985,0.2161534 0.896484,0.5573731 l 1.727051,3.4969482 c 0.3092,0.6260794 0.269563,1.3682743 -0.104736,1.9577637 l -1.512451,2.3818361 c 0.0568,1.999598 0.11499,4.844082 0.11499,8.106079 0,4.327196 -0.102291,7.919731 -0.168091,9.780029 -0.0308,0.872299 -0.50359,1.645978 -1.37439,1.705078 -0.139299,0.0095 -0.291397,0.01501 -0.457397,0.01501 -0.1661,0 -0.318098,-0.0055 -0.457398,-0.01501 C 9.671671,29.925885 9.198931,29.152206 9.168091,28.279907 9.102311,26.419609 9,22.827074 9,18.499878 9,15.237881 9.05815,12.393397 9.11499,10.393799 L 7.602539,8.0119629 C 7.228269,7.4224735 7.188623,6.6802886 7.497803,6.0541992 L 9.224854,2.557251 C 9.393353,2.2160313 9.740798,1.9998779 10.121338,1.9998779 Z"
     sodipodi:nodetypes="ssccccsccsccsccccs" />
  <path
     id="rect951"
     style="fill:#204a87;stroke:none;stroke-width:1.875;stroke-linecap:round;stroke-linejoin:round"
     d="m 10.999878,24 c 1.466298,0 2.62558,0.0328 3.525879,0.078 1.634798,0.0819 2.872907,1.315006 3.047607,2.942505 C 17.779564,28.941906 18,31.754881 18,34.999878 c 0,3.244997 -0.220436,6.058072 -0.426636,7.97937 -0.1747,1.627598 -1.412809,2.860871 -3.047607,2.942871 -0.900299,0.0451 -2.059681,0.078 -3.525879,0.078 -1.4662386,0 -2.6252637,-0.0329 -3.5255128,-0.078 -1.6348483,-0.082 -2.8729576,-1.315273 -3.0476074,-2.942871 -0.2061698,-1.921298 -0.4266357,-4.734373 -0.4266357,-7.97937 0,-3.244997 0.2204659,-6.057972 0.4266357,-7.97937 C 4.6014076,25.393009 5.8395369,24.159903 7.4743652,24.078003 8.3746143,24.032803 9.5336094,24 10.999878,24 Z"
     sodipodi:nodetypes="sccsccscssccs" />
  <path
     id="rect347"
     style="fill:#888a85;stroke:none;stroke-width:1.875;stroke-linecap:round;stroke-linejoin:round;fill-opacity:1"
     d="m 27.811523,2.0006104 c 0.499633,-0.016655 0.942578,0.4111496 0.937134,0.9697265 -0.0289,3.004917 -0.01446,6.3415287 0.12854,8.7297361 0.0119,0.1984 0.08407,0.387899 0.216065,0.536499 0.434299,0.4895 1.559786,1.630048 3.092285,2.238648 0.2021,0.0803 0.427683,0.0803 0.629883,0 1.505098,-0.5977 2.618148,-1.708715 3.068847,-2.211914 0.1479,-0.1651 0.220459,-0.379719 0.220459,-0.601319 V 2.9630127 c 0,-0.6826393 0.669966,-1.1626231 1.286866,-0.8704834 3.907296,1.8501281 6.608276,5.8135435 6.608276,10.4044187 0,4.270396 -2.336909,7.997874 -5.808106,9.986573 -0.322899,0.184999 -0.536192,0.517792 -0.541992,0.889892 -0.0683,4.339796 -0.270024,12.104527 -0.864624,20.127319 -0.0884,1.193299 -0.89511,2.206299 -2.081909,2.358399 -0.627699,0.0805 -1.394961,0.141357 -2.28186,0.141357 -0.886999,0 -1.654261,-0.06086 -2.281861,-0.141357 -1.186898,-0.1521 -1.993775,-1.1651 -2.082275,-2.358399 -0.594599,-8.022392 -0.795692,-15.786691 -0.863892,-20.126586 -0.0059,-0.3722 -0.219358,-0.704893 -0.542358,-0.889893 -3.471797,-1.988498 -5.809204,-5.716409 -5.809204,-9.987305 0,-4.5954852 2.706033,-8.5621737 6.619629,-10.4099119 0.116568,-0.055035 0.234798,-0.082582 0.350097,-0.086426 z"
     sodipodi:nodetypes="sccccccsscsscccscccssss" />
</svg>
