<?xml version="1.0" encoding="UTF-8" standalone="no"?>
<svg
   fill="none"
   viewBox="0 0 48 48"
   height="256"
   width="256"
   version="1.1"
   id="svg12"
   sodipodi:docname="save.svg"
   inkscape:version="1.2.1 (9c6d41e410, 2022-07-14)"
   xmlns:inkscape="http://www.inkscape.org/namespaces/inkscape"
   xmlns:sodipodi="http://sodipodi.sourceforge.net/DTD/sodipodi-0.dtd"
   xmlns="http://www.w3.org/2000/svg"
   xmlns:svg="http://www.w3.org/2000/svg">
  <defs
     id="defs16" />
  <sodipodi:namedview
     id="namedview14"
     pagecolor="#ffffff"
     bordercolor="#111111"
     borderopacity="1"
     inkscape:showpageshadow="0"
     inkscape:pageopacity="0"
     inkscape:pagecheckerboard="1"
     inkscape:deskcolor="#d1d1d1"
     showgrid="false"
     inkscape:zoom="0.7582063"
     inkscape:cx="-168.81949"
     inkscape:cy="-7.2539625"
     inkscape:window-width="1920"
     inkscape:window-height="730"
     inkscape:window-x="-6"
     inkscape:window-y="-6"
     inkscape:window-maximized="1"
     inkscape:current-layer="svg12" />
  <path
     fill="#507ab7"
     fill-rule="evenodd"
     d="M35.2195 3.34158C34.2807 2.55994 33.0968 2.14713 31.8757 2.11086C29.5806 2.0427 26.9611 2 24 2C16.1287 2 10.6714 2.30174 7.30406 2.58134C4.74913 2.79349 2.79349 4.74913 2.58134 7.30406C2.30174 10.6714 2 16.1288 2 24C2 31.8713 2.30174 37.3286 2.58134 40.6959C2.79349 43.2509 4.74914 45.2065 7.30406 45.4187C10.6714 45.6983 16.1288 46 24 46C31.8712 46 37.3286 45.6983 40.6959 45.4187C43.2509 45.2065 45.2065 43.2509 45.4187 40.6959C45.6983 37.3286 46 31.8712 46 24C46 21.0389 45.9573 18.4194 45.8891 16.1243C45.8529 14.9032 45.4401 13.7193 44.6584 12.7805C43.6208 11.5342 42.1589 9.90888 40.125 7.875C38.0911 5.84112 36.4658 4.37922 35.2195 3.34158Z"
     clip-rule="evenodd"
     id="path2" />
  <path
     fill="#ffffff"
     fill-rule="evenodd"
     d="M37.5377 45.6417C37.7337 43.6669 38 39.8985 38 34C38 29.0907 37.8155 25.6569 37.6407 23.5048C37.5023 21.8012 36.1987 20.4977 34.4952 20.3593C32.3431 20.1845 28.9093 20 24 20C19.0907 20 15.6569 20.1845 13.5048 20.3593C11.8012 20.4977 10.4977 21.8012 10.3593 23.5048C10.1845 25.6569 10 29.0907 10 34C10 39.8985 10.2663 43.6669 10.4623 45.6417C13.7648 45.8381 18.2349 46 24 46C29.7651 46 34.2352 45.8381 37.5377 45.6417Z"
     clip-rule="evenodd"
     id="path4"
     style="fill:#ffffff;fill-opacity:1" />
  <path
     fill="#ffffff"
     fill-rule="evenodd"
     d="M27.8446 11.9304C29.5393 11.8629 30.8627 10.6186 30.9451 8.92456C30.9779 8.24932 31 7.44412 31 6.5C31 4.32835 30.8831 2.89167 30.7877 2.08114C28.7623 2.03052 26.5032 2 24 2C21.4968 2 19.2377 2.03052 17.2123 2.08114C17.1169 2.89167 17 4.32835 17 6.5C17 7.44412 17.0221 8.24933 17.0549 8.92456C17.1373 10.6186 18.4607 11.8629 20.1554 11.9304C21.1493 11.9701 22.4222 12 24 12C25.5778 12 26.8507 11.9701 27.8446 11.9304Z"
     clip-rule="evenodd"
     id="path6"
     style="fill:#ffffff;fill-opacity:1" />
  <path
     fill="#606668"
     d="M16 37.046C16 36.0362 16.7529 35.1863 17.7599 35.1111C18.5515 35.0521 19.5258 35 20.5 35C21.4742 35 22.4485 35.0521 23.2401 35.1111C24.2471 35.1863 25 36.0362 25 37.046V37.9427C25 38.9571 24.2406 39.8095 23.2288 39.8835C22.4393 39.9412 21.4696 39.9936 20.5 39.9995C19.5212 40.0055 18.5424 39.9537 17.7488 39.8933C16.7465 39.817 16 38.9694 16 37.9642V37.046Z"
     id="path8"
     style="fill:#606668;fill-opacity:1" />
  <path
     fill="#606668"
     d="M16 29.1223C16 28.0804 16.799 27.2164 17.8395 27.1615C19.2818 27.0854 21.4652 27 24 27C26.5348 27 28.7182 27.0854 30.1605 27.1615C31.201 27.2164 32 28.0804 32 29.1223V29.8777C32 30.9196 31.201 31.7836 30.1605 31.8385C28.7182 31.9146 26.5348 32 24 32C21.4652 32 19.2818 31.9146 17.8395 31.8385C16.799 31.7836 16 30.9196 16 29.8777V29.1223Z"
     id="path10"
     style="fill:#606668;fill-opacity:1" />
</svg>
