<?xml version="1.0" encoding="UTF-8" standalone="no"?>
<svg
   fill="none"
   viewBox="0 0 48 48"
   height="256"
   width="256"
   version="1.1"
   id="svg12"
   sodipodi:docname="save_all.svg"
   inkscape:version="1.2.1 (9c6d41e410, 2022-07-14)"
   xmlns:inkscape="http://www.inkscape.org/namespaces/inkscape"
   xmlns:sodipodi="http://sodipodi.sourceforge.net/DTD/sodipodi-0.dtd"
   xmlns="http://www.w3.org/2000/svg"
   xmlns:svg="http://www.w3.org/2000/svg">
  <defs
     id="defs16" />
  <sodipodi:namedview
     id="namedview14"
     pagecolor="#ffffff"
     bordercolor="#666666"
     borderopacity="1.0"
     inkscape:showpageshadow="2"
     inkscape:pageopacity="0.0"
     inkscape:pagecheckerboard="0"
     inkscape:deskcolor="#d1d1d1"
     showgrid="false"
     inkscape:zoom="1.5164126"
     inkscape:cx="211.68381"
     inkscape:cy="121.00928"
     inkscape:current-layer="svg12"
     inkscape:window-width="1920"
     inkscape:window-height="730"
     inkscape:window-x="-6"
     inkscape:window-y="-6"
     inkscape:window-maximized="1" />
  <path
     id="path299"
     style="fill:#507ab7;fill-opacity:1;stroke-width:0.9"
     d="M 19.799927,0 C 12.715764,0 7.804163,0.27167568 4.77356,0.52331543 2.474125,0.71425024 0.71425,2.4741249 0.523315,4.7735596 0.271676,7.8041625 0,12.715854 0,19.799927 c 0,7.084163 0.271676,11.9958 0.523315,15.026367 0.190935,2.299498 1.950819,4.05963 4.250245,4.25061 0.386428,0.03209 0.805341,0.06419 1.25354,0.09631 -0.143936,-2.853092 -0.251587,-6.485718 -0.251587,-10.973877 0,-7.151152 0.272899,-12.133954 0.531006,-15.242432 C 6.598398,9.4417815 9.441786,6.5983948 12.956909,6.3065146 16.065382,6.048409 21.0481,5.7755087 28.199341,5.7755087 c 2.490046,0 4.705807,0.033107 6.682617,0.087158 C 34.697013,5.6744635 34.509165,5.4840166 34.3125,5.2873535 32.481992,3.4568633 31.01913,2.1412725 29.897461,1.2073975 29.052542,0.50392216 27.987295,0.13225234 26.888306,0.09960937 24.822718,0.03826544 22.464914,0 19.799927,0 Z" />
  <path
     fill="#507ab7"
     fill-rule="evenodd"
     d="M 38.29755,9.607422 C 37.45263,8.903946 36.38712,8.532417 35.28813,8.499774 33.22254,8.43843 30.86499,8.4 28.2,8.4 21.11583,8.4 16.20426,8.671566 13.173654,8.923206 10.874217,9.114141 9.114141,10.874217 8.923206,13.173654 8.671566,16.20426 8.4,21.11592 8.4,28.2 c 0,7.08417 0.271566,11.99574 0.523206,15.02631 0.190935,2.2995 1.95102,4.05954 4.250448,4.25052 C 16.20426,47.72847 21.11592,48 28.2,48 c 7.08408,0 11.99574,-0.27153 15.02631,-0.52317 2.2995,-0.19098 4.05954,-1.95102 4.25052,-4.25052 C 47.72847,40.19574 48,35.28408 48,28.2 48,25.53501 47.96157,23.17746 47.90019,21.11187 47.86761,20.01288 47.49609,18.94737 46.79256,18.10245 45.85872,16.98078 44.54301,15.517992 42.7125,13.6875 40.88199,11.857008 39.41922,10.541298 38.29755,9.607422 Z"
     clip-rule="evenodd"
     id="path2"
     style="stroke-width:0.9" />
  <path
     fill="#ffffff"
     fill-rule="evenodd"
     d="M 40.38393,47.67753 C 40.56033,45.90021 40.8,42.50865 40.8,37.2 40.8,32.78163 40.63395,29.69121 40.47663,27.75432 40.35207,26.22108 39.17883,25.04793 37.64568,24.92337 35.70879,24.76605 32.61837,24.6 28.2,24.6 c -4.41837,0 -7.50879,0.16605 -9.44568,0.32337 -1.53324,0.12456 -2.70639,1.29771 -2.83095,2.83095 C 15.76605,29.69121 15.6,32.78163 15.6,37.2 c 0,5.30865 0.23967,8.70021 0.41607,10.47753 C 18.98832,47.85429 23.01141,48 28.2,48 c 5.18859,0 9.21168,-0.14571 12.18393,-0.32247 z"
     clip-rule="evenodd"
     id="path4"
     style="stroke-width:0.9;fill:#ffffff;fill-opacity:1" />
  <path
     fill="#ffffff"
     fill-rule="evenodd"
     d="m 31.66014,17.33736 c 1.52523,-0.06075 2.71629,-1.18062 2.79045,-2.705256 C 34.48011,14.024388 34.5,13.299708 34.5,12.45 34.5,10.495515 34.39479,9.202503 34.30893,8.473026 32.48607,8.427468 30.45288,8.4 28.2,8.4 25.94712,8.4 23.91393,8.427468 22.09107,8.473026 22.00521,9.202503 21.9,10.495515 21.9,12.45 c 0,0.849708 0.01989,1.574397 0.04941,2.182104 0.07416,1.524636 1.26522,2.644506 2.79045,2.705256 C 25.63437,17.37309 26.77998,17.4 28.2,17.4 c 1.42002,0 2.56563,-0.02691 3.46014,-0.06264 z"
     clip-rule="evenodd"
     id="path6"
     style="stroke-width:0.9;fill:#ffffff;fill-opacity:1" />
  <path
     fill="#606668"
     d="m 21,39.9414 c 0,-0.90882 0.67761,-1.67373 1.58391,-1.74141 C 23.29635,38.14689 24.17322,38.1 25.05,38.1 c 0.87678,0 1.75365,0.04689 2.46609,0.09999 0.9063,0.06768 1.58391,0.83259 1.58391,1.74141 v 0.80703 c 0,0.91296 -0.68346,1.68012 -1.59408,1.74672 -0.71055,0.05193 -1.58328,0.09909 -2.45592,0.1044 -0.88092,0.0054 -1.76184,-0.04122 -2.47608,-0.09558 C 21.67185,42.4353 21,41.67246 21,40.76778 Z"
     id="path8"
     style="stroke-width:0.9;fill:#606668;fill-opacity:1" />
  <path
     fill="#606668"
     d="m 21,32.81007 c 0,-0.93771 0.7191,-1.71531 1.65555,-1.76472 C 23.95362,30.97686 25.91868,30.9 28.2,30.9 c 2.28132,0 4.24638,0.07686 5.54445,0.14535 C 34.6809,31.09476 35.4,31.87236 35.4,32.81007 v 0.67986 c 0,0.93771 -0.7191,1.71531 -1.65555,1.76472 C 32.44638,35.32314 30.48132,35.4 28.2,35.4 25.91868,35.4 23.95362,35.32314 22.65555,35.25465 21.7191,35.20524 21,34.42764 21,33.48993 Z"
     id="path10"
     style="stroke-width:0.9;fill:#606668;fill-opacity:1" />
  <path
     id="path1012"
     style="fill:#ffffff;fill-opacity:1;stroke-width:0.9"
     d="m 19.799927,0.00366211 c -2.252878,0 -4.285907,0.02768423 -6.108765,0.07324219 C 13.605302,0.80638057 13.5,2.0991058 13.5,4.0535889 c 0,0.8497071 0.01992,1.5745446 0.04944,2.1822509 4.01e-4,0.00823 10e-4,0.016334 0.0015,0.024536 2.792012,-0.2169381 6.8963,-0.431634 12.518921,-0.4760742 0.01862,-0.5065623 0.03003,-1.0819838 0.03003,-1.7307129 0,-1.9544831 -0.104936,-3.24720833 -0.190796,-3.9766846 -1.822896,-0.04555776 -3.85629,-0.07324199 -6.109168,-0.07324199 z" />
</svg>
