<?xml version="1.0" encoding="UTF-8" standalone="no"?>
<svg
   fill="none"
   viewBox="0 0 48 48"
   height="256"
   width="256"
   version="1.1"
   id="svg6"
   sodipodi:docname="adapter.svg"
   inkscape:version="1.2.1 (9c6d41e410, 2022-07-14)"
   xmlns:inkscape="http://www.inkscape.org/namespaces/inkscape"
   xmlns:sodipodi="http://sodipodi.sourceforge.net/DTD/sodipodi-0.dtd"
   xmlns="http://www.w3.org/2000/svg"
   xmlns:svg="http://www.w3.org/2000/svg">
  <defs
     id="defs10" />
  <sodipodi:namedview
     id="namedview8"
     pagecolor="#ffffff"
     bordercolor="#666666"
     borderopacity="1.0"
     inkscape:showpageshadow="2"
     inkscape:pageopacity="0.0"
     inkscape:pagecheckerboard="true"
     inkscape:deskcolor="#d1d1d1"
     showgrid="true"
     inkscape:zoom="1.6191406"
     inkscape:cx="167.99035"
     inkscape:cy="104.68516"
     inkscape:current-layer="svg6"
     showguides="false"
     inkscape:window-width="1920"
     inkscape:window-height="730"
     inkscape:window-x="-6"
     inkscape:window-y="-6"
     inkscape:window-maximized="1">
    <inkscape:grid
       type="xygrid"
       id="grid239"
       units="px"
       spacingx="1.5"
       spacingy="1.5" />
  </sodipodi:namedview>
  <path
     id="rect897"
     style="fill:#77c32f;fill-opacity:1;stroke:none;stroke-width:0.363088;stroke-linejoin:round;stroke-opacity:0.580986"
     d="m 34.545776,2.295961 c 5.120294,0.2698197 9.013548,4.1634678 9.283448,9.283814 C 43.89357,14.286632 43.5,19.5 43.5,21 c 0,7.5 -9.017269,12.299775 -10.5,15 0,4.5 -0.83393,9.434609 -5.954224,9.704409 H 20.95459 C 15.834265,45.434609 15,40.5 15,36 13.5,33 4.5,28.35461 4.5,21 4.5,19.5 4.2587476,14.586444 4.170776,11.579775 4.440586,6.4594388 8.334255,2.5657707 13.45459,2.295961 Z"
     sodipodi:nodetypes="ccsccccsccc" />
  <path
     style="fill:#606668;fill-opacity:1;stroke-width:0.425197;stroke-linejoin:round;stroke-opacity:0.580986"
     d="m 8.25,0 h 31.5 c 1.5,0 3,1.5 3,3 v 5.25 c 0,1.5 -1.5,3 -3,3 H 8.25 c -1.5,0 -3,-1.5 -3,-3 V 3 c 0,-1.5 1.5,-3 3,-3 z"
     id="path450"
     sodipodi:nodetypes="ccccccccc" />
  <path
     style="fill:#606668;fill-opacity:1;stroke-width:0.425197;stroke-linejoin:round;stroke-opacity:0.580986"
     d="m 18.375,40.5 h 11.25 c 1.5,0 1.875,1.5 1.875,3 V 45 c 0,1.453599 -0.420253,3 -1.875,3 H 18.375 C 16.896132,48 16.5,46.5 16.5,45 v -1.5 c 0,-1.5 0.375,-3 1.875,-3 z"
     id="path3515"
     sodipodi:nodetypes="cccsccscc" />
  <path
     id="path457"
     style="color:#000000;fill:#e7c323;stroke-linecap:round;stroke-linejoin:round;fill-opacity:1"
     d="M 9 13.03125 A 0.46875 0.46875 0 0 0 8.53125 13.5 L 8.53125 16.5 A 0.46879688 0.46879688 0 0 0 8.5957031 16.736206 L 19.03125 34.627075 L 19.03125 37.5 A 0.46875 0.46875 0 0 0 19.5 37.96875 A 0.46875 0.46875 0 0 0 19.96875 37.5 L 19.96875 34.5 A 0.46879688 0.46879688 0 0 0 19.904297 34.263794 L 9.46875 16.372925 L 9.46875 13.5 A 0.46875 0.46875 0 0 0 9 13.03125 z M 13.5 13.03125 A 0.46875 0.46875 0 0 0 13.03125 13.5 L 13.03125 16.5 A 0.46879688 0.46879688 0 0 0 13.066406 16.67981 L 20.53125 34.59375 L 20.53125 37.5 A 0.46875 0.46875 0 0 0 21 37.96875 A 0.46875 0.46875 0 0 0 21.46875 37.5 L 21.46875 34.5 A 0.46879688 0.46879688 0 0 0 21.433594 34.32019 L 13.96875 16.40625 L 13.96875 13.5 A 0.46875 0.46875 0 0 0 13.5 13.03125 z M 18 13.03125 A 0.46875 0.46875 0 0 0 17.53125 13.5 L 17.53125 16.5 A 0.46879688 0.46879688 0 0 0 17.5448 16.613159 L 22.03125 34.558594 L 22.03125 37.5 A 0.46875 0.46875 0 0 0 22.5 37.96875 A 0.46875 0.46875 0 0 0 22.96875 37.5 L 22.96875 34.5 A 0.46879688 0.46879688 0 0 0 22.9552 34.386841 L 18.46875 16.441406 L 18.46875 13.5 A 0.46875 0.46875 0 0 0 18 13.03125 z M 24 13.03125 A 0.46875 0.46875 0 0 0 23.53125 13.5 L 23.53125 16.5 L 23.53125 34.5 L 23.53125 37.5 A 0.46875 0.46875 0 0 0 24 37.96875 A 0.46875 0.46875 0 0 0 24.46875 37.5 L 24.46875 34.5 L 24.46875 16.5 L 24.46875 13.5 A 0.46875 0.46875 0 0 0 24 13.03125 z M 30 13.03125 A 0.46875 0.46875 0 0 0 29.53125 13.5 L 29.53125 16.441406 L 25.0448 34.386841 A 0.46879688 0.46879688 0 0 0 25.03125 34.5 L 25.03125 37.5 A 0.46875 0.46875 0 0 0 25.5 37.96875 A 0.46875 0.46875 0 0 0 25.96875 37.5 L 25.96875 34.558594 L 30.4552 16.613159 A 0.46879688 0.46879688 0 0 0 30.46875 16.5 L 30.46875 13.5 A 0.46875 0.46875 0 0 0 30 13.03125 z M 34.5 13.03125 A 0.46875 0.46875 0 0 0 34.03125 13.5 L 34.03125 16.40625 L 26.566406 34.32019 A 0.46879688 0.46879688 0 0 0 26.53125 34.5 L 26.53125 37.5 A 0.46875 0.46875 0 0 0 27 37.96875 A 0.46875 0.46875 0 0 0 27.46875 37.5 L 27.46875 34.59375 L 34.933594 16.67981 A 0.46879688 0.46879688 0 0 0 34.96875 16.5 L 34.96875 13.5 A 0.46875 0.46875 0 0 0 34.5 13.03125 z M 39 13.03125 A 0.46875 0.46875 0 0 0 38.53125 13.5 L 38.53125 16.372925 L 28.095703 34.263794 A 0.46879688 0.46879688 0 0 0 28.03125 34.5 L 28.03125 37.5 A 0.46875 0.46875 0 0 0 28.5 37.96875 A 0.46875 0.46875 0 0 0 28.96875 37.5 L 28.96875 34.627075 L 39.404297 16.736206 A 0.46879688 0.46879688 0 0 0 39.46875 16.5 L 39.46875 13.5 A 0.46875 0.46875 0 0 0 39 13.03125 z " />
</svg>
