<?xml version="1.0" encoding="UTF-8" standalone="no"?>
<svg
   fill="none"
   viewBox="0 0 48 48"
   height="256"
   width="256"
   version="1.1"
   id="svg6"
   sodipodi:docname="atmel_ice.svg"
   inkscape:version="1.2.1 (9c6d41e410, 2022-07-14)"
   xmlns:inkscape="http://www.inkscape.org/namespaces/inkscape"
   xmlns:sodipodi="http://sodipodi.sourceforge.net/DTD/sodipodi-0.dtd"
   xmlns="http://www.w3.org/2000/svg"
   xmlns:svg="http://www.w3.org/2000/svg">
  <defs
     id="defs10" />
  <sodipodi:namedview
     id="namedview8"
     pagecolor="#ffffff"
     bordercolor="#666666"
     borderopacity="1.0"
     inkscape:showpageshadow="2"
     inkscape:pageopacity="0.0"
     inkscape:pagecheckerboard="true"
     inkscape:deskcolor="#d1d1d1"
     showgrid="true"
     inkscape:zoom="1.6191406"
     inkscape:cx="-32.733414"
     inkscape:cy="112.0965"
     inkscape:current-layer="svg6"
     showguides="false"
     inkscape:window-width="1920"
     inkscape:window-height="730"
     inkscape:window-x="-6"
     inkscape:window-y="-6"
     inkscape:window-maximized="1">
    <inkscape:grid
       type="xygrid"
       id="grid239"
       units="px"
       spacingx="1.5"
       spacingy="1.5" />
  </sodipodi:namedview>
  <path
     id="rect897"
     style="fill:#edf1e9;fill-opacity:1;stroke:none;stroke-width:0.363088;stroke-linejoin:round;stroke-opacity:0.580986"
     d="m 34.545776,2.295961 c 5.120294,0.2698197 9.013548,4.1634678 9.283448,9.283814 0.167099,3.171297 0.295898,7.281215 0.295898,12.42041 0,5.139095 -0.128799,9.24948 -0.295898,12.420776 -0.2698,5.120295 -4.163154,9.013648 -9.283448,9.283448 H 13.45459 C 8.334265,45.434609 4.440586,41.541256 4.170776,36.420961 4.003667,33.249665 3.875244,29.13938 3.875244,24.000185 c 0,-5.139195 0.128423,-9.249113 0.295532,-12.42041 0.26981,-5.1203362 4.163479,-9.0140043 9.283814,-9.283814 z"
     sodipodi:nodetypes="ccssccssscc" />
  <path
     id="rect5984"
     style="fill:#adafaa;fill-opacity:1;stroke:none;stroke-width:0.9375;stroke-linecap:round;stroke-linejoin:round"
     d="m 39.134766,6.2980957 c 0.103576,-0.00154 0.209263,0.015226 0.315307,0.050903 0.527178,0.1771681 0.818579,0.7627011 0.643433,1.2963867 -0.189073,0.5760233 -0.83291,0.8459816 -1.368164,0.5760498 h -0.0055 c -0.341751,-0.1724747 -0.54552,-0.495298 -0.54712,-0.8690185 0,-0.2973105 0.06801,-0.4936704 0.244996,-0.696167 0.140643,-0.1619605 0.304167,-0.2689093 0.480102,-0.3215332 0.07695,-0.023011 0.156379,-0.035421 0.236939,-0.036621 z m -25.216553,0.029663 h 0.686645 l -0.0055,4.0616452 -0.01025,4.061646 h -0.585937 -0.580811 l -0.01831,-3.298096 -0.01318,-3.2984618 -1.224243,1.4787598 c -0.673826,0.811918 -1.224243,1.482281 -1.224243,1.488281 0,0.0074 0.312726,0.0099 0.696167,0.0099 h 0.696167 v 0.571289 0.566528 l -1.18103,0.0095 -1.1857915,0.0048 -0.9744873,1.18103 c -0.5371945,0.647636 -1.0019287,1.204125 -1.0323486,1.238525 l -0.052734,0.06262 H 7.2169189 c -0.3776722,0 -0.6867765,-0.0083 -0.6866455,-0.01465 l 0.013184,-0.0044 c 0,-0.0094 0.3199033,-0.405169 0.7108155,-0.878906 C 7.6451597,13.09405 9.1520842,11.271036 10.600342,9.5159912 L 13.231201,6.328125 Z m 2.160278,3.662e-4 H 16.664062 17.25 v 1.1088867 1.1092529 h 0.921753 0.921753 v 0.614502 0.6097412 H 18.171753 17.25 v 1.1425782 c 0,1.266457 0.01112,1.335444 0.129639,1.603638 0.125856,0.273906 0.327428,0.480046 0.599853,0.614502 0.210284,0.103857 0.339978,0.12454 0.758789,0.124878 l 0.374268,0.0044 v 0.60022 0.60022 h -0.431763 c -0.344556,-0.0018 -0.478607,-0.01243 -0.62439,-0.04321 -0.467449,-0.09945 -0.861469,-0.306456 -1.200073,-0.633912 C 16.55503,13.49245 16.331019,13.137698 16.198608,12.74231 16.083691,12.396704 16.078491,12.330214 16.078491,10.994751 V 9.7701416 H 15.77124 15.463989 V 9.1604004 8.5458984 h 0.307251 0.307251 V 7.4370117 Z m 19.799195,0 h 0.595459 0.595092 l 0.01062,2.9527588 0.01062,2.9523922 0.0575,0.143921 c 0.09038,0.236397 0.155823,0.342747 0.321533,0.509033 0.111488,0.111933 0.201363,0.175447 0.312012,0.230347 0.237814,0.118516 0.358915,0.139189 0.811523,0.139527 l 0.393677,0.0044 v 0.60022 0.60022 h -0.455933 c -0.277904,-7.1e-4 -0.51028,-0.01267 -0.60022,-0.02893 h -0.0051 c -0.625791,-0.114897 -1.232946,-0.517325 -1.589355,-1.056153 -0.202811,-0.306835 -0.310557,-0.556615 -0.393677,-0.916992 -0.04277,-0.184404 -0.04007,-0.223771 -0.04797,-3.1589352 z m 3.299926,0.2021484 c -0.05225,-3.729e-4 -0.104187,0.00515 -0.154907,0.015747 h -3.66e-4 c -0.406248,0.085329 -0.735646,0.5077987 -0.619263,0.9459229 0.145521,0.5448426 0.684979,0.7710124 1.157227,0.4848632 0.525657,-0.3186113 0.454833,-1.1491965 -0.120117,-1.3923339 -0.08676,-0.036625 -0.175284,-0.053577 -0.262574,-0.054199 z m -0.38562,0.3087159 h 0.29187 c 0.258502,0 0.299726,0.013695 0.384156,0.095947 0.114577,0.1172294 0.120423,0.251917 0.01318,0.388916 l -0.08167,0.100708 0.120117,0.1538086 c 0.144734,0.1842472 0.146323,0.1966553 0.01575,0.1966553 -0.07158,0 -0.131675,-0.043928 -0.220825,-0.1728515 -0.09596,-0.1374183 -0.146177,-0.1776124 -0.230346,-0.1776124 -0.103035,0 -0.105835,0.013266 -0.105835,0.1776124 0,0.1618293 -0.01193,0.1728515 -0.101075,0.1728515 h -0.09595 l 0.01062,-0.4658203 z m 0.191895,0.1486816 V 7.1268311 7.2659912 L 39.16626,7.251709 c 0.16886,-0.01505 0.186634,-0.022185 0.1875,-0.1201172 v -0.00476 c -7.87e-4,-0.099137 -0.01995,-0.113866 -0.1875,-0.124878 z m -6.834595,1.458252 c 0.0625,2.8e-4 0.136241,0.00163 0.227051,0.00403 h 0.0015 c 0.435707,0.011564 0.614584,0.040188 0.925048,0.1439209 0.500958,0.1674142 0.95354,0.5013445 1.272217,0.9364013 0.140302,0.1915628 0.340237,0.5865376 0.417847,0.8305666 0.118781,0.373319 0.181204,0.887684 0.168091,1.363403 l -0.01062,0.235108 -2.261353,0.0099 -2.256592,0.0048 v 0.08643 c 0,0.162511 0.05859,0.401811 0.149048,0.590332 0.190095,0.393711 0.549771,0.68043 1.032349,0.830566 0.164399,0.05126 0.209421,0.05755 0.518554,0.05786 0.316815,1.8e-4 0.350079,-0.0041 0.513428,-0.05786 0.318757,-0.10724 0.567641,-0.263456 0.73938,-0.465454 l 0.09119,-0.105835 h 0.652954 0.648193 l -0.01318,0.04321 c -0.01311,0.0257 -0.05644,0.13277 -0.105468,0.235474 -0.325731,0.679514 -1.063409,1.201582 -1.910889,1.348755 -0.164399,0.02863 -0.673529,0.07448 -0.734619,0.06738 -0.01573,-0.0018 -0.115807,-0.0059 -0.235108,-0.01428 l 0.01062,-0.0048 c -1.090383,-0.07937 -1.931676,-0.629341 -2.366822,-1.546142 -0.340072,-0.716535 -0.422718,-1.633289 -0.220825,-2.429077 0.137366,-0.54242 0.389675,-0.9791881 0.787354,-1.3685306 0.416109,-0.4074368 0.908411,-0.6533857 1.516845,-0.7584228 0.165971,-0.02856 0.255144,-0.038553 0.443848,-0.03772 z m -6.059326,0.03772 h 0.0033 c 0.522386,5.23e-4 0.908794,0.1219846 1.345825,0.4178467 C 27.968337,9.2598265 28.342156,9.8224691 28.5,10.5 c 0.03277,0.141719 0.03803,0.32593 0.04321,2.05957 l 0.01575,1.901368 h -0.604981 -0.60498 l -0.01282,-1.829224 -0.01062,-1.833985 -0.04797,-0.14392 c -0.133172,-0.405356 -0.420765,-0.7066541 -0.801636,-0.8404545 -0.181966,-0.064082 -0.493846,-0.081281 -0.677124,-0.033325 -0.438055,0.1148434 -0.798174,0.4875797 -0.912231,0.9407957 -0.02808,0.110937 -0.02893,0.36175 -0.02893,1.935059 v 1.805054 l -0.609741,-0.0048 -0.609741,-0.0095 -0.01831,-1.858154 -0.01318,-1.853027 -0.04321,-0.124878 C 23.403797,10.186695 23.060436,9.8702115 22.661133,9.7752686 22.471038,9.7301176 22.160207,9.7458758 21.984009,9.8085938 21.624769,9.9362061 21.34488,10.23227 21.206177,10.629639 l -0.05749,0.16809 -0.01318,1.829224 -0.01062,1.833985 h -0.604614 -0.604981 l 0.01831,-1.800293 c 0,-1.038351 0.01582,-1.864322 0.02893,-1.954102 0.120848,-0.9456168 0.732501,-1.7495216 1.584229,-2.0742188 0.321379,-0.1225258 0.526919,-0.1549329 0.916992,-0.1439209 0.420805,0.011799 0.636864,0.067404 0.969727,0.2354737 0.26115,0.1319412 0.454247,0.272126 0.657715,0.4801025 l 0.14392,0.1486816 0.187134,-0.182373 c 0.482733,-0.4681282 1.011956,-0.6859118 1.667725,-0.6866455 z m 6.146484,1.0806885 c -0.131786,6.38e-4 -0.257026,0.0095 -0.348266,0.028198 h -0.0022 c -0.430426,0.088256 -0.800214,0.3385055 -1.003418,0.6818847 -0.0881,0.149558 -0.204729,0.430126 -0.220459,0.523315 l -0.01831,0.07214 h 1.59375 1.589355 l 0.01025,-0.04797 c 0,-0.02748 -0.02765,-0.13471 -0.06226,-0.235473 -0.170429,-0.494729 -0.487077,-0.809126 -0.955444,-0.9602053 -0.12602,-0.040674 -0.363364,-0.06295 -0.583008,-0.06189 z"
     sodipodi:nodetypes="sccccccsscccccccccssccccccccscccccccccccccccccsccccccccccsccccccccccccccccccccccccccccscccccscsccccscssscccccccccccscccccccccsccccccccccccccccccsssccccccccccccsccccccccccccccccccccccssccccccccccs" />
  <path
     id="rect5981"
     style="fill:#606668;fill-opacity:1;stroke:none;stroke-width:0.9375;stroke-linecap:round;stroke-linejoin:round"
     d="m 32.288818,38.954956 c 0.204646,-0.0025 0.424869,0.01979 0.416748,0.05566 l -1.245849,3.518921 c -0.02435,0.06663 -0.630029,0.112467 -0.73938,0 L 29.479248,39.01062 c 0.02035,-0.0502 0.72568,-0.05495 0.772705,0 l 0.691406,2.042725 c 0.06401,0.187239 0.120079,0.386411 0.168091,0.597656 h 0.0095 c 0.05121,-0.224048 0.105718,-0.421659 0.16333,-0.592896 l 0.6698,-2.047485 c 0.02573,-0.03668 0.175549,-0.05372 0.334716,-0.05566 z m -4.589355,0.0018 c 0.186959,-0.0022 0.381381,0.02478 0.391479,0.05383 l 1.411377,3.518921 c -0.01049,0.06676 -0.676035,0.0883 -0.775268,0 l -0.305054,-0.796875 h -1.358643 l -0.290405,0.796875 c 0.01783,0.05752 -0.65064,0.09294 -0.756225,0 l 1.370727,-3.518921 c 0.05954,-0.03714 0.184092,-0.05235 0.312012,-0.05383 z m 9.394409,0.02417 c 0.103576,-0.0015 0.20963,0.01522 0.315674,0.0509 0.527177,0.177169 0.818215,0.762702 0.643066,1.296387 -0.189073,0.576022 -0.832909,0.845982 -1.368164,0.57605 h -0.0051 c -0.341749,-0.172475 -0.545885,-0.495298 -0.547485,-0.869019 0,-0.297309 0.06801,-0.49367 0.244995,-0.696167 0.140644,-0.161961 0.304167,-0.268913 0.480103,-0.321533 l 3.66e-4,-3.66e-4 c 0.07695,-0.02301 0.156013,-0.03506 0.236572,-0.03626 z m -4.125732,0.02966 h 1.395996 c 0.393682,0 0.697784,0.08452 0.912231,0.254151 0.214444,0.169634 0.3219,0.413956 0.3219,0.732421 H 35.5979 c 0,0.248053 -0.0629,0.451905 -0.189331,0.611939 -0.124827,0.160034 -0.317757,0.277811 -0.578613,0.353027 v 0.0095 c 0.06081,0.0224 0.115916,0.05434 0.165527,0.09595 0.04961,0.04161 0.101593,0.103321 0.156006,0.184936 0.05441,0.08002 0.116123,0.190594 0.184937,0.331421 l 0.463257,0.945557 c 0.03552,0.05478 -0.582823,0.102431 -0.777832,0 l -0.335816,-0.703125 c -0.118426,-0.248053 -0.217712,-0.421897 -0.297729,-0.521118 -0.05281,-0.06561 -0.10576,-0.115074 -0.15857,-0.148682 -0.05121,-0.03521 -0.116639,-0.05993 -0.196655,-0.07434 -0.07842,-0.0144 -0.185873,-0.02161 -0.321899,-0.02161 h -0.09815 v 1.468872 c 0.01039,0.0455 -0.626478,0.108915 -0.708252,0 v -3.459229 c 0.0013,-0.03957 0.02605,-0.05923 0.06336,-0.05969 z m 4.168579,0.202149 c -0.05237,-3.74e-4 -0.104074,0.0051 -0.154907,0.01575 -0.40641,0.08516 -0.73568,0.507673 -0.619263,0.945922 0.145521,0.544845 0.684614,0.771011 1.15686,0.484864 0.525659,-0.318612 0.454833,-1.149196 -0.120117,-1.392334 -0.08676,-0.03663 -0.175283,-0.05358 -0.262573,-0.0542 z m -0.38562,0.308715 h 0.29187 c 0.258501,0 0.299725,0.0137 0.384155,0.09595 0.114581,0.117229 0.120424,0.251917 0.01318,0.388916 l -0.08167,0.101074 0.120117,0.153442 c 0.144733,0.184244 0.146323,0.197022 0.01575,0.197022 -0.07158,0 -0.131675,-0.04393 -0.220825,-0.172852 -0.09596,-0.13742 -0.146177,-0.177612 -0.230347,-0.177612 -0.103066,0 -0.105835,0.01327 -0.105835,0.177612 0,0.161833 -0.01156,0.172852 -0.100708,0.172852 h -0.09595 l 0.01025,-0.465821 z m -3.138062,0.08203 v 0.895385 h 0.602417 c 0.214447,0 0.37604,-0.03446 0.484863,-0.103271 0.110422,-0.06881 0.165528,-0.187189 0.165528,-0.355225 0,-0.153632 -0.04634,-0.264803 -0.13916,-0.333618 -0.09122,-0.06881 -0.233728,-0.103271 -0.427369,-0.103271 z m 3.329956,0.06702 v 0.13916 0.139161 l 0.182739,-0.01465 c 0.168861,-0.01505 0.186268,-0.02182 0.187134,-0.119751 v -0.0048 c -7.87e-4,-0.09913 -0.01959,-0.113868 -0.187134,-0.124878 z m -9.224121,0.09631 c -0.02881,0.192041 -0.07863,0.384009 -0.149048,0.57605 l -0.290405,0.794311 h 0.914795 l -0.295532,-0.794311 c -0.03841,-0.102422 -0.0725,-0.207353 -0.102906,-0.314576 -0.02881,-0.107223 -0.04826,-0.194259 -0.05786,-0.261474 z"
     sodipodi:nodetypes="sccccccccccssccccccccssccccccccscsscccccsccccccccscccccsccccscsccccscssscccccscscsccccccccccccccccc" />
  <path
     id="rect5978"
     style="fill:#606668;fill-opacity:1;stroke:none;stroke-width:0.9375;stroke-linecap:round;stroke-linejoin:round"
     d="m 21.146851,38.923462 c 0.298783,1.43e-4 0.62158,0.04021 0.591796,0.08716 v 3.518921 c -0.122554,0.08713 -0.515004,0.07246 -0.659912,0 v -2.772583 l -0.765747,2.772583 c -0.05738,0.05798 -0.483116,0.09843 -0.681884,0 l -0.775269,-2.772583 v 2.772583 c -0.09193,0.07973 -0.572726,0.07847 -0.660278,0 V 39.01062 c 0.02232,-0.119578 1.055787,-0.09248 1.063476,0 l 0.71521,2.491699 0.696167,-2.491699 c 0.02619,-0.06312 0.244053,-0.08727 0.476441,-0.08716 z m -8.052247,0.0271 c 0.37768,0 0.6777,0.08704 0.900147,0.261474 0.224047,0.172837 0.363437,0.424955 0.417847,0.756226 -0.002,0.130326 -0.60662,0.234739 -0.708252,0.0791 -0.02242,-0.182439 -0.08568,-0.312697 -0.189698,-0.391113 -0.104022,-0.08002 -0.255292,-0.120117 -0.453735,-0.120117 -0.150434,0 -0.276974,0.03038 -0.379394,0.09119 -0.100819,0.06081 -0.151246,0.146659 -0.151246,0.25708 0,0.07362 0.02317,0.136886 0.06958,0.189698 0.04641,0.05121 0.125647,0.09815 0.23767,0.141357 0.112022,0.04321 0.27146,0.08895 0.477906,0.136963 0.310462,0.07202 0.551892,0.159053 0.724731,0.261475 0.174438,0.100821 0.2963,0.222681 0.365112,0.365112 0.07042,0.140829 0.105469,0.315868 0.105469,0.525513 0,0.243249 -0.06386,0.446507 -0.191894,0.609741 -0.126427,0.161635 -0.293665,0.281934 -0.501709,0.360351 -0.208045,0.07682 -0.436033,0.114991 -0.684082,0.114991 -0.398485,0 -0.721078,-0.101445 -0.96753,-0.304688 -0.246449,-0.203243 -0.396759,-0.495462 -0.451172,-0.876343 0.03199,-0.233028 0.630488,-0.247798 0.707886,-0.08642 0.04161,0.230447 0.120251,0.40021 0.235474,0.509033 0.116827,0.108823 0.281541,0.16333 0.494385,0.16333 0.128027,0 0.240758,-0.01789 0.338379,-0.0531 0.09922,-0.03681 0.176303,-0.08783 0.230712,-0.153442 0.05441,-0.06561 0.08167,-0.143291 0.08167,-0.23291 0,-0.102422 -0.02004,-0.182623 -0.06006,-0.240235 -0.03841,-0.05761 -0.115486,-0.109596 -0.230713,-0.156006 -0.113624,-0.04801 -0.291781,-0.100591 -0.535034,-0.158203 -0.28646,-0.06881 -0.512888,-0.153695 -0.679322,-0.254516 -0.166433,-0.100821 -0.285173,-0.217039 -0.35559,-0.348267 -0.06881,-0.131228 -0.102906,-0.284656 -0.102906,-0.460693 0,-0.192041 0.0485,-0.362399 0.146119,-0.511231 0.09922,-0.148831 0.24329,-0.265048 0.432128,-0.348266 0.18884,-0.08482 0.414671,-0.127075 0.677124,-0.127075 z m 3.056031,0.007 c 0.178175,-0.0015 0.37064,0.02096 0.398071,0.0531 l 1.411743,3.518921 c 0.05736,0.05113 -0.66849,0.09674 -0.775268,0 l -0.305054,-0.796875 h -1.358643 l -0.290405,0.796875 c -0.03376,0.07759 -0.781518,0.07813 -0.756225,0 l 1.370727,-3.518921 c 0.03672,-0.03622 0.166473,-0.05195 0.305054,-0.0531 z m 0.026,0.809326 c -0.02881,0.192041 -0.07827,0.384009 -0.148682,0.57605 l -0.290405,0.794311 h 0.914429 l -0.295166,-0.794311 c -0.03841,-0.102422 -0.07287,-0.207353 -0.103272,-0.314576 -0.02881,-0.107223 -0.04789,-0.194259 -0.05749,-0.261474 z"
     sodipodi:nodetypes="scccccccccccccssccccscscscccsccsscccscsscccscsccssccccccccscccccccc" />
  <path
     style="fill:#606668;fill-opacity:1;stroke-width:0.425197;stroke-linejoin:round;stroke-opacity:0.580986"
     d="m 15,0 h 18 c 1.5,0 1.5,0.75 1.5,2.25 0,1.5 0,2.25 -1.5,2.25 H 15 C 13.5,4.5 13.5,3.75 13.5,2.25 13.5,0.75 13.5,0 15,0 Z"
     id="path450"
     sodipodi:nodetypes="ccccccc" />
  <path
     style="fill:#606668;fill-opacity:1;stroke-width:0.425197;stroke-linejoin:round;stroke-opacity:0.580986"
     d="m 15,43.5 h 18 c 1.5,0 1.5,0.75 1.5,2.25 0,1.5 0,2.25 -1.5,2.25 H 15 c -1.5,0 -1.5,-0.75 -1.5,-2.25 0,-1.5 0,-2.25 1.5,-2.25 z"
     id="path5863"
     sodipodi:nodetypes="ccccccc" />
  <path
     id="path5919"
     style="fill:#fff01c;stroke-width:0.9375;stroke-linecap:round;stroke-linejoin:round;fill-opacity:1"
     d="M 12,33 A 1.5,1.5 0 0 1 10.5,34.5 1.5,1.5 0 0 1 9,33 1.5,1.5 0 0 1 10.5,31.5 1.5,1.5 0 0 1 12,33 Z" />
  <path
     id="path5922"
     style="fill:#fff01c;stroke-width:0.9375;stroke-linecap:round;stroke-linejoin:round;fill-opacity:1"
     d="M 16.5,33 A 1.5,1.5 0 0 1 15,34.5 1.5,1.5 0 0 1 13.5,33 1.5,1.5 0 0 1 15,31.5 1.5,1.5 0 0 1 16.5,33 Z" />
  <path
     id="path5924"
     style="fill:#fff01c;stroke-width:0.9375;stroke-linecap:round;stroke-linejoin:round;fill-opacity:1"
     d="M 21,33 A 1.5,1.5 0 0 1 19.5,34.5 1.5,1.5 0 0 1 18,33 1.5,1.5 0 0 1 19.5,31.5 1.5,1.5 0 0 1 21,33 Z" />
</svg>
