<?xml version="1.0" encoding="UTF-8" standalone="no"?>
<svg
   fill="none"
   viewBox="0 0 48 48"
   height="256"
   width="256"
   version="1.1"
   id="svg6"
   sodipodi:docname="atmosic_interface_board.svg"
   inkscape:version="1.2.1 (9c6d41e410, 2022-07-14)"
   xmlns:inkscape="http://www.inkscape.org/namespaces/inkscape"
   xmlns:sodipodi="http://sodipodi.sourceforge.net/DTD/sodipodi-0.dtd"
   xmlns="http://www.w3.org/2000/svg"
   xmlns:svg="http://www.w3.org/2000/svg">
  <defs
     id="defs10" />
  <sodipodi:namedview
     id="namedview8"
     pagecolor="#ffffff"
     bordercolor="#666666"
     borderopacity="1.0"
     inkscape:showpageshadow="2"
     inkscape:pageopacity="0.0"
     inkscape:pagecheckerboard="true"
     inkscape:deskcolor="#d1d1d1"
     showgrid="true"
     inkscape:zoom="1.6191406"
     inkscape:cx="109.93486"
     inkscape:cy="114.56695"
     inkscape:current-layer="svg6"
     showguides="false"
     inkscape:window-width="1920"
     inkscape:window-height="730"
     inkscape:window-x="-6"
     inkscape:window-y="-6"
     inkscape:window-maximized="1">
    <inkscape:grid
       type="xygrid"
       id="grid239"
       units="px"
       spacingx="1.5"
       spacingy="1.5" />
  </sodipodi:namedview>
  <path
     id="rect897"
     style="fill:#d63232;fill-opacity:1;stroke:none;stroke-width:0.363088;stroke-linejoin:round;stroke-opacity:0.580986"
     d="M 14.891969,45.704224 C 9.771675,45.434404 5.878421,41.540756 5.608521,36.42041 5.441422,33.249113 5.312623,29.139195 5.312623,24 c 0,-5.139095 0.128799,-9.24948 0.295898,-12.420776 0.2698,-5.120295 4.163154,-9.013648 9.283448,-9.283448 h 17.341186 c 5.120325,0.2698 9.014004,4.163153 9.283814,9.283448 0.167109,3.171296 0.295532,7.281581 0.295532,12.420776 0,5.139195 -0.128423,9.249113 -0.295532,12.42041 -0.26981,5.120336 -4.163479,9.014004 -9.283814,9.283814 z"
     sodipodi:nodetypes="ccssccssscc" />
  <path
     id="path2-4"
     style="fill:#606668;fill-opacity:1;stroke-width:0.246037"
     d="m 27.591306,17.4128 c 0.186839,0 0.318385,-0.02021 0.408828,-0.04422 0.121125,-0.03217 0.179511,-0.148286 0.183473,-0.273559 0.0074,-0.234006 0.01871,-0.638663 0.02183,-0.988906 0.08008,-0.0051 0.157709,-0.01027 0.229888,-0.01552 0.62912,-0.04574 1.109611,-0.526229 1.155349,-1.155349 0.0053,-0.07218 0.01039,-0.149676 0.01552,-0.229751 0.350243,-0.0031 0.7549,-0.01457 0.988908,-0.02197 0.125271,-0.004 0.241397,-0.06221 0.27356,-0.183334 0.02401,-0.09044 0.04408,-0.222124 0.04408,-0.408966 0,-0.186841 -0.02007,-0.318385 -0.04408,-0.40883 -0.03217,-0.12115 -0.148287,-0.179512 -0.273559,-0.183473 -0.221817,-0.007 -0.596604,-0.01753 -0.933426,-0.02128 0.0078,-0.265269 0.0137,-0.55291 0.01717,-0.864213 0.332327,-0.0039 0.698209,-0.01425 0.916259,-0.02115 0.125271,-0.004 0.241397,-0.06235 0.273559,-0.183473 0.02401,-0.09044 0.04408,-0.221986 0.04408,-0.408828 0,-0.186841 -0.02007,-0.318522 -0.04408,-0.408965 -0.03217,-0.12115 -0.148289,-0.179374 -0.273562,-0.183334 -0.218046,-0.0069 -0.583928,-0.01723 -0.91626,-0.02115 -0.0035,-0.311287 -0.0094,-0.598951 -0.01717,-0.864213 0.336824,-0.0038 0.71161,-0.01441 0.933427,-0.02143 0.125271,-0.004 0.241394,-0.06233 0.273559,-0.183473 0.02401,-0.09044 0.04408,-0.221988 0.04408,-0.4088285 -3e-6,-0.186841 -0.02007,-0.318388 -0.04408,-0.408829 -0.03216,-0.121126 -0.148288,-0.179512 -0.273559,-0.183474 -0.234007,-0.0074 -0.638666,-0.01871 -0.988908,-0.02183 -0.0051,-0.08008 -0.01028,-0.157713 -0.01552,-0.229891 -0.04574,-0.629117 -0.526228,-1.109611 -1.155349,-1.155349 -0.0727,-0.0053 -0.150824,-0.01049 -0.231537,-0.01566 0.0017,-0.11178 0.0026,-0.221505 0.0026,-0.322312 0,-0.304077 -0.0091,-0.536305 -0.01717,-0.682525 -0.0064,-0.115561 -0.06225,-0.22152 -0.173585,-0.253233 -0.09069,-0.02583 -0.226558,-0.04834 -0.424347,-0.04834 -0.19779,-2e-6 -0.333657,0.02251 -0.424347,0.04834 -0.111304,0.03171 -0.167213,0.13767 -0.173585,0.253234 -0.008,0.146222 -0.01717,0.378448 -0.01717,0.682525 0,0.084 7.51e-4,0.174572 0.002,0.266969 -0.265462,-0.0078 -0.553326,-0.01369 -0.864897,-0.01717 9.97e-4,-0.08634 0.0018,-0.171049 0.0018,-0.249802 0,-0.304077 -0.009,-0.536305 -0.01703,-0.682525 -0.0064,-0.115563 -0.06242,-0.221522 -0.173724,-0.253232 -0.09069,-0.02585 -0.22642,-0.04834 -0.424209,-0.04834 -0.197791,0 -0.333659,0.02251 -0.424347,0.04834 -0.111331,0.03171 -0.167373,0.137673 -0.173726,0.253234 -0.008,0.146222 -0.01703,0.378447 -0.01703,0.682524 7e-6,0.07875 7.51e-4,0.16346 0.0018,0.249803 -0.311572,0.0034 -0.599437,0.0094 -0.864899,0.01717 0.0011,-0.0924 0.0019,-0.182966 0.0019,-0.26697 0,-0.304077 -0.0091,-0.536305 -0.01717,-0.682525 -0.0064,-0.115563 -0.06228,-0.221519 -0.173586,-0.253234 -0.09069,-0.02583 -0.226557,-0.04834 -0.424348,-0.04834 -0.197789,0 -0.333656,0.02251 -0.424346,0.04834 -0.111331,0.03171 -0.167238,0.137668 -0.173584,0.253233 -0.008,0.146223 -0.01717,0.378449 -0.01717,0.682526 0,0.100805 9.75e-4,0.210532 0.0026,0.322312 -0.08071,0.0052 -0.158838,0.01037 -0.231537,0.01566 -0.629116,0.04574 -1.10961,0.526232 -1.155349,1.155349 -0.0053,0.0727 -0.01048,0.150826 -0.01566,0.231537 -0.111779,-0.0017 -0.221506,-0.0026 -0.322312,-0.0026 -0.304076,1e-6 -0.536305,0.0091 -0.682526,0.01717 -0.115562,0.0064 -0.221521,0.06225 -0.253234,0.173584 -0.02583,0.09069 -0.04834,0.226557 -0.04834,0.424346 -10e-7,0.1977915 0.02251,0.3336605 0.04834,0.4243485 0.03171,0.111305 0.137669,0.167353 0.253231,0.173724 0.146223,0.008 0.37845,0.01703 0.682527,0.01703 0.084,0 0.174571,-7.52e-4 0.266968,-0.0019 -0.0078,0.26545 -0.0137,0.553342 -0.01717,0.864898 -0.08634,-9.98e-4 -0.171048,-0.0018 -0.2498,-0.0018 -0.304077,0 -0.536305,0.009 -0.682524,0.01703 -0.115564,0.0064 -0.221524,0.06242 -0.253234,0.173725 -0.02584,0.09069 -0.04834,0.226558 -0.04834,0.424347 0,0.197788 0.02251,0.333657 0.04834,0.424346 0.03171,0.111331 0.137676,0.167232 0.253234,0.173586 0.146223,0.008 0.378447,0.01717 0.682525,0.01717 0.07875,-8e-6 0.163461,-7.51e-4 0.249802,-0.0018 0.0035,0.311485 0.0094,0.599361 0.01717,0.864761 -0.09241,-0.0012 -0.182965,-0.0019 -0.266968,-0.0019 -0.304077,0 -0.536306,0.0091 -0.682526,0.01717 -0.115563,0.0064 -0.221521,0.06227 -0.253233,0.173584 -0.02583,0.09069 -0.04834,0.226558 -0.04834,0.424347 0,0.19779 0.02251,0.333658 0.04834,0.424347 0.03171,0.111331 0.137674,0.167372 0.253239,0.173717 0.146222,0.008 0.378448,0.01703 0.682525,0.01703 0.100805,0 0.210534,-9.75e-4 0.322312,-0.0026 0.0052,0.08076 0.01037,0.158804 0.01566,0.231537 0.04574,0.629123 0.526233,1.109611 1.155348,1.15535 0.07218,0.0053 0.149807,0.01039 0.229889,0.01552 0.0031,0.350244 0.01443,0.754901 0.02184,0.988909 0.004,0.125271 0.06235,0.241397 0.183472,0.273558 0.09045,0.02402 0.221989,0.04422 0.408829,0.04422 0.186842,0 0.318387,-0.02021 0.408829,-0.04422 0.121146,-0.03216 0.179514,-0.148287 0.183473,-0.273558 0.007,-0.221834 0.01753,-0.596586 0.02128,-0.933427 0.265309,0.0078 0.552993,0.0137 0.864349,0.01717 0.0039,0.332329 0.01412,0.698211 0.02101,0.91626 0.004,0.125271 0.06235,0.241397 0.183473,0.273558 0.09044,0.02401 0.221989,0.04422 0.408829,0.04422 0.18684,0 0.318523,-0.02021 0.408966,-0.04422 0.121145,-0.03216 0.179512,-0.148287 0.183473,-0.273558 0.0069,-0.218058 0.0171,-0.583914 0.02101,-0.91626 0.311357,-0.0035 0.599042,-0.0094 0.864349,-0.01717 0.0038,0.336841 0.01426,0.711593 0.02128,0.933425 0.004,0.125272 0.06233,0.241396 0.183473,0.273559 0.09045,0.02402 0.221988,0.04422 0.408829,0.04422 z" />
  <path
     id="path9927"
     style="fill:#606668;stroke:#0000ff;stroke-width:0;fill-opacity:1"
     d="m 44.19615,35.235562 v -6.58845 c 0,-0.549037 -0.549037,-1.098075 -1.098075,-1.098075 H 42.549038 C 42,27.549037 42,27.549037 42,27 v -1.098074 c 0,-0.549038 0,-0.549038 0.549038,-0.549038 h 0.549037 c 0.549038,0 1.098075,-0.549037 1.098075,-1.098075 v -6.58845 c 0,-0.549037 -0.549037,-1.098075 -1.098075,-1.098075 h -2.19615 c -0.549037,-10e-7 -1.098075,0.549037 -1.098075,1.098074 v 0.227872 c -0.02323,-8.5e-5 -0.04763,0 -0.07023,0 -0.445198,0 -0.784803,0.01291 -0.998883,0.02466 -0.169196,0.0094 -0.324603,0.09172 -0.37103,0.254683 -0.03785,0.13278 -0.07077,0.3313 -0.07077,0.620883 0,0.289586 0.03296,0.488643 0.07077,0.621419 0.04643,0.163007 0.201837,0.24485 0.37103,0.254153 0.214083,0.01174 0.553685,0.02519 0.998883,0.02519 0.0226,-3e-6 0.047,-4.4e-4 0.07023,-5.5e-4 v 1.261615 c -0.02323,-7.4e-5 -0.04761,-5.47e-4 -0.07023,-5.47e-4 -0.445198,0 -0.784803,0.01332 -0.998883,0.02519 -0.169196,0.0094 -0.324596,0.09119 -0.37103,0.254142 -0.03782,0.132781 -0.07077,0.331836 -0.07077,0.62142 v 0.0032 c 0,0.01727 3.09e-4,0.03324 5.49e-4,0.04985 2.68e-4,0.01855 5.49e-4,0.03694 10e-4,0.0547 9.4e-5,0.0032 4.39e-4,0.0058 5.49e-4,0.0091 0.001,0.03005 0.0021,0.05902 0.0037,0.08687 8.79e-4,0.0145 0.0022,0.02786 0.0032,0.04183 0.0011,0.01469 0.0019,0.02937 0.0032,0.04343 0.0013,0.01436 0.0028,0.02757 0.0044,0.04128 1.03e-4,9.52e-4 4.39e-4,0.0017 5.49e-4,0.0027 0.01318,0.120613 0.03238,0.217071 0.05363,0.291642 0.04643,0.162962 0.201832,0.244815 0.371029,0.254146 0.214084,0.01174 0.553686,0.02519 0.998884,0.02519 0.02262,0 0.047,-4.77e-4 0.07023,-5.51e-4 v 1.261608 c -0.02323,-8.5e-5 -0.04763,-5.5e-4 -0.07023,-5.5e-4 -0.445198,0 -0.784803,0.01346 -0.998884,0.02519 -0.169195,0.0093 -0.324602,0.09119 -0.371029,0.254145 -0.03785,0.132781 -0.07077,0.331301 -0.07077,0.620884 0,0.289586 0.03296,0.488644 0.07077,0.621421 0.04643,0.162999 0.201837,0.245378 0.371029,0.254679 0.214084,0.01174 0.553686,0.02466 0.998884,0.02466 0.0226,-3e-6 0.047,8e-5 0.07023,0 v 1.26107 c -0.02323,-7.4e-5 -0.04761,0 -0.07023,0 -0.222599,0 -0.418621,0.0032 -0.586032,0.008 -0.0837,0.0025 -0.160009,0.0051 -0.228945,0.0081 -0.06893,0.0029 -0.130392,0.0062 -0.183907,0.0091 -0.02116,0.0012 -0.04221,0.0035 -0.06272,0.007 -0.04105,0.0069 -0.08055,0.01807 -0.116878,0.03432 -0.01817,0.0081 -0.03558,0.01739 -0.05201,0.02786 -0.04095,0.02618 -0.07622,0.06001 -0.102415,0.101321 -8.2e-5,1.29e-4 8.2e-5,4.04e-4 0,5.5e-4 -0.01572,0.0249 -0.02829,0.05256 -0.037,0.0831 -0.03782,0.132781 -0.07077,0.331298 -0.07077,0.620884 0,0.289582 0.03296,0.488641 0.07077,0.62142 0.03193,0.112286 0.115386,0.186204 0.219307,0.224347 0.01889,0.0069 0.03836,0.01265 0.05843,0.01716 0.03012,0.0069 0.06158,0.01113 0.09329,0.01291 0.05351,0.0029 0.114961,0.0062 0.183906,0.0091 0.06893,0.0029 0.145239,0.0056 0.228944,0.0081 0.167411,0.0048 0.363435,0.008 0.586034,0.008 0.02262,0 0.047,7.3e-5 0.07025,0 v 1.26107 c -0.02323,-8.3e-5 -0.04763,-5.48e-4 -0.07025,-5.48e-4 -0.445199,0 -0.784803,0.01346 -0.998884,0.02519 -0.169195,0.0094 -0.324602,0.09119 -0.371029,0.254143 -0.03785,0.13278 -0.07077,0.331839 -0.07077,0.621421 0,0.289586 0.03296,0.488108 0.07077,0.620885 0.04643,0.163 0.201837,0.245378 0.371029,0.254679 0.214084,0.01174 0.553685,0.02466 0.998884,0.02466 0.0226,-3e-6 0.047,8e-5 0.07025,0 v 1.261174 c -0.02323,-7.5e-5 -0.04761,0 -0.07025,0 -0.445199,0 -0.784803,0.01332 -0.998884,0.02519 -0.169195,0.0093 -0.324595,0.09119 -0.371029,0.254144 -0.03782,0.13278 -0.07077,0.331834 -0.07077,0.62142 0,0.289582 0.03296,0.488105 0.07077,0.620884 0.04643,0.163 0.201831,0.244853 0.371029,0.254145 0.214086,0.01174 0.553685,0.02519 0.998884,0.02519 0.02253,0 0.04713,-4.72e-4 0.07025,-5.36e-4 l -2.9e-5,0.228436 c 0,0.549037 0.549037,1.098075 1.098075,1.098075 h 2.196148 c 0.549037,0 1.098075,-0.549038 1.098075,-1.098075 z"
     sodipodi:nodetypes="ccccccccccccccsccsscsccsccssssccccscccsccsccssccccsccssccsccsscccccsccsccssccccsccsscsccccc" />
  <g
     id="g10336"
     transform="rotate(90,-2.249817,38.249817)"
     style="fill:#606668;fill-opacity:1">
    <path
       style="fill:#606668;fill-opacity:1;stroke-width:0.425197;stroke-linejoin:round;stroke-opacity:0.580986"
       d="m -1.499634,34.5 h -9 c -1.5,0 -3,-1.5 -3,-3 V 24 c 0,-1.5 1.5,-3 3,-3 h 9 c 1.5,0 3,1.5 3,3 v 7.5 c 0,1.5 -1.5,3 -3,3 z"
       id="path450"
       sodipodi:nodetypes="ccccccccc" />
    <path
       id="path1058"
       style="fill:#fff01c;stroke-width:0.425197;stroke-linejoin:round;stroke-opacity:0.580986;fill-opacity:1"
       d="m -4.499634,31.5 a 1.5,1.5 0 0 1 1.5,-1.5 1.5,1.5 0 0 1 1.5,1.5 1.5,1.5 0 0 1 -1.5,1.5 1.5,1.5 0 0 1 -1.5,-1.5 z" />
    <path
       id="path1061"
       style="fill:#fff01c;stroke-width:0.425197;stroke-linejoin:round;stroke-opacity:0.580986;fill-opacity:1"
       d="m -10.499634,31.5 a 1.5,1.5 0 0 1 1.5,-1.5 1.5,1.5 0 0 1 1.5,1.5 1.5,1.5 0 0 1 -1.5,1.5 1.5,1.5 0 0 1 -1.5,-1.5 z" />
  </g>
  <g
     id="g10344"
     transform="rotate(90,7.125183,28.874817)"
     style="fill:#606668;fill-opacity:1">
    <path
       style="fill:#606668;fill-opacity:1;stroke-width:0.425197;stroke-linejoin:round;stroke-opacity:0.580986"
       d="m -1.499634,34.5 h -9 c -1.5,0 -3,-1.5 -3,-3 V 24 c 0,-1.5 1.5,-3 3,-3 h 9 c 1.5,0 3,1.5 3,3 v 7.5 c 0,1.5 -1.5,3 -3,3 z"
       id="path10338"
       sodipodi:nodetypes="ccccccccc" />
    <path
       id="path10340"
       style="fill:#fff01c;stroke-width:0.425197;stroke-linejoin:round;stroke-opacity:0.580986;fill-opacity:1"
       d="m -4.499634,31.5 a 1.5,1.5 0 0 1 1.5,-1.5 1.5,1.5 0 0 1 1.5,1.5 1.5,1.5 0 0 1 -1.5,1.5 1.5,1.5 0 0 1 -1.5,-1.5 z" />
    <path
       id="path10342"
       style="fill:#fff01c;stroke-width:0.425197;stroke-linejoin:round;stroke-opacity:0.580986;fill-opacity:1"
       d="m -10.499634,31.5 a 1.5,1.5 0 0 1 1.5,-1.5 1.5,1.5 0 0 1 1.5,1.5 1.5,1.5 0 0 1 -1.5,1.5 1.5,1.5 0 0 1 -1.5,-1.5 z" />
  </g>
  <path
     id="path10346"
     style="fill:#606668;fill-opacity:1;stroke-width:0.246037"
     d="m 27.591306,32.4128 c 0.186839,0 0.318385,-0.02021 0.408828,-0.04422 0.121125,-0.03217 0.179511,-0.148286 0.183473,-0.273559 0.0074,-0.234006 0.01871,-0.638663 0.02183,-0.988906 0.08008,-0.0051 0.157709,-0.01027 0.229888,-0.01552 0.62912,-0.04574 1.109611,-0.526229 1.155349,-1.155349 0.0053,-0.07218 0.01039,-0.149676 0.01552,-0.229751 0.350243,-0.0031 0.7549,-0.01457 0.988908,-0.02197 0.125271,-0.004 0.241397,-0.06221 0.27356,-0.183334 0.02401,-0.09044 0.04408,-0.222124 0.04408,-0.408966 0,-0.186841 -0.02007,-0.318385 -0.04408,-0.40883 -0.03217,-0.12115 -0.148287,-0.179512 -0.273559,-0.183473 -0.221817,-0.007 -0.596604,-0.01753 -0.933426,-0.02128 0.0078,-0.265269 0.0137,-0.55291 0.01717,-0.864213 0.332327,-0.0039 0.698209,-0.01425 0.916259,-0.02115 0.125271,-0.004 0.241397,-0.06235 0.273559,-0.183473 0.02401,-0.09044 0.04408,-0.221986 0.04408,-0.408828 0,-0.186841 -0.02007,-0.318522 -0.04408,-0.408965 -0.03217,-0.12115 -0.148289,-0.179374 -0.273562,-0.183334 -0.218046,-0.0069 -0.583928,-0.01723 -0.91626,-0.02115 -0.0035,-0.311287 -0.0094,-0.598951 -0.01717,-0.864213 0.336824,-0.0038 0.71161,-0.01441 0.933427,-0.02143 0.125271,-0.004 0.241394,-0.06233 0.273559,-0.183473 0.02401,-0.09044 0.04408,-0.221988 0.04408,-0.408828 -3e-6,-0.186841 -0.02007,-0.318388 -0.04408,-0.408829 -0.03216,-0.121126 -0.148288,-0.179512 -0.273559,-0.183474 -0.234007,-0.0074 -0.638666,-0.01871 -0.988908,-0.02183 -0.0051,-0.08008 -0.01028,-0.157713 -0.01552,-0.229891 -0.04574,-0.629117 -0.526228,-1.109611 -1.155349,-1.155349 -0.0727,-0.0053 -0.150824,-0.01049 -0.231537,-0.01566 0.0017,-0.11178 0.0026,-0.221505 0.0026,-0.322312 0,-0.304077 -0.0091,-0.536305 -0.01717,-0.682525 -0.0064,-0.115561 -0.06225,-0.22152 -0.173585,-0.253233 -0.09069,-0.02583 -0.226558,-0.04834 -0.424347,-0.04834 -0.19779,-2e-6 -0.333657,0.02251 -0.424347,0.04834 -0.111304,0.03171 -0.167213,0.13767 -0.173585,0.253234 -0.008,0.146222 -0.01717,0.378448 -0.01717,0.682525 0,0.084 7.51e-4,0.174572 0.002,0.266969 -0.265462,-0.0078 -0.553326,-0.01369 -0.864897,-0.01717 9.97e-4,-0.08634 0.0018,-0.171049 0.0018,-0.249802 0,-0.304077 -0.009,-0.536305 -0.01703,-0.682525 -0.0064,-0.115563 -0.06242,-0.221522 -0.173724,-0.253232 -0.09069,-0.02585 -0.22642,-0.04834 -0.424209,-0.04834 -0.197791,0 -0.333659,0.02251 -0.424347,0.04834 -0.111331,0.03171 -0.167373,0.137673 -0.173726,0.253234 -0.008,0.146222 -0.01703,0.378447 -0.01703,0.682524 7e-6,0.07875 7.51e-4,0.16346 0.0018,0.249803 -0.311572,0.0034 -0.599437,0.0094 -0.864899,0.01717 0.0011,-0.0924 0.0019,-0.182966 0.0019,-0.26697 0,-0.304077 -0.0091,-0.536305 -0.01717,-0.682525 -0.0064,-0.115563 -0.06228,-0.221519 -0.173586,-0.253234 -0.09069,-0.02583 -0.226557,-0.04834 -0.424348,-0.04834 -0.197789,0 -0.333656,0.02251 -0.424346,0.04834 -0.111331,0.03171 -0.167238,0.137668 -0.173584,0.253233 -0.008,0.146223 -0.01717,0.378449 -0.01717,0.682526 0,0.100805 9.75e-4,0.210532 0.0026,0.322312 -0.08071,0.0052 -0.158838,0.01037 -0.231537,0.01566 -0.629116,0.04574 -1.10961,0.526232 -1.155349,1.155349 -0.0053,0.0727 -0.01048,0.150826 -0.01566,0.231537 -0.111779,-0.0017 -0.221506,-0.0026 -0.322312,-0.0026 -0.304076,10e-7 -0.536305,0.0091 -0.682526,0.01717 -0.115562,0.0064 -0.221521,0.06225 -0.253234,0.173584 -0.02583,0.09069 -0.04834,0.226557 -0.04834,0.424346 -10e-7,0.197791 0.02251,0.33366 0.04834,0.424348 0.03171,0.111305 0.137669,0.167353 0.253231,0.173724 0.146223,0.008 0.37845,0.01703 0.682527,0.01703 0.084,0 0.174571,-7.52e-4 0.266968,-0.0019 -0.0078,0.26545 -0.0137,0.553342 -0.01717,0.864898 -0.08634,-9.98e-4 -0.171048,-0.0018 -0.2498,-0.0018 -0.304077,0 -0.536305,0.009 -0.682524,0.01703 -0.115564,0.0064 -0.221524,0.06242 -0.253234,0.173725 -0.02584,0.09069 -0.04834,0.226558 -0.04834,0.424347 0,0.197788 0.02251,0.333657 0.04834,0.424346 0.03171,0.111331 0.137676,0.167232 0.253234,0.173586 0.146223,0.008 0.378447,0.01717 0.682525,0.01717 0.07875,-8e-6 0.163461,-7.51e-4 0.249802,-0.0018 0.0035,0.311485 0.0094,0.599361 0.01717,0.864761 -0.09241,-0.0012 -0.182965,-0.0019 -0.266968,-0.0019 -0.304077,0 -0.536306,0.0091 -0.682526,0.01717 -0.115563,0.0064 -0.221521,0.06227 -0.253233,0.173584 -0.02583,0.09069 -0.04834,0.226558 -0.04834,0.424347 0,0.19779 0.02251,0.333658 0.04834,0.424347 0.03171,0.111331 0.137674,0.167372 0.253239,0.173717 0.146222,0.008 0.378448,0.01703 0.682525,0.01703 0.100805,0 0.210534,-9.75e-4 0.322312,-0.0026 0.0052,0.08076 0.01037,0.158804 0.01566,0.231537 0.04574,0.629123 0.526233,1.109611 1.155348,1.15535 0.07218,0.0053 0.149807,0.01039 0.229889,0.01552 0.0031,0.350244 0.01443,0.754901 0.02184,0.988909 0.004,0.125271 0.06235,0.241397 0.183472,0.273558 0.09045,0.02402 0.221989,0.04422 0.408829,0.04422 0.186842,0 0.318387,-0.02021 0.408829,-0.04422 0.121146,-0.03216 0.179514,-0.148287 0.183473,-0.273558 0.007,-0.221834 0.01753,-0.596586 0.02128,-0.933427 0.265309,0.0078 0.552993,0.0137 0.864349,0.01717 0.0039,0.332329 0.01412,0.698211 0.02101,0.91626 0.004,0.125271 0.06235,0.241397 0.183473,0.273558 0.09044,0.02401 0.221989,0.04422 0.408829,0.04422 0.18684,0 0.318523,-0.02021 0.408966,-0.04422 0.121145,-0.03216 0.179512,-0.148287 0.183473,-0.273558 0.0069,-0.218058 0.0171,-0.583914 0.02101,-0.91626 0.311357,-0.0035 0.599042,-0.0094 0.864349,-0.01717 0.0038,0.336841 0.01426,0.711593 0.02128,0.933425 0.004,0.125272 0.06233,0.241396 0.183473,0.273559 0.09045,0.02402 0.221988,0.04422 0.408829,0.04422 z" />
</svg>
