<?xml version="1.0" encoding="UTF-8" standalone="no"?>
<svg
   fill="none"
   viewBox="0 0 48 48"
   height="256"
   width="256"
   version="1.1"
   id="svg6"
   sodipodi:docname="blackmagic_v2_1.svg"
   inkscape:version="1.2.1 (9c6d41e410, 2022-07-14)"
   xmlns:inkscape="http://www.inkscape.org/namespaces/inkscape"
   xmlns:sodipodi="http://sodipodi.sourceforge.net/DTD/sodipodi-0.dtd"
   xmlns="http://www.w3.org/2000/svg"
   xmlns:svg="http://www.w3.org/2000/svg">
  <defs
     id="defs10" />
  <sodipodi:namedview
     id="namedview8"
     pagecolor="#ffffff"
     bordercolor="#666666"
     borderopacity="1.0"
     inkscape:showpageshadow="2"
     inkscape:pageopacity="0.0"
     inkscape:pagecheckerboard="true"
     inkscape:deskcolor="#d1d1d1"
     showgrid="true"
     inkscape:zoom="1.6191406"
     inkscape:cx="33.351026"
     inkscape:cy="117.0374"
     inkscape:current-layer="svg6"
     showguides="false"
     inkscape:window-width="1920"
     inkscape:window-height="730"
     inkscape:window-x="-6"
     inkscape:window-y="-6"
     inkscape:window-maximized="1">
    <inkscape:grid
       type="xygrid"
       id="grid239"
       units="px"
       spacingx="1.5"
       spacingy="1.5" />
  </sodipodi:namedview>
  <path
     id="rect897"
     style="fill:#828480;fill-opacity:1;stroke:none;stroke-width:0.363088;stroke-linejoin:round;stroke-opacity:0.580986"
     d="m 20.95459,45.704039 c -5.120294,-0.26982 -9.013548,-4.163468 -9.283448,-9.283814 -0.167099,-3.171297 -0.295898,-7.281215 -0.295898,-12.42041 0,-5.139095 0.128799,-9.24948 0.295898,-12.420776 0.2698,-5.120295 4.163154,-9.013648 9.283448,-9.283448 h 6.091186 c 5.120325,0.2698 9.014004,4.163153 9.283814,9.283448 0.167109,3.171296 0.295532,7.281581 0.295532,12.420776 0,5.139195 -0.128423,9.249113 -0.295532,12.42041 -0.26981,5.120336 -4.163479,9.014004 -9.283814,9.283814 z"
     sodipodi:nodetypes="ccssccssscc" />
  <path
     style="fill:#606668;fill-opacity:1;stroke-width:0.425197;stroke-linejoin:round;stroke-opacity:0.580986"
     d="m 28.500366,46.5 h -9 c -1.5,0 -3,-1.5 -3,-3 V 36 c 0,-1.5 1.5,-3 3,-3 h 9 c 1.5,0 3,1.5 3,3 v 7.5 c 0,1.5 -1.5,3 -3,3 z"
     id="path450"
     sodipodi:nodetypes="ccccccccc" />
  <path
     id="path1058"
     style="fill:#fff01c;stroke-width:0.425197;stroke-linejoin:round;stroke-opacity:0.580986;fill-opacity:1"
     d="m 25.500366,43.5 a 1.5,1.5 0 0 1 1.5,-1.5 1.5,1.5 0 0 1 1.5,1.5 1.5,1.5 0 0 1 -1.5,1.5 1.5,1.5 0 0 1 -1.5,-1.5 z" />
  <path
     id="path1061"
     style="fill:#fff01c;stroke-width:0.425197;stroke-linejoin:round;stroke-opacity:0.580986;fill-opacity:1"
     d="m 19.500366,43.5 a 1.5,1.5 0 0 1 1.5,-1.5 1.5,1.5 0 0 1 1.5,1.5 1.5,1.5 0 0 1 -1.5,1.5 1.5,1.5 0 0 1 -1.5,-1.5 z" />
  <path
     id="path2-4"
     style="fill:#606668;fill-opacity:1;stroke-width:0.246037"
     d="m 29.412799,20.408694 c 0,-0.18684 -0.02021,-0.318385 -0.04422,-0.408828 -0.03217,-0.121125 -0.148286,-0.179512 -0.273559,-0.183474 -0.234006,-0.0074 -0.638663,-0.01871 -0.988907,-0.02183 -0.0051,-0.08008 -0.01027,-0.157709 -0.01552,-0.229888 -0.04574,-0.62912 -0.526229,-1.109611 -1.155349,-1.155349 -0.07218,-0.0053 -0.149677,-0.01039 -0.229751,-0.01552 -0.0031,-0.350242 -0.01457,-0.7549 -0.02197,-0.988907 -0.004,-0.125271 -0.06221,-0.241397 -0.183333,-0.27356 -0.09044,-0.02401 -0.222126,-0.04408 -0.408966,-0.04408 -0.186841,0 -0.318386,0.02007 -0.40883,0.04408 -0.12115,0.03217 -0.179512,0.148287 -0.183473,0.273559 -0.007,0.221818 -0.01753,0.596604 -0.02128,0.933426 -0.265269,-0.0078 -0.55291,-0.0137 -0.864213,-0.01717 -0.0039,-0.332327 -0.01425,-0.698209 -0.02115,-0.916259 -0.004,-0.125271 -0.06235,-0.241397 -0.183472,-0.273558 -0.09044,-0.02401 -0.221986,-0.04408 -0.408829,-0.04408 -0.18684,0 -0.318521,0.02007 -0.408966,0.04408 -0.12115,0.03217 -0.179373,0.148288 -0.183333,0.27356 -0.0069,0.218048 -0.01723,0.583929 -0.02115,0.91626 -0.311287,0.0035 -0.598952,0.0094 -0.864212,0.01717 -0.0038,-0.336822 -0.01441,-0.711608 -0.02143,-0.933426 -0.004,-0.125272 -0.06233,-0.241395 -0.183473,-0.273558 -0.09044,-0.02401 -0.221989,-0.04408 -0.408828,-0.04408 -0.186842,2e-6 -0.318388,0.02007 -0.40883,0.04408 -0.121125,0.03216 -0.179511,0.148286 -0.183473,0.273558 -0.0074,0.234007 -0.01871,0.638666 -0.02183,0.988908 -0.08008,0.0051 -0.157712,0.01028 -0.22989,0.01552 -0.629117,0.04574 -1.109611,0.526228 -1.15535,1.155349 -0.0053,0.0727 -0.01049,0.150824 -0.01566,0.231537 -0.11178,-0.0017 -0.221505,-0.0026 -0.322312,-0.0026 -0.304077,0 -0.536304,0.0091 -0.682525,0.01717 -0.115562,0.0064 -0.221521,0.06225 -0.253234,0.173585 -0.02583,0.09069 -0.04834,0.226558 -0.04834,0.424347 -2e-6,0.19779 0.02251,0.333657 0.04834,0.424347 0.03171,0.111304 0.13767,0.167213 0.253234,0.173585 0.146223,0.008 0.378448,0.01717 0.682525,0.01717 0.084,0 0.174572,-7.51e-4 0.266969,-0.002 -0.0078,0.265462 -0.01369,0.553326 -0.01717,0.864897 -0.08635,-9.97e-4 -0.171049,-0.0018 -0.249802,-0.0018 -0.304077,0 -0.536305,0.009 -0.682525,0.01703 -0.115563,0.0064 -0.221522,0.06242 -0.253232,0.173724 -0.02585,0.09069 -0.04834,0.22642 -0.04834,0.424209 0,0.197791 0.02251,0.333659 0.04834,0.424347 0.03171,0.111331 0.137674,0.167372 0.253234,0.173726 0.146222,0.008 0.378447,0.01703 0.682525,0.01703 0.07875,-7e-6 0.16346,-7.51e-4 0.249802,-0.0018 0.0034,0.311572 0.0094,0.599437 0.01717,0.864899 -0.0924,-0.0011 -0.182966,-0.0019 -0.266969,-0.0019 -0.304077,0 -0.536305,0.0091 -0.682525,0.01717 -0.115563,0.0064 -0.22152,0.06228 -0.253233,0.173586 -0.02583,0.09069 -0.04834,0.226557 -0.04834,0.424347 0,0.197789 0.02251,0.333657 0.04834,0.424346 0.03171,0.111331 0.137667,0.167239 0.253233,0.173585 0.146223,0.008 0.378448,0.01717 0.682525,0.01717 0.100805,0 0.210532,-9.75e-4 0.322313,-0.0026 0.0052,0.08071 0.01037,0.158838 0.01566,0.231537 0.04574,0.629116 0.526232,1.10961 1.155349,1.155349 0.0727,0.0053 0.150827,0.01048 0.231538,0.01566 -0.0017,0.111779 -0.0026,0.221505 -0.0026,0.322312 0,0.304076 0.0091,0.536305 0.01717,0.682526 0.0064,0.115562 0.06225,0.22152 0.173584,0.253233 0.09069,0.02583 0.226557,0.04834 0.424346,0.04834 0.197791,1e-6 0.33366,-0.02251 0.424348,-0.04834 0.111305,-0.03171 0.167352,-0.137668 0.173724,-0.253231 0.008,-0.146223 0.01703,-0.37845 0.01703,-0.682527 0,-0.084 -7.5e-4,-0.174571 -0.0019,-0.266967 0.26545,0.0078 0.553342,0.0137 0.864897,0.01717 -9.98e-4,0.08635 -0.0018,0.171049 -0.0018,0.249802 0,0.304077 0.009,0.536305 0.01703,0.682524 0.0064,0.115563 0.06242,0.221522 0.173725,0.253232 0.09069,0.02584 0.22656,0.04834 0.424348,0.04834 0.197787,0 0.333656,-0.02251 0.424347,-0.04834 0.111331,-0.03171 0.167231,-0.137674 0.173585,-0.253233 0.008,-0.146223 0.01717,-0.378448 0.01717,-0.682525 -7e-6,-0.07875 -7.5e-4,-0.163461 -0.0018,-0.249802 0.311485,-0.0035 0.59936,-0.0094 0.864761,-0.01717 -0.0012,0.0924 -0.0019,0.182965 -0.0019,0.266968 0,0.304077 0.0091,0.536306 0.01717,0.682526 0.0064,0.115563 0.06227,0.221521 0.173585,0.253233 0.09069,0.02583 0.226558,0.04834 0.424347,0.04834 0.19779,0 0.333658,-0.02251 0.424347,-0.04834 0.111331,-0.03171 0.167372,-0.137674 0.173717,-0.253239 0.008,-0.146222 0.01703,-0.378448 0.01703,-0.682525 0,-0.100805 -9.75e-4,-0.210534 -0.0026,-0.322312 0.08076,-0.0052 0.158805,-0.01037 0.231538,-0.01566 0.629123,-0.04574 1.109611,-0.526233 1.155349,-1.155348 0.0053,-0.07218 0.01039,-0.149807 0.01552,-0.229889 0.350243,-0.0031 0.7549,-0.01443 0.988909,-0.02184 0.12527,-0.004 0.241396,-0.06235 0.273558,-0.183472 0.02402,-0.09045 0.04422,-0.221989 0.04422,-0.408829 0,-0.186842 -0.02021,-0.318387 -0.04422,-0.408829 -0.03216,-0.121146 -0.148288,-0.179514 -0.273558,-0.183473 -0.221835,-0.007 -0.596587,-0.01753 -0.933427,-0.02128 0.0078,-0.265309 0.0137,-0.552993 0.01717,-0.864349 0.332329,-0.0039 0.698209,-0.01412 0.91626,-0.02101 0.12527,-0.004 0.241397,-0.06235 0.273558,-0.183473 0.02401,-0.09044 0.04422,-0.221989 0.04422,-0.408829 0,-0.18684 -0.02021,-0.318523 -0.04422,-0.408966 -0.03216,-0.121145 -0.148288,-0.179512 -0.273558,-0.183473 -0.218058,-0.0069 -0.583914,-0.0171 -0.91626,-0.02101 -0.0035,-0.311357 -0.0094,-0.599042 -0.01717,-0.864349 0.336839,-0.0038 0.711591,-0.01426 0.933424,-0.02128 0.125272,-0.004 0.241397,-0.06233 0.273559,-0.183473 0.02402,-0.09045 0.04422,-0.221988 0.04422,-0.408829 z" />
  <path
     style="fill:#606668;fill-opacity:1;stroke-width:0.425197;stroke-linejoin:round;stroke-opacity:0.580986"
     d="m 28.500366,7.5 h -9 c -1.5,0 -3,-1.5 -3,-3 -0.143298,-1.520471 1.5,-3 3,-3 h 9 c 1.5,0 3,1.5 3,3 0,1.5 -1.5,3 -3,3 z"
     id="path3515"
     sodipodi:nodetypes="ccccccc" />
  <path
     id="path1058-3"
     style="fill:#fff01c;stroke-width:0.318898;stroke-linejoin:round;stroke-opacity:0.580986;fill-opacity:1"
     d="m 27.375366,4.5 a 1.125,1.125 0 0 1 1.125,-1.125 1.125,1.125 0 0 1 1.125,1.125 1.125,1.125 0 0 1 -1.125,1.125 1.125,1.125 0 0 1 -1.125,-1.125 z" />
  <path
     id="path3539"
     style="fill:#fff01c;stroke-width:0.318898;stroke-linejoin:round;stroke-opacity:0.580986;fill-opacity:1"
     d="m 24.375366,4.5 a 1.125,1.125 0 0 1 1.125,-1.125 1.125,1.125 0 0 1 1.125,1.125 1.125,1.125 0 0 1 -1.125,1.125 1.125,1.125 0 0 1 -1.125,-1.125 z" />
  <path
     id="path3541"
     style="fill:#fff01c;stroke-width:0.318898;stroke-linejoin:round;stroke-opacity:0.580986;fill-opacity:1"
     d="m 21.375366,4.5 a 1.125,1.125 0 0 1 1.125,-1.125 1.125,1.125 0 0 1 1.125,1.125 1.125,1.125 0 0 1 -1.125,1.125 1.125,1.125 0 0 1 -1.125,-1.125 z" />
  <path
     id="path3543"
     style="fill:#fff01c;stroke-width:0.318898;stroke-linejoin:round;stroke-opacity:0.580986;fill-opacity:1"
     d="m 18.375366,4.5 a 1.125,1.125 0 0 1 1.125,-1.125 1.125,1.125 0 0 1 1.125,1.125 1.125,1.125 0 0 1 -1.125,1.125 1.125,1.125 0 0 1 -1.125,-1.125 z" />
</svg>
