<?xml version="1.0" encoding="UTF-8" standalone="no"?>
<svg
   fill="none"
   viewBox="0 0 48 48"
   height="256"
   width="256"
   version="1.1"
   id="svg6"
   sodipodi:docname="bus-blaster.svg"
   inkscape:version="1.2.1 (9c6d41e410, 2022-07-14)"
   xmlns:inkscape="http://www.inkscape.org/namespaces/inkscape"
   xmlns:sodipodi="http://sodipodi.sourceforge.net/DTD/sodipodi-0.dtd"
   xmlns="http://www.w3.org/2000/svg"
   xmlns:svg="http://www.w3.org/2000/svg">
  <defs
     id="defs10" />
  <sodipodi:namedview
     id="namedview8"
     pagecolor="#ffffff"
     bordercolor="#666666"
     borderopacity="1.0"
     inkscape:showpageshadow="2"
     inkscape:pageopacity="0.0"
     inkscape:pagecheckerboard="true"
     inkscape:deskcolor="#d1d1d1"
     showgrid="true"
     inkscape:zoom="1.6191406"
     inkscape:cx="294.60073"
     inkscape:cy="165.2111"
     inkscape:current-layer="svg6"
     showguides="false"
     inkscape:window-width="2560"
     inkscape:window-height="1351"
     inkscape:window-x="-9"
     inkscape:window-y="-9"
     inkscape:window-maximized="1">
    <inkscape:grid
       type="xygrid"
       id="grid239"
       units="px"
       spacingx="1.5"
       spacingy="1.5" />
  </sodipodi:namedview>
  <path
     id="rect897"
     style="fill:#d63232;fill-opacity:1;stroke:none;stroke-width:0.363088;stroke-linejoin:round;stroke-opacity:0.580986"
     d="m 32.420654,2.295961 c 5.120294,0.26982 9.013548,4.163468 9.283448,9.283814 C 41.871201,14.751072 42,18.86099 42,24.000185 c 0,5.139095 -0.128799,9.24948 -0.295898,12.420776 -0.2698,5.120295 -9.538032,9.013648 -14.658326,9.283448 H 20.95459 C 15.834265,45.434609 6.565342,41.541256 6.295532,36.420961 6.128423,33.249665 6,29.13938 6,24.000185 6,18.86099 6.128423,14.751072 6.295532,11.579775 6.565342,6.459439 10.459011,2.565771 15.579346,2.295961 Z"
     sodipodi:nodetypes="ccssccssscc" />
  <path
     style="fill:#606668;fill-opacity:1;stroke-width:0.425197;stroke-linejoin:round;stroke-opacity:0.580986"
     d="m 19.5,0 h 9 c 1.5,0 3,1.5 3,3 v 7.5 c 0,1.5 -1.5,3 -3,3 h -9 c -1.5,0 -3,-1.5 -3,-3 V 3 c 0,-1.5 1.5,-3 3,-3 z"
     id="path450"
     sodipodi:nodetypes="ccccccccc" />
  <path
     id="path1058"
     style="fill:#fff01c;fill-opacity:1;stroke-width:0.425197;stroke-linejoin:round;stroke-opacity:0.580986"
     d="M 22.5,3 A 1.5,1.5 0 0 1 21,4.5 1.5,1.5 0 0 1 19.5,3 1.5,1.5 0 0 1 21,1.5 1.5,1.5 0 0 1 22.5,3 Z" />
  <path
     id="path1061"
     style="fill:#fff01c;fill-opacity:1;stroke-width:0.425197;stroke-linejoin:round;stroke-opacity:0.580986"
     d="M 28.5,3 A 1.5,1.5 0 0 1 27,4.5 1.5,1.5 0 0 1 25.5,3 1.5,1.5 0 0 1 27,1.5 1.5,1.5 0 0 1 28.5,3 Z" />
  <path
     id="path2-4"
     style="fill:#606668;fill-opacity:1;stroke-width:0.170454"
     d="m 19.008846,21.428721 c 0,0.17229 0.01865,0.293592 0.04078,0.376993 0.02967,0.111695 0.136736,0.165534 0.252252,0.169187 0.21578,0.0068 0.588917,0.01726 0.911881,0.02012 0.0048,0.07384 0.0095,0.145428 0.01431,0.211987 0.04218,0.580129 0.485239,1.023205 1.065357,1.065381 0.06655,0.0049 0.138017,0.0096 0.211856,0.0143 0.0028,0.322968 0.01343,0.696114 0.02025,0.911899 0.0037,0.115519 0.05735,0.222602 0.169052,0.25226 0.08339,0.02214 0.204826,0.04064 0.377112,0.04064 0.172288,0 0.293586,-0.01851 0.376987,-0.04064 0.111707,-0.02967 0.165529,-0.136741 0.169181,-0.252256 0.0064,-0.204546 0.01616,-0.550148 0.01961,-0.860741 0.244606,0.0071 0.509843,0.01265 0.796898,0.01583 0.0036,0.30645 0.01318,0.643839 0.01951,0.844909 0.0037,0.115519 0.05749,0.222599 0.169181,0.252255 0.08339,0.02214 0.204695,0.04064 0.376986,0.04064 0.172287,0 0.293711,-0.01851 0.37711,-0.04064 0.111708,-0.02967 0.165403,-0.13674 0.169054,-0.252257 0.0064,-0.201068 0.01588,-0.538457 0.01951,-0.844909 0.287041,-0.0032 0.552298,-0.0086 0.796898,-0.01583 0.0036,0.310593 0.01331,0.656195 0.01975,0.860738 0.0037,0.115519 0.05748,0.222598 0.169182,0.252257 0.08339,0.02214 0.204698,0.04064 0.376985,0.04064 0.172288,-2e-6 0.293587,-0.01851 0.376986,-0.04064 0.111695,-0.02966 0.165528,-0.136739 0.169182,-0.252257 0.0069,-0.215784 0.01726,-0.588931 0.02012,-0.9119 0.07384,-0.0048 0.145426,-0.0095 0.211982,-0.01431 0.580115,-0.04218 1.023183,-0.485252 1.065359,-1.065382 0.005,-0.06705 0.0097,-0.13908 0.01444,-0.213509 0.10307,0.0015 0.204252,0.0024 0.297206,0.0024 0.280392,0 0.494532,-0.0084 0.629364,-0.01583 0.106568,-0.0061 0.204268,-0.0574 0.233509,-0.160065 0.02381,-0.08362 0.04457,-0.208919 0.04457,-0.391308 2e-6,-0.182386 -0.02075,-0.307673 -0.04457,-0.391302 -0.02925,-0.10263 -0.126951,-0.154191 -0.233509,-0.160066 -0.134834,-0.0074 -0.348972,-0.01583 -0.629364,-0.01583 -0.07746,0 -0.160973,6.92e-4 -0.246172,0.0018 0.0071,-0.24479 0.01265,-0.510238 0.01583,-0.797547 0.07962,9.19e-4 0.157724,0.0015 0.230343,0.0015 0.280392,0 0.494532,-0.0083 0.629363,-0.0157 0.106568,-0.0059 0.204268,-0.05756 0.233507,-0.160197 0.02384,-0.08362 0.04457,-0.208788 0.04457,-0.391175 0,-0.182389 -0.02076,-0.307678 -0.04457,-0.391302 -0.02925,-0.102652 -0.126951,-0.154341 -0.233511,-0.1602 -0.134832,-0.0073 -0.348967,-0.0157 -0.62936,-0.0157 -0.07262,5e-6 -0.15073,6.91e-4 -0.230346,0.0015 -0.003,-0.28731 -0.0086,-0.552757 -0.01583,-0.797548 0.08521,0.001 0.168717,0.0016 0.246176,0.0016 0.280392,0 0.494532,-0.0084 0.629363,-0.01583 0.106568,-0.006 0.204265,-0.05743 0.233509,-0.160069 0.02382,-0.08362 0.04457,-0.208913 0.04457,-0.391302 0,-0.182386 -0.02076,-0.307676 -0.04457,-0.391303 -0.02925,-0.102652 -0.126951,-0.154214 -0.233509,-0.160067 -0.134833,-0.0074 -0.348971,-0.01583 -0.629363,-0.01583 -0.09295,0 -0.194134,9e-4 -0.297207,0.0024 -0.0048,-0.07443 -0.0096,-0.14647 -0.01443,-0.213507 -0.04217,-0.580127 -0.485243,-1.023203 -1.065358,-1.065381 -0.06705,-0.0049 -0.13908,-0.0096 -0.213503,-0.01444 0.0015,-0.103081 0.0024,-0.204258 0.0024,-0.297214 0,-0.280397 -0.0084,-0.494541 -0.01583,-0.629377 -0.0059,-0.106579 -0.0574,-0.204271 -0.160064,-0.233514 -0.08362,-0.02382 -0.208911,-0.04457 -0.391293,-0.04457 -0.182386,0 -0.307671,0.02075 -0.391296,0.04457 -0.10263,0.02925 -0.154316,0.12695 -0.160193,0.233512 -0.0073,0.134838 -0.0157,0.348981 -0.0157,0.629378 0,0.07746 6.92e-4,0.160978 0.0017,0.246179 -0.244773,-0.0071 -0.51024,-0.01265 -0.797528,-0.01583 9.19e-4,-0.07962 0.0015,-0.157728 0.0015,-0.230349 0,-0.280398 -0.0083,-0.494543 -0.0157,-0.629375 -0.006,-0.106579 -0.05756,-0.204271 -0.160194,-0.233512 -0.08358,-0.02376 -0.208863,-0.0445 -0.391245,-0.0445 -0.182381,0 -0.307667,0.02075 -0.391294,0.04457 -0.102652,0.02925 -0.154206,0.126951 -0.160065,0.233514 -0.0073,0.134835 -0.01583,0.348976 -0.01583,0.629375 6e-6,0.07262 6.91e-4,0.150733 0.0015,0.230349 -0.287225,0.0032 -0.552676,0.0087 -0.797403,0.01583 0.0011,-0.08521 0.0017,-0.168717 0.0017,-0.246178 0,-0.280398 -0.0084,-0.494543 -0.01583,-0.629376 -0.0061,-0.106579 -0.05741,-0.204272 -0.160064,-0.233516 -0.08362,-0.02382 -0.208911,-0.04457 -0.391294,-0.04457 -0.182384,0 -0.307668,0.02075 -0.391293,0.04457 -0.102652,0.02925 -0.154337,0.126951 -0.160188,0.23352 -0.0074,0.134835 -0.0157,0.348978 -0.0157,0.629378 0,0.09295 8.99e-4,0.194139 0.0024,0.297212 -0.07446,0.0048 -0.146436,0.0096 -0.213504,0.01443 -0.580119,0.04218 -1.023181,0.485254 -1.065357,1.065381 -0.005,0.06655 -0.0096,0.13814 -0.01431,0.211987 -0.322962,0.0028 -0.6961,0.01331 -0.911881,0.02013 -0.115519,0.0037 -0.222594,0.05749 -0.252251,0.169185 -0.02214,0.0834 -0.04077,0.204702 -0.04077,0.376994 0,0.172293 0.01863,0.293594 0.04077,0.376993 0.02966,0.111719 0.136738,0.165535 0.252251,0.169187 0.204556,0.0064 0.550117,0.01616 0.860721,0.01962 -0.0071,0.244649 -0.01265,0.509931 -0.01583,0.797041 -0.306443,0.0036 -0.643824,0.01305 -0.844891,0.01938 -0.115519,0.0037 -0.222594,0.05749 -0.252251,0.169184 -0.0221,0.08339 -0.04073,0.204697 -0.04073,0.376989 0,0.17229 0.01864,0.293718 0.04077,0.377118 0.02966,0.111708 0.136738,0.165535 0.25225,0.169186 0.201074,0.0064 0.538433,0.01577 0.844892,0.01938 0.0032,0.287113 0.0086,0.552395 0.01583,0.797042 -0.310602,0.0036 -0.656163,0.01318 -0.860718,0.01961 -0.115519,0.0037 -0.222595,0.05749 -0.252251,0.169185 -0.02217,0.0834 -0.04077,0.204701 -0.04077,0.376993 z" />
  <g
     id="g397"
     transform="matrix(1,0,0,-1,-16.5,87)">
    <path
       style="fill:#606668;fill-opacity:1;stroke-width:0.425197;stroke-linejoin:round;stroke-opacity:0.580986"
       d="m 30.75,44.25 h 19.5 c 1.5,0 1.5,0.75 1.5,2.25 0,1.5 0,2.25 -1.5,2.25 h -19.5 c -1.5,0 -1.5,-0.75 -1.5,-2.25 0,-1.5 0,-2.25 1.5,-2.25 z"
       id="path6182"
       sodipodi:nodetypes="ccccccc" />
    <path
       id="path14304"
       style="fill:#adafaa;fill-opacity:1;stroke:none;stroke-width:1.3125;stroke-linecap:round;stroke-linejoin:round;stroke-opacity:1"
       d="m 31.875,39 c -0.749999,0 -1.125,0.375001 -1.125,1.125 v 5.625 c 0,0.749999 0.375001,1.125 1.125,1.125 h 17.25 c 0.749999,0 1.125,-0.375001 1.125,-1.125 V 40.125 C 50.25,39.375001 49.874999,39 49.125,39 Z"
       sodipodi:nodetypes="sccssccss" />
  </g>
  <path
     id="path500"
     style="fill:#606668;fill-opacity:1;stroke-width:0.170454"
     d="m 22.031235,35.95029 c 0.110752,0.110752 0.200715,0.176742 0.268554,0.216125 0.09087,0.05273 0.194308,0.01851 0.270913,-0.05339 0.143071,-0.134343 0.389658,-0.367481 0.599114,-0.573242 0.05056,0.04439 0.09956,0.08741 0.145468,0.127073 0.400036,0.345808 0.969665,0.345817 1.36969,1.4e-5 0.04595,-0.03961 0.09487,-0.08255 0.145384,-0.126988 0.209409,0.205817 0.456112,0.438847 0.599214,0.573171 0.07666,0.07186 0.179961,0.106227 0.270829,0.05348 0.06785,-0.03936 0.157796,-0.105534 0.268547,-0.216287 0.110752,-0.110751 0.176823,-0.200626 0.216206,-0.268467 0.05274,-0.09088 0.01851,-0.194306 -0.05339,-0.27091 -0.127381,-0.135594 -0.343261,-0.364035 -0.540694,-0.565917 0.16186,-0.152618 0.335868,-0.319611 0.522439,-0.502092 0.199303,0.194682 0.422346,0.405406 0.555671,0.530585 0.07665,0.07186 0.180046,0.106139 0.270909,0.05339 0.06785,-0.03936 0.157714,-0.105457 0.268466,-0.216205 0.110752,-0.110751 0.176904,-0.200705 0.216287,-0.268546 0.05274,-0.09088 0.01843,-0.194225 -0.05348,-0.270829 -0.125145,-0.133357 -0.335918,-0.356349 -0.530587,-0.555672 0.182464,-0.186569 0.34947,-0.360592 0.502094,-0.522439 0.201966,0.197348 0.430373,0.413262 0.566001,0.540608 0.07665,0.07186 0.180036,0.106139 0.27091,0.05339 0.06785,-0.03936 0.157715,-0.105446 0.268465,-0.216206 0.110752,-0.110751 0.176824,-0.200626 0.216205,-0.268465 0.05275,-0.09087 0.01851,-0.194305 -0.05339,-0.27091 -0.134262,-0.143162 -0.36749,-0.389669 -0.573255,-0.599129 0.0444,-0.05056 0.08741,-0.09956 0.127071,-0.145467 0.345797,-0.400026 0.345795,-0.969657 -1.5e-5,-1.369692 -0.03993,-0.04626 -0.08316,-0.09565 -0.127965,-0.146531 0.06729,-0.06523 0.132838,-0.129757 0.192591,-0.189511 0.180244,-0.180243 0.312507,-0.323287 0.394396,-0.414743 0.06465,-0.07235 0.0944,-0.16821 0.04721,-0.253 -0.03846,-0.06907 -0.105644,-0.162951 -0.222886,-0.280196 -0.117237,-0.117249 -0.21112,-0.184441 -0.280193,-0.222884 -0.08478,-0.04718 -0.180726,-0.01751 -0.253002,0.04721 -0.09138,0.08196 -0.234499,0.214155 -0.414743,0.394397 -0.04978,0.04979 -0.103026,0.103929 -0.157048,0.159444 -0.152736,-0.161976 -0.319864,-0.336121 -0.502509,-0.522855 0.05178,-0.05059 0.10241,-0.100353 0.149097,-0.147045 0.180243,-0.180242 0.312592,-0.3232 0.394482,-0.414657 0.06465,-0.07235 0.0943,-0.168313 0.04714,-0.253082 -0.03843,-0.06908 -0.105556,-0.162868 -0.222804,-0.280111 -0.117237,-0.117249 -0.211121,-0.184445 -0.280192,-0.222885 -0.08479,-0.04719 -0.18082,-0.0176 -0.253085,0.04712 -0.09138,0.08196 -0.234413,0.214238 -0.414657,0.394482 -0.04668,0.04668 -0.09645,0.09733 -0.147044,0.149097 -0.186657,-0.182722 -0.360887,-0.349765 -0.522857,-0.50251 0.05543,-0.05412 0.109571,-0.107338 0.15936,-0.157136 0.180243,-0.180242 0.312507,-0.323286 0.394397,-0.414741 0.06465,-0.07235 0.09439,-0.168227 0.04721,-0.253002 -0.03846,-0.06907 -0.105644,-0.162949 -0.222885,-0.280193 -0.117236,-0.117237 -0.211119,-0.184442 -0.280193,-0.222884 -0.08479,-0.04719 -0.18074,-0.01753 -0.253001,0.04721 -0.09138,0.08196 -0.234499,0.214154 -0.414742,0.394397 -0.05975,0.05975 -0.124216,0.125371 -0.189511,0.192593 -0.05093,-0.04477 -0.10032,-0.08799 -0.146531,-0.127965 -0.400025,-0.345815 -0.969666,-0.345815 -1.369691,-1.6e-5 -0.04626,0.03993 -0.09557,0.08325 -0.14653,0.127962 -0.06524,-0.06729 -0.129761,-0.13284 -0.189515,-0.192596 -0.180248,-0.180246 -0.323295,-0.312513 -0.414751,-0.394405 -0.07236,-0.06466 -0.168214,-0.0944 -0.253003,-0.04721 -0.06907,0.03846 -0.162947,0.105644 -0.280186,0.222878 -0.117237,0.117237 -0.184439,0.211119 -0.222881,0.280191 -0.04718,0.08478 -0.01759,0.180804 0.04712,0.253081 0.08196,0.09138 0.214245,0.234421 0.394491,0.414667 0.0498,0.0498 0.103928,0.103037 0.159362,0.157139 -0.161966,0.152725 -0.336122,0.319865 -0.522843,0.502497 -0.05059,-0.05178 -0.100375,-0.10241 -0.147048,-0.149101 -0.180246,-0.180246 -0.323207,-0.312598 -0.414665,-0.39449 -0.07236,-0.06466 -0.168315,-0.0943 -0.253083,-0.04712 -0.06899,0.03846 -0.162866,0.105655 -0.280105,0.222898 -0.117237,0.117237 -0.184437,0.211116 -0.222879,0.280188 -0.04719,0.08479 -0.01752,0.180734 0.04721,0.253003 0.08196,0.09138 0.214157,0.234503 0.394405,0.41475 0.04668,0.04668 0.09735,0.09645 0.1491,0.147048 -0.182581,0.186688 -0.349712,0.360834 -0.502417,0.522764 -0.05406,-0.0555 -0.107338,-0.109571 -0.157138,-0.159363 -0.180246,-0.180246 -0.323295,-0.312514 -0.414752,-0.394405 -0.07236,-0.06466 -0.168221,-0.0944 -0.253001,-0.04721 -0.06907,0.03846 -0.162947,0.105644 -0.280187,0.22288 -0.117237,0.117237 -0.184439,0.211115 -0.22288,0.280188 -0.04719,0.08479 -0.0176,0.180817 0.04715,0.253083 0.08196,0.09138 0.214243,0.234419 0.394492,0.414667 0.05975,0.05975 0.125375,0.124219 0.192595,0.189515 -0.04479,0.05095 -0.08797,0.100298 -0.127964,0.146529 -0.345799,0.400028 -0.34579,0.969658 1.7e-5,1.369689 0.03961,0.04595 0.08264,0.09496 0.127074,0.145469 -0.205811,0.209405 -0.438914,0.456026 -0.573235,0.599125 -0.07186,0.07665 -0.106128,0.180043 -0.05339,0.270909 0.03937,0.06785 0.10538,0.157794 0.216133,0.268548 0.110751,0.110751 0.200709,0.176751 0.268549,0.216134 0.09088,0.05276 0.194308,0.01851 0.27091,-0.05339 0.1356,-0.127387 0.364016,-0.343244 0.565912,-0.540673 0.152647,0.161887 0.319669,0.335924 0.502186,0.52253 -0.194681,0.1993 -0.405482,0.422251 -0.53066,0.555574 -0.07186,0.07665 -0.106128,0.180043 -0.05339,0.27091 0.0394,0.0678 0.105402,0.157765 0.216155,0.268518 0.110752,0.110751 0.200797,0.176823 0.268629,0.216214 0.09087,0.05275 0.194306,0.01851 0.270909,-0.05339 0.133362,-0.125148 0.356256,-0.335978 0.555574,-0.530658 0.186616,0.182507 0.360654,0.34953 0.522532,0.502184 -0.197353,0.201973 -0.413328,0.430268 -0.54068,0.565903 -0.07186,0.07665 -0.106139,0.180041 -0.05339,0.270909 0.03936,0.06786 0.10538,0.157794 0.216135,0.268547 z" />
</svg>
