<?xml version="1.0" encoding="UTF-8" standalone="no"?>
<svg
   fill="none"
   viewBox="0 0 48 48"
   height="256"
   width="256"
   version="1.1"
   id="svg6"
   sodipodi:docname="ctxlink.svg"
   inkscape:version="1.2.1 (9c6d41e410, 2022-07-14)"
   xmlns:inkscape="http://www.inkscape.org/namespaces/inkscape"
   xmlns:sodipodi="http://sodipodi.sourceforge.net/DTD/sodipodi-0.dtd"
   xmlns="http://www.w3.org/2000/svg"
   xmlns:svg="http://www.w3.org/2000/svg">
  <defs
     id="defs10" />
  <sodipodi:namedview
     id="namedview8"
     pagecolor="#ffffff"
     bordercolor="#666666"
     borderopacity="1.0"
     inkscape:showpageshadow="2"
     inkscape:pageopacity="0.0"
     inkscape:pagecheckerboard="true"
     inkscape:deskcolor="#d1d1d1"
     showgrid="true"
     inkscape:zoom="1.6191406"
     inkscape:cx="-4.3232811"
     inkscape:cy="98.509049"
     inkscape:current-layer="svg6"
     showguides="false"
     inkscape:window-width="1920"
     inkscape:window-height="730"
     inkscape:window-x="-6"
     inkscape:window-y="-6"
     inkscape:window-maximized="1">
    <inkscape:grid
       type="xygrid"
       id="grid239"
       units="px"
       spacingx="1.5"
       spacingy="1.5" />
  </sodipodi:namedview>
  <path
     id="rect897"
     style="fill:#77c32f;fill-opacity:1;stroke:none;stroke-width:0.363088;stroke-linejoin:round;stroke-opacity:0.580986"
     d="m 20.954224,44.908447 c -5.120294,-0.26982 -9.013548,-4.163468 -9.283448,-9.283814 -0.167099,-3.171297 -0.295898,-7.281215 -0.295898,-12.42041 0,-5.139095 0.128799,-9.24948 0.295898,-12.420776 0.2698,-5.120295 4.163154,-9.013648 9.283448,-9.283448 h 6.091186 c 5.120325,0.2698 9.014004,4.163153 9.283814,9.283448 0.167109,3.171296 0.295532,7.281581 0.295532,12.420776 0,5.139195 -0.128423,9.249113 -0.295532,12.42041 -0.26981,5.120336 -4.163479,9.014004 -9.283814,9.283814 z"
     sodipodi:nodetypes="ccssccssscc" />
  <path
     style="fill:#606668;fill-opacity:1;stroke-width:0.425197;stroke-linejoin:round;stroke-opacity:0.580986"
     d="m 28.5,45.704408 h -9 c -1.5,0 -3,-1.5 -3,-3 v -7.5 c 0,-1.5 1.5,-3 3,-3 h 9 c 1.5,0 3,1.5 3,3 v 7.5 c 0,1.5 -1.5,3 -3,3 z"
     id="path450"
     sodipodi:nodetypes="ccccccccc" />
  <path
     id="path1058"
     style="fill:#fff01c;stroke-width:0.425197;stroke-linejoin:round;stroke-opacity:0.580986;fill-opacity:1"
     d="m 25.5,42.704408 a 1.5,1.5 0 0 1 1.5,-1.5 1.5,1.5 0 0 1 1.5,1.5 1.5,1.5 0 0 1 -1.5,1.5 1.5,1.5 0 0 1 -1.5,-1.5 z" />
  <path
     id="path1061"
     style="fill:#fff01c;stroke-width:0.425197;stroke-linejoin:round;stroke-opacity:0.580986;fill-opacity:1"
     d="m 19.5,42.704408 a 1.5,1.5 0 0 1 1.5,-1.5 1.5,1.5 0 0 1 1.5,1.5 1.5,1.5 0 0 1 -1.5,1.5 1.5,1.5 0 0 1 -1.5,-1.5 z" />
  <path
     id="path2-4"
     style="fill:#606668;fill-opacity:1;stroke-width:0.138396"
     d="m 27.04459,26.527954 c 0,-0.105097 -0.01137,-0.179091 -0.02488,-0.229965 -0.0181,-0.06813 -0.08341,-0.100976 -0.153877,-0.103205 -0.131629,-0.0041 -0.359248,-0.01052 -0.55626,-0.01228 -0.0029,-0.04504 -0.0058,-0.08871 -0.0087,-0.129312 -0.02573,-0.35388 -0.296004,-0.624157 -0.649884,-0.649884 -0.0406,-0.003 -0.08419,-0.0058 -0.129235,-0.0087 -0.0017,-0.197012 -0.0082,-0.424632 -0.01236,-0.55626 -0.0023,-0.07046 -0.03499,-0.135786 -0.103125,-0.153878 -0.05087,-0.01351 -0.124945,-0.0248 -0.230043,-0.0248 -0.105098,0 -0.179092,0.01129 -0.229967,0.0248 -0.06815,0.0181 -0.100975,0.08341 -0.103203,0.153877 -0.004,0.124772 -0.0099,0.33559 -0.01197,0.525052 -0.149213,-0.0043 -0.311012,-0.0077 -0.48612,-0.0097 -0.0022,-0.186934 -0.008,-0.392743 -0.0119,-0.515396 -0.0023,-0.07046 -0.03507,-0.135786 -0.103203,-0.153877 -0.05087,-0.01351 -0.124867,-0.0248 -0.229966,-0.0248 -0.105097,0 -0.179167,0.01129 -0.230043,0.0248 -0.06814,0.0181 -0.100898,0.08341 -0.103125,0.153878 -0.0039,0.122652 -0.0097,0.328461 -0.01189,0.515396 -0.175098,0.002 -0.336911,0.0053 -0.48612,0.0097 -0.0021,-0.189463 -0.0081,-0.400279 -0.01205,-0.525052 -0.0023,-0.07046 -0.03506,-0.135785 -0.103204,-0.153876 -0.05087,-0.01351 -0.124868,-0.02479 -0.229965,-0.02479 -0.105099,0 -0.179093,0.01129 -0.229967,0.02479 -0.06813,0.01809 -0.100975,0.08341 -0.103204,0.153876 -0.0041,0.131629 -0.01052,0.35925 -0.01228,0.556261 -0.04505,0.0028 -0.08871,0.0058 -0.129312,0.0087 -0.353879,0.02572 -0.624157,0.296003 -0.649885,0.649884 -0.003,0.0409 -0.0059,0.08484 -0.0088,0.130239 -0.06287,-9.75e-4 -0.124598,-0.0015 -0.181302,-0.0015 -0.171043,0 -0.301671,0.0051 -0.38392,0.0097 -0.065,0.0036 -0.124605,0.03502 -0.142444,0.09764 -0.01453,0.05101 -0.02719,0.127438 -0.02719,0.238695 0,0.111256 0.01266,0.187682 0.02719,0.238695 0.01784,0.06261 0.07744,0.09406 0.142445,0.09764 0.08225,0.0045 0.212877,0.0097 0.383921,0.0097 0.04725,0 0.0982,-4.23e-4 0.150169,-0.0011 -0.0043,0.149322 -0.0077,0.311246 -0.0097,0.486504 -0.04857,-5.61e-4 -0.09622,-9.75e-4 -0.140514,-9.75e-4 -0.171042,0 -0.301671,0.0051 -0.383919,0.0096 -0.065,0.0036 -0.124607,0.03511 -0.142444,0.09772 -0.01454,0.05101 -0.02719,0.127361 -0.02719,0.238618 0,0.111257 0.01266,0.187683 0.02719,0.238695 0.01784,0.06262 0.07744,0.09415 0.142444,0.09772 0.08225,0.0045 0.212877,0.0096 0.38392,0.0096 0.04429,-5e-6 0.09195,-4.24e-4 0.140514,-0.0011 0.0019,0.175259 0.0053,0.337183 0.0097,0.486505 -0.05198,-6.19e-4 -0.102918,-0.001 -0.15017,-0.001 -0.171043,0 -0.301672,0.0051 -0.38392,0.0097 -0.065,0.0036 -0.124605,0.03503 -0.142446,0.09764 -0.01453,0.05101 -0.02719,0.127439 -0.02719,0.238695 0,0.111257 0.01266,0.187683 0.02719,0.238695 0.01784,0.06263 0.07744,0.09407 0.142444,0.09764 0.08225,0.0045 0.212878,0.0097 0.383921,0.0097 0.0567,0 0.118424,-5.48e-4 0.181301,-0.0015 0.0029,0.0454 0.0058,0.08935 0.0088,0.13024 0.02572,0.353878 0.296006,0.624155 0.649883,0.649883 0.0409,0.003 0.08484,0.0059 0.13024,0.0088 -9.75e-4,0.06288 -0.0015,0.124597 -0.0015,0.181301 2e-6,0.171043 0.0051,0.301672 0.0097,0.383921 0.0036,0.065 0.03502,0.124605 0.09764,0.142444 0.05101,0.01453 0.127439,0.02719 0.238695,0.02719 0.111257,0 0.187683,-0.01266 0.238695,-0.02719 0.06261,-0.01783 0.09414,-0.07744 0.09772,-0.142443 0.0045,-0.08225 0.0096,-0.212878 0.0096,-0.383921 0,-0.04725 -4.22e-4,-0.0982 -0.001,-0.150169 0.149316,0.0044 0.311255,0.0077 0.486505,0.0097 -5.61e-4,0.04857 -0.001,0.09622 -0.001,0.140514 0,0.171043 0.0051,0.301672 0.0096,0.38392 0.0036,0.065 0.03512,0.124605 0.09772,0.142443 0.05101,0.01454 0.12744,0.0272 0.238696,0.0272 0.111256,0 0.187682,-0.01266 0.238696,-0.0272 0.06263,-0.01783 0.09407,-0.07744 0.09764,-0.142444 0.0045,-0.08225 0.0097,-0.212877 0.0097,-0.383921 -4e-6,-0.0443 -4.22e-4,-0.09195 -0.0011,-0.140513 0.17521,-0.0019 0.337141,-0.0053 0.486428,-0.0097 -6.75e-4,0.05198 -0.001,0.102918 -0.001,0.15017 0,0.171043 0.0051,0.301672 0.0097,0.383921 0.0036,0.065 0.03503,0.124606 0.09764,0.142444 0.05101,0.01453 0.127439,0.02719 0.238695,0.02719 0.111257,0 0.187683,-0.01266 0.238696,-0.02719 0.06263,-0.01783 0.09415,-0.07744 0.09772,-0.142448 0.0045,-0.08225 0.0096,-0.212877 0.0096,-0.38392 0,-0.0567 -5.49e-4,-0.118425 -0.0015,-0.1813 0.04543,-0.0029 0.08933,-0.0059 0.130239,-0.0088 0.353882,-0.02573 0.624156,-0.296006 0.649885,-0.649883 0.003,-0.0406 0.0059,-0.08427 0.0087,-0.129313 0.197012,-0.0017 0.424632,-0.0081 0.556262,-0.01228 0.07046,-0.0023 0.135785,-0.03507 0.153876,-0.103203 0.01351,-0.05088 0.02488,-0.124869 0.02488,-0.229966 0,-0.105098 -0.01137,-0.179093 -0.02488,-0.229967 -0.01809,-0.06815 -0.08341,-0.100976 -0.153876,-0.103203 -0.124782,-0.004 -0.33558,-0.0099 -0.525053,-0.01197 0.0044,-0.149236 0.0077,-0.311058 0.0097,-0.486196 0.186935,-0.0022 0.392743,-0.0079 0.515396,-0.01182 0.07046,-0.0023 0.135786,-0.03507 0.153876,-0.103203 0.01351,-0.05087 0.02488,-0.124869 0.02488,-0.229967 0,-0.105097 -0.01137,-0.179169 -0.02488,-0.230043 -0.01809,-0.06815 -0.08341,-0.100976 -0.153876,-0.103203 -0.122658,-0.0039 -0.328452,-0.0096 -0.515396,-0.01182 -0.002,-0.175139 -0.0053,-0.336961 -0.0097,-0.486197 0.189473,-0.0021 0.400271,-0.008 0.525052,-0.01197 0.07046,-0.0023 0.135784,-0.03506 0.153877,-0.103203 0.01351,-0.05088 0.02488,-0.124868 0.02488,-0.229966 z" />
  <path
     id="path916"
     style="fill:#606668;fill-opacity:1;stroke-width:0.246037"
     d="m 29.414624,12.111321 c 0,-0.18684 -0.02021,-0.318385 -0.04422,-0.408828 -0.03217,-0.121125 -0.148286,-0.179512 -0.273559,-0.183474 -0.234006,-0.0074 -0.638663,-0.01871 -0.988907,-0.02183 -0.0051,-0.08008 -0.01027,-0.157709 -0.01552,-0.229888 -0.04574,-0.62912 -0.526229,-1.109611 -1.155349,-1.155349 -0.07218,-0.0053 -0.149677,-0.01039 -0.229751,-0.01552 -0.0031,-0.3502415 -0.01457,-0.7548996 -0.02197,-0.9889067 -0.004,-0.1252711 -0.06221,-0.2413971 -0.183333,-0.2735598 -0.09044,-0.024013 -0.222126,-0.04408 -0.408966,-0.04408 -0.186841,0 -0.318386,0.02007 -0.40883,0.04408 -0.12115,0.032168 -0.179512,0.1482866 -0.183473,0.2735584 -0.007,0.2218179 -0.01753,0.5966036 -0.02128,0.9334261 -0.265269,-0.0078 -0.55291,-0.0137 -0.864213,-0.01717 -0.0039,-0.3323271 -0.01425,-0.6982089 -0.02115,-0.9162594 -0.004,-0.125271 -0.06235,-0.2413963 -0.183472,-0.2735577 -0.09044,-0.024013 -0.221987,-0.04408 -0.408829,-0.04408 -0.18684,7e-7 -0.318521,0.02007 -0.408966,0.04408 -0.12115,0.032168 -0.179373,0.1482888 -0.183333,0.2735598 -0.0069,0.2180484 -0.01723,0.5839302 -0.02115,0.9162603 -0.311287,0.0035 -0.598952,0.0094 -0.864213,0.01717 -0.0038,-0.3368223 -0.01441,-0.711608 -0.02143,-0.933426 -0.004,-0.1252711 -0.06233,-0.241395 -0.183473,-0.2735584 -0.09044,-0.024013 -0.221988,-0.04408 -0.408828,-0.04408 -0.186841,7e-7 -0.318388,0.02007 -0.408829,0.04408 -0.121126,0.032158 -0.179512,0.1482866 -0.183474,0.2735591 -0.0074,0.2340071 -0.01871,0.6386652 -0.02183,0.9889076 -0.08008,0.0051 -0.157712,0.01028 -0.22989,0.01552 -0.629117,0.04574 -1.109611,0.526228 -1.155349,1.155349 -0.0053,0.0727 -0.01049,0.150824 -0.01566,0.231537 -0.11178,-0.0017 -0.221505,-0.0026 -0.322312,-0.0026 -0.304077,0 -0.536305,0.0091 -0.682525,0.01717 -0.115562,0.0064 -0.22152,0.06225 -0.253233,0.173585 -0.02583,0.09069 -0.04834,0.226558 -0.04834,0.424347 -10e-7,0.19779 0.02251,0.333657 0.04834,0.424347 0.03171,0.111304 0.13767,0.167213 0.253234,0.173585 0.146222,0.008 0.378448,0.01717 0.682525,0.01717 0.084,0 0.174572,-7.51e-4 0.266969,-0.002 -0.0078,0.265462 -0.01369,0.553326 -0.01717,0.864897 -0.08634,-9.97e-4 -0.171049,-0.0018 -0.249802,-0.0018 -0.304077,0 -0.536305,0.009 -0.682525,0.01703 -0.115563,0.0064 -0.221522,0.06242 -0.253232,0.173724 -0.02585,0.09069 -0.04834,0.22642 -0.04834,0.424209 0,0.197791 0.02251,0.333659 0.04834,0.424347 0.03171,0.111331 0.137674,0.167372 0.253233,0.173726 0.146223,0.008 0.378448,0.01703 0.682525,0.01703 0.07875,-7e-6 0.16346,-7.51e-4 0.249802,-0.0018 0.0034,0.311572 0.0094,0.599437 0.01717,0.864899 -0.0924,-0.0011 -0.182966,-0.0019 -0.266969,-0.0019 -0.304077,0 -0.536305,0.0091 -0.682525,0.01717 -0.115563,0.0064 -0.22152,0.06228 -0.253235,0.173586 -0.02583,0.09069 -0.04834,0.226557 -0.04834,0.424347 0,0.197789 0.02251,0.333657 0.04834,0.424346 0.03171,0.111331 0.137668,0.167239 0.253233,0.173585 0.146223,0.008 0.378449,0.01717 0.682526,0.01717 0.100805,0 0.210532,-9.75e-4 0.322312,-0.0026 0.0052,0.08071 0.01037,0.158838 0.01566,0.231537 0.04574,0.629116 0.526232,1.10961 1.155349,1.155349 0.0727,0.0053 0.150826,0.01048 0.231537,0.01566 -0.0017,0.111779 -0.0026,0.221505 -0.0026,0.322312 1e-6,0.304076 0.0091,0.536305 0.01717,0.682526 0.0064,0.115562 0.06225,0.22152 0.173585,0.253233 0.09069,0.02583 0.226557,0.04834 0.424346,0.04834 0.19779,10e-7 0.333659,-0.02251 0.424347,-0.04834 0.111305,-0.03171 0.167353,-0.137668 0.173724,-0.253231 0.008,-0.146223 0.01703,-0.37845 0.01703,-0.682527 0,-0.084 -7.5e-4,-0.174571 -0.0019,-0.266967 0.26545,0.0078 0.553342,0.0137 0.864898,0.01717 -9.97e-4,0.08634 -0.0018,0.171049 -0.0018,0.249802 0,0.304077 0.009,0.536305 0.01703,0.682524 0.0064,0.115563 0.06242,0.221522 0.173725,0.253232 0.09069,0.02584 0.226558,0.04834 0.424348,0.04834 0.197788,0 0.333657,-0.02251 0.424347,-0.04834 0.111331,-0.03171 0.167232,-0.137674 0.173585,-0.253233 0.008,-0.146223 0.01717,-0.378448 0.01717,-0.682525 -7e-6,-0.07875 -7.5e-4,-0.163461 -0.0018,-0.249802 0.311485,-0.0035 0.599361,-0.0094 0.864761,-0.01717 -0.0012,0.0924 -0.0019,0.182965 -0.0019,0.266968 0,0.304077 0.0091,0.536306 0.01717,0.682526 0.0064,0.115563 0.06227,0.221521 0.173584,0.253233 0.09069,0.02583 0.226558,0.04834 0.424347,0.04834 0.19779,0 0.333658,-0.02251 0.424347,-0.04834 0.111331,-0.03171 0.167372,-0.137674 0.173717,-0.253239 0.008,-0.146222 0.01703,-0.378448 0.01703,-0.682525 0,-0.100805 -9.75e-4,-0.210534 -0.0026,-0.322312 0.08076,-0.0052 0.158804,-0.01037 0.231537,-0.01566 0.629123,-0.04574 1.109611,-0.526233 1.155351,-1.155348 0.0053,-0.07218 0.01039,-0.149807 0.01552,-0.229889 0.350244,-0.0031 0.754901,-0.01443 0.988909,-0.02184 0.125271,-0.004 0.241397,-0.06235 0.273558,-0.183472 0.02402,-0.09045 0.04422,-0.221989 0.04422,-0.408829 0,-0.186842 -0.02021,-0.318387 -0.04422,-0.408829 -0.03216,-0.121146 -0.148287,-0.179514 -0.273558,-0.183473 -0.221834,-0.007 -0.596586,-0.01753 -0.933426,-0.02128 0.0078,-0.265309 0.0137,-0.552993 0.01717,-0.864349 0.332328,-0.0039 0.69821,-0.01412 0.916259,-0.02101 0.125271,-0.004 0.241398,-0.06235 0.273558,-0.183473 0.02401,-0.09044 0.04422,-0.221989 0.04422,-0.408829 0,-0.18684 -0.02021,-0.318523 -0.04422,-0.408966 -0.03216,-0.121145 -0.148287,-0.179512 -0.273558,-0.183473 -0.218058,-0.0069 -0.583914,-0.0171 -0.916259,-0.02101 -0.0035,-0.311357 -0.0094,-0.599042 -0.01717,-0.864349 0.33684,-0.0038 0.711592,-0.01426 0.933425,-0.02128 0.125271,-0.004 0.241395,-0.06233 0.273559,-0.183473 0.02402,-0.09045 0.04422,-0.221988 0.04422,-0.408829 z" />
  <path
     style="color:#000000;fill:#edf1e9;stroke-linejoin:round;-inkscape-stroke:none;fill-opacity:1"
     d="m 16.5,1.125 c -0.207098,2.07e-5 -0.374979,0.1679018 -0.375,0.375 v 6 c 2.1e-5,0.2070982 0.167902,0.3749793 0.375,0.375 h 15 c 0.207098,-2.07e-5 0.374979,-0.1679018 0.375,-0.375 v -6 C 31.874979,1.2929018 31.707098,1.1250207 31.5,1.125 h -12 c -0.207098,2.07e-5 -0.374979,0.1679018 -0.375,0.375 v 3 c 2.1e-5,0.2070982 0.167902,0.3749793 0.375,0.375 h 9 C 28.707098,4.8749793 28.874979,4.7070982 28.875,4.5 V 3.375 h 0.75 v 2.25 H 18.375 V 1.5 C 18.374979,1.2929018 18.207098,1.1250207 18,1.125 Z"
     id="path2247"
     sodipodi:nodetypes="ccccccccccccccccccccc" />
</svg>
