<?xml version="1.0" encoding="UTF-8" standalone="no"?>
<svg
   fill="none"
   viewBox="0 0 48 48"
   height="256"
   width="256"
   version="1.1"
   id="svg6"
   sodipodi:docname="nedbg_debugger.svg"
   inkscape:version="1.2.1 (9c6d41e410, 2022-07-14)"
   xmlns:inkscape="http://www.inkscape.org/namespaces/inkscape"
   xmlns:sodipodi="http://sodipodi.sourceforge.net/DTD/sodipodi-0.dtd"
   xmlns="http://www.w3.org/2000/svg"
   xmlns:svg="http://www.w3.org/2000/svg">
  <defs
     id="defs10" />
  <sodipodi:namedview
     id="namedview8"
     pagecolor="#ffffff"
     bordercolor="#666666"
     borderopacity="1.0"
     inkscape:showpageshadow="2"
     inkscape:pageopacity="0.0"
     inkscape:pagecheckerboard="true"
     inkscape:deskcolor="#d1d1d1"
     showgrid="true"
     inkscape:zoom="1.6191406"
     inkscape:cx="70.407721"
     inkscape:cy="101.59711"
     inkscape:current-layer="svg6"
     showguides="false"
     inkscape:window-width="1920"
     inkscape:window-height="730"
     inkscape:window-x="-6"
     inkscape:window-y="-6"
     inkscape:window-maximized="1">
    <inkscape:grid
       type="xygrid"
       id="grid239"
       units="px"
       spacingx="1.5"
       spacingy="1.5" />
  </sodipodi:namedview>
  <path
     id="rect897"
     style="fill:#d63232;fill-opacity:1;stroke:none;stroke-width:0.363088;stroke-linejoin:round;stroke-opacity:0.580986"
     d="m 27.045776,2.295961 c 5.120294,0.26982 9.013548,4.163468 9.283448,9.283814 0.167099,3.171297 0.295898,7.281215 0.295898,12.42041 0,5.139095 -0.128799,9.24948 -0.295898,12.420776 -0.2698,5.120295 -4.163154,9.013648 -9.283448,9.283448 H 20.95459 c -5.120325,-0.2698 -9.014004,-4.163153 -9.283814,-9.283448 -0.167109,-3.171296 -0.295532,-7.281581 -0.295532,-12.420776 0,-5.139195 0.128423,-9.249113 0.295532,-12.42041 0.26981,-5.120336 4.163479,-9.014004 9.283814,-9.283814 z"
     sodipodi:nodetypes="ccssccssscc" />
  <path
     style="fill:#606668;fill-opacity:1;stroke-width:0.425197;stroke-linejoin:round;stroke-opacity:0.580986"
     d="m 19.5,1.5 h 9 c 1.5,0 3,1.5 3,3 V 12 c 0,1.5 -1.5,3 -3,3 h -9 c -1.5,0 -3,-1.5 -3,-3 V 4.5 c 0,-1.5 1.5,-3 3,-3 z"
     id="path450"
     sodipodi:nodetypes="ccccccccc" />
  <path
     id="path1058"
     style="fill:#fff01c;stroke-width:0.425197;stroke-linejoin:round;stroke-opacity:0.580986;fill-opacity:1"
     d="M 22.5,4.5 A 1.5,1.5 0 0 1 21,6 1.5,1.5 0 0 1 19.5,4.5 1.5,1.5 0 0 1 21,3 1.5,1.5 0 0 1 22.5,4.5 Z" />
  <path
     id="path1061"
     style="fill:#fff01c;stroke-width:0.425197;stroke-linejoin:round;stroke-opacity:0.580986;fill-opacity:1"
     d="M 28.5,4.5 A 1.5,1.5 0 0 1 27,6 1.5,1.5 0 0 1 25.5,4.5 1.5,1.5 0 0 1 27,3 1.5,1.5 0 0 1 28.5,4.5 Z" />
  <path
     id="path2-4"
     style="fill:#606668;fill-opacity:1;stroke-width:0.170454"
     d="m 20.25006,23.948911 c 0,0.129444 0.01401,0.22058 0.03064,0.28324 0.02229,0.08392 0.102731,0.124368 0.18952,0.127113 0.162118,0.0051 0.442462,0.01296 0.685109,0.01512 0.0036,0.05548 0.0071,0.109262 0.01075,0.159269 0.03169,0.43586 0.364568,0.768749 0.800419,0.800436 0.05,0.0037 0.103695,0.0072 0.15917,0.01075 0.0021,0.242651 0.01009,0.523001 0.01522,0.685124 0.0028,0.08679 0.04309,0.167243 0.127012,0.189526 0.06265,0.01664 0.153888,0.03054 0.28333,0.03054 0.129442,0 0.220575,-0.01391 0.283235,-0.03054 0.08393,-0.02229 0.124365,-0.102735 0.127109,-0.189524 0.0048,-0.153678 0.01214,-0.413334 0.01474,-0.646687 0.183776,0.0054 0.383052,0.0095 0.598721,0.01189 0.0027,0.23024 0.0099,0.483726 0.01466,0.634793 0.0028,0.08679 0.04319,0.167242 0.127109,0.189523 0.06265,0.01664 0.15379,0.03054 0.283234,0.03054 0.129442,0 0.220669,-0.01391 0.283329,-0.03054 0.08393,-0.02229 0.124269,-0.102735 0.127012,-0.189525 0.0048,-0.151065 0.01194,-0.404551 0.01466,-0.634793 0.215658,-0.0024 0.41495,-0.0065 0.598722,-0.01189 0.0027,0.233353 0.01,0.493009 0.01484,0.646686 0.0028,0.08679 0.04318,0.167241 0.127109,0.189524 0.06265,0.01664 0.153793,0.03054 0.283234,0.03054 0.129443,-10e-7 0.220577,-0.01391 0.283235,-0.03054 0.08392,-0.02228 0.124364,-0.102734 0.127109,-0.189524 0.0052,-0.162122 0.01296,-0.442473 0.01512,-0.685125 0.05548,-0.0036 0.109261,-0.0071 0.159266,-0.01075 0.435849,-0.03169 0.768732,-0.364576 0.80042,-0.800437 0.0037,-0.05037 0.0073,-0.104492 0.01085,-0.160412 0.07744,0.0012 0.153457,0.0018 0.223295,0.0018 0.210663,0 0.371549,-0.0063 0.47285,-0.01189 0.08006,-0.0045 0.153469,-0.04313 0.175439,-0.12026 0.01789,-0.06283 0.03349,-0.156963 0.03349,-0.293994 2e-6,-0.13703 -0.01559,-0.23116 -0.03349,-0.293991 -0.02197,-0.07711 -0.09538,-0.115847 -0.175439,-0.120261 -0.101303,-0.0055 -0.262187,-0.01189 -0.47285,-0.01189 -0.0582,0 -0.120942,5.2e-4 -0.184954,0.0014 0.0054,-0.183914 0.0095,-0.383349 0.01189,-0.599209 0.05982,6.91e-4 0.118501,0.0012 0.173061,0.0012 0.210663,0 0.371549,-0.0062 0.472849,-0.01179 0.08006,-0.0045 0.15347,-0.04325 0.175438,-0.120358 0.01791,-0.06283 0.03349,-0.156866 0.03349,-0.293896 0,-0.137031 -0.01559,-0.231163 -0.03349,-0.293991 -0.02197,-0.07713 -0.09538,-0.115958 -0.175439,-0.12036 -0.101302,-0.0055 -0.262185,-0.01179 -0.472849,-0.01179 -0.05456,4e-6 -0.113245,5.19e-4 -0.173061,0.0012 -0.0023,-0.21586 -0.0065,-0.415295 -0.01189,-0.59921 0.06402,7.62e-4 0.126759,0.0013 0.184955,0.0013 0.210663,0 0.371549,-0.0063 0.472849,-0.01189 0.08006,-0.0045 0.153468,-0.04315 0.175439,-0.120262 0.01789,-0.06283 0.03349,-0.15696 0.03349,-0.293991 0,-0.13703 -0.01559,-0.231161 -0.03349,-0.293991 -0.02197,-0.07713 -0.09538,-0.115864 -0.175439,-0.120261 -0.101302,-0.0055 -0.262186,-0.01189 -0.472849,-0.01189 -0.06984,0 -0.145855,6.75e-4 -0.223296,0.0018 -0.0036,-0.05592 -0.0072,-0.110045 -0.01085,-0.160411 -0.03168,-0.435858 -0.36457,-0.768748 -0.800419,-0.800437 -0.05037,-0.0037 -0.104493,-0.0072 -0.160409,-0.01085 0.0012,-0.07745 0.0018,-0.153461 0.0018,-0.223301 0,-0.210667 -0.0063,-0.371557 -0.01189,-0.47286 -0.0045,-0.08007 -0.04313,-0.153472 -0.120258,-0.175443 -0.06283,-0.01789 -0.156958,-0.03349 -0.293984,-0.03349 -0.137029,0 -0.231158,0.01559 -0.293987,0.03349 -0.07711,0.02197 -0.11594,0.09538 -0.120355,0.175441 -0.0055,0.101305 -0.01179,0.262194 -0.01179,0.472861 0,0.0582 5.2e-4,0.120945 0.0013,0.184958 -0.183901,-0.0054 -0.383351,-0.0095 -0.599195,-0.01189 6.91e-4,-0.05982 0.0012,-0.118504 0.0012,-0.173065 0,-0.210667 -0.0062,-0.371557 -0.01179,-0.472859 -0.0045,-0.08007 -0.04325,-0.153472 -0.120356,-0.175441 -0.06279,-0.01785 -0.156922,-0.03343 -0.293948,-0.03343 -0.137026,0 -0.231155,0.01559 -0.293985,0.03349 -0.07713,0.02197 -0.115857,0.09538 -0.120259,0.175443 -0.0055,0.101304 -0.01189,0.262191 -0.01189,0.472859 5e-6,0.05456 5.19e-4,0.113247 0.0012,0.173065 -0.215796,0.0024 -0.415233,0.0065 -0.599101,0.01189 8.31e-4,-0.06402 0.0013,-0.12676 0.0013,-0.184958 0,-0.210667 -0.0063,-0.371558 -0.01189,-0.47286 -0.0045,-0.08007 -0.04314,-0.153472 -0.120258,-0.175443 -0.06283,-0.01789 -0.156958,-0.03349 -0.293985,-0.03349 -0.137028,0 -0.231156,0.01559 -0.293985,0.03349 -0.07713,0.02197 -0.115955,0.09538 -0.120351,0.175447 -0.0055,0.101304 -0.01179,0.262192 -0.01179,0.47286 0,0.06984 6.76e-4,0.14586 0.0018,0.2233 -0.05595,0.0036 -0.11002,0.0072 -0.160409,0.01085 -0.435852,0.03169 -0.768731,0.364579 -0.800418,0.800436 -0.0037,0.05 -0.0072,0.103788 -0.01075,0.15927 -0.242646,0.0021 -0.52299,0.01 -0.68511,0.01513 -0.08679,0.0028 -0.167238,0.04319 -0.18952,0.127111 -0.01664,0.06266 -0.03063,0.153796 -0.03063,0.283241 0,0.129447 0.014,0.220582 0.03063,0.283241 0.02228,0.08394 0.102734,0.124368 0.18952,0.127112 0.153686,0.0048 0.413312,0.01214 0.646673,0.01475 -0.0054,0.183809 -0.0095,0.383119 -0.01189,0.598829 -0.230236,0.0027 -0.483715,0.0098 -0.634779,0.01456 -0.08679,0.0028 -0.167239,0.04319 -0.18952,0.127111 -0.0166,0.06265 -0.0306,0.153792 -0.0306,0.283237 0,0.129444 0.01401,0.220675 0.03063,0.283335 0.02228,0.08393 0.102732,0.124368 0.189519,0.127112 0.15107,0.0048 0.404532,0.01185 0.63478,0.01456 0.0024,0.215711 0.0065,0.415021 0.01189,0.598829 -0.23336,0.0027 -0.492986,0.0099 -0.64667,0.01474 -0.08679,0.0028 -0.167239,0.04319 -0.18952,0.127111 -0.01665,0.06266 -0.03063,0.153795 -0.03063,0.283241 z" />
</svg>
