<?xml version="1.0" encoding="UTF-8" standalone="no"?>
<svg
   fill="none"
   viewBox="0 0 48 48"
   height="256"
   width="256"
   version="1.1"
   id="svg6"
   sodipodi:docname="nulink2_me_v1_0.svg"
   inkscape:version="1.2.1 (9c6d41e410, 2022-07-14)"
   xmlns:inkscape="http://www.inkscape.org/namespaces/inkscape"
   xmlns:sodipodi="http://sodipodi.sourceforge.net/DTD/sodipodi-0.dtd"
   xmlns="http://www.w3.org/2000/svg"
   xmlns:svg="http://www.w3.org/2000/svg">
  <defs
     id="defs10" />
  <sodipodi:namedview
     id="namedview8"
     pagecolor="#ffffff"
     bordercolor="#666666"
     borderopacity="1.0"
     inkscape:showpageshadow="2"
     inkscape:pageopacity="0.0"
     inkscape:pagecheckerboard="true"
     inkscape:deskcolor="#d1d1d1"
     showgrid="true"
     inkscape:zoom="2.2898106"
     inkscape:cx="88.216903"
     inkscape:cy="118.13204"
     inkscape:current-layer="svg6"
     showguides="false"
     inkscape:window-width="1920"
     inkscape:window-height="730"
     inkscape:window-x="-6"
     inkscape:window-y="-6"
     inkscape:window-maximized="1">
    <inkscape:grid
       type="xygrid"
       id="grid239"
       units="px"
       spacingx="1.5"
       spacingy="1.5" />
  </sodipodi:namedview>
  <path
     id="rect897"
     style="fill:#d63232;fill-opacity:1;stroke:none;stroke-width:0.363088;stroke-linejoin:round;stroke-opacity:0.580986"
     d="M 11.15625,7.8465019 V 25.59375 H 16.5 c 0.362437,0 0.65625,0.293813 0.65625,0.65625 0,0.362437 -0.293813,0.65625 -0.65625,0.65625 h -6 C 10.137578,26.906214 9.8437862,26.612422 9.84375,26.25 V 8.2518095 C 9.8496995,7.5208807 9.0206044,6.5489522 8.037714,6.8776142 4.7531692,8.3202923 2.4987636,11.477754 2.2957764,15.329956 2.128669,18.501247 2.0002441,34.611181 2.0002441,39.750366 H 46.000122 c 0,-5.139185 -0.128801,-21.249119 -0.295898,-24.42041 C 45.497248,11.403366 43.159233,8.1984156 39.771255,6.7957148 39.097691,6.5108921 38.176721,7.6049908 38.15625,8.28076 V 26.25 c -3.6e-5,0.362422 -0.293828,0.656214 -0.65625,0.65625 h -6 c -0.362437,0 -0.65625,-0.293813 -0.65625,-0.65625 0,-0.362437 0.293813,-0.65625 0.65625,-0.65625 h 5.34375 V 7.8030761 C 36.83857,7.0547699 35.975835,6.0461426 35.334138,6.0461426 H 12.825091 c -1.025986,-0.00495 -1.654366,1.1624311 -1.668841,1.8003593 z"
     sodipodi:nodetypes="ccsssccccscccccccsssccccc" />
  <path
     id="path2-4"
     style="fill:#606668;fill-opacity:1;stroke-width:0.17831"
     d="m 20.077319,20.265742 c 0,0.135411 0.01465,0.230746 0.03205,0.296295 0.02332,0.08779 0.107465,0.130099 0.198254,0.132972 0.169592,0.0054 0.462855,0.01357 0.716685,0.0158 0.0038,0.05803 0.0075,0.114298 0.01125,0.166609 0.03316,0.455948 0.38137,0.804179 0.83731,0.837326 0.05231,0.0038 0.108473,0.0076 0.166506,0.01125 0.0021,0.253836 0.01056,0.547106 0.01592,0.7167 0.0029,0.09079 0.04508,0.174952 0.132866,0.198263 0.06554,0.0174 0.160982,0.03196 0.296387,0.03196 0.135409,0 0.230742,-0.01454 0.296291,-0.03196 0.08779,-0.02332 0.130096,-0.107471 0.132966,-0.198257 0.005,-0.160763 0.01271,-0.432386 0.01542,-0.676494 0.192246,0.0056 0.400707,0.0099 0.626315,0.01244 0.0029,0.240852 0.01036,0.50602 0.01534,0.664049 0.0029,0.09079 0.04518,0.174949 0.132968,0.198259 0.06555,0.0174 0.160877,0.03194 0.296289,0.03194 0.135407,0 0.23084,-0.01454 0.296387,-0.03194 0.08779,-0.02332 0.129997,-0.107469 0.132867,-0.198261 0.005,-0.158027 0.01249,-0.423195 0.01534,-0.664049 0.225597,-0.0025 0.434074,-0.0069 0.626315,-0.01244 0.0029,0.244108 0.01046,0.51573 0.01552,0.67649 0.0029,0.09079 0.04517,0.17495 0.132968,0.198259 0.06555,0.0174 0.160879,0.03194 0.296288,0.03194 0.135408,-10e-7 0.230743,-0.01454 0.296288,-0.03194 0.08779,-0.02331 0.130095,-0.107468 0.132968,-0.198259 0.0055,-0.169594 0.01356,-0.462865 0.0158,-0.7167 0.05803,-0.0038 0.114296,-0.0075 0.166607,-0.01124 0.455935,-0.03316 0.804162,-0.381381 0.837309,-0.837329 0.004,-0.0527 0.0076,-0.109309 0.01135,-0.167806 0.08101,0.0012 0.160531,0.0019 0.233587,0.0019 0.220372,0 0.388674,-0.0066 0.494644,-0.01244 0.08375,-0.0048 0.160542,-0.04511 0.183525,-0.125801 0.01872,-0.06572 0.03503,-0.164198 0.03503,-0.307546 1e-6,-0.143346 -0.01632,-0.241813 -0.03503,-0.307541 -0.023,-0.08066 -0.09978,-0.121185 -0.183525,-0.125802 -0.105972,-0.0057 -0.274272,-0.01243 -0.494644,-0.01243 -0.06088,0 -0.126515,5.44e-4 -0.193478,0.0015 0.0056,-0.192391 0.0099,-0.401018 0.01243,-0.626827 0.06258,7.21e-4 0.123962,0.0012 0.181037,0.0012 0.220372,0 0.388675,-0.0065 0.494643,-0.01235 0.08375,-0.0047 0.160543,-0.04524 0.183523,-0.125904 0.01873,-0.06572 0.03503,-0.164096 0.03503,-0.307441 0,-0.143348 -0.01632,-0.241817 -0.03503,-0.307541 -0.02299,-0.08068 -0.09978,-0.121302 -0.183525,-0.125907 -0.105973,-0.0058 -0.274269,-0.01235 -0.494642,-0.01235 -0.05707,3e-6 -0.118464,5.42e-4 -0.181037,0.0012 -0.0023,-0.225809 -0.0068,-0.434436 -0.01244,-0.626829 0.06696,8.02e-4 0.1326,0.0013 0.193479,0.0013 0.220372,0 0.388674,-0.0066 0.494643,-0.01243 0.08375,-0.0047 0.16054,-0.04514 0.183525,-0.125803 0.01871,-0.06572 0.03503,-0.164195 0.03503,-0.30754 0,-0.143346 -0.01632,-0.241817 -0.03503,-0.307541 -0.023,-0.08068 -0.09978,-0.121205 -0.183525,-0.125805 -0.105971,-0.0057 -0.274271,-0.01243 -0.494643,-0.01243 -0.07305,0 -0.152577,7.22e-4 -0.233587,0.0019 -0.0038,-0.0585 -0.0076,-0.115117 -0.01134,-0.167804 -0.03315,-0.455946 -0.381374,-0.804179 -0.837309,-0.837328 -0.05269,-0.004 -0.10931,-0.0076 -0.167802,-0.01134 0.0012,-0.08103 0.0019,-0.160535 0.0019,-0.233594 0,-0.220374 -0.0066,-0.388679 -0.01244,-0.494653 -0.0047,-0.08376 -0.04511,-0.160545 -0.125802,-0.183529 -0.06572,-0.01871 -0.164191,-0.03503 -0.307534,-0.03503 -0.143345,0 -0.241811,0.01632 -0.307535,0.03503 -0.08066,0.02299 -0.121283,0.09977 -0.125903,0.183528 -0.0057,0.105975 -0.01235,0.274278 -0.01235,0.494654 0,0.06088 5.43e-4,0.12652 0.0013,0.193482 -0.192377,-0.0056 -0.401019,-0.0099 -0.626811,-0.01244 7.21e-4,-0.06258 0.0012,-0.123964 0.0012,-0.181041 0,-0.220377 -0.0065,-0.388682 -0.01235,-0.494652 -0.0048,-0.08376 -0.04523,-0.160545 -0.125902,-0.183527 -0.06569,-0.01867 -0.164155,-0.03496 -0.307497,-0.03496 -0.14334,0 -0.241808,0.0163 -0.307535,0.03503 -0.08068,0.02299 -0.121196,0.09978 -0.125801,0.183528 -0.0057,0.105974 -0.01244,0.274276 -0.01244,0.494654 6e-6,0.05707 5.43e-4,0.118465 0.0013,0.18104 -0.225742,0.0025 -0.434371,0.0068 -0.626713,0.01243 8.91e-4,-0.06697 0.0013,-0.132602 0.0013,-0.193482 0,-0.220376 -0.0066,-0.388681 -0.01244,-0.494653 -0.0047,-0.08376 -0.04512,-0.160546 -0.125801,-0.183529 -0.06572,-0.01872 -0.164191,-0.03504 -0.307534,-0.03504 -0.143343,0 -0.241809,0.01631 -0.307534,0.03504 -0.08068,0.02299 -0.1213,0.09978 -0.125897,0.183533 -0.0058,0.105971 -0.01235,0.274275 -0.01235,0.494654 0,0.07305 7.21e-4,0.152581 0.0019,0.233591 -0.05853,0.0038 -0.115092,0.0076 -0.167803,0.01135 -0.455941,0.03316 -0.804161,0.381382 -0.837309,0.837328 -0.0038,0.0523 -0.0076,0.10857 -0.01125,0.16661 -0.253829,0.0021 -0.547095,0.01046 -0.716687,0.01582 -0.09079,0.0029 -0.174944,0.04518 -0.198254,0.132969 -0.0174,0.06555 -0.03204,0.160884 -0.03204,0.296295 0,0.135414 0.01463,0.23075 0.03204,0.296296 0.02331,0.0878 0.10747,0.130101 0.198254,0.13297 0.16077,0.005 0.432362,0.01271 0.676478,0.01544 -0.0055,0.192281 -0.0099,0.400778 -0.01243,0.62643 -0.240847,0.0028 -0.506009,0.01025 -0.664036,0.01523 -0.09079,0.0029 -0.174945,0.04518 -0.198254,0.132968 -0.01737,0.06554 -0.03201,0.16088 -0.03201,0.296291 0,0.135411 0.01465,0.230846 0.03204,0.296394 0.02331,0.08779 0.107468,0.1301 0.198253,0.132969 0.158033,0.005 0.423177,0.01238 0.664037,0.01524 0.0025,0.225656 0.0068,0.434151 0.01244,0.62643 -0.244115,0.0029 -0.515707,0.01036 -0.676476,0.01542 -0.09079,0.0029 -0.174945,0.04518 -0.198253,0.132969 -0.01741,0.06555 -0.03204,0.160883 -0.03204,0.296293 z"
     sodipodi:nodetypes="cccccsccsscccccsscscccssscccccscssccsccsccsccsccsccsccsccccsccsccsccsccssccccscssscsccscccsccccccscccccccc" />
  <g
     id="g10524"
     transform="matrix(-0.729,0,0,0.729,44.345168,-24.337386)">
    <path
       style="fill:#606668;fill-opacity:1;stroke-width:0.425197;stroke-linejoin:round;stroke-opacity:0.580986"
       d="m 23.408324,38.52865 h 9 c 1.5,0 3,1.5 3,3 v 7.5 c 0,1.5 -1.5,3 -3,3 h -9 c -1.5,0 -3,-1.5 -3,-3 v -7.5 c 0,-1.5 1.5,-3 3,-3 z"
       id="path450"
       sodipodi:nodetypes="ccccccccc" />
    <path
       id="path1058"
       style="fill:#fff01c;stroke-width:0.425197;stroke-linejoin:round;stroke-opacity:0.580986;fill-opacity:1"
       d="m 26.408324,41.52865 a 1.5,1.5 0 0 1 -1.5,1.5 1.5,1.5 0 0 1 -1.5,-1.5 1.5,1.5 0 0 1 1.5,-1.5 1.5,1.5 0 0 1 1.5,1.5 z" />
    <path
       id="path1061"
       style="fill:#fff01c;stroke-width:0.425197;stroke-linejoin:round;stroke-opacity:0.580986;fill-opacity:1"
       d="m 32.408324,41.52865 a 1.5,1.5 0 0 1 -1.5,1.5 1.5,1.5 0 0 1 -1.5,-1.5 1.5,1.5 0 0 1 1.5,-1.5 1.5,1.5 0 0 1 1.5,1.5 z" />
  </g>
  <path
     id="rect346"
     style="fill:#ff5454;stroke-width:1.58203;stroke-linejoin:round;fill-opacity:1"
     d="m 24,24.87841 c -3.657463,-1.83e-4 -6.622469,2.964823 -6.622285,6.622285 5.63e-4,3.65692 2.965365,6.621078 6.622285,6.620895 3.656919,1.83e-4 6.6217,-2.963975 6.622285,-6.620895 C 30.622469,27.843233 27.657464,24.878227 24,24.87841 Z m 0.0022,3.601285 c 0.625328,6.8e-5 1.252079,0.04681 1.59331,0.139818 1.074838,0.291776 1.960458,0.961634 2.235238,1.690488 0.06995,0.184974 0.124522,1.190446 0.124522,2.270771 v 1.939533 h -1.120862 -1.121172 v -1.595936 c 0,-1.090079 -0.05254,-1.721594 -0.162838,-1.987427 -0.366614,-0.877451 -1.399471,-1.225269 -2.365167,-0.798122 -0.786858,0.348103 -0.89391,0.674414 -0.89391,2.725296 v 1.656189 h -1.127649 -1.129206 l 0.03662,-2.162624 0.03708,-2.164015 0.332474,-0.433823 c 0.357058,-0.4676 1.121839,-0.911007 1.97105,-1.141565 0.340841,-0.09263 0.965357,-0.138485 1.590683,-0.138427 z"
     sodipodi:nodetypes="ccccccccscccsccsccccccccc" />
</svg>
