<?xml version="1.0" encoding="UTF-8" standalone="no"?>
<svg
   fill="none"
   viewBox="0 0 48 48"
   height="256"
   width="256"
   version="1.1"
   id="svg6"
   sodipodi:docname="pi-pico-probe.svg"
   inkscape:version="1.2.1 (9c6d41e410, 2022-07-14)"
   xmlns:inkscape="http://www.inkscape.org/namespaces/inkscape"
   xmlns:sodipodi="http://sodipodi.sourceforge.net/DTD/sodipodi-0.dtd"
   xmlns="http://www.w3.org/2000/svg"
   xmlns:svg="http://www.w3.org/2000/svg">
  <defs
     id="defs10" />
  <sodipodi:namedview
     id="namedview8"
     pagecolor="#ffffff"
     bordercolor="#666666"
     borderopacity="1.0"
     inkscape:showpageshadow="2"
     inkscape:pageopacity="0.0"
     inkscape:pagecheckerboard="true"
     inkscape:deskcolor="#d1d1d1"
     showgrid="true"
     inkscape:zoom="1.6191406"
     inkscape:cx="240.25091"
     inkscape:cy="8.0289507"
     inkscape:current-layer="svg6"
     showguides="false"
     inkscape:window-width="3840"
     inkscape:window-height="1494"
     inkscape:window-x="-11"
     inkscape:window-y="-11"
     inkscape:window-maximized="1">
    <inkscape:grid
       type="xygrid"
       id="grid239"
       units="px"
       spacingx="1.5"
       spacingy="1.5" />
  </sodipodi:namedview>
  <path
     id="rect897"
     style="fill:#77c32f;fill-opacity:1;stroke:none;stroke-width:0.363088;stroke-linejoin:round;stroke-opacity:0.580986"
     d="M 16.266724,1.9211426 C 11.14645,2.1909614 7.2531752,6.0846308 6.9832764,11.204956 c -0.1670986,3.171285 -0.2958985,7.281235 -0.2958985,12.42041 0,5.139075 0.1287999,9.249493 0.2958985,12.420777 0.2697988,5.120271 4.1631736,9.013647 9.2834476,9.283447 H 31.73291 c 5.120305,-0.2698 9.014004,-4.163176 9.283814,-9.283447 0.167105,-3.171284 0.295532,-7.281602 0.295532,-12.420777 0,-5.139175 -0.128427,-9.249125 -0.295532,-12.42041 C 40.746914,6.0846408 36.853225,2.1909514 31.73291,1.9211426 Z M 12,6.65625 c 1.294417,0 2.34375,1.0493326 2.34375,2.34375 0,1.294417 -1.049333,2.34375 -2.34375,2.34375 C 10.705583,11.34375 9.65625,10.294417 9.65625,9 9.65625,7.7055826 10.705583,6.65625 12,6.65625 Z m 23.90625,0 C 37.200667,6.65625 38.25,7.7055826 38.25,9 c 0,1.294417 -1.049333,2.34375 -2.34375,2.34375 -1.294417,0 -2.34375,-1.049333 -2.34375,-2.34375 0,-1.2944174 1.049333,-2.34375 2.34375,-2.34375 z M 12,34.78125 c 1.294417,0 2.34375,1.049333 2.34375,2.34375 0,1.294417 -1.049333,2.34375 -2.34375,2.34375 -1.294417,0 -2.34375,-1.049333 -2.34375,-2.34375 0,-1.294417 1.049333,-2.34375 2.34375,-2.34375 z m 23.90625,0 c 1.294417,0 2.34375,1.049333 2.34375,2.34375 0,1.294417 -1.049333,2.34375 -2.34375,2.34375 -1.294417,0 -2.34375,-1.049333 -2.34375,-2.34375 0,-1.294417 1.049333,-2.34375 2.34375,-2.34375 z"
     sodipodi:nodetypes="ccssccsssccssssssssssssssssssss" />
  <path
     style="fill:#606668;fill-opacity:1;stroke-width:0.425197;stroke-linejoin:round;stroke-opacity:0.580986"
     d="m 28.5,0.1875 h -9 c -1.5,0 -3,1.5 -3,3 v 7.5 c 0,1.5 1.5,3 3,3 h 9 c 1.5,0 3,-1.5 3,-3 v -7.5 c 0,-1.5 -1.5,-3 -3,-3 z"
     id="path450"
     sodipodi:nodetypes="ccccccccc" />
  <path
     id="path1058"
     style="fill:#ffff68;fill-opacity:1;stroke-width:0.425197;stroke-linejoin:round;stroke-opacity:0.580986"
     d="m 25.5,3.1875 a 1.5,1.5 0 0 0 1.5,1.5 1.5,1.5 0 0 0 1.5,-1.5 1.5,1.5 0 0 0 -1.5,-1.5 1.5,1.5 0 0 0 -1.5,1.5 z" />
  <path
     id="path1061"
     style="fill:#ffff68;fill-opacity:1;stroke-width:0.425197;stroke-linejoin:round;stroke-opacity:0.580986"
     d="m 19.5,3.1875 a 1.5,1.5 0 0 0 1.5,1.5 1.5,1.5 0 0 0 1.5,-1.5 1.5,1.5 0 0 0 -1.5,-1.5 1.5,1.5 0 0 0 -1.5,1.5 z" />
  <path
     id="path916"
     style="fill:#606668;fill-opacity:1;stroke-width:0.246037"
     d="m 26.092361,19.524686 c 0.18684,0 0.318386,0.02021 0.408829,0.04422 0.121124,0.03217 0.179512,0.148286 0.183474,0.27356 0.0074,0.234005 0.01871,0.638663 0.02183,0.988906 0.08008,0.0051 0.157709,0.01027 0.229888,0.01552 0.62912,0.04574 1.109611,0.526229 1.155349,1.155349 0.0053,0.07218 0.01039,0.149676 0.01552,0.229751 0.350242,0.0031 0.7549,0.01457 0.988907,0.02197 0.125271,0.004 0.241397,0.06221 0.273559,0.183332 0.02401,0.09044 0.04408,0.222126 0.04408,0.408967 0,0.18684 -0.02007,0.318385 -0.04408,0.408829 -0.03217,0.121151 -0.148287,0.179512 -0.273558,0.183473 -0.221818,0.007 -0.596603,0.01753 -0.933426,0.02128 0.0078,0.265269 0.0137,0.55291 0.01717,0.864213 0.332327,0.0039 0.698209,0.01425 0.916259,0.02115 0.125271,0.004 0.241397,0.06235 0.273558,0.183472 0.02401,0.09044 0.04408,0.221987 0.04408,0.408829 -10e-7,0.18684 -0.02007,0.318521 -0.04408,0.408966 -0.03217,0.121151 -0.148289,0.179373 -0.27356,0.183333 -0.218048,0.0069 -0.58393,0.01723 -0.91626,0.02115 -0.0035,0.311287 -0.0094,0.598952 -0.01717,0.864213 0.336822,0.0038 0.711608,0.01441 0.933426,0.02143 0.125271,0.004 0.241395,0.06233 0.273558,0.183473 0.02401,0.09044 0.04408,0.221988 0.04408,0.408828 0,0.186841 -0.02007,0.318389 -0.04408,0.408829 -0.03216,0.121127 -0.148285,0.179512 -0.273559,0.183474 -0.234007,0.0074 -0.638665,0.01871 -0.988907,0.02183 -0.0051,0.08008 -0.01028,0.157711 -0.01552,0.229889 -0.04574,0.629117 -0.526228,1.109611 -1.155349,1.155349 -0.07271,0.0053 -0.150824,0.01049 -0.231537,0.01566 0.0017,0.11178 0.0026,0.221505 0.0026,0.322312 0,0.304077 -0.0091,0.536305 -0.01717,0.682526 -0.0064,0.115562 -0.06225,0.22152 -0.173584,0.253233 -0.09069,0.02583 -0.226559,0.04834 -0.424348,0.04834 -0.197789,10e-7 -0.333656,-0.02251 -0.424346,-0.04834 -0.111303,-0.03171 -0.167214,-0.13767 -0.173585,-0.253233 -0.008,-0.146224 -0.01717,-0.378449 -0.01717,-0.682526 0,-0.084 7.51e-4,-0.174572 0.002,-0.266968 -0.265462,0.0078 -0.553325,0.01369 -0.864897,0.01717 9.98e-4,0.08635 0.0018,0.171049 0.0018,0.249802 0,0.304077 -0.009,0.536305 -0.01703,0.682525 -0.0064,0.115562 -0.06242,0.221521 -0.173725,0.253232 -0.09069,0.02585 -0.22642,0.04834 -0.424209,0.04834 -0.197791,1e-6 -0.333659,-0.02251 -0.424346,-0.04834 -0.111331,-0.03171 -0.167373,-0.137674 -0.173727,-0.253233 -0.008,-0.146224 -0.01703,-0.378448 -0.01703,-0.682525 7e-6,-0.07875 7.51e-4,-0.163459 0.0018,-0.249802 -0.311571,-0.0034 -0.599436,-0.0094 -0.864899,-0.01717 0.0011,0.0924 0.0019,0.182966 0.0019,0.26697 -10e-7,0.304076 -0.0091,0.536304 -0.01717,0.682525 -0.0064,0.115562 -0.06228,0.221519 -0.173587,0.253234 -0.09069,0.02583 -0.226556,0.04834 -0.424346,0.04834 -0.197789,0 -0.333657,-0.02251 -0.424347,-0.04834 -0.111331,-0.03171 -0.167239,-0.137667 -0.173585,-0.253233 -0.008,-0.146224 -0.01717,-0.378449 -0.01717,-0.682526 0,-0.100805 9.75e-4,-0.210532 0.0026,-0.322312 -0.08071,-0.0052 -0.158837,-0.01037 -0.231537,-0.01566 -0.629116,-0.04574 -1.109609,-0.526232 -1.155349,-1.155349 -0.0053,-0.0727 -0.01048,-0.150826 -0.01566,-0.231536 -0.111779,0.0017 -0.221505,0.0026 -0.322312,0.0026 -0.304076,-10e-7 -0.536305,-0.0091 -0.682526,-0.01717 -0.115562,-0.0064 -0.221519,-0.06225 -0.253233,-0.173585 -0.02583,-0.09069 -0.04834,-0.226557 -0.04834,-0.424346 -1e-6,-0.19779 0.02251,-0.333659 0.04834,-0.424347 0.03171,-0.111303 0.137668,-0.167352 0.253231,-0.173724 0.146224,-0.008 0.378449,-0.01703 0.682526,-0.01703 0.084,0 0.174571,7.51e-4 0.266968,0.0019 -0.0078,-0.26545 -0.0137,-0.553342 -0.01717,-0.864897 -0.08635,9.97e-4 -0.17105,0.0018 -0.249802,0.0018 -0.304077,0 -0.536305,-0.009 -0.682525,-0.01703 -0.115563,-0.0064 -0.221522,-0.06242 -0.253232,-0.173725 -0.02584,-0.09069 -0.04834,-0.226558 -0.04834,-0.424348 1e-6,-0.197788 0.02251,-0.333657 0.04834,-0.424347 0.03171,-0.111331 0.137675,-0.167232 0.253233,-0.173584 0.146224,-0.008 0.378449,-0.01717 0.682525,-0.01717 0.07875,7e-6 0.163461,7.5e-4 0.249802,0.0018 0.0035,-0.311485 0.0094,-0.59936 0.01717,-0.864761 -0.0924,0.0012 -0.182966,0.0019 -0.266969,0.0019 -0.304077,0 -0.536306,-0.0091 -0.682525,-0.01717 -0.115563,-0.0064 -0.221522,-0.06227 -0.253233,-0.173584 -0.02583,-0.09069 -0.04834,-0.226558 -0.04834,-0.424348 0,-0.197789 0.02251,-0.333657 0.04834,-0.424347 0.03171,-0.111331 0.137674,-0.167372 0.253238,-0.173717 0.146224,-0.008 0.378448,-0.01703 0.682525,-0.01703 0.100806,0 0.210534,9.74e-4 0.322312,0.0026 0.0052,-0.08076 0.01037,-0.158803 0.01566,-0.231536 0.04574,-0.629124 0.526234,-1.109611 1.155348,-1.155351 0.07218,-0.0053 0.149806,-0.01039 0.22989,-0.01552 0.0031,-0.350245 0.01443,-0.754901 0.02184,-0.988909 0.004,-0.125271 0.06235,-0.241397 0.183473,-0.273558 0.09045,-0.02402 0.221989,-0.04422 0.408829,-0.04422 0.186842,0 0.318387,0.02021 0.408829,0.04422 0.121145,0.03216 0.179514,0.148288 0.183473,0.273559 0.007,0.221834 0.01753,0.596586 0.02128,0.933426 0.265309,-0.0078 0.552994,-0.0137 0.864349,-0.01717 0.0039,-0.332328 0.01412,-0.698211 0.02101,-0.91626 0.004,-0.125271 0.06235,-0.241398 0.183473,-0.273558 0.09044,-0.02401 0.221989,-0.04422 0.408829,-0.04422 0.18684,0 0.318523,0.02021 0.408966,0.04422 0.121144,0.03216 0.179513,0.148287 0.183473,0.273559 0.0069,0.218057 0.0171,0.583914 0.02101,0.916259 0.311357,0.0035 0.599042,0.0094 0.864349,0.01717 0.0038,-0.33684 0.01426,-0.711592 0.02128,-0.933426 0.004,-0.125271 0.06233,-0.241395 0.183473,-0.273558 0.09045,-0.02402 0.221988,-0.04422 0.408829,-0.04422 z" />
  <path
     id="path21627"
     style="fill:#ffffff;fill-opacity:1;stroke-width:0.00816325;stroke-dasharray:none"
     d="m 25.161488,22.349393 c -0.05312,0.0014 -0.09893,0.03368 -0.148599,0.04931 -0.12728,-0.04138 -0.156431,0.01551 -0.218961,0.03852 -0.13875,-0.02919 -0.180708,0.034 -0.247236,0.101096 l -0.0776,-0.0011 c -0.209332,0.122708 -0.313239,0.372608 -0.350102,0.501095 -0.03688,-0.128508 -0.140806,-0.378376 -0.350107,-0.501095 l -0.07701,0.0011 c -0.06659,-0.06708 -0.109109,-0.13025 -0.247847,-0.101094 -0.06252,-0.02319 -0.09168,-0.07984 -0.218966,-0.03852 -0.05219,-0.01648 -0.09991,-0.05045 -0.156416,-0.04875 -0.02952,8.5e-4 -0.06131,0.01139 -0.09744,0.03973 -0.08848,-0.03396 -0.174689,-0.04567 -0.251434,0.02341 -0.118486,-0.01515 -0.156696,0.01666 -0.185874,0.05352 -0.02602,-4.95e-4 -0.19455,-0.02684 -0.271904,0.08783 -0.19437,-0.02293 -0.256054,0.113852 -0.18649,0.241225 -0.03967,0.06114 -0.08087,0.121668 0.01177,0.238205 -0.03286,0.06489 -0.01238,0.135495 0.06496,0.22078 -0.0204,0.09127 0.01957,0.155545 0.09142,0.205713 -0.01363,0.124911 0.115586,0.197302 0.153977,0.223168 0.015,0.07277 0.04505,0.141269 0.191896,0.179277 0.02413,0.108456 0.112487,0.127649 0.197921,0.150384 -0.282447,0.163339 -0.52439,0.377951 -0.522746,0.905338 l -0.04151,0.07339 c -0.323918,0.195986 -0.615117,0.826419 -0.159418,1.338458 0.02972,0.16029 0.07943,0.275026 0.123904,0.40244 0.06643,0.513383 0.500342,0.75419 0.614784,0.782616 0.16769,0.127092 0.346029,0.247581 0.587719,0.332056 0.227832,0.233814 0.474884,0.322591 0.723065,0.322437 0.0034,-4e-6 0.0071,4.1e-5 0.01104,0 0.248165,1.54e-4 0.495268,-0.08863 0.723064,-0.322437 0.241691,-0.08448 0.420023,-0.204966 0.58772,-0.332056 0.114447,-0.02833 0.5483,-0.269249 0.614787,-0.782616 0.04446,-0.127417 0.09478,-0.242166 0.124515,-0.40244 0.455708,-0.512039 0.163902,-1.142454 -0.160028,-1.338458 l -0.04091,-0.07339 c 0.0016,-0.527387 -0.240861,-0.741965 -0.523354,-0.905338 0.08547,-0.02293 0.17371,-0.04196 0.1979,-0.150384 0.146843,-0.03796 0.177773,-0.106498 0.192498,-0.179277 0.03841,-0.02604 0.166818,-0.09829 0.153399,-0.223168 0.07196,-0.05022 0.111845,-0.11446 0.09142,-0.205713 0.07732,-0.08524 0.09778,-0.155855 0.06498,-0.22078 0.09286,-0.116566 0.05173,-0.177062 0.01177,-0.238205 0.06959,-0.127419 0.0085,-0.2641 -0.185874,-0.241225 -0.07731,-0.11477 -0.246519,-0.08839 -0.272517,-0.08783 -0.0292,-0.03686 -0.06741,-0.06884 -0.185874,-0.05352 -0.07676,-0.06919 -0.162366,-0.05743 -0.250849,-0.02341 -0.0394,-0.03096 -0.074,-0.04123 -0.105899,-0.04029 z m -2.085586,0.147967 c 0.106273,0.03916 0.161312,0.08963 0.218962,0.139576 0.01956,-0.02628 0.04958,-0.04556 0.01321,-0.108863 0.07546,0.04327 0.132418,0.09442 0.174452,0.15159 0.0467,-0.02955 0.02746,-0.07039 0.02773,-0.107691 0.07847,0.06347 0.128562,0.131381 0.189505,0.197321 0.01239,-0.0087 0.02319,-0.03892 0.03248,-0.08662 0.187132,0.180582 0.451563,0.635316 0.06799,0.815707 -0.326275,-0.267932 -0.716296,-0.462707 -1.148361,-0.608772 0.555373,0.284871 0.878239,0.515365 1.055123,0.711637 -0.09057,0.36121 -0.562915,0.377682 -0.735701,0.36755 0.03539,-0.01648 0.06476,-0.03596 0.07521,-0.06618 -0.04336,-0.03069 -0.197064,-0.003 -0.304381,-0.06317 0.04123,-0.0085 0.06071,-0.01667 0.08,-0.04696 -0.101373,-0.03217 -0.210649,-0.05981 -0.274913,-0.113097 0.03468,4.05e-4 0.06661,0.0079 0.11188,-0.02341 -0.09082,-0.04874 -0.187592,-0.08736 -0.262876,-0.161807 0.04697,-0.0011 0.09776,-2.64e-4 0.112488,-0.01759 -0.08318,-0.05124 -0.153072,-0.108535 -0.211133,-0.170865 0.06575,0.0079 0.09301,0.001 0.108852,-0.01025 -0.06283,-0.06403 -0.141957,-0.118435 -0.179876,-0.19732 0.04879,0.01667 0.09355,0.02342 0.125717,-0.0011 -0.02128,-0.04788 -0.113373,-0.07628 -0.166005,-0.188289 0.05137,0.005 0.105787,0.01126 0.116725,0 -0.02388,-0.0967 -0.06452,-0.150664 -0.10465,-0.206916 0.109953,-0.0016 0.276433,2.22e-4 0.268897,-0.009 l -0.06799,-0.06922 c 0.107352,-0.02892 0.217385,0.0048 0.297167,0.02948 0.0358,-0.02805 -0.001,-0.06353 -0.0445,-0.09986 0.09128,0.0124 0.173925,0.03261 0.248433,0.06134 0.03984,-0.03576 -0.02603,-0.07134 -0.05775,-0.107109 0.141001,0.02658 0.200509,0.06423 0.259877,0.101658 0.04304,-0.0411 0.0024,-0.07615 -0.02654,-0.111878 z m 2.098819,0 c -0.0292,0.03572 -0.06953,0.07084 -0.02658,0.111879 0.05937,-0.03743 0.118894,-0.07505 0.259875,-0.101657 -0.03179,0.03579 -0.09755,0.07134 -0.05775,0.107106 0.07453,-0.02864 0.157176,-0.04922 0.248461,-0.06134 -0.0437,0.03628 -0.08035,0.07175 -0.0445,0.09987 0.07974,-0.02468 0.189786,-0.05821 0.297165,-0.02948 l -0.06799,0.06921 c -0.0077,0.0093 0.158957,0.0072 0.2689,0.0091 -0.04011,0.05631 -0.08077,0.11029 -0.104652,0.206918 0.01104,0.01126 0.06534,0.0049 0.116726,0 -0.05262,0.111958 -0.14407,0.140386 -0.165422,0.188289 0.03216,0.0244 0.07632,0.01779 0.12513,0.0011 -0.0379,0.07891 -0.117023,0.133248 -0.179874,0.197321 0.01566,0.01138 0.04381,0.01813 0.109493,0.01035 -0.05808,0.06231 -0.12859,0.119638 -0.211747,0.170845 0.01469,0.01742 0.0655,0.0165 0.112488,0.01759 -0.0753,0.07441 -0.17206,0.11312 -0.262879,0.161808 0.04531,0.03129 0.0772,0.02388 0.111891,0.02342 -0.06427,0.05329 -0.173527,0.08093 -0.274911,0.113109 0.01936,0.03027 0.03881,0.03842 0.08,0.04694 -0.107319,0.05999 -0.261043,0.03247 -0.304389,0.06317 0.01058,0.03013 0.0398,0.04977 0.07519,0.06618 -0.172801,0.01024 -0.645114,-0.0064 -0.735699,-0.36755 0.176882,-0.196265 0.499751,-0.426759 1.055124,-0.71164 -0.432062,0.146064 -0.822086,0.340841 -1.148371,0.608777 -0.383575,-0.180403 -0.119153,-0.635079 0.06799,-0.815709 0.0095,0.04768 0.02016,0.07776 0.03247,0.08663 0.06098,-0.06598 0.111045,-0.13382 0.189504,-0.197325 2.64e-4,0.03731 -0.01916,0.07805 0.02774,0.107681 0.04207,-0.05712 0.09896,-0.108322 0.174452,-0.151587 -0.03637,0.06329 -0.0064,0.08262 0.01321,0.108884 0.05765,-0.04991 0.112653,-0.100408 0.218966,-0.139576 z m -1.087003,1.487645 c 0.0096,-2.23e-4 0.01934,-2.43e-4 0.0289,0 0.271992,-0.0028 0.608885,0.202157 0.607567,0.395218 -0.0013,0.17041 -0.236325,0.308216 -0.605162,0.30559 -0.361162,-0.0043 -0.60434,-0.173548 -0.603358,-0.338675 6.5e-4,-0.13164 0.276169,-0.355485 0.572081,-0.362133 z m -0.896317,0.114904 c 0.0608,-0.0011 0.123486,0.0038 0.187689,0.01424 0.189206,0.03161 -0.906502,0.98421 -0.923384,0.771792 -0.01515,-0.484826 0.31008,-0.778347 0.735695,-0.786229 z m 1.74872,0.01651 c 0.01532,-4.45e-4 0.03051,-2.83e-4 0.04568,0 0.425615,0.0079 0.751355,0.301401 0.736297,0.786234 -0.01705,0.212402 -1.113179,-0.740176 -0.923983,-0.771796 0.04819,-0.0082 0.09566,-0.01321 0.141972,-0.0144 z m -0.188285,0.591819 a 0.7015583,0.59569185 55.132291 0 1 0.07158,5.5e-4 0.7015583,0.59569185 55.132291 0 1 0.444539,1.251838 0.7015583,0.59569185 55.132291 1 1 -0.776001,-1.16882 0.7015583,0.59569185 55.132291 0 1 0.259876,-0.08361 z m -1.263871,0.03247 a 0.59569185,0.7015583 34.867709 0 1 0.259878,0.08421 0.59569185,0.7015583 34.867709 1 1 -0.776606,1.168213 0.59569185,0.7015583 34.867709 0 1 0.445149,-1.25183 0.59569185,0.7015583 34.867709 0 1 0.07158,-5.5e-4 z m 2.294923,0.357923 c 0.0085,-1.41e-4 0.01723,10e-4 0.02655,0.0033 0.493823,0.280547 0.407721,0.904523 0.141389,1.117684 -0.234584,0.10367 -0.426636,-1.117028 -0.167813,-1.121295 z m -3.38614,0.01648 c 0.258788,0.0043 0.06615,1.224974 -0.168469,1.121294 -0.266355,-0.213171 -0.351856,-0.837125 0.141972,-1.117684 0.0093,-0.0023 0.01813,-0.0036 0.02658,-0.0033 z m 1.736085,0.842773 a 0.6652484,0.6103307 0 0 1 0.665315,0.610575 0.6653174,0.61039405 0 0 1 -1.330631,0 0.6652484,0.6103307 0 0 1 0.570268,-0.604555 0.6652484,0.6103307 0 0 1 0.09502,-0.0062 z m 1.470197,0.227417 c 0.05199,-0.0013 0.100521,0.01322 0.144369,0.04692 0.118077,0.117061 0.187511,0.557718 -0.01935,0.82172 -0.284755,0.393092 -0.670306,0.408465 -0.813899,0.298974 -0.150185,-0.140952 -0.03565,-0.578202 0.170246,-0.818109 0.176664,-0.198499 0.362644,-0.345461 0.518537,-0.349506 z m -3.00716,0.09386 c 0.007,-1.33e-4 0.01393,-2.83e-4 0.02107,0 0.167488,0.0069 0.367998,0.138813 0.531765,0.327849 0.190302,0.228068 0.276695,0.629011 0.117877,0.747124 -0.150201,0.09018 -0.514898,0.05304 -0.774194,-0.317621 -0.174887,-0.310981 -0.152213,-0.627682 -0.02948,-0.720657 0.04015,-0.02416 0.08492,-0.03572 0.13295,-0.03669 z m 1.565232,1.091218 c 0.0085,-2.23e-4 0.01723,-5.1e-5 0.02602,0 0.259588,0.0015 0.574427,0.095 0.575087,0.215936 0.0045,0.125281 -0.325193,0.407909 -0.644267,0.402439 -0.330427,0.0144 -0.654521,-0.269276 -0.650275,-0.367553 -0.0049,-0.144071 0.402746,-0.256236 0.668324,-0.249654 0.0084,-3.44e-4 0.01666,-9.5e-4 0.0255,-0.0012 z" />
  <g
     id="path7475"
     style="fill:#e7c323;fill-opacity:1"
     transform="translate(-5.34375,-3.65625)">
    <path
       style="color:#000000;fill:#e7c323;fill-opacity:1;stroke-width:1.3125;stroke-linecap:round;stroke-linejoin:round"
       d="m 22.5,42.09375 v 5.25"
       id="path3048" />
    <path
       style="color:#000000;fill:#e7c323;fill-opacity:1;stroke-linecap:round;stroke-linejoin:round"
       d="m 22.5,41.4375 c -0.362437,0 -0.65625,0.293813 -0.65625,0.65625 v 1.96875 c 0,0.362437 0.293813,0.65625 0.65625,0.65625 0.362437,0 0.65625,-0.293813 0.65625,-0.65625 v -1.96875 c 0,-0.362437 -0.293813,-0.65625 -0.65625,-0.65625 z"
       id="path3050"
       sodipodi:nodetypes="sssssss" />
  </g>
  <g
     id="g5701"
     style="fill:#e7c323;fill-opacity:1"
     transform="translate(-3.46875,-3.65625)">
    <path
       style="color:#000000;fill:#e7c323;fill-opacity:1;stroke-width:1.3125;stroke-linecap:round;stroke-linejoin:round"
       d="m 22.5,42.09375 v 5.25"
       id="path5697" />
    <path
       style="color:#000000;fill:#e7c323;fill-opacity:1;stroke-linecap:round;stroke-linejoin:round"
       d="m 22.5,41.4375 c -0.362437,0 -0.65625,0.293813 -0.65625,0.65625 v 1.96875 c 0,0.362437 0.293813,0.65625 0.65625,0.65625 0.362437,0 0.65625,-0.293813 0.65625,-0.65625 v -1.96875 c 0,-0.362437 -0.293813,-0.65625 -0.65625,-0.65625 z"
       id="path5699"
       sodipodi:nodetypes="sssssss" />
  </g>
  <g
     id="g5707"
     style="fill:#e7c323;fill-opacity:1"
     transform="translate(-1.59375,-3.65625)">
    <path
       style="color:#000000;fill:#e7c323;fill-opacity:1;stroke-width:1.3125;stroke-linecap:round;stroke-linejoin:round"
       d="m 22.5,42.09375 v 5.25"
       id="path5703" />
    <path
       style="color:#000000;fill:#e7c323;fill-opacity:1;stroke-linecap:round;stroke-linejoin:round"
       d="m 22.5,41.4375 c -0.362437,0 -0.65625,0.293813 -0.65625,0.65625 v 1.96875 c 0,0.362437 0.293813,0.65625 0.65625,0.65625 0.362437,0 0.65625,-0.293813 0.65625,-0.65625 v -1.96875 c 0,-0.362437 -0.293813,-0.65625 -0.65625,-0.65625 z"
       id="path5705"
       sodipodi:nodetypes="sssssss" />
  </g>
  <path
     style="fill:#edf1e9;fill-opacity:1;stroke-width:0.375;stroke-linejoin:round"
     d="m 17.15625,39 h 3.9375 c 1.5,0 2.53125,1.03125 2.53125,2.53125 v 2.4375 c 0,1.5 -1.03125,2.53125 -2.53125,2.53125 h -3.9375 c -1.5,0 -2.53125,-1.03125 -2.53125,-2.53125 v -2.4375 C 14.625,40.03125 15.65625,39 17.15625,39 Z"
     id="path2282"
     sodipodi:nodetypes="ccccccccc" />
  <g
     id="g5713"
     style="fill:#e7c323;fill-opacity:1"
     transform="translate(4.5,-3.65625)">
    <path
       style="color:#000000;fill:#e7c323;fill-opacity:1;stroke-width:1.3125;stroke-linecap:round;stroke-linejoin:round"
       d="m 22.5,42.09375 v 5.25"
       id="path5709" />
    <path
       style="color:#000000;fill:#e7c323;fill-opacity:1;stroke-linecap:round;stroke-linejoin:round"
       d="m 22.5,41.4375 c -0.362437,0 -0.65625,0.293813 -0.65625,0.65625 v 1.96875 c 0,0.362437 0.293813,0.65625 0.65625,0.65625 0.362437,0 0.65625,-0.293813 0.65625,-0.65625 v -1.96875 c 0,-0.362437 -0.293813,-0.65625 -0.65625,-0.65625 z"
       id="path5711"
       sodipodi:nodetypes="sssssss" />
  </g>
  <g
     id="g5719"
     style="fill:#e7c323;fill-opacity:1"
     transform="translate(6.375,-3.65625)">
    <path
       style="color:#000000;fill:#e7c323;fill-opacity:1;stroke-width:1.3125;stroke-linecap:round;stroke-linejoin:round"
       d="m 22.5,42.09375 v 5.25"
       id="path5715" />
    <path
       style="color:#000000;fill:#e7c323;fill-opacity:1;stroke-linecap:round;stroke-linejoin:round"
       d="m 22.5,41.4375 c -0.362437,0 -0.65625,0.293813 -0.65625,0.65625 v 1.96875 c 0,0.362437 0.293813,0.65625 0.65625,0.65625 0.362437,0 0.65625,-0.293813 0.65625,-0.65625 v -1.96875 c 0,-0.362437 -0.293813,-0.65625 -0.65625,-0.65625 z"
       id="path5717"
       sodipodi:nodetypes="sssssss" />
  </g>
  <g
     id="g5725"
     style="fill:#e7c323;fill-opacity:1"
     transform="translate(8.71875,-3.65625)">
    <path
       style="color:#000000;fill:#e7c323;fill-opacity:1;stroke-width:1.3125;stroke-linecap:round;stroke-linejoin:round"
       d="m 22.5,42.09375 v 5.25"
       id="path5721" />
    <path
       style="color:#000000;fill:#e7c323;fill-opacity:1;stroke-linecap:round;stroke-linejoin:round"
       d="m 22.5,41.4375 c -0.362437,0 -0.65625,0.293813 -0.65625,0.65625 v 1.96875 c 0,0.362437 0.293813,0.65625 0.65625,0.65625 0.362437,0 0.65625,-0.293813 0.65625,-0.65625 v -1.96875 c 0,-0.362437 -0.293813,-0.65625 -0.65625,-0.65625 z"
       id="path5723"
       sodipodi:nodetypes="sssssss" />
  </g>
  <path
     style="fill:#edf1e9;fill-opacity:1;stroke-width:0.375;stroke-linejoin:round"
     d="m 27,39 h 3.9375 c 1.5,0 2.53125,1.03125 2.53125,2.53125 v 2.4375 c 0,1.5 -1.03125,2.53125 -2.53125,2.53125 H 27 c -1.5,0 -2.53125,-1.03125 -2.53125,-2.53125 v -2.4375 C 24.46875,40.03125 25.5,39 27,39 Z"
     id="path5727"
     sodipodi:nodetypes="ccccccccc" />
  <path
     id="path5765"
     style="fill:#e7c323;fill-opacity:1;stroke-width:1.03808;stroke-linejoin:round;stroke-opacity:0.580986"
     d="M 35.90625,5.3378906 A 3.6621094,3.6621094 0 0 0 32.244141,9 3.6621094,3.6621094 0 0 0 35.90625,12.662109 3.6621094,3.6621094 0 0 0 39.568359,9 3.6621094,3.6621094 0 0 0 35.90625,5.3378906 Z m 0,1.3183594 C 37.200666,6.65625 38.25,7.7055839 38.25,9 c 0,1.294416 -1.049334,2.34375 -2.34375,2.34375 -1.294416,0 -2.34375,-1.049334 -2.34375,-2.34375 0,-1.2944161 1.049334,-2.34375 2.34375,-2.34375 z" />
  <path
     id="path5768"
     style="fill:#e7c323;fill-opacity:1;stroke-width:1.03808;stroke-linejoin:round;stroke-opacity:0.580986"
     d="M 12,5.3378906 A 3.6621094,3.6621094 0 0 0 8.337891,9 3.6621094,3.6621094 0 0 0 12,12.662109 3.6621094,3.6621094 0 0 0 15.662109,9 3.6621094,3.6621094 0 0 0 12,5.3378906 Z M 12,6.65625 c 1.294416,0 2.34375,1.0493339 2.34375,2.34375 0,1.294416 -1.049334,2.34375 -2.34375,2.34375 C 10.705584,11.34375 9.65625,10.294416 9.65625,9 9.65625,7.7055839 10.705584,6.65625 12,6.65625 Z" />
  <path
     id="path5770"
     style="fill:#e7c323;fill-opacity:1;stroke-width:1.03808;stroke-linejoin:round;stroke-opacity:0.580986"
     d="M 12,33.462891 A 3.6621094,3.6621094 0 0 0 8.337891,37.125 3.6621094,3.6621094 0 0 0 12,40.787109 3.6621094,3.6621094 0 0 0 15.662109,37.125 3.6621094,3.6621094 0 0 0 12,33.462891 Z m 0,1.318359 c 1.294416,0 2.34375,1.049334 2.34375,2.34375 0,1.294416 -1.049334,2.34375 -2.34375,2.34375 -1.294416,0 -2.34375,-1.049334 -2.34375,-2.34375 0,-1.294416 1.049334,-2.34375 2.34375,-2.34375 z" />
  <path
     id="path5772"
     style="fill:#e7c323;fill-opacity:1;stroke-width:1.03808;stroke-linejoin:round;stroke-opacity:0.580986"
     d="M 35.90625,33.462891 A 3.6621094,3.6621094 0 0 0 32.244141,37.125 3.6621094,3.6621094 0 0 0 35.90625,40.787109 3.6621094,3.6621094 0 0 0 39.568359,37.125 3.6621094,3.6621094 0 0 0 35.90625,33.462891 Z m 0,1.318359 c 1.294416,0 2.34375,1.049334 2.34375,2.34375 0,1.294416 -1.049334,2.34375 -2.34375,2.34375 -1.294416,0 -2.34375,-1.049334 -2.34375,-2.34375 0,-1.294416 1.049334,-2.34375 2.34375,-2.34375 z" />
</svg>
