<?xml version="1.0" encoding="UTF-8" standalone="no"?>
<svg
   fill="none"
   viewBox="0 0 48 48"
   height="256"
   width="256"
   version="1.1"
   id="svg6"
   sodipodi:docname="wch-linke-ro-1v3.svg"
   inkscape:version="1.2.1 (9c6d41e410, 2022-07-14)"
   xmlns:inkscape="http://www.inkscape.org/namespaces/inkscape"
   xmlns:sodipodi="http://sodipodi.sourceforge.net/DTD/sodipodi-0.dtd"
   xmlns="http://www.w3.org/2000/svg"
   xmlns:svg="http://www.w3.org/2000/svg">
  <defs
     id="defs10" />
  <sodipodi:namedview
     id="namedview8"
     pagecolor="#ffffff"
     bordercolor="#666666"
     borderopacity="1.0"
     inkscape:showpageshadow="2"
     inkscape:pageopacity="0.0"
     inkscape:pagecheckerboard="true"
     inkscape:deskcolor="#d1d1d1"
     showgrid="true"
     inkscape:zoom="1.1449053"
     inkscape:cx="216.17508"
     inkscape:cy="151.54092"
     inkscape:current-layer="svg6"
     showguides="false"
     inkscape:window-width="1920"
     inkscape:window-height="730"
     inkscape:window-x="-6"
     inkscape:window-y="-6"
     inkscape:window-maximized="1">
    <inkscape:grid
       type="xygrid"
       id="grid239"
       units="px"
       spacingx="1.5"
       spacingy="1.5" />
  </sodipodi:namedview>
  <path
     id="rect897"
     style="fill:#77c32f;fill-opacity:1;stroke:none;stroke-width:0.363088;stroke-linejoin:round;stroke-opacity:0.580986"
     d="m 20.954224,44.908447 c -5.120294,-0.26982 -9.013548,-4.163468 -9.283448,-9.283814 -0.167099,-3.171297 -0.295898,-7.281215 -0.295898,-12.42041 0,-5.139095 0.128799,-9.24948 0.295898,-12.420776 0.2698,-5.120295 4.163154,-9.013648 9.283448,-9.283448 h 6.091186 c 5.120325,0.2698 9.014004,4.163153 9.283814,9.283448 0.167109,3.171296 0.295532,7.281581 0.295532,12.420776 0,5.139195 -0.128423,9.249113 -0.295532,12.42041 -0.26981,5.120336 -4.163479,9.014004 -9.283814,9.283814 z"
     sodipodi:nodetypes="ccssccssscc" />
  <path
     style="fill:#606668;fill-opacity:1;stroke-width:0.425197;stroke-linejoin:round;stroke-opacity:0.580986"
     d="m 28.5,48 h -9 c -1.5,0 -3,-1.5 -3,-3 v -7.5 c 0,-1.5 1.5,-3 3,-3 h 9 c 1.5,0 3,1.5 3,3 V 45 c 0,1.5 -1.5,3 -3,3 z"
     id="path450"
     sodipodi:nodetypes="ccccccccc" />
  <path
     id="path1058"
     style="fill:#fff01c;fill-opacity:1;stroke-width:0.425197;stroke-linejoin:round;stroke-opacity:0.580986"
     d="M 25.5,45 A 1.5,1.5 0 0 1 27,43.5 1.5,1.5 0 0 1 28.5,45 1.5,1.5 0 0 1 27,46.5 1.5,1.5 0 0 1 25.5,45 Z" />
  <path
     id="path1061"
     style="fill:#fff01c;fill-opacity:1;stroke-width:0.425197;stroke-linejoin:round;stroke-opacity:0.580986"
     d="M 19.5,45 A 1.5,1.5 0 0 1 21,43.5 1.5,1.5 0 0 1 22.5,45 1.5,1.5 0 0 1 21,46.5 1.5,1.5 0 0 1 19.5,45 Z" />
  <path
     id="path916"
     style="fill:#606668;fill-opacity:1;stroke-width:0.246037"
     d="M 19.782715 15.587402 C 19.595874 15.587402 19.464098 15.607338 19.373657 15.631348 C 19.252531 15.663508 19.194148 15.779634 19.190186 15.904907 C 19.182786 16.138914 19.171699 16.543435 19.168579 16.893677 C 19.088499 16.898777 19.010777 16.904184 18.938599 16.909424 C 18.309482 16.955164 17.828941 17.435699 17.783203 18.064819 L 17.783203 23.935181 C 17.828943 24.564296 18.309482 25.044837 18.938599 25.090576 C 19.011299 25.095876 19.089333 25.101143 19.170044 25.106323 C 19.168344 25.218102 19.16748 25.327782 19.16748 25.428589 C 19.167481 25.732665 19.176622 25.964985 19.184692 26.111206 C 19.191092 26.226768 19.246941 26.332545 19.358276 26.364258 C 19.448966 26.390088 19.584926 26.412598 19.782715 26.412598 C 19.980505 26.412599 20.116099 26.390088 20.206787 26.364258 C 20.318092 26.332548 20.374366 26.226769 20.380737 26.111206 C 20.388737 25.964983 20.397583 25.732666 20.397583 25.428589 C 20.397583 25.344589 20.396902 25.254017 20.395752 25.161621 C 20.661202 25.169421 20.949186 25.175363 21.260742 25.178833 C 21.259745 25.265173 21.258911 25.349836 21.258911 25.428589 C 21.258911 25.732666 21.268093 25.964987 21.276123 26.111206 C 21.282523 26.226769 21.338402 26.332548 21.449707 26.364258 C 21.540397 26.390098 21.676356 26.412598 21.874146 26.412598 C 21.880135 26.412598 21.885481 26.412638 21.891357 26.412598 C 21.897204 26.412638 21.902611 26.412598 21.908569 26.412598 C 22.106359 26.412599 22.24232 26.390088 22.333008 26.364258 C 22.444313 26.332548 22.500221 26.226769 22.506592 26.111206 C 22.514592 25.964983 22.523804 25.732666 22.523804 25.428589 C 22.523804 25.349889 22.523001 25.264799 22.521973 25.178467 C 22.664826 25.176767 22.803956 25.174536 22.93689 25.171875 C 23.069959 25.174538 23.209154 25.176779 23.352173 25.178467 C 23.351108 25.264802 23.350342 25.349886 23.350342 25.428589 C 23.350342 25.732666 23.359118 25.964986 23.367188 26.111206 C 23.373587 26.226769 23.429458 26.332546 23.540771 26.364258 C 23.631461 26.390088 23.767421 26.412598 23.96521 26.412598 C 23.971168 26.412598 23.976575 26.412638 23.982422 26.412598 C 23.98839 26.41264 23.993915 26.412598 24 26.412598 C 24.005958 26.412598 24.011365 26.412638 24.017212 26.412598 C 24.023088 26.412638 24.028435 26.412598 24.034424 26.412598 C 24.232214 26.412599 24.368174 26.390088 24.458862 26.364258 C 24.570167 26.332548 24.626442 26.226769 24.632812 26.111206 C 24.640812 25.964983 24.649658 25.732666 24.649658 25.428589 C 24.649658 25.349889 24.648856 25.264799 24.647827 25.178467 C 24.790815 25.176766 24.930059 25.174538 25.06311 25.171875 C 25.196062 25.174536 25.335143 25.17678 25.478027 25.178467 C 25.476963 25.264802 25.476196 25.349886 25.476196 25.428589 C 25.476196 25.732666 25.485338 25.964986 25.493408 26.111206 C 25.499808 26.226769 25.555678 26.332546 25.666992 26.364258 C 25.757682 26.390088 25.893642 26.412598 26.091431 26.412598 C 26.09742 26.412598 26.102767 26.412638 26.108643 26.412598 C 26.114519 26.412638 26.119865 26.412598 26.125854 26.412598 C 26.323642 26.412598 26.459603 26.390088 26.550293 26.364258 C 26.661624 26.332548 26.717524 26.226765 26.723877 26.111206 C 26.731877 25.964983 26.741089 25.732666 26.741089 25.428589 C 26.741082 25.349839 26.740308 25.265174 26.739258 25.178833 C 27.050743 25.175333 27.338482 25.169391 27.603882 25.161621 C 27.602682 25.254021 27.602051 25.344586 27.602051 25.428589 C 27.602051 25.732666 27.611193 25.964986 27.619263 26.111206 C 27.625663 26.226769 27.681533 26.332546 27.792847 26.364258 C 27.883537 26.390088 28.019496 26.412598 28.217285 26.412598 C 28.415075 26.412598 28.551035 26.390088 28.641724 26.364258 C 28.753055 26.332548 28.808963 26.226771 28.815308 26.111206 C 28.823308 25.964984 28.83252 25.732666 28.83252 25.428589 C 28.83252 25.327784 28.831215 25.218101 28.82959 25.106323 C 28.91035 25.101123 28.988668 25.095866 29.061401 25.090576 C 29.690524 25.044836 30.171057 24.564295 30.216797 23.935181 L 30.216431 18.064819 C 30.170691 17.4357 29.690521 16.955162 29.061401 16.909424 C 28.989221 16.904124 28.911495 16.898807 28.831421 16.893677 C 28.828321 16.543435 28.816848 16.138914 28.809448 15.904907 C 28.805448 15.779636 28.747466 15.663511 28.626343 15.631348 C 28.535903 15.607338 28.404125 15.587402 28.217285 15.587402 C 28.030444 15.587402 27.898672 15.607338 27.808228 15.631348 C 27.687078 15.663518 27.628717 15.779635 27.624756 15.904907 C 27.617756 16.126725 27.607266 16.501556 27.603516 16.838379 C 27.338247 16.830579 27.05056 16.824637 26.739258 16.821167 C 26.735358 16.48884 26.725284 16.122957 26.718384 15.904907 C 26.714384 15.779636 26.656034 15.663509 26.534912 15.631348 C 26.444472 15.607338 26.312696 15.587402 26.125854 15.587402 C 26.119888 15.587402 26.114497 15.587728 26.108643 15.587769 C 26.102698 15.587727 26.097125 15.587402 26.091064 15.587402 C 25.904224 15.587402 25.772818 15.607338 25.682373 15.631348 C 25.561223 15.663518 25.502862 15.779635 25.498901 15.904907 C 25.492016 16.123086 25.481932 16.489062 25.478027 16.821533 C 25.335142 16.823234 25.196065 16.825462 25.06311 16.828125 C 25.062983 16.828122 25.062871 16.828128 25.062744 16.828125 C 24.929792 16.825462 24.790719 16.823221 24.647827 16.821533 C 24.643872 16.489063 24.633858 16.123086 24.626953 15.904907 C 24.622953 15.779636 24.564624 15.663511 24.443481 15.631348 C 24.353042 15.607338 24.221264 15.587402 24.034424 15.587402 C 24.028457 15.587402 24.023066 15.587728 24.017212 15.587769 C 24.011358 15.587728 24.005966 15.587402 24 15.587402 C 23.993907 15.587402 23.988398 15.587726 23.982422 15.587769 C 23.976568 15.587728 23.971176 15.587402 23.96521 15.587402 C 23.778369 15.587402 23.646963 15.607338 23.556519 15.631348 C 23.435369 15.663518 23.377008 15.779635 23.373047 15.904907 C 23.366162 16.123086 23.356077 16.489062 23.352173 16.821533 C 23.209287 16.823234 23.070211 16.825462 22.937256 16.828125 L 22.93689 16.828125 C 22.803938 16.825462 22.664864 16.823221 22.521973 16.821533 C 22.518018 16.489063 22.507637 16.123086 22.500732 15.904907 C 22.496732 15.779636 22.438404 15.663511 22.317261 15.631348 C 22.226821 15.607338 22.095409 15.587402 21.908569 15.587402 C 21.902603 15.587402 21.897211 15.587728 21.891357 15.587769 C 21.885503 15.587728 21.880112 15.587402 21.874146 15.587402 C 21.687306 15.587403 21.555533 15.607338 21.465088 15.631348 C 21.343938 15.663518 21.285576 15.779636 21.281616 15.904907 C 21.274716 16.122955 21.264296 16.488837 21.260376 16.821167 C 20.949089 16.824667 20.661745 16.830609 20.396484 16.838379 C 20.392684 16.501557 20.381898 16.126725 20.374878 15.904907 C 20.370878 15.779636 20.312549 15.663511 20.191406 15.631348 C 20.100966 15.607338 19.969555 15.587402 19.782715 15.587402 z " />
  <g
     id="g1449"
     transform="rotate(180,38.958662,7.5)">
    <path
       style="color:#000000;fill:#606668;fill-opacity:1;stroke-linecap:round;stroke-linejoin:round"
       d="m 49.496094,5.392578 c -0.968749,0 -1.861725,0.463287 -2.527344,1.128906 -0.665619,0.665619 -1.128906,1.558595 -1.128906,2.527344 a 0.65625,0.65625 0 0 0 0.65625,0.65625 0.65625,0.65625 0 0 0 0.65625,-0.65625 c 0,-0.531249 0.284761,-1.140229 0.74414,-1.599609 0.45938,-0.45938 1.06836,-0.744141 1.59961,-0.744141 h 9 c 0.53125,0 1.138276,0.284761 1.597656,0.744141 0.45938,0.45938 0.746094,1.06836 0.746094,1.599609 a 0.65625,0.65625 0 0 0 0.65625,0.65625 0.65625,0.65625 0 0 0 0.65625,-0.65625 c 0,-0.968749 -0.46524,-1.861725 -1.13086,-2.527344 -0.665619,-0.665619 -1.556641,-1.128906 -2.52539,-1.128906 z"
       id="path3515" />
    <path
       id="path1058-3"
       style="fill:#e7c323;fill-opacity:1;stroke:none;stroke-width:0.318898;stroke-linejoin:round;stroke-opacity:1"
       d="m 50.625,9.09375 c 0,0.62132 -0.50368,1.125 -1.125,1.125 -0.62132,0 -1.125,-0.50368 -1.125,-1.125 0,-0.62132 0.50368,-1.125 1.125,-1.125 0.62132,0 1.125,0.50368 1.125,1.125 z"
       sodipodi:nodetypes="sssss" />
    <path
       id="path3539"
       style="fill:#e7c323;fill-opacity:1;stroke:none;stroke-width:0.318898;stroke-linejoin:round;stroke-opacity:1"
       d="m 53.625,9.09375 c 0,0.62132 -0.50368,1.125 -1.125,1.125 -0.62132,0 -1.125,-0.50368 -1.125,-1.125 0,-0.62132 0.50368,-1.125 1.125,-1.125 0.62132,0 1.125,0.50368 1.125,1.125 z"
       sodipodi:nodetypes="sssss" />
    <path
       id="path3541"
       style="fill:#e7c323;fill-opacity:1;stroke:none;stroke-width:0.318898;stroke-linejoin:round;stroke-opacity:1"
       d="m 56.625,9.09375 c 0,0.62132 -0.50368,1.125 -1.125,1.125 -0.62132,0 -1.125,-0.50368 -1.125,-1.125 0,-0.62132 0.50368,-1.125 1.125,-1.125 0.62132,0 1.125,0.50368 1.125,1.125 z"
       sodipodi:nodetypes="sssss" />
    <path
       id="path3543"
       style="fill:#e7c323;fill-opacity:1;stroke:none;stroke-width:0.318898;stroke-linejoin:round;stroke-opacity:1"
       d="m 59.625,9.09375 c 0,0.62132 -0.50368,1.125 -1.125,1.125 -0.62132,0 -1.125,-0.50368 -1.125,-1.125 0,-0.62132 0.50368,-1.125 1.125,-1.125 0.62132,0 1.125,0.50368 1.125,1.125 z"
       sodipodi:nodetypes="sssss" />
    <g
       id="path7110"
       style="fill:#e7c323;fill-opacity:1"
       transform="translate(30,-33)">
      <path
         style="color:#000000;fill:#e7c323;fill-opacity:1;stroke-width:1.3125;stroke-linecap:round;stroke-linejoin:round"
         d="m 19.5,42.09375 v 5.25"
         id="path3712" />
      <path
         style="color:#000000;fill:#e7c323;fill-opacity:1;stroke-linecap:round;stroke-linejoin:round"
         d="m 19.5,41.4375 a 0.65625,0.65625 0 0 0 -0.65625,0.65625 v 5.25 A 0.65625,0.65625 0 0 0 19.5,48 0.65625,0.65625 0 0 0 20.15625,47.34375 v -5.25 A 0.65625,0.65625 0 0 0 19.5,41.4375 Z"
         id="path3714" />
    </g>
    <g
       id="path7475"
       style="fill:#e7c323;fill-opacity:1"
       transform="translate(30,-33)">
      <path
         style="color:#000000;fill:#e7c323;fill-opacity:1;stroke-width:1.3125;stroke-linecap:round;stroke-linejoin:round"
         d="m 22.5,42.09375 v 5.25"
         id="path3718" />
      <path
         style="color:#000000;fill:#e7c323;fill-opacity:1;stroke-linecap:round;stroke-linejoin:round"
         d="m 22.5,41.4375 a 0.65625,0.65625 0 0 0 -0.65625,0.65625 v 5.25 A 0.65625,0.65625 0 0 0 22.5,48 0.65625,0.65625 0 0 0 23.15625,47.34375 v -5.25 A 0.65625,0.65625 0 0 0 22.5,41.4375 Z"
         id="path3720" />
    </g>
    <g
       id="path7477"
       style="fill:#e7c323;fill-opacity:1"
       transform="translate(30,-33)">
      <path
         style="color:#000000;fill:#e7c323;fill-opacity:1;stroke-width:1.3125;stroke-linecap:round;stroke-linejoin:round"
         d="m 25.5,42.09375 v 5.25"
         id="path3724" />
      <path
         style="color:#000000;fill:#e7c323;fill-opacity:1;stroke-linecap:round;stroke-linejoin:round"
         d="m 25.5,41.4375 a 0.65625,0.65625 0 0 0 -0.65625,0.65625 v 5.25 A 0.65625,0.65625 0 0 0 25.5,48 0.65625,0.65625 0 0 0 26.15625,47.34375 v -5.25 A 0.65625,0.65625 0 0 0 25.5,41.4375 Z"
         id="path3726" />
    </g>
    <g
       id="path7479"
       style="fill:#e7c323;fill-opacity:1"
       transform="translate(30,-33)">
      <path
         style="color:#000000;fill:#e7c323;fill-opacity:1;stroke-width:1.3125;stroke-linecap:round;stroke-linejoin:round"
         d="m 28.5,42.09375 v 5.25"
         id="path3730" />
      <path
         style="color:#000000;fill:#e7c323;fill-opacity:1;stroke-linecap:round;stroke-linejoin:round"
         d="m 28.5,41.4375 a 0.65625,0.65625 0 0 0 -0.65625,0.65625 v 5.25 A 0.65625,0.65625 0 0 0 28.5,48 0.65625,0.65625 0 0 0 29.15625,47.34375 v -5.25 A 0.65625,0.65625 0 0 0 28.5,41.4375 Z"
         id="path3732" />
    </g>
  </g>
</svg>
