<?xml version="1.0" encoding="UTF-8" standalone="no"?>
<svg
   fill="none"
   viewBox="0 0 48 48"
   height="256"
   width="256"
   version="1.1"
   id="svg12"
   sodipodi:docname="step_out.svg"
   inkscape:version="1.2.1 (9c6d41e410, 2022-07-14)"
   xmlns:inkscape="http://www.inkscape.org/namespaces/inkscape"
   xmlns:sodipodi="http://sodipodi.sourceforge.net/DTD/sodipodi-0.dtd"
   xmlns="http://www.w3.org/2000/svg"
   xmlns:svg="http://www.w3.org/2000/svg">
  <defs
     id="defs16">
    <inkscape:path-effect
       effect="bend_path"
       id="path-effect350"
       is_visible="true"
       lpeversion="1"
       bendpath="M 1.2089319e-7,24 C 17.485412,1.9446017 28.850173,15.528193 48,24"
       prop_scale="0.85736057"
       scale_y_rel="false"
       vertical="false"
       hide_knot="false"
       bendpath-nodetypes="cc" />
  </defs>
  <sodipodi:namedview
     id="namedview14"
     pagecolor="#ffffff"
     bordercolor="#666666"
     borderopacity="1.0"
     inkscape:pageshadow="2"
     inkscape:pageopacity="0.0"
     inkscape:pagecheckerboard="0"
     showgrid="false"
     inkscape:zoom="0.70710678"
     inkscape:cx="-73.539105"
     inkscape:cy="168.99852"
     inkscape:window-width="1280"
     inkscape:window-height="650"
     inkscape:window-x="-6"
     inkscape:window-y="-6"
     inkscape:window-maximized="1"
     inkscape:current-layer="svg12"
     inkscape:snap-bbox="true"
     inkscape:snap-page="true"
     inkscape:bbox-paths="true"
     inkscape:bbox-nodes="true"
     inkscape:snap-bbox-edge-midpoints="true"
     inkscape:snap-bbox-midpoints="true"
     inkscape:object-paths="true"
     inkscape:snap-intersection-paths="true"
     inkscape:snap-smooth-nodes="true"
     inkscape:snap-midpoints="true"
     inkscape:snap-object-midpoints="true"
     inkscape:snap-center="true"
     inkscape:snap-text-baseline="true"
     inkscape:showpageshadow="0"
     inkscape:deskcolor="#d1d1d1" />
  <circle
     style="fill:#000000;fill-opacity:1;stroke-width:0.35433"
     id="path500"
     cx="24"
     cy="41.90625"
     r="6.09375" />
  <path
     id="path10"
     style="fill:#204a87;fill-opacity:1;stroke-width:1"
     d="m 21.27832,35.81243 c -2.204772,0.01444 -2.550923,-2.166904 -2.602427,-6.186255 -0.04773,-3.198486 -0.0946,-6.574057 -0.03795,-9.374048 -1.651427,-0.04519 -3.053787,-0.110052 -4.240722,-0.18457 C 11.192912,19.86607 9.6969555,16.655306 11.402714,13.855521 15.323739,7.4201385 18.977946,3.3633415 21.32996,1.1088165 c 1.542205,-1.47817898 3.797256,-1.47854298 5.339356,-3.66e-4 2.352146,2.254523 6.00648,6.310908 9.927612,12.7470705 1.705546,2.799524 0.209747,6.010549 -2.994507,6.212036 -1.309441,0.0823 -2.881367,0.152575 -4.760742,0.197754 0.04125,3.118964 0.09769,6.405175 0.06827,9.34859 -0.05258,4.651369 -0.460305,6.175164 -2.292273,6.198529 z"
     sodipodi:nodetypes="ccccccccccccc" />
</svg>
