<?xml version="1.0" encoding="UTF-8" standalone="no"?>
<svg
   fill="none"
   viewBox="0 0 48 48"
   height="256"
   width="256"
   version="1.1"
   id="svg1378"
   sodipodi:docname="zoom.svg"
   inkscape:version="1.2.1 (9c6d41e410, 2022-07-14)"
   xmlns:inkscape="http://www.inkscape.org/namespaces/inkscape"
   xmlns:sodipodi="http://sodipodi.sourceforge.net/DTD/sodipodi-0.dtd"
   xmlns="http://www.w3.org/2000/svg"
   xmlns:svg="http://www.w3.org/2000/svg">
  <defs
     id="defs1382" />
  <sodipodi:namedview
     id="namedview1380"
     pagecolor="#ffffff"
     bordercolor="#666666"
     borderopacity="1.0"
     inkscape:showpageshadow="2"
     inkscape:pageopacity="0.0"
     inkscape:pagecheckerboard="0"
     inkscape:deskcolor="#d1d1d1"
     showgrid="false"
     inkscape:zoom="0.8095703"
     inkscape:cx="-7.4113391"
     inkscape:cy="61.143547"
     inkscape:current-layer="svg1378"
     inkscape:window-width="1920"
     inkscape:window-height="730"
     inkscape:window-x="-6"
     inkscape:window-y="-6"
     inkscape:window-maximized="1" />
  <g
     id="g3110"
     style="fill:#d8dbd4;fill-opacity:1">
    <path
       id="rect1553"
       style="fill:#d8dbd4;fill-opacity:1;stroke:none;stroke-width:1.875;stroke-linejoin:round"
       d="m 12,46.000122 c 2.552197,0 4.52357,-0.118665 5.998169,-0.269165 2.252298,-0.22987 3.776628,-2.039166 3.861328,-4.301514 0.0755,-2.017358 0.140625,-5.031169 0.140625,-9.429565 0,-4.398396 -0.06513,-7.411901 -0.140625,-9.429199 -0.0847,-2.262398 -1.60903,-4.07198 -3.861328,-4.30188 C 16.52357,18.118299 14.552197,18 12,18 c -2.5522374,0 -4.5235304,0.118299 -5.9981689,0.268799 -2.2522378,0.2299 -3.7766183,2.039482 -3.8613282,4.30188 -0.07553,2.017298 -0.140625,5.030803 -0.140625,9.429199 0,4.398396 0.065095,7.412207 0.140625,9.429565 0.08471,2.262348 1.6090904,4.071644 3.8613282,4.301514 1.4746385,0.1505 3.4459315,0.269165 5.9981689,0.269165 z m 0,-30.500244 c 2.545497,0 4.677759,-0.05858 6.248657,-0.122681 1.875798,-0.0767 3.441187,-1.186367 3.626587,-3.054565 0.0746,-0.752299 0.124878,-2.4319551 0.124878,-3.5727541 0,-1.140799 -0.05028,-2.820455 -0.124878,-3.572754 -0.1854,-1.868198 -1.750789,-2.977499 -3.626587,-3.054199 -1.570898,-0.0641 -3.70316,-0.123047 -6.248657,-0.123047 -2.5454775,0 -4.6778288,0.05895 -6.2486572,0.123047 -1.8758482,0.0767 -3.4412371,1.186001 -3.6265869,3.054199 -0.07463,0.752299 -0.124878,2.431955 -0.124878,3.572754 0,1.140799 0.050248,2.8204551 0.124878,3.5727541 0.1853498,1.868198 1.7507387,2.977865 3.6265869,3.054565 1.5708284,0.0641 3.7031797,0.122681 6.2486572,0.122681 z"
       sodipodi:nodetypes="sscsccscssccssccsccscssccs" />
    <path
       id="path2093"
       style="fill:#d8dbd4;fill-opacity:1;stroke:none;stroke-width:1.875;stroke-linejoin:round"
       d="m 36,1.875 c 2.552197,0 4.52357,0.118299 5.998169,0.268799 2.252298,0.2299 3.776628,2.039482 3.861328,4.30188 0.0755,2.017298 0.140625,13.280803 0.140625,17.679199 0,4.398396 -0.06512,15.287267 -0.140625,17.304565 -0.0847,2.262398 -1.60903,4.071614 -3.861328,4.301514 -1.474599,0.1505 -3.445972,0.269165 -5.998169,0.269165 -2.552197,0 -4.52357,-0.118665 -5.998169,-0.269165 -2.252298,-0.2299 -3.776628,-2.039116 -3.861328,-4.301514 -0.0755,-2.017298 -0.140625,-12.906169 -0.140625,-17.304565 0,-4.398396 0.06513,-15.661901 0.140625,-17.679199 0.0847,-2.262398 1.60903,-4.07198 3.861328,-4.30188 C 31.47643,1.993299 33.447803,1.875 36,1.875 Z"
       sodipodi:nodetypes="sccsccsccsccs" />
  </g>
  <g
     id="g3399"
     transform="matrix(0.6,0,0,0.6,46.372819,15.383328)">
    <circle
       cx="-39.288261"
       cy="12.360338"
       r="17"
       fill="#95c2f2"
       id="circle3119" />
    <path
       fill="#507ab7"
       fill-rule="evenodd"
       d="m -28.629361,29.286438 c -3.0856,1.9471 -6.7406,3.0739 -10.6589,3.0739 -11.0457,0 -20,-8.9543 -20,-20 0,-11.0457002 8.9543,-20.0000002 20,-20.0000002 11.0457,0 20,8.9543 20,20.0000002 0,3.9267 -1.1316,7.589 -3.0865,10.6788 0.0934,0.0773 0.1868,0.1546 0.2801,0.2318 v 0 c 1.8185,1.5047 3.6092,2.9864 5.3756,4.634 1.7377,1.6209 1.9537,4.0736 0.3103,5.7898 -0.2331,0.2435 -0.4877,0.5036 -0.7656,0.7811 -0.278,0.2775 -0.5386,0.5316 -0.7825,0.7644 -1.7192,1.6404 -4.1761,1.4248 -5.7998,-0.3099 -1.6505,-1.7633 -3.1348,-3.5509 -4.6421,-5.3663 -0.0768,-0.0924 -0.1537,-0.185 -0.2306,-0.2776 z m 3.3411,-16.9261 c 0,7.732 -6.268,14 -14,14 -7.732,0 -14,-6.268 -14,-14 0,-7.7320002 6.268,-14.0000002 14,-14.0000002 7.732,0 14,6.268 14,14.0000002 z"
       clip-rule="evenodd"
       id="path3121" />
  </g>
</svg>
