<svg xmlns="http://www.w3.org/2000/svg" fill="none" viewBox="0 0 48 48" height="256" width="256"><path fill="#95c2f2" d="M2.54146 40.5257C2.75632 43.1837 4.81521 45.238 7.47402 45.4425C10.9533 45.7101 16.462 46 24 46C31.538 46 37.0467 45.7101 40.526 45.4425C43.1848 45.238 45.2437 43.1837 45.4585 40.5257C45.7216 37.2719 46 32.332 46 26C46 19.668 45.7216 14.7281 45.4585 11.4743C45.2437 8.8163 43.1848 6.76204 40.526 6.55753C37.0466 6.28991 31.538 6 24 6C16.462 6 10.9533 6.28991 7.47402 6.55753C4.81521 6.76204 2.75632 8.81629 2.54146 11.4743C2.27843 14.7281 2 19.668 2 26C2 32.332 2.27844 37.2719 2.54146 40.5257Z"></path><path fill="#507ab7" fill-rule="evenodd" d="M35.7691 2.03711C37.0258 2.09617 37.8887 2.99101 37.9465 4.24782C37.9721 4.80273 37.9916 5.50357 37.9979 6.38475C38.9347 6.4413 39.7775 6.49993 40.5263 6.55753C43.1851 6.76204 45.244 8.81629 45.4588 11.4743C45.5608 12.7353 45.665 14.2496 45.7545 16H2.24609C2.33555 14.2496 2.4398 12.7353 2.54174 11.4743C2.7566 8.81629 4.81549 6.76204 7.4743 6.55753C8.22296 6.49994 9.06557 6.44133 10.0021 6.38479C10.0104 5.21613 10.0421 4.36467 10.0801 3.75017C10.1384 2.80836 10.7908 2.1299 11.7323 2.06561C12.2839 2.02794 13.0225 2 14 2C14.9775 2 15.7161 2.02794 16.2677 2.06561C17.2092 2.1299 17.8616 2.80836 17.9199 3.75017C17.9544 4.3071 17.9836 5.05867 17.9949 6.06462C19.8285 6.02402 21.8303 6 24.0003 6C26.17 6 28.1716 6.02402 30.0051 6.06461C30.0133 5.33168 30.0311 4.73379 30.0535 4.24782C30.1113 2.99101 30.9742 2.09617 32.2309 2.03711C32.7083 2.01468 33.2914 2 34 2C34.7086 2 35.2917 2.01468 35.7691 2.03711Z" clip-rule="evenodd"></path><path fill="#507ab7" fill-rule="evenodd" d="M10.3254 28.9719C9.04441 28.926 8.074 27.9556 8.0281 26.6746C8.01117 26.2021 8 25.6457 8 25C8 24.3543 8.01117 23.7979 8.0281 23.3254C8.074 22.0444 9.04441 21.074 10.3254 21.0281C10.7979 21.0112 11.3543 21 12 21C12.6457 21 13.2021 21.0112 13.6746 21.0281C14.9556 21.074 15.926 22.0444 15.9719 23.3254C15.9888 23.7979 16 24.3543 16 25C16 25.6457 15.9888 26.2021 15.9719 26.6746C15.926 27.9556 14.9556 28.926 13.6746 28.9719C13.2021 28.9888 12.6457 29 12 29C11.3543 29 10.7979 28.9888 10.3254 28.9719ZM10.3254 40.9719C9.04441 40.926 8.074 39.9556 8.0281 38.6746C8.01117 38.2021 8 37.6457 8 37C8 36.3543 8.01117 35.7979 8.0281 35.3254C8.074 34.0444 9.04441 33.074 10.3254 33.0281C10.7979 33.0112 11.3543 33 12 33C12.6457 33 13.2021 33.0112 13.6746 33.0281C14.9556 33.074 15.926 34.0444 15.9719 35.3254C15.9888 35.7979 16 36.3543 16 37C16 37.6457 15.9888 38.2021 15.9719 38.6746C15.926 39.9556 14.9556 40.926 13.6746 40.9719C13.2021 40.9888 12.6457 41 12 41C11.3543 41 10.7979 40.9888 10.3254 40.9719ZM32.0281 26.6746C32.074 27.9556 33.0444 28.926 34.3254 28.9719C34.7979 28.9888 35.3543 29 36 29C36.6457 29 37.2021 28.9888 37.6746 28.9719C38.9556 28.926 39.926 27.9556 39.9719 26.6746C39.9888 26.2021 40 25.6457 40 25C40 24.3543 39.9888 23.7979 39.9719 23.3254C39.926 22.0444 38.9556 21.074 37.6746 21.0281C37.2021 21.0112 36.6457 21 36 21C35.3543 21 34.7979 21.0112 34.3254 21.0281C33.0444 21.074 32.074 22.0444 32.0281 23.3254C32.0112 23.7979 32 24.3543 32 25C32 25.6457 32.0112 26.2021 32.0281 26.6746ZM22.3254 28.9719C21.0444 28.926 20.074 27.9556 20.0281 26.6746C20.0112 26.2021 20 25.6457 20 25C20 24.3543 20.0112 23.7979 20.0281 23.3254C20.074 22.0444 21.0444 21.074 22.3254 21.0281C22.7979 21.0112 23.3543 21 24 21C24.6457 21 25.2021 21.0112 25.6746 21.0281C26.9556 21.074 27.926 22.0444 27.9719 23.3254C27.9888 23.7979 28 24.3543 28 25C28 25.6457 27.9888 26.2021 27.9719 26.6746C27.926 27.9556 26.9556 28.926 25.6746 28.9719C25.2021 28.9888 24.6457 29 24 29C23.3543 29 22.7979 28.9888 22.3254 28.9719ZM20.0281 38.6746C20.074 39.9556 21.0444 40.926 22.3254 40.9719C22.7979 40.9888 23.3543 41 24 41C24.6457 41 25.2021 40.9888 25.6746 40.9719C26.9556 40.926 27.926 39.9556 27.9719 38.6746C27.9888 38.2021 28 37.6457 28 37C28 36.3543 27.9888 35.7979 27.9719 35.3254C27.926 34.0444 26.9556 33.074 25.6746 33.0281C25.2021 33.0112 24.6457 33 24 33C23.3543 33 22.7979 33.0112 22.3254 33.0281C21.0444 33.074 20.074 34.0444 20.0281 35.3254C20.0112 35.7979 20 36.3543 20 37C20 37.6457 20.0112 38.2021 20.0281 38.6746ZM34.3254 40.9719C33.0444 40.926 32.074 39.9556 32.0281 38.6746C32.0112 38.2021 32 37.6457 32 37C32 36.3543 32.0112 35.7979 32.0281 35.3254C32.074 34.0444 33.0444 33.074 34.3254 33.0281C34.7979 33.0112 35.3543 33 36 33C36.6457 33 37.2021 33.0112 37.6746 33.0281C38.9556 33.074 39.926 34.0444 39.9719 35.3254C39.9888 35.7979 40 36.3543 40 37C40 37.6457 39.9888 38.2021 39.9719 38.6746C39.926 39.9556 38.9556 40.926 37.6746 40.9719C37.2021 40.9888 36.6457 41 36 41C35.3543 41 34.7979 40.9888 34.3254 40.9719Z" clip-rule="evenodd"></path></svg>