<svg xmlns="http://www.w3.org/2000/svg" fill="none" viewBox="0 0 48 48" height="256" width="256"><path fill="#95c2f2" fill-rule="evenodd" d="M44.7204 8.52524C45.6772 9.86964 45.464 11.6557 44.5584 13.0352C35.4598 26.8951 28.9415 35.2384 25.3971 39.4807C23.7057 41.5052 20.7635 41.6555 18.851 39.8385C15.3977 36.5576 9.77569 30.8993 3.93814 23.6999C2.73725 22.2188 2.49039 20.1385 3.64606 18.6219C4.7868 17.1249 6.11375 15.8515 7.29206 14.8644C9.05681 13.386 11.5963 13.7233 13.174 15.3999C18.3418 20.8919 21.4615 24.7391 21.4615 24.7391C21.4615 24.7391 26.5479 17.2718 34.7006 5.7971C35.8977 4.11227 38.0342 3.32941 39.8485 4.31939C41.4254 5.17985 43.2956 6.52338 44.7204 8.52524Z" clip-rule="evenodd"></path></svg>