<svg xmlns="http://www.w3.org/2000/svg" fill="none" viewBox="0 0 48 48" height="256" width="256"><path fill="#95c2f2" d="M45.4187 7.30406C45.2065 4.74913 43.2509 2.79349 40.6959 2.58134C37.3286 2.30173 31.8713 2 24 2C16.1288 1.99999 10.6714 2.30173 7.30407 2.58133C4.74914 2.79348 2.79349 4.74912 2.58135 7.30405C2.30174 10.6714 2 16.1287 2 24C2 31.8712 2.30174 37.3286 2.58134 40.6959C2.79349 43.2509 4.74913 45.2065 7.30406 45.4187C10.6714 45.6983 16.1287 46 24 46C31.8712 46 37.3286 45.6983 40.6959 45.4187C43.2509 45.2065 45.2065 43.2509 45.4187 40.6959C45.6983 37.3286 46 31.8712 46 24C46 16.1288 45.6983 10.6714 45.4187 7.30406Z"></path><path fill="#507ab7" fill-rule="evenodd" d="M35.2311 15.9403C35.8123 16.7329 35.6824 17.8002 35.1457 18.6237C30.813 25.2717 27.5594 29.598 25.5287 32.1244C24.1986 33.7794 21.83 33.9027 20.318 32.4122C18.4534 30.5742 15.8474 27.8431 13.1494 24.4994C12.4359 23.6152 12.2884 22.3741 12.9859 21.4772C13.5319 20.7752 14.1475 20.1663 14.7145 19.6729C15.7632 18.7605 17.2997 18.9646 18.2463 19.9825C20.9745 22.9162 22.6154 24.9565 22.6154 24.9565C22.6154 24.9565 25.3443 20.9168 29.7273 14.6937C30.4451 13.6745 31.738 13.1987 32.817 13.8229C33.6119 14.2828 34.5158 14.9648 35.2311 15.9403Z" clip-rule="evenodd"></path></svg>