<svg xmlns="http://www.w3.org/2000/svg" fill="none" viewBox="0 0 48 48" height="256" width="256"><circle cx="24" cy="24" r="22" fill="#95c2f2"></circle><path fill="#507ab7" fill-rule="evenodd" d="M13.3564 31.509C12.7756 30.7002 12.9641 29.6726 13.6375 28.9392C14.5004 27.9995 15.9766 26.4325 18.3673 24.0005C15.9763 21.5681 14.4999 20.001 13.6369 19.0612C12.9635 18.3278 12.775 17.3001 13.3558 16.4914C13.6889 16.0276 14.1568 15.4598 14.8088 14.8078C15.4608 14.1558 16.0285 13.6879 16.4924 13.3548C17.3011 12.7741 18.3288 12.9625 19.0621 13.6359C20.0019 14.4989 21.569 15.9753 24.0014 18.3663C26.4339 15.9753 28.001 14.4989 28.9408 13.6359C29.6742 12.9625 30.7018 12.774 31.5105 13.3548C31.9744 13.6879 32.5421 14.1558 33.1941 14.8078C33.8462 15.4598 34.314 16.0276 34.6471 16.4914C35.2279 17.3001 35.0395 18.3278 34.366 19.0612C33.503 20.001 32.0266 21.5681 29.6356 24.0005C32.0263 26.4326 33.5025 27.9995 34.3654 28.9392C35.0388 29.6726 35.2273 30.7002 34.6465 31.509C34.3134 31.9728 33.8455 32.5406 33.1935 33.1926C32.5415 33.8446 31.9738 34.3124 31.5099 34.6455C30.7012 35.2263 29.6736 35.0379 28.9402 34.3644C28.0004 33.5015 26.4335 32.0253 24.0015 29.6347C21.5694 32.0253 20.0025 33.5015 19.0627 34.3644C18.3294 35.0379 17.3017 35.2263 16.493 34.6455C16.0291 34.3124 15.4614 33.8446 14.8094 33.1926C14.1574 32.5406 13.6895 31.9728 13.3564 31.509Z" clip-rule="evenodd"></path></svg>