<svg xmlns="http://www.w3.org/2000/svg" fill="none" viewBox="0 0 48 48" height="256" width="256"><path fill="#95c2f2" fill-rule="evenodd" d="M13.265 42.611C12.2361 43.5183 10.8753 43.9013 9.71107 43.1757C8.99777 42.7312 8.09762 42.0412 7.02672 40.9703C5.95582 39.8994 5.26583 38.9992 4.82128 38.2859C4.09572 37.1218 4.47869 35.7609 5.38598 34.732C6.9124 33.001 9.94042 29.6988 15.546 23.9991C9.94118 18.3002 6.91348 14.9983 5.38717 13.2675C4.47988 12.2386 4.09691 10.8777 4.82246 9.71351C5.26701 9.00021 5.95701 8.10006 7.02791 7.02916C8.09881 5.95826 8.99896 5.26827 9.71226 4.82372C10.8764 4.09816 12.2373 4.48113 13.2662 5.38842C14.9971 6.91473 18.2989 9.94243 23.9979 15.5472C29.6968 9.94243 32.9987 6.91473 34.7295 5.38842C35.7584 4.48113 37.1193 4.09816 38.2835 4.82372C38.9968 5.26827 39.8969 5.95826 40.9678 7.02916C42.0387 8.10006 42.7287 9.00021 43.1733 9.71351C43.8988 10.8777 43.5159 12.2386 42.6086 13.2675C41.0823 14.9983 38.0546 18.3002 32.4498 23.9991C38.0553 29.6988 41.0834 33.001 42.6098 34.732C43.5171 35.7609 43.9 37.1218 43.1745 38.2859C42.7299 38.9992 42.0399 39.8994 40.969 40.9703C39.8981 42.0412 38.998 42.7312 38.2847 43.1757C37.1205 43.9013 35.7596 43.5183 34.7307 42.611C32.9998 41.0846 29.6976 38.0566 23.9979 32.4511C18.2982 38.0566 14.996 41.0846 13.265 42.611Z" clip-rule="evenodd"></path></svg>