<?xml version="1.0" encoding="UTF-8" standalone="no"?>
<svg
   fill="none"
   viewBox="0 0 48 48"
   height="256"
   width="256"
   version="1.1"
   id="svg6"
   sodipodi:docname="hand.svg"
   inkscape:version="1.3.2 (091e20e, 2023-11-25, custom)"
   xmlns:inkscape="http://www.inkscape.org/namespaces/inkscape"
   xmlns:sodipodi="http://sodipodi.sourceforge.net/DTD/sodipodi-0.dtd"
   xmlns="http://www.w3.org/2000/svg"
   xmlns:svg="http://www.w3.org/2000/svg">
  <defs
     id="defs10" />
  <sodipodi:namedview
     id="namedview8"
     pagecolor="#ffffff"
     bordercolor="#666666"
     borderopacity="1.0"
     inkscape:showpageshadow="2"
     inkscape:pageopacity="0.0"
     inkscape:pagecheckerboard="0"
     inkscape:deskcolor="#d1d1d1"
     showgrid="false"
     inkscape:zoom="2.2898106"
     inkscape:cx="135.81909"
     inkscape:cy="116.60353"
     inkscape:current-layer="svg6"
     inkscape:window-width="3840"
     inkscape:window-height="1476"
     inkscape:window-x="-12"
     inkscape:window-y="-12"
     inkscape:window-maximized="1" />
  <path
     style="fill:#95c2f2;stroke-width:0.999996;fill-opacity:1"
     d="M 22.04496,45.473898 C 16.463767,45.121425 10.891812,44.479401 5.3862717,43.522619 3.3403028,43.048206 3.3633356,40.74734 3.2258717,39.090083 3.0475136,35.558692 3.0544707,31.989865 3.5505842,28.484742 c 0.5569765,-1.83142 2.7475591,-2.035388 4.3065327,-2.507671 2.7314291,-0.7204 5.5456131,-1.220498 8.3802321,-0.963602 3.555527,0.23357 7.091762,0.87345 10.509296,1.869652 2.137084,0.618067 3.331862,2.975635 3.196512,5.078581 -0.328897,1.737008 -2.345766,1.985705 -3.796187,1.733448 -2.237033,-0.04452 -4.476362,-0.532427 -6.707861,-0.346149 -2.155355,1.050826 0.164542,3.159614 1.806735,2.790824 6.043427,0.670284 12.05035,-0.590092 17.996685,-1.504348 1.669346,-0.240073 3.587264,-0.893827 5.057781,0.295744 1.207494,0.791806 2.107732,2.446514 1.660833,3.882765 -0.855758,1.961844 -3.241383,2.218089 -5.011359,2.927903 -4.709167,1.536969 -9.462985,3.109359 -14.403828,3.682855 -1.495697,0.144939 -3.002058,0.133719 -4.500996,0.04915 z"
     id="path2" />
  <path
     style="fill:#507ab7;fill-opacity:1"
     d="m 32.288728,25.457703 c -0.712113,-0.13776 -1.35719,-0.458767 -1.750105,-0.870897 -0.567978,-0.595754 -0.688253,-1.166943 -0.759715,-3.607911 l -0.06437,-2.198788 -2.361375,-0.12214 c -2.659389,-0.137554 -2.89888,-0.19824 -3.615868,-0.91625 -0.558536,-0.559334 -0.680022,-0.931551 -0.839664,-2.572635 -0.126732,-1.302785 -0.01673,-3.326971 0.228414,-4.203224 0.157939,-0.564536 0.849533,-1.2834685 1.506562,-1.5661146 0.478522,-0.2058547 0.817977,-0.2429138 2.813061,-0.3071087 l 2.26887,-0.073004 0.06474,-2.1495855 c 0.06794,-2.2560122 0.145322,-2.6910993 0.612658,-3.444783 0.443288,-0.7149009 1.156243,-1.0740634 2.402045,-1.2100671 1.408585,-0.1537748 2.867694,-0.1397788 3.8387,0.036822 1.018874,0.185306 1.259926,0.2843082 1.684335,0.6917714 0.839169,0.8056631 0.997115,1.4355398 0.997115,3.9764119 0,1.4017119 0.0358,1.9406145 0.134072,2.0184114 0.07374,0.058374 1.129931,0.1329998 2.347091,0.1658358 2.129831,0.057458 2.234371,0.070523 2.781088,0.3475648 0.627096,0.3177735 0.684441,0.3660846 1.078195,0.9083426 0.492977,0.678902 0.542536,1.041948 0.505139,3.7004 -0.03929,2.792758 -0.08562,2.988265 -0.884556,3.73207 -0.75127,0.699432 -0.84488,0.721577 -3.494095,0.826566 -1.327318,0.0526 -2.419981,0.09822 -2.42814,0.101364 -0.0082,0.0031 -0.03642,1.031377 -0.06279,2.284955 -0.04256,2.022677 -0.07335,2.335853 -0.273547,2.782253 -0.428924,0.956432 -1.072248,1.43614 -2.258013,1.683737 -0.68164,0.142331 -3.710775,0.132846 -4.469838,-0.014 z"
     id="path1" />
</svg>
