<svg xmlns="http://www.w3.org/2000/svg" fill="none" viewBox="0 0 48 48" height="256" width="256"><path fill="#507ab7" fill-rule="evenodd" d="M46.9635 35.4848C47.6268 34.1008 46.859 32.619 45.708 31.6036C42.875 29.1046 36.7976 23.7062 28.2597 15.9214C27.3667 15.1071 26.1092 14.7029 25.0841 15.343C24.765 15.5423 24.4323 15.7947 24.1134 16.1136C23.7946 16.4324 23.5421 16.7652 23.3429 17.0842C22.703 18.1091 23.1072 19.3663 23.9213 20.2592C31.7063 28.7972 37.1047 34.8748 39.6038 37.7078C40.6191 38.8588 42.101 39.6266 43.485 38.9633C44.1057 38.6658 44.8011 38.2079 45.5046 37.5044C46.2081 36.8009 46.666 36.1055 46.9635 35.4848Z" clip-rule="evenodd"></path><path fill="#95c2f2" d="M6.45622 37.2311C6.98075 36.565 7.78732 36.2317 8.6335 36.1797C9.90872 36.1014 11.9544 36 14 36C16.0456 36 18.0913 36.1014 19.3665 36.1797C20.2127 36.2317 21.0193 36.565 21.5438 37.2311C22.3477 38.2518 23.4882 40.0851 24 42.7308C24 42.7308 20.6667 43 14 43C7.33333 43 4 42.7308 4 42.7308C4.51182 40.0851 5.65235 38.2518 6.45622 37.2311Z"></path><path fill="#507ab7" d="M3.94648 41.0841C3.07176 41.1025 2.2509 41.5401 2.09363 42.4007C2.03765 42.7071 2 43.0722 2 43.5C2 43.9278 2.03765 44.2929 2.09363 44.5993C2.2509 45.4599 3.07176 45.8975 3.94648 45.9159C5.61783 45.951 8.86846 46 14 46C19.1315 46 22.3822 45.951 24.0535 45.9159C24.9282 45.8975 25.7491 45.4599 25.9064 44.5993C25.9623 44.2929 26 43.9278 26 43.5C26 43.0722 25.9623 42.7071 25.9064 42.4007C25.7491 41.5401 24.9282 41.1025 24.0535 41.0841C22.3822 41.049 19.1315 41 14 41C8.86846 41 5.61783 41.049 3.94648 41.0841Z"></path><path fill="#95c2f2" fill-rule="evenodd" d="M25.2901 2.82462C26.6926 1.68349 28.5248 1.64858 29.9147 2.80516C30.7967 3.53919 31.953 4.58125 33.4212 6.04944C34.8894 7.51763 35.9315 8.67392 36.6655 9.556C37.8221 10.9459 37.7872 12.778 36.646 14.1806C35.3917 15.7223 33.258 18.1337 29.6959 21.6959C26.1337 25.258 23.7223 27.3917 22.1806 28.646C20.778 29.7872 18.9459 29.8221 17.556 28.6655C16.6739 27.9315 15.5176 26.8894 14.0494 25.4212C12.5812 23.953 11.5392 22.7967 10.8052 21.9147C9.64858 20.5248 9.68349 18.6926 10.8246 17.2901C12.0789 15.7484 14.2126 13.3369 17.7748 9.77478C21.3369 6.21263 23.7484 4.07892 25.2901 2.82462Z" clip-rule="evenodd"></path></svg>