<?xml version="1.0" encoding="UTF-8" standalone="no"?>
<svg
   fill="none"
   viewBox="0 0 48 48"
   height="256"
   width="256"
   version="1.1"
   id="svg6"
   sodipodi:docname="multi_array.svg"
   inkscape:version="1.3.2 (091e20e, 2023-11-25, custom)"
   xml:space="preserve"
   xmlns:inkscape="http://www.inkscape.org/namespaces/inkscape"
   xmlns:sodipodi="http://sodipodi.sourceforge.net/DTD/sodipodi-0.dtd"
   xmlns="http://www.w3.org/2000/svg"
   xmlns:svg="http://www.w3.org/2000/svg"><defs
     id="defs10" /><sodipodi:namedview
     id="namedview8"
     pagecolor="#ffffff"
     bordercolor="#666666"
     borderopacity="1.0"
     inkscape:showpageshadow="2"
     inkscape:pageopacity="0.0"
     inkscape:pagecheckerboard="0"
     inkscape:deskcolor="#d1d1d1"
     showgrid="false"
     inkscape:zoom="3.2382812"
     inkscape:cx="227.58987"
     inkscape:cy="105.61158"
     inkscape:current-layer="svg6"
     inkscape:window-width="3840"
     inkscape:window-height="1476"
     inkscape:window-x="-12"
     inkscape:window-y="-12"
     inkscape:window-maximized="1" /><path
     id="path3"
     style="fill:#507ab7;fill-opacity:1;stroke-width:1.31249;stroke-linecap:round;stroke-linejoin:round;stroke-opacity:0.814302"
     d="m 5.6557617,2.0196533 c -2.5258378,0 -3.7290908,0.090461 -4.2817383,0.1604004 -0.2793263,0.035298 -0.50763418,0.4473364 -0.53759762,1.137085 -0.012666,0.2913904 -0.0212402,0.6547947 -0.0212402,1.1037597 v 0.00623 c -0.004594,0.071826 -0.0122258,0.1414382 -0.0142822,0.2149658 -0.0699362,2.4961606 -0.16040039,7.9310642 -0.16040039,19.3395992 0,11.408551 0.0904643,16.844197 0.16040039,19.340332 0.002092,0.07479 0.009932,0.145607 0.0146484,0.218628 4.1977e-4,0.433479 0.008529,0.788945 0.020874,1.072998 0.0299635,0.689758 0.25827102,1.101439 0.53759762,1.136719 0.552648,0.06993 1.7558976,0.160767 4.2817383,0.160767 2.5258438,0 2.3121392,-0.09083 2.8647817,-0.160767 0.2793378,-0.0353 0.5072718,-0.446961 0.5372318,-1.136719 0.01267,-0.29139 0.02124,-0.654787 0.02124,-1.103759 0,-0.448966 -0.00858,-0.812369 -0.02124,-1.10376 -0.029961,-0.689749 -0.257894,-1.101795 -0.5372318,-1.137085 -0.5526424,-0.06993 -0.3389375,-0.1604 -2.8647817,-0.1604 -0.1156764,0 -0.2146359,0.0011 -0.3248291,0.0015 0.057101,-3.076694 0.1116944,-8.273132 0.1116944,-17.128418 0,-8.893367 -0.055101,-14.0900341 -0.1124268,-17.1610103 0.1104294,3.708e-4 0.2096244,0.00146 0.3255615,0.00146 2.5258413,0 2.3121398,-0.090827 2.8647817,-0.1607666 0.2793378,-0.035298 0.5072718,-0.4469622 0.5372318,-1.1367188 0.01267,-0.2913904 0.02124,-0.6547876 0.02124,-1.1037598 0,-0.448965 -0.00858,-0.8123693 -0.02124,-1.1037597 C 9.0278142,2.6273901 8.7998812,2.2153437 8.5205434,2.1800537 7.9679016,2.1101199 8.1816034,2.0196533 5.6557617,2.0196533 Z"
     sodipodi:nodetypes="sccsccsscccsccsscscscsccsccs" /><path
     id="path2"
     style="fill:#507ab7;fill-opacity:1;stroke-width:1.31249;stroke-linecap:round;stroke-linejoin:round;stroke-opacity:0.814302"
     d="m 17.173994,2.0196533 c 2.525838,0 3.729091,0.090461 4.281738,0.1604004 0.279327,0.035298 0.507635,0.4473364 0.537598,1.137085 0.01267,0.2913904 0.02124,0.6547947 0.02124,1.1037597 v 0.00623 c 0.0046,0.071821 0.01223,0.1414338 0.01428,0.2149614 0.06994,2.4961606 0.1604,7.9310642 0.1604,19.3395992 0,11.408551 -0.09046,16.844197 -0.1604,19.340332 -0.0021,0.07479 -0.0099,0.145607 -0.01465,0.218628 -4.2e-4,0.433479 -0.0085,0.788945 -0.02087,1.072998 -0.02996,0.689758 -0.258271,1.101439 -0.537598,1.136719 -0.552648,0.06993 -1.755898,0.160767 -4.281738,0.160767 -2.525845,0 -2.31214,-0.09083 -2.864782,-0.160767 -0.279338,-0.0353 -0.507272,-0.446961 -0.537232,-1.136719 -0.01267,-0.29139 -0.02124,-0.654787 -0.02124,-1.103759 0,-0.448966 0.0086,-0.812369 0.02124,-1.10376 0.02996,-0.689749 0.257894,-1.101795 0.537232,-1.137085 0.552642,-0.06993 0.338937,-0.1604 2.864782,-0.1604 0.115676,0 0.214636,0.0011 0.324829,0.0015 -0.0571,-3.076694 -0.111695,-8.273132 -0.111695,-17.128418 0,-8.893367 0.0551,-14.0900341 0.112427,-17.1610103 -0.110429,3.708e-4 -0.209624,0.00146 -0.325561,0.00146 -2.525842,0 -2.31214,-0.090827 -2.864782,-0.1607666 C 14.029874,6.6261101 13.80194,6.2144459 13.77198,5.5246893 13.75931,5.2332989 13.75074,4.8699017 13.75074,4.4209295 c 0,-0.448965 0.0086,-0.8123693 0.02124,-1.1037597 0.02996,-0.6897797 0.257895,-1.1018261 0.537233,-1.1371161 0.552642,-0.069934 0.33894,-0.1604004 2.864781,-0.1604004 z"
     sodipodi:nodetypes="sccsccsscccsccsccscscsccsccs" /><path
     id="path4"
     style="fill:#507ab7;fill-opacity:1;stroke-width:1.31249;stroke-linecap:round;stroke-linejoin:round;stroke-opacity:0.814302"
     d="m 30.813242,2.0196533 c -2.525838,0 -3.729091,0.090461 -4.281738,0.1604004 -0.279327,0.035298 -0.507635,0.4473364 -0.537598,1.137085 -0.01267,0.2913904 -0.02124,0.6547947 -0.02124,1.1037597 v 0.00623 c -0.0046,0.071821 -0.01223,0.1414338 -0.01428,0.2149614 -0.06994,2.4961606 -0.1604,7.9310642 -0.1604,19.3395992 0,11.408551 0.09046,16.844197 0.1604,19.340332 0.0021,0.07479 0.0099,0.145607 0.01465,0.218628 4.2e-4,0.433479 0.0085,0.788945 0.02087,1.072998 0.02996,0.689758 0.258271,1.101439 0.537598,1.136719 0.552648,0.06993 1.755898,0.160767 4.281738,0.160767 2.525845,0 2.31214,-0.09083 2.864782,-0.160767 0.279338,-0.0353 0.507272,-0.446961 0.537232,-1.136719 0.01267,-0.29139 0.02124,-0.654787 0.02124,-1.103759 0,-0.448966 -0.0086,-0.812369 -0.02124,-1.10376 -0.02996,-0.689749 -0.257894,-1.101795 -0.537232,-1.137085 -0.552642,-0.06993 -0.338937,-0.1604 -2.864782,-0.1604 -0.115676,0 -0.214636,0.0011 -0.324829,0.0015 0.0571,-3.076694 0.111695,-8.273132 0.111695,-17.128418 0,-8.893367 -0.0551,-14.0900341 -0.112427,-17.1610103 0.110429,3.708e-4 0.209624,0.00146 0.325561,0.00146 2.525842,0 2.31214,-0.090827 2.864782,-0.1607666 0.279338,-0.035298 0.507272,-0.4469622 0.537232,-1.1367188 0.01267,-0.2913904 0.02124,-0.6547876 0.02124,-1.1037598 0,-0.448965 -0.0086,-0.8123693 -0.02124,-1.1037597 C 34.185294,2.6273901 33.957361,2.2153437 33.678023,2.1800537 33.125381,2.1101199 33.339083,2.0196533 30.813242,2.0196533 Z"
     sodipodi:nodetypes="sccsccsscccsccsccscscsccsccs" /><path
     id="path5"
     style="fill:#507ab7;fill-opacity:1;stroke-width:1.31249;stroke-linecap:round;stroke-linejoin:round;stroke-opacity:0.814302"
     d="m 42.331474,2.0196533 c 2.525838,0 3.729091,0.090461 4.281738,0.1604004 0.279327,0.035298 0.507635,0.4473364 0.537598,1.137085 0.01267,0.2913904 0.02124,0.6547947 0.02124,1.1037597 v 0.00623 c 0.0046,0.071821 0.01223,0.1414338 0.01428,0.2149614 0.06994,2.4961606 0.1604,7.9310642 0.1604,19.3395992 0,11.408551 -0.09046,16.844197 -0.1604,19.340332 -0.0021,0.07479 -0.0099,0.145607 -0.01465,0.218628 -4.2e-4,0.433479 -0.0085,0.788945 -0.02087,1.072998 -0.02996,0.689758 -0.258271,1.101439 -0.537598,1.136719 -0.552648,0.06993 -1.755898,0.160767 -4.281738,0.160767 -2.525845,0 -2.31214,-0.09083 -2.864782,-0.160767 -0.279338,-0.0353 -0.507272,-0.446961 -0.537232,-1.136719 -0.01267,-0.29139 -0.02124,-0.654787 -0.02124,-1.103759 0,-0.448966 0.0086,-0.812369 0.02124,-1.10376 0.02996,-0.689749 0.257894,-1.101795 0.537232,-1.137085 0.552642,-0.06993 0.338937,-0.1604 2.864782,-0.1604 0.115676,0 0.214636,0.0011 0.324829,0.0015 -0.0571,-3.076694 -0.111695,-8.273132 -0.111695,-17.128418 0,-8.893367 0.0551,-14.0900341 0.112427,-17.1610103 -0.110429,3.708e-4 -0.209624,0.00146 -0.325561,0.00146 -2.525842,0 -2.31214,-0.090827 -2.864782,-0.1607666 C 39.187354,6.6261101 38.95942,6.2144459 38.92946,5.5246893 38.91679,5.2332989 38.90822,4.8699017 38.90822,4.4209295 c 0,-0.448965 0.0086,-0.8123693 0.02124,-1.1037597 0.02996,-0.6897797 0.257895,-1.1018261 0.537233,-1.1371161 0.552642,-0.069934 0.33894,-0.1604004 2.864781,-0.1604004 z"
     sodipodi:nodetypes="sccsccsscccsccsccscscsccsccs" /></svg>
