<?xml version="1.0" encoding="UTF-8" standalone="no"?>
<svg
   fill="none"
   viewBox="0 0 48 48"
   height="256"
   width="256"
   version="1.1"
   id="svg6"
   sodipodi:docname="size.svg"
   inkscape:version="1.3.2 (091e20e, 2023-11-25, custom)"
   xml:space="preserve"
   xmlns:inkscape="http://www.inkscape.org/namespaces/inkscape"
   xmlns:sodipodi="http://sodipodi.sourceforge.net/DTD/sodipodi-0.dtd"
   xmlns="http://www.w3.org/2000/svg"
   xmlns:svg="http://www.w3.org/2000/svg"><defs
     id="defs10" /><sodipodi:namedview
     id="namedview8"
     pagecolor="#ffffff"
     bordercolor="#666666"
     borderopacity="1.0"
     inkscape:showpageshadow="2"
     inkscape:pageopacity="0.0"
     inkscape:pagecheckerboard="0"
     inkscape:deskcolor="#d1d1d1"
     showgrid="false"
     inkscape:zoom="3.2382812"
     inkscape:cx="193.62123"
     inkscape:cy="119.50784"
     inkscape:current-layer="svg6"
     inkscape:window-width="3840"
     inkscape:window-height="1476"
     inkscape:window-x="-12"
     inkscape:window-y="-12"
     inkscape:window-maximized="1" /><g
     id="g3"
     transform="matrix(0.6670125,0,0,0.6670125,-41.422213,14.148997)"
     style="stroke-width:1.49922"><path
       style="fill:#95c2f2;fill-opacity:1;stroke-width:1.49922"
       d="m 83.894295,29.127228 c -1.822968,-0.66451 -7.838852,-6.678019 -10.067837,-10.06386 -1.054067,-1.601135 -1.309485,-2.598518 -1.192204,-4.655448 0.07628,-1.337823 0.1951,-1.837802 0.635105,-2.672429 0.954916,-1.8113398 3.367595,-4.7353025 6.543202,-7.929807 3.820319,-3.84305315 5.518891,-4.39275025 8.214416,-2.6583751 2.988442,1.9228456 3.129826,4.0054405 0.479736,7.066519 -0.503159,0.5811905 -0.914834,1.0956737 -0.914834,1.1432959 0,0.047622 4.725,0.085894 10.5,0.085049 5.775001,-8.454e-4 10.500001,-0.035013 10.500001,-0.075928 0,-0.040915 -0.542,-0.7185183 -1.20444,-1.5057846 -1.31847,-1.5669193 -1.72268,-2.5606862 -1.55377,-3.8200008 0.28126,-2.0969139 3.75486,-4.31702546 5.86531,-3.74874072 1.21058,0.32597528 2.40091,1.23626482 4.93215,3.77180062 3.404,3.4097795 5.20681,5.6438149 6.27472,7.7756177 0.73962,1.476451 0.91254,3.819434 0.39673,5.375404 -0.70641,2.130939 -4.47774,6.681273 -8.11704,9.793709 -2.75925,2.359791 -4.18283,2.809497 -6.06902,1.917185 -0.57194,-0.270569 -1.41954,-0.826128 -1.88356,-1.234576 -1.38245,-1.216881 -1.74373,-2.42501 -1.18943,-3.977472 0.2142,-0.599914 0.55805,-1.076536 2.17335,-3.012579 0.15469,-0.185403 0.28125,-0.397095 0.28125,-0.470427 0,-0.07333 -4.70391,-0.142128 -10.453126,-0.152881 -5.749219,-0.01075 -10.453125,0.04879 -10.453125,0.132322 0,0.08353 0.475931,0.682405 1.057624,1.330834 2.546323,2.838457 2.373985,4.830993 -0.588874,6.808423 -0.515625,0.344131 -1.175024,0.71594 -1.465331,0.826241 -0.675087,0.256498 -1.926543,0.234216 -2.701003,-0.04809 z"
       id="path2"
       sodipodi:nodetypes="sssssssssssssssssssssssssssss" /><path
       id="rect2169"
       style="fill:#507ab7;fill-opacity:1;stroke-width:1.96772;stroke-linecap:round;stroke-linejoin:round;stroke-opacity:0.814302"
       d="m 125.77766,14.741562 c 0,-17.1039663 0.13575,-25.252327 0.2406,-28.994634 0.0529,-1.891486 0.67025,-3.436283 1.70435,-3.639183 0.43686,-0.08576 0.9818,-0.144043 1.65491,-0.144043 0.6731,0 1.21768,0.05827 1.65454,0.144043 1.03409,0.2029 1.65215,1.747697 1.70507,3.639183 0.10485,3.742307 0.24024,11.8906677 0.24024,28.994634 0,17.103986 -0.13539,25.253057 -0.24024,28.995328 -0.0529,1.891559 -0.67098,3.436283 -1.70507,3.639164 -0.43686,0.08576 -0.98144,0.144044 -1.65454,0.144044 -0.67311,0 -1.21805,-0.05827 -1.65491,-0.144044 -1.0341,-0.202881 -1.65143,-1.747605 -1.70435,-3.639164 -0.10485,-3.742271 -0.2406,-11.891342 -0.2406,-28.995328 z"
       sodipodi:nodetypes="scssscsccsccs" /><path
       id="path3"
       style="fill:#507ab7;fill-opacity:1;stroke-width:1.96772;stroke-linecap:round;stroke-linejoin:round;stroke-opacity:0.814302"
       d="m 63.061106,14.741562 c 0,-17.1039663 0.13575,-25.252327 0.2406,-28.994634 0.0529,-1.891486 0.67025,-3.436283 1.70435,-3.639183 0.43686,-0.08576 0.981797,-0.144043 1.654907,-0.144043 0.6731,0 1.21768,0.05827 1.65454,0.144043 1.034087,0.2029 1.652147,1.747697 1.705067,3.639183 0.10485,3.742307 0.24024,11.8906677 0.24024,28.994634 0,17.103986 -0.13539,25.253057 -0.24024,28.995328 -0.0529,1.891559 -0.67098,3.436283 -1.705067,3.639164 -0.43686,0.08576 -0.98144,0.144044 -1.65454,0.144044 -0.67311,0 -1.218047,-0.05827 -1.654907,-0.144044 -1.0341,-0.202881 -1.65143,-1.747605 -1.70435,-3.639164 -0.10485,-3.742271 -0.2406,-11.891342 -0.2406,-28.995328 z"
       sodipodi:nodetypes="scssscsccsccs" /></g></svg>
