<svg xmlns="http://www.w3.org/2000/svg" fill="none" viewBox="0 0 48 48" height="256" width="256"><circle r="22" fill="#95c2f2" transform="matrix(-1 0 0 1 24 24)"></circle><path fill="#507ab7" fill-rule="evenodd" d="M20.4569 27.834C20.5211 27.2833 20.1283 26.7836 19.5783 26.7138C17.1018 26.3997 15.0511 26.0579 13.5158 25.7698C12.0501 25.4947 11.5046 23.7844 12.52 22.6921C15.1915 19.8181 20.002 14.846 25.1896 10.4599C26.4908 9.35973 28.4084 10.3673 28.2873 12.067C28.0581 15.2823 27.7943 17.9775 27.5395 20.1657C27.4753 20.7164 27.8681 21.2161 28.4181 21.2859C30.8946 21.6 32.9452 21.9418 34.4806 22.2299C35.9463 22.505 36.4918 24.2153 35.4764 25.3077C32.8049 28.1816 27.9943 33.1537 22.8068 37.5398C21.5056 38.64 19.588 37.6324 19.7091 35.9328C19.9383 32.7174 20.2021 30.0222 20.4569 27.834Z" clip-rule="evenodd"></path></svg>