<?xml version="1.0" encoding="UTF-8" standalone="no"?>
<svg
   fill="none"
   viewBox="0 0 48 48"
   height="256"
   width="256"
   version="1.1"
   id="svg6"
   sodipodi:docname="switch.svg"
   inkscape:version="1.3.2 (091e20e, 2023-11-25, custom)"
   xmlns:inkscape="http://www.inkscape.org/namespaces/inkscape"
   xmlns:sodipodi="http://sodipodi.sourceforge.net/DTD/sodipodi-0.dtd"
   xmlns="http://www.w3.org/2000/svg"
   xmlns:svg="http://www.w3.org/2000/svg">
  <defs
     id="defs10" />
  <sodipodi:namedview
     id="namedview8"
     pagecolor="#ffffff"
     bordercolor="#666666"
     borderopacity="1.0"
     inkscape:showpageshadow="2"
     inkscape:pageopacity="0.0"
     inkscape:pagecheckerboard="0"
     inkscape:deskcolor="#d1d1d1"
     showgrid="false"
     inkscape:zoom="1.6191406"
     inkscape:cx="-0.61761159"
     inkscape:cy="48.791316"
     inkscape:current-layer="svg6"
     inkscape:window-width="3840"
     inkscape:window-height="1476"
     inkscape:window-x="-12"
     inkscape:window-y="-12"
     inkscape:window-maximized="1" />
  <g
     id="g6"
     transform="matrix(0.90379686,0,0,0.94275536,-169.96003,0.93972115)"
     style="stroke-width:1.08334">
    <path
       style="fill:#95c2f2;fill-opacity:1;stroke-width:1.08334"
       d="m 192.50209,42.439275 c -2.37917,-0.753977 -2.1725,-3.818277 -1.82018,-5.798209 0.13699,-1.294544 1.36185,-2.386507 2.66779,-2.145486 2.37081,-0.105048 4.78776,0.122364 7.12161,-0.291316 1.80161,-1.389208 2.53815,-3.768104 3.84382,-5.601131 3.13839,-5.180631 6.34564,-10.498375 9.50413,-15.747309 1.82952,-3.0615036 5.39876,-4.7199468 8.90978,-4.5728258 1.43086,-0.2607456 4.65764,0.4317571 4.92114,-0.4536045 -1.8756,-1.3174188 -2.93697,-4.3177478 -0.33214,-5.4837466 1.98567,-1.62568459 4.20854,0.2806034 5.62382,1.7119761 2.2306,2.1222247 4.65416,4.2959719 5.867,7.1847518 0.8693,2.868502 -1.67964,5.094658 -3.41995,7.001669 -1.62639,1.619919 -3.25825,3.328991 -5.25975,4.467948 -1.92483,0.740974 -4.78257,-1.067557 -4.38859,-3.243542 -0.042,-1.381327 3.77118,-3.389375 0.84369,-3.144346 -1.92472,0.05595 -3.93461,-0.248349 -5.79956,0.298087 -1.61308,1.265809 -2.3131,3.348467 -3.49761,4.987014 -3.22799,5.329137 -6.55233,10.557202 -9.82565,15.900676 -1.88806,2.880945 -5.12177,5.209453 -8.7039,4.940074 -2.08471,0.01597 -4.17187,0.06776 -6.25545,-0.01068 z"
       id="path6" />
    <path
       style="fill:#507ab7;fill-opacity:1;stroke-width:1.08334"
       d="m 228.42447,48.094653 c -2.55917,-0.490634 -3.7012,-3.674243 -1.4038,-5.282553 2.46034,-2.094775 -1.91627,-1.31643 -3.72625,-1.290573 -2.46002,0.08469 -4.99588,-0.278791 -6.97337,-1.861323 -1.37475,-1.311456 -4.20125,-3.48844 -2.82724,-5.482797 1.21649,-1.943711 2.31303,-4.000749 3.65458,-5.840044 1.41204,1.538103 1.9452,3.893906 3.78773,5.011008 1.05946,0.602808 2.14265,0.5473 3.52935,0.548703 1.38525,-0.08537 5.05144,0.267598 2.43074,-1.650361 -2.25289,-1.58721 -0.84699,-4.663984 1.55065,-5.095375 2.37858,-0.494696 3.88202,1.95198 5.55351,3.205357 1.78946,1.787915 3.90555,3.51404 4.78736,5.954379 0.82371,2.836 -1.69117,5.088206 -3.36212,7.013589 -1.67878,1.666116 -3.29941,3.53175 -5.40115,4.659854 -0.49241,0.115154 -1.12204,0.378862 -1.59999,0.110136 z M 204.18089,20.917998 c -1.17585,-1.653045 -1.93656,-3.707602 -3.43811,-5.075088 -2.06616,-0.898776 -4.46873,-0.309203 -6.67565,-0.537342 -2.85788,0.695743 -3.96504,-2.392842 -3.48476,-4.679782 -0.23131,-2.7383646 2.58768,-3.6012017 4.82169,-3.2359752 3.04813,0.033006 6.42905,-0.2421696 8.94374,1.8349405 2.02535,1.3063617 3.23476,3.4311147 4.44853,5.4375967 -1.4051,2.243606 -2.72161,4.543067 -4.11331,6.792793 -0.25676,-0.07495 -0.34934,-0.352597 -0.50213,-0.537143 z"
       id="path5"
       sodipodi:nodetypes="cccccccccccccccccccccccc" />
  </g>
</svg>
