<?xml version="1.0" encoding="UTF-8" standalone="no"?>
<svg
   fill="none"
   viewBox="0 0 48 48"
   height="256"
   width="256"
   version="1.1"
   id="svg6"
   sodipodi:docname="adafruit.svg"
   inkscape:version="1.2.1 (9c6d41e410, 2022-07-14)"
   xmlns:inkscape="http://www.inkscape.org/namespaces/inkscape"
   xmlns:sodipodi="http://sodipodi.sourceforge.net/DTD/sodipodi-0.dtd"
   xmlns="http://www.w3.org/2000/svg"
   xmlns:svg="http://www.w3.org/2000/svg">
  <defs
     id="defs10" />
  <sodipodi:namedview
     id="namedview8"
     pagecolor="#ffffff"
     bordercolor="#666666"
     borderopacity="1.0"
     inkscape:showpageshadow="2"
     inkscape:pageopacity="0.0"
     inkscape:pagecheckerboard="true"
     inkscape:deskcolor="#d1d1d1"
     showgrid="true"
     inkscape:zoom="1.1449053"
     inkscape:cx="103.93873"
     inkscape:cy="111.36292"
     inkscape:current-layer="svg6"
     showguides="false">
    <inkscape:grid
       type="xygrid"
       id="grid239"
       units="px"
       spacingx="1.5"
       spacingy="1.5" />
  </sodipodi:namedview>
  <path
     id="rect2648"
     style="fill:#507ab7;fill-opacity:1;stroke-width:0.9375;stroke-linecap:round;stroke-linejoin:round"
     d="m 26.272339,2.0006104 c 1.030632,-0.035074 1.703181,1.2092905 2.975098,5.1379394 1.679568,5.1877592 1.977709,8.1280742 1.01477,10.0059812 l -0.612671,1.19458 0.98877,-0.548217 c 0.710489,-0.39394 1.701208,-0.541656 3.522216,-0.525513 2.137848,0.01987 3.239026,0.260387 7.045533,1.544678 3.939646,1.329191 4.53614,1.621905 4.70581,2.309326 0.1068,0.432955 0.117832,0.989719 0.0249,1.237427 -0.0934,0.247609 -1.463942,1.371067 -3.045411,2.496459 -6.034224,4.294007 -7.526376,4.987281 -10.100463,4.692261 l -1.376587,-0.157837 0.961303,1.010376 c 1.746929,1.835388 2.043433,3.043387 2.194702,8.944336 0.13138,5.120669 0.107872,5.388161 -0.531738,6.038452 -0.918139,0.933564 -1.270459,0.871448 -3.404297,-0.601318 l -7.32e-4,-3.66e-4 c -7.065163,-4.876413 -8.603793,-6.4658 -8.906983,-9.20105 l -0.170654,-1.538818 -0.758789,1.518676 C 20.28511,36.582395 19.556993,37.38652 18.559204,38.029907 16.773986,39.181079 7.9274391,42.192887 7.03125,41.95459 5.5725415,41.56671 5.6290778,40.613937 7.420166,35.397949 9.252494,30.061798 10.287735,28.319604 12.321533,27.148315 13.446602,26.500359 13.4933,26.426032 12.78186,26.418457 11.632112,26.406037 8.9568885,25.035662 7.9852295,23.961182 7.52451,23.451682 5.9920988,21.451899 4.5802002,19.516846 1.8276929,15.744432 1.4203488,14.52416 2.6832275,13.836914 c 0.4518796,-0.245871 2.4360834,-0.323471 6.0966797,-0.238037 5.9489838,0.138581 7.1177128,0.42616 8.9110108,2.192505 l 0.950317,0.936035 -0.108398,-1.758545 c -0.0633,-1.027342 0.09383,-2.362317 0.37793,-3.210571 0.593739,-1.7717845 6.02493,-9.3875465 6.895019,-9.6683352 0.164646,-0.053132 0.31932,-0.084345 0.466553,-0.089355 z"
     sodipodi:nodetypes="sccccccccccccccccccccccccccccscccss" />
  <path
     id="rect2194"
     style="fill:#95c2f2;fill-opacity:1;stroke-width:0.9375;stroke-linecap:round;stroke-linejoin:round"
     d="m 24.23877,16.806519 c 0.886202,0.0026 1.058853,3.032787 0.216796,4.911987 -0.790889,1.764955 -1.855528,1.143348 -1.854858,-1.082886 5.2e-4,-1.520424 0.816418,-3.58808 1.502197,-3.807129 0.047,-0.01501 0.09228,-0.0221 0.135865,-0.02197 z m -7.98523,4.207397 c 0.850252,7.52e-4 2.18379,0.367833 3.089722,0.937134 1.320188,0.829901 1.918572,1.855142 1.310302,2.24707 -0.518979,0.334409 -0.416751,0.344072 -2.180419,-0.20874 -1.581689,-0.495765 -3.364595,-2.124064 -2.993775,-2.734131 0.101159,-0.16642 0.387692,-0.241675 0.77417,-0.241333 z m 12.870483,1.991089 c 1.044231,0.01117 1.869507,0.284836 1.869507,0.834961 0,0.26569 -0.498811,0.736567 -1.10852,1.046264 -2.253818,1.144825 -5.97469,0.338182 -4.273682,-0.926513 0.864396,-0.64275 2.329235,-0.967371 3.512695,-0.954712 z m -8.260253,3.495849 c 0.990734,0.01386 0.734433,1.623274 -1.26709,3.410157 -1.092209,0.975074 -2.69751,1.377403 -2.69751,0.676025 0,-0.678563 0.951382,-2.18192 1.887451,-2.982788 0.918918,-0.786208 1.626815,-1.109692 2.077149,-1.103394 z m 3.377563,0.636109 c 1.07552,0.01537 2.91125,2.824954 2.732666,4.351318 -0.2001,1.709449 -1.524879,0.992254 -2.776978,-1.503296 -0.769829,-1.534358 -0.827587,-2.551877 -0.159667,-2.8125 0.06412,-0.02502 0.132278,-0.03655 0.203979,-0.03552 z"
     sodipodi:nodetypes="sccssscssssssscssssssscsss" />
</svg>
