<?xml version="1.0" encoding="UTF-8" standalone="no"?>
<svg
   fill="none"
   viewBox="0 0 48 48"
   height="256"
   width="256"
   version="1.1"
   id="svg6"
   sodipodi:docname="assemblywise.svg"
   inkscape:version="1.4 (86a8ad7, 2024-10-11)"
   xml:space="preserve"
   xmlns:inkscape="http://www.inkscape.org/namespaces/inkscape"
   xmlns:sodipodi="http://sodipodi.sourceforge.net/DTD/sodipodi-0.dtd"
   xmlns:xlink="http://www.w3.org/1999/xlink"
   xmlns="http://www.w3.org/2000/svg"
   xmlns:svg="http://www.w3.org/2000/svg"><defs
     id="defs10"><linearGradient
       id="linearGradient15"
       inkscape:collect="always"><stop
         style="stop-color:#1c5bc1;stop-opacity:1;"
         offset="0"
         id="stop15" /><stop
         style="stop-color:#aaacfc;stop-opacity:1;"
         offset="1"
         id="stop16" /></linearGradient><linearGradient
       inkscape:collect="always"
       xlink:href="#linearGradient15"
       id="linearGradient16"
       x1="-95.497566"
       y1="25.5"
       x2="-105"
       y2="36"
       gradientUnits="userSpaceOnUse"
       gradientTransform="translate(-44.428053,2.7657165)" /><linearGradient
       inkscape:collect="always"
       xlink:href="#linearGradient15"
       id="linearGradient17"
       gradientUnits="userSpaceOnUse"
       x1="-95.497566"
       y1="25.5"
       x2="-105"
       y2="36"
       gradientTransform="rotate(-90,-113.23339,57.418422)" /><linearGradient
       inkscape:collect="always"
       xlink:href="#linearGradient15"
       id="linearGradient18"
       gradientUnits="userSpaceOnUse"
       gradientTransform="rotate(180,-114.61625,35.204395)"
       x1="-95.497566"
       y1="25.5"
       x2="-105"
       y2="36" /><linearGradient
       inkscape:collect="always"
       xlink:href="#linearGradient15"
       id="linearGradient19"
       gradientUnits="userSpaceOnUse"
       gradientTransform="rotate(90,-115.99911,12.990369)"
       x1="-95.497566"
       y1="25.5"
       x2="-105"
       y2="36" /></defs><sodipodi:namedview
     id="namedview8"
     pagecolor="#ffffff"
     bordercolor="#666666"
     borderopacity="1.0"
     inkscape:showpageshadow="2"
     inkscape:pageopacity="0.0"
     inkscape:pagecheckerboard="true"
     inkscape:deskcolor="#d1d1d1"
     showgrid="true"
     inkscape:zoom="2"
     inkscape:cx="-19.25"
     inkscape:cy="100.75"
     inkscape:current-layer="svg6"
     showguides="true"
     inkscape:window-width="2560"
     inkscape:window-height="1334"
     inkscape:window-x="-11"
     inkscape:window-y="-11"
     inkscape:window-maximized="1"><inkscape:grid
       type="xygrid"
       id="grid239"
       units="px"
       spacingx="1.5"
       spacingy="1.5"
       originx="0"
       originy="0" /></sodipodi:namedview><g
     id="g19"
     transform="matrix(1.6840218,0,0,1.6840219,254.42517,-37.613739)"><path
       id="path9-7"
       style="fill:url(#linearGradient16);stroke:none;stroke-width:0.35433;stroke-linejoin:round"
       d="m -142.48143,26.676674 c -3.80037,-0.09081 -7.1853,2.6892 -8.24963,6.933471 -0.0565,0.231602 -0.10717,0.464586 -0.15198,0.698731 -0.0226,0.123132 -0.0439,0.247154 -0.0626,0.372436 -0.0879,0.630644 -0.13339,1.266468 -0.13623,1.903199 0.0322,6.35009 4.26228,11.912612 10.37292,13.640258 -6.28406,-2.172993 -8.7433,-9.67797 -2.04309,-15.221557 l 0.0194,0.0081 c 0.71127,-2.677473 3.13044,-4.544735 5.90076,-4.554565 0.53886,0.0076 1.07437,0.08631 1.59265,0.234009 l -0.007,-0.02527 c -2.25099,-2.720644 -4.82582,-3.931188 -7.23559,-3.988769 z"
       sodipodi:nodetypes="cccccccccccsc" /><path
       id="path9-7-4"
       style="fill:url(#linearGradient17);fill-opacity:1;stroke:none;stroke-width:0.35433;stroke-linejoin:round"
       d="m -146.74086,42.238412 c -0.0908,3.800368 2.6892,7.185298 6.93347,8.249628 0.23161,0.0565 0.46459,0.10717 0.69874,0.15198 0.12313,0.0226 0.24715,0.0439 0.37243,0.0626 0.63064,0.0879 1.26647,0.13339 1.9032,0.13623 6.35009,-0.0322 11.91261,-4.26228 13.64026,-10.372918 -2.173,6.284058 -9.67797,8.743298 -15.22156,2.04309 l 0.008,-0.0194 c -2.67747,-0.71127 -4.54473,-3.13044 -4.55456,-5.90076 0.008,-0.53886 0.0863,-1.07437 0.23401,-1.59265 l -0.0253,0.007 c -2.72065,2.25099 -3.93119,4.82582 -3.98877,7.23559 z"
       sodipodi:nodetypes="cccccccccccsc" /><path
       id="path9-7-4-2"
       style="fill:url(#linearGradient18);fill-opacity:1;stroke:none;stroke-width:0.35433;stroke-linejoin:round"
       d="m -131.17912,46.49784 c 3.80037,0.0908 7.1853,-2.689206 8.24963,-6.933477 0.0565,-0.231602 0.10717,-0.464586 0.15198,-0.698731 0.0226,-0.123132 0.0439,-0.247154 0.0626,-0.372436 0.0879,-0.630644 0.13339,-1.266468 0.13623,-1.903199 -0.0322,-6.35009 -4.26228,-11.912612 -10.37292,-13.640258 6.28406,2.172993 8.7433,9.67797 2.04309,15.221557 l -0.0194,-0.0081 c -0.71127,2.677473 -3.13044,4.544735 -5.90076,4.554565 -0.53886,-0.0076 -1.07437,-0.08631 -1.59265,-0.234009 l 0.007,0.02527 c 2.25099,2.720648 4.82582,3.931188 7.23559,3.988768 z"
       sodipodi:nodetypes="cccccccccccsc" /><path
       id="path9-7-4-2-6"
       style="fill:url(#linearGradient19);fill-opacity:1;stroke:none;stroke-width:0.35433;stroke-linejoin:round"
       d="m -126.91969,30.936096 c 0.0908,-3.800368 -2.68921,-7.185298 -6.93348,-8.249628 -0.2316,-0.0565 -0.46458,-0.10717 -0.69873,-0.15198 -0.12313,-0.0226 -0.24715,-0.0439 -0.37243,-0.0626 -0.63065,-0.0879 -1.26647,-0.13339 -1.9032,-0.13623 -6.35009,0.0322 -11.91261,4.26228 -13.64026,10.372918 2.173,-6.284058 9.67797,-8.743298 15.22156,-2.04309 l -0.008,0.0194 c 2.67747,0.71127 4.54473,3.13044 4.55456,5.90076 -0.008,0.53886 -0.0863,1.07437 -0.23401,1.59265 l 0.0253,-0.007 c 2.72065,-2.25099 3.93119,-4.82582 3.98877,-7.23559 z"
       sodipodi:nodetypes="cccccccccccsc" /></g></svg>
