<?xml version="1.0" encoding="UTF-8" standalone="no"?>
<svg
   fill="none"
   viewBox="0 0 48 48"
   height="256"
   width="256"
   version="1.1"
   id="svg6"
   sodipodi:docname="avast.svg"
   inkscape:version="1.2.1 (9c6d41e410, 2022-07-14)"
   xmlns:inkscape="http://www.inkscape.org/namespaces/inkscape"
   xmlns:sodipodi="http://sodipodi.sourceforge.net/DTD/sodipodi-0.dtd"
   xmlns="http://www.w3.org/2000/svg"
   xmlns:svg="http://www.w3.org/2000/svg">
  <defs
     id="defs10" />
  <sodipodi:namedview
     id="namedview8"
     pagecolor="#ffffff"
     bordercolor="#666666"
     borderopacity="1.0"
     inkscape:showpageshadow="2"
     inkscape:pageopacity="0.0"
     inkscape:pagecheckerboard="true"
     inkscape:deskcolor="#d1d1d1"
     showgrid="true"
     inkscape:zoom="1.6191406"
     inkscape:cx="-22.234017"
     inkscape:cy="127.53679"
     inkscape:current-layer="svg6"
     showguides="false"
     inkscape:window-width="1920"
     inkscape:window-height="730"
     inkscape:window-x="-6"
     inkscape:window-y="-6"
     inkscape:window-maximized="1">
    <inkscape:grid
       type="xygrid"
       id="grid239"
       units="px"
       spacingx="1.5"
       spacingy="1.5" />
  </sodipodi:namedview>
  <g
     id="g1644"
     inkscape:export-filename="..\..\..\..\Downloads\avast.png"
     inkscape:export-xdpi="1300.4691"
     inkscape:export-ydpi="1300.4691"
     transform="matrix(2.4799999,0,0,2.4799999,-700.99586,-481.30758)"
     style="stroke-width:0.0806452;fill:#ff9d24;fill-opacity:1">
    <g
       id="g1591"
       transform="matrix(0.12617864,0,0,0.12624322,198.00296,176.8656)"
       style="stroke-width:0.0806452;fill:#ff9d24;fill-opacity:1">
      <path
         style="fill:#ff9d24;stroke-width:0.0756048;fill-opacity:1"
         d="m 782.49894,281.61261 c -10.75762,-5.56769 -10.87326,-11.29664 -28.20602,-20.54018 -12.60396,-7.40329 -32.32386,-9.8629 -47.11676,-5.87677 -11.65852,3.14155 -16.7263,3.36679 -21.45643,0.95366 -8.87015,-4.52522 -11.21108,-16.46895 -4.68472,-23.90207 1.54286,-1.75722 4.62276,-4.26011 6.84423,-5.56198 9.21766,-5.4019 18.82039,-18.81969 21.07816,-29.45226 1.54034,-7.25398 1.32276,-10.81428 -1.31336,-21.49012 -2.16507,-8.76817 -2.25099,-9.85911 -1.01036,-12.82835 1.53158,-3.66559 5.58456,-6.18226 9.95623,-6.18226 3.31623,0 5.78381,1.12776 9.82163,4.4888 5.0401,4.19531 10.67549,6.10666 18.28829,6.20282 11.24838,0.14207 17.44359,-3.44583 28.03956,-16.23882 5.09483,-6.15122 9.87246,-8.47412 17.42919,-8.47412 13.08398,0 22.36915,9.3224 22.36915,22.45882 0,7.47935 -2.37918,12.5858 -7.94147,17.04476 -12.79837,10.25973 -15.71745,14.36138 -16.51093,23.19987 -0.95582,10.64661 3.63223,19.33466 13.62357,25.79802 12.31233,7.96482 16.71925,15.31225 15.91384,26.53239 -0.49253,6.8614 -2.72703,12.23202 -7.21678,17.34557 -6.2199,7.08408 -18.38169,9.92645 -27.90702,6.52222 z M 751.05807,232.1513 c 1.91703,-0.80079 4.64567,-2.56722 6.06364,-3.9254 l 2.57812,-2.46942 v 2.8004 c 0,3.44485 1.49018,5.0504 4.6875,5.0504 4.52223,0 4.6875,-0.80982 4.6875,-22.96875 0,-22.15893 -0.16527,-22.96875 -4.6875,-22.96875 -3.19732,0 -4.6875,1.60555 -4.6875,5.0504 v 2.8004 l -2.57812,-2.46942 c -12.22912,-11.71346 -31.15899,-2.95144 -32.78638,15.17575 -0.59973,6.68025 0.87875,12.07084 4.70037,17.13782 5.48965,7.27855 14.32586,10.00158 22.02237,6.78657 z m -11.00748,-10.37444 c -3.77143,-3.17345 -5.66326,-6.90965 -5.66326,-11.18447 0,-11.37598 12.02849,-17.74562 20.11055,-10.64947 1.96407,1.72447 3.69656,4.36787 4.27805,6.52737 3.26986,12.14333 -9.79385,22.82193 -18.72534,15.30657 z"
         id="path1595"
         sodipodi:nodetypes="ccsssssssssssssssssscsscssssscsssssssss" />
    </g>
  </g>
</svg>
