<?xml version="1.0" encoding="UTF-8" standalone="no"?>
<svg
   fill="none"
   viewBox="0 0 48 48"
   height="256"
   width="256"
   version="1.1"
   id="svg6"
   sodipodi:docname="beetle_update.svg"
   inkscape:version="1.2.1 (9c6d41e410, 2022-07-14)"
   xmlns:inkscape="http://www.inkscape.org/namespaces/inkscape"
   xmlns:sodipodi="http://sodipodi.sourceforge.net/DTD/sodipodi-0.dtd"
   xmlns="http://www.w3.org/2000/svg"
   xmlns:svg="http://www.w3.org/2000/svg">
  <defs
     id="defs10" />
  <sodipodi:namedview
     id="namedview8"
     pagecolor="#ffffff"
     bordercolor="#666666"
     borderopacity="1.0"
     inkscape:showpageshadow="2"
     inkscape:pageopacity="0.0"
     inkscape:pagecheckerboard="true"
     inkscape:deskcolor="#d1d1d1"
     showgrid="true"
     inkscape:zoom="1.6191406"
     inkscape:cx="159.34379"
     inkscape:cy="127.53679"
     inkscape:current-layer="svg6"
     inkscape:window-width="1920"
     inkscape:window-height="730"
     inkscape:window-x="-6"
     inkscape:window-y="-6"
     inkscape:window-maximized="1">
    <inkscape:grid
       type="xygrid"
       id="grid239"
       units="px"
       spacingx="1.5"
       spacingy="1.5" />
  </sodipodi:namedview>
  <path
     id="path3805"
     style="fill:#fff01c;fill-opacity:1;stroke-width:1.27033;stroke-linecap:round;stroke-linejoin:round"
     d="m 5.149552,29.392925 c 0,6.918726 6.218893,12.527462 13.890287,12.527462 7.671394,0 13.890288,-5.608735 13.890288,-12.527462 0,-6.918727 -7.145311,-12.295858 -14.816705,-12.295858 -7.671394,0 -12.96387,5.377132 -12.96387,12.295858 z"
     sodipodi:nodetypes="sssss" />
  <path
     id="path3729"
     style="color:#000000;fill:#bb852e;stroke-linecap:round;fill-opacity:1"
     d="m 31.149604,5.2598877 c 0.348496,0.00417 0.692889,0.049399 1.030517,0.1384277 1.350513,0.3561154 2.515188,1.3661537 3.478638,2.8908692 A 0.68224001,0.68224001 0 0 1 35.447821,9.2303467 0.68224001,0.68224001 0 0 1 34.506293,9.0175781 C 33.661729,7.681006 32.754482,6.9597683 31.832587,6.7166748 c -0.921895,-0.2430935 -1.940383,-0.04818 -3.132935,0.7148438 -1.875018,1.1996831 -4.046047,3.8319824 -6.269897,7.8900144 -0.800238,0.317072 -1.547307,0.748305 -2.210816,1.281738 2.608396,-5.255805 5.197526,-8.6907247 7.744263,-10.3201899 0.705742,-0.4515509 1.422337,-0.7612373 2.130982,-0.9140625 0.354321,-0.076413 0.706923,-0.1133011 1.05542,-0.1091309 z" />
  <path
     id="path3731"
     style="color:#000000;fill:#bb852e;stroke-linecap:round;fill-opacity:1"
     d="m 10.191718,4.7479248 a 0.68224001,0.68224001 0 0 1 0.492187,0.1757813 c 1.831347,1.6599722 2.117617,4.7162636 2.140869,7.6680909 0.01061,1.34721 -0.04985,2.691917 -0.10913,3.879272 -0.145391,-0.0622 -0.293033,-0.120884 -0.443482,-0.175415 -0.301484,-0.109275 -0.60562,-0.199858 -0.910766,-0.272827 0.0563,-1.080285 0.109223,-2.245344 0.09998,-3.419311 C 11.438996,9.7621734 10.976029,7.0321757 9.766186,5.9355469 A 0.68224001,0.68224001 0 0 1 9.719306,4.9705811 0.68224001,0.68224001 0 0 1 10.191718,4.7479248 Z" />
  <path
     style="color:#000000;fill:#bb852e;stroke-width:0.998312;stroke-linecap:round;fill-opacity:1"
     d="m 9.991221,2.1200219 c 1.228885,0.3936342 1.884646,1.6669954 1.395147,2.8505875 C 10.896868,6.1542004 9.464482,6.7586912 8.235597,6.365057 7.006713,5.9714232 6.350952,4.698061 6.840451,3.5144699 7.32995,2.3308779 8.762337,1.7263881 9.991221,2.1200219 Z"
     id="path3735"
     sodipodi:nodetypes="sssss" />
  <path
     style="color:#000000;fill:#bb852e;stroke-width:0.998312;stroke-linecap:round;fill-opacity:1"
     d="m 35.513757,8.1635028 c -1.22888,-0.3936337 -2.661272,0.2108596 -3.150771,1.3944477 -0.489498,1.1835885 0.166266,2.4569545 1.395147,2.8505875 1.228881,0.393632 2.661273,-0.210859 3.15077,-1.394448 0.489498,-1.1835884 -0.166266,-2.4569545 -1.395146,-2.8505872 z"
     id="path3737"
     sodipodi:nodetypes="sssss" />
  <ellipse
     transform="matrix(0.9456025,0.32532433,-0.3593372,0.93320779,0,0)"
     inkscape:export-ydpi="928.942"
     inkscape:export-xdpi="928.942"
     inkscape:export-filename="C:\Users\Kristof\Dropbox (Personal)\EMBEDOFFICE\embedoffice_com\homepage\chip_bee_01.png"
     ry="6.6704621"
     rx="7.1852145"
     cy="12.99829"
     cx="32.282112"
     id="ellipse3739"
     style="fill:#ffffff;fill-opacity:1;stroke:none;stroke-width:1.36492;stroke-linecap:round;stroke-linejoin:miter;stroke-miterlimit:4;stroke-dasharray:none;stroke-dashoffset:0;stroke-opacity:1" />
  <path
     id="path3741"
     style="fill:#606668;fill-opacity:1;stroke:none;stroke-width:1.12154;stroke-linecap:butt;stroke-linejoin:round;stroke-miterlimit:4;stroke-dasharray:none;stroke-dashoffset:0;stroke-opacity:1"
     d="m 26.34748,20.789428 a 2.1085299,1.9544187 5.751333 0 1 0.705688,0.123048 2.1085299,1.9544187 5.751333 0 1 1.279541,2.515869 2.1085299,1.9544187 5.751333 0 1 -2.691284,1.149902 2.1085299,1.9544187 5.751333 0 1 -1.279541,-2.516235 2.1085299,1.9544187 5.751333 0 1 1.985596,-1.272584 z m 0.172851,0.641603 a 0.67244094,0.52701415 15.666613 0 0 -0.530639,0.320068 0.67244094,0.52701415 15.666613 0 0 0.445312,0.711182 0.67244094,0.52701415 15.666613 0 0 0.825073,-0.273926 0.67244094,0.52701415 15.666613 0 0 -0.445679,-0.711182 0.67244094,0.52701415 15.666613 0 0 -0.294067,-0.04614 z" />
  <ellipse
     style="fill:#ffffff;fill-opacity:1;stroke:none;stroke-width:1.36448;stroke-linecap:round;stroke-linejoin:miter;stroke-miterlimit:4;stroke-dasharray:none;stroke-dashoffset:0;stroke-opacity:1"
     id="ellipse3743"
     cx="17.119488"
     cy="19.093489"
     rx="6.874567"
     ry="6.6420555"
     inkscape:export-filename="C:\Users\Kristof\Dropbox (Personal)\EMBEDOFFICE\embedoffice_com\homepage\chip_bee_01.png"
     inkscape:export-xdpi="928.942"
     inkscape:export-ydpi="928.942"
     transform="matrix(0.94014925,0.34076295,-0.34328077,0.93923283,0,0)" />
  <path
     id="path3745"
     style="fill:#606668;fill-opacity:1;stroke:none;stroke-width:1.09505;stroke-linecap:butt;stroke-linejoin:round;stroke-miterlimit:4;stroke-dasharray:none;stroke-dashoffset:0;stroke-opacity:1"
     d="m 9.56037,21.596191 a 2.0088901,1.9555847 17.140476 0 1 0.686279,0.123414 2.0088901,1.9555847 17.140476 0 1 1.217286,2.521362 A 2.0088901,1.9555847 17.140476 0 1 8.90412,25.393433 2.0088901,1.9555847 17.140476 0 1 7.686835,22.87207 2.0088901,1.9555847 17.140476 0 1 9.56037,21.596191 Z m 0.179444,0.643433 a 0.64269735,0.52566048 19.613132 0 0 -0.504639,0.320801 0.64269735,0.52566048 19.613132 0 0 0.423706,0.712646 0.64269735,0.52566048 19.613132 0 0 0.78479,-0.274658 0.64269735,0.52566048 19.613132 0 0 -0.424072,-0.712647 0.64269735,0.52566048 19.613132 0 0 -0.279785,-0.04614 z" />
  <path
     style="color:#000000;fill:#ffffff;fill-opacity:1;stroke-linecap:round;stroke-linejoin:round"
     d="m 21.695746,33.226562 c 0.309582,-0.155325 0.686464,-0.03028 0.841797,0.279297 0.195235,0.387497 0.137407,0.734979 0.04883,1.085938 -0.08858,0.350959 -0.246769,0.716691 -0.460937,1.089844 -0.428336,0.746304 -1.08146,1.522192 -1.929688,2.060546 -0.848228,0.538355 -1.938688,0.824515 -3.054687,0.457032 -1.116,-0.367483 -2.180592,-1.335148 -3.146485,-3.060547 -0.351529,-0.628294 0.459819,-1.257008 0.980469,-0.759766 0.330627,0.316678 0.808752,0.471921 1.433594,0.488281 0.624841,0.01636 1.366372,-0.1181 2.08789,-0.326171 1.443036,-0.416143 2.77991,-1.104054 3.199219,-1.314454 z"
     id="path3747"
     sodipodi:nodetypes="scssssccssss" />
  <path
     id="path3749"
     style="fill:#fff01c;fill-opacity:1;stroke:none;stroke-width:1.25417;stroke-linecap:round;stroke-linejoin:miter;stroke-miterlimit:4;stroke-dasharray:none;stroke-dashoffset:0;stroke-opacity:1"
     d="m 29.362579,39.65549 c 1.490741,0.758045 2.953797,1.646787 4.345464,2.627303 0.777763,0.547917 -0.393762,2.346807 0.164088,2.982129 L 9.169534,45.10959 c 0.474048,-1.455864 1.118913,-2.772385 1.935926,-3.902693 0.788995,0.438104 1.61683,0.810255 2.470073,1.113206 5.101804,1.811429 11.264968,1.138001 15.787046,-2.664613 z" />
  <path
     id="path3751"
     style="fill:#6091d0;fill-opacity:1;stroke:none;stroke-width:1.15272;stroke-linecap:round;stroke-linejoin:round;stroke-miterlimit:4;stroke-dasharray:none;stroke-dashoffset:0;stroke-opacity:1"
     d="m 32.757401,35.641628 c 3.603612,1.622765 7.64185,4.694436 10.450586,8.648668 0.227708,0.320632 0.447619,0.660062 0.658253,0.992138 l -10.016952,0.01942 c -1.415986,-2.006927 -2.977543,-3.885229 -4.638233,-5.520726 1.345778,-1.10212 2.551003,-2.476514 3.546346,-4.139497 z" />
  <path
     fill="#606668"
     fill-rule="evenodd"
     d="m 42.495597,36.461475 -0.315,-8.1759 c -0.0562,-1.4587 -0.9466,-2.717 -2.4024,-2.8238 -0.3511,-0.0257 -0.7464,-0.0414 -1.1886,-0.0414 -0.4423,0 -0.8376,0.0157 -1.1887,0.0414 -1.4559,0.1068 -2.3463,1.3652 -2.4025,2.8239 l -0.315,8.1758 c -1.3789,0.0314 -2.5058,0.0783 -3.4219,0.1313 -1.9029,0.1101 -2.7156,1.9092 -1.5265,3.3988 0.7154,0.8961 1.6487,2.0058 2.8547,3.3465 1.9133,2.1269 3.3689,3.3819 4.367,4.1125 1.0008,0.7325 2.2652,0.7326 3.266,10e-5 0.9981,-0.7305 2.4538,-1.9855 4.367,-4.1126 1.2054,-1.3403 2.1384,-2.4498 2.8537,-3.3458 1.1894,-1.4899 0.3765,-3.2895 -1.5267,-3.3996 -0.916,-0.0529 -2.0426,-0.0998 -3.4211,-0.1312 z"
     clip-rule="evenodd"
     id="path4362"
     style="fill:#606668;fill-opacity:1" />
</svg>
