<?xml version="1.0" encoding="UTF-8" standalone="no"?>
<svg
   fill="none"
   viewBox="0 0 48 48"
   height="256"
   width="256"
   version="1.1"
   id="svg6"
   sodipodi:docname="bitsquared.svg"
   inkscape:version="1.2.1 (9c6d41e410, 2022-07-14)"
   xmlns:inkscape="http://www.inkscape.org/namespaces/inkscape"
   xmlns:sodipodi="http://sodipodi.sourceforge.net/DTD/sodipodi-0.dtd"
   xmlns="http://www.w3.org/2000/svg"
   xmlns:svg="http://www.w3.org/2000/svg">
  <defs
     id="defs10" />
  <sodipodi:namedview
     id="namedview8"
     pagecolor="#ffffff"
     bordercolor="#666666"
     borderopacity="1.0"
     inkscape:showpageshadow="2"
     inkscape:pageopacity="0.0"
     inkscape:pagecheckerboard="true"
     inkscape:deskcolor="#d1d1d1"
     showgrid="true"
     inkscape:zoom="1.6191406"
     inkscape:cx="43.850423"
     inkscape:cy="119.50784"
     inkscape:current-layer="svg6"
     showguides="false"
     inkscape:window-width="1920"
     inkscape:window-height="730"
     inkscape:window-x="-6"
     inkscape:window-y="-6"
     inkscape:window-maximized="1">
    <inkscape:grid
       type="xygrid"
       id="grid239"
       units="px"
       spacingx="1.5"
       spacingy="1.5" />
  </sodipodi:namedview>
  <path
     id="rect6370"
     style="fill:#606668;fill-opacity:1;stroke:none;stroke-width:0.9375;stroke-linecap:round;stroke-linejoin:round;stroke-dasharray:none;stroke-opacity:1"
     d="m 21.771973,2.8029785 c 0.940201,-0.00986 1.853614,1.3875675 2.315551,2.128418 -0.005,5.2199585 -0.0093,10.4399545 -0.01428,15.6599125 0.168088,2.94368 -2.86327,0.418131 -3.051636,-0.725464 V 5.4356689 c 0.09082,-0.9085154 -0.337227,-2.1802169 0.65918,-2.6271972 0.03037,-0.00332 0.06086,-0.00518 0.09119,-0.00549 z m 21.879272,5.3100586 c 0.942082,-0.012709 1.8546,1.3869332 2.315552,2.1287839 -0.0048,10.448454 -0.0096,20.897009 -0.01428,31.345459 0.18844,1.057537 -0.15604,3.177764 -1.59375,2.028443 -0.991471,-1.272019 -0.806518,-0.872751 -1.455323,-1.855591 V 10.746094 c 0.09061,-0.9080053 -0.335673,-2.1772988 0.656617,-2.6271975 0.03044,-0.00342 0.0608,-0.00545 0.09119,-0.00586 z m -24.4552,12.8210449 c 1.481206,0.0091 3.84046,1.971293 2.637085,3.116455 -4.535319,0.08014 -9.082858,0.0047 -13.623047,0.02307 C 6.7949643,23.843627 4.8859035,24.685911 3.916626,23.322144 3.3014369,22.704425 1.7684571,21.433522 3.3112793,20.953857 c 4.5298322,2e-6 9.0595227,-2e-6 13.5893557,0 0.53176,0.01399 1.97852,-0.02811 1.94458,0.02051 0.08827,-0.02281 0.182533,-0.03555 0.280884,-0.03918 0.02305,-8.52e-4 0.04643,-0.0012 0.06995,-0.0011 z m 21.879272,21.894287 c 1.482128,0.0087 3.843783,1.969985 2.640015,3.116455 -10.189285,0.08226 -20.391717,0.0016 -30.585937,0.02124 C 11.86226,45.792106 10.180531,46.478946 9.3391113,45.216431 8.7239629,44.598713 7.1909436,43.327808 8.7337646,42.848145 H 38.779907 c 0.531763,0.01399 1.97852,-0.02813 1.94458,0.02051 0.08831,-0.02283 0.182474,-0.03553 0.280884,-0.03918 0.02307,-8.56e-4 0.04642,-0.0012 0.06995,-0.0011 z"
     sodipodi:nodetypes="scccccssccccccscccccccsccccccccsc" />
  <path
     id="rect6314"
     style="fill:#edf1e9;fill-opacity:1;stroke:none;stroke-width:0.9375;stroke-linecap:round;stroke-linejoin:round;stroke-dasharray:none;stroke-opacity:1"
     d="m 18.631348,2.0009766 c 0.582791,-0.013346 1.106029,0.08382 1.254638,0.7335205 V 17.244141 c -0.145499,0.861581 0.445653,2.309898 -0.70935,2.574096 H 4.5992432 C 3.7376776,19.672736 2.2893412,20.26391 2.0251465,19.108887 V 4.5992432 C 2.170646,3.7376622 1.579495,2.2893458 2.7344971,2.0251465 H 17.31189 c 0.376934,0.063657 0.866176,-0.01379 1.319458,-0.02417 z m 22.424194,5.3371582 c 0.381105,-0.011202 0.722346,0.3285627 0.712646,0.7097168 V 39.138428 c -0.145497,0.86158 0.445285,2.310263 -0.709716,2.574463 H 10.148804 C 9.2762473,41.579283 8.1151118,42.060185 7.5062256,41.279297 7.3759328,38.168429 7.4878465,35.033253 7.4505615,31.913086 7.5960604,31.051506 7.0049111,29.603188 8.1599121,29.338989 H 25.594482 c 1.177153,-0.194371 2.629504,0.481379 3.640503,-0.422973 0.07007,-5.19933 0.04265,-10.399143 0.03625,-15.598755 0.257619,-1.898656 -0.537906,-4.2433327 0.437256,-5.8575442 3.770956,-0.1497776 7.566567,-0.062936 11.347046,-0.121582 z"
     sodipodi:nodetypes="sccccccccsccccccccccccc" />
</svg>
