<?xml version="1.0" encoding="UTF-8" standalone="no"?>
<svg
   fill="none"
   viewBox="0 0 48 48"
   height="256"
   width="256"
   version="1.1"
   id="svg6"
   sodipodi:docname="china_fusion.svg"
   inkscape:version="1.4 (86a8ad7, 2024-10-11)"
   xml:space="preserve"
   inkscape:export-filename="C:\Users\krist\Downloads\china_fusion.png"
   inkscape:export-xdpi="192"
   inkscape:export-ydpi="192"
   xmlns:inkscape="http://www.inkscape.org/namespaces/inkscape"
   xmlns:sodipodi="http://sodipodi.sourceforge.net/DTD/sodipodi-0.dtd"
   xmlns="http://www.w3.org/2000/svg"
   xmlns:svg="http://www.w3.org/2000/svg"><defs
     id="defs10" /><sodipodi:namedview
     id="namedview8"
     pagecolor="#ffffff"
     bordercolor="#666666"
     borderopacity="1.0"
     inkscape:showpageshadow="2"
     inkscape:pageopacity="0.0"
     inkscape:pagecheckerboard="true"
     inkscape:deskcolor="#d1d1d1"
     showgrid="true"
     inkscape:zoom="3.2382812"
     inkscape:cx="274.52835"
     inkscape:cy="95.112185"
     inkscape:current-layer="svg6"
     showguides="false"
     inkscape:window-width="3840"
     inkscape:window-height="1476"
     inkscape:window-x="-12"
     inkscape:window-y="-12"
     inkscape:window-maximized="1"><inkscape:grid
       type="xygrid"
       id="grid239"
       units="px"
       spacingx="1.5"
       spacingy="1.5"
       originx="0"
       originy="0" /></sodipodi:namedview><path
     style="fill:#ffff68;fill-opacity:1;stroke-width:0.564062"
     d="m 9.679023,30.220215 3.700409,-2.693343 3.711333,2.701296 c 2.041236,1.485706 3.722684,2.685812 3.736548,2.666898 0.01388,-0.0189 -0.607839,-1.980541 -1.381564,-4.359165 -0.773719,-2.378623 -1.388214,-4.353721 -1.365534,-4.389111 0.02267,-0.03537 1.680558,-1.254159 3.684186,-2.708382 l 3.642964,-2.644043 -4.574248,-0.02755 -4.574254,-0.02753 -0.917565,-2.828024 c -1.679085,-5.175113 -1.903113,-5.842237 -1.961866,-5.842237 -0.05875,0 -0.282776,0.667124 -1.961867,5.842232 L 10.5,18.739279 5.9245276,18.766809 1.34905,18.794359 4.9943209,21.438402 c 2.004898,1.454223 3.6633661,2.673049 3.6854831,2.708495 0.03458,0.05545 -1.2814712,4.208849 -2.434336,7.682594 -0.1978789,0.59623 -0.3388719,1.08406 -0.31332,1.08406 0.025552,0 1.7116477,-1.212007 3.746875,-2.693342 z"
     id="path1"
     sodipodi:nodetypes="scscssscccssscccssssss" /><path
     style="font-variation-settings:'wght' 400;fill:#ff5454;fill-opacity:1;stroke:none;stroke-width:0.1875"
     d="m 31.5,2.2418576 c -9.994272,-2.99999998 -12.595874,3 -4.5,4.5 C 52.603822,11.485723 45,42 4.5,46.5 51,46.5 59.726115,10.714546 31.5,2.2418576 Z"
     id="path3"
     sodipodi:nodetypes="sscs" /></svg>
