<?xml version="1.0" encoding="UTF-8" standalone="no"?>
<svg
   fill="none"
   viewBox="0 0 48 48"
   height="256"
   width="256"
   version="1.1"
   id="svg6"
   sodipodi:docname="demsay.svg"
   inkscape:version="1.3.2 (091e20e, 2023-11-25, custom)"
   xml:space="preserve"
   xmlns:inkscape="http://www.inkscape.org/namespaces/inkscape"
   xmlns:sodipodi="http://sodipodi.sourceforge.net/DTD/sodipodi-0.dtd"
   xmlns="http://www.w3.org/2000/svg"
   xmlns:svg="http://www.w3.org/2000/svg"><defs
     id="defs10" /><sodipodi:namedview
     id="namedview8"
     pagecolor="#ffffff"
     bordercolor="#666666"
     borderopacity="1.0"
     inkscape:showpageshadow="2"
     inkscape:pageopacity="0.0"
     inkscape:pagecheckerboard="true"
     inkscape:deskcolor="#d1d1d1"
     showgrid="true"
     inkscape:zoom="3.2382812"
     inkscape:cx="182.81303"
     inkscape:cy="108.54524"
     inkscape:current-layer="svg6"
     inkscape:window-width="3840"
     inkscape:window-height="1494"
     inkscape:window-x="-11"
     inkscape:window-y="-11"
     inkscape:window-maximized="1"><inkscape:grid
       type="xygrid"
       id="grid239"
       units="px"
       spacingx="1.5"
       spacingy="1.5"
       originx="0"
       originy="0"
       visible="true" /></sodipodi:namedview><path
     style="fill:#507ab7;fill-opacity:1;stroke-width:0.292387"
     d="M 7.9654557,46.46394 C 7.2545005,46.380621 6.3750999,46.110044 5.6448205,45.749919 4.8239989,45.345146 3.5483264,44.371943 3.6409649,44.221191 c 0.049427,-0.08043 29.8047941,-0.09277 29.9321971,-0.0124 0.112543,0.07098 -0.0059,0.199579 -0.260521,0.282725 -0.110345,0.03604 -0.348227,0.134044 -0.528626,0.217785 -0.441553,0.204969 -0.909842,0.383756 -1.694659,0.646996 -1.427654,0.478859 -2.58269,0.745947 -4.373315,1.011272 -0.817072,0.121069 -0.851286,0.121538 -9.593958,0.131364 -4.825679,0.0054 -8.9461601,-0.01032 -9.1566273,-0.03498 z M 2.8670953,43.350343 C 2.774209,43.312717 2.3075063,42.511122 2.1201944,42.067494 2.0372064,41.870944 1.9332177,41.625766 1.8891113,41.522654 1.8450021,41.419545 1.7865163,41.233988 1.7591423,41.11031 1.7317653,40.986631 1.6731133,40.726182 1.6287942,40.531529 1.5362636,40.125099 1.4552873,38.850263 1.5084668,38.637158 l 0.035768,-0.143316 H 21.274548 c 12.63273,0 19.742054,0.01912 19.762952,0.05311 0.06998,0.113885 -1.51749,1.75024 -2.51351,2.590904 -0.894468,0.754951 -1.840795,1.450135 -2.710577,1.991222 l -0.414584,0.257913 -16.231344,-0.0043 C 10.240247,43.380311 2.9050731,43.365737 2.8670953,43.350343 Z M 1.5526489,37.657721 c -0.082813,-0.08328 -0.094735,-4.746891 -0.012274,-4.798152 0.070664,-0.04392 11.2574681,-0.03855 11.3282431,0.0054 0.03041,0.01891 0.09206,0.122869 0.137001,0.23103 0.242054,0.582631 0.77605,1.212371 1.355803,1.598894 0.500797,0.333884 0.6878,0.416004 1.256774,0.551909 0.457437,0.109264 0.622888,0.113184 4.776009,0.113184 4.029768,0 4.352253,-0.0071 5.093329,-0.111788 0.435144,-0.06148 0.926469,-0.149878 1.091835,-0.196436 1.2964,-0.364991 1.438882,-0.41732 2.347193,-0.862071 0.670695,-0.328404 1.457256,-0.816077 1.895328,-1.17512 l 0.224537,-0.184029 6.741809,-5.86e-4 c 4.38665,-2.94e-4 6.760753,0.01835 6.79604,0.05385 0.04758,0.04785 -0.08747,0.402381 -0.294056,0.771935 -0.02537,0.04536 -0.144838,0.280394 -0.265516,0.522303 -0.272343,0.545942 -0.535783,1.018702 -0.793065,1.4232 -0.108721,0.170931 -0.197674,0.321959 -0.197674,0.33562 0,0.03502 -0.685129,1.041644 -0.947032,1.39143 -0.119972,0.160228 -0.262032,0.314956 -0.315687,0.343835 -0.155022,0.08345 -40.1355532,0.0692 -40.2186025,-0.01434 z m 5.4014778,-5.651029 -5.4393098,-0.02789 -0.014257,-2.357757 c -0.010292,-1.703541 0.00303,-2.37872 0.048086,-2.433307 0.052133,-0.06318 0.9563214,-0.07531 5.5205135,-0.07407 5.3216506,0.0014 5.4595696,0.0041 5.5142246,0.106819 0.03574,0.06717 0.05605,0.942578 0.05605,2.416148 0,2.228359 -0.0038,2.31284 -0.105738,2.367722 -0.05816,0.0313 -0.113508,0.05091 -0.123001,0.04357 -0.0095,-0.0073 -2.4649482,-0.02589 -5.4565694,-0.04124 z m 31.5015293,0.01334 c -4.563688,-0.0102 -6.354971,-0.0312 -6.354971,-0.07448 0,-0.03315 0.155072,-0.237158 0.344605,-0.453348 0.511212,-0.583115 1.128604,-1.43532 1.3602,-1.877519 0.398392,-0.760676 0.645076,-1.279511 0.645429,-1.357491 2.33e-4,-0.05113 0.02469,-0.108059 0.05437,-0.126502 0.02967,-0.01844 0.09238,-0.162162 0.139361,-0.319375 0.04697,-0.157214 0.127476,-0.372436 0.178888,-0.478271 l 0.09348,-0.192427 5.596078,-0.01469 c 5.792607,-0.0152 5.800651,-0.01492 5.718237,0.201081 -0.0181,0.04747 -0.05699,0.284728 -0.0864,0.527239 -0.02941,0.242511 -0.08122,0.527521 -0.115126,0.633356 -0.03391,0.105835 -0.09276,0.353241 -0.130777,0.549792 -0.07947,0.410889 -0.214464,0.9424 -0.300216,1.182054 -0.03246,0.09072 -0.09216,0.288643 -0.132675,0.439834 -0.182968,0.682836 -0.488248,1.407108 -0.585234,1.388456 -0.03865,-0.0074 -2.930013,-0.01991 -6.42525,-0.02771 z M 35.15927,26.318687 c -0.07489,-0.07532 -0.06442,-0.247903 0.04084,-0.672833 0.142118,-0.573727 0.138307,-2.823094 -0.0059,-3.514224 -0.05748,-0.275384 -0.08892,-0.541558 -0.06987,-0.591498 0.0319,-0.0836 0.474204,-0.09068 5.578944,-0.08934 4.325258,0.0011 5.556136,0.01635 5.598105,0.0692 0.0946,0.119099 0.197942,1.355646 0.198651,2.376863 5.83e-4,0.929144 -0.101161,2.25349 -0.183528,2.387527 -0.04806,0.07821 -11.07981,0.112132 -11.157191,0.03431 z M 1.5206654,26.256463 c -0.018251,-0.04783 -0.033182,-1.119102 -0.033182,-2.380602 0,-1.710634 0.016677,-2.310406 0.0656,-2.359611 0.050144,-0.05043 1.3504416,-0.06597 5.5193852,-0.06597 5.3360504,0 5.4550104,0.0023 5.5103764,0.106344 0.06092,0.114485 0.08146,4.440479 0.02213,4.663106 l -0.03296,0.123703 H 7.0629318 c -4.9731349,0 -5.5123121,-0.0085 -5.5422664,-0.08696 z m 0.032418,-5.641873 c -0.094318,-0.09486 -0.094318,-4.666346 0,-4.761203 0.05015,-0.05044 1.3556429,-0.06597 5.5427941,-0.06597 4.9440555,0 5.4804245,0.0085 5.5103765,0.08697 0.05964,0.156304 0.03758,4.585236 -0.02341,4.699844 -0.05536,0.104048 -0.174323,0.106344 -5.5103734,0.106344 -4.1689436,0 -5.4692408,-0.01554 -5.5193852,-0.06598 z M 34.863337,20.5539 c -0.04539,-0.06967 -0.129754,-0.261406 -0.187479,-0.426089 -0.221146,-0.630888 -0.28932,-0.788362 -0.609689,-1.408327 -0.530868,-1.027309 -1.16192,-1.926411 -1.896686,-2.702337 -0.224835,-0.237428 -0.437594,-0.229734 6.352822,-0.229734 h 6.421618 l 0.133587,0.288641 c 0.07347,0.158752 0.173621,0.412344 0.222552,0.563537 0.212841,0.65762 0.316628,1.009717 0.383522,1.301077 0.03932,0.171298 0.08678,0.336312 0.105455,0.366698 0.05035,0.08194 0.245026,1.00663 0.336757,1.599596 0.04411,0.285125 0.09132,0.5296 0.104925,0.543277 0.01359,0.01368 1.25e-4,0.0711 -0.02994,0.127597 -0.05284,0.09929 -0.241975,0.10273 -5.654795,0.10273 H 34.945858 Z M 1.5790608,14.953822 c -0.083384,-0.04693 -0.091577,-0.257483 -0.091577,-2.353443 0,-1.266044 0.014928,-2.341034 0.033182,-2.388865 0.030176,-0.07908 1.8556702,-0.08697 20.1403192,-0.08697 h 20.107139 l 0.201338,0.233662 c 0.500357,0.58069 1.663945,2.468533 2.177229,3.532417 0.145891,0.302386 0.302412,0.624986 0.347824,0.716889 0.04541,0.0919 0.07328,0.215606 0.06193,0.274896 -0.02035,0.106288 -0.113797,0.107987 -6.661864,0.12109 -3.768144,0.0075 -6.70279,-0.0078 -6.78353,-0.03556 -0.07826,-0.02687 -0.287364,-0.159177 -0.464664,-0.294024 -0.766252,-0.582777 -1.924854,-1.201905 -2.910741,-1.555428 -0.497701,-0.178466 -0.78059,-0.255629 -1.648271,-0.449592 l -0.68333,-0.152753 h -4.892646 -4.892645 l -0.448378,0.182489 c -0.246609,0.10037 -0.591007,0.275414 -0.765331,0.388987 -0.436077,0.284109 -1.050347,0.962902 -1.294859,1.430869 -0.111596,0.213584 -0.244719,0.409968 -0.295829,0.436409 -0.12775,0.06609 -11.1178305,0.06504 -11.2352978,-0.0011 z M 1.5597308,9.2546981 C 1.5165691,9.21129 1.4878393,9.056381 1.4883583,8.8698433 1.4898161,8.2964997 1.594866,7.2668105 1.6701657,7.0855607 1.711097,6.987042 1.7615476,6.7926691 1.78228,6.6536211 1.8030095,6.5145729 1.855084,6.3541695 1.897995,6.2971691 1.940906,6.2401686 1.9767059,6.1564207 1.9775514,6.111063 1.9795923,6.0013831 2.4878414,4.987083 2.6800457,4.709092 L 2.8321,4.489175 19.113244,4.4753379 35.394385,4.4615007 35.701864,4.6366482 c 1.343669,0.7653877 3.081863,2.1800373 4.570242,3.7195493 0.599345,0.6199332 0.789042,0.8568955 0.731947,0.9143162 -0.01644,0.016544 -8.881898,0.0361 -19.700997,0.043457 C 5.0585194,9.3250164 1.6193857,9.3147038 1.5597308,9.254696 Z m 2.1144188,-5.69662 c 0,-0.043405 0.1609117,-0.2227751 0.3575797,-0.3985996 0.9990108,-0.8931276 2.2703712,-1.4951524 3.7150694,-1.7591901 0.5129985,-0.093757 1.0668059,-0.09991 8.9926283,-0.09991 9.155985,0 8.96881,-0.00529 10.878619,0.3072193 1.432162,0.2343471 3.144673,0.7000533 4.427981,1.2041618 0.165367,0.064959 0.393619,0.1526599 0.507226,0.1948916 0.341888,0.127088 1.132767,0.5350751 1.132767,0.5843541 0,0.025296 -6.752672,0.045991 -15.005935,0.045991 -13.0021323,0 -15.0059354,-0.010538 -15.0059354,-0.078918 z"
     id="path1" /></svg>
