<?xml version="1.0" encoding="UTF-8" standalone="no"?>
<svg
   fill="none"
   viewBox="0 0 48 48"
   height="256"
   width="256"
   version="1.1"
   id="svg6"
   sodipodi:docname="doyo.svg"
   inkscape:version="1.4 (86a8ad7, 2024-10-11)"
   xml:space="preserve"
   xmlns:inkscape="http://www.inkscape.org/namespaces/inkscape"
   xmlns:sodipodi="http://sodipodi.sourceforge.net/DTD/sodipodi-0.dtd"
   xmlns="http://www.w3.org/2000/svg"
   xmlns:svg="http://www.w3.org/2000/svg"><defs
     id="defs10" /><sodipodi:namedview
     id="namedview8"
     pagecolor="#ffffff"
     bordercolor="#666666"
     borderopacity="1.0"
     inkscape:showpageshadow="2"
     inkscape:pageopacity="0.0"
     inkscape:pagecheckerboard="true"
     inkscape:deskcolor="#d1d1d1"
     showgrid="true"
     inkscape:zoom="2"
     inkscape:cx="37.25"
     inkscape:cy="124.75"
     inkscape:current-layer="svg6"
     showguides="true"
     inkscape:window-width="2560"
     inkscape:window-height="1334"
     inkscape:window-x="-11"
     inkscape:window-y="-11"
     inkscape:window-maximized="1"><inkscape:grid
       type="xygrid"
       id="grid239"
       units="px"
       spacingx="1.5"
       spacingy="1.5"
       originx="0"
       originy="0" /></sodipodi:namedview><path
     style="fill:#000000;stroke-width:0.190763"
     d="M 0,24 V 17.52209 H 2.9152404 5.830482 l 0.813457,0.441142 c 0.4474018,0.242626 1.0409734,0.767607 1.3190457,1.166621 l 0.5055854,0.725482 0.073657,3.772783 0.073657,3.772783 -0.5215771,1.072151 C 7.8074466,29.062738 7.1807319,29.755063 6.7016139,30.011554 L 5.8304857,30.477907 H 2.9152504 1.0065851e-5 Z m 6.8448592,4.235554 0.7389356,-0.946769 v -3.237379 c 0,-3.776969 -0.075966,-4.128246 -1.0292526,-4.75987 L 5.8393493,18.817672 H 3.4252613 1.0111722 V 24 29.182327 h 2.5473763 2.5473789 z m 5.0664938,1.631696 c -0.470086,-0.320924 -1.006399,-0.934267 -1.191811,-1.362977 l -0.337107,-0.779477 -0.0089,-3.907119 -0.0089,-3.90712 0.695182,-0.849734 c 1.835104,-2.243076 5.678249,-2.067025 7.148281,0.32746 l 0.498712,0.812332 v 3.6972 3.697205 l -0.368053,0.911924 c -0.202431,0.501561 -0.759968,1.150213 -1.238975,1.441444 l -0.870917,0.529519 -1.731348,-0.01346 -1.731347,-0.01346 z m 5.118091,-1.356224 0.666076,-0.671299 V 24.167232 20.494734 L 16.917744,19.656205 16.13997,18.817672 h -1.333245 c -3.053061,0 -3.431035,0.604761 -3.431035,5.489691 v 3.588905 l 0.821579,0.64182 0.821578,0.641817 1.672261,0.0012 1.672263,0.0012 z m 15.999292,1.514165 c -0.534569,-0.255061 -1.24555,-0.793086 -1.579957,-1.19561 l -0.608016,-0.73186 v -4.287336 -4.287336 l 0.76623,-0.826086 c 1.819746,-1.961893 4.726684,-1.997439 6.458826,-0.07898 l 0.919705,1.018634 -0.03911,4.136729 c -0.04563,4.825191 -0.05304,4.861189 -1.185274,5.75777 l -0.866051,0.685796 -1.447202,0.136002 -1.4472,0.136003 z m 3.740438,-1.301286 c 1.207668,-0.646525 1.402588,-1.336643 1.402588,-4.96591 v -3.199649 l -0.746558,-0.916425 -0.746562,-0.916429 -1.238021,-0.152418 -1.238019,-0.15242 -1.175333,0.666138 -1.175334,0.666139 0.0037,3.823983 c 0.0023,2.103191 0.09112,3.999869 0.197754,4.214838 0.603909,1.217443 3.217612,1.7341 4.715614,0.932149 z m -8.793399,1.214179 c -0.09269,-0.118759 -0.16853,-2.815193 -0.16853,-5.992067 v -5.776134 h 0.505586 0.505587 v 5.992065 5.992064 h -0.337057 c -0.185382,0 -0.412896,-0.09717 -0.505586,-0.215928 z m -6.993944,-3.34692 -0.505588,-0.647792 v -3.886746 -3.886743 h 0.497566 0.497562 l 0.07122,3.805772 0.07122,3.805767 2.338337,0.09314 2.338335,0.09314 v 0.635638 0.635637 h -2.401535 -2.401537 z m 22.113015,-0.903116 c -0.657473,-0.588152 -2.566058,-3.837787 -2.465721,-4.198235 0.198059,-0.711509 0.613468,-0.441765 1.65548,1.074987 l 1.016668,1.479855 1.225562,-1.546661 1.225559,-1.546662 0.285461,0.365748 0.285454,0.365743 -0.515497,0.915666 c -0.868475,1.542664 -2.440695,3.333124 -2.712966,3.089559 z m 2.299577,-6.407667 c -0.566905,-0.72636 -0.490731,-1.88037 0.17154,-2.598804 l 0.568783,-0.617013 -0.442388,0.673293 c -0.555069,0.844792 -0.563377,1.695562 -0.02403,2.459184 0.510665,0.722987 0.280073,0.793147 -0.273918,0.08334 z m 1.393371,0.417327 c 0.05793,-0.05042 0.332844,-0.305475 0.610916,-0.566818 l 0.505588,-0.475166 -0.346942,0.566818 c -0.19082,0.311751 -0.465733,0.566819 -0.610918,0.566819 -0.145185,0 -0.216575,-0.04123 -0.158644,-0.09166 z M 46.037673,18.088909 46.008333,16.8743 h 0.480308 0.480307 l -0.01693,1.214609 c -0.0092,0.668033 -0.06314,0.959539 -0.119649,0.647791 -0.0565,-0.311749 -0.199814,-0.566817 -0.318459,-0.566817 -0.118645,0 -0.267746,0.255068 -0.331328,0.566817 -0.06358,0.31175 -0.128808,0.02024 -0.144936,-0.647791 z m 0.729056,-0.566819 c 0,-0.178138 -0.113761,-0.323893 -0.252794,-0.323893 -0.139036,0 -0.252792,0.145757 -0.252792,0.323893 0,0.178146 0.113761,0.323897 0.252792,0.323897 0.139036,0 0.252794,-0.145758 0.252794,-0.323897 z m 1.031132,0.458854 0.01996,-0.620802 0.132773,0.425114 c 0.07303,0.233814 0.06405,0.513172 -0.01996,0.6208 -0.084,0.107631 -0.143747,-0.08367 -0.132773,-0.425112 z m -0.637058,-1.278893 c -0.26989,-0.261549 -0.369134,-0.47554 -0.22055,-0.47554 0.14859,0 0.411773,0.21863 0.584856,0.485842 0.39365,0.607729 0.269815,0.60423 -0.364306,-0.01024 z"
     id="path50625" /></svg>
