<?xml version="1.0" encoding="UTF-8" standalone="no"?>
<svg
   fill="none"
   viewBox="0 0 48 48"
   height="256"
   width="256"
   version="1.1"
   id="svg6"
   sodipodi:docname="facebook.svg"
   inkscape:version="1.2.1 (9c6d41e410, 2022-07-14)"
   xml:space="preserve"
   xmlns:inkscape="http://www.inkscape.org/namespaces/inkscape"
   xmlns:sodipodi="http://sodipodi.sourceforge.net/DTD/sodipodi-0.dtd"
   xmlns="http://www.w3.org/2000/svg"
   xmlns:svg="http://www.w3.org/2000/svg"><defs
     id="defs10" /><sodipodi:namedview
     id="namedview8"
     pagecolor="#ffffff"
     bordercolor="#666666"
     borderopacity="1.0"
     inkscape:showpageshadow="2"
     inkscape:pageopacity="0.0"
     inkscape:pagecheckerboard="true"
     inkscape:deskcolor="#d1d1d1"
     showgrid="true"
     inkscape:zoom="1.1449053"
     inkscape:cx="248.49217"
     inkscape:cy="190.40876"
     inkscape:current-layer="svg6"
     showguides="false"
     inkscape:window-width="2560"
     inkscape:window-height="1316"
     inkscape:window-x="-12"
     inkscape:window-y="-12"
     inkscape:window-maximized="1"><inkscape:grid
       type="xygrid"
       id="grid239"
       units="px"
       spacingx="1.5"
       spacingy="1.5" /></sodipodi:namedview><path
     style="fill:#507ab7;stroke-width:0.176719;fill-opacity:1"
     d="M 17.831612,47.538752 C 12.392939,46.093862 7.665805,42.737019 4.244454,37.890215 1.0474087,33.36118 -0.33606279,28.107136 0.06866584,22.031772 0.45542072,16.226282 2.7192396,11.351412 7.0838273,6.9254494 10.451041,3.5108847 14.305067,1.3656473 18.888063,0.35494214 c 2.145966,-0.47325619 8.066391,-0.47325619 10.212357,0 7.224592,1.59326336 13.368891,6.49276196 16.650218,13.27696286 1.575567,3.257528 2.244333,6.356705 2.249338,10.423866 0.0085,6.701897 -2.234397,12.221253 -6.92133,17.034098 -2.470968,2.537346 -4.766724,4.125852 -7.776755,5.380984 C 31.909461,47.051473 28.69064,48 28.112737,48 27.9071,48 27.867895,46.650872 27.867895,39.575179 v -8.424823 h 2.776727 2.776719 l 0.482267,-3.236904 c 0.26524,-1.780298 0.481545,-3.376579 0.480662,-3.547293 -0.0019,-0.284365 -0.274696,-0.310388 -3.258986,-0.310388 h -3.257389 l 0.0028,-2.970859 c 0.0028,-2.741388 0.03324,-3.025656 0.396174,-3.680315 0.644605,-1.162868 1.639547,-1.545491 4.285734,-1.648179 l 2.18214,-0.08469 V 12.78111 c 0,-3.3564428 0.292669,-2.9799832 -2.55309,-3.2839966 -5.558132,-0.5937744 -9.165983,0.8292396 -10.933561,4.3124396 -0.766945,1.51135 -0.946091,2.767674 -0.948909,6.654572 l -0.0028,3.591636 h -3.081316 -3.081314 v 3.547293 3.547292 h 3.081314 3.081316 V 39.575179 48 L 19.900218,47.9916 C 19.682326,47.987 18.751325,47.78319 17.83133,47.538776 Z"
     id="path302" /></svg>
