<?xml version="1.0" encoding="UTF-8" standalone="no"?>
<svg
   fill="none"
   viewBox="0 0 48 48"
   height="256"
   width="256"
   version="1.1"
   id="svg6"
   sodipodi:docname="git.svg"
   inkscape:version="1.2.1 (9c6d41e410, 2022-07-14)"
   xmlns:inkscape="http://www.inkscape.org/namespaces/inkscape"
   xmlns:sodipodi="http://sodipodi.sourceforge.net/DTD/sodipodi-0.dtd"
   xmlns="http://www.w3.org/2000/svg"
   xmlns:svg="http://www.w3.org/2000/svg">
  <defs
     id="defs10" />
  <sodipodi:namedview
     id="namedview8"
     pagecolor="#ffffff"
     bordercolor="#666666"
     borderopacity="1.0"
     inkscape:showpageshadow="2"
     inkscape:pageopacity="0.0"
     inkscape:pagecheckerboard="true"
     inkscape:deskcolor="#d1d1d1"
     showgrid="true"
     inkscape:zoom="1.6191406"
     inkscape:cx="86.465622"
     inkscape:cy="101.59711"
     inkscape:current-layer="svg6"
     showguides="false"
     inkscape:window-width="1920"
     inkscape:window-height="730"
     inkscape:window-x="-6"
     inkscape:window-y="-6"
     inkscape:window-maximized="1">
    <inkscape:grid
       type="xygrid"
       id="grid239"
       units="px"
       spacingx="1.5"
       spacingy="1.5" />
  </sodipodi:namedview>
  <path
     id="rect7662"
     style="fill:#fd3131;stroke-width:0.9375;stroke-linecap:round;stroke-linejoin:round;fill-opacity:1"
     d="m 23.829346,2.0013428 c 0.05426,-0.0019 0.108237,-0.00175 0.162597,0 0.559073,0.018346 1.122707,0.2289439 1.662598,0.6295166 0.471813,0.3495832 5.176966,4.9802205 10.456787,10.2897946 10.258082,10.315942 10.168914,10.206682 9.754395,11.908448 -0.1645,0.669491 -19.561429,20.317045 -20.607056,20.871826 -0.76752,0.407221 -1.657444,0.398167 -2.483643,-0.02563 l -0.0011,-0.0011 C 22.03647,45.295434 3.6382172,27.023347 2.6392822,25.677612 1.9592949,24.76157 1.8114517,23.69361 2.2452393,22.835083 5.9437858,18.907626 8.8658936,15.604252 12.670166,11.804077 c 3.97452,-4.0969368 7.158939,-6.8013088 10.03894,-9.4947508 0.363832,-0.1928159 0.740465,-0.2950056 1.12024,-0.3079834 z"
     sodipodi:nodetypes="cccccsccccccc" />
  <path
     id="rect897"
     style="fill:#ffffff;fill-opacity:1;stroke:none;stroke-width:0.363088;stroke-linejoin:round;stroke-opacity:0.580986"
     d="m 15.687278,8.7922789 4.933694,4.8930241 c -0.242151,0.533201 -0.36759,1.112481 -0.368042,1.698486 4.39e-4,1.676401 1.016838,3.183788 2.567138,3.806763 l -0.05969,10.718628 c -1.572026,0.611803 -2.60792,2.130275 -2.608521,3.822876 0,2.26524 1.829016,4.101562 4.08545,4.101562 2.256434,0 4.085815,-1.836322 4.085815,-4.101562 -4.7e-5,-1.676335 -1.016346,-3.18411 -2.566406,-3.807495 l 0.05969,-10.717896 c 0.08158,-0.03175 0.161946,-0.06634 0.241333,-0.103271 l 3.528076,3.516357 c -0.219644,0.511221 -0.333213,1.061903 -0.333984,1.618652 0,2.265241 1.829383,4.101563 4.085815,4.101563 2.256435,0 4.08545,-1.836322 4.08545,-4.101563 0,-2.265241 -1.829015,-4.101562 -4.08545,-4.101562 -0.565516,7.19e-4 -1.124948,0.119353 -1.642456,0.348266 l -3.572387,-3.55957 c 0.198402,-0.489663 0.300932,-1.013128 0.301391,-1.541748 0,-2.265242 -1.82938,-4.101562 -4.085815,-4.101562 -0.536831,5.05e-4 -1.068356,0.107032 -1.564087,0.313842 L 17.8767,6.7268691 C 17.100806,7.415339 16.386664,8.103809 15.687278,8.7922789 Z"
     sodipodi:nodetypes="ccccccsccccccsscccccccc" />
</svg>
