<?xml version="1.0" encoding="UTF-8" standalone="no"?>
<svg
   fill="none"
   viewBox="0 0 48 48"
   height="256"
   width="256"
   version="1.1"
   id="svg6"
   sodipodi:docname="gcc.svg"
   inkscape:version="1.2.1 (9c6d41e410, 2022-07-14)"
   xml:space="preserve"
   xmlns:inkscape="http://www.inkscape.org/namespaces/inkscape"
   xmlns:sodipodi="http://sodipodi.sourceforge.net/DTD/sodipodi-0.dtd"
   xmlns="http://www.w3.org/2000/svg"
   xmlns:svg="http://www.w3.org/2000/svg"><defs
     id="defs10" /><sodipodi:namedview
     id="namedview8"
     pagecolor="#ffffff"
     bordercolor="#666666"
     borderopacity="1.0"
     inkscape:showpageshadow="2"
     inkscape:pageopacity="0.0"
     inkscape:pagecheckerboard="true"
     inkscape:deskcolor="#d1d1d1"
     showgrid="true"
     inkscape:zoom="1.1449053"
     inkscape:cx="46.292038"
     inkscape:cy="106.12231"
     inkscape:current-layer="svg6"
     showguides="false"
     inkscape:window-width="1920"
     inkscape:window-height="730"
     inkscape:window-x="-6"
     inkscape:window-y="-6"
     inkscape:window-maximized="1"><inkscape:grid
       type="xygrid"
       id="grid239"
       units="px"
       spacingx="1.5"
       spacingy="1.5" /></sodipodi:namedview><path
     id="path27868"
     style="fill:#606668;fill-opacity:1;stroke-width:0.112575"
     d="m 23.595376,14.621648 c -0.917478,0.009 -1.846365,0.0433 -2.150984,0.103023 -2.21787,0.705656 -3.893625,1.709555 -4.690873,3.48195 -0.12644,0.0968 -0.550488,1.393732 -0.551088,1.658642 -2.776432,2.155153 -13.115004,0.609465 -9.9138038,4.941176 0.7676043,0.607957 1.9768378,1.215406 2.8741841,1.443503 0.3799787,0.0966 1.1620797,0.170456 1.8034497,0.170457 1.853983,0 3.308729,-0.515685 4.764103,-1.688431 l 0.671484,-0.540746 c -0.03707,0.63658 0.315976,1.033746 -0.127429,1.414956 -2.30529,0.412539 -1.773071,9.080278 0.244515,9.147566 0.494832,3.926347 0.428068,8.220282 1.802209,10.153344 0.427534,0.47322 0.827677,0.718207 1.540732,0.943717 0.310377,0.09815 1.400359,0.141353 3.733501,0.148943 2.333141,-0.0076 3.423123,-0.05079 3.733502,-0.148943 0.713053,-0.22551 1.113197,-0.470497 1.54073,-0.943717 1.374141,-1.933062 1.307377,-6.226997 1.802209,-10.153344 2.017587,-0.06729 2.549806,-8.735027 0.244515,-9.147566 -0.383349,-0.816469 -0.184955,-0.369403 -0.127429,-1.414956 l 0.671484,0.540746 c 1.455374,1.172746 2.91012,1.688431 4.764104,1.688431 0.64137,-1e-6 1.42347,-0.07386 1.803449,-0.170457 0.897346,-0.228097 2.106579,-0.835546 2.874184,-1.443503 3.201201,-4.331711 -7.137371,-2.786023 -9.913803,-4.941176 -6e-4,-0.26491 -0.424649,-1.561844 -0.551089,-1.658642 -0.797248,-1.772395 -2.473003,-2.776294 -4.690873,-3.48195 -0.304619,-0.05972 -1.233506,-0.09398 -2.150983,-0.103023 z"
     sodipodi:nodetypes="ccccccscccccscccccccscccccc" /><path
     id="path27881"
     style="fill:#bb852e;fill-opacity:1;stroke-width:0.112575"
     d="m 14.559768,1.999875 c 0.961069,0.5015416 -1.954137,2.8640314 -2.774994,3.7159902 -1.44149,1.8314458 -4.314713,4.2592899 -5.0695664,6.5024628 -0.2424358,2.387575 2.5693296,0.289554 3.5912104,-0.167408 1.907373,-0.986546 3.965757,-2.30617 6.21139,-1.664667 2.109743,0.407045 3.634195,2.086707 4.52304,3.950905 0.835878,1.254976 1.470883,3.027253 0.37746,4.339564 -1.257751,1.618594 -4.481646,1.652564 -5.159858,-0.29997 -0.549389,-1.188987 -0.756725,-2.966248 -2.916076,-1.846143 -2.227161,1.15528 -3.9016667,2.843486 -6.5706147,2.213565 C 3.5963135,18.205976 1.394285,14.78589 2.148646,11.667031 2.6468102,9.2253081 7.051397,6.2565237 8.9030864,4.8399602 10.655954,3.7002955 12.437312,2.2976949 14.559768,1.999875 Z"
     sodipodi:nodetypes="ccscssssscccc" /><path
     id="path27961"
     style="fill:#bb852e;fill-opacity:1;stroke-width:0.112575"
     d="m 32.630982,1.999875 c -0.96107,0.5015416 1.954136,2.8640314 2.774993,3.7159902 1.44149,1.8314458 4.314713,4.2592899 5.069567,6.5024628 0.242435,2.387575 -2.56933,0.289554 -3.591211,-0.167408 -1.907373,-0.986546 -3.965757,-2.30617 -6.21139,-1.664667 -2.109743,0.407045 -3.634195,2.086707 -4.523039,3.950905 -0.835879,1.254976 -1.470884,3.027253 -0.377461,4.339564 1.257751,1.618594 4.481646,1.652564 5.159858,-0.29997 0.549389,-1.188987 0.756725,-2.966248 2.916076,-1.846143 2.227161,1.15528 3.901667,2.843486 6.570615,2.213565 3.175446,-0.538198 5.377474,-3.958284 4.623113,-7.077143 C 44.543939,9.2253081 40.139352,6.2565237 38.287663,4.8399602 36.534795,3.7002955 34.753437,2.2976949 32.630982,1.999875 Z"
     sodipodi:nodetypes="ccscssssscccc" /><ellipse
     style="fill:#ffffff;fill-opacity:1;stroke:none;stroke-width:0.021183;stroke-linejoin:round;stroke-dasharray:none;stroke-opacity:1"
     id="path28016"
     cx="18.258614"
     cy="29.83979"
     rx="2.0114894"
     ry="3.9085002" /><ellipse
     style="fill:#ffffff;fill-opacity:1;stroke:none;stroke-width:0.021183;stroke-linejoin:round;stroke-dasharray:none;stroke-opacity:1"
     id="ellipse28018"
     cx="28.996239"
     cy="29.83979"
     rx="2.0114894"
     ry="3.9085002" /><ellipse
     style="fill:#606668;fill-opacity:1;stroke:none;stroke-width:0.021183;stroke-linejoin:round;stroke-dasharray:none;stroke-opacity:1"
     id="path28137"
     cx="18.435303"
     cy="30.045746"
     rx="0.74007821"
     ry="1.8386301" /><ellipse
     style="fill:#606668;fill-opacity:1;stroke:none;stroke-width:0.021183;stroke-linejoin:round;stroke-dasharray:none;stroke-opacity:1"
     id="ellipse28139"
     cx="28.603136"
     cy="30.045746"
     rx="0.74007821"
     ry="1.8386301" /></svg>
