<?xml version="1.0" encoding="UTF-8" standalone="no"?>
<svg
   fill="none"
   viewBox="0 0 48 48"
   height="256"
   width="256"
   version="1.1"
   id="svg6"
   sodipodi:docname="jrpanel.svg"
   inkscape:version="1.4 (86a8ad7, 2024-10-11)"
   xml:space="preserve"
   xmlns:inkscape="http://www.inkscape.org/namespaces/inkscape"
   xmlns:sodipodi="http://sodipodi.sourceforge.net/DTD/sodipodi-0.dtd"
   xmlns="http://www.w3.org/2000/svg"
   xmlns:svg="http://www.w3.org/2000/svg"><defs
     id="defs10" /><sodipodi:namedview
     id="namedview8"
     pagecolor="#ffffff"
     bordercolor="#666666"
     borderopacity="1.0"
     inkscape:showpageshadow="2"
     inkscape:pageopacity="0.0"
     inkscape:pagecheckerboard="true"
     inkscape:deskcolor="#d1d1d1"
     showgrid="true"
     inkscape:zoom="1.6191406"
     inkscape:cx="36.130278"
     inkscape:cy="236.23643"
     inkscape:current-layer="svg6"
     showguides="false"
     inkscape:window-width="2560"
     inkscape:window-height="1334"
     inkscape:window-x="-11"
     inkscape:window-y="-11"
     inkscape:window-maximized="1"><inkscape:grid
       type="xygrid"
       id="grid239"
       units="px"
       spacingx="1.5"
       spacingy="1.5"
       originx="0"
       originy="0" /></sodipodi:namedview><path
     style="fill:#33a9df;stroke-width:4.2867"
     d="m 16.29971,46.677417 c -2.184071,-0.753254 -5.991183,-2.663452 -5.581541,-2.899649 0.856811,-0.494031 1.831807,-0.255915 3.932613,-1.631932 1.483454,-0.97166 3.647412,-2.818967 4.632936,-4.399352 1.692831,-2.714627 1.791862,-3.738476 1.791862,-18.525654 V 3.5686077 H 19.063494 17.051409 L 16.648991,18.957944 C 16.260224,33.824599 16.18105,34.416762 14.317345,36.3929 13.256268,37.517984 11.107721,38.85995 9.5427926,39.375038 6.8487227,40.261777 6.578397,40.178658 4.4575747,37.811405 -0.32485423,32.473278 -1.4326068,21.92085 1.9814105,14.223566 6.5991639,3.8123436 19.194869,-2.2380163 29.981148,0.77386286 32.749014,1.546741 35.812351,2.3353775 35.821275,3.3677627 35.825996,3.9024576 34.816077,3.8917595 33.047833,5.1869993 30.983409,6.699189 30.529079,6.6590038 29.913867,4.7258341 29.756292,4.2306524 30.06934,3.4863665 29.678985,3.4747222 c -1.28412,-0.0381 -2.431227,-0.062545 -3.677204,-0.019264 -0.241021,1.5652692 -0.176249,5.3625656 -0.316096,14.6489088 -0.184061,12.219948 -0.02361,14.697466 1.006042,15.549833 0.978103,0.80958 1.468271,0.812533 2.432222,0.01456 0.944408,-0.781577 1.207252,-2.998951 1.207252,-10.184418 0,-5.051906 0.372928,-9.880208 0.828692,-10.729561 1.079268,-2.011229 4.929355,-3.9689289 7.805439,-3.9689289 3.473583,0 5.571235,1.9696779 7.487136,7.0303719 7.057994,18.643086 -11.249392,37.380519 -30.152732,30.86103 z"
     id="path1"
     sodipodi:nodetypes="ssssscccsssssssssscsccsssss" /></svg>
