<?xml version="1.0" encoding="UTF-8" standalone="no"?>
<svg
   fill="none"
   viewBox="0 0 48 48"
   height="256"
   width="256"
   version="1.1"
   id="svg6"
   sodipodi:docname="makerfaire.svg"
   inkscape:version="1.4 (86a8ad7, 2024-10-11)"
   xml:space="preserve"
   xmlns:inkscape="http://www.inkscape.org/namespaces/inkscape"
   xmlns:sodipodi="http://sodipodi.sourceforge.net/DTD/sodipodi-0.dtd"
   xmlns="http://www.w3.org/2000/svg"
   xmlns:svg="http://www.w3.org/2000/svg"><defs
     id="defs10" /><sodipodi:namedview
     id="namedview8"
     pagecolor="#ffffff"
     bordercolor="#666666"
     borderopacity="1.0"
     inkscape:showpageshadow="2"
     inkscape:pageopacity="0.0"
     inkscape:pagecheckerboard="true"
     inkscape:deskcolor="#d1d1d1"
     showgrid="true"
     inkscape:zoom="3.2382812"
     inkscape:cx="107.61882"
     inkscape:cy="157.95416"
     inkscape:current-layer="svg6"
     showguides="false"
     inkscape:window-width="2560"
     inkscape:window-height="1334"
     inkscape:window-x="-11"
     inkscape:window-y="-11"
     inkscape:window-maximized="1"><inkscape:grid
       type="xygrid"
       id="grid239"
       units="px"
       spacingx="1.5"
       spacingy="1.5"
       originx="0"
       originy="0"
       visible="true" /></sodipodi:namedview><path
     id="path2"
     style="fill:#ff5454;fill-opacity:1;stroke-width:0.613791"
     d="M 23.99707,0 C 18.389572,0 13.843872,4.6758899 13.843872,10.443893 h 20.306763 7.32e-4 l -0.0011,-0.01038 C 34.146354,6.3214369 31.83132,2.7672244 28.469971,1.0673837 L 28.197144,0.90753575 H 28.13562 C 26.871274,0.32606379 25.47159,1.4178376e-7 23.99707,0 Z m -5.527588,4.4115806 a 2.34375,2.3736121 0 0 1 2.34375,2.3736121 2.34375,2.3736121 0 0 1 -2.34375,2.3736121 2.34375,2.3736121 0 0 1 -2.34375,-2.3736121 2.34375,2.3736121 0 0 1 2.34375,-2.3736121 z m 11.04712,0 a 2.34375,2.3736121 0 0 1 2.34375,2.3736121 2.34375,2.3736121 0 0 1 -2.34375,2.3736121 2.34375,2.3736121 0 0 1 -2.34375,-2.3736121 2.34375,2.3736121 0 0 1 2.34375,-2.3736121 z M 24.056396,11.32658 c -9.246115,0 -9.699942,0.01 -10.231201,0.22438 -0.726518,0.293233 -1.493381,1.041415 -1.822265,1.777243 -0.256803,0.574792 -0.263305,0.669893 -0.264405,4.034399 l -0.0011,3.445446 2.840698,-0.03152 2.840698,-0.03115 0.07361,-0.765491 c 0.235204,-2.438883 1.863691,-4.580901 4.235962,-5.572054 0.792816,-0.331249 0.978201,-0.362273 2.21521,-0.367539 1.13107,-0.0049 1.473072,0.03876 2.108642,0.268515 2.416738,0.873618 4.228838,3.200009 4.463379,5.730048 l 0.06555,0.706521 2.840698,0.03115 2.840698,0.03152 V 17.47164 c 0,-3.780652 -0.04475,-4.056437 -0.800171,-4.954545 -0.248544,-0.29549 -0.729759,-0.67577 -1.088379,-0.860063 l -0.6427,-0.330452 z m -13.162719,2.943279 -1.4062502,0.01224 C 7.8983018,14.295881 7.0332234,14.487047 5.9044189,15.07392 4.4547834,15.827596 3.245293,17.116294 2.409668,18.797154 1.7018792,20.220872 1.5,21.168571 1.5,23.068172 v 1.621103 h 1.2374268 1.2374267 v 1.295102 1.295102 H 3.6038818 3.2329102 l -0.366211,3.208085 c -0.2014393,1.764495 -0.4317849,3.790914 -0.5119629,4.503187 -0.080178,0.712274 -0.1037401,1.323848 -0.052368,1.359264 0.1480825,0.102056 8.0352267,0.09961 8.1932367,-0.0026 0.112347,-0.07266 0.03875,-1.027143 -0.351196,-4.55066 l -0.4936521,-4.458682 -0.362915,-0.03672 -0.362915,-0.03709 V 25.97695 24.689266 h 1.0136718 1.0136723 l -0.0293,-5.209708 z m 26.212646,0 -0.0293,5.209708 -0.0293,5.209708 h 1.013672 1.013672 v 1.287684 1.287313 l -0.362549,0.03709 -0.362915,0.03672 -0.487793,4.400084 c -0.268261,2.420053 -0.462426,4.469383 -0.431396,4.553997 0.04526,0.123413 0.868605,0.14846 4.166382,0.126099 2.26034,-0.01532 4.128639,-0.05138 4.152099,-0.08011 0.03809,-0.04671 -0.124808,-1.584572 -0.775268,-7.322222 L 44.776972,27.279484 H 44.397211 44.01745 l 0.03186,-1.265803 0.03186,-1.265432 1.209594,-0.03338 L 46.5,24.681115 v -1.566212 c 0,-1.879028 -0.219902,-2.930502 -0.898682,-4.295868 -0.846704,-1.703148 -2.049283,-2.987893 -3.505737,-3.745115 -1.113259,-0.578791 -1.991139,-0.771901 -3.583008,-0.788854 z m -11.276001,2.053175 -0.876343,3.242577 c -0.482044,1.783419 -0.906609,3.21151 -0.943359,3.173593 -0.03676,-0.03792 -0.474622,-1.482293 -0.973022,-3.209569 L 22.131226,16.38905 h -1.231202 -1.231201 l -0.02966,4.503187 -0.0293,4.503558 h 0.843018 0.843384 l 0.03003,-2.91398 c 0.0271,-2.624604 0.04445,-2.861196 0.177246,-2.383996 0.08109,0.291385 0.475916,1.60453 0.877075,2.91843 l 0.729126,2.389189 0.84961,-0.03449 0.849975,-0.03412 0.783692,-2.590205 c 0.431083,-1.424549 0.818471,-2.66961 0.860961,-2.766742 0.04249,-0.09713 0.09071,1.08164 0.1073,2.619504 l 0.0304,2.796042 h 0.899048 0.899414 l -0.0293,-4.503188 -0.02966,-4.503187 -1.250244,-0.03301 z m -14.092895,5.187455 0.0026,3.149486 c 0.0023,2.910794 0.01971,3.189433 0.231079,3.679099 0.443777,1.02809 1.405441,1.811457 2.457642,2.002365 0.283361,0.05141 4.742368,0.08548 9.908935,0.07566 l 9.393677,-0.0178 0.643067,-0.330452 c 0.358621,-0.184293 0.839835,-0.56457 1.088379,-0.860064 0.745351,-0.886139 0.799804,-1.20407 0.799804,-4.658213 v -3.040078 h -2.848755 -2.849121 l -0.129272,0.735819 c -0.43545,2.474936 -2.427241,4.638475 -4.863281,5.283142 C 23.26326,28.140479 20.58314,27.270436 19.04264,25.409892 18.440329,24.682448 17.721875,23.15227 17.557288,22.24594 l -0.133667,-0.735448 h -2.842896 z m 2.362427,9.653926 v 2.570547 c 0,1.413755 0.03382,2.605629 0.07507,2.648803 0.04125,0.04317 1.61055,0.07863 3.487427,0.07863 h 3.412719 v -2.649174 -2.648802 h -3.487427 z m 16.314697,0 c -2.713861,0 -3.490817,0.03279 -3.495117,0.147237 -0.0042,0.118763 -1.06e-4,5.013537 0.0044,5.122923 0.001,0.01713 1.557872,0.01713 3.460327,0 l 3.459595,-0.03115 0.03003,-2.619503 0.0304,-2.619503 z M 6.4500732,37.168911 c -3.7482183,0 -4.1627197,0.01878 -4.1627197,0.189147 0,0.372312 0.6718091,1.652636 1.2030029,2.292761 C 4.7310039,41.14589 6.149937,41.967854 8.25,42.40866 c 0.4021877,0.08443 1.0982811,0.158593 1.546875,0.16467 l 0.815552,0.01113 v -2.707772 -2.707773 z m 10.6805418,0 c -2.285585,0 -4.155761,0.04417 -4.155761,0.09828 0,0.117187 -1.210569,7.259793 -1.295289,7.642289 l -0.05896,0.264806 h 5.136475 5.136475 l -0.06812,-0.73582 C 21.787925,44.033765 21.678864,42.45795 21.583004,40.936275 21.487154,39.414599 21.3812,37.944417 21.34753,37.669221 l -0.06116,-0.500313 z m 9.579712,0 -0.05713,0.382374 c -0.03136,0.210444 -0.135133,1.627812 -0.230713,3.149487 -0.09558,1.521676 -0.204969,3.150677 -0.242797,3.62013 l -0.06848,0.853387 h 5.075684 5.075683 v -0.26629 c 0,-0.146587 -0.222549,-1.563955 -0.494385,-3.149486 -0.271842,-1.585531 -0.55845,-3.266763 -0.63684,-3.736214 L 34.988893,37.168911 H 30.84961 Z m 10.677246,0 v 2.724833 2.724832 l 1.096802,-0.06861 c 3.172366,-0.198104 5.763649,-1.805876 6.896851,-4.279549 0.552127,-1.205249 0.912449,-1.101504 -3.831299,-1.101504 z M 11.296509,45.761017 10.36377,46.504625 C 9.5803437,47.129436 9.425493,47.308644 9.395874,47.624301 L 9.3607178,48 h 6.5925292 6.592896 l -0.03259,-1.088894 -0.03223,-1.089266 -5.592407,-0.03041 z m 14.166137,0.0022 V 46.881435 48 h 6.588135 6.588501 l -0.03516,-0.376811 C 38.57436,47.305081 38.422569,47.1314 37.627808,46.504996 l -0.941162,-0.741754 h -5.612183 z" /></svg>
