<?xml version="1.0" encoding="UTF-8" standalone="no"?>
<svg
   fill="none"
   viewBox="0 0 48 48"
   height="256"
   width="256"
   version="1.1"
   id="svg6"
   sodipodi:docname="nxp.svg"
   inkscape:version="1.2.1 (9c6d41e410, 2022-07-14)"
   xmlns:inkscape="http://www.inkscape.org/namespaces/inkscape"
   xmlns:sodipodi="http://sodipodi.sourceforge.net/DTD/sodipodi-0.dtd"
   xmlns="http://www.w3.org/2000/svg"
   xmlns:svg="http://www.w3.org/2000/svg">
  <defs
     id="defs10" />
  <sodipodi:namedview
     id="namedview8"
     pagecolor="#ffffff"
     bordercolor="#666666"
     borderopacity="1.0"
     inkscape:showpageshadow="2"
     inkscape:pageopacity="0.0"
     inkscape:pagecheckerboard="true"
     inkscape:deskcolor="#d1d1d1"
     showgrid="true"
     inkscape:zoom="1.1449053"
     inkscape:cx="2.1835867"
     inkscape:cy="132.32535"
     inkscape:current-layer="svg6"
     inkscape:window-width="1920"
     inkscape:window-height="730"
     inkscape:window-x="-6"
     inkscape:window-y="-6"
     inkscape:window-maximized="1">
    <inkscape:grid
       type="xygrid"
       id="grid239"
       units="px"
       spacingx="1.5"
       spacingy="1.5" />
  </sodipodi:namedview>
  <g
     id="g8666"
     transform="matrix(1.5672862,0,0,1.771561,-81.492563,-10.786188)"
     style="stroke-width:0.600135">
    <path
       style="fill:#a9ff53;fill-opacity:1;stroke-width:0.600135"
       d="m 73.605495,24.980792 c -0.06302,-0.101775 -0.816781,-1.333226 -1.675022,-2.736559 -1.160237,-1.897138 -1.555163,-2.562493 -1.53987,-2.594321 0.01131,-0.02354 0.772868,-1.273198 1.692351,-2.77701 l 1.671785,-2.734203 2.794816,0.0091 c 2.01456,0.0066 2.85182,0.0177 2.999004,0.03996 0.7924,0.119801 1.341539,0.307417 1.801556,0.61551 0.251503,0.168441 0.601092,0.539399 0.75701,0.803283 0.221225,0.374413 0.371992,0.8262 0.456201,1.367042 0.05439,0.349342 0.08052,2.30103 0.03683,2.750772 -0.145971,1.50247 -0.837342,2.507384 -1.98669,2.887677 -0.511731,0.169319 -0.390281,0.163727 -3.776768,0.173896 l -3.069193,0.0092 v 1.185349 c 0,0.712785 -0.0094,1.185348 -0.02371,1.185348 -0.01304,0 -0.07527,-0.08327 -0.138295,-0.185045 z m 5.120816,-5.01752 c 0.307297,-0.124031 0.560748,-0.448468 0.671251,-0.859252 0.05491,-0.20413 0.07915,-1.024582 0.03807,-1.288933 -0.07121,-0.458302 -0.303703,-0.718218 -0.770978,-0.861907 -0.122339,-0.03762 -0.392281,-0.04303 -2.517097,-0.05041 l -2.38006,-0.0083 v 1.571312 1.571313 l 2.405584,-0.0071 2.405584,-0.0071 z"
       id="path311"
       sodipodi:nodetypes="sssscccssscsccsssscscsccccccc" />
    <path
       style="fill:#ffcd5c;fill-opacity:1;stroke-width:0.600135"
       d="m 51.996008,19.652774 v -5.513062 h 1.69493 1.69493 l 2.867384,3.342366 2.867385,3.342366 0.01843,-2.353333 c 0.01014,-1.294333 0.02162,-2.786102 0.02552,-3.315042 l 0.0071,-0.961708 1.671785,2.733696 c 0.919482,1.503532 1.670515,2.746952 1.668963,2.763155 -0.0016,0.0162 -0.752307,1.254621 -1.668344,2.752042 -1.145132,1.871919 -1.678919,2.722583 -1.708403,2.722583 -0.02535,0 -1.206221,-1.356245 -2.887591,-3.31642 l -2.844707,-3.316419 -0.0065,3.316419 -0.0065,3.31642 h -1.69721 -1.697213 z"
       id="path309" />
    <path
       style="fill:#77c32f;fill-opacity:1;stroke-width:0.600135"
       d="m 61.209969,25.151053 c 0,-0.0083 0.742626,-1.228712 1.650282,-2.712021 0.907654,-1.483309 1.654922,-2.714605 1.660593,-2.736213 0.0057,-0.02161 -0.428515,-0.756683 -0.964861,-1.6335 -1.083542,-1.771375 -2.372434,-3.880935 -2.389204,-3.910465 -0.006,-0.01053 0.888552,-0.01878 1.987846,-0.01835 l 1.998715,7.89e-4 1.147022,1.849059 c 0.630862,1.016982 1.153454,1.842718 1.161317,1.834968 0.0079,-0.0078 0.526029,-0.837313 1.151481,-1.843474 l 1.137188,-1.829383 1.995815,-0.0065 c 1.097697,-0.0036 1.995814,-5.31e-4 1.995814,0.0068 0,0.0073 -0.759767,1.255257 -1.688371,2.773156 -1.332606,2.178282 -1.682992,2.768447 -1.662843,2.800775 0.01404,0.02253 0.752573,1.229712 1.641183,2.682633 0.888612,1.452922 1.63247,2.667519 1.653018,2.699104 l 0.03736,0.05743 h -2.002422 -2.002421 l -1.12189,-1.805784 c -0.61704,-0.99318 -1.131961,-1.804134 -1.14427,-1.802119 -0.01231,0.002 -0.524587,0.811746 -1.138398,1.799402 l -1.11602,1.795739 -1.993467,0.0065 c -1.096408,0.0036 -1.993468,-2.59e-4 -1.993468,-0.0086 z"
       id="path307" />
  </g>
</svg>
