<?xml version="1.0" encoding="UTF-8" standalone="no"?>
<svg
   fill="none"
   viewBox="0 0 48 48"
   height="256"
   width="256"
   version="1.1"
   id="svg6"
   sodipodi:docname="pieces.svg"
   inkscape:version="1.4 (86a8ad7, 2024-10-11)"
   xml:space="preserve"
   xmlns:inkscape="http://www.inkscape.org/namespaces/inkscape"
   xmlns:sodipodi="http://sodipodi.sourceforge.net/DTD/sodipodi-0.dtd"
   xmlns="http://www.w3.org/2000/svg"
   xmlns:svg="http://www.w3.org/2000/svg"><defs
     id="defs10" /><sodipodi:namedview
     id="namedview8"
     pagecolor="#ffffff"
     bordercolor="#666666"
     borderopacity="1.0"
     inkscape:showpageshadow="2"
     inkscape:pageopacity="0.0"
     inkscape:pagecheckerboard="true"
     inkscape:deskcolor="#d1d1d1"
     showgrid="true"
     inkscape:zoom="1.6191406"
     inkscape:cx="119.81665"
     inkscape:cy="106.538"
     inkscape:current-layer="svg6"
     showguides="false"
     inkscape:window-width="2560"
     inkscape:window-height="1334"
     inkscape:window-x="-11"
     inkscape:window-y="-11"
     inkscape:window-maximized="1"><inkscape:grid
       type="xygrid"
       id="grid239"
       units="px"
       spacingx="1.5"
       spacingy="1.5"
       originx="0"
       originy="0"
       visible="true" /></sodipodi:namedview><path
     style="fill:#606668;fill-opacity:1;stroke-width:0.871391"
     d="M 20.547283,47.827731 C 12.880006,46.728645 6.1355006,41.864997 2.5730093,34.865988 -0.75315653,28.331274 -0.85982233,20.517674 2.2840683,13.700199 4.4435854,9.0173211 9.0140174,4.4483748 13.705859,2.2821204 19.254866,-0.27989222 25.641307,-0.70545562 31.290179,1.1103817 41.612353,4.4284574 48.434363,14.170452 47.978463,24.941645 c -0.266718,6.301688 -2.578464,11.566045 -7.039005,16.02938 -3.574056,3.576297 -7.590945,5.724021 -12.507634,6.6875 -1.89997,0.372319 -5.872836,0.457579 -7.884541,0.169206 z"
     id="path1"
     sodipodi:nodetypes="sssssssss" /><path
     style="fill:#ffffff;fill-opacity:1;stroke-width:0.871391"
     d="m 21.44385,40.388856 c 3.06655,-0.947755 4.9964,-3.367338 5.39341,-6.762068 l 0.18141,-1.551252 1.40183,-0.501763 c 3.64037,-1.30301 6.47152,-4.366975 7.71387,-8.348216 0.32353,-1.036749 0.38166,-1.56603 0.37694,-3.432178 -0.005,-2.029284 -0.0465,-2.328153 -0.51515,-3.723124 -0.7089,-2.109972 -1.65685,-3.63748 -3.22027,-5.189068 -3.34006,-3.3147831 -8.35971,-4.460929 -12.84765,-2.9335259 -1.99331,0.6783935 -3.20539,1.462581 -4.89413,3.1663749 -1.76387,1.779598 -2.6714,3.340223 -3.28893,5.655758 -0.33402,1.252472 -0.34854,1.64796 -0.34494,9.397629 0.004,7.752476 0.018,8.134472 0.34508,9.152474 0.77336,2.40699 2.40522,4.105285 4.8001,4.995507 1.35887,0.505118 3.40258,0.535764 4.89843,0.07345 z m -3.87719,-2.738369 c -1.5998,-0.573068 -2.58588,-1.63008 -3.08285,-3.304607 -0.38673,-1.303072 -0.38857,-14.606773 -0.002,-16.479777 0.67426,-3.269299 2.85744,-5.83534 6.02857,-7.08579 1.67527,-0.660596 4.11943,-0.8255702 5.78424,-0.390421 4.46763,1.167751 7.39884,4.893138 7.39884,9.403487 0,2.463557 -0.87114,4.760434 -2.49834,6.587261 -0.87545,0.98285 -2.87422,2.33414 -3.69574,2.498548 l -0.50331,0.100725 -0.0578,-3.980379 c -0.0578,-3.979282 -0.058,-3.980634 -0.51695,-4.915931 -1.41792,-2.889288 -5.23475,-3.636186 -7.61925,-1.490976 -1.07135,0.963842 -1.4668,1.947739 -1.58538,3.944535 -0.20572,3.464102 0.44511,5.749893 2.14488,7.533037 1.02576,1.076078 2.05885,1.697009 3.40887,2.048864 1.30811,0.340933 1.30476,0.337067 1.20891,1.394812 -0.27851,3.073327 -3.52827,5.169738 -6.41238,4.136612 z m 5.42268,-8.466461 C 22.04598,28.83773 21.2008,28.086882 20.6651,27.119207 c -0.46184,-0.83425 -0.48396,-0.968735 -0.53721,-3.267103 -0.0232,-1.338607 0.101,-2.509598 0.50965,-3.014157 0.48131,-0.594272 0.63919,-0.617117 1.42424,-0.617117 0.78098,0 0.89951,0.06351 1.40953,0.60106 0.61165,0.644681 0.55048,3.146796 0.55048,4.607667 0,4.388049 0.0636,4.156813 -1.03245,3.754469 z"
     id="path2"
     sodipodi:nodetypes="sscssccssssscssscscssssscsssssssccssssssss" /></svg>
