<?xml version="1.0" encoding="UTF-8" standalone="no"?>
<svg
   fill="none"
   viewBox="0 0 48 48"
   height="256"
   width="256"
   version="1.1"
   id="svg6"
   sodipodi:docname="riscv.svg"
   inkscape:version="1.3.2 (091e20e, 2023-11-25, custom)"
   xml:space="preserve"
   xmlns:inkscape="http://www.inkscape.org/namespaces/inkscape"
   xmlns:sodipodi="http://sodipodi.sourceforge.net/DTD/sodipodi-0.dtd"
   xmlns="http://www.w3.org/2000/svg"
   xmlns:svg="http://www.w3.org/2000/svg"><defs
     id="defs10" /><sodipodi:namedview
     id="namedview8"
     pagecolor="#ffffff"
     bordercolor="#666666"
     borderopacity="1.0"
     inkscape:showpageshadow="2"
     inkscape:pageopacity="0.0"
     inkscape:pagecheckerboard="true"
     inkscape:deskcolor="#d1d1d1"
     showgrid="true"
     inkscape:zoom="1.1449053"
     inkscape:cx="361.60196"
     inkscape:cy="61.140428"
     inkscape:current-layer="svg6"
     showguides="false"
     inkscape:window-width="3840"
     inkscape:window-height="1476"
     inkscape:window-x="-12"
     inkscape:window-y="-12"
     inkscape:window-maximized="1"><inkscape:grid
       type="xygrid"
       id="grid239"
       units="px"
       spacingx="1.5"
       spacingy="1.5"
       originx="0"
       originy="0"
       visible="true" /></sodipodi:namedview><g
     id="g1"
     transform="translate(114,4.5)"><path
       style="fill:#f5b119"
       d="m -93.986043,32.296875 c -3.261726,-3.835334 -5.613891,-6.752963 -5.49791,-6.819616 0.111487,-0.06407 0.666765,-0.219436 1.233953,-0.345258 0.567188,-0.125821 1.901193,-0.646919 2.964457,-1.157996 3.852955,-1.851993 6.586765,-5.303606 7.665999,-9.678825 0.466337,-1.89053 0.412423,-5.6901367 -0.10839,-7.63893 -1.445449,-5.4086163 -5.205459,-9.2881421 -10.428316,-10.7597908 L -99.46875,-4.473365 -82.734375,-4.486682 -66,-4.5 V 1.7523582 8.0047163 L -76.526559,22.892983 C -87.998174,39.117893 -87.913217,39 -88.13372,39 c -0.08344,0 -2.716987,-3.016406 -5.852323,-6.703125 z"
       id="path2" /><path
       style="fill:#293071"
       d="M -114,22.875 V 2.25 l 5.39062,0.00142 c 6.67295,0.00176 8.09541,0.1472222 9.921875,1.0146059 1.736897,0.8248488 2.919169,2.0232482 3.778627,3.8301713 0.572722,1.2040914 0.66585,1.6052538 0.739958,3.1874998 0.071,1.515829 0.01813,2.008156 -0.325237,3.0288 -0.755537,2.245789 -2.05596,3.824841 -3.933461,4.776242 -1.815172,0.919819 -2.705592,1.036258 -7.924272,1.036258 h -4.83561 l 0.006,1.640625 0.006,1.640625 8.16806,9.84375 c 4.492435,5.414062 8.420421,10.160156 8.728861,10.546875 L -93.718489,43.5 H -103.85924 -114 Z m 31.6875,20.516921 c 0,-0.200073 1.77628,-2.751793 8.995957,-12.923171 3.952717,-5.56875 7.21596,-10.160156 7.251651,-10.203125 C -66.029202,20.222656 -66,25.432813 -66,31.84375 V 43.5 h -8.15625 c -4.485938,0 -8.15625,-0.04863 -8.15625,-0.108079 z"
       id="path1" /></g></svg>
