<?xml version="1.0" encoding="UTF-8" standalone="no"?>
<svg
   fill="none"
   viewBox="0 0 48 48"
   height="256"
   width="256"
   version="1.1"
   id="svg14"
   sodipodi:docname="rpi.svg"
   inkscape:version="1.2.1 (9c6d41e410, 2022-07-14)"
   xmlns:inkscape="http://www.inkscape.org/namespaces/inkscape"
   xmlns:sodipodi="http://sodipodi.sourceforge.net/DTD/sodipodi-0.dtd"
   xmlns="http://www.w3.org/2000/svg"
   xmlns:svg="http://www.w3.org/2000/svg">
  <defs
     id="defs18" />
  <sodipodi:namedview
     id="namedview16"
     pagecolor="#ffffff"
     bordercolor="#666666"
     borderopacity="1.0"
     inkscape:showpageshadow="2"
     inkscape:pageopacity="0.0"
     inkscape:pagecheckerboard="0"
     inkscape:deskcolor="#d1d1d1"
     showgrid="false"
     inkscape:zoom="1.1449053"
     inkscape:cx="101.31842"
     inkscape:cy="52.842799"
     inkscape:current-layer="svg14"
     inkscape:window-width="1920"
     inkscape:window-height="730"
     inkscape:window-x="-6"
     inkscape:window-y="-6"
     inkscape:window-maximized="1" />
  <path
     id="path6476"
     style="fill:#606668;fill-opacity:1;stroke-width:0.0616291"
     d="m 31.880775,2.0002167 c -0.40154,0.010409 -0.747877,0.2546425 -1.123307,0.3727826 -0.962156,-0.312841 -1.18251,0.117179 -1.655196,0.291142 -1.048858,-0.220688 -1.366038,0.256949 -1.868944,0.764212 l -0.586627,-0.0086 c -1.58241,0.92759 -2.367879,2.816667 -2.646541,3.78794 -0.27879,-0.971431 -1.064399,-2.860261 -2.64657,-3.78794 l -0.582139,0.0086 C 20.26809,2.9213003 19.946659,2.4437493 18.897892,2.6641503 18.425252,2.4889113 18.204851,2.0605885 17.242656,2.3730053 16.848116,2.2484009 16.487433,1.991649 16.060257,2.0045135 c -0.223155,0.00643 -0.463456,0.08606 -0.736576,0.3003419 -0.668852,-0.2567304 -1.320527,-0.3452468 -1.900671,0.1769789 -0.895674,-0.1145161 -1.184515,0.125982 -1.405075,0.4046 -0.196634,-0.0037 -1.470672,-0.202889 -2.055411,0.663928 -1.469314,-0.173331 -1.935601,0.860644 -1.409739,1.823499 -0.299846,0.46216 -0.611303,0.919724 0.08895,1.800664 -0.248378,0.490516 -0.09361,1.024251 0.491039,1.668952 -0.154173,0.689944 0.147902,1.1758107 0.691069,1.5550527 -0.102975,0.944237 0.873753,1.491465 1.163964,1.686991 0.113415,0.550092 0.340555,1.067897 1.450605,1.355215 0.182408,0.819854 0.850327,0.964943 1.496145,1.136808 -2.135107,1.23473 -3.964034,2.85705 -3.951605,6.843744 L 9.66913,21.97603 c -2.448597,1.481526 -4.649869,6.247173 -1.20509,10.117844 0.224638,1.211684 0.600435,2.079006 0.936634,3.04217 0.502193,3.880831 3.782248,5.701167 4.647346,5.916046 1.267627,0.960732 2.615747,1.87155 4.442762,2.510124 1.722257,1.767472 3.5898,2.438573 5.465878,2.437402 0.0263,-3.2e-5 0.05404,3.16e-4 0.08341,0 1.875959,0.0012 3.743898,-0.669978 5.465878,-2.437402 1.827019,-0.63861 3.17509,-1.549408 4.442771,-2.510124 0.865142,-0.214213 4.144774,-2.035336 4.647372,-5.916046 0.336108,-0.963182 0.71646,-1.830612 0.941246,-3.04217 3.444848,-3.870671 1.238989,-8.636184 -1.2097,-10.117844 l -0.309241,-0.554742 c 0.01148,-3.986694 -1.82074,-5.608758 -3.956205,-6.843744 0.64612,-0.173311 1.313138,-0.317139 1.495996,-1.136808 1.11003,-0.286906 1.343844,-0.805051 1.455155,-1.355215 0.290336,-0.196838 1.261029,-0.742997 1.159591,-1.686991 0.543992,-0.379655 0.845471,-0.8652427 0.691071,-1.5550527 0.584508,-0.644381 0.73913,-1.178158 0.491206,-1.668952 0.70197,-0.881153 0.391006,-1.33847 0.08897,-1.800664 0.526032,-0.963199 0.06394,-1.99642 -1.40508,-1.823499 C 37.454724,2.6827783 36.17558,2.8822133 35.979051,2.8864263 35.758358,2.6077843 35.469461,2.3660584 34.573974,2.4818313 33.993712,1.9588141 33.346593,2.0476612 32.677729,2.3048891 32.379842,2.0708308 32.118336,1.9932272 31.877201,2.0003147 l 0.0036,-9.8e-5" />
  <path
     id="path6471"
     style="fill:#fd3131;fill-opacity:1;stroke-width:1.26384"
     d="m 9.6690668,21.975952 0.313843,-0.554809 c 0.1660832,-0.132522 -0.493655,0.668004 -0.313843,0.554809 z M 23.763794,14.364258 c -2.236753,0.05043 -4.319619,1.742371 -4.324219,2.737427 -0.0074,1.248246 1.830655,2.52736 4.560791,2.56018 2.788155,0.01985 4.564607,-1.021879 4.574707,-2.310058 0.01,-1.459409 -2.536578,-3.008609 -4.592651,-2.987549 -0.07212,-0.0018 -0.145641,-0.0017 -0.218262,0 z m -6.775635,0.867187 c -3.217363,0.05958 -5.675811,2.278281 -5.561279,5.943238 0.127619,1.605732 8.410619,-5.59512 6.980347,-5.834107 -0.485329,-0.07959 -0.959455,-0.115766 -1.419068,-0.107666 z m 13.219116,0.126343 v 3.66e-4 c -0.350093,0.0089 -0.709082,0.0467 -1.073364,0.108765 -1.430195,0.239024 6.855835,7.439721 6.984741,5.834106 0.113824,-3.665 -2.348681,-5.883137 -5.56604,-5.943237 -0.114688,-0.0021 -0.229504,-0.0034 -0.345337,0 z m -1.423095,4.473267 c -0.715676,0.03968 -1.387813,0.255919 -1.964722,0.63208 -5.062822,3.268465 0.830698,12.145537 5.865967,8.835571 3.76622,-2.453772 1.390775,-9.143383 -3.360352,-9.463257 -0.181667,-0.01238 -0.36226,-0.01372 -0.540893,-0.004 z m -9.554077,0.245727 v 3.66e-4 c -0.178753,-0.0097 -0.359469,-0.0084 -0.54126,0.004 -4.752572,0.315778 -7.132079,7.008075 -3.364746,9.463257 5.045495,3.429301 11.042583,-5.59252 5.870361,-8.831177 -0.576413,-0.377738 -1.248448,-0.595485 -1.964355,-0.636475 z m 17.348876,2.703003 c -1.956531,0.03225 -0.504744,9.259999 1.268555,8.476319 2.01329,-1.611347 2.66436,-6.328116 -1.068603,-8.448853 -0.07041,-0.01688 -0.136744,-0.026 -0.200684,-0.0249 z m -25.597778,0.127442 7.33e-4,0.0026 c -0.06387,-0.0024 -0.13071,0.0077 -0.20105,0.02454 -3.7330022,2.120834 -3.0868222,6.837426 -1.0733642,8.448853 1.7735922,0.783744 3.2299452,-8.443132 1.2736812,-8.475952 z m 13.123535,6.369506 c -0.240406,-2.73e-4 -0.480524,0.01527 -0.718506,0.04651 -2.475903,0.32775 -4.31279,2.275279 -4.310668,4.570313 0.0011,2.547621 2.252503,4.612332 5.029357,4.612332 2.776855,0 5.028251,-2.064711 5.029358,-4.612332 0.0012,-2.549119 -2.251051,-4.616084 -5.029541,-4.615723 z m 11.113037,1.720459 c -1.178444,0.03058 -2.584096,1.141327 -3.919555,2.641846 -1.556415,1.81353 -2.422532,5.118696 -1.287232,6.184204 1.085458,0.827673 4.000153,0.711618 6.15271,-2.259888 1.563704,-1.995675 1.0387,-5.326763 0.146118,-6.211669 -0.331464,-0.254769 -0.698282,-0.364593 -1.091308,-0.354493 z m -22.731445,0.709351 c -0.363107,0.0073 -0.701393,0.09494 -1.004883,0.277588 -0.927783,0.702829 -1.099371,3.096585 0.222657,5.447388 1.960104,2.801932 4.716997,3.082971 5.852417,2.401245 1.200553,-0.892856 0.547561,-3.923675 -0.890992,-5.647705 -1.237966,-1.42899 -2.753805,-2.426206 -4.019897,-2.478516 -0.05399,-0.0021 -0.106402,-0.001 -0.159302,0 z m 11.835205,8.248535 c -0.06682,0.0023 -0.129693,0.0066 -0.192993,0.0092 -2.007588,-0.04976 -5.08879,0.79801 -5.05188,1.887085 -0.0321,0.742906 2.417844,2.887311 4.91565,2.778443 2.411977,0.04135 4.903789,-2.095083 4.870239,-3.042115 -0.005,-0.914183 -2.384983,-1.620412 -4.34729,-1.632202 -0.06639,-3.82e-4 -0.132716,-0.0017 -0.196655,0 z"
     sodipodi:nodetypes="cccsccccssccccccccccccccccccccccccccccccccccccsccccccccccccccccccccccscccc" />
  <path
     id="path4476"
     style="fill:#77c32f;fill-opacity:1;stroke-width:1.26384"
     d="m 16.116577,3.1193848 c 0.219085,0.2694957 0.523843,0.5337937 0.199219,0.84375 C 15.867018,3.680225 15.417305,3.395756 14.35144,3.1948242 c 0.239774,0.2703797 0.737617,0.5393767 0.436524,0.8096924 -0.563225,-0.2171768 -1.187917,-0.3698931 -1.87793,-0.463623 0.329063,0.2745717 0.606851,0.5426769 0.336182,0.7547607 -0.6031,-0.1867128 -1.434824,-0.4416252 -2.246338,-0.2230225 l 0.51416,0.5233155 c 0.05696,0.06996 -1.201671,0.055715 -2.0328372,0.068115 0.30332,0.4252296 0.6104612,0.8334509 0.7910162,1.5644531 -0.08269,0.08511 -0.4938612,0.0373 -0.8822022,0 0.397863,0.8467412 1.0940982,1.0611551 1.2550052,1.4230957 -0.243148,0.1856168 -0.581506,0.13477 -0.9503182,0.00879 0.28664,0.5963234 0.8847952,1.0075606 1.3597412,1.4915771 -0.119747,0.08526 -0.325857,0.1367105 -0.822876,0.077271 0.438899,0.4711676 0.967187,0.9042738 1.595948,1.2916258 -0.111346,0.130962 -0.495314,0.124835 -0.850342,0.132935 0.569096,0.562743 1.300547,0.85469 1.98706,1.223144 -0.342217,0.236429 -0.583428,0.180446 -0.845581,0.177246 0.485794,0.402811 1.311941,0.611583 2.078247,0.854737 -0.145776,0.229004 -0.293318,0.291204 -0.60498,0.355224 0.81125,0.455061 1.9731,0.245186 2.300903,0.477173 -0.079,0.228453 -0.300888,0.376021 -0.568359,0.50061 1.306137,0.07659 4.876605,-0.04794 5.561279,-2.778442 -1.337123,-1.483679 -3.777836,-3.2262026 -7.976074,-5.3796385 3.266113,1.1041529 6.214614,2.576423 8.68103,4.6018065 2.899529,-1.3636322 0.900436,-4.8008188 -0.51416,-6.1658934 -0.07022,0.3605616 -0.151751,0.588279 -0.245361,0.6544189 C 20.370491,4.675739 19.991771,4.1624129 19.39856,3.6826184 19.39646,3.9646231 19.542092,4.2733025 19.189087,4.4967053 18.871338,4.0645527 18.44079,3.677918 17.870361,3.3508313 c 0.27489,0.4785145 0.04791,0.6242462 -0.09998,0.822876 C 17.334875,3.7963651 16.918871,3.415307 16.116577,3.1193848 Z m 15.86023,0.00403 C 31.176207,3.4192535 30.760858,3.8000585 30.325928,4.1766357 30.177438,3.9780869 29.951036,3.8321643 30.225952,3.3537598 29.655246,3.6808084 29.225218,4.0678242 28.907227,4.4996338 28.552641,4.275656 28.699388,3.9675936 28.697388,3.6855469 28.104287,4.1656034 27.725727,4.6783635 27.264771,5.177124 27.171734,5.1101111 27.091319,4.8828165 27.019409,4.5223389 c -1.4147,1.3654366 -3.413361,4.8025404 -0.513794,6.1662601 2.466491,-2.025413 5.41457,-3.4980333 8.680664,-4.6021732 -4.198235,2.1535028 -6.638964,3.8960124 -7.976074,5.3796382 0.68476,2.730391 4.255388,2.855803 5.561646,2.778443 -0.267604,-0.124107 -0.48841,-0.272451 -0.56836,-0.500244 0.327669,-0.232064 1.489652,-0.02407 2.300904,-0.477539 -0.311334,-0.0644 -0.45864,-0.126029 -0.604981,-0.354859 0.766397,-0.243283 1.592427,-0.452299 2.078247,-0.855102 -0.262203,0.0035 -0.50301,0.05967 -0.845581,-0.17688 0.686527,-0.368051 1.417841,-0.660676 1.987061,-1.223145 -0.355169,-0.0082 -0.739346,-0.0016 -0.850342,-0.1333 0.628609,-0.387086 1.161696,-0.8202567 1.600708,-1.2912603 -0.496555,0.058809 -0.709279,0.00767 -0.827637,-0.078369 0.475106,-0.4843515 1.073218,-0.8950528 1.359741,-1.4915772 -0.368956,0.1258619 -0.702794,0.176002 -0.945923,-0.00842 0.161402,-0.3621156 0.85246,-0.5771358 1.250245,-1.4234619 -0.388472,0.03729 -0.798713,0.0851 -0.882203,0 0.180562,-0.7304443 0.487824,-1.1383914 0.791016,-1.5640869 -0.831093,-0.01427 -2.090957,0.00149 -2.032837,-0.068848 l 0.51416,-0.5233154 c -0.811711,-0.2171688 -1.643594,0.036108 -2.246338,0.2226562 -0.271035,-0.2125608 0.0058,-0.480503 0.336182,-0.7547607 -0.690054,0.09163 -1.31452,0.2471473 -1.87793,0.463623 -0.300901,-0.2703737 0.196231,-0.5392116 0.436524,-0.8096923 -1.065727,0.2011088 -1.515913,0.485736 -1.964722,0.7686767 -0.32273,-0.3083977 -0.02337,-0.572784 0.197022,-0.8411874 z"
     sodipodi:nodetypes="cccccccccccccccccccccccccccccccccccccccccccccccccccccccccccccccccc" />
</svg>
