<?xml version="1.0" encoding="UTF-8" standalone="no"?>
<svg
   fill="none"
   viewBox="0 0 48 48"
   height="256"
   width="256"
   version="1.1"
   id="svg6"
   sodipodi:docname="seeed.svg"
   inkscape:version="1.3.2 (091e20e, 2023-11-25, custom)"
   xml:space="preserve"
   xmlns:inkscape="http://www.inkscape.org/namespaces/inkscape"
   xmlns:sodipodi="http://sodipodi.sourceforge.net/DTD/sodipodi-0.dtd"
   xmlns="http://www.w3.org/2000/svg"
   xmlns:svg="http://www.w3.org/2000/svg"><defs
     id="defs10" /><sodipodi:namedview
     id="namedview8"
     pagecolor="#ffffff"
     bordercolor="#666666"
     borderopacity="1.0"
     inkscape:showpageshadow="2"
     inkscape:pageopacity="0.0"
     inkscape:pagecheckerboard="true"
     inkscape:deskcolor="#d1d1d1"
     showgrid="true"
     inkscape:zoom="2.2898106"
     inkscape:cx="105.46724"
     inkscape:cy="48.693984"
     inkscape:current-layer="svg6"
     showguides="false"
     inkscape:window-width="2560"
     inkscape:window-height="1334"
     inkscape:window-x="-11"
     inkscape:window-y="-11"
     inkscape:window-maximized="1"><inkscape:grid
       type="xygrid"
       id="grid239"
       units="px"
       spacingx="1.5"
       spacingy="1.5"
       originx="0"
       originy="0"
       visible="true" /></sodipodi:namedview><g
     id="g1"
     transform="matrix(1.1348015,0,0,1.1415956,-3.2352367,-1.7229757)"
     style="stroke-width:0.878585"><path
       style="fill:#8ec020;stroke-width:0.878585"
       d="M 8.9911777,37.359375 8.25,36.5625 9.046875,37.303678 c 0.7410858,0.689288 0.883036,0.852572 0.7411777,0.852572 -0.030634,0 -0.3892273,-0.358594 -0.796875,-0.796875 z M 38.8125,37.40625 c 0.402795,-0.4125 0.774543,-0.75 0.826105,-0.75 0.05156,0 -0.23581,0.3375 -0.638605,0.75 -0.402795,0.4125 -0.774543,0.75 -0.826105,0.75 -0.05156,0 0.23581,-0.3375 0.638605,-0.75 z m -5.555167,-7.078125 c -0.233225,-0.297385 -0.226593,-0.304017 0.07079,-0.07079 0.180469,0.141534 0.328125,0.28919 0.328125,0.328125 0,0.154319 -0.153972,0.055 -0.398917,-0.257333 z M 37.6875,30.28125 c 0.186654,-0.20625 0.381558,-0.375 0.43312,-0.375 0.05156,0 -0.05897,0.16875 -0.24562,0.375 -0.186654,0.20625 -0.381558,0.375 -0.43312,0.375 -0.05156,0 0.05897,-0.16875 0.24562,-0.375 z m -3.492667,-0.890625 c -0.233225,-0.297385 -0.226593,-0.304017 0.07079,-0.07079 0.180469,0.141534 0.328125,0.28919 0.328125,0.328125 0,0.154319 -0.153972,0.055 -0.398917,-0.257333 z m -1.83628,-0.90625 c 0.009,-0.218427 0.05343,-0.262856 0.113281,-0.113281 0.05416,0.135351 0.0475,0.29707 -0.0148,0.359375 -0.0623,0.0623 -0.10662,-0.04844 -0.09848,-0.246094 z m -6.249178,-2.077303 c 0.128906,-0.05201 0.339844,-0.05201 0.46875,0 0.128906,0.05202 0.02344,0.09457 -0.234375,0.09457 -0.257813,0 -0.363281,-0.04256 -0.234375,-0.09457 z m 9.1875,0 c 0.128906,-0.05201 0.339844,-0.05201 0.46875,0 0.128906,0.05202 0.02344,0.09457 -0.234375,0.09457 -0.257813,0 -0.363281,-0.04256 -0.234375,-0.09457 z M 11.581693,25.088814 c 0.182432,-0.04754 0.435557,-0.04441 0.5625,0.0069 0.126944,0.05136 -0.02232,0.09026 -0.331693,0.08643 -0.309375,-0.0038 -0.413238,-0.04584 -0.230807,-0.09338 z m 14.539401,0.0019 c 0.135351,-0.05416 0.29707,-0.0475 0.359375,0.0148 0.0623,0.0623 -0.04844,0.10662 -0.246094,0.09848 -0.218427,-0.009 -0.262856,-0.05343 -0.113281,-0.113281 z m 9.175781,0.0039 c 0.128906,-0.05201 0.339844,-0.05201 0.46875,0 0.128906,0.05202 0.02344,0.09457 -0.234375,0.09457 -0.257813,0 -0.363281,-0.04256 -0.234375,-0.09457 z M 2.9725777,21.011121 C 3.7114046,11.39925 10.437504,3.8190179 20.0625,1.7509877 20.698018,1.6144401 22.411206,1.5092698 24,1.5092698 c 1.588794,0 3.301982,0.1051703 3.9375,0.2417179 9.624996,2.0680302 16.351095,9.6482623 17.089922,19.2601333 l 0.121651,1.582629 H 24 2.8509273 Z m 8.7990693,-0.357077 c 0.824409,-0.344608 1.147103,-0.786511 1.147103,-1.570864 0,-0.875468 -0.676248,-1.455538 -2.022753,-1.735071 C 9.7177855,17.103513 9.2937431,16.749294 9.65625,16.3125 c 0.2719434,-0.327672 1.710565,-0.382447 2.264099,-0.0862 0.307856,0.16476 0.394366,0.116348 0.557141,-0.311782 0.270684,-0.711955 0.02214,-0.882835 -1.417405,-0.974499 -1.4550227,-0.09265 -2.2514571,0.186054 -2.6314272,0.920835 -0.6261135,1.21077 -0.050931,2.033829 1.7894682,2.560647 0.861096,0.246491 1.237455,0.449059 1.284074,0.69113 0.133026,0.690751 -1.124478,0.896764 -2.349511,0.384913 -0.7822683,-0.326853 -0.8127213,-0.313464 -0.8642684,0.379972 -0.032259,0.433957 0.066831,0.555613 0.6178294,0.758531 0.8720718,0.32116 2.121374,0.329009 2.865397,0.018 z m 6.24615,-0.13141 c 0.435845,-0.210988 0.837042,-0.499835 0.89155,-0.641881 0.137433,-0.358144 -0.921805,-0.718703 -1.384271,-0.471199 -0.592767,0.317239 -1.533878,0.211937 -1.997366,-0.223488 -0.238678,-0.224226 -0.43396,-0.474673 -0.43396,-0.55655 0,-0.08188 0.991406,-0.172637 2.203125,-0.201691 L 19.5,18.375 19.463752,17.570576 c -0.07764,-1.722946 -1.314852,-2.777532 -3.086199,-2.630638 -1.184388,0.09822 -1.833422,0.502313 -2.396113,1.491841 -1.479167,2.601212 1.298398,5.416279 4.036357,4.090855 z m -2.924047,-3.3337 c 0,-0.08515 0.213244,-0.355149 0.473877,-0.6 0.582245,-0.546992 1.594141,-0.592996 2.141797,-0.09737 0.741056,0.670646 0.503381,0.85219 -1.115674,0.85219 -0.825,0 -1.5,-0.06967 -1.5,-0.154816 z m 9.641673,3.292357 c 0.404483,-0.230335 0.766911,-0.514669 0.805396,-0.631853 0.104865,-0.319308 -1.034268,-0.664113 -1.453243,-0.439884 -0.56149,0.3005 -1.409095,0.211065 -1.93729,-0.204413 -0.27172,-0.213735 -0.494036,-0.46686 -0.494036,-0.5625 0,-0.09719 0.99239,-0.173891 2.25,-0.173891 h 2.25 l -0.0041,-0.609375 c -0.0023,-0.335156 -0.166109,-0.966226 -0.364098,-1.402376 -0.919328,-2.025187 -3.706946,-2.121092 -5.145794,-0.177035 -0.616904,0.833511 -0.542034,2.490336 0.153758,3.402567 0.952838,1.249236 2.571882,1.577514 3.939425,0.79876 z M 21.84375,17.09156 c 0,-0.446675 0.745745,-0.94781 1.410449,-0.94781 0.605351,0 1.589551,0.647145 1.589551,1.045184 0,0.08515 -0.675,0.154816 -1.5,0.154816 -1.131512,0 -1.5,-0.06195 -1.5,-0.25219 z m 9.240397,3.562484 c 0.790684,-0.330511 1.202378,-0.817519 0.925311,-1.094586 -0.223095,-0.223095 -0.814425,-0.237157 -2.046134,-0.04866 -0.697893,0.106805 -0.84602,0.06009 -1.3125,-0.413954 L 28.125,18.5625 30.421875,18.50985 32.71875,18.4572 32.718459,17.759846 c -6.75e-4,-1.613614 -1.238772,-2.853604 -2.849248,-2.853604 -1.535399,0 -2.570604,0.792898 -2.969552,2.274478 -0.646581,2.401219 1.830491,4.457303 4.184488,3.473316 z M 28.40625,17.09156 c 0,-0.645594 1.367253,-1.244895 2.030415,-0.889981 0.483629,0.25883 0.969585,0.744024 0.969585,0.968064 0,0.09576 -0.675,0.174107 -1.5,0.174107 -1.131512,0 -1.5,-0.06195 -1.5,-0.25219 z m 9.375,3.53344 c 0.603872,-0.345205 0.75,-0.345205 0.75,0 0,0.196429 0.197917,0.28125 0.65625,0.28125 h 0.65625 v -3.566072 -3.566073 l -0.515625,0.123246 c -0.761889,0.182108 -0.796875,0.222984 -0.796875,0.93103 v 0.649999 l -0.553189,-0.286065 c -1.236139,-0.639232 -3.204176,-0.203999 -3.975466,0.879177 -0.425956,0.5982 -0.65286,1.897539 -0.463277,2.652898 0.164076,0.65373 1.023817,1.622993 1.701386,1.918123 0.749822,0.326602 1.95309,0.318307 2.540546,-0.01751 z m -2.49617,-1.557135 c -0.854081,-0.891468 -0.639716,-2.200296 0.452914,-2.765316 1.439634,-0.744464 2.980373,0.719161 2.348646,2.231096 -0.498194,1.192345 -1.912633,1.46206 -2.80156,0.53422 z"
       id="path2" /><path
       style="fill:#013849;stroke-width:0.878585"
       d="M 21.320328,43.392984 C 16.905813,42.819632 12.832869,40.873818 9.579159,37.783741 5.6492185,34.051444 3.4921782,29.529222 2.982137,23.953125 L 2.8577961,22.59375 H 23.997802 45.137808 l -0.132262,1.453125 c -0.372556,4.09316 -1.760539,7.851373 -4.030557,10.913459 -1.233307,1.66364 -3.703671,4.01247 -5.411543,5.145313 -4.054316,2.689254 -9.381447,3.918765 -14.243118,3.287337 z M 13.615716,30.505297 c 1.072391,-1.200215 0.508029,-2.244488 -1.543132,-2.85535 -1.151391,-0.3429 -1.307186,-0.442374 -1.256009,-0.801951 0.05126,-0.360192 0.17331,-0.410203 0.995925,-0.408103 0.515625,0.0013 1.11755,0.06717 1.337611,0.146353 0.332926,0.119786 0.421773,0.05765 0.529117,-0.370043 0.157786,-0.62867 -0.152957,-0.90035 -1.226076,-1.071949 -1.572624,-0.251473 -3.171902,0.619882 -3.171902,1.728187 0,0.90508 0.6234267,1.480234 2.072116,1.911673 1.003065,0.298725 1.302884,0.467867 1.302884,0.735015 0,0.621923 -1.046257,0.753153 -2.337672,0.293211 -0.5746462,-0.204663 -0.7766492,-0.213457 -0.8877534,-0.03865 -0.5669601,0.892054 0.4253779,1.47878 2.3567664,1.393451 1.181155,-0.05218 1.332273,-0.106894 1.828125,-0.661848 z m 3.165534,0.07907 c 0,-0.476693 -0.09321,-0.658757 -0.375,-0.732446 -0.329833,-0.08625 -0.375,-0.255753 -0.375,-1.407285 0,-1.131797 0.04447,-1.305691 0.328125,-1.283179 0.249684,0.01982 0.342037,-0.142045 0.386318,-0.677083 0.04997,-0.603821 0.0036,-0.703125 -0.328125,-0.703125 -0.318879,0 -0.386318,-0.118377 -0.386318,-0.678118 0,-0.611733 -0.0413,-0.667051 -0.421875,-0.565061 -0.232031,0.06218 -0.527344,0.114211 -0.65625,0.115619 -0.176664,0.0019 -0.234375,0.67556 -0.234375,2.735733 v 2.733173 l 0.548077,0.548077 c 0.322187,0.322187 0.747217,0.548077 1.03125,0.548077 0.424025,0 0.483173,-0.07766 0.483173,-0.634382 z m 4.608757,0.280817 c 0.93497,-0.570143 1.203743,-1.387162 1.203743,-3.659147 0,-2.090695 -0.0072,-2.105852 -0.890625,-1.869109 -0.399677,0.107109 -0.421875,0.206079 -0.421875,1.880962 0,1.627034 -0.03667,1.804576 -0.460227,2.228132 -0.253125,0.253125 -0.636648,0.460227 -0.852273,0.460227 -0.215625,0 -0.599148,-0.207102 -0.852273,-0.460227 -0.42755,-0.427551 -0.460227,-0.593961 -0.460227,-2.34375 0,-1.980211 -0.01058,-2.001187 -0.890625,-1.765344 -0.402361,0.107828 -0.421875,0.201078 -0.421875,2.01599 0,2.138285 0.25036,2.855864 1.21875,3.493173 0.728664,0.479541 2.057707,0.488516 2.827507,0.01909 z m 6.275554,0.0675 c 0.495862,-0.25642 0.553189,-0.25642 0.553189,0 0,0.201931 0.193007,0.286065 0.65625,0.286065 h 0.65625 v -3.5625 c 0,-2.084622 -0.07272,-3.5625 -0.175294,-3.5625 -0.09641,0 -0.391724,0.08229 -0.65625,0.182859 -0.394937,0.150155 -0.480956,0.305166 -0.480956,0.866709 0,0.580752 -0.0416,0.649324 -0.275935,0.454843 -0.468866,-0.389124 -1.638593,-0.566757 -2.398402,-0.364217 -0.859353,0.229075 -1.884243,1.0959 -2.201593,1.86205 -0.543137,1.311249 0.261208,3.282898 1.572015,3.853398 0.785516,0.341878 2.072414,0.334062 2.750726,-0.01671 z M 25.341807,29.6939 c -0.465015,-0.270307 -0.879125,-1.310308 -0.743598,-1.867481 0.192836,-0.792777 0.803925,-1.295169 1.57539,-1.295169 0.962452,0 1.263662,0.145229 1.583336,0.76341 0.422826,0.817656 0.338809,1.450942 -0.273762,2.063513 -0.584036,0.584036 -1.474125,0.723585 -2.141366,0.335727 z M 31.78125,28.5 V 25.78125 H 31.125 30.46875 V 28.5 31.21875 h 0.65625 0.65625 z m 5.179888,2.413716 c 1.864712,-0.884864 2.296237,-3.325459 0.844638,-4.777058 -1.70589,-1.70589 -4.34208,-1.171346 -5.191442,1.052676 -0.966851,2.531663 1.822979,4.922016 4.346804,3.724382 z m -2.569311,-1.555543 c -1.138272,-1.138272 -0.457643,-2.826923 1.139423,-2.826923 1.034473,0 1.689882,0.636141 1.681537,1.632102 -0.01344,1.604127 -1.69811,2.317671 -2.82096,1.194821 z M 31.78125,24.65625 c 0,-0.517857 -0.05208,-0.5625 -0.65625,-0.5625 -0.604167,0 -0.65625,0.04464 -0.65625,0.5625 0,0.517857 0.05208,0.5625 0.65625,0.5625 0.604167,0 0.65625,-0.04464 0.65625,-0.5625 z"
       id="path1" /></g></svg>
