<?xml version="1.0" encoding="UTF-8" standalone="no"?>
<svg
   fill="none"
   viewBox="0 0 48 48"
   height="256"
   width="256"
   version="1.1"
   id="svg6"
   sodipodi:docname="sparkfun.svg"
   inkscape:version="1.2.1 (9c6d41e410, 2022-07-14)"
   xmlns:inkscape="http://www.inkscape.org/namespaces/inkscape"
   xmlns:sodipodi="http://sodipodi.sourceforge.net/DTD/sodipodi-0.dtd"
   xmlns="http://www.w3.org/2000/svg"
   xmlns:svg="http://www.w3.org/2000/svg">
  <defs
     id="defs10" />
  <sodipodi:namedview
     id="namedview8"
     pagecolor="#ffffff"
     bordercolor="#666666"
     borderopacity="1.0"
     inkscape:showpageshadow="2"
     inkscape:pageopacity="0.0"
     inkscape:pagecheckerboard="true"
     inkscape:deskcolor="#d1d1d1"
     showgrid="true"
     inkscape:zoom="0.8095703"
     inkscape:cx="45.703258"
     inkscape:cy="125.37515"
     inkscape:current-layer="svg6"
     showguides="false"
     inkscape:window-width="1920"
     inkscape:window-height="730"
     inkscape:window-x="-6"
     inkscape:window-y="-6"
     inkscape:window-maximized="1">
    <inkscape:grid
       type="xygrid"
       id="grid239"
       units="px"
       spacingx="1.5"
       spacingy="1.5" />
  </sodipodi:namedview>
  <path
     id="rect8102"
     style="fill:#fd3131;fill-opacity:1;stroke-width:0.9375;stroke-linecap:round;stroke-linejoin:round"
     d="m 25.491577,1.9998779 c 1.469689,-0.00925 2.986167,0.3629251 4.498169,1.1114502 0.503565,0.2492592 1.437518,0.8164221 1.629273,0.9891358 0.126909,0.114442 0.07449,0.1286928 -0.279419,0.076538 -0.410109,-0.060648 -1.348585,-0.050813 -1.798829,0.018677 -0.844233,0.1292689 -1.583856,0.4571672 -2.128051,0.942627 -0.911215,0.812819 -1.28398,1.7285731 -1.078491,2.6502685 0.182292,0.8172174 0.897984,1.8203581 1.852661,2.5964358 1.426651,1.159921 3.041537,1.82203 4.068237,1.667724 0.803826,-0.1208 1.323179,-0.612158 1.515381,-1.433349 0.05489,-0.234969 0.0638,-0.413019 0.04468,-0.9250491 l -0.02271,-0.6339111 0.08936,0.026367 c 0.04917,0.013411 0.245221,0.1007979 0.436157,0.1918945 1.978769,0.9439485 3.788322,3.5181025 4.614624,6.5646975 0.524725,1.934676 0.611699,4.179867 0.23877,6.154541 -0.492712,2.608023 -1.717318,5.065788 -3.633179,7.292358 -2.230874,2.59249 -4.920443,4.265102 -8.098022,5.035401 -1.339131,0.324575 -2.340781,0.432354 -4.142945,0.446411 l -1.367431,0.0099 -0.500611,0.120118 c -1.550083,0.371464 -2.866042,1.098443 -4.495971,2.483642 -1.537815,1.306994 -4.7895,4.662497 -7.4685063,7.706909 -0.4319392,0.490849 -0.8024733,0.898171 -0.8236084,0.905274 -0.022352,0.005 -0.038086,-0.0097 -0.038086,-0.03882 h -7.324e-4 c 0,-0.02881 -0.00256,-5.351289 -0.00256,-11.828613 0,-8.101659 0.012573,-11.892162 0.041382,-12.145752 0.3191611,-2.701376 1.4342497,-4.398983 3.5321047,-5.377075 1.462339,-0.681826 3.025863,-0.898369 4.602173,-0.637573 0.551671,0.09139 0.978423,0.199443 0.996826,0.252685 0.005,0.02136 -0.202483,0.138323 -0.466187,0.259644 -1.024514,0.471785 -1.702356,1.003558 -1.993652,1.564087 l -0.159302,0.306518 0.0022,0.50647 c 0.0025,0.576263 0.05815,0.770501 0.349366,1.236328 1.141987,1.827389 4.343588,2.330742 6.469482,1.016968 0.681586,-0.421191 1.229361,-1.054197 1.48169,-1.712769 C 23.852235,18.36527 23.66668,17.293392 22.899536,16.18396 22.6785,15.864491 22.45004,15.624389 21.604614,14.825684 21.039855,14.29215 20.457041,13.724533 20.309692,13.564453 18.923896,12.05929 18.076176,10.550543 17.821289,9.135498 17.704562,8.487629 17.728858,7.6750352 17.881348,7.1147461 18.156947,6.1029053 18.63675,5.3405409 19.538452,4.4824219 20.476713,3.5895754 21.732122,2.8249078 22.907959,2.4298096 23.744826,2.1485949 24.609764,2.0054308 25.491577,1.9998779 Z"
     sodipodi:nodetypes="scccccccccccccscccccccscccscccccccsccccccccccs" />
</svg>
