<?xml version="1.0" encoding="UTF-8" standalone="no"?>
<svg
   fill="none"
   viewBox="0 0 48 48"
   height="256"
   width="256"
   version="1.1"
   id="svg6"
   sodipodi:docname="stmicro.svg"
   inkscape:version="1.2.1 (9c6d41e410, 2022-07-14)"
   xmlns:inkscape="http://www.inkscape.org/namespaces/inkscape"
   xmlns:sodipodi="http://sodipodi.sourceforge.net/DTD/sodipodi-0.dtd"
   xmlns="http://www.w3.org/2000/svg"
   xmlns:svg="http://www.w3.org/2000/svg">
  <defs
     id="defs10" />
  <sodipodi:namedview
     id="namedview8"
     pagecolor="#ffffff"
     bordercolor="#666666"
     borderopacity="1.0"
     inkscape:showpageshadow="2"
     inkscape:pageopacity="0.0"
     inkscape:pagecheckerboard="true"
     inkscape:deskcolor="#d1d1d1"
     showgrid="true"
     inkscape:zoom="1.6191406"
     inkscape:cx="178.79856"
     inkscape:cy="95.420991"
     inkscape:current-layer="svg6"
     inkscape:window-width="1920"
     inkscape:window-height="730"
     inkscape:window-x="-6"
     inkscape:window-y="-6"
     inkscape:window-maximized="1">
    <inkscape:grid
       type="xygrid"
       id="grid239"
       units="px"
       spacingx="1.5"
       spacingy="1.5" />
  </sodipodi:namedview>
  <path
     id="path10903"
     style="opacity:1;fill:#507ab7;fill-opacity:1;fill-rule:evenodd;stroke:none;stroke-width:0.785557;stroke-linecap:butt;stroke-linejoin:miter;stroke-miterlimit:4;stroke-dasharray:none;stroke-opacity:1"
     d="M 12.927246,9.700195 C 7.7474449,10.301647 5.5837477,24.627114 2.449585,31.66626 c -0.1788207,0.401603 -0.6570785,1.293784 -0.3479004,1.300781 3.9197601,0.09547 8.0705034,0.17685 11.8165284,0.09375 1.779653,-0.0395 3.673338,0.281168 4.106323,-0.871582 0.312787,-1.393429 -2.597968,-4.05734 -3.539795,-4.881226 -5.8539662,-5.120834 -3.881388,-12.366235 1.274048,-13.598144 h 28.884522 c 0.424772,0 7.7e-5,-0.523115 0.849609,-2.440796 0.186081,-0.420025 0.707616,-1.568848 0.424438,-1.568848 z m 23.762695,9.239502 c -0.490925,0.0219 -0.742937,1.319623 -0.966796,2.092163 l -5.097291,14.992676 c -0.28312,0.697352 -1.012315,2.085163 -0.424804,2.092163 h 3.398071 c 0.756215,-0.04543 3.214237,-1.682027 4.106323,-3.562866 L 42.37793,20.683228 c 0.253795,-0.766314 0.424759,-1.743531 0,-1.743531 z m -20.931152,0.174317 c -0.707951,0 -1.078366,0.998472 0,2.440796 1.840661,2.615015 6.35249,6.091731 6.558106,9.588501 -0.04497,1.39467 -0.247956,2.90297 -0.894288,4.087646 -1.080283,1.980063 -2.955944,3.060059 -2.690185,3.060059 h 5.663452 c 0.566355,0 1.06097,0.17847 1.476196,-1.045899 l 5.663452,-16.415771 c 0.259962,-0.65871 0.5062,-1.715332 0.223023,-1.715332 z" />
</svg>
