<?xml version="1.0" encoding="UTF-8" standalone="no"?>
<svg
   fill="none"
   viewBox="0 0 48 48"
   height="256"
   width="256"
   version="1.1"
   id="svg6"
   sodipodi:docname="sustech.svg"
   inkscape:version="1.4 (86a8ad7, 2024-10-11)"
   xml:space="preserve"
   xmlns:inkscape="http://www.inkscape.org/namespaces/inkscape"
   xmlns:sodipodi="http://sodipodi.sourceforge.net/DTD/sodipodi-0.dtd"
   xmlns="http://www.w3.org/2000/svg"
   xmlns:svg="http://www.w3.org/2000/svg"><defs
     id="defs10" /><sodipodi:namedview
     id="namedview8"
     pagecolor="#ffffff"
     bordercolor="#666666"
     borderopacity="1.0"
     inkscape:showpageshadow="2"
     inkscape:pageopacity="0.0"
     inkscape:pagecheckerboard="true"
     inkscape:deskcolor="#d1d1d1"
     showgrid="true"
     inkscape:zoom="2"
     inkscape:cx="129.75"
     inkscape:cy="78.250001"
     inkscape:current-layer="svg6"
     showguides="true"
     inkscape:window-width="2560"
     inkscape:window-height="1334"
     inkscape:window-x="-11"
     inkscape:window-y="-11"
     inkscape:window-maximized="1"><inkscape:grid
       type="xygrid"
       id="grid239"
       units="px"
       spacingx="1.5"
       spacingy="1.5"
       originx="0"
       originy="0" /></sodipodi:namedview><path
     style="fill:#bb852e;stroke-width:1;fill-opacity:1"
     d="m 29.335469,46.796948 c 0.665596,-0.640052 1.668778,-2.68077 2.229305,-4.534929 1.225363,-4.05337 1.228302,-4.107247 0.222952,-4.079222 -0.437908,0.01226 -1.369424,1.18362 -2.070067,2.603149 -1.728836,3.502689 -3.128841,3.407701 -3.374625,-0.228936 -0.222187,-3.287629 0.227339,-3.766245 4.648512,-4.949174 2.467131,-0.660108 3.230579,-1.158561 3.388257,-2.21218 0.226565,-1.51385 -0.551641,-1.614129 -6.572975,-0.847038 l -3.184717,0.40572 -0.362978,4.593792 -0.362985,4.593785 -0.114779,-4.746912 c -0.114615,-4.74196 -0.116565,-4.74692 -1.866347,-4.752243 -0.963371,-0.0029 -3.239453,-0.177204 -5.057947,-0.38727 -3.159417,-0.364974 -3.290342,-0.323058 -2.945916,0.94348 0.412083,1.515441 1.516172,2.172063 4.599206,2.735271 1.192731,0.217904 2.554194,0.703903 3.025485,1.080032 1.009238,0.805457 1.15965,5.794178 0.192038,6.369254 -0.947681,0.563222 -2.448104,-0.809515 -3.479589,-3.18348 -0.881514,-2.02882 -2.225003,-2.772602 -2.225003,-1.231813 0,2.159799 2.098474,7.211905 3.344058,8.050872 2.09288,1.409667 8.417702,1.268739 9.968028,-0.222091 z"
     id="path1"
     sodipodi:nodetypes="sssssssscccssssssssssss" /><path
     style="fill:#ff9d24;fill-opacity:1;stroke-width:1"
     d="m 23.02976,28.34418 c 2.92596,-1.444764 4.6192,-2.037301 5.46918,-1.913914 0.38065,0.05527 1.01942,-0.590333 1.41947,-1.434657 1.50147,-3.168936 2.76053,-1.016243 1.40738,2.406276 -0.84292,2.131967 -0.10086,1.976744 3.08455,-0.645261 5.81546,-4.786826 8.42712,-13.036169 5.1307,-16.206113 C 38.81332,9.8507074 37.82806,9.4219973 37.35157,9.5978259 34.76583,10.552 31.05464,11.247198 30.21019,10.935586 28.66095,10.36389 29.71305,7.1393741 32.68319,3.3564153 L 35.31842,0 32.51804,0.40708411 C 30.97783,0.63095924 27.78295,1.7248189 25.4183,2.8378263 20.97283,4.9302388 19.56709,4.5105441 22.80853,2.0586606 25.5164,0.01037265 24.24444,0.0734134 19.97658,2.1990396 14.41013,4.9714091 10.70222,8.1864876 8.7691,11.916909 c -4.74163,9.150133 1.67977,16.202867 11.03612,12.121169 3.80678,-1.660701 5.03811,-1.189276 3.23918,1.240158 -0.74235,1.002535 -2.19583,2.303423 -3.22997,2.890861 -4.06683,2.310166 -1.4025,2.45526 3.21533,0.175105 z"
     id="path2"
     sodipodi:nodetypes="ssssssssscssssssssss" /></svg>
