<?xml version="1.0" encoding="UTF-8" standalone="no"?>
<svg
   fill="none"
   viewBox="0 0 48 48"
   height="256"
   width="256"
   version="1.1"
   id="svg6"
   sodipodi:docname="ti.svg"
   inkscape:version="1.2.1 (9c6d41e410, 2022-07-14)"
   xmlns:inkscape="http://www.inkscape.org/namespaces/inkscape"
   xmlns:sodipodi="http://sodipodi.sourceforge.net/DTD/sodipodi-0.dtd"
   xmlns="http://www.w3.org/2000/svg"
   xmlns:svg="http://www.w3.org/2000/svg">
  <defs
     id="defs10" />
  <sodipodi:namedview
     id="namedview8"
     pagecolor="#ffffff"
     bordercolor="#666666"
     borderopacity="1.0"
     inkscape:showpageshadow="2"
     inkscape:pageopacity="0.0"
     inkscape:pagecheckerboard="true"
     inkscape:deskcolor="#d1d1d1"
     showgrid="true"
     inkscape:zoom="0.8095703"
     inkscape:cx="74.113391"
     inkscape:cy="177.25453"
     inkscape:current-layer="svg6"
     showguides="false"
     inkscape:window-width="1920"
     inkscape:window-height="730"
     inkscape:window-x="-6"
     inkscape:window-y="-6"
     inkscape:window-maximized="1">
    <inkscape:grid
       type="xygrid"
       id="grid239"
       units="px"
       spacingx="1.5"
       spacingy="1.5" />
  </sodipodi:namedview>
  <path
     id="rect9409"
     style="fill:#fd3131;fill-opacity:1;stroke:none;stroke-width:0.9375;stroke-linecap:round;stroke-linejoin:round"
     d="m 14.136841,2.8436279 h 5.028808 5.028443 v 3.8972168 3.8968503 h 1.382812 c 0.760562,0 1.382813,0.04425 1.382813,0.09814 0,0.05389 -0.226215,1.197725 -0.502808,2.54187 -0.276568,1.344158 -0.502807,2.488318 -0.502807,2.542236 0,0.05389 -0.655838,0.09778 -1.457154,0.09778 h -1.456787 l -0.429932,2.074585 c -0.236433,1.140854 -0.429479,2.215572 -0.428833,2.388427 7.7e-4,0.213188 0.445877,0.314209 1.383912,0.314209 0.760561,0 1.383178,0.0342 1.383178,0.07581 0,0.0416 -0.459634,2.376977 -1.021362,5.189941 -1.178543,5.901627 -1.145764,6.276554 0.624756,7.080689 0.846169,0.384316 1.66884,0.466389 4.716797,0.470947 3.300459,0.005 3.705677,-0.04132 3.824341,-0.434692 0.165652,-0.548951 0.906074,-4.143531 0.906372,-4.399658 9.9e-5,-0.103689 -0.430565,-0.188599 -0.957276,-0.188599 -0.52671,0 -1.163437,-0.150277 -1.414673,-0.333984 -0.43991,-0.321669 -0.435388,-0.44482 0.116455,-3.331421 0.817361,-4.275785 0.708919,-4.08909 2.423584,-4.178833 l 1.447266,-0.07581 0.437988,-2.137207 c 0.240904,-1.175425 0.443398,-2.222093 0.449707,-2.325806 0.0074,-0.103689 -0.674898,-0.188598 -1.513916,-0.188598 -1.333465,0 -1.509567,-0.0552 -1.398925,-0.43982 0.06979,-0.241996 0.326635,-1.430019 0.571289,-2.640014 l 0.444946,-2.200196 h 4.222778 4.222417 l 0.003,3.331421 c 0.002,2.968707 0.0665,3.468344 0.59289,4.588623 0.32475,0.69142 0.83284,1.472777 1.12903,1.736206 0.50965,0.45331 0.5387,0.703184 0.5387,4.666626 v 4.187989 l -1.30591,0.33435 c -2.31454,0.593196 -6.115666,2.681173 -7.871707,4.323853 -2.23102,2.086962 -3.142456,3.938464 -3.142456,6.382324 0,0.997665 0.164392,2.279917 0.365112,2.849121 0.332721,0.943015 0.326974,1.054074 -0.06299,1.254272 -0.671204,0.344567 -2.339284,0.46959 -3.484497,0.261109 -1.602037,-0.291631 -3.064827,-1.151375 -4.641358,-2.727905 -1.20765,-1.20765 -1.786371,-2.146801 -3.651489,-5.926026 -2.405837,-4.874965 -3.370254,-6.153076 -4.641358,-6.153076 -1.000571,0 -1.63486,0.343882 -2.927124,1.587891 -0.8188,0.788215 -1.263787,1.026855 -1.916015,1.026855 -1.652056,0 -2.618614,-1.058697 -3.871216,-4.239624 C 7.601581,26.694435 7.074622,25.952062 5.307529,24.098877 3.029744,21.710114 2.320346,20.636162 2.320346,19.576172 v -0.641235 h 5.908448 5.908447 V 10.889282 Z M 29.8125,5.1064453 h 2.087402 2.087403 l -0.158936,0.8170166 c -0.08742,0.4494226 -0.282836,1.3263186 -0.43396,1.9486084 l -0.274658,1.1315918 -1.948608,0.073242 c -1.684938,0.063454 -1.948609,0.016647 -1.948609,-0.3479004 0,-0.2318639 0.132525,-1.1419983 0.2948,-2.0222168 z m -1.070068,5.5312497 h 2.000244 c 1.912132,0 1.999039,0.02492 1.980835,0.565796 -0.0099,0.311139 -0.774062,4.299632 -1.697022,8.863037 l -1.678344,8.296875 -1.896973,0.07251 c -1.043362,0.03986 -1.960143,0.0102 -2.037232,-0.06738 -0.07699,-0.07711 0.564564,-3.673766 1.42566,-7.992553 0.861095,-4.318776 1.641615,-8.276724 1.734375,-8.795289 z"
     sodipodi:nodetypes="cccccsscsscccsscscccsscccccsccccccccscccscccscscscssccccccccccccscccscccccscc" />
</svg>
