<?xml version="1.0" encoding="UTF-8" standalone="no"?>
<svg
   fill="none"
   viewBox="0 0 48 48"
   height="256"
   width="256"
   version="1.1"
   id="svg6"
   sodipodi:docname="tincantools.svg"
   inkscape:version="1.2.1 (9c6d41e410, 2022-07-14)"
   xmlns:inkscape="http://www.inkscape.org/namespaces/inkscape"
   xmlns:sodipodi="http://sodipodi.sourceforge.net/DTD/sodipodi-0.dtd"
   xmlns="http://www.w3.org/2000/svg"
   xmlns:svg="http://www.w3.org/2000/svg">
  <defs
     id="defs10" />
  <sodipodi:namedview
     id="namedview8"
     pagecolor="#ffffff"
     bordercolor="#666666"
     borderopacity="1.0"
     inkscape:showpageshadow="2"
     inkscape:pageopacity="0.0"
     inkscape:pagecheckerboard="true"
     inkscape:deskcolor="#d1d1d1"
     showgrid="true"
     inkscape:zoom="1.6191406"
     inkscape:cx="146.37395"
     inkscape:cy="144.21231"
     inkscape:current-layer="svg6"
     showguides="false"
     inkscape:window-width="1920"
     inkscape:window-height="730"
     inkscape:window-x="-6"
     inkscape:window-y="-6"
     inkscape:window-maximized="1">
    <inkscape:grid
       type="xygrid"
       id="grid239"
       units="px"
       spacingx="1.5"
       spacingy="1.5" />
  </sodipodi:namedview>
  <path
     id="rect12541"
     style="fill:#77c32f;fill-opacity:1;stroke-width:11.6411;stroke-linecap:round;stroke-linejoin:round"
     d="m 21.735318,19.026226 c 3.514613,-1.49e-4 6.363602,0.633153 6.36169,1.414207 v 14.842435 c 0,2.82685 -12.72338,2.82685 -12.72338,0 V 20.440433 c -0.0019,-0.781042 2.847077,-1.414356 6.36169,-1.414207 z"
     sodipodi:nodetypes="ccsscc" />
  <path
     id="rect12537"
     style="fill:#606668;fill-opacity:1;stroke-width:11.6411;stroke-linecap:round;stroke-linejoin:round"
     d="m 21.735318,10.550024 c 3.511968,-4.47e-4 6.359852,1.896789 6.36169,4.238101 -0.0018,2.341312 -2.849722,4.238548 -6.36169,4.238101 -3.511968,4.47e-4 -6.359852,-1.896789 -6.36169,-4.238101 0.0018,-2.341312 2.849722,-4.238548 6.36169,-4.238101 z M 9.6349096,15.793086 v 5.529526 h 3.0648864 v 4.060746 H 9.6349096 v 5.156663 c 0,0.620115 0.058361,1.031621 0.1773175,1.232283 0.1824086,0.310057 0.4989229,0.463782 0.9548819,0.463782 0.410389,0 0.984808,-0.117964 1.723433,-0.354635 l 0.413741,3.847021 c -1.377105,0.300869 -2.665935,0.450123 -3.8606679,0.450123 -1.3862185,0 -2.4082903,-0.180918 -3.0648868,-0.536547 C 5.322107,35.286296 4.8337386,34.748134 4.5144925,34.027751 4.2044352,33.298116 4.0507103,32.122332 4.0507103,30.499044 V 25.383358 H 1.9998738 v -4.060746 h 2.0508365 v -2.669275 z m 11.8457564,3.615105 c 0.08444,-4.97e-4 0.169743,-4.97e-4 0.254677,0 2.617172,1.24e-4 4.739457,0.462044 4.742847,1.032242 0.0081,0.571936 -2.117517,1.036711 -4.742847,1.036835 -2.625331,-1.24e-4 -4.750993,-0.464775 -4.742847,-1.036835 -4.1e-4,-0.549213 1.970944,-1.002689 4.488195,-1.032242 z m -6.111595,0.863989 c 0.09934,-0.0082 0.186507,0.06829 0.190977,0.168253 0,0.04346 0.0082,0.103062 0.07326,0.172847 0.06457,0.06954 0.168998,0.140066 0.318253,0.218294 0.298385,0.156829 0.766141,0.310803 1.332365,0.436589 1.132448,0.251572 2.715132,0.409271 4.460915,0.409271 1.745796,0 3.305731,-0.157575 4.438179,-0.409271 0.566224,-0.12591 1.038574,-0.27976 1.33691,-0.436589 0.149255,-0.07823 0.249213,-0.148758 0.313782,-0.218294 0.06457,-0.07078 0.09561,-0.129387 0.09561,-0.172847 0.0044,-0.09313 0.07947,-0.166267 0.172847,-0.168253 0.09065,0.0042 0.164031,0.07699 0.168253,0.168253 0,0.151241 -0.06333,0.299627 -0.168253,0.413865 -0.104304,0.114238 -0.241142,0.200413 -0.413865,0.291059 -0.345322,0.181415 -0.82028,0.329428 -1.405117,0.459312 -1.169576,0.260016 -2.771221,0.436589 -4.538225,0.436589 -1.767004,0 -3.364091,-0.176697 -4.533667,-0.436589 -0.584726,-0.130008 -1.059808,-0.277897 -1.405118,-0.459312 -0.172723,-0.09065 -0.331042,-0.176821 -0.436588,-0.291059 -0.105546,-0.114238 -0.172848,-0.262624 -0.172848,-0.413865 0.0044,-0.09313 0.07947,-0.166267 0.172848,-0.168253 z m 25.492243,1.518809 c 0.06954,-0.0016 0.142425,0 0.2137,0 1.541247,0 2.744175,0.461299 3.61056,1.382382 0.875537,0.911918 1.314174,2.322922 1.314174,4.2381 v 9.235588 h -5.597709 v -7.989634 c 0,-0.911919 -0.167384,-1.554111 -0.504759,-1.928055 -0.337375,-0.383071 -0.812209,-0.57293 -1.423309,-0.57293 -0.674874,0 -1.2221,0.253187 -1.641578,0.763906 -0.419577,0.51072 -0.627565,1.42871 -0.627565,2.751117 v 6.975583 H 30.634362 V 22.118381 h 5.183944 v 2.369151 c 0.775205,-0.966679 1.562071,-1.658627 2.355505,-2.069028 0.743914,-0.393252 1.639032,-0.602979 2.687466,-0.627565 z m -25.492243,1.996263 c 0.110513,-0.0097 0.20327,0.08444 0.190977,0.195571 0,0.04346 0.0082,0.0981 0.07326,0.168253 0.06457,0.06954 0.168998,0.140066 0.318253,0.218294 0.298385,0.156829 0.766141,0.310802 1.332365,0.436589 1.132448,0.251572 2.715132,0.413865 4.460915,0.413865 1.745796,0 3.305731,-0.162169 4.438179,-0.413865 0.566224,-0.125911 1.038574,-0.27976 1.33691,-0.436589 0.149255,-0.07823 0.249213,-0.148758 0.313782,-0.218294 0.06457,-0.07078 0.09561,-0.124793 0.09561,-0.168253 -0.01111,-0.103063 0.06829,-0.193833 0.172847,-0.195571 0.101821,0.0043 0.179305,0.09437 0.168253,0.195571 0,0.151241 -0.06333,0.272309 -0.168253,0.386547 -0.104304,0.114238 -0.241142,0.227731 -0.413865,0.318377 -0.345322,0.181415 -0.82028,0.329428 -1.405117,0.459312 -1.169576,0.259892 -2.771221,0.413865 -4.538225,0.413865 -1.767004,0 -3.364091,-0.153973 -4.533667,-0.413865 -0.584726,-0.130008 -1.059808,-0.277897 -1.405118,-0.459312 -0.172723,-0.09065 -0.331042,-0.204139 -0.436588,-0.318377 -0.105546,-0.114238 -0.172848,-0.235306 -0.172848,-0.386547 -0.01111,-0.103063 0.0683,-0.193833 0.172848,-0.195571 z m 0,1.43241 c 0.09934,-0.0082 0.186507,0.06829 0.190977,0.168253 0,0.04346 0.0082,0.103063 0.07326,0.172848 0.06457,0.06954 0.168998,0.140066 0.318253,0.218294 0.298385,0.156829 0.766141,0.310802 1.332365,0.436589 1.132448,0.251572 2.715132,0.40927 4.460915,0.40927 1.745796,0 3.305731,-0.157574 4.438179,-0.40927 0.566224,-0.125911 1.038574,-0.27976 1.33691,-0.436589 0.149255,-0.07823 0.249213,-0.148758 0.313782,-0.218294 0.06457,-0.07078 0.09561,-0.129387 0.09561,-0.172848 0.0044,-0.09313 0.07947,-0.166266 0.172847,-0.168253 0.09065,0.0042 0.164031,0.07699 0.168253,0.168253 0,0.151242 -0.06333,0.299627 -0.168253,0.413865 -0.104304,0.114239 -0.241142,0.200414 -0.413865,0.29106 -0.345322,0.181415 -0.82028,0.329304 -1.405117,0.459312 -1.169576,0.260016 -2.771221,0.436588 -4.538225,0.436588 -1.767004,0 -3.364091,-0.176696 -4.533667,-0.436588 -0.584726,-0.130008 -1.059808,-0.277897 -1.405118,-0.459312 -0.172723,-0.09065 -0.331042,-0.176821 -0.436588,-0.29106 -0.105546,-0.114238 -0.172848,-0.262623 -0.172848,-0.413865 0.0044,-0.09313 0.07947,-0.166266 0.172848,-0.168253 z m 0,1.405118 c 0.101821,-0.0083 0.189114,0.07078 0.190977,0.172847 0,0.04346 0.0082,0.0981 0.07326,0.168253 0.06457,0.06954 0.168998,0.140066 0.318253,0.218295 0.298385,0.156829 0.766141,0.310802 1.332365,0.436588 1.132448,0.251573 2.715132,0.413741 4.460915,0.413741 1.745796,0 3.305731,-0.162044 4.438179,-0.413741 0.566224,-0.12591 1.038574,-0.279759 1.33691,-0.436588 0.149255,-0.07823 0.249213,-0.148759 0.313782,-0.218295 0.06457,-0.07078 0.09561,-0.124793 0.09561,-0.168253 0.0021,-0.09437 0.07823,-0.170736 0.172847,-0.172847 0.09313,0.0044 0.166266,0.07947 0.168253,0.172847 0,0.151242 -0.06333,0.295033 -0.168253,0.409271 -0.104304,0.114238 -0.241142,0.200414 -0.413865,0.291059 -0.345322,0.181415 -0.82028,0.356622 -1.405117,0.486506 -1.169576,0.259892 -2.771221,0.413865 -4.538225,0.413865 -1.767004,0 -3.364091,-0.153973 -4.533667,-0.413865 -0.584726,-0.129884 -1.059808,-0.305091 -1.405118,-0.486506 -0.172723,-0.09064 -0.331042,-0.176821 -0.436588,-0.291059 -0.105546,-0.114238 -0.172848,-0.258029 -0.172848,-0.409271 0.0021,-0.09437 0.07823,-0.170736 0.172848,-0.172847 z m 0.02235,1.405117 c 0.101821,0.0043 0.17918,0.09437 0.168253,0.195571 0,0.04346 0.0082,0.07575 0.07326,0.14553 0.06457,0.06954 0.168998,0.167259 0.318252,0.245488 0.298386,0.156829 0.766141,0.310802 1.332366,0.436588 1.132448,0.251573 2.715131,0.409271 4.460915,0.409271 1.745795,0 3.30573,-0.157574 4.438179,-0.409271 0.566224,-0.12591 1.038574,-0.279759 1.336909,-0.436588 0.149255,-0.07823 0.249214,-0.175952 0.313783,-0.245488 0.06457,-0.06954 0.09561,-0.101821 0.09561,-0.14553 -0.0083,-0.101821 0.07078,-0.189114 0.172848,-0.190976 0.100579,0.0044 0.176448,0.09064 0.168253,0.190976 0,0.151242 -0.06333,0.276779 -0.168253,0.391018 -0.104305,0.114238 -0.241142,0.223137 -0.413865,0.313782 -0.345323,0.181415 -0.82028,0.329428 -1.405118,0.459312 -1.169576,0.259892 -2.77122,0.413865 -4.538224,0.413865 -1.767005,-1.2e-5 -3.364092,-0.153973 -4.533668,-0.413865 -0.584725,-0.130008 -1.059807,-0.277897 -1.405117,-0.459312 -0.172723,-0.09065 -0.331042,-0.199544 -0.436589,-0.313782 -0.105546,-0.114239 -0.172847,-0.239776 -0.172847,-0.391018 -0.0083,-0.101821 0.07078,-0.189114 0.172847,-0.190976 0.0075,-0.002 0.0149,-0.0035 0.02235,-0.0045 z m -0.02235,6.379881 c 0.101821,-0.0083 0.189114,0.07078 0.190977,0.172847 0,0.04346 0.0082,0.0981 0.07326,0.168253 0.06457,0.06954 0.168998,0.140066 0.318253,0.218295 0.298385,0.156829 0.766141,0.310802 1.332365,0.436588 1.132448,0.251573 2.715132,0.413866 4.460915,0.413866 1.745796,0 3.305731,-0.162169 4.438179,-0.413866 0.566224,-0.12591 1.038574,-0.279759 1.33691,-0.436588 0.149255,-0.07823 0.249213,-0.148758 0.313782,-0.218295 0.06457,-0.07078 0.09561,-0.124792 0.09561,-0.168253 0.0021,-0.09437 0.07823,-0.170736 0.172847,-0.172847 0.09313,0.0044 0.166266,0.07947 0.168253,0.172847 0,0.151242 -0.06333,0.27231 -0.168253,0.386548 -0.104304,0.114238 -0.241142,0.223137 -0.413865,0.313782 -0.345322,0.181416 -0.82028,0.333899 -1.405117,0.463783 -1.169576,0.259892 -2.771221,0.40927 -4.538225,0.40927 -1.767004,0 -3.364091,-0.149378 -4.533667,-0.40927 -0.584726,-0.130008 -1.059808,-0.282367 -1.405118,-0.463783 -0.172723,-0.09065 -0.331042,-0.199544 -0.436588,-0.313782 -0.105546,-0.114238 -0.172848,-0.235306 -0.172848,-0.386548 0.0021,-0.09437 0.07823,-0.170736 0.172848,-0.172847 z"
     sodipodi:nodetypes="ccccccccccscsccsscsccccccccccccccccsssscccccccssscccsscsccscscsccccccsccccsssccccccccscccccccccssscccccccsssscccccccsssccccccccssscccccccsssccccccccsssccccccccsssccccccccsssccc" />
</svg>
