<?xml version="1.0" encoding="UTF-8" standalone="no"?>
<svg
   fill="none"
   viewBox="0 0 48 48"
   height="256"
   width="256"
   version="1.1"
   id="svg6"
   sodipodi:docname="weixin.svg"
   inkscape:version="1.4 (86a8ad7, 2024-10-11)"
   xml:space="preserve"
   xmlns:inkscape="http://www.inkscape.org/namespaces/inkscape"
   xmlns:sodipodi="http://sodipodi.sourceforge.net/DTD/sodipodi-0.dtd"
   xmlns="http://www.w3.org/2000/svg"
   xmlns:svg="http://www.w3.org/2000/svg"><defs
     id="defs10" /><sodipodi:namedview
     id="namedview8"
     pagecolor="#ffffff"
     bordercolor="#666666"
     borderopacity="1.0"
     inkscape:showpageshadow="2"
     inkscape:pageopacity="0.0"
     inkscape:pagecheckerboard="true"
     inkscape:deskcolor="#d1d1d1"
     showgrid="true"
     inkscape:zoom="2.8284271"
     inkscape:cx="85.559921"
     inkscape:cy="122.50625"
     inkscape:current-layer="svg6"
     showguides="true"
     inkscape:window-width="2560"
     inkscape:window-height="1334"
     inkscape:window-x="-11"
     inkscape:window-y="-11"
     inkscape:window-maximized="1"><inkscape:grid
       type="xygrid"
       id="grid239"
       units="px"
       spacingx="1.5"
       spacingy="1.5"
       originx="0"
       originy="0" /></sodipodi:namedview><g
     id="g1"
     transform="matrix(0.32,0,0,0.31999999,0,16.320001)"
     style="stroke-width:3.12501;fill:#77c32f;fill-opacity:1"><g
       fill="#77c32f"
       id="g3"
       transform="matrix(0.50000001,0,0,0.50000001,0,-51.000003)"
       style="stroke-width:3.12501;fill:#77c32f;fill-opacity:1"><path
         d="m 200.803,111.88 c -24.213,1.265 -45.268,8.605 -62.362,25.188 -17.271,16.754 -25.155,37.284 -23,62.734 -9.464,-1.172 -18.084,-2.462 -26.753,-3.192 -2.994,-0.252 -6.547,0.106 -9.083,1.537 -8.418,4.75 -16.488,10.113 -26.053,16.092 1.755,-7.938 2.891,-14.889 4.902,-21.575 1.479,-4.914 0.794,-7.649 -3.733,-10.849 -29.066,-20.521 -41.318,-51.232 -32.149,-82.85 8.483,-29.25 29.315,-46.989 57.621,-56.236 38.635,-12.62 82.054,0.253 105.547,30.927 8.485,11.08 13.688,23.516 15.063,38.224 z M 89.366,102.028 c 0.223,-5.783 -4.788,-10.993 -10.74,-11.167 -6.094,-0.179 -11.106,4.478 -11.284,10.483 -0.18,6.086 4.475,10.963 10.613,11.119 6.085,0.154 11.186,-4.509 11.411,-10.435 z m 58.141,-11.171 c -5.974,0.11 -11.022,5.198 -10.916,11.004 0.109,6.018 5.061,10.726 11.204,10.652 6.159,-0.074 10.83,-4.832 10.772,-10.977 -0.051,-6.032 -4.981,-10.79 -11.06,-10.679 z"
         id="path2"
         style="stroke-width:3.12501;fill:#77c32f;fill-opacity:1" /><path
         d="m 255.201,262.83 c -7.667,-3.414 -14.7,-8.536 -22.188,-9.318 -7.459,-0.779 -15.3,3.524 -23.104,4.322 -23.771,2.432 -45.067,-4.193 -62.627,-20.432 -33.397,-30.89 -28.625,-78.254 10.014,-103.568 34.341,-22.498 84.704,-14.998 108.916,16.219 21.129,27.24 18.646,63.4 -7.148,86.284 -7.464,6.623 -10.15,12.073 -5.361,20.804 0.884,1.612 0.985,3.653 1.498,5.689 z m -87.274,-84.499 c 4.881,0.005 8.9,-3.815 9.085,-8.636 0.195,-5.104 -3.91,-9.385 -9.021,-9.406 -5.06,-0.023 -9.299,4.318 -9.123,9.346 0.166,4.804 4.213,8.69 9.059,8.696 z m 56.261,-18.022 c -4.736,-0.033 -8.76,3.844 -8.953,8.629 -0.205,5.117 3.772,9.319 8.836,9.332 4.898,0.016 8.768,-3.688 8.946,-8.562 0.19,-5.129 -3.789,-9.364 -8.829,-9.399 z"
         id="path3"
         style="stroke-width:3.12501;fill:#77c32f;fill-opacity:1" /></g></g></svg>
