<?xml version="1.0" encoding="UTF-8" standalone="no"?>
<svg
   fill="none"
   viewBox="0 0 48 48"
   height="256"
   width="256"
   version="1.1"
   id="svg6"
   sodipodi:docname="weony.svg"
   inkscape:version="1.4 (86a8ad7, 2024-10-11)"
   xml:space="preserve"
   xmlns:inkscape="http://www.inkscape.org/namespaces/inkscape"
   xmlns:sodipodi="http://sodipodi.sourceforge.net/DTD/sodipodi-0.dtd"
   xmlns="http://www.w3.org/2000/svg"
   xmlns:svg="http://www.w3.org/2000/svg"><defs
     id="defs10" /><sodipodi:namedview
     id="namedview8"
     pagecolor="#ffffff"
     bordercolor="#666666"
     borderopacity="1.0"
     inkscape:showpageshadow="2"
     inkscape:pageopacity="0.0"
     inkscape:pagecheckerboard="true"
     inkscape:deskcolor="#d1d1d1"
     showgrid="true"
     inkscape:zoom="1.1449053"
     inkscape:cx="93.457511"
     inkscape:cy="57.646689"
     inkscape:current-layer="svg6"
     showguides="false"
     inkscape:window-width="1352"
     inkscape:window-height="1321"
     inkscape:window-x="-9"
     inkscape:window-y="0"
     inkscape:window-maximized="0"><inkscape:grid
       type="xygrid"
       id="grid239"
       units="px"
       spacingx="1.5"
       spacingy="1.5"
       originx="0"
       originy="0" /></sodipodi:namedview><g
     id="g5"
     transform="matrix(0.57689857,0,0,0.63683404,-121.66194,-24.063967)"><path
       style="fill:#bb852e;fill-opacity:1"
       d="m 232.35714,108.36501 c -0.58376,-0.10419 -0.23051,-0.1657 1.59375,-0.27751 7.61752,-0.46689 14.15723,-1.93562 20.26545,-4.55136 1.29756,-0.55566 2.40848,-1.01029 2.46871,-1.01029 0.0602,0 0.91811,-0.45794 1.90642,-1.01764 0.9883,-0.5597 1.79692,-0.98002 1.79692,-0.93405 0,0.046 -0.78047,0.58802 -1.73438,1.20453 -0.9539,0.61652 -1.83315,1.20266 -1.95387,1.30255 -0.12073,0.0999 -1.10345,0.60585 -2.18384,1.12438 -5.94752,2.8545 -11.24201,4.10901 -17.84666,4.22869 -1.95938,0.0355 -3.9,0.004 -4.3125,-0.0693 z m -1.6875,-3.32715 c -2.85825,-0.2035 -6.99969,-0.87162 -8.11902,-1.30979 l -0.69348,-0.27148 0.75,0.10447 c 0.4125,0.0575 1.34063,0.14796 2.0625,0.20113 0.72187,0.0532 1.71743,0.17642 2.21235,0.27391 1.19785,0.23594 6.39827,0.22818 9.3189,-0.0139 5.0542,-0.41896 10.54922,-1.73275 15.17219,-3.62748 0.66189,-0.27127 1.23448,-0.462177 1.27243,-0.424227 0.14439,0.144387 -2.94623,1.610527 -5.15079,2.443457 -2.76016,1.04284 -6.14211,1.89567 -8.95008,2.25697 -2.20716,0.28399 -6.33728,0.47644 -7.875,0.36696 z m -2.93123,-4.95002 c -4.13096,-0.477322 -6.98394,-1.940835 -8.15941,-4.185601 -0.29871,-0.570443 -1.08576,-4.418743 -0.93462,-4.56988 0.0503,-0.05025 0.2155,0.148712 0.36724,0.442132 0.15173,0.293421 0.44581,0.687276 0.6535,0.875235 0.37407,0.338527 0.37605,0.334995 0.21117,-0.375443 -0.25707,-1.107602 -0.22399,-1.122817 0.52772,-0.242735 0.38672,0.45276 0.68204,0.889822 0.65625,0.97125 -0.0258,0.08143 0.0164,0.126956 0.0937,0.101175 0.1314,-0.0438 0.23438,0.103265 0.23438,0.334722 0,0.05519 -0.18984,0.0089 -0.42188,-0.10291 -0.29478,-0.142028 -0.23783,-0.04066 0.18908,0.336499 0.62641,0.553412 2.71224,1.350187 4.5453,1.73628 1.46054,0.30763 5.97241,0.428668 7.96875,0.213774 1.63625,-0.176133 3.37709,-0.658292 2.92313,-0.809615 -0.12296,-0.04099 1.22584,-0.31109 2.99734,-0.600231 1.7715,-0.289141 3.35785,-0.598851 3.52522,-0.688246 0.16737,-0.08939 1.52775,-0.503791 3.02306,-0.920882 1.49531,-0.417092 3.77312,-1.097349 5.06179,-1.511682 1.28868,-0.414334 2.46993,-0.753751 2.625,-0.75426 0.30293,-9.95e-4 2.09843,-0.62905 5.25071,-1.836671 3.64851,-1.397724 5.18355,-2.053248 5.96867,-2.548874 0.42973,-0.271278 0.78133,-0.412529 0.78133,-0.31389 0,0.195207 1.99585,-0.641582 6.65625,-2.790729 2.50899,-1.157023 1.69301,-0.603569 -1.3125,0.890233 -3.33388,1.657005 -3.88139,1.899154 -9.5625,4.229234 -9.16725,3.7599 -15.35702,5.738735 -22.1054,7.066966 -0.76763,0.151087 -1.02544,0.26819 -0.84375,0.383241 0.27333,0.17307 0.14247,0.226068 -0.48835,0.197787 -0.20625,-0.0092 -0.26953,0.03026 -0.14063,0.08778 0.13556,0.06049 0.23438,0.448513 0.23438,0.920266 0,0.745887 0.0441,0.822353 0.51562,0.893781 0.49591,0.07512 0.49309,0.07919 -0.0737,0.106204 -0.76345,0.0364 -1.03038,0.583836 -0.29542,0.605889 l 0.50974,0.0153 -0.60938,0.266493 c -0.33515,0.146571 -0.60937,0.294315 -0.60937,0.328321 0,0.0746 1.677,-0.179151 2.71875,-0.411378 8.59306,-1.915569 15.01971,-4.108263 21.5625,-7.35686 1.44375,-0.716845 2.45625,-1.170194 2.25,-1.007443 -0.48915,0.385984 -5.83676,3.08885 -7.40625,3.743369 -0.67031,0.279539 -1.59844,0.681204 -2.0625,0.892588 -1.27882,0.582512 -8.24764,2.820326 -10.6875,3.431946 -1.18594,0.297289 -2.1828,0.601451 -2.21524,0.675916 -0.0324,0.07447 -0.1622,0.09578 -0.28836,0.04737 -0.12615,-0.04841 -1.66054,0.214405 -3.40976,0.584031 -2.6673,0.563628 -3.64925,0.683578 -6.08664,0.743478 -1.59844,0.0393 -3.5503,-0.003 -4.33748,-0.0939 z m 2.60939,-5.012853 c 0.54486,-0.03799 1.38861,-0.0376 1.875,8.88e-4 0.48639,0.03848 0.0406,0.06957 -0.99066,0.06908 -1.03125,-4.88e-4 -1.4292,-0.03197 -0.88434,-0.06997 z m -2.99457,-0.177133 c 0.13536,-0.05416 0.29707,-0.0475 0.35938,0.0148 0.0623,0.0623 -0.0484,0.10662 -0.24609,0.09848 -0.21843,-0.009 -0.26286,-0.05343 -0.11329,-0.113281 z m 7.3125,0 c 0.13535,-0.05416 0.29707,-0.0475 0.35938,0.0148 0.0623,0.0623 -0.0484,0.10662 -0.2461,0.09848 -0.21842,-0.009 -0.26285,-0.05343 -0.11328,-0.113281 z m 32.03637,-6.449408 c 0.23263,-0.281595 1.37379,-0.999519 1.37379,-0.864275 0,0.04369 -0.35859,0.315932 -0.79688,0.604984 -0.43828,0.289052 -0.69789,0.405733 -0.57691,0.259291 z m 3.34254,-2.422508 c 0.18665,-0.20625 0.38156,-0.375 0.43312,-0.375 0.0516,0 -0.059,0.16875 -0.24562,0.375 -0.18665,0.20625 -0.38156,0.375 -0.43312,0.375 -0.0516,0 0.059,-0.16875 0.24562,-0.375 z m 0.9375,-0.75 c 0.18665,-0.20625 0.38156,-0.375 0.43312,-0.375 0.0516,0 -0.059,0.16875 -0.24562,0.375 -0.18665,0.20625 -0.38156,0.375 -0.43312,0.375 -0.0516,0 0.059,-0.16875 0.24562,-0.375 z m 0.84375,-0.633292 c 0,-0.03893 0.14766,-0.186591 0.32812,-0.328125 0.29739,-0.233225 0.30402,-0.226593 0.0708,0.07079 -0.24494,0.312328 -0.39891,0.411652 -0.39891,0.257333 z m 0.75,-0.75 c 0,-0.03893 0.14766,-0.186591 0.32812,-0.328125 0.29739,-0.233225 0.30402,-0.226593 0.0708,0.07079 -0.24494,0.312328 -0.39891,0.411652 -0.39891,0.257333 z m 6.14664,-6.105751 c -0.29586,-0.345537 -0.26395,-0.435749 0.6277,-1.774641 0.84867,-1.274337 0.97437,-1.388767 1.30129,-1.184604 0.19903,0.124296 0.36187,0.275048 0.36187,0.335004 0,0.05996 -0.41339,0.709086 -0.91864,1.442512 -0.50524,0.733426 -0.87087,1.381263 -0.8125,1.439637 0.0584,0.05837 0.0264,0.106135 -0.0709,0.106135 -0.0974,0 -0.31734,-0.163819 -0.48878,-0.364043 z m 5.4432,-0.514041 c 0.13535,-0.05416 0.29707,-0.0475 0.35938,0.0148 0.0623,0.06231 -0.0484,0.10662 -0.2461,0.09848 -0.21842,-0.009 -0.26285,-0.05343 -0.11328,-0.113282 z m 1.3125,-0.1875 c 0.13535,-0.05416 0.29707,-0.0475 0.35938,0.0148 0.0623,0.06231 -0.0484,0.10662 -0.2461,0.09848 -0.21842,-0.009 -0.26285,-0.05343 -0.11328,-0.113282 z m 0.99885,-0.148107 c 0.0967,-0.09668 2.67823,-0.661309 3.02357,-0.661309 0.13262,0 0.14566,0.0626 0.0346,0.166222 -0.26579,0.248027 -3.30278,0.739684 -3.05819,0.495087 z m 2.22381,-3.061309 c 0,-0.0825 0.10354,-0.253538 0.23008,-0.380085 0.18178,-0.18178 0.0539,-0.382344 -0.60937,-0.955319 -0.4617,-0.398879 -0.89966,-0.688826 -0.97325,-0.644326 -0.0736,0.0445 -0.31341,-0.09872 -0.53296,-0.318266 -0.22885,-0.228852 -0.5458,-0.360831 -0.74281,-0.309311 -0.23695,0.06197 -0.31266,0.0091 -0.24385,-0.170165 0.0719,-0.187291 -0.0763,-0.267171 -0.52966,-0.285562 -0.51154,-0.02075 -0.54163,-0.04129 -0.16068,-0.109627 0.6803,-0.122045 0.91999,-0.421309 0.36562,-0.4565 -0.25265,-0.01604 -0.66001,-0.01115 -0.90523,0.01086 -0.99433,0.08925 -1.02365,-0.113154 -0.18882,-1.303285 0.43832,-0.624867 0.86416,-1.177664 0.94631,-1.228437 0.31961,-0.19753 0.88221,0.329818 1.2149,1.13878 0.19166,0.466037 0.45125,0.847657 0.57688,0.848043 0.42107,0.0013 4.71324,-5.658873 4.75352,-6.268567 0.007,-0.109714 0.0784,-0.03261 0.15805,0.171339 0.11906,0.304742 0.21542,0.182277 0.54076,-0.687281 0.21774,-0.581954 0.45501,-1.50374 0.52726,-2.048414 0.16052,-1.210089 0.27205,-0.967496 0.73096,1.589987 0.28509,1.588762 0.29948,2.032021 0.10186,3.137858 -0.38418,2.149691 -2.06243,5.242587 -4.03377,7.433906 -0.82673,0.918985 -1.2258,1.190625 -1.2258,0.834375 z m -5.20406,-2.896875 c 0.0918,-0.278594 0.89156,-0.434442 0.89156,-0.173726 0,0.181841 -0.43298,0.408101 -0.78096,0.408101 -0.10329,0 -0.15306,-0.105469 -0.1106,-0.234375 z m 8.11242,-9.905662 c -0.41134,-0.417299 -1.33946,-1.048431 -2.0625,-1.402515 -1.32734,-0.650021 -3.97357,-1.315852 -4.5895,-1.154784 -0.25183,0.06586 -0.31126,0.001 -0.24197,-0.263934 0.0505,-0.193176 0.17541,-0.35123 0.27754,-0.35123 0.10213,0 0.13965,-0.119979 0.0834,-0.266621 -0.17191,-0.447994 0.83101,-3.858379 1.13467,-3.858379 0.60038,0 3.1462,0.985905 4.06728,1.575114 0.98697,0.631355 1.80026,1.479614 1.79487,1.872047 -0.002,0.114999 -0.0847,0.08253 -0.18463,-0.07216 -0.1,-0.154688 -0.18305,-0.201094 -0.18463,-0.103125 -0.002,0.09797 -0.10412,0.07688 -0.22787,-0.04687 -0.47978,-0.479778 -0.50749,-0.190506 -0.0482,0.503475 0.80007,1.208988 1.57425,4.342181 1.07011,4.33087 -0.0773,-0.0017 -0.47717,-0.344582 -0.88851,-0.761882 z m -32.72086,-6.364243 c 0,-0.39109 5.23984,-2.414658 8.22832,-3.177684 1.2034,-0.307256 4.22805,-0.942864 4.48744,-0.943004 0.0604,-3.2e-5 -0.15945,0.796919 -0.2482,0.899742 -0.0266,0.03081 -1.04971,0.260911 -2.27358,0.511327 -1.22388,0.250416 -2.98461,0.677854 -3.91273,0.949863 -0.92813,0.272008 -1.87679,0.49384 -2.10813,0.49296 -0.23324,-8.87e-4 -0.36896,0.08201 -0.30465,0.186076 0.0701,0.113362 -0.0277,0.142077 -0.24684,0.07252 -0.21183,-0.06723 -1.04095,0.151057 -1.99223,0.524516 -0.89617,0.351821 -1.6294,0.56948 -1.6294,0.483687 z m 27.69871,-3.695009 c 0.11235,-0.292776 0.11683,-0.292646 1.27004,0.03704 l 0.9375,0.268021 -1.14948,-0.03343 c -0.84257,-0.0245 -1.12506,-0.09703 -1.05806,-0.271638 z"
       id="path4"
       sodipodi:nodetypes="cssssssssscssccssssssssscssssssssssssssssssssssssssssssssscssssssssssssccsssssssssssssssssssssssssssssssssssssssssssssssssssssssssssssssssssssssssssssscssssssssssssssssscsscccssssssssssssssssssscsss" /><path
       style="fill:#6091d0;fill-opacity:1"
       d="m 225.01468,103.6872 c -0.59217,-0.0575 -0.5927,-0.0585 -1.07968,-2.13907 -0.26798,-1.14487 -0.46422,-2.104586 -0.4361,-2.132707 0.0281,-0.02812 0.61803,0.106067 1.31091,0.298196 3.4589,0.959121 8.27476,0.919391 13.29922,-0.109727 1.71979,-0.35225 3.20848,-0.640454 3.3082,-0.640454 0.19868,0 0.0742,0.683578 -0.55114,3.025582 l -0.38229,1.43184 -1.76165,0.22174 c -1.55005,0.19511 -11.81243,0.22849 -13.70747,0.0446 z m 31.82619,-0.11196 c -0.2491,-0.30015 -0.19102,-0.35174 1.8329,-1.62783 1.70844,-1.07718 3.21462,-2.21579 3.21462,-2.430116 0,-0.101374 -0.31641,0.02363 -0.70313,0.277792 -1.15504,0.759114 -4.30866,2.543354 -4.49535,2.543354 -0.17362,0 -1.86328,-7.440641 -1.72084,-7.577977 0.0416,-0.04008 0.91932,-0.422812 1.95057,-0.850528 3.09902,-1.285331 10.46956,-5.312371 10.96875,-5.992992 0.0516,-0.0703 0.38906,-0.329226 0.75,-0.575386 2.02046,-1.37796 6.38906,-5.301562 6.15899,-5.531626 -0.0623,-0.06225 -0.65083,0.131605 -1.30796,0.430783 -2.79839,1.27405 -7.50379,3.257463 -7.57025,3.191003 -0.0642,-0.06422 0.13759,-1.531294 0.8468,-6.155779 0.47156,-3.074902 1.89976,-11.3017 3.27133,-18.84375 0.26256,-1.44375 0.68867,-3.80625 0.94692,-5.25 0.25825,-1.44375 0.69141,-3.827344 0.96258,-5.296875 l 0.49304,-2.671875 h 7.49556 7.49555 l -0.087,0.515625 c -0.0478,0.283594 -0.78288,3.215625 -1.63343,6.515625 -0.85054,3.3 -1.87711,7.307812 -2.28126,8.90625 -0.40415,1.598437 -0.85245,3.285937 -0.99621,3.75 -0.14377,0.464062 -0.31518,1.085737 -0.38091,1.3815 -0.15901,0.715453 -0.34211,0.488482 -0.47798,-0.592506 l -0.11095,-0.882744 -0.25475,1.078125 c -0.14012,0.592969 -0.27322,1.078125 -0.29577,1.078125 -0.2158,0 -1.59197,-0.687335 -2.04365,-1.020712 -1.26794,-0.935841 -1.35352,-0.847827 -0.29321,0.301527 0.68724,0.744941 1.10254,1.554194 0.90101,1.755715 -0.0449,0.04486 -0.54015,0.157631 -1.10064,0.250599 -0.56049,0.09297 -0.80814,0.179367 -0.55033,0.191997 0.25782,0.01263 0.78526,0.110864 1.1721,0.218295 l 0.70336,0.19533 -0.29738,0.575067 c -0.16356,0.316287 -0.64058,0.947388 -1.06004,1.402448 -0.47685,0.517331 -0.62899,0.777908 -0.40597,0.695359 0.19618,-0.07261 0.39887,-0.190906 0.45043,-0.262874 0.21513,-0.300268 1.97478,-1.302751 2.28671,-1.302751 0.39863,0 0.40922,0.114758 0.11748,1.273339 -0.13454,0.534308 -0.64731,1.452125 -1.3125,2.349265 -0.60043,0.809803 -1.09169,1.616937 -1.09169,1.793632 0,0.417324 0.36139,0.771264 0.7875,0.771264 0.18562,0 0.3375,0.02456 0.3375,0.05457 0,0.03001 -0.67383,2.666731 -1.4974,5.859375 -0.82356,3.192644 -2.26223,8.80012 -3.19704,12.461057 -0.9348,3.66094 -1.76781,6.78281 -1.85111,6.9375 -0.22272,0.41352 -15.78701,0.52142 -16.12697,0.1118 z m -29.62738,-8.833728 c -1.9468,-0.297971 -3.22905,-0.671819 -4.5126,-1.315669 l -0.84375,-0.423241 -1.10424,-4.566457 c -0.60733,-2.511551 -1.2989,-5.368019 -1.53682,-6.347707 -0.23792,-0.979688 -0.81971,-3.384375 -1.29286,-5.34375 -0.47314,-1.959375 -1.36322,-5.629688 -1.97793,-8.15625 -0.61472,-2.526563 -1.87895,-7.757813 -2.80942,-11.625 -0.93046,-3.867187 -1.81679,-7.500848 -1.96961,-8.074801 -0.4948,-1.858232 -1.33511,-1.675199 7.69088,-1.675199 4.38281,0 7.96875,0.05146 7.96875,0.11435 0,0.06289 0.30116,1.855861 0.66925,3.984375 0.92874,5.370559 1.17366,6.803017 1.49525,8.745025 0.1537,0.928125 0.53401,3.164062 0.84514,4.96875 0.70535,4.091305 1.26198,7.413385 1.508,9 0.10394,0.670312 0.27136,1.725 0.37204,2.34375 0.10068,0.61875 0.43145,2.854687 0.73504,4.96875 0.3036,2.114062 0.68048,4.6875 0.83753,5.71875 0.15705,1.03125 0.28604,1.943261 0.28664,2.026691 6.1e-4,0.08343 0.0781,0.104081 0.17229,0.04589 0.0942,-0.05819 0.22511,-0.46395 0.29102,-0.901691 0.36541,-2.427076 1.37394,-7.46222 2.82587,-14.108392 0.24781,-1.134375 0.79404,-3.665625 1.21384,-5.625 0.4198,-1.959375 0.93936,-4.321875 1.15457,-5.25 0.21521,-0.928125 0.53806,-2.404687 0.71744,-3.28125 0.35937,-1.756077 2.38162,-10.929908 2.65558,-12.046875 l 0.17245,-0.703125 h 7.30528 c 4.31087,0 7.30527,0.07056 7.30527,0.172148 0,0.09468 0.33254,1.803276 0.73897,3.796875 0.40644,1.9936 1.03762,5.143477 1.40262,6.999727 0.365,1.85625 0.95389,4.809375 1.30864,6.5625 1.9749,9.759765 3.92375,21.123224 3.66076,21.345377 -0.39256,0.331598 -10.44949,4.159873 -10.58143,4.027931 -0.0441,-0.04411 -0.54595,-2.311771 -1.11519,-5.039252 -0.56925,-2.727481 -1.11904,-5.338744 -1.22177,-5.802806 -0.28438,-1.284751 -1.44847,-8.606649 -1.78861,-11.25 -0.16587,-1.289063 -0.34436,-2.470313 -0.39665,-2.625 -0.16253,-0.480867 -0.35778,0.111276 -0.71098,2.15625 -0.40256,2.33075 -1.75552,9.487673 -1.98495,10.5 -0.4742,2.09242 -0.85757,3.682295 -2.23166,9.255051 -0.82286,3.337153 -1.52195,6.089582 -1.55355,6.116508 -0.11159,0.0951 -4.20826,0.850749 -6.1512,1.134622 -2.88789,0.421934 -7.40639,0.506221 -9.5499,0.178143 z"
       id="path2" /></g></svg>
