<?xml version="1.0" encoding="UTF-8" standalone="no"?>
<svg
   fill="none"
   viewBox="0 0 48 48"
   height="256"
   width="256"
   version="1.1"
   id="svg6"
   sodipodi:docname="yolanda.svg"
   inkscape:version="1.4 (86a8ad7, 2024-10-11)"
   xml:space="preserve"
   xmlns:inkscape="http://www.inkscape.org/namespaces/inkscape"
   xmlns:sodipodi="http://sodipodi.sourceforge.net/DTD/sodipodi-0.dtd"
   xmlns="http://www.w3.org/2000/svg"
   xmlns:svg="http://www.w3.org/2000/svg"><defs
     id="defs10" /><sodipodi:namedview
     id="namedview8"
     pagecolor="#ffffff"
     bordercolor="#666666"
     borderopacity="1.0"
     inkscape:showpageshadow="2"
     inkscape:pageopacity="0.0"
     inkscape:pagecheckerboard="true"
     inkscape:deskcolor="#d1d1d1"
     showgrid="true"
     inkscape:zoom="2.8284271"
     inkscape:cx="130.63798"
     inkscape:cy="105.88924"
     inkscape:current-layer="svg6"
     showguides="true"
     inkscape:window-width="2560"
     inkscape:window-height="1334"
     inkscape:window-x="-11"
     inkscape:window-y="-11"
     inkscape:window-maximized="1"><inkscape:grid
       type="xygrid"
       id="grid239"
       units="px"
       spacingx="1.5"
       spacingy="1.5"
       originx="0"
       originy="0" /></sodipodi:namedview><path
     style="fill:#ea6718;stroke-width:0.861883"
     d="M 19.34477,47.84771 C 12.606796,46.980952 7.0720364,43.428887 4.0663848,38.04244 3.307712,36.682815 3.0334613,35.610626 3.0192989,33.948758 2.9953649,31.139075 4.209274,29.217728 6.9150277,27.782769 7.5329721,27.455048 7.8709319,27.397454 9.178373,27.397074 c 1.41523,-4.14e-4 1.623241,0.0421 2.62685,0.537294 1.331202,0.656797 2.804356,1.991478 3.391591,3.072814 0.589206,1.084951 0.734902,1.978863 0.913003,5.601594 0.227727,4.632046 0.779362,6.242341 2.83845,8.285718 1.345615,1.335337 2.724901,2.081773 5.00432,2.708215 L 25.398217,48 22.896126,47.9914 C 21.519973,47.9862 19.921863,47.92203 19.34477,47.847764 Z m 8.111803,-0.867492 C 25.508434,46.535334 23.789732,45.26332 22.984234,43.670247 21.298963,40.337204 22.139166,37.314478 25.3244,35.25123 c 2.088687,-1.352965 3.806967,-1.45037 7.176526,-0.406843 3.4064,1.05495 4.131866,1.212323 5.665406,1.228992 3.290664,0.03581 6.060144,-1.552106 8.138328,-4.666085 0.442882,-0.66363 0.80525,-1.118722 0.80525,-1.011317 0,0.107414 -0.255707,0.961135 -0.568235,1.89717 -0.683203,2.046241 -1.87447,4.477988 -3.109385,6.347262 -1.266684,1.917343 -3.788164,4.423534 -5.679499,5.645037 -3.454233,2.230888 -7.588889,3.313027 -10.296218,2.694772 z M 0.98193176,31.036699 C 0.33924415,28.893933 0.12276216,27.456929 0.02475337,24.683148 -0.119677,20.595229 0.35725491,17.877842 1.7370575,14.926921 2.9839404,12.260286 5.2689381,9.4180389 7.1504589,8.193343 9.2499684,6.8267633 11.923222,6.5497855 13.912119,7.4927577 c 1.35939,0.6445099 2.703756,1.9623909 3.259015,3.1947923 0.881528,1.956567 0.522157,4.403939 -0.969489,6.602436 -1.154832,1.702075 -1.672667,1.984082 -5.975515,3.254189 -3.1862753,0.940513 -4.5462679,1.602444 -5.8926403,2.868037 -1.8777671,1.765105 -2.7090425,3.754823 -2.8812294,6.896473 L 1.3458575,32.250057 Z M 38.878092,30.775719 C 37.937676,30.434477 36.892235,29.708274 36.388441,29.046309 35.660427,28.08973 35.008812,26.461686 34.85046,25.20372 34.559894,22.89548 34.833329,22.153642 37.357768,18.401694 39.062083,15.868625 39.5721,14.865815 39.930335,13.343373 40.568236,10.63245 39.800523,7.6894144 37.806625,5.2021277 36.633928,3.7392559 36.649452,3.7688683 37.234379,4.1104636 c 2.308312,1.3480374 5.784154,4.699563 7.412173,7.1470734 1.610627,2.421357 2.482505,4.466891 3.051927,7.16024 0.404312,1.91239 0.401445,5.833617 -0.0052,7.199257 -0.673543,2.261604 -2.112785,4.053733 -3.932447,4.89666 -1.190225,0.551349 -3.712342,0.686702 -4.882669,0.262025 z M 27.98102,14.30708 C 26.195304,13.863627 25.431801,13.20507 23.08739,10.086052 21.452045,7.9103944 21.056584,7.4554661 20.089573,6.6374666 17.467356,4.4193231 14.307598,3.9379058 10.627809,5.1958894 L 8.9328434,5.7753331 9.4978313,5.2915861 C 11.248129,3.7929759 14.718865,1.8897662 17.248128,1.0416365 c 2.606436,-0.87399734 4.313471,-1.11460676 7.262249,-1.02362972 3.052264,0.09417815 4.913019,0.53087485 7.354517,1.72600112 1.327431,0.6497904 1.8068,0.9884003 2.572094,1.8168315 0.519332,0.5621784 1.163975,1.4906032 1.43937,2.0729978 0.454143,0.9604273 0.49874,1.1995786 0.498352,2.6726231 -3.88e-4,1.5033988 -0.03952,1.7014537 -0.553021,2.8004947 -1.096013,2.345704 -2.934685,3.443452 -5.718792,3.414323 -0.723108,-0.0078 -1.677961,-0.103954 -2.121877,-0.214198 z"
     id="path2" /></svg>
