<?xml version="1.0" encoding="UTF-8" standalone="no"?>
<svg
   fill="none"
   viewBox="0 0 48 48"
   height="256"
   width="256"
   version="1.1"
   id="svg2626"
   sodipodi:docname="info_purple.svg"
   inkscape:version="1.2.1 (9c6d41e410, 2022-07-14)"
   xmlns:inkscape="http://www.inkscape.org/namespaces/inkscape"
   xmlns:sodipodi="http://sodipodi.sourceforge.net/DTD/sodipodi-0.dtd"
   xmlns="http://www.w3.org/2000/svg"
   xmlns:svg="http://www.w3.org/2000/svg">
  <defs
     id="defs2630" />
  <sodipodi:namedview
     id="namedview2628"
     pagecolor="#ffffff"
     bordercolor="#666666"
     borderopacity="1.0"
     inkscape:showpageshadow="2"
     inkscape:pageopacity="0.0"
     inkscape:pagecheckerboard="0"
     inkscape:deskcolor="#d1d1d1"
     showgrid="false"
     inkscape:zoom="1.6191406"
     inkscape:cx="151.93245"
     inkscape:cy="147.91798"
     inkscape:current-layer="svg2626" />
  <path
     id="rect3196"
     style="fill:#c8a8c5;fill-opacity:1;stroke-width:1.5;stroke-linecap:round;stroke-linejoin:round"
     d="M 36.75,25.5 C 42.96321,25.5 48,30.536791 48,36.75 48,42.96321 42.96321,48 36.75,48 30.536791,48 25.5,42.96321 25.5,36.75 25.5,30.536791 30.536791,25.5 36.75,25.5 Z"
     sodipodi:nodetypes="sssss" />
  <path
     id="rect3246"
     style="fill:#805887;fill-opacity:1;stroke-width:1.5;stroke-linecap:round;stroke-linejoin:round"
     d="m 36.75,29.559082 c 1.129651,0 2.045288,0.915637 2.045288,2.045288 0,1.12965 -0.915637,2.045654 -2.045288,2.045654 -1.12965,0 -2.045288,-0.916004 -2.045288,-2.045654 0,-1.129651 0.915638,-2.045288 2.045288,-2.045288 z m 0,5.625 c 0.454142,0 0.832739,0.06478 1.13562,0.151245 0.614352,0.175346 0.888244,0.805357 0.846314,1.442871 l -0.118287,6.213135 c -0.06218,0.430722 -0.312092,0.807055 -0.739746,0.887695 -0.192474,0.03631 -0.819844,0.06189 -1.123901,0.06189 -0.304056,0 -0.931426,-0.02558 -1.123901,-0.06189 -0.427653,-0.08064 -0.677569,-0.456973 -0.739746,-0.887695 l -0.118287,-6.213135 c -0.04193,-0.637514 0.231962,-1.267525 0.846314,-1.442871 0.302881,-0.08647 0.681478,-0.151245 1.13562,-0.151245 z"
     sodipodi:nodetypes="ssssssccccsccccs" />
</svg>
