<?xml version="1.0" encoding="UTF-8" standalone="no"?>
<svg
   fill="none"
   viewBox="0 0 48 48"
   height="256"
   width="256"
   version="1.1"
   id="svg8"
   sodipodi:docname="lock.svg"
   inkscape:version="1.2.1 (9c6d41e410, 2022-07-14)"
   xmlns:inkscape="http://www.inkscape.org/namespaces/inkscape"
   xmlns:sodipodi="http://sodipodi.sourceforge.net/DTD/sodipodi-0.dtd"
   xmlns="http://www.w3.org/2000/svg"
   xmlns:svg="http://www.w3.org/2000/svg">
  <defs
     id="defs12" />
  <sodipodi:namedview
     id="namedview10"
     pagecolor="#ffffff"
     bordercolor="#666666"
     borderopacity="1.0"
     inkscape:showpageshadow="2"
     inkscape:pageopacity="0.0"
     inkscape:pagecheckerboard="0"
     inkscape:deskcolor="#d1d1d1"
     showgrid="false"
     inkscape:zoom="3.8984376"
     inkscape:cx="183.66332"
     inkscape:cy="194.0521"
     inkscape:current-layer="svg8" />
  <path
     id="rect1001"
     style="fill:#8f5902;fill-opacity:1;stroke-width:1.5;stroke-linecap:round;stroke-linejoin:round"
     d="m 35.867432,23.25 h 1.765136 c 3.528109,0 6.444687,2.775816 6.651856,6.330688 l 0.33728,5.789795 c 0.05895,1.011262 -0.705351,1.879208 -1.707275,1.938721 -1.001924,0.05946 -1.861827,-0.712127 -1.920777,-1.723389 l -0.337646,-5.789794 c -0.09416,-1.615836 -1.419752,-2.877686 -3.023438,-2.877686 h -1.765136 c -1.603686,0 -2.929276,1.26185 -3.023438,2.877686 l -0.337646,5.789794 c -0.05895,1.011262 -0.918853,1.782845 -1.920777,1.723389 -1.001924,-0.05951 -1.766225,-0.927459 -1.707275,-1.938721 l 0.33728,-5.789795 C 29.422745,26.025816 32.339323,23.25 35.867432,23.25 Z"
     sodipodi:nodetypes="sscccccsscccccs" />
  <path
     id="rect899"
     style="fill:#fce94f;fill-opacity:1;stroke-width:1.5;stroke-linecap:round;stroke-linejoin:round"
     d="m 36.75,33.375 c 3.907515,0 6.651648,0.09437 8.384033,0.184937 1.404787,0.07341 2.533607,1.074622 2.668213,2.474853 C 47.909064,37.146063 48,38.680615 48,40.6875 c 0,2.006885 -0.09094,3.541436 -0.197754,4.65271 -0.134606,1.400231 -1.263426,2.401444 -2.668213,2.474853 C 43.401648,47.905626 40.657515,48 36.75,48 32.842485,48 30.098364,47.905626 28.365967,47.815063 26.961214,47.741658 25.832354,46.740441 25.697754,45.34021 25.590932,44.228936 25.5,42.694385 25.5,40.6875 c 0,-2.006885 0.09093,-3.541437 0.197754,-4.65271 0.1346,-1.400231 1.263454,-2.401444 2.668213,-2.474853 C 30.098358,33.469375 32.842485,33.375 36.75,33.375 Z"
     sodipodi:nodetypes="scssscscssscs" />
  <path
     id="rect1056"
     style="fill:#8f5902;fill-opacity:1;stroke-width:1.5;stroke-linecap:round;stroke-linejoin:round"
     d="m 36.75,36.75 c 1.242618,0 2.25,1.007382 2.25,2.25 0,0.875474 -0.50009,1.634179 -1.230103,2.006104 l 0.499146,2.494995 c 0.09951,0.497474 -0.157486,0.9879 -0.65918,1.06311 -0.236136,0.03538 -0.522644,0.06079 -0.859863,0.06079 -0.337219,0 -0.623727,-0.02541 -0.859863,-0.06079 -0.501694,-0.07521 -0.75869,-0.565636 -0.65918,-1.06311 l 0.499146,-2.494995 C 35.00009,40.634179 34.5,39.875474 34.5,39 c 0,-1.242618 1.007382,-2.25 2.25,-2.25 z"
     sodipodi:nodetypes="sscccscccss" />
</svg>
