<?xml version="1.0" encoding="UTF-8" standalone="no"?>
<svg
   fill="none"
   viewBox="0 0 48 48"
   height="256"
   width="256"
   version="1.1"
   id="svg6"
   sodipodi:docname="merge.svg"
   inkscape:version="1.2.1 (9c6d41e410, 2022-07-14)"
   xmlns:inkscape="http://www.inkscape.org/namespaces/inkscape"
   xmlns:sodipodi="http://sodipodi.sourceforge.net/DTD/sodipodi-0.dtd"
   xmlns="http://www.w3.org/2000/svg"
   xmlns:svg="http://www.w3.org/2000/svg">
  <defs
     id="defs10" />
  <sodipodi:namedview
     id="namedview8"
     pagecolor="#ffffff"
     bordercolor="#666666"
     borderopacity="1.0"
     inkscape:showpageshadow="2"
     inkscape:pageopacity="0.0"
     inkscape:pagecheckerboard="true"
     inkscape:deskcolor="#d1d1d1"
     showgrid="true"
     inkscape:zoom="1.6191406"
     inkscape:cx="90.480098"
     inkscape:cy="167.68155"
     inkscape:current-layer="svg6"
     showguides="false">
    <inkscape:grid
       type="xygrid"
       id="grid239"
       units="px"
       spacingx="1.5"
       spacingy="1.5" />
  </sodipodi:namedview>
  <path
     id="path4"
     d="M 11.294312,3.0655518 C 9.1113862,3.0022207 9.6638916,5.6384889 9.5776051,7.0625226 9.3261339,8.7883454 9.7495606,11.068855 12.015974,10.630669 c 2.446678,0.318769 4.317234,2.712237 4.123759,5.157748 0.08986,3.506861 2.356001,6.825503 5.574012,8.211583 -3.517535,1.492635 -5.77492,5.27231 -5.605763,9.064791 -0.19578,2.520423 -2.597707,4.524689 -5.102538,4.376144 -2.1656915,0.391531 -1.1984145,3.175862 -1.4107237,4.723189 -0.472755,1.762845 0.8924827,3.350192 2.7095597,2.698914 3.80588,-0.763312 6.61562,-3.953822 8.408581,-7.218405 1.303224,-2.149498 1.33202,-4.691785 1.981605,-7.047728 0.361049,-1.462223 1.472963,-3.171859 3.203097,-2.868283 1.534606,0.05913 3.069211,0.11827 4.603816,0.177406 0.239057,1.730211 -0.462737,3.975223 1.078112,5.217025 1.736598,0.997997 3.141107,-0.952008 4.38675,-1.87883 2.108934,-1.89279 4.375733,-3.75306 5.858838,-6.198897 0.812088,-1.777928 -0.776274,-3.319857 -1.866992,-4.518976 -2.005686,-2.07363 -4.133852,-4.079565 -6.495391,-5.734523 -2.281871,-1.033181 -3.252939,1.867921 -2.912038,3.633711 0.150939,1.164602 -0.01583,1.998305 -1.319866,1.717027 -1.483588,-0.0077 -2.989212,0.258702 -4.45647,0.03915 -1.922971,-0.82709 -2.21805,-3.220895 -2.579606,-5.038631 C 21.654102,10.602375 18.779427,6.4169223 14.883099,4.0691168 13.790626,3.4560531 12.558596,3.0424069 11.294312,3.0655518 Z"
     style="fill:#204a87;fill-opacity:1" />
</svg>
