<?xml version="1.0" encoding="UTF-8" standalone="no"?>
<svg
   fill="none"
   viewBox="0 0 48 48"
   height="256"
   width="256"
   version="1.1"
   id="svg1304"
   sodipodi:docname="mod.svg"
   inkscape:version="1.2.1 (9c6d41e410, 2022-07-14)"
   xmlns:inkscape="http://www.inkscape.org/namespaces/inkscape"
   xmlns:sodipodi="http://sodipodi.sourceforge.net/DTD/sodipodi-0.dtd"
   xmlns="http://www.w3.org/2000/svg"
   xmlns:svg="http://www.w3.org/2000/svg">
  <defs
     id="defs1308" />
  <sodipodi:namedview
     id="namedview1306"
     pagecolor="#ffffff"
     bordercolor="#666666"
     borderopacity="1.0"
     inkscape:showpageshadow="2"
     inkscape:pageopacity="0.0"
     inkscape:pagecheckerboard="0"
     inkscape:deskcolor="#d1d1d1"
     showgrid="false"
     inkscape:zoom="0.97460938"
     inkscape:cx="-183.66333"
     inkscape:cy="115.43086"
     inkscape:current-layer="svg1304"
     inkscape:window-width="1920"
     inkscape:window-height="730"
     inkscape:window-x="-6"
     inkscape:window-y="-6"
     inkscape:window-maximized="1" />
  <path
     id="rect1479"
     style="fill:#2e3436;stroke:none;stroke-width:0.924347;stroke-linecap:round;stroke-linejoin:round;fill-opacity:1"
     d="m 36.799333,26.829798 c 0.575826,0.0013 1.157527,0.04991 1.740371,0.148582 0.637773,0.107973 1.178465,0.554604 1.14785,1.200748 -0.01084,0.22939 -0.04895,0.498861 -0.131972,0.808623 -0.08302,0.309761 -0.184689,0.562281 -0.289941,0.766377 -0.296579,0.574893 -0.981142,0.658835 -1.623203,0.580244 -3.479629,-0.425913 -6.830966,1.763737 -7.764332,5.247111 -0.465194,1.736141 -0.06299,3.837763 0.699218,5.397318 0.512457,-0.27829 0.94153,-0.500933 1.298598,-0.678998 0.816579,-0.407156 1.589033,0.136608 1.48383,1.042959 -0.06493,0.559882 -0.166227,1.270995 -0.323341,2.155605 -0.227562,1.281659 -0.483902,2.135211 -0.696871,2.686022 -0.234956,0.6078 -0.809251,0.939324 -1.453138,0.838952 -0.583496,-0.09096 -1.450943,-0.295594 -2.674647,-0.739477 -0.844378,-0.306241 -1.510654,-0.574123 -2.027966,-0.797791 -0.837708,-0.362195 -0.922468,-1.303127 -0.1614,-1.806808 0.29971,-0.198327 0.660108,-0.429231 1.092065,-0.695788 -1.191044,-2.584961 -1.296017,-5.584682 -0.569773,-8.295108 1.270958,-4.743254 5.565778,-7.868921 10.254652,-7.858571 z m 5.57659,0.95901 c 0.07778,-6.46e-4 0.1571,0.0052 0.237586,0.01769 0.583496,0.09096 1.450913,0.295629 2.674647,0.739477 0.844383,0.306262 1.51081,0.573958 2.028147,0.79761 0.837678,0.362176 0.922336,1.303308 0.161219,1.80699 -0.299685,0.198327 -0.660113,0.42923 -1.092065,0.695787 1.191049,2.585009 1.296036,5.584731 0.569773,8.295108 -1.42704,5.325754 -6.666163,8.61215 -11.995022,7.709989 -0.637774,-0.107963 -1.178515,-0.554643 -1.147851,-1.200748 0.01085,-0.229385 0.04895,-0.499062 0.131972,-0.808803 0.08297,-0.309741 0.184689,-0.562102 0.289941,-0.766196 0.296579,-0.574869 0.981141,-0.658826 1.623204,-0.580245 3.479628,0.425938 6.831145,-1.763736 7.764511,-5.247111 0.46518,-1.736141 0.0628,-3.837763 -0.699398,-5.397317 -0.512457,0.278289 -0.94135,0.500931 -1.298418,0.678997 -0.816578,0.407155 -1.589163,-0.136559 -1.48401,-1.042958 0.06498,-0.559882 0.166276,-1.270996 0.323341,-2.155606 0.22761,-1.281669 0.483951,-2.135225 0.696871,-2.686021 0.20563,-0.531842 0.671074,-0.852113 1.215552,-0.856646 z"
     sodipodi:nodetypes="sscsccccccccscscccsssscccccccccccccccs" />
</svg>
