<?xml version="1.0" encoding="UTF-8" standalone="no"?>
<svg
   fill="none"
   viewBox="0 0 48 48"
   height="256"
   width="256"
   version="1.1"
   id="svg6"
   sodipodi:docname="pause.svg"
   inkscape:version="1.2.1 (9c6d41e410, 2022-07-14)"
   xmlns:inkscape="http://www.inkscape.org/namespaces/inkscape"
   xmlns:sodipodi="http://sodipodi.sourceforge.net/DTD/sodipodi-0.dtd"
   xmlns="http://www.w3.org/2000/svg"
   xmlns:svg="http://www.w3.org/2000/svg">
  <defs
     id="defs10" />
  <sodipodi:namedview
     id="namedview8"
     pagecolor="#ffffff"
     bordercolor="#666666"
     borderopacity="1.0"
     inkscape:showpageshadow="2"
     inkscape:pageopacity="0.0"
     inkscape:pagecheckerboard="true"
     inkscape:deskcolor="#d1d1d1"
     showgrid="true"
     inkscape:zoom="0.8095703"
     inkscape:cx="-313.12908"
     inkscape:cy="99.435466"
     inkscape:current-layer="svg6"
     showguides="false"
     inkscape:window-width="1920"
     inkscape:window-height="730"
     inkscape:window-x="-6"
     inkscape:window-y="-6"
     inkscape:window-maximized="1">
    <inkscape:grid
       type="xygrid"
       id="grid239"
       units="px"
       spacingx="1.5"
       spacingy="1.5" />
  </sodipodi:namedview>
  <path
     id="rect895"
     style="fill:#cc0000;fill-opacity:1;stroke-width:1.5;stroke-linecap:round;stroke-linejoin:round"
     d="m 47.182235,22.624172 c 0.03613,0.03358 0.07094,0.06853 0.104357,0.104874 0.343722,0.373859 0.541721,0.890612 0.565548,1.450121 0.05431,1.274768 0.118587,3.426932 0.14786,6.837581 v 7.967899 c -0.02927,3.410226 -0.09355,5.561919 -0.14786,6.836546 -0.04243,0.994753 -0.635589,1.854707 -1.61818,2.015927 -0.563494,0.09242 -1.295844,0.162878 -2.217909,0.16288 -0.922065,-2e-6 -1.654346,-0.07039 -2.217909,-0.16288 -0.982521,-0.161149 -1.575824,-1.021103 -1.61818,-2.015927 -0.05438,-1.274697 -0.118586,-3.426462 -0.14786,-6.836546 v -7.967899 c 0.02927,-3.410648 0.09355,-5.562813 0.14786,-6.837581 0.04243,-0.994753 0.635659,-1.854778 1.61818,-2.015927 0.563493,-0.09242 1.295844,-0.162878 2.217909,-0.16288 0.922064,1e-6 1.654345,0.07039 2.217909,0.16288 0.376095,0.06172 0.695263,0.226026 0.948275,0.460932 z"
     sodipodi:nodetypes="cccccccscccccsssc" />
  <path
     id="path335"
     style="fill:#cc0000;fill-opacity:1;stroke-width:1.5;stroke-linecap:round;stroke-linejoin:round"
     d="m 35.843651,22.624172 c 0.03613,0.03358 0.07094,0.06853 0.104357,0.104874 0.343722,0.373859 0.541721,0.890612 0.565548,1.450121 0.05431,1.274768 0.118587,3.426932 0.14786,6.837581 v 7.967899 c -0.02927,3.410226 -0.09355,5.561919 -0.14786,6.836546 -0.04243,0.994753 -0.635589,1.854707 -1.61818,2.015927 -0.563494,0.09242 -1.295844,0.162878 -2.217909,0.16288 -0.922065,-2e-6 -1.654346,-0.07039 -2.217909,-0.16288 -0.982521,-0.161149 -1.575824,-1.021103 -1.61818,-2.015927 -0.05438,-1.274697 -0.118586,-3.426462 -0.14786,-6.836546 v -7.967899 c 0.02927,-3.410648 0.09355,-5.562813 0.14786,-6.837581 0.04243,-0.994753 0.635659,-1.854778 1.61818,-2.015927 0.563493,-0.09242 1.295844,-0.162878 2.217909,-0.16288 0.922064,1e-6 1.654345,0.07039 2.217909,0.16288 0.376095,0.06172 0.695263,0.226026 0.948275,0.460932 z"
     sodipodi:nodetypes="cccccccscccccsssc" />
</svg>
