<?xml version="1.0" encoding="UTF-8" standalone="no"?>
<svg
   fill="none"
   viewBox="0 0 48 48"
   height="256"
   width="256"
   version="1.1"
   id="svg6"
   sodipodi:docname="triangle_full_left - Copy.svg"
   inkscape:version="1.2.1 (9c6d41e410, 2022-07-14)"
   xmlns:inkscape="http://www.inkscape.org/namespaces/inkscape"
   xmlns:sodipodi="http://sodipodi.sourceforge.net/DTD/sodipodi-0.dtd"
   xmlns="http://www.w3.org/2000/svg"
   xmlns:svg="http://www.w3.org/2000/svg">
  <defs
     id="defs10" />
  <sodipodi:namedview
     id="namedview8"
     pagecolor="#ffffff"
     bordercolor="#666666"
     borderopacity="1.0"
     inkscape:showpageshadow="2"
     inkscape:pageopacity="0.0"
     inkscape:pagecheckerboard="0"
     inkscape:deskcolor="#d1d1d1"
     showgrid="false"
     inkscape:zoom="3.2382812"
     inkscape:cx="128.1544"
     inkscape:cy="128.1544"
     inkscape:current-layer="svg6" />
  <path
     fill="#729fcf"
     d="M24 3C12.402 3 3 12.402 3 24C3 35.598 12.402 45 24 45C35.598 45 45 35.598 45 24C45 12.402 35.598 3 24 3Z"
     id="path2" />
  <path
     id="path4"
     d="M 27.087524 13.925903 C 26.484632 13.927943 25.841495 14.116316 25.223877 14.517334 C 23.968578 15.332333 22.46471 16.333023 20.776611 17.500122 C 18.723113 18.919921 17.220489 20.257404 16.15979 21.345703 C 14.676992 22.867202 14.676992 25.132798 16.15979 26.654297 C 17.220489 27.742596 18.723113 29.080079 20.776611 30.499878 C 22.46471 31.666977 23.968578 32.667667 25.223877 33.482666 C 27.304275 34.833465 29.674257 33.77295 29.820557 31.296753 C 29.924057 29.542655 30 27.174397 30 24 C 30 20.825603 29.924057 18.457245 29.820557 16.703247 C 29.71769 14.9621 28.515429 13.921072 27.087524 13.925903 z M 24.853271 18.963501 C 25.546242 18.983783 26.122073 19.500579 26.172363 20.351807 C 26.224113 21.228806 26.261719 22.412802 26.261719 24 C 26.261719 25.587198 26.224113 26.771144 26.172363 27.648193 C 26.099213 28.886292 24.914222 29.416732 23.874023 28.741333 C 23.246374 28.333833 22.494074 27.833671 21.650024 27.250122 C 20.623275 26.540223 19.872146 25.871298 19.341797 25.327148 C 18.600398 24.566399 18.600398 23.433601 19.341797 22.672852 C 19.872146 22.128702 20.623275 21.459777 21.650024 20.749878 C 22.494074 20.166329 23.246374 19.666167 23.874023 19.258667 C 24.199086 19.047605 24.538285 18.954282 24.853271 18.963501 z "
     style="fill:#204a87;fill-opacity:1" />
</svg>
