<?xml version="1.0" encoding="UTF-8" standalone="no"?>
<svg
   fill="none"
   viewBox="0 0 48 48"
   height="256"
   width="256"
   version="1.1"
   id="svg6"
   sodipodi:docname="triangle_up.svg"
   inkscape:version="1.2.1 (9c6d41e410, 2022-07-14)"
   xmlns:inkscape="http://www.inkscape.org/namespaces/inkscape"
   xmlns:sodipodi="http://sodipodi.sourceforge.net/DTD/sodipodi-0.dtd"
   xmlns="http://www.w3.org/2000/svg"
   xmlns:svg="http://www.w3.org/2000/svg">
  <defs
     id="defs10" />
  <sodipodi:namedview
     id="namedview8"
     pagecolor="#ffffff"
     bordercolor="#666666"
     borderopacity="1.0"
     inkscape:showpageshadow="2"
     inkscape:pageopacity="0.0"
     inkscape:pagecheckerboard="0"
     inkscape:deskcolor="#d1d1d1"
     showgrid="false"
     inkscape:zoom="3.2382812"
     inkscape:cx="128.1544"
     inkscape:cy="128.1544"
     inkscape:current-layer="svg6" />
  <path
     fill="#729fcf"
     d="M3 24C3 12.402 12.402 3 24 3C35.598 3 45 12.402 45 24C45 35.598 35.598 45 24 45C12.402 45 3 35.598 3 24Z"
     id="path2" />
  <path
     id="path4"
     d="M 24 15.047607 C 23.053176 15.047607 22.106452 15.418391 21.345703 16.15979 C 20.257404 17.220489 18.919921 18.723113 17.500122 20.776611 C 16.333023 22.46471 15.332333 23.968578 14.517334 25.223877 C 13.166535 27.304275 14.22695 29.674257 16.703247 29.820557 C 18.457245 29.924057 20.825603 30 24 30 C 27.174397 30 29.542655 29.924057 31.296753 29.820557 C 33.77295 29.674257 34.833465 27.304275 33.482666 25.223877 C 32.667667 23.968578 31.666977 22.46471 30.499878 20.776611 C 29.080079 18.723113 27.742596 17.220489 26.654297 16.15979 C 25.893548 15.418391 24.946824 15.047607 24 15.047607 z M 24 18.785522 C 24.473412 18.785522 24.946774 18.971097 25.327148 19.341797 C 25.871298 19.872146 26.540223 20.623275 27.250122 21.650024 C 27.833671 22.494074 28.333833 23.246374 28.741333 23.874023 C 29.416732 24.914222 28.886292 26.099213 27.648193 26.172363 C 26.771144 26.224113 25.587198 26.261719 24 26.261719 C 22.412802 26.261719 21.228806 26.224113 20.351807 26.172363 C 19.113658 26.099213 18.583268 24.914222 19.258667 23.874023 C 19.666167 23.246374 20.166329 22.494074 20.749878 21.650024 C 21.459777 20.623275 22.128702 19.872146 22.672852 19.341797 C 23.053226 18.971097 23.526588 18.785522 24 18.785522 z "
     style="fill:#204a87;fill-opacity:1" />
</svg>
