<svg xmlns="http://www.w3.org/2000/svg" fill="none" viewBox="0 0 48 48" height="256" width="256"><path fill="#729fcf" d="M24 3C12.402 3 3 12.402 3 24C3 35.598 12.402 45 24 45C35.598 45 45 35.598 45 24C45 12.402 35.598 3 24 3Z"></path><path fill="#204a87" d="M29.8206 31.2967C29.6743 33.7729 27.3044 34.8333 25.224 33.4825C23.9687 32.6675 22.4646 31.6671 20.7765 30.5C18.723 29.0802 17.2204 27.7427 16.1597 26.6544C14.6769 25.1329 14.6769 22.8671 16.1597 21.3456C17.2204 20.2573 18.723 18.9198 20.7765 17.5C22.4646 16.3329 23.9687 15.3325 25.224 14.5175C27.3044 13.1667 29.6743 14.2271 29.8206 16.7034C29.9241 18.4574 30 20.8256 30 24C30 27.1744 29.9241 29.5426 29.8206 31.2967Z"></path></svg>